<?xml version="1.0" encoding="UTF-8" standalone="no"?>
<!-- Generator: Adobe Illustrator 21.0.0, SVG Export Plug-In . SVG Version: 6.00 Build 0)  -->
<svg id="Layer_1" style="enable-background:new 0 0 559 520" xmlns="http://www.w3.org/2000/svg" xml:space="preserve" viewBox="0 0 559 520" version="1.1" y="0px" x="0px" xmlns:xlink="http://www.w3.org/1999/xlink">
<style type="text/css">
	.st0{fill:#CFEBF6;}
	.st1{fill-rule:evenodd;clip-rule:evenodd;}
	.st2{fill:#9EE4FF;}
	.st3{fill:#383D61;}
	.st4{fill:#FFFFFF;}
</style>
<path class="st0" d="m451.9 251.2m-73.6 120c0.7-0.4 1.4-0.8 2.2-1.2 32.9-18.2 59.7-45.7 74-85.9 2.4-6.9 4.5-14.2 3.7-23.6-0.6-7.7-3.4-17-8.5-25.8-4.5-25-15.1-53.3-34.7-77.8-24.2-30.1-55.8-45.9-78.2-45.7-12.3 0.1-22.4 4.1-32.4 8.3-33.1 13.8-65.4 28.8-96.8 45-3 1.6-6.1 3.2-9.1 4.8-20.7 11.1-40.5 23.9-53.9 44.2-5.8 8.8-10.5 19-18.2 25.5-6.3 5.3-14.6 8-19.5 14.9-4.2 5.9-5.8 14.6-6.1 24.1-0.4 11.5 1.1 24.7 6.4 39 5.3 14.4 15 30.2 26.8 41.4 11.5 10.8 23.6 16.4 35.3 26.2 7.4 6.2 14.6 14.2 22.1 18.8 7.8 4.9 14.7 5.3 21.1 5.4 19.6 0.2 37.9-2.1 55.9-5 39.4-6.2 77.5-15.2 109.9-32.6"/>
	<path class="st1" d="m186.3 218.2c0.6 2.2-2.5 2.3-2.2 0.2 0.6-0.8 1.6-0.9 2.2-0.2z"/>
	<path class="st1" d="m183.1 150.7c3.1-0.7 4.9 0.9 5.1 3 0.6 5.6-8.2 6.4-8.3 0.8 0-2.1 1.5-3.1 3.2-3.8zm-0.4 4.4c0.9 3.7 5.2-2.6 1.4-1.8-0.9 0.2-1.7 0.4-1.4 1.8z"/>
		<path class="st1" d="m405.5 330.9c5.3-1.5 10.6-1 14.4 0.7 2.8 1.3 6.1 3.7 7.6 7 1.6 3.5 0.3 7.7-1.2 10-2.7 4.1-8.8 6.8-15.8 7.1-0.8 0-1.9-0.1-2.7 0.1-0.9 0.2-1.6 0.9-2.4 1.4-0.7 0.5-1.5 0.9-2.5 1.4s-5.3 2.4-5.8 1c-0.3-0.9 1.4-1.6 2.2-2.5 0.3-0.3 2.2-2 2-2.5-0.1-0.2-1.2-0.6-1.6-0.7-2.5-1.1-5.3-3.1-6.3-6.7-2.2-8.4 4.5-14.2 12.1-16.3zm-1.5 25.3c1-0.6 2.1-1.6 3.2-2 1.2-0.3 2.6-0.1 3.8-0.1 5.8-0.2 11.3-2.6 13.7-6.1 1.3-1.9 2.5-5.4 1.5-8.2-1.1-3.2-4.3-5.4-7.2-6.8-3.3-1.5-7-1.8-10.9-1.3-5.4 0.8-9.9 3.9-12 6.9-1.4 2.1-2.2 5.1-1.3 8.3 0.8 2.9 3.1 4.8 5.3 5.8 0.5 0.2 2.3 0.6 2.4 1 0.4 0.9-1.3 2.9-1.7 3.4-0.3 0.3-0.7 0.6-0.5 0.8 1.6-0.5 2.6-1.1 3.7-1.7z"/>
		<path class="st1" d="m397.6 338.7c0 0.1 0.1 0.2 0.1 0.2-0.5 1.1-0.7 2.4-1.8 3.2-0.6-1.2 0.9-2.3 1.2-3.4 0.3-0.1 0.4-0.1 0.5 0z"/>
		<path class="st1" d="m398.7 339.5c0 0.6-0.3 1.2-0.6 1.7-0.2 0.4-0.5 1.2-1.2 1.2-0.1-1.1 0.6-2.4 1.5-3.1 0.1 0.1 0.2 0.2 0.3 0.2z"/>
		<path class="st1" d="m399.6 340c0.2 0.6-0.2 1.5-1 1.8-0.5-0.6 0.3-1.9 1-1.8z"/>
		<path class="st1" d="m400.8 340.4c0.1 0.5-0.2 0.8-0.6 1-0.1-0.1-0.2-0.2-0.4-0.2 0-0.5 0.5-1.2 1-0.8z"/>
		<path class="st1" d="m165.4 240.6c-1 3.6-3.7 5.6-6.3 6.7-0.3 0.1-1.5 0.5-1.6 0.7-0.1 0.5 1.7 2.3 2 2.5 0.9 0.8 2.5 1.6 2.2 2.5-0.5 1.4-4.7-0.5-5.8-1-0.9-0.5-1.7-0.9-2.5-1.4s-1.6-1.1-2.4-1.4c-0.8-0.2-1.9-0.1-2.7-0.1-7-0.3-13.1-2.9-15.8-7.1-1.5-2.3-2.8-6.6-1.2-10 1.5-3.2 4.8-5.7 7.6-7 3.8-1.7 9.1-2.2 14.4-0.7 7.8 2.2 14.5 7.9 12.1 16.3zm-7 10.8c0.1-0.3-0.3-0.5-0.5-0.8-0.4-0.5-2-2.5-1.7-3.4 0.2-0.4 1.9-0.8 2.4-1 2.2-1 4.4-2.9 5.3-5.8 0.9-3.3 0.1-6.3-1.3-8.3-2-3-6.6-6.1-12-6.9-3.9-0.5-7.6-0.3-10.9 1.3-2.8 1.3-6 3.6-7.2 6.8-1 2.8 0.2 6.3 1.5 8.2 2.4 3.5 7.9 5.9 13.7 6.1 1.2 0.1 2.6-0.2 3.8 0.1s2.2 1.3 3.2 2c1.4 0.6 2.4 1.1 3.7 1.7z"/>
		<path class="st1" d="m161.3 232.1c0 0.1-0.1 0.2-0.1 0.2 0.5 1.1 0.7 2.4 1.8 3.2 0.6-1.2-0.9-2.3-1.2-3.4-0.2-0.1-0.3-0.1-0.5 0z"/>
		<path class="st1" d="m160.3 232.9c0 0.6 0.3 1.2 0.6 1.7 0.2 0.4 0.5 1.2 1.2 1.2 0.1-1.1-0.6-2.4-1.5-3.1-0.2 0.1-0.2 0.2-0.3 0.2z"/>
		<path class="st1" d="m159.4 233.4c-0.2 0.6 0.2 1.5 1 1.8 0.5-0.5-0.3-1.9-1-1.8z"/>
		<path class="st1" d="m158.2 233.8c-0.1 0.5 0.2 0.8 0.6 1 0.1-0.1 0.2-0.2 0.4-0.2 0-0.5-0.5-1.2-1-0.8z"/>
	<path class="st1" d="m121.7 133.4c4.6-0.9 4.4 5.9 1.2 6.1-3.1 0.3-5.1-5.3-1.2-6.1zm1.2 3.5c0-0.5 0-1-0.2-1.2h-0.6c0.1 0.7 0.2 1.2 0.8 1.2z"/>
	<path class="st1" d="m144.9 144.1c-2-3.1-0.9-7.7 2.4-8.1 2.2-0.3 4.9 1 5.3 3.2 0.8 3.8-3.7 7.8-7.7 4.9zm3-1.4c3.5 0.7 2.3-6.7-1.2-3.4 0 1.7 0.1 3.1 1.2 3.4z"/>
	<path class="st1" d="m135.6 174c0.7-0.2 1.3-0.2 1.6 0.8 1 4-5.5 0.2-1.6-0.8z"/>
	<path class="st1" d="m160.8 189.4c5.6-1.4 5.4 7.1 1 6.9-3.6 0-4.9-5.9-1-6.9zm1.6 4.4c0.6-0.6 0.3-1.5-0.2-2-2-0.2-1 2 0.2 2z"/>
	<path class="st1" d="m123.5 199.2c6.5-1.2 5.9 8.5 0.6 8.3-3.5-0.2-5.5-7.5-0.6-8.3zm1.4 5.5c2.6-0.4-0.3-5.2-1.8-2.2 0.4 1.1 0.7 2.4 1.8 2.2z"/>
	<path class="st1" d="m146.5 202.3c-0.5 5.2-5-2.4 0 0z"/>
		<path d="m184.9 192.9h10.9c2 0 2-3 0-3h-10.9c-2-0.1-2 3 0 3z"/>
		<path d="m188.5 184.6v13.8c0 2 3 2 3 0v-13.8c0.1-1.9-3-1.9-3 0z"/>
		<path d="m363.4 354.3h10.9c2 0 2-3 0-3h-10.9c-2 0-2 3 0 3z"/>
		<path d="m367 346v13.8c0 2 3 2 3 0v-13.8c0.1-1.9-3-1.9-3 0z"/>
	<path class="st1" d="m408.2 278.9c2.8-0.5 6 0.6 6.5 2.4 1.6 5.6-10.6 6.3-10.3 0.9 0.1-1.8 1.6-2.9 3.8-3.3zm3.9 3.3c-0.2-1.9-5.4-1.8-5 0.9 1.4 1.3 5.2 0.8 5-0.9z"/>
	<path class="st1" d="m442.8 291.1c2.1-2.9 8.8-2.5 10.1 0.5 1 2.3-1.1 5-3.8 5.4-4.6 0.7-6.4-2.3-6.3-5.9zm2.6 1.3c-1.2 2.7 5.8 3.7 5 0.3-0.3-1.1-1.8-1.5-3.4-1.1-0.9 0.2-1.4 0.4-1.6 0.8z"/>
	<path class="st1" d="m389.9 301.1c9.5-1.5 12.2 9.2 3 10.9-5.6 1-11.2-3.6-8.1-8.2 0.8-1.3 2.8-2.4 5.1-2.7zm-1.5 3.1c-0.7 0.4-1.8 1.4-2 2.2-0.3 1.7 2 3.2 3.6 3.5 6.6 1 8.1-7.5 0.8-6.5-0.9 0.1-1.8 0.4-2.4 0.8z"/>
	<path class="st1" d="m428.4 300.3c2.4-0.5 3.4 0.4 3.6 1.4 0.6 3.3-5.8 3.9-5.9 0.8-0.1-1.5 0.8-1.9 2.3-2.2z"/>
				<path class="st2" d="m377.8 268.7c0 51.4-31 62.5-77.1 63.7-3.8 0.1-7.4 2-9.5 5.1l-18.7 26.6c-2.5 3.1-4.8 4.1-6.5 3.4-1.8-0.7-1.1-4.4-0.8-6.2 1.4-9 3.4-14.2 1.8-23.6-0.2-1.3-0.4-2.6-1.4-3.5-0.9-0.9-2.2-1.5-3.5-1.4-16.9 0.2-34.3-0.8-51-8.6-11.2-5.2-17.3-15.2-20.7-26.9-8.6-30-10.2-73.8 17.3-95.6 8.9-7.1 21.7-11.1 32.8-13.4 15.7-3.2 31.8-2.9 47.8-2.9 51.9 0 89.5 10.3 89.5 83.3z"/>
				<path class="st3" d="m267 369.4c-0.6 0-1.2-0.1-1.7-0.3-2.9-1.1-2.3-5.3-1.9-7.8v-0.2c0.3-2.1 0.7-4 1-5.8 1.1-5.8 2-10.4 0.8-17.3-0.2-1.1-0.4-2.1-0.9-2.6-0.6-0.6-1.4-1-2.3-1h-3.3c-14.6 0-31.9-1-48.5-8.8-10.4-4.8-17.7-14.2-21.6-27.9-9.4-32.7-9.6-75.5 17.9-97.3 9.7-7.7 23.6-11.7 33.5-13.7 13.3-2.7 26.5-2.9 40.1-2.9h8c22.5 0 47.8 1.7 65.2 14.6 17.5 12.8 26 35.8 26 70.3 0 52.5-31.5 64.1-78.8 65.3-3.3 0.1-6.4 1.7-8.2 4.4l-18.5 26.6c-2.3 2.9-4.6 4.4-6.8 4.4zm-0.3-3.3h0.3c0.5 0 1.9-0.3 4.1-3l18.6-26.5c2.5-3.5 6.5-5.6 10.9-5.8 46.6-1.2 75.5-12.1 75.5-62.1 0-68.3-32.2-81.6-87.9-81.6h-8c-13.4 0-26.5 0.2-39.5 2.9-9.6 1.9-23 5.8-32.1 13-26.3 20.8-25.5 63.6-16.8 93.9 3.7 12.9 10.2 21.4 19.8 25.9 16.1 7.5 32.8 8.5 47.1 8.5h3.2c1.8 0 3.5 0.7 4.8 1.9 1.3 1.3 1.6 2.9 1.8 4.4 1.3 7.5 0.3 12.6-0.8 18.5-0.3 1.7-0.7 3.6-1 5.7v0.2c-0.5 2.8-0.3 3.8 0 4.1-0.1 0-0.1 0 0 0z"/>
			<path class="st3" d="m212.2 213.5c-0.4 0-0.7-0.1-1-0.3-0.7-0.5-0.9-1.6-0.3-2.3 4.4-5.6 9.4-9.1 14.6-10.4 0.9-0.2 1.8 0.3 2 1.2s-0.3 1.7-1.2 2c-4.5 1.1-8.8 4.2-12.8 9.2-0.3 0.3-0.8 0.6-1.3 0.6z"/>
			<path class="st3" d="m231.8 201.1c-0.9 0-1.7-0.7-1.7-1.6s0.7-1.6 1.7-1.6c0.3 0 0.7-0.1 1.2-0.3 0.6-0.2 1.4-0.5 2.3-0.5s1.7 0.7 1.7 1.6-0.7 1.6-1.7 1.6c-0.3 0-0.7 0.1-1.2 0.3-0.6 0.2-1.4 0.5-2.3 0.5z"/>
		<polygon points="227.4 282.1 271.9 245.7 287 263.1 334.7 249.3 289.4 286.1 269.3 269.1" class="st4"/>
		<path class="st3" d="m289.4 287.7c-0.4 0-0.8-0.1-1.1-0.4l-19.4-16.4-41 12.7c-0.8 0.2-1.6-0.1-2-0.8s-0.2-1.5 0.4-2l44.5-36.4c0.7-0.6 1.7-0.5 2.3 0.2l14.4 16.6 46.6-13.5c0.8-0.2 1.6 0.1 1.9 0.8 0.4 0.7 0.2 1.5-0.4 2l-45.3 36.8c-0.2 0.3-0.5 0.4-0.9 0.4zm-20.1-20.2c0.4 0 0.8 0.1 1.1 0.4l19 16.1 38-30.9-39.9 11.6c-0.6 0.2-1.3 0-1.7-0.5l-14.1-16.2-36.8 30 33.9-10.5h0.5z"/>
	<path class="st1" d="m330.3 364.8c2.1 0.6 6.9-1.2 7.4 0.6 0.3 0.9-1.5 2.5-1.7 2.7-4.4 4.5-8.3 8.3-12.7 13.1-0.4 0.4-1.4 1.9-2.2 2-1.3 0-3.7-3.2-4.5-4-3.7-4-6.6-7-10.5-10.9-0.5-0.5-1.9-1.3-1.5-2.4 0.5-1.6 6.1-0.5 8.4-1 0.3-3.6-0.5-9.5 0.4-13 2.7-0.5 7.1-0.3 10.3-0.4 1.3-0.1 4.5-0.4 5.4 0.3 1.3 0.9 0.9 6.9 1 9.1 0.1 1.3 0 2.7 0.2 3.9zm-15.6-11.6c-0.3 4.5 1.1 9.9-0.3 13.3-1.9 0.3-4.4 0.1-6.6 0.1 4 4.7 8.8 9.8 13.3 14.5 3.6-4.3 8-8.8 11.7-12.8 0.5-0.6 1.3-1.4 1.3-1.8-2.1-0.2-5 0.6-5.7-1-0.2-3.9-0.2-8-0.1-12-4.6-0.1-9-0.3-13.6-0.3z"/>
	<path class="st1" d="m408.4 256c-0.2 1.2 0 2.8 0 4.3s0.3 3-0.5 3.9c-3.4 0.1-7.5 0.2-10.7-0.2-0.5-2.2-0.2-5.4-0.5-7.8-1.4-0.4-3.6 0-4.8-0.5-0.4-1.5 1.1-2.5 1.9-3.3 2.7-2.7 5.7-5.5 8.3-8.3 1.1-0.2 2.5 1.7 3.5 2.6 1.8 1.8 3.6 3.7 5.5 5.6 0.8 0.8 2.6 2.3 2 3.2-0.7 1.1-3.3 0.1-4.7 0.5zm-1.3-5.8c-1.5-1.6-2.9-3.2-4.3-4.8-0.1 0-0.1-0.1-0.2-0.1-2.3 2.3-4.7 4.8-6.8 7.2-0.7 0.8-1.6 1.4-2 2.4 1.3 0 2.5 0.1 3.7 0.3 0.9 2.1 0.4 5.5 0.8 8 3 0.1 5.8-0.1 8.7-0.1 0.3-2.6-0.4-6.2 0.6-8 1.1-0.2 2.3-0.2 3.6-0.2-1-1.7-2.7-3.2-4.1-4.7z"/>
</svg>
