<?xml version="1.0" encoding="UTF-8" standalone="no"?>
<!-- Generator: Adobe Illustrator 21.0.0, SVG Export Plug-In . SVG Version: 6.00 Build 0)  -->
<svg id="Layer_1" style="enable-background:new 0 0 559 520" xmlns="http://www.w3.org/2000/svg" xml:space="preserve" viewBox="0 0 559 520" version="1.1" y="0px" x="0px" xmlns:xlink="http://www.w3.org/1999/xlink">
<style type="text/css">
	.st0{fill:#CFEBF6;}
	.st1{fill-rule:evenodd;clip-rule:evenodd;}
	.st2{fill-rule:evenodd;clip-rule:evenodd;fill:#FFFFFF;}
</style>
<path class="st0" d="m80.1 261.1m102.9-124.8c-0.9 0.3-1.8 0.7-2.7 1-40.3 15.5-75.3 42.5-97.9 86-3.9 7.4-7.4 15.5-8 26.3-0.5 8.8 1.1 19.9 5.6 30.7 1.2 29.1 8.7 63 27.2 94 22.7 38.1 56.2 61.1 81.7 64.4 14 1.8 26.2-1.1 38.2-4.3 39.9-10.4 79.1-22.3 117.5-35.8 3.7-1.3 7.4-2.6 11.1-4 25.4-9.4 49.9-20.7 68.4-41.7 8-9.1 14.9-20 24.8-26.1 8-5 17.9-6.7 24.6-13.8 5.7-6 8.9-15.7 10.8-26.5 2.3-13.1 2.7-28.2-1.1-45.4s-12.2-36.7-24-51.4c-11.3-14.2-24.3-22.4-36-35.4-7.4-8.2-14.4-18.4-22.1-24.9-8.1-6.8-15.9-8.4-23.2-9.5-22.3-3.3-43.5-3.7-64.5-3.3-46 0.9-90.7 5-130.4 19.7"/>
	<path class="st1" d="m448.1 167.5c1 3.7-4.2 3.7-3.6 0.3 0.9-1.2 2.4-1.4 3.6-0.3z"/>
	<path class="st1" d="m406.2 120.4c9.2-2.3 8.8 11.6 1.6 11.4-6-0.2-8-9.8-1.6-11.4zm2.6 7.1c1-1 0.5-2.4-0.3-3.3-3.3-0.2-1.7 3.4 0.3 3.3z"/>
		<path d="m445.6 126h17.8c3.2 0 3.2-5 0-5h-17.8c-3.2 0-3.2 5 0 5z"/>
		<path d="m451.7 112.4v22.6c0 3.2 5 3.2 5 0v-22.6c0-3.2-5-3.2-5 0z"/>
	<path class="st1" d="m396.5 180.5c10.2-2.5 8.1 10.7 1 10.4-5.5-0.2-8-8.7-1-10.4zm-0.4 4.9c0.2 2.2 3.5 1.8 3.2-0.6-1.1-1-2.3 0.2-3.2 0.6z"/>
	<path class="st1" d="m88.4 404.6c9.2-2.3 8.8 11.6 1.6 11.4-5.9-0.2-8-9.8-1.6-11.4zm2.6 7.2c1-1 0.5-2.4-0.3-3.3-3.3-0.3-1.7 3.3 0.3 3.3z"/>
		<path d="m127.9 410.2h17.8c3.2 0 3.2-5 0-5h-17.8c-3.2 0.1-3.3 5 0 5z"/>
		<path d="m133.9 396.7v22.6c0 3.2 5 3.2 5 0v-22.6c0-3.2-5-3.2-5 0z"/>
	<path class="st1" d="m148.5 293.3c4.6-1 9.9 1.3 10.7 4.9 2.7 11.6-17.3 12.9-16.9 2 0.1-3.8 2.6-6.1 6.2-6.9zm6.5 6.8c-0.4-3.8-8.8-3.6-8.1 1.9 2.1 2.7 8.4 1.7 8.1-1.9z"/>
	<path class="st1" d="m118.6 339.1c15.6-3.1 19.9 19 4.9 22.4-9.2 2.1-18.4-7.4-13.3-16.9 1.3-2.6 4.6-4.7 8.4-5.5zm-2.6 6.5c-1.1 0.9-3 2.9-3.3 4.6-0.5 3.6 3.3 6.6 5.8 7.1 10.8 2.1 13.4-15.6 1.3-13.3-1.3 0.2-2.8 0.8-3.8 1.6z"/>
	<path class="st1" d="m366.8 271.1c-0.3 36.5 0 69.6 0 106.2 0 10.9 2 25.3-3 35.2-3.5 7-11.5 12.7-18.1 14.5-2.2 0.6-5.5 0.2-8.5 0.2-36.1 0.3-72.7 0.2-110.1 0.2-5.2 0-12.9 0.9-16.8-0.7-12.1-4.9-18.9-19.1-20.4-29.2-1.6-10.4-0.2-22.3-0.2-33.8 0-72.9 0.2-146 0.2-219.4 0-8.8-1.9-18.5 4.4-26.4 3.9-5 11-8.7 15.9-9.9s10.9 0 17 0c27.2 0 56.8-1.1 84.3-0.2 5.2 0.2 11.1 0.5 17 0.5 9.1 0 18.6-2 26.9 3.9 14.2 10.1 11 24 11 35.4 0 40.9 1.2 82.6 0.4 123.5z"/>
	<path class="st2" d="m195.9 128.6c-2.6 9.4-1.3 22.8-1.1 33.8 0.2 11.7 0 23.2 0 34v187c0 11.9 0 29.1 16.3 37.5 4.1 2.1 11.3 1.4 16.5 1.4 28.3 0 56.1 0.2 83.4 0.2 10.1 0 23.5 2 33.5-0.5 4.5-1.1 10.9-4.5 14.2-9.7 2.9-4.6 2.8-11.7 2.8-17.9 0-67.1 0.2-133.1 0.2-199.2 0-17.1 0.8-36.5 0.2-54.5-0.2-6.4-0.2-13.2-3-18.2-6.6-11.6-18.6-10.6-27.6-10.6-35.7 0-70.3 0.4-104.8 0.5-8.6 0-17.9-0.8-24.8 6.4-3.5 4-4.9 6.5-5.8 9.8z"/>
	<path class="st1" d="m199.3 153.7c0.1-0.1 0-0.4 0.2-0.7 2.1-1.9 8.3-1.1 9.9-1.1 23-0.9 46.2 0.4 68.9-0.5 20.6-0.8 46.9 0.2 69.2 0.2 1 0 8.6-0.7 9.7 0.5 1 1.1 0.7 12.3 0.7 14 0 65.9-0.2 129.6-0.2 196 0 3.6 1.2 11.9-0.5 13.8-1.5 1.7-8 1.2-9.9 1.2-46.8 0-90.8 0.9-137.4 0.9-3.2 0-7.9 0.3-9.6-1.4-2.2-2.1-1.6-9.3-1.6-14 0-60.7-0.7-119.5-0.7-180.4 0-4 0.3-9 0.4-13.8 0.2-4.2-1.1-11.8 0.9-14.7zm4.8 220.3c46.3-1.3 93.7-2.3 139.7-2.3 2.9 0 6.3 0.9 9-0.7-0.4-67.3 0.7-135.5 0.7-202.4 0-4.4 0.5-8.8-0.2-13.1-50.2 1.2-100.5 1-150.7 1.4 1 72.4 0.4 144.8 1.5 217.1z"/>
	<path class="st1" d="m216.8 160.1c0.6 2.5-4.5 8.2-7.1 8.5-1.5-1.8 4.9-9.2 7.1-8.5z"/>
	<path class="st1" d="m223.4 159.9c1.9 2.3-3.8 7.3-6 9.6-3 3.3-6.2 7.9-9 8-1.3-2.5 4.3-7.3 6.9-10.1 2.8-2.8 5.6-6.3 8.1-7.5z"/>
	<path class="st1" d="m299 129.8c-1.4 4-6.8 2.5-9.9 2.5-7.1 0-13.8-0.2-21.4-0.2-2.1 0-13.8 1.5-10.3-3.4 1.2-1.7 8-1.2 10.8-1.2 6.8 0 14.1 0.2 20.9 0.2 3.4 0 8-1.5 9.9 2.1z"/>
	<path class="st1" d="m231.9 160.1c0.5 3-2.8 4.9-5.1 7.4-2.5 2.7-5.1 5.7-8.3 9.2-3.5 3.8-6.5 10.7-10.6 8.7 1.5-3.4 5.6-7.1 9.6-11.5 5.5-5.7 10.4-12.7 14.4-13.8z"/>
	<path class="st1" d="m228.3 174.4c0.3 3.1-4.4 6.5-7.3 9.7-2.7 3-6.8 9.6-9.9 10.3-1.2-3.1 3.2-7 6.2-10.3 2-2.2 4.5-4.4 6.4-6.4 1.4-1.7 2.4-4.5 4.6-3.3z"/>
	<path class="st1" d="m222.8 189.1c1.6 1.7-1.4 3.5-3 5.3-2 2.2-4.6 6.6-6.9 5.5-1-1.9 2-3.7 3.7-5.5 1.9-2.2 3.9-5.8 6.2-5.3z"/>
	<path class="st1" d="m221.8 196.9c0 2.6-5.4 9.3-8 9-1.1-2.3 5.7-9.6 8-9z"/>
	<path class="st1" d="m223 202.6c0.7 1.8-1.8 3.1-3.2 4.6-1.9 2.1-3.5 5.6-5.7 5.3-1.5-1.5 1.2-4.2 3-6.2 1.6-1.9 4.1-5.3 5.9-3.7z"/>
	<path class="st1" d="m385.7 147.5c4.1-6.5 12.3 0.9 9.4 5.7-3.9 6.7-13.1 0-9.4-5.7zm5.2 4.3c0.6-0.8 0.6-1.5 0-2.3-0.6-0.1-1.2-0.8-1.8 0-0.1 1.2 0.9 1.7 1.8 2.3z"/>
	<path class="st1" d="m261.4 390.4c4.4-6.6 10.1-4.4 16.8-4.8 5.6-0.4 12.1-1.9 16.8 3.4 3.5 4 4.4 17.4-1.2 21.4-3.6 2.6-11 1.6-15.9 1.6-3.7 0-11.7 1.7-15.9-2.5-3.2-3.4-3.5-14.8-0.6-19.1zm3.9 15.8c2.9 2.8 9.9 1.5 13.1 1.6 4.1 0.2 10.9 1.1 13.3-1.4s2-12.9 0-15.2c-1.5-1.7-8.4-1.9-12.4-1.9-5.5 0-12-1.3-14.7 3.2-1.9 3.3-1.4 11.7 0.7 13.7z"/>
	<path class="st1" d="m244.1 128.2c3.5-6.5 11.8 0.1 7.1 4.8-2.6 2.6-9.9 0.5-7.1-4.8z"/>
		<path class="st1" d="m323.2 329.4c-14.2-1-23.9-4.8-28.7-17.1-3-7.6-1.5-23.3-1.8-35.1-0.4-18.5 2-31.7 12.5-37.5 1.5-0.8 4.4-2.2 6.1-2.1 38 0.9 79.1 0.6 118.4 0.6 5.5 0 11.8-0.6 16.5 0.3 7.5 1.4 17.7 12 18.9 19.8s0.3 19.3 0 27.8 1.2 19.9-0.6 27.2c-2 8-10.3 15-18.3 16.2-6.3 0.9-13.6 0.3-20.4 0.3-16.4 0-34.2 0.6-51.3 0.6-3.6 0-7.9-0.7-10.4 0-2.7 0.7-7.1 5.7-9.8 7.9-7.9 6.5-15.7 13.6-23.8 20.1-1.3 1.1-4 3.2-4.9 2.4-1.7-1.5-1.3-12.8-1.5-15.6-0.4-5.6-0.8-11.3-0.9-15.8z"/>
		<path class="st2" d="m352.8 333.7c2.5-2.2 5.8-6.4 8.2-7 2.6-0.7 6.8-0.3 10.4-0.3s7.2-0.2 10.7-0.3c14.5-0.3 28.5-0.3 42.7-0.9 7.7-0.3 15.4 0.4 21.4-0.6 6.7-1.2 13.1-9.3 15-14.9 0-12.3-0.6-27.3-0.6-39.7 0-4.3 0.5-9.1-0.3-12.5-1.7-7.6-8.9-10.9-14.7-14.3-44.8 0.6-92.6-1.5-134.9-1.5-0.5 0-0.8 0.2-1.2 0.3-14.8 5.8-12.6 31.1-11.9 52.2 0.2 5.4-0.2 11.5 0.9 15.3 2.2 7.3 9.1 13.3 17.4 14.6 3 0.5 7.9-0.2 9.5 0.9 2.4 1.8 1.7 10.4 2.1 14.4 0.6 5.5 1.3 11 1.5 14.9 8-6.3 15.8-13.5 23.8-20.6z"/>
		<path class="st1" d="m399.7 266.7c0 1.3-1.5 1.3-2.4 0.9-0.8-2.2 2.4-2.9 2.4-0.9z"/>
		<path class="st1" d="m385.1 266.4v1.5c-0.6 0.2-0.9 0.8-1.8 0.6-1.7-1 0.2-3.4 1.8-2.1z"/>
		<path class="st1" d="m332.7 269.9c-1 0.5-2.3 0.3-2.7-0.6-0.3-2.7 3.3-2 2.7 0.6z"/>
		<path class="st1" d="m361.7 267.8c1 1.8-1.4 2.8-2.4 1.5-0.4-1.8 1.2-2.1 2.4-1.5z"/>
		<path class="st1" d="m369.2 268.9c-0.7-0.1-0.7 0.5-1.5 0.3-2.2-1.6 2-3.5 1.5-0.3z"/>
		<path class="st1" d="m346.4 268.1c0.1 1.2-0.1 2.1-1.2 2.1-0.8 0.2-0.6-0.6-1.2-0.6-0.5-1.7 1.4-2.3 2.4-1.5z"/>
		<path class="st1" d="m375.1 269.9c-4.1 2.4-1-5 0 0z"/>
		<path class="st1" d="m390 269.3c0.8 1.3-0.5 2.6-1.8 1.8-0.3-0.4-0.3-1.1-0.3-1.8 0.4-0.4 1.7-0.4 2.1 0z"/>
		<path class="st1" d="m398 280.6c0.5 0.8 0.9 1.2 0.9 1.8 0.2 5.7-9.2-2.1-0.9-1.8z"/>
		<path class="st1" d="m381.5 281.8c2 1.5 0.2 5-2.4 3.7-1.4-1.6-0.5-4.5 2.4-3.7z"/>
		<path class="st1" d="m343.7 283.9c1.8 3.4-2.9 4.5-3.7 2.1-0.6-1.8 1.6-3.7 3.7-2.1z"/>
		<path class="st1" d="m363.8 283.6c0.7 2.2-1.8 2.7-2.7 1.5-0.1-1.6 1.4-2.1 2.7-1.5z"/>
		<path class="st1" d="m329.6 284.8v1.5c-3 2.3-3.3-3.8 0-1.5z"/>
		<path class="st1" d="m438.8 290.2c-3.3-1.3 2-6.4 3.1-2.7 0.2 1-0.2 3-3.1 2.7z"/>
		<path class="st1" d="m229.8 280.1c-0.2 2.3 0.1 11.7-1.3 13-0.7 0.7-3-1.2-4.1-2-6.8-5.5-13.3-11.4-19.9-16.9-2.2-1.8-6-6.1-8.2-6.6-2.1-0.6-5.7 0-8.7 0-14.3 0-29.2-0.5-43-0.5-5.7 0-11.9 0.5-17.1-0.3-6.7-1-13.7-6.8-15.4-13.5-1.5-6.1-0.3-15.7-0.5-22.8-0.3-7.1-1-16.7 0-23.3 1-6.5 9.6-15.5 15.9-16.6 4-0.7 9.2-0.3 13.8-0.3 32.9 0 67.3 0.2 99.2-0.5 1.4 0 3.8 1.1 5.1 1.8 8.8 4.9 10.8 16 10.5 31.5-0.3 9.9 0.9 23.1-1.5 29.4-4 10.3-12.1 13.5-24 14.3-0.1 3.8-0.5 8.5-0.8 13.3z"/>
		<path class="st2" d="m225.7 287.5c0.2-3.3 0.8-7.9 1.3-12.5 0.3-3.3-0.2-10.5 1.8-12 1.3-1 5.4-0.4 7.9-0.8 6.9-1.1 12.7-6.2 14.6-12.3 1-3.1 0.6-8.2 0.8-12.8 0.6-17.6 2.4-38.9-10-43.7-0.4-0.1-0.6-0.3-1-0.3-35.4 0-75.5 1.8-113 1.3-4.8 2.9-10.8 5.7-12.3 12-0.7 2.8-0.3 6.9-0.3 10.5 0 10.3-0.5 22.9-0.5 33.2 1.6 4.7 6.9 11.5 12.5 12.5 5 0.9 11.5 0.2 17.9 0.5 11.9 0.5 23.7 0.5 35.8 0.8 2.9 0.1 6 0.2 8.9 0.3 3 0 6.5-0.3 8.7 0.3 2 0.5 4.8 4 6.9 5.9 6.8 5.9 13.3 11.9 20 17.1z"/>
		<path class="st1" d="m166.4 214.3c0 1.1 1.3 1.1 2 0.8 0.7-2-1.9-2.5-2-0.8z"/>
		<path class="st1" d="m178.7 214v1.3c0.5 0.1 0.7 0.6 1.5 0.5 1.4-0.9-0.1-2.9-1.5-1.8z"/>
		<path class="st1" d="m222.6 216.9c0.9 0.4 1.9 0.2 2.3-0.5 0.2-2.2-2.8-1.7-2.3 0.5z"/>
		<path class="st1" d="m198.3 215.1c-0.8 1.5 1.2 2.4 2 1.3 0.4-1.5-1-1.8-2-1.3z"/>
		<path class="st1" d="m192 216c0.6-0.1 0.5 0.5 1.3 0.3 1.8-1.3-1.7-2.9-1.3-0.3z"/>
		<path class="st1" d="m211.1 215.4c-0.1 1 0.1 1.8 1 1.8 0.7 0.2 0.5-0.5 1-0.5 0.5-1.5-1.1-2-2-1.3z"/>
		<path class="st1" d="m187.1 216.9c3.4 2 0.8-4.2 0 0z"/>
		<path class="st1" d="m174.5 216.4c-0.7 1.1 0.4 2.2 1.5 1.5 0.3-0.3 0.3-0.9 0.3-1.5-0.3-0.4-1.4-0.4-1.8 0z"/>
		<path class="st1" d="m167.9 225.8c-0.4 0.7-0.8 1-0.8 1.5-0.2 4.8 7.7-1.7 0.8-1.5z"/>
		<path class="st1" d="m181.7 226.9c-1.7 1.3-0.2 4.2 2 3.1 1.2-1.4 0.4-3.8-2-3.1z"/>
		<path class="st1" d="m213.4 228.7c-1.5 2.9 2.4 3.8 3.1 1.8 0.5-1.6-1.4-3.2-3.1-1.8z"/>
		<path class="st1" d="m196.5 228.4c-0.6 1.8 1.5 2.2 2.3 1.3 0.1-1.4-1.2-1.8-2.3-1.3z"/>
		<path class="st1" d="m225.2 229.4v1.3c2.5 1.9 2.8-3.2 0-1.3z"/>
		<path class="st1" d="m133.7 233.9c2.8-1.1-1.7-5.3-2.6-2.3-0.2 0.9 0.2 2.5 2.6 2.3z"/>
</svg>
