<?xml version="1.0" encoding="UTF-8" standalone="no"?>
<!-- Generator: Adobe Illustrator 21.0.0, SVG Export Plug-In . SVG Version: 6.00 Build 0)  -->
<svg id="Layer_1" style="enable-background:new 0 0 559 520" xmlns="http://www.w3.org/2000/svg" xml:space="preserve" viewBox="0 0 559 520" version="1.1" y="0px" x="0px" xmlns:xlink="http://www.w3.org/1999/xlink">
<style type="text/css">
	.st0{fill:#CFEBF6;}
	.st1{fill-rule:evenodd;clip-rule:evenodd;}
	.st2{fill:#FFFFFF;}
	.st3{fill:#E07A6F;}
	.st4{fill:#30211A;}
	.st5{fill-rule:evenodd;clip-rule:evenodd;fill:#FFFFFF;}
	.st6{fill-rule:evenodd;clip-rule:evenodd;fill:#30211A;}
</style>
<path class="st0" d="m99.1 222.7m109.2-96.5c-0.9 0.2-1.7 0.4-2.6 0.6-39.6 9.6-75.2 29.3-100.8 64.1-4.4 5.9-8.5 12.4-10.1 21.5-1.4 7.4-0.9 16.9 2.3 26.4-1.7 24.7 2.1 54 16.5 81.8 17.7 34.2 47.2 56.5 70.9 61.5 13 2.8 24.8 1.3 36.4-0.3 38.7-5.3 76.8-12 114.3-20 3.6-0.8 7.3-1.6 10.9-2.4 24.9-5.7 49.1-13.2 68.6-29.3 8.5-7 16-15.6 25.9-19.9 8-3.5 17.5-4.1 24.5-9.5 6-4.6 9.9-12.5 12.7-21.4 3.4-10.8 5.3-23.6 3.4-38.5s-8-32.1-17.6-45.5c-9.3-12.9-20.8-21-30.6-33.1-6.2-7.6-11.8-16.8-18.5-22.9-7-6.4-14.2-8.5-21-10-20.7-4.8-40.7-6.9-60.5-8.4-43.2-3.3-85.8-3.7-124.7 5.3"/>
		<path d="m424.6 353.2h-0.6c-1 0-2.1-0.1-3.4-0.3-0.7-0.1-1.1-0.7-1-1.4s0.7-1.1 1.4-1c1.2 0.2 2.3 0.3 3.1 0.3h0.5c1.1 0 2.2-0.1 3.4-0.2 0.7-0.1 1.3 0.4 1.4 1.1s-0.4 1.3-1.1 1.4c-1.3 0-2.5 0.1-3.7 0.1zm14.5-2.6c-0.5 0-1-0.3-1.2-0.9-0.2-0.7 0.2-1.3 0.8-1.5 2.2-0.7 4.6-1.5 6.9-2.4 0.6-0.2 1.4 0.1 1.6 0.7s-0.1 1.4-0.7 1.6c-2.4 0.9-4.8 1.8-7.1 2.5h-0.3zm-29.2 0h-0.3c-2.2-0.6-4.6-1.2-7.2-1.9-0.7-0.2-1-0.9-0.9-1.5 0.2-0.7 0.9-1.1 1.5-0.9 2.6 0.7 5 1.3 7.2 1.9 0.7 0.2 1.1 0.8 0.9 1.5-0.1 0.5-0.6 0.9-1.2 0.9zm-17.9-4.9h-0.3c-2.3-0.6-4.7-1.3-7.1-2-0.7-0.2-1-0.9-0.8-1.5 0.2-0.7 0.9-1 1.5-0.8 2.5 0.7 4.8 1.4 7.1 2 0.7 0.2 1 0.9 0.9 1.5-0.3 0.5-0.8 0.8-1.3 0.8zm64.2-2.1c-0.4 0-0.9-0.2-1.1-0.7-0.3-0.6-0.1-1.4 0.5-1.7 2.2-1.1 4.3-2.3 6.4-3.6 0.6-0.4 1.3-0.2 1.7 0.4s0.2 1.3-0.4 1.7c-2.1 1.3-4.3 2.5-6.6 3.6-0.1 0.2-0.3 0.3-0.5 0.3zm-82-3h-0.3c-2.3-0.7-4.7-1.3-7.1-2-0.7-0.2-1-0.9-0.9-1.5 0.2-0.7 0.9-1 1.5-0.9 2.4 0.7 4.8 1.4 7.1 2 0.7 0.2 1 0.9 0.8 1.5-0.1 0.5-0.6 0.9-1.1 0.9zm-17.9-5.1h-0.3c-2.3-0.7-4.7-1.3-7.1-2-0.7-0.2-1-0.9-0.9-1.5 0.2-0.7 0.9-1 1.5-0.9 2.4 0.7 4.8 1.3 7.2 2 0.7 0.2 1 0.9 0.9 1.5-0.3 0.6-0.7 0.9-1.3 0.9zm115.7-1.8c-0.4 0-0.7-0.2-1-0.5-0.4-0.5-0.3-1.3 0.2-1.7 2-1.5 3.9-3 5.7-4.6 0.5-0.4 1.3-0.4 1.7 0.1s0.4 1.3-0.1 1.7c-1.8 1.6-3.8 3.2-5.8 4.7-0.2 0.3-0.5 0.3-0.7 0.3zm-133.6-3.1h-0.3c-2.4-0.6-4.7-1.3-7.2-1.9-0.7-0.2-1.1-0.8-0.9-1.5s0.8-1.1 1.5-0.9c2.4 0.6 4.8 1.3 7.2 1.9 0.7 0.2 1 0.9 0.9 1.5-0.1 0.5-0.6 0.9-1.2 0.9zm-17.9-4.7h-0.3l-7.2-1.8c-0.7-0.2-1.1-0.8-0.9-1.5s0.8-1.1 1.5-0.9l7.2 1.8c0.7 0.2 1.1 0.8 0.9 1.5-0.2 0.5-0.7 0.9-1.2 0.9zm-243.5-2.7c-0.4 0-0.9-0.2-1.1-0.7-0.3-0.6-0.1-1.4 0.5-1.7 2.2-1.2 4.4-2.3 6.7-3.3 0.6-0.3 1.4 0 1.6 0.6 0.3 0.6 0 1.4-0.6 1.6-2.2 1-4.4 2.1-6.6 3.3-0.1 0.2-0.3 0.2-0.5 0.2zm225.5-1.7h-0.3c-2.4-0.6-4.8-1.1-7.2-1.7-0.7-0.2-1.1-0.8-0.9-1.5s0.8-1.1 1.5-0.9c2.4 0.6 4.8 1.1 7.2 1.7 0.7 0.2 1.1 0.8 0.9 1.5-0.2 0.5-0.7 0.9-1.2 0.9zm183.1-0.3c-0.3 0-0.6-0.1-0.8-0.3-0.5-0.4-0.6-1.2-0.1-1.7 1.6-1.9 3.1-3.8 4.5-5.7 0.4-0.6 1.2-0.7 1.7-0.3 0.6 0.4 0.7 1.2 0.3 1.7-1.4 2-3 4-4.7 5.9-0.2 0.3-0.6 0.4-0.9 0.4zm-201.2-3.8h-0.3c-2.4-0.5-4.8-1-7.2-1.5-0.7-0.1-1.1-0.8-1-1.5s0.8-1.1 1.5-1c2.4 0.5 4.9 1 7.3 1.5 0.7 0.1 1.1 0.8 0.9 1.5-0.2 0.6-0.7 1-1.2 1zm-190.5-1.7c-0.5 0-1-0.3-1.2-0.8-0.2-0.6 0.1-1.4 0.7-1.6 2.3-0.9 4.7-1.7 7.1-2.4 0.7-0.2 1.3 0.2 1.6 0.8 0.2 0.7-0.2 1.3-0.8 1.6-2.4 0.8-4.7 1.6-7 2.4-0.1-0.1-0.3 0-0.4 0zm172.3-2h-0.2c-2.4-0.5-4.8-0.9-7.3-1.4-0.7-0.1-1.1-0.8-1-1.4 0.1-0.7 0.8-1.1 1.4-1 2.4 0.4 4.9 0.9 7.3 1.4 0.7 0.1 1.1 0.8 1 1.4s-0.6 1-1.2 1zm-18.3-3.2h-0.2c-2.4-0.4-4.9-0.8-7.3-1.2-0.7-0.1-1.1-0.7-1-1.4s0.7-1.1 1.4-1c2.4 0.4 4.9 0.8 7.3 1.2 0.7 0.1 1.1 0.7 1 1.4 0 0.5-0.6 1-1.2 1zm-136.3-0.3c-0.6 0-1.1-0.4-1.2-0.9-0.2-0.7 0.2-1.3 0.9-1.5 2.4-0.6 4.8-1.1 7.3-1.7 0.7-0.1 1.3 0.3 1.5 1 0.1 0.7-0.3 1.3-1 1.5-2.4 0.5-4.8 1.1-7.2 1.6h-0.3zm118-2.4h-0.2c-2.5-0.3-4.9-0.6-7.4-0.9-0.7-0.1-1.2-0.7-1.1-1.4s0.7-1.2 1.4-1.1c2.5 0.3 4.9 0.6 7.4 0.9 0.7 0.1 1.2 0.7 1.1 1.4-0.1 0.6-0.6 1.1-1.2 1.1zm-99.8-1.2c-0.6 0-1.1-0.4-1.2-1-0.1-0.7 0.4-1.3 1-1.4 2.4-0.4 4.9-0.7 7.4-1 0.7-0.1 1.3 0.4 1.4 1.1s-0.4 1.3-1.1 1.4c-2.5 0.3-4.9 0.6-7.3 1-0.1-0.1-0.2-0.1-0.2-0.1zm365.8-0.9c-0.2 0-0.3 0-0.5-0.1-0.6-0.3-0.9-1-0.6-1.6 1-2.2 1.8-4.5 2.3-6.8 0.2-0.7 0.8-1.1 1.5-0.9s1.1 0.8 0.9 1.5c-0.6 2.4-1.4 4.8-2.5 7.2-0.2 0.5-0.6 0.7-1.1 0.7zm-284.5-0.1h-0.1c-2.5-0.2-4.9-0.5-7.4-0.7-0.7-0.1-1.2-0.7-1.1-1.3 0.1-0.7 0.6-1.2 1.3-1.1 2.5 0.2 4.9 0.4 7.4 0.7 0.7 0.1 1.2 0.7 1.1 1.3 0 0.7-0.5 1.1-1.2 1.1zm-62.9-1.1c-0.6 0-1.2-0.5-1.2-1.1-0.1-0.7 0.5-1.3 1.1-1.3 2.4-0.2 4.9-0.3 7.4-0.5 0.7 0 1.3 0.5 1.3 1.2s-0.5 1.3-1.2 1.3c-2.4 0-4.9 0.2-7.4 0.4zm44.4-0.3c-2.5-0.1-5-0.3-7.5-0.3-0.7 0-1.2-0.6-1.2-1.3s0.6-1.2 1.3-1.2c2.5 0.1 4.9 0.2 7.4 0.3 0.7 0 1.2 0.6 1.2 1.3s-0.5 1.2-1.2 1.2zm-25.9-0.5c-0.7 0-1.2-0.5-1.2-1.2s0.5-1.2 1.2-1.3h5.4 2.1c0.7 0 1.2 0.6 1.2 1.2 0 0.7-0.6 1.2-1.2 1.2h-2.4c-1.8 0-3.4 0-5.1 0.1zm332.6-16c-0.7 0-1.2-0.5-1.2-1.2 0-2.4-0.3-4.8-0.8-7.1-0.1-0.7 0.3-1.3 1-1.4s1.3 0.3 1.4 1c0.5 2.5 0.8 5.1 0.8 7.6 0 0.6-0.5 1.1-1.2 1.1zm-4.2-17.9c-0.5 0-0.9-0.3-1.1-0.7-1-2.1-2.1-4.3-3.4-6.4-0.4-0.6-0.2-1.3 0.4-1.7s1.3-0.2 1.7 0.4c1.3 2.2 2.5 4.5 3.5 6.7 0.3 0.6 0 1.4-0.6 1.6-0.2 0.1-0.3 0.1-0.5 0.1zm-9.9-15.6c-0.4 0-0.7-0.2-1-0.4-1.5-1.8-3.1-3.6-4.9-5.5-0.5-0.5-0.5-1.3 0-1.7 0.5-0.5 1.3-0.5 1.7 0 1.8 1.9 3.5 3.7 5 5.6 0.4 0.5 0.4 1.3-0.2 1.7-0.1 0.2-0.4 0.3-0.6 0.3zm-211.2-3.2c-0.4 0-0.8-0.2-1.1-0.6-0.4-0.6-0.2-1.3 0.4-1.7 0.1-0.1 2.4-1.5 6.5-3.7 0.6-0.3 1.3-0.1 1.7 0.5 0.3 0.6 0.1 1.3-0.5 1.7-4.1 2.2-6.4 3.6-6.4 3.7-0.2 0.1-0.4 0.1-0.6 0.1zm16.3-8.8c-0.5 0-0.9-0.3-1.1-0.7-0.3-0.6-0.1-1.4 0.6-1.7 2.2-1.1 4.5-2.2 6.7-3.2 0.6-0.3 1.4 0 1.6 0.6 0.3 0.6 0 1.4-0.6 1.6-2.2 1-4.5 2.1-6.7 3.2-0.1 0.1-0.3 0.2-0.5 0.2zm181.9-1.1c-0.3 0-0.6-0.1-0.8-0.3-0.6-0.5-1.1-1-1.7-1.5-1.3-1.1-2.6-2.2-4-3.2-0.5-0.4-0.6-1.2-0.2-1.7s1.2-0.6 1.7-0.2c1.4 1 2.7 2.1 4.1 3.2 0.6 0.5 1.2 1 1.7 1.5 0.5 0.4 0.6 1.2 0.1 1.7-0.3 0.3-0.6 0.5-0.9 0.5zm-165-6.7c-0.5 0-0.9-0.3-1.1-0.8-0.3-0.6 0-1.4 0.7-1.6 2.3-1 4.6-1.9 6.9-2.8 0.6-0.3 1.4 0.1 1.6 0.7 0.3 0.6-0.1 1.4-0.7 1.6-2.3 0.9-4.6 1.8-6.8 2.8-0.3 0.1-0.5 0.1-0.6 0.1zm150-4.3c-0.2 0-0.4-0.1-0.6-0.2-2.1-1.3-4.2-2.4-6.4-3.6-0.6-0.3-0.9-1.1-0.5-1.7 0.3-0.6 1.1-0.9 1.7-0.5 2.2 1.1 4.4 2.4 6.6 3.6 0.6 0.4 0.8 1.1 0.4 1.7-0.4 0.5-0.8 0.7-1.2 0.7zm-132.7-2.4c-0.5 0-1-0.3-1.2-0.8-0.2-0.6 0.1-1.3 0.8-1.6 2.3-0.8 4.7-1.6 7.1-2.4 0.6-0.2 1.3 0.1 1.6 0.8 0.2 0.6-0.1 1.3-0.8 1.6-2.3 0.8-4.7 1.5-7 2.4h-0.5zm17.7-5.6c-0.5 0-1-0.4-1.2-0.9-0.2-0.7 0.2-1.3 0.9-1.5 2.4-0.7 4.8-1.3 7.2-1.9 0.7-0.2 1.3 0.2 1.5 0.9s-0.2 1.3-0.9 1.5c-2.4 0.6-4.8 1.2-7.1 1.9h-0.4zm98.4-0.1c-0.1 0-0.3 0-0.4-0.1-2.3-0.9-4.6-1.7-6.9-2.4-0.7-0.2-1-0.9-0.8-1.5 0.2-0.7 0.9-1 1.5-0.8 2.4 0.7 4.8 1.6 7.1 2.4 0.6 0.2 1 1 0.7 1.6-0.3 0.5-0.7 0.8-1.2 0.8zm-80.4-4.2c-0.6 0-1.1-0.4-1.2-1-0.1-0.7 0.3-1.3 1-1.4 2.4-0.5 4.9-0.9 7.3-1.3 0.7-0.1 1.3 0.4 1.4 1 0.1 0.7-0.4 1.3-1 1.4-2.4 0.4-4.8 0.8-7.3 1.3h-0.2zm62.6-0.9h-0.2c-2.4-0.5-4.8-0.9-7.2-1.3-0.7-0.1-1.1-0.7-1-1.4s0.7-1.1 1.4-1c2.5 0.4 5 0.8 7.4 1.3 0.7 0.1 1.1 0.8 1 1.5-0.3 0.5-0.8 0.9-1.4 0.9zm-44.3-1.8c-0.6 0-1.2-0.5-1.2-1.1-0.1-0.7 0.4-1.3 1.1-1.4 2.5-0.3 5-0.5 7.4-0.6 0.7-0.1 1.3 0.5 1.3 1.2s-0.5 1.3-1.2 1.3c-2.4 0.1-4.9 0.3-7.3 0.6h-0.1zm25.9-0.6c-2.5-0.1-4.9-0.2-7.4-0.3-0.7 0-1.2-0.6-1.2-1.2 0-0.7 0.6-1.2 1.2-1.2 2.5 0 5 0.1 7.5 0.3 0.7 0 1.2 0.6 1.2 1.3-0.1 0.6-0.6 1.1-1.3 1.1z"/>
		<path class="st1" d="m344.1 195.5c0.4 1.4-1.6 1.4-1.3 0.1 0.3-0.4 0.9-0.5 1.3-0.1z"/>
		<path class="st1" d="m342.2 154.4c1.9-0.4 3 0.6 3.1 1.8 0.4 3.4-5 3.9-5.1 0.5 0-1.3 0.9-1.9 2-2.3zm-0.3 2.6c0.6 2.2 3.2-1.6 0.8-1.1-0.5 0.2-1 0.3-0.8 1.1z"/>
		<path class="st1" d="m304.7 143.8c2.8-0.6 2.7 3.6 0.7 3.7-1.8 0.2-3.1-3.2-0.7-3.7zm0.7 2.1c0-0.3 0-0.6-0.1-0.7h-0.4c0.1 0.4 0.1 0.7 0.5 0.7z"/>
		<path class="st1" d="m318.9 150.3c-1.2-1.9-0.6-4.7 1.5-5 1.3-0.2 3 0.6 3.3 1.9 0.3 2.4-2.4 4.9-4.8 3.1zm1.8-0.8c2.1 0.5 1.4-4.1-0.7-2.1 0 1.1 0 1.9 0.7 2.1z"/>
		<path class="st1" d="m313.2 168.6c0.4-0.1 0.8-0.1 1 0.5 0.6 2.4-3.4 0.1-1-0.5z"/>
		<path class="st1" d="m328.5 178c3.4-0.9 3.3 4.3 0.6 4.2-2.2 0-2.9-3.6-0.6-4.2zm1 2.6c0.4-0.4 0.2-0.9-0.1-1.2-1.2-0.1-0.6 1.3 0.1 1.2z"/>
		<path class="st1" d="m305.8 183.9c3.9-0.7 3.6 5.2 0.4 5.1-2.2-0.1-3.4-4.5-0.4-5.1zm0.9 3.4c1.6-0.2-0.2-3.2-1.1-1.3 0.2 0.6 0.4 1.4 1.1 1.3z"/>
		<path class="st1" d="m319.8 185.8c-0.3 3.2-3-1.4 0 0z"/>
			<path d="m343.2 180.1h6.6c1.2 0 1.2-1.9 0-1.9h-6.6c-1.2 0-1.2 1.9 0 1.9z"/>
			<path d="m345.5 175v8.4c0 1.2 1.9 1.2 1.9 0v-8.4c-0.1-1.2-1.9-1.2-1.9 0z"/>
			<path class="st2" d="m265.2 205.5c-0.2-3.2-1.9-3.8-2.7-6.2-1.5-4.9-0.2-9.5-1-14.5-2-12.2-12.6-29.9-23.5-36.3-13.4-7.9-39.9-13.5-53.9-5.1l-17 8.2c-6.4 2.7-7.9 19.2-9.3 25.1-1.7 7.4-1 19.2-5.3 25.6-2.4 3.5-6.8 4-4.8 10.2 1.2 3.5 4.9 7 8.2 3.8 3.2 2.3 4.2 9.3 6.2 13.1 2.3 4.4 5.2 7.9 8 12.1 6.9 10.2 0.3 16.6-6.6 25.6-18.4 24 38.9 46.1 53.3 56.1 3.8 2.6 10.1 9.4 15.7 6.8 3.5-1.6 8.9-13.4 11.3-17 7.9-11.9 9.9-23.5 11.9-37.2 1-6.6 0.7-8.8-3.7-14.4-2.6-3.3-8.5-8-10.1-12.1-1.6-4.2-0.5-2.9 3.1-7.6 2.4-3 4.4-6.7 6.1-9.9 3.1-5.7 4-11.8 5.3-18.1 5.3 2.7 9.1-2.7 8.8-8.2z"/>
			<path class="st3" d="m309.1 331.2c-1.3-4.1-3.9-8.8-5.8-12.6-3.7-7.4-10.1-13.2-15.1-19.5-1.1-1.4-2.2-2.7-3.4-4-5-8.4-12.5-16.9-16.6-18l1.1 2.2c-3.6-3.5-7.1-7.2-10.4-11-3.2 4.4-2.2 10.7-4.1 15.7-2.1 5.4-6.1 10.9-9.4 15.6-4.1 5.7-14.3 25.2-20.4 23.8-4.1-0.9-8.4-6.3-12.7-7.9-5.5-2-10.4-3.3-15.6-6.6-8.8-5.7-18.2-9.5-24.8-17.9-5.4-6.8-8.9-13.2-10.6-21.5l1.3-1.3c-0.5 0.3-0.9 0.6-1.4 0.9v-0.2c-0.5 0.1-0.5 0.3-0.4 0.5-4.7 3.5-8.7 9.2-12.6 13.3-4.1 4.2-9 8.4-12.6 13.1-7.8 10.3-17 27.7-19.3 40.4-0.8 4.6-1.9 2.3 1.8 5.4 5.8 5 20.4 4.7 27.7 5.8 20.4 2.8 40.6 9.2 61.1 7.6 9.2-0.7 18.7-0.2 27.8-1.1 11.1-1.1 22.2-4.4 33.2-6 6.8-1 13.9-3.9 20.5-5.5 5.3-1.3 10.9-2.3 16.1-4.4 5.8-2.2 6.3-1.4 4.6-6.8z"/>
				<path class="st4" d="m183.7 195.6c0.1 0.7 0.7 0.9 1.2 0.7 0.3 0.3 0.6 0.5 1 0.5 0.5 0.4 1.5 0 1.5-0.8v-0.4c0.2-0.1 0.4-0.2 0.5-0.5 0.4-0.1 0.8-0.3 0.9-0.8 0.2-0.6-0.2-1-0.7-1.2-0.4-0.3-0.8-0.6-1.3-0.7h-0.1-0.3c-0.4 0-0.8 0.1-1.2 0.3-0.2-0.2-0.5-0.4-0.8-0.4-0.9 0-1.1 1-0.8 1.7 0 0 0 0.1 0.1 0.1-0.2 0.6-0.2 1.1 0 1.5z"/>
				<path class="st4" d="m226.6 194c0.1 0.3 0.3 0.5 0.6 0.5v0.1 0.3 0.2c0.1 0.5 0.3 1 0.9 1.1h0.1c0.1 0 0.1 0.1 0.2 0.1 0.3 0.1 0.6 0 0.9 0 0.5 0 0.9-0.4 0.9-0.9v-0.4c0.5 0 1 0.1 1.6 0.1s1.2-0.8 0.9-1.3c0.1-0.5 0-1-0.6-1.1-0.7-0.2-1.3-0.3-2-0.3-0.2-0.2-0.4-0.4-0.7-0.4h-1.4c-0.4 0-0.8 0.3-0.9 0.7-0.2 0.1-0.3 0.2-0.4 0.3-0.2 0.2-0.3 0.6-0.1 1v0z"/>
				<path class="st4" d="m189.7 200.8c1.2-0.1 1.2-2 0-1.9-3.6 0.4-9 0-9.1-4.7 0-1.2-1.9-1.2-1.9 0 0.1 5.9 6.2 7.2 11 6.6z"/>
				<path class="st4" d="m229.5 198.3c-1.2-0.2-1.7 1.6-0.5 1.8 1.7 0.3 3.6 0.4 5-0.7s1.8-2.9 1.8-4.6c0-1.2-1.9-1.2-1.9 0 0 1-0.1 2.4-1 3.1s-2.3 0.6-3.4 0.4z"/>
				<path class="st4" d="m227.2 225.2c-1.9-0.1-3.9-0.3-5.8-0.1-0.2-0.4-0.5-0.6-1-0.5s-1.1 0.2-1.6 0.3l-0.3-0.3c-1.7-1.1-3.6-1.9-5.7-1.7-1.8 0.2-3.3 1.5-4.3 3-0.1 0.1-0.1 0.2-0.1 0.2-3 1.6-5.5 4-8 6.3-0.9 0.8 0.3 2.2 1.2 1.4 1.1-1 2.3-2.1 3.4-3.1 0.1 0 0.1 0 0.2-0.1 1.6-0.9 3.4-1.3 5.2-1.6 2.4-0.5 4.8-1 7.2-1.8 0.6-0.1 1.2-0.2 1.8-0.4 0.2 0.2 0.5 0.3 0.8 0.3 2.3-0.4 4.5-0.2 6.8-0.1 1.3 0.1 1.4-1.7 0.2-1.8z"/>
				<path class="st4" d="m212.8 249c-2.4 4.6-8.1 4.2-11.9 1.5-1-0.7-1.9 0.9-1 1.6 4.6 3.2 11.6 3.3 14.5-2.2 0.6-1-1.1-1.9-1.6-0.9z"/>
				<path class="st4" d="m172.2 267.8v0.4c0 1 0.5 2.9 2 2.4 0.1 0 0.2-0.1 0.3-0.1 1.6 0.7 3.4-0.1 4-1.9 0.5-1.4 0.2-3.2-0.3-4.6-0.4-1.3-0.9-3.1-2-3.9-2-1.4-3.1 2.3-3.4 3.5 0 0.1-0.1 0.3-0.1 0.4v0.1c-0.1 0.1-0.2 0.3-0.2 0.5-0.2 0.2-0.3 0.5-0.3 0.8-0.1 0.4-0.1 0.7 0 0.9-0.1 0.5-0.1 1 0 1.5zm3.2-6c0.1 0.1 0.1 0.2 0.2 0.3-0.1 0.1-0.3 0.2-0.4 0.2 0-0.1 0.1-0.3 0.2-0.5z"/>
				<path class="st4" d="m309.8 327.1c-1.2-3-2.8-5.9-4.5-8.7-4.3-6.9-9.2-13.4-14.3-19.6-4.1-5.1-8.5-10-13.1-14.7-7.4-7.6-16.3-13.5-24.1-20.6-1.2-1.1-2.4-2.3-3.6-3.4 0.5 0 1-0.1 1.3-0.4 0.7-0.7 0.2-2.2 0-3-0.3-0.9-0.7-1.9-1.3-2.7-1-1.4-2.6-2.1-4.3-0.8-0.3 0.2-0.6 0.5-0.9 0.8-1.5-1.9-2.8-4-4-6.1 9.4-8.7 15.3-20.9 18-33.3l0.3-1.5c0 0.5 0.3 1 0.9 0.9 2.6 0 4.9-1.2 6.1-3.6 1-2.2 0.9-4.8 0.1-7.1 0.2-0.3 0.4-0.6 0.5-0.9 0.2-0.6 0.2-1.2 0.1-1.8 0.1-0.1 0.2-0.1 0.3-0.2 0.1 1.1 0.1 2.1 0.1 3.2 0 0.9 1 1.2 1.6 0.7 0.9-0.8 1.6-1.6 2.1-2.6 1 0.1 2-0.5 2.8-1.2 1.1-1.1 1.9-2.4 2.3-3.8 0.3-0.1 0.5-0.2 0.7-0.3 0.3 0.1 0.6 0 0.8-0.2 2.2-2.7 3.2-6.4 2.6-9.8 0.4-0.1 0.7-0.5 0.8-0.9v-0.5c0.3-0.7 0.5-1.5 0.4-2.3-0.1-1.6-0.9-3.1-2-4.3 0.2-0.6 0.4-1.3 0.4-1.9 0-0.7-0.1-1.4-0.4-2 0.1-0.8 0-1.6-0.1-2.3-0.1-0.5-0.3-1-0.6-1.5v-0.4c-0.2-1.4-0.8-2.8-1.8-3.9 0.1-0.3 0.2-0.7 0.3-1 0.3-1.1 0.3-2.2-0.1-3.2l0.4-0.4c1.9-2.7-0.2-5.8-2.6-7.9 0.1-1-0.3-2-0.8-2.9 0-1.2-0.4-2.3-1.1-3.3-1.9-2.8-5.6-5.3-9.1-5.9 0-0.3 0-0.7-0.1-1-0.3-1.8-1.5-2.9-3-3.5 0-0.3-0.1-0.7-0.1-1-0.7-3.4-4-5.1-7.3-5.3h-1c-0.4-2.9-2.2-5-5.2-5.5-0.7-0.1-1.4-0.1-2-0.1-0.4-0.2-0.8-0.1-1 0.2-0.7 0.2-1.3 0.4-1.9 0.8-0.7-0.6-1.5-1.1-2.4-1.4-0.5-1-1.4-1.8-2.8-2.3-1.8-0.7-3.8-0.6-5.7-0.3-0.4 0-0.7 0.1-1.1 0.2-0.8-0.6-1.7-1.1-2.7-1.3-0.9-0.2-1.9-0.1-2.8 0.2 0 0 0-0.1-0.1-0.1-1-1.4-2.6-2.8-4.3-3.3s-3.3 0.2-4.7 1.1c-0.7-0.4-1.6-0.6-2.4-0.7-1.5-0.2-3 0-4.3 0.6-1.9-1.1-5.9-1.9-7.3 0.2-0.7-0.7-1.6-1.2-2.6-1.4-0.7-0.1-1.3 0-1.8 0.2-0.5-0.7-1.3-1.3-2.3-1.5-1.9-0.4-3.8 0.5-5.4 1.5-2.6-0.7-7.5-1-8.3 1.9-0.9-0.4-2-0.5-3.2-0.3-1.5 0.3-2.7 1.2-3.4 2.3-0.9-0.4-2-0.3-2.9 0-1.1 0.4-2.1 1.2-2.8 2.2-0.3 0.1-0.7 0.1-1 0.2-0.1-0.2-0.3-0.4-0.4-0.6-0.7-1-2.2-0.1-1.6 1v0.1c-2.9 0.8-5.5 2.1-6.7 4.5-0.4 0.3-0.8 0.7-1.1 1.2-0.2 0.3-0.3 0.6-0.4 1-0.1-0.1-0.3-0.1-0.4-0.2-1.3-0.5-2.7 0.2-3.7 1-1.4 1.1-2.3 2.8-2.4 4.5-1.9 0-3.8 0.8-5.2 2.2-1.4 1.5-1.6 3.4-1.1 5.1-0.7 0.8-1.4 1.7-1.8 2.7-1.9 1.4-3.1 4-3.5 6.3-0.4 0.1-0.7 0.3-1.1 0.6-3.2 2.2-4 6.5-3.4 10.1 0 0.1-0.1 0.1-0.1 0.2-0.7 1.2-1.1 2.5-1.4 3.9-1.1 0.3-2.2 0.8-3.1 1.5-1.7 1.3-2.5 3.1-2.2 5.3 0.3 1.7 1.2 3.3 2.5 4.7-0.2 0.5-0.4 0.9-0.6 1.4-1.3 0.6-2.2 1.7-2.6 3.3-0.6 2.8 0.9 5.8 3.2 7.3 0.8 0.5 1.6 0.8 2.3 1 0.4 0.2 0.9 0.4 1.4 0.4 0.3 0 0.5 0.1 0.8 0.1l-0.1 0.1c-1.4 1.5-1.9 3.7-2.1 5.6-0.1 1.4 0.1 3 0.9 4.2 0.8 1.1 1.9 1.6 3.1 1.6 0.3 0.3 0.6 0.5 1 0.8 0 0.2 0.1 0.3 0.1 0.5 0.6 2.3 3.1 3.6 5.4 2.7 0.8-0.3 1.4-0.8 1.9-1.5 0.7 0.2 1.5 0.3 2.3 0.2 0.1 0.1 0.2 0.3 0.3 0.4-0.5-0.3-1.2-0.2-1.4 0.5-0.7 2.7 0 5.7 1.6 8 1.2 1.7 3.1 2.9 5 2.3 0.2 0.2 0.4 0.3 0.6 0.3 0.5 0 0.8-0.2 1.2-0.5l0.2-0.2c0.2 0 0.4-0.1 0.5-0.2 2.2 7.8 5.1 15.4 9.9 22 1.5 2.1 3.1 4 4.9 5.8v0.4c0.4 3.9-0.4 7.7-1.8 11.1h-0.9c-0.1 0-0.2 0-0.4-0.1-1.1-0.1-2.1 0.7-2.7 1.6-0.8 1.5-0.9 3.7-0.1 5.3-1.7 2.4-3.7 4.7-5.6 6.8-6.8 7.3-14.8 13.3-21 21.2-5.1 6.6-9 14-12.6 21.5-3.3 7-6.5 14.1-10.7 20.6-0.7 1 1 2 1.6 1 5.7-8.8 9.5-18.6 14.3-27.9 2.6-5 5.6-9.9 9.1-14.4 3.1-4 6.8-7.5 10.5-10.9 0.7-0.6 1.4-1.3 2-1.9 1.5 10.4 7 19.2 14.2 26.7 3.7 3.9 7.8 7.6 12.2 10.7 1.1 0.8 2.2 1.5 3.4 2.1 0.1 0.1 0.3 0.2 0.5 0.3 3.4 1.9 7.1 3.4 10.8 4.6 11.2 3.8 23.2 5.7 32.9 12.9 0.3 0.2 0.9 0.1 1.1-0.1 0.1 0 0.1-0.1 0.1-0.2 3.3-3.6 6.9-6.9 10.3-10.3 5.3-5.3 10.4-10.6 15.3-16.2 4.7-5.3 9.3-10.9 12.7-17.1 2.2-3.9 4.7-9.1 2.8-13.6-0.2-0.5-0.5-0.9-0.8-1.3 1.5 1.2 2.9 2.5 4.4 3.8 2.7 2.5 5.3 5.2 7.8 7.9 5 5.4 9.6 11.1 14.1 16.9 4.6 6 9.1 12.2 12.3 19.1 0.9 2 2.2 4.9 1.6 6.9-0.3 1.2 1.5 1.7 1.8 0.5 1.2-2.2 0.5-4.5-0.2-6.4zm-179.6-143.1c0 1.2 0.2 2.4 0.8 3.5 0 0.3 0.1 0.7 0.2 1-1-1.2-1.5-3-1-4.5zm117.4 71.8c0.3-0.1 0.5-0.2 0.8-0.2-0.1 0.7-0.1 1.5-0.4 2.1l-0.5-0.5c0.1-0.1 0.1-0.2 0.2-0.3 0.2-0.4 0.1-0.8-0.1-1.1zm-1.8 6.2c0.2 0.3 0.2 0.6 0 0.9-0.1-0.1-0.3-0.3-0.4-0.3 0-0.2-0.1-0.4-0.3-0.6-0.4-0.4-0.9-0.4-1.4-0.3-0.1 0-0.3 0-0.4 0.1-0.4-0.1-0.9-0.2-1.3-0.2-0.2 0-0.5 0-0.7 0.1 0-0.3 0.1-0.7 0.1-0.9 1.6-0.3 3.4 0.1 4.4 1.2zm19-65.7v-0.2c0-0.1 0.1-0.2 0.1-0.3s0.1-0.1 0.1-0.2c0.1-0.2 0.3-0.3 0.5-0.4l0.6 0.3c0.1 0.1 0.2 0.2 0.3 0.2-0.6 0.2-1.1 0.4-1.6 0.6zm0.6-9.3c-0.2-0.1-0.4 0-0.6 0 0-0.1-0.1-0.2-0.2-0.3 0-0.1 0-0.3 0.1-0.4h0.1c0 0.1 0.1 0.3 0.3 0.4l0.3 0.3zm0.2 5.9h-0.2v-0.1s0.1 0 0.2 0.1zm0.3-7.9c-0.1 0-0.2 0.1-0.3 0.1 0.1-0.4 0.3-0.9 0.3-1.4 0.2-0.2 0.3-0.4 0.5-0.6-0.2 0.6-0.4 1.3-0.5 1.9zm0.3-23.7l0.6 0.9c0.3 0.5 0.2 0.9-0.1 1.4l-0.3 0.3c-0.6-0.7-0.7-1.6-0.2-2.6zm-0.3-9.8c0.1 0 0.1 0 0 0 0.1 0.1 0.2 0.1 0.2 0.2 0.2 0.3 0.4 0.5 0.6 0.7-0.1 0.1-0.1 0.1-0.1 0.2-0.2-0.3-0.4-0.7-0.7-1.1zm3.2 15.8v0.6c-0.2 0.4-0.4 0.8-0.8 1.1-0.6 0.6-1.6 0.5-2.4 0.2 0-0.3 0-0.5 0.1-0.8 0.1-0.6 0.3-1.1 0.7-1.6 0.1 0 0.2 0.1 0.4 0 0.6 0.4 1.3 0.5 2 0.5zm-1.6-7.3h0.3c0.3-0.1 0.5-0.2 0.8-0.3-0.2 0.2-0.5 0.5-0.7 0.8-0.1-0.2-0.2-0.4-0.4-0.5zm1.2 5.4s0.1-0.1 0 0c0.2-0.1 0.4-0.2 0.6-0.2v0.2h-0.6zm-0.2 29.8h-0.2c-0.2-0.3-0.4-0.6-0.6-0.8 0.6-0.3 0.4-1 0-1.4 0.2 0 0.3-0.1 0.5-0.1 0.1 0.6 0.2 1.1 0.5 1.6-0.2 0.2-0.2 0.4-0.2 0.7zm0-14.6c-0.2 0-0.4-0.1-0.6 0v-0.1c0-1.1-0.1-2.1-0.2-3.2 0.2 0.1 0.4 0.2 0.5 0.3-0.1 1 0 2 0.3 3zm-0.1 5.8c-0.1 0.2-0.1 0.3-0.2 0.5-0.2-0.1-0.4-0.3-0.5-0.4 0.2-0.1 0.5-0.1 0.7-0.1zm-0.2 4c-0.1-0.1-0.2-0.2-0.3-0.4 0.2 0.1 0.2 0.2 0.3 0.4zm0.5-14.8l-0.9-0.9v-0.3c0.3 0.4 0.6 0.8 0.9 1.2zm0.4 25.7c0-0.4-0.1-0.7-0.1-1.1 0.1 0.2 0.2 0.4 0.4 0.6-0.1 0.2-0.2 0.4-0.3 0.5zm1.9-6.8c-0.3-0.3-0.5-0.5-0.7-0.8-0.1-0.2-0.2-0.3-0.3-0.5 0.2-0.2 0.4-0.5 0.4-0.8 0.5 0.2 0.8 0.5 0.9 0.9 0 0.4-0.1 0.8-0.3 1.2zm0.2-27.7c0.4-0.4 1.1-0.4 1.7-0.3 0.2 0.3 0.3 0.7 0.4 1 0.1 0.2 0.1 0.4 0.1 0.5-0.6 0.3-1.2 0.7-1.6 1.3-0.4-0.2-0.7-0.7-0.8-1.3 0.1-0.4 0.2-0.8 0.2-1.2zm-0.8-4.3c0.3-0.8 0.6-1.6 0.8-2.4 0.2-0.1 0.4-0.2 0.5-0.2 0.5 0.7 0.7 1.6 0.6 2.5-0.6 0-1.3 0.1-1.9 0.1zm1.3 15.8c0-0.1 0-0.3-0.1-0.4h0.1c0.5 0.5 1 1.2 1.2 2 0.1 0.5 0 1-0.2 1.5-0.3-0.5-0.6-1-0.9-1.5-0.1-0.2-0.1-0.3-0.1-0.5v-1.1zm1 6.5c0.1-0.1 0.2-0.3 0.3-0.4 0.3 0.1 0.7 0.1 0.9-0.2v-0.1c-0.3 0.6-0.6 1.3-1 1.8-0.6-0.6-1.4-1-2.3-1.3v-0.4c0.2 0.2 0.4 0.4 0.6 0.5 0.5 0.4 1.2 0.6 1.5 0.1zm3.1-21.3c0.1 0.6 0 1.2-0.2 1.9-0.4-0.2-0.9-0.4-1.4-0.5-0.1-0.2-0.3-0.4-0.5-0.6l0.1-0.1c0.7-0.3 1.3-0.5 2-0.7zm-1.8-3.1c0.2 0.1 0.3 0.3 0.5 0.4 0.3 0.3 0.5 0.6 0.7 0.9-0.3 0.1-0.6 0.3-0.9 0.4-0.1-0.7-0.2-1.2-0.3-1.7zm-2.2 27.2c-0.1 0.2-0.3 0.3-0.5 0.5 0-0.4-0.1-0.7-0.2-1.1 0.3 0.1 0.5 0.3 0.7 0.6zm0.1 2.6c0 0.3-0.1 0.5-0.1 0.8-0.2-0.1-0.3-0.2-0.5-0.3 0.2-0.1 0.4-0.3 0.6-0.5zm1 8.6c-0.3 0.4-0.7 0.8-1.1 0.9 0.2-0.9 0.2-1.8 0-2.8 0.1 0 0.2-0.1 0.3-0.2s0.2-0.2 0.3-0.4c0.2 0.4 0.5 0.6 0.9 0.6h0.7c-0.3 0.8-0.7 1.3-1.1 1.9zm1.7-3.7h-0.6c-0.1-0.3-0.1-0.5-0.2-0.8 0.2-0.3 0.3-0.7 0.5-1.1 0.1 0.2 0.3 0.5 0.5 0.7-0.1 0.5-0.2 0.9-0.2 1.2zm0.3-18.3c0.6 0.4 1.2 0.9 1.7 1.5 0 0.1 0 0.2-0.1 0.3-0.2-0.2-0.4-0.3-0.7-0.3v-0.1c-0.3-0.5-0.5-0.9-0.9-1.4v0zm2.1 17.1c-0.1-0.1-0.2-0.3-0.4-0.4 0-0.9-0.1-1.8-0.3-2.8 0.6 0.6 0.9 1.4 0.9 2.3 0 0.3-0.1 0.6-0.2 0.9zm1.5-3.5c-0.6-1.1-1.7-1.9-2.9-2.4 0.3-0.4 0.6-0.9 0.8-1.3 0.6 0.6 1.4 0.8 2.2 0.6 0.1 1 0.1 2-0.1 3.1zm-0.2-9.8c0.4 0.7 0.6 1.4 0.8 2.2-0.3-0.5-0.6-0.9-0.9-1.3-0.1-0.2-0.1-0.4-0.1-0.6 0.1-0.1 0.2-0.2 0.2-0.3zm-0.1 4.8h-0.1c-0.1 0-0.3 0-0.4-0.2-0.3-0.3-0.4-0.7-0.5-1.1 0-0.2 0.1-0.3 0.1-0.5 0.2 0.2 0.3 0.4 0.5 0.6 0.1 0.5 0.3 0.8 0.4 1.2zm-1-10.4c0.1-0.1 0.2-0.1 0.3-0.2 0.1 0 0.1 0.1 0.2 0.1-0.1 0.2-0.3 0.4-0.5 0.5-0.3 0.2-0.6 0.1-1-0.1 0.3 0 0.7-0.2 1-0.3zm-0.4-2.4c-0.5 0-0.9 0-1.4 0.1 0.1-0.4 0-0.8-0.1-1.1 0.1-0.6 0.2-1.2 0.2-1.8 0.6 0.3 1.2 0.9 1.6 1.6 0 0.4-0.1 0.8-0.3 1.2zm-2.3-16.7c1.1 1.1 2 2.5 2.1 3.8 0 0.2 0 0.5-0.1 0.7-0.9-1.4-2.3-2.4-3.9-2.4 0.8-0.6 1.5-1.3 1.9-2.1zm-1.4-1.3c-0.2 0.4-0.4 0.7-0.8 1-0.3 0.3-0.6 0.5-1 0.8 0-0.2-0.1-0.5-0.1-0.7 0.6-0.4 1.2-0.8 1.7-1.3 0 0.1 0.1 0.2 0.2 0.2zm-0.6-3.1c0 0.1 0 0.1-0.1 0.2 0 0.1-0.1 0.2-0.1 0.2-0.6-0.3-1.2-0.5-1.9-0.7 0-0.1 0-0.2 0.1-0.3 0-0.4 0.1-0.8 0.1-1.2 0.7 0.5 1.4 1.1 1.9 1.8zm-1.7-3.9c-0.1-0.1-0.2-0.1-0.4-0.2v-0.2l0.4 0.4zm0.4 5.9c-0.2 0.2-0.4 0.3-0.6 0.4-0.1-0.3-0.2-0.5-0.4-0.8 0.3 0.1 0.7 0.2 1 0.4zm-0.1 17.6v0.7c-0.1 0.2-0.3 0.3-0.4 0.5-0.9-0.5-1.9-0.7-3-0.6l-0.1-0.1c-0.4-0.4-1.1-0.3-1.4 0.1 0-0.2-0.1-0.3-0.1-0.5 1.2 0.2 2.4 0 3.4-0.8 0.1-0.1 0.2-0.2 0.4-0.3 0.3 0.4 0.7 0.8 1.2 1zm-1.5-13.9c-0.5 0-1 0.1-1.4 0.3 0-0.1-0.1-0.2-0.1-0.3l1.5-0.6c-0.1 0.2-0.1 0.4 0 0.6zm-1.8-2c0-0.3 0-0.6 0.1-0.9 0.1-0.2 0.2-0.4 0.4-0.7 0.3 0.4 0.5 0.8 0.7 1.2-0.4 0.2-0.8 0.3-1.2 0.4zm0.9-6.5c0.1 0.8 0 1.6-0.1 2.3-0.2 0.1-0.4 0.2-0.6 0.2l-0.2-0.2v-0.3c-0.1-0.8-0.4-1.6-0.7-2.4h0.1c-0.1 0 0.3 0.1 0.4 0.1 0.2 0 0.4 0.1 0.6 0.2 0.2 0 0.4 0 0.5 0.1zm-1.1-2.9c0.2 0.2 0.4 0.4 0.5 0.7-0.6-0.1-1.2-0.2-1.8-0.1-0.3-0.4-0.6-0.9-0.9-1.2 0.8-0.1 1.6 0 2.2 0.6zm-2.6 8.8c-0.2-0.1-0.5-0.3-0.7-0.5 0-0.3 0.1-0.6 0.1-0.9 0.2 0.1 0.4 0.3 0.5 0.4 0.2 0.3 0.2 0.7 0.1 1zm-1.6-8v-0.1c0-0.1 0.1-0.2 0.2-0.3 0-0.1 0.1-0.1 0.1-0.2 0.4 0.4 0.8 1 1.1 1.5 0 0 0 0.1-0.1 0.1-0.1 0.4-0.1 0.8 0 1.3-0.5-0.3-0.9-0.7-1.2-1.1 0-0.2 0-0.4-0.1-0.6v-0.1-0.1c-0.1-0.1 0-0.2 0-0.4zm-0.4 10.5c0.3-0.3 0.6-0.7 0.8-1.1 0.5 0.3 1.1 0.6 1.7 0.8h0.2c-0.1 0.4-0.3 0.9-0.5 1.3-0.3 0-0.6 0-0.8 0.3-0.4 0.4-0.7 0.9-1.1 1.4-0.2-0.8-0.4-1.7-0.4-2.5 0.1-0.1 0.1-0.2 0.1-0.2zm1.7 9.5c-0.2 0.4-0.3 0.8-0.4 1.2v0.1c-0.3-0.4-0.5-0.7-0.6-1.2 0.3 0 0.6-0.1 1-0.1zm-1.3-1.7c0.1-0.7 0.2-1.4 0.5-2.1l0.1-0.1c0 0.7 0.3 1.3 0.6 2-0.4 0.1-0.8 0.2-1.2 0.2zm-0.5 25.7l0.4-0.4c0.1 0.3 0.3 0.6 0.5 0.8-0.3 0.7-0.4 1.6-0.4 2.4-0.6 0.1-1.2 0.3-1.8 0.5 0-1 0.2-1.9 0.5-2.8 0.4-0.1 0.6-0.3 0.8-0.5zm0.1 10.5c-0.2 0.5-0.4 0.9-0.6 1.4-0.3-0.5-0.6-1.1-0.6-1.6 0-0.3 0.1-0.7 0.2-1 0.3 0.2 0.5 0.4 0.8 0.5 0 0.1 0 0.1 0.1 0.2 0.1 0.2 0.1 0.4 0.1 0.5zm-2.5-16.1c0.1-0.3 0.2-0.5 0.4-0.8 0.1 0.1 0.2 0.3 0.2 0.4 0.1 0.2 0.2 0.3 0.4 0.4 0 0.4 0.1 0.8 0.2 1.2 0 0.1-0.1 0.2-0.1 0.3-0.4-0.5-0.8-1-1.1-1.5zm0.9 3.7c-0.3 0.4-0.5 0.9-0.7 1.4h-0.1c-0.1-0.8-0.1-1.6-0.2-2.3 0.3 0.3 0.6 0.6 1 0.9zm-0.6-11.6v-0.4l0.2 0.2c0 0.1-0.1 0.2-0.2 0.2zm0.8-5.8c0.3 0.5 0.5 1 0.3 1.4 0 0.1-0.1 0.1-0.1 0.1-0.1-0.1-0.1-0.3-0.2-0.4v-1.1zm0.7-2.6c-0.2 0-0.4-0.1-0.6-0.1l-0.5-0.5s-0.1-0.1-0.2-0.1c-0.2-0.5-0.5-0.9-1-1.3-0.1-0.1-0.2-0.1-0.3-0.2 0.2 0.1 0.4 0.1 0.6 0.1 0.4 0.1 0.9 0.1 1.4 0.2 0.2 0.7 0.5 1.4 0.9 2-0.1-0.1-0.2-0.1-0.3-0.1zm-1.2-12.5c-0.1 0-0.1 0.1 0 0-0.1 0.1-0.1 0.1 0 0-0.1-0.1-0.1-0.3-0.2-0.4-0.1-0.3-0.2-0.7-0.4-1h0.7c-0.1 0.6-0.1 1-0.1 1.4zm-0.2 8c-0.1 0-0.2 0.1-0.4 0.1 0.3-0.8 0.5-1.8 0.6-2.9 0.6 1.2 0.8 2.3-0.2 2.8zm0.1-24.9c0.6 0.4 1.1 0.9 1.2 1.7 0.1 0.2 0.1 0.4 0.1 0.7-0.6 0.1-1.2 0.3-1.6 0.7 0-0.5 0-1.1-0.1-1.6v-0.1c0.2-0.5 0.3-0.9 0.4-1.4zm-0.9 5.9c0.3 0.9 0.8 1.8 1.3 2.5l0.3 0.9c-0.3-0.2-0.6-0.4-1-0.6l-0.6-1.5c-0.1-0.4-0.3-0.8-0.4-1.2 0.2 0 0.3-0.1 0.4-0.1zm0.5 57.9c0.5 0.9 1.3 1.7 2 2.4 0.4 0.4 1 0.4 1.3 0 0.2-0.2 0.5-0.5 0.8-0.7 0.8 3.4-0.4 7.2-4.6 7.3-0.4 0-0.7 0.3-0.8 0.6 0.6-3.2 1-6.4 1.3-9.6zm-1.5-23.2v-0.2-0.8c0.1 0.4 0.1 0.9 0.3 1.3-0.1 0-0.2-0.1-0.3-0.3zm-0.3-16.4c-0.2-0.2-0.3-0.5-0.5-0.7-0.3-0.5-0.5-1-0.7-1.5v-0.1c0.1-0.6 0.4-1.2 0.7-1.7 0.1 0.2 0.3 0.4 0.4 0.6 0.2 0.2 0.4 0.4 0.7 0.4-0.1 1.1-0.3 2.3-0.6 3zm0 11.4c-0.2 0.2-0.4 0.4-0.6 0.7 0-0.3 0-0.6 0.1-0.9 0.2 0.1 0.4 0.1 0.5 0.2zm-1.8-34.1v0c-0.2-0.7-0.4-1.4-0.7-2.1 0.3-0.1 0.6-0.1 0.9-0.1 0.6 0.4 1.1 1.2 1.4 1.9-0.2 0.5-0.5 0.9-0.8 1.3-0.3-0.3-0.5-0.7-0.8-1zm0 16.8c-0.1 0.1-0.2 0.3-0.3 0.4v-0.6c0.1 0.1 0.2 0.2 0.3 0.2zm-2.4 13.7v0c-0.2 0.3-0.4 0.5-0.6 0.7-0.1-0.2-0.3-0.5-0.4-0.7 0-0.6 0-1.3 0.1-2h0.1c0.3 0.7 0.5 1.3 0.8 2zm-0.4-7.8c0-0.1 0.1-0.2 0.1-0.3 0 0.2 0.1 0.4 0.1 0.5-0.1 0-0.1-0.1-0.2-0.2zm0.3-3.9c-0.6-1.8-2.1-3.2-3.8-4.1 0-0.2-0.1-0.3-0.1-0.5-0.1-0.4-0.3-0.8-0.5-1.1l0.2-0.2c0.2 0.2 0.4 0.3 0.6 0.4 0.7 0.5 1.8 0.9 2.7 1 0.4 0.4 0.8 0.7 1.2 1 0 0.4-0.1 0.7-0.1 1.1 0 1.1 0.2 2.2 0.5 3.2v0.1c-0.2-0.2-0.4-0.6-0.7-0.9zm-4.1 8.3c-0.3-0.2-0.5-0.4-0.7-0.6 0.2 0 0.5 0 0.7-0.1v0.7zm-1.3-2.5c-0.1 0-0.3-0.1-0.4-0.1-0.3-1-0.3-2.1 0-3.2 0.4 0.2 0.9 0.4 1.3 0.6 0.5 0.6 0.9 1.2 1.3 1.9-0.6 0.6-1.3 1-2.2 0.8zm0.7-5.9c0.2-0.2 0.3-0.5 0.5-0.8 0.9 0.4 1.8 1.1 2.5 1.9 0.1 0.6 0 1.1-0.1 1.7-0.4-0.3-0.9-0.6-1.3-0.8-0.6-0.8-1.1-1.4-1.6-2zm4.3-16c0.4 0 0.9 0.1 1.3 0.3-0.5 0.1-1 0-1.3-0.3zm0.4 4.5c-0.1 0.1-0.3 0.2-0.4 0.3 0-0.1 0-0.2-0.1-0.4 0.2 0 0.3 0.1 0.5 0.1zm-0.5-7.1c0.1-0.1 0.1-0.3 0.2-0.5l0.2 0.2c-0.2 0.1-0.3 0.2-0.4 0.3zm0.4 11.3c-0.4-0.1-0.8-0.3-1.2-0.4-0.2-0.3-0.4-0.5-0.6-0.8 0.3-0.1 0.7-0.2 1-0.3 0.3 0.4 0.6 0.9 0.8 1.5zm-1.6-6.5c-0.1 0-0.1 0.1-0.2 0.2-0.3 0-0.6-0.1-0.9-0.1 0.1-0.5 0.4-1 0.7-1.4 0.2 0.4 0.5 0.7 0.9 1.1-0.2 0-0.3 0.1-0.5 0.2zm2.4 4.1c0.3-0.2 0.6-0.4 1-0.6 0 0.7 0.1 1.4 0.3 2.1-0.1 0.1-0.2 0.2-0.3 0.2-0.3-0.6-0.7-1.2-1-1.7zm-2.4-16.9h0.7c1.8 0 3.8 0.6 4.9 2 0.4 0.6 0.7 1.2 0.8 1.8-0.5-0.1-1.1-0.1-1.6-0.1-0.8-0.3-1.6-0.2-2.3 0.1-0.7-1.1-1.6-2.1-2.6-3 0-0.2 0-0.5 0.1-0.8zm-0.4 3.2c0.5 0.5 0.9 1 1.2 1.6-0.3-0.2-0.7-0.3-1-0.3h-0.3c0-0.5 0.1-0.9 0.1-1.3zm0 3.1c-0.4 0.6-0.6 1.3-0.7 2-0.2-0.2-0.5-0.4-0.6-0.8-0.1-0.2-0.2-0.5-0.2-0.7 0.4-0.4 1-0.6 1.5-0.5zm-3.9-11.4c1.6 0.6 2.2 1.9 2.4 3.5-0.4 0.1-0.8 0.2-1.1 0.3l-0.2-0.2c-0.1-0.2-0.1-0.5-0.2-0.7-0.2-0.9-0.6-2-1.2-2.9 0.1-0.1 0.2-0.1 0.3 0zm-0.1 23.5c0.2 0.3 0.4 0.7 0.7 1l-0.2 0.2c-0.4-0.3-0.7-0.5-1.1-0.8 0.1-0.1 0.4-0.2 0.6-0.4zm-7.6 0.6c0.9 0.1 1.9 0.2 2.9 0.3 0.2 0.5 0.1 1-0.2 1.5-0.9-0.7-1.8-1.3-2.7-1.8zm1.1 2.9h-0.2-0.1c-0.3-0.1-0.5-0.4-0.7-0.7 0.3 0.3 0.6 0.5 1 0.7zm-0.3-10.1c0.4 0.4 0.8 0.8 1.2 1.3v0.7c-0.6 0-1.1-0.3-1.2-1.1-0.1-0.3-0.1-0.6 0-0.9zm2-2.6c0.1-0.1 0.3-0.1 0.4-0.2-0.1 0.1-0.2 0.3-0.2 0.4-0.1 0-0.2-0.1-0.2-0.2zm0.3 14.3c0.4 0.4 0.9 0.7 1.3 1.1-0.6 0.5-1 1.1-1.3 1.8 0-0.1-0.1-0.1-0.1-0.2-0.5-0.7-0.7-1.6-0.9-2.4 0.4 0 0.7-0.1 1-0.3zm1.1-12.1c0.1-0.5 0.3-1 0.6-1.4 0.2-0.3 0.4-0.6 0.7-0.8 0.3 0.1 0.7 0.3 1 0.5 0.1 0 0.2 0.1 0.2 0.2l-0.3 1.5c-0.3 0.4-0.7 0.7-1.1 1.1-0.4-0.4-0.8-0.7-1.1-1.1zm2.5 5.3c-0.3 0.3-0.7 0.5-1.1 0.7 0.1-0.1 0.3-0.2 0.4-0.3 0.2-0.2 0.4-0.3 0.6-0.5 0-0.1 0.1 0 0.1 0.1zm-2 10.5c0.1-0.3 0.3-0.5 0.5-0.8l0.5-0.5 0.6 0.6c-0.4 0.4-1 0.7-1.6 0.7zm1.3 1.7c-0.2 0.7-0.3 1.4-0.2 2.1-0.5-0.5-0.9-1.2-1.1-1.8 0.4-0.1 0.9-0.2 1.3-0.3zm0.2-5.2l-0.6-0.6c0.6 0.1 1.2 0.2 1.8 0.4-0.4 0-0.8 0.1-1.2 0.2zm-0.6-24.7l0.3 1.5c-0.2-0.5-0.4-1-0.5-1.5h0.2zm-1.4 2.1c0 0.1 0.1 0.2 0.1 0.3h-0.1l-0.1-0.1c0.1-0.1 0.1-0.1 0.1-0.2zm1.1 4.2c0.6 0.1 1 0.3 1.4 0.6 0 0.5 0 0.9 0.1 1.4-0.4-0.1-0.9-0.1-1.3-0.1-0.1 0-0.2 0-0.2-0.1-1.2-0.3-2.3-0.1-3.3 0.4-0.1-0.3-0.2-0.6-0.3-1 1-0.8 2.3-1.4 3.6-1.2zm-4.5-8.3c0.1-0.1 0.2-0.3 0.3-0.4-0.2 1-0.2 2 0.1 3-0.1 0.2-0.3 0.4-0.4 0.5 0 0 0 0.1-0.1 0.1-0.1-0.1-0.2-0.3-0.3-0.5-0.4-0.8-0.1-1.8 0.4-2.7zm-0.9-2.5c0.1 0.1 0.2 0.2 0.3 0.2-0.1 0.1-0.2 0.3-0.4 0.4 0.1-0.2 0.1-0.4 0.1-0.6zm0.5 30.3c0.4 1.5 1 2.9 2.3 3.7 0 0.5 0.1 1 0.3 1.5 0.6 1.5 1.8 2.9 3.2 3.7 0.6 1.5 1.6 2.7 3.1 3.3 0 0.5 0 1 0.2 1.4 0.3 0.8 0.9 1.4 1.7 1.9l0.3 0.6c0.2 0.4 0.5 0.7 0.8 1 0.1 0.1 0.1 0.1 0.2 0.1 0.7 0.4 1.7 0.5 2.5 0.3 0.2 0.6 0.3 1.2 0.5 1.8 0.1 0.7 0.2 1.3 0.3 2 0.1 0.4 0.3 0.8 0.4 1.2v0.2c0.1 0.7 0.2 1.4 0.4 2.1-0.6 0.3-1.2 0.6-1.8 1-2.8 1.5-5.7 2.9-8.6 4.5 0-0.1 0-0.2-0.1-0.2-0.4-1.1-1-2-1.6-2.9-1.3-3.4-4.6-5-8.2-5.5 0.5-0.4 0.6-1.4-0.3-1.7-6.9-2.5-16.4-6.6-22.9-1-0.9 0.8 0.4 2.1 1.3 1.3 2.8-2.4 6.6-2.5 10.1-1.9 3.6 0.6 7 1.9 10.4 3.2-3.1-0.2-6.4 0.2-8.9 0.8-4.9 1.2-10.3 3.7-13.1 8.1-0.7 1.2-1.2 2.5-1.3 3.7-3.1-0.5-6.5-0.3-9.1 1.5l-0.2 0.2c0.3-2-0.1-4.1-1.3-6.1-2.7-4.5-8.2-6.9-13.1-8.1-2.9-0.7-6.8-1.2-10.4-0.7h0.1c5.9-2.9 12.3-4.1 18.8-2.4 1.2 0.3 1.7-1.5 0.5-1.8-7-1.8-13.8-0.5-20.2 2.6-0.9 0.5-0.4 1.7 0.5 1.7-3.4 0.6-6.4 2.2-7.7 5.4-0.1 0.1-0.1 0.2-0.1 0.3s-0.1 0.2-0.1 0.3c-0.3 1.6-0.5 3.3-0.6 5-1.4-0.7-3-1.1-4.5-1.5l-5.4-1.5c0.3-1.6-0.3-3.4-1.4-4.9 0.2-0.4 0.3-0.9 0.4-1.4 0.4 0 0.7 0.1 1.1 0.1 0.6 0 0.9-0.4 0.9-0.9 0.1-1.1 0.1-2.3-0.2-3.5 0.7 0.1 1.5 0 2.2-0.6 1.8-1.5 1.2-5.3 0.8-7.2-0.2-0.8-0.4-1.8-0.8-2.6 0-0.3 0.1-0.7 0.1-1 0-0.8-0.2-1.6-0.5-2.3 1.2-0.8 2.3-1.8 3.3-2.9 1.1-1.2 2.2-2.5 2.8-4.1 1.5-0.2 2.4-1 2.9-2 0.4 0.1 0.9 0.2 1.4 0.2 1.4 0.3 2.8 0.3 4.1 0 0.3 0.8 0.9 1.4 1.6 1.8 2 1.1 4.2 0.8 6.2-0.2-0.3 0.6 0 1.2 0.6 1.4 1.8 0.6 3.9 0.7 5.7 0.2 0.2 0.2 0.5 0.4 0.8 0.5-0.1 0.2-0.2 0.4-0.2 0.6-0.2 0.4 0.1 0.8 0.4 1.1 1.5 1.1 3.3 1.7 5 1.7 0.1 1.3 0.6 2.6 1.7 3.4 1.9 1.6 4.4 1 6.2-0.3 1.4 0.6 3.1 0.1 4.5-0.7 2.9 0.6 5.9-0.8 7.9-3.1 0.9-0.3 1.8-0.8 2.5-1.6 0.8-0.1 1.6-0.2 2.3-0.6 0.1 0.3 0.1 0.6 0.1 0.9 0 0.6 0.6 1.1 1.2 0.9 1.2-0.5 2.6-1 3.5-1.9 0.3 0 0.6-0.2 0.8-0.4 0.3-0.4 0.6-0.7 0.9-1.1h0.2c0.3 0.8 1 1.5 1.8 1.8 0.9 0.4 1.8 0.5 2.7 0.3 0.1 0 0.2 0 0.4-0.1 0.6-0.1 1.1-0.4 1.6-0.7 0.1-0.1 0.2-0.1 0.3-0.2l0.3 0.3c1.1 0.5 2.2 0.7 3.4 0.4 1.1 0.2 1.6-0.1 2.1-0.4zm-38.9 39.6c0.5-0.9 0.8-1.8 1-2.8 0.2 0.5 0.7 0.9 1.3 0.5 2.3-1.7 5.3-1.7 8.1-1.3 0.1 1.2 0.4 2.4 0.9 3.5-0.4 0.3-0.5 0.9-0.1 1.4 3.2 3.6 5.1 12.5-1 14.5-1.7 0.5-3.5 0.3-5.1-0.2-2-0.5-3.8-1.6-4.7-3.5-0.7-1.5-0.7-3.4-0.6-5.1 0.1-2.1 0.4-4.3 0.4-6.4 0.1-0.2 0-0.4-0.2-0.6zm14.2 1.3c-0.6-0.9-1.2-1.9-1.6-3 0.6 0.4 1.7-0.1 1.5-1-0.4-1.2-0.4-2.2-0.1-3.2 3.5-3.5 8.3-5.9 12.9-7.2 5.1-1.4 11-1.2 14.8 2.5 0.6 3.8 0.5 7.8-0.6 11.5-1 3.3-2.8 6.7-5.8 8.6-3.5 2.1-7.6 1.7-11.1 0-3.8-1.8-7.6-4.7-10-8.2zm-44.1-8.4c-0.3-1.2-0.2-2.4 0.1-3.6 0.2-0.7 0.6-1.3 1-1.8 0.3-0.3 0.4-0.3 0.8-0.4 1.4-0.3 2.8-0.5 4.3-0.6 3.4-0.4 6.8-0.4 10.2-0.1 1.9 0.2 3.9 0.6 5.7 1.3 1.1 0.6 2.1 1.3 3 2.2 1.9 1.9 2.8 4.6 3.1 7.2 0 0.4 0.3 0.7 0.6 0.8-0.4 1-0.9 2-1.5 2.9-2.4 3.5-6.2 6.4-10 8.2-3.5 1.7-7.7 2.1-11.1 0-3-1.9-4.8-5.3-5.8-8.6-0.6-2.1-0.9-4.2-1-6.3 0.4-0.3 0.7-0.7 0.6-1.2zm2-7.8c0.7-0.5 1.5-0.9 2.3-1.2-0.5 0.3-1.1 0.6-1.5 1-0.1 0-0.2 0-0.4 0.1-0.1 0-0.2 0-0.4 0.1zm-18.1-14.8c0-0.2-0.1-0.4 0-0.6 0.4-0.5 0.9-0.9 1.4-1.3 0.3 0.1 0.7 0.2 1 0.4-0.2 0.4-0.4 0.9-0.5 1.3-0.6 0.1-1.2 0.2-1.9 0.2zm0.6 12.6v0c-0.1 0-0.2 0-0.3-0.1 0.1 0 0.2 0.1 0.3 0.1zm-1.9 9.8c0.2 0.1 0.5 0.1 0.7 0.1 0.5 1.7 0.4 3.6-0.4 5.3-0.1-0.8-0.2-1.6-0.4-2.3 0-1.1 0.1-2.1 0.1-3.1zm-0.8-13.9c0.3-0.3 0.7-0.5 1.1-0.5-0.1 0.5-0.3 1-0.4 1.5-0.2-0.3-0.5-0.6-0.7-1zm1.2 10v-0.3l0.6 0.9-0.6-0.6zm0.5-12.4h-1.1c-0.4 0.1-0.8 0.2-1.1 0.4-0.1-0.9 0-1.8 0.3-2.6 0.2-0.1 0.3-0.2 0.5-0.3 0.4 0.1 0.9 0.2 1.3 0.2 0.2 0.3 0.3 0.6 0.5 0.9-0.1 0.4-0.3 0.9-0.4 1.4zm-5.2 16.7c-0.1 0-0.1-0.1-0.2-0.1v-1.6c0.2-0.2 0.4-0.3 0.7-0.5 0.5 0.8 0.9 1.7 1.3 2.6v0.7c-0.6-0.4-1.2-0.8-1.8-1.1zm0.5 3.7c-0.1 0.2-0.1 0.4-0.2 0.6-0.1-0.7-0.2-1.4-0.3-2.2 0.3 0.3 0.5 0.5 0.6 0.9-0.1 0.2-0.1 0.5-0.1 0.7zm-3.2-16.6c0.1-0.1 0.2-0.2 0.3-0.2 0.4-0.3 0.8-0.7 1.1-1 0.2 0.7 0.3 1.3 0.3 2-0.5-0.4-1.1-0.6-1.7-0.8zm1.4 2.7c-0.1 0.3-0.2 0.6-0.4 0.9-0.1 0.3-0.3 0.5-0.4 0.7-0.1-0.8-0.3-1.5-0.5-2.3 0.4 0.2 0.9 0.4 1.3 0.7zm-6.6 10.7c0 0.2 0 0.4-0.1 0.6-0.3 0.3-0.5 0.7-0.6 1.2-0.4-0.4-0.9-0.7-1.3-0.9 0.6-0.5 1.3-0.8 2-0.9zm-1.3-1.8c0.1-0.3 0.2-0.6 0.3-1 0.1-0.5 0.1-1 0.1-1.5 0.3 0.6 0.5 1.3 0.7 1.9 0 0.1 0.1 0.2 0.1 0.3-0.4 0.2-0.8 0.3-1.2 0.3zm1.1-18.4c0.2-0.1 0.4-0.1 0.7-0.2 0.1 0.2 0.3 0.4 0.5 0.5-0.2 0.2-0.5 0.5-0.6 0.8-0.2-0.3-0.4-0.7-0.6-1.1zm0.7 9.1c0.2-0.3 0.8-0.6 1.5-0.8 0.2 0 0.3-0.1 0.5-0.1-1.1 0.8-1.9 1.8-2.3 3.1 0-0.1 0-0.2-0.1-0.3-0.1-0.7 0-1.3 0.4-1.9zm1.5-3c-1-0.2-0.6-2-0.3-3 0.8-0.2 1.5-0.5 2-0.9 0.1-0.1 0.2-0.2 0.3-0.2h0.5l0.6 0.6c0.3 0.3 0.5 0.7 0.7 1l-0.3 0.3c-0.7 0.8-2.2 2.4-3.5 2.2zm0.1-7.3c0.3-0.2 0.5-0.4 0.7-0.6 0.5-0.1 1.1-0.3 1.6-0.5l0.1 0.1c-0.2 0.6-0.4 1.1-0.8 1.6-0.3-0.1-0.7-0.1-1 0-0.2-0.1-0.4-0.4-0.6-0.6zm5.3-8.8c-0.2-0.1-0.5-0.1-0.9-0.1 0.3-0.7 0.5-1.4 0.5-2.2 0.2-0.2 0.4-0.4 0.6-0.7 0.7 0.6 1.2 1.6 1.3 2.7v0.9c-0.5-0.3-1-0.5-1.5-0.6zm2.1 9.7c-0.2 0.3-0.4 0.5-0.6 0.7 0-0.4 0-0.9-0.1-1.4 0.2 0.3 0.4 0.5 0.7 0.7zm-2.2-16c0 0.1 0 0.1-0.1 0.2-1.1-2-2.1-4.1-2.3-6.4l0.6 0.3c1.1 0.7 1.8 1.5 2.1 2.5-0.5 1.1-0.7 2.5-0.3 3.4zm-1.3 15.5c0.1-0.2 0.2-0.5 0.2-0.7h0.2c0.1 0 0.2-0.1 0.3-0.1v0.1c-0.2 0.2-0.4 0.5-0.7 0.7zm0.8 2.4c-0.1-0.2-0.3-0.3-0.4-0.5 0.2-0.1 0.4-0.3 0.6-0.4 0 0.3-0.1 0.6-0.2 0.9zm0.1-5.9c-0.1 0-0.2-0.1-0.4-0.1-0.1-1.3-0.6-2.6-1.4-3.7 0-0.1 0-0.1 0.1-0.2h0.3c0.3 0.3 0.6 0.5 1 0.7 0.6 0.3 1.2 0.4 1.9 0.4-0.4 0.9-0.9 1.8-1.4 2.7 0 0.1-0.1 0.2-0.1 0.2zm2.6 31c0.3 0 0.5 0 0.8 0.2v0.1c-0.2 0-0.3 0.1-0.5 0.1-0.1-0.2-0.2-0.2-0.3-0.4v0zm0.6-15.6c0.3 0.3 0.6 0.7 0.9 0.9v0.2c-0.2 0-0.4 0-0.7-0.1v-0.1c0-0.2-0.1-0.5-0.2-0.9zm3.1-18.1c-0.2 0.1-0.3 0.2-0.4 0.4-0.6 0.2-1.3 0.5-1.8 0.9 0-0.6-0.1-1.2-0.3-1.7 0.7-0.2 1.3-0.6 2-1v0.5c0 0.4 0.2 0.7 0.5 0.9zm-1.4-12.5c0.3 0.6 0.7 1.1 1.2 1.5 0.1 0.1 0.2 0.1 0.3 0.2-0.8 0.4-1.7 0.8-2.5 0.9 0.4-0.7 0.8-1.6 1-2.6zm-0.4-7.4c0.1 0 0.1 0 0.2 0.1 0.1 0.8 0.3 1.7 0.5 2.5-0.1 0.1-0.2 0.1-0.3 0.2-0.2-1-0.4-1.9-0.4-2.8zm2 5.5c-0.3-0.2-0.5-0.4-0.8-0.6 0-0.1-0.1-0.1-0.1-0.2l0.3-0.3 0.1-0.1c0.2 0.3 0.4 0.7 0.7 1 0.1 0.1 0.1 0.2 0.2 0.2h-0.4zm0.8 7.1v0.6c-0.1 0.3-0.2 0.7-0.3 1-0.2-0.5-0.2-1.2-0.1-1.8 0.1 0.2 0.3 0.2 0.4 0.2zm-3.4 11.2c-0.2 0.3-0.4 0.6-0.5 0.9l-0.1-0.1v-0.2l0.6-0.6zm3.6-20.7c0.2-0.1 0.4-0.3 0.6-0.4 0 0 0 0.1 0.1 0.1 0.2 0.5 0.2 0.9 0.1 1.3-0.3-0.1-0.6-0.5-0.8-1zm0.4 14.7c-0.1 0-0.2 0-0.3 0.1v-0.4h0.1c0.1 0.1 0.2 0.2 0.2 0.3zm-0.5 15.2c0.1 0.2 0.2 0.5 0.2 0.7h-0.4c0-0.3 0.1-0.5 0.2-0.7zm0.5 7c0.5 0.8 0.8 1.7 0.6 2.6-0.1 0-0.2 0-0.3 0.1-0.2-0.7-0.5-1.3-1-1.8 0.3-0.3 0.5-0.6 0.7-0.9zm0.1-9.3c0-0.1 0.1-0.3 0.1-0.4 0.2 0.3 0.5 0.5 0.8 0.8 0.5 1.2 0.8 2.6 0.8 3.8h-0.1c-0.1-1.5-0.6-3.2-1.6-4.2zm2.2-15.3c-0.1 0.1-0.3 0.2-0.4 0.3l-0.6-0.3v-0.4-0.5c0.3 0.4 0.6 0.7 1 0.9zm0.6-6.8c0.7 1.2 1 3 0.8 4.3 0 0.1 0 0.2-0.1 0.3-0.4-0.6-0.9-1.1-1.6-1.4 0-0.1 0-0.3-0.1-0.4 0-1.1 0.4-2.1 1-2.8zm1.6 16.1c0.2 1 0.3 2.1 0.3 3.1 0 0.5 0 1.1-0.1 1.6 0 0.2-0.1 0.4-0.2 0.6 0-0.1-0.3 0.4-0.2 0.2-0.2 0.2-0.1 0.2-0.4 0.2h-0.2s-0.3-0.1-0.4-0.1-0.6-0.3-0.8-0.5c-0.4-0.9-0.9-1.7-1.4-2.4 0-0.1 0.1-0.2 0.1-0.3 1.4-0.3 2.5-1.2 3.3-2.4zm2.6-13.6c-0.4 0.6-0.8 1.1-1.1 1.7-0.1 0.1-0.3 0.2-0.4 0.3 0.1-0.5 0.1-1 0.1-1.5-0.1-1.1-0.3-3-1.1-4.2 0.1 0 0.2-0.1 0.2-0.1 0.2 1 0.5 2 1.2 2.7 0.3 0.6 0.7 0.9 1.1 1.1zm-1-13.2c0.1 0.9 0.1 1.7-0.1 2.6 0-0.1 0-0.2-0.1-0.3 0-0.7 0.1-1.5 0.2-2.3zm0.5 9.3h0.2c0 0.2-0.1 0.3-0.1 0.5 0-0.2 0-0.3-0.1-0.5zm1.8-6.7c-0.1 0.5-0.3 1-0.6 1.4h-0.1c0.2-0.6 0.3-1.3 0.3-2 0.2 0.2 0.3 0.3 0.4 0.6v0zm0.4 3.1c0.4-0.1 0.8-0.2 1.1-0.3-0.4 0.3-0.8 0.7-1.2 1l-0.7 0.7c-0.1-0.1-0.2-0.2-0.4-0.3 0.5-0.3 0.9-0.7 1.2-1.1zm-1 10.1l0.3-0.3c-0.2 0.2-0.3 0.4-0.5 0.6-0.1 0.2-0.3 0.3-0.4 0.5 0.1-0.1 0.2-0.3 0.3-0.4 0-0.1 0.2-0.3 0.3-0.4zm3.1-10.8c0.3-0.2 0.7-0.4 1.1-0.7-0.1 0.2-0.2 0.4-0.4 0.7-0.2-0.1-0.4-0.1-0.7 0zm2.4 0.9c0.1-0.1 0.1-0.3 0.2-0.4l0.6 0.6c-0.1 0.1-0.3 0.2-0.4 0.3-0.2-0.2-0.3-0.4-0.4-0.5zm3.6 1h-0.2v-0.2c0.1 0 0.1-0.1 0.2-0.1 0 0 0.1 0 0.1-0.1 0.5-0.2 1-0.4 1.5-0.5 0 0.2-0.1 0.5-0.1 0.7-0.6 0.2-1.1 0.2-1.5 0.2zm1.3 2.6c-0.2 0.1-0.4 0.3-0.6 0.4-0.5 0.2-1.1 0.4-1.8 0.4h-0.2c0.4-0.4 0.7-0.9 0.8-1.4 0.5 0 1.1 0 1.6-0.1 0.2 0.2 0.2 0.4 0.2 0.7zm-2.4-4.5s-0.1 0-0.1 0.1c-0.3-0.4-0.8-0.8-1.2-1.2h1.1c0.3 0.3 0.7 0.5 1.1 0.7-0.3 0.1-0.6 0.3-0.9 0.4zm4.9-6.8c0.7 0.1 1.4 0 2-0.3 0.1 0 0.2 0 0.2 0.1v0.3c0 0.6 0.2 1.2 0.5 1.7-0.4 0.8-1 1.5-1.8 2-0.9-0.7-1.5-1.8-1.6-2.9 0.4-0.3 0.6-0.6 0.7-0.9zm0.2-8.6c0.1 1.3-0.1 2.6-0.3 3.7 0 0.1-0.1 0.2-0.1 0.4-0.4-1.4-0.2-2.9 0.4-4.1zm1.1 5.8c0.4-0.3 0.9-0.5 1.4-0.5-0.2 0.3-0.4 0.6-0.7 0.8-0.3 0-0.5-0.1-0.7-0.3zm4.2-5.6c0.2-0.6 0.5-1.2 0.9-1.7 0.5 0.2 0.9 0.5 1.3 0.8 1 0.8 1.4 1.8 1.3 3-0.1 0.3-0.2 0.6-0.2 0.9-0.2 0.4-0.4 0.9-0.7 1.2-0.5-0.2-1-0.3-1.5-0.3s-1 0.2-1.5 0.4c0.4-1.3 0.6-2.8 0.4-4.3zm7.8 10.2c-0.1 0.1-0.1 0.2-0.2 0.3s-0.2 0.1-0.3 0.2c-0.3 0-0.7 0.1-1 0.1-0.4-0.9-0.5-1.8-0.5-2.7 0.4-0.1 0.8-0.3 1.2-0.5-0.1 0.5-0.2 1.1-0.2 1.7 0.1 0.5 0.5 1 1 0.9zm-0.3 10.3c0.2-0.2 0.4-0.3 0.7-0.5 0.1 0.1 0.2 0.1 0.4 0.2-0.4 0.1-0.7 0.2-1.1 0.3zm1.6 1.5h0.2v0.8l-1.2 0.6c-0.1-0.1-0.1-0.2-0.2-0.3-0.1-0.2-0.1-0.4 0-0.6 0.2-0.2 0.8-0.4 1.2-0.5zm-1.5-4.8c0-0.1 0-0.2-0.1-0.2 0.1-0.1 0.3-0.2 0.4-0.2 0 0.2-0.1 0.3-0.3 0.4zm-1.5-3.2c0.4 0.4 0.8 0.7 1.2 1.1-0.7 0.3-1.3 0.7-1.5 1.4-0.3 0.7 0 1.4 0.4 2-0.4 0.3-0.7 0.5-1.1 0.7-0.3-0.2-0.6-0.2-0.9 0 0.6-1.2 0.5-2.7 0.2-4v-0.1c0.5-0.5 1.1-0.9 1.7-1.1zm0.2 9.8c-1 0.1-1.9 0.1-2.9-0.1 0.1-0.4 0.3-0.8 0.4-1.3 0-0.1 0.1-0.2 0.1-0.3l0.6-0.6c0.9 0 1.7-0.2 2.4-0.7l-0.3 0.3c-0.7 0.9-0.7 1.9-0.3 2.7zm-3.3-27.8l0.2-0.2c0.4-0.3 0.8-0.5 1.3-0.7 0.1 0.3 0.1 0.5 0.2 0.7-0.6 0.2-1.1 0.2-1.7 0.2zm-3 12.1c0.1 0 0.2-0.1 0.3-0.1s0.2 0 0.3 0.1c1 0.2 1.8-0.1 2.5-0.6l0.3 0.9c0.2 1 0 2-0.6 2.8-0.9-0.2-1.8-0.5-2.6-1-0.3-0.2-0.4-0.3-0.6-0.4 0.2-0.6 0.3-1.1 0.4-1.7zm2.7 9v0.4c0 0.2-0.1 0.3-0.1 0.5v-0.1-0.5-0.1s0.1-0.1 0.1-0.2zm-0.6-2.5c-0.1 0.1-0.2 0.2-0.2 0.3-0.1-0.2-0.2-0.4-0.4-0.5 0.1-0.1 0.3-0.1 0.4-0.2 0.1 0.1 0.2 0.2 0.2 0.4zm-1.4 2.7c0 0.1-0.1 0.3-0.1 0.5v0.1c-0.1 0.3-0.2 0.5-0.3 0.8 0 0.1-0.1 0.1-0.1 0.2-0.4-0.9-0.4-2.2-0.3-3.3v-0.2c0.5 0.4 0.8 1.1 0.8 1.9zm-0.2 4.4c0.1 0.1 0.3 0.1 0.4 0.2 0.1 0 0.2 0 0.3 0.1-1.4 0.9-3.1 1.3-4.8 0.8-0.3-0.1-0.5-0.2-0.6-0.3 1 0 2.1-0.3 3.1-0.7 0.5 0 1 0 1.6-0.1zm-1.2-9.8c-0.3 0.1-0.7 0.1-1 0.2 0.1-0.2 0.3-0.4 0.4-0.6 0.2 0.2 0.4 0.3 0.6 0.4zm-0.8 7.9c-0.3 0-0.5-0.1-0.8-0.1 0.2-0.2 0.3-0.5 0.5-0.8l0.3 0.9zm-0.4-4.8c0 0.2 0 0.4-0.1 0.5-0.2-0.2-0.4-0.3-0.7-0.5 0-0.1 0.1-0.1 0.1-0.1 0.3 0 0.5 0 0.7 0.1zm14.9-1.9c0.1 0 0.1 0.1 0.2 0.1-0.3 0.2-0.6 0.5-0.9 0.6-0.5-0.1-0.9-0.3-1.4-0.5-0.2-0.1-0.4-0.2-0.5-0.4l-0.3-0.3c-0.1-0.1-0.1-0.2-0.2-0.3 0.4 0 0.9-0.1 1.3-0.1l0.4 0.4c0.4 0.4 0.9 0.5 1.4 0.5zm-1.1-6.5c0.1 0 0.1-0.1 0.2-0.1 0 0.1-0.1 0.1-0.1 0.2 0-0.1-0.1-0.1-0.1-0.1zm0 20.4c0.5 0 0.9 0 1.4-0.1 0.1 0.2 0.3 0.4 0.4 0.5v0.2c-1 0-2-0.3-2.9-0.7 0.4 0 0.8 0.1 1.1 0.1zm-0.7-1.9c0.5-0.6 1.2-1 1.9-1.3-0.2 0.4-0.3 0.8-0.3 1.3h-1.6zm1.9-3.6c0.1-0.3 0-0.7-0.3-1 0.2-0.1 0.3-0.1 0.5-0.2 0.4-0.2 0.7-0.4 1-0.6h1v0.3c-0.6 0.6-1.4 1.1-2.2 1.5zm0.6-4.9c-0.1 0.4-0.3 0.7-0.4 1.1-0.2 0.4-0.5 0.7-0.8 0.9s-0.6 0.2-0.9 0.3c0.4-1.2 1.2-2.2 2.2-2.9 0 0.2 0 0.4-0.1 0.6zm-3.8-6.6c0-0.1 0-0.2 0.1-0.4 0 0 0.1 0 0.1-0.1 0.3-0.2 0.5-0.3 0.8-0.5-0.1 0.3-0.2 0.6-0.2 0.9-0.3 0.1-0.6 0.1-0.8 0.1zm0.4-4.8c0.3-0.4 0.7-0.7 1.1-1l0.3 0.3c-0.5 0.3-1 0.5-1.4 0.7zm-0.1-6.7h0.3v0.2c-0.1-0.1-0.2-0.2-0.3-0.2zm-0.6-6.5c0.7-0.5 1.5-0.6 2.3-0.5v0.3 0.1c-0.3 0.4-0.6 0.8-0.9 1.1-0.5-0.3-1-0.7-1.4-1zm0 4.3c0.1 0.1 0.1 0.2 0.2 0.3-0.3 0.1-0.6 0.1-0.9 0.2 0 0 0-0.1-0.1-0.1 0.3-0.1 0.6-0.2 0.8-0.4zm0.5 11c-0.1 0.1-0.2 0.2-0.3 0.2v-0.1c0.1-0.1 0.2-0.1 0.3-0.1zm6-11c-0.1 0.1-0.2 0.3-0.3 0.4-0.5-0.1-1.1-0.1-1.6-0.1 0-0.2 0-0.4 0.1-0.5 0.6 0.1 1.2 0.1 1.8 0.2zm-1-2l0.2-0.2c0.1 0.1 0.1 0.2 0.2 0.3-0.1-0.1-0.3-0.1-0.4-0.1zm1.5 9.7c0.6 0.4 1.2 0.6 1.9 0.7v0.1s-0.1 0-0.1 0.1c-1 0.5-2 0.5-2.9 0.2 0.4-0.5 0.7-0.8 1.1-1.1zm2.9 25c0 0.8 0.2 1.7 0.6 2.3-1 0.6-2.2 0.9-3.3 0.3-0.9-0.5-1.3-1.4-1.3-2.5 0.3-0.1 0.7-0.2 1-0.4h0.2c0.6 0 1.3-0.1 1.8-0.3 0.3 0.3 0.7 0.4 1 0.6zm0-3.4c0.2-0.4 0.3-0.8 0.3-1.2 0.2 0.1 0.3 0.2 0.5 0.3v0.1c-0.3 0.2-0.6 0.5-0.8 0.8zm-1.9-8.8l-0.4 0.4c0.1-0.8 0.3-1.6 0.6-2.4 0.1 0.7 0 1.4-0.2 2zm0.8 2.6c0 0.3 0.1 0.6 0.1 0.9-0.3 0-0.6 0.1-0.9 0.1 0.3-0.4 0.5-0.7 0.8-1zm-1.2 5.6c0 0.3-0.1 0.6 0 0.8l-0.6 0.6c-0.1 0.1-0.2 0.2-0.4 0.3-0.1 0-0.2-0.1-0.3-0.1 0-0.2 0.1-0.3 0.2-0.5s0.1-0.3 0.2-0.5c0.3-0.1 0.6-0.3 0.9-0.6zm1-18.1c-0.1 0.5-0.2 1.1-0.1 1.6-0.1 0.1-0.2 0.2-0.4 0.3-0.4-0.6-0.8-1.2-1.2-1.7 0.6 0.1 1.1 0 1.7-0.2zm-1.5 5.3c-0.4 0.4-0.8 0.8-1.1 1.2 0.1-0.3 0-0.7-0.2-0.9 0.2-0.1 0.4-0.2 0.5-0.3h0.8zm5.3 1h0.3c-0.6 0.2-1.2 0.5-1.8 1v-0.8c0.5 0.1 1 0 1.5-0.2zm-1.5-4.5c0.1 0 0.1 0 0 0 0.4-0.1 0.7-0.1 1-0.2 0 0.5 0 1-0.1 1.5-0.2-0.1-0.3-0.2-0.5-0.3 0-0.1-0.1-0.1-0.1-0.2-0.1-0.2-0.2-0.5-0.3-0.8zm2.9 6.6c0 1.3-0.6 2.4-1.4 3.2-0.2-1.1 0.6-2.3 1.4-3.2zm-0.6-11.3c0.3 0.2 0.5 0.4 0.8 0.5 0.1 0 0.1 0.1 0.2 0.1-0.3 0.3-0.6 0.5-0.9 0.8 0-0.1-0.1-0.2-0.1-0.3v-1.1zm4.7 6.3l-1.2 0.3c0.4-0.5 0.7-1.1 0.9-1.6 0 0.4 0.1 0.9 0.3 1.3zm3.6-15.9c-0.1 0.3-0.3 0.6-0.4 0.9-0.6 0-1.3-0.2-1.7-0.5 0.5-0.2 1-0.4 1.3-0.5 0.5 0 0.4-0.1 0.8 0.1-0.2-0.1 0 0 0 0zm-0.3 4c0 0.1-0.1 0.2-0.1 0.3h-0.4c-0.2-0.2-0.3-0.4-0.5-0.6 0-0.3 0.1-0.6 0.1-0.9 0.2 0.1 0.4 0.1 0.6 0.2 0 0.4 0.1 0.7 0.3 1zm-0.8 5.3c0.4 0.3 0.8 0.5 1.3 0.6 0 0.1 0.1 0.3 0.1 0.4-0.3 0.1-0.6 0.3-0.9 0.4-0.8 0.4-1.7 1-2.4 1.8 0.3-0.7 0.5-1.5 0.6-2.2 0.4-0.2 0.9-0.6 1.3-1zm2.6 16.6c0.6-0.2 1.3-0.3 1.9-0.5l-0.6 0.6c-1.1 0.9-2.6 1.1-3.9 0.7-0.1 0-0.2-0.1-0.3-0.1 0.8-0.7 1.4-1.6 1.8-2.6h0.1c0 0.2 0.1 0.3 0.2 0.4-0.8 0.6-0.2 1.7 0.8 1.5zm22 1.9c0 0.2 0.1 0.4 0.1 0.7-0.1 0-0.2 0.1-0.3 0.1 0 0-0.1 0-0.1 0.1 0.2-0.4 0.2-0.7 0.3-0.9zm-0.3-1c0-0.1 0.1-0.1 0.1-0.2 0 0 0.1 0 0.1 0.1v0.5c-0.1-0.2-0.1-0.3-0.2-0.4zm-0.7-15c-0.3-0.2-0.7-0.5-1-0.6l-1.2-0.6c0.9-0.5 2.1-0.7 3.3-0.3 0.2 0.1 0.4 0.2 0.5 0.3-0.5 0.3-1.1 0.7-1.6 1.2zm-0.9 5.9c-0.1 0.4-0.1 0.8-0.1 1.2-0.2 0-0.3-0.1-0.5-0.2-0.2-0.2-0.3-0.4-0.4-0.7 0.4-0.1 0.7-0.2 1-0.3zm-1.1-4.2h-0.1c-0.1-0.3-0.1-0.6-0.2-0.9 0.4 0.2 0.9 0.5 1.2 0.7h0.1c-0.1 0.2-0.1 0.3-0.2 0.5-0.3-0.1-0.5-0.2-0.8-0.3zm-0.2-6.3c-0.3 0.1-0.5 0.2-0.7 0.2h-0.1l-0.1-0.1c-0.1-0.1 0 0-0.1-0.2s-0.2-0.4-0.2-0.6h0.3c0.6 0 1.3 0 1.9 0.2-0.3 0.1-0.6 0.3-1 0.5zm-0.7 12.6c0.6 0.7 1.5 0.9 2.3 0.8 0.2 0.4 0.4 0.7 0.7 1l-0.1 0.1c-0.2 0-0.3 0-0.5 0.1-0.5-0.3-1-0.6-1.5-0.8-0.4-0.9-1.4-1.6-2.3-2.1 0.1-0.2 0.2-0.5 0.3-0.7 0.1 0.1 0.3 0.1 0.5 0.1 0 0.6 0.2 1.1 0.6 1.5zm2 5.9c-0.4 0.3-0.9 0.6-1.3 0.7-0.2 0-0.4 0.1-0.6 0.1-0.1-0.4-0.5-0.8-1-0.7 0.3-0.2 0.7-0.5 0.9-0.9h0.5c0.2 0.1 0.4 0.2 0.7 0.3 0.3 0.2 0.5 0.4 0.8 0.5zm-3 2.8h0.1c0.4 0 0.9 0 1.4-0.1-0.7 0.8-1.3 1.6-1.9 2.5-0.4 0-0.7 0-1.1-0.1-0.3-0.1-0.6-0.3-0.8-0.5 0.9-0.3 1.7-1 2.3-1.8zm-1.9-3.8h-0.2-0.1c0.3-0.2 0.5-0.4 0.7-0.7 0 0.1 0.1 0.1 0.2 0.2-0.2 0.1-0.4 0.2-0.6 0.5zm-0.6-7.8c-0.4-0.8-0.7-1.6-0.9-2.5 0.1-0.1 0.3-0.2 0.4-0.3l0.3-0.3 1.2 2.7c-0.3 0.1-0.6 0.2-1 0.4zm-0.7 3l0.3 0.3 0.3 0.6v0.2c-0.2 0-0.3 0.1-0.5 0.1-0.8-0.3-1.6-0.6-2.4-0.8 0-0.1 0-0.1 0.1-0.2 0.6-0.3 1.3-0.4 2.2-0.2zm-0.1 7.2c0-0.1 0-0.2 0.1-0.2 0.1-1.1-1.6-1.3-1.9-0.2-0.4-0.1-0.9 0-1.2 0.4-0.3 0.5-0.6 1-0.8 1.5-0.7 0.4-0.9 1.4-0.1 1.7v0.3l-0.1 0.1c-0.5 0.6-1.2 0.9-1.9 1.2-0.1-0.3-0.1-0.5-0.2-0.8 0-0.1 0-0.3-0.1-0.4 0.4-0.7 0.7-1.5 1-2.3 0.4-1.1-1.1-1.5-1.7-0.7-0.5 0.7-0.9 1.5-1.1 2.3-0.2 0.3-0.5 0.5-0.8 0.7h-0.1c0.3-0.9 0.3-1.9 0.2-2.9 0.3-0.5 0.6-1 0.8-1.5 0.3-0.8 0.4-1.6 0.4-2.4 0.3 0.1 0.7 0.2 1 0.3 0.2 2.8 3.5 2.4 5.5 1.6 0.4 0.3 0.8 0.5 1.3 0.6-0.1 0.4 0 0.7 0.1 1-0.2 0.2-0.5 0.4-0.7 0.6 0.2-0.4 0.3-0.6 0.3-0.9zm-8.7-6.6c0.3 0.1 0.5 0.1 0.8 0.2 0.1 0.4 0.2 0.7 0.3 1.1v0.1c-0.1-0.1-0.3-0.1-0.4-0.2-0.2-0.4-0.4-0.8-0.7-1.2zm6.6 3.8c-0.5 0.2-1.1 0.3-1.7 0.2-0.3 0-0.5-0.1-0.6-0.3 0.7-0.1 1.3-0.4 1.8-0.8 0.3-0.3 0.5-0.7 0.5-1.1 0.1 0 0.1 0 0.2 0.1-0.4 0.6-0.5 1.2-0.2 1.9zm1.8-15.3c-0.4 0-0.8 0.2-0.9 0.7-0.7-0.1-1.4-0.1-2-0.1 0.2-0.2 0.4-0.3 0.6-0.5 0.5-0.3 1-0.7 1.6-0.9 0.2 0.1 0.5 0.3 0.7 0.4v0.4zm-2.7 6.6c0 0.4-0.1 0.8-0.2 1.2-0.3 0-0.6 0.1-0.9 0.1-0.1-0.2-0.3-0.5-0.5-0.7l-0.3-0.3-0.2-0.2c-0.7-0.8-1.7-1-2.7-1.1 0.2-0.7 0.4-1.4 0.4-2.2v-0.1c0.3-0.2 0.6-0.3 0.9-0.4 0.1 0.2 0.2 0.4 0.4 0.6l0.2 0.2c0.5 1.6 1.3 2.9 2.9 2.9zm-4.9-8.3c-0.2-0.3-0.4-0.7-0.6-1-0.2-0.6-0.4-1.1-0.7-1.6 0.4-0.2 0.8-0.4 1.1-0.6 0.6 0.7 1.4 1.4 2.3 1.5h0.4l-0.6 0.6c-0.6 0.3-1.2 0.7-1.9 1.1zm-1.3 17.2c0 0.5-0.1 1-0.4 1.4-0.2 0-0.4 0-0.5 0.1 0.4-0.5 0.7-1 0.9-1.5zm-1.1-21.4c-0.3-0.4-0.7-0.7-1.1-1-0.2-0.2-0.5-0.3-0.7-0.5 0.1-0.1 0.1-0.1 0.1-0.2 0.9 0.1 1.9 0.2 2.8 0.4 0.1 0.2 0.1 0.5 0.2 0.7-0.5 0.2-0.9 0.4-1.3 0.6zm0.3 15.2c-0.1 0-0.2 0-0.3-0.1l0.1-0.1c0.1 0.1 0.2 0.1 0.2 0.2zm-0.2-7c-1 1.6-2.7 3.2-4 4.1-0.2 0.1-0.3 0.2-0.5 0.3 0.6-0.6 1.1-1.4 1.4-2.3 0.2-0.6 0.3-1.2 0.3-1.8 0.2-0.1 0.5-0.1 0.7-0.2 0.7-0.2 1.4-0.3 2.1-0.4v0.3zm-2.9 20.9c-0.1 0.2-0.3 0.4-0.4 0.5-0.3 0.1-0.7 0.1-1 0.1 0.3-0.6 0.7-1.2 1.1-1.7 0.1-0.1 0.3-0.2 0.5-0.2-0.1 0.2-0.2 0.4-0.2 0.7-0.1 0.2-0.1 0.4 0 0.6zm-1.8-3.3c-0.2-0.1-0.5-0.1-0.7-0.3 1 0.1 2-0.1 3-0.6 0.6-0.3 1.2-0.7 1.7-1.2-0.3 0.5-0.6 0.9-0.8 1.4-0.9 0.7-2.1 1-3.2 0.7zm2.3-8c-0.4 0.4-0.7 0.9-1 1.4-0.3-0.1-0.6-0.2-0.9-0.4 0-0.1 0.1-0.3 0.1-0.4 0.1-0.1 0.3-0.2 0.5-0.3 0.3-0.1 0.8-0.2 1.3-0.3zm-3.1 13.8c-0.6 0.4-1.3 0.7-1.9 0.8l1.1-1.1 0.6 0.3h0.2zm-1.5-19.5c0-0.1-0.1-0.2-0.1-0.3v-0.2s0-0.3 0.1-0.3c0-0.1 0.1-0.1 0.1-0.2 0.1-0.3 0.1-0.2 0.2-0.3 0.5-0.6 1.1-1 1.9-1.4-0.2 1.1-1.1 2.1-2.2 2.7zm1.9 4.7c-0.1 0.1-0.2 0.1-0.3 0.2-0.3 0.2-0.6 0.5-0.8 0.8-0.7 0.8-1.4 1.7-1.8 2.6 0.1-1.1-0.2-2.2-0.6-3.3 0-0.1-0.1-0.1-0.1-0.2 0.1-0.2 0.2-0.4 0.4-0.5 1 0.4 2.1 0.5 3.2 0.4zm-3.6 7.6l0.2 0.2c0.2 0.8 0.7 1.5 1.3 2-0.3 0-0.7-0.1-1 0-0.6-1.1-1.7-2-2.9-2.3 0.1 0 0.2-0.1 0.3-0.1 0.2 0.1 0.4 0.1 0.5 0.2 0.6 0.1 1.1 0.1 1.6 0zm-1.9-2.7c0.1 0 0.1 0.1 0.1 0.1l-0.1 0.1v-0.2zm-0.3-4.4c0-0.1-0.1-0.1-0.1-0.2 0-0.4-0.1-0.8-0.2-1.2-0.1-0.5-0.5-0.7-0.9-0.7 0.1-0.1 0.2-0.1 0.3-0.2h0.7l0.9 0.6c-0.3 0.6-0.5 1.1-0.7 1.7zm0 9c-0.6 0.1-1 0.4-1.4 0.8-0.2-0.4-0.4-0.7-0.6-1.1 0.7-0.2 1.4-0.1 2 0.3zm-1.7 7c-0.1 0-0.3 0.1-0.4 0.1 0.1-0.1 0.1-0.2 0.2-0.3 0 0.1 0.1 0.2 0.2 0.2zm-2.1-3.3c0.1-0.6 0.2-1.2 0.4-1.8 0.1-0.1 0.2-0.3 0.3-0.5 0.3 0.7 0.5 1.5 0.4 2.4-0.4 0-0.8 0-1.1-0.1zm0.4 2c-0.1 0.2-0.2 0.3-0.3 0.5-0.1-0.2-0.1-0.4-0.1-0.6 0.1 0 0.3 0 0.4 0.1zm0.2-7.3c-0.1-0.1-0.2-0.2-0.3-0.2 0.3-0.1 0.6-0.1 0.8-0.2 0.1 0 0.2 0.1 0.3 0.1-0.3 0-0.5 0.1-0.8 0.3zm32.7 2.9c0.1 0 0.2-0.1 0.2-0.1 0.2-0.1 0.5-0.3 0.6-0.5 0.1 0.1 0.3 0.3 0.5 0.4-0.4 0.1-0.9 0.2-1.3 0.2zm0.8-6.7c-0.2 0-0.4 0.1-0.6 0.2l-0.1 0.1c0-0.2-0.1-0.4-0.2-0.7 0.5 0 1 0.2 1.4 0.3-0.2 0.1-0.4 0.1-0.5 0.1zm0.3-15.2c-0.1-0.1-0.2-0.1-0.3-0.2-0.7-0.3-1.4-0.5-2.1-0.5 0.3-0.2 0.5-0.5 0.8-0.7 0.2 0.1 0.4 0.3 0.6 0.4 0.4 0.3 0.7 0.6 1 1zm-0.9-8c0.1 0.4 0.1 0.9 0 1.5-0.2 0.9-0.6 1.9-1.2 2.8-0.6-0.2-1.2-0.4-1.8-0.5s-1.2-0.1-1.7 0c0.1-0.6 0.2-1.1 0.4-1.5 0.6-2 2.5-2.7 4.3-2.3zm-4.1-2.5c0.8 0.1 1.7 0.2 2.3 0.5-0.7 0.1-1.3 0.3-1.9 0.6-0.7 0.4-1.3 0.9-1.7 1.5-0.3-0.9-0.8-1.8-1.3-2.5 0.9-0.2 1.8-0.2 2.6-0.1zm-5.2 0.7c0.2-0.1 0.4-0.2 0.5-0.2 1.1 1.3 1.8 3.1 2.1 4.6 0 0.2 0.1 0.5 0 0.7v0.4c0 0.1-0.1 0.2-0.1 0.2-0.2 0.1-0.3 0-0.5 0-0.4-0.1-0.6-0.2-1-0.4-1.3-0.8-2.6-2.3-2.5-3.7 0-0.1 0.2-0.5 0.3-0.7 0.3-0.4 0.7-0.7 1.2-0.9zm-3.4-1.7c0.8-0.2 1.6-0.1 2.2 0.2-0.2 0.1-0.5 0.3-0.7 0.4-0.7 0.5-1.1 1.1-1.3 1.8-0.1-0.4-0.2-0.7-0.4-1 0-0.4 0-0.9-0.1-1.3 0.1 0 0.2-0.1 0.3-0.1zm1.2 7.5c0.1-0.3 0.1-0.6 0.1-0.8 0.6 0.8 1.5 1.6 2.4 2.1-0.2 0-0.3 0.1-0.5 0.1-1.3-0.4-2.7-0.1-3.8 1.4-0.3 0.4-0.5 0.8-0.7 1.3-0.1 0.1-0.2 0.3-0.3 0.4l-1.5-0.3c0.3-0.2 0.6-0.3 0.9-0.5 1.4-0.8 3-2.1 3.4-3.7zm-2.5-1.7v0.1c0 0.2-0.1 0.3-0.1 0.5h-0.1c-0.2-0.1-0.6-0.4-0.9-0.8l0.3-0.3c0.2 0.1 0.4 0.2 0.5 0.3s0.2 0.1 0.3 0.2zm-0.9-4.6c0 0.1 0.1 0.2 0.1 0.3-0.1 0.6-0.3 1.1-0.6 1.6-0.2-0.1-0.4-0.1-0.6-0.2 0.2-0.6 0.6-1.2 1.1-1.7zm-1.1-1.7v0c-0.7 0.7-1.3 1.5-1.7 2.4-0.1 0.2-0.1 0.4-0.2 0.6-1.1-0.2-2-0.3-2.7-0.3-0.1-0.3-0.2-0.5-0.3-0.8 0.7-1 1.7-2.2 3-2.5 0.7-0.2 1.3 0.1 1.9 0.6zm-3.6-2.9c0.6-0.1 1.2 0.1 1.8 0.3-0.7 0.1-1.5 0.4-2.3 1-0.4 0.3-0.8 0.6-1.1 1 0-0.5-0.1-1.1-0.3-1.5 0.5-0.4 1.2-0.7 1.9-0.8zm-1.3 12.5c0.7 0.2 1.4 0.4 1.9 0.8l0.1 0.1c0.1 0.2 0.1 0.5 0.1 0.8-1.2 0.3-2.5 0.5-3.6 0.3-0.3-0.6-0.6-1.3-0.9-1.9 0.1-0.1 0.1-0.2 0.2-0.3 0.8 0 1.5 0.1 2.2 0.2zm-2.2-10.2v0.6c0 0.5 0.1 1.1 0.2 1.6-0.5-0.3-1.2-0.4-1.9-0.4 0.3-0.3 0.5-0.6 0.7-0.7 0.2-0.3 0.6-0.7 1-1.1zm-2.4-1.7c0.3 0 0.8 0.1 1.2 0.2-1 1-1.8 2.1-2.8 3.1l-0.2 0.2c0-0.1 0.1-0.3 0.1-0.4 0.2-1.1-0.1-2.1-0.8-2.9 0.9-0.3 1.7-0.2 2.5-0.2zm-2.9 16.5c-0.1 0.2-0.1 0.5-0.2 0.7-0.4 1.2-0.9 2.4-1.7 3.4-0.6-0.6-1-1.3-1.3-2.1 0.8-0.6 1.6-1.4 2.1-2l0.2-0.2c0.3 0.2 0.6 0.2 0.9 0.2zm-0.9-3c-0.2 0.3-0.4 0.6-0.7 0.9l-0.6-0.3c0.4-0.3 0.7-0.6 1-1h0.1c0.2-0.1 0.4-0.1 0.5-0.2 0 0.2-0.2 0.4-0.3 0.6zm-0.4-10.5c0.4-0.7 0.4-1.2 0-1.6 0.1-0.1 0.1-0.2 0.2-0.3 0.1 0.1 0.1 0.2 0.2 0.3 0.5 0.8 0.3 1.8-0.2 2.6-0.2-0.1-0.4-0.1-0.6-0.2v-0.3c0.1-0.1 0.3-0.3 0.4-0.5zm-0.3 7.4c-0.1 0.3-0.2 0.5-0.4 0.8l-0.6 0.3c0.3-0.4 0.6-0.8 1-1.1zm-4.6-10.8c0.8-0.2 1.8 0.1 2.6 0.3 0.3 0.1 0.6 0.2 0.9 0.3-0.1 0.1-0.2 0.3-0.3 0.4h-0.4c-1.2 0-2.4 0.2-3.5 0.4 0-0.1-0.1-0.1-0.1-0.2-0.1-0.6 0.2-1 0.8-1.2zm2.6 2.8v0.3c-0.2 0.1-0.3 0.3-0.5 0.4 0 0-0.1 0-0.1 0.1-0.4-0.2-0.8-0.3-1.3-0.4-0.1 0-0.1-0.1-0.2-0.1 0.8-0.2 1.4-0.3 2.1-0.3zm-3.1 4.4c1-0.3 1.9-0.7 2.8-1.3l0.1-0.1c0.4 0.2 0.7 0.5 1 0.8 0 0.1 0.1 0.1 0.1 0.2l0.3 0.3c0.1 0.1 0.1 0.2 0.2 0.3-0.2 0.2-0.3 0.4-0.5 0.5-1.3 0.5-2.3 1.5-3.1 2.6l-0.5-0.5c-0.3-0.5-0.7-1-1-1.5 0.3-0.3 0.5-0.8 0.6-1.3zm-0.9 4.2c0.2 0.3 0.5 0.7 0.8 1 0 0.1-0.1 0.2-0.1 0.2-0.2 0-0.5-0.1-0.7-0.1-0.6 0-1.2 0.1-1.8 0.4-0.1 0-0.1 0-0.2-0.1-0.2-0.6-0.2-1.3-0.1-1.9v-0.2c0.1-0.1 0.3-0.2 0.4-0.2 0.6 0.3 1.2 0.6 1.7 0.9zm-3.5-11.5c0.6 0.2 1.2 0.6 1.6 1.1-0.8-0.3-1.7-0.5-2.6-0.6v-0.4c0.2-0.2 0.6-0.3 1-0.1zm-1.6 3.6c0.1 0.1 0.3 0.1 0.4 0.2 0 0.1 0.1 0.1 0.1 0.2-0.5 0.4-1 0.9-1.4 1.5-0.1 0-0.2-0.1-0.3-0.1 0.5-0.6 0.9-1.1 1.2-1.8zm-1.4 18.4s0-0.1 0.1-0.3c0-0.2 0.1-0.4 0.2-0.6 0.2-0.8 0.7-1.5 1.1-2.3 0.1-0.1 0.2-0.3 0.3-0.4l1.5 2.4c0.2 0.2 0.3 0.5 0.5 0.7-0.1 0-0.1 0.1-0.2 0.1-0.2 0.1-0.4 0.2-0.7 0.4-1-0.1-1.9 0-2.8 0zm-0.1-13.7c-0.2 0-0.3-0.1-0.5-0.1-0.2-0.4-0.4-0.9-0.7-1.2l0.1-0.1c0.4 0.2 0.7 0.3 1.1 0.4v1zm0-8.6c-1.2-0.2-2.5-0.3-3.6-0.1-0.2-0.1-0.3-0.2-0.5-0.3 1.6-0.8 3.4-1.2 4.1 0.4zm-5.6 12.7c0.1-0.2 0.1-0.4 0-0.6 0.3-0.3 0.6-0.5 1-0.8 0.1 0 0.1 0.1 0.2 0.1 0.5 1 1.1 1.9 1.8 2.9-0.4 0.8-0.9 1.5-1.4 2.1-0.1-0.2-0.3-0.4-0.4-0.6-0.3-0.4-0.8-0.6-1.3-0.3-0.2 0.1-0.4 0.3-0.6 0.5-0.1-1 0.4-2.2 0.7-2.9-0.1-0.3 0-0.4 0-0.4zm-0.3-6.1c0 0.2 0 0.3 0.1 0.5-0.1-0.2-0.1-0.3-0.2-0.5h0.1zm-0.2 3.5c-0.1 0.1-0.2 0.2-0.3 0.2l-0.6 0.6c-0.2-0.4-0.4-0.8-0.7-1.1 0.4 0 0.8-0.1 1.2-0.2 0.1 0.1 0.2 0.3 0.4 0.5zm-6.2-9.6c1.1-0.8 3-0.7 4.4-0.4 0.2 0 0.4 0.1 0.5 0.1 0 0.1 0.1 0.3 0.1 0.4-0.2 0.1-0.4 0.1-0.5 0.2-0.4 0.3-0.7 0.7-0.9 1.1-1.2-0.3-2.7-0.4-4.1-0.2v-0.1c-0.1-0.5 0.2-0.9 0.5-1.1zm-2 3.9c0.1-0.1 0.3-0.3 0.5-0.4 0.3 0.5 0.6 0.9 0.9 1.3 0.6 0.8 2 0.4 1.7-0.7-0.1-0.4-0.2-0.8-0.3-1.1 0.6 0 1.3 0 1.9 0.1-0.7 1.3-1.8 2.4-3.1 3.1h-0.2-1.1c-0.1-0.1-0.2-0.1-0.2-0.2 0-0.7 0-1.4-0.1-2.1zm0 7.3c-0.4 1.1-0.6 2.4-0.6 3.6h-0.3c-0.3 0-0.6 0-0.8 0.1 0-0.1 0.1-0.3 0.1-0.4 0.2-1.5 0.3-3.3-0.2-4.8l0.1-0.1c0.2-0.1 0.5-0.2 0.7-0.3l0.1 0.1c0.4 0.4 0.7 1.1 0.9 1.8zm-0.5-9.3c-0.1 0.1-0.3 0.2-0.4 0.3-0.3-0.3-0.7-0.5-1.1-0.7 0.5-0.1 1 0.1 1.5 0.4zm-3.6 0.9c0.8 0.1 1.5 0.3 1.9 0.9-0.4 1-0.3 1.9 0.1 2.6 0 0.1-0.1 0.2-0.1 0.3-0.5-0.1-0.9-0.1-1.4 0l-0.3-0.3c-0.8-0.9-0.5-2.4-0.2-3.5zm-0.4 5.9c0.1 0 0.2 0.1 0.2 0.1l-0.6 0.6c-0.3 0.1-0.6 0.2-0.8 0.2 0.3-0.3 0.7-0.6 1.2-0.9zm-0.4 14.9c0.2 0.2 0.4 0.5 0.6 0.7-0.6 0.2-1.2 0.3-1.7 0.3 0.4-0.2 0.8-0.5 1.1-1zm-1.7-11.7c-0.1-0.1-0.1-0.2-0.2-0.3h0.4c-0.1 0.1-0.1 0.2-0.2 0.3zm0.1-4.2c-0.1 0.1-0.2 0.1-0.2 0.2-0.5 0.4-0.9 0.9-1.2 1.5-0.4-0.1-0.8-0.3-1.2-0.6 0.7-0.6 1.6-1.1 2.6-1.1zm-3.7-3.2c0.2-0.2 0.5-0.4 0.8-0.5 0.8-0.5 1.4-0.4 1.9-0.1-0.1 0.7-0.2 1.4-0.1 2.1l-1.2 0.3c-0.7 0.3-1.4 0.8-1.9 1.4l-0.3-0.3c0.3-0.6 0.5-1.3 0.8-2 0.1-0.3 0.1-0.6 0-0.9zm-0.6 6.5h0.1c0.4 0.4 0.7 0.7 1 1.2 0.3 0.4 0.5 0.8 0.6 1.2-0.1 1.4 0 2.7 0.1 3.9-0.5-0.1-0.9 0.3-1.1 0.7-0.6-0.4-1.3-0.7-2.1-0.9 0.1-0.8 0.1-1.6 0-2.3 0-0.1-0.1-0.3-0.1-0.4 0.4-1.3 0.9-2.4 1.5-3.4zm-0.4 8.4c0.6 0.4 0.8 0.8 0.8 1.3s-0.3 1.2-0.8 1.8c-0.1 0.2-0.3 0.4-0.5 0.6-1.1-0.5-1.4-1.8-1.4-3.2 0.2-0.3 0.4-0.7 0.6-1.1 0.4 0.2 0.8 0.4 1.3 0.6zm-1.9-8c-0.2 0.3-0.3 0.7-0.4 1-0.1-0.1-0.3-0.2-0.4-0.3 0.2-0.3 0.5-0.5 0.8-0.7zm-0.3 17.3c-0.1 0.6-0.1 1.2 0 1.7-0.2-0.1-0.4 0-0.5 0-0.2-0.2-0.5-0.4-0.8-0.6 0.4-0.4 0.9-0.8 1.3-1.1zm-1-14.5c0.1 0.1 0.1 0.1 0.1 0.2-0.2 0.7-0.4 1.5-0.5 2.2-0.4 0-0.9 0.3-0.9 0.7-0.1 0.4-0.1 0.8-0.1 1.2v-1.2c0.1-1.1 0.3-2.4 0.9-3.6 0.2 0.1 0.4 0.3 0.5 0.5zm-0.6-7.5c0.1 0.5 0 1.1-0.1 1.6-1 0.3-1.9 0.9-2.7 1.7 0.1-0.3 0.2-0.6 0.2-0.9 0.1-0.5-0.2-1-0.6-1.1 0.9-0.7 2-1 3.2-1.3zm-3.6 7.4c0.3-0.2 0.6-0.4 0.9-0.5s0.5-0.2 0.9-0.2c-0.3 0.9-0.6 1.8-0.7 2.7-0.3-0.6-0.7-1.2-1.2-1.7 0 0 0-0.2 0.1-0.3zm0 4.4c-0.2-0.4-0.3-0.7-0.4-1.1 0.1 0.3 0.2 0.7 0.4 1.1zm-1.2 1.7v0.2c0-0.1-0.1-0.2-0.1-0.4v-0.1c0 0.1 0 0.2 0.1 0.3zm0 7c0.1 0.3 0.2 0.5 0.3 0.7v0.2c-0.4 0.2-0.7 0.4-1.1 0.5 0.2-0.3 0.4-0.5 0.5-0.8l0.3-0.6zm-0.9-16.6l0.6-0.3c0 0.1-0.1 0.2-0.1 0.3-0.1 0.1-0.4 0.3-0.6 0.5 0-0.2 0-0.4 0.1-0.5zm-0.3 13.3c0 0.9-0.2 1.8-0.5 2.6 0-0.1 0-0.1-0.1-0.2-0.3-0.7-0.9-2.1-1.9-2.1-0.4-0.4-0.9-0.8-1.4-1.2-0.3-0.2-0.5-0.3-0.8-0.5-0.1-1-0.1-2.2 0-3.2 0.1 0 0.3-0.1 0.4-0.1 1.2-0.3 2.2-0.1 3.1 0.8 0.1 0.2 0.3 0.3 0.4 0.5 0.1 0.4 0.1 0.7 0.2 1 0.1 0.8 0.3 1.6 0.6 2.4zm-2.4-9c0.1 0.1 0.1 0.3 0.2 0.4 0.3 0.7 1.1 0.8 1.5 0.5-0.2 0.6-0.2 1.3-0.3 2-1-0.5-2.1-0.7-3.2-0.5 0.3-1.2 0.9-2.1 1.8-2.4zm-3.5-0.8c0.5-0.5 1.3-1 2-0.9 0.2 0 0.3 0.1 0.4 0.1-1.5 0.8-2.3 2.6-2.7 4.4-0.1-0.2-0.3-0.4-0.5-0.4-0.2-0.1-0.5-0.1-0.7-0.2 0-1.1 0.7-2.3 1.5-3zm-0.2 21.3c-0.3 1.5-0.1 3.2 0.7 4.4-0.5 0.5-1.2 1-1.9 1.3 0.1-1.9-0.6-3.7-1.9-4.9l0.5-0.5h0.1c0.8 0.2 1.7 0 2.5-0.3zm-2.3-4.4l0.2-0.2c0 0.2-0.1 0.3-0.1 0.5-0.1-0.1-0.1-0.2-0.1-0.3zm-0.7-1.9c-0.7-1.2-2-2.2-3.3-2.8 0-0.2-0.1-0.4-0.2-0.7-0.1-0.1-0.1-0.2-0.2-0.2 0.2-0.4 0.5-0.8 0.8-1.1 1.2-0.1 2.3 0.7 2.9 1.7 0.6 0.8 0.9 1.6 1 2.5-0.3 0.2-0.7 0.4-1 0.6zm0-5.7h0.5v0.4c-0.2-0.2-0.3-0.3-0.5-0.4zm-3.8-3.1c1-1.1 2.5-1.6 3.9-1.5 0.2 0.5 0.4 0.9 0.7 1.4 0 0.1 0.1 0.1 0.1 0.1l-0.3 1.2c-1.6-0.1-3.1 0.3-4.3 1.1-0.4 0.1-0.7 0.2-1.1 0.4-0.1-1 0.2-1.9 1-2.7zm-3 8c0.3-0.1 0.5-0.3 0.8-0.3 0.1 1 0.3 2 0.6 3.1-0.1-0.1-0.3-0.2-0.4-0.2-0.6-0.3-1.2-0.4-1.8-0.3 0.2-0.9 0.5-1.6 0.8-2.3zm-1.3 4.2c0.2-0.1 0.4-0.1 0.6-0.2 1.5-0.2 2.5 1.6 3 3.1v0.1c-0.1 0.3-0.2 0.7-0.2 1.1l-0.3-0.6c-0.7-1.4-1.9-2.4-3.2-2.9 0.1-0.2 0.1-0.4 0.1-0.6zm-0.3 2.5c0.8 0.5 1.5 1.3 1.9 2.2 0.3 0.5 0.4 1.1 0.5 1.6-0.3 0.1-0.7 0.2-1 0.2-0.2 0-0.4-0.1-0.6-0.2-0.1 0-0.4-0.4-0.5-0.7-0.4-1-0.4-2.1-0.3-3.1zm-1.1 6.7c0.5 0.4 1 0.8 1.6 1.1 0.3 0.1 0.6 0.2 0.9 0.3 0.1 0.3 0.2 0.6 0.2 0.9-0.4 1.1-1.2 2.5-2.4 1.9-1.4-0.6-2.2-2.4-2.5-3.9 0.7-0.3 1.4-0.4 2.2-0.3zm-2.4-2.6c0.2-0.1 0.5-0.1 0.7-0.1 0.1 0.3 0.2 0.5 0.3 0.8-0.4 0.1-0.8 0.1-1.1 0.3 0-0.3 0-0.6 0.1-1zm-1.6-1.8c0 0.2-0.1 0.3-0.1 0.5 0 0-0.1 0-0.1 0.1 0-0.2 0.1-0.4 0.2-0.6zm0.1 5.9c0.6 1.7 1.9 3.8 3.5 4.5-0.3 0.3-0.4 0.8-0.1 1.2h-0.3c-0.7-0.9-1.6-1.4-2.5-1.7-0.5-1.2-0.8-2.4-1-3.7 0.2-0.1 0.3-0.2 0.4-0.3zm-2 3.3l0.3 0.6c-0.2 0-0.3 0.1-0.5 0.1 0.1-0.3 0.1-0.5 0.2-0.7zm-0.5 2.8c0.7-0.2 1.3-0.2 1.9-0.1 0.2 0.4 0.4 0.7 0.5 1.1 0.2 0.4 0.4 0.7 0.7 1.1-1 0.3-1.9 0.8-2.7 1.5 0-0.1-0.1-0.3-0.1-0.4-0.3-1.1-0.4-2.2-0.3-3.2zm-2.7 3.2c0.1-0.6 0.4-1.2 0.9-1.8 0.1 1.2 0.3 2.4 0.8 3.4-0.5 0.6-1 1.2-1.5 1.9-0.4-1.1-0.5-2.4-0.2-3.5zm-1.9 3.1c-0.4-0.8-0.6-1.7-0.5-2.5 0.1-0.7 0.4-1.3 0.9-1.8-0.6 1.4-0.7 2.9-0.4 4.3zm2.3 12c-0.3-0.2-0.5-0.5-0.7-0.8 0-0.6 0-1.2 0.1-1.8 0.2-1.1 0.6-2.3 1.2-3.3 0.1 0 0.3 0 0.4 0.1-0.8 0.8-1.2 2-1.3 3.2 0 0.9 0.1 1.8 0.3 2.6zm0.7 2.6c-0.1-0.1-0.3-0.2-0.4-0.4 0.2 0 0.4 0.1 0.6 0.1 0.1 0.1 0.1 0.2 0.2 0.3h-0.4zm0.4-11.5c-0.2-0.2-0.4-0.4-0.5-0.7 0.4-0.7 0.9-1.4 1.5-2.1 0.4 0.7 0.9 1.4 1.5 2.1-0.8 0-1.7 0.3-2.5 0.7zm2 10.6c0.1 0.1 0.3 0.2 0.4 0.4-0.1 0.1-0.3 0.2-0.4 0.2-0.1-0.1-0.2-0.3-0.3-0.4 0.1-0.1 0.2-0.2 0.3-0.2zm0.1-6.1c0.1 0.2 0.2 0.4 0.3 0.7 0.1 0.5 0 1.2-0.2 1.9-0.3-0.8-0.3-1.7-0.1-2.6zm-0.3 18.6c-0.7-0.6-0.9-1.7-0.9-2.6 0-1.4 0.6-4.3 1.9-5.5-0.2 0.9-0.1 1.9 0 2.9-0.9 1.4-1.4 3.3-1 5.2zm0.6-27.2c0.6-0.5 1.2-0.9 1.8-1.2 0.4 1.2 0.8 2.3 1 3.6l-0.3 0.6c-0.4-0.2-0.7-0.5-0.9-0.8-0.7-0.7-1.2-1.4-1.6-2.2zm1.3 12.4c0.6-1.4 0.7-2.8 0.2-4.1 0.7 0.6 1 1.6 1.2 2.5 0 0.2 0.1 0.4 0.1 0.7 0 0.1-0.1 0.3-0.2 0.4-0.3 0.7-0.7 1.3-1.2 1.9-0.2-0.1-0.4-0.3-0.6-0.5 0.3-0.3 0.4-0.6 0.5-0.9zm0.3 15.2c-0.2-0.4-0.4-0.9-0.4-1.3-0.1-0.6 0-1.2 0.1-1.7 0.2 0.5 0.4 1 0.7 1.4-0.2 0.5-0.3 1-0.4 1.6zm0.7-7.5c0.1 0.1 0.3 0.1 0.4 0.1-0.2 0.1-0.3 0.1-0.5 0.2 0.1-0.1 0.1-0.2 0.1-0.3zm0.3 2.4c0.3-0.3 0.7-0.5 1.1-0.6 0.1 0.2 0.1 0.4 0.2 0.5-0.3 0.4-0.6 0.8-0.9 1.2-0.2-0.3-0.3-0.7-0.4-1.1zm0.8 6.3c0.1-0.1 0.2-0.2 0.3-0.2 0.7-0.5 1.2-1.1 1.6-1.7 0.1 0.8 0.4 1.7 0.7 2.4-0.1 0-0.3 0.1-0.4 0.1-0.7 0.1-1.5 0-2.2-0.3v-0.3zm1.5 3c-0.4-0.1-0.7-0.3-0.9-0.6 1 0.2 2.1 0.1 3.1-0.3 0.1 0.1 0.2 0.1 0.2 0.2-0.5 0.7-1.4 0.9-2.4 0.7zm3.5-4.1c-0.2 0.2-0.5 0.4-0.7 0.6-0.5-1.2-0.7-2.8-0.7-4.2 0.1 0.1 0.2 0.3 0.3 0.4 0.3 0.3 0.6 0.3 1 0.2 0.2 1 0.2 2.1 0.1 3zm0.4-7v0c-0.1 0-0.1-0.1-0.2-0.1-0.2-0.1-0.4-0.1-0.6-0.1s-0.5 0.1-0.6 0.3h-0.2-0.1c-0.1-0.3-0.2-0.6-0.3-1-0.1-0.3-0.1-0.7 0-1 0.2-0.3 0.4-0.7 0.5-1 0.4-0.4 0.8-0.6 1.4-0.7 0.2 0.2 0.3 0.4 0.4 0.6 0 0.1 0.1 0.2 0.1 0.3-0.3 0.9-0.4 1.8-0.4 2.7zm-0.7-8.8c0.3-0.1 0.7-0.3 1-0.4-0.1 0.1-0.1 0.2-0.2 0.4s-0.3 0.4-0.5 0.7c-0.2-0.4-0.3-0.6-0.3-0.7zm1.6-3c-0.7 0.5-1.4 0.9-2.2 1.2 0-0.2-0.1-0.5-0.1-0.7 0-1.5 0.7-2.7 1.9-3.5 0.3 0.9 0.4 2 0.4 3zm0.4 21.5h-0.3c0.1-0.2 0.1-0.3 0.1-0.5 0.1 0.1 0.2 0.3 0.2 0.5 0.1 0 0.1 0 0 0zm0.2-17.1c-0.2 0.2-0.4 0.3-0.6 0.4 0.2-0.2 0.4-0.5 0.6-0.7 0.7-1 1-2.1 1.2-3.2l0.3-0.3c-0.1 0.2-0.2 0.5-0.2 0.8-0.1 0.1-0.1 0.3-0.1 0.5 0 0.1-0.1 0.2-0.1 0.3-0.2 0.3-0.4 0.6-0.5 1-0.3 0.3-0.4 0.8-0.6 1.2zm0.8 13.7c0.2-0.5 0.4-1.1 0.4-1.7 0.6-0.1 1.1-0.4 1.5-0.6 0.3 0.4 0.5 0.9 0.8 1.3 0.3 0.6 0.6 1.1 1 1.6-0.4 0.9-1.3 1.7-2.3 2.2-0.8-0.8-1.4-1.8-1.4-2.8zm7.6 14.2c-0.3 0-0.5 0.1-0.7 0.2-0.3-0.2-0.6-0.3-1 0-1.7 1-3.1-0.4-3.9-1.8-1-1.7-1.5-4-1-5.9 0.1-0.3 0-0.6-0.1-0.8 0.3 0.3 0.7 0.5 1.2 0.7 1.7 0.6 3-0.6 3.8-1.9 0.4 3 1.1 5.9 1.8 8.8 0.1 0.3 0.1 0.5 0.2 0.8-0.2-0.1-0.3-0.1-0.3-0.1zm8.3 16.6c-2.1-3.9-3.7-8.1-5-12.4-1.6-5.3-2.9-10.7-3.6-16.2 0-0.3-0.1-0.7-0.1-1 0.3-1 0.5-2 0.5-3 0.1-0.2 0.2-0.4 0.3-0.7 0.8-1.9 1.4-3.8 1.7-5.8 0.2-1.2 0.4-2.6 0.4-3.9 0.4-0.3 0.7-0.5 0.9-0.8 1.7 0.5 3.4 1 5.2 1.4 1.8 0.5 3.8 0.9 5.3 1.9 0.1 0 0.1 0.1 0.2 0.1 0.2 5.7 2.1 11.5 6.5 15 7.3 5.9 16.8 0.5 22.4-5 0.6-0.6 1.2-1.3 1.8-2-0.3 3.4-0.9 7.1 0.5 10.3 1.7 3.7 6.6 5.4 10.4 5 3.2-0.3 5.6-2.5 6.5-5.6 0.6-2.1 0.5-4.4-0.1-6.6 5.7 5.4 14.8 10.2 21.9 4.5 5.1-4.1 6.8-11.3 6.4-17.8 0.3 0.3 0.7 0.4 1.1 0.1 3.2-1.8 6.4-3.4 9.6-5.1 0.3-0.2 0.6-0.3 1-0.5 0.1 0.6 0.2 1.1 0.3 1.7-0.3 1.6-0.1 3.3 0.5 4.9 0 0.4 0.1 0.9 0.1 1.4 0.4 8.1-0.4 16.4-2.4 24.2-3.9 15.1-12.7 29.7-27.1 36.8-7.8 3.9-16.4 5-25 4.2s-17.1-3.1-24.5-7.7c-6.7-4.1-11.9-10.3-15.7-17.4zm2.4 32.8c0-0.1 0.1-0.1 0.1-0.2 1.2 0.7 2.7 0.3 3.9-0.3 1.4-0.6 2.3-1.7 2.5-3.2 0.9-0.4 0.8-1.9-0.3-1.8-0.2-0.4-0.4-0.9-0.7-1.2-0.1-0.4-0.2-0.9-0.3-1.2-0.1-0.2-0.2-0.4-0.4-0.5 1.2-3.1 1.9-6.3 1.8-9.7 3.3 2.9 7 5.4 11.1 7.3 3.9 1.8 8 3.1 12.1 3.9 4.6 1 9.4 1.5 14.1 1.5 8.2-0.1 16.3-2.4 23.3-6.7 2-1.2 3.9-2.6 5.6-4.1 1.3 2.3 2.7 4.4 4.3 6.4-0.5 0.8-0.8 1.8-0.6 2.6 0.1 0.3 0.2 0.6 0.3 0.8-0.4-0.1-0.9-0.1-1.3-0.2h-1.3c-0.3-0.1-0.5-0.1-0.8 0.1-1.1 0.2-2.2 0.6-2.7 1.4-0.5 0.7-0.5 1.5-0.2 2.2-0.8-0.2-1.7-0.2-2.7 0-1.1 0.3-2.2 0.8-3.2 1.4-0.8 0.5-0.4 1.6 0.3 1.7-0.7 0.9-1.1 2-1.2 3.2-0.6-0.3-1.2-0.5-1.9-0.6h-0.3c-0.2-0.4-0.6-0.7-1.1-0.6-2.2 0.5-4.2 1.6-5.3 3.6-0.1 0.2-0.3 0.5-0.4 0.8-0.1-0.3-0.3-0.5-0.5-0.7-1.8-2.1-4.9-1-7.2 0.3-1.3 0.3-2.5 1-3.4 1.9-0.2-0.4-0.4-0.7-0.7-1-1.4-1.3-3.3-1.1-5.1-0.4-0.9 0.1-1.5 0.5-2.1 1h-0.1c-0.7 0.3-1.3 0.7-1.9 1.4-0.2 0.2-0.3 0.4-0.4 0.6-0.3-1.8-1.4-3.4-3.2-4.5-0.1-0.1-0.3-0.2-0.4-0.2-0.3-0.2-0.5-0.2-0.8-0.1h-0.1c-3-0.9-6.3 0.3-7.5 2.9 0-1.2-0.4-2.5-1-3.5-1.2-2.2-3.5-3.4-5.9-3.7-0.2 0-0.3-0.1-0.5 0h-0.4c-0.8 0-1.1 0.8-0.8 1.4-1.6 2.8-1.9 6.1 1 8.4 1.9 1.5 5.2 2.3 6.9 0l0.3-0.6v0.9c0.4 3.1 2.1 6.8 5.7 6.7 2.3 0 4.6-1.6 5.8-3.6 0 0.7 0.2 1.5 0.4 2.2 0.6 1.9 1.7 4.5 3.9 5 3 0.7 5.1-2.5 6.2-5.2 0.9 1.8 2.3 3.5 3.9 4.2 3.8 1.6 6.6-3.1 7.7-6l0.6-2.1c0 0.1 0.1 0.1 0.1 0.2 1.3 2.3 3.9 2.4 6 1.3 2-1 3.8-3.1 4.3-5.3 0.5 0.4 1.1 0.7 1.8 0.9 2.2 0.7 4.3-0.6 5.3-2.5 1-1.7 1.3-4.1 0.7-6 0.4 0.6 1 1 1.8 1.1 2.8 0.4 7.9-3.1 5-5.9 0.3 0 0.5-0.2 0.6-0.4 3.2 3.4 6.8 6.5 10.4 9.5-0.1 0.1-0.1 0.2-0.1 0.4-1.4 10-5.4 19.5-10.3 28.2-5.2 9.2-11.8 17.8-20 24.5-0.2 0.2-0.4 0.3-0.6 0.5-2.1-7.1-4.2-15.5-10.2-20.2-0.9-0.7-2.3 0.6-1.3 1.3 5.5 4.4 7.5 11.8 9.4 18.4-4.2-3.3-9-5.8-13.6-8.4-0.1 0-0.2-0.1-0.3-0.1-0.1-0.1-0.2-0.1-0.2-0.1-6.8-3.7-13.8-7.2-20.5-11.1-6.6-3.8-13.2-8-18.8-13.4-4.4-4.2-8.3-9.5-8.5-15.8 0-0.9 0-1.9 0.1-2.8 0-0.4-0.1-0.6-0.3-0.8 1.6-2.1 2.9-3.7 4.1-5.4zm72.9-3c-0.6-0.5-0.7-1.1 0.1-1.4-0.1 0.5-0.1 0.9-0.1 1.4zm-0.8 5.5c0 0.4-0.1 0.8-0.2 1.2-0.2 0.9-0.7 1.9-1.4 2.4l0.1-0.1c0.3-0.5 0.6-1 0.8-1.5 0.2-0.2 0.3-0.5 0.4-0.8s0.2-0.7 0.2-1c0 0 0-0.1 0.1-0.2zm-4.7-0.3c0.4-0.5 0.8-0.7 1.4-0.8v0.7c0 0.1-0.1 0.2-0.1 0.3s-0.1 0.1-0.1 0.2c0 0 0 0.1-0.1 0.1-0.3 0.4-0.7 0.8-1.1 1.2-0.2-0.6-0.1-1.2 0-1.7zm-0.1-2.9c0.5-0.2 1.1-0.4 1.7-0.5-0.1 0.1-0.1 0.2-0.1 0.3-0.5 0.1-1 0.2-1.4 0.4-0.1 0-0.2-0.1-0.2-0.2zm0.3 6.7c0.2 0.5 0.8 0.7 1.3 0.4 0.1 0 0.1-0.1 0.2-0.1 0.3 0.2 0.7 0.3 1 0.1-0.3 0.2-0.6 0.3-1 0.3-0.6 0-1.3-0.2-1.8-0.5 0.1-0.1 0.2-0.2 0.3-0.2zm-5 0h-0.1v-0.3h0.1v0.3zm-1.6 2.3c-0.1 0.5-0.3 1-0.6 1.3 0 0-0.2 0-0.3-0.1 0.3-0.4 0.6-0.8 0.9-1.2zm-1.5-3.7c-0.2 0-0.4 0.1-0.6 0.2 0.1-0.1 0.2-0.1 0.3-0.2h0.3zm-2 5.6c0 0.1 0 0.1 0.1 0.2 0 0.2 0 0.4-0.1 0.6-0.9-1-1.1-2.6-0.7-3.8 0.3-0.9 1-1.6 1.8-2.2-0.2 0.1-0.4 0.3-0.5 0.5-0.7 1-0.6 2.3-1.1 3.4-0.3 0.6 0 1.1 0.5 1.3zm-3.8-0.6c0 0.4 0 0.9-0.1 1.3-0.1-0.2-0.2-0.3-0.3-0.4 0.1-0.4 0.3-0.9 0.4-1.3v0.4zm-0.4 2.8c-0.1 0.4-0.3 0.8-0.4 1.2 0-0.4 0.2-0.8 0.4-1.2zm-0.5-5.7c-0.1 0.1-0.1 0.1 0 0-0.2 0.2-0.3 0.3-0.4 0.5-0.1-0.6-0.8-0.8-1.3-0.5v-0.1c0.5-0.1 1-0.1 1.4 0 0 0 0.2 0.1 0.3 0.1zm-3.1 10.9c-0.2 0.1-0.4 0.2-0.6 0.2-0.5 0.1-1 0-1.6-0.3-0.2-0.1-0.3-0.2-0.5-0.4 0.3 0 0.5 0 0.8-0.3 1-1 1.8-2.2 2.6-3.3-0.3 1-0.7 2.1-1.1 3.1-0.1 0.5 0.1 0.8 0.4 1zm-2.7-9l-0.1-0.1c0.2-0.2 0.5-0.3 0.7-0.5-0.2 0.3-0.4 0.4-0.6 0.6zm-0.8 7.8c-0.2-0.3-0.5-0.7-0.7-1 0-0.1-0.1-0.1-0.1-0.2 0.4 0.2 0.9 0.1 1.2-0.3 0-0.1 0.1-0.1 0.1-0.2-0.2 0.4-0.3 0.7-0.5 1.1v0.6zm-1.2-2.5c-0.1 0.1-0.1 0.2-0.1 0.3-0.1-0.3-0.3-0.6-0.4-0.8 0.3 0 0.7-0.2 0.8-0.4 0.1-0.1 0.2-0.3 0.3-0.4-0.1 0.4-0.4 0.9-0.6 1.3zm-8.9 3.7c-0.2-0.3-0.4-0.7-0.6-1.1 0.2-0.1 0.4-0.2 0.5-0.4 0.5-0.7 1.1-1.3 1.7-1.9-0.4 1-0.9 1.9-1.4 2.8-0.2 0.3-0.3 0.5-0.2 0.6zm1.7 0.4c0.1-0.1 0.1-0.2 0.2-0.2 0.1 0.3 0.4 0.6 0.7 0.7-0.1 0.1-0.2 0.1-0.3 0.2-0.4 0.2-0.9 0.2-1.3 0-0.2-0.1-0.3-0.2-0.5-0.3 0.5 0.1 0.9 0 1.2-0.4zm0.6-6.6c0.2-0.5 0.5-1.1 0.7-1.6 0 0 0-0.1 0.1-0.1 0.3 0.5 1.1 0.8 1.8 1-0.2 0.3-0.3 0.5-0.5 0.8-0.2-0.5-0.9-0.7-1.4-0.5-0.3 0.2-0.5 0.3-0.7 0.4zm1.4-3.1c0-0.1-0.1-0.2-0.2-0.2 0.1 0 0.3-0.1 0.4-0.1 0.2 0 0.3 0 0.5-0.1h0.5c0.4 0.1 0.6 0.2 0.7 0.3 0.4 0.3 0.6 0.6 0.7 1.1l-0.6-0.3h-0.1c-0.1-0.2-0.3-0.5-0.6-0.5-0.5-0.2-0.9-0.3-1.3-0.2zm-4.4 5.1c-0.2 0.4-0.4 0.8-0.7 1.1-0.1-0.4-0.2-0.9-0.2-1.3 0.3 0.2 0.6 0.3 0.9 0.2zm-5-5.6c0-0.3-0.2-0.5-0.4-0.6-0.2-0.2-0.4-0.5-0.6-0.7 1.3 0.8 2.2 1.9 2.4 3.2-0.5-0.6-0.9-1.2-1.4-1.9zm0.6 4.8s-0.1 0-0.1 0.1c-0.2 0.1-0.3 0.1-0.5 0.1h-0.7c0.3-0.5 0.5-1 0.6-1.5 0.2 0.3 0.4 0.7 0.5 1.1 0.1-0.1 0.2 0.1 0.2 0.2zm-6.3-4.2c0.2-0.6 0.6-1.3 1.1-1.6s1.2 0.1 1.7 0.7c-0.9 0.2-1.9 0.4-2.8 0.9zm1.1 1.4c-0.2 0.3-0.4 0.7-0.5 1.1-0.1-0.2-0.2-0.4-0.3-0.5l0.1-0.1c0.2-0.2 0.5-0.3 0.7-0.5zm-0.8 3.5c0.3 0.2 0.6 0.5 0.9 0.7s0.6 0.2 0.9 0.1c0.7 0.2 1.5 0.4 2.1 0.5h0.2c-0.5 0.3-1.1 0.5-1.7 0.6-2.1 0.4-3-1.3-3.7-3 0.4 0.4 0.8 0.8 1.3 1.1zm3.1-1.5c0.1-0.2 0.2-0.4 0.2-0.5 0.1-0.1 0.2-0.2 0.2-0.4-0.1 0.3-0.2 0.5-0.3 0.8l-0.1 0.1zm-10.5-8.4c0.4 0.3 0.8 0.7 1.1 1.2s0.7 1.1 0.9 1.7c-0.1-0.1-0.3-0.2-0.5-0.3s-0.5-0.3-0.7-0.4c-0.3-0.7-0.6-1.5-0.8-2.2zm0.2 6.2c-0.7 0-1.4-0.3-2-0.5 0.4-0.1 0.8-0.4 0.8-0.9v-0.3c0.5 0.5 0.9 1 1.2 1.7zm-3.3-1.6c-1-1.2-1.1-2.9-0.5-4.4 0 1.5-0.1 3 0.5 4.4zm-25.2 10.7c-0.4-1.6-0.8-3.2-1-4.9 0-0.3-0.2-0.5-0.4-0.6 2.2-2.1 4.4-4.3 6.5-6.5-0.1 2.2 0.2 4.3 0.7 6.3-0.2 0.1-0.4 0.2-0.5 0.4-1.4 2-3.3 3.9-5.3 5.3 0.1-0.1 0.1 0 0 0zm0.5 1.7c0.2 0 0.4 0 0.6-0.2 2.1-1.5 4-3.3 5.6-5.4 0.8 2.1 2 4 3.3 5.8-0.1 0.1-0.1 0.2-0.2 0.3h-0.4c-0.5 0-0.9 0.4-0.9 0.9 0 0.1 0 0.2 0.1 0.3-0.1 0-0.3 0.1-0.4 0.3-1.6 1.6-3 3.4-4.4 5.3-1.4-2.3-2.4-4.7-3.3-7.3zm9.8 16.7c-2-2.4-3.9-4.8-5.5-7.5 1.4-2 2.9-4 4.6-5.8 0.3-0.3 0.3-0.7 0.2-1 0.3 0 0.7 0 1-0.1s0.5-0.3 0.6-0.4c1.7 2.1 3.7 4 5.8 5.8l-0.1 0.1c-2.6 2.6-4.7 5.7-6.6 8.9zm4.3 4.5c-1-1-2-2-3-3.1 1.9-3.2 4-6.4 6.6-9 0.1-0.1 0.1-0.2 0.2-0.3 2.1 1.7 4.3 3.2 6.5 4.7-3 3.1-5.3 6.9-7.2 10.7-1-1-2.1-2-3.1-3zm12.5 10.3c-2.8-1.7-5.4-3.7-7.9-5.9 1.9-3.8 4.2-7.7 7.2-10.8 0.1-0.1 0.1-0.1 0.1-0.2 0.6 0.4 1.3 0.8 1.9 1.2 1.8 1.1 3.7 2.2 5.5 3.3-2.9 3.7-5.4 7.8-6.8 12.4zm10.4 4.7c-3-1.1-5.9-2.3-8.7-3.8 1.3-4.5 3.9-8.7 6.9-12.4 2.7 1.5 5.4 3 8.2 4.5-2.6 3.6-4.4 7.8-6.4 11.7zm4.9 1.6c-1-0.3-2.1-0.6-3.1-1 1.9-3.8 3.7-7.9 6.2-11.5 1.4 0.7 2.8 1.5 4.1 2.2 1.2 0.6 2.3 1.2 3.5 1.9-2.3 2.9-3.7 6.6-4.8 10.1-2-0.5-4-1.1-5.9-1.7zm17.6-3c0 2.8-0.5 5.5-0.6 8.3-3-1.1-6.1-2.1-9.3-3 1.1-3.4 2.4-7 4.7-9.7 2.2 1.2 4.3 2.4 6.4 3.6-0.5-0.2-1.2 0.1-1.2 0.8zm12.1 13.9c-0.6-2.6-0.9-5.2-1.4-7.8-0.2-1.2-2.1-0.7-1.8 0.5 0.5 2.3 0.7 4.7 1.2 6.9-2.8-1.8-5.7-3.3-8.8-4.5 0.1-3 0.6-6 0.6-9 0-0.3-0.1-0.5-0.3-0.7 1.9 1.2 3.8 2.4 5.6 3.7 0.9 0.6 1.7 1.3 2.5 2.1 0.3 0.3 0.8 0.4 1.1 0.1 2.3-1.7 4.5-3.5 6.5-5.5 1.1 1.8 2.1 3.8 3.6 5.3-2.9 3-5.9 5.9-8.8 8.9zm10.2-10.2c-1.5-1.5-2.4-3.6-3.5-5.4 2.1-2.1 4-4.3 5.9-6.6l0.3 0.3c1.3 0.7 2.3 1.8 3.4 2.7 0.3 0.2 0.9 0.8 1.6 1.1-2.6 2.7-5.1 5.3-7.7 7.9zm7.3-8.9c0.1-0.5 0.4-0.6 0.6-0.7-0.3 0-0.6 0.3-0.6 0.7zm8.1-7.5c-2.1 2.4-4.3 4.8-6.4 7.2-0.2-0.2-0.4-0.4-0.7-0.4-0.2-0.1-0.3-0.3-0.5-0.4-0.5-0.4-1-0.8-1.4-1.2-0.8-0.7-1.7-1.5-2.7-2.1-0.1 0-0.1-0.1-0.2-0.1 2-2.6 3.8-5.3 5.6-8.1 2.5 1.1 4.8 2.7 7.2 4.2-0.4 0.3-0.7 0.6-0.9 0.9zm2-2.3c-2.4-1.5-4.8-3.1-7.4-4.3 1.5-2.6 3-5.2 4.3-7.9 2.9 1.7 5.6 3.7 8.4 5.4-1.7 2.3-3.5 4.6-5.3 6.8zm6.4-8.4c-3-1.8-5.8-3.8-8.7-5.6 0.9-2 1.8-4 2.6-6.1 0 0 0.1 0 0.1 0.1 2.7 2 6 3.6 7.8 6.6 0.3 0.5 0.8 0.5 1.2 0.4-1 1.6-1.9 3.1-3 4.6zm3.8-6.2c-0.1 0.2-0.2 0.3-0.3 0.5 0-0.1-0.1-0.2-0.1-0.3-2-3.3-5.5-5-8.5-7.2-0.1-0.1-0.3-0.2-0.4-0.2 0.6-1.8 1.2-3.5 1.7-5.3 0.1 0.1 0.3 0.3 0.5 0.3 3.3 0.7 6 3.1 8.4 5.4 0.4 0.4 0.8 0.3 1.2 0.1-0.4 2.4-1.6 4.9-2.5 6.7zm-6.6-14c-0.2-0.1-0.5 0-0.6 0.1l0.6-2.7 0.6-3.3c0.4 0.3 0.8 0.6 1.1 0.9 2.3 1.9 4.7 3.7 6.9 5.6-0.7-0.1-1.4 0.9-0.8 1.6 0.9 1 1.3 2.3 1.3 3.6-2.5-2.5-5.5-5-9.1-5.8z"/>
		<path class="st1" d="m387.4 310.6c-0.1 1.4 0.1 7.2-0.8 8-0.4 0.4-1.8-0.7-2.5-1.2-4.1-3.3-8.1-7-12.2-10.3-1.4-1.1-3.6-3.7-5-4.1-1.3-0.3-3.5 0-5.3 0-8.8 0-17.8-0.3-26.2-0.3-3.5 0-7.3 0.3-10.5-0.2-4.1-0.6-8.4-4.2-9.4-8.3-0.9-3.7-0.2-9.6-0.3-13.9-0.2-4.3-0.6-10.2 0-14.2s5.9-9.5 9.7-10.2c2.4-0.4 5.6-0.2 8.4-0.2 20.1 0 41.1 0.1 60.6-0.3 0.9 0 2.4 0.7 3.1 1.1 5.4 3 6.6 9.8 6.4 19.2-0.2 6.1 0.6 14.1-0.9 18-2.5 6.3-7.4 8.2-14.7 8.7 0 2.4-0.2 5.3-0.4 8.2z"/>
		<path class="st5" d="m384.9 315.2c0.1-2 0.5-4.8 0.8-7.7 0.2-2-0.1-6.4 1.1-7.3 0.8-0.6 3.3-0.2 4.8-0.5 4.2-0.7 7.8-3.8 8.9-7.5 0.6-1.9 0.4-5 0.5-7.8 0.4-10.8 1.5-23.7-6.1-26.7-0.2-0.1-0.4-0.2-0.6-0.2-21.6 0-46.1 1.1-69 0.8-3 1.7-6.6 3.5-7.5 7.3-0.4 1.7-0.2 4.2-0.2 6.4 0 6.3-0.3 14-0.3 20.3 1 2.9 4.2 7 7.7 7.7 3 0.5 7 0.1 10.9 0.3 7.3 0.3 14.5 0.3 21.9 0.5 1.8 0 3.6 0.1 5.5 0.2 1.8 0 4-0.2 5.3 0.2 1.2 0.3 2.9 2.5 4.2 3.6 4 3.5 8 7.2 12.1 10.4z"/>
		<path class="st1" d="m348.7 270.4c0 0.7 0.8 0.7 1.3 0.5 0.3-1.2-1.3-1.5-1.3-0.5z"/>
		<path class="st1" d="m356.2 270.3v0.8c0.3 0.1 0.4 0.4 0.9 0.3 0.8-0.6-0.1-1.8-0.9-1.1z"/>
		<path class="st1" d="m383 272c0.5 0.3 1.2 0.1 1.4-0.3 0.1-1.3-1.7-1-1.4 0.3z"/>
		<path class="st1" d="m368.1 270.9c-0.5 0.9 0.7 1.4 1.3 0.8 0.2-0.9-0.6-1.1-1.3-0.8z"/>
		<path class="st1" d="m364.3 271.5c0.4-0.1 0.3 0.3 0.8 0.2 1.1-0.8-1.1-1.8-0.8-0.2z"/>
		<path class="st1" d="m376 271.1c-0.1 0.6 0.1 1.1 0.6 1.1 0.4 0.1 0.3-0.3 0.6-0.3 0.2-0.9-0.7-1.2-1.2-0.8z"/>
		<path class="st1" d="m361.3 272c2.1 1.3 0.5-2.5 0 0z"/>
		<path class="st1" d="m353.6 271.7c-0.4 0.7 0.3 1.3 0.9 0.9 0.2-0.2 0.2-0.6 0.2-0.9-0.2-0.2-0.9-0.2-1.1 0z"/>
		<path class="st1" d="m349.6 277.5c-0.2 0.4-0.5 0.6-0.5 0.9-0.1 2.9 4.7-1 0.5-0.9z"/>
		<path class="st1" d="m358 278.1c-1 0.8-0.1 2.6 1.2 1.9 0.7-0.8 0.3-2.3-1.2-1.9z"/>
		<path class="st1" d="m377.4 279.2c-0.9 1.8 1.5 2.3 1.9 1.1 0.2-0.9-0.9-1.9-1.9-1.1z"/>
		<path class="st1" d="m367.1 279.1c-0.3 1.1 0.9 1.4 1.4 0.8 0-0.9-0.8-1.2-1.4-0.8z"/>
		<path class="st1" d="m384.6 279.7v0.8c1.5 1.1 1.7-2 0-0.8z"/>
		<path class="st1" d="m328.7 282.5c1.7-0.7-1-3.3-1.6-1.4-0.1 0.5 0.1 1.5 1.6 1.4z"/>
		<path class="st1" d="m440.4 254.6c14.9-1.2 22.8 6 27.2 15.9 2.9 6.6 4.1 14.3 1.1 21.3-2.1 4.8-6.4 9.2-10.5 11.8-9.4 5.9-23.3 4.8-31.8-1.3-4.2-3-7.9-8.2-9.9-13.3-2.1-5.4-1.7-11.5 0.3-17 1.9-5.2 4.9-9.8 9.5-12.9 3.4-2.3 8.4-4.1 14.1-4.5z"/>
		<path class="st5" d="m426.9 261.1c-5.2 3.7-10 11.3-10 19.7 0 8.5 5.1 15 9.6 18.9 1.5 1.3 3.1 2.1 4.9 3 13.8 7.1 30.1-0.3 35.2-11.7 4.2-9.4 0-21.5-4.9-26.7-0.9-0.9-1.5-2-2.4-2.8-4.1-3.4-10.9-5.7-19.5-5-4.9 0.6-9.7 2.4-12.9 4.6z"/>
		<path class="st1" d="m119.6 225.2c1.6-0.4 2.5 0.2 2.7 0.6 2.2 3.3-4.5 5.7-4.6 1.6-0.1-1.3 0.8-1.9 1.9-2.2zm0 2.4c0.4 0.3 1.2 0.1 1-0.6-0.6-0.1-0.7 0.3-1 0.6z"/>
		<path class="st1" d="m105.3 242c1.7-0.3 2.6 0.7 2.8 1.5 1 3.9-4.5 4.3-5.1 1.6-0.4-1.9 0.9-2.8 2.3-3.1zm-0.3 2.9c0.5 0.2 1.4 0.3 1.4-0.4-0.4-1.1-1.3-0.4-1.4 0.4z"/>
		<path class="st1" d="m127.9 247.4c1.8 5.5-6.5 4.6-4.8 0.1 0.6-1.6 3.7-1.6 4.8-0.1zm-3 2c0.4 0.2 0.8 0.2 1.2 0-0.1-0.4 0.2-0.4 0.1-0.7-0.4-0.6-1.7-0.5-1.3 0.7z"/>
		<path class="st1" d="m103.2 259.2c-0.1 0.7-0.4 1.2-0.9 1.2-1.9 0.1-0.4-3.1 0.9-1.2z"/>
		<path class="st1" d="m126.5 263.4c2.4-0.5 3.9 0.7 4.2 2.1 1 5-6.8 5.6-6.9 1 0-1.8 1.2-2.7 2.7-3.1zm-0.6 3.8c0.9 1.2 3 0.7 2.8-1-0.6-1.5-3-0.7-2.8 1z"/>
		<path class="st1" d="m76.2 266.9c2.2-0.5 3.2 0.8 3.3 2.4 0.1 3.4-5.2 3.7-5.7 0.9-0.3-2 1-3 2.4-3.3zm-0.3 3.1c0.7 0.4 1.7 0.1 1.7-0.7-0.1 0-0.2-0.1-0.2-0.3-0.8-0.5-1.5 0.3-1.5 1z"/>
		<path class="st6" d="m448.5 275c1.9 0.2 3.6 0.4 5.8 0.7 1.4 0.2 4.9 0.1 5.2 1.3 0.3 1.3-2.8 3.6-3.4 4.2-1.4 1.4-2.6 2.4-3.7 3.7 0.3 1.7 0.4 3.7 0.6 5.7 0.2 1.8 1 3.9 0.1 5.2-1.9-0.1-3.6-1.2-5.2-1.9-1.7-0.8-3.3-1.6-5-2.4-1.8 0.7-3.3 1.7-5 2.5-1.6 0.8-3.2 1.8-5.2 2.2-0.9-1.9-0.2-3.8 0.1-5.4 0.1-0.7 0.3-1.7 0.5-2.8 0.1-0.7 0.5-2.1 0.4-2.8-0.1-0.6-1.3-1.6-1.9-2.2-1.5-1.5-2.5-2.4-4.2-4-0.6-0.6-1.9-1.5-1.7-2.4 0.3-1.2 4.2-1.1 5.6-1.2 2.2-0.2 4.1-0.5 6-0.7 0.7-1.2 1.6-2.8 2.4-4.5 0.6-1.3 1.9-4.6 3-4.6 1.4 0 2.4 3.2 3 4.5 1.1 2.1 1.9 3.4 2.6 4.9zm-8.4-2.1c0.3 0.2 0.5-0.4 0.7-0.7 0.9-1 2.1-2.2 2.7-3.3-0.3-0.2-0.2-0.7-0.6-0.8-0.9 1.6-1.7 3.3-2.8 4.8zm-6.4 9.8c0.3 0.5 0.6 1.1 1.2 1.3 3.2-4.3 6.9-8.1 10-12.5-0.3-0.5-0.5-1.2-1-1.6-3.3 4.4-6.7 8.7-10.2 12.8zm1.5 2.7c0 1.3-0.5 2.8-0.4 3.9 3.8-5 8-9.7 11.7-14.9-0.4-0.5-0.5-1.3-1.1-1.7-3.3 4.3-6.7 8.6-10.2 12.7zm-0.9 6.3c0.1 0.9-0.4 1.7-0.1 2.4 1.5-1 2.6-2.7 3.7-4.1 3.6-4.5 6.9-9.1 10.3-13.7-0.8 0.1-0.7-0.7-1.2-0.8-4.2 5.4-8.4 10.9-12.7 16.2zm-2.6-10.8c0.5 0.3 0.7 0.8 1.2 1.1 1.5-2 3.2-3.8 4.7-5.8-3.5 0.1-4 3.1-5.9 4.7zm17.7-4.3c-4 5.3-8 10.5-11.9 15.8 1.1-0.4 2.1-1 3.3-1.5 3.2-5 7-9.3 10.3-14.1-0.6 0-1.1-0.2-1.7-0.2zm-19.3 2.5c0.2 0.5 0.5 0.8 1 1 0.3-0.6 1-1.1 1.6-1.7 0.5-0.5 1.2-1.3 1.1-1.7-2.1-0.1-2.5 1.6-3.7 2.4zm22.3-2.1c-3.2 4.3-6.4 8.6-9.4 13.1 0.7 0.1 1.1 0.5 1.7 0.6 3.1-4.5 6.4-8.9 9.4-13.4-0.7 0-1.1-0.2-1.7-0.3zm-24 0.4c0.2 0.5 0.6 0.9 1.1 1.1 0.3-0.5 0.8-0.9 1.1-1.3-0.8 0-1.4 0.2-2.2 0.2zm17.3 13.8c0.5 0.3 1.1 0.5 1.6 0.7 0.6-1 1.1-1.9 1.8-2.9 0.6-0.9 1.7-1.8 1.9-2.9 0.1-0.5-0.2-1.2 0-1.7 0.4-1.1 2.3-2.5 3.1-3.4 0.6-0.6 1.1-1.1 1.6-1.7s1.3-1.1 1.2-1.6c-0.6-0.1-1-0.2-1.7-0.2-3.3 4.4-6.3 9.1-9.5 13.7zm2.5 1.2c0.5 0.1 0.8 0.4 1.3 0.5 0.5-1.6 2.5-2.9 1.4-5-0.7 1.6-1.8 2.9-2.7 4.5zm2.3 1c0.5 0.1 0.8 0.4 1.2 0.5-0.2-0.7 0-1.8-0.4-2.4-0.1 0.7-0.7 1-0.8 1.9z"/>
</svg>
