<?xml version="1.0" encoding="UTF-8" standalone="no"?>
<!-- Generator: Adobe Illustrator 21.0.0, SVG Export Plug-In . SVG Version: 6.00 Build 0)  -->
<svg id="Layer_1" style="enable-background:new 0 0 559 520" xmlns="http://www.w3.org/2000/svg" xml:space="preserve" viewBox="0 0 559 520" version="1.1" y="0px" x="0px" xmlns:xlink="http://www.w3.org/1999/xlink">
<style type="text/css">
	.st0{fill:#CFEBF6;}
	.st1{fill-rule:evenodd;clip-rule:evenodd;}
	.st2{fill-rule:evenodd;clip-rule:evenodd;fill:#FFFFFF;}
</style>
<path class="st0" d="m425.8 352.2m-142.9 28.6c0.9 0.3 1.7 0.5 2.6 0.8 39 11.6 79.8 12.4 119.3-4.8 6.7-2.9 13.6-6.5 19.6-13.5 4.9-5.7 9.2-14.2 11.3-24 13.9-20.5 25.3-47.7 26.8-79 1.8-38.5-12.4-72.5-30.4-88.8-9.9-8.9-20.8-13.6-31.7-18.1-36.1-14.8-72.4-28.2-108.9-40.1-3.5-1.2-7.1-2.3-10.6-3.4-24.4-7.5-49.1-13.3-74.1-9.1-10.8 1.8-21.7 5.4-32.4 4.2-8.7-1-17.2-5.2-26-4.1-7.5 1-14.9 5.8-21.8 12.1-8.4 7.7-16.4 17.8-22.3 31.6-5.8 13.8-9.2 31.7-7.6 48.2 1.5 15.9 7.4 28.6 9.8 44 1.5 9.7 1.7 20.5 4.5 29.1 2.8 9.1 8 14.5 13.1 19.2 15.5 14.5 31.8 26.4 48.1 37.6 35.9 24.5 72.6 46.3 110.7 58.1"/>
	<path class="st1" d="m165.4 325.6c-8.8-0.2-16.7-0.5-18.9-7.5-0.9-2.9-0.3-8-0.3-12.4 0-8.8 0.2-16.6 0.2-25.1 0-4.3-0.3-8.7 0.3-12.3 0.8-4.3 4.6-7.9 8.6-8.4 2.7-0.3 5.7 0.1 8.4 0.2 19.2 0.5 39.7 0.2 58.7 0.2 16.2 0 33.8-0.3 50.3 0.3 5.5 0.2 12-0.7 16.3 0.5 3 0.9 5.1 3.5 6 6.5 0.4 1.5 0 4.3 0 6.5v33.8c0 8.1 0.4 15.4-6 17.4-3.3 1-7.9 0-11.9 0.2-26.2 1.2-55.1 0.3-82.7 0.3-2 0-4.9-0.5-6.3 0-1 0.3-2.5 3.4-3.2 4.6-2.2 3.7-3.3 5.9-5.6 9.8-0.6 1.1-2 4.5-3.2 4.6-1.4 0.1-2.5-3.1-3.2-4.4-2.5-5.3-4.7-10-7.5-14.8z"/>
	<path class="st2" d="m275.7 323.1c3.4 0 10 0.6 12.4-0.4 2-0.7 2.7-3.3 4-5.1-0.2-11.8 0.5-25.9 0.5-38 0-7.6 1.5-15.1-4.6-16.7-40.3 0.1-84-0.3-125.1-0.3-2.9 0-6.1-0.4-8.4 0-7.2 1.3-5.9 11.5-5.8 19.6 0.2 7.5 0 15.5 0 23.5 0 4.1-0.5 9 0.2 11.6 0.6 2.1 2.9 4.5 5.1 5.1 3.7 1.1 8.1 0.1 12.4 1.2 3.8 5.1 6.2 11.5 9.6 16.8 2.6-4.4 5.3-8.8 7.9-13 0.9-1.5 1.7-2.9 2.6-4.4 28.7 0 60 0.1 89.2 0.1z"/>
	<path class="st1" d="m172.7 212.7c0.6 2.4-2.7 2.4-2.3 0.2 0.5-0.8 1.5-0.9 2.3-0.2z"/>
	<path class="st1" d="m145.9 182.6c5.8-1.5 5.6 7.4 1 7.3-3.7-0.1-5.1-6.2-1-7.3zm1.7 4.6c0.6-0.7 0.3-1.5-0.2-2.1-2.1-0.2-1.1 2.1 0.2 2.1z"/>
		<path d="m171.1 186.2h11.4c2 0 2-3.2 0-3.2h-11.4c-2 0-2 3.2 0 3.2z"/>
		<path d="m175 177.6v14.4c0 2 3.2 2 3.2 0v-14.4c0-2.1-3.2-2.1-3.2 0z"/>
	<path class="st1" d="m441.8 246.6c0.6 2.4-2.7 2.4-2.3 0.2 0.6-0.8 1.6-0.9 2.3-0.2z"/>
	<path class="st1" d="m415.1 216.5c5.8-1.5 5.6 7.4 1 7.3-3.8-0.1-5.1-6.2-1-7.3zm1.6 4.6c0.6-0.7 0.3-1.5-0.2-2.1-2-0.2-1 2.1 0.2 2.1z"/>
		<path d="m440.3 220.1h11.4c2 0 2-3.2 0-3.2h-11.4c-2.1 0.1-2.1 3.2 0 3.2z"/>
		<path d="m444.1 211.5v14.4c0 2 3.2 2 3.2 0v-14.4c0-2.1-3.2-2.1-3.2 0z"/>
	<path class="st1" d="m292.9 128.5c48.1-3.8 73.5 19.4 87.8 51.3 9.5 21.2 13.2 46.1 3.4 68.8-6.7 15.5-20.5 29.8-34 38.2-30.3 19-75.1 15.6-102.7-4.2-13.6-9.8-25.5-26.4-31.8-42.9-6.8-17.6-5.5-37.3 0.8-54.7 6.1-16.8 15.8-31.6 30.5-41.6 11.6-7.7 27.6-13.4 46-14.9z"/>
	<path class="st2" d="m249.6 149.7c-16.7 11.8-32.4 36.4-32.3 63.7s16.4 48.4 31 61.1c4.7 4.1 10.1 6.9 15.7 9.8 44.7 23 97.1-0.9 113.7-37.8 13.6-30.2 0.1-69.4-15.7-86.2-2.9-3-4.9-6.6-7.6-8.9-13.3-11.1-35.3-18.5-62.8-16.1-16.2 1.4-31.8 7.3-42 14.4z"/>
	<path class="st1" d="m297.1 214.9c12.5-12.4 27.2-26.9 40.5-40.3 1.6-1.6 5.1-6.3 7.1-5.7s4 3.5 5.7 5.2l10.9 10.9c1.4 1.4 5.1 4 5.2 5.7 0.1 1.3-2.5 3.6-3.9 5-4.4 4.7-8.7 9.5-12.7 13.9-14.5 15.8-28.5 29.4-43.2 45.5-1.2 1.3-2.7 2.7-4.3 4.6-0.9 1-3.2 4.3-4.6 4.3-1.9 0.1-4.9-4.1-6.6-5.7-13.2-12-25-23.2-37.8-35.7-1.4-1.4-5.8-4.5-5.9-6.1-0.2-1.7 4.5-5.9 5.2-6.6 4.2-4.4 7.4-7.6 11.6-12.1 1.6-1.7 3.8-5.3 6.1-5.5 2.4-0.1 5.4 3.3 7.3 5 6.8 6.2 12.7 11.6 19.4 17.6zm46.9-43c-10.6 11.9-22.6 23.2-33.7 35.1-5.4 5.8-11.5 11-16.8 16.8-4.7 5.2-9.6 10.4-14.1 15.5-0.4 0.5-1.9 1.3-1.1 2.3 1.9-0.4 3.1-2.4 4.3-3.6 4.3-4.4 8.2-8.9 12.5-13.2 16.4-16.4 32.4-33.9 48.5-50.3 0.5-0.5 1.9-1.3 1.1-2.3-0.3-0.1-0.3-0.4-0.7-0.3zm2.5 2.2c-20.3 20.6-41.5 44.8-61.9 66-1.2 1.3-3.8 2.8-3.2 4.5 1.1 0.5 1.7-0.8 2.3-1.4 21.8-22.3 42.8-45.6 64.2-68.1-0.6-0.1-0.8-0.7-1.4-1zm2.5 2.8c-10.8 11.7-21.7 23.8-32.8 35.7-9.5 10.2-19.3 20.4-28.4 30.5-1.2 1.3-3.5 3.2-3 4.8 1.2 0.5 1.5-1 2-1.6 19.8-21.2 39.8-43 59.4-64.2 1.3-1.4 3.3-3.1 3.4-4.8-0.2 0-0.3-0.4-0.6-0.4zm2.3 2.2c-19.3 21.9-40.6 45.1-60.3 67.2-0.9 1-3.7 3.8-3 4.6 1 1 2.1-1.2 2-1.1 21.6-22.6 42.1-46.3 63.1-68.7-0.9-0.5-1-1.6-1.8-2zm3.2 3.4c-21.3 23.6-42.7 47-63.5 71 22.2-22.7 43.8-45.8 65.3-69.2-0.6-0.6-1.1-1.3-1.8-1.8zm2.9 3.5c-20.6 22.9-41.6 45.3-62.4 68.1-0.3 0.9-2.2 1.4-1.1 2.3 1.1 0.8 1.6-0.7 2-1.1 21.6-21.9 42.8-44.9 64-66.9-0.8-1-1.3-2-2.5-2.4zm3.9 3.8c-11 11.2-21.6 23.4-32.8 35-9.5 9.9-18.9 20.2-28 30-1.2 1.3-3.6 2.6-3.2 4.3 1.1 0.7 1.4-0.9 1.8-1.4 4.7-5.1 9.6-10.1 14.3-15 16.5-17.2 33.3-34.6 49.4-51.7-0.6-0.1-0.8-0.8-1.5-1.2zm-90.2 5.7c-5.3 5.1-10.3 10.9-15 16.4-1.5 1.7-3.7 3.2-4.3 5.5 1.3 0.2 2-1.3 2.7-2 2.6-2.8 5.1-5.5 7.7-8.2 3.5-3.7 7.1-7.5 9.8-11.1-0.6 0-0.4-0.6-0.9-0.6zm2.3 2.1c-4.9 5.4-10 11.3-14.8 16.6-1.6 1.7-3.9 3.1-4.3 5.5 1.2 0.8 2.1-0.9 2.7-1.6 5.9-6.4 12.1-13.1 17.5-19.6-0.5-0.2-0.5-0.8-1.1-0.9zm2.3 2.5c-5.3 6.2-11.8 13.5-17.3 19.6-0.6 0.7-2.4 1.9-0.9 3 3.7-3.2 6.8-7.1 10-10.7 3.3-3.6 6.6-7.2 9.6-11.2-0.6-0.2-0.5-0.9-1.4-0.7zm2.5 2.2c-5.2 6.6-11.3 13.2-16.6 19.3-0.7 0.8-1.9 1.8-1.8 3 1.3 0.5 2.1-1.2 2.7-1.8 5.9-6.4 12.1-12.7 17.5-19.1-0.5-0.5-1-1.1-1.8-1.4zm3.2 2.8c-5.4 6.2-12.2 13.5-17.8 19.8-0.4 0.5-2.6 1.9-0.5 2.5 2-1.1 3.2-3.3 4.8-5 4.9-5.4 10.1-10.6 14.6-16.2-0.2-0.5-0.6-0.8-1.1-1.1zm-13.4 23c4.4-4.7 8-8.8 12.5-13.7 1.6-1.7 6.9-6 3.4-6.8-4.8 5.5-9.8 11.3-14.6 16.6-1.5 1.7-3.4 3.3-4.1 5.5 1.2 0.8 2.1-1 2.8-1.6zm18.6-17.8c-4.8 5.4-9.9 11.1-14.6 16.4-1.5 1.7-3.9 3.4-4.1 5.5 1.2 0.7 2.1-0.9 2.7-1.6 5.8-6.4 12-13.1 17.3-19.6-0.5-0.1-0.6-0.7-1.3-0.7zm2.8 2.3c-6.2 7.4-13 14.1-18.9 21.9 1.4 1.4 2-0.4 2.7-1.1 5.9-6.4 12.2-13.2 17.3-19.8-0.5-0.2-0.6-0.8-1.1-1zm2.2 2.5c-2.8 4-6.3 7.4-9.6 11.2-3.1 3.6-6.2 7.2-8.7 10.9 3.7-2.5 6.7-6.6 10-10.2s7-7 10-10.7c-0.6-0.3-0.6-1.3-1.7-1.2zm3 2.5c-6 7.5-13.6 14.3-18.9 21.6 2.1-0.9 3.4-3.1 5-4.8 5.2-5.3 10.4-10.6 15-16.2-0.5 0-0.4-0.7-1.1-0.6z"/>
	<path class="st1" d="m408.9 254.9c6.5-1.6 5.2 6.8 0.6 6.6-3.5-0.1-5.1-5.5-0.6-6.6zm-0.2 3.1c0.1 1.4 2.2 1.2 2.1-0.4-0.8-0.6-1.6 0.2-2.1 0.4z"/>
	<path class="st1" d="m359.1 306.4c4.2-0.4 6.7 1.7 7.3 4.6 0.8 4.2-2.1 7.7-5.4 8.1-3.8 0.4-9.3-2.3-8.1-8.1 0.5-2.2 3-4.3 6.2-4.6zm4.4 5.4c-0.7-3.9-7.7-2.5-8.1 1.2 1 4.6 9.1 4.1 8.1-1.2z"/>
	<path class="st1" d="m393.7 294.5c5.7-0.5 4.3 7.6 0 7.7-4.8 0.1-5.2-7.2 0-7.7zm-0.4 5.2c1.1-0.3 1.8-0.9 1.7-2.3-1.6-0.9-3.1 1.3-1.7 2.3z"/>
	<path class="st1" d="m325.1 312.8c3.7-0.4 5.1 1.5 5.4 3.5 1.1 7.8-12 6.6-9.7-0.8 0.4-1.3 1.8-2.4 4.3-2.7zm-1.9 4.7c0.2 2.2 4.9 1.9 4.6-0.6-0.1-1-0.7-1.4-2.3-1.2-1.3 0.1-2.4 0.4-2.3 1.8z"/>
	<path class="st1" d="m184.3 111.6c2.9-0.7 6.3 0.8 6.8 3.1 1.7 7.4-11 8.2-10.8 1.2 0.1-2.3 1.7-3.8 4-4.3zm4.1 4.3c-0.2-2.4-5.6-2.3-5.2 1.2 1.4 1.8 5.4 1.1 5.2-1.2z"/>
	<path class="st1" d="m220.6 127.8c2.2-3.8 9.2-3.4 10.6 0.6 1 3.1-1.1 6.5-3.9 7.1-5 0.8-6.9-3-6.7-7.7zm2.7 1.6c-1.2 3.6 6 4.8 5.2 0.4-0.3-1.5-1.8-1.9-3.5-1.5-1 0.3-1.6 0.6-1.7 1.1z"/>
	<path class="st1" d="m165.2 140.8c10-2 12.7 12.1 3.1 14.3-5.9 1.3-11.7-4.7-8.5-10.8 0.9-1.6 3-3 5.4-3.5zm-1.7 4.2c-0.7 0.6-1.9 1.8-2.1 2.9-0.3 2.3 2.1 4.2 3.7 4.6 6.9 1.4 8.5-9.9 0.8-8.5-0.7 0.1-1.7 0.4-2.4 1z"/>
	<path class="st1" d="m205.4 139.8c2.5-0.6 3.5 0.5 3.7 1.9 0.7 4.3-6.1 5.2-6.2 1 0-1.9 0.9-2.5 2.5-2.9z"/>
</svg>
