<?xml version="1.0" encoding="UTF-8" standalone="no"?>
<!-- Generator: Adobe Illustrator 21.0.0, SVG Export Plug-In . SVG Version: 6.00 Build 0)  -->
<svg id="Layer_1" style="enable-background:new 0 0 559 520" xmlns="http://www.w3.org/2000/svg" xml:space="preserve" viewBox="0 0 559 520" version="1.1" y="0px" x="0px" xmlns:xlink="http://www.w3.org/1999/xlink">
<style type="text/css">
	.st0{fill:#CFEBF6;}
	.st1{fill-rule:evenodd;clip-rule:evenodd;}
	.st2{fill-rule:evenodd;clip-rule:evenodd;fill:#FFFFFF;}
</style>
<path class="st0" d="m62.1 235.6m121-119.5c-1 0.2-1.9 0.5-2.9 0.8-43.9 11.9-83.3 36.3-111.6 79.4-4.8 7.3-9.4 15.4-11.2 26.6-1.5 9.2-0.9 20.9 2.5 32.7-1.9 30.6 2.3 66.8 18.3 101.3 19.7 42.3 52.2 69.9 78.5 76.2 14.4 3.4 27.5 1.6 40.4-0.4 42.8-6.6 85.1-14.8 126.7-24.8 4-1 8.1-2 12.1-3 27.5-7.1 54.4-16.3 76-36.3 9.4-8.6 17.8-19.3 28.7-24.6 8.9-4.3 19.4-5.1 27.2-11.8 6.6-5.7 11-15.5 14.1-26.5 3.8-13.4 5.9-29.2 3.8-47.7-2.1-18.4-8.8-39.7-19.5-56.3-10.3-16-23-26-33.9-41-6.9-9.4-13.1-20.8-20.5-28.4-7.8-8-15.8-10.5-23.2-12.4-22.9-5.9-45.1-8.5-67-10.4-48.1-4-95.4-4.4-138.5 6.6"/>
		<path class="st1" d="m310.7 120.9c2.5 4.7 3.2 10 4.6 15.1 9.5 35.6 19.8 71.8 28.4 108.5 4.9-2.4 10.5-0.9 16.1 0.7 3.5 1 7 1.7 9.6 2.8 1.4 0.6 2.3 1.8 3.5 2.4 3.7 1.7 8.8 2.3 13.3 3.5 12.8 3.3 26.8 7.3 39.3 10.7 12.6 3.5 25.9 7.1 38.6 11.3 4 1.3 9.9 3 11.3 5.2 0.6 1 1.3 4.2 0.9 6.3-0.5 2.3-5.2 5.9-7.4 8.1-28.5 27.9-57.7 55.9-86.2 83.8-5 4.9-10.3 10-15.9 15.1-5.2 4.7-10.1 11.5-15.7 15.1-1.9 1.2-4.4 2.4-7.4 2.2-2.3-0.2-5.3-2.3-8.1-3.7-36.3-18.3-71.4-36.1-107.2-55.2-2.7-1.4-5.7-3.4-7.6-3.9-2.8-0.7-5.8 0-8.3-0.4-4.1-0.7-8-3.8-11.1-5.7-5.1-3.1-9.7-6.3-10.9-13.5-6.1 3.3-7.3-5-9-10.5-15.2-49.7-29.4-99.5-44.1-149.5-1.1-3.8-2.4-7.5-3.5-11.3-1-3.6-3.1-7.7-2-11.6 3.2-1.6 6.9-1.6 10.5-2.2 24.8-3.8 50.9-7.3 76.6-10.9 29.4-4.1 59.1-8.6 88-12.2 0.7-0.3 2.4-0.6 3.7-0.2z"/>
		<path class="st2" d="m134.7 147.8c16.5 57.7 34.3 116.3 50.6 174.6 0.5 1.6 0.6 4.1 2.6 4.8 2.7-0.5 1.6-3.9 1.7-6.1 5.6-4 12.1-7 18.3-10 44.4-22 89.3-43.8 133.8-65.5-3.3-9.4-6-19.4-8.7-29.5-8.5-30.6-16.2-61.6-24.4-91.9 0-0.1 0-0.3-0.2-0.2-57.8 8-115 16.6-173.7 23.8z"/>
		<path class="st2" d="m348.9 245.8c-0.2 0-0.6 0.1-0.9 0.2-3.1 1.3-6.3 3.2-9.4 4.8-47.5 23.9-97.3 47.4-144.7 70.5 7.4 3.8 15.7 6.7 22.3 11.3 49.2-28.3 100.4-54.6 149.9-82.5-5.1-0.7-11.5-4.7-17.2-4.3z"/>
		<path class="st2" d="m218.1 334.6c11.3 4.6 22.1 10.2 33 15.3 32.9 15.4 64.5 32.4 97.3 47.8 16.6-16.1 34.4-32.8 51.3-49.3-10.3-3.9-20.5-8.7-30.3-12.9-3.3-1.4-7.2-2.2-9.8-4.8 2.1-3.3 5.5-5.5 8.5-7.9 6.2-4.9 12.1-9.3 18.6-14.2 2-1.5 6.9-6.7 9.6-6.8 1.9-0.1 6.2 2.2 8.7 3.1 8.9 3 19.2 6 26.6 8.9 1 0.4 1.9 0.2 2.4 2 11.3-10.4 23.3-21.5 34.3-32.1 0.7-0.6 2-1.7 1.5-2.2-7.8-2.9-16.3-5.8-24.2-8.5-3.8-1.3-7.5-3.1-11.1-2.4-20.9-5.8-41.6-11.8-62.4-17.7-0.5-0.4-1.1-0.8-1.7-1.1-50.7 27.8-101.4 55.4-152.3 82.8z"/>
		<path class="st2" d="m442.1 313.2c-27.7 26.7-55.8 53-84 79.2-2.4 2.3-6.5 5.4-7.4 7.4-1.1 2.6-0.8 5.7-2.4 7.6 6.2-4 11.2-9.5 16.4-14.6 5.2-5.2 10.3-10.5 15.5-15.7 29.9-29.9 61.3-58.7 91-88.4 1.2-1.2 3.3-2.7 2.4-5h-0.4c-10.3 9.7-20.8 19.5-31.1 29.5z"/>
		<path class="st2" d="m396.9 304.9c-11 8.6-22.5 16.8-33.6 25.3 9.1 3.4 18.2 7 27.1 10.7 9.5-8.2 19.5-17.5 28.8-25.8 0.4-0.4 1.7-0.6 1.3-1.5-7.8-3-15.7-5.9-23.6-8.7z"/>
		<path class="st2" d="m424.6 315.2c-4.5 3.7-8.7 7.6-13.1 11.3 2.8 1 5.6 1.9 8.3 3.1 2.9-2.9 6.6-6.2 9.6-9 1-0.9 2.6-2.4 2.4-3.1-2.5-0.6-4.7-1.7-7.2-2.3z"/>
		<path class="st2" d="m212.4 335.7c3.1 1.4 6 3.1 9 4.6 40.8 20.2 81.1 41 121.6 61.3 1.8 0.9 3.8 2.2 4.4 0.9 0.7-1.9-2.5-2.5-3.5-3.1-37-18.6-74.3-36.7-110.9-54.8-12.8-6.3-25-13.5-38-19.6 0-0.1-0.2-0.2-0.2 0 4.8 5 10.9 7.7 17.6 10.7z"/>
		<path class="st2" d="m204.4 340.7c3.2 1.8 6.5 4.2 9.2 4.6 1.6 0.2 4.2-0.3 6.1 0 2 0.4 5.2 2.6 7.9 3.9 37.4 18.5 73 37.3 110 55.9 1.4 0.7 7 4.7 7.6 2.2 0.3-1.3-2.8-2.3-3.9-2.8-37.5-18.5-74.2-37.4-110.9-56.3-6.4-3.3-12.8-6.7-19.4-9.6-6.7-2.9-13-6.1-17.9-11.3 0-0.2-0.3-0.2-0.2 0.2 1.1 7.3 5.7 10 11.5 13.2z"/>
		<path class="st2" d="m409.1 328.3c-5 4.9-10.9 8.8-15.7 14 3.2 1 6.2 2.4 9.2 3.7 4.9-4.9 10.2-9.3 14.8-14.4-2.9-1-5.6-2.1-8.3-3.3z"/>
		<path class="st1" d="m150.9 163.5c12.4-3.3 25.4-5.1 38.4-7.4 38.2-6.9 78.8-13.5 117-20.5 2.5-0.5 3.4 0.1 4.6 4.4 7.9 28.1 15.4 55.7 22.7 84 1 3.8 3.6 10.6 2.8 13.1-0.6 2.1-6.2 4.1-8.3 5-43.2 19.5-84.6 38.8-128.1 58.1-1.3 0.6-7.8 4.1-8.9 3.7-1.5-0.5-2.6-5.6-3.3-8.1-11-38.4-22-75.9-32.5-114.6-1.6-5.8-3.8-11.6-4.4-17.7zm158.5-19.4c-0.6-2.4-1.1-5.2-2.6-5.2-0.4 0-0.5 0.1-0.9 0.2-12.4 2.8-25.2 4.3-38 6.5-37.9 6.6-76.4 13.5-114.4 19.9 13.7 44.3 26.2 89.8 39.1 134.9 46.4-22 94.1-42.7 140.5-64.6-8-29.6-16-61-23.7-91.7z"/>
		<path class="st1" d="m180.8 167.4c0.6 2-0.7 4.2-1.5 6.1-1.7 3.7-3.3 7.5-5 11.6-0.7 1.7-0.7 4.8-3.1 5.2-0.3-3.9 2-7.7 3.5-11.3 1.6-3.9 3.7-7.9 5.2-11.6h0.9z"/>
		<path class="st1" d="m175.6 168.1c-0.1 2.2-1.4 4.1-2.2 5.9s-1.1 4.1-2.6 5.5c-0.4 0-0.5-0.3-0.9-0.2 0.3-4.1 3-7.6 4.4-11.3 0.5-0.2 1-0.2 1.3 0.1z"/>
		<path class="st1" d="m183.9 173.3c0.6 2.2-1 4.7-2 7-0.9 2.1-1.6 5.1-3.5 6.1-1.3-1.7 0.6-4.1 1.5-6.1 1-2.2 1.9-4.8 2.8-6.3 0.1-0.3 0.4-0.3 0.4-0.7h0.8z"/>
		<path class="st1" d="m186.5 179.6c-0.1 1.7-0.8 4.6-2.4 5.5 0-0.2-0.3-0.2-0.4-0.2-0.2-1.8 0.6-5.7 2.8-5.3z"/>
		<path class="st1" d="m190.6 180.9c0 1.4-0.3 2.5-1.7 2.4-0.1-0.2-0.2-0.4-0.4-0.4 0-1.2 0.8-2.7 2.1-2z"/>
		<path class="st1" d="m228.8 317.1c0.2 2.1-2.1 2.6-3.3 3.3-1.4 0.8-2.6 1.7-4.1 2.2-1.7-0.9-3.4-1.7-4.8-2.8 0.6-1.6 5.2-4.7 7.4-4.8 1.9-0.2 3.3 1.3 4.8 2.1zm-9.6 2.4c0.9 0.2 1.6 0.8 2.4 1.1 1.4-1.2 3.7-1.5 4.8-3.1-2.6-1.8-5.2 0.8-7.2 2z"/>
		<path class="st1" d="m340.1 349.7c0.6 2.9-0.8 5.7-1.5 8.7-1.4 5.8-2.8 11.6-4.4 17.9-0.5 1.8-1.4 8.1-2.8 8.1-2 0-0.2-4.8-0.4-3.9 2.5-9.8 5.5-21.3 8.1-30.3 0.1-0.4 0.5-0.6 1-0.5z"/>
		<path class="st1" d="m345.4 352.3c1.7 0.7 0.5 3 0.2 4.1-2.1 8.6-4.6 17.5-6.3 27.5-0.2 1-0.3 3.9-1.7 3.7-1.8-0.3 0.1-7 0.4-8.7 1.9-8.9 4.4-17.8 6.8-26-0.1-0.5 0.1-0.7 0.6-0.6z"/>
		<path class="st1" d="m331.8 354.9c0.4 1.9-0.4 4.2-0.9 6.3-1 4.2-2 8.4-3.1 13.1-0.4 1.7-0.6 6.1-2.2 5.9-1.5-0.2-0.4-3.1-0.4-2.8 0.6-3.3 1.5-6.6 2.2-9.6 1.2-5.2 2-9.1 3.3-12.7 0.1-0.2 0.4-0.1 0.4-0.4 0.3 0.1 0.4 0.2 0.7 0.2z"/>
		<path class="st1" d="m324.4 358.8c-0.2 4.2-1.5 9.5-2.4 14.2-0.3 1.3-0.1 3.4-1.7 3.7-1.3-2.4 0.4-6 0.9-8.7 0.6-3.2 1.2-6.2 2-8.9 0.2-0.2 0.6-0.1 0.7-0.4 0.2-0.2 0.2 0.1 0.5 0.1z"/>
		<path class="st1" d="m349.1 363.6c0.9 2-0.4 4.2-0.9 6.3-1 4.3-2 8.9-2.8 13.3-0.4 2.2-0.1 4.8-1.7 6.3-2.1-1.2-0.6-4.2-0.2-6.1 1.3-5.8 2.8-13.9 4.6-19.2 0.1-0.3 0.4-0.3 0.4-0.7 0.1 0.1 0.4 0.1 0.6 0.1z"/>
		<path class="st1" d="m370.2 364.3c0.5 1 0.4 4.3-1.5 4.1-0.6-1-0.3-4.2 1.5-4.1z"/>
		<path class="st1" d="m367 367.8c-0.5 2.2-0.3 5.1-2.2 5.9 0-0.2-0.3-0.2-0.4-0.2 0-1.7 0.2-7.1 2.6-5.7z"/>
		<path class="st1" d="m317.9 369.3c0.4 1.3 0 3.3-1.1 3.7-1.6-0.3-0.9-4.2 1.1-3.7z"/>
		<path class="st1" d="m362.2 370.4c0.8 2.1-0.6 5.6-1.3 7.6-2.7-0.2-0.1-6.2 0.6-7.6h0.7z"/>
		<path class="st1" d="m357.6 373.2c-0.2 1.9-0.7 4.2-1.1 6.3-0.3 1.8-0.4 4.5-2.4 4.8-0.3-3.3 1.1-8.4 2.4-11.6 0.5 0.1 0.7 0.4 1.1 0.5z"/>
		<path class="st1" d="m352.3 373.2c1.1 1.9-0.4 4.8-0.9 7.4-0.5 2.7-0.5 5.7-1.7 7.6-2.1-0.9-0.7-4.7-0.2-7.2 0.5-2.8 1.4-5.6 2-7.6 0.1-0.2 0.4-0.1 0.4-0.4 0.3 0 0.4 0.1 0.4 0.2z"/>
		<path class="st1" d="m226.9 332c1.9-3 5.6-3.9 8.5-5.5 20.6-11.1 41.9-22.7 62.9-34 24.1-13 48-26.6 72-38.6 0.2-0.1 0.4-0.5 0.9-0.4 5.4 0.9 10.5 3.1 15.5 4.6 12.1 3.7 25 7.7 38 11.8 2.1 0.7 6.5 1.3 6.8 3.1 0.4 2.2-5.6 5.4-7.4 6.8-29.6 22.4-58.7 43.8-88.4 65.7-7.1 5.2-15.9 11.8-24.2 17.9-2.3 1.7-6.3 5.6-8.3 5.7-1.9 0.1-7.9-3.4-9.8-4.4-8.2-4-15.6-7.3-23.8-11.6-14.5-7.6-28.4-13.1-42.7-21.1zm149.9-75.1c-0.5 1.4-2.3 1.4-3.1 2.4 2.2 0.5 4.3 1.2 6.3 2 0.9-1 2.7-1.1 3.3-2.4-2.3-0.5-4.3-1.4-6.5-2zm10 3.3c-0.4 1.3-1.8 1.6-2.6 2.4 2.4 0.5 4.5 1.3 6.8 2 0.9-0.9 2.2-1.3 3.1-2.2-2.6-0.6-4.7-1.7-7.3-2.2zm-15.5 0.2c-2.8 2-6.4 3.2-8.9 5.5 2.5 0.3 4.4 1.3 6.8 1.7 3-1.7 6-3.3 8.7-5.2-2.2-0.7-4.4-1.4-6.6-2zm-9.4 1.5c-1.7 0.7-3.4 1.4-4.6 2.6 1.7-0.8 3.3-1.6 4.6-2.6zm20.1 1.8c-1.5 1.1-3.4 1.9-4.8 3.1 2.2 0.8 4.3 1.5 6.3 2.4 1.5-1.3 3.7-1.9 5-3.5-2.2-0.6-4.2-1.5-6.5-2zm13.1 2.1c3.3 0.7 7.8 3.6 9.8 0-3.3-0.7-7.6-3.4-9.8 0zm-44.7 2.2c2.2-0.2 3.4-1.4 4.8-2.4-2 0.5-3.2 1.6-4.8 2.4zm9.2-1.1c-1.5 1.2-3.5 1.9-5 3.1 2.5 0.6 4.8 1.4 7.2 2.2 1.6-1.3 3.8-2 5.2-3.5-2.7-0.4-4.8-1.3-7.4-1.8zm32.9 0.2c-3 2.2-6.4 3.9-9.4 6.1 2.4 0.8 4.6 1.8 7.2 2.4 3.3-2 6.5-4.1 9.6-6.3-2.5-0.7-4.6-1.7-7.4-2.2zm14 2.2c2.3 0.5 4.5 1.2 6.5 2 1.1-0.5 2-1.2 2.8-2-3.2-0.5-7.4-3.6-9.3 0zm-31.5-1.5c-1.5 1.1-3.3 1.9-4.8 3.1 2.2 0.9 4.6 1.5 6.8 2.4 1.4-1.1 3.2-1.9 4.6-3.1-2.2-0.8-4.3-1.6-6.6-2.4zm-31.6 3.9c2 0.3 3.7-1.5 5.2-2.4-1.7-0.1-3.5 1.7-5.2 2.4zm57.8 0.9c2.2 0.8 4.5 1.5 6.5 2.4 1.3-0.5 2.2-1.4 3.3-2.2-3.4-0.8-7.5-3.6-9.8-0.2zm16.2 0c2.6 0.7 5.2 1.3 7.4 2.4 0.7-0.7 1.7-1.2 2.4-2-3.5-0.4-7.8-4.1-9.8-0.4zm-65.3-1.5c-1.3 1.2-3.3 1.7-4.6 2.8 2.5 0.6 4.7 1.6 7.2 2.2 1.7-0.8 3.3-1.8 4.8-2.8-2.5-0.7-4.9-1.4-7.4-2.2zm16 0.9c-1.6 1.2-3.6 2-5.2 3.3 2.6 0.6 4.9 1.5 7.4 2.2 1.5-1 3.3-1.8 4.6-3.1-2.3-0.9-4.6-1.6-6.8-2.4zm-31.9 3.7c2.3 0.3 4.1-1.6 5.7-2.6-2.1-0.1-4 1.6-5.7 2.6zm62.9-2c-2.3 2-5.2 3.4-7.6 5.2 2.4 0.9 4.8 1.9 7.4 2.6 2.3-1.9 5.2-3.2 7.2-5.5-2.6-0.5-4.7-1.6-7-2.3zm13.1 2.4c2.7 0.7 5 1.9 7.9 2.4 0.9-0.6 1.8-1.3 2.6-2-3.7-0.8-8.1-3.9-10.5-0.4zm-31.3-1.7c-1.4 1.4-3.6 2.1-5 3.5 2.6 0.7 5 1.7 7.4 2.6 1.5-1.3 3.5-2.2 5-3.5-2.5-0.8-4.7-1.9-7.4-2.6zm-35.8 0.6c-1.7 1.3-3.8 2.1-5.5 3.3 2.5 0.7 4.9 1.7 7.4 2.4 1.8-1.2 4-1.9 5.5-3.5-2.6-0.6-4.9-1.5-7.4-2.2zm15.5 1.3c-1.4 1.3-3.6 1.8-4.8 3.3 2.4 0.7 4.2 2.1 6.8 2.6 1.8-1.2 3.7-2.2 5.5-3.5-2.5-0.8-4.8-1.7-7.5-2.4zm-31.4 3.3c2.3 0.3 4-1.7 5.9-2.6-2.4-0.3-4.4 1.3-5.9 2.6zm80.8-2.2c-1 1.3-2.8 1.7-3.7 3.1 2.6 0.8 4.8 2 7.6 2.6 1.3-1.1 3-1.8 3.9-3.3-2.7-0.6-4.8-2-7.8-2.4zm-36.3 1.5c-1.4 1.3-3.4 2-4.8 3.3 2.5 1 5.2 1.6 7.4 2.8 1.6-1.3 3.4-2.2 5-3.5-2.6-0.7-4.8-1.9-7.6-2.6zm-36.2 0.7c-2.3 0.1-3.8 2.5-5.9 3.3 2.5 0.8 4.7 2 7.4 2.6 2-1.2 4.2-2.2 5.9-3.7-2.7-0.2-4.9-2.4-7.4-2.2zm52 0.4c-1.5 1.5-3.7 2.2-5.2 3.7 2.8 0.7 5.1 1.9 7.9 2.6 1.6-1.2 3.3-2.2 4.8-3.5-2.5-0.9-5.2-1.7-7.5-2.8zm-68.8 4c2.9 0.9 5.1-2 7.4-3.1-2.7-0.7-5.2 1.8-7.4 3.1zm33-3.5c-1.9 1.5-4.4 2.3-6.1 3.9 2.7 0.7 4.7 2 7.4 2.6 1.8-1.2 3.7-2.2 5.5-3.5-2.2-1.1-4.6-2-6.8-3zm50.6 1.1c-2.5 2-5.3 3.7-7.9 5.7 2.7 1 5.5 1.9 8.3 2.8 2.3-2 5.1-3.5 7.2-5.7-2.7-0.8-5-1.9-7.6-2.8zm-37.5 1.7c-1.8 1.6-4.3 2.4-5.9 4.1 2.5 0.9 5.1 1.7 7.4 2.8 2-1.5 4.4-2.6 6.1-4.4-2.8-0.5-4.9-1.8-7.6-2.5zm-37.6 0.7c-1.9 1.4-4.4 2.1-6.1 3.7 2.8 0.7 5.1 2 8.1 2.6 1.8-1.3 4.1-2.1 5.7-3.7-2.7-0.8-5.1-1.8-7.7-2.6zm-17.2 4.3c3.2 1.6 5.6-1.7 8.1-2.8-3-1.4-5.5 1.9-8.1 2.8zm70.2-3.5c-1.5 1.4-3.7 2.1-5 3.7 2.9 0.7 5.1 2.1 8.1 2.6 1.5-1.2 3.3-2.2 4.8-3.5-2.6-0.9-5.2-1.9-7.9-2.8zm-37.1 0.7c-1.8 1.4-4.1 2.3-5.9 3.7 2.7 0.8 5.4 1.6 7.6 2.8 2.1-1.1 4-2.4 5.9-3.7-2.4-1-4.7-2.2-7.6-2.8zm13.6 2.8c-1.4 1.4-3.7 2-5 3.5 2.6 1 5.5 1.8 7.9 3.1 1.5-1.3 3.5-2.1 4.8-3.5-2.7-1-5.2-2-7.7-3.1zm36 0c-1.6 1.4-3.7 2.5-5.2 3.9 3 0.7 5.7 1.8 8.7 2.6 1.6-1.1 3.2-2.2 4.6-3.5-2.8-0.9-5.5-1.8-8.1-3zm-74.2 0.5c-2.1 1.6-5 2.3-6.8 4.1 3 0.7 5.4 2 8.3 2.8 2.4-1.4 4.9-2.7 7-4.4-3.1-0.6-5.5-1.9-8.5-2.5zm-17 4.1c0.9 0.2 1.5 0.7 2.4 0.9 1.9-1.4 4.3-2.2 6.1-3.7-3.3-1.6-5.9 1.7-8.5 2.8zm71.5-3.3c-1.8 1.3-3.7 2.4-5.5 3.7 3 0.8 5.4 2.2 8.3 3.1 1.7-1.3 3.7-2.4 5.2-3.9-2.7-0.8-5.1-2.1-8-2.9zm-37.7 0.5c-1.7 1.5-4.4 2.1-5.9 3.9 2.9 0.8 5 2.3 7.9 3.1 2-1.3 4.2-2.4 5.9-3.9-2.7-1.1-5.5-2-7.9-3.1zm14 2.8c-1.9 1.8-4.8 2.6-6.5 4.6 3.2 0 5.6 3.1 8.3 2.8 2.3-0.2 5-3.7 6.6-4.6-3.2-0.6-5.4-2.2-8.4-2.8zm36.4 0.4c-1.6 1.5-4 2.3-5.2 4.1 3.1 0.7 5.7 1.9 8.5 2.8 1.7-1.4 3.7-2.5 5.2-4.1-2.8-0.9-5.8-1.6-8.5-2.8zm-93.6 4.4c1.1 0.3 2 0.8 3.1 1.1 2-1.5 4.5-2.5 6.5-3.9-3.3-2.4-6.5 1.8-9.6 2.8zm17.2-3.7c-2.5 0.2-5 3.2-7.2 4.1 3.1 0.8 5.9 1.9 8.7 3.1 2.5-1.3 5-2.7 7.2-4.4-3.2-0.1-5.7-3-8.7-2.8zm56.3 0.4c-2 1.6-4.5 2.6-6.3 4.4 3 1 5.7 2.3 8.7 3.3 1.9-1.5 4.1-2.8 5.9-4.4-2.7-1.2-5.4-2.3-8.3-3.3zm-38.6 0.5c-2.2 1.9-5.4 2.8-7.4 4.8 3.1 0.9 5.7 2.2 8.7 3.1 2.3-1.4 4.6-2.8 6.8-4.4-2.6-1.3-5.3-2.5-8.1-3.5zm13.5 3.7c-2.2 0.2-4.6 3.2-6.3 4.1 3.2 0.8 5.6 2.2 8.7 3.1 2.1-1.3 4.2-2.6 6.1-4.1-2.9-0.5-5.6-3.4-8.5-3.1zm37.8 0c-13.9 9.9-28.1 19.5-41.9 29.5 3.6 1.4 7 2.9 10.5 4.4 13.4-10.3 27-20.5 40.4-30.8-3.1-1.1-5.8-2.3-9-3.1zm-95.6 4.1c1 0.4 2.1 0.7 2.8 1.3 2.5-1.4 5.2-2.5 7.2-4.4-3.9-1.9-6.9 1.8-10 3.1zm17.2-3.5c-2.7 0.1-5.4 3.5-7.9 4.4 3 1.2 6 2.4 9 3.7 2.5-1.8 5.5-3.2 8.1-5-3.4-0.2-6.1-3.2-9.2-3.1zm57.2 0.7c-2.1 1.7-4.7 2.9-6.8 4.6 3.2 1.1 6.5 2.3 9.4 3.7 1.9-1.8 4.4-3 6.3-4.8-3-1.1-5.6-2.7-8.9-3.5zm-40.1 0.9c-2.3 1.6-4.9 2.8-7.2 4.4 2.9 0.2 6.5 3.7 9.2 3.5 1.3-0.1 2.6-1.7 3.7-2.4 1.4-0.9 2.7-1.3 3.7-2.4-3.4-0.9-6.1-2.4-9.4-3.1zm-43.9 6.9c1.2 0.5 2.2 1.1 3.5 1.5 2.3-1.6 5.1-2.7 7.2-4.4-4.1-2.4-7.5 1.5-10.7 2.9zm59.1-3.9c-2.5 0.1-5.2 3.5-7.2 4.6 3.2 0.9 5.8 2.5 9 3.5 2.2-1.7 4.8-3.1 7-4.8-3.2-0.4-5.8-3.4-8.8-3.3zm-42.3 0.9c-2.8 1.4-5.6 2.8-8.1 4.6 3.3 1.1 6.2 2.6 9.4 3.9 2.3-1.9 5.5-2.9 7.6-5-3.1-1.1-5.9-2.3-8.9-3.5zm58.5 0.9c-2.1 1.7-4.7 2.9-6.8 4.6 3.5 1.1 6.7 2.5 10 3.7 2-1.6 4.3-2.9 6.1-4.6-3-1.3-6.1-2.6-9.3-3.7zm-40.8 0.6c-2.4 1.8-5.4 3.1-7.9 4.8 3.2 1.3 6.5 2.6 9.6 3.9 2.4-1.9 5.5-3.1 7.6-5.2-3.3-1-6.1-2.4-9.3-3.5zm-45 7.2c1.4 0.4 2.6 1.1 3.9 1.5 2.5-1.7 5.6-2.8 7.9-4.8-4.3-2.9-8.4 1.5-11.8 3.3zm60.2-4.1c-2.3 2-5.6 3-7.6 5.2 3.4 0.9 6.3 2.5 9.6 3.5 2.2-1.8 5-3 7-5-3-1.2-5.9-2.5-9-3.7zm-43.2 0.8c-2.5 1.8-5.7 2.9-8.1 4.8 3.1 1.4 6.3 2.8 9.2 4.4 2.9-1.6 5.9-3.1 8.3-5.2-3.2-1.2-6.3-2.5-9.4-4zm60 1.1c-2.2 1.9-5.2 3-7.2 5 3.6 1.2 6.9 2.7 10.3 4.1 2.1-1.9 4.8-3.3 7-5.2-3.2-1.4-6.6-2.6-10.1-3.9zm-42.1 0.9c-2.7 1.9-5.9 3.2-8.5 5.2 3.5 1.2 6.4 2.9 9.8 4.1 2.9-1.8 5.7-3.6 8.5-5.5-3.1-1.3-6.5-2.4-9.8-3.8zm-37.3 2.2c-2.6 1.5-5.5 2.8-8.1 4.4 1.5 0.7 2.9 1.4 4.6 2 2.3-1.9 5.6-2.7 7.6-4.8-1.5-0.4-2.7-1.1-4.1-1.6zm52.6 1.3c-2.5 1.7-5.4 3.1-7.9 5 3.5 1.1 6.4 2.8 9.8 3.9 2.7-1.8 5.6-3.5 8.1-5.5-3.5-0.9-6.4-2.5-10-3.4zm-38.6 2.6c-1.2-0.6-4.3-2.6-5.2-2.2-3.1 1.5-6.6 3.9-9.8 5.7 3.4 1.6 7 2.9 10.3 4.6 3.1-2.2 6.8-3.7 9.6-6.1-1.7-0.6-3.3-1.3-4.9-2zm56.3-1.1c-2.4 2-5.6 3.3-7.9 5.5 3.8 1.3 7.4 2.8 10.9 4.4 2.3-1.9 5-3.4 7.2-5.5-3.4-1.5-6.9-2.8-10.2-4.4zm-43.4 1.1c-2.8 2.1-6.4 3.3-9 5.7 3.6 1.3 6.8 2.9 10.3 4.4 2.7-2 5.9-3.5 8.5-5.7-3.3-1.5-6.8-2.7-9.8-4.4zm-42.2 4.2c-1.8 0.9-3.5 1.8-4.8 2.6 1.9 0.5 3.4 1.4 5.2 2 2.9-1.8 6.2-3.3 9-5.2-3.9-2.7-5.8-1.2-9.4 0.6zm57.9-0.7c-2.9 2.1-6.3 3.8-9.2 5.9 3.7 1.2 6.9 2.8 10.5 4.1 3-2.1 6.1-3.9 8.9-6.1-3.6-1-6.6-2.8-10.2-3.9zm-46.1 1.1c-2.8 1.9-6.3 3.2-9 5.2 3.7 1.5 7.3 3 10.7 4.8 2.9-2 6.3-3.5 9-5.7-3.6-1.3-7.1-2.9-10.7-4.3zm63.7 0.9c-2.5 2-5.6 3.3-7.9 5.5 3.6 1.6 7.7 2.7 10.9 4.8 2.8-1.8 5.6-3.7 8.1-5.9-3.6-1.5-7.1-3.3-11.1-4.4zm-44.7 1.1c-3 2.2-6.6 3.7-9.6 5.9 3.6 1.6 7.3 3 10.5 5 3.2-2.2 6.9-4 9.8-6.5-3.8-1.3-7.1-3-10.7-4.4zm-37.8 1.1c-3.2 2.3-7.4 3.6-10.5 5.9 1.8 0.7 3.6 1.4 5 2.4 3.7-1.9 7.3-3.9 10.7-6.1-1.7-0.7-3.4-1.5-5.2-2.2zm53.5 2.8c-2.8 2.2-6.2 3.7-9 5.9 3.5 1.5 7.2 2.9 10.5 4.6 3.1-2.1 6.3-4.1 9.4-6.3-3.7-1.3-7.2-2.9-10.9-4.2zm-45.8 0.2c-3.3 2.3-7.5 3.8-10.7 6.3 3.9 1.5 7.3 3.4 11.1 5 3.4-2.2 7.3-3.9 10.2-6.5-3.6-1.5-6.9-3.3-10.6-4.8zm88.8 0.2c-2.5 2-5.3 3.7-7.9 5.7 3.7 1.5 7.2 3.1 10.9 4.6 2.5-2 5.4-3.5 7.4-5.9-3.6-1.3-6.7-3.1-10.4-4.4zm-24 1.1c-3 2.2-6.5 3.8-9.2 6.3 4 1.5 7.9 3.2 11.6 5 3.2-2 6.3-4.2 9.2-6.6-3.9-1.4-7.5-3.3-11.6-4.7zm-46 1.3c-5.4 3.4-11.2 6.2-16.4 9.8 3.9 1.6 7.6 3.4 11.3 5.2 5.2-3.3 10.6-6.4 15.5-10-3.6-1.5-7.1-3.2-10.4-5zm16.1 4c-6.1 4.3-13.1 7.7-19 12.2 3.9 1.7 7.8 3.2 11.3 5.2 5.7-4.7 12.4-8.3 18.3-12.7-3.5-1.5-7.2-3-10.6-4.7zm44.3 0.4c-3 2.4-6.4 4.3-9.4 6.8 4 1.4 7.7 3.2 11.8 4.6 2.9-2.2 5.8-4.3 8.5-6.6-3.6-1.6-7.3-3.2-10.9-4.8zm-25.3 1.7c-8.1 4.7-17 10.5-24.9 16.2 4.6 1.8 8.6 4.1 13.1 5.9 7.9-5.6 16-11 23.4-17-4-1.6-7.6-3.5-11.6-5.1zm14 6.2c-2.9 2.4-6.3 4.4-9.4 6.8 4 1.7 8.1 3.4 12 5.2 3-2.5 6.3-4.6 9.2-7.2-4-1.6-7.8-3.4-11.8-4.8zm-11.2 7.8c-4.1 3.2-8.7 5.8-12.7 9.2 4.1 1.8 8.2 3.6 12 5.7 4.3-3 8.7-6 12.5-9.6-4-1.7-7.9-3.5-11.8-5.3z"/>
		<path class="st1" d="m307.3 205.8c-2-4.1-0.8-9.8-0.6-14.5 0.4-9.9 1.3-18.7 1.8-27.7 0.5-8-1.2-23.4 11.8-24.3 17.6-1.2 32.5 0.1 51.4 0.2 8.2 0 16.7-0.2 25.8 0 7.6 0.2 19.8-1 25 2.2 6.7 4.2 4.5 12.6 4.3 19.8-0.4 11.2-0.8 18.3-1.2 29.9-0.2 4.2 0.5 11.7-1.9 14.4-1.9 2.1-7.6 4-10.7 4.4-4.9 0.6-10.4 0-15.7 0.1-15.8 0.2-32.1 0.4-47.3 0.3-10.3 7.8-20.9 17.1-31.2 25.1-3 2.4-8.7 7.9-11.2 5-1.6-1.9 0.8-5 2-7.3 4-7.9 7.6-14.7 10.6-22-5.8 0.5-10.4-0.4-12.9-5.6z"/>
		<path class="st2" d="m315.7 231.4c7.7-5.1 16.5-12.7 24.6-18.5 2.7-1.9 5.7-4.9 8-5.8 3.5-1.4 13.9-0.5 18-0.7 14.1-0.5 21.7-0.6 35.9-0.9 5-0.1 14.8 0.9 17.3-3.2 1.5-2.4 0.6-9.9 0.8-13.6 0.5-10 1.6-16.6 2-27 0.2-3.8 1.9-10 0.1-13.7-3.1-6.3-17.8-3.8-24.9-3.7-22.9 0.4-42.4 0.5-65.8 0.4-4.3 0-9.7-1-13.3 0.9-4.4 2.3-5.3 7.4-5.5 12.7-0.4 10.5-0.7 18.4-1 29.5-0.2 4.8-1.7 11.2 0.1 15 1.4 2.9 3.8 3.4 5.9 4 1.7 0.5 5.3 0.5 6.4 2.4 1.7 3-2.4 8.6-3.6 11.2-1.9 4.1-3.5 7.1-4.9 10.6-0.6 0 0 1.4-0.1 0.4z"/>
		<path class="st1" d="m354.3 173c4.8 8.2 5.7-7.2 0 0z"/>
		<path class="st1" d="m365 172.9c-0.3 4.1 4.8 3.3 4.6 0.6-0.2-2.2-3.2-3.1-4.6-0.6z"/>
		<path class="st1" d="m376.3 175c0.6 0.3 1.9 0.4 2.3-0.6-0.6-2.4-3.2-1.2-2.3 0.6z"/>
		<path class="st1" d="m387.9 172.7c-1 1.9 1.8 3.1 3 1.3-0.4-1.9-1.5-2-3-1.3z"/>
	<path class="st1" d="m462 88.9c3-0.5 5.3 1.7 4.6 5-0.9 4.1-8 3.7-8.3-0.7-0.2-2.6 1.5-4 3.7-4.3zm-0.6 4.8c0.9 1 2.6 0.2 2.6-1.1-0.6-1.5-3-0.8-2.6 1.1z"/>
	<path class="st1" d="m444.8 227.8c3-0.5 5.3 1.7 4.6 5-0.9 4.1-8 3.7-8.3-0.7-0.2-2.5 1.5-3.9 3.7-4.3zm-0.6 4.8c0.9 1 2.6 0.2 2.6-1.1-0.6-1.5-3-0.8-2.6 1.1z"/>
	<path class="st1" d="m348.7 91.1c1.1-0.3 1.7-0.4 2.4-0.2 2.8 0.7 3.6 6.7-0.7 7.6-5 1.1-6.4-6.2-1.7-7.4zm-0.2 4.6c1.2 0.6 2.4-0.3 2.2-1.7-1.2-0.8-2.2 0.4-2.2 1.7z"/>
	<path class="st1" d="m169 334.7c1.1-0.3 1.7-0.4 2.4-0.2 2.8 0.7 3.6 6.7-0.7 7.6-5.1 1.2-6.4-6.2-1.7-7.4zm-0.2 4.6c1.2 0.6 2.4-0.3 2.2-1.7-1.3-0.8-2.2 0.5-2.2 1.7z"/>
	<path class="st1" d="m488.9 114.4c0.6 2.5-2.8 2.5-2.4 0.2 0.5-0.8 1.6-1 2.4-0.2z"/>
	<path class="st1" d="m132.8 336.4c0.6 2.5-2.8 2.5-2.4 0.2 0.5-0.8 1.6-1 2.4-0.2z"/>
	<path class="st1" d="m415.5 121.6c3.5-0.8 5.4 1 5.7 3.3 0.7 6.2-9 7.1-9.2 0.9 0-2.3 1.6-3.4 3.5-4.2zm-0.4 4.8c1 4 5.7-2.8 1.5-2-1 0.3-1.9 0.5-1.5 2z"/>
	<path class="st1" d="m129.2 262.1c3.5-0.8 5.4 1 5.7 3.3 0.7 6.2-9 7.1-9.2 0.9 0-2.4 1.6-3.4 3.5-4.2zm-0.4 4.8c1 4 5.7-2.8 1.5-2-1 0.2-1.9 0.5-1.5 2z"/>
		<path class="st1" d="m84.6 176.7c4.7-3.8 10.3-5.7 14.8-5.6 3.4 0.1 7.8 1.1 10.8 3.7 3.1 2.8 3.7 7.7 3.1 10.7-0.9 5.4-5.9 10.7-12.9 14-0.8 0.4-2 0.8-2.7 1.3-0.8 0.6-1.3 1.6-1.9 2.5-0.6 0.8-1.1 1.6-1.9 2.5-0.8 1-4.3 4.8-5.4 3.6-0.7-0.8 0.7-2.3 1.2-3.5 0.2-0.4 1.3-3 0.9-3.4-0.2-0.2-1.5 0-1.9 0-3 0-6.7-0.8-9.3-4.1-5.7-7.5-1.5-16.2 5.2-21.7zm9.7 26.2c0.8-1.1 1.4-2.6 2.4-3.4 1.1-0.9 2.6-1.3 3.8-1.8 5.8-2.8 10.3-7.6 11.2-12.2 0.5-2.5 0.2-6.6-2-8.9-2.6-2.7-6.8-3.6-10.2-3.7-4-0.1-7.9 1.2-11.5 3.5-5.1 3.1-8.3 8.3-9.1 12.2-0.5 2.7 0 6.1 2.4 9 2.1 2.6 5.3 3.5 7.9 3.6 0.6 0 2.6-0.3 2.9 0 0.8 0.7 0 3.5-0.2 4.1-0.1 0.4-0.4 0.9-0.2 1.1 0.9-1.4 1.7-2.3 2.6-3.5z"/>
		<path class="st1" d="m80.1 188c0.1 0.1 0.1 0.1 0.2 0.1 0 1.4 0.3 2.8-0.4 4-1.2-0.9-0.1-2.7-0.3-3.9 0.2-0.2 0.4-0.2 0.5-0.2z"/>
		<path class="st1" d="m81.5 188.3c0.2 0.6 0.2 1.4 0.2 2 0 0.5 0 1.4-0.6 1.8-0.6-1.1-0.5-2.7 0.2-3.8 0 0 0.1 0.1 0.2 0z"/>
		<path class="st1" d="m82.7 188.5c0.5 0.6 0.4 1.6-0.2 2.2-0.8-0.3-0.6-2 0.2-2.2z"/>
		<path class="st1" d="m84.1 188.3c0.3 0.5 0.2 0.9-0.2 1.3-0.2 0-0.3-0.1-0.5-0.1-0.2-0.4 0-1.3 0.7-1.2z"/>
		<path class="st1" d="m394.3 84.4c-1.6 3.9-4.8 5.7-7.7 6.6-0.4 0.1-1.7 0.3-1.8 0.6-0.2 0.5 1.6 2.7 1.9 3 0.8 1 2.6 2 2.1 3-0.7 1.4-5.1-1.2-6.2-1.8-1-0.6-1.8-1.2-2.5-1.8-0.8-0.6-1.6-1.5-2.5-1.8-0.8-0.3-2-0.3-2.9-0.5-7.6-1.2-13.9-4.8-16.4-9.7-1.4-2.7-2.3-7.6-0.1-11.1 2-3.4 6-5.6 9.2-6.7 4.3-1.4 10.3-1.3 15.8 1 8.1 3.2 14.7 10.3 11.1 19.2zm-9 11c0.2-0.3-0.3-0.6-0.5-1-0.4-0.6-1.9-3-1.4-3.9 0.2-0.4 2.2-0.6 2.8-0.8 2.5-0.8 5.2-2.6 6.5-5.7 1.4-3.5 0.9-6.9-0.4-9.3-1.9-3.5-6.4-7.5-12.2-9-4.2-1.1-8.3-1.2-12 0.1-3.3 1.1-7.1 3.2-8.7 6.5-1.4 2.9-0.5 6.9 0.6 9.1 2.2 4.2 7.9 7.4 14.3 8.4 1.3 0.2 2.9 0.1 4.2 0.6 1.2 0.5 2.3 1.7 3.3 2.5 1.1 0.9 2.1 1.6 3.5 2.5z"/>
		<path class="st1" d="m390.9 74.6c0 0.1-0.1 0.2-0.2 0.2 0.4 1.3 0.5 2.7 1.6 3.7 0.9-1.2-0.7-2.6-0.8-3.8-0.3-0.2-0.4-0.2-0.6-0.1z"/>
		<path class="st1" d="m389.6 75.3c0 0.7 0.2 1.4 0.4 2 0.2 0.5 0.4 1.4 1.1 1.5 0.3-1.2-0.3-2.7-1.3-3.6 0 0 0 0.1-0.2 0.1z"/>
		<path class="st1" d="m388.6 75.8c-0.3 0.7 0.1 1.7 0.8 2.1 0.7-0.6 0-2.1-0.8-2.1z"/>
		<path class="st1" d="m387.2 76c-0.1 0.6 0.1 0.9 0.5 1.2 0.1-0.1 0.3-0.1 0.4-0.2 0.2-0.5-0.3-1.3-0.9-1z"/>
	<path class="st1" d="m61.6 243c5.1-1 4.8 6.5 1.3 6.8-3.4 0.2-5.7-5.9-1.3-6.8zm1.3 3.9c0-0.5 0-1.1-0.2-1.3h-0.7c0.1 0.7 0.2 1.3 0.9 1.3z"/>
	<path class="st1" d="m87.1 254.8c-2.3-3.4-1-8.4 2.6-8.9 2.4-0.3 5.4 1.1 5.9 3.5 0.9 4.2-4.1 8.6-8.5 5.4zm3.3-1.6c3.8 0.8 2.6-7.4-1.3-3.7 0 1.9 0.1 3.5 1.3 3.7z"/>
	<path class="st1" d="m76.9 287.7c0.8-0.2 1.5-0.2 1.7 0.9 1.2 4.4-6 0.2-1.7-0.9z"/>
	<path class="st1" d="m104.6 304.7c6.2-1.6 5.9 7.8 1.1 7.6-4 0-5.4-6.5-1.1-7.6zm1.8 4.8c0.7-0.7 0.4-1.6-0.2-2.2-2.2-0.1-1.1 2.3 0.2 2.2z"/>
	<path class="st1" d="m63.6 315.4c7.1-1.3 6.5 9.4 0.7 9.2-3.9-0.2-6.2-8.2-0.7-9.2zm1.5 6.1c2.8-0.5-0.3-5.7-2-2.4 0.4 1.2 0.8 2.6 2 2.4z"/>
	<path class="st1" d="m88.9 318.9c-0.5 5.7-5.5-2.6 0 0z"/>
		<path d="m131.1 308.5h12c2.2 0 2.2-3.3 0-3.3h-12c-2.1 0-2.1 3.3 0 3.3z"/>
		<path d="m135.2 299.4v15.2c0 2.2 3.3 2.2 3.3 0v-15.2c0-2.1-3.3-2.1-3.3 0z"/>
		<path d="m44.5 199.3h12c2.2 0 2.2-3.3 0-3.3h-12c-2.2 0-2.2 3.3 0 3.3z"/>
		<path d="m48.5 190.2v15.2c0 2.2 3.3 2.2 3.3 0v-15.2c0.1-2.2-3.3-2.2-3.3 0z"/>
		<path d="m395.3 233.3h12c2.2 0 2.2-3.3 0-3.3h-12c-2.1-0.1-2.1 3.3 0 3.3z"/>
		<path d="m399.4 224.2v15.2c0 2.2 3.3 2.2 3.3 0v-15.2c0-2.2-3.3-2.2-3.3 0z"/>
		<path d="m294.2 96.2h12c2.2 0 2.2-3.3 0-3.3h-12c-2.2 0-2.2 3.3 0 3.3z"/>
		<path d="m298.3 87.1v15.2c0 2.2 3.3 2.2 3.3 0v-15.2c0-2.1-3.3-2.1-3.3 0z"/>
</svg>
