<?xml version="1.0" encoding="UTF-8" standalone="no"?>
<!-- Generator: Adobe Illustrator 21.0.0, SVG Export Plug-In . SVG Version: 6.00 Build 0)  -->
<svg style="enable-background:new 0 0 559 520" xmlns="http://www.w3.org/2000/svg" xml:space="preserve" version="1.1" y="0px" x="0px" xmlns:xlink="http://www.w3.org/1999/xlink" viewBox="0 0 559 520">
<style type="text/css">
	.st0{fill:#CFEBF6;}
	.st1{fill:#FFFFFF;}
</style>
<g id="Layer_1">
	<path class="st0" d="m96 269m96.8-106.4c-0.8 0.3-1.7 0.7-2.5 1-38.3 15.5-71.3 39.5-92.4 75.5-3.6 6.1-6.9 12.7-7.4 21.3-0.4 7 1.3 15.5 5.6 23.7 1.4 22.8 8.9 48.7 26.8 71.5 22 28 54.1 43.3 78.4 43.9 13.3 0.3 24.9-3 36.3-6.5 37.9-11.4 75.1-24 111.5-37.7 3.5-1.3 7.1-2.7 10.6-4.1 24.1-9.5 47.3-20.3 64.8-38.4 7.6-7.8 14-16.9 23.3-22.5 7.6-4.6 17-6.7 23.2-12.9 5.4-5.2 8.3-13.1 10-21.7 2-10.4 2.4-22.4-1.4-35.6s-12-27.8-23.3-38.3c-10.9-10.2-23.3-15.6-34.7-24.8-7.1-5.8-13.8-13.3-21.3-17.7-7.8-4.7-15.3-5.3-22.2-5.5-21.2-0.8-41.5 0.7-61.4 2.7-43.7 4.4-86.2 11.3-123.9 26.1"/>
		<path class="st1" d="m190.9 151.2c6.1 1.9 10.6 6.3 12.8 12.7 0.3 0.9 1.1 1.4 2 1.4 1 0 1.8-0.6 2-1.5 3.4-10.5 8.4-12.7 12.9-13.4 1-0.1 1.7-0.9 1.8-1.9s-0.5-1.9-1.4-2.2c-2.6-0.9-11.5-4.6-14.5-12.5-0.3-0.9-1.2-1.5-2.2-1.4-0.9 0.1-1.7 0.7-1.9 1.7-1.5 6.6-5.3 10.9-11.6 13-0.9 0.3-1.5 1.1-1.5 2 0.1 1 0.7 1.8 1.6 2.1zm14.2-11.3c2.2 3.1 5.4 5.9 9.2 8-3.7 1.9-6.6 5-8.8 9.7-2.1-3.6-5.1-6.6-8.7-8.6 3.8-2.1 6.5-5.1 8.3-9.1z"/>
		<path class="st1" d="m415.8 323c-1.6-0.7-3.2-0.8-4.6-0.9l-0.8-0.1c-5.1-0.4-8.8 3.4-8.8 8.7 0 6.1 5.5 9.9 9.3 9.9 3.7 0 10.6-3.3 10.6-9.6-0.1-3.8-3-6.8-5.7-8zm-5 13.4c-1.5 0-5-1.9-5-5.6 0-2.2 1.2-4.5 3.8-4.5h0.4s0.9 0.1 0.9 0.1c1.2 0.1 2.3 0.2 3.2 0.5 1.5 0.7 3.1 2.4 3.1 4.2-0.1 3.4-4.8 5.3-6.4 5.3z"/>
		<path class="st1" d="m428.1 191.8c-0.2-2.8-0.3-5.7-0.5-8.5-0.1-1.2-1.1-2.1-2.2-2-7.8 0.3-15.7 0.5-23.4 0.7-8.4 0.2-17 0.5-25.6 0.8-1.1 0.1-2 1-2 2.1v1c0 6.4 0.3 13.2 0.8 22 0.1 1.2 1.1 2.1 2.3 2 6.2-0.4 12.6-0.7 19.5-1 0.7 0.9 1.3 1.8 2 2.7 3.2 4.5 6.6 9.1 10.7 12.9 0.4 0.4 0.9 0.6 1.5 0.6 0.2 0 0.5 0 0.7-0.1 0.7-0.3 1.3-0.9 1.4-1.7 0.6-4.1 1.3-9.4 1.7-15 4-0.1 7.9-0.3 11.9-0.4 1.2 0 2.1-1 2.1-2.2-0.4-4.7-0.7-9.4-0.9-13.9z"/>
		<path class="st1" d="m412.7 204.1c-1.1 0-2 0.9-2.1 2-0.3 4.3-0.7 8.6-1.2 12.3-2.5-2.8-4.8-5.9-7.1-9.2-0.9-1.2-1.8-2.4-2.7-3.7-0.4-0.5-1-0.9-1.7-0.9h-0.1c-6.6 0.3-12.7 0.6-18.6 0.9-0.4-7.2-0.6-13.1-0.7-18.5 7.9-0.3 15.8-0.5 23.5-0.8 7-0.2 14.2-0.4 21.3-0.7 0.1 2.1 0.2 4.3 0.4 6.4 0.2 3.8 0.5 7.7 0.6 11.6-3.8 0.3-7.7 0.4-11.6 0.6z"/>
		<path class="st1" d="m324.2 150.2c0 1.2 1 2.1 2.2 2l21-0.4-0.9 8.1c-0.3 2.3-0.5 4.6-0.8 7-0.1 0.9 0.4 1.7 1.2 2.1 0.3 0.2 0.6 0.2 1 0.2 0.5 0 1-0.2 1.4-0.6 6.4-5.8 13.1-11.4 19.6-16.9l0.6-0.5 52.1-1.1c0.6 0 1.2-0.3 1.6-0.7s0.6-1 0.5-1.6l-1.2-10.5c-0.7-6.1-1.4-12.3-1.9-18.5-0.1-1.2-1.1-2-2.3-2l-93.6 5.7c-1.2 0.1-2.1 1.1-2 2.2 0.2 3.6 0.4 7.2 0.7 10.9 0.3 5 0.6 9.8 0.8 14.6z"/>
		<path class="st1" d="m416.4 121.4c0.5 5.5 1.1 11.1 1.7 16.5 0.3 2.7 0.6 5.4 0.9 8.2l-50.5 1.1c-0.5 0-1 0.2-1.3 0.5l-1.2 1c-5.1 4.3-10.4 8.7-15.6 13.2 0.1-0.5 0.1-0.9 0.2-1.4 0.4-3.5 0.8-7 1.1-10.6 0.1-0.6-0.1-1.2-0.6-1.7-0.4-0.4-1-0.7-1.6-0.7 0 0-21.4 0.4-21.4 0.4-0.2-4.2-0.5-8.3-0.7-12.4-0.2-2.9-0.4-5.8-0.5-8.7l89.5-5.4z"/>
		<path class="st1" d="m346.2 140.7c2 0 3.8-2.1 3.8-3.8 0-1.4-1-2.2-1.4-2.6l-0.1-0.1c-0.4-0.4-0.9-0.6-1.5-0.6h-1.2c-0.6 0-1.1 0.2-1.5 0.6-0.7 0.7-1.1 1.7-1.1 2.7 0 3.5 2.3 3.8 3 3.8zm0.8-4c0.2 0.1 0.3 0.3 0.4 0.4 0 0 0 0.1-0.1 0.1l-0.3-0.3v-0.2zm-1.2-0.2v0.4l-0.1 0.1v-0.1c0.1-0.2 0.1-0.3 0.1-0.4z"/>
		<path class="st1" d="m369.2 138.9c2.2 0 3-1.3 3.2-2.2 0.1-0.3 0.3-0.7 0.3-1.2 0-0.4-0.1-1.8-1.8-2.5-0.4-0.6-1-0.9-1.8-0.9s-1.3 0.3-1.7 0.6c-0.4 0.1-0.7 0.3-1 0.6-0.8 0.8-0.7 1.8-0.7 2.3 0.1 1.9 1.4 3.3 3.5 3.3z"/>
		<path class="st1" d="m390.6 138s4-0.5 4-3c0-0.2 0-0.5-0.1-0.7-0.6-1.9-2.6-2.3-3.9-2.5l-0.5-0.1c-0.2 0-0.4-0.1-0.6-0.1-1.4 0-2.4 1-2.4 2.4v0.2c0.1 3.4 2.5 3.8 3.5 3.8zm0.1-4.2c0.3 0.1 0.5 0.3 0.6 0.6-0.1 0.2-0.1 0.4-0.3 0.6h-0.8c0.2-0.6 0.3-1 0.5-1.2z"/>
		<path class="st1" d="m176.1 234c6.2 0 11.8-5.3 11.8-11.1 0-6.7-5.9-12.4-12.9-12.4-2 0-3.9 0.5-5.4 1.6-3.4 2.3-5.6 6.3-5.6 10.5-0.1 8.6 8.3 11.4 12.1 11.4zm-4.2-18.3c0.8-0.6 1.9-0.8 3-0.8 4.7 0 8.7 3.7 8.7 8.2 0 3.1-3.4 6.8-7.5 6.8-2.1 0-7.9-1.7-7.9-7.2 0-2.8 1.5-5.5 3.7-7z"/>
		<path class="st1" d="m201.6 232.4c-1.2 0-2.8 0.5-3.7 1-2.1 1-3.6 3.8-3.6 6.5 0 4.3 3.5 8 7.4 8 5.3 0 7.5-4.7 7.5-7.2 0-5.7-4.4-8.3-7.6-8.3zm0.1 11.2c-1.3 0-3.1-1.4-3.1-3.7 0-1.4 0.9-2.5 1.2-2.6 0.7-0.3 1.5-0.6 1.8-0.6 0 0 3.3 0.2 3.3 4 0 0.4-0.6 2.9-3.2 2.9z"/>
		<path class="st1" d="m145.6 339.8c-1.2 0-2.8 0.5-3.7 1-2.1 1-3.6 3.8-3.6 6.5 0 4.3 3.5 8 7.4 8 5.3 0 7.5-4.7 7.5-7.2 0-5.8-4.4-8.3-7.6-8.3zm0.1 11.1c-1.3 0-3.1-1.4-3.1-3.7 0-1.4 0.9-2.5 1.2-2.6 0.7-0.4 1.5-0.6 1.8-0.6 0 0 3.3 0.2 3.3 4 0 0.4-0.6 2.9-3.2 2.9z"/>
		<path class="st1" d="m204.8 323.9l8.1 6.6c2.7 2.2 5.4 4.5 8.2 6.7 0.4 0.3 0.9 0.5 1.3 0.5h0.2c0.6-0.1 1.1-0.3 1.4-0.8 2.5-3.1 5.2-6 7.8-8.9l1.5-1.7c0.4-0.4 0.6-1 0.5-1.6 0-0.6-0.3-1.1-0.8-1.5l-2-1.6c-4.8-3.9-9.7-7.8-13.6-10.6-0.8-0.6-1.9-0.5-2.6 0.1-3.2 2.7-6.9 5.9-10.4 9.6-0.4 0.4-0.6 1-0.6 1.6 0.3 0.7 0.5 1.2 1 1.6zm11.7-8.4c3.6 2.6 7.8 6.1 12 9.4l0.3 0.2c-2.2 2.4-4.4 4.9-6.6 7.5-2.2-1.8-4.3-3.6-6.5-5.3-2.1-1.7-4.2-3.5-6.3-5.2 2.4-2.5 4.8-4.7 7.1-6.6z"/>
		<path class="st1" d="m269.3 192.9c-0.6 0-1.2 0-1.7 0.1-6.6 0.9-10.6 7.3-10.6 13 0 7.8 6.5 12 12.7 12 7.6 0 13.3-6.7 13.3-12.6-0.1-5.9-5.9-12.5-13.7-12.5zm0.4 20.9c-0.7 0-1.6-0.1-2.4-0.3 0.1-0.3 0.2-0.6 0.2-0.9 0-0.8 0.7-1.2 1-1.2h0.4c0.1 0.1 0.2 0.5 0.2 0.7 0.1 0.5 0.3 1.1 0.6 1.7zm4.3-1.2c-0.1-0.4-0.3-0.8-0.7-1.1-0.1-0.1-0.1-0.4-0.2-0.6-0.3-1.2-1.1-3.9-4.7-3.9-2.2 0-4.5 1.6-5.1 4.2-1.2-1.2-2.1-2.9-2.1-5.3 0-3.9 2.6-8.2 6.9-8.8 0.4-0.1 0.8-0.1 1.2-0.1 5.3 0 9.3 4.4 9.3 8.2 0.1 2.6-1.6 5.7-4.6 7.4z"/>
		<path class="st1" d="m309.5 190.9h-1-0.9c-7.2 0-12 6.9-12 13.3 0 4.3 4.4 12 13.2 12 6.9 0 14.3-5.1 14.3-12.6 0-7.1-6-12.7-13.6-12.7zm-0.8 21.1c-0.4 0-0.7 0-1.1-0.1 0-0.2 0.1-0.5 0-0.7v-0.4c0-0.8 0.3-1.5 0.6-1.9 0.4 0.7 0.7 2.3 0.8 3.2 0-0.1-0.2-0.1-0.3-0.1zm4.6-0.9c-0.5-2.6-1.4-6.7-5-6.7-0.2 0-0.5 0-0.7 0.1-2.7 0.8-4 3.5-4.1 5.9-2.6-1.9-3.6-5-3.6-6 0-4.3 3.2-9 7.8-9h1 0.9c5.2 0 9.3 3.7 9.3 8.5-0.1 3.4-2.7 5.9-5.6 7.2z"/>
		<path class="st1" d="m301.6 222.1c-4.6 1-9.6 1.1-14.7 1.1h-2.7c-1.2 0-2.1 1-2.1 2.1s1 2.1 2.1 2.1h2.7c5.4 0 10.6-0.1 15.6-1.2 1.2-0.3 1.9-1.4 1.6-2.6-0.2-1.1-1.4-1.8-2.5-1.5z"/>
		<path class="st1" d="m308.8 304.2c0 0.6 0.3 1.2 0.8 1.6 0.4 0.3 0.9 0.5 1.4 0.5h0.3c4-0.6 8.1-0.8 12.1-1.1 2.7-0.2 5.6-0.3 8.3-0.6 1.2-0.1 2-1.1 1.9-2.3-0.2-2.7-0.5-5.4-0.9-8.1-0.2-1.3-0.3-2.7-0.5-4-0.1-1.1-1.1-2-2.2-1.9h-0.4c-6.4 0.4-13 0.7-19.5 1.5-1.1 0.1-1.9 1.1-1.9 2.2 0.2 2.9 0.3 5.9 0.4 8.8l0.2 3.4zm19.5-11.6c0.1 0.7 0.2 1.4 0.2 2 0.2 1.9 0.5 3.9 0.7 5.8-2 0.2-4.1 0.3-6.1 0.4-3.3 0.2-6.7 0.4-10.1 0.8v-1l-0.3-6.9c5.2-0.5 10.4-0.8 15.6-1.1z"/>
		<path class="st1" d="m362.5 274.8c0-0.1 0-0.2-0.1-0.4 1.6-2.1 2.6-4.7 2.6-7.6 0-3.6-1.3-6.6-3.7-8.7-2.7-2.4-6.3-3.8-10.2-4-2.1-0.1-3.9 0.4-5.5 1.3h-0.4c-10.4 0.2-21.2 0.4-30.7 0.5l-6.5 0.1c-0.3-3.5-1.1-7.2-1.9-10.5-0.4-1.8-0.8-3.4-1-4.9 10.5-0.6 20.9-1.3 31.3-2.2 4.1-0.4 7.6-3.5 8.4-7.5 1-5.1 1.5-10.4 1.5-15.7 0-2-0.1-4-0.2-6 0.1 0 0.2-0.1 0.3-0.1h0.2c3.5 0 5.2-3.3 5.2-9.8 0-4.8-1.7-13.9-8.2-13.9-0.6 0-1.3 0.1-2 0.2-1.4-4.4-3-8.8-5-13.1-1.3-2.8-4-4.7-7.1-4.9-8.4-0.6-17-1-25.5-1-18.7 0-37.6 1.6-56.2 4.7-4.2 0.7-7.6 3.8-8.7 7.8-1.6 5.8-2.5 12.1-2.8 18.7-0.3 0-0.5-0.1-0.8-0.1-8 0-8 7.3-8 10 0 7.9 4.4 11.4 8.7 11.4 0.5 0 1 0 1.5-0.1 1.1 7.6 2.6 14.3 3.5 17.8 0.9 3.7 4.3 6.4 8.1 6.4h0.3l3.5-0.1c7.6-0.3 15.4-0.6 23.1-0.9 0.7 2.5 0.7 5.6 0.8 9 0 1.8 0.1 3.7 0.2 5.6-42 1.1-47.6 4-51.8 24.9l-61 1.4c-0.6 0-1.2 0.3-1.6 0.8s-0.6 1.1-0.5 1.7c3.6 23.1 9.3 46.2 14.8 68.5 0.9 3.8 1.9 7.7 2.8 11.5-0.5 0.9-0.3 2.1 0.6 2.7 0.1 0.1 0.2 0.5 0.3 0.8 0.4 1.3 1.2 4 5.5 4l28-0.9c21.3-0.7 46.9-1.4 47.1-1.5 0.4 0 1.2 0 2.2-0.1 48.2-1.4 49-4.6 49.6-6.9v-0.1c7.6 0.6 14.5 0.8 15.2 0.8 28.2 0 40.8-10.4 40.8-33.6 0-9.7-2.6-26.5-4.8-41.3-0.5-5.4-1.3-10.5-1.9-14.7z"/>
		<path class="st1" d="m358.7 278c0.5 3.7 1.1 7.8 1.8 12.1 0.1 0.9 0.3 1.8 0.4 2.6-0.3-0.2-0.6-0.3-0.9-0.3-2.5-0.2-5 0.1-7.3 0.3-1.3 0.1-2.5 0.2-3.8 0.3-0.1-1.7-0.2-3.3-0.4-4.9l-0.6-8.4c1.2 0.3 2.4 0.5 3.7 0.5 2.4 0 4.9-0.8 7.1-2.2z"/>
		<path class="st1" d="m348.7 315.1c1.4-0.2 2.9-0.4 4.8-0.4 1.3 0 2.5 0 3.8 0.1 2.2 0.1 4.3 0.2 6.4 0h0.2c0.7 6.2 1.2 11.7 1.2 15.9v0.7c-2.7-0.7-5.3-1.8-8-2.9-3.4-1.4-6.8-2.8-10.6-3.6 1-2.8 1.7-6 2.2-9.8z"/>
		<path class="st1" d="m363.5 310.6c-2 0.1-4 0-6 0-1.3 0-2.6-0.1-4-0.1-1.7 0-3.1 0.1-4.4 0.2 0.1-2.2 0.2-4.5 0.2-7 0-2.2-0.1-4.3-0.2-6.5 1.4-0.1 2.7-0.2 4-0.3 2.2-0.2 4.3-0.5 6.5-0.3 0.7 0 1.3-0.2 1.7-0.7 0.8 5 1.5 10 2.2 14.7z"/>
		<path class="st1" d="m350.5 258.4h0.4c2.1 0.1 5.1 0.8 7.7 3 1.5 1.3 2.2 3.1 2.2 5.5 0 5.1-4.9 9.1-9.1 9.1-4.8 0-8.9-4.1-8.9-8.7-0.1-3.5 3.3-8.9 7.7-8.9z"/>
		<path class="st1" d="m281.5 252.3c3.1 1.5 6.6 2.4 10.4 2.4 3.5 0 7.2-0.7 10.7-2.1 0.3-0.1 0.5-0.3 0.7-0.4 0.3 1.8 0.6 3.6 0.7 5.3-0.4 0-0.8 0-1.2 0.2-2.8 1.5-6 2.2-9.4 2.2-3.7 0-7.7-0.9-11.5-2.7-0.3-1.6-0.3-3.2-0.4-4.9z"/>
		<path class="st1" d="m300.8 240.8c0.3 1.8 0.7 3.6 1.2 5.6 0.1 0.7 0.3 1.4 0.5 2.1-0.5-0.2-1-0.2-1.6 0-2.9 1.2-6 1.8-9 1.8-3.9 0-7.5-1.1-10.5-3.1-0.1-1.9-0.3-3.7-0.6-5.4 6.6-0.3 13.3-0.6 20-1z"/>
		<path class="st1" d="m293.3 264.1c3.7 0 7.1-0.7 10.3-2.2-0.9 4.4-3.9 6.7-9.2 6.7-7 0-10.1-2.3-11.6-6.4 3.5 1.2 7 1.9 10.5 1.9z"/>
		<path class="st1" d="m343.6 189.6c2.6 0 3.9 5.6 3.9 9.6 0 4.8-1 5.6-1 5.5h-0.8c-0.6-5-1.5-10-2.9-15.1h0.8z"/>
		<path class="st1" d="m248.5 175.3c18.3-3 37-4.6 55.5-4.6 7.5 0 15 0.3 22.5 0.8-15.7 6.2-41.8 6.2-59.5 6.2-5.6 0-12.5-0.3-19-2.3 0.2 0 0.4-0.1 0.5-0.1z"/>
		<path class="st1" d="m236.3 214.8c-2.1 0-4.5-1.9-4.5-7.2s1.5-5.7 3.7-5.7h0.4 0.3c0.1 4.2 0.4 8.6 0.9 12.8-0.2 0-0.5 0.1-0.8 0.1z"/>
		<path class="st1" d="m253.1 238.6l-3.5 0.1h-0.2c-1.9 0-3.5-1.3-3.9-3.1-1.5-6-4.9-21.3-4.9-34.8 0-7.6 0.9-14.4 2.7-20.8 0.1-0.5 0.4-1 0.6-1.5 7.9 3 16.4 3.5 23.1 3.5 19.3 0 48.4 0 64.4-8 0.3-0.2 0.6-0.4 0.8-0.7 0.2 0.3 0.4 0.5 0.5 0.9 2.1 4.5 3.8 9.1 5.1 13.7 0 0.2 0 0.4 0.1 0.6 0.1 0.3 0.2 0.6 0.4 0.8 2.4 8.6 3.7 17.4 3.7 25.8 0 5.1-0.5 10.1-1.4 14.9-0.4 2.2-2.3 3.9-4.5 4.1-27.6 2.4-55.8 3.5-83 4.5z"/>
		<path class="st1" d="m242 264.3c1.3 1 1.9 2.8 1.9 5.4 0 4.5-2.9 6.8-8.7 6.8-1.9 0-2-0.2-2.7-1-0.2-0.3-0.5-0.6-0.8-0.9 1.7-5.2 4.3-8.3 10.3-10.3z"/>
		<path class="st1" d="m167.2 287.1l94.6-2.2c0.5 3.2 1.4 7.1 2.9 14.1 2.2 10.2 5.9 27 12.2 58.1l-93 5.6c-0.8-3.3-1.6-6.6-2.4-9.8-5.2-21.5-10.7-43.7-14.3-65.8z"/>
		<path class="st1" d="m263.8 366.2c-1.1 0-1.9 0.1-2.2 0.1l-47.1 1.5-27.9 0.9c-0.9 0-1.2-0.2-1.2-0.2-0.1-0.1-0.2-0.5-0.3-0.8-0.1-0.2-0.2-0.5-0.3-0.8l92.8-5.5c-0.8-0.3-1.5-1.1-1.5-2 0-1.2 1-2.1 2.1-2.1 1 0 1.9 0 2.9-0.1-6.4-31.7-10.1-48.8-12.4-59.1-1.8-8.4-2.7-12.2-3.2-15.7-0.2-1.1-1.1-1.8-2.1-1.8l-33.7 0.8c0.1-0.7 0.3-1.3 0.4-1.9 1 0.8 2.3 1.3 4.8 1.3 8.1 0 13-4.1 13-11.1 0-2.6-0.5-4.8-1.6-6.5 6.8-1.3 16.7-1.9 31.4-2.3 1.4 6.4 5.2 11.9 16.3 11.9 8.2 0 13.2-4.5 13.7-12.5l6.5-0.1c8.2-0.1 17.4-0.3 26.4-0.4-1.6 2.4-2.6 5.2-2.6 7.5 0 4.1 2.1 7.8 5.2 10.2 0 0.2-0.1 0.4-0.1 0.6 0.1 3.4 0.4 6.9 0.7 10.3 0.4 5.1 0.8 10.3 0.8 15.4 0 16.7-3.5 25.7-8.7 30.6-0.3 0.1-0.5 0.3-0.7 0.5-0.1 0.1-0.2 0.2-0.2 0.4-5.5 4.4-12.7 4.9-19.9 5.1h-0.8-0.9c-10.8 0.3-21.9 0.5-21.9 16v0.1c1.1-0.1 2.2-0.2 3.3-0.2 1.2-0.1 2.2 0.8 2.3 2 0.1 1.1-0.7 2-1.7 2.2 2.4 0.9 6.1 1.7 11.7 2.4-3.7 1-14.5 2.5-43.3 3.3z"/>
		<path class="st1" d="m317.3 359.5c-8.8-0.6-19.1-1.9-21.2-3.5 0.1-10.4 6.2-11.1 17.7-11.3 0 0.1 0.1 0.2 0.1 0.2 1.7 3.3 3.3 6.4 3.3 9.7 0 0.7 0 1.4 0.1 2 0 0.6 0.1 1.2 0.1 1.8 0 0.5-0.1 0.8-0.1 1.1z"/>
		<path class="st1" d="m328.7 360c-1.6 0-4.2-0.1-7.1-0.3 0-0.4 0.1-0.8 0.1-1.3 0-0.7 0-1.4-0.1-2.1 0-0.6-0.1-1.2-0.1-1.8 0-3.8-1.4-7.1-2.9-10.1 3.1-0.2 6.2-0.5 9.3-1.2 4.1 5 7.9 10 9.7 16.3-2.8 0.4-5.7 0.5-8.9 0.5z"/>
		<path class="st1" d="m355.6 353.8c-3.4 2.3-7.8 4.1-13.8 5.2v-0.2c-1.8-6.6-5.5-11.9-9.5-16.9 1.6-0.7 3.2-1.5 4.7-2.6l1 1c4.9 5 10 10.2 16.7 13.4 0.2 0.1 0.5 0.1 0.9 0.1 0.8 0 1.6-0.4 1.9-1.2-0.4 0.8-1.1 1.2-1.9 1.2z"/>
		<path class="st1" d="m357.6 352.2c0.2-1-0.2-2-1.2-2.4-6-2.9-10.6-7.6-15.5-12.5l-0.8-0.8c1.8-1.9 3.5-4.4 4.9-7.4 3.6 0.6 7 2 10.5 3.4 3 1.3 6.1 2.5 9.5 3.3-0.6 6.1-2.4 11.9-7.4 16.4z"/>
		<path class="st1" d="m256.6 138.9h0.3c1.2-0.1 2-1.2 1.9-2.4-0.1-0.5-0.1-1.1-0.1-1.6 0-0.7 0.1-1.5 0.2-2.2 0.2-1.2-0.6-2.3-1.8-2.5s-2.3 0.6-2.5 1.8c-0.2 0.9-0.2 1.9-0.2 2.9 0 0.7 0 1.4 0.1 2.1 0.1 1.1 1 1.9 2.1 1.9z"/>
		<path class="st1" d="m261.9 126.2c0.4 0 0.8-0.1 1.1-0.3 1-0.6 2.1-1 3.2-1.2h0.1c1.2-0.2 1.9-1.3 1.7-2.4-0.2-1.2-1.3-1.9-2.5-1.8-1.8 0.3-3.4 0.9-4.9 1.8-1 0.6-1.3 1.9-0.7 2.9 0.6 0.6 1.3 1 2 1z"/>
		<path class="st1" d="m264.1 149.9c0.3 0.1 0.5 0.2 0.8 0.2 0.8 0 1.6-0.5 2-1.3 0.4-1.1-0.1-2.3-1.2-2.8s-2.2-1.1-3.1-1.9-2.2-0.7-3 0.2-0.7 2.2 0.2 3c1.2 1 2.7 1.9 4.3 2.6z"/>
		<path class="st1" d="m274.8 150c0.3 0 0.5 0 0.8-0.2 1.5-0.6 2.9-1.4 4.3-2.4 1-0.7 1.2-2 0.5-3s-2-1.2-3-0.5c-1.1 0.8-2.2 1.4-3.3 1.9-1.1 0.4-1.6 1.7-1.2 2.8 0.2 0.9 1 1.4 1.9 1.4z"/>
		<path class="st1" d="m275.5 125.3c1.3 0.4 2.4 1 3.5 1.6 0.4 0.2 0.8 0.3 1.1 0.3 0.7 0 1.4-0.4 1.8-1 0.6-1 0.3-2.3-0.7-3-1.3-0.8-2.8-1.5-4.4-2.1-1.1-0.4-2.3 0.3-2.7 1.4-0.4 1.3 0.3 2.5 1.4 2.8z"/>
		<path class="st1" d="m284 139.7c0.2 0.1 0.5 0.1 0.7 0.1 0.9 0 1.7-0.6 2-1.4 0.5-1.5 0.8-3 0.8-4.4v-0.7c-0.1-1.2-1.1-2.1-2.3-2s-2.1 1.1-2 2.3v0.5c0 1-0.2 2-0.5 3-0.4 1 0.2 2.3 1.3 2.6z"/>
		<path class="st1" d="m409.9 286.7c-1.2 0.3-1.9 1.4-1.6 2.5 0.2 1 1.1 1.7 2.1 1.7 0.2 0 0.3 0 0.5-0.1 1.5-0.3 3-0.8 4.3-1.4 1.1-0.5 1.6-1.7 1.1-2.8s-1.7-1.6-2.8-1.1c-1.2 0.5-2.3 0.9-3.6 1.2z"/>
		<path class="st1" d="m402.9 289.1c0.4-1.1-0.3-2.3-1.4-2.7s-2.2-0.9-3.1-1.5c-1-0.7-2.3-0.5-3 0.5s-0.5 2.3 0.5 3c1.3 0.9 2.7 1.6 4.3 2.1 0.2 0.1 0.4 0.1 0.7 0.1 0.9 0 1.7-0.6 2-1.5z"/>
		<path class="st1" d="m423.8 275.6c-1.1-0.3-2.3 0.4-2.6 1.5s-0.8 2.2-1.4 3.2-0.3 2.3 0.7 3c0.4 0.2 0.8 0.3 1.1 0.3 0.7 0 1.4-0.4 1.8-1 0.9-1.4 1.5-2.8 1.9-4.4 0.3-1.2-0.4-2.3-1.5-2.6z"/>
		<path class="st1" d="m412.3 257.8c-1.5-0.4-3.2-0.5-4.8-0.4-1.2 0.1-2.1 1.1-2 2.3s1.1 2.1 2.3 2 2.3 0 3.4 0.3h0.1c0.2 0 0.3 0.1 0.5 0.1 1 0 1.8-0.7 2-1.6 0.4-1.2-0.4-2.4-1.5-2.7z"/>
		<path class="st1" d="m422.2 270.4c0.3 0 0.6-0.1 0.9-0.2 1.1-0.5 1.5-1.8 1-2.9-0.7-1.4-1.6-2.7-2.6-3.9-0.8-0.9-2.1-1-3-0.2s-1 2.1-0.2 3 1.5 1.9 2 2.9c0.4 0.9 1.2 1.3 1.9 1.3z"/>
		<path class="st1" d="m397.5 267.3c0.8-0.9 1.7-1.8 2.6-2.5s1.1-2.1 0.4-3-2.1-1.1-3-0.4c-1.2 0.9-2.3 2-3.3 3.2-0.8 0.9-0.6 2.3 0.3 3 0.4 0.3 0.9 0.5 1.4 0.5 0.6 0 1.2-0.3 1.6-0.8z"/>
		<path class="st1" d="m394.1 276c0-0.4 0-0.8 0.1-1.2 0.1-1.2-0.7-2.2-1.9-2.4-1.2-0.1-2.2 0.7-2.4 1.9-0.1 0.5-0.1 1.1-0.1 1.6 0 1.1 0.1 2.1 0.3 3.1s1.1 1.7 2.1 1.7h0.4c1.2-0.2 1.9-1.4 1.7-2.5-0.2-0.7-0.2-1.4-0.2-2.2z"/>
		<path d="m190.9 151.2c6.1 1.9 10.6 6.3 12.8 12.7 0.3 0.9 1.1 1.4 2 1.4 1 0 1.8-0.6 2-1.5 3.4-10.5 8.4-12.7 12.9-13.4 1-0.1 1.7-0.9 1.8-1.9s-0.5-1.9-1.4-2.2c-2.6-0.9-11.5-4.6-14.5-12.5-0.3-0.9-1.2-1.5-2.2-1.4-0.9 0.1-1.7 0.7-1.9 1.7-1.5 6.6-5.3 10.9-11.6 13-0.9 0.3-1.5 1.1-1.5 2 0.1 1 0.7 1.8 1.6 2.1zm14.2-11.3c2.2 3.1 5.4 5.9 9.2 8-3.7 1.9-6.6 5-8.8 9.7-2.1-3.6-5.1-6.6-8.7-8.6 3.8-2.1 6.5-5.1 8.3-9.1z"/>
		<path d="m401.5 330.7c0 6.1 5.5 9.9 9.3 9.9 3.7 0 10.6-3.3 10.6-9.6 0-3.8-2.9-6.9-5.6-8.1-1.6-0.7-3.2-0.8-4.6-0.9l-0.8-0.1c-5.2-0.3-8.9 3.5-8.9 8.8zm8-4.4h0.4s0.9 0.1 0.9 0.1c1.2 0.1 2.3 0.2 3.2 0.5 1.5 0.7 3.1 2.4 3.1 4.2 0 3.5-4.7 5.3-6.4 5.3-1.5 0-5-1.9-5-5.6 0.1-2.3 1.2-4.5 3.8-4.5z"/>
		<path d="m376.4 182.9c-1.1 0.1-2 1-2 2.1v1c0 6.4 0.3 13.2 0.8 22 0.1 1.2 1.1 2.1 2.3 2 6.2-0.4 12.6-0.7 19.5-1 0.7 0.9 1.3 1.8 2 2.7 3.2 4.5 6.6 9.1 10.7 12.9 0.4 0.4 0.9 0.6 1.5 0.6 0.2 0 0.5 0 0.7-0.1 0.7-0.3 1.3-0.9 1.4-1.7 0.6-4.1 1.3-9.4 1.7-15 4-0.1 7.9-0.3 11.9-0.4 1.2 0 2.1-1 2.1-2.2-0.1-4.6-0.4-9.3-0.7-13.9-0.2-2.8-0.3-5.7-0.5-8.5-0.1-1.2-1.1-2.1-2.2-2-7.8 0.3-15.7 0.5-23.4 0.7-8.6 0.1-17.3 0.4-25.8 0.8zm47 2.7c0.1 2.1 0.2 4.3 0.4 6.4 0.2 3.8 0.5 7.7 0.6 11.6-3.9 0.1-7.8 0.3-11.7 0.4-1.1 0-2 0.9-2.1 2-0.3 4.3-0.7 8.6-1.2 12.3-2.5-2.8-4.8-5.9-7.1-9.2-0.9-1.2-1.8-2.4-2.7-3.7-0.4-0.5-1-0.9-1.7-0.9h-0.1c-6.6 0.3-12.7 0.6-18.6 0.9-0.4-7.2-0.6-13.1-0.7-18.5 7.9-0.3 15.8-0.5 23.5-0.8 7.1 0 14.3-0.2 21.4-0.5z"/>
		<path d="m324.2 150.2c0 1.2 1 2.1 2.2 2l21-0.4-0.9 8.1c-0.3 2.3-0.5 4.6-0.8 7-0.1 0.9 0.4 1.7 1.2 2.1 0.3 0.2 0.6 0.2 1 0.2 0.5 0 1-0.2 1.4-0.6 6.4-5.8 13.1-11.4 19.6-16.9l0.6-0.5 52.1-1.1c0.6 0 1.2-0.3 1.6-0.7s0.6-1 0.5-1.6l-1.2-10.5c-0.7-6.1-1.4-12.3-1.9-18.5-0.1-1.2-1.1-2-2.3-2l-93.6 5.7c-1.2 0.1-2.1 1.1-2 2.2 0.2 3.6 0.4 7.2 0.7 10.9 0.3 5 0.6 9.8 0.8 14.6zm92.2-28.8c0.5 5.5 1.1 11.1 1.7 16.5 0.3 2.7 0.6 5.4 0.9 8.2l-50.5 1.1c-0.5 0-1 0.2-1.3 0.5l-1.2 1c-5.1 4.3-10.4 8.7-15.6 13.2 0.1-0.5 0.1-0.9 0.2-1.4 0.4-3.5 0.8-7 1.1-10.6 0.1-0.6-0.1-1.2-0.6-1.7-0.4-0.4-1-0.7-1.6-0.7 0 0-21.4 0.4-21.4 0.4-0.2-4.2-0.5-8.3-0.7-12.4-0.2-2.9-0.4-5.8-0.5-8.7l89.5-5.4z"/>
		<path d="m346.2 140.7c2 0 3.8-2.1 3.8-3.8 0-1.4-1-2.2-1.4-2.6l-0.1-0.1c-0.4-0.4-0.9-0.6-1.5-0.6h-1.2c-0.6 0-1.1 0.2-1.5 0.6-0.7 0.7-1.1 1.7-1.1 2.7 0 3.5 2.3 3.8 3 3.8zm0.8-4c0.2 0.1 0.3 0.3 0.4 0.4 0 0 0 0.1-0.1 0.1l-0.3-0.3v-0.2zm-1.2-0.2v0.4l-0.1 0.1v-0.1c0.1-0.2 0.1-0.3 0.1-0.4z"/>
		<path d="m369.2 138.9c2.2 0 3-1.3 3.2-2.2 0.1-0.3 0.3-0.7 0.3-1.2 0-0.4-0.1-1.8-1.8-2.5-0.4-0.6-1-0.9-1.8-0.9s-1.3 0.3-1.7 0.6c-0.4 0.1-0.7 0.3-1 0.6-0.8 0.8-0.7 1.8-0.7 2.3 0.1 1.9 1.4 3.3 3.5 3.3z"/>
		<path d="m390.6 138s4-0.5 4-3c0-0.2 0-0.5-0.1-0.7-0.6-1.9-2.6-2.3-3.9-2.5l-0.5-0.1c-0.2 0-0.4-0.1-0.6-0.1-1.4 0-2.4 1-2.4 2.4v0.2c0.1 3.4 2.5 3.8 3.5 3.8zm0.1-4.2c0.3 0.1 0.5 0.3 0.6 0.6-0.1 0.2-0.1 0.4-0.3 0.6h-0.8c0.2-0.6 0.3-1 0.5-1.2z"/>
		<path d="m176.1 234c6.2 0 11.8-5.3 11.8-11.1 0-6.7-5.9-12.4-12.9-12.4-2 0-3.9 0.5-5.4 1.6-3.4 2.3-5.6 6.3-5.6 10.5-0.1 8.6 8.3 11.4 12.1 11.4zm-4.2-18.3c0.8-0.6 1.9-0.8 3-0.8 4.7 0 8.7 3.7 8.7 8.2 0 3.1-3.4 6.8-7.5 6.8-2.1 0-7.9-1.7-7.9-7.2 0-2.8 1.5-5.5 3.7-7z"/>
		<path d="m201.6 232.4c-1.2 0-2.8 0.5-3.7 1-2.1 1-3.6 3.8-3.6 6.5 0 4.3 3.5 8 7.4 8 5.3 0 7.5-4.7 7.5-7.2 0-5.7-4.4-8.3-7.6-8.3zm0.1 11.2c-1.3 0-3.1-1.4-3.1-3.7 0-1.4 0.9-2.5 1.2-2.6 0.7-0.3 1.5-0.6 1.8-0.6 0 0 3.3 0.2 3.3 4 0 0.4-0.6 2.9-3.2 2.9z"/>
		<path d="m153.2 348c0-5.7-4.4-8.3-7.6-8.3-1.2 0-2.8 0.5-3.7 1-2.1 1-3.6 3.8-3.6 6.5 0 4.3 3.5 8 7.4 8 5.3 0 7.5-4.7 7.5-7.2zm-10.6-0.8c0-1.4 0.9-2.5 1.2-2.6 0.7-0.4 1.5-0.6 1.8-0.6 0 0 3.3 0.2 3.3 4 0 0.4-0.6 2.9-3.2 2.9-1.3 0-3.1-1.4-3.1-3.7z"/>
		<path d="m162.6 285.3c3.6 23.1 9.3 46.2 14.8 68.5 0.9 3.8 1.9 7.7 2.8 11.5 0.1-0.1 0.1-0.2 0.2-0.3 0.7-0.9 2.1-1.1 3-0.4s1.3 1.5 1.6 2.2l92.8-5.5c-0.8-0.3-1.5-1.1-1.5-2 0-1.2 1-2.1 2.1-2.1 1 0 1.9 0 2.9-0.1-6.4-31.7-10.1-48.8-12.4-59.1-1.8-8.4-2.7-12.2-3.2-15.7-0.2-1.1-1.1-1.8-2.1-1.8l-33.7 0.8c-0.1 0.4-0.2 0.8-0.2 1.2-0.2 1-1.1 1.7-2.1 1.7h-0.4c-1.2-0.2-1.9-1.4-1.7-2.5v-0.2l-61 1.4c-0.6 0-1.2 0.3-1.6 0.8-0.2 0.4-0.4 1-0.3 1.6zm99.2-0.4c0.5 3.2 1.4 7.1 2.9 14.1 2.2 10.2 5.9 27 12.2 58.1l-93 5.6c-0.8-3.3-1.6-6.6-2.4-9.8-5.2-21.5-10.7-43.6-14.3-65.7l94.6-2.3z"/>
		<path d="m204.8 323.9l8.1 6.6c2.7 2.2 5.4 4.5 8.2 6.7 0.4 0.3 0.9 0.5 1.3 0.5h0.2c0.6-0.1 1.1-0.3 1.4-0.8 2.5-3.1 5.2-6 7.8-8.9l1.5-1.7c0.4-0.4 0.6-1 0.5-1.6 0-0.6-0.3-1.1-0.8-1.5l-2-1.6c-4.8-3.9-9.7-7.8-13.6-10.6-0.8-0.6-1.9-0.5-2.6 0.1-3.2 2.7-6.9 5.9-10.4 9.6-0.4 0.4-0.6 1-0.6 1.6 0.3 0.7 0.5 1.2 1 1.6zm11.7-8.4c3.6 2.6 7.8 6.1 12 9.4l0.3 0.2c-2.2 2.4-4.4 4.9-6.6 7.5-2.2-1.8-4.3-3.6-6.5-5.3-2.1-1.7-4.2-3.5-6.3-5.2 2.4-2.5 4.8-4.7 7.1-6.6z"/>
		<path d="m277.8 239.2c1.1-0.3 2.3 0.3 2.6 1.5 0.1 0.4 0.2 0.8 0.2 1.1 6.7-0.3 13.4-0.6 20.1-1-0.2-1.2 0.6-2.2 1.8-2.4s2.3 0.6 2.5 1.8c0 0.1 0.1 0.3 0.1 0.4 10.5-0.6 20.9-1.3 31.3-2.2 4.1-0.4 7.6-3.5 8.4-7.5 1-5.1 1.5-10.4 1.5-15.7 0-2-0.1-4-0.2-6-0.2 0.1-0.4 0.1-0.7 0.1s-0.7-0.1-1-0.2c-1.1-0.5-1.5-1.8-0.9-2.9 0.4-0.9 1.2-1.4 2.2-1.5-0.6-5-1.5-10-2.9-15.1-0.7 0.1-1.4 0.2-2.3 0.4-0.8 0.2-1.7-0.1-2.2-0.8 2.4 8.6 3.7 17.4 3.7 25.8 0 5.1-0.5 10.1-1.4 14.9-0.4 2.2-2.3 3.9-4.5 4.1-27.6 2.4-55.8 3.5-83 4.5l-3.5 0.1h-0.2c-1.9 0-3.5-1.3-3.9-3.1-1.5-6-4.9-21.3-4.9-34.8 0-7.6 0.9-14.4 2.7-20.8 0.1-0.5 0.4-1 0.6-1.5-0.4-0.1-0.7-0.3-1.1-0.4-1.1-0.5-1.6-1.7-1.1-2.8s1.7-1.6 2.8-1.1c1.2 0.5 2.3 0.9 3.5 1.2 0.2 0 0.4-0.1 0.6-0.1 18.3-3 37-4.6 55.5-4.6 7.5 0 15 0.3 22.5 0.8 1-0.4 2-0.9 3-1.3 1.1-0.5 2.3-0.1 2.9 1 0.4 0.7 0.3 1.5-0.2 2.2 0.2 0.3 0.4 0.5 0.5 0.9 2.1 4.5 3.8 9.1 5.1 13.7 0.1-0.9 0.7-1.7 1.6-2 0.8-0.2 1.5-0.3 2.1-0.4-1.4-4.4-3-8.8-5-13.1-1.3-2.8-4-4.7-7.1-4.9-8.4-0.6-17-1-25.5-1-18.7 0-37.6 1.6-56.2 4.7-4.2 0.7-7.6 3.8-8.7 7.8-1.6 5.8-2.5 12.1-2.8 18.7h0.2c1.2 0.2 2 1.3 1.8 2.4s-1 1.8-2.1 1.8c0.1 4.2 0.4 8.6 0.9 12.8h0.5c0.6-0.1 1.2-0.1 1.7-0.1 1.2 0 2.1 1 2.1 2.1s-1 2.1-2.1 2.1c-0.4 0-0.9 0-1.3 0.1h-0.4c1.1 7.6 2.6 14.3 3.5 17.8 0.9 3.7 4.3 6.4 8.1 6.4h0.3l3.5-0.1c7.6-0.3 15.4-0.6 23.1-0.9v-0.1c-0.1-1.3 0.6-2.5 1.7-2.8z"/>
		<path d="m331.4 174c0.3-0.2 0.6-0.4 0.8-0.7 0.4-0.6 0.5-1.4 0.2-2.2-0.5-1.1-1.8-1.5-2.9-1-0.9 0.5-1.9 0.9-3 1.3-15.7 6.2-41.8 6.2-59.5 6.2-5.6 0-12.5-0.3-19-2.3-1.2-0.4-2.4-0.8-3.5-1.2-1.1-0.5-2.3 0.1-2.8 1.1-0.5 1.1 0.1 2.3 1.1 2.8 0.4 0.2 0.7 0.3 1.1 0.4 7.9 3 16.4 3.5 23.1 3.5 19.2 0.1 48.4 0.1 64.4-7.9z"/>
		<path d="m269.3 192.9c-0.6 0-1.2 0-1.7 0.1-6.6 0.9-10.6 7.3-10.6 13 0 7.8 6.5 12 12.7 12 7.6 0 13.3-6.7 13.3-12.6-0.1-5.9-5.9-12.5-13.7-12.5zm4.7 19.7c0.2 0.6 0.1 1.2-0.2 1.8-0.4 0.6-1.1 1-1.8 1-0.4 0-0.8-0.1-1.2-0.4-0.5-0.3-0.8-0.8-1.1-1.2h-0.1c-0.7 0-1.6-0.1-2.4-0.3-0.3 0.7-1.1 1.2-1.9 1.2-1.2 0-2.1-1-2.1-2.1 0-0.4 0.1-0.9 0.2-1.3-1.2-1.2-2.1-2.9-2.1-5.3 0-3.9 2.6-8.2 6.9-8.8 0.4-0.1 0.8-0.1 1.2-0.1 5.3 0 9.3 4.4 9.3 8.2 0 2.5-1.7 5.6-4.7 7.3z"/>
		<path d="m309.5 190.9h-1-0.9c-7.2 0-12 6.9-12 13.3 0 4.3 4.4 12 13.2 12 6.9 0 14.3-5.1 14.3-12.6 0-7.1-6-12.7-13.6-12.7zm3.8 20.2c0 0.2 0.1 0.4 0.1 0.6v0.2c0.2 1.2-0.6 2.3-1.8 2.5h-0.4c-1 0-1.9-0.7-2.1-1.8v-0.2c0-0.1 0-0.2-0.1-0.3h-0.4c-0.4 0-0.7 0-1.1-0.1-0.2 0.9-0.8 1.6-1.8 1.7-1.2 0.2-2.3-0.6-2.5-1.8-0.1-0.4-0.1-0.7-0.1-1.1v-0.5c-2.6-1.9-3.6-5-3.6-6 0-4.3 3.2-9 7.8-9h1 0.9c5.2 0 9.3 3.7 9.3 8.5 0.3 3.5-2.3 6-5.2 7.3z"/>
		<path d="m273.2 210.9c-0.3-1.2-1.1-3.9-4.7-3.9-2.2 0-4.5 1.6-5.1 4.2-0.1 0.4-0.2 0.8-0.2 1.3 0 1.2 1 2.1 2.1 2.1 0.9 0 1.6-0.5 1.9-1.2 0.1-0.3 0.2-0.6 0.2-0.9 0-0.8 0.7-1.2 1-1.2h0.4c0.1 0.1 0.2 0.5 0.2 0.7 0.1 0.5 0.3 1.1 0.7 1.7 0.3 0.4 0.6 0.9 1.1 1.2 0.4 0.2 0.8 0.4 1.2 0.4 0.7 0 1.4-0.3 1.8-1 0.4-0.5 0.4-1.2 0.2-1.8-0.1-0.4-0.3-0.8-0.7-1.1 0 0-0.1-0.3-0.1-0.5z"/>
		<path d="m308.2 204.3c-0.2 0-0.5 0-0.7 0.1-2.7 0.8-4 3.5-4.1 5.9v0.5c0 0.4 0 0.8 0.1 1.1 0.2 1.2 1.3 2 2.5 1.8 0.9-0.1 1.6-0.9 1.8-1.7 0-0.2 0.1-0.5 0-0.7v-0.4c0-0.8 0.3-1.5 0.6-1.9 0.4 0.7 0.7 2.3 0.8 3.2 0 0.1 0 0.2 0.1 0.3v0.2c0.2 1 1.1 1.8 2.1 1.8h0.4c1.2-0.2 2-1.3 1.8-2.5v-0.2c0-0.2-0.1-0.4-0.1-0.6-0.7-2.8-1.6-6.9-5.3-6.9z"/>
		<path d="m301.6 222.1c-4.6 1-9.6 1.1-14.7 1.1h-2.7c-1.2 0-2.1 1-2.1 2.1s1 2.1 2.1 2.1h2.7c5.4 0 10.6-0.1 15.6-1.2 1.2-0.3 1.9-1.4 1.6-2.6-0.2-1.1-1.4-1.8-2.5-1.5z"/>
		<path d="m239.5 218.8c1.2 0 2.1-1 2.1-2.1s-1-2.1-2.1-2.1c-0.5 0-1.1 0.1-1.7 0.1h-0.5c-0.3 0-0.6 0.1-0.9 0.1-2.1 0-4.5-1.9-4.5-7.2s1.5-5.7 3.7-5.7h0.4 0.3c1 0 1.9-0.8 2.1-1.8 0.2-1.2-0.6-2.3-1.8-2.4h-0.2c-0.3 0-0.5-0.1-0.8-0.1-8 0-8 7.3-8 10 0 7.9 4.4 11.4 8.7 11.4 0.5 0 1 0 1.5-0.1h0.4c0.4 0 0.9-0.1 1.3-0.1z"/>
		<path d="m337.9 187.8c0 0.2 0 0.4 0.1 0.6 0.1 0.3 0.2 0.6 0.4 0.8 0.5 0.6 1.4 1 2.2 0.8 0.9-0.2 1.6-0.3 2.3-0.4 0.3 0 0.5-0.1 0.8-0.1 2.6 0 3.9 5.6 3.9 9.6 0 4.8-1 5.6-1 5.5h-0.8c-1 0.1-1.8 0.6-2.2 1.5-0.5 1.1-0.1 2.3 0.9 2.9 0.3 0.2 0.6 0.2 1 0.2 0.2 0 0.5-0.1 0.7-0.1 0.1 0 0.2-0.1 0.3-0.1h0.2c3.5 0 5.2-3.3 5.2-9.8 0-4.8-1.7-13.9-8.2-13.9-0.6 0-1.3 0.1-2 0.2s-1.4 0.2-2.1 0.4c-1 0.2-1.7 1-1.7 1.9z"/>
		<path d="m227.3 284.2h0.4c1 0 1.9-0.7 2.1-1.7 0.1-0.4 0.2-0.8 0.2-1.2 0.1-0.7 0.3-1.3 0.4-1.9-0.5-0.4-0.8-0.8-1.2-1.2-0.2-0.2-0.4-0.5-0.7-0.8-0.8-0.8-0.8-2.2 0-3s2.2-0.8 3 0l0.2 0.2c1.7-5.2 4.3-8.3 10.3-10.3-0.1-0.1-0.2-0.1-0.3-0.2-1-0.7-1.2-2-0.5-3s2-1.2 3-0.5 1.8 1.5 2.4 2.6c6.8-1.3 16.7-1.9 31.4-2.3-0.3-1.4-0.5-2.8-0.6-4.3-42 1.1-47.6 4-51.8 24.9v0.2c-0.3 1.1 0.5 2.3 1.7 2.5z"/>
		<path d="m308.1 260.3l6.5-0.1c8.2-0.1 17.4-0.3 26.4-0.4 1.2-1.7 2.7-3.3 4.6-4.3h-0.4c-10.4 0.2-21.2 0.4-30.7 0.5h-6.5c0.1 0.9 0.1 1.8 0.1 2.7 0.1 0.6 0 1.1 0 1.6z"/>
		<path d="m294.4 272.8c8.2 0 13.2-4.5 13.7-12.5 0-0.5 0.1-1 0.1-1.6 0-0.9-0.1-1.8-0.1-2.7-0.3-3.5-1.1-7.2-1.9-10.5-0.4-1.8-0.8-3.4-1-4.9 0-0.1-0.1-0.3-0.1-0.4-0.2-1.2-1.3-2-2.5-1.8s-1.9 1.3-1.8 2.4c0.3 1.8 0.7 3.6 1.2 5.6 0.2 0.7 0.3 1.4 0.5 2.1 0.5 0.2 1 0.6 1.2 1.2 0.3 0.8 0.1 1.8-0.5 2.4 0.3 1.8 0.6 3.6 0.7 5.3 0.7 0.1 1.3 0.5 1.7 1.1 0.5 1 0.1 2.3-0.9 2.9-0.3 0.2-0.7 0.3-1 0.5-0.9 4.4-3.9 6.7-9.2 6.7-7 0-10.1-2.3-11.6-6.4-1.1-0.4-2.3-0.9-3.4-1.4s-1.5-1.8-1-2.9 1.8-1.5 2.9-1c0.2 0.1 0.3 0.2 0.5 0.2-0.1-1.5-0.2-3.1-0.3-4.8-0.9-0.5-1.9-1-2.7-1.6-1-0.7-1.2-2-0.5-3s2-1.2 3-0.5l0.1 0.1c-0.1-1.9-0.3-3.7-0.6-5.4-0.1-0.4-0.1-0.8-0.2-1.1-0.3-1.1-1.5-1.8-2.6-1.5s-1.8 1.5-1.5 2.6v0.1c0.7 2.5 0.7 5.6 0.8 9 0 1.8 0.1 3.7 0.2 5.6 0.1 1.4 0.3 2.9 0.6 4.3 1.2 6.4 5.1 11.9 16.2 11.9z"/>
		<path d="m341 259.8c-1.6 2.4-2.6 5.2-2.6 7.5 0 4.1 2.1 7.8 5.2 10.2 0.2-0.9 1-1.6 2-1.6 1.2-0.1 2.2 0.9 2.2 2 0 0.6 0.1 1.2 0.1 1.8 1.2 0.3 2.4 0.5 3.7 0.5 2.4 0 4.8-0.8 7-2.2-0.1-0.9-0.3-1.8-0.4-2.6-0.2-1.2 0.7-2.2 1.8-2.4 1.1-0.1 2 0.5 2.3 1.5 1.6-2.1 2.6-4.7 2.6-7.6 0-3.6-1.3-6.6-3.7-8.7-2.7-2.4-6.3-3.8-10.2-4-2.1-0.1-3.9 0.4-5.5 1.3-1.8 1-3.3 2.5-4.5 4.3zm9.9-1.4c2.1 0.1 5.1 0.8 7.7 3 1.5 1.3 2.2 3.1 2.2 5.5 0 5.1-4.9 9.1-9.1 9.1-4.8 0-8.9-4.1-8.9-8.7 0-3.5 3.3-8.9 7.8-8.9h0.3z"/>
		<path d="m248.2 269.7c0-2.6-0.5-4.8-1.6-6.5-0.6-1-1.4-1.9-2.4-2.6s-2.3-0.4-3 0.5c-0.7 1-0.4 2.3 0.5 3 0.1 0.1 0.2 0.1 0.3 0.2 1.3 1 1.9 2.8 1.9 5.4 0 4.5-2.9 6.8-8.7 6.8-1.9 0-2-0.2-2.7-1-0.2-0.3-0.5-0.6-0.8-0.9l-0.2-0.2c-0.8-0.8-2.2-0.8-3 0s-0.8 2.2 0 3c0.3 0.3 0.5 0.5 0.7 0.8 0.4 0.5 0.8 0.9 1.2 1.2 1 0.8 2.3 1.3 4.8 1.3 8.1 0 13-4.1 13-11z"/>
		<path d="m308.8 304.2c0 0.6 0.3 1.2 0.8 1.6 0.4 0.3 0.9 0.5 1.4 0.5h0.3c4-0.6 8.1-0.8 12.1-1.1 2.7-0.2 5.6-0.3 8.3-0.6 1.2-0.1 2-1.1 1.9-2.3-0.2-2.7-0.5-5.4-0.9-8.1-0.2-1.3-0.3-2.7-0.5-4-0.1-1.1-1.1-2-2.2-1.9h-0.4c-6.4 0.4-13 0.7-19.5 1.5-1.1 0.1-1.9 1.1-1.9 2.2 0.2 2.9 0.3 5.9 0.4 8.8l0.2 3.4zm19.5-11.6c0.1 0.7 0.2 1.4 0.2 2 0.2 1.9 0.5 3.9 0.7 5.8-2 0.2-4.1 0.3-6.1 0.4-3.3 0.2-6.7 0.4-10.1 0.8v-1l-0.3-6.9c5.2-0.5 10.4-0.8 15.6-1.1z"/>
		<path d="m302.6 257.6c-2.8 1.5-6 2.2-9.4 2.2-3.7 0-7.7-0.9-11.5-2.7-0.2-0.1-0.3-0.2-0.5-0.2-1.1-0.5-2.3-0.1-2.9 1-0.5 1.1-0.1 2.3 1 2.9 1.1 0.5 2.2 1 3.4 1.4 3.5 1.2 7 1.9 10.5 1.9 3.7 0 7.1-0.7 10.3-2.2 0.4-0.2 0.7-0.3 1-0.5 1-0.5 1.5-1.8 0.9-2.9-0.3-0.7-1-1.1-1.7-1.1-0.3-0.1-0.7 0-1.1 0.2z"/>
		<path d="m300.9 248.5c-2.9 1.2-6 1.8-9 1.8-3.9 0-7.5-1.1-10.5-3.1l-0.1-0.1c-1-0.7-2.3-0.4-3 0.5-0.7 1-0.4 2.3 0.5 3 0.9 0.6 1.8 1.1 2.7 1.6 3.1 1.5 6.6 2.4 10.4 2.4 3.5 0 7.2-0.7 10.7-2.1 0.3-0.1 0.5-0.3 0.7-0.4 0.6-0.6 0.9-1.5 0.5-2.4-0.2-0.6-0.7-1-1.2-1.2-0.6-0.2-1.2-0.2-1.7 0z"/>
		<path d="m317 341.5c0.2 0.5 0.5 1 0.7 1.5 0.3 0.5 0.5 1 0.8 1.6 3.1-0.2 6.2-0.5 9.3-1.2-0.1-0.2-0.2-0.3-0.4-0.5-0.8-0.9-0.6-2.3 0.3-3 0.9-0.8 2.3-0.6 3 0.3 0.5 0.6 1 1.2 1.4 1.8 1.6-0.7 3.2-1.5 4.7-2.6l-1.4-1.4c-0.7-0.7-0.8-1.8-0.2-2.7-5.5 4.4-12.7 4.9-19.9 5.1 0.8 0 1.4 0.4 1.7 1.1z"/>
		<path d="m344.3 288.4c0.4 5.1 0.8 10.3 0.8 15.4 0 16.7-3.5 25.7-8.7 30.6 0.8-0.3 1.7-0.1 2.3 0.5l1.6 1.6c1.8-1.9 3.5-4.4 4.9-7.4-0.3 0-0.6-0.1-0.8-0.1-1.2-0.1-2-1.2-1.9-2.4s1.2-2 2.4-1.9c0.6 0.1 1.2 0.2 1.9 0.3 0.9-2.8 1.6-6.1 2.1-9.8h-0.3-0.4c-1 0-1.9-0.7-2.1-1.7-0.2-1.2 0.5-2.3 1.7-2.5 0.5-0.1 1-0.2 1.5-0.2 0.1-2.2 0.2-4.5 0.2-7 0-2.2-0.1-4.3-0.2-6.5-0.5 0-1 0.1-1.5 0.1-1.2 0-2.1-1-2.1-2.1s1-2.1 2.1-2.1c0.4 0 0.8 0 1.2-0.1-0.1-1.7-0.2-3.3-0.4-4.9l-0.6-8.4c0-0.6-0.1-1.2-0.1-1.8-0.1-1.2-1-2.1-2.2-2-1 0-1.8 0.7-2 1.6 0 0.2-0.1 0.4-0.1 0.6 0.2 3.3 0.4 6.8 0.7 10.2z"/>
		<path d="m360.1 273c-1.2 0.2-2 1.2-1.8 2.4 0.1 0.8 0.2 1.7 0.4 2.6 0.5 3.7 1.1 7.8 1.8 12.1 0.1 0.9 0.3 1.8 0.4 2.6 0.7 0.4 1.1 1.2 1 2 0 0.5-0.2 0.9-0.6 1.3 0.7 4.9 1.5 9.9 2.1 14.6 1.2-0.1 2.2 0.8 2.3 2 0.1 1.1-0.7 2-1.8 2.2 0.7 6.2 1.2 11.7 1.2 15.9v0.7c0.4 0.1 0.7 0.2 1.1 0.3 1.2 0.3 1.9 1.4 1.6 2.5-0.2 1-1.1 1.7-2.1 1.7h-0.5c-0.1 0-0.3-0.1-0.4-0.1-0.6 6.1-2.4 11.9-7.4 16.4 0 0.2-0.1 0.3-0.2 0.5-0.4 0.8-1.1 1.2-1.9 1.2-3.4 2.3-7.8 4.1-13.8 5.2 0.2 1.1-0.5 2.1-1.5 2.4-0.2 0.1-0.4 0.1-0.6 0.1-0.9 0-1.8-0.6-2.1-1.6 0-0.1-0.1-0.2-0.1-0.3-2.7 0.3-5.6 0.4-8.8 0.4-1.6 0-4.2-0.1-7.1-0.3-0.1 0.8-0.2 1.5-0.4 2.2-0.3 0.9-1.1 1.6-2.1 1.6-0.2 0-0.4 0-0.6-0.1-1.1-0.3-1.8-1.5-1.5-2.6 0.1-0.4 0.2-0.8 0.2-1.3-8.8-0.6-19.1-1.9-21.2-3.5 0.1-10.4 6.2-11.1 17.7-11.3-0.2-0.4-0.4-0.8-0.6-1.3-0.5-1.1-0.1-2.3 1-2.9 0.2-0.1 0.4-0.1 0.5-0.2h-0.9c-10.8 0.3-21.9 0.5-21.9 16v0.1c1.1-0.1 2.2-0.2 3.3-0.2 1.2-0.1 2.2 0.8 2.3 2 0.1 1.1-0.7 2-1.7 2.2 2.4 0.9 6.1 1.7 11.7 2.4 1.1-0.3 1.7-0.6 2.1-0.8 0.4-0.9 1.4-1.3 2.4-1.1 1.1 0.3 1.8 1.4 1.6 2.5 7.6 0.6 14.5 0.8 15.2 0.8 28.2 0 40.8-10.4 40.8-33.6 0-9.7-2.6-26.5-4.8-41.3-0.8-5.4-1.6-10.4-2.2-14.6 0-0.1 0-0.2-0.1-0.4 0.1-0.9-0.9-1.6-2-1.4z"/>
		<path d="m321.6 356.4c0-0.6-0.1-1.2-0.1-1.8 0-3.8-1.4-7.1-2.9-10.1-0.3-0.5-0.5-1-0.8-1.6-0.3-0.5-0.5-1-0.7-1.5-0.3-0.6-0.9-1-1.6-1.1h-0.8c-0.2 0-0.4 0.1-0.5 0.2-1.1 0.5-1.5 1.8-1 2.9 0.2 0.4 0.4 0.8 0.6 1.3 0 0.1 0.1 0.2 0.1 0.2 1.7 3.3 3.3 6.4 3.3 9.7 0 0.7 0 1.4 0.1 2 0 0.6 0.1 1.2 0.1 1.8 0 0.4 0 0.7-0.1 1 0 0.5-0.1 0.9-0.2 1.3-0.3 1.1 0.3 2.3 1.5 2.6 0.2 0.1 0.4 0.1 0.6 0.1 0.9 0 1.8-0.6 2.1-1.6 0.2-0.7 0.3-1.4 0.4-2.2 0-0.4 0.1-0.8 0.1-1.3-0.2-0.5-0.2-1.2-0.2-1.9z"/>
		<path d="m332.2 341.9c-0.5-0.6-0.9-1.2-1.4-1.8-0.8-0.9-2.1-1-3-0.3-0.9 0.8-1 2.1-0.3 3 0.1 0.2 0.2 0.3 0.4 0.5 4.1 5 7.9 10 9.7 16.3 0 0.1 0.1 0.2 0.1 0.3 0.3 1 1.1 1.6 2.1 1.6 0.2 0 0.4 0 0.6-0.1 1.1-0.3 1.7-1.3 1.5-2.4v-0.2c-2-6.7-5.6-11.9-9.7-16.9z"/>
		<path d="m356.5 349.8c-6-2.9-10.6-7.6-15.5-12.5l-0.8-0.8-1.6-1.6c-0.6-0.6-1.5-0.8-2.3-0.5-0.3 0.1-0.5 0.3-0.7 0.5-0.1 0.1-0.2 0.2-0.2 0.4-0.5 0.8-0.5 1.9 0.2 2.7l1.4 1.4 1 1c4.9 5 10 10.2 16.7 13.4 0.3 0.1 0.6 0.2 0.9 0.2 0.8 0 1.6-0.4 1.9-1.2 0.1-0.1 0.1-0.3 0.2-0.5 0.2-1.1-0.3-2.1-1.2-2.5z"/>
		<path d="m346.6 325c-0.6-0.1-1.2-0.2-1.9-0.3-1.2-0.1-2.2 0.7-2.4 1.9-0.1 1.2 0.7 2.2 1.9 2.4 0.3 0 0.6 0.1 0.8 0.1 3.6 0.6 7 2 10.5 3.4 3 1.3 6.1 2.5 9.5 3.3 0.1 0 0.3 0.1 0.4 0.1h0.5c1 0 1.9-0.7 2.1-1.7 0.3-1.2-0.5-2.3-1.6-2.5-0.4-0.1-0.7-0.2-1.1-0.3-2.7-0.7-5.3-1.8-8-2.9-3.5-1.4-6.9-2.8-10.7-3.5z"/>
		<path d="m357.5 310.6c-1.3 0-2.6-0.1-4-0.1-1.7 0-3.1 0.1-4.4 0.2-0.5 0.1-1 0.1-1.5 0.2-1.2 0.2-1.9 1.3-1.7 2.5 0.2 1 1.1 1.7 2.1 1.7h0.4 0.3c1.4-0.2 2.9-0.4 4.8-0.4 1.3 0 2.5 0 3.8 0.1 2.2 0.1 4.3 0.2 6.4 0h0.2c1.1-0.2 1.8-1.1 1.8-2.2-0.1-1.2-1.1-2.1-2.3-2-1.9 0.1-3.9 0.1-5.9 0z"/>
		<path d="m352.7 292.7c-1.3 0.1-2.5 0.2-3.8 0.3-0.4 0-0.8 0.1-1.2 0.1-1.2 0-2.1 1-2.1 2.1s1 2.1 2.1 2.1c0.5 0 1 0 1.5-0.1 1.4-0.1 2.7-0.2 4-0.3 2.2-0.2 4.3-0.5 6.5-0.3 0.7 0 1.3-0.2 1.7-0.7 0.3-0.3 0.5-0.8 0.6-1.3 0.1-0.8-0.4-1.6-1-2-0.3-0.2-0.6-0.3-0.9-0.3-2.7-0.1-5.1 0.2-7.4 0.4z"/>
		<path d="m312 361c-1-0.2-2 0.2-2.4 1.1-0.3 0.2-0.9 0.5-2.1 0.8-4.1 1.1-14.9 2.5-43.7 3.3-1.1 0-1.9 0.1-2.2 0.1l-47.1 1.5-27.9 0.9c-0.9 0-1.2-0.2-1.2-0.2-0.1-0.1-0.2-0.5-0.3-0.8-0.1-0.2-0.2-0.5-0.3-0.8-0.3-0.7-0.7-1.6-1.6-2.2-0.9-0.7-2.3-0.5-3 0.4-0.1 0.1-0.1 0.2-0.2 0.3-0.5 0.9-0.3 2.1 0.6 2.7 0.1 0.1 0.2 0.5 0.3 0.8 0.4 1.3 1.2 4 5.5 4l28-0.9c21.3-0.7 46.9-1.4 47.1-1.5 0.4 0 1.2 0 2.2-0.1 48.2-1.4 49-4.6 49.6-6.9v-0.1c0.4-1-0.2-2.1-1.3-2.4z"/>
		<path d="m256.6 138.9h0.3c1.2-0.1 2-1.2 1.9-2.4-0.1-0.5-0.1-1.1-0.1-1.6 0-0.7 0.1-1.5 0.2-2.2 0.2-1.2-0.6-2.3-1.8-2.5s-2.3 0.6-2.5 1.8c-0.2 0.9-0.2 1.9-0.2 2.9 0 0.7 0 1.4 0.1 2.1 0.1 1.1 1 1.9 2.1 1.9z"/>
		<path d="m261.9 126.2c0.4 0 0.8-0.1 1.1-0.3 1-0.6 2.1-1 3.2-1.2h0.1c1.2-0.2 1.9-1.3 1.7-2.4-0.2-1.2-1.3-1.9-2.5-1.8-1.8 0.3-3.4 0.9-4.9 1.8-1 0.6-1.3 1.9-0.7 2.9 0.6 0.6 1.3 1 2 1z"/>
		<path d="m264.1 149.9c0.3 0.1 0.5 0.2 0.8 0.2 0.8 0 1.6-0.5 2-1.3 0.4-1.1-0.1-2.3-1.2-2.8s-2.2-1.1-3.1-1.9-2.2-0.7-3 0.2-0.7 2.2 0.2 3c1.2 1 2.7 1.9 4.3 2.6z"/>
		<path d="m274.8 150c0.3 0 0.5 0 0.8-0.2 1.5-0.6 2.9-1.4 4.3-2.4 1-0.7 1.2-2 0.5-3s-2-1.2-3-0.5c-1.1 0.8-2.2 1.4-3.3 1.9-1.1 0.4-1.6 1.7-1.2 2.8 0.2 0.9 1 1.4 1.9 1.4z"/>
		<path d="m275.5 125.3c1.3 0.4 2.4 1 3.5 1.6 0.4 0.2 0.8 0.3 1.1 0.3 0.7 0 1.4-0.4 1.8-1 0.6-1 0.3-2.3-0.7-3-1.3-0.8-2.8-1.5-4.4-2.1-1.1-0.4-2.3 0.3-2.7 1.4-0.4 1.3 0.3 2.5 1.4 2.8z"/>
		<path d="m284 139.7c0.2 0.1 0.5 0.1 0.7 0.1 0.9 0 1.7-0.6 2-1.4 0.5-1.5 0.8-3 0.8-4.4v-0.7c-0.1-1.2-1.1-2.1-2.3-2s-2.1 1.1-2 2.3v0.5c0 1-0.2 2-0.5 3-0.4 1 0.2 2.3 1.3 2.6z"/>
		<path d="m409.9 286.7c-1.2 0.3-1.9 1.4-1.6 2.5 0.2 1 1.1 1.7 2.1 1.7 0.2 0 0.3 0 0.5-0.1 1.5-0.3 3-0.8 4.3-1.4 1.1-0.5 1.6-1.7 1.1-2.8s-1.7-1.6-2.8-1.1c-1.2 0.5-2.3 0.9-3.6 1.2z"/>
		<path d="m401.5 286.4c-1.1-0.4-2.2-0.9-3.1-1.5-1-0.7-2.3-0.5-3 0.5s-0.5 2.3 0.5 3c1.3 0.9 2.7 1.6 4.3 2.1 0.2 0.1 0.4 0.1 0.7 0.1 0.9 0 1.7-0.6 2-1.5 0.4-1.1-0.2-2.3-1.4-2.7z"/>
		<path d="m423.8 275.6c-1.1-0.3-2.3 0.4-2.6 1.5s-0.8 2.2-1.4 3.2-0.3 2.3 0.7 3c0.4 0.2 0.8 0.3 1.1 0.3 0.7 0 1.4-0.4 1.8-1 0.9-1.4 1.5-2.8 1.9-4.4 0.3-1.2-0.4-2.3-1.5-2.6z"/>
		<path d="m412.3 257.8c-1.5-0.4-3.2-0.5-4.8-0.4-1.2 0.1-2.1 1.1-2 2.3s1.1 2.1 2.3 2 2.3 0 3.4 0.3h0.1c0.2 0 0.3 0.1 0.5 0.1 1 0 1.8-0.7 2-1.6 0.4-1.2-0.4-2.4-1.5-2.7z"/>
		<path d="m421.5 263.4c-0.8-0.9-2.1-1-3-0.2s-1 2.1-0.2 3 1.5 1.9 2 2.9c0.4 0.8 1.1 1.2 1.9 1.2 0.3 0 0.6-0.1 0.9-0.2 1.1-0.5 1.5-1.8 1-2.9-0.6-1.3-1.5-2.6-2.6-3.8z"/>
		<path d="m397.6 261.4c-1.2 0.9-2.3 2-3.3 3.2-0.8 0.9-0.6 2.3 0.3 3 0.4 0.3 0.9 0.5 1.4 0.5 0.6 0 1.2-0.3 1.6-0.8 0.8-0.9 1.7-1.8 2.6-2.5s1.1-2.1 0.4-3-2.1-1.1-3-0.4z"/>
		<path d="m392.2 272.5c-1.2-0.1-2.2 0.7-2.4 1.9-0.1 0.5-0.1 1.1-0.1 1.6 0 1.1 0.1 2.1 0.3 3.1s1.1 1.7 2.1 1.7h0.4c1.2-0.2 1.9-1.4 1.7-2.5-0.1-0.8-0.2-1.5-0.2-2.3 0-0.4 0-0.8 0.1-1.2 0.2-1.1-0.7-2.2-1.9-2.3z"/>
		<path d="m160.5 265h-80.5c-2.7 0-2.7 4.2 0 4.2h80.5c2.7 0.1 2.7-4.2 0-4.2z"/>
		<path d="m171.7 251.2h-48.5c-2.7 0-2.7 4.2 0 4.2h48.5c2.8 0 2.8-4.2 0-4.2z"/>
		<path d="m142.3 290.1h-25.1c-2.7 0-2.7 4.2 0 4.2h25.1c2.7 0.1 2.7-4.2 0-4.2z"/>
		<path d="m381.2 312.5h91.8c2.7 0 2.7-4.2 0-4.2h-91.8c-2.7 0-2.7 4.2 0 4.2z"/>
		<path d="m373.4 245.9h58c2.7 0 2.7-4.2 0-4.2h-58c-2.7-0.1-2.7 4.2 0 4.2z"/>
		<path d="m402.9 232.9h46.7c2.7 0 2.7-4.2 0-4.2h-46.7c-2.8 0-2.8 4.2 0 4.2z"/>
		<path d="m449.6 279.7h29.4c2.7 0 2.7-4.2 0-4.2h-29.4c-2.7-0.1-2.7 4.2 0 4.2z"/>
</g>
</svg>
