<?xml version="1.0" encoding="UTF-8" standalone="no"?>
<!-- Generator: Adobe Illustrator 21.0.0, SVG Export Plug-In . SVG Version: 6.00 Build 0)  -->
<svg style="enable-background:new 0 0 559 520" xmlns="http://www.w3.org/2000/svg" xml:space="preserve" version="1.1" y="0px" x="0px" xmlns:xlink="http://www.w3.org/1999/xlink" viewBox="0 0 559 520">
<style type="text/css">
	.st0{fill:#CFEBF6;}
	.st1{fill-rule:evenodd;clip-rule:evenodd;}
	.st2{fill:#FFFFFF;}
	.st3{fill:#E07A6F;}
	.st4{fill:#30211A;}
		.st5{fill:none;stroke:#000000;stroke-width:2;stroke-linecap:round;stroke-linejoin:round;stroke-miterlimit:10;stroke-dasharray:6,9;}
</style>
<g id="Layer_1">
	<path class="st0" d="m455.8 275.2m-100.2 103.3c0.8-0.3 1.7-0.6 2.5-1 38.7-14.2 72.6-37.2 94.8-72.5 3.8-6 7.3-12.5 8.1-21.1 0.6-6.9-0.8-15.5-4.9-23.8-0.7-22.8-7.3-49-24.5-72.3-21.1-28.7-52.7-45-76.9-46.4-13.3-0.7-25 2.2-36.5 5.3-38.3 10.2-75.9 21.6-112.7 34.1-3.6 1.2-7.1 2.4-10.7 3.7-24.4 8.7-48 18.8-66 36.3-7.8 7.5-14.6 16.5-24 21.7-7.7 4.3-17.2 6.2-23.6 12.1-5.5 5-8.7 12.8-10.7 21.3-2.3 10.4-3.1 22.3 0.3 35.6s11.1 28.2 22.1 39c10.6 10.6 22.8 16.3 33.8 25.9 6.9 6.1 13.4 13.7 20.7 18.4 7.7 4.9 15.1 5.7 22 6.3 21.2 1.5 41.5 0.6 61.5-0.8 43.8-2.7 86.6-8.2 124.7-21.8"/>
		<path d="m109.2 338.9c0-0.3 0.1-0.5 0.3-0.5 0.1 0 0.3 0 0.5 0.1s0.4 0.1 0.5 0.1 0.3-0.1 0.4-0.3 0.2-0.5 0.3-0.8c0.1-0.6 0.1-1.1 0.1-1.6-0.1-0.5-0.2-0.9-0.5-1.4-0.2-0.5-0.5-1-0.8-1.4s-0.6-0.9-0.9-1.3c-0.7-1-1.1-2-1.3-2.9-0.1-0.9 0.1-1.6 0.5-2.1 0.3-0.3 0.6-0.5 1-0.5 0.2 0 0.4 0 0.6 0.1s0.4 0.2 0.5 0.4l0.1 0.4c-0.5 0.1-0.8 0.1-0.9 0-0.2 0.1-0.4 0.2-0.5 0.4-0.2 0.4-0.3 0.8-0.3 1.2 0.1 0.4 0.2 0.8 0.4 1.3l0.6 1.2c0.2 0.4 0.5 0.7 0.7 1s0.4 0.6 0.6 0.8 0.2 0.3 0.2 0.3v0.1c0.1 0.1 0.2 0.3 0.3 0.6s0.2 0.5 0.3 0.7c0.2 0.5 0.3 0.9 0.4 1.3s0.1 0.8 0 1.1c0 0.4-0.1 0.7-0.3 1.1-0.1 0.3-0.3 0.6-0.6 0.9-0.3 0.2-0.5 0.4-0.8 0.4s-0.5 0.1-0.7 0.1-0.4 0-0.6-0.1c0-0.5-0.1-0.6-0.1-0.7z"/>
		<path d="m116.3 334.6c0.1-4.3 0.2-7.3 0.1-9v-0.1c0-0.1 0.1-0.3 0.2-0.4s0.2-0.2 0.3-0.2h0.3c0.1 0.1 0.2 0.2 0.2 0.3 0.2 1.3 0.5 3.3 0.9 5.9s0.7 4.5 0.9 5.9c0 0.3 0 0.6-0.2 0.8-0.1 0.1-0.2 0.1-0.2 0.1-0.2 0.1-0.3 0.1-0.4-0.1 0-0.1 0-0.1-0.1-0.2v-0.3c-0.1-0.8-0.2-1.5-0.3-2s-0.2-1.1-0.3-2c-0.1-0.8-0.3-2.4-0.7-4.7 0 0.4 0 1-0.1 2s-0.1 1.7-0.1 2.1v1.1 0.8c0 0.2 0 0.5-0.1 0.7-0.1 0.5-0.2 0.8-0.4 0.8-0.3 0-0.6-0.4-0.7-1.5-0.1-0.5-0.5-1.5-1-3.1-0.5-1.5-0.9-2.6-1-3.2 0.1 1 0.2 1.8 0.3 2.3l1.1 6.9c0 0.2 0 0.5-0.2 0.7-0.3 0-0.5 0-0.6-0.2s-0.2-0.4-0.3-0.7l-0.3-2.8-1-6.4-0.3-2.1 0.4-0.3c0.3 0 0.8 0.9 1.4 2.8 0.5 1.5 1 2.8 1.3 4.1 0.6 1.2 0.8 1.9 0.9 2z"/>
		<path d="m120.7 337.2c0-0.3 0.1-0.5 0.3-0.5 0.1 0 0.3 0 0.5 0.1s0.4 0.1 0.5 0.1 0.3-0.1 0.4-0.3 0.2-0.5 0.3-0.8c0.1-0.6 0.1-1.1 0.1-1.6-0.1-0.5-0.2-0.9-0.5-1.4-0.2-0.5-0.5-1-0.8-1.4s-0.6-0.9-0.9-1.3c-0.7-1-1.1-2-1.3-2.9-0.1-0.9 0.1-1.6 0.5-2.1 0.3-0.3 0.6-0.5 1-0.5 0.2 0 0.4 0 0.6 0.1s0.4 0.2 0.5 0.4v0.4c-0.5 0.1-0.8 0.1-0.9 0-0.2 0.1-0.4 0.2-0.5 0.4-0.2 0.4-0.3 0.8-0.3 1.2s0.2 0.8 0.4 1.3l0.6 1.2c0.2 0.4 0.5 0.7 0.7 1s0.4 0.6 0.6 0.8 0.2 0.3 0.2 0.3v0.1c0.1 0.1 0.2 0.3 0.3 0.6s0.2 0.5 0.3 0.7c0.2 0.5 0.3 0.9 0.4 1.3s0.1 0.8 0 1.1c0 0.4-0.1 0.7-0.3 1.1-0.1 0.3-0.3 0.6-0.6 0.9-0.3 0.2-0.5 0.4-0.8 0.4s-0.5 0.1-0.7 0.1-0.4 0-0.6-0.1c0.1-0.4 0-0.5 0-0.7z"/>
		<path d="m129.5 323l0.1 0.8c0 0.1 0 0.2 0.1 0.3-0.1 0.2-0.1 0.6-0.2 1.1s-0.2 0.9-0.2 1c-0.1 0.2-0.1 0.3-0.2 0.4-0.1 0.3-0.2 0.5-0.2 0.6 0.1 0.5 0.4 1.4 1 2.7s1.1 2.1 1.4 2.4c0.2-0.8 0.3-1.8 0.1-3v-0.1c-0.2 0-0.3 0-0.5-0.2l-0.1-0.4c0.3 0 0.6-0.1 1.1-0.2 0.4-0.1 0.7-0.2 0.9-0.3 0.3 0 0.5 0.1 0.5 0.4s-0.2 0.5-0.8 0.6l-0.4 0.1c0 0.3 0.1 0.7 0.1 1.1 0.1 0 0.1 0.3 0 1.1-0.1 0.7-0.2 1.2-0.3 1.4 0.4 0.3 0.7 0.4 1.1 0.4l0.7-0.1 0.3 0.2c0 0.2 0 0.4-0.2 0.5-0.1 0.1-0.3 0.2-0.6 0.2-0.5 0.1-1.1-0.1-1.7-0.4-0.5 0.5-1.1 0.8-1.6 0.9s-0.9 0-1.3-0.2-0.7-0.5-1-0.9c-0.2-0.4-0.4-0.8-0.5-1.2s-0.1-0.8-0.1-1.2c0-0.4 0-0.8 0.1-1.2 0.1-0.6 0.4-1.4 0.7-2.5l-0.4-2.2-0.2-1.4c-0.1-0.4 0-0.8 0.1-1s0.3-0.3 0.5-0.4c0.2 0 0.5 0 0.9 0.2 0.5 0 0.7 0.2 0.8 0.5zm-1.1 5.4c-0.4 1-0.6 2.1-0.4 3.3 0.1 0.8 0.4 1.5 0.9 1.8 0.3 0.2 0.6 0.3 1 0.2 0.2 0 0.4-0.1 0.6-0.2s0.4-0.3 0.5-0.4c0 0-0.2-0.2-0.4-0.3-0.2-0.2-0.5-0.4-0.7-0.8-0.2-0.3-0.5-0.8-0.7-1.3s-0.5-1.4-0.8-2.3zm-0.1-4.1l0.2 1.5v0.2c0.1-0.3 0.2-0.7 0.3-1.2s0.1-0.8 0.1-1.1c-0.1-0.5-0.2-0.8-0.5-0.7-0.1 0.1-0.1 0.2-0.2 0.4l0.1 0.9z"/>
		<path d="m139.4 334.2l0.6-0.1c0.4-0.1 0.6 0 0.7 0.3 0 0.2 0 0.3-0.2 0.4-0.1 0.1-0.3 0.2-0.5 0.2l-1.6 0.2c-0.1 0-0.3 0-0.4-0.1s-0.2-0.2-0.2-0.3v-0.6-0.5l-0.4-2.1-0.6-4.8-0.3-1.4c-0.1-0.8 0.1-1.2 0.5-1.3 0.1 0 0.3 0 0.4 0.1h0.3 0.4 0.4c0.3 0 0.5 0.2 0.5 0.4s-0.1 0.4-0.4 0.6c-0.5-0.1-1-0.1-1.3-0.1 0 0.2 0.1 0.5 0.1 0.7l0.3 2.4s0 0.1 0.1 0.3l0.6-0.1c0.5-0.1 0.8 0 0.9 0.3 0 0.2 0 0.3-0.1 0.4s-0.2 0.2-0.4 0.2-0.3 0-0.5-0.1l-0.4 0.1c0.1 0.4 0.2 0.8 0.2 1.2l0.4 3c0.3 0.4 0.5 0.7 0.9 0.7z"/>
		<path d="m144.9 327.9c0 0.1-0.3 0.2-0.9 0.4-1 0.2-1.6 0.3-1.9 0.3-0.5 0.1-0.8-0.1-0.8-0.4 0-0.1 0.3-0.2 0.9-0.4 1-0.2 1.6-0.3 1.8-0.3 0.6 0 0.8 0.1 0.9 0.4z"/>
		<path d="m147.4 333.2l-0.8-5.9c-0.4-2.6-0.8-4.6-1.3-5.8 0.1-0.3 0.3-0.4 0.6-0.5 0.4-0.1 0.8 0 1.2 0.1s0.7 0.3 0.9 0.6c0.5 0.6 0.8 1.3 1 2.1 0.1 0.8 0 1.6-0.2 2.3s-0.7 1.3-1.3 1.8l0.9 5.1c0.1 0.5-0.1 0.7-0.5 0.8-0.1 0-0.2 0-0.3-0.1-0.2-0.2-0.2-0.4-0.2-0.5zm-0.1-6.2c0.7-0.9 1-1.9 0.9-3-0.1-0.8-0.3-1.3-0.7-1.6-0.2-0.2-0.6-0.4-1.1-0.6 0.1 0.6 0.2 1.4 0.4 2.6 0.3 1.2 0.4 2 0.5 2.6z"/>
		<path d="m155 328.1c0.4 3.2 0 4.8-1.3 5-1.2 0.2-2.1-1.2-2.6-4.2-0.1-0.3-0.1-0.6-0.1-0.9l-0.2-1v-0.3c-0.3-2.3-0.2-3.8 0.4-4.5 0.1-0.2 0.3-0.3 0.5-0.3s0.4 0.1 0.6 0.1 0.4 0 0.5 0.1c0.2 0.1 0.5 0.3 0.7 0.6 0.3 0.4 0.5 0.8 0.7 1.5 0.2 0.6 0.3 1.3 0.4 1.9l0.4 2zm-3.6-3.5l0.2 1 0.2 1.6c0 0.1 0 0.3 0.1 0.5 0 0.2 0.1 0.4 0.1 0.7 0.1 0.3 0.1 0.6 0.2 0.9s0.1 0.6 0.2 0.9l0.3 0.9c0.1 0.3 0.2 0.5 0.3 0.7 0.2 0.5 0.4 0.7 0.7 0.7s0.5-0.4 0.6-1c0.1-0.9 0.1-2-0.1-3.3l-0.2-1.7c-0.2-1.2-0.3-2-0.5-2.4s-0.3-0.7-0.4-0.9c-0.2-0.4-0.5-0.6-0.9-0.5-0.8 0-1 0.6-0.8 1.9z"/>
		<path d="m156.9 331.6h0.9c0.2 0 0.4-0.1 0.5-0.4 0.1-0.2 0.2-0.4 0.3-0.7 0.1-0.5 0.1-1 0-1.4s-0.2-0.8-0.4-1.2-0.4-0.7-0.6-1-0.5-0.6-0.7-1c-0.6-0.8-0.9-1.6-1-2.4-0.1-0.5 0-0.9 0.1-1.3 0.2-0.8 0.6-1.2 1.1-1.2 0.2 0 0.4 0 0.6 0.1s0.3 0.2 0.3 0.4c0 0.3-0.1 0.4-0.3 0.4h-0.4c-0.3 0.1-0.5 0.5-0.5 1.3v0.6c0 0.2 0.1 0.5 0.3 0.8 0.1 0.3 0.3 0.6 0.5 0.8s0.4 0.5 0.6 0.8 0.4 0.6 0.6 0.8c0.4 0.6 0.7 1.4 0.8 2.2 0.1 0.7 0 1.3-0.1 2-0.1 0.3-0.3 0.6-0.5 0.8s-0.5 0.4-0.9 0.4c-0.2 0-0.4 0-0.6-0.1s-0.3-0.2-0.3-0.4l-0.3-0.3z"/>
		<path d="m162.5 330v-0.6c-0.1-0.1-0.3-1.4-0.8-3.7s-0.7-3.7-0.8-4.3c-0.6 0.1-1 0.1-1.2 0s-0.3-0.2-0.3-0.3 0-0.2 0.1-0.3 0.2-0.1 0.3-0.2l2.3-0.2h0.3c0.3 0 0.5 0.1 0.6 0.3 0 0.1 0 0.3-0.1 0.4s-0.2 0.2-0.4 0.2h-0.8v0.2c0.1 1 0.5 2.6 0.9 4.6 0.5 2.1 0.8 3.6 0.9 4.7 0 0.1 0 0.3-0.1 0.4s-0.2 0.2-0.3 0.2l-0.4 0.1-0.2-1.5z"/>
		<path d="m169.1 327.9v0.3c0 0.1 0.1 0.5 0.3 1s0.3 0.8 0.3 1 0 0.4-0.2 0.5h-0.6c-0.1-0.1-0.2-0.2-0.3-0.5 0-0.3-0.2-0.9-0.5-1.8h-0.5l-0.5 0.1h-0.7v0.2 0.3 0.4s0 0.3 0 0.4v0.4c0 0.2 0 0.3-0.1 0.4 0 0.1-0.1 0.2-0.1 0.3-0.1 0.2-0.2 0.3-0.3 0.3s-0.3 0-0.4-0.1-0.2-0.2-0.2-0.3l0.3-3.6c0-1.2 0.1-2 0.1-2.2s0-0.7 0.1-1.4c0.1-0.7 0.1-1.1 0.1-1.3v-0.9c-0.1-0.8 0-1.3 0.1-1.5l0.6-0.1c0.4-0.1 0.6 0 0.6 0.3 0.3 2.1 0.8 4.2 1.5 6.2 0 0.1 0.1 0.3 0.2 0.5 0.1 0.4 0.2 0.8 0.2 1.1zm-1.2-0.2c-0.1-0.2-0.1-0.4-0.2-0.8s-0.1-0.8-0.3-1.3c-0.1-0.5-0.3-1.1-0.4-1.8-0.2-0.7-0.3-1.1-0.4-1.4 0 0.3-0.1 0.9-0.2 1.6-0.2 1.6-0.2 2.8-0.1 3.6 0.3 0.1 0.8 0.1 1.6 0.1z"/>
		<path d="m221.2 272l-0.2 1.4c0 0.7 0.1 1.9 0.3 3.7s0.3 2.8 0.5 3c0.3 0.4 0.7 0.6 1.4 0.6 0.6 0 1.1-0.2 1.4-0.6 0.2 0 0.4 0 0.6-0.1v0.3c0 0.4-0.1 0.7-0.3 1-0.4 0.4-1 0.6-1.8 0.6-0.4 0-0.9-0.1-1.3-0.4s-0.8-0.7-1-1.2-0.4-1.7-0.5-3.7-0.2-3.5-0.2-4.5c0-1.1 0-1.8 0.1-2.3 0-0.2-0.1-0.4-0.1-0.6 0-0.8 0.3-1.4 0.9-1.9s1.3-0.7 2.2-0.7c0.3 0 0.6 0.1 0.9 0.3s0.5 0.4 0.5 0.7c0 0.1-0.1 0.2-0.2 0.3s-0.3 0.1-0.5 0.1-0.3-0.1-0.4-0.2h-0.3v-0.1c-1 0-1.6 0.4-1.9 1.3-0.1 0.4-0.2 1-0.2 1.7l0.1 1.3z"/>
		<path d="m227.9 269.8l-0.1 4.9c0.2 0.1 0.6 0.1 1 0.1h0.7v-0.4c0-0.6 0-1.5-0.1-2.7s-0.1-2.1-0.1-2.7c0-0.1 0.1-0.3 0.2-0.4s0.2-0.1 0.3-0.1h0.2 0.2s0.1 0 0.1 0c0.1 0 0.1 0.2 0.1 0.4 0 1.4 0.1 3.4 0.2 6.2 0.1 2.7 0.2 4.8 0.2 6.2 0 0.1 0 0.2-0.1 0.3s-0.2 0.1-0.4 0.1-0.3 0-0.4-0.1-0.2-0.2-0.2-0.3c-0.1-1.3-0.1-2.9-0.1-4.8v-0.1-0.6-0.2h-0.4l-1.2-0.2-0.1 2.2v0.1l0.2 3.2c0 0.2 0 0.4-0.1 0.5s-0.2 0.2-0.4 0.2c-0.3 0-0.4-0.2-0.5-0.7s-0.1-1.1-0.1-2l0.1-3v-1.1-1.2l-0.1-4.4c0-0.2 0.1-0.3 0.2-0.4s0.2-0.2 0.4-0.2c0.1 0 0.3 0.4 0.3 1.2z"/>
		<path d="m237.3 278.4l-0.1 0.4c0 0.2 0.1 0.6 0.2 1.2s0.2 1 0.2 1.2c0 0.3-0.1 0.5-0.3 0.6-0.3 0-0.5 0-0.6-0.1-0.2-0.1-0.2-0.3-0.2-0.7s-0.1-1.1-0.3-2.2l-0.6-0.1h-0.7c-0.1-0.1-0.4-0.1-0.8-0.1v0.3 0.4 0.4c0 0.2 0 0.3-0.1 0.5 0 0.1-0.1 0.3-0.1 0.5s-0.1 0.3-0.1 0.4-0.1 0.2-0.2 0.3c-0.1 0.2-0.3 0.3-0.4 0.3-0.2 0-0.3 0-0.4-0.1s-0.2-0.2-0.2-0.4c0.3-1.3 0.6-2.7 0.9-4.2 0.2-1.5 0.4-2.3 0.4-2.6s0.2-0.8 0.3-1.6c0.2-0.8 0.3-1.3 0.3-1.6s0.1-0.6 0.1-1c0.1-0.9 0.2-1.5 0.4-1.8h0.7c0.4 0 0.7 0.1 0.7 0.4 0 2.5 0.2 5 0.7 7.5 0 0.1 0.1 0.4 0.1 0.6 0 0.7 0.1 1.2 0.1 1.5zm-1.3-0.4c0-0.2-0.1-0.5-0.1-0.9s0-0.9-0.1-1.6c-0.1-0.6-0.1-1.3-0.2-2.1s-0.2-1.4-0.2-1.7c-0.1 0.4-0.2 1-0.5 1.9-0.5 1.8-0.7 3.2-0.7 4.2 0.3 0 0.8 0.1 1.8 0.2z"/>
		<path d="m241 279.8v-0.7c-0.1-0.2-0.2-1.6-0.3-4.4-0.2-2.8-0.2-4.5-0.3-5.1-0.8 0-1.2-0.1-1.4-0.2s-0.3-0.2-0.3-0.4c0-0.1 0.1-0.2 0.2-0.3s0.3-0.1 0.4-0.1l2.7 0.2h0.3c0.4 0 0.6 0.2 0.6 0.5 0 0.2-0.1 0.3-0.2 0.4s-0.3 0.1-0.5 0.1l-0.9-0.1v0.2c0 1.2 0.1 3.1 0.3 5.6s0.3 4.3 0.3 5.6c0 0.2-0.1 0.3-0.2 0.4s-0.3 0.2-0.4 0.2h-0.3v-1.9z"/>
		<path d="m244.6 268.1c0-0.9 0.2-1.3 0.7-1.3 0.6 0 1.1 0.1 1.6 0.4 0.9 0.6 1.3 1.5 1.3 2.8 0 1-0.4 2.1-1.2 3.2 0.6 0.8 0.9 1.3 1 1.4s0.2 0.3 0.3 0.4c0.1 0.2 0.1 0.2 0.2 0.3 0 0 0 0.1 0.1 0.3 0 0.2 0.1 0.3 0.1 0.4 0 0.3 0 0.7 0.1 1.1s0.1 0.7 0.1 0.7c0 0.1 0 0.2-0.1 0.5s-0.1 0.5-0.1 0.6-0.1 0.2-0.1 0.4-0.1 0.3-0.1 0.4-0.1 0.2-0.1 0.3c-0.1 0.1-0.1 0.2-0.2 0.3s-0.1 0.2-0.2 0.3l-0.3 0.3c-0.1 0.1-0.2 0.1-0.3 0.2-0.4 0.3-0.8 0.5-1.1 0.5-0.3 0.1-0.5 0.1-0.5 0.1h-0.1c-0.4 0-0.6 0-0.7-0.1-0.2-0.1-0.3-0.2-0.3-0.4l0.1-4.8-0.1-8v-0.3zm1.3-0.2c-0.2 0-0.3 0.2-0.3 0.7v2.2 2.2c0.5-0.1 0.9-0.7 1.2-1.7 0.2-0.6 0.3-0.9 0.3-1v-0.7c0-0.4-0.1-0.8-0.4-1.1-0.1-0.4-0.4-0.6-0.8-0.6zm0.5 6.2h-0.7c0.1 1.6 0.1 3.9 0.1 6.7 0.6-0.1 1.1-0.4 1.5-0.9s0.5-1.1 0.5-1.8c0.1-2.3-0.4-3.6-1.4-4z"/>
		<path d="m255.1 276.3c0 3.8-0.8 5.7-2.3 5.7-1.4 0-2.2-1.8-2.4-5.4v-1-1.2-0.4c0-2.8 0.4-4.5 1.2-5.1 0.2-0.2 0.4-0.2 0.7-0.3 0.2 0.1 0.4 0.1 0.7 0.2s0.5 0.1 0.6 0.2c0.2 0.1 0.5 0.4 0.8 0.9s0.5 1.1 0.6 1.8c0.1 0.8 0.2 1.5 0.2 2.3v2.3zm-3.7-4.6v1.2 1.9 0.6 0.9c0 0.4 0 0.7 0.1 1.1 0 0.3 0.1 0.7 0.1 1.1s0.1 0.7 0.2 1.1c0.1 0.3 0.1 0.6 0.2 0.9 0.2 0.6 0.4 0.9 0.7 0.9 0.4 0 0.7-0.4 0.9-1.1 0.3-1.1 0.4-2.4 0.4-3.9v-2c0-1.4-0.1-2.4-0.2-2.9s-0.2-0.9-0.4-1.1c-0.2-0.5-0.5-0.8-1-0.8-0.6-0.2-1 0.6-1 2.1z"/>
		<path d="m258.7 279.8v-0.7c-0.1-0.2-0.2-1.6-0.3-4.4-0.2-2.8-0.2-4.5-0.3-5.1-0.8 0-1.2-0.1-1.4-0.2s-0.3-0.2-0.3-0.4c0-0.1 0.1-0.2 0.2-0.3s0.3-0.1 0.4-0.1l2.7 0.2h0.3c0.4 0 0.6 0.2 0.6 0.5 0 0.2-0.1 0.3-0.2 0.4s-0.3 0.1-0.5 0.1l-0.9-0.1v0.2c0 1.2 0.1 3.1 0.3 5.6s0.3 4.3 0.3 5.6c0 0.2-0.1 0.3-0.2 0.4s-0.3 0.2-0.4 0.2h-0.4l0.1-1.9z"/>
		<path d="m373.2 383.3c0.9-5 1.4-8.5 1.6-10.5v-0.1c0-0.2 0.1-0.3 0.3-0.4 0.1-0.1 0.3-0.1 0.4-0.1s0.2 0 0.3 0.1c0.2 0.1 0.2 0.2 0.2 0.4 0 1.6 0 3.9 0.1 7s0.1 5.4 0.1 7c0 0.4-0.1 0.7-0.4 0.9-0.1 0.1-0.2 0.1-0.3 0.1-0.3 0.1-0.4 0-0.4-0.2v-0.3-0.3-2.3-2.3-5.7c-0.1 0.4-0.2 1.2-0.4 2.3s-0.4 2-0.5 2.5-0.2 0.9-0.2 1.3c-0.1 0.3-0.1 0.7-0.1 0.9 0 0.3-0.1 0.5-0.2 0.8-0.1 0.6-0.4 0.9-0.6 0.9-0.4 0-0.6-0.6-0.6-1.8-0.1-0.6-0.3-1.9-0.6-3.8s-0.6-3.2-0.7-3.9v2.7l0.2 8.2c0 0.3-0.1 0.5-0.3 0.7-0.3 0-0.5-0.1-0.7-0.3-0.1-0.2-0.2-0.5-0.2-0.9l0.1-3.3-0.1-7.6v-2.5l0.5-0.3c0.4 0 0.8 1.2 1.2 3.5 0.4 1.8 0.7 3.4 0.9 5 0.2 1.3 0.3 2.1 0.4 2.3z"/>
		<path d="m383.5 381.7l0.1 1.2v0.3 0.2 1.1c0 1.2-0.2 2-0.5 2.4s-0.8 0.7-1.4 0.7c-0.8 0-1.4-0.3-1.8-0.9-0.4-0.5-0.6-1.1-0.8-2-0.2-1-0.4-1.7-0.5-2.1 0 0-0.1-1.5-0.2-4.4s-0.2-4.5-0.2-4.8c-0.1-0.1-0.1-0.2-0.1-0.4s0.1-0.3 0.2-0.4c0.1-0.1 0.2-0.2 0.4-0.2 0.5 0 0.7 0.5 0.7 1.4l0.2 6.8c0.1 0.2 0.1 0.5 0.2 1s0.1 0.9 0.1 1.2 0 0.7 0.1 1.1 0.2 0.9 0.4 1.3 0.4 0.8 0.6 1.1c0.3 0.3 0.6 0.5 0.9 0.5 0.5 0 0.8-0.5 0.8-1.4v-0.4-8.8c0-0.4-0.1-0.9-0.2-1.7s-0.2-1.3-0.2-1.5c0-0.3 0.1-0.4 0.2-0.5s0.3-0.1 0.4-0.1l0.6 0.5v0.3l-0.2 1.2c0 0.8 0 1.9 0.1 3.3s0.1 2.6 0.2 3.3l-0.1 0.7zm-4-11.3c0 0.2-0.1 0.4-0.2 0.5-0.2 0.1-0.3 0.2-0.5 0.2s-0.3-0.1-0.4-0.2-0.1-0.3-0.1-0.5 0.1-0.4 0.2-0.5c0.1-0.1 0.3-0.2 0.5-0.2s0.4 0.1 0.5 0.2v0.5zm3.3 0.7c-0.2 0-0.3-0.1-0.5-0.2-0.1-0.1-0.2-0.3-0.2-0.5s0.1-0.3 0.2-0.5c0.1-0.1 0.3-0.2 0.5-0.2s0.3 0.1 0.5 0.2c0.1 0.1 0.2 0.3 0.2 0.5s-0.1 0.3-0.2 0.5-0.3 0.2-0.5 0.2z"/>
		<path d="m385.1 387.1c0-0.4 0.1-0.5 0.4-0.5 0.1 0 0.3 0 0.6 0.1 0.2 0.1 0.4 0.1 0.6 0.1s0.4-0.1 0.6-0.3 0.4-0.5 0.5-0.8c0.2-0.7 0.4-1.3 0.4-1.8 0-0.6-0.1-1.1-0.3-1.8-0.2-0.6-0.4-1.2-0.7-1.8s-0.6-1.1-0.8-1.7c-0.7-1.3-1-2.5-1-3.6 0-1 0.3-1.8 1-2.4 0.3-0.3 0.8-0.5 1.2-0.5 0.2 0 0.5 0.1 0.7 0.2s0.4 0.3 0.5 0.5v0.4c-0.6 0-0.9-0.1-1.1-0.2-0.2 0-0.5 0.1-0.6 0.3-0.3 0.4-0.5 0.8-0.5 1.3s0.1 1 0.2 1.6c0.1 0.5 0.3 1 0.5 1.5s0.4 0.9 0.6 1.3 0.4 0.7 0.5 1 0.2 0.4 0.2 0.4v0.2c0 0.2 0.1 0.4 0.2 0.8s0.2 0.6 0.3 0.9c0.2 0.6 0.2 1.1 0.2 1.6s-0.1 0.9-0.2 1.3-0.3 0.8-0.5 1.2c-0.2 0.4-0.5 0.7-0.8 0.9-0.4 0.2-0.7 0.4-1 0.4h-0.8c-0.2 0-0.4-0.1-0.6-0.2-0.1-0.1-0.3-0.2-0.3-0.4zm1.4 2.2c0.1-0.2 0.2-0.6 0.2-1.1v-0.5h1.1c-0.1 0.4-0.1 0.7-0.1 0.9 0.5 0.1 0.9 0.3 1.1 0.7s0.3 0.9 0.3 1.3c0 0.5-0.2 0.9-0.5 1.3-0.4 0.4-0.7 0.6-1.1 0.6-0.3 0-0.6-0.1-0.9-0.2-0.2-0.1-0.3-0.3-0.3-0.5s0-0.3 0.1-0.4c0.1-0.1 0.2-0.1 0.4-0.1s0.4 0.1 0.5 0.2c0.1 0 0.2-0.1 0.3-0.2s0.1-0.3 0.1-0.4 0-0.2 0-0.3c0-0.1-0.1-0.2-0.1-0.4 0-0.1-0.1-0.2-0.1-0.3l0.3 0.3v-0.1c0-0.2-0.1-0.4-0.2-0.5h-0.5c-0.1 0-0.2 0-0.3-0.1 0 0.2-0.1 0-0.3-0.2z"/>
		<path d="m393.5 375.9v2.5c0 1.2 0.1 2.2 0.3 3-0.1 0.4-0.1 0.9-0.1 1.5l0.2 3.5c0 0.6-0.2 1-0.6 1-0.2 0-0.4-0.1-0.5-0.3s-0.2-0.4-0.2-0.7l0.2-3.1c0-0.7 0-1.7-0.1-3.1s-0.1-2.4-0.1-3.1v-1.7c0-0.9-0.1-1.6-0.2-1.8l-1.1 0.1c-0.2 0-0.3 0-0.4-0.1s-0.2-0.2-0.2-0.4 0.2-0.3 0.5-0.4 0.7-0.2 1.2-0.2c0.8-0.1 1.5-0.1 2-0.1 0.2 0 0.3 0.1 0.4 0.2s0.2 0.2 0.2 0.4-0.1 0.3-0.2 0.4-0.3 0.1-0.4 0.1h-0.7-0.2c-0.1 0.6 0 1.4 0 2.3z"/>
		<path d="m398.4 380.1h-0.5c-0.2 0-0.3 0-0.3 0.1v6.1c0.7 0 1-0.1 1-0.1 0.7 0 1.1 0.2 1.1 0.5v0.1c-0.1 0.2-0.2 0.3-0.5 0.4-0.2 0.1-0.4 0.2-0.6 0.2h-0.6-0.6c-0.5 0-0.8-0.1-0.9-0.3-0.1-0.1-0.1-0.2-0.1-0.4v-14.2l1.7-0.2c0.2 0 0.4 0.1 0.6 0.2s0.3 0.3 0.3 0.5c0 0.4-0.3 0.6-0.9 0.6h-0.6-0.2l0.2 3.2v1.1 1.1c0.1 0 0.2 0 0.3-0.1 0.3-0.1 0.5-0.1 0.6-0.1s0.3 0.1 0.4 0.2c0.1 0.1 0.2 0.2 0.2 0.4s0 0.3-0.1 0.4c-0.3 0.3-0.4 0.3-0.5 0.3z"/>
		<path d="m405.3 386.9c0 0.4-0.2 0.6-0.5 0.6-0.2 0-0.5-0.2-0.7-0.5v-0.1c0-0.5-0.2-1.2-0.5-2.2-0.3-0.9-0.5-1.5-0.5-1.9-0.1-0.3-0.2-0.9-0.3-1.8-0.2-0.9-0.3-1.6-0.4-2v7.8c0 0.4-0.2 0.6-0.6 0.6-0.2 0-0.3-0.1-0.4-0.2s-0.2-0.2-0.2-0.4v-0.2l0.1-11.5v-2.4c0-0.2 0-0.3 0.1-0.3 0.1-0.1 0.2-0.1 0.6-0.1 0.3 0 0.6 0.1 0.9 0.3s0.6 0.5 0.8 0.8c0.4 0.7 0.6 1.4 0.6 2.2 0 0.6-0.2 1.4-0.5 2.2 0 0.1-0.1 0.3-0.2 0.6s-0.2 0.5-0.2 0.5c0 0.5 0.1 1.2 0.3 1.9 0.2 0.8 0.3 1.4 0.5 1.9 0.1 0.5 0.4 1.2 0.7 2.2s0.5 1.6 0.6 1.7v0.3zm-3-13.6l-0.1 4v0.9c0.2-0.2 0.4-0.5 0.6-0.8l0.3-1.7c0-0.7-0.1-1.2-0.3-1.7-0.1-0.4-0.3-0.7-0.5-0.7z"/>
		<path d="m408.9 386.2h0.4c0.5 0 0.8 0.1 0.8 0.3 0.1 0.2 0 0.4-0.1 0.5s-0.2 0.1-0.4 0.1h-2.5c-0.4 0-0.6-0.2-0.6-0.5s0.2-0.5 0.6-0.5h0.6c0.1 0 0.1-0.3 0.1-1s-0.1-2-0.2-4-0.2-3.5-0.2-4.6v-2-1.1c-0.2 0.1-0.3 0.1-0.5 0.1-0.3 0-0.5-0.2-0.5-0.5 0-0.2 0.1-0.3 0.3-0.4s0.4-0.2 0.7-0.3c0.6-0.1 1-0.1 1.2-0.1s0.5 0.1 0.6 0.2c0.1 0.1 0.2 0.2 0.2 0.4s0 0.3-0.1 0.4c-0.1 0.1-0.2 0.2-0.3 0.2h-0.3c-0.1 0-0.2 0-0.3 0.1s-0.1 0.2-0.1 0.3c0 1.3 0.1 3.2 0.3 5.8s0.3 4.5 0.3 5.8v0.8zm-1-15.1c-0.2 0-0.4-0.1-0.5-0.2s-0.2-0.3-0.2-0.5 0.1-0.4 0.2-0.5 0.3-0.2 0.5-0.2c0.2 0 0.4 0.1 0.5 0.2 0.1 0.2 0.2 0.3 0.2 0.5s-0.1 0.4-0.2 0.5c-0.1 0.2-0.3 0.2-0.5 0.2z"/>
	<path class="st1" d="m101.8 321.7c-1.7-9.8-3.4-19.8-4.8-29.8-0.5-3.3-1.4-6.6-1.3-9.8 20.1-3.3 41.4-7.4 62.2-10.5 2.9-0.4 5.8-1 8.6-1 2.3 11 4 22.5 5.9 34 0.3 1.6 0.5 3.5 0.7 4.8 0.1 0.8-2.1 0.6-2.1 0.6-22.1 3.8-44.8 7.4-67 10.9m36.9-25.2c-2.1 1.9-4.1 3.9-6.4 5.7-2.5-1-4.8-2.3-7.2-3.4-6.8 6.6-14 13.5-21 20-0.4 0.3-1.3 1.2-1.1 1.3 21.7-3.6 43.7-7 65-10.4-10-4.2-19.6-8.8-29.3-13.2zm-15.3 1.5c-8.9-4.2-17.9-8.7-26.6-13-0.5-0.3-1.1-0.8-1.7-0.6 1.8 12 3.8 24.2 5.4 36.1h0.2c7.4-7.6 15.3-14.9 22.7-22.5zm45.7 9.7c0.1 0.3-0.6 0.7-0.8 0.3 0-1 1.2-1.2 0.6-2.6-0.5 0-0.4 1.1-1.2 1.1-0.5-1.1 0.8-1.6 1-2.4-0.1-0.4-0.3-0.6-0.3-1.1-0.5 0.1-0.7 1.2-1.4 1.4-1-1.4 1.9-2 0.9-3.7-0.4 0.7-0.7 1.5-1.5 2-0.1-0.1-0.3-0.1-0.4-0.3 0.2-1.5 2.4-2.3 1.3-4.2-0.4 0.8-0.8 1.6-1.5 2.2 0-0.2-0.3 0-0.3-0.2 0.1-1.7 2.4-2.4 1.4-4.6-0.4 0.8-0.9 1.6-1.5 2.1 0-0.2-0.3 0-0.3-0.2 0.2-1.7 2.5-2.4 1.4-4.7-0.5 0.8-0.8 1.8-1.6 2.4 0-0.2-0.3 0-0.3-0.2 0.2-1.9 2.5-2.7 1.4-5.2-0.7 0.8-0.7 2.2-2 2.6-0.2-1.9 2.1-2.7 1.7-5.1-0.8 0.5-0.7 1.7-1.8 2-0.5-1.6 2.2-2.5 1.2-4.2-0.4 0.6-0.5 1.5-1.4 1.7-0.5-1.5 1.5-1.9 1.2-3.6-0.5-0.1-0.3 1.1-1.1 1.1 0-0.1-0.2-0.1-0.2-0.3 0-1.2 1.5-1.7 0.9-3-0.3 0.4-0.3 1.1-1.1 1.3 0-0.1-0.2-0.1-0.2-0.3 0.1-1.2 1.5-1.5 1.1-3.1-0.4-0.1-0.4 0.9-1 1 0-0.1-0.2-0.1-0.2-0.3 0-1.2 1.4-1.4 0.9-2.9-0.4-0.1-0.4 0.9-1 1 0-0.1-0.2-0.1-0.2-0.3-0.1-1 1.2-1.5 0.9-2.4-0.2 0.4-0.2 0.9-0.8 0.9-0.6-1 0.9-1.7 0.6-2.4-7.7 7.3-15.5 14.5-23.3 21.7 9.9 4.5 19.8 9.1 29.5 13.7-0.4-0.1-0.3-0.9-0.6-1.2zm-7.9-34.2c0.3-0.3 0.9-0.6 0.7-0.8-21.1 3.8-42.8 7.3-64.3 10.9 11.2 5.8 23.1 11.5 34.5 17.3 9.5-9 19.5-18.5 29.1-27.4z"/>
			<path d="m203.1 236.7c-0.1-10.3-0.1-20.7-0.2-31 0-5.2-0.1-10.3-0.1-15.5 0-2.2-0.1-4.4 0-6.6 0.1-3.7 1.5-3 5.3-3.4 9.1-1 18.5-0.2 27.7-0.1 10.2 0.2 20.4 0.3 30.6 0.5 2.2 0 4.4 0.1 6.6 0.1 3.3 0 2.2 0.9 2.7 4.3 0.8 5.1 1.2 10.2 1.4 15.4 0.2 4.7 0.2 9.5 0.1 14.2-0.1 4.8 0.6 10.6-0.5 15.3 0.6 2-0.2 3.1-2.4 3.3h-4.3c-2.1 0-4.3 0-6.4 0.1-4.1 0-9-0.6-13 0.3-3.5 0.8-4.8 3.6-6.2 6.6-2.2 4.6-4.3 9.3-6.4 13.9 1.8-0.2 3.5-0.5 5.3-0.7-5.8-4.6-9.9-10.2-12.2-17.2-0.5-1.4-1.7-2.5-3.2-2.5-9.4 0.2-18.7 0.5-28.1 0.7-4.3 0.1-4.3 6.8 0 6.7 9.4-0.2 18.7-0.5 28.1-0.7-1.1-0.8-2.2-1.6-3.2-2.5 2.7 8.1 7.2 14.9 13.9 20.2 1.5 1.2 4.3 1.5 5.3-0.7l6-12.9c1.1-2.4 1.7-3.9 4.3-4.4 2.2-0.5 5.2 0 7.5-0.1 5.5 0 16.3 2.2 20.3-2.9 1.8-2.3 1.5-5.5 1.7-8.2 0.2-4.7 0.4-9.5 0.5-14.2 0.2-9.5-0.1-19-1.3-28.4-0.8-5.8-0.7-11.5-7.5-12.2-9.3-0.9-19.1-0.3-28.4-0.4-9.8-0.1-19.5-0.4-29.3-0.4-5.2 0-16.3-1-20 3.7-2.1 2.6-1.2 7-1.2 10 0 5.5 0.1 11.1 0.1 16.6 0.1 11.1 0.1 22.1 0.2 33.2-0.4 4.2 6.3 4.2 6.3-0.1z"/>
			<path d="m223.8 200.8c-1.4 1.1-2.8 2.3-3.3 4.1-0.5 2.1 0.3 4.4 2.1 5.5 3.3 2 7.2-0.4 8.3-3.8 1-3.2-0.8-6.6-3.9-7.6-3.2-1-6.7 0.7-7.8 3.8-1.2 3.3 1 7.3 4.4 8.2 1.7 0.4 3.7-0.6 4.1-2.3s-0.5-3.7-2.3-4.1c-0.4-0.1 0 0 0.2 0.1-0.5-0.3 0.1 0.1 0.1 0.1l-0.3-0.3s0.4 0.6 0.1 0.1c0.1 0.1 0.1 0.3 0.2 0.4 0-0.1 0-0.1-0.1-0.2 0-0.1 0-0.1-0.1-0.2 0 0.1 0 0.3 0.1 0.4v-0.4c0.1 0-0.2 0.8 0 0.2l-0.1 0.2c-0.1 0.2-0.4 0.5-0.1 0.2-0.1 0.1-0.5 0.4-0.1 0.2-0.1 0.1-0.3 0.1-0.4 0.2 0.1 0 0.1 0 0.2-0.1h0.2c-0.1 0-0.3 0-0.4 0.1h0.4c0 0.1-0.8-0.2-0.2 0-0.3-0.1-0.5-0.3-0.1 0s-0.5-0.4-0.2-0.1c0.2 0.2-0.2-0.3-0.3-0.4-0.1-0.2-0.1-0.3 0-0.1 0 0.2 0.1 0.1 0-0.1v-0.1 0.2c-0.1 0.4 0.1-0.7 0-0.2 0 0.1-0.2 0.6 0 0.1 0.1-0.4 0 0-0.1 0.1-0.3 0.4 0.4-0.5 0.1-0.2s0.5-0.3 0.2-0.1c-0.4 0.2 0.6-0.2 0.2-0.1-0.3 0.1 0.3 0 0.4 0 0.7 0.1 1.4 0.8 1.5 1.4 0.2 0.6 0.1 0.5 0 1s0.2-0.3 0 0 1-0.8 0.3-0.3c1.4-1.1 2.3-2.9 1.2-4.6-0.8-1.4-3-2.4-4.5-1.3z"/>
			<path d="m252.8 197.9c-3.1 0.9-5 4.3-4.2 7.4 0.8 3.2 3.9 5.1 7 5.1 1.9 0.1 3.7-0.6 4.8-2.3 0.8-1.2 0.9-3 0.9-4.4 0-1.8-0.6-3.5-1.9-4.7-1.4-1.2-3.3-1.8-5.1-1.2-1.7 0.6-2.8 2.3-2.3 4.1 0.5 1.7 2.4 2.9 4.1 2.3-0.5 0.2-1.1-0.3-1.4-0.6-0.1-0.1 0-0.5 0-0.1v0.8 0.5 0c-0.1 0.4 0.1 0.3 0.6-0.5 0.2-0.4 0.4-0.6 0.7-0.7h-0.1-0.1c0.2 0.1 0.2 0-0.2 0h-0.1c-0.1 0-0.5-0.1-0.1 0-0.1 0-0.5-0.3-0.1 0-0.5-0.3 0.2-0.1 0 0-0.4 0.2 0.4 0.3 0 0-0.1 0.4-0.1 0.4 0 0.2s0.1-0.2 0 0c0 0.1-0.4 0.5-0.2 0.3s-0.3 0.2-0.4 0.2c1.7-0.5 2.8-2.4 2.3-4.1s-2.4-2.8-4.2-2.3z"/>
			<path d="m199.3 200.6c-5.8 0.2-11.5 0.3-17.3 0.5-4.3 0.1-4.3 6.8 0 6.7 5.8-0.2 11.5-0.3 17.3-0.5 4.3-0.1 4.3-6.8 0-6.7z"/>
			<path d="m184.9 204.4c0.2-4.9-2.1-10.2-6.7-12.4-4.8-2.3-9.4 0.7-11.4 5.2-2.1 4.7-1.9 10.2 2.5 13.5 4.1 3.1 10 2.2 13.1-1.8 2.6-3.4-2.1-8.1-4.7-4.7-1.1 1.5-3 2.5-4.6 1-1.5-1.4-0.9-3.8-0.1-5.4 0.8-1.7 1.7-2.4 3.3-1.1 1.6 1.4 2 3.7 1.9 5.7-0.2 4.3 6.5 4.3 6.7 0z"/>
			<path d="m281.1 207.1c2.9-0.1 5.7-0.3 8.6-0.4 2-0.1 5 0.2 6.9-0.7 1.3-0.7 1.8-1.7 2.4-3 0.3-0.8 0.4-3 1.1-3.5 2-0.2 3.1 0.4 3.4 2 1 1.5 0.2 1.9-2.5 1.1-1.4-4-7.9-2.3-6.5 1.8 1.6 4.6 5.9 8.1 11 6.3 5.7-2.1 6-8.2 3.6-12.9-2.2-4.4-7.2-7.9-12-4.8-1.2 0.8-2.2 1.9-2.9 3.2-0.4 0.8-0.9 3.2-1.4 3.7-0.8 0.6-3.1 0.3-4.1 0.3-2.5 0.1-5.1 0.3-7.6 0.4-4.3 0-4.3 6.7 0 6.5z"/>
		<path class="st2" d="m420.6 216.7c-5.4-2.9-7.1 0.8-11.8 1.6-3.2 0.6-3.9-0.8-5.6-4.3-1.9-3.9-3.3-8-5.3-11.9-5.6-11.3-14.9-28.2-30.4-24.9-2.4 0.5-8.4 3.3-8.4 6.6 0 3.1 8.7 5.1 4.7 9.9-1.9 2.3-12.3 0.8-15.9 2-8.1 2.6-3.6 10.5-7.6 16v6.6c0 3 1.2 18.4-1.4 19.8-1.3 0.7-5.4-0.6-7.1-0.5-3.1 0.2-4.4 0.7-6.6 2.7-4.1 3.8-4.5 8-1.8 12.4 4 6.3 7.8 5 14 6.7 1.9 7.4 3.1 13.7 8.7 19.8 0.9 1 1.9 1.9 2.9 2.8 0.8 3.1 4.5 7.9 7.6 7.2 2.4 1.8 5.1 3.4 7 5.5 5.5 6.2-3.9 17.3 5.3 22.3 8.6 4.7 17.5 5.9 27.3 5.1 5.1-0.4 12.2-0.3 16-4.3-1.4-6.5-2.6-13.2-5.1-19.2-2.2-5.3-2.5-6.8 0.9-10.5 8.4-9.2 11.1-20.7 10-33.4-0.4-3.8-4.2-11.6-1.9-14.7 1-1.2 4.2-1.9 5.7-3.9 1.5-2.1 2.8-4.9 3.2-7.5 0.6-4.7-0.2-9.7-4.4-11.9z"/>
		<path class="st3" d="m465.5 337.6c-3-7.1-11.8-12-18.3-15.7-3.9-2.2-7.7-4.2-11.9-5.9-3.5-1.4-8.1-1.9-11.2-4-2.8-1.9-4.5-5.6-7.5-7.6-3.3-2.2-5-1.4-9-1.2-0.4 3.9 3.6 9.2 1.1 12.1-2.6 3-12.8 2.2-16.3 2.4-6.6 0.5-30.5 3.7-27.3-9.6-0.7 0.6-1.5 1-2.4 1.2l0.9-4.2c-6.7-1-8.2 9.3-10 13.6-20.1 2.7-37.1 5.7-50.8 22.3-3.6 4.3-4.5 9.2-0.7 13.7 1.9 2.3 4.1 3.5 7.1 4.7 3.4 1.3 6.7 1.7 10.3 2.3 6.9 1.2 13.2 4.3 20.1 5.3 14.8 2.1 30.5-0.1 45.4-0.1 13.5 0 28.2-0.5 41.4-3.7 11.3-2.8 23.6-2.9 34.8-6.2 10.3-3.1 7.9-10.8 4.3-19.4z"/>
			<path class="st4" d="m460 328.5c-6.8-6.1-15.3-10.4-23.8-13.6-3.7-1.4-7.5-2.6-11.5-3.3-0.3 0-0.5 0-0.7 0.1-0.1-0.1-0.1-0.2-0.2-0.3-2.7-2.1-4.4-5.2-7-7.4-2.5-2.1-5.5-1.6-8.2-0.2-0.8-4.4-1.2-8.9-2.5-13.1 0-0.2-0.1-0.3-0.2-0.4 2.3-2 4.3-4.3 6-6.9 2.8-4.2 4.6-9.1 5.4-14 1.7-9.5 0.3-19.4-2.3-28.7 0.2 0.2 0.4 0.4 0.9 0.4 3.8-0.4 6.4-4.1 7.9-7.2 1.9-3.9 2.9-8.7 1.4-13-1.3-4-4.9-5.9-8.9-6.3-3.8-0.3-7.9 1.3-8.9 5.2-1.4-3.2-2.9-6.3-4.4-9.4l-0.6-1.2 0.1-0.1c1.1-1.3 0.7-2.6-0.2-3.8 0.2-0.4 0.3-0.8 0.3-1.2v-0.2c0.2-0.1 0.3-0.2 0.5-0.4 1-1 0.3-2.4-0.7-3.2-0.1-0.1-0.2-0.2-0.4-0.3 0.8-0.4 1.6-1.1 2.2-1.8 1.3-1.7 1.3-4.1 0.5-6-0.7-1.6-1.9-2.7-3.6-2.9-0.7-0.9-1.7-1.6-2.9-1.9 0.4-1.7 0.3-3.5-0.2-4.9-0.2-0.5-0.5-0.7-1-0.8h-0.5c0-0.1-0.1-0.2-0.1-0.4 0.1-1.5-0.2-3.1-0.8-4.5-0.2-0.6-0.7-0.8-1.3-0.7-0.4 0.1-0.8 0.1-1.1 0.3l-0.3-0.6c1.6-3.6 2.1-8.2-2.9-8.4-1.1 0-2.1 0.3-3 0.9-0.6-0.3-1.3-0.6-2-0.7-1.2-0.2-2.7 0-3.7 0.7-0.5-0.8-1.1-1.6-2-2-0.1 0-0.1-0.1-0.2-0.1-1.2-1.5-3.2-2.4-5.1-1.5-1.5 0.7-2.5 2.3-3.1 4.1-0.1-0.2-0.3-0.3-0.4-0.5-1.5-1.5-3.7-2.5-5.7-1.9-2.4-0.3-5.3-0.1-6.8 2-0.1 0.1-0.1 0.2-0.2 0.3-0.3 0.3-0.5 0.6-0.8 0.9-1.2-0.2-2.3 0.1-3.2 0.8-1.4-0.3-2.9-0.5-4.3-0.6-2.4-0.1-5.1 0.2-7.3 1.4-0.1-0.1-0.3-0.1-0.4-0.1-1.9 0.1-3.3 1-4.3 2.4-2 0.5-3.9 2-5 3.5-0.8 1.1-0.9 2.3-0.6 3.4-0.6 0.7-1 1.5-1.3 2.3-0.8 0.7-1.4 1.7-1.7 2.7-0.7 2.4 0.1 4.9 1.6 6.7 0 1.5 0.7 3.1 1.8 4.1-1.5 1.4-1.9 3.3-1.5 5.2-0.7 1.9-0.3 4 0.7 5.7l-0.9 0.6c-1.9 1.7-1.9 4.3-0.8 6.4 0.1 1.1 0.5 2.1 1.1 3.1v0.3c0.2 1.1 0.8 2.4 1.6 3.5-0.1 0.2-0.3 0.4-0.4 0.6-0.8 1.5-0.7 3.6 0.3 5-1 0.4-1.9 1.1-2.3 2.2-0.7 2.3 2.2 4.6 4.2 4.8 1.9 0.2 3.8-0.7 5-2.2-0.1 0.8-0.1 1.5-0.2 2.3-0.1 1.2-0.2 2.5-0.3 3.7-3.4-0.9-7.2-1.2-10.6-0.1-4.6 1.5-6.9 5.7-7.4 10.3-1 9.2 9.1 12 16.3 13 1.3 0.2 1.9-1.9 0.6-2-5.9-0.8-14.9-2.5-14.8-10.1 0-4 2.2-7.9 6.1-9.2 3.1-1 6.5-0.5 9.6 0.3-0.2 3.8-0.3 7.6-0.3 11.3-1.4-1.7-2.8-3.8-4.9-4.8-2.3-1.2-4.2 0.3-5.5 2.1-0.8 1.1 1 2.2 1.8 1.1 0.5-0.6 1.1-1.4 1.9-1.5 0.7-0.1 1.4 0.5 1.9 1 1.3 1.2 2.3 2.7 3.5 4 0.4 0.4 0.9 0.4 1.2 0.2v2.4c0.2 8.1 1 16.3 5 23.5 4.6 8.2 12.4 13.3 20.8 16.9v0.1c0 3-0.3 5.9-0.6 8.8-6.6-0.1-9.8 6.6-10.3 12.7-12.6-0.1-25.1 4.5-36.1 10.2-3 1.5-5.8 3.5-8.4 5.6-3.1 2.4-6.3 5.3-8.2 8.8s-1.5 7.2 1.6 9.8c1 0.9 2.6-0.6 1.5-1.5-6.7-5.5 3.9-13.7 8.1-16.8 2.9-2.1 6-3.9 9.2-5.5 6.2-3 12.7-5.4 19.4-7 4.2-1 8.5-1.6 12.9-1.6 0 0.8 0.1 1.6 0.2 2.4 0.3 1.7 0.9 3.4 1.9 4.7 1.1 1.5 2.7 2 4.4 2.4 4.6 1.2 9.4 1.6 14.1 2.1 2.1 0.2 4.2 0.6 6.3 0.8 2.8 0.3 5.7 0.3 8.6 0.2 5.4-0.2 10.8-1 16-2.5 8.4-2.6 15.8-7.9 18.7-16.4 0.1 0.1 0.3 0.2 0.4 0.2 8 1.4 15.8 4.6 22.9 8.5 4.1 2.2 7.9 4.8 11.4 7.8 3 2.7 5.8 5.8 7.3 9.6 1.2 2.9 1.4 6 0.6 9.1-0.4 1.3 1.7 1.9 2 0.6 2.7-7.8-2.1-15.2-7.9-20.4zm-128.6-138.7c0-0.1-0.1-0.1-0.1-0.2-0.1-0.2-0.2-0.5-0.2-0.7 0.1 0.1 0.2 0.2 0.4 0.3 0.1 0.1 0.2 0.1 0.3 0.1-0.2 0.2-0.3 0.4-0.4 0.5zm77.9 124.1c0 0.1 0.1 0.2 0.1 0.3 0.1 0.2 0.2 0.5 0.3 0.7-0.3 0.2-0.6 0.3-0.9 0.5-2.8 1.4-6 2.1-9.1 2.5-7.5 1.2-15.4 1.1-22.8-0.3-3.2-0.6-6.4-1.5-9.2-3.1-0.4-0.2-0.8-0.5-1.2-0.7 0.2-0.3 0.3-0.6 0.4-0.9 0.2-0.8-0.6-1.4-1.2-1.3-0.3-4.9 0.6-9.8 0.7-14.7 0.8 0.3 1.7 0.7 2.5 1 4.9 1.9 10.1 3.2 15.4 2.8 5.4-0.4 10.4-2.5 14.8-5.4 1.7-1.1 3.4-2.3 5-3.6 2.2 7.3 2 15.2 5.2 22.2zm0.1-93.5c0.8-3.1 4.1-4 6.9-3.8 3.3 0.2 6.1 2 7 5.3 1.1 3.5 0.1 7.6-1.4 10.8-1.1 2.3-3.2 5.9-6.1 6.2-0.7 0.1-1 0.6-1 1.2-0.2-0.7-0.4-1.5-0.6-2.2-0.7-2.3-1.4-4.5-2.2-6.8 0.5 0.1 1-0.1 1.1-0.7 0.6-2.9 2.4-6 5.8-5.4 1.3 0.2 1.9-1.8 0.6-2-4.3-0.8-7.2 2.4-8.2 6.2-1-2.7-2.1-5.4-3.3-8 0.5 0.1 1.2-0.1 1.4-0.8zm-11.4-30.8c0.2 0.1 0.3 0.1 0.5 0.2-0.2 0.1-0.4 0.2-0.5 0.3v-0.5zm0.3 3.4c0.7 0.3 1.5 0.8 2 1.2 0.3 0.2 0.5 0.4 0.7 0.7-0.1 0.7-0.3 1.2-1 1.5l-0.6-0.9c-0.5-0.6-1-1.1-1.6-1.6 0.2-0.4 0.3-0.7 0.5-0.9zm-0.1 7.2c-0.1 0.2-0.1 0.3-0.2 0.5-0.2-0.3-0.4-0.6-0.6-1 0.2 0.2 0.5 0.4 0.8 0.5zm-3.5-5.7c0 0.3 0.1 0.6 0.1 0.9-0.2-0.3-0.3-0.7-0.4-1 0.2 0.1 0.2 0.1 0.3 0.1zm-0.7-16.1c0 0.1 0.1 0.2 0.1 0.3-0.2 0-0.4-0.1-0.6-0.1 0.2 0 0.3-0.1 0.5-0.2zm-0.1 2.5c0.2 0.2 0.3 0.4 0.5 0.6v0.3c-0.3 0-0.6 0.1-0.9 0.2-0.1-0.4-0.2-0.9-0.5-1.2 0.3-0.1 0.7-0.1 0.9 0.1zm-0.9 3.4c0.3-0.1 0.6-0.2 0.9-0.3-0.2 0.7-0.5 1.3-0.9 2l-0.3-1.2c0-0.2 0.2-0.3 0.3-0.5zm-1.1-13.9c0.4 1 0.1 2.2-0.3 3.3-0.1-0.1-0.2-0.1-0.3-0.2-0.5-0.4-1.1-0.6-1.8-0.7 0-1.1-0.3-2.1-0.9-2.9 1.1-0.5 2.9-0.7 3.3 0.5zm-0.6 12.1v0.3c-0.1 0-0.1 0-0.2-0.1 0.1 0 0.2-0.1 0.2-0.2zm-2.1-7.3c0.4 0.1 0.9 0.3 1.3 0.7 0.1 0 0.1 0.1 0.2 0.1-0.3 0.6-0.7 1.2-1.1 1.8-0.2 0.2-0.4 0.4-0.6 0.5l-0.2 0.2h-0.2-0.1c0-0.4-0.1-0.8-0.2-1.3 0.3-0.6 0.6-1.3 0.9-2zm-1.8 11.4c0 0.2 0 0.5 0.1 0.7l-1.5-1.2c0.4 0.2 0.9 0.3 1.4 0.5zm-1.5-6.2c-0.3 0.1-0.5 0.3-0.8 0.4-0.1 0-0.1 0-0.2-0.1v-0.1c0.5-0.2 0.9-0.6 1.3-0.9 0 0.1 0 0.2-0.1 0.3 0 0.1-0.1 0.2-0.2 0.4zm1.2-9.3c0.2 0.5 0.3 1 0.3 1.6-0.5 0.1-1 0.2-1.4 0.4-0.1-0.1-0.1-0.2-0.2-0.2 0.4-0.6 0.8-1.2 1.3-1.8zm-1.2 5.8c-0.4 0.5-0.8 0.9-1.2 1.3v-0.3c0.3-0.5 0.6-1 1-1.4 0.1 0.1 0.1 0.2 0.2 0.4zm-1.9-7.2c0.6 0 1 0 1.5 0.1-0.5 0.6-0.9 1.2-1.3 1.8-0.5-0.3-0.9-0.5-1.4-0.6-0.2-0.1-0.4 0-0.6 0 0.1-0.7 0.7-1.2 1.8-1.3zm-0.8 3.8c-0.1 0.2-0.2 0.4-0.2 0.6l-0.3-0.3c0.1-0.1 0.1-0.3 0.2-0.4 0-0.1 0.1 0 0.3 0.1zm-1.8 6.1c0.1 0.2 0.3 0.4 0.4 0.5v0.4c-0.2 0.2-0.3 0.3-0.6 0.4-0.3 0.2-0.7 0.2-1.1 0.2 0.6-0.5 1-1 1.3-1.5zm-1.3-1.7l-0.6 0.9v-0.5l0.3-0.6c0.1 0 0.2 0.1 0.3 0.2zm-0.7-5.5h0.2l-0.3 0.3c0-0.1 0-0.2 0.1-0.3zm-0.9 1.6c-0.1 0.1-0.1 0.3-0.2 0.4h-0.1c0.1-0.1 0.2-0.3 0.3-0.4zm-4.1-4.1c0.8-1 2.2-2 3.5-1.7 0.3 0.7 0.2 1.5 0 2.3-0.7 0.1-1.4 0.3-2 0.6-0.5-0.4-1.1-0.7-1.6-0.9 0-0.1 0.1-0.2 0.1-0.3zm1.5 6.3c-0.3 0.3-0.5 0.6-0.7 0.9l-0.6 0.3c0.3-0.4 0.6-0.7 0.9-1.1 0.1-0.1 0.2-0.1 0.4-0.1zm-4.3 4.3c0.2 0.1 0.5 0.1 0.7 0.1h0.2c0 0.1 0.1 0.1 0.1 0.2h-1.1c0-0.2 0.1-0.2 0.1-0.3zm-0.3-6.4c0.1 0.3 0.1 0.7 0.1 1-0.1 0.2-0.1 0.3-0.2 0.5l-0.9 0.9c0.4-0.8 0.8-1.6 1-2.4zm-2.1-0.9l0.1-0.1c-0.1 0.7-0.4 1.4-0.8 2.1-0.1-0.3-0.3-0.5-0.5-0.8 0.5-0.4 0.8-0.8 1.2-1.2zm-1.3 6.8c0.2 0 0.4-0.1 0.6-0.1 0.2-0.1 0.4-0.1 0.7-0.2-0.2 0.2-0.4 0.3-0.6 0.5-0.3 0.2-0.6 0.3-1 0.4l0.3-0.6zm-1.6-8.3c0.1 0.1 0.2 0.2 0.2 0.3-0.2 0.2-0.4 0.3-0.6 0.5 0.2-0.3 0.3-0.6 0.4-0.8zm-1.4-2.8c0 0.1 0 0.2 0.1 0.4s0.2 0.3 0.2 0.5c-0.3 0.4-0.6 0.8-0.8 1.2-0.2-0.4-0.4-0.8-0.6-1.1 0.3-0.5 0.7-0.8 1.1-1zm-1.1 17.3c0.3-0.2 0.6-0.5 0.9-0.7 0.4 0.2 0.7 0.6 1 1 0.2 0.3 0.3 0.8 0.3 1.2-0.2-0.1-0.4-0.3-0.6-0.4-0.6-0.4-1.3-0.7-1.9-0.8l0.3-0.3zm1.4 4.6c0.2 0 0.3 0 0.5-0.1 0.4 1.2-0.3 2.8-1.3 3.4 0 0-0.1 0-0.1 0.1 0.5-1 0.9-2.1 0.9-3.1v-0.3zm-2.5-18.6c0 0.1 0.1 0.2 0.1 0.3h-0.2s0-0.2 0.1-0.3zm-3.1-2.1l0.1-0.1c0.5-0.4 0.9-0.5 1.4-0.2 0.1 0 0.1 0.1 0.2 0.1l-0.6 1.5c-0.4-0.3-0.8-0.5-1.2-0.8 0-0.1 0.1-0.3 0.1-0.5zm1.2 21.3l-0.1 0.1c-0.4-0.8-0.7-1.7-0.7-2.6 0.1 0 0.1-0.1 0.2-0.1l0.7 0.7c0 0.6 0 1.2-0.1 1.9zm-1.9-15.8c-0.1 0.1-0.1 0.2-0.2 0.3l-0.6-0.3c-0.1-0.4-0.3-0.8-0.5-1.2 0.6 0.4 1 0.7 1.3 1.2zm0.5 17.6c-0.3 0.3-0.7 0.6-1.1 0.8-0.2-0.7-0.1-1.7 0.1-2.3 0-0.1 0.1-0.3 0.1-0.4 0.1 0.2 0.2 0.5 0.3 0.7 0.1 0.4 0.3 0.8 0.6 1.2zm-3.1 4.2c0.2-0.2 0.3-0.3 0.4-0.5 0.6 0.2 1.2 0.3 1.9 0.2h0.2l-0.2 0.2c-0.5 0.3-1.1 0.6-1.8 0.5-0.3 0.1-0.5-0.1-0.5-0.4zm-1.2-9.6l0.6-0.6c-0.1 0.8-0.3 1.5-0.6 2.2 0.1-0.5 0.2-1.1 0-1.6zm-0.4 8.1c0 0.1-0.1 0.1-0.1 0.2-0.1 0.1-0.2 0.1-0.3 0.2s-0.3 0.2-0.5 0.3c0.2-0.3 0.3-0.6 0.5-0.9 0.2 0.1 0.3 0.2 0.4 0.2zm-0.6-10.6c0.1 0 0.1 0 0.2 0.1l-0.5 0.5c-0.1-0.1-0.3-0.2-0.5-0.3 0.4-0.1 0.6-0.2 0.8-0.3zm-3.1 11.8c-0.2 0.2-0.3 0.4-0.5 0.6-0.6 0.7-1.4 1.6-2.3 2.1 0.2-0.6 0.4-1.1 0.7-1.7 0-0.1 0.1-0.1 0.1-0.2 0.7-0.4 1.4-0.9 2.1-1.4-0.1 0.2-0.1 0.4-0.1 0.6zm-0.6-24.9c-0.2 0.1-0.4 0.2-0.5 0.3-0.2-0.1-0.4-0.3-0.6-0.4 0.3 0.1 0.7 0.1 1.1 0.1zm-0.5 5.8c-0.1 0-0.1 0 0 0-0.2-0.1-0.2-0.2-0.3-0.2 0.1-0.2 0.2-0.4 0.2-0.5 0 0.2 0 0.5 0.1 0.7zm-2.1 5.9c0.2 0.3 0.5 0.5 0.7 0.8 0.3 0.3 0.7 0.5 1.1 0.7 0.2 0.6 0.2 1.1 0.3 1.7v0.2 1.4c0 0.8-0.1 1.7-0.4 2.5-0.1 0.1-0.2 0.1-0.4 0.2 0.5-2.6 0.3-5.5-1.3-7.5-0.1 0-0.1 0 0 0zm-0.8-10.5c-0.7 0.3-0.7 1.4-0.1 1.8-0.2 0-0.4 0.1-0.6 0.1-0.2-0.8-0.3-1.6-0.4-2.3 0.4 0.2 0.7 0.3 1.1 0.4zm-1.8 12.7c0.2 0.3 0.4 0.6 0.6 1 0.2 0.7 0.2 1.4 0.1 2.1-0.1 0-0.2 0-0.3-0.1s-0.1-0.3-0.2-0.4-0.2-0.3-0.3-0.4c-0.1-0.7 0-1.5 0.1-2.2zm0.8 13.4l-0.3 0.9h-0.1c0-0.1-0.1-0.3-0.1-0.4l0.5-0.5zm-2.2-26.4c0.1 0.9 0.3 1.8 0.5 2.7-0.3 0.1-0.6 0.1-0.9 0.1-0.3-0.8-0.4-1.6-0.4-2.4 0.2-0.1 0.5-0.3 0.8-0.4zm-0.8 5.9c0.5 0.4 1.1 0.8 1.8 0.9-0.6 0.1-1.2 0.2-1.6 0.5-0.2-0.1-0.3-0.2-0.4-0.4 0-0.3 0.1-0.7 0.2-1zm-1.2 6.1c0.1 0 0.2-0.1 0.3-0.1v1.2c-0.3 0.4-0.6 0.7-0.8 1.1 0.1-0.7 0.3-1.5 0.5-2.2zm-0.3 17.1c0 0.2 0 0.4-0.1 0.6-0.2 0-0.3 0.1-0.5 0.1-0.4-0.3-0.8-0.6-1.3-0.9 0.7 0.2 1.3 0.3 1.9 0.2zm-3-25.3c0.1-0.4 0.3-0.8 0.5-1.1-0.2 1-0.1 2 0.3 3 0 0.1 0.1 0.2 0.1 0.3l-0.3 0.9c-0.1 0.4-0.1 0.8 0.1 1.1-0.2 0.1-0.5 0.3-0.7 0.4l-0.3-0.3c-0.4-1.4-0.2-2.9 0.3-4.3zm0.2 15c0.1-0.1 0.2-0.2 0.4-0.3 0 0.2-0.1 0.3-0.1 0.5-0.1 0-0.2-0.1-0.3-0.2zm0.1 6.4c-0.1 0-0.3-0.1-0.4-0.1l-0.3-0.6c0.1 0 0.2 0 0.3-0.1 0.1 0.3 0.3 0.5 0.4 0.8zm-0.1-10.4c0.1-0.2 0.3-0.5 0.5-0.7 0 0.3-0.1 0.6-0.1 0.9-0.1-0.1-0.2-0.1-0.4-0.2zm-0.8 13c0.2 0.2 0.4 0.4 0.7 0.5-1-0.5-2.2-0.8-3.3-0.8 0-0.1-0.1-0.3-0.1-0.4v-0.2c0.2-0.1 0.5-0.1 0.7-0.2h0.3c0.5 0.5 1.1 0.9 1.7 1.1zm-2.9 17.7c0.3 0.1 0.6 0.2 0.9 0.2-0.2 0.1-0.3 0.1-0.5 0.2-0.2-0.1-0.3-0.2-0.4-0.3v-0.1zm-0.1-26.5l-0.1 0.1c0-0.9 0.1-1.9 0.3-2.8 0.2 0 0.3-0.1 0.5-0.1-0.3 0.9-0.6 1.8-0.7 2.8zm0.3 21.6c0.1 0 0.3-0.1 0.4-0.1 0 0.3-0.1 0.5-0.1 0.8 0-0.2-0.2-0.5-0.3-0.7zm0.2-31.5l-0.6-0.6c0.1 0 0.3 0 0.4 0.1 0.4 0.1 0.8 0.3 1.1 0.6 0.1 0.2 0.1 0.4 0.2 0.6-0.4-0.2-0.8-0.4-1.1-0.7zm0.8-5.5c0.1 0 0.1-0.1 0 0-0.2 0.9-0.3 2-0.3 3-0.6-0.2-1.3-0.3-2-0.2 0.2-1.2 1.4-2.2 2.3-2.8zm-4 10.3c-0.3-0.7 0-1.5 0.2-2.2 0-0.1 0.1-0.2 0.1-0.3 0.8-0.3 1.9-0.1 2.7 0.3-0.7 0.8-1.3 1.7-1.7 2.6-0.3 0.1-0.6 0.1-0.8 0.1-0.3-0.2-0.4-0.2-0.5-0.5zm1.6 28.5c-0.2-0.1-0.3-0.2-0.4-0.4 0-0.1 0.1-0.1 0.1-0.2 0 0.2 0.2 0.4 0.3 0.6zm-1.8-2.3c0.1-0.7 0.3-1.9 0.9-2.3-0.1 0.5-0.1 1-0.1 1.6-0.3 0.2-0.6 0.5-0.8 0.7zm0.5 16.1l0.4-0.4c0 0.4 0.1 0.8 0.2 1.2 0.2 0.4 0.4 0.7 0.8 1 0.1 0.1 0.1 0.2 0.2 0.2-1-0.4-2.1-1.3-1.6-2zm1.7-4.2c-0.2-0.4-0.2-0.9-0.2-1.4v-0.3c0.4 0.4 0.9 0.7 1.4 0.9-0.4 0.2-0.8 0.4-1.2 0.8zm3 4c-0.4 0.3-0.8 0.5-1.3 0.6-0.2 0.1-0.4 0-0.6 0-0.1-0.1-0.1-0.2-0.2-0.4-0.1-0.1-0.1-0.3-0.1-0.4 0 0 0.1 0 0.1-0.1 0.5-0.3 1.4-0.2 2.1 0 0.1 0.1 0 0.2 0 0.3zm1.4-6.3h-0.2c0.4-0.3 0.8-0.7 1.1-1.1 0.2 0.6-0.1 1-0.9 1.1zm0.5-11.6l0.3-0.3c0.4 0.5 0.6 1.1 0.7 1.7v0.1c-0.1 0-0.2 0.1-0.3 0.1-0.1-0.1-0.2-0.2-0.4-0.3-0.1-0.4-0.2-0.9-0.3-1.3zm0.9 16c-0.2-0.2-0.5-0.3-0.8-0.5 0.3-0.3 0.7-0.6 0.9-1 0 0.5-0.1 1-0.1 1.5zm-0.9-21.7c-0.2-0.1-0.4-0.2-0.5-0.3h1.7l0.3 0.3c0 0.1-0.1 0.2-0.2 0.3-0.4-0.1-0.9-0.2-1.3-0.3zm2 10.2c0.4-0.5 0.7-1.2 0.9-1.8-0.4 2-0.8 4-1.1 6-0.1-0.2-0.3-0.3-0.4-0.4 0.6-1.2 0.8-2.5 0.6-3.8zm15.6 73.8c-4.3-2.7-8-6.3-10.6-10.6-2.8-4.5-4.3-9.8-4.9-15.1-0.6-6.1-0.6-12.2-0.4-18.3 0.2-8.1 0.9-16.2 2.1-24.2 1-6.4 2.3-12.8 4.4-19 1.5-0.4 2.9-1.4 4-2.4l0.6-0.6c0.2 0.1 0.4 0.1 0.7 0 0.7-0.3 1.3-0.5 2-0.8 0.2 0.5 0.7 0.9 1.4 1.1 0.6 0.2 1.1 0.3 1.7 0.2 0.2 0.2 0.5 0.4 0.8 0.4 1.8 0 3.6-0.3 5.3-1.1 1.2-0.6 0.2-2.4-1.1-1.8-0.4 0.2-0.9 0.4-1.4 0.5 0.4-0.4 0.7-0.9 1-1.4 0-0.1 0.1-0.1 0.1-0.2 0.1-0.1 0.2-0.2 0.4-0.2 1 0.4 2 0.4 3.1-0.3 1.4-0.9 2.3-2.9 2.3-4.6 0-0.6-0.2-1.2-0.4-1.7 0.4-0.5 0.6-1.2 0.6-2 0-1.6-0.8-2.8-1.9-3.6 0.6-0.3 1.3-0.6 1.9-0.9 18.9-2.5 29 19.4 35.7 33.8 4.4 9.4 8.3 19.1 10.5 29.3 2.2 10.1 2.8 21.1-1.2 30.9-2 4.9-5.4 9.2-9.5 12.6-4.6 3.8-9.8 7.1-15.7 8.5-5 1.2-10.1 0.4-15-1.1-6-1.7-11.6-4.2-16.5-7.4zm39.4 40.1c-3.4 0.5-6.9 0.7-10.4 0.7-3.3 0-6.6-0.4-9.9-0.8-4.5-0.6-9-0.9-13.4-1.8-1.3-0.3-2.6-0.6-3.8-1-0.9-0.3-1.5-1.1-1.9-2-0.8-1.5-1.1-3.3-1.2-5 0.7-0.3 0.7-1.4 0-1.8v-0.4c0.4-4.5 2.9-10.4 8-10.4 0 0.8-0.1 1.6-0.1 2.3-0.3-1.2-2.2-0.6-2 0.7 0.3 1.8 1.2 3.2 2.4 4.4 0.1 0.3 0.3 0.5 0.6 0.5 2.7 2.2 6.7 3.5 9.7 4.2 7.4 1.8 15.4 2 22.9 1.2 4.1-0.4 8.2-1.2 12-2.8 1.8-0.8 3.7-1.9 4.9-3.5 0.3-0.2 0.5-0.5 0.5-0.8 0.2-0.4 0.3-0.8 0.4-1.2 0.1-0.6-0.2-1.1-0.7-1.3-1.4-0.5-2.9-0.9-4.4-1-0.4-1.2-0.7-2.5-0.9-3.7 1.4-0.8 2.8-1.5 4.4-1.4 1.1 0.1 2 0.9 2.7 1.6 2 2 3.5 4.4 5.7 6.3-3.4 11-14.8 15.4-25.5 17z"/>
			<path class="st4" d="m377.5 271.7c5.1-0.2 10.4-2.7 14.3-5.8 4-3.1 7.1-7.2 9.8-11.5 2.2-3.5 3.9-7.3 5.6-11.1 0.9 0.2 1.8-1 1-1.8s-1.7-1.7-2.1-2.8c-0.5-1.3-2.5-0.7-2 0.6 0.1 0.4 0.3 0.8 0.5 1.1-0.1 0.1-0.2 0.1-0.2 0.2-12.7 14.4-32.6 20.9-51.3 16.7-0.2-0.1-0.5 0-0.7 0.1v-0.4c0-1.4-2.1-1.4-2.1 0 0 1.9-0.6 3.7-0.6 5.6 0 0.9 1.2 1.5 1.8 0.8 0.3-0.4 0.3-0.8 0.4-1.3v-0.5-0.4c2.7 3.6 7 5.9 11.1 7.6 4.5 1.7 9.6 3.1 14.5 2.9zm14.4-13.6c-0.2 0.1-0.3 0.2-0.5 0.3 0-0.1-0.1-0.1-0.1-0.2 0.4-0.3 0.8-0.6 1.1-0.9-0.1 0.3-0.3 0.6-0.5 0.8zm5.9-8.5c-0.2 0.2-0.3 0.5-0.3 0.8-2.1 2.1-4.3 4-6.8 5.8-0.1-0.5-0.1-1.1-0.1-1.6 0-0.1 0-0.3-0.1-0.4 2.5-1.4 5-2.9 7.3-4.6zm-8.2 9.9l0.2 0.2c-0.2 0.1-0.3 0.2-0.5 0.4l-0.2-0.2c0.2-0.2 0.4-0.3 0.5-0.4zm-1.1-4.3c0 0.8 0.1 1.6 0.3 2.3-2.8 1.9-5.7 3.6-8.7 5.1-0.3-1.3-0.6-2.7-0.8-4 3.1-0.8 6.2-2 9.2-3.4zm-35.1 4.4h0.2c0 0.1 0.1 0.3 0.3 0.4l0.3 0.3c0.2 0.3 0.4 0.5 0.5 0.8-0.5-0.4-0.9-1-1.3-1.5zm5.3 1.3l-0.6-0.6c0.2 0 0.4 0 0.6 0.1-0.1 0.1-0.1 0.3 0 0.5zm2.4-0.2c0-0.1-0.1-0.1-0.1-0.2 2.7 0.2 5.4 0.1 8.1-0.1v0.2c0 1.2 0.2 2.4 0.3 3.6-3-0.6-5.7-1.9-8.3-3.5zm11.3 4.1c-0.3 0-0.6-0.1-0.9-0.1-0.1-1.3-0.3-2.6-0.3-4 0-0.2 0-0.3-0.1-0.4 2-0.2 4.1-0.6 6.1-1.1 0.3 1.5 0.6 2.9 0.9 4.4-1 0.5-2.1 0.9-3.2 1.3-0.8 0-1.7-0.1-2.5-0.1zm5.6 4.3c0.2 0.1 0.4 0.2 0.6 0.2h0.4 0.1c-1.2 0.2-2.3 0.3-3.5 0.2 0.8-0.1 1.6-0.2 2.4-0.4z"/>
			<path class="st4" d="m352.5 216.9c0.4 0 0.8-0.1 1.1-0.4 1.7-0.7 3.2-1.7 4.6-2.8 3.1-0.2 6.5 1.9 8.2 4.8 2.8 4.5 0.7 9.6-0.4 14.4h-0.2c-4.9-0.4-7.1 5.2-5.1 9-3.9 0.4-7.4 2.8-9.5 6.2-0.7 1.2 1.1 2.2 1.8 1.1 2.2-3.4 5.9-5.5 9.9-5.1 0.9 0.1 1.5-1.2 0.8-1.8-2.7-2.1-2-7.2 1.9-7.2v0.1c-0.5 3.5-0.1 7.1 3.2 9.1 2.3 1.4 5.2 1.5 7.8 1.2 5.1-0.7 11-3.4 13.1-8.4 0.5-1.1 0.7-2.1 0.8-3.1 0.3 0.1 0.6 0.2 1 0 2.5-1.4 5.8-2.2 8.6-1.3 1.3 0.4 1.9-1.6 0.6-2-3.3-1-7.3-0.2-10.3 1.5-0.8-5-5.8-9.1-9.8-11.8-1.1-0.8-2.2 1.1-1.1 1.8 3.4 2.3 7.3 5.3 8.6 9.4 0.8 2.6-0.1 5.1-1.9 7-3.5 3.8-10.2 6-15.2 4.4-2.3-0.8-3.2-2.5-3.4-4.8-0.3-4.8 2.2-9.4 2.3-14.2 0.1-4.9-2.8-9.4-7.2-11.4-0.7-0.3-1.4-0.5-2-0.7l0.3-0.3c0.7-0.6 0.1-1.8-0.8-1.8-3.8 0.1-7.8 1.6-9 5.5-0.1 0.2-0.1 0.4 0 0.6-0.1 0.5 0.5 1.3 1.3 1z"/>
			<path class="st4" d="m375.4 208.5c0-0.1-0.1-0.2-0.1-0.2 0.2-0.1 0.3-0.2 0.4-0.4 0.5-0.7 1-1.5 1.6-2.1l0.3-0.3h0.1c0.1 0 0.1-0.1 0.2-0.1 0.6-0.3 1.3-0.5 2-0.7 0.5-0.2 0.7-0.5 0.7-0.9 0.8 0.2 1.5 0.4 2.2 0.8 1.2 0.6 2.3-1.2 1.1-1.8-2.5-1.2-5.6-1.8-8.2-0.6-2.8 1.3-3.3 4.3-2.3 7 0.4 1.2 2.5 0.6 2-0.7z"/>
			<path class="st4" d="m352.3 232.7c0.5-4 4.7-6.3 8.4-6.8 1.3-0.2 1.4-2.3 0-2.1-2.1 0.3-4.4 1-6.3 2.2 2-1.9 4.8-3 7.5-3.4 1.1-0.2 0.9-1.6 0.1-2-0.1-0.2-0.3-0.4-0.6-0.5-2.3-1-5-0.9-7.1 0.3-2.4 1.4-3.1 4.1-2.7 6.6 0.1 0.5 0.3 0.7 0.7 0.7-1.1 1.2-1.9 2.6-2.1 4.3-0.1 1.4 1.9 2 2.1 0.7zm1.7-6.4c-0.1 0.1-0.2 0.1-0.3 0.2v-0.1-0.1c0.1 0.1 0.2 0 0.3 0z"/>
			<path class="st4" d="m378.5 213.8c-0.2 0.1-0.4 0.3-0.6 0.4-0.9 0.7 0 1.9 1 1.7 0.5 0.1 1.1-0.1 1.3-0.7v-0.1c2.7-1.6 6.2-1.6 9.1-2.5 0.4-0.1 0.6-0.4 0.7-0.6 0.6-0.3 0.9-1.1 0.2-1.6-4.1-3.5-9.6-1.1-11.7 3.4z"/>
			<path class="st4" d="m381.9 217.3c-1.1 0.8 0 2.6 1.1 1.8 1.4-1 3.1-1.5 4.7-1.9 1.9-0.4 4-0.6 5.8 0.1 1.3 0.5 1.8-1.6 0.6-2-2.1-0.8-4.5-0.6-6.6-0.2-2 0.4-4 1.1-5.6 2.2z"/>
			<path class="st4" d="m386.9 273.4c-2.2 0.9-4.4 1.9-6.6 2.8-1.3 0.5-0.7 2.6 0.6 2 2.2-0.9 4.4-1.9 6.6-2.8 1.2-0.5 0.6-2.6-0.6-2z"/>
	<path class="st5" d="m134.4 248.8s-63.2-0.1-60.5 36.3 4 78.7 73.3 66.6c69.3-12.1 68.9-74.7 43.5-96.9s-83.4-55.8-25.1-106.3 170-22.6 153.8 42.8c-16.1 65.5-102.1 131.4-25.2 179.2s224.1 30.9 206.4-40.4c-17.7-71.3-64.2-57.2-68.2-114"/>
	<path class="st1" d="m54.3 229.8c5.8-1.5 5.6 7.4 1 7.3-3.8-0.1-5.1-6.2-1-7.3zm1.6 4.6c0.6-0.7 0.3-1.5-0.2-2.1-2-0.2-1 2.1 0.2 2.1z"/>
		<path d="m79.4 233.4h11.3c2 0 2-3.2 0-3.2h-11.3c-2 0.1-2 3.2 0 3.2z"/>
		<path d="m83.3 224.8v14.4c0 2 3.2 2 3.2 0v-14.4c0-2.1-3.2-2.1-3.2 0z"/>
	<path class="st1" d="m92.6 163.4c2.9-0.5 6.3 0.7 6.8 2.5 1.7 5.9-11 6.5-10.8 1 0.1-1.9 1.7-3.1 4-3.5zm4.1 3.4c-0.2-1.9-5.6-1.8-5.2 1 1.4 1.4 5.4 0.9 5.2-1z"/>
	<path class="st1" d="m120.6 221.2c2.2-3 9.2-2.7 10.6 0.5 1 2.4-1.1 5.2-3.9 5.6-5 0.7-6.8-2.4-6.7-6.1zm2.7 1.3c-1.2 2.9 6 3.8 5.2 0.3-0.3-1.2-1.8-1.5-3.5-1.2-1 0.3-1.5 0.5-1.7 0.9z"/>
	<path class="st1" d="m73.5 186.6c9.9-1.6 12.7 9.6 3.1 11.3-5.9 1.1-11.7-3.7-8.5-8.5 0.9-1.4 3-2.4 5.4-2.8zm-1.6 3.3c-0.7 0.4-1.9 1.4-2.1 2.3-0.3 1.8 2.1 3.4 3.7 3.6 6.9 1.1 8.5-7.9 0.8-6.7-0.8 0.1-1.8 0.3-2.4 0.8z"/>
	<path class="st1" d="m113.7 185.7c2.5-0.5 3.5 0.4 3.7 1.5 0.7 3.4-6.1 4.1-6.2 0.8-0.1-1.4 0.9-2 2.5-2.3z"/>
		<path class="st1" d="m223.8 342.2c3.3-1 6.7-0.7 9.1 0.4 1.8 0.8 3.9 2.4 4.8 4.4 1 2.2 0.2 4.9-0.8 6.3-1.7 2.6-5.5 4.3-9.9 4.4-0.5 0-1.2-0.1-1.7 0.1-0.6 0.2-1 0.6-1.5 0.9s-0.9 0.6-1.5 0.9c-0.7 0.3-3.3 1.5-3.6 0.7-0.2-0.6 0.9-1 1.4-1.6 0.2-0.2 1.4-1.3 1.3-1.6 0-0.2-0.8-0.4-1-0.4-1.6-0.7-3.3-1.9-4-4.2-1.6-5.3 2.6-8.9 7.4-10.3zm-1 16c0.7-0.4 1.3-1 2-1.2 0.8-0.2 1.7-0.1 2.4-0.1 3.7-0.2 7.1-1.6 8.7-3.9 0.8-1.2 1.6-3.4 1-5.2-0.7-2-2.7-3.4-4.5-4.3-2.1-1-4.4-1.2-6.8-0.8-3.4 0.5-6.3 2.5-7.5 4.3-0.9 1.3-1.4 3.2-0.8 5.3 0.5 1.8 2 3 3.3 3.7 0.3 0.1 1.4 0.4 1.5 0.7 0.2 0.5-0.8 1.8-1 2.1-0.2 0.2-0.4 0.4-0.3 0.5 0.7-0.4 1.3-0.7 2-1.1z"/>
		<path class="st1" d="m218.8 347.2c0 0.1 0 0.1 0.1 0.1-0.3 0.7-0.5 1.5-1.1 2-0.4-0.7 0.5-1.4 0.7-2.1 0.1-0.1 0.2-0.1 0.3 0z"/>
		<path class="st1" d="m219.5 347.7c0 0.4-0.2 0.8-0.4 1.1-0.1 0.3-0.3 0.8-0.7 0.8-0.1-0.7 0.4-1.5 0.9-2 0.1 0 0.1 0.1 0.2 0.1z"/>
		<path class="st1" d="m220.1 348c0.1 0.4-0.1 0.9-0.6 1.1-0.4-0.3 0.1-1.2 0.6-1.1z"/>
		<path class="st1" d="m220.8 348.2c0 0.3-0.1 0.5-0.4 0.6-0.1-0.1-0.1-0.1-0.2-0.1 0-0.3 0.3-0.7 0.6-0.5z"/>
		<path d="m197.2 357h6.8c1.2 0 1.2-1.9 0-1.9h-6.8c-1.2 0-1.2 1.9 0 1.9z"/>
		<path d="m199.5 351.8v8.7c0 1.2 1.9 1.2 1.9 0v-8.7c0-1.2-1.9-1.2-1.9 0z"/>
	<path class="st1" d="m225.4 309.5c1.8-0.3 3.8 0.4 4.1 1.5 1 3.6-6.6 3.9-6.5 0.6 0.1-1.1 1.1-1.9 2.4-2.1zm2.5 2.1c-0.1-1.2-3.4-1.1-3.1 0.6 0.9 0.8 3.3 0.5 3.1-0.6z"/>
	<path class="st1" d="m247.3 317.2c1.3-1.8 5.5-1.6 6.4 0.3 0.6 1.5-0.7 3.1-2.4 3.4-3 0.4-4.1-1.4-4-3.7zm1.6 0.8c-0.8 1.7 3.6 2.3 3.1 0.2-0.2-0.7-1.1-0.9-2.1-0.7-0.6 0.1-0.9 0.3-1 0.5z"/>
	<path class="st1" d="m214 323.5c6-1 7.7 5.8 1.9 6.8-3.5 0.6-7.1-2.3-5.1-5.2 0.4-0.7 1.7-1.4 3.2-1.6zm-1 1.9c-0.4 0.3-1.2 0.9-1.3 1.4-0.2 1.1 1.3 2 2.2 2.2 4.2 0.6 5.1-4.7 0.5-4.1-0.5 0.1-1.1 0.3-1.4 0.5z"/>
	<path class="st1" d="m238.2 323c1.5-0.3 2.1 0.2 2.2 0.9 0.4 2.1-3.7 2.5-3.7 0.5-0.1-0.9 0.5-1.2 1.5-1.4z"/>
	<path class="st1" d="m464.7 158.5c2.3-0.5 3.6 0.7 3.8 2.2 0.5 4.2-6.1 4.8-6.2 0.6 0-1.5 1.1-2.2 2.4-2.8zm-0.3 3.3c0.7 2.7 3.8-1.9 1-1.3-0.7 0.1-1.3 0.3-1 1.3z"/>
	<path class="st1" d="m419.3 145.7c3.4-0.7 3.2 4.3 0.9 4.5-2.3 0.3-3.9-3.9-0.9-4.5zm0.9 2.6c0-0.4 0-0.7-0.1-0.9h-0.4c-0.1 0.5 0 0.9 0.5 0.9z"/>
	<path class="st1" d="m436.4 153.6c-1.5-2.3-0.7-5.7 1.8-6 1.6-0.2 3.6 0.7 4 2.3 0.5 2.9-2.8 5.9-5.8 3.7zm2.2-1c2.6 0.5 1.7-4.9-0.9-2.5 0.1 1.3 0.1 2.3 0.9 2.5z"/>
	<path class="st1" d="m429.6 175.7c0.5-0.1 1-0.2 1.2 0.6 0.7 3-4.1 0.2-1.2-0.6z"/>
	<path class="st1" d="m448.2 187.2c4.1-1 4 5.2 0.7 5.1-2.7-0.1-3.6-4.4-0.7-5.1zm1.1 3.2c0.4-0.5 0.2-1.1-0.1-1.5-1.5-0.1-0.7 1.5 0.1 1.5z"/>
	<path class="st1" d="m420.6 194.4c4.8-0.9 4.3 6.3 0.4 6.2-2.5-0.2-4-5.6-0.4-6.2zm1 4.1c1.9-0.3-0.2-3.8-1.3-1.6 0.3 0.7 0.5 1.7 1.3 1.6z"/>
	<path class="st1" d="m437.6 196.7c-0.3 3.8-3.7-1.8 0 0z"/>
		<path d="m466 189.7h8c1.4 0 1.4-2.2 0-2.2h-8c-1.5 0-1.5 2.2 0 2.2z"/>
		<path d="m468.7 183.6v10.2c0 1.4 2.2 1.4 2.2 0v-10.2c0-1.5-2.2-1.5-2.2 0z"/>
		<path d="m217.4 378.8c23 0.4 46.1 0.8 69.1 1.2 2.2 0 2.2-3.3 0-3.3-23-0.4-46.1-0.8-69.1-1.2-2.2-0.1-2.2 3.3 0 3.3z"/>
		<path d="m254.5 394.4h46.4c2.2 0 2.2-3.3 0-3.3h-46.4c-2.1-0.1-2.1 3.3 0 3.3z"/>
		<path d="m454.7 233.4h54.7c2.2 0 2.2-3.3 0-3.3h-54.7c-2.1 0-2.1 3.3 0 3.3z"/>
		<path d="m452.7 220h16.5c2.2 0 2.2-3.3 0-3.3h-16.5c-2.2-0.1-2.2 3.3 0 3.3z"/>
		<path d="m497 246.8h9.3c2.2 0 2.2-3.3 0-3.3h-9.3c-2.1 0-2.1 3.3 0 3.3z"/>
		<path d="m64.7 255.9h-42.3c-2.2 0-2.2 3.3 0 3.3h42.3c2.1 0 2.1-3.3 0-3.3z"/>
		<path d="m65.7 214.6h-32c-2.2 0-2.2 3.3 0 3.3h32c2.1 0 2.1-3.3 0-3.3z"/>
</g>
</svg>
