<?xml version="1.0" encoding="UTF-8" standalone="no"?>
<!-- Generator: Adobe Illustrator 21.0.0, SVG Export Plug-In . SVG Version: 6.00 Build 0)  -->
<svg style="enable-background:new 0 0 559 520" xmlns="http://www.w3.org/2000/svg" xml:space="preserve" version="1.1" y="0px" x="0px" xmlns:xlink="http://www.w3.org/1999/xlink" viewBox="0 0 559 520">
<style type="text/css">
	.st0{fill:#CFEBF6;}
	.st1{fill:#FFFFFF;}
</style>
<g id="Layer_1">
	<path class="st0" d="m103 271.2m96.8-106.4c-0.8 0.3-1.7 0.7-2.5 1-38.3 15.5-71.3 39.5-92.4 75.5-3.6 6.1-6.9 12.7-7.4 21.3-0.4 7 1.3 15.5 5.6 23.7 1.4 22.8 8.9 48.7 26.8 71.5 22 28 54.1 43.3 78.4 43.9 13.3 0.3 24.9-3 36.3-6.5 37.9-11.4 75.1-24 111.5-37.7 3.5-1.3 7.1-2.7 10.6-4.1 24.1-9.5 47.3-20.3 64.8-38.4 7.6-7.8 14-16.9 23.3-22.5 7.6-4.6 17-6.7 23.2-12.9 5.4-5.2 8.3-13.1 10-21.7 2-10.4 2.4-22.4-1.4-35.6s-12-27.8-23.3-38.3c-10.9-10.2-23.3-15.6-34.7-24.8-7.1-5.8-13.8-13.3-21.3-17.7-7.8-4.7-15.3-5.3-22.2-5.5-21.2-0.8-41.5 0.7-61.4 2.7-43.7 4.3-86.2 11.3-123.9 26.1"/>
				<path class="st1" d="m412.2 341.6h-0.6-0.4c-0.5 0-0.9 0.2-1.1 0.4l-0.1 0.1 0.6 1.1-0.6-1.1c-1.2 0.6-1.3 2.7-1.3 2.7 0 1.9 1.8 3.2 3.4 3.2 2 0 3.4-1.8 3.4-3.3s-1.2-3.1-3.3-3.1zm-0.1 3.9c-0.4 0-0.9-0.3-0.9-0.6 0-0.1 0.1-0.4 0.1-0.6 0 0 0.1 0 0.1-0.1h0.3 0.4c0.6 0 0.8 0.4 0.8 0.5 0.1 0.1-0.2 0.8-0.8 0.8z"/>
				<path class="st1" d="m235.3 303.4v-5.3-4.8c0-0.4-0.2-0.7-0.4-0.9-0.3-0.2-0.6-0.4-1-0.3-3.6 0.3-7.2 0.4-10.7 0.6s-7.2 0.3-10.8 0.6c-0.7 0-1.2 0.6-1.2 1.3v2.8c0 2.6-0.1 5.2-0.1 7.8s-0.1 5.3-0.1 7.9c0 1.6 0 3.1 0.1 4.5 0 0.7 0.6 1.2 1.3 1.2h1.9 5.6c4.2 0 9.2 0 14.2 0.2 0.3 0 0.7-0.1 0.9-0.4 0.3-0.3 0.4-0.6 0.4-0.9-0.1-2.6-0.1-5.4-0.1-8.9v-5.4zm-15.4 12.8h-5.6-0.6v-3.2c0-2.6 0.1-5.3 0.1-7.8 0-2.6 0.1-5.2 0.1-7.8v-1.6c3.2-0.2 6.4-0.4 9.6-0.5 3.1-0.1 6.3-0.3 9.4-0.5v3.4 5.3 5.3c0 2.9 0 5.4 0.1 7.6-4.7-0.2-9.2-0.2-13.1-0.2z"/>
				<path class="st1" d="m337.7 212c-2.7 0-5.1 2.4-5.1 5.2 0 3.4 3.4 4.8 5.3 4.8 2 0 4.9-2.3 4.9-5.5v-0.4c0-0.6-0.2-1.3-0.6-1.8-1.3-1.5-2.8-2.3-4.5-2.3zm0.1 7.4c-0.4 0-2.7-0.4-2.7-2.2 0-1.4 1.3-2.7 2.6-2.7 0.9 0 1.7 0.4 2.4 1.3 0.1 0.1 0.1 0.2 0.1 0.2v0.4c-0.1 1.9-1.9 3-2.4 3z"/>
				<path class="st1" d="m364.2 218.7h2.7 3.6c1.4 0 2.6 0 3.8-0.1 0.7 0 1.2-0.6 1.2-1.3-0.1-2.3-0.1-4.5-0.1-6.7v-3.1c0-0.4-0.2-0.7-0.4-0.9-0.3-0.2-0.6-0.4-1-0.3-2.9 0.3-6.1 0.5-10 0.5-0.3 0-0.7 0.1-0.9 0.4-0.2 0.2-0.4 0.6-0.3 0.9 0.1 2.7 0.2 5.7 0.2 9.3-0.1 0.8 0.5 1.3 1.2 1.3zm8.6-9.7v1.7 5.6c-1.7 0.1-3.9 0-5.9 0h-1.4c0-2.5-0.1-4.7-0.1-6.8 2.7-0.1 5.1-0.3 7.4-0.5z"/>
				<path class="st1" d="m386 207.4c-0.4 0-0.7 0.1-1 0.4-0.3 0.2-0.4 0.6-0.4 0.9v5.2 3.7c0 0.3 0.1 0.7 0.4 0.9 0.2 0.2 0.6 0.4 0.9 0.4h2 2.5c2 0 3.5-0.1 4.9-0.2 0.7-0.1 1.2-0.6 1.2-1.3v-8.8c0-0.4-0.1-0.7-0.4-0.9s-0.6-0.4-1-0.3c-2.6 0.3-5.5 0.3-9.1 0zm8 8.9c-1 0.1-2.2 0.1-3.6 0.1h-2.5-0.8v-2.5-3.9c2.5 0.1 4.7 0.1 6.8 0v6.3z"/>
				<path class="st1" d="m418.4 212.4c-0.1-1.7-0.2-3.4-0.2-4.9v-0.6c0-0.4-0.1-0.7-0.4-0.9s-0.6-0.4-1-0.3c-3 0.2-6.3 0.2-9.6 0.1-0.4 0-0.7 0.1-1 0.4-0.2 0.3-0.4 0.6-0.4 1 0.2 2.6 0.4 5.1 0.6 7.7 0.1 1 0.2 2.1 0.3 3.1 0.1 0.7 0.6 1.2 1.3 1.2 0.9 0 1.8 0 2.7 0.1 1.3 0 2.6 0.1 3.8 0.1 1 0 2 0 2.8-0.1 0.7 0 1.2-0.7 1.2-1.3 0.1-2 0-3.9-0.1-5.6zm-3.9 4.2c-1.3 0-2.5 0-3.8-0.1h-1.5c-0.1-0.7-0.1-1.3-0.2-2-0.2-2-0.4-4.1-0.5-6.2 2.4 0 4.8 0 7.1-0.1 0 1.4 0.1 2.9 0.2 4.3 0.1 1.3 0.2 2.7 0.2 4.1h-1.5z"/>
				<path class="st1" d="m189.2 229.8h2.7 3.6c1.4 0 2.6 0 3.8-0.1 0.7 0 1.2-0.6 1.2-1.3-0.1-2.3-0.1-4.5-0.1-6.7v-3.1c0-0.4-0.2-0.7-0.4-0.9-0.3-0.2-0.6-0.4-1-0.3-2.9 0.3-6.1 0.5-10 0.5-0.3 0-0.7 0.1-0.9 0.4-0.2 0.2-0.4 0.6-0.3 0.9 0.1 2.7 0.2 5.7 0.2 9.3-0.1 0.8 0.5 1.3 1.2 1.3zm8.6-9.7v1.7 5.6c-1.7 0.1-3.9 0-5.9 0h-1.4c0-2.5-0.1-4.7-0.1-6.8 2.7-0.2 5.2-0.3 7.4-0.5z"/>
				<path class="st1" d="m211 218.5c-0.4 0-0.7 0.1-1 0.4-0.3 0.2-0.4 0.6-0.4 0.9v5.2 3.7c0 0.3 0.1 0.7 0.4 0.9 0.2 0.2 0.6 0.4 0.9 0.4h2 2.5c2 0 3.5-0.1 4.9-0.2 0.7-0.1 1.2-0.6 1.2-1.3v-8.8c0-0.4-0.1-0.7-0.4-0.9s-0.6-0.4-1-0.3c-2.6 0.2-5.5 0.2-9.1 0zm8 8.9c-1 0.1-2.2 0.1-3.6 0.1h-2.5-0.8v-2.5-3.9c2.5 0.1 4.7 0.1 6.8 0v6.3z"/>
				<path class="st1" d="m242.8 217c-0.3-0.2-0.6-0.4-1-0.3-3 0.2-6.3 0.2-9.6 0.1-0.4 0-0.7 0.1-1 0.4-0.2 0.3-0.4 0.6-0.4 1 0.2 2.6 0.4 5.1 0.6 7.7 0.1 1 0.2 2.1 0.3 3.1 0.1 0.7 0.6 1.2 1.3 1.2 0.9 0 1.8 0 2.7 0.1 1.3 0 2.6 0.1 3.8 0.1 1 0 2 0 2.8-0.1 0.7 0 1.2-0.7 1.2-1.3 0-1.8-0.1-3.6-0.2-5.4-0.1-1.7-0.2-3.4-0.2-4.9v-0.6c0.1-0.5-0.1-0.8-0.3-1.1zm-3.3 10.7c-1.3 0-2.5 0-3.8-0.1h-1.5c-0.1-0.7-0.1-1.3-0.2-2-0.2-2-0.4-4.1-0.5-6.2 2.4 0 4.8 0 7.1-0.1 0 1.4 0.1 2.9 0.2 4.3 0.1 1.3 0.2 2.7 0.2 4.1h-1.5z"/>
				<path class="st1" d="m393.8 241.9c-0.5 0-1 0.4-1.2 0.9-1 3.2-2.7 5.4-5 6.6-0.5 0.3-0.7 0.8-0.7 1.3 0.1 0.5 0.5 1 1 1.1 4.5 0.9 6.5 3.9 7.3 5.6 0.2 0.4 0.6 0.7 1.1 0.7s0.9-0.3 1.1-0.7c1.6-2.9 4-4.2 6-4.9 0.5-0.2 0.8-0.7 0.8-1.2s-0.4-1-0.9-1.2c-4-1.4-7-4-8.4-7.5-0.1-0.4-0.6-0.8-1.1-0.7zm6.1 9.5c-1.2 0.7-2.4 1.7-3.5 3-1.3-1.9-3.2-3.4-5.4-4.4 1.2-1 2.2-2.4 2.9-3.9 1.6 2.2 3.6 4 6 5.3z"/>
				<path class="st1" d="m201.2 176c4.5 0.9 6.5 3.9 7.3 5.6 0.2 0.4 0.6 0.7 1.1 0.7s0.9-0.3 1.1-0.7c1.6-2.9 4-4.2 6-4.9 0.5-0.2 0.8-0.7 0.8-1.2s-0.4-1-0.9-1.2c-4-1.4-7-4-8.4-7.5-0.2-0.5-0.7-0.8-1.2-0.8s-1 0.4-1.2 0.9c-1 3.2-2.7 5.4-5 6.6-0.5 0.3-0.7 0.8-0.7 1.3 0.1 0.7 0.5 1.1 1.1 1.2zm6-5.6c1.5 2.2 3.5 4 5.9 5.3-1.2 0.7-2.4 1.7-3.5 3-1.3-1.9-3.2-3.4-5.4-4.4 1.2-1 2.2-2.3 3-3.9z"/>
				<path class="st1" d="m358.9 266.4c4.6 0 9.4-4.4 9.4-12.4 0-7.6-6-10.8-9.2-10.8h-0.2c-5.7 0.4-9.2 6.4-9.2 12.1 0 8.1 5.7 11.1 9.2 11.1zm0.2-20.6c1.8 0 6.7 1.9 6.7 8.2 0 6.4-3.5 9.9-6.9 9.9-2.6 0-6.7-2.3-6.7-8.6 0.1-3.7 2.2-9.2 6.9-9.5z"/>
				<path class="st1" d="m360.5 257.8c1.2 0 2.6-0.6 2.6-3.5 0-2.6-1.8-3-2.4-3-0.2 0-0.5 0-0.9 0.1-0.5-0.1-1 0-1.3 0.4-0.6 0.7-0.9 1.5-0.9 2.3 0.1 1.5 1.1 3.7 2.9 3.7zm-0.2-3.4c0.1-0.3 0.2-0.4 0.3-0.5v0.4c0 0.4 0 0.6-0.1 0.8-0.1-0.2-0.2-0.5-0.2-0.7-0.1 0-0.1 0 0 0z"/>
				<path class="st1" d="m311.4 277.3h-0.6c-3.9 0.1-7.9 2.1-9.8 6.1-0.2 0.5-0.2 1 0.2 1.4-0.4-0.4-0.4-0.9-0.2-1.4-0.7 1.4-1.1 3.2-1.1 5.1 0 5 3.5 11.9 11.4 11.9 6.8 0 12.3-5.5 12.3-12.2s-6.2-10.9-12.2-10.9zm-0.5 2.6h0.5c3.2 0 5.6 1.1 7.2 2.8-0.6 0.8-1.2 1.4-1.7 2.1-0.4 0.5-1 1.4-1.6 2.4-0.9 1.4-2.8 4.3-3.6 5-1.2-0.6-4.6-4.3-6.6-6.7-0.5-0.6-1-1.1-1.5-1.7 1.6-2.5 4.5-3.8 7.3-3.9zm0.4 18.1c-6.1 0-8.9-5.5-8.9-9.4 0-0.8 0.1-1.5 0.2-2.1 0.2 0.2 0.4 0.4 0.6 0.7 4.6 5.3 6.8 7.6 8.6 7.6 1.5 0 3-2 5.7-6.2 0.6-0.9 1.1-1.8 1.5-2.2l1.2-1.5c0.6 1.1 0.9 2.4 0.9 3.6 0 5.1-4.5 9.5-9.8 9.5z"/>
				<path class="st1" d="m310.3 287h0.2c0.7-0.1 1.2-0.8 1-1.5-0.2-0.9-0.2-1.7-0.2-2.7 0-0.7-0.6-1.3-1.3-1.3s-1.3 0.6-1.3 1.3c0 1.1 0 2 0.2 3.1 0.3 0.7 0.8 1.1 1.4 1.1z"/>
				<path class="st1" d="m368.8 332.8c-1.1 0-2.2 0.4-2.8 1.1-0.5 0.6-2.2 2.6-2.2 4.9 0 1.8 1.2 3.6 3.2 3.6 2.4 0 5-2.3 5-6-0.1-1.7-1.2-3.6-3.2-3.6zm-1.9 7.1c-0.3 0-0.6-0.6-0.6-1.1 0-1 0.8-2.4 1.5-3.2 0.1-0.1 0.4-0.2 0.9-0.2s0.6 0.9 0.6 1.1c0.1 2.3-1.4 3.4-2.4 3.4z"/>
				<path class="st1" d="m288.6 328c-0.7-0.1-1.4 0.3-1.5 1-0.2 0.9-0.3 1.8-0.4 2.7s-0.3 1.8-0.4 2.7c-0.1 0.7 0.3 1.4 1 1.5h0.2c0.6 0 1.1-0.4 1.3-1 0.2-0.9 0.3-1.8 0.4-2.7s0.3-1.8 0.4-2.7c0.2-0.7-0.3-1.4-1-1.5z"/>
				<path class="st1" d="m403.1 360c-0.3 0-0.5 0-0.8 0.1-0.8 0.1-1.5 0.4-2.1 0.9l-0.3-0.3c-4.5-2.8-8.5-5.8-12.8-9-2.3-1.7-4.6-3.5-7.1-5.3-0.7-0.5-1.2-1.1-1.8-1.7-0.7-0.8-1.5-1.6-2.5-2.2 1.5-2.6 2.3-5.5 2.3-8.3 0-2.7-0.8-6.3-3.1-8.6-0.8-0.8-1.7-1.4-2.6-2 0.3-4.4 0.5-10.3 0.5-12.9 0-5.7-0.6-25.8-3.3-43.8 0-0.1 0-0.2-0.1-0.3 2.9-3.4 4.6-7.9 4.6-13 0-7.2-4.6-14-11.5-17.1-2.6-1.2-5.5-1.8-8.2-1.8-2.8 0-5.2 0.6-7.3 1.7-1.3-0.1-2.6-0.2-4-0.3-8.8-0.7-20.3-1.6-27.9-4.1l-0.2-0.2c-0.3-0.2-0.6-0.2-0.8-0.2h-0.1l-2.9-0.8c0-0.3 0-0.5 0.1-0.8h0.1c0.7-0.2 2.1-0.7 2.3-2.8 0.2-1.5-0.4-2.7-0.4-2.7-0.3-0.7-0.7-1.3-1-1.8s-0.6-1-0.8-1.4c1.1-0.9 1.6-2.2 1.6-3.8s-0.5-3.2-1.1-4.4c13.7-4.9 28.9-14.3 37.4-30.1h0.7c5.1 0 12.1-5.5 14.6-17.2 0.8 2.2 3.1 4.1 6.8 4.1 4.5 0 7.3-3.4 7.3-6.7 0-0.5-0.1-0.9-0.2-1.4-0.6-2.5-2-4.3-4.3-5.2-0.9-0.4-1.8-0.5-2.7-0.5-2.3 0-4.7 1.3-6.1 3.4 0-0.8 0.1-1.7 0.1-2.5 0-17.2-7.6-25-15-26.7-6.4-14.3-17.8-25.4-32.3-31.4-5.4-2.2-10.9-3.6-16.6-4.2h-0.2c-0.8-0.1-2.5-0.2-2.5-0.2-1 0-2-0.1-3-0.1-18.2 0-34.9 5.3-47.1 14.8-13.5 10.6-20.7 25.9-20.7 44.3 0 13.4 3.8 26 10.9 36.6l0.1 0.1c2.4 3.6 5.3 7 8.5 10.1 8.1 7.8 17.9 13.2 28.2 15.8-0.7 0.7-1.2 1.8-1.2 3.3 0 3.2-0.4 3.7-0.7 4-0.3 0.4-0.6 0.8-0.8 1.4 0 0-0.4 1.6-0.2 2.8v0.1c0.1 1.6 0.5 3 1.1 4.2-2.9 0.9-9 2.1-9 2.1-13.3 2-31.5 4.6-31.5 29 0 1.8 0.1 3.6 0.1 5.4 0.1 1.8 0.1 3.6 0.1 5.4 0 1.7-0.1 3.3-0.2 4.7v0.1l-2.4 0.1c0-0.3-0.1-0.6-0.1-1-0.2-1.7-0.3-3.6-0.4-5.3 0-0.7-0.6-1.2-1.3-1.2s-1.2 0.6-1.2 1.3c0.1 1.7 0.3 3.6 0.4 5.3 0 0.3 0 0.5 0.1 0.8l-6.5 0.2v-1.5-5c0-0.7-0.6-1.3-1.3-1.3s-1.3 0.6-1.3 1.3v5 1.6l-7.2 0.2c-0.2-2.1-0.4-4.2-0.4-6.3 0-0.7-0.6-1.3-1.3-1.3s-1.3 0.6-1.3 1.3c0 2.2 0.2 4.3 0.4 6.3l-12.9 0.4c-0.3 0-0.7 0.2-0.9 0.4s-0.4 0.6-0.3 0.9c0.2 6.9 0.3 10.4 0.3 12.6h-8.7c-0.7 0-1.3 0.6-1.3 1.3s0.6 1.3 1.3 1.3h8.7c0 2.1 0 3.6 0.5 9.3-3 0.1-6.1 0.1-9 0.1-0.7 0-1.3 0.6-1.3 1.3s0.6 1.3 1.3 1.3c3 0 6.1-0.1 9.2-0.1 0.2 2.2 0.4 5 0.7 8.4-0.8 0-1.7 0.1-2.5 0.1-2.1 0-4.2 0.1-6.3 0.4-0.7 0.1-1.2 0.7-1.1 1.4 0.1 0.6 0.6 1.1 1.3 1.1h0.2c1.9-0.3 4-0.3 6-0.4 0.9 0 1.8 0 2.7-0.1 0.3 3.6 0.7 7.8 1.1 12.7 0.1 0.7 0.6 1.2 1.3 1.2l6.4-0.1c-0.1 0.3 0 0.7 0.2 1 0.1 0.2 0.2 0.4 0.2 0.6 0.1 0.7 0.6 1.1 1.3 1.1h0.1c0.7-0.1 1.2-0.7 1.1-1.4-0.1-0.5-0.2-1-0.4-1.4l5-0.1c0.2 2.9 0.3 6.6 0.3 9.8 0 0.7 0.6 1.3 1.3 1.3s1.3-0.6 1.3-1.3c0-2.6-0.1-6.2-0.3-9.7v-0.1l7.7-0.1c0 0.9 0.1 1.8 0.1 2.7 0.1 1.8 0.2 3.7 0.2 5.5 0 0.7 0.6 1.3 1.3 1.3s1.3-0.6 1.3-1.3c0-1.9-0.1-3.8-0.2-5.6 0-0.9-0.1-1.8-0.1-2.7l7-0.1c0.2 1.9 0.4 3.8 0.5 5.6 0.1 0.9 0.2 1.8 0.2 2.7 0.1 0.7 0.6 1.2 1.3 1.2h0.1c0.7-0.1 1.2-0.7 1.2-1.4-0.1-0.9-0.2-1.8-0.2-2.7-0.2-1.8-0.3-3.6-0.5-5.4l12.8-0.2c0.3 0 0.7-0.2 0.9-0.4 0.2-0.3 0.4-0.6 0.3-0.9l-0.2-5.6c1 1 2.5 2.5 3.7 3.6 0.1 0.1 0.2 0.1 0.2 0.2 0.2 0.2 0.4 0.4 0.6 0.5 0 0 0.1 0 0.1 0.1 0.2 0.1 0.3 0.2 0.4 0.3 4.4 3.4 9.3 3.8 13.2 3.8 2.3 0 4.7-0.2 7.1-0.4 2.1-0.2 4.2-0.3 6.3-0.4-0.6 1.1-1.3 2.7-1.3 5.1 0 0.5 0.3 1 0.7 1.2 1.3 0.6 3 1.1 9.6 1.1 5.1 0 5.2-3.6 5.3-5.7 0-0.4 0-0.8 0.1-1.2 2.9 0.1 5.7 0.3 8.5 0.5 5.1 0.3 10.4 0.6 15.6 0.6 10.6 0 17.1 0 20.9-5.4 3.5-5 4.6-14.2 6.8-32.7 0.4-3.4 0.9-7.2 1.4-11.3 0.5 0 0.9-0.1 1.3-0.1 0.4 2.9 0.8 5.7 1.1 8.4 1.8 13 3.2 23.3 3.2 32 0 1.6 0 3.3-0.1 5.2v0.1c-0.1 0.1-0.1 0.3-0.2 0.4-0.2 0-0.5 0.1-0.7 0.2-6.1 4.3-46.7 18.4-55.1 18.4-4.3 0-7-1.7-9.7-3.3-2.4-1.4-4.6-2.8-7.6-2.8-2.9 0-13.7 5.4-13.9 8.7-2.2 0.2-4.4 0.4-6.5 0.6-12.6 1-23.5 1.9-25 9.1v0.3c0 2 3.8 4.2 9.3 4.2 2.3 0 10.1-0.5 18.1-1.6-0.2 0.5-0.3 1-0.3 1.5 0 2.2 1.4 4.1 3.8 5.3-0.1 0.5-0.2 1-0.2 1.5 0 2.1 1.6 3.8 3.3 4.9-0.2 0.6-0.3 1.3-0.3 1.9 0 6 8.6 8.4 13.3 8.4 11.4 0 20.3-10.5 24.7-16.9 6.8-2.9 13.7-4.9 20.4-6.9 11.7-3.4 23.7-6.9 35.7-15.2 0.4 0 0.9 0.1 1.3 0.1 3.6 0 6.7-2 9-4.8 0.8 0.5 1.4 1.1 2.1 1.8 0.6 0.7 1.3 1.4 2.2 2 2.5 1.7 4.8 3.5 7.1 5.2 4.3 3.2 8.4 6.3 13 9.1 0.2 0.1 0.5 0.2 0.7 0.2-0.2 0-0.5-0.1-0.7-0.2-0.6 0.9-0.9 2.1-0.9 3.3 0 2.9 2.8 5.2 5.1 5.2 2.8 0 6.1-2.6 6.1-5.9-0.2-2.4-2.7-5.2-5.9-5.2z"/>
				<path class="st1" d="m371.3 158.4c0.6 0 1.2 0.1 1.7 0.4 1.5 0.6 2.4 1.8 2.8 3.5 0.1 0.3 0.1 0.6 0.1 0.8 0 1.6-1.3 4.2-4.7 4.2-3.2 0-4.6-1.7-4.6-3.4v-0.8c0-2.8 2.5-4.7 4.7-4.7z"/>
				<path class="st1" d="m367.1 268.7c0.4 2.9 0.8 5.9 1.1 8.8-0.4 0.6-3.8 2.4-8.5 2.4-2.3 0-4.8-0.4-7.4-1.2-0.5-0.2-1 0-1.4 0.4 0.3-0.4 0.8-0.6 1.4-0.4-0.3-2.1-0.5-4.3-0.8-6.5 1.4 0.3 2.9 0.5 4.4 0.5 4.2 0.1 8.1-1.4 11.2-4z"/>
				<path class="st1" d="m359.7 282.5c3.4 0 6.7-0.9 8.8-2.1 0.2 2.3 0.4 4.6 0.6 6.8-0.1 0-0.1 0.1-0.2 0.1-1.9 1.3-4.2 2-7 2-3 0-6-0.7-8.4-1.4-0.3-2.1-0.6-4.2-0.9-6.4 2.5 0.7 4.8 1 7.1 1z"/>
				<path class="st1" d="m361.9 291.9c2.8 0 5.3-0.6 7.4-1.8 0.2 2.7 0.3 5.3 0.5 7.7h-0.1c-2.1 1.2-4.6 1.8-7.3 1.8-2.4 0-5-0.5-7.3-1.5-0.1 0-0.1 0-0.2-0.1-0.2-1.7-0.5-3.5-0.7-5.4l-0.3-2.1c2.3 0.8 5.1 1.4 8 1.4z"/>
				<path class="st1" d="m355.3 301c2.3 0.8 4.7 1.2 7.1 1.2 2.7 0 5.3-0.6 7.5-1.6 0.1 3.1 0.2 5.7 0.2 7.6h-0.1c-2.4 1.5-5.2 2.3-7.7 2.3-2.2 0-4.1-0.6-5.6-1.8-0.1-0.1-0.3-0.2-0.5-0.2-0.2-2.3-0.6-4.8-0.9-7.5z"/>
				<path class="st1" d="m354.2 237.2c2.4 0 4.9 0.5 7.2 1.6 6 2.7 10 8.6 10 14.8 0 9.5-6.7 16.6-15.5 16.6-8.9 0-16.1-7.3-16.1-16.2 0-2.8 0.9-7.2 3.3-10.8 2.6-4 6.4-6 11.1-6z"/>
				<path class="st1" d="m361.9 147.8c-0.5 0.3-1 0.7-1.4 1v-0.1c-0.7-1.6-2.4-3.3-4.2-3.7-0.5-0.9-1-1.7-1.6-2.4-0.2-0.3-0.5-0.7-0.7-1-0.4-0.6-1.2-0.7-1.8-0.4-0.6 0.4-0.7 1.2-0.4 1.8 0.2 0.4 0.5 0.7 0.8 1.1 0.4 0.5 0.7 1 1.1 1.6-1.2 0.8-2.3 2.3-3 4.1-1.1-0.6-2.3-1.2-3.6-1.4-0.7-0.1-1.3 0.4-1.4 1.1s0.4 1.3 1.1 1.4c1.1 0.2 2.3 0.8 3.2 1.4-0.2 0.9-0.3 1.8-0.3 2.7 0 1.1 0.2 2.3 0.4 3.5-0.8 0.3-1.5 0.7-2.2 1-0.7 0.4-1.4 0.7-2.2 1-0.7 0.2-1 1-0.7 1.6 0.2 0.5 0.7 0.8 1.2 0.8 0.1 0 0.3 0 0.4-0.1 0.9-0.3 1.7-0.7 2.5-1.1 0.6-0.3 1.2-0.6 1.8-0.8 0.9 2.4 2.2 4.6 3.6 5.4-0.3 1.3-0.8 2.6-1.4 3.9-0.3 0.6-0.1 1.4 0.6 1.7 0.2 0.1 0.4 0.1 0.6 0.1 0.5 0 0.9-0.3 1.1-0.7 0.8-1.7 1.3-3.3 1.7-4.9 3.8-1.3 5-8.4 5-11.1 0-0.7 0-1.5-0.1-2.2s-0.2-1.3-0.4-1.9c0.1 0 0.3-0.1 0.4-0.2 0.2-0.2 0.4-0.3 0.6-0.4 0.2 1.9 0.4 3.9 0.4 6.1 0 6.3-1.2 11.2-2.9 14.8-0.4-0.6-0.8-1.3-1.2-2-0.3-0.6-1.1-0.9-1.7-0.6s-0.9 1.1-0.6 1.7c0.4 0.8 0.8 1.5 1.3 2.2 0.2 0.4 0.6 0.6 1.1 0.6-1.1 1.9-2.4 3.4-3.7 4.5-4.6-0.3-13.9-5.6-13.9-20.8 0-6.3 2-17.4 9.6-19.6 0.7-0.2 1.1-0.9 0.9-1.6s-0.9-1.1-1.6-0.9c-9.1 2.6-11.5 15.1-11.5 22.1 0 14.3 7.6 20.8 13.3 22.8-0.8 0.3-1.5 0.4-2.2 0.4-0.4 0-0.8 0-1.2-0.1h-0.2c-8.7-1.1-13.4-12.4-13.4-23 0-17.1 10.8-24.8 13.6-24.8h0.4c5.2 0.9 10.7 5.5 12.8 15.4z"/>
				<path class="st1" d="m356.8 163.6c-0.1-0.5-0.1-0.9-0.1-1.4 0-0.7-0.6-1.3-1.3-1.2-0.7 0-1.2 0.6-1.2 1.3-1-1.8-2-4.6-2-7.3 0-3.8 1.9-6.8 3.1-7.3h0.3c0.1 0 0.3 0 0.4-0.1 0.8 0.2 1.7 1.2 2.2 2.2 0.6 1.2 1 2.4 1.2 3.7 0.1 0.6 0.1 1.2 0.1 1.9-0.1 2.7-1.2 6.8-2.7 8.2z"/>
				<path class="st1" d="m347.4 130c-5.3 1.3-14.9 10.5-14.9 27.2 0 14.6 6.6 23.2 14 25.2-1.8 3.3-4 6.3-6.3 9.1-0.1 0-0.2-0.1-0.3-0.1-11.4-0.2-22.3-9.8-23.3-20.6 0-0.1 0-0.2-0.1-0.3 0.6-0.4 1.2-0.9 1.7-1.3 4-3.5 6.2-8.1 6.2-13 0-7.3-3.5-11.6-6.4-13.9-0.2-0.2-0.5-0.4-0.7-0.5 1.2-12.4 11.5-21.7 19.2-27.6 4.4 4.5 8.1 9.8 10.9 15.8z"/>
				<path class="st1" d="m321.8 156.2c0 8.9-8.8 15.6-16.7 15.6-8.5 0-15.9-7.6-15.9-16.3 0-6.5 4.8-12.1 9.4-13.7 0.5-0.2 0.8-0.2 1.3-0.3 0.4-0.1 0.7-0.1 1.1-0.3 1.4-0.4 2.9-0.6 4.4-0.6 6.6 0 16.4 4.1 16.4 15.6z"/>
				<path class="st1" d="m242.2 118.7c3.6 5.4 8.1 13.3 8.9 21.7-5.8 2.2-11.3 7.1-11.3 15 0 7.4 4.3 13.6 10.8 16.4v0.1c0 6.3-4.1 13.9-10.2 15.7-6.6-10-10.1-21.9-10.1-34.5 0.1-12.1 3.9-24.4 11.9-34.4z"/>
				<path class="st1" d="m242.4 155.5c0-9.4 9.4-13.8 15.7-13.8 1.9 0 4.1 0.1 6.1 0.9 5 1.9 8.2 7.1 8.2 13.4 0 9-6.9 15.2-13.1 15.2-9.6-0.1-16.9-6.8-16.9-15.7z"/>
				<path class="st1" d="m249.1 198.3c-2.7-2.6-5-5.3-7.1-8.3 6.7-2.5 10.9-10.3 11.2-17.1 1.9 0.6 4 0.9 6.1 0.9 7.6 0 15.6-7.1 15.6-17.8 0-7.3-3.9-13.5-9.9-15.8-2.4-0.9-4.9-1-7-1-1.4 0-2.9 0.2-4.4 0.6-1.1-9.1-6-17.4-9.7-23 10.6-11.8 27.5-19.9 51.6-19.9 7.5 0 14.5 1.4 21.4 4.2 6.6 2.7 12.5 6.6 17.6 11.3-7.8 6-18 15.3-19.8 28-2.8-1.4-6.1-2.2-9.3-2.2-1.8 0-3.5 0.2-5.1 0.7-0.4 0.1-0.7 0.2-1 0.2-0.5 0.1-1 0.2-1.6 0.4-5.4 1.9-11.1 8.2-11.1 16.1 0 10 8.6 18.8 18.5 18.8 3 0 6.1-0.8 9-2.3 1.5 11 12.2 20.8 23.9 21.9 0.6 0.1 1.2 0.1 1.8 0.1-0.6 0-1.2-0.1-1.8-0.1-15.3 15.7-38.2 21.2-49 21.2-14.3-0.2-28.9-6.3-39.9-16.9z"/>
				<path class="st1" d="m275.5 234c2.6 2.4 6.7 3.7 12.1 3.7 3.9 0 7.8-0.8 11.5-1.5 1.3-0.3 2.7-0.5 4-0.8 0.7-0.1 1.2-0.8 1-1.5-0.1-0.7-0.8-1.2-1.5-1-1.4 0.2-2.7 0.5-4.1 0.8-3.8 0.8-7.3 1.5-11 1.5-3.8 0-12.5-0.8-12.5-8.2v-0.8-0.2c0.1-0.7 0.2-0.9 0.4-1.1 0.4-0.4 0.7-0.9 0.9-1.7 0.1 0.1 0.2 0.1 0.3 0.1 3.1 0.9 6.3 1.3 9.7 1.3 5.7 0 11.7-1.2 18.3-3.7 0.7-0.2 1-1 0.7-1.6-0.2-0.7-1-1-1.6-0.7-6.4 2.4-12.1 3.6-17.4 3.6-3.1 0-6.2-0.4-9-1.2-0.2-0.1-0.5-0.1-0.7 0v-1.7c0-1 0.3-1.5 1-2 0.3-0.2 0.5-0.4 0.5-0.7 3.5 0.7 7 1.1 10.6 1.1 4.9 0 12.3-1.1 20.4-3.8 0.4 0.9 1 2.3 1 3.5 0 1.3-0.6 1.8-1.2 2.1-0.5 0.3-0.8 0.8-0.7 1.4 0.3 1.2 0.9 2.2 1.4 3.1 0.6 0.9 1.1 1.7 1.1 2.4 0 0.9-0.1 0.9-0.7 1.1-0.5 0.2-1.2 0.4-1.5 1.3s-0.3 1.7-0.3 2.4c0 1.2 0 1.4-0.7 1.6s-1 1-0.7 1.6c0.2 0.5 0.7 0.8 1.2 0.8 0.1 0 0.3 0 0.4-0.1 1.1-0.4 1.7-1 2-1.7 0.4 0.2 0.8 0.4 1.1 0.6-11.3 16.6-19.3 25.2-21.4 25.2-0.5 0-0.6-0.1-1.4-0.8-6.7-6.4-10.9-14.6-14.9-22.5-0.2-0.4-0.4-0.8-0.6-1.1l2.3-0.8z"/>
				<path class="st1" d="m270.9 235.4c0.3 0.6 0.6 1.1 0.9 1.7 4.1 8.1 8.4 16.4 15.5 23.2 0.8 0.8 1.6 1.5 3.1 1.5 4.9 0 17-16.7 24.3-27.4 1.4 0.5 3 0.9 4.6 1.3-9.8 14.6-25 32.9-28 33.6-2.6-0.5-16.2-13.7-23.8-33.3 1.1-0.2 2.3-0.4 3.4-0.6z"/>
				<path class="st1" d="m235.7 329.4c-0.1-0.8-0.2-1.5-0.4-2.2-0.1-0.7-0.8-1.2-1.5-1-0.7 0.1-1.2 0.8-1 1.5l0.3 1.8-6.8 0.1v-0.4-2.1c0-0.7-0.5-1.3-1.2-1.3s-1.3 0.5-1.3 1.2v2.3 0.4l-7.8 0.1c0-0.4-0.1-0.8-0.1-1.1-0.1-1.6-0.2-2.6-1.5-2.6-0.4 0-1.2 0.3-1.3 1.3v0.5c0 0.3 0.1 0.5 0.2 0.7 0 0.3 0.1 0.7 0.1 1.2l-12.6 0.2c-0.4-4.5-0.7-8.2-1-11.5 0.4 0 0.7-0.1 1.1-0.1 0.7-0.1 1.2-0.7 1.1-1.4s-0.7-1.2-1.4-1.1c-0.3 0-0.6 0.1-0.9 0.1-0.3-3.4-0.5-6.1-0.7-8.3 0.5 0 1.1 0 1.6-0.1 0.7 0 1.2-0.6 1.2-1.3s-0.6-1.2-1.3-1.2c-0.6 0-1.2 0-1.7 0.1-0.4-5.7-0.5-7.3-0.5-9.2h1.1c0.7 0 1.3-0.6 1.3-1.3s-0.6-1.3-1.3-1.3h-1.1c0-2.1 0-5.4-0.2-11.4l11.7-0.3c0.1 0.8 0.1 1.7 0.2 2.5 0 0.7 0.6 1.2 1.3 1.2h0.1c0.7 0 1.2-0.6 1.2-1.3 0-0.8-0.1-1.6-0.2-2.4l7-0.2v0.9c0 0.7 0.6 1.3 1.3 1.3s1.3-0.6 1.3-1.3v-1l6.7-0.2c0 0.6 0.1 1.3 0.1 1.9 0 0.7 0.6 1.2 1.3 1.2h0.1c0.7 0 1.2-0.6 1.2-1.3 0-0.6-0.1-1.2-0.1-1.8l14.4-0.4 0.6 14.4c-0.5 0-1.1 0.1-1.6 0.1-0.7 0.1-1.2 0.7-1.2 1.4s0.6 1.2 1.3 1.2h0.1c0.5 0 1-0.1 1.5-0.1l0.3 6.3h-1c-0.7 0-1.3 0.6-1.2 1.3 0 0.7 0.6 1.2 1.3 1.2h1l0.3 6.7h-1.1c-0.7 0-1.3 0.5-1.3 1.2s0.5 1.3 1.2 1.3h1.3l0.6 13.7-12.1-0.1z"/>
				<path class="st1" d="m345.3 295.9c-4.3 35.8-4.3 35.8-25.2 35.8-5.1 0-10.4-0.3-15.5-0.6-3.2-0.2-6.4-0.4-9.7-0.5-0.6 0-1 0.3-1.2 0.8-0.3 0.9-0.4 1.9-0.4 2.9-0.1 2.3-0.1 3.3-2.8 3.3-4.9 0-6.8-0.3-7.8-0.6 0.2-2 1-3.1 1.5-3.9 0.4-0.5 0.9-1.2 0.4-2.1s-1.5-0.9-2.7-0.9c-2.3 0-4.7 0.2-7 0.4s-4.6 0.4-6.9 0.4c-5.7 0-9.6-1.3-12.8-4.3 0 0-3.7-3-5.7-5.8l-0.2-5.4c0.7 0 1.3-0.1 2-0.1 1.4-0.1 2.9-0.2 4.3-0.2 1.1 0 2 0.1 2.9 0.2 0.7 0.1 1.3-0.4 1.4-1.1s-0.4-1.3-1.1-1.4c-1-0.1-2.1-0.2-3.3-0.2-1.5 0-3 0.1-4.5 0.2-0.6 0-1.3 0.1-1.9 0.1l-0.3-6.7c2.3-0.1 4.7-0.2 7.1-0.2 1.7 0 3.2 0.1 4.7 0.2 0.7 0 1.3-0.5 1.4-1.2s-0.5-1.3-1.2-1.4c-1.5-0.1-3.1-0.2-4.9-0.2-2.4 0-4.8 0.1-7.2 0.2l-0.3-6.3h3.9 4 4c0.7 0 1.3-0.6 1.3-1.3s-0.6-1.3-1.3-1.3h-4-4-4l-0.7-15.6c0-0.7-0.6-1.2-1.3-1.2l-10.8 0.3c0.1-1.4 0.2-3 0.2-4.7 0-1.8-0.1-3.7-0.1-5.5-0.1-1.7-0.1-3.6-0.1-5.3 0-22 16.1-24.5 29.1-26.4 7.7 20.5 22.4 35.4 26.4 35.4 4.7 0 23.2-24.4 30.7-35.6 4.2 0.8 8.8 1.3 13.4 1.7-6.1 5-10 13-10 21 0 11.4 8.6 24.7 20 25.9 0.3 0.1 0.7 0.1 1.2 0.1h0.2c-0.3 4.1-0.8 7.8-1.2 11.1z"/>
				<path class="st1" d="m346.9 282.5c-10.7-0.1-19-12.7-19-23.5 0-8.2 4.4-16.3 11.2-20.7h0.1c1.2 0.1 2.5 0.2 3.7 0.3 0.3 0 0.6 0 0.9 0.1-4.4 4-6.5 10.3-6.5 15.3 0 7.8 4.8 14.6 11.6 17.4 0.4 3.6 0.9 7 1.3 10.3-0.9 0.5-2.4 0.7-3.3 0.8z"/>
				<path class="st1" d="m356.6 311.8c1.7 0.9 3.6 1.4 5.7 1.4 2.6 0 5.3-0.7 7.8-2 0 2.6-0.2 7.4-0.4 11.3-0.7-0.2-1.4-0.3-2.2-0.3h-0.3c-3.8 0-7.3 1.7-9.8 4.4v-1.5c0-4-0.3-8.5-0.8-13.3z"/>
				<path class="st1" d="m312.2 366.8c-2 0.7-3.9 1.5-5.9 2.3-0.2 0.1-0.4 0.3-0.5 0.5-9.4 14-18.3 16.1-22.8 16.1-3.7 0-10.7-2-10.7-5.9 0-0.4 0-0.7 0.1-1.1h-1c-0.7 0.1-1.3-0.5-1.4-1.2s0.5-1.3 1.2-1.4h1s-0.1 0-0.1-0.1c-1.4-0.7-2.8-1.9-2.8-3.1 0-0.4 0.1-0.9 0.4-1.4-0.4 0-0.8 0.1-1.2 0.1-0.7 0-1.3-0.6-1.3-1.3 0-0.6 0.4-1 0.8-1.2-1.1-0.6-2.3-1.6-2.3-3 0-0.6 0.3-1.3 1.1-2 0.5-0.5 0.5-1.3 0-1.8 0.5 0.5 0.5 1.3 0 1.8 0.9-0.2 1.8-0.3 2.7-0.5 0.7-0.1 1.1-0.8 1-1.5s-0.8-1.1-1.5-1c-10.1 1.9-21.6 2.6-23.7 2.6-3.8 0-6.1-1.2-6.7-1.8 1.5-5 11.7-5.8 22.6-6.7 2.7-0.2 5.5-0.5 8.2-0.8 0.2 0.1 0.4 0.1 0.6 0.1h0.4c0.2 0 0.3-0.1 0.5-0.2 1.2-0.1 2.3-0.3 3.5-0.5 0.7-0.1 1.2-0.7 1.1-1.4s-0.7-1.2-1.4-1.1c-1.2 0.2-2.5 0.3-3.7 0.5 1.6-1.9 8.9-5.9 11-5.9 2.3 0 4.1 1.1 6.3 2.4 2.8 1.7 6 3.7 11 3.7 1.3 0 3.4-0.3 6-0.9l0.3 0.3c4.6 3 7.5 7.9 7.5 12.6 0.1 1 0 1.9-0.3 2.8-0.1 0.7 0.3 1.3 1 1.5-0.7-0.2-1.1-0.9-1-1.5z"/>
				<path class="st1" d="m315 365.8c0.1-0.6 0.1-1.1 0.1-1.7 0-5.1-2.7-10.2-7.2-13.7 2.6-0.7 5.6-1.5 8.7-2.4l0.3 0.3c4.4 3.9 7 9.3 7 14.7-2.9 0.9-5.9 1.8-8.9 2.8z"/>
				<path class="st1" d="m327.5 362c-0.3 0.1-0.7 0.2-1 0.3-0.2-5.5-2.8-11-7.1-15.1 3-0.9 6.1-1.9 9.2-3 0.1 0.2 0.2 0.3 0.3 0.4 4.4 4.2 7.1 9.5 7.5 14.7-3 0.9-6 1.8-8.9 2.7z"/>
				<path class="st1" d="m338.9 358.5c-0.6-5.4-3.4-10.9-7.7-15.2 3.4-1.2 6.6-2.4 9.6-3.5 3.4 2.4 7 6.8 7 12 0 0.7-0.1 1.4-0.2 2.1-0.1 0.5 0.1 0.9 0.4 1.2-3.1 1.3-6.1 2.4-9.1 3.4z"/>
				<path class="st1" d="m350.1 354.1c0.1-0.8 0.2-1.5 0.2-2.3 0-5.5-3.3-10.2-6.8-13.1 4.2-1.7 7.8-3.2 10-4.4-0.1 0.7-0.2 1.5-0.2 2.3 0 5.3 3 9.9 7.3 11.8-3.4 2.2-7 4.1-10.5 5.7z"/>
				<path class="st1" d="m365.2 346.8c-5.1 0-9.3-4.6-9.3-10.2 0-6.3 5.3-11.8 11.3-11.8h0.2c1.9 0 4 1 5.5 2.5 1.7 1.7 2.3 4.7 2.3 6.8 0.1 5.8-4.3 12.7-10 12.7z"/>
				<path class="st1" d="m402.7 368.6c-1 0-2.6-1.2-2.6-2.6 0-1.7 1.2-3.3 2.6-3.5h0.4c1.8 0 3.1 1.7 3.1 2.8 0.1 1.8-1.9 3.3-3.5 3.3z"/>
				<path class="st1" d="m402.4 279.4c0-0.7-0.6-1.3-1.3-1.3-1.4 0-2.8 0.1-4.1 0.2-0.1-1.2-0.1-2.3-0.1-3.5v-1.4c0-0.7-0.5-1.3-1.2-1.3s-1.3 0.5-1.3 1.2v1.6c0 1.2 0.1 2.5 0.1 3.7-1.2 0.1-2.3 0.1-3.5 0-0.7 0-1.3 0.5-1.3 1.2s0.5 1.3 1.2 1.3h1.5c0.7 0 1.5 0 2.2-0.1 0 0.8 0.1 1.7 0.1 2.5v1.4c0 0.7 0.5 1.3 1.2 1.3h0.1c0.7 0 1.2-0.5 1.3-1.2v-1.6c0-0.9 0-1.8-0.1-2.6 1.4-0.1 2.7-0.2 4-0.2 0.6 0.1 1.2-0.5 1.2-1.2z"/>
				<path class="st1" d="m215.3 253c0-0.7-0.6-1.3-1.3-1.3-1.4 0-2.8 0.1-4.1 0.2-0.1-1.2-0.1-2.3-0.1-3.5v-1.4c0-0.7-0.5-1.3-1.2-1.3s-1.3 0.5-1.3 1.2v1.6c0 1.2 0.1 2.5 0.1 3.7-1.2 0.1-2.3 0.1-3.5 0-0.7 0-1.3 0.5-1.3 1.2s0.5 1.3 1.2 1.3h1.5c0.7 0 1.5 0 2.2-0.1 0 0.8 0.1 1.7 0.1 2.5v1.4c0 0.7 0.5 1.3 1.2 1.3h0.1c0.7 0 1.2-0.5 1.3-1.2v-1.6c0-0.9 0-1.8-0.1-2.6 1.4-0.1 2.7-0.2 4-0.2 0.6 0.1 1.2-0.5 1.2-1.2z"/>
				<path class="st1" d="m404.6 184.5c3.1 0 4.5-2.8 4.5-4.3 0-3.4-2.6-4.9-4.5-4.9-0.7 0-1.7 0.3-2.2 0.6-1.2 0.6-2.1 2.2-2.1 3.8-0.1 2.5 1.9 4.8 4.3 4.8zm-1.2-6.4c0.4-0.2 0.9-0.3 1.1-0.3 0 0 2 0.1 2 2.4 0 0.2-0.4 1.7-1.9 1.7-0.8 0-1.9-0.9-1.9-2.2 0-0.9 0.5-1.5 0.7-1.6z"/>
				<path class="st1" d="m376 147.8c0.7 0.2 1.5 0.4 2.1 0.7h0.1c0.2 0.1 0.3 0.1 0.5 0.1 0.5 0 1-0.3 1.2-0.8 0.3-0.6 0-1.4-0.7-1.7-0.8-0.3-1.6-0.6-2.5-0.9-0.7-0.2-1.4 0.2-1.6 0.9-0.2 0.9 0.2 1.6 0.9 1.7z"/>
				<path class="st1" d="m377.6 177.1c-0.7 0.2-1 1-0.8 1.6 0.2 0.5 0.7 0.8 1.2 0.8 0.1 0 0.3 0 0.4-0.1 0.8-0.3 1.6-0.6 2.4-1 0.6-0.3 0.9-1.1 0.6-1.7s-1.1-0.9-1.7-0.6c-0.7 0.4-1.4 0.7-2.1 1z"/>
				<path class="st1" d="m387.9 159.4c0.1 0.6 0.7 1 1.2 1h0.3c0.7-0.2 1.1-0.8 1-1.5-0.2-0.9-0.4-1.7-0.7-2.5-0.2-0.7-1-1-1.6-0.8-0.7 0.2-1 1-0.8 1.6s0.4 1.4 0.6 2.2z"/>
				<path class="st1" d="m357.9 153.3c-0.1 0-0.2 0-0.2-0.1v-0.1c0.3-0.6 0-1.4-0.7-1.7-0.6-0.3-1.4 0-1.7 0.7-0.5 1.2-0.6 2.4-0.6 3.4v1 1c0 0.7 0.6 1.3 1.3 1.3s1.3-0.6 1.3-1.3v-0.4c0-0.1 0.1-0.1 0.1-0.2 0.3-0.7 0.6-1.4 0.9-2 0.4-0.5 0.2-1.2-0.4-1.6z"/>
				<path class="st1" d="m364.6 179.1c0.4 0 0.9-0.2 1.1-0.6 0.4-0.6 0.1-1.4-0.5-1.7-0.6-0.4-1.3-0.8-1.9-1.3-0.5-0.4-1.3-0.4-1.8 0.2-0.4 0.5-0.4 1.3 0.2 1.8 0.7 0.6 1.4 1.1 2.2 1.5 0.3 0.1 0.5 0.1 0.7 0.1z"/>
				<path class="st1" d="m388.4 164.7c-0.1 0.7-0.2 1.5-0.4 2.2s0.2 1.4 0.9 1.6h0.3c0.6 0 1.1-0.4 1.2-0.9 0.2-0.9 0.4-1.8 0.5-2.7 0.1-0.7-0.5-1.3-1.2-1.4-0.6 0-1.2 0.5-1.3 1.2z"/>
				<path class="st1" d="m370.7 180.8c0.6 0 1.2 0 1.9-0.1s1.2-0.7 1.2-1.4c-0.1-0.7-0.7-1.2-1.4-1.2-0.8 0.1-1.5 0.1-2.3 0-0.7 0-1.3 0.5-1.3 1.2s0.5 1.3 1.2 1.3c0.2 0.2 0.4 0.2 0.7 0.2z"/>
				<path class="st1" d="m368.2 147.8h0.3c0.7-0.2 1.5-0.3 2.3-0.3 0.7-0.1 1.2-0.7 1.2-1.4-0.1-0.7-0.7-1.2-1.4-1.2-0.9 0.1-1.7 0.2-2.6 0.4-0.7 0.2-1.1 0.8-1 1.5 0.1 0.6 0.7 1 1.2 1z"/>
				<path class="st1" d="m387.7 173c0.4-0.6 0.3-1.4-0.2-1.8-0.6-0.4-1.4-0.3-1.8 0.2-0.5 0.6-1 1.1-1.5 1.7-0.5 0.5-0.5 1.3-0.1 1.8 0.3 0.3 0.6 0.4 0.9 0.4s0.6-0.1 0.9-0.3c0.6-0.6 1.2-1.3 1.8-2z"/>
				<path class="st1" d="m384.6 152.8c0.3 0.3 0.6 0.4 0.9 0.4s0.6-0.1 0.9-0.4c0.5-0.5 0.5-1.3 0-1.8-0.6-0.6-1.3-1.2-2-1.8-0.6-0.4-1.4-0.3-1.8 0.2-0.4 0.6-0.3 1.4 0.2 1.8 0.7 0.5 1.3 1 1.8 1.6z"/>
				<path class="st1" d="m413 316.7c0.7 0 1.3-0.6 1.3-1.3 0-0.9-0.1-1.9-0.4-2.9-0.2-0.7-0.9-1.1-1.6-0.9s-1.1 0.9-0.9 1.6c0.2 0.8 0.3 1.5 0.3 2.2l1.3 0.1h-1.3c0 0.7 0.6 1.2 1.3 1.2z"/>
				<path class="st1" d="m393 312.2c0.1 0 0.3 0.1 0.4 0.1 0.5 0 1-0.4 1.2-0.9 0.2-0.8 0.6-1.5 1-2.1s0.2-1.4-0.4-1.8-1.4-0.2-1.8 0.4c-0.5 0.8-0.9 1.8-1.2 2.7-0.2 0.6 0.1 1.3 0.8 1.6z"/>
				<path class="st1" d="m408.3 304.7c-0.6-0.4-1.4-0.2-1.8 0.3-0.4 0.6-0.2 1.4 0.3 1.8 0.6 0.4 1.2 1 1.8 1.5 0.3 0.3 0.6 0.4 0.9 0.4s0.6-0.1 0.9-0.3c0.5-0.5 0.5-1.3 0.1-1.8-0.6-0.7-1.4-1.4-2.2-1.9z"/>
				<path class="st1" d="m409.4 320c-0.6 0.5-1.2 1-1.9 1.3-0.6 0.3-0.9 1.1-0.5 1.7 0.2 0.4 0.7 0.7 1.1 0.7 0.2 0 0.4 0 0.6-0.1 0.9-0.5 1.7-1 2.5-1.7 0.5-0.5 0.5-1.3 0.1-1.8-0.5-0.6-1.3-0.6-1.9-0.1z"/>
				<path class="st1" d="m399.1 305.8c0.2 0 0.3 0 0.5-0.1 0.7-0.3 1.4-0.4 2.2-0.5v-1.3l-0.1-1.3c-1 0.1-2 0.3-3 0.6-0.7 0.3-1 1-0.7 1.6 0.1 0.7 0.6 1 1.1 1z"/>
				<path class="st1" d="m399.1 324.2c0.9 0.3 1.9 0.5 2.9 0.6h0.1c0.7 0 1.2-0.5 1.3-1.2s-0.5-1.3-1.2-1.4c-0.8-0.1-1.6-0.2-2.3-0.5-0.7-0.2-1.4 0.1-1.6 0.8-0.2 0.8 0.1 1.5 0.8 1.7z"/>
				<path class="st1" d="m392.2 317.5c0.3 1 0.8 1.9 1.4 2.7 0.2 0.4 0.6 0.5 1 0.5 0.3 0 0.5-0.1 0.7-0.2 0.6-0.4 0.7-1.2 0.3-1.8s-0.8-1.3-1-2-0.9-1-1.6-0.8-1.1 0.9-0.8 1.6z"/>
				<path class="st1" d="m174 278.1h-0.6-0.4c-0.5 0-0.9 0.2-1.1 0.4l-0.1 0.1 0.6 1.1-0.6-1.1c-1.2 0.6-1.3 2.7-1.3 2.7 0 1.9 1.8 3.2 3.4 3.2 2 0 3.4-1.8 3.4-3.3s-1.3-3.1-3.3-3.1zm-0.1 3.8c-0.4 0-0.9-0.3-0.9-0.6 0-0.1 0.1-0.4 0.1-0.6 0 0 0.1 0 0.1-0.1h0.3 0.4c0.6 0 0.8 0.4 0.8 0.5 0 0.2-0.2 0.8-0.8 0.8z"/>
				<path class="st1" d="m173.5 251.9l1.3 0.1-1.3-0.1c0 0.7 0.5 1.3 1.2 1.3s1.3-0.6 1.3-1.3c0-0.9-0.1-1.9-0.4-2.9-0.2-0.7-0.9-1.1-1.6-0.9s-1.1 0.9-0.9 1.6c0.3 0.7 0.4 1.4 0.4 2.2z"/>
				<path class="st1" d="m154.8 248.6c0.1 0 0.3 0.1 0.4 0.1 0.5 0 1-0.4 1.2-0.9 0.2-0.8 0.6-1.5 1-2.1s0.2-1.4-0.4-1.8-1.4-0.2-1.8 0.4c-0.5 0.8-0.9 1.8-1.2 2.7-0.3 0.7 0.1 1.4 0.8 1.6z"/>
				<path class="st1" d="m170.5 244.8c0.3 0.3 0.6 0.4 0.9 0.4s0.6-0.1 0.9-0.3c0.5-0.5 0.5-1.3 0.1-1.8-0.7-0.7-1.4-1.4-2.2-1.9-0.6-0.4-1.4-0.2-1.8 0.3-0.4 0.6-0.2 1.4 0.3 1.8 0.6 0.4 1.2 0.9 1.8 1.5z"/>
				<path class="st1" d="m172.9 258.3c0.5-0.5 0.5-1.3 0.1-1.8-0.5-0.5-1.3-0.5-1.8-0.1-0.6 0.5-1.2 1-1.9 1.3-0.6 0.3-0.9 1.1-0.5 1.7 0.2 0.4 0.7 0.7 1.1 0.7 0.2 0 0.4 0 0.6-0.1 0.9-0.4 1.7-1 2.4-1.7z"/>
				<path class="st1" d="m161.3 242.2c0.7-0.3 1.4-0.4 2.2-0.5v-1.3l-0.1-1.3c-1 0.1-2 0.3-3 0.6-0.7 0.3-1 1-0.7 1.6 0.2 0.5 0.7 0.8 1.2 0.8 0.1 0.2 0.3 0.2 0.4 0.1z"/>
				<path class="st1" d="m164 258.8c-0.8-0.1-1.6-0.2-2.3-0.5-0.7-0.2-1.4 0.1-1.6 0.8s0.1 1.4 0.8 1.6c0.9 0.3 1.9 0.5 2.9 0.6h0.1c0.7 0 1.2-0.5 1.3-1.2 0-0.6-0.5-1.2-1.2-1.3z"/>
				<path class="st1" d="m156.3 253.1c-0.2-0.7-0.9-1-1.6-0.8s-1 0.9-0.8 1.6c0.3 1 0.8 1.9 1.4 2.7 0.2 0.4 0.6 0.5 1 0.5 0.3 0 0.5-0.1 0.7-0.2 0.6-0.4 0.7-1.2 0.3-1.8s-0.7-1.3-1-2z"/>
				<path class="st1" d="m298.5 152.4c-0.9 0.8-1.4 2-1.4 3.4 0 3 2.3 6.8 4.9 6.8 0.6 0 1.8-0.2 2.5-1.8 0.5-1 0.7-2.3 0.7-4.2 0-0.7-0.6-1.3-1.3-1.3s-1.3 0.6-1.3 1.3c0 2.9-0.6 3.4-0.7 3.4-0.6 0-2.3-2.1-2.3-4.3 0-1 0.3-2.3 3.1-2.3 3.1 0 5.8 2.6 5.8 5.6 0 0.3 0 0.7-0.1 1-0.1 0.7 0.3 1.4 1 1.5s1.4-0.3 1.5-1c0.1-0.5 0.2-1 0.2-1.5 0-4.4-3.8-8.1-8.4-8.1-1.7 0.1-3.2 0.6-4.2 1.5z"/>
				<path class="st1" d="m254.8 153.5c3.3 0 5.8 2.3 6.1 5.8 0 0.5 0.4 0.9 0.8 1.1 0.5 0.2 1 0.1 1.3-0.3l0.3-0.3c0.5-0.5 0.5-1.3 0-1.8l-0.1-0.1c-0.9-4.1-4.2-6.9-8.5-6.9-2.9 0-4.6 1.9-4.6 5.2s2.1 5.4 5.3 5.4c1.3 0 2.2-1.1 2.2-2.6 0-0.6-0.1-1.1-0.2-1.6-0.1-0.4-0.2-0.8-0.2-1 0-0.7-0.6-1.3-1.3-1.3s-1.3 0.6-1.3 1.3c0 0.6 0.1 1.1 0.2 1.6 0.1 0.4 0.2 0.8 0.2 1-2.1-0.2-2.4-2.1-2.4-2.9 0.2-2.6 1.6-2.6 2.2-2.6z"/>
				<path class="st1" d="m302.8 185.9v-0.5c0-0.7-0.6-1.3-1.3-1.2-0.7 0-1.2 0.6-1.2 1.3v0.3c0 4.1-3.8 5.9-7.4 5.9-1.8 0-3.4-0.5-4.7-1.3-0.6-0.4-1.4-0.2-1.8 0.4s-0.2 1.4 0.4 1.8c1.7 1.1 3.8 1.7 6.1 1.7 4.9 0 9.9-2.9 9.9-8.4z"/>
				<path class="st1" d="m309.1 226.1c-0.2-0.7-0.9-1-1.6-0.8-5.4 1.7-11 2.6-16.7 2.6-4.6 0-9.2-0.6-13.6-1.8-0.7-0.2-1.4 0.2-1.6 0.9s0.2 1.4 0.9 1.6c4.6 1.2 9.4 1.8 14.3 1.8 6 0 11.9-0.9 17.5-2.7 0.7-0.2 1.1-0.9 0.8-1.6z"/>
					<path d="m412.1 348c2 0 3.4-1.8 3.4-3.3s-1.3-3.1-3.3-3.1h-0.6-0.4c-0.5 0-0.9 0.2-1.1 0.4l-0.1 0.1 0.6 1.1-0.6-1.1c-1.2 0.6-1.3 2.7-1.3 2.7 0 1.9 1.7 3.2 3.4 3.2zm-0.8-3.7s0.1 0 0.1-0.1h0.3 0.4c0.6 0 0.8 0.4 0.8 0.5s-0.2 0.8-0.9 0.8c-0.4 0-0.9-0.3-0.9-0.6 0.1-0.2 0.2-0.5 0.2-0.6z"/>
					<path d="m226.3 329.6c0 0.8 0 1.7 0.1 2.5l7-0.1c-0.1-0.9-0.2-1.7-0.3-2.5l-6.8 0.1z"/>
					<path d="m198.9 307.7c-0.8 0-1.7 0.1-2.6 0.1 0.2 2.2 0.4 5 0.7 8.4 0.9 0 1.7-0.1 2.5-0.2-0.2-3.4-0.4-6.1-0.6-8.3z"/>
					<path d="m228.5 281c-0.1-0.8-0.1-1.7-0.2-2.5l-6.5 0.2v2.5l6.7-0.2z"/>
					<path d="m212.3 281.5l7-0.2v-2.5l-7.2 0.2v0.4c0 0.6 0.1 1.4 0.2 2.1z"/>
					<path d="m246.4 303.8c0.7 0 1.4-0.1 2.1-0.1h0.4l-0.3-6.3c-0.9 0-1.7 0.1-2.5 0.1l0.3 6.3z"/>
					<path d="m198.2 295.9h-2.5c0 2.1 0 3.6 0.5 9.3 0.9 0 1.7-0.1 2.6-0.1-0.6-5.7-0.6-7.2-0.6-9.2z"/>
					<path d="m198 281.9l11.7-0.3c-0.1-0.7-0.1-1.3-0.2-2v-0.5l-12.9 0.4c-0.3 0-0.7 0.2-0.9 0.4s-0.4 0.6-0.3 0.9c0.2 6.9 0.3 10.4 0.3 12.6h2.5c0-2.2 0-5.5-0.2-11.5z"/>
					<path d="m234.5 279.7h-0.1c-0.7-0.1-1.2-0.6-1.1-1.3l-2.4 0.1c0.1 0.8 0.1 1.7 0.2 2.5l14.4-0.4 0.6 14.4c0.8 0 1.7-0.1 2.5-0.1l-0.7-15.6c0-0.7-0.6-1.2-1.3-1.2l-10.8 0.3v0.2c-0.1 0.6-0.6 1.1-1.3 1.1z"/>
					<path d="m200.8 330c-0.4-4.5-0.7-8.2-1-11.5-0.8 0.1-1.7 0.1-2.5 0.2 0.3 3.6 0.7 7.8 1.1 12.7 0.1 0.7 0.6 1.2 1.3 1.2l6.4-0.1c0.1-0.3 0.2-0.6 0.5-0.7 0.6-0.4 1.4-0.2 1.8 0.4 0.1 0.1 0.1 0.2 0.2 0.4l5-0.1c-0.1-1-0.1-1.8-0.2-2.5h-12.6z"/>
					<path d="m246.9 315.5l0.6 13.7-11.8 0.2c0.1 0.8 0.2 1.7 0.3 2.5l12.8-0.2c0.3 0 0.7-0.2 0.9-0.4s0.4-0.6 0.3-0.9l-0.6-15c-0.8 0.1-1.6 0.1-2.5 0.1z"/>
					<path d="m215.9 329.7c0.1 0.7 0.1 1.6 0.2 2.5l7.7-0.1v-2.5l-7.9 0.1z"/>
					<path d="m246.5 306.3l0.3 6.7c0.8 0 1.7 0 2.5-0.1l-0.3-6.7h-0.4c-0.7 0.1-1.4 0.1-2.1 0.1z"/>
					<path d="m212.4 293.2c-0.7 0-1.2 0.6-1.2 1.3v2.8c0 2.6-0.1 5.2-0.1 7.8s-0.1 5.3-0.1 7.9c0 1.6 0 3.1 0.1 4.5 0 0.7 0.6 1.2 1.3 1.2h1.9 5.6c4.2 0 9.2 0 14.2 0.2 0.3 0 0.7-0.1 0.9-0.4 0.3-0.3 0.4-0.6 0.4-0.9-0.1-2.6-0.1-5.4-0.1-8.9v-5.3-5.3-4.8c0-0.4-0.2-0.7-0.4-0.9-0.3-0.2-0.6-0.4-1-0.3-3.6 0.3-7.2 0.4-10.7 0.6-3.5 0.1-7.1 0.2-10.8 0.5zm20.4 1.5v3.4 5.3 5.3c0 2.9 0 5.4 0.1 7.6-4.6-0.1-9.1-0.2-12.9-0.2h-5.6-0.6v-3.2c0-2.6 0.1-5.3 0.1-7.8 0-2.6 0.1-5.2 0.1-7.8v-1.6c3.2-0.2 6.4-0.4 9.6-0.5 2.9-0.2 6-0.3 9.2-0.5z"/>
					<path d="m199.3 295.9c0.7 0 1.3-0.6 1.3-1.3s-0.6-1.3-1.3-1.3h-12.3c-0.7 0-1.3 0.6-1.3 1.3s0.6 1.3 1.3 1.3h12.3z"/>
					<path d="m200.5 307.6c0.7 0 1.2-0.6 1.2-1.3s-0.6-1.2-1.3-1.2c-0.6 0-1.2 0-1.7 0.1-0.8 0-1.7 0.1-2.6 0.1-3 0.1-6.1 0.1-9 0.1-0.7 0-1.3 0.6-1.3 1.3s0.6 1.3 1.3 1.3c3 0 6.1-0.1 9.2-0.1 0.9 0 1.7-0.1 2.6-0.1 0.5-0.2 1.1-0.2 1.6-0.2z"/>
					<path d="m200.9 318.4c0.7-0.1 1.2-0.7 1.1-1.4s-0.7-1.2-1.4-1.1c-0.3 0-0.6 0.1-0.9 0.1-0.8 0.1-1.7 0.1-2.5 0.2-0.8 0-1.7 0.1-2.5 0.1-2.1 0-4.2 0.1-6.3 0.4-0.7 0.1-1.2 0.7-1.1 1.4 0.1 0.6 0.6 1.1 1.3 1.1h0.2c1.9-0.3 4-0.3 6-0.4 0.9 0 1.8 0 2.7-0.1 0.8 0 1.7-0.1 2.5-0.2 0.1-0.1 0.5-0.1 0.9-0.1z"/>
					<path d="m209.7 281.6c0.1 0.8 0.1 1.7 0.2 2.5 0 0.7 0.6 1.2 1.3 1.2h0.1c0.7 0 1.2-0.6 1.2-1.3 0-0.8-0.1-1.6-0.2-2.4-0.1-0.7-0.1-1.5-0.2-2.2v-0.4c-0.2-2.1-0.4-4.2-0.4-6.3 0-0.7-0.6-1.3-1.3-1.3s-1.3 0.6-1.3 1.3c0 2.2 0.2 4.3 0.4 6.3v0.5c0.1 0.7 0.2 1.4 0.2 2.1z"/>
					<path d="m219.3 282.2c0 0.7 0.6 1.3 1.3 1.3s1.3-0.6 1.3-1.3v-1-2.5-1.5-5c0-0.7-0.6-1.3-1.3-1.3s-1.3 0.6-1.3 1.3v5 1.6 2.5 0.9z"/>
					<path d="m228.6 282.9c0 0.7 0.6 1.2 1.3 1.2h0.1c0.7 0 1.2-0.6 1.2-1.3 0-0.6-0.1-1.2-0.1-1.8-0.1-0.8-0.1-1.7-0.2-2.5 0-0.3-0.1-0.6-0.1-1-0.2-1.7-0.3-3.6-0.4-5.3 0-0.7-0.6-1.2-1.3-1.2s-1.2 0.6-1.2 1.3c0.1 1.7 0.3 3.6 0.4 5.3 0 0.3 0 0.5 0.1 0.8 0.1 0.9 0.1 1.7 0.2 2.5v2z"/>
					<path d="m244.4 295c-0.7 0.1-1.2 0.7-1.2 1.4s0.6 1.2 1.3 1.2h0.1c0.5 0 1-0.1 1.5-0.1 0.8 0 1.6-0.1 2.5-0.1h3.9 4 4c0.7 0 1.3-0.6 1.3-1.3s-0.6-1.3-1.3-1.3h-4-4-4c-0.9 0-1.7 0.1-2.5 0.1-0.5 0.1-1 0.1-1.6 0.1z"/>
					<path d="m246.4 303.8h-1c-0.7 0-1.3 0.6-1.2 1.3 0 0.7 0.6 1.2 1.3 1.2h1c0.7 0 1.4-0.1 2.1-0.1h0.4c2.3-0.1 4.7-0.2 7.1-0.2 1.7 0 3.2 0.1 4.7 0.2 0.7 0 1.3-0.5 1.4-1.2s-0.5-1.3-1.2-1.4c-1.5-0.1-3.1-0.2-4.9-0.2-2.4 0-4.8 0.1-7.2 0.2h-0.4c-0.7 0.1-1.4 0.1-2.1 0.2z"/>
					<path d="m246.8 313h-1.1c-0.7 0-1.3 0.5-1.3 1.2s0.5 1.3 1.2 1.3h1.3c0.9 0 1.7 0 2.5-0.1 0.7 0 1.3-0.1 2-0.1 1.4-0.1 2.9-0.2 4.3-0.2 1.1 0 2 0.1 2.9 0.2 0.7 0.1 1.3-0.4 1.4-1.1s-0.4-1.3-1.1-1.4c-1-0.1-2.1-0.2-3.3-0.2-1.5 0-3 0.1-4.5 0.2-0.6 0-1.3 0.1-1.9 0.1-0.7 0.1-1.6 0.1-2.4 0.1z"/>
					<path d="m215.8 328.7c-0.1-1.6-0.2-2.6-1.5-2.6-0.4 0-1.2 0.3-1.3 1.3v0.5c0 0.3 0.1 0.5 0.2 0.7 0 0.3 0.1 0.7 0.1 1.2 0.1 0.7 0.1 1.6 0.2 2.5 0.2 2.9 0.3 6.6 0.3 9.8 0 0.7 0.6 1.3 1.3 1.3s1.3-0.6 1.3-1.3c0-2.6-0.1-6.2-0.3-9.7v-0.1c-0.1-0.9-0.1-1.8-0.2-2.5 0-0.5 0-0.8-0.1-1.1z"/>
					<path d="m226.3 329.2v-2.1c0-0.7-0.5-1.3-1.2-1.3s-1.3 0.5-1.3 1.2v2.3 0.4 2.5c0 0.9 0.1 1.8 0.1 2.7 0.1 1.8 0.2 3.7 0.2 5.5 0 0.7 0.6 1.3 1.3 1.3s1.3-0.6 1.3-1.3c0-1.9-0.1-3.8-0.2-5.6 0-0.9-0.1-1.8-0.1-2.7s0-1.7-0.1-2.5v-0.4z"/>
					<path d="m235.3 327.2c-0.1-0.7-0.8-1.2-1.5-1-0.7 0.1-1.2 0.8-1 1.5l0.3 1.8c0.1 0.8 0.2 1.7 0.3 2.5 0.2 1.9 0.4 3.8 0.5 5.6 0.1 0.9 0.2 1.8 0.2 2.7 0.1 0.7 0.6 1.2 1.3 1.2h0.1c0.7-0.1 1.2-0.7 1.2-1.4-0.1-0.9-0.2-1.8-0.2-2.7-0.2-1.8-0.3-3.6-0.5-5.4-0.1-0.8-0.2-1.7-0.3-2.5-0.2-0.8-0.3-1.6-0.4-2.3z"/>
					<path d="m273.4 234.8c-0.2-0.5-0.5-0.9-0.7-1.4-0.3-0.6-1.1-0.9-1.7-0.5-0.6 0.3-0.9 1.1-0.5 1.7 0.1 0.3 0.3 0.6 0.4 0.9-1.1 0.2-2.3 0.4-3.5 0.6-0.2-0.5-0.4-1-0.5-1.5-0.2-0.7-1-1-1.6-0.8-0.7 0.2-1 1-0.8 1.6 0.1 0.3 0.2 0.7 0.4 1-13 1.9-29.1 4.4-29.1 26.4 0 1.8 0.1 3.6 0.1 5.3 0.1 1.8 0.1 3.6 0.1 5.5 0 1.7-0.1 3.3-0.2 4.7v0.2c-0.1 0.7-0.6 1.2-1.3 1.2h-0.1c-0.7-0.1-1.2-0.6-1.1-1.3v-0.1c0.1-1.4 0.2-2.9 0.2-4.7s-0.1-3.6-0.1-5.4c-0.1-1.8-0.1-3.6-0.1-5.4 0-24.3 18.2-27 31.5-29 0 0 10.1-1.9 10.6-2.8 0.6 0.9 1.3 2.6 1.3 2.6l-3.3 1.2z"/>
					<path d="m343 236c-8.8-0.7-20.3-1.6-27.9-4.1 0.4 0.4 0.5 1.1 0.1 1.6-0.2 0.3-0.4 0.6-0.6 1 1.4 0.5 3 0.9 4.6 1.3 0.3-0.5 0.7-1 1-1.5 0.4-0.6 1.2-0.7 1.8-0.4 0.6 0.4 0.7 1.2 0.4 1.8-0.1 0.2-0.3 0.4-0.4 0.6 4.2 0.8 8.8 1.3 13.4 1.7l2.4-1.8c0.6-0.4 1.4-0.2 1.8 0.4s0.2 1.3-0.3 1.7c1.2 0.1 2.5 0.2 3.7 0.3 0.3 0 0.6 0 0.9 0.1 1-0.9 2.1-1.7 3.3-2.3-1.5-0.2-2.9-0.3-4.2-0.4z"/>
					<path d="m337.7 212c-2.7 0-5.1 2.4-5.1 5.2 0 3.4 3.4 4.8 5.3 4.8 2 0 4.9-2.3 4.9-5.5v-0.4c0-0.6-0.2-1.3-0.6-1.8-1.3-1.5-2.8-2.3-4.5-2.3zm0.1 7.4c-0.4 0-2.7-0.4-2.7-2.2 0-1.4 1.3-2.7 2.6-2.7 0.9 0 1.7 0.4 2.4 1.3 0.1 0.1 0.1 0.2 0.1 0.2v0.4c-0.1 1.9-1.9 3-2.4 3z"/>
					<path d="m364.2 218.7h2.7 3.6c1.4 0 2.6 0 3.8-0.1 0.7 0 1.2-0.6 1.2-1.3-0.1-2.3-0.1-4.5-0.1-6.7v-3.1c0-0.4-0.2-0.7-0.4-0.9-0.3-0.2-0.6-0.4-1-0.3-2.9 0.3-6.1 0.5-10 0.5-0.3 0-0.7 0.1-0.9 0.4-0.2 0.2-0.4 0.6-0.3 0.9 0.1 2.7 0.2 5.7 0.2 9.3-0.1 0.8 0.5 1.3 1.2 1.3zm8.6-9.7v1.7 5.6c-1.7 0.1-3.9 0-5.9 0h-1.4c0-2.5-0.1-4.7-0.1-6.8 2.7-0.1 5.1-0.3 7.4-0.5z"/>
					<path d="m385 218.5c0.2 0.2 0.6 0.4 0.9 0.4h2 2.5c2 0 3.5-0.1 4.9-0.2 0.7-0.1 1.2-0.6 1.2-1.3v-8.8c0-0.4-0.1-0.7-0.4-0.9s-0.6-0.4-1-0.3c-2.7 0.2-5.6 0.2-9.2 0-0.4 0-0.7 0.1-1 0.4-0.3 0.2-0.4 0.6-0.4 0.9v5.2 3.7c0.2 0.4 0.3 0.7 0.5 0.9zm9-8.4v6.2c-1 0.1-2.2 0.1-3.6 0.1h-2.5-0.8v-2.5-3.9c2.6 0.2 4.8 0.2 6.9 0.1z"/>
					<path d="m418.6 217.8c0-1.8-0.1-3.6-0.2-5.4-0.1-1.7-0.2-3.4-0.2-4.9v-0.6c0-0.4-0.1-0.7-0.4-0.9s-0.6-0.4-1-0.3c-3 0.2-6.3 0.2-9.6 0.1-0.4 0-0.7 0.1-1 0.4-0.2 0.3-0.4 0.6-0.4 1 0.2 2.6 0.4 5.1 0.6 7.7 0.1 1 0.2 2.1 0.3 3.1 0.1 0.7 0.6 1.2 1.3 1.2 0.9 0 1.8 0 2.7 0.1 1.3 0 2.6 0.1 3.8 0.1 1 0 2 0 2.8-0.1 0.7-0.2 1.3-0.9 1.3-1.5zm-4.1-1.2c-1.3 0-2.5 0-3.8-0.1h-1.5c-0.1-0.7-0.1-1.3-0.2-2-0.2-2-0.4-4.1-0.5-6.2 2.4 0 4.8 0 7.1-0.1 0 1.4 0.1 2.9 0.2 4.3 0.1 1.3 0.2 2.7 0.2 4.1h-1.5z"/>
					<path d="m189.2 229.8h2.7 3.6c1.4 0 2.6 0 3.8-0.1 0.7 0 1.2-0.6 1.2-1.3-0.1-2.3-0.1-4.5-0.1-6.7v-3.1c0-0.4-0.2-0.7-0.4-0.9-0.3-0.2-0.6-0.4-1-0.3-2.9 0.3-6.1 0.5-10 0.5-0.3 0-0.7 0.1-0.9 0.4-0.2 0.2-0.4 0.6-0.3 0.9 0.1 2.7 0.2 5.7 0.2 9.3-0.1 0.8 0.5 1.3 1.2 1.3zm8.6-9.7v1.7 5.6c-1.7 0.1-3.9 0-5.9 0h-1.4c0-2.5-0.1-4.7-0.1-6.8 2.7-0.2 5.2-0.3 7.4-0.5z"/>
					<path d="m210 229.6c0.2 0.2 0.6 0.4 0.9 0.4h2 2.5c2 0 3.5-0.1 4.9-0.2 0.7-0.1 1.2-0.6 1.2-1.3v-8.8c0-0.4-0.1-0.7-0.4-0.9s-0.6-0.4-1-0.3c-2.7 0.2-5.6 0.2-9.2 0-0.4 0-0.7 0.1-1 0.4-0.3 0.2-0.4 0.6-0.4 0.9v5.2 3.7c0.2 0.3 0.3 0.7 0.5 0.9zm9-8.4v6.2c-1 0.1-2.2 0.1-3.6 0.1h-2.5-0.8v-2.5-3.9c2.6 0.2 4.8 0.2 6.9 0.1z"/>
					<path d="m243.6 228.8c0-1.8-0.1-3.6-0.2-5.4-0.1-1.7-0.2-3.4-0.2-4.9v-0.6c0-0.4-0.1-0.7-0.4-0.9s-0.6-0.4-1-0.3c-3 0.2-6.3 0.2-9.6 0.1-0.4 0-0.7 0.1-1 0.4-0.2 0.3-0.4 0.6-0.4 1 0.2 2.6 0.4 5.1 0.6 7.7 0.1 1 0.2 2.1 0.3 3.1 0.1 0.7 0.6 1.2 1.3 1.2 0.9 0 1.8 0 2.7 0.1 1.3 0 2.6 0.1 3.8 0.1 1 0 2 0 2.8-0.1 0.7-0.2 1.3-0.8 1.3-1.5zm-4.1-1.1c-1.3 0-2.5 0-3.8-0.1h-1.5c-0.1-0.7-0.1-1.3-0.2-2-0.2-2-0.4-4.1-0.5-6.2 2.4 0 4.8 0 7.1-0.1 0 1.4 0.1 2.9 0.2 4.3 0.1 1.3 0.2 2.7 0.2 4.1h-1.5z"/>
					<path d="m404.3 251.3c0-0.5-0.4-1-0.9-1.2-4-1.4-7-4-8.4-7.5-0.2-0.5-0.7-0.8-1.2-0.8s-1 0.4-1.2 0.9c-1 3.2-2.7 5.4-5 6.6-0.5 0.3-0.7 0.8-0.7 1.3 0.1 0.5 0.5 1 1 1.1 4.5 0.9 6.5 3.9 7.3 5.6 0.2 0.4 0.6 0.7 1.1 0.7s0.9-0.3 1.1-0.7c1.6-2.9 4-4.2 6-4.9 0.6 0 0.9-0.5 0.9-1.1zm-7.8 3.1c-1.3-1.9-3.2-3.4-5.4-4.4 1.2-1 2.2-2.4 2.9-3.9 1.5 2.2 3.5 4 5.9 5.3-1.1 0.7-2.4 1.7-3.4 3z"/>
					<path d="m217.5 175.6c0-0.5-0.4-1-0.9-1.2-4-1.4-7-4-8.4-7.5-0.2-0.5-0.7-0.8-1.2-0.8s-1 0.4-1.2 0.9c-1 3.2-2.7 5.4-5 6.6-0.5 0.3-0.7 0.8-0.7 1.3 0.1 0.5 0.5 1 1 1.1 4.5 0.9 6.5 3.9 7.3 5.6 0.2 0.4 0.6 0.7 1.1 0.7s0.9-0.3 1.1-0.7c1.6-2.9 4-4.2 6-4.9 0.6 0 0.9-0.5 0.9-1.1zm-7.8 3.1c-1.3-1.9-3.2-3.4-5.4-4.4 1.2-1 2.2-2.4 2.9-3.9 1.5 2.2 3.5 4 5.9 5.3-1.1 0.7-2.4 1.7-3.4 3z"/>
					<path d="m322 233.8c-0.6-0.4-1.4-0.2-1.8 0.4-0.3 0.5-0.7 1-1 1.5-9.8 14.6-25 32.9-28 33.6-2.6-0.5-16.2-13.7-23.8-33.3-0.2-0.5-0.4-1-0.5-1.5-0.2-0.7-1-1-1.6-0.8-0.7 0.2-1 1-0.8 1.6 0.1 0.3 0.2 0.7 0.4 1 7.7 20.5 22.4 35.4 26.4 35.4 4.7 0 23.2-24.4 30.7-35.6 0.1-0.2 0.3-0.4 0.4-0.6 0.3-0.5 0.1-1.3-0.4-1.7z"/>
					<path d="m313.1 232.1c-0.3 0.5-0.7 1-1 1.5-11.5 16.9-19.7 25.8-21.8 25.8-0.5 0-0.6-0.1-1.4-0.8-6.7-6.4-10.9-14.6-14.9-22.5-0.2-0.4-0.4-0.8-0.6-1.1-0.2-0.5-0.5-0.9-0.7-1.4-0.3-0.6-1.1-0.9-1.7-0.5-0.6 0.3-0.9 1.1-0.5 1.7 0.1 0.3 0.3 0.6 0.4 0.9 0.3 0.6 0.6 1.1 0.9 1.7 4.1 8.1 8.4 16.4 15.5 23.2 0.8 0.8 1.6 1.5 3.1 1.5 4.9 0 17-16.7 24.3-27.4 0.2-0.3 0.4-0.6 0.6-1 0.3-0.5 0.3-1.2-0.1-1.6l-0.2-0.2c-0.3-0.2-0.6-0.2-0.8-0.2-0.5-0.2-0.9 0-1.1 0.4z"/>
					<path d="m349.9 269.8c0.7-0.1 1.3 0.4 1.4 1.1 0.1 0.5 0.1 0.9 0.2 1.4 1.4 0.3 2.9 0.5 4.4 0.5 4.3 0 8.2-1.5 11.2-4.1-0.1-0.5-0.1-1-0.2-1.5-0.1-0.7 0.4-1.3 1.1-1.5 0.6-0.1 1.2 0.3 1.4 0.8 2.9-3.4 4.6-7.9 4.6-13 0-7.2-4.6-14-11.5-17.1-2.6-1.2-5.5-1.8-8.2-1.8-2.8 0-5.2 0.6-7.3 1.7-1.2 0.6-2.3 1.4-3.3 2.3-4.4 4-6.5 10.3-6.5 15.3 0 7.8 4.8 14.6 11.6 17.4v-0.2c-0.1-0.6 0.4-1.3 1.1-1.3zm-10.2-15.8c0-2.8 0.9-7.2 3.3-10.8 2.7-4 6.4-6 11.2-6 2.4 0 4.9 0.5 7.2 1.6 6 2.7 10 8.6 10 14.8 0 9.5-6.7 16.6-15.5 16.6-9 0-16.2-7.3-16.2-16.2z"/>
					<path d="m368.3 254c0-7.6-6-10.8-9.2-10.8h-0.2c-5.7 0.4-9.2 6.4-9.2 12.1 0 8.1 5.6 11.1 9.2 11.1 4.6 0 9.4-4.3 9.4-12.4zm-16 1.3c0-3.8 2.1-9.2 6.8-9.5 1.8 0 6.7 1.9 6.7 8.2 0 6.4-3.5 9.9-6.9 9.9-2.5 0-6.6-2.3-6.6-8.6z"/>
					<path d="m363.1 254.3c0-2.6-1.8-3-2.4-3-0.2 0-0.5 0-0.9 0.1-0.5-0.1-1 0-1.3 0.4-0.6 0.7-0.9 1.5-0.9 2.3 0 1.5 1 3.6 2.9 3.6 1.2 0.1 2.6-0.5 2.6-3.4zm-2.9 0.1c0.1-0.3 0.2-0.4 0.3-0.5v0.4c0 0.4 0 0.6-0.1 0.8 0-0.2-0.1-0.5-0.2-0.7z"/>
					<path d="m323.6 288.4c0-6.9-6.2-11-12.2-11h-0.6c-3.9 0.1-7.9 2.1-9.8 6.1 0.1-0.1 0.2-0.3 0.3-0.4 0.5-0.5 1.3-0.4 1.8 0.1 0.2 0.2 0.4 0.5 0.6 0.7 1.6-2.6 4.4-3.8 7.2-3.9h0.5c3.2 0 5.6 1.1 7.2 2.8 0.2-0.3 0.5-0.5 0.7-0.8 0.5-0.5 1.3-0.6 1.8-0.1s0.6 1.3 0.1 1.8c-0.4 0.5-0.8 0.9-1.1 1.3 0.6 1.1 0.9 2.4 0.9 3.6 0 5.2-4.5 9.6-9.8 9.6-6.1 0-8.9-5.5-8.9-9.4 0-0.8 0.1-1.5 0.2-2.1-0.5-0.6-1-1.1-1.5-1.6-0.4-0.4-0.4-0.9-0.2-1.4-0.7 1.4-1.1 3.2-1.1 5.1 0 5 3.5 11.9 11.4 11.9 7-0.2 12.5-5.6 12.5-12.3z"/>
					<path d="m301.2 284.9c0.5 0.5 1 1.1 1.5 1.6 0.2 0.2 0.4 0.4 0.6 0.7 4.6 5.3 6.8 7.6 8.6 7.6 1.5 0 3-2 5.7-6.2 0.6-0.9 1.1-1.8 1.5-2.2l1.2-1.5c0.3-0.4 0.7-0.9 1.1-1.3 0.5-0.5 0.4-1.3-0.1-1.8s-1.3-0.4-1.8 0.1c-0.2 0.3-0.5 0.6-0.7 0.8-0.6 0.8-1.2 1.4-1.7 2.1-0.4 0.5-1 1.4-1.6 2.4-0.9 1.4-2.8 4.3-3.6 5-1.2-0.6-4.6-4.3-6.6-6.7-0.5-0.6-1-1.1-1.5-1.7-0.2-0.2-0.4-0.5-0.6-0.7-0.5-0.5-1.3-0.6-1.8-0.1-0.1 0.1-0.2 0.3-0.3 0.4-0.3 0.5-0.3 1.1 0.1 1.5z"/>
					<path d="m310.3 287h0.2c0.7-0.1 1.2-0.8 1-1.5-0.2-0.9-0.2-1.7-0.2-2.7 0-0.7-0.6-1.3-1.3-1.3s-1.3 0.6-1.3 1.3c0 1.1 0 2 0.2 3.1 0.3 0.7 0.8 1.1 1.4 1.1z"/>
					<path d="m339.4 236.6c-0.4-0.6-1.2-0.8-1.8-0.4-0.8 0.5-1.7 1.1-2.4 1.8-6.1 5-10 13-10 21 0 11.9 9.3 25.7 21.4 26 0-0.2 0-0.3 0.1-0.5 0.1-0.7 0.7-1.2 1.4-1.1 0.3 0 0.6 0.2 0.8 0.4v-0.3c-0.1-0.7-0.8-1.2-1.5-1h-0.4c-10.8 0-19.2-12.6-19.2-23.5 0-8.2 4.4-16.3 11.2-20.7h0.1c0.6-0.4 0.7-1.2 0.3-1.7z"/>
					<path d="m367.9 265.7c-0.7 0.1-1.2 0.8-1.1 1.5 0.1 0.5 0.2 1 0.2 1.5 0.4 2.9 0.8 5.9 1.1 8.8 0.3-0.6 1.1-0.9 1.7-0.5 0.6 0.3 0.9 1.1 0.6 1.7s-1 1.2-2 1.7c0.2 2.3 0.4 4.6 0.6 6.8 0.6-0.3 1.2-0.1 1.6 0.4 0.4 0.6 0.3 1.4-0.3 1.8-0.3 0.2-0.7 0.4-1.1 0.6 0.2 2.7 0.3 5.3 0.5 7.7 0.6-0.3 1.3-0.1 1.6 0.5s0.1 1.4-0.5 1.7c-0.3 0.2-0.7 0.4-1 0.5 0.1 3.1 0.2 5.7 0.2 7.6 0.6-0.3 1.3-0.1 1.7 0.5s0.2 1.4-0.4 1.8c-0.4 0.2-0.8 0.5-1.2 0.7 0 2.6-0.2 7.4-0.4 11.3 0.9 0.2 1.7 0.5 2.5 1 0.3-4.4 0.5-10.3 0.5-12.9 0-5.7-0.6-25.8-3.3-43.8 0-0.1 0-0.2-0.1-0.3-0.2-0.3-0.8-0.7-1.4-0.6z"/>
					<path d="m357.4 325.2c0-4.1-0.3-8.5-0.8-13.4-0.5-0.3-1-0.6-1.4-0.9-0.6-0.4-0.7-1.2-0.2-1.8 0.3-0.4 0.8-0.6 1.3-0.5-0.3-2.4-0.6-5-1-7.6-0.4-0.1-0.8-0.3-1.2-0.4-0.7-0.3-1-1-0.7-1.7 0.2-0.6 0.9-0.9 1.5-0.7-0.2-1.7-0.5-3.5-0.7-5.4l-0.3-2.1c-0.5-0.1-0.9-0.2-1.3-0.4-0.7-0.2-1.1-0.9-0.9-1.6s0.9-1.1 1.6-0.9c0.1 0 0.2 0 0.2 0.1-0.3-2.1-0.6-4.2-0.9-6.4-0.4-0.1-0.7-0.2-1.1-0.3-0.7-0.2-1-0.9-0.8-1.6s0.9-1 1.6-0.8c-0.3-2.1-0.5-4.3-0.8-6.5-0.1-0.5-0.1-0.9-0.2-1.4-0.1-0.7-0.7-1.2-1.4-1.1s-1.2 0.7-1.1 1.4v0.2c0.9 8 2 15.3 2.9 21.8 1.8 13 3.2 23.3 3.2 32 0 1.6 0 3.3-0.1 5.2v0.1c0.7-1.4 1.6-2.7 2.6-3.8v-1.5z"/>
					<path d="m355.6 331.4c0.4 0.6 0.3 1.4-0.3 1.8-0.4 0.3-1 0.7-1.8 1.1-0.1 0.7-0.2 1.5-0.2 2.3 0 5.3 3 9.9 7.3 11.8 0.7-0.4 1.3-0.9 2-1.3 0.6-0.4 1.4-0.3 1.8 0.3s0.3 1.4-0.3 1.8c-0.1 0-0.1 0.1-0.2 0.1 0.4 0 0.9 0.1 1.3 0.1 3.6 0 6.7-2 9-4.8-0.1 0-0.1-0.1-0.2-0.1-0.6-0.3-0.9-1.1-0.6-1.7s1.1-0.9 1.7-0.6c0.2 0.1 0.3 0.2 0.5 0.3 1.5-2.6 2.3-5.5 2.3-8.3 0-2.7-0.8-6.3-3.1-8.6-0.8-0.8-1.7-1.4-2.6-2-0.8-0.4-1.6-0.8-2.5-1-0.7-0.2-1.4-0.3-2.2-0.3h-0.3c-3.8 0-7.3 1.7-9.8 4.4-1.1 1.1-1.9 2.4-2.6 3.8-0.1 0.1-0.1 0.3-0.2 0.4 0.4 0 0.8 0.2 1 0.5zm11.6-6.6h0.2c1.9 0 4 1 5.5 2.5 1.7 1.7 2.3 4.7 2.3 6.8 0 5.9-4.4 12.7-10.1 12.7-5.1 0-9.3-4.6-9.3-10.2 0.1-6.3 5.4-11.8 11.4-11.8z"/>
					<path d="m366.9 342.5c2.4 0 5-2.3 5-6 0-1.8-1.1-3.6-3.1-3.6-1.1 0-2.2 0.4-2.8 1.1-0.5 0.6-2.2 2.6-2.2 4.9 0 1.7 1.2 3.6 3.1 3.6zm1-6.9c0.1-0.1 0.4-0.2 0.9-0.2s0.6 0.9 0.6 1.1c0 2.4-1.5 3.5-2.4 3.5-0.3 0-0.6-0.6-0.6-1.1-0.1-1.1 0.7-2.4 1.5-3.3z"/>
					<path d="m281.5 345.9c2.3 0 4.1 1.1 6.3 2.4 2.8 1.7 6 3.7 11 3.7 1.3 0 3.4-0.3 6-0.9-0.3-0.4-0.3-1 0-1.5 0.4-0.6 1.2-0.8 1.8-0.4 0.5 0.3 1 0.7 1.5 1.1 2.6-0.7 5.6-1.5 8.7-2.4-0.3-0.5-0.2-1 0.2-1.5 0.5-0.5 1.3-0.6 1.8-0.1 0.3 0.2 0.5 0.5 0.8 0.7 3-0.9 6.1-1.9 9.2-3-0.2-0.5-0.1-1 0.3-1.4 0.5-0.5 1.3-0.5 1.8 0l0.5 0.5c3.4-1.2 6.6-2.4 9.6-3.5-0.5-0.4-0.7-1.2-0.3-1.7 0.4-0.6 1.2-0.7 1.8-0.3 0.4 0.3 0.8 0.6 1.2 1 4.2-1.7 7.8-3.2 10-4.4 0.7-0.4 1.3-0.8 1.8-1.1 0.6-0.4 0.7-1.2 0.3-1.8-0.3-0.4-0.7-0.5-1.1-0.5-0.2 0-0.5 0.1-0.7 0.2-6.1 4.3-46.7 18.4-55.1 18.4-4.3 0-7-1.7-9.7-3.3-2.4-1.4-4.6-2.8-7.6-2.8-2.9 0-13.7 5.4-13.9 8.7 0.9-0.1 1.9-0.2 2.8-0.3 1.6-1.8 8.9-5.8 11-5.8z"/>
					<path d="m270.6 354.5c0.2 0 0.3-0.1 0.5-0.2-0.5 0.1-1 0.1-1.5 0.2 0.2 0.1 0.4 0.1 0.6 0.1 0.1 0 0.2 0 0.4-0.1z"/>
					<path d="m266.8 362.3c0.5 0.5 0.5 1.3 0 1.8 0.9-0.2 1.8-0.3 2.7-0.5 0.7-0.1 1.1-0.8 1-1.5s-0.8-1.1-1.5-1c-10.1 1.9-21.6 2.6-23.7 2.6-3.8 0-6.1-1.2-6.7-1.8 1.5-5 11.7-5.8 22.6-6.7 2.7-0.2 5.5-0.5 8.2-0.8 0.5-0.1 1-0.1 1.5-0.2 1.2-0.1 2.3-0.3 3.5-0.5 0.7-0.1 1.2-0.7 1.1-1.4s-0.7-1.2-1.4-1.1c-1.2 0.2-2.5 0.3-3.7 0.5-0.9 0.1-1.9 0.2-2.8 0.3-2.2 0.2-4.4 0.4-6.5 0.6-12.6 1-23.5 1.9-25 9.1v0.3c0 2 3.8 4.2 9.3 4.2 2.3 0 10.1-0.5 18.1-1.6 0.3-0.8 0.8-1.5 1.6-2.3 0.4-0.5 1.2-0.5 1.7 0z"/>
					<path d="m363.9 349.2c0.1 0 0.1-0.1 0.2-0.1 0.6-0.4 0.7-1.2 0.3-1.8s-1.2-0.7-1.8-0.3c-0.7 0.5-1.3 0.9-2 1.3-3.5 2.3-7 4.2-10.5 5.8v0.3c-0.1 0.6-0.7 1-1.2 1h-0.2c-0.2 0-0.4-0.2-0.6-0.3-3 1.3-6.1 2.4-9.1 3.4 0 0.4 0.1 0.8 0.1 1.2 0 0.7-0.5 1.3-1.2 1.3h-0.1c-0.7 0-1.2-0.5-1.3-1.2v-0.5c-3 0.9-6 1.8-8.9 2.7-0.3 0.1-0.7 0.2-1 0.3v0.9c0 0.7-0.6 1.3-1.3 1.3s-1.3-0.6-1.3-1.3v-0.1c-3 0.9-6 1.8-8.9 2.8-0.1 0.5-0.1 1-0.3 1.5-0.1 0.6-0.7 1-1.2 1h-0.3c-0.7-0.2-1.1-0.8-1-1.5-2 0.7-3.9 1.5-5.9 2.3-0.2 0.1-0.4 0.3-0.5 0.5-9.4 14-18.3 16.1-22.8 16.1-3.7 0-10.7-2-10.7-5.9 0-0.4 0-0.7 0.1-1.1h-1c-0.7 0.1-1.3-0.5-1.4-1.2s0.5-1.3 1.2-1.4h1s-0.1 0-0.1-0.1c-1.4-0.7-2.8-1.9-2.8-3.1 0-0.4 0.1-0.9 0.4-1.4-0.4 0-0.8 0.1-1.2 0.1-0.7 0-1.3-0.6-1.3-1.3 0-0.6 0.4-1 0.8-1.2-1.1-0.6-2.3-1.6-2.3-3 0-0.6 0.3-1.3 1.1-2 0.5-0.5 0.5-1.3 0-1.8s-1.3-0.5-1.8 0c-0.8 0.8-1.3 1.5-1.6 2.3-0.2 0.5-0.3 1-0.3 1.5 0 2.2 1.4 4.1 3.8 5.3-0.1 0.5-0.2 1-0.2 1.5 0 2.1 1.6 3.8 3.3 4.9-0.2 0.6-0.3 1.3-0.3 1.9 0 6 8.6 8.4 13.3 8.4 11.4 0 20.3-10.5 24.7-16.9 6.8-2.9 13.7-4.9 20.4-6.9 11.6-3.4 23.7-6.9 35.7-15.2z"/>
					<path d="m307.9 350.4c-0.5-0.4-1-0.7-1.5-1.1-0.6-0.4-1.4-0.2-1.8 0.4-0.3 0.5-0.3 1 0 1.5l0.3 0.3c4.6 3 7.5 7.9 7.5 12.6 0 0.9-0.1 1.8-0.3 2.7-0.1 0.7 0.3 1.4 1 1.5h0.3c0.6 0 1.1-0.4 1.2-1l0.3-1.5c0.1-0.6 0.1-1.1 0.1-1.7 0.1-5.1-2.6-10.2-7.1-13.7z"/>
					<path d="m319.4 347.1c-0.3-0.2-0.5-0.5-0.8-0.7-0.5-0.5-1.3-0.4-1.8 0.1-0.4 0.4-0.4 1-0.2 1.5l0.3 0.3c4.4 3.9 7 9.3 7 14.7v0.1c0 0.7 0.6 1.3 1.3 1.3s1.3-0.6 1.3-1.3v-0.9c-0.3-5.4-2.9-10.9-7.1-15.1z"/>
					<path d="m330.6 342.7c-0.5-0.5-1.3-0.5-1.8 0-0.4 0.4-0.4 0.9-0.3 1.4 0.1 0.2 0.2 0.3 0.3 0.4 4.4 4.2 7.1 9.5 7.5 14.7v0.5c0 0.7 0.6 1.2 1.3 1.2h0.1c0.7 0 1.2-0.6 1.2-1.3 0-0.4-0.1-0.8-0.1-1.2-0.6-5.4-3.4-10.9-7.7-15.2l-0.5-0.5z"/>
					<path d="m343.6 338.7c-0.4-0.3-0.8-0.7-1.2-1-0.6-0.4-1.4-0.3-1.8 0.3s-0.3 1.3 0.3 1.7c3.4 2.4 7 6.8 7 12 0 0.7-0.1 1.4-0.2 2.1-0.1 0.5 0.1 0.9 0.4 1.2 0.2 0.2 0.4 0.3 0.6 0.3h0.2c0.6 0 1.1-0.4 1.2-1v-0.3c0.1-0.8 0.2-1.5 0.2-2.3 0-5.4-3.3-10.1-6.7-13z"/>
					<path d="m368.5 280.5c1-0.5 1.7-1.1 2-1.7s0.1-1.4-0.6-1.7c-0.6-0.3-1.4-0.1-1.7 0.5-0.4 0.6-3.8 2.4-8.5 2.4-2.3 0-4.8-0.4-7.4-1.2-0.7-0.2-1.4 0.2-1.6 0.8-0.2 0.7 0.2 1.4 0.8 1.6 0.4 0.1 0.7 0.2 1.1 0.3 2.4 0.7 4.8 1 7.1 1 3.4 0 6.7-0.9 8.8-2z"/>
					<path d="m369.3 290.1c0.4-0.2 0.7-0.4 1.1-0.6 0.6-0.4 0.7-1.2 0.3-1.8-0.4-0.5-1-0.7-1.6-0.4-0.1 0-0.1 0.1-0.2 0.1-1.9 1.3-4.2 2-7 2-3 0-6-0.7-8.4-1.4-0.1 0-0.2 0-0.2-0.1-0.7-0.2-1.4 0.2-1.6 0.9s0.2 1.4 0.9 1.6c0.4 0.1 0.9 0.2 1.3 0.4 2.4 0.6 5.2 1.2 8 1.2 2.8-0.1 5.3-0.7 7.4-1.9z"/>
					<path d="m369.9 300.6c0.3-0.2 0.7-0.3 1-0.5 0.6-0.3 0.8-1.1 0.5-1.7s-1-0.8-1.6-0.5h-0.1c-2.1 1.2-4.6 1.8-7.3 1.8-2.4 0-5-0.5-7.3-1.5-0.1 0-0.1 0-0.2-0.1-0.6-0.2-1.2 0.2-1.5 0.7-0.3 0.7 0 1.4 0.7 1.7 0.4 0.2 0.8 0.3 1.2 0.4 2.3 0.8 4.7 1.2 7.1 1.2 2.7 0.2 5.2-0.4 7.5-1.5z"/>
					<path d="m370.1 311.2c0.4-0.2 0.8-0.4 1.2-0.7 0.6-0.4 0.8-1.2 0.4-1.8s-1.1-0.8-1.7-0.5h-0.1c-2.4 1.5-5.2 2.3-7.7 2.3-2.2 0-4.1-0.6-5.6-1.8-0.1-0.1-0.3-0.2-0.5-0.2-0.5-0.1-1 0-1.3 0.5-0.4 0.6-0.3 1.4 0.2 1.8 0.4 0.3 0.9 0.6 1.4 0.9 1.7 0.9 3.6 1.4 5.7 1.4 2.8 0.1 5.6-0.6 8-1.9z"/>
					<path d="m348.1 283.4c-0.7-0.1-1.3 0.4-1.4 1.1 0 0.2 0 0.3-0.1 0.5-0.5 3.9-0.9 7.6-1.3 10.9-4.3 35.8-4.3 35.8-25.2 35.8-5.1 0-10.4-0.3-15.5-0.6-3.2-0.2-6.4-0.4-9.7-0.5-0.6 0-1 0.3-1.2 0.8-0.3 0.9-0.4 1.9-0.4 2.9-0.1 2.3-0.1 3.3-2.8 3.3-4.9 0-6.8-0.3-7.8-0.6 0.2-2 1-3.1 1.5-3.9 0.4-0.5 0.9-1.2 0.4-2.1s-1.5-0.9-2.7-0.9c-2.3 0-4.7 0.2-7 0.4s-4.6 0.4-6.9 0.4c-5.7 0-9.6-1.3-12.8-4.3-0.5-0.5-1.3-0.5-1.8 0.1-0.5 0.5-0.5 1.3 0.1 1.8 4.7 4.4 10.2 5 14.5 5 2.3 0 4.7-0.2 7.1-0.4 2.1-0.2 4.2-0.3 6.3-0.4-0.6 1.1-1.3 2.7-1.3 5.1 0 0.5 0.3 1 0.7 1.2 1.3 0.6 3 1.1 9.6 1.1 5.1 0 5.2-3.6 5.3-5.7 0-0.4 0-0.8 0.1-1.2 2.9 0.1 5.7 0.3 8.5 0.5 5.1 0.3 10.4 0.6 15.6 0.6 10.6 0 17.1 0 20.9-5.4 3.5-5 4.6-14.2 6.8-32.7 0.4-3.5 0.9-7.2 1.4-11.4 0-0.4-0.1-0.7-0.3-1 0-0.2-0.2-0.4-0.6-0.4z"/>
					<path d="m287.6 335.9c0.6 0 1.1-0.4 1.3-1 0.2-0.9 0.3-1.8 0.4-2.7s0.3-1.8 0.4-2.7c0.1-0.7-0.3-1.4-1-1.5s-1.4 0.3-1.5 1c-0.2 0.9-0.3 1.8-0.4 2.7s-0.3 1.8-0.4 2.7c-0.1 0.7 0.3 1.4 1 1.5h0.2z"/>
					<path d="m400.3 362.3c-0.2 0.4-0.7 0.6-1.1 0.6-0.2 0-0.5-0.1-0.7-0.2-0.6 0.9-0.9 2.1-0.9 3.3 0 2.9 2.8 5.2 5.1 5.2 2.8 0 6.1-2.6 6.1-5.9 0-2.5-2.5-5.3-5.7-5.3-0.3 0-0.5 0-0.8 0.1-0.8 0.1-1.5 0.4-2.1 0.9 0.3 0.3 0.4 0.9 0.1 1.3zm2.4 0.2h0.4c1.8 0 3.1 1.7 3.1 2.8 0 1.8-2 3.3-3.5 3.3-1 0-2.6-1.2-2.6-2.6 0.1-1.7 1.2-3.3 2.6-3.5z"/>
					<path d="m373.4 342.7c-0.3 0.6-0.1 1.4 0.6 1.7 0.1 0 0.1 0.1 0.2 0.1 0.8 0.5 1.4 1.1 2.1 1.8 0.6 0.7 1.3 1.4 2.2 2 2.5 1.7 4.8 3.5 7.1 5.2 4.3 3.2 8.4 6.3 13 9.1 0.2 0.1 0.5 0.2 0.7 0.2 0.4 0 0.8-0.2 1.1-0.6 0.3-0.5 0.2-1-0.1-1.4l-0.3-0.3c-4.5-2.8-8.5-5.8-12.8-9-2.3-1.7-4.6-3.5-7.1-5.3-0.7-0.5-1.2-1.1-1.8-1.7-0.7-0.8-1.5-1.6-2.5-2.2-0.2-0.1-0.3-0.2-0.5-0.3-0.9-0.2-1.6 0-1.9 0.7z"/>
					<path d="m397 278.4c-0.1-1.2-0.1-2.3-0.1-3.5v-1.4c0-0.7-0.5-1.3-1.2-1.3s-1.3 0.5-1.3 1.2v1.6c0 1.2 0.1 2.5 0.1 3.7 0.7 0 1.5-0.1 2.2-0.1 0.1-0.2 0.2-0.2 0.3-0.2z"/>
					<path d="m394.6 281.1c0 0.8 0.1 1.7 0.1 2.5v1.4c0 0.7 0.5 1.3 1.2 1.3h0.1c0.7 0 1.2-0.5 1.3-1.2v-1.6c0-0.9 0-1.8-0.1-2.6h-0.3c-0.8 0.1-1.5 0.1-2.3 0.2z"/>
					<path d="m402.4 279.4c0-0.7-0.6-1.3-1.3-1.3-1.4 0-2.8 0.1-4.1 0.2h-0.3c-0.7 0.1-1.5 0.1-2.2 0.1-1.2 0.1-2.3 0.1-3.5 0-0.7 0-1.3 0.5-1.3 1.2s0.5 1.3 1.2 1.3h1.5c0.7 0 1.5 0 2.2-0.1 0.8 0 1.5-0.1 2.3-0.2h0.3c1.4-0.1 2.7-0.2 4-0.2 0.6 0.3 1.2-0.3 1.2-1z"/>
					<path d="m209.9 251.9c-0.1-1.2-0.1-2.3-0.1-3.5v-1.4c0-0.7-0.5-1.3-1.2-1.3s-1.3 0.5-1.3 1.2v1.6c0 1.2 0.1 2.5 0.1 3.7 0.7 0 1.5-0.1 2.2-0.1 0.1-0.2 0.2-0.2 0.3-0.2z"/>
					<path d="m207.5 254.6c0 0.8 0.1 1.7 0.1 2.5v1.4c0 0.7 0.5 1.3 1.2 1.3h0.1c0.7 0 1.2-0.5 1.3-1.2v-1.6c0-0.9 0-1.8-0.1-2.6h-0.3c-0.8 0.1-1.5 0.2-2.3 0.2z"/>
					<path d="m215.3 253c0-0.7-0.6-1.3-1.3-1.3-1.4 0-2.8 0.1-4.1 0.2h-0.3c-0.7 0.1-1.5 0.1-2.2 0.1-1.2 0.1-2.3 0.1-3.5 0-0.7 0-1.3 0.5-1.3 1.2s0.5 1.3 1.2 1.3h1.5c0.7 0 1.5 0 2.2-0.1 0.8 0 1.5-0.1 2.3-0.2h0.3c1.4-0.1 2.7-0.2 4-0.2 0.6 0.3 1.2-0.3 1.2-1z"/>
					<path d="m409 180.2c0-3.4-2.6-4.9-4.5-4.9-0.7 0-1.7 0.3-2.2 0.6-1.2 0.6-2.1 2.2-2.1 3.8 0 2.5 2.1 4.8 4.4 4.8 3.1 0 4.4-2.8 4.4-4.3zm-6.3-0.5c0-0.9 0.5-1.5 0.7-1.6 0.4-0.2 0.9-0.3 1.1-0.3 0 0 2 0.1 2 2.4 0 0.2-0.4 1.7-1.9 1.7-0.8 0-1.9-0.9-1.9-2.2z"/>
					<path d="m378.5 163.1c0-0.5-0.1-0.9-0.2-1.4-0.6-2.5-2-4.3-4.3-5.2-0.9-0.4-1.8-0.5-2.7-0.5-3.5 0-7.2 2.9-7.2 7.2v0.8c0 3 2.4 6 7.1 6 4.5-0.2 7.3-3.6 7.3-6.9zm-7.3 4.2c-3.2 0-4.6-1.7-4.6-3.4v-0.8c0-2.8 2.5-4.7 4.7-4.7 0.6 0 1.2 0.1 1.7 0.4 1.5 0.6 2.4 1.8 2.8 3.5 0.1 0.3 0.1 0.6 0.1 0.8 0 1.6-1.3 4.2-4.7 4.2z"/>
					<path d="m357.7 172.9c0.2 0.4 0.6 0.6 1.1 0.6 0.2 0 0.5-0.1 0.7-0.2 0.6-0.4 0.7-1.2 0.3-1.8s-0.8-1.3-1.2-2c-0.3-0.6-1.1-0.9-1.7-0.6s-0.9 1.1-0.6 1.7c0.5 0.9 0.9 1.6 1.4 2.3z"/>
					<path d="m378.2 148.6c0.2 0.1 0.4 0.1 0.5 0.1 0.5 0 1-0.3 1.2-0.8 0.3-0.6 0-1.4-0.7-1.7-0.8-0.3-1.6-0.6-2.5-0.9-0.7-0.2-1.4 0.2-1.6 0.9s0.2 1.4 0.9 1.6c0.8 0.2 1.5 0.5 2.2 0.8z"/>
					<path d="m378 179.5c0.1 0 0.3 0 0.4-0.1 0.8-0.3 1.6-0.6 2.4-1 0.6-0.3 0.9-1.1 0.6-1.7s-1.1-0.9-1.7-0.6l-2.1 0.9c-0.7 0.2-1 1-0.8 1.6s0.7 0.9 1.2 0.9z"/>
					<path d="m389.7 156.3c-0.2-0.7-1-1-1.6-0.8-0.7 0.2-1 1-0.8 1.6 0.2 0.7 0.5 1.4 0.6 2.2 0.1 0.6 0.7 1 1.2 1h0.3c0.7-0.2 1.1-0.8 1-1.5-0.2-0.9-0.4-1.7-0.7-2.5z"/>
					<path d="m355.8 157.8c0.1 0.1 0.3 0.1 0.4 0.1 0.5 0 1-0.3 1.2-0.8 0.3-0.7 0.6-1.4 0.9-2s0.1-1.4-0.5-1.7-1.4-0.1-1.7 0.5c-0.4 0.8-0.8 1.6-1.1 2.4-0.2 0.6 0.2 1.3 0.8 1.5z"/>
					<path d="m354.1 162.3c0 0.9 0.1 1.7 0.3 2.6 0.1 0.6 0.6 1 1.3 1h0.2c0.7-0.1 1.1-0.8 1-1.5-0.1-0.8-0.2-1.5-0.2-2.2s-0.6-1.3-1.3-1.2c-0.8 0-1.3 0.6-1.3 1.3z"/>
					<path d="m361.8 177.4c0.7 0.6 1.4 1.1 2.2 1.5 0.2 0.1 0.4 0.2 0.6 0.2 0.4 0 0.9-0.2 1.1-0.6 0.4-0.6 0.1-1.4-0.5-1.7-0.6-0.4-1.3-0.8-1.9-1.3-0.5-0.4-1.3-0.4-1.8 0.2-0.4 0.5-0.3 1.3 0.3 1.7z"/>
					<path d="m388.4 164.7c-0.1 0.7-0.2 1.5-0.4 2.2s0.2 1.4 0.9 1.6h0.3c0.6 0 1.1-0.4 1.2-0.9 0.2-0.9 0.4-1.8 0.5-2.7 0.1-0.7-0.5-1.3-1.2-1.4-0.6 0-1.2 0.5-1.3 1.2z"/>
					<path d="m370.7 180.8c0.6 0 1.2 0 1.9-0.1s1.2-0.7 1.2-1.4c-0.1-0.7-0.7-1.2-1.4-1.2-0.8 0.1-1.5 0.1-2.3 0-0.7 0-1.3 0.5-1.3 1.2s0.5 1.3 1.2 1.3c0.2 0.2 0.4 0.2 0.7 0.2z"/>
					<path d="m368.2 147.8h0.3c0.7-0.2 1.5-0.3 2.3-0.3 0.7-0.1 1.2-0.7 1.2-1.4-0.1-0.7-0.7-1.2-1.4-1.2-0.9 0.1-1.7 0.2-2.6 0.4-0.7 0.2-1.1 0.8-1 1.5 0.1 0.6 0.7 1 1.2 1z"/>
					<path d="m361.8 151c0.6-0.5 1.2-0.9 1.8-1.3s0.8-1.1 0.4-1.7-1.2-0.8-1.7-0.4c-0.8 0.5-1.5 1-2.2 1.5-0.5 0.4-0.6 1.3-0.2 1.8 0.3 0.3 0.6 0.5 1 0.5 0.3-0.1 0.6-0.2 0.9-0.4z"/>
					<path d="m385 175.3c0.3 0 0.6-0.1 0.9-0.3 0.6-0.6 1.2-1.3 1.8-1.9 0.4-0.6 0.3-1.4-0.2-1.8-0.6-0.4-1.4-0.3-1.8 0.2-0.5 0.6-1 1.1-1.5 1.7-0.5 0.5-0.5 1.3-0.1 1.8 0.2 0.2 0.6 0.3 0.9 0.3z"/>
					<path d="m382.9 151.3c0.6 0.5 1.2 1 1.7 1.5 0.3 0.3 0.6 0.4 0.9 0.4s0.6-0.1 0.9-0.4c0.5-0.5 0.5-1.3 0-1.8-0.6-0.6-1.3-1.2-2-1.8-0.6-0.4-1.4-0.3-1.8 0.2-0.4 0.6-0.3 1.4 0.3 1.9z"/>
					<path d="m413 316.7c0.7 0 1.3-0.6 1.3-1.3 0-0.9-0.1-1.9-0.4-2.9-0.2-0.7-0.9-1.1-1.6-0.9s-1.1 0.9-0.9 1.6c0.2 0.8 0.3 1.5 0.3 2.2l1.3 0.1h-1.3c0 0.7 0.6 1.2 1.3 1.2z"/>
					<path d="m393 312.2c0.1 0 0.3 0.1 0.4 0.1 0.5 0 1-0.4 1.2-0.9 0.2-0.8 0.6-1.5 1-2.1s0.2-1.4-0.4-1.8-1.4-0.2-1.8 0.4c-0.5 0.8-0.9 1.8-1.2 2.7-0.2 0.6 0.1 1.3 0.8 1.6z"/>
					<path d="m409.6 308.7c0.3 0 0.6-0.1 0.9-0.3 0.5-0.5 0.5-1.3 0.1-1.8-0.7-0.7-1.4-1.4-2.2-1.9-0.6-0.4-1.4-0.2-1.8 0.3-0.4 0.6-0.2 1.4 0.3 1.8 0.6 0.4 1.2 1 1.8 1.5 0.3 0.3 0.6 0.4 0.9 0.4z"/>
					<path d="m408.1 323.7c0.2 0 0.4 0 0.6-0.1 0.9-0.5 1.7-1 2.5-1.7 0.5-0.5 0.5-1.3 0.1-1.8-0.5-0.5-1.3-0.5-1.8-0.1-0.6 0.5-1.2 1-1.9 1.3-0.6 0.3-0.9 1.1-0.5 1.7 0.1 0.5 0.6 0.7 1 0.7z"/>
					<path d="m399.1 305.8c0.2 0 0.3 0 0.5-0.1 0.7-0.3 1.4-0.4 2.2-0.5v-1.3l-0.1-1.3c-1 0.1-2 0.3-3 0.6-0.7 0.3-1 1-0.7 1.6 0.1 0.7 0.6 1 1.1 1z"/>
					<path d="m399.1 324.2c0.9 0.3 1.9 0.5 2.9 0.6h0.1c0.7 0 1.2-0.5 1.3-1.2s-0.5-1.3-1.2-1.4c-0.8-0.1-1.6-0.2-2.3-0.5-0.7-0.2-1.4 0.1-1.6 0.8-0.2 0.8 0.1 1.5 0.8 1.7z"/>
					<path d="m392.2 317.5c0.3 1 0.8 1.9 1.4 2.7 0.2 0.4 0.6 0.5 1 0.5 0.3 0 0.5-0.1 0.7-0.2 0.6-0.4 0.7-1.2 0.3-1.8s-0.8-1.3-1-2-0.9-1-1.6-0.8-1.1 0.9-0.8 1.6z"/>
					<path d="m173.9 284.5c2 0 3.4-1.8 3.4-3.3s-1.3-3.1-3.3-3.1h-0.6-0.4c-0.5 0-0.9 0.2-1.1 0.4l-0.1 0.1 0.6 1.1-0.6-1.1c-1.2 0.6-1.3 2.7-1.3 2.7-0.1 1.9 1.7 3.2 3.4 3.2zm-0.8-3.8s0.1 0 0.1-0.1h0.3 0.4c0.6 0 0.8 0.4 0.8 0.5s-0.2 0.8-0.9 0.8c-0.4 0-0.9-0.3-0.9-0.6 0.1-0.1 0.1-0.4 0.2-0.6z"/>
					<path d="m174.7 253.2c0.7 0 1.3-0.6 1.3-1.3 0-0.9-0.1-1.9-0.4-2.9-0.2-0.7-0.9-1.1-1.6-0.9s-1.1 0.9-0.9 1.6c0.2 0.8 0.3 1.5 0.3 2.2l1.3 0.1h-1.3c0.1 0.6 0.6 1.2 1.3 1.2z"/>
					<path d="m154.8 248.6c0.1 0 0.3 0.1 0.4 0.1 0.5 0 1-0.4 1.2-0.9 0.2-0.8 0.6-1.5 1-2.1s0.2-1.4-0.4-1.8-1.4-0.2-1.8 0.4c-0.5 0.8-0.9 1.8-1.2 2.7-0.3 0.7 0.1 1.4 0.8 1.6z"/>
					<path d="m171.4 245.2c0.3 0 0.6-0.1 0.9-0.3 0.5-0.5 0.5-1.3 0.1-1.8-0.7-0.7-1.4-1.4-2.2-1.9-0.6-0.4-1.4-0.2-1.8 0.3-0.4 0.6-0.2 1.4 0.3 1.8 0.6 0.4 1.2 1 1.8 1.5 0.2 0.3 0.6 0.4 0.9 0.4z"/>
					<path d="m169.9 260.2c0.2 0 0.4 0 0.6-0.1 0.9-0.5 1.7-1 2.5-1.7 0.5-0.5 0.5-1.3 0.1-1.8-0.5-0.5-1.3-0.5-1.8-0.1-0.6 0.5-1.2 1-1.9 1.3-0.6 0.3-0.9 1.1-0.5 1.7 0.1 0.5 0.5 0.7 1 0.7z"/>
					<path d="m160.9 242.3c0.2 0 0.3 0 0.5-0.1 0.7-0.3 1.4-0.4 2.2-0.5v-1.3l-0.1-1.3c-1 0.1-2 0.3-3 0.6-0.7 0.3-1 1-0.7 1.6 0.1 0.7 0.6 1 1.1 1z"/>
					<path d="m160.9 260.7c0.9 0.3 1.9 0.5 2.9 0.6h0.1c0.7 0 1.2-0.5 1.3-1.2s-0.5-1.3-1.2-1.4c-0.8-0.1-1.6-0.2-2.3-0.5-0.7-0.2-1.4 0.1-1.6 0.8-0.3 0.8 0.1 1.5 0.8 1.7z"/>
					<path d="m153.9 253.9c0.3 1 0.8 1.9 1.4 2.7 0.2 0.4 0.6 0.5 1 0.5 0.3 0 0.5-0.1 0.7-0.2 0.6-0.4 0.7-1.2 0.3-1.8s-0.8-1.3-1-2-0.9-1-1.6-0.8c-0.6 0.2-1 1-0.8 1.6z"/>
					<path d="m206.5 331.7c-0.3 0.2-0.4 0.5-0.5 0.7-0.1 0.3 0 0.7 0.2 1 0.1 0.2 0.2 0.4 0.2 0.6 0.1 0.7 0.6 1.1 1.3 1.1h0.1c0.7-0.1 1.2-0.7 1.1-1.4-0.1-0.5-0.2-1-0.4-1.4-0.1-0.1-0.1-0.2-0.2-0.4-0.4-0.4-1.2-0.6-1.8-0.2z"/>
						<path d="m309.7 211.8c-0.6 0.3-0.9 1.1-0.6 1.7 0.1 0.1 0.1 0.2 0.2 0.4-8.1 2.6-15.5 3.8-20.4 3.8-3.5 0-7.1-0.4-10.6-1.1 0.1-0.3 0.1-0.7-0.1-1-0.4-0.6-1.2-0.8-1.8-0.4-0.3 0.2-0.7 0.5-1 0.8-10.3-2.6-20.1-8-28.2-15.8-3.2-3.1-6-6.5-8.5-10.1 0.2 0.3 0.6 0.5 1 0.5h0.3c0.6-0.1 1.2-0.3 1.8-0.5 2.1 2.9 4.5 5.7 7.1 8.3 11 10.7 25.6 16.8 39.8 16.8 10.8 0 33.7-5.5 49-21.2 0.6 0.1 1.2 0.1 1.8 0.1 0.7 0 1.3-0.6 1.3-1.2s-0.4-1.1-0.9-1.2c2.4-2.7 4.5-5.7 6.3-9.1 0.9 0.2 1.8 0.4 2.7 0.4-8.4 15.8-23.6 25.2-37.4 30.1-0.1-0.2-0.2-0.5-0.3-0.7-0.1-0.7-0.8-0.9-1.5-0.6z"/>
						<path d="m349.4 129.9c-0.3 0-0.6-0.1-0.9-0.1-0.4 0-0.8 0.1-1.2 0.2-2.8-5.9-6.5-11.3-11-15.9 0.6-0.5 0.7-1.3 0.3-1.8-0.4-0.6-1.2-0.7-1.8-0.2-0.1 0.1-0.2 0.2-0.3 0.2-5.1-4.7-11-8.6-17.6-11.3-6.9-2.9-13.9-4.2-21.4-4.2-24.1 0-41 8.1-51.6 19.9-0.4-0.6-1.2-0.8-1.8-0.4s-0.7 1.2-0.4 1.8c0.1 0.2 0.3 0.4 0.4 0.6-8.1 10-11.9 22.3-11.9 34.5 0 12.6 3.5 24.5 10.1 34.5-0.3 0.1-0.6 0.2-0.8 0.2-0.7 0.1-1.1 0.8-1 1.5 0 0.1 0.1 0.2 0.1 0.3-7.1-10.6-10.9-23.2-10.9-36.6 0-18.3 7.2-33.6 20.7-44.3 12.1-9.5 28.8-14.8 47.1-14.8 1 0 2 0 3 0.1v1.3c0 0.7 0.6 1.3 1.3 1.3s1.3-0.6 1.3-1.3v-1.2c5.8 0.5 11.4 1.9 16.9 4.2 14.5 6 25.9 17.1 32.3 31.4-0.3 0.2-0.6 0.1-0.9 0.1z"/>
						<path d="m348.6 180.3h-0.2c0.1-0.1 0.2-0.1 0.2 0z"/>
						<path d="m314.6 141.8c0-0.5 0.1-1 0.2-1.5-2.8-1.4-6.1-2.2-9.3-2.2-1.8 0-3.5 0.2-5.1 0.7-0.4 0.1-0.7 0.2-1 0.2-0.5 0.1-1 0.2-1.6 0.4-5.4 1.9-11.1 8.2-11.1 16.1 0 10 8.6 18.8 18.5 18.8 3 0 6.1-0.8 9-2.3 0-0.3-0.1-0.6-0.1-0.9-0.1-0.7 0.5-1.3 1.2-1.4 0.6-0.1 1.1 0.3 1.3 0.8 0.6-0.4 1.2-0.9 1.7-1.3 4-3.5 6.2-8.1 6.2-13 0-7.3-3.5-11.6-6.4-13.9-0.2-0.2-0.5-0.4-0.7-0.5v0.3c-0.1 0.7-0.6 1.2-1.3 1.2h-0.1c-1-0.2-1.5-0.8-1.4-1.5zm-9.2-1.2c6.6 0 16.4 4.2 16.4 15.6 0 8.9-8.8 15.6-16.7 15.6-8.5 0-15.9-7.6-15.9-16.3 0-6.5 4.8-12.1 9.4-13.7 0.5-0.2 0.8-0.2 1.3-0.3 0.4-0.1 0.7-0.1 1.1-0.3 1.4-0.4 2.9-0.6 4.4-0.6z"/>
						<path d="m250.7 171.9c0.1-0.7 0.6-1.2 1.3-1.2s1.3 0.6 1.3 1.3v0.8c1.9 0.6 4 0.9 6.1 0.9 7.6 0 15.6-7.1 15.6-17.8 0-7.3-3.9-13.5-9.9-15.8-2.4-0.9-4.9-1-7-1-1.4 0-2.9 0.2-4.4 0.6 0.1 0.5 0.1 0.9 0.1 1.4 0.1 0.7-0.5 1.3-1.2 1.4h-0.1c-0.7 0-1.2-0.5-1.3-1.2 0-0.3-0.1-0.6-0.1-0.8-5.8 2.2-11.3 7.1-11.3 15 0 7.4 4.3 13.6 10.9 16.4zm-8.3-16.4c0-9.4 9.4-13.8 15.7-13.8 1.9 0 4.1 0.1 6.1 0.9 5 1.9 8.2 7.1 8.2 13.4 0 9-6.9 15.2-13.1 15.2-9.6-0.1-16.9-6.8-16.9-15.7z"/>
						<path d="m309.5 161.7c-0.7-0.1-1.1-0.8-1-1.5 0.1-0.3 0.1-0.7 0.1-1 0-3-2.7-5.6-5.8-5.6-2.8 0-3.1 1.3-3.1 2.3 0 2.1 1.7 4.2 2.3 4.3 0 0 0.7-0.5 0.7-3.4 0-0.7 0.6-1.3 1.3-1.3s1.3 0.6 1.3 1.3c0 1.8-0.2 3.2-0.7 4.2-0.7 1.6-1.9 1.8-2.5 1.8-2.6 0-4.9-3.8-4.9-6.8 0-1.4 0.5-2.6 1.4-3.4 1-0.9 2.4-1.4 4.3-1.4 4.5 0 8.4 3.7 8.4 8.1 0 0.5-0.1 1-0.2 1.5-0.2 0.6-0.9 1-1.6 0.9z"/>
						<path d="m254.8 150.9c4.3 0 7.6 2.8 8.5 6.9l0.1 0.1c0.5 0.5 0.5 1.3 0 1.8l-0.3 0.3c-0.4 0.3-0.9 0.5-1.3 0.3-0.5-0.2-0.8-0.6-0.8-1.1-0.3-3.5-2.8-5.8-6.1-5.8-0.7 0-2.1 0-2.1 2.7 0 0.8 0.2 2.7 2.4 2.9 0-0.3-0.1-0.6-0.2-1-0.1-0.5-0.2-1-0.2-1.6 0-0.7 0.6-1.3 1.3-1.3s1.3 0.6 1.3 1.3c0 0.3 0.1 0.6 0.2 1 0.1 0.5 0.2 1 0.2 1.6 0 1.5-0.9 2.6-2.2 2.6-3.1 0-5.3-2.2-5.3-5.4-0.1-3.3 1.6-5.3 4.5-5.3z"/>
						<path d="m288.1 190.5c1.3 0.8 2.9 1.3 4.7 1.3 3.6 0 7.4-1.9 7.4-5.9v-0.3c0-0.7 0.5-1.3 1.2-1.3s1.3 0.5 1.3 1.2v0.5c0 5.6-5 8.5-10 8.5-2.2 0-4.4-0.6-6.1-1.7-0.6-0.4-0.8-1.2-0.4-1.8 0.6-0.7 1.3-0.9 1.9-0.5z"/>
						<path d="m346.5 182.4c0.9 0.2 1.8 0.4 2.7 0.4h0.7c6.2 0 15.4-8.3 15.4-26.1 0-17.2-7.6-25-15-26.7-0.3-0.1-0.5-0.1-0.8-0.2-0.3 0-0.6-0.1-0.9-0.1-0.4 0-0.8 0.1-1.2 0.2-5.3 1.3-14.9 10.5-14.9 27.2 0 14.7 6.6 23.3 14 25.3zm3.3-2.1c-0.4 0-0.8 0-1.2-0.1h-0.2c-8.7-1.1-13.4-12.4-13.4-23 0-17.1 10.8-24.8 13.6-24.8h0.4c6.6 1.1 13.7 8.1 13.7 24.3 0 11.2-3.8 18-7.6 21.2h0.3 0.1c0.7 0 1.3 0.6 1.3 1.3s-0.6 1.3-1.3 1.3h-0.1c-1 0-2.2-0.2-3.5-0.6-0.7 0.3-1.4 0.4-2.1 0.4z"/>
						<path d="m338.7 157.1c0-7 2.4-19.5 11.5-22.1 0.7-0.2 1.4 0.2 1.6 0.9s-0.2 1.4-0.9 1.6c-7.6 2.2-9.6 13.3-9.6 19.6 0 15.2 9.3 20.6 13.9 20.8h0.3 0.1c0.7 0 1.3 0.6 1.3 1.3s-0.6 1.3-1.3 1.3h-0.1c-1 0-2.2-0.2-3.5-0.6-5.7-2-13.3-8.5-13.3-22.8z"/>
						<path d="m355.2 147.7c-1.1 0.6-3.1 3.5-3.1 7.3 0 4.4 2.6 9 3.5 9.2 2 0 3.7-5.4 3.7-8.8 0-0.6 0-1.2-0.1-1.9-0.2-1.4-0.6-2.5-1.2-3.7-0.4-1-1.4-1.9-2.2-2.2h0.1c0.6-0.3 0.9-1 0.7-1.7-0.1-0.3-0.3-0.6-0.4-0.8 1.8 0.4 3.5 2.1 4.2 3.7 0.6 1.4 1.2 2.8 1.4 4.4 0.1 0.7 0.1 1.5 0.1 2.2 0 2.7-1.2 9.7-5 11.1 0-0.2 0.1-0.4 0.2-0.6 0.2-0.7-0.2-1.4-0.9-1.5-0.7-0.2-1.4 0.2-1.5 0.9-0.1 0.3-0.2 0.7-0.3 1.1-1.5-0.8-2.8-3-3.6-5.4 0.1-0.1 0.3-0.1 0.4-0.2 0.7-0.2 1-1 0.7-1.6-0.2-0.7-1-1-1.6-0.7-0.1 0-0.2 0.1-0.2 0.1-0.3-1.2-0.4-2.4-0.4-3.5 0-0.9 0.1-1.8 0.3-2.7 0.2 0.1 0.4 0.3 0.6 0.4s0.5 0.2 0.7 0.2c0.4 0 0.8-0.2 1.1-0.6 0.4-0.6 0.2-1.4-0.4-1.8-0.4-0.2-0.8-0.5-1.2-0.8 0.7-1.8 1.8-3.3 3-4.1 0.3 0.4 0.5 0.8 0.7 1.2 0 0.4 0.3 0.7 0.7 0.8z"/>
						<path d="m356.2 164.3c0.7 0.2 1.1 0.9 0.9 1.5 0 0.2-0.1 0.4-0.2 0.6-0.4 1.6-0.9 3.2-1.7 4.9-0.2 0.4-0.7 0.7-1.1 0.7-0.2 0-0.4 0-0.6-0.1-0.6-0.3-0.9-1.1-0.6-1.7 0.6-1.3 1.1-2.6 1.4-3.9 0.1-0.4 0.2-0.7 0.3-1.1 0.2-0.6 0.9-1 1.6-0.9z"/>
						<path d="m352.2 141.3c0.6-0.4 1.4-0.2 1.8 0.4 0.2 0.3 0.5 0.7 0.7 1 0.5 0.8 1.1 1.6 1.6 2.4 0.1 0.3 0.3 0.5 0.4 0.8 0.3 0.6 0 1.4-0.7 1.7h-0.1c-0.1 0.1-0.3 0.1-0.4 0.1h-0.3c-0.4-0.1-0.7-0.3-0.9-0.7s-0.4-0.8-0.7-1.2c-0.3-0.5-0.7-1-1.1-1.6-0.3-0.4-0.5-0.7-0.8-1.1-0.3-0.7-0.1-1.4 0.5-1.8z"/>
						<path d="m352.2 152.3c-0.2 0.4-0.6 0.6-1.1 0.6-0.2 0-0.5-0.1-0.7-0.2s-0.4-0.2-0.6-0.4c-0.9-0.6-2.1-1.2-3.2-1.4-0.7-0.1-1.2-0.7-1.1-1.4s0.8-1.2 1.4-1.1c1.3 0.2 2.5 0.8 3.6 1.4 0.4 0.3 0.9 0.5 1.2 0.8 0.7 0.3 0.9 1.1 0.5 1.7z"/>
						<path d="m351.9 159.1c0.2 0.7-0.1 1.4-0.7 1.6-0.1 0.1-0.3 0.1-0.4 0.2-0.6 0.3-1.2 0.5-1.8 0.8-0.8 0.4-1.6 0.8-2.5 1.1-0.1 0.1-0.3 0.1-0.4 0.1-0.5 0-1-0.3-1.2-0.8-0.2-0.7 0.1-1.4 0.7-1.6 0.8-0.3 1.5-0.7 2.2-1s1.4-0.7 2.2-1c0.1 0 0.2-0.1 0.2-0.1 0.7-0.3 1.5 0 1.7 0.7z"/>
						<path d="m357.7 153.2c-0.3 0.7-0.4 1.6-0.4 2.4v1 1.1c0 0.7-0.6 1.3-1.3 1.3s-1.3-0.6-1.3-1.3v-1-1c0-1 0.1-2.2 0.6-3.4 0.3-0.6 1-0.9 1.7-0.7s1 0.9 0.7 1.6z"/>
						<path d="m253.8 141.1c0.1 0.7-0.5 1.3-1.2 1.4h-0.1c-0.7 0-1.2-0.5-1.3-1.2 0-0.3-0.1-0.6-0.1-0.8-0.9-8.5-5.4-16.3-8.9-21.7-0.1-0.2-0.3-0.4-0.4-0.6-0.4-0.6-0.2-1.4 0.4-1.8s1.4-0.2 1.8 0.4c3.7 5.6 8.6 13.9 9.7 23 0 0.4 0.1 0.8 0.1 1.3z"/>
						<path d="m239.6 188c0.3-0.1 0.6-0.1 0.8-0.2 6.1-1.8 10.2-9.4 10.2-15.7v-0.1c0.1-0.7 0.6-1.2 1.3-1.2s1.3 0.6 1.3 1.3v0.8c-0.3 6.8-4.5 14.7-11.2 17.1-0.6 0.2-1.2 0.4-1.8 0.5h-0.3c-0.4 0-0.8-0.2-1-0.5l-0.1-0.1c-0.1-0.1-0.1-0.2-0.1-0.3-0.2-0.8 0.2-1.5 0.9-1.6z"/>
						<path d="m317.2 141.7v0.3c-0.1 0.7-0.6 1.2-1.3 1.2h-0.1c-0.7-0.1-1.2-0.7-1.2-1.4 0-0.5 0.1-1 0.2-1.5 1.8-12.7 12-22 19.8-28 0.1-0.1 0.2-0.2 0.3-0.2 0.6-0.4 1.4-0.3 1.8 0.2 0.4 0.6 0.3 1.4-0.2 1.8-7.8 5.9-18.1 15.2-19.3 27.6z"/>
						<path d="m314 172c0-0.3-0.1-0.6-0.1-0.9-0.1-0.7 0.5-1.3 1.2-1.4 0.6-0.1 1.1 0.3 1.3 0.8 0 0.1 0.1 0.2 0.1 0.3 1 10.8 11.9 20.4 23.3 20.6 0.1 0 0.2 0 0.3 0.1 0.5 0.2 0.9 0.7 0.9 1.2 0 0.7-0.6 1.3-1.3 1.3-0.6 0-1.2-0.1-1.8-0.1-11.6-1.2-22.3-10.9-23.9-21.9z"/>
						<path d="m311.8 225.4c-0.2 0.7 0.3 1.4 1 1.5 0.2 0 0.4 0.1 0.7 0.2-0.3 2.1-1.6 2.6-2.3 2.8h-0.1c-0.1 0.4-0.1 0.8-0.1 1.3 0 1.2 0 3.1-2.4 4-0.1 0.1-0.3 0.1-0.4 0.1-0.5 0-1-0.3-1.2-0.8-0.2-0.7 0.1-1.4 0.7-1.6 0.7-0.3 0.7-0.4 0.7-1.6 0-0.7 0-1.5 0.3-2.4 0.3-0.8 1.1-1.1 1.5-1.3 0.5-0.2 0.7-0.2 0.7-1.1 0-0.7-0.5-1.5-1.1-2.4s-1.2-1.9-1.4-3.1c-0.1-0.6 0.2-1.2 0.7-1.4 0.5-0.3 1.2-0.8 1.2-2.1s-0.5-2.7-1-3.5c-0.1-0.1-0.1-0.2-0.2-0.4-0.3-0.6-0.1-1.4 0.6-1.7 0.6-0.3 1.4-0.1 1.7 0.6 0.1 0.2 0.2 0.4 0.3 0.7 0.5 1.2 1.1 2.8 1.1 4.4s-0.6 2.9-1.6 3.8c0.2 0.5 0.5 1 0.8 1.4 0.4 0.6 0.7 1.2 1 1.8-0.5-0.2-1 0.2-1.2 0.8z"/>
						<path d="m276.5 215.1c0.6-0.4 1.4-0.2 1.8 0.4 0.2 0.3 0.2 0.7 0.1 1s-0.3 0.5-0.5 0.7c-0.7 0.4-1 1-1 2v1.7c-0.4 0.1-0.8 0.4-0.9 0.9-0.2 0.6 0.1 1.1 0.6 1.4-0.2 0.8-0.6 1.3-0.9 1.7-0.3 0.3-0.5 0.5-0.5 2.1 0 7.4 8.7 8.2 12.5 8.2 3.7 0 7.2-0.7 11-1.5 1.4-0.3 2.7-0.5 4.1-0.8 0.7-0.1 1.4 0.3 1.5 1s-0.3 1.4-1 1.5c-1.4 0.2-2.7 0.5-4 0.8-3.7 0.7-7.6 1.5-11.5 1.5-9.3 0-14.9-3.9-15-10.5 0.5-0.1 0.9-0.2 1.4-0.2 0.7-0.1 1.2-0.8 1.1-1.5s-0.8-1.2-1.5-1.1c-0.2 0-0.5 0.1-0.7 0.1 0.2-0.7 0.5-1.1 0.8-1.4 0.3-0.4 0.7-0.8 0.7-4 0-1.6 0.5-2.6 1.2-3.3 0-0.2 0.3-0.5 0.7-0.7z"/>
						<path d="m276.5 228.6c-0.7-0.2-1.1-0.9-0.9-1.6s0.9-1.1 1.6-0.9c4.4 1.2 9 1.8 13.6 1.8 5.7 0 11.3-0.9 16.7-2.6 0.7-0.2 1.4 0.2 1.6 0.8 0.2 0.7-0.2 1.4-0.8 1.6-5.6 1.8-11.5 2.7-17.5 2.7-4.9 0.1-9.7-0.5-14.3-1.8z"/>
						<path d="m277.5 220.9c2.8 0.8 5.9 1.2 9 1.2 5.4 0 11.1-1.2 17.4-3.6 0.7-0.2 1.4 0.1 1.6 0.7 0.2 0.7-0.1 1.4-0.7 1.6-6.6 2.5-12.6 3.7-18.3 3.7-3.4 0-6.6-0.5-9.7-1.3-0.1 0-0.2-0.1-0.3-0.1-0.5-0.3-0.7-0.9-0.6-1.4 0.1-0.4 0.5-0.8 0.9-0.9 0.2 0 0.5 0 0.7 0.1z"/>
						<path d="m298.5 94.3s2.2 0.1 2.8 0.2 0.6 1 0.6 1-0.8 1.5-0.8 1.5-2.4-0.3-3.2-0.2c-0.8-0.6 0.6-2.5 0.6-2.5z"/>
						<path d="m272.8 224.7s-0.4 1.6-0.2 2.8c0.1 1.3 1.1 0.8 1.3 0.7 0.1-0.1 1.3-1.9 1.3-1.9l0.1-1.7-0.4-0.5-2.1 0.6z"/>
						<path d="m313.1 224.4s0.6 1.2 0.4 2.7c-0.3 0.7-0.7 0.7-0.7 0.7-0.1 0-1-1.2-1-1.2s-0.6-1.8-0.6-1.9 0.4-0.5 0.4-0.5l1.5 0.2z"/>
				<path d="m310.2 230.5l4.9 1.4s0.1 1.7-0.5 1.8-1.4 0.9-1.6 1c-0.2 0-3.4-1.7-3.4-1.7l0.6-2.5z"/>
				<path d="m255.3 326.6s-6-4.8-6.8-8c-0.5 4.2 0.4 5.3 0.4 5.3s4.7 4.8 6 5.7c1.2 0.9 0.4-3 0.4-3z"/>
				<path d="m345.7 282.5s4.1 0 4.9-1.4c0.7 2.9 1 3.5 1 3.5s-4.6 0.5-6.3 0.2c-1.7-0.2 0.4-2.3 0.4-2.3z"/>
			<path d="m366.7 232.4h98.3c2.1 0 2.1-3.3 0-3.3h-98.3c-2.2 0-2.2 3.3 0 3.3z"/>
			<path d="m407.3 243.2h93.7c2.1 0 2.1-3.3 0-3.3h-93.7c-2.1 0-2.1 3.3 0 3.3z"/>
			<path d="m222.3 353.5h-101.4v3.3h2.3c2.1 0 2.1-3.3 0-3.3h-2.3c-2.1 0-2.1 3.3 0 3.3h101.4c2.2 0 2.2-3.3 0-3.3z"/>
			<path d="m174.7 332h-79.8c-2.1 0-2.1 3.3 0 3.3h79.8c2.2 0 2.2-3.3 0-3.3z"/>
			<path d="m220.8 196.1h-72.2c-2.1 0-2.1 3.3 0 3.3h72.2c2.1 0 2.1-3.3 0-3.3z"/>
			<path d="m195.5 186.1h-23.8c-2.1 0-2.1 3.3 0 3.3h23.8c2.1 0 2.1-3.3 0-3.3z"/>
			<path d="m174 175.4h-28.4c-2.1 0-2.1 3.3 0 3.3h28.4c2.1 0 2.1-3.3 0-3.3z"/>
			<path d="m349 373.7h29.9c2.1 0 2.1-3.3 0-3.3h-29.9c-2.1 0-2.1 3.3 0 3.3z"/>
			<path d="m367.4 363.7h18.4c2.1 0 2.1-3.3 0-3.3h-18.4c-2.1 0-2.1 3.3 0 3.3z"/>
</g>
</svg>
