<?xml version="1.0" encoding="UTF-8" standalone="no"?>
<!-- Generator: Adobe Illustrator 21.0.0, SVG Export Plug-In . SVG Version: 6.00 Build 0)  -->
<svg style="enable-background:new 0 0 559 520" xmlns="http://www.w3.org/2000/svg" xml:space="preserve" version="1.1" y="0px" x="0px" xmlns:xlink="http://www.w3.org/1999/xlink" viewBox="0 0 559 520">
<style type="text/css">
	.st0{fill:#CFEBF6;}
	.st1{opacity:0.4;}
	.st2{fill:#2FB2E6;}
	.st3{fill:#432918;}
	.st4{fill:#9EE4FF;}
	.st5{fill:#383D61;}
	.st6{fill:#FFFFFF;}
	.st7{opacity:0.4;fill:#2FB2E6;enable-background:new    ;}
	.st8{fill:#FDFEFE;}
	.st9{fill:#52BFEB;}
	.st10{fill:#45B0E6;}
	.st11{fill:#FBE03C;}
	.st12{fill-rule:evenodd;clip-rule:evenodd;}
</style>
<g id="Layer_1">
	<path class="st0" d="m96 257.9m96.8-106.5c-0.8 0.3-1.7 0.7-2.5 1-38.3 15.5-71.4 39.6-92.4 75.6-3.6 6.1-6.9 12.7-7.4 21.3-0.4 7 1.3 15.5 5.6 23.7 1.4 22.8 8.9 48.7 26.8 71.5 22 28 54.1 43.3 78.4 43.9 13.3 0.3 24.9-3 36.3-6.5 37.9-11.4 75.1-24 111.5-37.7 3.5-1.3 7.1-2.7 10.6-4.1 24.1-9.5 47.3-20.3 64.8-38.4 7.6-7.8 14-16.9 23.3-22.5 7.6-4.6 17-6.7 23.2-12.9 5.4-5.2 8.3-13.1 10-21.7 2-10.4 2.4-22.4-1.4-35.6s-12-27.8-23.3-38.3c-10.9-10.2-23.3-15.6-34.7-24.8-7.1-5.8-13.8-13.3-21.3-17.7-7.8-4.7-15.3-5.3-22.2-5.5-21.2-0.8-41.5 0.7-61.4 2.7-43.7 4.3-86.2 11.2-123.9 26"/>
		<g class="st1">
			<path class="st2" d="m204.6 311.8c-7.3-1.9-14.7-3.9-22-5.8l-8.1-2.1c-6.2-1.6-12.4-3.3-18.4-5.6-0.4-0.2-0.8-0.3-1-0.7-0.1-0.3-0.1-0.6 0-0.9 0.9-5.5 1.7-11.1 3.3-16.4 0.6-2.2 1.4-4.4 1.9-6.6 0.5-2.3 0.7-4.6 0.9-7 0.2-2.2 0.3-4.5 1.2-6.5 0.2-0.4 0.4-0.7 0.7-0.9 0.3-0.1 0.6-0.1 0.9-0.1 6.4 0.4 12.9 0.9 18.9 3.2 1.8 0.7 3.5 1.5 5.3 2.2 1.7 0.6 3.6 1.1 5.4 1.5 5.6 1.3 11.3 2.5 16.9 4 2.4 0.7 5.2 1.7 6 4.1 0.4 1.1 0.3 2.4 0.1 3.5-1.6 11.9-6.5 23.2-11.3 34.2"/>
		</g>
			<path class="st3" d="m185.3 317.6c-0.1-0.2-0.3-0.4-0.5-0.6l-0.1-0.1s-0.1-0.1-0.2-0.1c-0.8-0.5-2-0.6-2.7 0.1-0.3 0.4-0.7 0.6-0.8 1.1s0.3 0.9 0.6 1.1c0.8 0.6 2.1 1.1 3.1 0.8 0.6-0.2 1.2-0.6 1.1-1.3 0-0.4-0.2-0.7-0.5-1zm-0.8 1.7c-0.7 0.2-1.6-0.2-2.2-0.5-0.2-0.2-0.5-0.4-0.6-0.7s0.5-0.7 0.7-0.9c0.4-0.4 1.2-0.3 1.8 0v0.1c0.2 0.4 0.5 0.7 0.8 1 0.4 0.5 0 0.9-0.5 1z"/>
			<path class="st3" d="m218 273.5h-0.2c-0.2-0.4-0.3-1.1-0.7-1.4v-0.1c-0.3-0.2-0.5-0.4-0.7-0.6-2.2-0.6-4.4-1.2-6.6-1.7l-1.5-0.3c-1-0.4-2-0.7-3-1-0.8-0.3-1.5-0.4-2.3-0.4-0.7-0.3-1.4-0.6-2.1-0.8s-1.4-0.5-2.1-0.7c-0.6-0.2-1.4-0.4-2.1-0.4-0.3-0.1-0.6-0.2-0.9-0.4-2.3-0.9-4.6-1.4-6.9-2.1-0.9-0.3-1.8-0.5-2.7-0.8 0-0.1-0.1-0.1-0.1-0.2-0.1 0-0.2-0.1-0.2-0.1-0.1-0.1-0.3-0.1-0.4 0-3.3-1-6.7-2-10-3-2.1-0.6-4.3-1.3-6.4-1.8-2.2-0.5-4.3-1.1-6.5-1.5-0.3-0.1-0.4 0.3-0.2 0.4-0.1 0-0.2 0.1-0.3 0.2-0.2 0.3-0.6 0.6-0.9 0.7-0.3 0.2-0.1 0.5 0.2 0.5-0.8 2.9-0.9 5.9-1.5 8.8-0.6 3.4-1.5 6.7-2.1 10.1-0.9 5.1-2.4 10.1-3.9 15.1-0.1 0.1-0.1 0.2-0.1 0.3-0.1 0.2-0.1 0.4-0.2 0.6-0.1 0.1-0.2 0.3-0.4 0.4-0.1 0.1-0.1 0.4 0.1 0.4-0.4 1.3-0.8 2.6-1.1 4-1 1.2-3 1.7-4.4 2.2-1.8 0.6-3.6 1.4-5.4 2-4.1 1.3-8.3 2.7-12.3 4.3v-0.1c-0.1-0.1-0.3-0.2-0.5-0.2s-0.3 0-0.4 0.2c-0.3 0.8-0.9 1.8-0.6 2.7-0.1 0.1-0.1 0.2 0 0.3 0.2 0.1 0.3 0.2 0.5 0.3 0.3 0.1 0.4-0.1 0.4-0.4 1 0.4 2.1 0.6 3.1 0.9 1.2 0.3 2.4 0.7 3.6 1.1 2.4 0.7 4.9 1.5 7.3 2.3 4.8 1.6 9.5 3.6 14.5 4.7 10.2 2.4 20.3 5.3 30.5 8 0.1 0 0.3 0 0.3-0.1 0.9 0 2-0.6 2.8-1 1.4-0.7 2.7-1.6 4-2.5 2.7-2 5.4-4.2 8.5-5.6 0.1-0.1 0.2-0.1 0.2-0.2 0.2-0.2 0.3-0.5 0.4-0.9 0.2-0.6 0.2-1.2 0.3-1.8 0.1 0 0.2-0.1 0.3-0.1s0.2-0.1 0.2-0.2c0.1 0 0.3-0.1 0.4-0.2l0.1-0.1 0.3-0.2 0.3 0.1c0.2 0 0.3-0.1 0.2-0.2 0.1 0 0.2-0.1 0.3-0.2 0.1-0.2 0.1-0.4 0.2-0.7 0.4-0.7 0.5-1.4 0.6-2.2 3.3-11.9 6.8-23.8 9.9-35.8l0.2-0.6zm-7.3-1.6l1.8 0.3c0.5 0.2 1 0.5 1.4 0.7-1.2-0.2-2.4-0.6-3.6-1h-0.1c0-0.1-0.1-0.2-0.2-0.2 0.2 0.1 0.5 0.1 0.7 0.2zm-2.4-1.1c0.4 0.4 0.9 0.6 1.4 0.8-0.5-0.1-0.9-0.3-1.4-0.4-0.3-0.1-0.6-0.3-0.9-0.4-0.1-0.1-0.3-0.1-0.5-0.3 0.4 0.1 0.9 0.2 1.4 0.3zm-7-2.3h-0.1c-0.2 0-0.5-0.1-0.7-0.1v-0.1c0.2 0 0.5 0.1 0.8 0.2zm-4.8-1.8c0.3 0.1 0.6 0.2 0.9 0.3-0.3-0.1-0.7-0.2-1-0.2 0 0-0.1 0-0.1-0.1h0.2zm-1.3 1.1c0.1 0 0.1-0.1 0.1-0.1 0.2 0.1 0.3 0.2 0.5 0.2 0 0.1 0.1 0.1 0.2 0.1 0.5 0.1 1.1 0.3 1.6 0.4 0.2 0.1 0.3 0.2 0.5 0.3-1-0.3-1.9-0.5-2.9-0.9v0 0zm-1.2-0.5h0.3 0.1 0.2l-0.3 0.3c-0.1-0.1-0.3-0.2-0.3-0.3zm-5.2-3.1c-0.3 0-0.7 0.1-0.9 0.3-0.1 0.1-0.2 0.3-0.2 0.5 0 0.1-0.1 0.1-0.1 0.2-0.1 0.3 0.2 0.4 0.4 0.4l0.2 0.2c0.5 0.4 1.2 0.1 1.6-0.3 0.1-0.1 0.1-0.2 0-0.3-0.1-0.2-0.2-0.4-0.4-0.5 0-0.2-0.1-0.3-0.2-0.4 1.2 0.4 2.5 0.7 3.7 1.1-0.2 0.6-0.3 1.2-0.5 1.8-0.5-0.2-1.1-0.3-1.6-0.5-1.8-0.5-3.6-1.1-5.5-1.6 0-0.2 0.1-0.4 0.1-0.5 0.1-0.4 0.2-0.9 0.3-1.4 1.2 0.4 2.2 0.7 3.1 1zm-3.5-1c-0.1 0.1-0.2 0.1-0.3 0.2v-0.3c0.1 0 0.2 0 0.3 0.1zm-1.4 1.6c0.2 0 0.3 0 0.4-0.1 0.1 0.1 0.2 0.1 0.3 0.1s0.1 0 0.2-0.1c0 0.1-0.1 0.2-0.1 0.3-0.2-0.1-0.4-0.1-0.5-0.2h-0.3zm-0.5-1.1c0.2-0.1 0.3-0.2 0.4-0.4 0 0 0 0.1 0.1 0.1 0 0.2-0.1 0.4-0.2 0.5 0 0 0 0.1-0.1 0.1s-0.2 0-0.3 0c0-0.1 0-0.1 0.1-0.3-0.1 0.1-0.1 0.1 0 0-0.1 0.1 0 0.1 0 0zm-3.6-0.1c-0.6-0.1-1.1-0.3-1.6-0.5 0.5 0.1 1.1 0.3 1.6 0.5zm-6.2-2.6c0.4 0.1 0.7 0.2 1.1 0.3h-0.3s-0.1 0-0.1-0.1c-0.7-0.3-1.6-0.5-2.4-0.6-0.5-0.2-1.1-0.4-1.6-0.7 1 0.5 2.1 0.8 3.3 1.1zm-4.6-2.4c-0.2 0-0.4 0-0.5-0.1v-0.1c0.2 0 0.3 0.1 0.5 0.2zm-0.6 0.9c-1-0.1-2.1-0.4-3.1-0.7 1.1 0.2 2.1 0.4 3.1 0.7zm-3.8 0.4c1.7 0.6 3.5 1 5.3 1.3 2.7 0.8 5.3 2 8 2.7h0.2c1.9 0.7 4 1.2 6 1.7 0.2 0.1 0.4 0.1 0.6 0.2 0 0.1 0 0.1 0.1 0.2s0.2 0.1 0.3 0.1 0.1-0.1 0.1-0.1c2 0.6 4 1.1 6 1.7 2.3 0.7 4.7 1.4 7 2l5.4 1.5c0.1 0 0.2 0.1 0.2 0.1l0.1 0.1 0.1 0.1c0.1 0.1 0.2 0.2 0.3 0.2 0.2 0.2 0.4 0 0.5-0.2 0.1 0 0.2 0 0.2 0.1 2.1 0.7 4.1 1.5 6.2 2 0.6 0.2 1.5 0.5 2.3 0.5l0.1 0.1c0.2 0 0.3 0.1 0.4 0.1-0.9 2.7-1.1 5.6-1.8 8.4-0.9 3.4-1.8 6.7-2.7 10.1s-1.8 6.7-2.7 10.1l-1.2 4.5c-0.2 0.8-0.5 1.6-1 2.3-0.1 0.2-0.3 0.4-0.4 0.5-0.1 0-0.2 0.1-0.2 0.1 0.1-0.1-0.2-0.1-0.4-0.1-0.3-0.1-0.6-0.2-0.9-0.3-0.7-0.2-1.3-0.4-2-0.7-1.9-0.6-3.7-1.3-5.6-1.9-2.3-0.8-4.8-1.3-7.1-1.9-2.5-0.7-5-1.3-7.5-2-4.4-1.2-8.6-3.3-13.1-4.3-1.2-0.3-2.5-0.5-3.7-0.7-0.6-0.2-1.2-0.4-1.7-0.6-1.6-0.5-3.1-1.1-4.8-1.5-0.2-0.2-0.5-0.3-0.7-0.5h-0.1c1.1-2.6 1.3-5.6 1.8-8.4 0.6-3.5 2.1-6.8 2.4-10.3 0.2-1.8 0.3-3.5 0.7-5.3 0.4-2.1 1-4.1 1.6-6.2 0.3-1.2 0.5-2.5 0.8-3.8 0.1-0.3 0.5-1.1 0.4-1.6v-0.1c0.3-0.1 0.4-0.2 0.5-0.2zm38.4 52.3c-0.5 0-1-0.1-1.4-0.2 0.4 0.1 0.7 0.1 1.1 0.1 0.1 0 0.2 0.1 0.3 0.1zm-7.4-3.2c0.3 0 0.6 0.1 0.8 0.2s0.4 0.1 0.6 0.2h-0.6c-0.2-0.2-0.5-0.3-0.8-0.4zm-0.2 1.4c-0.9-0.3-1.8-0.7-2.7-1l0.1-0.1c0.6 0.2 1.2 0.3 1.8 0.5 0.3 0.2 0.6 0.4 0.8 0.6zm-6-3.9l-0.1 0.1c-0.3-0.1-0.7-0.2-1-0.3 0.4 0 0.8 0 1.1 0.2zm-2.1-0.5c-1.8-0.5-3.6-1.1-5.4-1.7l5.7 1.5h-0.1l-0.2 0.2zm-0.3 1.4c-0.3-0.1-0.5-0.1-0.8-0.2v-0.2c0.2 0.1 0.5 0.2 0.8 0.4zm-21.5-7.9c0.5 0 1 0.3 1.5 0.4 0.3 0.1 0.6 0.1 0.9 0.2v0.2h-0.2c-0.7-0.4-1.6-0.5-2.2-0.8zm1.2 2.1c-0.4-0.2-0.7-0.3-1.1-0.5h0.6c0 0.1 0.1 0.1 0.2 0.2l0.3 0.3zm0.5 0c2 0.7 3.9 1.6 6 1.9l1.2 0.6c-2.1-0.7-4.2-1.4-6.3-2.1-0.3-0.1-0.7-0.2-1-0.3l0.1-0.1zm4.6-0.7c1.4 0.5 2.8 1 4.2 1.5h-0.3s-0.1 0-0.2 0c-1.1-0.4-2.3-0.7-3.4-1.3 0 0-0.2-0.1-0.3-0.2zm2.7 1.8c0.4 0.1 0.8 0.3 1.2 0.4l0.3 0.3c-0.3-0.1-0.6-0.2-1-0.4-0.2-0.1-0.4-0.2-0.5-0.3zm-14-2.9l-1.8-0.6s0.1 0 0.1-0.1c0.5 0.3 1.1 0.5 1.7 0.7zm-1.2-25.7c0 0.1 0 0.1 0.1 0.1-0.2 0.5-0.4 1-0.5 1.5 0.2-0.9 0.3-1.7 0.5-2.6h0.1c-0.1 0.4-0.2 0.7-0.2 1zm3.1-10.3c0.3-0.5 0.5-1 0.6-1.5 0.2-0.4 0.3-0.9 0.4-1.3 0-0.3-0.3-0.4-0.5-0.3l-0.1 0.1c0-0.1 0.1-0.2 0.1-0.2l0.3-0.3c0 0.2 0.1 0.4 0.3 0.4-0.3 1.3-0.6 2.7-0.9 4-0.3 0.1-0.6 0.3-0.9 0.5 0.1-0.3 0.4-0.5 0.7-0.7 0.3-0.4 0.2-0.6 0-0.7zm-3.4 12.4c0 0.1 0 0.2 0.1 0.2-0.2 0.2-0.4 0.4-0.5 0.6 0.1-0.4 0.2-0.8 0.2-1.1 0 0.1 0.1 0.2 0.2 0.3zm-0.3 2c-0.1 0.3-0.3 0.6-0.4 0.9v0.1s0 0.2 0.1 0.3c-0.3 0.4-0.5 0.8-0.5 1.3 0 0.1 0.1 0.3 0.2 0.3-0.2 0.2-0.3 0.4-0.5 0.5 0.3-1.1 0.5-2.1 0.7-3.2 0-0.1 0-0.2 0.1-0.3 0 0.1 0.1 0.2 0.3 0.1zm1.2 0.3c0 0.2-0.1 0.4-0.1 0.6-0.1 0-0.1 0-0.2 0.1-0.3 0.4-0.7 0.7-1.1 1 0.4-0.7 1-1.2 1.4-1.7zm-0.2-0.7c0.2-0.2 0.3-0.4 0.4-0.7 0 0.2-0.1 0.4-0.1 0.7h-0.3c0.1 0 0.1 0 0 0zm-3.1 16.2c-0.1 0.3-0.2 0.6-0.3 1 0-0.2-0.2-0.3-0.4-0.2s-0.4 0.2-0.6 0.3c0.4-0.4 0.9-0.7 1.3-1.1zm-0.1-0.7c0.1-0.1 0.2-0.2 0.2-0.4 0 0 0.1 0 0.1-0.1h0.1c0 0.2-0.1 0.3-0.1 0.5-0.1-0.1-0.2-0.1-0.3 0v0zm0.3-2.5c0 0.1 0 0.1-0.1 0.2h-0.2c0.2-0.2 0.4-0.5 0.5-0.8 0.1-0.1-0.1-0.3-0.2-0.4h-0.2c0.2-0.1 0.4-0.3 0.6-0.5l0.1-0.1c0.3-0.3-0.1-0.6-0.4-0.4-0.2 0.1-0.3 0.2-0.5 0.3 0.3-0.3 0.7-0.6 1.1-0.8 0 0.8-0.5 2.1-0.7 2.5zm0.9-6.2c0.2-0.1 0.5-0.2 0.7-0.4-0.1 0.3-0.2 0.6-0.2 0.9-0.1-0.1-0.3-0.2-0.4-0.1-0.4 0.3-1.1 0.6-1.4 1.1 0.1-0.2 0.1-0.5 0.2-0.7s0.3-0.4 0.4-0.5c0.1 0 0.2 0 0.2-0.1 0.2-0.1 0.3-0.2 0.5-0.2zm-0.2-0.5c0.3-0.4 0.8-0.8 1.3-1.1-0.1 0.3-0.2 0.6-0.2 0.9 0-0.1-0.1-0.2-0.2-0.1-0.3 0-0.6 0.1-0.9 0.3zm-1.7 8.1c-0.1 0.2-0.1 0.4-0.2 0.5-0.4 0.2-0.8 0.4-1.1 0.6h-0.2c0-0.1 0-0.2 0.1-0.3 0.4-0.3 0.9-0.6 1.4-0.8zm-1-0.7c0.1-0.2 0.1-0.5 0.2-0.7 0.4-0.1 0.8-0.3 1.1-0.3-0.2 0.4-0.7 0.7-1.3 1zm1.5-3.3c0.3-0.2 0.6-0.4 0.9-0.5-0.1 0-0.1 0.1-0.1 0.1-0.3 0.2-0.5 0.3-0.8 0.4zm1.5-1.4c-0.4-0.1-0.8 0-1.2 0.1 0.1-0.5 1.1-1.1 1.5-1.4-0.1 0.3-0.1 0.6-0.2 0.9 0 0.2 0 0.3-0.1 0.4zm1.2-4.5h-0.1c-0.3 0.2-0.6 0.3-0.9 0.4 0.3-0.5 0.8-1 1.3-1.4-0.1 0.3-0.2 0.6-0.3 1zm0.7-5.8c-0.1 0.4-0.4 0.6-0.7 0.8 0.2-0.2 0.5-0.5 0.7-0.8zm-2.2 6.9c-0.3 0.3-0.6 0.7-0.6 1.2l-0.1 0.1c0.2-0.7 0.4-1.4 0.5-2.1h0.1c-0.1 0.2-0.2 0.3-0.2 0.5-0.1 0.2 0.1 0.4 0.3 0.3zm-3.9 12.7c0.2 0 0.3-0.1 0.5-0.1-0.2 0.1-0.4 0.3-0.6 0.4 0-0.1 0-0.2 0.1-0.3zm0.7-1.8c0.1-0.2 0.3-0.3 0.5-0.5 0.2-0.1 0.4-0.2 0.7-0.3v0.2c-0.5 0.3-0.8 0.4-1.2 0.6zm1.8 0.9c-0.1 0.1-0.1 0.3-0.2 0.4-0.6 0.2-1.1 0.5-1.6 0.7 0.6-0.4 1.3-0.6 1.8-1.1zm-1.1 2.6c0.3 0.2 0.7 0.3 1.1 0.4h0.1c-0.7-0.1-1.4-0.3-1.8-0.5 0.2 0.1 0.4 0.1 0.6 0.1zm5.2-21.6v0.2c-0.1-0.1-0.2-0.1-0.3 0 0.1-0.1 0.2-0.3 0.3-0.4 0.2-0.2 0-0.4-0.2-0.5 0 0 0-0.1 0.1-0.1 0.2-0.3-0.1-0.6-0.4-0.5 0.1-0.2 0.1-0.4 0.2-0.5 0.1 0 0.2-0.1 0.2-0.1 0.1-0.2 0.3-0.3 0.4-0.5l-0.3 2.4zm0.4-5c-0.3 0.3-0.5 0.6-0.8 0.9 0.3-0.5 0.7-0.9 1.2-1.4 0.3-0.3-0.1-0.6-0.4-0.4l-0.1 0.1c0-0.2 0.1-0.4 0.1-0.5 0.4-0.2 0.5-0.5 0.6-0.9 0-0.1 0-0.3-0.2-0.3 0.3-0.5 0.5-0.9 0.6-1.5 0.2-0.2 0.3-0.4 0.4-0.6-0.4 1.5-0.8 3.1-1.2 4.6 0.1-0.1-0.1-0.1-0.2 0zm2.9-14.1h0.1s0 0.1 0.1 0.1l0.1 0.1c0 0.1 0 0.2 0.2 0.3h0.2l0.3 0.3c-0.2 0.1-0.4 0.1-0.6 0.2 0-0.2 0-0.3-0.1-0.4h-0.1v-0.2c0.1-0.4-0.4-0.6-0.5-0.3l-0.2-0.2c0.2 0.1 0.4 0.1 0.5 0.1zm-2 4.8h0.3c-0.2 0.3-0.4 0.7-0.5 1.1 0-0.4 0.1-0.7 0.2-1.1zm-1.1 6.2c0.2-1 0.3-2 0.5-3.1h0.3v0.6c-0.2 0.4-0.4 0.8-0.4 1.3-0.2 0.4-0.4 0.8-0.4 1.2v0zm-0.2 1.1v0.3c-0.2 0.5-0.3 1.2-0.4 1.7 0 0 0 0.1-0.1 0.1 0.2-0.7 0.3-1.4 0.5-2.1zm-22 41.6h0.3c0.6 0.2 1.1 0.3 1.7 0.5 0.1 0.1 0.2 0.2 0.3 0.2-0.8-0.2-1.6-0.5-2.3-0.7zm5.8 0.8c-0.6-0.2-1.2-0.3-1.8-0.5 0.1-0.1 0.1-0.1 0.1-0.2 0.6 0.2 1.2 0.4 1.7 0.7zm1.5-0.1c0.6 0.2 1.1 0.4 1.7 0.6l-1.2-0.3c-0.1 0-0.3-0.2-0.5-0.3zm1 2c0.4 0.1 0.7 0.1 1.1 0.2l0.6 0.3s0.4 0.3 0.6 0.4c-0.8-0.3-1.6-0.6-2.3-0.9zm1.2-0.6c0.4 0.1 0.8 0.2 1.1 0.3-0.2 0-0.5-0.1-0.7-0.1-0.1 0-0.2-0.1-0.4-0.2zm1.5 1.6c0.7 0.2 1.4 0.4 2.1 0.6 0.1 0 0.3 0.1 0.4 0.1 0 0.1 0.1 0.2 0.1 0.2-0.8-0.2-1.7-0.6-2.6-0.9zm3.2-0.6c0.4 0.1 0.7 0.2 1.1 0.3h-0.6c-0.1-0.1-0.3-0.2-0.5-0.3zm2.2 2.4c-0.3-0.1-0.7-0.2-1-0.3s-0.5-0.3-0.8-0.5c0.9 0.3 1.7 0.6 2.6 0.9-0.2 0.1-0.5 0-0.8-0.1zm4.8 1.3c0.5 0.1 1 0.2 1.5 0.4-0.5-0.2-1-0.3-1.5-0.4zm1.3-1.4c-0.3-0.1-0.5-0.2-0.7-0.4 0.5 0.1 0.9 0.2 1.4 0.3 0 0.1 0 0.1 0.1 0.2-0.3 0-0.6-0.1-0.8-0.1zm-2.4-1.6c-1.9-0.4-3.8-0.9-5.6-1.4-1.2-0.3-2.4-0.7-3.6-1.1 0 0 0.1 0 0.2 0.1 0.1 0 0.2 0 0.3-0.1 0.9-1.1 2.5-2.2 3.9-2.5 0.2 0 0.2-0.2 0.2-0.3 2 0.6 4.1 1.1 6.1 1.8l3 1.2c0.9 0.3 1.9 0.4 2.9 0.5 1.7 0.2 3.2 0.6 4.9 1.1 0.6 0.2 1.3 0.5 1.9 0.7 0.1 0 0.1 0 0.2 0.1-0.9 1-2.5 1.6-3.6 2.2-0.2 0.1-0.2 0.2-0.2 0.4-1.5-0.4-3.1-0.8-4.7-1.1-1.9-0.9-3.8-1.6-5.9-1.6zm9.8 4.5c0-0.1 0-0.1-0.1-0.2 0.2 0 0.3 0 0.5-0.1 0 0 0.1 0 0.1-0.1 0.5 0.2 0.9 0.4 1.4 0.6-0.6 0-1.2-0.1-1.9-0.2zm1.9 1c0.6 0.1 1.1 0.2 1.7 0.3-0.6 0-1.2-0.2-1.7-0.3zm15.6 3.8c-0.1 0-0.3-0.1-0.4-0.1 0-0.2 0-0.4-0.2-0.4 0.3 0.1 0.6 0.1 0.9 0.2l0.3 0.3h-0.6zm-1.6-2.2c0.6 0.1 1.1 0.3 1.7 0.5-0.6-0.2-1.2-0.3-1.7-0.5zm2.9 3.1c0.1 0 0.2-0.1 0.2-0.2s0.1-0.2 0.1-0.3c0.1 0.1 0.2 0.1 0.3 0.1 0 0.1-0.1 0.2-0.1 0.2 0 0.1 0 0.2 0.1 0.3-0.2 0.1-0.4 0-0.6-0.1zm1.5-1.4v0s0-0.2-0.1-0.3v-0.2h0.1v0.1h0.5v0.2c-0.3 0-0.5 0.1-0.5 0.2zm2.5 0.8c-0.1 0.1-0.2 0.1-0.3 0.2 0.2-0.2 0.3-0.4 0.5-0.7v0.3c-0.1 0.1-0.2 0.1-0.2 0.2zm3.2-2.3c0 0.1-0.1 0.1-0.1 0.2l-0.4 0.4c-0.4 0.3-0.7 0.5-1.1 0.7 0-0.1 0-0.1 0.1-0.2l1.2-0.9c0.1-0.1 0.2-0.2 0.3-0.2v0 0zm2.3-0.7c-0.5 0.4-1 0.7-1.5 1.1 0.2-0.2 0.4-0.4 0.5-0.6 0.5-0.3 1-0.6 1.6-0.9-0.2 0.1-0.4 0.2-0.6 0.4zm7.5-6.3c-0.1-0.1-0.3-0.1-0.4 0v-0.1l0.6-0.3c-0.1 0.2-0.2 0.3-0.2 0.4zm-4.5 1.5c-2 1.3-4 2.5-6 3.6-1.1 0.6-2.2 1.3-3.2 2.1-0.2-0.2-0.5-0.1-0.6 0.1v0.1c-0.1 0-0.1 0-0.2-0.1-0.2 0-0.4 0.1-0.4 0.2-0.3-0.1-0.6-0.2-0.9-0.3-0.2-0.2-0.4-0.4-0.8-0.4-0.1 0-0.2 0-0.3 0.1-1.3-0.4-2.6-0.8-3.9-1.1-1.5-0.6-3.1-0.8-4.7-1.1l-1.2-0.3c-1.1-0.9-2.7-1-4.2-1.1-0.3 0-0.6-0.1-0.9-0.1-0.9-0.2-1.8-0.4-2.7-0.7 1.3-0.7 2.9-1.3 3.8-2.5h0.3c0.2 0 0.3-0.3 0.1-0.4-0.3-0.3-0.8-0.4-1.1-0.5-0.6-0.2-1.3-0.5-1.9-0.7-1.5-0.5-2.9-0.9-4.5-1.1-1.2-0.1-2.3-0.3-3.4-0.6-1-0.3-2-0.8-3-1.1-2.1-0.7-4.4-1.4-6.6-1.9-0.3-0.1-0.5 0.4-0.2 0.5-1.4 0.4-2.9 1.4-3.8 2.6h-0.2c-0.2 0-0.3 0.1-0.3 0.3v0.2c-1.1-0.4-2.2-0.8-3.3-1.2-3.2-1.2-6.5-2.1-9.8-2.9-0.1-0.1-0.3-0.2-0.4-0.3-0.3-0.2-1-0.5-1.3-0.2-0.9-0.2-1.9-0.5-2.8-0.7 4.1-1.6 8.2-2.9 12.3-4.3 1.8-0.6 3.6-1.4 5.5-2 1.2-0.4 2.6-0.9 3.6-1.8 0.2 0.1 0.4 0 0.4-0.2v-0.1c2.5 0.7 5 1.5 7.5 2.3 2.4 0.7 4.8 1.4 7.2 2.1 0.3 0.2 0.7 0.3 1.1 0.4 0.6 0.2 1.2 0.4 1.8 0.5 1.6 0.6 3.3 1.1 4.9 1.6 1.8 0.5 3.6 0.8 5.3 1.2 1.1 0.5 2.4 0.9 3.6 1.2 0.8 0.3 1.5 0.7 2.3 1 1.2 0.4 2.5 0.6 3.8 0.8 1.4 0.3 2.6 0.8 3.9 1.3s2.6 0.9 4 1.3 2.9 0.8 4.3 1.1c0.4 0.1 1 0.3 1.7 0.5-1.6 0.6-3.2 1.6-4.8 2.6zm5.6-3.4c-0.2-0.1-0.5-0.1-0.7-0.2 0.2 0 0.3-0.1 0.5-0.1h0.1v0.1l0.1 0.2v0zm7.3-27.2c-0.4 1.7-0.8 3.4-1.3 5 0.4-1.7 0.8-3.4 1.3-5zm-6.9 26.1c0-0.2 0.1-0.4 0.2-0.5 0 0.1-0.1 0.3-0.1 0.4l-0.1 0.1zm9.4-40c-0.9-0.3-1.7-0.6-2.6-0.9 1.4 0.4 2.8 0.7 4.2 1.1h0.1v0.3c-0.6-0.2-1.1-0.4-1.7-0.5zm-0.7 8.8c0.2-0.8 0.5-1.6 0.8-2.4v0.1l-0.3 1.5c-0.2 0.2-0.4 0.5-0.5 0.8zm-1 4.6c0-0.1 0.1-0.2 0.1-0.3-0.1 0.3-0.1 0.7-0.2 1s-0.2 0.7-0.3 1c0.2-0.6 0.3-1.2 0.4-1.7zm-1.3 6c0-0.1 0-0.2 0.1-0.3v-0.2c0.1-0.4 0.3-0.9 0.4-1.3l0.1 0.1c-0.2 0.6-0.4 1.2-0.6 1.7zm4.7-16.1c0.1-0.1 0.1-0.2 0.2-0.3l0.1-0.1c-0.1 0.6-0.5 1.2-0.7 1.8 0-0.5 0.2-1 0.4-1.4zm-7.7 28.7c0.1-0.4 0.2-0.8 0.2-1.2h0.1l-0.3 1.2zm2.7-9.7v0c-0.1-0.2-0.1-0.3-0.2-0.3 0-0.1 0.1-0.3 0.1-0.4 0.3-0.4 0.5-0.9 0.7-1.3-0.2 0.7-0.4 1.3-0.6 2zm2.2-7.5c0-0.2 0.1-0.3 0.1-0.5 0.3-1.1 0.6-2.2 1-3.2-0.4 1.2-0.8 2.5-1.1 3.7zm2.3-8.3c0-0.2-0.3-0.3-0.5-0.2 0-0.2 0.1-0.3 0.1-0.5 0.1 0.2 0.3 0.2 0.5 0.1l0.1-0.1c-0.1 0.2-0.1 0.5-0.2 0.7z"/>
			<path class="st3" d="m197.6 313.2c-3.9-1.1-7.8-2.3-11.7-3.5-4-1.3-8-2.4-12-3.6-1.7-0.5-3.3-1.3-5-1.7-2-0.5-3.9-1-5.9-1.6-1.8-0.5-3.5-1.3-5.2-1.8-1.5-0.4-3-0.6-4.6-0.8v-0.1c0.1-0.3-0.4-0.4-0.5-0.1-0.1 0-0.1 0.1-0.2 0.1-0.2 0-0.4 0.1-0.3 0.3-1.8 0.8-3.7 1.5-5.5 2.3-0.2 0-0.4-0.1-0.6-0.1s-0.3 0.2-0.2 0.4c-0.8 0.2-1.8 0.5-2.1 1.3-0.1 0.2 0 0.4 0.2 0.4h0.2s0.1 0 0.1 0.1c3.9 1.2 8 2 11.8 3.3s7.4 2.9 11.4 3.6c1.8 0.3 3.6 0.6 5.3 1.2s3.4 1.3 5.2 1.7c1.9 0.5 3.7 1 5.6 1.5 1.7 0.5 3.3 1.2 4.9 1.7h0.1c0.1 0 0.2 0.1 0.3 0.1s0.1 0 0.2 0h0.3c0.3 0.1 0.4-0.4 0.1-0.5 0 0-0.1 0-0.1-0.1 1.1-0.6 2.4-0.9 3.6-1.2 1.6-0.5 2.9-1.6 4.6-1.8 0.3 0 0.3-0.3 0.2-0.5 0.1-0.2 0.1-0.5-0.2-0.6zm-11.6-2.8c1.8 0.6 3.6 1.2 5.4 1.7-0.1 0.1-0.3 0.2-0.4 0.3-1.9-0.5-3.7-1.2-5.6-1.8 0.2-0.1 0.4-0.2 0.6-0.2zm4.1 2.5c-0.7 0.3-1.4 0.5-2.2 0.7-1.5-0.5-3-1.2-4.6-1.7-0.2-0.1-0.3-0.1-0.5-0.1 0.5-0.3 1.1-0.6 1.6-0.8 1.9 0.6 3.8 1.3 5.7 1.9zm-11.2-4.7l6 1.8c-0.2 0.1-0.3 0.1-0.4 0.2-0.2-0.1-0.4-0.1-0.6-0.2-1.7-0.6-3.4-1.1-5-1.8-0.1 0.1 0 0.1 0 0zm4.4 2.3c0.1 0 0.2 0.1 0.3 0.1-0.6 0.3-1.1 0.6-1.6 0.9-1.8-0.6-3.7-1.1-5.6-1.6 0.6-0.4 1.1-0.7 1.7-1.1 1.7 0.5 3.5 1.1 5.2 1.7zm-25.1-5.4c0.6-0.2 1.3-0.7 1.9-1.1 0.1 0 0.1 0.1 0.2 0.1 0.5 0.2 1.1 0.6 1.7 0.7 0.9 0.1 1.8 0.2 2.8 0.4-0.8 0.4-1.6 0.7-2.4 1.1-0.2 0.1-0.3 0.2-0.5 0.2-1.2-0.3-2.3-0.7-3.4-1.1-0.3-0.1-0.5-0.2-0.8-0.2 0.3 0 0.4-0.1 0.5-0.1zm-0.2-0.6c-0.4 0.2-0.8 0.3-1.2 0.4-1.4-0.4-2.7-0.8-4.1-1.1 0.6-0.3 1.2-0.7 1.9-0.9 0.4 0.1 0.8 0.2 1.3 0.3 0.7 0.2 1.4 0.2 2.1 0.2 0.5 0 1 0.2 1.5 0.4-0.6 0.2-1 0.5-1.5 0.7zm8 1c1.4 0.3 2.8 0.7 4.2 1.1-0.7 0.3-1.5 0.8-2.1 1.1-0.1 0-0.2 0.1-0.2 0.1-0.9-0.1-1.7-0.3-2.6-0.4-0.8-0.1-1.6-0.3-2.3-0.5 1-0.5 2-1 3-1.4zm5.2 1.3c0.1 0 0.1 0 0.2 0.1 2 0.5 3.9 1.1 5.8 1.6-0.6 0.4-1.1 0.7-1.7 1.1-1.5-0.4-2.9-0.8-4.4-1.2-0.7-0.2-1.5-0.3-2.2-0.5 0.7-0.4 1.5-0.8 2.3-1.1zm2.8 0c1.2 0.4 2.4 0.7 3.6 1.1v0.1c-1.8-0.5-3.6-1.1-5.4-1.5v-0.3l1.8 0.6zm-6.4-2.1l1 0.3c1.1 0.3 2.1 0.7 3.1 1.1-0.2 0-0.4 0.1-0.6 0.2-1.4-0.4-2.8-0.8-4.3-1.1 0.3-0.3 0.6-0.4 0.8-0.5zm-5.2-1.5c0.2 0.1 0.5 0.1 0.7 0.2 1.2 0.3 2.4 0.6 3.6 1-0.3 0.1-0.5 0.3-0.8 0.4-1.6-0.4-3.4-0.4-4.9-1.1 0.4-0.1 0.7-0.2 1.1-0.1 0.1 0 0.2-0.2 0.3-0.4zm-4.5-1.3c0.1 0 0.2-0.1 0.2-0.2 1.1 0.3 2.2 0.8 3.3 1.2-0.4 0.1-0.9 0.2-1.3 0.4-1.2-0.4-2.3-0.6-3.6-0.7-0.3 0-0.6-0.1-0.9-0.2 0.7-0.2 1.5-0.2 2.3-0.5zm-5-1.2c1.2 0.3 2.6 0.4 3.9 0.7-0.8 0.1-1.6 0.4-2.4 0.8-1-0.3-2-0.7-3-0.8 0.5-0.3 1-0.5 1.5-0.7zm-2.3 0.9c0.9 0.4 1.9 0.7 2.9 1l-0.6 0.3-1.2 0.6c-1.3-0.3-2.6-0.6-3.9-0.8 1-0.3 1.9-0.7 2.8-1.1zm-6.1 2.4c0.4-0.3 1.2-0.5 1.6-0.6 0.2-0.1 0.5-0.2 0.7-0.3 0.7 0.2 1.5 0.3 2.2 0.4 0.6 0.1 1.3 0.2 1.9 0.4-1.1 0.5-2.3 0.9-3.4 0.8-1-0.2-2-0.4-3-0.7zm9.7 2.6c-1.3-0.4-2.6-0.7-3.9-1.1l-1.2-0.3c0.1 0 0.2-0.1 0.4-0.1 0.8-0.2 1.7-0.5 2.5-0.9 0.1 0 0.3 0.1 0.4 0.1 1.2 0.3 2.3 0.6 3.5 1-0.6 0.3-1.2 0.6-1.5 1.1-0.2 0.1-0.2 0.2-0.2 0.2zm4.9 1.4c-0.1 0-0.2 0.1-0.3 0.2-0.9-0.3-1.9-0.7-2.8-1-0.4-0.1-0.8-0.3-1.2-0.4 0.5-0.6 1.2-0.9 2-1.2 0.6 0.2 1.3 0.4 1.9 0.6 0.8 0.3 1.7 0.5 2.5 0.8-0.2 0.1-0.5 0.3-0.7 0.4-0.5 0.3-0.8 0.6-1.4 0.6zm5.4 2l-0.1 0.1c-1.6-0.5-3.2-1-4.7-1.6 0.1 0 0.3-0.1 0.4-0.2 0.6-0.4 1.3-0.8 1.9-1.1 0.9 0.3 1.8 0.5 2.8 0.7l2.1 0.3c-0.8 0.5-1.7 1.1-2.4 1.8zm6.9 1.3c-0.2 0-0.2 0.1-0.2 0.2-1.1-0.3-2.2-0.5-3.4-0.7l-2.7-0.6c0.8-0.8 2-1.3 2.9-1.8 1.2 0.2 2.3 0.5 3.5 0.8 1 0.3 2.1 0.6 3.1 0.9-0.9 0.6-2.1 1.3-3.2 1.2zm6.3 2.3c-1.6-0.4-3.1-0.9-4.7-1.5-0.3-0.1-0.5-0.2-0.8-0.3 1-0.1 2.1-0.8 2.9-1.2 0.1-0.1 0.3-0.2 0.4-0.2 0.7 0.2 1.4 0.4 2.2 0.6 1.1 0.3 2.3 0.6 3.4 0.9-0.8 0.4-1.5 0.7-2.4 0.8-0.5 0.1-0.9 0.4-1 0.9zm6.1 1.7c-1.8-0.5-3.7-1-5.5-1.5 0.3-0.7 1.2-0.4 1.8-0.6 0.6-0.3 1.3-0.6 1.9-0.9 0.1 0 0.1-0.1 0.2-0.1 0.6 0.2 1.1 0.3 1.7 0.5 1 0.3 2 0.8 3 1.2-0.4 0.1-0.9 0.3-1.3 0.4-0.6 0.2-1 0.7-1.5 1h-0.3zm4.7 1.7c-1.3-0.4-2.6-1-3.9-1.4 0.1-0.1 0.2-0.1 0.2-0.2 0.6-0.6 1.9-0.9 2.8-1.1 1.2 0.4 2.4 0.8 3.6 0.8-0.1 0.2-0.1 0.4 0.2 0.5 0.1 0 0.2 0 0.3 0.1-1 0.3-2.2 0.6-3.2 1.3zm4.4-1.7c-0.1 0-0.1 0-0.2 0.1 0-0.1 0.1-0.1 0.2-0.1-0.1-0.2-0.1-0.2-0.1-0.3 0.2-0.2 0.1-0.7-0.2-0.6-1.2 0.2-2.4-0.1-3.5-0.4 0.6-0.2 1.3-0.4 1.9-0.7 0 0 0.1 0 0.1-0.1 1.4 0.4 2.8 0.7 4.3 1-0.9 0.3-1.6 0.8-2.5 1.1zm3.1-1.4c0-0.1-0.1-0.3-0.2-0.3-1.3-0.2-2.6-0.5-3.9-0.9l0.3-0.3c1.5 0.5 3 0.9 4.5 1.3-0.2 0-0.5 0.1-0.7 0.2z"/>
			<path class="st3" d="m165 271.4c-1-0.4 1.1-4.2 1.3-4.7 0.2-0.6 0.6-1.4 0.6-2.2 14.5 4 29 7.9 43.5 11.6 0.6 0.2 0.9-0.5 0.3-0.6-14.5-4-29.1-7.9-43.7-11.6h0.1c0.1 0 0.1-0.1 0-0.1-0.2-0.2-0.4-0.3-0.6-0.2l-0.3-0.3c-0.4-0.3-0.9 0.2-0.5 0.4 1.8 1.6-3.9 7.1-0.7 8 0.2 0.1 0.2-0.2 0-0.3z"/>
			<path class="st3" d="m208.7 284.4c-0.3-1.9 0.3-3.8 1-5.4 0.1-0.3 1.6-2.5 0.6-2.7-0.9-0.1-1.5 2.3-1.7 2.8-0.5 1.1-0.8 2.3-0.9 3.6-0.3-0.1-0.5-0.1-0.9-0.1-0.2 0-0.2 0.1-0.3 0.1-2.9-0.2-5.8-1.2-8.6-2.1-3.5-1.1-7.1-2-10.7-2.9-3.5-0.9-7-1.9-10.6-2.8-4-1.1-8.2-2.5-12.3-3.2-0.3-0.1-0.5 0.3-0.1 0.4 3.8 1.4 8 2.3 11.9 3.3l11.4 3c3.7 1 7.4 1.9 11.1 3.1 2.7 0.9 5.5 1.8 8.4 2v0.2c0.2 0.5 0.5 0.8 1.1 1.1 0.2 0 0.6-0.1 0.6-0.4z"/>
			<path class="st3" d="m195.8 282.6c-2.5-0.7-5-1.1-7.5-1.5-2.9-0.4-5.8-0.8-8.6-1.6-2.7-0.7-5.4-1.8-8.1-2.6-1.3-0.4-2.6-0.7-3.8-1-0.6-0.2-1.2-0.4-1.9-0.5-0.6-0.1-1.2 0-1.7 0-0.4-0.1-0.5 0.5-0.1 0.6 0.5 0.1 1 0.1 1.5 0.1 0.7 0 1.5 0.3 2.1 0.5 1.3 0.3 2.6 0.7 3.9 1 2.7 0.7 5.3 1.8 8 2.5 2.5 0.7 5.1 1.1 7.7 1.5 2.9 0.4 5.7 0.9 8.5 1.6 0.2 0.1 0.4-0.5 0-0.6z"/>
			<path class="st3" d="m194.2 285.1c-4.8-1.3-9.6-2.9-14.5-4-1.2-0.3-2.4-0.4-3.6-0.6-1.3-0.3-2.6-0.7-3.9-1.1-2.4-0.8-4.8-1.9-7.3-2.5-0.4-0.1-0.5 0.5-0.1 0.6 2.5 0.7 4.9 1.7 7.3 2.6 2.5 0.9 4.9 1.2 7.5 1.7 4.9 1 9.7 2.7 14.5 4 0.4 0.1 0.6-0.6 0.1-0.7z"/>
			<path class="st3" d="m194.5 287.6c-2.5-0.7-5-1.1-7.5-1.5-2.9-0.4-5.8-0.8-8.6-1.6-2.7-0.7-5.4-1.8-8.1-2.6-1.3-0.4-2.6-0.7-3.8-1-0.6-0.2-1.2-0.4-1.9-0.5-0.6-0.1-1.2 0-1.7 0-0.4-0.1-0.5 0.5-0.1 0.6 0.5 0.1 1 0.1 1.5 0.1 0.7 0 1.5 0.3 2.1 0.5 1.3 0.3 2.6 0.7 3.9 1 2.7 0.7 5.3 1.8 8 2.5 2.5 0.7 5.1 1.1 7.7 1.5 2.9 0.4 5.7 0.9 8.5 1.6 0.1 0.1 0.4-0.5 0-0.6z"/>
			<path class="st3" d="m192.9 290.1c-4.8-1.3-9.6-2.9-14.5-4-1.2-0.3-2.4-0.4-3.6-0.6-1.3-0.3-2.6-0.7-3.9-1.1-2.4-0.8-4.8-1.9-7.3-2.5-0.4-0.1-0.5 0.5-0.1 0.6 2.5 0.7 4.9 1.7 7.3 2.6 2.5 0.9 4.9 1.2 7.5 1.7 4.9 1 9.7 2.7 14.5 4 0.4 0 0.5-0.6 0.1-0.7z"/>
				<path class="st4" d="m350.1 284.3c0 20.4-12.3 24.8-30.6 25.3-1.5 0-2.9 0.8-3.8 2l-7.4 10.6c-1 1.2-1.9 1.6-2.6 1.4-0.7-0.3-0.4-1.8-0.3-2.5 0.6-3.6 1.4-5.6 0.7-9.4-0.1-0.5-0.2-1-0.5-1.4-0.4-0.4-0.9-0.6-1.4-0.6-6.7 0.1-13.6-0.3-20.3-3.4-4.4-2.1-6.9-6-8.2-10.7-3.4-11.9-4-29.3 6.9-38 3.5-2.8 8.6-4.4 13-5.3 6.2-1.3 12.6-1.1 19-1.1 20.6 0 35.5 4.1 35.5 33.1z"/>
				<path class="st5" d="m306.1 324.3c-0.2 0-0.5 0-0.7-0.1-1.2-0.4-0.9-2.1-0.7-3.1v-0.1c0.1-0.8 0.3-1.6 0.4-2.3 0.4-2.3 0.8-4.1 0.3-6.9-0.1-0.4-0.1-0.8-0.4-1-0.2-0.2-0.6-0.4-0.9-0.4h-1.3c-5.8 0-12.6-0.4-19.3-3.5-4.1-1.9-7-5.6-8.6-11.1-3.7-13-3.8-30 7.1-38.6 3.8-3 9.4-4.6 13.3-5.4 5.3-1.1 10.5-1.2 15.9-1.2h3.2c8.9 0 19 0.7 25.9 5.8s10.3 14.2 10.3 27.9c0 20.8-12.5 25.5-31.3 25.9-1.3 0-2.5 0.7-3.3 1.7l-7.4 10.6c-0.7 1.2-1.6 1.8-2.5 1.8zm-0.1-1.3h0.1c0.2 0 0.8-0.1 1.6-1.2l7.4-10.5c1-1.4 2.6-2.2 4.3-2.3 18.5-0.5 30-4.8 30-24.7 0-27.1-12.8-32.4-34.9-32.4h-3.2c-5.3 0-10.5 0.1-15.7 1.1-3.8 0.8-9.1 2.3-12.8 5.2-10.4 8.3-10.1 25.3-6.7 37.3 1.5 5.1 4 8.5 7.9 10.3 6.4 3 13 3.4 18.7 3.4h1.3c0.7 0 1.4 0.3 1.9 0.8s0.6 1.2 0.7 1.7c0.5 3 0.1 5-0.3 7.3-0.1 0.7-0.3 1.4-0.4 2.2v0.1c-0.1 1.2 0 1.6 0.1 1.7z"/>
			<path class="st5" d="m284.4 262.4c-0.1 0-0.3 0-0.4-0.1-0.3-0.2-0.3-0.6-0.1-0.9 1.8-2.2 3.7-3.6 5.8-4.1 0.4-0.1 0.7 0.1 0.8 0.5 0.1 0.3-0.1 0.7-0.5 0.8-1.8 0.4-3.5 1.7-5.1 3.7-0.2 0-0.4 0.1-0.5 0.1z"/>
			<path class="st5" d="m292.2 257.5c-0.4 0-0.7-0.3-0.7-0.6 0-0.4 0.3-0.6 0.7-0.6 0.1 0 0.3-0.1 0.5-0.1 0.2-0.1 0.6-0.2 0.9-0.2 0.4 0 0.7 0.3 0.7 0.6 0 0.4-0.3 0.6-0.7 0.6-0.1 0-0.3 0.1-0.5 0.1-0.3 0-0.6 0.2-0.9 0.2z"/>
		<polygon points="290.4 289.6 308.1 275.2 314.1 282.1 333 276.6 315 291.2 307 284.4" class="st6"/>
		<path class="st5" d="m315 291.9c-0.2 0-0.3-0.1-0.4-0.2l-7.7-6.5-16.3 5c-0.3 0.1-0.6 0-0.8-0.3s-0.1-0.6 0.2-0.8l17.7-14.4c0.3-0.2 0.7-0.2 0.9 0.1l5.7 6.6 18.5-5.4c0.3-0.1 0.6 0 0.8 0.3 0.1 0.3 0.1 0.6-0.2 0.8l-18 14.6c-0.1 0.1-0.2 0.2-0.4 0.2zm-8-8.1c0.2 0 0.3 0.1 0.4 0.2l7.6 6.4 15.1-12.3-15.9 4.6c-0.3 0.1-0.5 0-0.7-0.2l-5.6-6.4-14.6 11.9 13.4-4.2h0.3z"/>
			<path class="st7" d="m258.1 150.1c-0.2-1-0.6-1.9-1-2.7-0.7-3.9-0.7-10.3-4.4-12.7-4.5-3-8.1-0.4-11.7 2.5l-0.1 0.1c-0.4 0.2-0.9 0.5-1.2 0.7-0.1 0.1-0.2 0.1-0.2 0.2-0.9 0.5-1.7 0.9-2.7 1.2-2.4 0.7-5.2 1-7.5 1.2-3 0.4-5.5 1.5-7.7 3.4-0.4 0-0.7 0.1-1 0.2-0.4 0.1-0.6 0.2-1 0.4-1.1 0.5-2 1.9-1.7 3.1 1 4.5 2 8.8 4.2 12.7 0.7 1.2 1.6 2.4 2.7 3.2-0.9 0.7-1.4 2-1.1 3 0.9 3.5 2.1 6.8 4 9.9 2.1 3.7 2.5 8.3 4.4 12.2 0.4 0.6 0.9 1.1 1.6 1.2 0.1 5.2 1.9 11.4 6.3 13.1 1.4 0.5 2.6-0.4 3.5-1.4 0.2-0.4 0.5-0.7 0.6-1.1 1.5 1.4 4.2 1.1 5-0.9 0.4 0.7 0.9 1.4 1.7 1.6 2.5 0.6 5.6 1 7.2-1.6 0.5-0.7 0.9-1.5 1.2-2.2 0.5-0.1 1-0.2 1.4-0.4 2.2-0.9 4.6-2.9 6.2-4.5 0.9-0.9 1.5-1.7 2.1-2.7 0.7-1 1.5-0.9 2.5-1.7 1.4-1.2 2.4-2.7 2.2-4.7-0.2-2.5-1.6-5-2.4-7.3-0.9-2.7-1.7-5.3-3-8-2.5-5.6-4.7-11.4-7.7-16.7-0.5-0.7-1.5-1.2-2.4-1.3z"/>
			<path class="st7" d="m230.8 138.4c1.5 0.6 3.1 0.7 4.6 0.1 1.4-0.5 2.2-1.6 2.1-3.1 1-0.6 1.6-1.7 1.2-3.1-0.5-1.2-0.9-2.2-2-3-0.7-0.5-1.7-0.7-2.7-0.7-2.4 0-4.1 1.2-5.7 2.7-0.9 0.9-1.1 2.2-0.5 3.4 0 0.1 0.1 0.2 0.2 0.4v1.1c0.3 1.2 1.5 2.1 2.8 2.2z"/>
		<path class="st3" d="m268.3 158.6c-2.5-5.1-4.8-10.3-7.1-15.5-2.2-5.3-4.1-10.9-6.5-16.2-0.1-0.1-0.2-0.2-0.4-0.2-0.2-0.9-0.5-1.6-1.1-2.1-1.6-1.6-3.7-2.2-6-2.1-0.7 0-1.4 0.2-2 0.5-1 0-2 0.1-3 0.4h-0.5c-0.1 0-0.2 0.1-0.4 0.1-1.1 0.1-2.1 0.5-3.2 1-1.4 0.5-2.6 1-3.9 1.6-1.5 0.2-2.9 0.6-4.2 1.1-2.6 0.9-5 2-7.5 3.2-0.5 0.2-1 0.4-1.5 0.7l-0.2 0.1c-2.1 1-4.1 1.6-5.8 3.1-2.5 2.1-6 6.3-3.9 9.8-0.2 0.1-0.4 0.2-0.2 0.5 1.9 5.3 4.2 10.4 6.5 15.7 2.2 5.1 4.4 10.3 6.5 15.5 2.1 5.5 4.2 10.9 6.3 16.4 0.9 2.4 1.7 4.7 2.7 7 0.9 1.7 1.9 3.6 2.2 5.5 0.1 0 0.1 0 0.2 0.1v0.1c0.4 0.9 0.9 1.5 1.5 2 0.1 0.4 0.2 0.9 0.2 1.2 1.7 2.1 5 2.5 7.6 2.4 2.2-0.1 4.2-1 6.2-2 0.6-0.2 1.1-0.6 1.7-0.9 1.2 0.1 2.2-0.5 3.4-1.1 0.7-0.4 1.5-0.7 2.2-1.1 0.6-0.1 1.2-0.2 1.9-0.4 2.7-0.6 5.1-1.9 7.7-3 2.7-1.1 5.8-2 8.5-3.4 1.9-1 2.7-3.1 3.9-4.8 0.6-1.1 0.4-3.1 0.2-4.4 0.2 0 0.6-0.2 0.6-0.5-0.4-0.9-0.7-1.9-0.9-2.7-3.7-9.3-7.3-18.5-11.7-27.6zm7.2 25.8c0-0.1-0.1-0.2-0.1-0.4 0.1-0.1 0.1-0.2 0.1-0.4l-0.1-0.2c0.1 0.4 0.2 0.6 0.4 1h-0.3zm-0.8-7.7c1.1 2.7 2.2 5.6 3.2 8.3l-0.1 0.1c-0.4-1.2-0.7-2.4-1.2-3.6l-0.1-0.2v-0.1c-0.7-1.6-1.3-3-1.8-4.5zm-15.2-34.1c2.2 5.3 4.7 10.7 7.3 15.9 0.4 0.6 0.6 1.4 1 2-0.1-0.1-0.1-0.2-0.2-0.2v-0.1c-0.5-1.4-1.4-2.6-1.9-4-0.1-0.2-0.1-0.5-0.2-0.6-0.4-0.9-0.9-1.6-1.4-2.4v-0.2c-1.4-3.2-2.9-6.3-4.1-9.7 0-0.1-0.1-0.1-0.1-0.2-0.4-0.3-0.4-0.4-0.4-0.5zm-7.6-13.5c0.4 0.4 0.6 0.9 0.9 1.2l-0.2 0.1-0.2 0.1c-0.2-0.5-0.5-0.9-0.7-1.2 0-0.1 0.1-0.1 0.2-0.2zm2.1 4.9c0.1 0.9 0.4 1.6 0.6 2.5v0.1c-0.1-0.4-0.2-0.7-0.5-1.1-0.5-1.1-0.9-2.4-1.4-3.6 0.7 0.5 1.1 1.3 1.3 2.1zm-6.1-6.9c-0.5 0.1-1.1 0.1-1.6-0.1 0.1-0.1 0-0.4 0-0.5 0.3 0.1 1 0.2 1.6 0.6zm1.5 2.9l-0.4 0.4c-0.4 0.1-0.6 0.4-1 0.5-0.2 0.1-0.4 0.1-0.5 0.1 0.2-0.2 0.6-0.4 0.9-0.6 0.1-0.1 0.1-0.1 0.1-0.2 0.4-0.2 0.7-0.2 0.9-0.2zm-5.2-5.4l0.1-0.1c0.2-0.1 0.4-0.1 0.6-0.2 0.1 0 0.4-0.1 0.5-0.1h0.5c-0.6 0.1-1.1 0.3-1.7 0.4h-0.1 0.1zm1.9 7.3c-0.5 0.4-1.1 0.7-1.7 1.1-1.5 1-3.1 1.9-4.6 2.6 2.2-1.1 4.2-2.4 6.3-3.7zm-9.2-2.6h0.5c0.2 0.2 0.5 0.6 0.9 1-0.1 0-0.4 0-0.5 0.1s-0.2 0.2-0.4 0.5c-0.1-0.6-0.1-1.1-0.5-1.6zm1.6 2.2c0 0.5 0.1 1 0.2 1.4-0.1 0.1-0.1 0.2-0.2 0.2-0.2 0-0.6 0.1-0.5 0.5 0 0.1 0.1 0.4 0.1 0.5v0.2l-0.2 0.1c-0.1-0.9 0-1.9 0.6-2.9zm-7.7-0.7c1.2-0.6 2.9-0.4 4.1-0.1h0.1c0.1 0.1 0.4 0.4 0.5 0.7 0.4 0.9 0.2 1.7 0 2.6-0.7 1.7-3 2-4.6 1.4-1.6-0.9-1.7-3.9-0.1-4.6zm5.5 6.2c-0.9 0.2-1.6 0.5-2.5 0.7h-0.1c0.6-0.2 1.1-0.5 1.7-0.7 0.1-0.1 0.4-0.1 0.5-0.2 0.1 0.2 0.2 0.2 0.4 0.2zm-8-6.1c0.2-0.1 0.2-0.2 0.4-0.2 0.2-0.1 0.4-0.1 0.6-0.2l-0.2 0.2c-0.5 0.6-0.7 1.4-0.7 2.1-0.1-0.2-0.2-0.5-0.2-0.7 0-0.4 0-0.8 0.1-1.2zm-1.7-0.5c-0.1 0.1-0.2 0.2-0.4 0.2-0.4 0.1-0.7 0.2-1.1 0.4 0-0.1-0.1-0.2-0.2-0.4 0.5-0.1 1.2-0.2 1.7-0.2zm-1.6 5.2c-0.2-0.7-0.6-1.5-1.1-2.1 0.1 0 0.1-0.1 0.2-0.1 0.4 0.6 0.7 1.5 0.9 2.2zm-3.9-3.4c0.7-0.4 1.4-0.6 2-0.9l-0.1 0.2v0.2c-0.6 0.2-1.4 0.4-2 0.6h-0.1l0.2-0.1zm-3.7 12.6c0.6-0.2 1.2-0.5 1.9-0.7-0.6 0.4-2.2 1.4-3.1 1.2 0.4-0.1 0.9-0.3 1.2-0.5zm-2.3 2l-0.1-0.2 0.2-0.2c0.1 0.9 0.5 1.7 0.9 2.5l0.1 0.2h-0.1c-0.2-0.6-0.5-1.2-0.9-1.9v-0.2l-0.1-0.2zm4.4 10.5c0.1 0.5 0.4 0.9 0.5 1.4-0.1-0.1-0.2-0.1-0.5-0.1-0.1-0.4-0.4-0.7-0.6-1.2 0.2-0.1 0.5-0.1 0.6-0.1zm-4.1-4.5c0.1 0.2 0.4 0.5 0.5 0.7 0.4 0.7 0.6 1.4 0.9 2.1l0.1 0.1c0 0.1 0.1 0.2 0.1 0.4 0.1 0.6 0.2 1.1 0.5 1.7-0.6-1.7-1.4-3.4-2.1-5zm3.7 8.6c-0.4-0.9-0.7-1.7-1.1-2.6 0.2 0.5 0.6 1 1 1.5 0 0.3 0.1 0.7 0.1 1.1zm14.3 35.6c-0.2-0.6-0.5-1.2-0.7-2 0.2 0.4 0.4 0.7 0.6 1.1 0.1 0.2 0.2 0.5 0.4 0.6l-0.3 0.3zm-6-17.5c-0.2-0.4-0.4-0.7-0.6-1.1-0.4-0.7-0.7-1.4-1.1-2.1 0.2 0.5 0.6 0.9 1.1 1.2 0.4 0.7 0.6 1.5 1 2.2-0.1-0.1-0.2-0.2-0.4-0.2zm-5.1-14.9c-0.4-0.6-0.6-1.1-0.9-1.6-0.4-1.1-0.6-2.1-1-3.2 0.7 1.6 1.3 3.2 1.9 4.8zm17.4 44l0.1-0.1c0.2 0.1 0.5 0.1 0.9 0.1 0.1 0 0.4 0 0.5-0.1 0.2 0.2 0.5 0.5 0.9 0.7-0.9-0.1-1.6-0.2-2.4-0.6zm4-0.1v-0.2c-0.1-0.2-0.2-0.5-0.2-0.7 0.2 0 0.5 0.1 0.7 0.1 0.1 0.2 0.4 0.6 0.6 0.9-0.3-0.1-0.7-0.1-1.1-0.1zm4-1.8c0.5-0.1 0.9-0.1 1.2-0.4l0.1 0.1c-0.4 0.2-0.9 0.3-1.3 0.3zm4.6-1.5c-0.7 0.2-1.5 0.4-2.1 0.6 0-0.1-0.1-0.2-0.2-0.4 0.9-0.1 1.7-0.5 2.6-0.5-0.2 0.2-0.3 0.2-0.3 0.3zm2-0.6l-0.1-0.2c0.4-0.1 0.7-0.4 1.1-0.5s0.6-0.1 1-0.2c-0.6 0.3-1.3 0.7-2 0.9zm5-1.1c-0.1-0.1-0.1-0.1-0.2-0.1 0.6-0.1 1.1-0.2 1.6-0.4-0.6 0.1-1.1 0.4-1.4 0.5zm4.3-3.7c-0.7 0.2-1.5 0.5-2.1 0.9l-0.1-0.2c0.7-0.2 1.5-0.6 2.1-0.9 0 0.1 0 0.1 0.1 0.2zm1.5-3.9c-2.2 0.9-4.4 2.4-6.6 3.4-0.7 0.4-1.6 0.5-2.4 1-2.1 0.5-4.2 1-6.1 1.9-0.2-0.5-0.5-1.1-0.7-1.6 0.5-0.2 1.1-0.4 1.6-0.7 1.9-1.1 4.1-1.4 6.1-2.1 1-0.4 1.9-1 2.7-1.5 0.5-0.1 1-0.2 1.4-0.4 1.4-0.4 2.9-0.7 4-1.6-0.1 0.4 0 1 0 1.6zm-7.3-0.7c0.7-0.5 1.5-0.9 2.2-1.4 0.9-0.5 1.9-0.7 3-1.1-1.4 0.5-2.7 1.1-4 2-0.2 0.1-0.5 0.2-0.7 0.4-0.3 0-0.4 0.1-0.5 0.1zm12.6 4.1c-0.7 0.2-1.6 0.5-2.1 0.7 0.5-0.2 1-0.6 1.5-1 0.3 0.3 0.5 0.3 0.6 0.3zm-1-9.2c-0.1 0-0.2-0.1-0.4-0.1 0.7-0.2 1.5-0.5 2.2-0.9 0.1 0 0.2-0.1 0.5-0.1-0.2 0.2-0.6 0.4-0.9 0.5-0.5 0.2-1 0.3-1.4 0.6zm3.7 4.3c0-0.6 0.1-1.4 0.4-2 0.2-0.4 0.5-0.7 0.6-1.1-0.1 1-0.4 2.3-1 3.1zm0.2-4.7l-0.2-0.2c0.2-0.1 0.5-0.4 0.6-0.6 0 0.2-0.3 0.4-0.4 0.8zm0.3-4.8c0 0.1-0.1 0.1-0.1 0.2 0 0.4 0.1 0.6 0.1 1 0 0.9-1.4 1.2-1.9 1.5-1.5 0.6-3 1.1-4.6 1.7-1.1 0.5-2.5 0.6-3.6 1.1-1.4 0.6-2.6 1.2-3.9 2-3.1 1.6-6.2 2.6-9.6 3.6-3.9 1.2-7.5 2.9-11.4 3.7-0.1-0.2-0.4-0.5-0.6-0.4-3.4-9.7-8.8-18.4-12.1-28.1-1.6-4.7-3.2-9.4-5.1-14.2l-3-7.2c-0.4-1.1-1.2-2.2-1.6-3.5 1.7 0.2 4.1-1.6 5.3-2.4 3.9-2.4 8.2-2.9 12.4-4.4 0.4-0.1 0.5-0.5 0.4-0.7 3-0.7 6-2 8.6-3.5 0.1 0.1 0.4 0.2 0.5 0.2 1.5-0.5 3.1-1 4.6-1.4 1.1-0.4 2.6-0.5 3.7-1.2 0.2 0.7 0.6 1.5 0.9 2.2 0.9 2.5 1.9 4.8 3 7.2 2.1 4.5 4.1 9.1 6.2 13.7l3 6c0.4 1.2 1 2.4 1.6 3.5v0.4c1.2 3.2 2.5 6.6 3.7 9.8 0.7 2 1.6 4.4 2.9 6.3 0.2 0.6 0.5 1.2 0.7 1.7 0.1 0.5 0 0.8-0.1 1.2zm-12-33.1v0.2c-0.4-0.9-0.7-1.6-1.1-2.5-0.1-0.2-0.2-0.4-0.2-0.6 0.2 0.5 0.5 1 0.9 1.5 0.2 0.5 0.3 0.9 0.4 1.4zm-5.9-17c-0.2-0.5-0.4-1-0.5-1.5v-0.1c0-0.1-0.1-0.4-0.1-0.5 0.2 0.7 0.3 1.4 0.6 2.1z"/>
			<path class="st8" d="m388 171.1c-0.1 0-0.1-0.1-0.2-0.1-2.5-1.4-5.2-2.3-7.9-3.1-2-0.6-4.1-0.9-6.2-1.1-3.3-0.3-6.5-0.1-9.7 0.4-1.4 0.2-2.8 0.6-4.2 1-5.2 1.5-9.8 4-13.9 7.6-4 3.5-7.2 7.7-9.3 12.5-1.9 4.2-2.9 8.7-3.1 13.3-0.1 2.8 0.1 5.6 0.7 8.3 0.4 1.9 0.9 3.8 1.7 5.6 0 0.2 0.1 0.4 0.2 0.6 0 0.1 0.1 0.3 0.2 0.4 0 0.1 0 0.2 0.1 0.3 1.6 3.7 3.8 7 6.5 10 3.7 4 8 7 13.1 9.1 7 2.9 14.3 3.6 21.8 2.1 4.3-0.8 8.3-2.4 12-4.6 1.3-0.8 2.7-1 4.2-0.6l6.9 1.8c1 0.3 2 0.5 2.9 0.8 0.1-0.1 0-0.2 0-0.3-0.8-3-1.6-6.1-2.5-9.1-0.5-1.6-0.3-3.1 0.7-4.5 3.3-5.3 5.1-11.1 5.3-17.3 0.2-4.5-0.5-9-2-13.2-2.4-6.7-6.6-12.3-12.4-16.7-1.4-1.1-3-2.1-4.6-2.9-0.1-0.2-0.2-0.3-0.3-0.3z"/>
				<path class="st9" d="m407.3 204.1c0.2-4.5-0.5-9-2-13.2-2.4-6.7-6.6-12.3-12.4-16.7-1.4-1.1-3-2.1-4.6-2.9-0.3 0.2-0.3 0-0.3-0.2-0.1 0-0.1-0.1-0.2-0.1-2.5-1.4-5.2-2.3-7.9-3.1-2-0.6-4.1-0.9-6.2-1.1-3.3-0.3-6.5-0.1-9.7 0.4-1.4 0.2-2.8 0.6-4.2 1-5.2 1.5-9.8 4-13.9 7.6-4 3.5-7.2 7.7-9.3 12.5-1.9 4.2-2.9 8.7-3.1 13.3-0.1 2.8 0.1 5.6 0.7 8.3 0.4 1.9 0.9 3.8 1.7 5.6 0 0.2 0.1 0.4 0.2 0.6 0.2 0 0.2 0.2 0.2 0.4 0 0.1 0 0.2 0.1 0.3 1.6 3.7 3.8 7 6.5 10 3.7 4 8 7 13.1 9.1 7 2.9 14.3 3.6 21.8 2.1 4.3-0.8 8.3-2.4 12-4.6 1.3-0.8 2.7-1 4.2-0.6l6.9 1.8c1 0.3 2 0.5 2.9 0.8 0.1-0.1 0-0.2 0-0.3-0.8-3-1.6-6.1-2.5-9.1-0.5-1.6-0.3-3.1 0.7-4.5 3.3-5.4 5.1-11.2 5.3-17.4zm-29.3-13.6c-0.1 0.1-0.1 0.1-0.1 0 0 0 0.1-0.1 0.1 0v0zm-4.5 5.6v0.1-0.1zm-3-12.4c1.5 0 2.9 1.3 2.9 2.8 0 1.7-1.4 2.8-2.9 2.8-1.7 0-2.8-1.4-2.8-2.9 0-1.4 1.3-2.7 2.8-2.7zm18.5 30.4c-2.2 0.3-4.3 0.1-6.5 0.1-0.9 0-0.8-0.1-0.8 0.7v4.7c0 1.5-0.9 2.6-2.3 2.9-1.9 0.4-3.5-0.9-3.5-2.8v-5.4c0-0.4-0.1-0.6-0.5-0.7-1.8-0.5-3.2-1.5-4.6-2.6-0.2-0.2-0.3-0.6-0.6-0.5-0.2 0.1-0.4 0.3-0.6 0.5-1 1-2.2 1.7-3.5 2.3-1.4 0.6-2.8 0.8-4.3 0.8-2.3 0-4.7-0.2-7 0-2.2 0.2-4.3-0.1-6.3-1.1-1.7-0.8-3-1.9-4.1-3.3-0.1-0.1-0.2-0.3-0.3-0.4-0.2 0-0.2-0.1-0.2-0.3-0.1 0-0.3 0-0.1-0.2-0.7-1.3-1.3-2.6-1.5-4-0.1-0.7-0.2-1.3-0.2-2v-16.2c0-0.8 0.2-1.6 0.7-2.2 0.7-0.8 1.6-1.1 2.6-0.9 1.2 0.2 2 0.9 2.3 2 0.1 0.4 0.1 0.7 0.1 1.1v6.1c0 0.4 0 0.5 0.5 0.3 1.2-0.6 2.4-0.9 3.7-1.1 3.1-0.4 5.9 0.3 8.4 2.1 4.3 3.2 5.7 8.7 3.5 13.6-0.1 0.1-0.1 0.2-0.2 0.4l0.1 0.1c1.6-0.5 2.6-1.6 3.2-3.1 0.3-0.7 0.4-1.4 0.4-2.1v-8.3c0-0.9 0.9-2.1 2-2.4s2-0.1 2.8 0.5c0.7 0.5 1 1.3 1 2.2v1.3c0.1 0 0.1 0 0.1-0.1 0 0-0.1 0-0.1 0.1 0 2.4-0.1 4.7 0 7.1 0 1.7 0.9 3.1 2.3 4.1 0.1 0.1 0.2 0.2 0.4 0.2 0.1-0.1 0.1-0.2 0.1-0.4v-4.4c0-5.6 4.5-10.4 10.2-10.9 6.3-0.6 11.6 3.7 12.5 9.5 1 6.1-3.5 11.9-9.7 12.7z"/>
				<path class="st9" d="m343.9 209.2z"/>
				<path class="st9" d="m388.1 197.6c-2.8-0.4-5.6 1.6-6.2 4.4-0.2 1.1-0.1 2.3-0.1 3.4v2.8c0 0.3 0.1 0.5 0.4 0.5h5.6c2.8-0.1 5.2-2.4 5.4-5.2 0.1-3-2.1-5.5-5.1-5.9z"/>
				<path class="st9" d="m353.5 197.6c-3.1 0-5.7 2.4-5.7 5.6 0 3 2.5 5.5 5.7 5.5 3 0 5.7-2.3 5.7-5.6 0-3.1-2.5-5.5-5.7-5.5z"/>
			<path class="st9" d="m388.3 171.3c-0.3 0.2-0.3 0-0.3-0.2 0.1 0 0.2 0.1 0.3 0.2z"/>
			<path class="st9" d="m378 190.5c-0.1 0.1-0.1 0.1-0.1 0 0 0 0.1-0.1 0.1 0v0z"/>
			<path d="m370.5 189.7c-0.8 0-1.6-0.3-2.1-0.9-0.6-0.6-1-1.5-1-2.4 0-1.7 1.4-3.1 3.2-3.1 0.8 0 1.7 0.3 2.3 1 0.6 0.6 1 1.4 0.9 2.2 0 2-1.7 3.2-3.3 3.2zm0-5.6c-1.4 0-2.5 1.1-2.5 2.4 0 0.7 0.3 1.4 0.8 1.9 0.3 0.3 0.9 0.7 1.7 0.7 1.3 0 2.6-1 2.6-2.5 0-0.6-0.3-1.2-0.7-1.7-0.5-0.6-1.2-0.8-1.9-0.8z"/>
			<path class="st10" d="m343.9 209.2c0.1 0.1 0.2 0.2 0.2 0.3-0.3 0-0.3-0.1-0.2-0.3z"/>
			<path class="st10" d="m343.8 209c0 0.1 0.1 0.1 0.1 0.2-0.2 0-0.3 0-0.1-0.2z"/>
			<path class="st9" d="m363.8 208.3s-0.1 0.1-0.1 0c0 0 0.1-0.1 0.1 0v0z"/>
				<path d="m378.9 223c-0.7 0-1.4-0.2-2-0.7-0.8-0.6-1.2-1.5-1.2-2.5v-5.4c0-0.2 0-0.3-0.3-0.3-1.8-0.5-3.3-1.5-4.7-2.6l-0.3-0.3s0-0.1-0.1-0.1-0.1 0.1-0.2 0.2c-0.1 0.1-0.1 0.2-0.2 0.2-1 1-2.2 1.7-3.6 2.3s-2.8 0.9-4.4 0.9h-0.1-2.1c-1.6 0-3.3-0.1-4.9 0.1-2.4 0.2-4.5-0.2-6.5-1.1-1.6-0.7-2.9-1.8-4.1-3.2v0.4l-0.4-0.7h-0.1l-0.1-0.3-0.3-0.5c-0.8-1.5-1.3-2.8-1.5-4.1-0.1-0.7-0.2-1.4-0.2-2v-1.6-14.6c0-1 0.3-1.8 0.8-2.4 0.8-0.9 1.8-1.2 2.9-1 1.3 0.2 2.2 1 2.6 2.3 0.1 0.4 0.1 0.8 0.1 1.2v1.9 4.2c1.1-0.6 2.4-0.9 3.8-1.1 3.2-0.4 6.1 0.3 8.7 2.2 4.4 3.2 5.9 8.7 3.7 13.7 1.1-0.5 1.8-1.4 2.4-2.6 0.3-0.6 0.4-1.3 0.4-2v-4-4.2c0-1.1 1-2.4 2.2-2.7 1.1-0.3 2.1-0.1 3.1 0.6 0.7 0.5 1.1 1.4 1.1 2.5v0.9 0.4 2.1 4.9c0 1.5 0.7 2.8 2 3.8v-2-2.3c0-5.8 4.6-10.7 10.6-11.3 6.3-0.6 11.9 3.7 12.9 9.7 0.5 3-0.3 6-2.2 8.5s-4.7 4.1-7.8 4.5c-1.4 0.2-2.9 0.2-4.3 0.1h-2.2-0.3-0.2v0.2 0.2 1.5 3.2c0 1.6-1 2.9-2.5 3.2-0.1-0.3-0.3-0.3-0.5-0.3zm-8.5-12.7c0.4 0 0.5 0.3 0.6 0.5 0 0.1 0.1 0.1 0.1 0.2 1.4 1.1 2.8 2.1 4.5 2.5 0.5 0.1 0.8 0.5 0.8 1v5.4c0 0.8 0.4 1.5 1 2s1.4 0.6 2.1 0.5c1.2-0.2 2-1.3 2-2.6v-3.2-1.5-0.2c0-0.3 0-0.5 0.2-0.7s0.4-0.2 0.7-0.2h0.2 2.2c1.4 0 2.8 0 4.2-0.1 2.9-0.4 5.5-1.9 7.3-4.2s2.6-5.2 2.1-8c-0.9-5.7-6.2-9.7-12.1-9.2-5.6 0.5-9.9 5.2-9.9 10.6v2.3 2.1 0.1s0.1 0.5-0.3 0.6c-0.3 0.1-0.6-0.1-0.7-0.2-1.6-1.1-2.4-2.6-2.5-4.4v-4.9-2.1-0.4-0.9c0-0.9-0.3-1.5-0.9-1.9-0.8-0.6-1.6-0.7-2.5-0.5-1 0.3-1.7 1.3-1.7 2.1v4.2 4c0 0.9-0.1 1.6-0.4 2.3-0.7 1.7-1.8 2.7-3.4 3.2-0.1 0.1-0.2 0.1-0.3 0.1s-0.2 0-0.3-0.2c0-0.1-0.1-0.2 0-0.4v-0.1c0-0.1 0.1-0.2 0.1-0.3 2.2-4.8 0.8-10.1-3.4-13.1-2.4-1.8-5.2-2.5-8.1-2.1-1.3 0.2-2.5 0.5-3.6 1.1-0.2 0.1-0.5 0.2-0.7 0.1-0.3-0.2-0.3-0.5-0.2-0.7v-4.2-1.9c0-0.4 0-0.7-0.1-1-0.3-1-1-1.6-2.1-1.8-0.9-0.2-1.7 0.1-2.3 0.8-0.4 0.5-0.6 1.1-0.6 2v14.6 1.6c0 0.6 0.1 1.3 0.2 1.9 0.2 1.2 0.7 2.4 1.5 3.9v0.1h0.1v0.1c0.1 0.1 0.1 0.2 0.2 0.3 0 0 0 0.1 0.1 0.1 0.1 0.1 0.2 0.2 0.2 0.3 1.1 1.4 2.4 2.5 4 3.2 1.9 0.9 3.9 1.2 6.1 1 1.7-0.1 3.4-0.1 5-0.1h2.1c1.5 0 2.9-0.3 4.2-0.8 1.3-0.6 2.5-1.3 3.4-2.2l0.2-0.2c0.2-0.2 0.3-0.4 0.6-0.4 0-0.1 0.1-0.1 0.1-0.1zm-26.6-1.1h-0.3 0.3zm9.7-0.2c-3.3 0-6-2.6-6-5.9 0-1.6 0.6-3.1 1.7-4.2s2.6-1.7 4.3-1.7c3.4 0 6 2.6 6 5.8 0 1.6-0.6 3.1-1.7 4.2-1.1 1.2-2.7 1.8-4.3 1.8zm0-11c-1.5 0-2.8 0.5-3.8 1.5s-1.5 2.3-1.5 3.7c0 2.8 2.4 5.2 5.3 5.2 1.4 0 2.8-0.6 3.8-1.5 1-1 1.5-2.3 1.5-3.7 0.1-3-2.2-5.2-5.3-5.2zm28.6 11c-0.1 0-0.4 0-0.5-0.2-0.2-0.2-0.2-0.4-0.2-0.6v-2-0.8-1.3c0-0.7 0-1.4 0.1-2.2 0.7-3 3.5-5 6.6-4.6 3.2 0.4 5.5 3.1 5.3 6.2-0.2 2.9-2.7 5.4-5.7 5.5h-3.4-2.2c0.1 0 0 0 0 0zm0-0.7h2.3 3.3c2.6-0.1 4.9-2.2 5-4.8 0.2-2.8-1.9-5.1-4.7-5.5-2.7-0.3-5.2 1.5-5.8 4.1-0.1 0.7-0.1 1.3-0.1 2v1.3 0.8 2.1 0z"/>
				<rect y="197.2" x="342.2" height=".7" transform="matrix(.0028541 -1 1 .0028541 149.28 544.87)" width="11.4"/>
				<path d="m353.9 214.7h-0.4v-0.7c6.1 0.3 9.9-5.8 10-5.9l0.6 0.3c0 0.1-1 1.6-2.8 3.2-2.2 2-4.8 3.1-7.4 3.1z"/>
				<path d="m364.3 214.3l-0.2-0.6c4.3-1.3 7.1-3.7 8.3-7.2 0.9-2.6 0.6-4.8 0.6-4.8l0.7-0.1c0 0.1 0.4 2.4-0.6 5.1-0.9 2.5-3.2 5.9-8.8 7.6z"/>
				<path d="m382.6 208.9c-6.2 0-7.2-0.8-7.3-1.3l0.7-0.1v-0.1s0.7 0.8 6.6 0.8v0.7z"/>
				<path d="m382.8 214.6c-4.4 0-7.4-0.6-7.4-0.6l0.1-0.7s3.5 0.7 8.4 0.6v0.7h-1.1z"/>
			<path d="m370.3 239.1c-5 0-9.8-1-14.4-2.9-5-2.1-9.4-5.1-13.2-9.2-2.7-2.9-4.9-6.3-6.6-10 0-0.1-0.1-0.2-0.1-0.3-0.1-0.1-0.2-0.3-0.2-0.4-0.1-0.2-0.2-0.4-0.2-0.6-0.9-2-1.4-4.1-1.7-5.7-0.6-2.7-0.8-5.5-0.7-8.4 0.2-4.7 1.2-9.2 3.1-13.4 2.2-4.8 5.3-9 9.4-12.6s8.8-6.1 14-7.6c1.7-0.5 3-0.8 4.3-1 3.5-0.6 6.7-0.7 9.8-0.4 1.9 0.2 4.1 0.4 6.3 1.1 2.8 0.8 5.5 1.6 8 3.1l0.2 0.1c0.1 0 0.3 0.1 0.4 0.2 1.4 0.7 2.9 1.6 4.6 2.9 5.8 4.4 10 10 12.5 16.8 1.5 4.2 2.2 8.7 2.1 13.3-0.2 6.3-2 12.2-5.4 17.5-0.9 1.4-1.1 2.8-0.6 4.3 0.6 2.2 1.2 4.4 1.8 6.5 0.2 0.9 0.5 1.7 0.7 2.6 0 0.1 0.1 0.3-0.1 0.5l-0.1 0.2-1.1-0.3c-0.7-0.2-1.4-0.4-2-0.5l-6.9-1.8c-1.5-0.4-2.8-0.2-4 0.5-3.7 2.3-7.8 3.9-12.1 4.7-2.8 0.5-5.3 0.8-7.8 0.8zm0.2-72.1c-2.1 0-4.2 0.2-6.5 0.6-1.2 0.2-2.6 0.5-4.2 1-5.1 1.5-9.7 4-13.8 7.5-4 3.5-7.1 7.7-9.3 12.4-1.9 4.2-2.9 8.6-3.1 13.2-0.1 2.8 0.1 5.6 0.7 8.2 0.3 1.6 0.8 3.6 1.7 5.6 0 0.2 0.1 0.3 0.2 0.5v0.2s0 0.1 0.1 0.1l0.1 0.1v0.2 0.2c1.6 3.7 3.8 7 6.5 9.9 3.7 4 8 7 13 9 6.9 2.8 14.2 3.5 21.6 2.1 4.2-0.8 8.2-2.4 11.9-4.6 1.4-0.8 2.8-1 4.4-0.6l6.9 1.8c0.7 0.2 1.4 0.4 2 0.5l0.6 0.1c-0.2-0.9-0.5-1.7-0.7-2.6-0.6-2.1-1.2-4.3-1.8-6.5-0.5-1.7-0.3-3.2 0.7-4.7 3.3-5.2 5.1-11 5.3-17.2 0.2-4.6-0.5-9-2-13.1-2.4-6.6-6.6-12.2-12.3-16.6-1.7-1.3-3.1-2.2-4.6-2.9 0-0.1-0.1-0.1-0.2-0.1l-0.1-0.1c-2.4-1.4-5.1-2.2-7.8-3-2.1-0.6-4.3-0.9-6.2-1.1-1 0-2-0.1-3.1-0.1z"/>
			<ellipse cy="186.3" cx="370.7" rx="2.7" class="st11" ry="2.6"/>
	<path class="st12" d="m158.4 233.9c0.6 2.2-2.5 2.3-2.2 0.2 0.5-0.8 1.5-0.9 2.2-0.2z"/>
	<path class="st12" d="m155.2 166.8c3.1-0.7 4.9 0.9 5.1 3 0.6 5.6-8.1 6.4-8.3 0.8 0-2.1 1.4-3.1 3.2-3.8zm-0.4 4.4c0.9 3.6 5.1-2.6 1.4-1.8-1 0.2-1.8 0.4-1.4 1.8z"/>
		<path class="st12" d="m137.6 256.1c-1 3.6-3.7 5.6-6.2 6.7-0.3 0.1-1.5 0.5-1.5 0.7-0.1 0.5 1.7 2.2 2 2.5 0.9 0.8 2.5 1.5 2.2 2.4-0.4 1.4-4.7-0.5-5.7-1-0.9-0.5-1.7-0.9-2.4-1.4-0.8-0.5-1.5-1.1-2.4-1.4-0.8-0.2-1.9-0.1-2.7-0.1-7-0.3-13-2.9-15.7-7-1.5-2.3-2.8-6.5-1.2-10 1.5-3.2 4.8-5.6 7.6-6.9 3.8-1.7 9.1-2.2 14.3-0.7 7.4 2.2 14 7.9 11.7 16.2zm-7 10.8c0.1-0.2-0.3-0.5-0.5-0.8-0.4-0.5-2-2.5-1.6-3.3 0.2-0.4 1.9-0.8 2.4-1 2.2-1 4.4-2.9 5.3-5.8 0.9-3.3 0.1-6.2-1.3-8.3-2-3-6.5-6.1-11.9-6.9-3.9-0.5-7.5-0.3-10.8 1.3-2.8 1.3-6 3.6-7.1 6.7-1 2.8 0.2 6.2 1.5 8.1 2.4 3.5 7.9 5.9 13.6 6.1 1.2 0.1 2.6-0.2 3.8 0.1s2.2 1.3 3.2 1.9c1.1 0.7 2.1 1.3 3.4 1.9z"/>
		<path class="st12" d="m133.5 247.7c0 0.1-0.1 0.2-0.1 0.2 0.5 1.1 0.7 2.4 1.8 3.2 0.6-1.2-0.9-2.3-1.1-3.3-0.3-0.2-0.4-0.2-0.6-0.1z"/>
		<path class="st12" d="m132.5 248.5c0 0.6 0.3 1.2 0.6 1.7 0.2 0.4 0.5 1.2 1.2 1.2 0.1-1.1-0.6-2.4-1.5-3.1-0.2 0.1-0.2 0.2-0.3 0.2z"/>
		<path class="st12" d="m131.6 249c-0.2 0.6 0.2 1.5 0.9 1.8 0.6-0.6-0.2-1.9-0.9-1.8z"/>
		<path class="st12" d="m130.4 249.4c-0.1 0.5 0.2 0.8 0.6 1 0.1-0.1 0.2-0.2 0.3-0.2 0.1-0.6-0.4-1.2-0.9-0.8z"/>
	<path class="st12" d="m94.2 149.6c4.6-0.9 4.3 5.8 1.2 6.1s-5.2-5.3-1.2-6.1zm1.2 3.5c0-0.5 0-1-0.2-1.2h-0.6c0 0.7 0.1 1.2 0.8 1.2z"/>
	<path class="st12" d="m117.2 160.2c-2-3.1-0.9-7.6 2.4-8.1 2.2-0.3 4.9 1 5.3 3.1 0.8 3.9-3.8 7.9-7.7 5zm3-1.4c3.4 0.7 2.3-6.6-1.2-3.3 0 1.7 0.1 3.1 1.2 3.3z"/>
	<path class="st12" d="m108 189.9c0.7-0.2 1.3-0.2 1.6 0.8 1 4-5.5 0.2-1.6-0.8z"/>
	<path class="st12" d="m133 205.3c5.6-1.4 5.3 7 1 6.9-3.6-0.1-4.9-5.9-1-6.9zm1.6 4.3c0.6-0.6 0.3-1.5-0.2-2-2-0.1-1 2.1 0.2 2z"/>
	<path class="st12" d="m96 215c6.4-1.2 5.8 8.5 0.6 8.3-3.5-0.2-5.6-7.5-0.6-8.3zm1.3 5.5c2.5-0.4-0.3-5.2-1.8-2.2 0.4 1.1 0.7 2.3 1.8 2.2z"/>
	<path class="st12" d="m118.8 218.1c-0.5 5.1-5-2.4 0 0z"/>
		<path d="m156.9 208.7h10.8c1.9 0 1.9-3 0-3h-10.8c-1.9 0-1.9 3 0 3z"/>
		<path d="m160.6 200.5v13.7c0 1.9 3 1.9 3 0v-13.7c0-2-3-2-3 0z"/>
		<path class="st12" d="m409.8 342c5.1-1.5 10.3-1 14 0.7 2.7 1.3 6 3.6 7.4 6.8 1.6 3.4 0.3 7.5-1.2 9.8-2.6 4-8.5 6.6-15.4 6.9-0.8 0-1.9-0.1-2.6 0.1-0.9 0.2-1.6 0.9-2.4 1.4-0.7 0.4-1.5 0.9-2.4 1.4-1 0.5-5.2 2.3-5.6 1-0.3-0.9 1.3-1.6 2.2-2.4 0.3-0.3 2.1-2 2-2.5-0.1-0.2-1.2-0.6-1.5-0.7-2.5-1.1-5.1-3-6.1-6.6-2.3-8.2 4.2-13.8 11.6-15.9zm-1.4 24.7c1-0.6 2-1.6 3.2-1.9s2.6-0.1 3.7-0.1c5.7-0.2 11.1-2.5 13.4-6 1.3-1.9 2.5-5.3 1.5-8-1.1-3.1-4.2-5.3-7-6.6-3.2-1.5-6.8-1.8-10.6-1.3-5.3 0.7-9.7 3.8-11.7 6.7-1.4 2-2.2 4.9-1.3 8.1 0.8 2.8 3 4.7 5.2 5.7 0.5 0.2 2.2 0.6 2.4 1 0.4 0.8-1.2 2.8-1.6 3.3-0.2 0.3-0.7 0.6-0.5 0.8 1.2-0.6 2.2-1.1 3.3-1.7z"/>
		<path class="st12" d="m402.2 349.6c0 0.1 0.1 0.2 0.1 0.2-0.5 1.1-0.7 2.4-1.8 3.1-0.6-1.1 0.8-2.2 1.1-3.3 0.3-0.1 0.5-0.1 0.6 0z"/>
		<path class="st12" d="m403.2 350.4c0 0.6-0.3 1.2-0.6 1.7-0.2 0.4-0.5 1.2-1.1 1.2-0.1-1.1 0.6-2.4 1.5-3 0.1 0 0.1 0.1 0.2 0.1z"/>
		<path class="st12" d="m404.1 350.9c0.2 0.6-0.2 1.5-0.9 1.8-0.6-0.6 0.2-1.9 0.9-1.8z"/>
		<path class="st12" d="m405.3 351.2c0.1 0.5-0.2 0.8-0.6 1-0.1-0.1-0.2-0.2-0.3-0.2-0.1-0.5 0.4-1.1 0.9-0.8z"/>
		<path d="m368.8 364.8h10.6c1.9 0 1.9-3 0-3h-10.6c-1.9 0.1-1.9 3 0 3z"/>
		<path d="m372.4 356.8v13.4c0 1.9 3 1.9 3 0v-13.4c-0.1-1.9-3-1.9-3 0z"/>
	<path class="st12" d="m412.4 291.3c2.7-0.5 5.9 0.6 6.4 2.3 1.6 5.5-10.3 6.1-10 0.9 0.1-1.7 1.5-2.8 3.6-3.2zm3.9 3.2c-0.2-1.8-5.2-1.7-4.8 0.9 1.3 1.3 5 0.8 4.8-0.9z"/>
	<path class="st12" d="m446.3 303.2c2-2.8 8.6-2.5 9.8 0.5 1 2.3-1.1 4.8-3.7 5.2-4.6 0.7-6.3-2.2-6.1-5.7zm2.5 1.3c-1.2 2.7 5.6 3.6 4.8 0.3-0.3-1.1-1.7-1.4-3.3-1.1-0.9 0.2-1.4 0.4-1.5 0.8z"/>
	<path class="st12" d="m394.7 312.9c9.3-1.5 11.9 9 2.9 10.6-5.5 1-10.9-3.5-7.9-8 0.8-1.2 2.7-2.2 5-2.6zm-1.6 3.1c-0.6 0.4-1.8 1.3-1.9 2.1-0.3 1.7 1.9 3.1 3.5 3.4 6.4 1 7.9-7.3 0.8-6.3-0.8 0.1-1.8 0.4-2.4 0.8z"/>
	<path class="st12" d="m432.1 312.1c2.4-0.5 3.3 0.4 3.5 1.4 0.6 3.2-5.7 3.8-5.8 0.8 0-1.4 0.9-1.9 2.3-2.2z"/>
	<path class="st12" d="m412.7 269c-0.2 1.2 0 2.7 0 4.2 0 1.4 0.3 3-0.4 3.8-3.3 0.1-7.3 0.2-10.4-0.2-0.5-2.2-0.2-5.2-0.4-7.6-1.3-0.4-3.5 0-4.7-0.5-0.4-1.4 1.1-2.4 1.9-3.2 2.6-2.6 5.5-5.4 8.1-8.1 1.1-0.2 2.5 1.7 3.4 2.6 1.7 1.7 3.5 3.6 5.3 5.5 0.7 0.7 2.6 2.2 2 3.1-0.9 1-3.5 0-4.8 0.4zm-1.3-5.7c-1.4-1.6-2.8-3.2-4.2-4.7-0.1 0-0.1-0.1-0.2-0.1-2.2 2.2-4.5 4.7-6.7 7-0.7 0.7-1.6 1.4-2 2.3 1.3 0 2.5 0.1 3.6 0.3 0.8 2 0.4 5.4 0.8 7.8 2.9 0.1 5.7-0.1 8.5-0.1 0.3-2.5-0.4-6.1 0.6-7.8 1-0.2 2.2-0.2 3.5-0.2-0.9-1.6-2.5-3-3.9-4.5z"/>
		<path d="m193.4 343.8h-119.3c-0.7 0-2.1 1.1-0.8 1.1h119.3c0.7 0 2.1-1.1 0.8-1.1z"/>
		<path d="m199.1 357.7h-66.5c-0.4 0-2.2 0.8-1.3 0.8h66.5c0.4-0.1 2.2-0.8 1.3-0.8z"/>
		<path d="m169.4 371.9h-89.2c-1.1 0-1.5 1.4-0.2 1.4h89.2c1.1 0 1.5-1.4 0.2-1.4z"/>
		<path d="m423.3 235.6h87.7c0.7 0 2.1-1 0.8-1h-87.7c-0.6 0-2.1 1-0.8 1z"/>
		<path d="m442.6 246.4h78.8c0.8 0 2-1.2 0.7-1.2h-78.8c-0.7 0-2 1.2-0.7 1.2z"/>
		<path d="m463.2 260.1h29.5c0.6 0 2.1-1 0.8-1h-29.5c-0.7 0.1-2.1 1-0.8 1z"/>
		<path d="m472.6 226.7h24.2c0.8 0 2-1.2 0.7-1.2h-24.2c-0.8 0-2 1.2-0.7 1.2z"/>
		<path d="m271.3 234.1h-80c-0.6 0-2.1 1-0.8 1h80c0.6 0 2.1-1 0.8-1z"/>
		<path d="m289.9 222.8h-60.7c-0.6 0-2.1 0.9-0.8 0.9h60.7c0.7 0 2.1-0.9 0.8-0.9z"/>
		<path d="m251.9 249.3h-14c-0.8 0-2 1.2-0.7 1.2h14c0.8 0 2-1.2 0.7-1.2z"/>
		<path d="m316.5 142.4h87.3c0.7 0 2.1-1 0.8-1h-87.3c-0.7 0-2.1 1-0.8 1z"/>
		<path d="m295.8 155.1h64c0.6 0 2.1-1 0.8-1h-64c-0.6 0-2.1 1-0.8 1z"/>
		<path d="m339.2 339.4h-79.3c-0.8 0-2 1.1-0.7 1.1h79.3c0.8 0 2-1.1 0.7-1.1z"/>
		<path d="m335.3 346.2h-28c-0.6 0-2.1 0.9-0.8 0.9h28c0.6-0.1 2.1-0.9 0.8-0.9z"/>
		<path d="m341 355.9h-55.3c-1.1 0-1.5 1.3-0.2 1.3h55.3c1.1 0.1 1.5-1.3 0.2-1.3z"/>
</g>
</svg>
