<svg xmlns="http://www.w3.org/2000/svg" viewBox="0 0 559 520"><style>.st1{fill-rule:evenodd;clip-rule:evenodd}.st4{fill:#30211a}</style><g id="Layer_1"><path d="M355.6 378.5l2.5-1c38.7-14.2 72.6-37.2 94.8-72.5 3.8-6 7.3-12.5 8.1-21.1.6-6.9-.8-15.5-4.9-23.8-.7-22.8-7.3-49-24.5-72.3-21.1-28.7-52.7-45-76.9-46.4-13.3-.7-25 2.2-36.5 5.3a1753.7 1753.7 0 0 0-123.4 37.8c-24.4 8.7-48 18.8-66 36.3-7.8 7.5-14.6 16.5-24 21.7-7.7 4.3-17.2 6.2-23.6 12.1-5.5 5-8.7 12.8-10.7 21.3a75.2 75.2 0 0 0 .3 35.6 86.8 86.8 0 0 0 22.1 39c10.6 10.6 22.8 16.3 33.8 25.9 6.9 6.1 13.4 13.7 20.7 18.4a45.2 45.2 0 0 0 22 6.3 433 433 0 0 0 61.5-.8c43.8-2.7 86.6-8.2 124.7-21.8" fill="#cfebf6"/><path d="M109.2 338.9c0-.3.1-.5.3-.5l.5.1.5.1.4-.3.3-.8.1-1.6a4 4 0 0 0-.5-1.4l-.8-1.4-.9-1.3c-.7-1-1.1-2-1.3-2.9-.1-.9.1-1.6.5-2.1.3-.3.6-.5 1-.5l.6.1.5.4.1.4h-.9l-.5.4-.3 1.2.4 1.3.6 1.2.7 1 .6.8.2.3v.1l.3.6.3.7.4 1.3v1.1c0 .4-.1.7-.3 1.1l-.6.9c-.3.2-.5.4-.8.4l-.7.1-.6-.1-.1-.7zm7.1-4.3c.1-4.3.2-7.3.1-9v-.1l.2-.4.3-.2h.3l.2.3.9 5.9.9 5.9c0 .3 0 .6-.2.8l-.2.1c-.2.1-.3.1-.4-.1l-.1-.2v-.3a30.3 30.3 0 0 0-.6-4l-.7-4.7-.1 2-.1 2.1v1.9l-.1.7c-.1.5-.2.8-.4.8-.3 0-.6-.4-.7-1.5l-1-3.1-1-3.2.3 2.3 1.1 6.9c0 .2 0 .5-.2.7-.3 0-.5 0-.6-.2l-.3-.7-.3-2.8-1-6.4-.3-2.1.4-.3c.3 0 .8.9 1.4 2.8.5 1.5 1 2.8 1.3 4.1l.9 2zm4.4 2.6c0-.3.1-.5.3-.5l.5.1.5.1.4-.3.3-.8.1-1.6a4 4 0 0 0-.5-1.4l-.8-1.4-.9-1.3c-.7-1-1.1-2-1.3-2.9-.1-.9.1-1.6.5-2.1.3-.3.6-.5 1-.5l.6.1.5.4v.4h-.9l-.5.4-.3 1.2c0 .4.2.8.4 1.3l.6 1.2.7 1 .6.8.2.3v.1l.3.6.3.7.4 1.3v1.1c0 .4-.1.7-.3 1.1l-.6.9c-.3.2-.5.4-.8.4l-.7.1-.6-.1v-.7zm8.8-14.2l.1.8.1.3-.2 1.1-.2 1-.2.4-.2.6c.1.5.4 1.4 1 2.7a9.8 9.8 0 0 0 1.4 2.4c.2-.8.3-1.8.1-3v-.1c-.2 0-.3 0-.5-.2l-.1-.4 1.1-.2.9-.3c.3 0 .5.1.5.4 0 .3-.2.5-.8.6l-.4.1.1 1.1v1.1l-.3 1.4c.4.3.7.4 1.1.4l.7-.1.3.2c0 .2 0 .4-.2.5l-.6.2c-.5.1-1.1-.1-1.7-.4-.5.5-1.1.8-1.6.9a2 2 0 0 1-1.3-.2c-.4-.2-.7-.5-1-.9l-.5-1.2-.1-1.2.1-1.2.7-2.5-.4-2.2-.2-1.4c-.1-.4 0-.8.1-1l.5-.4c.2 0 .5 0 .9.2.5 0 .7.2.8.5zm-1.1 5.4c-.4 1-.6 2.1-.4 3.3.1.8.4 1.5.9 1.8.3.2.6.3 1 .2l.6-.2.5-.4-.4-.3c-.2-.2-.5-.4-.7-.8l-.7-1.3-.8-2.3zm-.1-4.1l.2 1.5v.2l.3-1.2.1-1.1c-.1-.5-.2-.8-.5-.7l-.2.4.1.9zm11.1 9.9l.6-.1c.4-.1.6 0 .7.3 0 .2 0 .3-.2.4l-.5.2-1.6.2-.4-.1-.2-.3v-1.1l-.4-2.1-.6-4.8-.3-1.4c-.1-.8.1-1.2.5-1.3l.4.1h1.1c.3 0 .5.2.5.4s-.1.4-.4.6l-1.3-.1.1.7.3 2.4.1.3.6-.1c.5-.1.8 0 .9.3l-.1.4-.4.2-.5-.1-.4.1.2 1.2.4 3c.3.4.5.7.9.7zm5.5-6.3l-.9.4-1.9.3c-.5.1-.8-.1-.8-.4l.9-.4 1.8-.3c.6 0 .8.1.9.4zm2.5 5.3l-.8-5.9c-.4-2.6-.8-4.6-1.3-5.8.1-.3.3-.4.6-.5.4-.1.8 0 1.2.1.4.1.7.3.9.6.5.6.8 1.3 1 2.1.1.8 0 1.6-.2 2.3s-.7 1.3-1.3 1.8l.9 5.1c.1.5-.1.7-.5.8l-.3-.1c-.2-.2-.2-.4-.2-.5zm-.1-6.2c.7-.9 1-1.9.9-3-.1-.8-.3-1.3-.7-1.6l-1.1-.6.4 2.6.5 2.6zm7.7 1.1c.4 3.2 0 4.8-1.3 5-1.2.2-2.1-1.2-2.6-4.2l-.1-.9-.2-1v-.3c-.3-2.3-.2-3.8.4-4.5.1-.2.3-.3.5-.3l.6.1.5.1.7.6c.3.4.5.8.7 1.5l.4 1.9.4 2zm-3.6-3.5l.2 1 .2 1.6.1.5.1.7.2.9.2.9.3.9.3.7c.2.5.4.7.7.7.3 0 .5-.4.6-1 .1-.9.1-2-.1-3.3l-.2-1.7c-.2-1.2-.3-2-.5-2.4l-.4-.9c-.2-.4-.5-.6-.9-.5-.8 0-1 .6-.8 1.9zm5.5 7h.9c.2 0 .4-.1.5-.4l.3-.7v-1.4l-.4-1.2-.6-1-.7-1a5 5 0 0 1-1-2.4c-.1-.5 0-.9.1-1.3.2-.8.6-1.2 1.1-1.2l.6.1c.2.1.3.2.3.4 0 .3-.1.4-.3.4h-.4c-.3.1-.5.5-.5 1.3v.6l.3.8.5.8.6.8.6.8c.4.6.7 1.4.8 2.2.1.7 0 1.3-.1 2l-.5.8c-.2.2-.5.4-.9.4l-.6-.1c-.2-.1-.3-.2-.3-.4l-.3-.3zm5.6-1.6v-.6l-.8-3.7-.8-4.3h-1.2l-.3-.3.1-.3.3-.2 2.3-.2h.3c.3 0 .5.1.6.3l-.1.4-.4.2h-.8v.2l.9 4.6c.5 2.1.8 3.6.9 4.7l-.1.4-.3.2-.4.1-.2-1.5zm6.6-2.1v.3l.3 1 .3 1c0 .2 0 .4-.2.5h-.6l-.3-.5-.5-1.8h-.5l-.5.1h-.7v1.7l-.1.4-.1.3-.3.3-.4-.1-.2-.3.3-3.6.1-2.2.1-1.4.1-1.3v-.9a3 3 0 0 1 .1-1.5l.6-.1c.4-.1.6 0 .6.3a33 33 0 0 0 1.5 6.2l.2.5.2 1.1zm-1.2-.2l-.2-.8-.3-1.3-.4-1.8-.4-1.4-.2 1.6c-.2 1.6-.2 2.8-.1 3.6l1.6.1zm53.3-55.7l-.2 1.4.3 3.7c.2 1.8.3 2.8.5 3 .3.4.7.6 1.4.6.6 0 1.1-.2 1.4-.6l.6-.1v.3c0 .4-.1.7-.3 1-.4.4-1 .6-1.8.6-.4 0-.9-.1-1.3-.4a3 3 0 0 1-1-1.2c-.2-.5-.4-1.7-.5-3.7l-.2-4.5.1-2.3-.1-.6c0-.8.3-1.4.9-1.9.6-.5 1.3-.7 2.2-.7l.9.3c.3.2.5.4.5.7l-.2.3-.5.1-.4-.2h-.3v-.1c-1 0-1.6.4-1.9 1.3l-.2 1.7.1 1.3zm6.7-2.2l-.1 4.9 1 .1h.7v-.4l-.1-2.7-.1-2.7.2-.4.3-.1h.5l.1.4.2 6.2.2 6.2-.1.3-.4.1-.4-.1-.2-.3-.1-4.8v-.9h-.4l-1.2-.2-.1 2.2v.1l.2 3.2-.1.5-.4.2c-.3 0-.4-.2-.5-.7l-.1-2 .1-3v-2.3l-.1-4.4.2-.4.4-.2c.1 0 .3.4.3 1.2zm9.4 8.6l-.1.4.2 1.2.2 1.2c0 .3-.1.5-.3.6l-.6-.1c-.2-.1-.2-.3-.2-.7l-.3-2.2-.6-.1h-.7l-.8-.1v1.1l-.1.5-.1.5-.1.4-.2.3c-.1.2-.3.3-.4.3l-.4-.1-.2-.4.9-4.2.4-2.6.3-1.6.3-1.6.1-1c.1-.9.2-1.5.4-1.8h.7c.4 0 .7.1.7.4 0 2.5.2 5 .7 7.5l.1.6.1 1.5zm-1.3-.4l-.1-.9-.1-1.6-.2-2.1-.2-1.7-.5 1.9c-.5 1.8-.7 3.2-.7 4.2l1.8.2zm5 1.8v-.7l-.3-4.4-.3-5.1c-.8 0-1.2-.1-1.4-.2-.2-.1-.3-.2-.3-.4l.2-.3.4-.1 2.7.2h.3c.4 0 .6.2.6.5l-.2.4-.5.1-.9-.1v.2l.3 5.6.3 5.6-.2.4-.4.2h-.3v-1.9zm3.6-11.7c0-.9.2-1.3.7-1.3a3 3 0 0 1 1.6.4c.9.6 1.3 1.5 1.3 2.8 0 1-.4 2.1-1.2 3.2l1 1.4.3.4.2.3.1.3.1.4.1 1.1.1.7-.1.5-.1.6-.1.4-.1.4-.1.3-.2.3-.2.3-.3.3-.3.2c-.4.3-.8.5-1.1.5l-.5.1h-.1l-.7-.1c-.2-.1-.3-.2-.3-.4l.1-4.8-.1-8v-.3zm1.3-.2c-.2 0-.3.2-.3.7v4.4c.5-.1.9-.7 1.2-1.7l.3-1v-.7c0-.4-.1-.8-.4-1.1-.1-.4-.4-.6-.8-.6zm.5 6.2h-.7l.1 6.7c.6-.1 1.1-.4 1.5-.9.4-.5.5-1.1.5-1.8.1-2.3-.4-3.6-1.4-4zm8.7 2.2c0 3.8-.8 5.7-2.3 5.7-1.4 0-2.2-1.8-2.4-5.4V274c0-2.8.4-4.5 1.2-5.1.2-.2.4-.2.7-.3l.7.2.6.2c.2.1.5.4.8.9.3.5.5 1.1.6 1.8l.2 2.3v2.3zm-3.7-4.6v4.6l.1 1.1.1 1.1.2 1.1.2.9c.2.6.4.9.7.9.4 0 .7-.4.9-1.1.3-1.1.4-2.4.4-3.9v-2l-.2-2.9c-.1-.5-.2-.9-.4-1.1-.2-.5-.5-.8-1-.8-.6-.2-1 .6-1 2.1zm7.3 8.1v-.7l-.3-4.4-.3-5.1c-.8 0-1.2-.1-1.4-.2-.2-.1-.3-.2-.3-.4l.2-.3.4-.1 2.7.2h.3c.4 0 .6.2.6.5l-.2.4-.5.1-.9-.1v.2l.3 5.6.3 5.6-.2.4-.4.2h-.4l.1-1.9zm114.5 103.5c.9-5 1.4-8.5 1.6-10.5v-.1c0-.2.1-.3.3-.4l.4-.1.3.1a202.6 202.6 0 0 0 .3 7.4l.1 7c0 .4-.1.7-.4.9l-.3.1c-.3.1-.4 0-.4-.2v-10.9l-.4 2.3-.5 2.5-.2 1.3-.1.9-.2.8c-.1.6-.4.9-.6.9-.4 0-.6-.6-.6-1.8l-.6-3.8-.7-3.9v2.7l.2 8.2c0 .3-.1.5-.3.7a1 1 0 0 1-.7-.3 2 2 0 0 1-.2-.9l.1-3.3-.1-7.6v-2.5l.5-.3c.4 0 .8 1.2 1.2 3.5l.9 5 .4 2.3zm10.3-1.6l.1 1.2v1.6c0 1.2-.2 2-.5 2.4-.3.4-.8.7-1.4.7a2 2 0 0 1-1.8-.9c-.4-.5-.6-1.1-.8-2l-.5-2.1-.2-4.4-.2-4.8-.1-.4.2-.4.4-.2c.5 0 .7.5.7 1.4l.2 6.8.2 1 .1 1.2.1 1.1.4 1.3.6 1.1c.3.3.6.5.9.5.5 0 .8-.5.8-1.4v-9.2l-.2-1.7-.2-1.5c0-.3.1-.4.2-.5l.4-.1.6.5v.3l-.2 1.2.1 3.3.2 3.3-.1.7zm-4-11.3l-.2.5-.5.2-.4-.2-.1-.5.2-.5.5-.2.5.2v.5zm3.3.7l-.5-.2a.8.8 0 0 1-.2-.5l.2-.5.5-.2.5.2.2.5-.2.5c-.1.2-.3.2-.5.2zm2.3 16c0-.4.1-.5.4-.5l.6.1.6.1.6-.3.5-.8c.2-.7.4-1.3.4-1.8l-.3-1.8-.7-1.8-.8-1.7c-.7-1.3-1-2.5-1-3.6a3 3 0 0 1 1-2.4c.3-.3.8-.5 1.2-.5l.7.2.5.5v.4c-.6 0-.9-.1-1.1-.2-.2 0-.5.1-.6.3-.3.4-.5.8-.5 1.3l.2 1.6.5 1.5.6 1.3.5 1 .2.4v.2l.2.8.3.9c.2.6.2 1.1.2 1.6l-.2 1.3-.5 1.2c-.2.4-.5.7-.8.9-.4.2-.7.4-1 .4h-.8l-.6-.2c-.1-.1-.3-.2-.3-.4zm1.4 2.2l.2-1.1v-.5h1.1l-.1.9c.5.1.9.3 1.1.7.2.4.3.9.3 1.3 0 .5-.2.9-.5 1.3-.4.4-.7.6-1.1.6l-.9-.2a.5.5 0 0 1-.3-.5l.1-.4.4-.1.5.2.3-.2.1-.4v-.3l-.1-.4-.1-.3.3.3v-.1l-.2-.5h-.5l-.3-.1c0 .2-.1 0-.3-.2zm7-13.4v2.5c0 1.2.1 2.2.3 3l-.1 1.5.2 3.5c0 .6-.2 1-.6 1a.5.5 0 0 1-.5-.3l-.2-.7.2-3.1-.1-3.1-.1-3.1v-1.7l-.2-1.8-1.1.1-.4-.1-.2-.4c0-.2.2-.3.5-.4l1.2-.2 2-.1.4.2.2.4-.2.4-.4.1h-.9v2.3zm4.9 4.2h-.5l-.3.1v6.1l1-.1c.7 0 1.1.2 1.1.5v.1c-.1.2-.2.3-.5.4l-.6.2h-1.2c-.5 0-.8-.1-.9-.3l-.1-.4v-14.2l1.7-.2.6.2c.2.1.3.3.3.5 0 .4-.3.6-.9.6h-.8l.2 3.2v2.2l.3-.1.6-.1.4.2.2.4-.1.4c-.3.3-.4.3-.5.3zm6.9 6.8c0 .4-.2.6-.5.6-.2 0-.5-.2-.7-.5v-.1a9 9 0 0 0-.5-2.2c-.3-.9-.5-1.5-.5-1.9l-.3-1.8-.4-2v7.8c0 .4-.2.6-.6.6l-.4-.2-.2-.4v-.2l.1-11.5v-2.4l.1-.3.6-.1.9.3.8.8c.4.7.6 1.4.6 2.2 0 .6-.2 1.4-.5 2.2l-.2.6-.2.5.3 1.9.5 1.9.7 2.2.6 1.7v.3zm-3-13.6l-.1 4v.9l.6-.8.3-1.7c0-.7-.1-1.2-.3-1.7-.1-.4-.3-.7-.5-.7zm6.6 12.9h.4c.5 0 .8.1.8.3.1.2 0 .4-.1.5l-.4.1h-2.5c-.4 0-.6-.2-.6-.5s.2-.5.6-.5h.6l.1-1-.2-4-.2-4.6v-3.1l-.5.1c-.3 0-.5-.2-.5-.5 0-.2.1-.3.3-.4l.7-.3 1.2-.1.6.2.2.4-.1.4-.3.2h-.3l-.3.1-.1.3.3 5.8.3 5.8v.8zm-1-15.1a.8.8 0 0 1-.5-.2l-.2-.5.2-.5.5-.2.5.2.2.5-.2.5c-.1.2-.3.2-.5.2z"/><path class="st1" d="M101.8 321.7a926 926 0 0 1-4.8-29.8c-.5-3.3-1.4-6.6-1.3-9.8 20.1-3.3 41.4-7.4 62.2-10.5 2.9-.4 5.8-1 8.6-1 2.3 11 4 22.5 5.9 34l.7 4.8c.1.8-2.1.6-2.1.6-22.1 3.8-44.8 7.4-67 10.9m36.9-25.2c-2.1 1.9-4.1 3.9-6.4 5.7-2.5-1-4.8-2.3-7.2-3.4a1332.8 1332.8 0 0 1-22.1 21.3c21.7-3.6 43.7-7 65-10.4-10-4.2-19.6-8.8-29.3-13.2zm-15.3 1.5c-8.9-4.2-17.9-8.7-26.6-13-.5-.3-1.1-.8-1.7-.6 1.8 12 3.8 24.2 5.4 36.1h.2c7.4-7.6 15.3-14.9 22.7-22.5zm45.7 9.7c.1.3-.6.7-.8.3 0-1 1.2-1.2.6-2.6-.5 0-.4 1.1-1.2 1.1-.5-1.1.8-1.6 1-2.4-.1-.4-.3-.6-.3-1.1-.5.1-.7 1.2-1.4 1.4-1-1.4 1.9-2 .9-3.7-.4.7-.7 1.5-1.5 2l-.4-.3c.2-1.5 2.4-2.3 1.3-4.2-.4.8-.8 1.6-1.5 2.2 0-.2-.3 0-.3-.2.1-1.7 2.4-2.4 1.4-4.6-.4.8-.9 1.6-1.5 2.1 0-.2-.3 0-.3-.2.2-1.7 2.5-2.4 1.4-4.7-.5.8-.8 1.8-1.6 2.4 0-.2-.3 0-.3-.2.2-1.9 2.5-2.7 1.4-5.2-.7.8-.7 2.2-2 2.6-.2-1.9 2.1-2.7 1.7-5.1-.8.5-.7 1.7-1.8 2-.5-1.6 2.2-2.5 1.2-4.2-.4.6-.5 1.5-1.4 1.7-.5-1.5 1.5-1.9 1.2-3.6-.5-.1-.3 1.1-1.1 1.1 0-.1-.2-.1-.2-.3 0-1.2 1.5-1.7.9-3-.3.4-.3 1.1-1.1 1.3 0-.1-.2-.1-.2-.3.1-1.2 1.5-1.5 1.1-3.1-.4-.1-.4.9-1 1 0-.1-.2-.1-.2-.3 0-1.2 1.4-1.4.9-2.9-.4-.1-.4.9-1 1 0-.1-.2-.1-.2-.3-.1-1 1.2-1.5.9-2.4-.2.4-.2.9-.8.9-.6-1 .9-1.7.6-2.4a2391 2391 0 0 1-23.3 21.7l29.5 13.7c-.4-.1-.3-.9-.6-1.2zm-7.9-34.2c.3-.3.9-.6.7-.8-21.1 3.8-42.8 7.3-64.3 10.9 11.2 5.8 23.1 11.5 34.5 17.3 9.5-9 19.5-18.5 29.1-27.4z"/><path d="M203.1 236.7l-.2-31-.1-15.5v-6.6c.1-3.7 1.5-3 5.3-3.4 9.1-1 18.5-.2 27.7-.1l30.6.5 6.6.1c3.3 0 2.2.9 2.7 4.3.8 5.1 1.2 10.2 1.4 15.4.2 4.7.2 9.5.1 14.2-.1 4.8.6 10.6-.5 15.3.6 2-.2 3.1-2.4 3.3H270l-6.4.1c-4.1 0-9-.6-13 .3-3.5.8-4.8 3.6-6.2 6.6l-6.4 13.9 5.3-.7a35.7 35.7 0 0 1-12.2-17.2c-.5-1.4-1.7-2.5-3.2-2.5l-28.1.7c-4.3.1-4.3 6.8 0 6.7l28.1-.7-3.2-2.5a42 42 0 0 0 13.9 20.2c1.5 1.2 4.3 1.5 5.3-.7l6-12.9c1.1-2.4 1.7-3.9 4.3-4.4 2.2-.5 5.2 0 7.5-.1 5.5 0 16.3 2.2 20.3-2.9 1.8-2.3 1.5-5.5 1.7-8.2l.5-14.2c.2-9.5-.1-19-1.3-28.4-.8-5.8-.7-11.5-7.5-12.2-9.3-.9-19.1-.3-28.4-.4-9.8-.1-19.5-.4-29.3-.4-5.2 0-16.3-1-20 3.7-2.1 2.6-1.2 7-1.2 10l.1 16.6.2 33.2c-.4 4.2 6.3 4.2 6.3-.1z"/><path d="M223.8 200.8c-1.4 1.1-2.8 2.3-3.3 4.1a5 5 0 0 0 2.1 5.5c3.3 2 7.2-.4 8.3-3.8 1-3.2-.8-6.6-3.9-7.6-3.2-1-6.7.7-7.8 3.8-1.2 3.3 1 7.3 4.4 8.2 1.7.4 3.7-.6 4.1-2.3.4-1.7-.5-3.7-2.3-4.1l.2.1c-.5-.3.1.1.1.1l-.3-.3s.4.6.1.1l.2.4-.1-.2-.1-.2.1.4v-.4c.1 0-.2.8 0 .2l-.1.2c-.1.2-.4.5-.1.2-.1.1-.5.4-.1.2l-.4.2.2-.1h.2l-.4.1h.4c0 .1-.8-.2-.2 0-.3-.1-.5-.3-.1 0s-.5-.4-.2-.1l-.3-.4c-.1-.2-.1-.3 0-.1 0 .2.1.1 0-.1v-.1.2c-.1.4.1-.7 0-.2 0 .1-.2.6 0 .1.1-.4 0 0-.1.1-.3.4.4-.5.1-.2-.3.3.5-.3.2-.1l.2-.1c-.3.1.3 0 .4 0 .7.1 1.4.8 1.5 1.4.2.6.1.5 0 1s.2-.3 0 0 1-.8.3-.3c1.4-1.1 2.3-2.9 1.2-4.6-.8-1.4-3-2.4-4.5-1.3zm29-2.9c-3.1.9-5 4.3-4.2 7.4.8 3.2 3.9 5.1 7 5.1 1.9.1 3.7-.6 4.8-2.3.8-1.2.9-3 .9-4.4 0-1.8-.6-3.5-1.9-4.7a5.3 5.3 0 0 0-5.1-1.2c-1.7.6-2.8 2.3-2.3 4.1.5 1.7 2.4 2.9 4.1 2.3-.5.2-1.1-.3-1.4-.6-.1-.1 0-.5 0-.1v1.3c0-.2 0-.1 0 0-.1.4.1.3.6-.5.2-.4.4-.6.7-.7h-.2c.2.1.2 0-.2 0h-.1c-.1 0-.5-.1-.1 0-.1 0-.5-.3-.1 0-.5-.3.2-.1 0 0-.4.2.4.3 0 0-.1.4-.1.4 0 .2s.1-.2 0 0l-.2.3-.4.2a3.4 3.4 0 0 0 2.3-4.1 3.5 3.5 0 0 0-4.2-2.3zm-53.5 2.7l-17.3.5c-4.3.1-4.3 6.8 0 6.7l17.3-.5c4.3-.1 4.3-6.8 0-6.7z"/><path d="M184.9 204.4c.2-4.9-2.1-10.2-6.7-12.4-4.8-2.3-9.4.7-11.4 5.2-2.1 4.7-1.9 10.2 2.5 13.5a9.5 9.5 0 0 0 13.1-1.8c2.6-3.4-2.1-8.1-4.7-4.7-1.1 1.5-3 2.5-4.6 1-1.5-1.4-.9-3.8-.1-5.4.8-1.7 1.7-2.4 3.3-1.1 1.6 1.4 2 3.7 1.9 5.7-.2 4.3 6.5 4.3 6.7 0zm96.2 2.7l8.6-.4c2-.1 5 .2 6.9-.7 1.3-.7 1.8-1.7 2.4-3 .3-.8.4-3 1.1-3.5 2-.2 3.1.4 3.4 2 1 1.5.2 1.9-2.5 1.1-1.4-4-7.9-2.3-6.5 1.8 1.6 4.6 5.9 8.1 11 6.3 5.7-2.1 6-8.2 3.6-12.9-2.2-4.4-7.2-7.9-12-4.8a9 9 0 0 0-2.9 3.2c-.4.8-.9 3.2-1.4 3.7-.8.6-3.1.3-4.1.3l-7.6.4c-4.3 0-4.3 6.7 0 6.5z"/><path d="M420.6 216.7c-5.4-2.9-7.1.8-11.8 1.6-3.2.6-3.9-.8-5.6-4.3-1.9-3.9-3.3-8-5.3-11.9-5.6-11.3-14.9-28.2-30.4-24.9-2.4.5-8.4 3.3-8.4 6.6 0 3.1 8.7 5.1 4.7 9.9-1.9 2.3-12.3.8-15.9 2-8.1 2.6-3.6 10.5-7.6 16v6.6c0 3 1.2 18.4-1.4 19.8-1.3.7-5.4-.6-7.1-.5-3.1.2-4.4.7-6.6 2.7-4.1 3.8-4.5 8-1.8 12.4 4 6.3 7.8 5 14 6.7 1.9 7.4 3.1 13.7 8.7 19.8l2.9 2.8c.8 3.1 4.5 7.9 7.6 7.2 2.4 1.8 5.1 3.4 7 5.5 5.5 6.2-3.9 17.3 5.3 22.3a46.7 46.7 0 0 0 27.3 5.1c5.1-.4 12.2-.3 16-4.3-1.4-6.5-2.6-13.2-5.1-19.2-2.2-5.3-2.5-6.8.9-10.5a42 42 0 0 0 10-33.4c-.4-3.8-4.2-11.6-1.9-14.7 1-1.2 4.2-1.9 5.7-3.9 1.5-2.1 2.8-4.9 3.2-7.5.6-4.7-.2-9.7-4.4-11.9z" fill="#fff"/><path d="M465.5 337.6c-3-7.1-11.8-12-18.3-15.7-3.9-2.2-7.7-4.2-11.9-5.9-3.5-1.4-8.1-1.9-11.2-4-2.8-1.9-4.5-5.6-7.5-7.6-3.3-2.2-5-1.4-9-1.2-.4 3.9 3.6 9.2 1.1 12.1-2.6 3-12.8 2.2-16.3 2.4-6.6.5-30.5 3.7-27.3-9.6-.7.6-1.5 1-2.4 1.2l.9-4.2c-6.7-1-8.2 9.3-10 13.6-20.1 2.7-37.1 5.7-50.8 22.3-3.6 4.3-4.5 9.2-.7 13.7 1.9 2.3 4.1 3.5 7.1 4.7 3.4 1.3 6.7 1.7 10.3 2.3 6.9 1.2 13.2 4.3 20.1 5.3 14.8 2.1 30.5-.1 45.4-.1 13.5 0 28.2-.5 41.4-3.7 11.3-2.8 23.6-2.9 34.8-6.2 10.3-3.1 7.9-10.8 4.3-19.4z" fill="#e07a6f"/><path class="st4" d="M460 328.5a75.1 75.1 0 0 0-23.8-13.6 63.3 63.3 0 0 0-11.5-3.3l-.7.1-.2-.3c-2.7-2.1-4.4-5.2-7-7.4-2.5-2.1-5.5-1.6-8.2-.2-.8-4.4-1.2-8.9-2.5-13.1l-.2-.4a35.8 35.8 0 0 0 11.4-20.9 65 65 0 0 0-2.3-28.7c.2.2.4.4.9.4 3.8-.4 6.4-4.1 7.9-7.2 1.9-3.9 2.9-8.7 1.4-13-1.3-4-4.9-5.9-8.9-6.3-3.8-.3-7.9 1.3-8.9 5.2l-4.4-9.4-.6-1.2.1-.1c1.1-1.3.7-2.6-.2-3.8l.3-1.2v-.2l.5-.4c1-1 .3-2.4-.7-3.2l-.4-.3c.8-.4 1.6-1.1 2.2-1.8 1.3-1.7 1.3-4.1.5-6-.7-1.6-1.9-2.7-3.6-2.9a5.3 5.3 0 0 0-2.9-1.9 9 9 0 0 0-.2-4.9c-.2-.5-.5-.7-1-.8h-.5l-.1-.4a10 10 0 0 0-.8-4.5c-.2-.6-.7-.8-1.3-.7-.4.1-.8.1-1.1.3l-.3-.6c1.6-3.6 2.1-8.2-2.9-8.4-1.1 0-2.1.3-3 .9-.6-.3-1.3-.6-2-.7-1.2-.2-2.7 0-3.7.7a4.8 4.8 0 0 0-2-2l-.2-.1c-1.2-1.5-3.2-2.4-5.1-1.5-1.5.7-2.5 2.3-3.1 4.1l-.4-.5c-1.5-1.5-3.7-2.5-5.7-1.9-2.4-.3-5.3-.1-6.8 2l-.2.3-.8.9a4 4 0 0 0-3.2.8c-1.4-.3-2.9-.5-4.3-.6-2.4-.1-5.1.2-7.3 1.4l-.4-.1c-1.9.1-3.3 1-4.3 2.4-2 .5-3.9 2-5 3.5a3.9 3.9 0 0 0-.6 3.4c-.6.7-1 1.5-1.3 2.3a6 6 0 0 0-1.7 2.7c-.7 2.4.1 4.9 1.6 6.7 0 1.5.7 3.1 1.8 4.1-1.5 1.4-1.9 3.3-1.5 5.2-.7 1.9-.3 4 .7 5.7l-.9.6c-1.9 1.7-1.9 4.3-.8 6.4.1 1.1.5 2.1 1.1 3.1v.3c.2 1.1.8 2.4 1.6 3.5l-.4.6a5 5 0 0 0 .3 5c-1 .4-1.9 1.1-2.3 2.2-.7 2.3 2.2 4.6 4.2 4.8 1.9.2 3.8-.7 5-2.2l-.2 2.3-.3 3.7c-3.4-.9-7.2-1.2-10.6-.1-4.6 1.5-6.9 5.7-7.4 10.3-1 9.2 9.1 12 16.3 13 1.3.2 1.9-1.9.6-2-5.9-.8-14.9-2.5-14.8-10.1 0-4 2.2-7.9 6.1-9.2 3.1-1 6.5-.5 9.6.3a216 216 0 0 0-.3 11.3c-1.4-1.7-2.8-3.8-4.9-4.8-2.3-1.2-4.2.3-5.5 2.1-.8 1.1 1 2.2 1.8 1.1.5-.6 1.1-1.4 1.9-1.5.7-.1 1.4.5 1.9 1 1.3 1.2 2.3 2.7 3.5 4 .4.4.9.4 1.2.2v2.4a50 50 0 0 0 5 23.5 41.2 41.2 0 0 0 20.8 16.9v.1c0 3-.3 5.9-.6 8.8-6.6-.1-9.8 6.6-10.3 12.7a79 79 0 0 0-44.5 15.8 30 30 0 0 0-8.2 8.8c-1.9 3.5-1.5 7.2 1.6 9.8 1 .9 2.6-.6 1.5-1.5-6.7-5.5 3.9-13.7 8.1-16.8 2.9-2.1 6-3.9 9.2-5.5 6.2-3 12.7-5.4 19.4-7 4.2-1 8.5-1.6 12.9-1.6l.2 2.4c.3 1.7.9 3.4 1.9 4.7 1.1 1.5 2.7 2 4.4 2.4 4.6 1.2 9.4 1.6 14.1 2.1l6.3.8a66.7 66.7 0 0 0 24.6-2.3c8.4-2.6 15.8-7.9 18.7-16.4l.4.2a75.4 75.4 0 0 1 34.3 16.3c3 2.7 5.8 5.8 7.3 9.6 1.2 2.9 1.4 6 .6 9.1-.4 1.3 1.7 1.9 2 .6 2.7-7.8-2.1-15.2-7.9-20.4zM331.4 189.8l-.1-.2-.2-.7.4.3.3.1-.4.5zm77.9 124.1l.1.3.3.7-.9.5c-2.8 1.4-6 2.1-9.1 2.5a67.1 67.1 0 0 1-22.8-.3c-3.2-.6-6.4-1.5-9.2-3.1l-1.2-.7.4-.9c.2-.8-.6-1.4-1.2-1.3-.3-4.9.6-9.8.7-14.7l2.5 1a35.4 35.4 0 0 0 15.4 2.8c5.4-.4 10.4-2.5 14.8-5.4 1.7-1.1 3.4-2.3 5-3.6 2.2 7.3 2 15.2 5.2 22.2zm.1-93.5c.8-3.1 4.1-4 6.9-3.8 3.3.2 6.1 2 7 5.3 1.1 3.5.1 7.6-1.4 10.8-1.1 2.3-3.2 5.9-6.1 6.2-.7.1-1 .6-1 1.2l-.6-2.2a179 179 0 0 0-2.2-6.8c.5.1 1-.1 1.1-.7.6-2.9 2.4-6 5.8-5.4 1.3.2 1.9-1.8.6-2-4.3-.8-7.2 2.4-8.2 6.2a112 112 0 0 0-3.3-8c.5.1 1.2-.1 1.4-.8zM398 189.6l.5.2-.5.3v-.5zm.3 3.4c.7.3 1.5.8 2 1.2l.7.7c-.1.7-.3 1.2-1 1.5l-.6-.9a12 12 0 0 0-1.6-1.6l.5-.9zm-.1 7.2l-.2.5-.6-1 .8.5zm-3.5-5.7l.1.9-.4-1 .3.1zm-.7-16.1l.1.3-.6-.1.5-.2zm-.1 2.5l.5.6v.3l-.9.2c-.1-.4-.2-.9-.5-1.2.3-.1.7-.1.9.1zm-.9 3.4l.9-.3c-.2.7-.5 1.3-.9 2l-.3-1.2c0-.2.2-.3.3-.5zm-1.1-13.9c.4 1 .1 2.2-.3 3.3l-.3-.2c-.5-.4-1.1-.6-1.8-.7 0-1.1-.3-2.1-.9-2.9 1.1-.5 2.9-.7 3.3.5zm-.6 12.1v.3l-.2-.1.2-.2zm-2.1-7.3c.4.1.9.3 1.3.7l.2.1-1.1 1.8-.6.5-.2.2h-.3l-.2-1.3.9-2zm-1.8 11.4l.1.7-1.5-1.2 1.4.5zm-1.5-6.2l-.8.4-.2-.1v-.1c.5-.2.9-.6 1.3-.9l-.1.3-.2.4zm1.2-9.3c.2.5.3 1 .3 1.6l-1.4.4-.2-.2 1.3-1.8zm-1.2 5.8l-1.2 1.3v-.3l1-1.4.2.4zm-1.9-7.2l1.5.1-1.3 1.8c-.5-.3-.9-.5-1.4-.6h-.6c.1-.7.7-1.2 1.8-1.3zm-.8 3.8l-.2.6-.3-.3.2-.4.3.1zm-1.8 6.1l.4.5v.4l-.6.4c-.3.2-.7.2-1.1.2.6-.5 1-1 1.3-1.5zm-1.3-1.7l-.6.9v-.5l.3-.6.3.2zm-.7-5.5h.2l-.3.3.1-.3zm-.9 1.6l-.2.4h-.1l.3-.4zm-4.1-4.1c.8-1 2.2-2 3.5-1.7.3.7.2 1.5 0 2.3-.7.1-1.4.3-2 .6-.5-.4-1.1-.7-1.6-.9l.1-.3zm1.5 6.3l-.7.9-.6.3.9-1.1.4-.1zm-4.3 4.3l.7.1h.2l.1.2h-1.1l.1-.3zm-.3-6.4l.1 1-.2.5-.9.9c.4-.8.8-1.6 1-2.4zm-2.1-.9l.1-.1a6 6 0 0 1-.8 2.1l-.5-.8 1.2-1.2zm-1.3 6.8l.6-.1.7-.2-.6.5a3 3 0 0 1-1 .4l.3-.6zm-1.6-8.3l.2.3-.6.5.4-.8zm-1.4-2.8l.1.4.2.5-.8 1.2-.6-1.1c.3-.5.7-.8 1.1-1zm-1.1 17.3l.9-.7c.4.2.7.6 1 1 .2.3.3.8.3 1.2l-.6-.4c-.6-.4-1.3-.7-1.9-.8l.3-.3zm1.4 4.6l.5-.1c.4 1.2-.3 2.8-1.3 3.4l-.1.1c.5-1 .9-2.1.9-3.1v-.3zm-2.5-18.6l.1.3h-.2l.1-.3zm-3.1-2.1l.1-.1c.5-.4.9-.5 1.4-.2l.2.1-.6 1.5-1.2-.8.1-.5zm1.2 21.3l-.1.1a6 6 0 0 1-.7-2.6l.2-.1.7.7-.1 1.9zm-1.9-15.8l-.2.3-.6-.3-.5-1.2c.6.4 1 .7 1.3 1.2zm.5 17.6l-1.1.8c-.2-.7-.1-1.7.1-2.3l.1-.4.3.7.6 1.2zm-3.1 4.2l.4-.5a4 4 0 0 0 1.9.2h.2l-.2.2c-.5.3-1.1.6-1.8.5-.3.1-.5-.1-.5-.4zm-1.2-9.6l.6-.6a8 8 0 0 1-.6 2.2c.1-.5.2-1.1 0-1.6zm-.4 8.1l-.1.2-.3.2-.5.3.5-.9.4.2zm-.6-10.6l.2.1-.5.5-.5-.3.8-.3zm-3.1 11.8l-.5.6c-.6.7-1.4 1.6-2.3 2.1l.7-1.7.1-.2 2.1-1.4-.1.6zm-.6-24.9l-.5.3-.6-.4 1.1.1zm-.5 5.8c-.1 0-.1 0 0 0l-.3-.2.2-.5.1.7zm-2.1 5.9l.7.8 1.1.7.3 1.7v1.6c0 .8-.1 1.7-.4 2.5l-.4.2c.5-2.6.3-5.5-1.3-7.5-.1 0-.1 0 0 0zm-.8-10.5c-.7.3-.7 1.4-.1 1.8l-.6.1-.4-2.3 1.1.4zm-1.8 12.7l.6 1c.2.7.2 1.4.1 2.1l-.3-.1-.2-.4-.3-.4c-.1-.7 0-1.5.1-2.2zm.8 13.4l-.3.9h-.1l-.1-.4.5-.5zm-2.2-26.4l.5 2.7-.9.1c-.3-.8-.4-1.6-.4-2.4l.8-.4zm-.8 5.9c.5.4 1.1.8 1.8.9-.6.1-1.2.2-1.6.5a.8.8 0 0 1-.4-.4l.2-1zm-1.2 6.1l.3-.1v1.2l-.8 1.1.5-2.2zm-.3 17.1l-.1.6-.5.1-1.3-.9c.7.2 1.3.3 1.9.2zm-3-25.3l.5-1.1c-.2 1-.1 2 .3 3l.1.3-.3.9c-.1.4-.1.8.1 1.1l-.7.4-.3-.3a7 7 0 0 1 .3-4.3zm.2 15l.4-.3-.1.5-.3-.2zm.1 6.4l-.4-.1-.3-.6.3-.1.4.8zm-.1-10.4l.5-.7-.1.9-.4-.2zm-.8 13l.7.5c-1-.5-2.2-.8-3.3-.8l-.1-.4v-.2l.7-.2h.3c.5.5 1.1.9 1.7 1.1zm-2.9 17.7l.9.2-.5.2-.4-.3v-.1zm-.1-26.5l-.1.1c0-.9.1-1.9.3-2.8l.5-.1c-.3.9-.6 1.8-.7 2.8zm.3 21.6l.4-.1-.1.8-.3-.7zm.2-31.5l-.6-.6.4.1c.4.1.8.3 1.1.6l.2.6-1.1-.7zm.8-5.5c.1 0 .1-.1 0 0-.2.9-.3 2-.3 3-.6-.2-1.3-.3-2-.2.2-1.2 1.4-2.2 2.3-2.8zm-4 10.3c-.3-.7 0-1.5.2-2.2l.1-.3c.8-.3 1.9-.1 2.7.3-.7.8-1.3 1.7-1.7 2.6l-.8.1c-.3-.2-.4-.2-.5-.5zm1.6 28.5a.8.8 0 0 1-.4-.4l.1-.2.3.6zm-1.8-2.3c.1-.7.3-1.9.9-2.3l-.1 1.6-.8.7zm.5 16.1l.4-.4.2 1.2c.2.4.4.7.8 1l.2.2c-1-.4-2.1-1.3-1.6-2zm1.7-4.2c-.2-.4-.2-.9-.2-1.4v-.3c.4.4.9.7 1.4.9-.4.2-.8.4-1.2.8zm3 4c-.4.3-.8.5-1.3.6h-.6l-.2-.4-.1-.4.1-.1c.5-.3 1.4-.2 2.1 0v.3zm1.4-6.3h-.2l1.1-1.1c.2.6-.1 1-.9 1.1zm.5-11.6l.3-.3c.4.5.6 1.1.7 1.7v.1l-.3.1-.4-.3-.3-1.3zm.9 16l-.8-.5c.3-.3.7-.6.9-1l-.1 1.5zm-.9-21.7l-.5-.3h1.7l.3.3-.2.3-1.3-.3zm2 10.2a6 6 0 0 0 .9-1.8l-1.1 6-.4-.4c.6-1.2.8-2.5.6-3.8zm15.6 73.8a32.5 32.5 0 0 1-15.5-25.7 196 196 0 0 1 1.7-42.5c1-6.4 2.3-12.8 4.4-19 1.5-.4 2.9-1.4 4-2.4l.6-.6h.7l2-.8c.2.5.7.9 1.4 1.1.6.2 1.1.3 1.7.2.2.2.5.4.8.4 1.8 0 3.6-.3 5.3-1.1 1.2-.6.2-2.4-1.1-1.8l-1.4.5 1-1.4.1-.2.4-.2c1 .4 2 .4 3.1-.3a5.8 5.8 0 0 0 2.3-4.6c0-.6-.2-1.2-.4-1.7.4-.5.6-1.2.6-2 0-1.6-.8-2.8-1.9-3.6l1.9-.9c18.9-2.5 29 19.4 35.7 33.8 4.4 9.4 8.3 19.1 10.5 29.3a52.5 52.5 0 0 1-1.2 30.9 39.4 39.4 0 0 1-25.2 21.1c-5 1.2-10.1.4-15-1.1-6-1.7-11.6-4.2-16.5-7.4zm39.4 40.1c-3.4.5-6.9.7-10.4.7-3.3 0-6.6-.4-9.9-.8-4.5-.6-9-.9-13.4-1.8l-3.8-1c-.9-.3-1.5-1.1-1.9-2-.8-1.5-1.1-3.3-1.2-5 .7-.3.7-1.4 0-1.8v-.4c.4-4.5 2.9-10.4 8-10.4l-.1 2.3c-.3-1.2-2.2-.6-2 .7a8 8 0 0 0 2.4 4.4 25.2 25.2 0 0 0 10.3 4.7c7.4 1.8 15.4 2 22.9 1.2 4.1-.4 8.2-1.2 12-2.8 1.8-.8 3.7-1.9 4.9-3.5.3-.2.5-.5.5-.8l.4-1.2c.1-.6-.2-1.1-.7-1.3-1.4-.5-2.9-.9-4.4-1a25 25 0 0 1-.9-3.7 8 8 0 0 1 4.4-1.4c1.1.1 2 .9 2.7 1.6 2 2 3.5 4.4 5.7 6.3-3.4 11-14.8 15.4-25.5 17z"/><path class="st4" d="M377.5 271.7c5.1-.2 10.4-2.7 14.3-5.8 4-3.1 7.1-7.2 9.8-11.5 2.2-3.5 3.9-7.3 5.6-11.1.9.2 1.8-1 1-1.8s-1.7-1.7-2.1-2.8c-.5-1.3-2.5-.7-2 .6l.5 1.1-.2.2a53.3 53.3 0 0 1-51.3 16.7c-.2-.1-.5 0-.7.1v-.4c0-1.4-2.1-1.4-2.1 0 0 1.9-.6 3.7-.6 5.6 0 .9 1.2 1.5 1.8.8.3-.4.3-.8.4-1.3v-.9a26 26 0 0 0 11.1 7.6c4.5 1.7 9.6 3.1 14.5 2.9zm14.4-13.6l-.5.3-.1-.2 1.1-.9-.5.8zm5.9-8.5c-.2.2-.3.5-.3.8-2.1 2.1-4.3 4-6.8 5.8l-.1-1.6-.1-.4a69 69 0 0 0 7.3-4.6zm-8.2 9.9l.2.2-.5.4-.2-.2.5-.4zm-1.1-4.3c0 .8.1 1.6.3 2.3a76 76 0 0 1-8.7 5.1l-.8-4c3.1-.8 6.2-2 9.2-3.4zm-35.1 4.4h.2l.3.4.3.3.5.8c-.5-.4-.9-1-1.3-1.5zm5.3 1.3l-.6-.6.6.1v.5zm2.4-.2l-.1-.2c2.7.2 5.4.1 8.1-.1v.2l.3 3.6c-3-.6-5.7-1.9-8.3-3.5zm11.3 4.1l-.9-.1c-.1-1.3-.3-2.6-.3-4l-.1-.4c2-.2 4.1-.6 6.1-1.1l.9 4.4-3.2 1.3-2.5-.1zm5.6 4.3l.6.2h.5c-1.2.2-2.3.3-3.5.2l2.4-.4zm-25.5-52.2a19.5 19.5 0 0 0 5.7-3.2c3.1-.2 6.5 1.9 8.2 4.8 2.8 4.5.7 9.6-.4 14.4h-.2c-4.9-.4-7.1 5.2-5.1 9a13 13 0 0 0-9.5 6.2c-.7 1.2 1.1 2.2 1.8 1.1 2.2-3.4 5.9-5.5 9.9-5.1.9.1 1.5-1.2.8-1.8-2.7-2.1-2-7.2 1.9-7.2v.1c-.5 3.5-.1 7.1 3.2 9.1 2.3 1.4 5.2 1.5 7.8 1.2 5.1-.7 11-3.4 13.1-8.4.5-1.1.7-2.1.8-3.1.3.1.6.2 1 0 2.5-1.4 5.8-2.2 8.6-1.3 1.3.4 1.9-1.6.6-2-3.3-1-7.3-.2-10.3 1.5-.8-5-5.8-9.1-9.8-11.8-1.1-.8-2.2 1.1-1.1 1.8 3.4 2.3 7.3 5.3 8.6 9.4a7 7 0 0 1-1.9 7A16 16 0 0 1 371 243c-2.3-.8-3.2-2.5-3.4-4.8-.3-4.8 2.2-9.4 2.3-14.2.1-4.9-2.8-9.4-7.2-11.4l-2-.7.3-.3c.7-.6.1-1.8-.8-1.8-3.8.1-7.8 1.6-9 5.5v.6c-.1.5.5 1.3 1.3 1zm22.9-8.4l-.1-.2.4-.4c.5-.7 1-1.5 1.6-2.1l.3-.3h.1l.2-.1 2-.7c.5-.2.7-.5.7-.9.8.2 1.5.4 2.2.8 1.2.6 2.3-1.2 1.1-1.8-2.5-1.2-5.6-1.8-8.2-.6-2.8 1.3-3.3 4.3-2.3 7 .4 1.2 2.5.6 2-.7z"/><path class="st4" d="M352.3 232.7c.5-4 4.7-6.3 8.4-6.8 1.3-.2 1.4-2.3 0-2.1-2.1.3-4.4 1-6.3 2.2 2-1.9 4.8-3 7.5-3.4 1.1-.2.9-1.6.1-2a1 1 0 0 0-.6-.5 8 8 0 0 0-7.1.3c-2.4 1.4-3.1 4.1-2.7 6.6.1.5.3.7.7.7a7.6 7.6 0 0 0-2.1 4.3c-.1 1.4 1.9 2 2.1.7zm1.7-6.4l-.3.2v-.2h.3zm24.5-12.5l-.6.4c-.9.7 0 1.9 1 1.7.5.1 1.1-.1 1.3-.7v-.1c2.7-1.6 6.2-1.6 9.1-2.5.4-.1.6-.4.7-.6.6-.3.9-1.1.2-1.6-4.1-3.5-9.6-1.1-11.7 3.4zm3.4 3.5c-1.1.8 0 2.6 1.1 1.8 1.4-1 3.1-1.5 4.7-1.9 1.9-.4 4-.6 5.8.1 1.3.5 1.8-1.6.6-2-2.1-.8-4.5-.6-6.6-.2-2 .4-4 1.1-5.6 2.2zm5 56.1l-6.6 2.8c-1.3.5-.7 2.6.6 2l6.6-2.8c1.2-.5.6-2.6-.6-2z"/><path d="M134.4 248.8s-63.2-.1-60.5 36.3 4 78.7 73.3 66.6c69.3-12.1 68.9-74.7 43.5-96.9s-83.4-55.8-25.1-106.3 170-22.6 153.8 42.8c-16.1 65.5-102.1 131.4-25.2 179.2s224.1 30.9 206.4-40.4c-17.7-71.3-64.2-57.2-68.2-114" fill="none" stroke="#000" stroke-width="2" stroke-linecap="round" stroke-linejoin="round" stroke-miterlimit="10" stroke-dasharray="6,9"/><path class="st1" d="M54.3 229.8c5.8-1.5 5.6 7.4 1 7.3-3.8-.1-5.1-6.2-1-7.3zm1.6 4.6c.6-.7.3-1.5-.2-2.1-2-.2-1 2.1.2 2.1z"/><path d="M79.4 233.4h11.3c2 0 2-3.2 0-3.2H79.4c-2 .1-2 3.2 0 3.2z"/><path d="M83.3 224.8v14.4c0 2 3.2 2 3.2 0v-14.4c0-2.1-3.2-2.1-3.2 0z"/><path class="st1" d="M92.6 163.4c2.9-.5 6.3.7 6.8 2.5 1.7 5.9-11 6.5-10.8 1 .1-1.9 1.7-3.1 4-3.5zm4.1 3.4c-.2-1.9-5.6-1.8-5.2 1 1.4 1.4 5.4.9 5.2-1zm23.9 54.4c2.2-3 9.2-2.7 10.6.5 1 2.4-1.1 5.2-3.9 5.6-5 .7-6.8-2.4-6.7-6.1zm2.7 1.3c-1.2 2.9 6 3.8 5.2.3-.3-1.2-1.8-1.5-3.5-1.2-1 .3-1.5.5-1.7.9zm-49.8-35.9c9.9-1.6 12.7 9.6 3.1 11.3-5.9 1.1-11.7-3.7-8.5-8.5.9-1.4 3-2.4 5.4-2.8zm-1.6 3.3c-.7.4-1.9 1.4-2.1 2.3-.3 1.8 2.1 3.4 3.7 3.6 6.9 1.1 8.5-7.9.8-6.7-.8.1-1.8.3-2.4.8zm41.8-4.2c2.5-.5 3.5.4 3.7 1.5.7 3.4-6.1 4.1-6.2.8-.1-1.4.9-2 2.5-2.3zm110.1 156.5c3.3-1 6.7-.7 9.1.4 1.8.8 3.9 2.4 4.8 4.4 1 2.2.2 4.9-.8 6.3-1.7 2.6-5.5 4.3-9.9 4.4-.5 0-1.2-.1-1.7.1-.6.2-1 .6-1.5.9l-1.5.9c-.7.3-3.3 1.5-3.6.7-.2-.6.9-1 1.4-1.6.2-.2 1.4-1.3 1.3-1.6 0-.2-.8-.4-1-.4a6.7 6.7 0 0 1-4-4.2c-1.6-5.3 2.6-8.9 7.4-10.3zm-1 16c.7-.4 1.3-1 2-1.2.8-.2 1.7-.1 2.4-.1 3.7-.2 7.1-1.6 8.7-3.9.8-1.2 1.6-3.4 1-5.2-.7-2-2.7-3.4-4.5-4.3-2.1-1-4.4-1.2-6.8-.8-3.4.5-6.3 2.5-7.5 4.3a6.2 6.2 0 0 0-.8 5.3c.5 1.8 2 3 3.3 3.7.3.1 1.4.4 1.5.7.2.5-.8 1.8-1 2.1-.2.2-.4.4-.3.5l2-1.1z"/><path class="st1" d="M218.8 347.2l.1.1c-.3.7-.5 1.5-1.1 2-.4-.7.5-1.4.7-2.1h.3zm.7.5c0 .4-.2.8-.4 1.1-.1.3-.3.8-.7.8-.1-.7.4-1.5.9-2l.2.1z"/><path class="st1" d="M220.1 348c.1.4-.1.9-.6 1.1-.4-.3.1-1.2.6-1.1zm.7.2c0 .3-.1.5-.4.6l-.2-.1c0-.3.3-.7.6-.5z"/><path d="M197.2 357h6.8c1.2 0 1.2-1.9 0-1.9h-6.8c-1.2 0-1.2 1.9 0 1.9z"/><path d="M199.5 351.8v8.7c0 1.2 1.9 1.2 1.9 0v-8.7c0-1.2-1.9-1.2-1.9 0z"/><path class="st1" d="M225.4 309.5c1.8-.3 3.8.4 4.1 1.5 1 3.6-6.6 3.9-6.5.6.1-1.1 1.1-1.9 2.4-2.1zm2.5 2.1c-.1-1.2-3.4-1.1-3.1.6.9.8 3.3.5 3.1-.6zm19.4 5.6c1.3-1.8 5.5-1.6 6.4.3.6 1.5-.7 3.1-2.4 3.4-3 .4-4.1-1.4-4-3.7zm1.6.8c-.8 1.7 3.6 2.3 3.1.2-.2-.7-1.1-.9-2.1-.7-.6.1-.9.3-1 .5zm-34.9 5.5c6-1 7.7 5.8 1.9 6.8-3.5.6-7.1-2.3-5.1-5.2.4-.7 1.7-1.4 3.2-1.6zm-1 1.9c-.4.3-1.2.9-1.3 1.4-.2 1.1 1.3 2 2.2 2.2 4.2.6 5.1-4.7.5-4.1l-1.4.5zm25.2-2.4c1.5-.3 2.1.2 2.2.9.4 2.1-3.7 2.5-3.7.5-.1-.9.5-1.2 1.5-1.4zm226.5-164.5c2.3-.5 3.6.7 3.8 2.2.5 4.2-6.1 4.8-6.2.6 0-1.5 1.1-2.2 2.4-2.8zm-.3 3.3c.7 2.7 3.8-1.9 1-1.3-.7.1-1.3.3-1 1.3zm-45.1-16.1c3.4-.7 3.2 4.3.9 4.5-2.3.3-3.9-3.9-.9-4.5zm.9 2.6l-.1-.9h-.4c-.1.5 0 .9.5.9zm16.2 5.3c-1.5-2.3-.7-5.7 1.8-6 1.6-.2 3.6.7 4 2.3.5 2.9-2.8 5.9-5.8 3.7zm2.2-1c2.6.5 1.7-4.9-.9-2.5.1 1.3.1 2.3.9 2.5zm-9 23.1c.5-.1 1-.2 1.2.6.7 3-4.1.2-1.2-.6zm18.6 11.5c4.1-1 4 5.2.7 5.1-2.7-.1-3.6-4.4-.7-5.1zm1.1 3.2c.4-.5.2-1.1-.1-1.5-1.5-.1-.7 1.5.1 1.5zm-28.7 4c4.8-.9 4.3 6.3.4 6.2-2.5-.2-4-5.6-.4-6.2zm1 4.1c1.9-.3-.2-3.8-1.3-1.6.3.7.5 1.7 1.3 1.6zm16-1.8c-.3 3.8-3.7-1.8 0 0z"/><path d="M466 189.7h8c1.4 0 1.4-2.2 0-2.2h-8c-1.5 0-1.5 2.2 0 2.2z"/><path d="M468.7 183.6v10.2c0 1.4 2.2 1.4 2.2 0v-10.2c0-1.5-2.2-1.5-2.2 0zM217.4 378.8l69.1 1.2c2.2 0 2.2-3.3 0-3.3l-69.1-1.2c-2.2-.1-2.2 3.3 0 3.3zm37.1 15.6h46.4c2.2 0 2.2-3.3 0-3.3h-46.4c-2.1-.1-2.1 3.3 0 3.3zm200.2-161h54.7c2.2 0 2.2-3.3 0-3.3h-54.7c-2.1 0-2.1 3.3 0 3.3zm-2-13.4h16.5c2.2 0 2.2-3.3 0-3.3h-16.5c-2.2-.1-2.2 3.3 0 3.3zm44.3 26.8h9.3c2.2 0 2.2-3.3 0-3.3H497c-2.1 0-2.1 3.3 0 3.3zm-432.3 9.1H22.4c-2.2 0-2.2 3.3 0 3.3h42.3c2.1 0 2.1-3.3 0-3.3zm1-41.3h-32c-2.2 0-2.2 3.3 0 3.3h32c2.1 0 2.1-3.3 0-3.3z"/></g></svg>