<svg id="Layer_1" xmlns="http://www.w3.org/2000/svg" viewBox="0 0 708 372"><style>.st1{fill:#2fb2e6}.st2{fill:#fff}.st3{fill:#1d1d1b}.st4,.st5{fill-rule:evenodd;clip-rule:evenodd}.st5{fill:#fff}</style><path d="M241.3 59.6l-2.9.9c-43.7 14.6-81.6 40-106.1 81-4.2 7-8 14.6-8.7 24.7a59.8 59.8 0 0 0 6 28.9 172 172 0 0 0 29.4 88.6c24.6 35.9 60.9 57.5 88.5 60.7 15.2 1.7 28.4-1.1 41.4-4a1799.7 1799.7 0 0 0 139.4-37.5c27.5-8.8 54-19.5 74.1-39.3 8.7-8.6 16.2-18.8 26.9-24.6 8.7-4.7 19.4-6.3 26.6-13a46 46 0 0 0 11.7-24.9 95 95 0 0 0-1.2-42.8 117 117 0 0 0-26-48.4c-12.3-13.3-26.3-21.1-39.1-33.4-8.1-7.8-15.6-17.4-24-23.4a50.3 50.3 0 0 0-25.1-8.9 474.3 474.3 0 0 0-69.8-3.1c-49.6.8-98.1 4.7-141.1 18.5" fill="#cfebf6"/><path class="st1" d="M251.1 243.4l-1.1-22.9c-.2-3.1-.3-6.3.2-9.3.3-2.1 1-4.2 2.5-5.6.8-.7 1.7-1.2 2.7-1.7 7.7-3.9 15.6-7.6 23.5-11.1a4 4 0 0 1 2.6-.5c.7.1 1.2.6 1.7 1 3.4 3 6.3 6.9 10.5 8.5.4.2.8.3 1.2.2.7-.1 1.2-.6 1.7-1 2.4-2.2 5-4.2 7.8-6.1 1.1-.7 2.2-1.4 3.4-1.8 1.5-.5 3.1-.4 4.7-.4 3.5.2 7 .5 10.5 1.1 4.6.8 9.1 2.2 13.5 3.6 2.2.7 4.5 1.4 6.1 3.1a13 13 0 0 1 2.2 4.6 74 74 0 0 1 1.9 35.3c-.1.5-.2 1-.5 1.5-.6 1-1.9 1.4-3 1.7-4.9.9-10-.1-15-.2-11.7-.4-23 3.9-34.7 4.8-9.6.8-19.2-.6-28.8-2l-13.3-2c-.5-.1-1-.2-1.1-.7 0-.4 1-.6.8-.1"/><path class="st2" d="M306.2 189.5c.7-4.3-1-8.9.8-12.9 1.7-3.7 6-5.5 9-8.4 7.2-7.1 5-19.6 10.5-28 1.3 1.7 4 1.8 5.8.7a8.2 8.2 0 0 0 3.4-5.2c.3-1.3.4-2.8-.1-4-1.1-3.1-5.6-4.3-8.1-2.2.6-11.3.3-22.7-.9-34-.1-.7-.2-1.4-.6-1.9-.5-.5-1.2-.7-1.9-.9a70.3 70.3 0 0 0-18.9-1.2c-4.8.2-11.1-11.8-20.1-7.6-4.4 2-7.6 6.6-12.1 8.3-4.5 1.8-6.6 8.2-8.8 12.5-.5 1-.9 2.1-.9 3.2s.5 2.2.8 3.3c1.5 4.4 2 9.2 1.4 13.8 0 .3-.1.7-.3 1-.4.5-1.1.4-1.7.4-3.3-.3-7.2.6-8.5 3.7-1.4 3.2 1.7 7.3 5.2 6.9 1-.1 2-.5 2.9-.2 1.8.6 1.8 3 1.8 4.9 0 3.6.9 7 1.8 10.5 1.3 4.9 2.7 9.9 5.1 14.4 2.4 4.5 5.9 8.6 10.5 10.7.4.2.8.3 1 .7.2.3.2.7.1 1l-.4 8.5a6 6 0 0 0 .3 3c.4.9 1.1 1.6 1.8 2.3 3.2 2.9 6.5 5.7 10 8.3.6.4 1.3.9 1.9.7.5-.1.8-.5 1.1-.9l4.1-4.7c1.4-1.6 2.8-3.2 3.6-5.2.8-1.9 1-4.3-.1-6.1"/><path class="st3" d="M283.3 92.4a19.7 19.7 0 0 0-13.2 9.8c-.7 1.4 1.4 2.6 2.1 1.2 2.4-4.7 6.8-7.3 11.8-8.6 1.4-.5.8-2.8-.7-2.4z"/><path class="st3" d="M271 101c-7 15.2-9.6 32-7 48.6 1.9 12.3 7 25.6 19.9 29.6 14 4.4 28.2-3.5 35.9-15.1a62.9 62.9 0 0 0 7.6-45.7c-3.2-15-15.4-24.4-30.1-26.6-1.5-.2-2.2 2.1-.6 2.3a32.6 32.6 0 0 1 29.3 30.8c1.5 17.6-3 38.8-19.2 48.7a26 26 0 0 1-26.4 1.3c-6.8-3.9-10.4-11.3-12.4-18.6a80.8 80.8 0 0 1 5.2-54.3c.5-1.2-1.6-2.5-2.2-1z"/><path class="st3" d="M275.7 153.1a47.5 47.5 0 0 0 39.1-4.9c1.3-.8.1-2.9-1.2-2.1a45.3 45.3 0 0 1-37.3 4.7c-1.4-.5-2 1.9-.6 2.3z"/><path class="st3" d="M277.8 154.5c2.9 6.4 11.2 9.1 17.8 8.3 7-.9 12.6-5.5 15.4-11.8.6-1.4-1.5-2.6-2.1-1.2a17.2 17.2 0 0 1-12.7 10.4c-5.9 1.1-13.7-1-16.4-6.9-.6-1.5-2.7-.3-2 1.2z"/><path class="st3" d="M279.3 155.9c3.4 2.1 6 4.8 10 5.3s8.6.3 12-2.2c1.2-.9.2-2.8-1.2-2.1-3.1 1.5-6.3 3.2-9.9 2.2-2.5-.6-4.6-2.4-6.6-3.8l-1.2 2.1a25.7 25.7 0 0 0 19.4 1.9c1.4-.4 1-2.3-.3-2.4-1.2-.1-1.3-.1-2.3.7l1.5 1.9c2.1-2 4.3-3.8 6.7-5.4l-1.5-1.9c-2.5 2.5-5 4.8-7.8 7-1.2 1 .5 2.7 1.7 1.7 2.7-2.2 5.3-4.5 7.8-7 .9-.9-.3-2.7-1.5-1.9a57.1 57.1 0 0 0-7.2 5.8c-1 .9.3 2.7 1.5 1.9l1.1-.3-.3-2.4a23.1 23.1 0 0 1-17.5-1.7c-1.4-.7-2.5 1.2-1.2 2.1 6.6 5 11.6 5.3 19 1.6l-1.2-2.1c-3.2 2.4-8.1 2.5-11.8 1.5-3-.8-5.1-2.9-7.8-4.6-1.5-.8-2.7 1.3-1.4 2.1z"/><path class="st3" d="M297.5 154.4v3.3c0 1.6 2.4 1.6 2.4 0v-3.3c0-1.6-2.4-1.6-2.4 0zm-6 .8c-.1 1.6-.1 3.3.1 4.9.1.7.5 1.2 1.2 1.2.6 0 1.3-.6 1.2-1.2-.2-1.6-.3-3.3-.1-4.9.1-1.6-2.3-1.6-2.4 0zm-6.6 0l.3 4.4c.1 1.5 2.5 1.6 2.4 0l-.3-4.4c-.1-1.5-2.5-1.6-2.4 0zm43.7-24.5c.5-2.4 3.6-2.3 5.1-.9 1.2 1.2 1.3 3.1 1.3 4.7 0 .7 0 1.4-.2 2.1-.3 1.6-.6 2.3-2.3 2.7-2.1.5-3.5-.6-4.5-2.4-.8-1.4-2.9-.1-2.1 1.2 1.5 2.6 4.8 5 7.9 3.8 3.2-1.3 3.7-5.2 3.6-8.2-.1-3.1-1.4-6.1-4.6-7.1-2.8-.8-5.9.5-6.6 3.5-.2 1.5 2.1 2.2 2.4.6z"/><path class="st3" d="M329 135.6l.1-.2c-.1.1.1-.1 0 0l.4-.2h.2l.2.1.1.2c.4.5 1.3.4 1.7 0 .5-.5.4-1.2 0-1.7-1.4-1.8-4.6-.9-5.1 1.2-.3 1.5 2.1 2.1 2.4.6zm-64-9.1c-2-2.5-5.9-1.4-8.4-.3-3 1.3-4.8 3.4-4.4 6.9.7 6.4 8.6 9.5 13 4.5 1-1.2-.7-2.9-1.7-1.7-2.9 3.3-7.9 1.7-8.8-2.4-.6-2.7.9-4.2 3.3-5.2 1.5-.6 4.1-1.5 5.3 0 1 1.2 2.7-.6 1.7-1.8z"/><path class="st3" d="M263.6 132.2a5.5 5.5 0 0 0-4.7.4c-1.4.8-.1 2.8 1.2 2.1.9-.5 1.9-.5 2.9-.2 1.4.6 2.1-1.7.6-2.3zm2.9-10.4c2.3-10.8 15.4-9.3 23.7-10.5 6.4-.9 11.8-3.8 15.1-9.5 2.4-4.2 4-10.2.8-14.4-2.5-3.2-6.8-4.2-10.2-2-1.3.9-.1 3 1.2 2.1 5-3.3 8.8 2.9 8.1 7.4-.5 3.5-2.4 7-4.9 9.4-5.2 5.2-12.8 4.6-19.6 5.3-7.2.7-14.9 3.6-16.5 11.5-.4 1.6 2 2.2 2.3.7z"/><path class="st3" d="M268.3 116c.2-2 4.9-3.8 6.5-4.6 2.4-1.1 5-1.9 7.6-2.5 1.5-.3.9-2.7-.6-2.3-3.7.8-7.2 2.1-10.5 4-2.3 1.3-5 2.6-5.4 5.5-.2 1.4 2.2 1.4 2.4-.1z"/><path class="st3" d="M267.3 113.7a32.4 32.4 0 0 1 17.8-7.3c1.5-.1 1.6-2.6 0-2.4a36 36 0 0 0-19.5 8c-1.3 1 .5 2.7 1.7 1.7z"/><path class="st3" d="M269.8 112.8a14 14 0 0 1 5.4-7.5c1.3-1 2.6-1.8 4-2.7.7-.4 3.9-2.6 4.7-2.2 1.4.7 2.6-1.4 1.2-2.1-1.4-.7-2.3-.3-3.6.4-2.5 1.2-5 2.7-7.3 4.3a15.9 15.9 0 0 0-6.8 9.1c-.3 1.5 2 2.2 2.4.7z"/><path class="st3" d="M270.1 110.3c1.9-7.5 11.4-10.9 18-12.8 1.5-.4.9-2.8-.6-2.3-7.6 2.1-17.5 6.1-19.7 14.5-.5 1.5 1.9 2.1 2.3.6z"/><path class="st3" d="M265.2 122.4c-.6-.1-.6-5.2-.5-6 .2-3.1 1.4-6 3.2-8.5a17 17 0 0 1 13.9-6.7c1.6 0 1.6-2.4 0-2.4-7.2 0-14 3.6-17.4 10.2a19.8 19.8 0 0 0-2.1 9.6c.1 1.9 0 5.6 2.3 6.2 1.5.4 2.2-2 .6-2.4z"/><path class="st3" d="M264.9 120.5c-2.8-7.5 5.2-17 12.3-18 1.5-.2.9-2.6-.6-2.3-8.5 1.2-17.3 12.4-14 21 .5 1.4 2.8.8 2.3-.7z"/><path class="st3" d="M265.3 117.8c-.6-3.9 2.1-6.8 4.6-9.3 2.2-2.2 4.5-4.4 7.7-4.7 1.5-.1 1.6-2.5 0-2.4-4.3.3-7.3 3.2-10.2 6.1-3 3.1-5.2 6.5-4.5 10.9.3 1.6 2.7 1 2.4-.6z"/><path class="st3" d="M263 121.1A18.7 18.7 0 0 1 279.1 99c1.5-.2.9-2.6-.6-2.3a21 21 0 0 0-17.8 25.1c.3 1.4 2.6.8 2.3-.7z"/><path class="st3" d="M262.5 107.2c4.5-7 11.5-11.5 19.6-12.8 1.5-.2.9-2.6-.6-2.3a30.5 30.5 0 0 0-21.1 13.9c-.9 1.3 1.2 2.5 2.1 1.2z"/><path class="st3" d="M263.4 110.8c-2.5-10.1 12.8-18.7 21.1-18.1 1.6.1 1.6-2.3 0-2.4-10.2-.7-26.3 9.4-23.5 21.2.5 1.5 2.8.8 2.4-.7z"/><path class="st3" d="M265.4 99.4c2-6.7 12.1-9 18-8.7 1.6.1 1.6-2.3 0-2.4-7.1-.4-18 2.7-20.3 10.5-.5 1.5 1.9 2.1 2.3.6z"/><path class="st3" d="M265.8 98c-1-3.4 4.2-6.1 6.7-7.1 2.4-.9 4.8-1.2 7.4-1 1.6.1 1.6-2.3 0-2.4-5.5-.3-18.7 3.3-16.4 11.2.4 1.4 2.7.8 2.3-.7z"/><path class="st3" d="M264.8 93.8c-3.2 3.1-3.7 7.7-4.1 12-.3 3-.3 6-.1 9.1.2 2.5 1.9 6.9 1.6 9.1l1.8-.7-.2-.1.4 1.7.1-.1c.8-1.3-1.3-2.6-2.1-1.2l-.1.1c-.3.6-.1 1.3.4 1.7l.2.1c.6.4 1.7.1 1.8-.7.6-3.6-1.5-8-1.6-11.8-.2-5.2-.5-13.3 3.6-17.3 1.2-1.3-.5-3-1.7-1.9z"/><path class="st3" d="M260.5 114.9c.2 3.7.9 7.2 2.2 10.7.6 1.4 2.9.8 2.3-.6-1.2-3.2-2-6.5-2.1-10-.1-1.7-2.5-1.7-2.4-.1zm43.7-27.6a21.5 21.5 0 0 0-9.5-8.4l-.9 2.2c7.4 1.5 11.9 10.7 8.6 17.1-2.9 5.5-7.7 10.4-14.3 10.2-1.6 0-1.6 2.4 0 2.4 8.5.3 15.5-7 17.9-14.7 2.2-7.2-4.4-15.9-11.5-17.3-1.3-.3-2.3 1.6-.9 2.2a19 19 0 0 1 8.6 7.5c.7 1.3 2.8.1 2-1.2z"/><path class="st3" d="M296.6 81.1c-1.1-3.2-6.2-2.7-8.8-2.4-1.5.2-1.5 2.6 0 2.4l3.3-.2c.6 0 2.9-.1 3.2.7.4 1.6 2.8 1 2.3-.5z"/><path class="st3" d="M290.3 78.9c-5.2-1.1-10.5 1.6-14.8 4.3-4.2 2.6-7.2 6.2-7.5 11.3-.1 1.6 2.3 1.6 2.4 0 .5-7.5 12.2-14.8 19.3-13.3 1.5.3 2.1-2 .6-2.3z"/><path class="st3" d="M275.2 88.2c2.1-2.3 7-2.8 9.9-2.9 1.6 0 1.6-2.5 0-2.4-3.6.1-9 .8-11.6 3.6-1.1 1.1.6 2.9 1.7 1.7z"/><path class="st3" d="M270.9 88.3c4.2-.6 8.5-1.1 12.7-.3 1.5.3 2.2-2 .6-2.3-4.5-.9-8.9-.4-13.4.2-1.4.2-1.4 2.6.1 2.4zm1.7 13.9l13.1-6.1c1.4-.7.2-2.7-1.2-2.1l-13.1 6.1c-1.5.7-.2 2.8 1.2 2.1zm-1.3 4c1.6 1 3.3.6 5.1 0 2.2-.7 4.4-1.6 6.6-2.5 1.4-.6.2-2.7-1.2-2.1-1.5.7-3 1.3-4.6 1.8-1.3.4-3.3 1.5-4.6.7-1.4-.8-2.6 1.3-1.3 2.1z"/><path class="st3" d="M278 110.2c3.3-2.1 6.4-4.5 9.3-7.2 1.2-1.1-.6-2.8-1.7-1.7a64.5 64.5 0 0 1-8.8 6.8c-1.3.8-.1 2.9 1.2 2.1zm3.3-25.8c4-1.2 8-1.7 12.2-1.7 1.6 0 1.6-2.4 0-2.4-4.4-.1-8.7.5-12.9 1.8-1.5.4-.8 2.8.7 2.3z"/><path class="st3" d="M295.7 82.3c-2.2-.1-4.5.2-6.6.9-1.5.5-.8 2.8.6 2.3 2-.6 3.9-.9 6-.8 1.6 0 1.5-2.4 0-2.4z"/><path class="st3" d="M298.4 82.9l-6.8.8c-1.5.2-1.5 2.6 0 2.4l6.8-.8c1.5-.1 1.6-2.6 0-2.4z"/><path class="st3" d="M301.1 84.8c-3.1-.1-6.1.2-9 .8-1.5.3-.9 2.7.6 2.3a34 34 0 0 1 8.4-.7c1.6.1 1.6-2.3 0-2.4z"/><path class="st3" d="M301.4 86.7l-7.6.5c-1.5.1-1.6 2.5 0 2.4l7.6-.5c1.5-.1 1.6-2.5 0-2.4z"/><path class="st3" d="M302.5 87.5l-8.2.8c-1.5.2-1.6 2.6 0 2.4l8.2-.8c1.5-.1 1.5-2.6 0-2.4z"/><path class="st3" d="M301.3 89.2l-7.4 1.1c-1.5.2-.9 2.6.6 2.3l7.4-1.1c1.6-.2 1-2.6-.6-2.3z"/><path class="st3" d="M302 91.7l-7.1.8c-1.5.2-1.6 2.6 0 2.4l7.1-.8c1.5-.1 1.5-2.6 0-2.4z"/><path class="st3" d="M301.9 93.6c-3.1.5-6.1 1.2-9 2.1-1.5.5-.9 2.8.6 2.3 3-.9 6-1.6 9-2.1 1.6-.2.9-2.6-.6-2.3z"/><path class="st3" d="M300 96.2a38.3 38.3 0 0 1-8.2 3c-1.5.4-.9 2.7.6 2.3 3-.8 6-1.9 8.8-3.3 1.4-.6.2-2.7-1.2-2zm0 3l-7.9 3.1c-1.4.6-.8 2.9.6 2.3l7.9-3.1c1.5-.5.8-2.8-.6-2.3z"/><path class="st3" d="M298.6 100.7c-2.7.9-5.3 2.1-7.8 3.4-1.4.8-.1 2.8 1.2 2.1 2.3-1.3 4.7-2.3 7.2-3.2 1.6-.5.9-2.8-.6-2.3z"/><path class="st3" d="M297.8 102.7a26.7 26.7 0 0 1-8.9 4.1c-1.5.4-.9 2.7.6 2.3 3.4-.9 6.6-2.3 9.5-4.3 1.3-.9.1-3-1.2-2.1z"/><path class="st3" d="M297.2 104.2c-3.5 2-7.3 3.2-11.3 3.4-1.6.1-1.6 2.5 0 2.4 4.5-.3 8.7-1.5 12.5-3.8 1.4-.7.1-2.8-1.2-2zm2.9-10.9c-.6 4.1-4.7 5.9-7.4 8.5-1.1 1.1.6 2.8 1.7 1.7 3-2.9 7.4-5 8-9.6.3-1.5-2.1-2.1-2.3-.6z"/><path class="st3" d="M302.2 95.8a43.6 43.6 0 0 1-15.3 10.5c-1.4.6-.8 2.9.6 2.3a45 45 0 0 0 16.4-11.1c1.1-1.1-.6-2.8-1.7-1.7z"/><path class="st3" d="M294 102.4a85.3 85.3 0 0 1-11.2 4.7c-1.5.5-.8 2.9.6 2.3 4-1.4 7.9-3.1 11.7-5 1.5-.6.3-2.7-1.1-2z"/><path class="st3" d="M293.2 104.1c-5.3 1.3-10.6 2.8-15.8 4.3-1.5.5-.9 2.8.6 2.3 5.2-1.6 10.5-3 15.8-4.3 1.5-.3.9-2.6-.6-2.3z"/><path class="st3" d="M283.1 106.1a42.4 42.4 0 0 1-11.7 2.7c-1.5.1-1.6 2.6 0 2.4 4.2-.4 8.3-1.3 12.3-2.8 1.5-.5.9-2.9-.6-2.3z"/><path class="st3" d="M275.8 104.5c-3 1.8-5.7 4-8.1 6.6-2.1 2.2-4.7 4.9-4.6 8.1 0 1.6 2.3 1.5 2.4 0 .5-4.7 2.1-9.1 4.6-13.2.8-1.3-1.3-2.6-2.1-1.2a34.8 34.8 0 0 0-4.9 14.4h2.4c-.1-2.9 3.3-5.8 5.2-7.7a34 34 0 0 1 6.4-4.9c1.3-.9.1-3-1.3-2.1z"/><path class="st3" d="M266.8 103.4l-.9-.3.7 1.8c2.6-5.6 7.7-9 13.2-11.3 1.4-.6.8-2.9-.6-2.3a26.5 26.5 0 0 0-14.7 12.4c-.3.7-.1 1.5.7 1.8l.9.3c1.6.5 2.2-1.8.7-2.4z"/><path class="st3" d="M267 100.5c3.4-7.4 11.2-9.6 18.4-11.4 1.5-.4.9-2.7-.6-2.3-7.8 2-16.2 4.6-19.8 12.5-.7 1.4 1.4 2.6 2 1.2z"/><path class="st3" d="M269.4 95.6c1.4-2.9 5.9-5 8.7-6.4 3.6-1.8 7.5-2.9 11.6-3.4 1.5-.2 1.5-2.6 0-2.4a41 41 0 0 0-12.8 3.7c-3.1 1.5-7.9 4-9.6 7.3-.7 1.4 1.4 2.6 2.1 1.2z"/><path class="st3" d="M277.5 87.6c3.7-1.6 7.5-2.7 11.4-3.5 1.5-.3.9-2.6-.6-2.3-4.1.8-8.1 2-12 3.7-1.4.6-.2 2.7 1.2 2.1zm2.7 9.6l-.2-.2.4.9 3.3-1.1 3.6-.8c1.5-.2.9-2.6-.6-2.3-1.7.2-11.1 2-8.1 5.3 1 1 2.7-.7 1.6-1.8z"/><path class="st3" d="M266.2 102.4c.5.7 1 .6 1.4-.1l1.7-1.3a33.3 33.3 0 0 1 8.4-4.4c1.5-.5.8-2.9-.6-2.3a38.5 38.5 0 0 0-10.5 5.8c-1 .8-2.4 1.7-2.2 3.2.1 1 .9 1.5 1.9 1.5 1.5 0 1.5-2.5-.1-2.4z"/><path class="st3" d="M264.5 109.7a40 40 0 0 1 9.3-16.4c1.1-1.1-.7-2.9-1.7-1.7-4.6 5-8 10.9-9.9 17.5-.5 1.5 1.9 2.1 2.3.6z"/><path class="st3" d="M264.4 102.1c-.6-2.4 2.4-6.7 3.7-8.6 1.8-2.5 3.9-4.5 6.9-5.4 1.3-.4 1-2.3-.3-2.4-5-.4-8.7 7.5-11 11l2.1 1.2c2.6-5.5 6.8-9.5 12.3-11.9 1.4-.6.2-2.7-1.2-2.1-5.9 2.5-10.4 7-13.2 12.8-.7 1.4 1.2 2.6 2.1 1.2 1.6-2.5 5.2-10.1 8.9-9.8l-.3-2.4a15.5 15.5 0 0 0-8.4 6.5c-1.9 2.8-4.7 6.9-3.9 10.4.3 1.7 2.6 1 2.3-.5zm21.5-20.8c5.2-1.1 12.6-.5 17.2 2.4 6 3.8 2.7 14.5-1 19l1.9 1.5c4.9-7.2 6.5-15.6-.8-21.9-1-.8-2.8.3-1.9 1.5 1.7 2.4 3.1 5.4 3.7 8.4 1.1 5-1 7.7-4.9 10.4-1.3.9-.1 3 1.2 2.1 3.1-2.2 6.2-4.7 6.6-8.7.4-4.4-2-9.9-4.5-13.4l-1.9 1.5c6.5 5.6 4.7 12.7.5 19-.8 1.1 1 2.5 1.9 1.5 3.9-4.8 7.3-14.6 3.4-20.2-4.3-6-15.4-6.8-22-5.3-1.5.2-.9 2.5.6 2.2z"/><path class="st3" d="M307.8 90.6a4 4 0 0 0-1.9 4.8c.5 1.5 2.8.9 2.3-.6-.2-.8.1-1.6.8-2 1.4-.9.2-3-1.2-2.2z"/><path class="st3" d="M307.8 89.6c-3.1 4.9-4.7 11.1 1.8 13.9 5.4 2.2 10.4 3.5 12.8 9.5 2.1 5.2 1.8 11.8 2.4 17.3.2 1.5 2.6 1.6 2.4 0-.7-6.6-.2-15.6-4.2-21.3a16.4 16.4 0 0 0-7.1-5.7c-1.2-.6-2.6-.8-3.8-1.4-5.8-2.8-4.8-6.7-2.2-11 .8-1.4-1.3-2.6-2.1-1.3z"/><path class="st3" d="M307.8 94.5c1-7.3 10.8-4.8 14.4-1.8 4 3.4 4.9 8.4 5.2 13.4a129 129 0 0 1-1.5 27.8c-.2 1.5 2.1 2.2 2.3.6 1.2-7.9 1.9-15.8 1.7-23.8-.1-5.9-.3-12.6-3.9-17.5-4.4-5.9-19.2-9.8-20.6.6-.1 1.6 2.2 2.2 2.4.7z"/><path class="st3" d="M307.7 102.5c1.8.1 3.5.7 4.9 1.8 1.2 1 2.9-.8 1.7-1.7a11.2 11.2 0 0 0-6.6-2.5c-1.6-.1-1.6 2.4 0 2.4z"/><path class="st3" d="M308.2 98.7c1.5.8 2.9 1.6 4.3 2.6.5.4 1.3.1 1.7-.4.4-.6.1-1.3-.4-1.7-1.3-1-2.8-1.9-4.3-2.6-1.5-.7-2.7 1.4-1.3 2.1z"/><path class="st3" d="M307.9 100.7c1.7.1 3.3.5 4.9 1.3 1.4.7 2.6-1.4 1.2-2.1-1.9-1-3.9-1.6-6.1-1.7-1.5 0-1.5 2.4 0 2.5zm.3-3.6l6.8 2.5c1.5.5 2.1-1.8.6-2.3l-6.8-2.5c-1.4-.6-2 1.7-.6 2.3z"/><path class="st3" d="M309 96.1c1.5 0 3 .5 4.3 1.4 1.2 1 2.9-.8 1.7-1.7a9.5 9.5 0 0 0-6-2.1c-1.5 0-1.5 2.4 0 2.4z"/><path class="st3" d="M308.2 94.3l6.8 1.5c1.5.3 2.2-2 .6-2.3l-6.8-1.5c-1.5-.4-2.2 2-.6 2.3z"/><path class="st3" d="M310.1 94l4.9.8c1.5.3 2.2-2.1.6-2.3l-4.9-.8c-1.5-.3-2.2 2-.6 2.3z"/><path class="st3" d="M310.1 92.4l6.3.6c1.6.2 1.5-2.3 0-2.4l-6.3-.6c-1.5-.2-1.5 2.2 0 2.4z"/><path class="st3" d="M311.5 91.4l3 .6 1.3.4c.2.1 1.2.5 1 .2l.2-1.5-.1.1.9-.4h-.1l1.2.9v-.1c-.4-1.5-2.7-.9-2.3.6v.1c.1.6.6.8 1.2.9.4 0 .8-.1 1-.4.4-.4.4-1 .2-1.5-.5-1-2.1-1.2-3.1-1.5-1.4-.4-2.8-.7-4.3-.8-1.6-.2-1.6 2.2-.1 2.4z"/><path class="st3" d="M313.9 91.1l4.1 1.5c1.2.4 3 .9 3.5 2.2.5 1.5 2.9.8 2.3-.6-1.3-3.4-6.2-4.3-9.3-5.4-1.4-.5-2 1.8-.6 2.3z"/><path class="st3" d="M315.5 91.3c1.7.7 3.2 1.6 4.6 2.8 1.2 1 2.9-.7 1.7-1.7a19.1 19.1 0 0 0-5.6-3.4c-1.5-.7-2.1 1.7-.7 2.3z"/><path class="st3" d="M313.7 92.8c1.9.8 3.7 1.8 5.3 3.2 1.2 1 2.9-.7 1.7-1.7a23 23 0 0 0-6.4-3.8c-1.5-.6-2.1 1.7-.6 2.3z"/><path class="st3" d="M313.3 92.6a18 18 0 0 0 5.2 3.4c1.4.6 2.6-1.4 1.2-2.1-1.7-.8-3.3-1.8-4.7-3-1.1-1-2.8.7-1.7 1.7z"/><path class="st3" d="M312.2 95.2c1.9.7 3.6 1.7 5.1 3 1.2 1 2.9-.7 1.7-1.7a18.3 18.3 0 0 0-6.2-3.6c-1.4-.6-2 1.8-.6 2.3z"/><path class="st3" d="M312.2 96.9c1.3.7 2.4 1.6 3.4 2.7.4.5 1.3.4 1.7 0 .5-.5.4-1.2 0-1.7-1-1.3-2.4-2.4-3.9-3.1-1.4-.7-2.6 1.4-1.2 2.1zm-1.1 3.4c1.4.5 2.5 1.4 3.5 2.5 1 1.2 2.7-.5 1.7-1.7a11.7 11.7 0 0 0-4.5-3.1c-1.5-.6-2.1 1.8-.7 2.3z"/><path class="st3" d="M309.8 100.7c1.9.9 3.7 2.1 5.3 3.5 1.2 1 2.9-.7 1.7-1.7a22.7 22.7 0 0 0-5.8-3.9c-1.4-.7-2.6 1.4-1.2 2.1zm10.8 6c.6-.3.7-.9.6-1.4 0-.3-.2-.5-.4-.7-.4-.4-1-.4-1.5-.2h-.1c-.4.2-.6.7-.6 1 .1 1.2 1.2 1.8 1.8 2.6.7 1 1.2 2.2 1.5 3.4.3 1.5 2.7.9 2.3-.6a14 14 0 0 0-1.3-3.4c-.6-1-1.5-1.8-2.2-2.7l.4.9v-.2l-.6 1h.1l-1.5-.2-.2-.3.6-1.4h-.1c-1.5.7-.2 2.8 1.2 2.2z"/><path class="st3" d="M321.1 103.8c1.2 3.1 2.2 6.3 3 9.5.4 1.5 2.7.9 2.3-.6-.8-3.2-1.8-6.4-3-9.5-.5-1.5-2.8-.8-2.3.6z"/><path class="st3" d="M322.2 103.8a32.3 32.3 0 0 1 1.8 8.3c0 .4.3 2.2.2 2.3h1.7l-.1-.2v1.7l.1-.1c1.2-1-.5-2.7-1.7-1.7l-.1.1c-.6.4-.4 1.3 0 1.7l.1.2c.4.5 1.3.4 1.7 0 1.2-1.2.5-3.9.3-5.3-.3-2.6-.9-5.2-1.8-7.7-.3-1.4-2.7-.8-2.2.7z"/><path class="st3" d="M323.6 102.7c1.3 4.4 1.8 8.9 1.4 13.5l2.4-.3-.2-1c0-1.6-2.4-1.6-2.4 0 0 .8 0 .9.3 1.6.5 1.3 2.3 1.1 2.4-.3.4-4.8-.1-9.5-1.5-14.1-.5-1.5-2.9-.9-2.4.6z"/><path class="st3" d="M324.1 99.7a27.6 27.6 0 0 1 1.4 16.8h2.3l-.3-2.5c-.2-1.5-2.5-.9-2.3.6l.3 2.5c.2 1.2 2.1 1.1 2.3 0 1.4-6.1 1-12.3-1.4-18.1-.5-1.3-2.9-.7-2.3.7z"/><path class="st3" d="M324.4 98.9l1.5 5.1c.4 1.2 1 2.5 2.6 1.9 1.1-.4 1.5-1.8.6-2.7-.8-.8-2.3-.6-2.8.4-.7 1.4 1.4 2.6 2.1 1.2.4-.8-.5-2.8-.7-3.7l-.9-3c-.5-1.4-2.8-.7-2.4.8z"/><path class="st3" d="M323.5 98.6c1 5.4 2.4 10.3 2.1 15.9-.2 4.7-.5 9.2.8 13.8.4 1.5 2.8.9 2.3-.6-1.6-5.7-.4-11.2-.6-17-.1-4.4-1.5-8.4-2.3-12.6-.2-1.7-2.6-1-2.3.5zm-24.7-9.8c-.1 2 .3 3.9 1.3 5.7.6 1.1 2.2.5 2.3-.6.1-1 .3-1.7.8-2.5l-2.2-.3.6 2.7c.3 1.3 1.9 1 2.3 0a7 7 0 0 0 .5-2.5l-2.4.3c.2.9.3 1.7.2 2.5-.1 1.6 2.3 1.6 2.4 0l-.3-2.1c-.5-1.2-2.4-1.1-2.4.3a5 5 0 0 1-1 3.4c-1 1.2.8 2.9 1.7 1.7a7.3 7.3 0 0 0 1.7-5.1l-2.4.3c.2.5.3.9.2 1.4h2.4c.1-1.1-.1-2.1-.3-3.2-.3-1.4-2.3-1-2.4.3 0 .7-.2 1.2-.4 1.8h2.3l-.6-2.7c-.2-1.1-1.7-1.1-2.2-.3a8.5 8.5 0 0 0-1.2 3.7l2.3-.6a7.9 7.9 0 0 1-1-4.5c.4-1.3-2.1-1.3-2.2.3zm-18.9 9.3a25 25 0 0 1 7.9-2.9c1.5-.3.9-2.6-.6-2.3-3 .5-5.9 1.6-8.5 3.1-1.3.8-.1 2.9 1.2 2.1zm.3 5.1c2.8-1.2 5.7-2 8.7-2.5 1.5-.3.9-2.6-.6-2.3-3.2.5-6.3 1.5-9.3 2.8-1.5.5-.2 2.6 1.2 2z"/><path class="st3" d="M280.9 105.3a18 18 0 0 1 6.9-2.2c1.5-.2 1.6-2.6 0-2.4-2.9.3-5.5 1.1-8.1 2.5-1.4.7-.2 2.8 1.2 2.1z"/><path class="st3" d="M280.1 105.8c2.6-.9 5.3-1.7 8-2.2 1.5-.3.9-2.6-.6-2.3-2.7.5-5.4 1.3-8 2.2-1.5.5-.9 2.9.6 2.3z"/><path class="st3" d="M286 107.3l3.6-1.8c1.4-.7.2-2.8-1.2-2.1l-3.6 1.8c-1.5.7-.2 2.8 1.2 2.1zm8.6-9.7l-3.1 1.3c-.6.3-.7 1.1-.4 1.7.4.6 1.1.7 1.7.4l3.1-1.3c.6-.3.7-1.1.4-1.7-.4-.5-1.1-.6-1.7-.4z"/><path class="st3" d="M294.3 97.9l-2 .6c-1.5.4-.9 2.8.6 2.3l2-.6c1.5-.4.9-2.7-.6-2.3zm.5-10.3c-1.5.1-2.9.3-4.3.7-1.5.4-.9 2.7.6 2.3a22 22 0 0 1 3.7-.6c1.6 0 1.6-2.5 0-2.4z"/><path class="st3" d="M293.2 85.6c-1.2-.1-2.4 0-3.5.2-.6.1-1 .9-.8 1.5.2.7.8 1 1.5.8 1-.2 1.9-.2 2.9-.1.7 0 1.2-.6 1.2-1.2-.1-.6-.7-1.1-1.3-1.2z"/><path class="st3" d="M292.5 85.4c-1.3-.2-2.5-.3-3.7-.2-1.5.1-1.6 2.6 0 2.4 1-.1 2.1-.1 3.1.1.6.1 1.3-.2 1.5-.8.1-.6-.2-1.4-.9-1.5zm5 8.5l-4-.6c-.7-.1-1.3.2-1.5.8-.2.6.2 1.4.8 1.5l4 .6c.7.1 1.3-.2 1.5-.8.2-.6-.1-1.4-.8-1.5zm.4 2.6l-3.2 1c-1.5.5-.8 2.8.6 2.3l3.2-1c1.5-.5.9-2.8-.6-2.3z"/><path class="st3" d="M297.8 98.1h-2.2c-1.6 0-1.6 2.4 0 2.4h2.2c1.6 0 1.6-2.4 0-2.4z"/><path class="st3" d="M296.2 98.4l-3 1.6c-1.4.7-.2 2.8 1.2 2.1l3-1.6c1.4-.7.2-2.8-1.2-2.1zm-17.9 8.3h-1.4c-1.6 0-1.6 2.4 0 2.4h1.4c1.6 0 1.6-2.4 0-2.4zm17 17.5c-.1 3-.8 6.4 0 9.3.6 2.5 2 3.4 1.3 6.6-.5 3.1-2.5 4.5-6.2 4.1-3.1-2.7-3.2-5.1-.3-7.2 1.3-.8.1-2.9-1.2-2.1-6.1 3.7-2.4 13.3 4.6 12.3 3.6-.5 5.5-5.2 5.8-8.4.1-2-.8-3.4-1.3-5.2-1-3-.4-6.5-.3-9.6.1-1.4-2.3-1.4-2.4.2zm17.1 20.6a9 9 0 0 0 1.9 3.6c1 1.2 2.8-.6 1.7-1.7a6 6 0 0 1-1.3-2.5c-.3-1.6-2.7-.9-2.3.6zm-37.8 4.6c-.3 1.6-.8 3.1-1.4 4.6-.2.6.3 1.3.8 1.5.7.2 1.2-.2 1.5-.8.6-1.5 1.1-3 1.4-4.6.3-1.6-2-2.3-2.3-.7zm16.3 19c1-.3 2-.4 3-.2 1.5.3 2.2-2 .6-2.3a9 9 0 0 0-4.3.2c-1.4.5-.8 2.8.7 2.3zm11.7-43.2h7.3c1.4 0 3.6.4 4.5-.8.4-.5.4-.9.2-1.5-.8-1.7-3-2.4-4.7-2.5-2.6-.1-4.9 1.3-7 2.6-1.1.7-.4 2.6.9 2.2l.6-.2c1.5-.4.9-2.8-.6-2.3l-.6.2.9 2.2c1.7-1.1 6.9-4.2 8.3-1l.2-1.5c-.2.2-2.2.1-2.4.1h-7.8c-1.3 0-1.3 2.5.2 2.5zm-17.9 1.4l.6-.1c1.3-.3 1-1.9 0-2.3-2.7-1.1-9.7-1.6-10.3 2.7-.2 1.5 1.2 2.5 2.6 1.8 1-.5 1.7-1.2 2.8-1.6 1.3-.4 2.6-.4 3.9-.1 1.5.4 2.2-2 .6-2.3-1.5-.3-3-.4-4.5-.1-.7.1-1.4.4-2 .7-.7.3-1.5 1.1-2.2 1.3l.9.1-.3-.2.6.7c-.3-1 3-1.4 3.4-1.4 1.3-.1 2.5.2 3.7.7v-2.3l-.6.1c-1.4.3-.7 2.7.8 2.3zm16.7-10.5c.1-.2 2.6-.7 2.7-.7a15 15 0 0 1 3.7-.4c2.1.1 4 .9 5.4 2.4 1.1 1.1 2.8-.6 1.7-1.7a10.7 10.7 0 0 0-8.1-3.2c-2.3.1-6.8.4-7.7 2.9-.6 1.5 1.7 2.1 2.3.7zm-20.7.5c-4.6-.8-8.9 1-11.7 4.7-.9 1.2 1.2 2.5 2.1 1.2a9.5 9.5 0 0 1 9-3.6c1.5.3 2.1-2.1.6-2.3zm-.8 61.7c.5 3.6.7 7.2.7 10.8 0 1.6 2.4 1.6 2.4 0 .1-3.8-.2-7.6-.8-11.4-.2-1.6-2.5-.9-2.3.6zm26.9-3.6a44 44 0 0 0-.3 14.5c.2 1.5 2.6.9 2.3-.6-.6-4.4-.5-8.8.3-13.2.3-1.6-2-2.3-2.3-.7zm-10.5 28.5c3.3 3.1 7 5.7 11 7.8.6.3 1.6.1 1.8-.7l.2-1.1c.3-1.5-2.1-2.2-2.3-.6l-.2 1.1 1.8-.7c-3.9-2-7.4-4.4-10.6-7.4-1.2-1.2-2.9.5-1.7 1.6z"/><path class="st3" d="M295.8 202.8c3.1-1.4 5.3-3.7 7.7-6.1 2.4-2.4 5-4.6 6.8-7.5l-2.3-.6c.3 7.2.3 14.4 0 21.6-.1 1.6 2.4 1.6 2.4 0 .3-7.2.2-14.4 0-21.6 0-1.2-1.6-1.6-2.3-.6-1.7 2.6-4.2 4.8-6.4 7s-4.3 4.4-7.2 5.7c-1.3.7-.1 2.8 1.3 2.1z"/><path class="st3" d="M296.4 201.8c-4.9-4.3-9.7-8.7-14.4-13.2-.8-.7-2-.2-2.1.9l-.5 24.1c0 1.1 1.3 1.5 2.1.9l14.1-12.3c1.2-1-.5-2.7-1.7-1.7l-14.1 12.3 2.1.9.5-24.1-2.1.9c4.7 4.5 9.5 8.9 14.4 13.2 1.2.8 2.9-.9 1.7-1.9z"/><path class="st3" d="M293.3 202.4c.4 7.5 1 15 1.8 22.5.2 1.5 2.6 1.6 2.4 0a426 426 0 0 1-1.8-22.5c0-1.6-2.4-1.6-2.4 0zm-13.5-11.3c-6.8 2.7-13.7 5.2-20.4 8-4.3 1.8-8.5 4-10.7 8.3-2.4 4.8-1.9 10.5-1.5 15.6.5 6.9 1.5 13.8 2.8 20.6.3 1.5 2.6.9 2.3-.6-1.1-5.6-1.9-11.3-2.5-17-.5-5.3-1.5-11.7.7-16.7 2.5-5.7 8.3-7.4 13.7-9.5l16.1-6.3c1.6-.6.9-3-.5-2.4zm29.9 1a1096 1096 0 0 0 17.7 3.2c6.9 1.3 14.7 1.5 17.2 9.3a86 86 0 0 1 1.4 38.1c-.2 1.5 2.1 2.2 2.3.6a108 108 0 0 0 1.2-22c-.4-6.2-.8-13.5-3.3-19.3-2.4-5.4-6.8-7-12.3-8.1l-23.6-4.3c-1.5-.2-2.1 2.2-.6 2.5zm19 38c.7 4.5 1 9 1.1 13.5 0 1.6 2.4 1.6 2.4 0a96 96 0 0 0-1.1-14.2c-.3-1.5-2.7-.8-2.4.7zm-59.6 2.1l.1-.2c.2-.5-.1-1.1-.6-1.4l-.2-.1c-.4-.2-1.1-.2-1.5.2-1.1 1.5-.5 3.9-.4 5.6.2 2.8.5 5.5.9 8.3.2 1.5 2.6.9 2.3-.6-.3-2.2-.6-4.4-.7-6.7l-.2-2.8c0-.5.2-2.6-.2-2l-1.5.2.2.1-.6-1.4-.1.2c-.4 1.4 1.9 2.1 2.5.6z"/><path class="st2" d="M410.9 192.7c-1.2-6.5 0-13.4 3.3-19l4.4-6.7c4-6.5 5.8-14.1 8.8-21.1.4-1 .9-2 1.9-2.4.8-.4 1.9-.3 2.8-.5 3.4-.7 4.4-5.3 2.8-8.4-.5-.9-1.1-1.7-1.3-2.6-.4-1.5.1-3.1.6-4.5l3.8-11.3c1.1-3.2 2.1-6.9.5-9.9a10 10 0 0 0-4-3.6 67.7 67.7 0 0 0-28.3-8.2c-4.8-.5-9.7-.8-14.5 0-4.8.8-9.5 2.9-12.7 6.5a23.3 23.3 0 0 0-5.2 14.2c-.3 5.1.5 10.2 1.1 15.3.1.7.1 1.4-.2 2-.5.8-1.5 1-2.2 1.6-1.6 1.3-1.4 3.9-.2 5.7 1.1 1.7 2.9 3 4.1 4.7 2 2.7 2.5 6.1 3.1 9.4.7 3.9 1.6 7.9 2.8 11.7 1 3.4 2.2 6.8 4.3 9.7 1 1.3 2.1 2.6 2.8 4.1 1.9 4 .3 8.8 1.5 13 1.4 4.9 6.2 8 10.6 10.7l9.6-9.7"/><path class="st1" d="M391.5 194.7l-8 5.1-8 5.2a28.8 28.8 0 0 0-9.5 9.2c-1.3 2.3-2 4.9-2.5 7.4a57.1 57.1 0 0 0-.3 21.8c.1.6.2 1.3.6 1.8.8 1 2.2 1.1 3.4 1 5.9-.2 11.8-1.7 17.6-.6 3.1.6 6 1.9 9 2.9 11.1 3.7 23 3.4 34.7 3l14.5-.5c1.9-.1 4.3-.4 4.9-2.2.4-1 0-2.2-.3-3.2l-8-23c-.7-2.2-1.5-4.3-2.6-6.3-1.2-2.3-2.9-4.3-4.5-6.4l-5.8-7.1a24 24 0 0 0-6.2-6.1c-2.3-1.4-5-2.1-7.7-2.7-.6.8-.9 1.7-1.1 2.7l.6-3.1c-.6-.7-1.8 0-2.4.7l-6.9 7.1c-.4.4-.8.8-1.4 1-.6.1-1.3-.2-1.9-.5a32.9 32.9 0 0 1-9.1-7.5"/><path class="st3" d="M373.4 124c1.7 14.9 4.2 29.6 8.4 44 2.5 8.6 7.1 18.1 17.6 17.2 11.7-1.1 18.5-13.5 22.8-23 6-13.5 10.3-28 12.3-42.6.2-1.5-2.1-2.2-2.3-.6a162.8 162.8 0 0 1-8.7 33.6c-3.7 10.2-9 24.6-19.9 29.1-14.3 5.9-18.6-10.9-21.2-21.1-3.1-12-5.1-24.2-6.5-36.6-.2-1.5-2.7-1.5-2.5 0z"/><path class="st3" d="M380 128.8c4.2-.6 8.5-1 12.7-1.2 2-.1 5.1-1 6.5 1 .6 1 .8 6.6.2 7.7-1 1.6-6 1.2-7.6 1.3l-6.4.4c-2.8.2-3.3.8-4.1-1.9-.7-2.3-.7-5.1-1-7.5-.2-1.5-2.6-1.6-2.4 0 .3 3 .2 7.6 1.5 10.3.7 1.4 1.4 1.5 2.8 1.7 3.5.4 7.7-.5 11.3-.7 2.3-.1 6 .4 7.7-1.6 1.9-2.2 1.8-10.4-.5-12.6-1.9-1.7-5.6-.8-7.8-.7-4.3.2-8.5.7-12.7 1.2-1.7.4-1.7 2.8-.2 2.6zm25.4-3.8c.2 4-.4 9.3.8 13.1.7 2.1 1.9 2.2 4.1 2.3 4.8.3 9.7.3 14.5.3 2.4 0 4.4.3 5.9-1.8 1.6-2.1 1.4-5.3 1.4-7.8 0-1.8.5-4.3-1.1-5.7-2-1.8-7.8-.9-10.3-1l-14.1-.2c-1.6 0-1.6 2.4 0 2.4l15 .2c1.6 0 6.9-.6 8 1 .7.9.1 6.6-.2 7.5-1.7 4.7-11.5 2.8-15.7 2.7-3.4-.1-4.7-.5-5.3-4-.5-2.9-.4-6.2-.6-9.1 0-1.5-2.4-1.5-2.4.1z"/><path class="st3" d="M401.8 134.2c.9-.3 1.7-.2 2.6.1 1.5.5 2.1-1.8.6-2.3a7.4 7.4 0 0 0-3.9-.1c-1.4.4-.8 2.8.7 2.3zm13.5-.1c1-.5 4.9-1.8 5.5-.3l.4-1.7c-1.3.6-3-.4-4.3-.5-1.3-.1-2.4.2-3.3 1-1.1 1.1.6 2.8 1.7 1.7.9-.9 2.6 0 3.7.2a5 5 0 0 0 3.4-.4c.6-.3.7-1.1.4-1.7-1.3-3.1-6.7-1.6-8.9-.6-1.2.9 0 2.9 1.4 2.3zm-23.1-2.8c-2.2-.5-9.5-1.5-9.6 2.3 0 1.6 1.5 2.2 2.9 2.1 2.3-.3 4.7-1.3 6.9-2 1.5-.5.9-2.8-.6-2.3l-3.3 1c-.4.1-3 .6-3.1.9-.2.4.7.2.8.2l1.7-.2c1.3-.1 2.5.1 3.7.3 1.5.4 2.1-2 .6-2.3zm6.4 9.5c-.3 3-.4 9.9 3.3 11.2 4.2 1.4 5.8-5.5 6.2-8.2.2-1.5-2.1-2.2-2.3-.6-.2 1.4-1.8 8.5-3.8 5.7-.7-.9-.8-2.8-.9-3.9-.2-1.4-.1-2.8 0-4.2.1-1.6-2.3-1.6-2.5 0z"/><path class="st3" d="M389.3 157.4c8.1 6 20.7 2.8 25.5-5.7.8-1.4-1.3-2.6-2.1-1.2-4.1 7.3-15.2 10-22.2 4.8-1.2-.9-2.4 1.2-1.2 2.1z"/><path class="st3" d="M412.4 149.4a3 3 0 0 0 1.5 2.9c.7.5 1.9-.1 1.8-1l-.1-.5c-.1-.7-.5-1.2-1.2-1.2-.6 0-1.3.6-1.2 1.2l.1.5 1.8-1c-.3-.2-.3-.5-.2-.8.1-.7-.6-1.2-1.2-1.2-.8-.2-1.2.4-1.3 1.1zm-23.1 4.1a5 5 0 0 0-2.2 2.8c-.2.6.3 1.3.8 1.5.7.2 1.2-.2 1.5-.8.2-.5.6-1 1.1-1.3 1.3-.9.1-3-1.2-2.2z"/><path class="st3" d="M388.4 157.2c3.8 4.3 8 12.2 14.7 10.1 6.2-2 9.4-8.4 11.4-14.1.4-1.3-1.5-2.1-2.2-.9a37.8 37.8 0 0 1-5.7 7.6c-.9.9-2.1 2.3-3.2 2.8-4.1 1.8-6.3-1.2-8.2-3.5-1-1.2-2.7.5-1.7 1.7 2.5 3 5.7 6 9.9 4.5 4.8-1.8 8.5-7.7 11.1-11.9l-2.2-.9c-1.4 4.3-3.9 10.4-8.6 12-6.1 2.1-10.1-5.3-13.4-9-1.3-1.3-3 .4-1.9 1.6z"/><path class="st3" d="M398.1 160.5l.3 4.2c.1 1.5 2.5 1.6 2.4 0l-.3-4.2c0-1.5-2.5-1.5-2.4 0zm4.2-.9v4.9c0 1.6 2.4 1.6 2.4 0v-4.9c0-1.6-2.4-1.6-2.4 0zm-2.5 12.9c1.2-.5 2.4-.6 3.7-.5.7.1 1.2-.6 1.2-1.2 0-.7-.6-1.1-1.2-1.2-1.7-.2-3.3.1-4.9.8-.6.3-.7 1.1-.4 1.7.3.6 1 .7 1.6.4zm15.1-50.9a9 9 0 0 1 7.2 2c1.2 1 2.9-.7 1.7-1.7a11.5 11.5 0 0 0-9.6-2.6c-1.4.2-.8 2.6.7 2.3zm-26.2-.5c-2.1-.1-4 .7-5.5 2-1.2 1 .5 2.7 1.7 1.7a5.3 5.3 0 0 1 3.8-1.3c1.6.1 1.6-2.3 0-2.4zm-11.9 12.2c.8.1 1.6-.1 2-.9.5-.9-.3-2.1-1.4-1.8l-1.4.4c-.8.1-1.5.6-1.5 1.4 0 .8.7 1.4 1.5 1.3.9-.1 1.3-.8 1.1-1.6-.1-.6-.9-1-1.5-.8-.7.2-1 .8-.8 1.5v.1l.3-1.2h-.1l.5-.3h-.1.5l.7.6v-.1l.2.6v-.1l-.2.6.1-.1-.4.4c-.3 0-.3.1-.2.1h.4l.4-.1 1-.3-1.4-1.8.7-.2c-.6-.1-1.3.2-1.5.8.1.6.4 1.4 1.1 1.5zm55.1-.1c1.9-.8 3.5 4.9 3.3 6-.3 1.4-1.2 2.1-2.7 2.3l-2.5-.1-.3 1.2.1-.1c1.1-1.1-.6-2.8-1.7-1.7l-.1.1c-.3.3-.5.8-.3 1.2.7 1.7 3.1 2 4.8 1.9 2.1-.1 4.1-1.2 4.8-3.3 1.1-3.1-1.7-11.6-6.1-9.8-1.4.6-.7 2.9.7 2.3z"/><path class="st3" d="M375.4 132.7c-1.3-.9-3-.8-4.2.3-1.3 1.2-1.7 3.1-1.6 4.8.3 3.7 3.5 6.6 7.3 5.7 1.5-.3.9-2.7-.6-2.3-1.9.4-3.5-.9-4.1-2.6-.3-1.1-.1-5.2 1.9-3.7 1.3.8 2.6-1.3 1.3-2.2z"/><path class="st3" d="M374.2 130.7c-.8-8.1-.5-17.3-3.7-24.9-.5-1.1-2.3-.5-2.3.6.5 8 1.6 15.9 3.3 23.7.3 1.4 2.4 1 2.4-.3.1-10.2-.2-20.3-.9-30.5-.1-1.5-2.5-1.6-2.4 0 .5 8.8 1.4 17.6 2.8 26.4.2 1.4 2.3 1 2.4-.3.5-9 .6-18 .4-27.1 0-1.6-2.4-1.6-2.4 0 0 7.9.2 15.7.5 23.6.1 1.6 2.3 1.5 2.4 0 .7-9.2.9-18.3.7-27.5H375l1.1 27.1a1.2 1.2 0 0 0 2.4 0l2.1-30.8h-2.4l1 27.1c0 1.3 2.2 1.7 2.4.3l4-27.2-2.4-.3.3 23.9c0 1.6 2.3 1.5 2.4 0l2.6-24.4h-2.4l.3 21.7c0 1.6 2.3 1.5 2.4 0l2.9-25h-2.4l.3 25.4c0 1.6 2.2 1.5 2.4 0l2.9-23.7h-2.4l-.6 23.2c0 1.3 2.2 1.7 2.4.3l3.4-24.1-2.4-.3-.8 25.1c-.1 1.6 2.3 1.5 2.4 0 .9-9.3 2.1-18.6 3.7-27.9l-2.4-.3.2 25.7c0 1.3 2.1 1.7 2.4.3l4-23.2-2.4-.3c.1 8.2-.3 16.3-1.3 24.4h2.4c1-8.9 2.7-17.6 5.1-26.2l-2.4-.3c.1 8.7-1.2 17.2-2.7 25.7l2.4.3a85 85 0 0 1 6.1-22.6l-2.2-.9c-1.4 8.5-3 17-4.8 25.5-.3 1.5 1.9 2.1 2.3.6l8-24.5-2.3-.6c-1 6.3-2.2 12.5-3.7 18.6-.4 1.5 2 2.2 2.3.6 1.5-6.2 2.7-12.4 3.7-18.6.2-1.5-1.8-2.2-2.3-.6l-8 24.5 2.3.6c1.8-8.4 3.4-16.9 4.8-25.5.2-1.2-1.6-2.3-2.2-.9a85.6 85.6 0 0 0-6.4 23.8c-.2 1.3 2.1 1.7 2.4.3 1.5-8.7 3-17.4 2.8-26.4 0-1.4-2-1.7-2.4-.3a188 188 0 0 0-5.2 26.9c-.2 1.5 2.2 1.5 2.4 0 1-8.1 1.4-16.3 1.3-24.4 0-1.3-2.1-1.7-2.4-.3l-4 23.2 2.4.3-.2-25.7c0-1.3-2.1-1.7-2.4-.3-1.6 9.5-2.9 19-3.8 28.5h2.4l.8-25.1c0-1.3-2.2-1.7-2.4-.3l-3.4 24.1 2.4.3.6-23.2c0-1.6-2.2-1.5-2.4 0l-2.9 23.7h2.4l-.3-25.4c0-1.6-2.3-1.5-2.4 0l-2.9 25h2.4l-.3-21.7c0-1.6-2.3-1.5-2.4 0l-2.6 24.4h2.4l-.3-23.9c0-1.3-2.2-1.7-2.4-.3l-4 27.2 2.4.3-1-27.1a1.2 1.2 0 0 0-2.4 0l-2.1 30.8h2.4l-1.1-27.1c-.1-1.6-2.5-1.6-2.4 0 .2 9.2 0 18.4-.7 27.5h2.4c-.3-7.9-.5-15.7-.5-23.6h-2.4c.2 9 .1 18.1-.4 27.1l2.4-.3c-1.3-8.5-2.2-17.1-2.7-25.7h-2.4c.6 10.1.9 20.3.9 30.5l2.4-.3c-1.7-7.6-2.7-15.3-3.2-23.1l-2.3.6c3 7.1 2.7 16 3.4 23.6.1 1.5 2.6 1.5 2.4 0z"/><path class="st3" d="M379.6 92.6c-.2 3.9-.1 7.7.3 11.5l2.4-.3a45 45 0 0 1-.9-9c0-1.6-2.5-1.6-2.4 0 .1 3.2.2 6.4 1 9.6.3 1.3 2.5 1.1 2.4-.3-.4-3.8-.5-7.7-.3-11.5 0-1.6-2.5-1.6-2.5 0zm30.7-.8a115 115 0 0 0-3 18.5c-.1 1.4 2 1.6 2.4.3l6.9-20.5-2.3-.6-3.5 22.3c-.2 1.5 1.9 2.2 2.3.6a217 217 0 0 1 6.7-20.7l-2.3-.6-2.7 18.4c-.2 1.5 2 2.2 2.3.6 1.7-6.7 3.9-13.2 6.9-19.4l-2.2-.9c-1.7 6.6-3.7 13.2-5.9 19.6-.5 1.5 1.8 2.1 2.3.6 2.4-6 5-12 7.8-17.8l-2.2-.3c1 2.7-2.2 8-3.1 10.6l-4 10.7c-.5 1.3 1.6 2.2 2.2.9l9.5-20.6-2.2-.9L420 110c-.5 1.3 1.7 2.2 2.2.9A66.2 66.2 0 0 1 433 93.3l-1.9-1.5-10.3 20.8 2.1 1.2a76 76 0 0 1 12.8-19.4l-2-1.2a96.9 96.9 0 0 1-10.3 20.3l2.1 1.2 9.8-15.8-2.2-.9-6.9 16.6c-.5 1.2 1.2 1.9 2 1.2 4.4-3.9 5.8-11.6 7.7-16.9h-2.3c.9 2.8-1.2 7.4-1.9 10.2l-2.7 9.1 2.3.6c1.7-6 4-11.6 6.9-17.1l-2.3-.6a98.3 98.3 0 0 1-3.6 20.2c-.4 1.5 1.9 2.1 2.3.6a104 104 0 0 0 3.6-20.8c.1-1.2-1.7-1.7-2.3-.6-3 5.7-5.4 11.6-7.2 17.7-.4 1.5 1.9 2.1 2.3.6a616 616 0 0 0 3.7-12.8c.7-2.6 1.8-5.2.9-7.8-.4-1.2-1.9-1.1-2.3 0-1.8 4.9-3.2 12.3-7.1 15.9l2 1.2 6.9-16.6c.5-1.3-1.5-2.1-2.2-.9l-9.8 15.8c-.8 1.3 1.2 2.5 2.1 1.2 4.3-6.5 7.8-13.5 10.5-20.8.4-1.1-1.2-2.1-2-1.2-5.4 6-9.8 12.6-13.2 19.9-.7 1.4 1.4 2.6 2.1 1.2l10.3-20.8c.6-1.2-1-2.6-1.9-1.5a69.2 69.2 0 0 0-11.2 18.1l2.2.9 6.2-17.4c.5-1.3-1.6-2.2-2.2-.9l-9.5 20.6 2.2.9 5-13.6c1-2.8 3.1-6 2.1-8.9-.3-.9-1.7-1.3-2.2-.3-2.9 6-5.6 12.2-8 18.4l2.3.6c2.3-6.5 4.2-13 5.9-19.6.3-1.3-1.6-2.2-2.2-.9a108 108 0 0 0-7.1 20l2.3.6 2.7-18.4c.2-1.5-1.8-2.1-2.3-.6-2.5 6.8-4.8 13.7-6.7 20.7l2.3.6 3.5-22.3c.2-1.5-1.8-2.2-2.3-.6l-6.9 20.5 2.4.3c.5-6 1.5-12 2.9-17.9.6-1.5-1.7-2.1-2.1-.6z"/><path class="st3" d="M433.3 110.2l-2.6 9.7c-.4 1.5 1.9 2.1 2.3.6l4.9-15.1-2.3-.6c-1 7.5-2.4 14.9-4.2 22.3-.4 1.5 1.9 2.2 2.3.6 1.6-6.2 3.6-12.2 6.2-18.1l-2.2-.9c-2 7.5-4.2 15.1-6.4 22.6l2.3.6c1.1-5.1 2.5-10.1 4.1-15l-2.3-.6c-2.3 10-5.3 19.7-9.2 29.2l2.3.6c3.7-14.3 11.1-27.4 13.9-42 .2-1.3-1.6-2.3-2.2-.9l-5.6 12.4 2.2.9 4.9-17c.4-1.5-1.8-2.1-2.3-.6-1.9 5.1-4 10-6.5 14.9l2.2.9 4-19.6c.3-1.5-1.8-2.1-2.3-.6l-8.4 21.9 2.3.6c2-8.2 3.7-16.4 5.2-24.7.3-1.5-1.9-2.2-2.3-.6-2 7.4-4 14.7-7.4 21.6l2.2.9 4.7-23.7c.3-1.5-1.9-2.1-2.3-.6a95.2 95.2 0 0 1-9.5 20.8l2.2.9a162 162 0 0 0 3.1-20.9c.1-1.4-2.1-1.6-2.4-.3-1.7 7-4 13.8-6.8 20.4l2.2.9 5.1-24.1c.3-1.5-2-2.2-2.3-.6-1.7 7.1-4 14-7.3 20.6l2.2.9c1.6-7.1 2.8-14.3 3.8-21.5.1-1.1-1.4-1.5-2.1-.9-4.1 3.9-4.4 12.5-5.7 17.8l2.4.3 2-19c.1-1.4-2.1-1.6-2.4-.3-1.5 7-3.4 13.8-5.6 20.6l2.4.3c-.8-7.2-.2-14.2.5-21.4.1-1.5-1.9-1.5-2.4-.3-2.5 6.5-4 13.2-4.5 20.1h2.4c-.1-7.1 0-14.2.3-21.4.1-1.2-1.8-1.7-2.3-.6a68 68 0 0 0-4.9 22.3h2.4c.3-6.5.4-13.1.2-19.6 0-1.2-1.6-1.6-2.3-.6-3.4 5.7-2.4 14.4-2.9 20.8l2.4-.3c-1.1-7-1.5-14-1.4-21 0-1.6-2.3-1.5-2.4 0-.8 7.6-1.3 15.2-1.5 22.8l2.4-.3-3-21.6c-.2-1.3-2-1-2.3 0-2 6.3-1.9 12.6-1.6 19.2h2.4c-.3-5.8-.7-11.5-1.3-17.3-.2-1.6-2.2-1.5-2.4 0l-2.7 22.7h2.4c-.2-6.3-.5-12.5-2.4-18.6-.3-1.1-2.1-1.2-2.3 0-1.3 6.9-1.9 13.8-1.8 20.9l2.4-.3c-1-6.8-2.1-13.6-4.2-20.2-.3-1-2.1-1.3-2.3 0-1 6.4-1.2 12.6-.4 19h2.4c-.7-5.4-1.7-10.7-3-15.9-.3-1.4-2.3-1-2.4.3l-.6 15.3c-.1 1.6 2.4 1.6 2.4 0l.6-15.3-2.4.3a129 129 0 0 1 2.9 15.3c.2 1.5 2.6 1.6 2.4 0-.7-6.2-.7-12.2.3-18.4h-2.3c2.1 6.6 3.2 13.3 4.2 20.2.2 1.4 2.4 1 2.4-.3-.1-6.8.5-13.5 1.7-20.2h-2.3a67.1 67.1 0 0 1 2.3 17.9c0 1.6 2.2 1.5 2.4 0l2.7-22.7h-2.4c.6 5.7 1 11.5 1.3 17.3.1 1.6 2.5 1.6 2.4 0-.3-6.3-.4-12.4 1.5-18.5h-2.3l3 21.6c.2 1.4 2.4 1 2.4-.3.2-7.6.7-15.2 1.5-22.8h-2.4c-.1 7.3.4 14.5 1.5 21.7.2 1.4 2.3 1 2.4-.3.4-5.8-.6-14.5 2.5-19.6l-2.3-.6c.1 6.5 0 13.1-.2 19.6-.1 1.6 2.3 1.5 2.4 0 .7-7.2 1.5-14.4 4.6-21l-2.3-.6c-.3 7.1-.5 14.2-.3 21.4 0 1.6 2.3 1.5 2.4 0 .5-6.8 2-13.2 4.5-19.5l-2.4-.3a102 102 0 0 0-.5 21.4c.1 1.3 1.9 1.7 2.4.3 2.2-6.8 4.1-13.6 5.6-20.6l-2.4-.3-2 19c-.1 1.4 2.1 1.6 2.4.3 1.1-4.5 1.6-13.5 5.1-16.7l-2.1-.9c-.9 7-2.1 14-3.7 20.9-.3 1.3 1.6 2.2 2.2.9a105 105 0 0 0 7.6-21.2l-2.3-.6-5.1 24.1c-.3 1.3 1.7 2.3 2.2.9 2.9-6.8 5.2-13.8 7-21l-2.4-.3c-.6 6.8-1.6 13.5-3 20.2-.3 1.3 1.5 2.1 2.2.9a93.4 93.4 0 0 0 9.8-21.3l-2.3-.6-4.7 23.7c-.3 1.3 1.6 2.2 2.2.9 3.4-7.1 5.6-14.6 7.6-22.1l-2.3-.6c-1.4 8.3-3.2 16.5-5.2 24.7-.4 1.5 1.8 2.1 2.3.6l8.4-21.9-2.3-.6-4 19.6c-.3 1.3 1.6 2.2 2.2.9 2.5-5 4.8-10.2 6.7-15.4l-2.3-.6-4.9 17c-.4 1.3 1.6 2.2 2.2.9l5.6-12.4-2.2-.9c-2.8 14.6-10.2 27.7-13.9 42-.4 1.6 1.8 2.1 2.3.6 3.9-9.5 6.9-19.2 9.2-29.2.3-1.5-1.8-2.1-2.3-.6-1.6 4.9-3 9.9-4.1 15-.3 1.5 1.9 2.1 2.3.6l6.4-22.6c.3-1.3-1.7-2.2-2.2-.9-2.6 6.1-4.7 12.2-6.4 18.6l2.3.6c1.8-7.4 3.2-14.8 4.2-22.3.2-1.5-1.8-2.2-2.3-.6l-4.9 15.1 2.3.6 2.6-9.7c.4-1.8-1.9-2.4-2.3-.9z"/><path class="st3" d="M374.3 99.5c-.2 5.1-.1 10.1.5 15.2l2.4-.3a273 273 0 0 1-1.9-15.5h-2.4c.9 6.9 1.5 13.8 1.8 20.7.1 1.6 2.5 1.6 2.4 0-.3-6.9-.9-13.8-1.8-20.7-.2-1.5-2.6-1.6-2.4 0 .5 5.4 1.2 10.8 2 16.2.2 1.3 2.5 1 2.4-.3-.6-5.1-.7-10.1-.5-15.2 0-1.6-2.4-1.6-2.5-.1zm-2.7 17.8l1.1 16.6h2.4l-1.3-9.6-2.4.3c1.8 9.4 3 18.9 3.7 28.5.1 1.5 2.5 1.6 2.4 0-.7-9.8-2-19.5-3.8-29.1-.2-1.3-2.6-1-2.4.3l1.3 9.6c.2 1.5 2.5 1.6 2.4 0l-1.1-16.6c0-1.5-2.4-1.5-2.3 0zm60.2 10.3c-1.5 8.1-3.7 16.1-6.6 23.9l2.3.6.3-1.6c.3-1.5-2-2.2-2.3-.6l-.3 1.6c-.3 1.5 1.8 2.1 2.3.6a141 141 0 0 0 6.6-23.9c.4-1.5-2-2.1-2.3-.6zm-43.4 53.7c.1 4.3.6 8.5 1.5 12.6.3 1.5 2.6.9 2.3-.6-.8-4-1.3-8-1.4-12 0-1.6-2.4-1.6-2.4 0zm21.8-3v15.1c0 1.6 2.4 1.6 2.4 0v-15.1c0-1.5-2.4-1.5-2.4 0z"/><path class="st3" d="M390.3 192.9c-2.6.8-.5 2.9.7 3.8l8.8 6.7c1.2 1 2.4-1.2 1.2-2.1l-4.8-3.7-2.4-1.9c-.2-.1-2-1.8-2.2-1.3l-.8.8.3-.1c1.4-.3.7-2.6-.8-2.2z"/><path class="st3" d="M398.9 203.2a115 115 0 0 1-4 11.2c-.6 1.4 1.7 2.1 2.3.6a115 115 0 0 0 4-11.2c.5-1.4-1.8-2.1-2.3-.6z"/><path class="st3" d="M387.8 195.8a132 132 0 0 1 6.8 20.4c.3 1.1 2.1 1.2 2.3 0l.1-.7c.3-1.5-2.1-2.2-2.3-.6l-.1.7h2.3c-1.7-7.2-4.1-14.2-7-21-.6-1.5-2.7-.2-2.1 1.2zm13.2 7.6c3.2 1.8 5.8 4.2 7.9 7.1.9 1.3 3 .1 2.1-1.2a26 26 0 0 0-8.8-8c-1.3-.8-2.5 1.3-1.2 2.1z"/><path class="st3" d="M402.3 204.5l10.5-11.5c1.1-1.1-.7-2.9-1.7-1.7l-10.5 11.5c-1.1 1.1.6 2.9 1.7 1.7z"/><path class="st3" d="M411 193.4c-.7 5.9-1.6 11.7-2.8 17.5-.3 1.5 2 2.2 2.3.6 1.2-6 2.2-12 2.9-18.1.2-1.5-2.2-1.5-2.4 0zm-10.9 10.4c.3 5.1 1.1 10.2 1.7 15.3.2 1.5 2.6 1.5 2.4 0-.6-5.1-1.5-10.2-1.7-15.3 0-1.6-2.5-1.6-2.4 0zm-13.4-7.2c-9.4 4.7-18.1 8.9-23 18.7a47 47 0 0 0-3.1 27.7c.2 1.5 2.6.9 2.3-.6-1.3-9.2-1-19 3.6-27.4 4.8-8.5 13-12.2 21.3-16.3 1.5-.7.3-2.8-1.1-2.1z"/><path class="st3" d="M412.9 195.3c21.1 8.3 29.2 30.8 32.6 51.4.3 1.5 2.6.9 2.3-.6-3.6-21.7-12.4-44.5-34.3-53.1-1.5-.6-2.1 1.7-.6 2.3z"/><path class="st1" d="M174.7 238.5l2.5-11.1c.4-1.6.7-3.2 1.3-4.7.5-1.4 1.1-2.7 1.8-4.1l3-5.9c1-1.8 1.9-3.6 3.3-5.1 1.2-1.3 2.7-2.3 4.2-3.3 1.9-1.2 3.9-2.5 6.1-2.5 1.4 0 2.8.5 4.2.9l3.3.7c3.8 1 7.3 3.2 9.9 6.3 2.3 2.8 3.7 6.2 5.2 9.5l4.4 10.4c1.8 4.3 3.7 8.7 4.3 13.3h-3.6c-10.3-.5-20.5-4.5-30.8-3.5-5.7.5-11.1 2.6-16.8 3.4h-1.2c-.8-.2-1.2-1-1.3-1.8-.1-.8.2-1.6.5-2.3"/><path class="st2" d="M204.2 205.3l2.3-17.5c.2-1.3.3-2.6.9-3.8.8-1.8 2.5-3 3.9-4.4a56 56 0 0 0 11.4-18.7c1.5-3.6 3.1-7.3 3.3-11.2.3-4.8-1.5-9.5-4.1-13.5-2.6-4-6.2-7.3-9.8-10.4-2-1.7-4-3.4-6.5-4.4-3.6-1.5-7.7-1.3-11.5-.2s-7.1 3.2-10.3 5.5a80.2 80.2 0 0 0-15.9 14.9 21.5 21.5 0 0 0-4.5 7.5 18 18 0 0 0-.3 8c.8 6.1 3.2 12.2 7.7 16.5 2 1.9 4.3 3.4 6.2 5.3 3.3 3.3 5.8 8.1 10.4 9.1.7.1 1.4.2 2 .6 1.3.9 1 2.8.7 4.4a20.5 20.5 0 0 0 7.9 19.5 27 27 0 0 1 5.6-8.8"/><path class="st3" d="M193.1 126.5a19.7 19.7 0 0 1 19.7 2.5c2.1 1.6 3.8 3.7 5.5 5.7 1.6 1.9 3.2 3.8 4.3 6 2 4 2.1 8.8 1.1 13.2-1 4.4-2.9 8.5-5 12.5-2.8 5.4-5.9 10.8-8 16.6-.3.8-.3 1.9.5 2 .3.1.7-.1 1-.3a86.7 86.7 0 0 0 16.5-15.5 83 83 0 0 0 12.4-17.7 34.2 34.2 0 0 0 0-32.1c-1.5-3.6-2.9-7.3-5.4-10.3-2-2.3-4.4-4.2-7.1-5.7a34.2 34.2 0 0 0-35.4.3c-1.9 1.2-3.8 2.9-3.8 5.1 0 1.5.8 2.8 1.5 4.1 1.4 2.8 2 6 1.7 9.2-.1.6-.1 1.3.1 1.8.6 1.5 2.7 1.4 4.2 1"/><path class="st3" d="M161.3 146.5c2.3 10.4 10.1 20.3 16.1 28.8 3.1 4.5 6.4 8.8 9.8 13 2.4 3 4.9 5.5 9 4.9 8.1-1.3 14.2-11.2 18.1-17.5 6.7-11.1 12.7-22.7 18.8-34.1.7-1.4-1.4-2.6-2.1-1.2-4.6 8.6-9.1 17.2-13.9 25.7-4.4 7.8-9.1 17.9-16.9 22.8-7.9 4.9-11.5-2.3-15.4-7.4-2.8-3.7-5.5-7.5-8.1-11.4-4.8-7.2-11.1-15.5-13-24.1-.4-1.7-2.8-1.1-2.4.5z"/><path class="st3" d="M195.7 115.3c-2.5 18.5-25.4 25-27.7 44.1a29 29 0 0 0 22.2 31.5c1.5.4 2.2-2 .6-2.3a26.6 26.6 0 0 1-16.2-40.3c7.5-11.5 21.5-18.1 23.5-32.9.2-1.7-2.2-1.6-2.4-.1z"/><path class="st3" d="M197.2 115.3c.1-13.1-15.8-13.3-25-10.5-12.1 3.7-21.6 12.4-23.1 25.3a81.5 81.5 0 0 0 8.8 41.9 31.2 31.2 0 0 0 12.3 13.4c5.4 3.3 12 7 18.5 7.1 1.6 0 1.6-2.4 0-2.4-5.6 0-11-3.2-15.8-5.9-4.9-2.7-9-6.3-11.7-11.2-5-9-8.1-20.8-9.4-30.9-1.6-11.8.7-23 10.9-30.1 4.6-3.2 9.9-5.2 15.4-6.1 6.9-1.1 16.8.3 16.8 9.3-.1 1.6 2.3 1.7 2.3.1z"/><path class="st3" d="M188.7 191.3c-3.6.3-7-1.3-10.2-2.9A45.3 45.3 0 0 1 164 179a44.8 44.8 0 0 1-8.9-18 81.4 81.4 0 0 1-5.1-28.4c.3-4.6 1.3-9.3 3.7-13.3 2.2-3.6 5.4-6.5 8.9-8.8a38.4 38.4 0 0 1 16.9-6.1c3.7-.4 7.7-.2 11 1.6s5.8 5.4 5.4 9.2h.9c-.6 7.2-5.4 13.3-10.5 18.4-5.1 5.1-10.8 9.8-14.2 16.2a27.6 27.6 0 0 0 18.3 39.8l-1.7 1.7z"/><path class="st3" d="M191.5 105.5a32 32 0 0 1 29.1-5.1 33.6 33.6 0 0 1 21.7 25.1c2.8 11.4.5 23.7-6 33.4-3.4 5.1-7.7 9.4-12 13.8l-6.1 6.3c-2.1 2.2-6 8.4-9.7 4.9v1.7c8.1-9 13.4-19.8 15.6-31.8.3-1.5-2.1-2.2-2.3-.6a61.6 61.6 0 0 1-15 30.7c-.4.5-.5 1.2 0 1.7 4.6 4.3 6.8 1.6 10.4-2.2 5.7-5.9 11.8-11.6 17.1-17.9a46 46 0 0 0 11-37.2A37.2 37.2 0 0 0 224 99.2a34.5 34.5 0 0 0-33.8 4.3c-1.2.8 0 2.9 1.3 2z"/><path class="st3" d="M220.8 161.8v-.7c0-1.6-2.4-1.6-2.4 0v.7c-.1 1.5 2.4 1.5 2.4 0z"/><path class="st3" d="M195.3 126.9c13.7-3.6 29.6 10.2 26.7 24.3-1.2 5.6-3.8 10.8-6 16.1l-7.5 17.9c-.6 1.4 1.7 2.1 2.3.6l10.2-24.4c2.7-6.5 5.4-13.6 2.9-20.6-4-11-17.9-19.2-29.3-16.2-1.5.4-.8 2.7.7 2.3zm-17 26.5l-.2-.3.3 1.2c.3-1.7 3.7-2.4 5.1-2.4 1.9-.1 3.7.5 5.2 1.7 1.2 1 2.9-.7 1.7-1.7a10 10 0 0 0-9.4-2c-1.9.5-6.4 2.8-4.3 5.3.9 1 2.6-.7 1.6-1.8z"/><path class="st3" d="M172.6 151.2a5.8 5.8 0 0 0 3 3.5c.6.3 1.3.2 1.7-.4.3-.5.2-1.4-.4-1.7a3.7 3.7 0 0 1-1.9-2c-.2-.6-.8-1-1.5-.8-.6.1-1.1.8-.9 1.4zm3.3-1.5a6.6 6.6 0 0 0 2.1 3.1c.5.4 1.2.5 1.7 0 .4-.4.5-1.3 0-1.7a4.8 4.8 0 0 1-1.5-2c-.2-.6-.8-1-1.5-.8-.6.1-1 .8-.8 1.4zm3-2.8c-.4 1.6.4 3.3 1.9 4 .6.3 1.3.2 1.7-.4.3-.5.2-1.4-.4-1.7-.6-.3-.9-.8-.7-1.3.2-1.4-2.2-2.1-2.5-.6zm4.3-.3c-.2 1.3-.2 2.6.3 3.9.5 1.5 2.8.8 2.3-.6-.3-.9-.4-1.7-.3-2.6.1-.6-.2-1.3-.8-1.5-.6-.2-1.4.1-1.5.8zm3.1.3c-.3 1.3-.4 2.6-.2 4 .1.6.5 1.2 1.2 1.2.6 0 1.3-.6 1.2-1.2-.1-1.1-.1-2.2.1-3.3.4-1.6-2-2.2-2.3-.7z"/><path class="st3" d="M189 148.2a9.5 9.5 0 0 0-.9 3.3c-.1.7.6 1.2 1.2 1.2.7 0 1.1-.6 1.2-1.2l.6-2.1c.3-.6.2-1.3-.4-1.7-.6-.2-1.4 0-1.7.5zm12 2.9a11 11 0 0 1 7.1-1.9c2.9.2 3.9 1.6 5.4 3.8.6 1 1.7 1.6 2.6.3.8-1.3-1.3-2.5-2.1-1.2l-.1.1 1-.6h-.2l1 .6c-1.4-2.6-2.8-4.4-5.8-5.2a13 13 0 0 0-10.2 1.9c-1.2 1 0 3.1 1.3 2.2z"/><path class="st3" d="M198.9 146.7l.8 2.8c.2.6.8 1 1.5.8.6-.2 1.1-.9.8-1.5-.4-.9-.6-1.9-.8-2.8-.1-.6-.9-1-1.5-.8-.6.2-.9.8-.8 1.5z"/><path class="st3" d="M201.2 145.1c-.2 1.3 0 2.6.7 3.8.8 1.4 2.9.1 2.1-1.2-.3-.6-.5-1.3-.4-1.9.1-.6-.2-1.3-.8-1.5-.7-.2-1.5.1-1.6.8z"/><path class="st3" d="M203.9 145.3c-.1 1 0 2 .1 3 .1.6.9 1 1.5.8.7-.2.9-.8.8-1.5v-2.4c.1-.7-.6-1.2-1.2-1.2-.7 0-1.1.6-1.2 1.3zm2.8-.2v2.7c0 1.6 2.4 1.6 2.4 0v-2.7c.1-1.6-2.4-1.6-2.4 0zm3.2 0l-.2 2.5c0 .7.6 1.2 1.2 1.2.7 0 1.2-.6 1.2-1.2l.2-2.5c0-.7-.6-1.2-1.2-1.2-.7 0-1.2.5-1.2 1.2z"/><path class="st3" d="M212.5 146c-.6 1-.9 2.1-1 3.3 0 1.6 2.4 1.6 2.4 0 0-.8.2-1.4.6-2.1.9-1.3-1.2-2.5-2-1.2z"/><path class="st3" d="M213.8 147.9c-.2.8-.5 1.5-.9 2.2-.7 1.4 1.4 2.6 2.1 1.2.5-.9.9-1.8 1.2-2.8.4-1.4-2-2.1-2.4-.6zm-9.5-12.3c-.6 0-.9.1-1.5.3-1.2.5-.5 2.2.6 2.3 3.5.1 6.7 1.5 9 4.1 1.1 1.2 2.8-.6 1.7-1.7a14.3 14.3 0 0 0-10.8-4.8l.6 2.3h.3c1.7-.1 1.7-2.5.1-2.5zm-17.4 1.9a20.9 20.9 0 0 0-6.4 4.6c-1.1 1.1.6 2.9 1.7 1.7 1.7-1.8 3.7-3.2 5.9-4.2 1.4-.7.2-2.8-1.2-2.1zm7 28.2c1.6 1.2 4.1.6 5-1.2.7-1.4-1.3-2.6-2.1-1.2-.4.7-1.1.7-1.7.3-.5-.4-1.4-.1-1.7.4-.3.7-.1 1.3.5 1.7zm-4.4 10.5c6.6 1.1 14.7.2 18-6.5.7-1.4-1.4-2.6-2.1-1.2-2.8 5.6-9.7 6.3-15.3 5.4-1.4-.3-2.1 2.1-.6 2.3z"/><path class="st3" d="M204.3 168.5c.6 1.2 1.7 1.8 3 2 .7.1 1.2-.6 1.2-1.2 0-.7-.6-1.1-1.2-1.2-.4 0-.7-.4-.9-.8-.3-.6-1.1-.7-1.7-.4-.5.3-.6 1-.4 1.6zm-15.6 4.5c-.2.6-.6 1.2-1.1 1.6-1.1 1.1.6 2.8 1.7 1.7.8-.8 1.3-1.7 1.7-2.7.2-.6-.3-1.3-.8-1.5-.7-.1-1.2.3-1.5.9zm15.3-22.8c2.2 1 4.7 4.4 7.4 2 .8-.7 1.3-2 .5-3-.3-.4-.7-.5-1.2-.6-.9-.1-1.5 0-2.3-.6-1.2-1-2.9.6-1.7 1.7.8.8 1.8 1 2.9.7 1.5-.4.9-2.8-.6-2.3-.2.1-.4.1-.5-.1l-1.7 1.7c.6.5 1.2.9 1.9 1.1l1.1.2h.6c.5 0 .3-.2-.6-.7-.4-.1-.8.1-1.2-.2l-1.1-.8-2-1.4c-1.6-.4-2.9 1.7-1.5 2.3zm-18.8.8c-1-.2-2-.3-2.9.3-.4.3-1.4 1.5-1.5.5l-2 1.2a5.1 5.1 0 0 0 6.2.4c1.3-.9 0-3-1.2-2.1-1 .7-2.3.8-3.2 0-1-.8-2.2 0-2 1.2a2.7 2.7 0 0 0 4.3 1.6c.7-.5.9-.8 1.8-.7 1.4.2 2-2.1.5-2.4zm20.1 34.3a94 94 0 0 0-2.3 19h2.4v-.6c0-1.6-2.4-1.6-2.4 0v.6c0 1.6 2.4 1.6 2.4 0 .1-6.2.9-12.3 2.2-18.4.4-1.5-2-2.1-2.3-.6zm-16.6 5.5l1.1 14.2c.1 1.5 2.5 1.6 2.4 0l-1.1-14.2c-.1-1.5-2.5-1.6-2.4 0z"/><path class="st3" d="M203.5 203.6L197 214c-.4.6 0 1.6.7 1.8 2 .4 2.8 2.5 4.3 3.6a10 10 0 0 0 3.1 1.5c.8.2 1.4-.4 1.5-1.2.6-5.1.7-10.1.2-15.2-.2-1.5-2.6-1.6-2.4 0 .5 5.1.5 10.1-.2 15.2l1.5-1.2c-3.2-.9-4.1-4.4-7.4-5.1l.7 1.8 6.5-10.4c.9-1.3-1.2-2.5-2-1.2z"/><path class="st3" d="M196.8 213.1c-2.8.8-5.4 4.3-7.2 6.4l2.1.9-.6-16-2.1.9c3.3 2.7 5.8 6 7.5 10 .6 1.4 2.9.8 2.3-.6-1.8-4.4-4.5-8-8.1-11-.8-.6-2.1-.3-2.1.9l.6 16c0 1 1.3 1.7 2.1.9 1.4-1.6 4-5.2 6.2-5.7 1.5-.8.9-3.1-.7-2.7z"/><path class="st3" d="M196.5 214.8c-.1 3.7.2 7.3.6 11 .2 1.5 2.6 1.5 2.4 0a67 67 0 0 1-.6-11c0-1.5-2.4-1.5-2.4 0zm-26.3-45.4c1.6 4.3 3.4 8.6 5.5 12.7l2.1-1.2c-2.8-5-4.3-11-6.2-16.4l-2 1.2c1.7 2 3 4.1 4.1 6.5l1.9-1.5a8.6 8.6 0 0 1-2.3-3.6l-2.2.9c2.3 4.7 4.1 9.5 5.6 14.5l2.2-.9c-1.3-1.6-2-3-2.7-5l-2 1.2c1.6 1.9 2.7 3.8 3.6 6.1l2.2-.9a69 69 0 0 0-3-6.1l-2.1 1.2c1.4 2 2.9 4 4.5 5.9.8.9 2.4-.1 2-1.2-.7-2.2-1.6-4.1-2.9-6-.9-1.2-3-.1-2.1 1.2 1.7 2.4 3.1 4.8 4.2 7.5l2.1-1.2c-1.8-3-3.7-5.9-5.9-8.6-1-1.2-2.7.5-1.7 1.7 2.1 2.7 4.2 5.5 6.1 8.3.9 1.3 2.7.2 2.1-1.2a51.7 51.7 0 0 0-6.3-10.3c-.8-1.1-2.7.4-1.9 1.5 2.2 2.9 4.3 5.9 6.2 9 .7 1.1 2.8.4 2.2-.9a52.2 52.2 0 0 0-5.6-10.4c-.9-1.3-3-.1-2.1 1.2 2.3 3.4 4.6 8.9 7.9 11.3.4.3.9.2 1.2 0l.4-.2-1.8-.7.3 1.5 2-1.2c-.8-.6-1-.8-1.8-1.2-1-.5-2.3.6-1.7 1.7l1.3 2c.8 1.3 2.9.1 2.1-1.2l-1.3-2-1.7 1.7 1.3.8c1 .8 2.2.1 2-1.2l-.3-1.5c-.1-.8-1.1-1-1.8-.7.5-.3-5.8-9.6-6.2-10.2l-2.1 1.2c2.2 3.1 4 6.3 5.4 9.8l2.2-.9a90 90 0 0 0-6.2-9l-1.9 1.5a49 49 0 0 1 5.9 9.8l2.1-1.2c-2.1-3-4.2-5.9-6.5-8.8l-1.7 1.7a55 55 0 0 1 5.5 8.1c.8 1.4 2.7.2 2.1-1.2a42.4 42.4 0 0 0-4.2-7.5l-2.1 1.2c1.2 1.7 2.1 3.4 2.7 5.4l2-1.2a54.7 54.7 0 0 1-4.1-5.4c-.9-1.3-2.9-.2-2.1 1.2 1.1 2 2.1 4 3 6.1.6 1.2 2.7.4 2.2-.9-1-2.7-2.3-5-4.2-7.2-.8-.9-2.4.1-2 1.2.7 2.1 1.7 3.8 3 5.6.8 1 2.6.5 2.2-.9a92.2 92.2 0 0 0-5.8-15.1c-.6-1.2-2.7-.4-2.2.9.7 1.8 1.6 3.2 2.9 4.6 1 1.1 2.4-.3 1.9-1.5a31.7 31.7 0 0 0-4.4-7c-.8-.9-2.4.1-2 1.2 2 5.6 3.6 11.8 6.5 16.9.8 1.4 2.8.2 2.1-1.2-2-3.9-3.8-7.9-5.3-12.1-.6-1.5-3-.9-2.4.6zm16.4 36.2a44.9 44.9 0 0 0-12.8 33.1c0 1.3 2.1 1.7 2.4.3l.2-1c.3-1.5-2-2.2-2.3-.6l-.2 1 2.4.3a42.3 42.3 0 0 1 12.1-31.4c1-1.1-.7-2.8-1.8-1.7zm18.8 1.1c7.6 1.4 11.7 9.3 15 15.8a71 71 0 0 1 6.4 19.7c.3 1.5 2.6.9 2.3-.6a75 75 0 0 0-8.4-23.5c-3.6-6.3-7.2-12.3-14.7-13.7-1.5-.4-2.1 2-.6 2.3z"/><path class="st1" d="M463.4 233.5c.2 0 0 .3-.1.2s-.2-.3-.1-.5l.9-7.6c.7-5.1 1.5-10.4 3.9-14.9 1.5-2.7 3.5-5.1 5.7-7.5 1.5-1.6 3-3.2 4.9-4.2 2.3-1.2 5.1-1.5 7.7-1.8l8.6-.8c-.2.1-.2.4 0 .6.2.2.4.2.7.2 3.9.3 7.5 2.8 9.9 5.9s3.9 6.8 5.4 10.5l2.2 5.9c1.3 4.1 2.1 8.6 1.4 12.9a5 5 0 0 1-.4 1.3c-.4.6-1.1 1-1.9 1.3-8.5 3.3-17.9 3-27 2.6-2-.1-4.1-.2-6.1-.6-2.7-.6-5.2-1.8-7.7-2.7a14 14 0 0 0-8.1-.8"/><path class="st2" d="M483.1 198.9c-.2-5.5 0-11 .7-16.5-5.4-2.5-9.8-7-12.3-12.5a24.4 24.4 0 0 1-2.1-10.3c.1-2.7.5-5.7-1.2-7.8-1.7-2-5-2.6-5.9-5-.5-1.4 0-3.1 1.1-4.2s2.6-1.6 4.1-1.7c.5 0 1 0 1.4-.4.3-.3.4-.7.5-1.1 1.2-4.4 5.2-7.5 9-10a38 38 0 0 1 13.2-5.8c1.4-.3 2.9-.4 4.4-.1 1.2.3 2.3.8 3.4 1.4a33.4 33.4 0 0 1 13.2 13.4c1.1 2.1 2.3 4.6 4.6 5.1 1.1.3 2.3.1 3.2.6.9.5 1.3 1.4 1.6 2.3 1.2 4-1.3 8.5-5 10.3-.8.4-1.6.6-2.3 1.2-.8.7-1.2 1.7-1.7 2.6-2.7 6.4-5.6 13.5-11.9 16.6-2.2 1-4.7 1.6-6.2 3.5-1.7 2.2-1.2 5.3-1.2 8.1.1 6.5-2.5 12.8-5 18.8l-6.5-8.8"/><path class="st3" d="M482.6 114.1c-13 5.8-15.3 23.7-15.7 36.2-.5 12.6 2.6 29.7 17.3 32.9 13 2.8 23.9-7.6 28.4-18.7a55.1 55.1 0 0 0 .6-43.1c-3.2-6.7-7.9-11.1-15.6-11.5a31.1 31.1 0 0 0-21.4 7.6c-1.2 1 .5 2.7 1.7 1.7 6.4-5.3 16-8.8 24.2-6.1 7.9 2.6 11.1 13.4 12.1 20.7 1.8 13.6-1.2 32.2-11.9 41.7-5.9 5.3-15 7.7-22.2 3.5-7.4-4.3-10.1-13-10.7-21-1-13.1.5-35.5 14.5-41.7 1.3-.7.1-2.8-1.3-2.2z"/><path class="st3" d="M494.5 112.4a42 42 0 0 1-18 21.6c-2.3 1.4-7.9 5.7-8.9 1.6-1.4-5.4 3.6-13.5 6.9-17.3a27.4 27.4 0 0 1 17.4-9c8.5-1.1 15.5 0 21 7.2a30.1 30.1 0 0 1 6.1 19.8c-.2 3.2-3.2 6.6-6.8 4.3-1.1-.7-2-2.1-2.9-3.1a50.7 50.7 0 0 1-12-28.5c-.2-1.5-2.6-1.6-2.4 0a55 55 0 0 0 6.7 21.6c2.4 4.2 6.9 12.4 11.9 14 4.5 1.5 7.3-3 7.8-6.9 1-7-1.2-14.7-4.9-20.5-3.5-5.5-8.6-10.2-15.3-10.7-7-.6-14.8.6-20.9 4.1a30.9 30.9 0 0 0-12.5 14c-1.9 4.3-4.2 11.5-.9 15.6.3.3.8.4 1.2.3a45.6 45.6 0 0 0 28.8-27.4c.6-1.5-1.7-2.2-2.3-.7z"/><path class="st3" d="M485.4 108.7c1.6-3.1 4.5-5.7 7.9-6.7 4.4-1.3 9.7.9 9.6 6.1 0 1.6 2.4 1.6 2.4 0a9 9 0 0 0-8.7-9 15.2 15.2 0 0 0-13.2 8.3c-.8 1.5 1.3 2.7 2 1.3z"/><path class="st3" d="M469.4 122.9c-1.7 3.1-4.8 10.8-.6 13.3.4.2.9.2 1.2 0 2.9-1.7 7.4-9.2 3.9-12.3-3.7-3.4-6.7 3.5-7.1 6.1-.5 3.5.1 8.2 4.6 6.8 5.9-1.9 9.4-10.8 10.2-16.2.1-1-.8-2-1.8-1.4-2.6 1.7-13.2 12.5-7.2 15.6 2 1 5.4-1.6 6.7-2.7 3.4-2.8 5.4-6.7 6.1-11 .1-.8-.5-1.9-1.5-1.5-5 1.9-11.2 6.9-9.2 12.9.3.8 1 1.1 1.8.7a23 23 0 0 0 9.8-8.5c1.1-1.8 4-6.4 2.2-8.5-1.4-1.6-3.6-.1-4.9.8a13 13 0 0 0-5.3 9.7c-.1.8.8 1.4 1.5 1.2 3.1-1 17.4-10.3 12.4-14.4-4.2-3.4-14.5 5.8-11.3 10.4 3.1 4.5 12.8-6.8 11.3-10.6-1.1-2.7-4.5-2.1-6.5-.9-3.4 2.2-4.6 6.3-4.9 10.1-.1 1 1.1 1.4 1.8 1 3.2-1.6 8.1-4.9 8.8-8.8.5-2.8-1-4.2-3.7-4-4.4.3-14.4 10.1-8.7 14.1 4.3 3 14.1-6.7 10.1-11.4-2-2.4-5.4-1.9-7.7-.3-3.8 2.5-5.3 7.3-5.6 11.6-.1.9 1.1 1.5 1.8 1 2.7-1.6 10.9-9.9 5-12.4-6.2-2.7-11.9 8.5-12.7 12.8-.2 1.2 1.1 2 2 1.2 3.1-2.6 5-5.7 5.8-9.6.2-1.1-.8-1.8-1.8-1.4a7.9 7.9 0 0 0-4.8 5.8c-.3 1.2 1.1 2 2 1.2 4.6-4.2 9.4-8 14.7-11.3l-1.8-1.4c-1 5-5.7 8.3-5.6 13.7 0 .9 1 1.6 1.8 1 2.9-1.8 5.2-3.8 7.4-6.5 1-1.2-.6-2.9-1.7-1.7-1.9 1.9-3 3.8-3.8 6.4-.4 1.2 1.2 2 2 1.2 3.8-3.7 7.3-7.5 8.5-12.8.2-.8-.4-1.4-1.2-1.5-2.6-.3-4.5.1-6.8 1.3-1.1.5-.6 2.3.6 2.3 1.8-.1 5.3-.9 4.9-3.5-.3-1.8-2.2-2.3-3.5-1.3-.8.6-.8 1.9.3 2.2 1.6.4 2.6.2 3.6-1.1.7-.8.2-2-.9-2.1-3.3-.3-6 .3-6.5 3.9-.1.8.9 1.3 1.5 1.2 2-.4 8.3-3.5 3.9-5.6l-.9 2.2 2.6.4c1.5.2 2.2-2.1.6-2.3l-2.6-.4c-1.2-.2-2.3 1.6-.9 2.2L486 111l1.5 1.2 4.1-1.5-.9-2.1-1.2.5.3 2.2-2.6.3.6 2.3a7.5 7.5 0 0 1 5.6-1l-1.2-1.5c-1.1 4.9-4.3 8.3-7.8 11.8l2 1.2a10 10 0 0 1 3.2-5.3l-1.7-1.7c-2 2.4-4.2 4.4-6.9 6.1l1.8 1c-.1-4.9 4.6-8.3 5.5-13 .2-1-.8-2-1.8-1.4-5.4 3.5-10.4 7.4-15.1 11.7l2 1.2c.5-2.3 1.7-3.8 3.7-4.4l-1.8-1.4c-.8 3.6-2.4 6.2-5.2 8.5l2 1.2c.6-3.4 2.2-7.6 5.4-9.4 2-1.2 5.4-2.1 3.3 1.7a12 12 0 0 1-4.7 4.5l1.8 1c.1-1.9.4-3.9 1.3-5.6a8 8 0 0 1 1.7-2.4c.8-1.7 1.8-1.4 2.9.7 2.5.9 2.8 1.8 1 2.7-.5.6-1.2 1-1.8 1.4-2.8 1.3-3.9.5-2.1-3.2.9-1.8 6.3-7.5 7.6-3.5.7 2.1-5.6 5.7-7.3 6.5l1.8 1c.1-1.8.5-3.6 1.3-5.2.9-2.7 2.3-2.8 4.2-.6a18 18 0 0 1-3 3.7c-1.6-1.8-1.3-3 1.1-3.8 5.3-.9.3 3.6-.6 4.5a16.6 16.6 0 0 1-7.1 4.5l1.5 1.2c.1-1 2.5-8.9 4.7-8.1 1.7.6-.7 4-1.2 4.9a20 20 0 0 1-8.9 7.6l1.8.7c-1.6-4.8 4-8.6 7.5-9.9l-1.5-1.5c-.5 3.1-3.2 10.9-7.2 11-5.6.2 3.5-9.3 5.1-10.3l-1.8-1.4c-.4 2.6-1 5-2.2 7.3-.7 1.3-3 5.8-4.8 6-3.2-1.5-3.9-3.5-2.1-6.1 2.5.7 2.8 2 1 4.2-4 4 .1-6.9.3-7.2 1.2-1.1-.9-2.3-1.7-.9zm35.7-6.3c-.4-2.1-2.4-4.5-4.5-2.4-3.2 3.1 1.8 9 4.2 10.6.7.5 1.9-.2 1.8-1-.2-4.2-1.8-7.5-4.9-10.4-.7-.6-2.2-.3-2.1.9.3 3.9 1.3 7.5 3.1 11 .6 1.1 2.3.5 2.3-.6 0-4.6-1.3-8.3-4.2-11.9-.7-.9-2-.1-2.1.9-.1 2.5 0 6 2.5 7.2.4.2.9.3 1.2 0 2.8-2.1 1.4-9.2-2.3-9.5-4.7-.4-2.3 6.9-.4 8.5.6.5 1.9.5 2-.5.4-2.7.4-8.9-3.1-9.9-2.2-.6-2.8 1.5-2.5 3.2.4 2 2.5 4.1 4.5 2.5 2.9-2.2 0-6.2-2.2-7.4-1.4-.7-2.5 1.2-1.2 2.1 2.2 1.5 4.3 2.4 6.9 3 .9.2 2-.9 1.4-1.8l-.7-1-1.7 1.7c3.1 1.7 5.9 3.5 8.6 5.8 1.2 1 2.8-.6 1.7-1.7a50 50 0 0 0-4.8-4.4c-1.2-1-2.8.6-1.7 1.7l3.6 3.8 1.7-1.7c-2.5-2-4.9-3-8.1-3.2-.8-.1-1.3.8-1.2 1.5.7 3.3 2.4 5.7 5.2 7.7 1 .7 1.9-.4 1.8-1.4a7.3 7.3 0 0 0-5.8-6.5c-.9-.2-1.7.6-1.5 1.5.9 3.5 2.1 6.6 4.1 9.6.7 1.1 2.7.4 2.2-.9a14 14 0 0 0-5.7-7.6c-.7-.5-1.9.1-1.8 1a14 14 0 0 0 3.8 8.9c.8.9 2.3-.1 2-1.2-.8-3.2-2.4-5.3-5-7.1-.8-.5-1.8.2-1.8 1-.1 3.6 1 6.5 3.4 9.2.9 1 2.2-.1 2-1.2-.5-2.9-1.5-5-3.5-7.1-.8-.9-2.4 0-2 1.2 1 3.6 2.4 7 4 10.4.5 1.1 2.4.6 2.3-.6-.2-2.3-.7-4.3-1.8-6.4-.6-1.2-2.7-.4-2.2.9a47 47 0 0 0 5.1 10.6c.5.8 2.1.8 2.2-.3.5-3.8-.4-6.7-3.1-9.5-.7-.7-2.2-.2-2.1.9a17 17 0 0 0 4.6 10.7c.6.7 1.8.3 2-.5 1-4.5-.3-8.4-3.9-11.3-.9-.7-2.4-.1-2 1.2.6 2.1 4 11.6 7.6 8.4 3.6-3.3-2.6-11.5-5-13.6-.8-.7-2.1-.2-2.1.9.1 3.9 1.5 8.7 5.3 10.6.5.3 1 .2 1.5-.2 3.5-2.9-1.3-9.3-3.5-11.6-.8-.8-2.5 0-2 1.2 1.2 3.1 3 5.3 5.9 7 .6.4 1.6.1 1.8-.7.8-4.2-.2-7.7-3-10.9-.8-.9-2.3.1-2 1.2.9 3.1 2.2 5.3 4.5 7.5.5.5 1.6.5 1.9-.2 1.4-3.1 1.3-5.9-.8-8.6-.7-1-2.2-.7-2.3.6-.2 2.7.4 4.8 1.9 7.1.6 1 2.3.6 2.3-.6 0-3.1-.9-5.5-2.9-7.9-.7-.8-2.1-.2-2.1.9.2 2.2.6 3.7 1.8 5.6.8 1.3 2.8.2 2.1-1.2-1.1-2.3-4.3-5.6-7.2-3.9-2.3 1.4-1.7 4.9-.4 6.8 1.1 1.7 3.5 3.3 5.3 1.7 2.5-2.2.6-7.2-.7-9.4-.7-1.1-2.1-.5-2.3.6-.4 3.9.8 7.1 3.5 9.9.7.7 2.1.2 2.1-.9a9 9 0 0 0-4.6-7.9c-.7-.4-1.6 0-1.8.7-.9 2.9 0 5.1 2.4 6.8.6.4 1.7 0 1.8-.7.3-2-.3-6.6-3.3-6.2-3 .3-1.5 4.4-.7 5.9.5 1 1.9.6 2.2-.3.7-1.9.6-1.5.7-3.6l-2.1.9c1.7 2.2 3.2 4.4 4.6 6.8.4.8 1.7.8 2.1 0 .8-1.5 1-2.6.6-4.3l-2.3.6 1.3 6.6c.3 1.4 2.3.9 2.4-.3.2-2.3.1-3.9-.5-6.1-.4-1.3-2.3-1-2.4.3l-.3 7.2c0 1.6 2.3 1.5 2.4 0 .1-1.6-1.4-2.8-3-2.1-2.4 1.2-1.1 5-.1 6.5.4.7 1.7.9 2.1 0 .9-2 1.1-3.2.3-5.3-.2-.7-1.1-1.2-1.8-.7-1.9 1.3-2.6 2.8-1.8 5 .2.6.8 1.1 1.5.8 1.8-.6 1.9-.6 2.7-2.3.3-.5.2-1.4-.4-1.7-2.5-1.1-4.8-.5-6.2 2-.3.6-.1 1.2.4 1.7 2.8 2.2 6.6-1.7 3.5-4-3-2.2-6.1 2.7-3.8 4.9 2.4 2.3 6-2.2 2.9-4-3.8-2.2-5.1 3.4-2.2 5.5.9.6 2-.4 1.8-1.4-.5-2.1-1.7-2.7-3.7-2.2-.5.1-.9.7-.9 1.2.2 1.6.2 1.8 1.6 2.6.4.2.9.2 1.2 0 1.4-.8 1.4-1 1.6-2.6.1-1.2-1.4-1.4-2.1-.9-1.6 1.3-1.8 2.4-1.2 4.3.3.8 1.4 1.2 2 .5 1.7-1.7 2.2-3.5 1.2-5.8-.4-.9-1.7-1.3-2.2-.3-2.5 4.9 4.1 6.6 4.2 2.1 0-1.6-2.2-1.5-2.4 0l-.1.4c0 .4.3.9.6 1l.5.2c.5.2 1 .2 1.5-.2.6-.6.6-1.3 1.1-1.9 1.1-1.1-.6-2.9-1.7-1.7-.2.2-.5.5-.6.8-.3 1.3 1.3.5 1.2 1.3h-2.4l.4-.9-2.2-.3-.6 3.4 2 .5.6-1.9-2.1-.9.3 1.7 1.8-1.4-.4-2.5.4 1.7 2.9-1.1-.4-1.7-1.3 1.2 1.5.8.7-2.3-1.8-.7-.1 3.5h2.1l-1.5-3.2h2.4l.3-7.2-2.4.3c.7 1.8.8 3.6.5 5.4l2.4-.3-1.3-6.6c-.3-1.5-2.6-.9-2.3.6l-.4 2.4h2.1c-1.5-2.6-3.1-5-5-7.3-.7-.9-2-.1-2.1.9l-.6 2.9 2.2-.3-.4.9 1.8-.7-1.3-4-1.8.7a6 6 0 0 1 3.4 5.8l2.1-.9a9.2 9.2 0 0 1-2.8-8.1l-2.3.6c1 1.2 1.4 2.6 1.2 4.2-.4 2.3.2 2.5 1.8.7l2.1-1.2-1.4-4.4-2.1.9a7.9 7.9 0 0 1 2.2 6.1l2.3-.6a7 7 0 0 1-1.5-5.9l-2.3.6c1.5 1.6 1.8 3.7.8 6.2l1.9-.2c-2-1.9-3.1-3.8-3.9-6.4l-2 1.2a10 10 0 0 1 2.3 8.6l1.8-.7c-2.4-1.4-3.8-3-4.8-5.6l-2 1.2c1 1 4.6 5.2 3.2 6-1.5.8-2.3-6-2.3-6.5l-2.1.9c2.3 2.1 4.8 5.2 4.8 8.4 0 1.7 1 2-.6.2a15 15 0 0 1-2.8-5.8l-2 1.2a8.4 8.4 0 0 1 3.3 8.9l2-.5a14.5 14.5 0 0 1-3.9-9l-2.1.9a7.4 7.4 0 0 1 2.5 7.1l2.2-.3a46.4 46.4 0 0 1-4.9-10l-2.2.9c.9 1.6 1.4 3.3 1.4 5.2l2.3-.6a56 56 0 0 1-3.7-9.9l-2 1.2c1.7 1.8 2.5 3.6 2.9 6l2-1.2a10.4 10.4 0 0 1-2.7-7.5l-1.8 1a7.8 7.8 0 0 1 3.9 5.7l2-1.2a11.5 11.5 0 0 1-3.1-7.2l-1.8 1c2.4 1.6 3.7 3.4 4.6 6.1l2.2-.9c-1.8-2.8-3-5.8-3.8-9l-1.5 1.5c2.8.9 4.1 2.5 4.1 4.8l1.8-1.4a9.9 9.9 0 0 1-4.1-6.2l-1.2 1.5c2.4.1 4.5.9 6.3 2.5 1.2 1 2.8-.6 1.7-1.7l-3.6-3.8-1.7 1.7c1.7 1.4 3.3 2.9 4.8 4.4l1.7-1.7a56.2 56.2 0 0 0-9.1-6.2c-1-.5-2.4.6-1.7 1.7l.7 1 1.4-1.8c-2.3-.6-4.3-1.4-6.3-2.8l-1.2 2.1a15 15 0 0 1 2.2 8.8l2-.5c-.2-.1-.3-5-.4-4.4l-2.1.9c2.4 3.1 3.5 6.3 3.5 10.1l2.3-.6a25.7 25.7 0 0 1-2.8-9.8l-2.1.9c2.7 2.4 4 5 4.2 8.6l1.8-1c-2.3-1.2-3.4-3-3.2-5.4.5 1.6 2.8.9 2.5-.6z"/><path class="st3" d="M489.8 107.6c.8-4.3 5.5-2.5 7.6-.7l1.5-1.9a8.4 8.4 0 0 0-12.8 3c-.7 1.4 1.3 2.6 2.1 1.2 1.1-1.9 3.7-4.1 6-4.3 2.8-.3 3.4 1.5 4.7 3.5.9 1.3 2.9.1 2.1-1.2-2.8-4.7-8.9-4.7-11.7.1-.4.7 0 1.6.7 1.8 2 .5 3.4-.9 5-1.9 1.6-1 4-2.7 5.2-.1.4.8.3 1.7.8 2.6.6 1.1 2.2.6 2.3-.6 0-2.6-2.7-8.7-6.3-6.8-1 .5-1.4 1.7-1 2.8.7 2.1 3.3 1.9 5.1 2.4.8.3 1.5-.4 1.5-1.2.9-9.4-13.4-6-15 1h2.3c-1.1-4-6.4-2.6-6.4 1.3 0 .6.4 1 .9 1.2 2.1.8 4-1.4 5.7-2.5 1.3-.9 3-2.6 4.5-3.1.9-1.1 1.7-1 2.6.3l1.3 1.8c.5.8 1.6.8 2.1 0a6 6 0 0 0 1-3.9l-2.3.6c.5.6.8 1.3 1.1 2 .4.9 2.1.7 2.2-.3.4-3.2-3.8-4.3-4.3-1-.3 1.5 2.1 2.2 2.3.6l-.3-.3 2.2-.3c-.2-.7-.6-1.4-1.1-2-.6-.9-2.4-.7-2.3.6.3 1 .1 1.9-.6 2.7h2.1c-1.3-1.7-2.7-4.8-5.3-4.1-1.5.4-2.9 1.9-4.2 2.7-1 .7-5 4.2-6.1 3.8l.9 1.2 1.6-.6c.3 1.1 2.1 1.2 2.3 0 .4-2 1.6-3.2 3.3-4.1 2.4-1.4 7.4-1.7 7 2.5l1.5-1.2c-.6-.2-1.2-.6-1.7 0s.9 2.9.9 4l2.3-.6c-1.3-2.4-.8-4.7-4.1-5.1-1-.1-2.1.1-3 .5-1.3.5-3.9 3.3-5.3 2.9l.7 1.8c1.8-3.2 5.6-3.2 7.5-.1l2.1-1.2c-1.6-2.4-2.5-5.3-5.9-5-3.5.3-7.2 2.9-9 5.8l2.1 1.2c2-3.8 6.1-4.7 9.5-2.2 1.1.8 2.5-1 1.5-1.9-3.5-3-10.5-4.5-11.7 1.7-.3 1.5 2 2.1 2.3.6z"/><path class="st3" d="M484.1 106.6l-1 3.3 2.3.6.6-1.9c.4-1.4-1.4-2-2.2-.9-2 2.8-3.1 5.9-3.3 9.3-.1 1.6 2.3 1.5 2.4 0 .2-3 1.3-5.6 3-8l-2.2-.9-.6 1.9c-.4 1.5 1.9 2.1 2.3.6l1-3.3c.5-1.6-1.9-2.2-2.3-.7zm-15.9 33c-3.4-1.2-6.6 1.2-7.6 4.5-1 3.4 2.2 6.5 5 7.9 1.4.7 2.6-1.4 1.2-2.1-1.4-.7-3.8-2.6-4-4.2-.4-2.5 2.5-4.6 4.7-3.8 1.6.6 2.2-1.8.7-2.3zm48.6 5.6c4.1-1.3 5.3 3.7 3.8 6.5-1.3 2.5-3.8 4-6.1 5.3-1.4.8-.1 2.9 1.2 2.1 4-2.2 8.3-5.6 8.1-10.7-.2-3.9-3.9-6.8-7.6-5.6-1.6.5-.9 2.8.6 2.4z"/><path class="st3" d="M470.4 126.2a10.5 10.5 0 0 0-1.9 4.9c-.2 1.5 2 2.2 2.3.6l.9-4.8c.3-1.5-1.9-2.2-2.3-.6l-2.6 9.4c-.2.6.2 1.3.8 1.5 3.5.8 4.9-1.6 7.7-3.2l-1.2-2.1c-2.2 1.5-4.2 3-6.1 4.8-1.1 1 .3 2.4 1.5 1.9a34.7 34.7 0 0 0 14.8-12.8c.7-1.1-.6-2.2-1.7-1.7a17 17 0 0 0-6.3 5.9c-.5.9.4 2.1 1.4 1.8 6.8-2.5 10.6-8.1 14.2-14.1l-2.1-1.2c-2.9 5.2-6 10.4-11.2 13.6l1.2 2.1c3.2-2.3 6.1-4.9 8.5-8.1 1.3-1.7 4.5-5.6 3.5-8.1-2.2-5.3-8.9 4.7-9.7 6.4-.7 1.4 1.2 2.5 2.1 1.2 1.2-1.8 2.3-3.6 3.3-5.5.6-1.2-.9-2.5-1.9-1.5l-3.2 3.5 2 1.2a18 18 0 0 0 1.3-6c.1-.9-1.1-1.5-1.8-1-2.4 1.6-4 3.4-5.2 6-.5 1.1 1 2.6 1.9 1.5 2.2-2.8 3.9-5.7 5.3-9 .5-1.3-.8-2.4-1.9-1.5l-2.4 1.9 1.9 1.5c2.5-4.3 6.8-4.5 11.2-3.8l-.3-2.2c-1.8.8-1.4.5-2.8 2-1.1 1.1.5 2.7 1.7 1.7 2.9-2.5 4.3-5.4 4.8-9.2.1-.5-.4-1.1-.9-1.2-1.2-.2-1.5-.2-2.5.3-1.2.6-.4 2.1.6 2.3l.8.1c1.5.2 1.5-2.2 0-2.4l-.8-.1.6 2.3c-.5 1.5-1.3 2.8-2.2 4-.5.9-1.2 1.7-2.1 2.2l1.7 1.7 2.3-1.6c.9-.4.7-2.1-.3-2.2-5.5-.9-10.9-.3-14 4.9-.7 1.3.9 2.3 1.9 1.5l2.4-1.9-1.9-1.5a40 40 0 0 1-4.9 8.5l1.9 1.5c1-2.2 2.2-3.8 4.3-5.2l-1.8-1c0 1.9-.4 3.7-1.2 5.3-.4 1.1 1.2 2 2 1.2l3.2-3.5-1.9-1.5c-1 1.9-2.1 3.7-3.3 5.5l2.1 1.2c.5-1.1 2.1-4.4 3.2-4.7 2.1-.6.4 1.8-.1 2.5a32 32 0 0 1-8.6 8.6c-1.3.9-.1 2.9 1.2 2.1 5.6-3.4 8.9-8.8 12.1-14.4.8-1.4-1.3-2.6-2.1-1.2-3.2 5.3-6.6 10.7-12.8 13l1.4 1.8c1.5-2.3 3.1-3.7 5.4-5l-1.7-1.7a32.1 32.1 0 0 1-13.9 11.9l1.5 1.9c1.8-1.6 3.6-3.1 5.6-4.4 1.3-.9.1-2.9-1.2-2.1-1.6.9-3.9 3.4-5.8 3l.8 1.5 2.6-9.4-2.3-.6-.9 4.8 2.3.6c.1-1.6.6-3 1.6-4.3.9-1.3-1.2-2.6-2-1.3z"/><path class="st3" d="M498.6 116.8c.2 2.9.8 5.2 2.1 7.7.6 1.1 2.2.5 2.3-.6.1-2.3-.3-4-1.5-5.9-.7-1.2-2.5-.4-2.2.9 1.6 6.4 3.9 13.2 11.2 14.5 1 .2 2-.8 1.4-1.8-1.2-1.9-2.8-3.7-5.3-3.7-.4 0-.9.2-1 .6-1.2 2.7.4 5.1 2.8 6.5.9.5 1.7-.1 1.8-1 .2-2.7-.8-4.7-3-6.3-.7-.5-1.6.1-1.8.7-1 3.3 0 6 2.7 8 .7.5 1.5-.1 1.8-.7l.5-1.4h-2.3c.8 2.8 1.7 4.9 4.5 5.9 1.1.4 2.1-1.2 1.2-2a7.8 7.8 0 0 0-3.8-2c-.7-.2-1.6.4-1.5 1.2.1 3 2.2 5.1 5.3 4.7 3.8-.5 5.4-4.5 6.5-7.6.5-1.3-1.5-2.1-2.2-.9L515 139l2.2.9c.5-3 4.2-13.6-3.4-11.9-3.2.7-4.6 6.6-.8 7.3 4 .7 3.6-6.2 1.2-7.8-1-.7-2.1-.8-2.9.3-1.2 1.7.7 3.8 1.8 4.8.9.8 2.4 0 2-1.2a13.2 13.2 0 0 0-7.6-8.8c-.8-.4-2.2.3-1.8 1.4 1 2.3 2.1 3.6 4.4 4.6.9.4 1.7-.1 1.8-1 .2-1.7-.6-2.5-2.1-3-1-.3-1.6.6-1.5 1.5a7.6 7.6 0 0 0 2.9 5.2c.7.6 2.2.3 2.1-.9-.3-2.5-1.2-4-3.5-5.1-1.1-.5-2.3.6-1.7 1.7 1.1 2 3.4 2.6 5.3 1.1 3.2-2.6.5-7.8-1.3-10.2-3.1-4.3-6.3-8.3-9.5-12.5-1.9-2.5-3.9-6.4-7.5-3.9-.6.4-.9 1.3-.2 1.9 4.5 4.1 9.9 8 13 13.4 2.8 5.1 3.6 10.8 6.8 15.7.8 1.3 3 .1 2.1-1.2-3.5-5.3-4.2-11.9-7.7-17.2-3.1-4.9-8.2-8.6-12.5-12.5l-.2 1.9c1.6-1.1 8.6 8.2 9.1 9.1.7 1.2 1.4 2.4 2.3 3.5l2.7 3.5c1.5 1.7 1.4 3.7-.3 6l-1.7 1.7 2.3 3 2.1-.9a4.8 4.8 0 0 1-2.3-4.1l-1.5 1.5.3.6 1.8-1-3.3-3.2-1.8 1.4c3.4 1.5 5.5 3.8 6.5 7.4l2-1.2c2.8 2.5.5 5.6 0 8.4-.2 1.3 1.5 2.2 2.2.9l3.1-5.4-2.2-.9c-.5 3.7-2.8 4.8-7.1 3.6l-1.5 1.2 2.7 1.4 1.2-2a5.6 5.6 0 0 1-2.8-4.2c-.3-1.2-2-1.1-2.3 0l-.5 1.4 1.8-.7-1.6-5.2-1.8.7 1.8 4.2 1.8-1 .2-.1 1.4-1.8c-6.4-1.2-8.1-7.4-9.5-12.8l-2.2.9c1.1 1.4 1.5 3 1.2 4.7l2.3-.6c-1.2-2-1.8-4.2-1.8-6.5-.1-1.7-2.5-1.8-2.4-.2zm-19.3 24.8c-4.6.8-4.4 6.4-3 9.8 1.8 4.5 6.1 4.9 9.9 2.4a7 7 0 0 0 2-10.2c-2.5-3.7-7-3.9-10.8-2.1-1.4.7-.2 2.8 1.2 2.1 2.2-1.1 5-1.4 6.9.5 1.9 1.9 2.4 4.9.3 6.9-2 2-5.6 3-7.1 0-1.1-2.1-2-6.5 1.2-7 1.6-.3.9-2.6-.6-2.4zm18.6-.4c-4 1.2-5.6 5.7-4.8 9.6.8 3.9 4.9 4.7 8.3 4 3.6-.7 6.5-3.2 6.1-7.1-.5-4.3-4.4-6.5-8.4-7-1.5-.2-1.5 2.3 0 2.4 2.4.3 5 1.4 5.8 3.9.9 2.7-.9 4.7-3.4 5.3-2 .5-5.2.6-5.9-1.9-.8-2.6.3-6.1 3-6.9 1.4-.4.8-2.7-.7-2.3z"/><path class="st3" d="M488.8 149.8c.9-.3 2.5-1 3 .3.3.6 1.1.7 1.7.4.6-.4.7-1.1.4-1.7-1-2.3-3.8-2-5.8-1.4-1.4.6-.8 2.9.7 2.4zm18.4.6l9.4-4.9c1.4-.7.2-2.8-1.2-2.1l-9.4 4.9c-1.4.7-.2 2.8 1.2 2.1zm-30.6-5.5l-6.2-5.9c-1.1-1.1-2.8.6-1.7 1.7l6.2 5.9c1.1 1.1 2.9-.7 1.7-1.7zm3.8 4.8a4.3 4.3 0 0 1 3.8-.8c1.5.4 2.2-2 .6-2.3-2-.5-4-.1-5.7 1.1-1.2.8 0 2.9 1.3 2zm18.2.1c1-.6 2.4-.5 3.3.3 1.2 1 2.9-.7 1.7-1.7a5.6 5.6 0 0 0-6.3-.6c-1.3.7-.1 2.8 1.3 2zm-13.2 10.9a4.6 4.6 0 0 0 6.3-.1c1.1-1.1-.6-2.8-1.7-1.7a2 2 0 0 1-2.9.1c-1.2-1.1-2.9.6-1.7 1.7zm-6.4 7c4 3.1 7.8 5.5 13 4.5 4.4-.9 8.4-3.3 9.6-7.7.4-1.5-1.9-2.1-2.3-.6-1 3.6-4.5 5.4-7.9 6-4.3.8-7.5-1.3-10.6-3.8-1.3-1-3 .7-1.8 1.6z"/><path class="st3" d="M498.2 163.7a51 51 0 0 0 2.4 2.3c1.1 1.1 2.8-.6 1.7-1.7l-2.4-2.3c-1.1-1.1-2.8.6-1.7 1.7zm-19.1.6l-1.9 2.3c-.4.5-.5 1.2 0 1.7.4.4 1.3.5 1.7 0l1.9-2.3c.4-.5.5-1.2 0-1.7-.5-.4-1.3-.5-1.7 0zm18.8-25.6c2.1.4 3.9 1.2 5.5 2.6 1.2 1 2.9-.7 1.7-1.7a13.7 13.7 0 0 0-6.5-3.2c-1.6-.3-2.2 2-.7 2.3zm-14.8-2.9c-2.5.8-4.7 2-6.7 3.7-1.2 1 .5 2.7 1.7 1.7 1.6-1.4 3.5-2.4 5.6-3 1.6-.5.9-2.9-.6-2.4zm-3-1.7c7.2-4.5 15-8.8 19.6-16.3.7-1.2-.9-2.4-1.9-1.5a68.2 68.2 0 0 1-8.8 7.3l1.5 1.9c3.3-3.3 6.4-6.6 8.7-10.7.8-1.4-1.2-2.4-2.1-1.2l-6.8 9c-.8 1.1 1 2.5 1.9 1.5l7-7.8-1.9-1.5c-3.4 6.3-8.3 11-14.6 14.2-1.4.7-.2 2.7 1.2 2.1a74 74 0 0 0 18.1-10.9l-1.7-1.7c-6.1 5.6-13.6 9-21 12.4-1.3.6-.4 2.6.9 2.2 8-2.6 14.9-7.4 21.7-12.3 1.3-.9 0-3-1.2-2.1a79.2 79.2 0 0 1-21.1 12.1l.9 2.2a80.6 80.6 0 0 0 21.5-12.8c1.2-1.1-.5-2.7-1.7-1.7a76.6 76.6 0 0 1-17.6 10.5l1.2 2.1c6.7-3.3 12-8.4 15.5-15 .6-1.2-.9-2.5-1.9-1.5l-7 7.8 1.9 1.5 6.8-9-2.1-1.2c-2.2 3.9-5.2 7-8.3 10.2-.9.9.3 2.7 1.5 1.9a76 76 0 0 0 9.3-7.7l-1.9-1.5c-4.3 7.1-11.8 11.1-18.7 15.4-1.4.9-.2 3 1.1 2.1z"/><path class="st3" d="M493.1 125.9c3.8 4.3 9.5 9.8 15.4 10.5 1.2.1 1.6-1.7.6-2.3-2-1.1-3.5-2.6-5.1-4.4-1.4-1.6-4-3.8-4.5-5.9l-2 1.2a134 134 0 0 1 5.1 5.4c.9 1 2.7-.3 1.9-1.5-2-3.1-4.5-5.7-7.6-7.8-1-.7-2 .4-1.8 1.4.5 3 2.3 5.1 4.7 6.9 1.1.8 2.1-.7 1.7-1.7-1-2.2-2.3-4.1-3.9-5.8-1.1-1.2-2.7.5-1.7 1.7 1.1 1.3 2.2 2.5 3.5 3.5 1.2 1 2.7-.5 1.7-1.7a60.2 60.2 0 0 0-4.2-4.6c-1.1-1.1-2.8.6-1.7 1.7l2.3 2.2c1.1 1.1 2.8-.6 1.7-1.7l-2.3-2.2-1.7 1.7c1.5 1.4 2.9 3 4.2 4.6l1.7-1.7a23.2 23.2 0 0 1-3.5-3.5l-1.7 1.7c1.5 1.6 2.6 3.4 3.5 5.4l1.7-1.7a8.7 8.7 0 0 1-3.6-5.5l-1.8 1.4c2.7 1.9 4.9 4.2 6.7 6.9l1.9-1.5-5.1-5.4c-.9-.9-2.3 0-2 1.2.6 2.5 2.9 4.3 4.5 6.2 1.9 2.1 3.7 4.1 6.2 5.5l.6-2.3c-3.2-.4-5.7-2.6-8.1-4.6a46 46 0 0 1-5.6-5.2c-1-1-2.7.7-1.7 1.9zm-.5 57.3a137 137 0 0 0-.6 12.8c0 1.6 2.4 1.6 2.4 0 0-4.3.2-8.5.6-12.8.2-1.5-2.3-1.5-2.4 0zm-9.8.3c-.6 4.5-.8 9.1-.6 13.7.1 1.6 2.5 1.6 2.4 0-.2-4.6 0-9.1.6-13.7.3-1.5-2.2-1.5-2.4 0z"/><path class="st3" d="M491.6 196.9a85.4 85.4 0 0 1-4.1 11c-.3.6-.1 1.7.7 1.8 3.6.5 5.3 4.7 8.9 5.7.8.2 1.5-.4 1.5-1.2.5-6.5-.4-12.8-2.8-18.9-.6-1.4-2.9-.8-2.3.6 2.3 5.9 3.2 12 2.7 18.3l1.5-1.2c-3.6-1-5.1-5.1-8.9-5.7l.7 1.8c1.7-3.8 3.2-7.6 4.4-11.6.4-1.4-1.9-2.1-2.3-.6z"/><path class="st3" d="M480.8 197.4c1.1 5.1 3.8 9.2 8 12.3l-.2-1.9c-2.5 3.1-5.1 6.1-7.9 9l2.1.9v-.9c0-1.6-2.4-1.6-2.4 0v.9c0 1 1.3 1.6 2.1.9a113 113 0 0 0 7.9-9c.5-.7.4-1.4-.2-1.9-3.7-2.7-6-6.4-6.9-10.9-.4-1.5-2.8-.9-2.5.6z"/><path class="st3" d="M479.7 197.4c-2.5 7.7-3.8 15.6-.1 23.2.5 1 1.9.6 2.2-.3l.4-1.1c.5-1.5-1.9-2.1-2.3-.6l-.4 1.1 2.2-.3c-3.4-6.9-2-14.3.3-21.3.5-1.5-1.8-2.2-2.3-.7zm9.1 13.5c-.3 2.4.6 4.8 2.3 6.6 1.1 1.1 2.8-.6 1.7-1.7a5.7 5.7 0 0 1-1.6-4.8c.2-1.7-2.3-1.7-2.4-.1z"/><path class="st3" d="M479.6 196.7c-13.9 6.5-17.9 21.9-17.8 36.1 0 1.6 2.4 1.6 2.4 0-.1-13.4 3.4-27.8 16.6-34 1.4-.6.2-2.7-1.2-2.1zm13.9.8c3.5.8 7.2 1.7 9.8 4.4 2.3 2.3 3.9 5.6 5.3 8.6a58.7 58.7 0 0 1 5.4 20.6c.1 1.5 2.6 1.6 2.4 0a64.4 64.4 0 0 0-6.5-23.5 20.8 20.8 0 0 0-15.7-12.4c-1.6-.4-2.2 2-.7 2.3zm24.9-52.9c3.5 1.4 3.7 6.7 2.3 9.4-1.5 2.8-4 5.8-7.5 5.8l1.6 2c1.1-6.1 2.3-12.1 3.6-18.1l-3.2-.4c0 4.6-.6 9.1-1.2 13.7-.3 2 2.4 2.9 3.1.9 1.5-4.5 2.9-8.9 2.8-13.7 0-1.8-2.8-2.2-3.2-.4-.9 4-1.3 8-1.2 12.1.1 1.6 2.2 2.2 3 .8 2.2-3.9 2.9-8 3.4-12.4.2-1.9-2.6-2-3.2-.4-1 2.9-4 11.3-.6 13.5.5.3 1.2.3 1.6 0 2.8-1.8 2.4-7.8 2.2-10.5-.1-1.7-2.8-2.3-3.2-.4a20 20 0 0 0-.1 8.1c.3 1.5 2.8 1.5 3.1 0 .6-3 .6-7.3-2.6-8.8-1-.5-2 0-2.4 1-1 2.4-1.1 4.7-.5 7.3.2 1 1.5 1.5 2.4 1 2.7-1.8 4.4-12.6-.7-10.8-3.6 1.3-5.5 13.1-1.6 14.8.8.4 1.7.2 2.2-.6 2.4-4 3.2-8.3 2.4-12.9-.3-1.6-2.7-1.4-3.1 0-.3 1.2-.5 2.3-.4 3.6.1 2.1 3.3 2.1 3.2 0-.1-.9 0-1.8.3-2.7h-3.1c.7 3.8 0 7.1-2 10.4l2.2-.6c-1.3-.6.4-5.8.4-6.6.3-.4.3-.7-.1-1-.3-.7-.5-.5-.4.5-.5.9.2 2.3-.9 3l2.4 1a8 8 0 0 1 .5-5.5l-2.4 1c1.6.8 1.3 3.9 1.1 5.2h3.1c-.4-2.2-.4-4.1.1-6.3l-3.2-.4c.1 1.4.6 7-.6 7.8h1.6c-.2-.1.7-4.9.7-5.2.3-1.6.8-3.1 1.3-4.6l-3.2-.4a29 29 0 0 1-3 10.8l3 .8c-.1-3.8.2-7.5 1.1-11.2l-3.2-.4c0 4.5-1.3 8.7-2.7 12.9l3.1.9c.7-4.8 1.4-9.7 1.4-14.6 0-1.8-2.8-2.2-3.2-.4-1.3 6-2.5 12-3.6 18.1-.2 1 .4 2 1.6 2 10.1 0 17-17.2 6.1-21.6-1.7-1.4-2.5 1.8-.6 2.5z"/><path class="st3" d="M511.2 163c1.2 3.6 1.1 6.6-2.3 8.9-1.3.9-2.8 1.5-4.3 1.9l-2.2.5c-1.1.6-1.6.4-1.5-.7h-1.6l.6-.2 1.1 1.1-.1-.4-2-1.1-.2.8 2.5-.3.1-.1-3-1.2-.3 2 3.2.4-.2-2.1c-.2-1.1-1.9-1.6-2.7-.7-1.2 1.4-1.1 3.3.7 4.2 2.3 1.3 6.1.3 8.4-.5 2.4-.8 5.1-2.2 6.6-4.3 1.6-2.2 1.7-5.3 2-7.9.2-2.1-3-2-3.2 0-.4 3.2-.6 5.9-3.6 7.8-1.3.8-2.7 1.4-4.2 1.8l-2.2.4c-1.3.1-1.4-.1-2.2.9l-2.7-.7.1 1.2c0 1.8 2.9 2.3 3.2.4l.3-2c.3-1.7-1.9-2.9-3-1.2-.9 1.4-.7 2.8.5 4.1.8.8 2 .5 2.5-.3a4 4 0 0 0 .6-3.2c-.2-.8-1.2-1.4-2-1.1-2.1.7-2.5 2.3-2.2 4.4.1.6.6 1 1.1 1.1 3.4 1 4.8-3.9 2.2-5.6-2.9-1.8-5.2 3.8-3 5.7 3.1 2.8 9.9-.3 12.7-2.3 4.4-3 5.1-7.4 3.5-12.3-.7-2.2-3.9-1.4-3.2.6zM470 139a3.6 3.6 0 0 0-4.1-2.9c-2.8.5-4.5 3.6-5.2 6.1-1.8 6.1-.2 13.6 6.2 16.1.8.3 1.8-.3 2-1.1 1-4.8-1.4-9.8-1.2-14.8.1-2.1-3-2-3.2 0-.5 4.1-.8 8.3-1 12.4-.1 2.1 3.1 2 3.2 0 .4-5.1 1.2-10.5.4-15.5-.3-1.6-2.8-1.5-3.1 0-1 3.9-1.3 7.8-.8 11.8.2 1.7 2.7 2.3 3.2.4.9-4 1-7.9.4-12-.2-1.4-2.4-1.6-3-.4-1.9 4-2.9 7.9-1.9 12.3.3 1.4 2.2 1.5 3 .4 1.8-2.7 2.7-5.6 2.7-8.8 0-2.1-3-2-3.2 0a55 55 0 0 0-.5 7c0 2.1 3.2 2.1 3.2 0 0-2.4.2-4.7.5-7h-3.2c0 2.7-.7 4.9-2.2 7.2l3 .4a14 14 0 0 1 1.6-9.8l-3-.4c.6 3.5.4 6.8-.4 10.3l3.2.4c-.4-3.8-.2-7.3.7-11h-3.1c.8 4.7-.1 10-.5 14.7h3.2c.1-4.2.5-8.3 1-12.4h-3.2c-.1 1.9 0 3.7.3 5.6.4 2.6 1.5 5.7 1 8.3l2-1.1c-3.2-1.2-4.3-4.6-4.4-7.7 0-1 0-2.2.2-3.2.1-.7.3-1.4.7-2.1.3-1.3 1.2-2.1 2.7-2.3.1 2 3.2 1.1 2.8-.9zm-36.5-8.6c3.7 1.8 2.7 6.3 1.7 9.4-.6 2-1.5 6.4-3.7 7.1-1.8.6-.2-1.7.1-2.8l1.3-4.8 2.7-9.6-3.2-.4c-.6 5.2-1.4 10.4-2.2 15.5-.3 2 2.4 2.9 3.1.9 1.1-3.4 2-6.7 1.9-10.3-.1-1.6-2.2-2.2-3-.8-1.6 2.6-6.9 13.2-2.2 15 4.5 1.8 6.5-7.9 6.8-10.5.2-1.9.8-5.3-.9-6.8-1.3-1.2-2.9-.6-3.9.6-2 2.3-2.2 6.2-2.6 9.1-.3 2.6-.8 5.4.9 7.6.6.7 1.7.5 2.3 0 2.3-2.1 2.8-5.9 3.3-8.8.3-1.8 1.1-5.2-1.1-6.3-5.5-2.8-6.6 10.7-6.4 13.2a1.6 1.6 0 0 0 2.8 1.1c2.4-2.2 7.2-9.6 2.8-12-.7-.4-1.4-.2-2 .3-2.4 2-5.7 10.3-2.3 12.4.5.3 1.2.3 1.6 0 2.3-1.6 5-5.5 3.8-8.4-.4-.8-1.5-1-2.2-.6-3 1.6-3.3 4.5-4.6 7.3l3 1.2.3-1.6c.4-2-2.7-2.9-3.1-.9l-.3 1.6c-.4 1.7 2.1 3 3 1.2.9-2 1.3-5 3.4-6.2l-2.2-.6-1.2 2.1c.5 1.6.8 1.7.8.1 1-1.7.6-4.1 2.4-5.6l-2 .3c.5.2-.8 3.3-.9 3.6a8.7 8.7 0 0 1-2.5 3.2l2.8 1.1a15.2 15.2 0 0 1 1-7.7c.5-.9.6-1.8.4-2.8-1 3 0 7.6-2.6 10h2.3c-1.1-1.4.1-6.1.4-7.7.1-.7.3-2.5.7-3.2-.6.9-.3 3.3-.5 4.4-.4 1.5-1 2.7-1.5 4.2-.7 2-.3.8.1-.6 1-2.9 1.5-5.4 3.1-8.2l-3-.8c.1 3.3-.7 6.3-1.8 9.5l3.1.9c.9-5.5 1.7-10.9 2.4-16.4.2-1.8-2.7-2.1-3.2-.4l-3.1 11.2c-.7 2.4-2 5.2-2.1 7.7-.1 3.6 3 5 5.9 2.7 3.5-2.9 5.1-8.7 6-12.9.8-3.7-.4-8.2-4.1-9.9-2-.6-3.7 2.2-1.8 3.1z"/><path class="st3" d="M424.8 148.6c-.1 3.7.4 8.1-2.1 11.1-2.3 2.8-7.4 6.1-11.2 5.8l1.4.8c-2.1-4-1.1 0-1 .7l3-1.2c-1.4-2.1-3.8-2.4-4.9.2-.2.5 0 1.3.4 1.6.8.6 1.3.8 2.3.6.5-.1 1-.6 1.1-1.1l.1-.3c.5-2-2.6-2.9-3.1-.9l-.1.3 1.1-1.1-.4.1 1.6.4-.3-.2.4 1.6.2-.6-1.1 1.1h-.2c1 1.5 3.3.6 3-1.2-.4-2.1-1.6-5.8-4.4-3.2-2 1.9-1.5 5.9 1.6 5.9 4.5 0 10.1-3.6 12.9-6.9 3.2-3.7 2.7-8.7 2.8-13.3.2-2.3-3.1-2.3-3.1-.2zm-49.6-22.2c-5.9-3-7.3 4.9-6.6 9.1.9 5.8 1.8 16 9.6 15.9 2.1 0 2-3 0-3.2-8.1-.7-9-13.7-4.6-18.6l-2.8-1.1a38 38 0 0 0 1.6 20.6c.7 1.4 2.5.8 3-.4 1.7-4.1-.6-10.5-1.7-14.5-.4-1.7-3.4-1.4-3.2.4a50 50 0 0 0 3.5 13.8c.7 1.6 3.1 1.5 3.2-.4.3-5.9-1.1-11.5-2.7-17.1-.5-1.7-3.2-1.4-3.2.4.2 6 0 13.9 3.4 19 .7 1.1 2.6 1.1 3-.4.9-4.1.5-7.6-1.3-11.4-.5-1-1.8-.9-2.5-.3-2.8 2.3.5 8.6 1.4 11.1.7 2 3.5 1.2 3.1-.9l-.4-2.1-3 1.2 1 2.4c.6 2 3.5 1.2 3.1-.9a9.3 9.3 0 0 0-1.8-4.2c-.8-1.1-2.6-1.1-3 .4-.3 1.4-.4 1.5-.3 2.9 0 1.6 2.2 2.2 3 .8 2.4-3.9-2.1-26.6-8.5-22.2-4.1 2.8-3 11.9-2 15.9 1.6 6 6 10.8 12.3 11.7 1.5.2 2.9-1.5 1.6-2.7a19 19 0 0 1-4.8-10.9c-.6-3.9.9-7.7.4-11.4-.4-2.6-2.9-4.4-5-2.1l2.5.3c-.6-.9-.8-1.2-1.6-1.9-.8-.8-2.5-.6-2.7.7-.3 1.7-.3 1.9.2 3.5.6 2 3.7 1.1 3.1-.9l-.2-1.8-2.7.7 1.1 1.3c.5.8 1.8 1.1 2.5.3-2.5 2.7-1.2 9.7-.6 12.9.8 4.1 2.4 8.6 5.5 11.5l1.6-2.7c-4.6-.7-7.9-3.5-9.5-7.9-.7-1.9-1-4-1.1-6-.1-1.5-.3-5.9.4-6.8.5-.6-.3-1.4 1.2.3 1.2 1.4 1.6 3.2 2.1 5 .8 2.8 3.1 9.1 1.5 11.6l3 .8.2-2.1-3 .4c.9 1 1.4 2.1 1.5 3.5l3.1-.9c-.4-1.5-.6-1.8-1.3-3.1-.9-1.7-3.3-.5-3 1.2l.4 2.1 3.1-.9c-.2-.7-2.9-7.4-2.2-7.9l-2.5-.3c1.4 3 1.7 5.7.9 8.9l3-.4c-3.2-4.7-2.9-11.9-3-17.4l-3.2.4a50.1 50.1 0 0 1 2.6 16.3l3.2-.4a44.5 44.5 0 0 1-3.4-13l-3.2.4c.9 3.5 3.1 9.4 1.7 12.8l3-.4c-2.7-5.5-1.9-13-1.2-18.9.2-1.4-1.9-2.1-2.8-1.1-6.6 7.2-4.2 23.1 6.9 24.1v-3.2c-1.7 0-4.1-3.6-4.7-5-.5-1.3-.6-2.8-.9-4.2-.2-.9-2.1-11.4 1-9.8 1.9 1 3.5-1.8 1.7-2.8zm-44.9-2.4c2.1-1.4 3.7 4.7 4 6 .6 2.9.5 5.8-.3 8.6a16.1 16.1 0 0 1-9.6 10.6l2 2c3.3-8.6 5.3-17.3 6.4-26.4.2-2.1-3-2-3.2 0a112 112 0 0 0-1.3 17.3c0 1.8 2.6 2.2 3.2.4 2-6.5 2.3-12.9 1.1-19.6-.3-1.5-2.8-1.5-3.1 0-1.4 7.6-3.7 16.3-2.6 24 .2 1.4 2.4 1.6 3 .4 2-4 3.4-8.1 4.4-12.5.3-1.4-1.6-2.9-2.7-1.6-3.3 4-4.8 8.3-4.5 13.5.1 1.3 1.3 1.9 2.4 1.4 5.8-2.5 8-13.3 4.9-18.4-.6-1-2.3-1.1-2.8 0a21.8 21.8 0 0 0-2.2 10.3c0 1 1 1.9 2 1.6 4.6-1.5 5.4-15.5.8-17.4-.8-.3-1.8.3-2 1.1-.9 4-.7 7.7.8 11.6.5 1.3 2.9 1.8 3.1 0 .7-5 0-9.4-2.3-13.9-.9-1.8-3.2-.4-3 1.2.1 1.1.3 2.2.8 3.2.5 1.4 2.7 1.6 3.1 0 .6-2.4.3-4.2-.8-6.4-.6-1.2-2.7-1-3 .4l-.2 1.2c-.3 2 2.8 2.9 3.1.9l.2-1.2-3 .4.5 3.9h3.1c-.4-1-.7-2.1-.8-3.2l-3 1.2c1.9 3.7 2.6 7.4 2 11.4h3.1a15.7 15.7 0 0 1-.8-9.8l-2 1.1c1 .4 0 10.9-.8 11.1l2 1.6c-.1-3.2.4-5.8 1.8-8.7h-2.8c2.2 3.6.3 12.3-3.8 14l2.4 1.4c-.2-4.3.8-7.9 3.6-11.2l-2.7-1.6a49 49 0 0 1-4 11.7l3 .4c-1-7.1 1.4-15.3 2.6-22.3h-3.1c1.1 6.1.7 11.9-1.1 17.9l3.2.4c-.1-5.8.6-11.5 1.3-17.3h-3.2c-1 8.8-3.1 17.3-6.2 25.6-.4 1.1.9 2.5 2 2a20 20 0 0 0 12.7-18.4c0-4.1-2.6-17-9.2-12.7-1.8 1.1-.2 3.9 1.5 2.8z"/><path class="st3" d="M324.7 151c1.5 3 3.4 5.7 1.4 9.1-1.2 2-3.2 3.2-5.2 4.3-2 1.1-4.1 2-6.3 2.5-1.4.4-2.9.7-4.4.8-3.4-1.7-4.8-1.4-4.4 1h3.2a9.2 9.2 0 0 0-1.6-4.8c-.7-1.1-2.7-1.1-3 .4-.3 1.7-.3 2.9.3 4.5.5 1.4 2.7 1.6 3.1 0a6 6 0 0 0-.5-4.7c-.7-1.5-3.1-.7-3 .8.1 1.5.2 1.8.9 3.1.8 1.4 3 .8 3-.8 0-2 0-1.9-.6-3.8-.5-1.7-3.2-1.4-3.2.4 0 2.2.5 3.4 1.8 5.1.7.9 2.5.4 2.7-.7.4-2.3.1-3.9-1.1-5.9-.5-.8-1.8-1.2-2.5-.3-1 1.3-1.2 1.4-1.5 3l2-1.1-1-.4c-.6-.2-1.5.2-1.8.7-1 1.9-1.4 5.7 2 5.5 3.4-.2 2-4.2 1-5.9-.7-1.1-2.7-1.1-3 .4-1.4 8.5 9 7.2 14 4.8 8.5-4 11.5-9.7 11.1-19.1h-3.2c.5 5.6.6 10.8-4.7 14.1-1.9 1.2-4 2.2-6 3-.8.3-8.8 1.7-8.6 1.4.7-2-2.4-2.8-3.1-.9-2.7 7.4 13.1 2.5 15.5 1.4 3.4-1.6 7-3.5 8.9-6.9 2-3.7 1.7-8.1 1.3-12.1-.2-2-3.3-2.1-3.2 0 .2 4.9 0 9.8-4.1 13.1-1.5 1.3-15.7 8.6-14.6 2l-3 .4 2.6.4-1.8.7 1 .4c.8.3 1.8-.3 2-1.1l.7-1.6-2.5-.3.8 3.4 2.7-.7-.9-2.8-3.2.4.4 3 3-.8-.4-1.4-3 .8.2 2.3h3.1l-.3-2.8-3 .4 1.1 3.2c.2 2 3.3 2.1 3.2 0 0-2-.1-3.9-1-5.7-.2-.5-.9-.8-1.4-.8-2.9 0-4 3-2.8 5.4 2.2 4.6 8.5 3.4 12.4 2.2 4.4-1.4 9.5-3.6 12.3-7.5 3.2-4.6 1.2-8.4-1-12.9-.9-2.1-3.7-.4-2.8 1.4zm-64.8-31.7a15.2 15.2 0 0 0-6.9 12.3c-.3 4.7.8 13.6 4.8 16.7 2.7 2.1 5.5.7 6.3-2.3.8-2.9.2-6.5.2-9.4l.2-13.9c0-1.5-2.3-2.3-3-.8a38.7 38.7 0 0 0-3.6 22.2c.2 1.7 2.6 2.3 3.2.4a29.3 29.3 0 0 0-.4-20c-.3-.9-1.1-1.3-2-1.1-5.2 1.1-5.7 19.2-.8 21.3 3.5 1.5 4.2-3.2 4.5-5.4.7-5.3 1-11.1-1.8-15.8-.6-.9-1.8-1-2.5-.3-5.2 4.8-2.6 16.9-.7 22.8.3 1.1 1.8 1.6 2.7.7 1.9-2.1 1.7-4.6 1.8-7.4.1-2.5.6-5.2-1.4-7-.8-.7-1.9-.5-2.5.3-2.2 3.1-1.6 10 .5 13 .5.7 1.4 1 2.2.6 2.7-1.4 2.2-4.7.3-6.6-.8-.8-2.5-.6-2.7.7-.4 3.2 0 5.7 2 8.3l1.8-2.4-2.2-.6c-1.2-.3-2.7 1.2-1.8 2.4 1.2 1.6 2.3 2.6 4 3.5 1.5.8 2.8-.8 2.2-2.2-.5-1.2-.8-1.4-1.9-2.2l-1.6 2.8 1.5 1c1.5 1 3.3-1.3 2-2.5-3.2-2.8-4.5-7.4-4.9-11.6-.5-5.4 2.7-9.6 5.2-14.1.9-1.5-1.3-3.4-2.5-2l-1.3 1.5 2.8 1.1v-1.8c0-1.6-2.2-2.2-3-.8-1.4 2.4-4.3 3.1-5.4 5.7-1.2 2.7-.4 5.6-1 8.4l3-.4-1.4-2.7c-.8-1.5-2.9-.6-3 .8-.4 4.4.6 8.2 3.3 11.7.7.9 1.6 1 2.5.3l.7-.5c1.6-1.3-.7-3.5-2.3-2.3l-.7.5 2.5.3a13.2 13.2 0 0 1-2.8-10.1l-3 .8 1.4 2.7c.6 1.2 2.7 1 3-.4.7-3.2-.2-7 2.3-9.5 1.4-1.4 2.8-2 3.8-3.8l-3-.8v1.8c0 1.3 1.8 2.3 2.8 1.1l1.3-1.5-2.5-2c-3 5.2-6.6 9.9-5.7 16.2.8 4.9 2.1 10 5.9 13.4l2-2.5-1.5-1c-1.8-1.2-3.2 1.6-1.6 2.8l.7 1.1 2.2-2.2-2.8-2.3-1.8 2.4 2.2.6c1.2.3 2.7-1.2 1.8-2.4a6.7 6.7 0 0 1-1.7-5.8l-2.7.7.4 1.6 2.2.6c-1.3-2-2-7.6-.5-9.7l-2.5.3c1.3 1.1.6 8.7-.3 9.8l2.7.7c-1.4-4.4-4.2-15.8-.1-19.6l-2.5-.3c1.9 3.1 3.3 13.7 1.1 16.1.6-.7-.7-5.5-.6-6.8 0-.9.3-7.6 1.4-7.8l-2-1.1c2.3 6.1 2.4 12.1.4 18.3l3.2.4c-.9-7.2.1-14 3.2-20.6l-3-.8-.2 11.9c0 2.3.8 9.3-1 10.1-2.1.9-3.8-9.6-3.9-11.2-.1-4.5 1.5-8.8 5.4-11.3.8-1.4-.8-4.2-2.6-3.1zm-58.1 62.6c5.7-1.1 12.1-2.5 16.3-7 4.4-4.7 5.5-12.2 6.5-18.3.3-2-2.8-2.9-3.1-.9-.9 5.4-1.8 12.7-5.7 16.9-3.8 4-9.7 5.2-14.8 6.2-2.1.4-1.3 3.5.8 3.1z"/><path class="st3" d="M202.1 179.1c0 .2 0 .2 0 0v-.1l.1-.2.2-.2c-.1.1-.1.1.1 0-.1.1-.1.1.1 0l-1.8-.7 1 1.7c.4.7.7 1.3 1.5 1.6.5.2 1.2 0 1.6-.4.5-.5.6-1 .4-1.7-.1-.5-.6-1-1.1-1.1-.9-.2-1.7.2-2 1.1-.2.8.3 1.8 1.1 2l-1.1-1.1v.1l.4-1.6 1.6-.4h-.1l.7.4-.2-.4a2 2 0 0 0-.4-.6l-.7-1.2c-.4-.6-1.1-.9-1.8-.7-2 .5-3.2 2.6-2.7 4.5.2.9 1.2 1.4 2 1.1.9-.3 1.3-1.2 1.1-2.1z"/><path class="st2" d="M161 220.5l54-1.8c6.2-.2 12.5-.4 18.6.9 3.4 12.4 4.6 25.5 3.3 38.4-.1.6-.1 1.2-.6 1.6-.3.3-.8.4-1.3.4-22.5 2.7-45.7-4.1-67.8 1.2-.8.2-1.8.4-2.4-.3-.3-.4-.4-.9-.5-1.3l-5.3-39.3"/><path class="st2" d="M191 240.9l.2-1.6c.7-.8 2-.3 2.8.4.8.7 1.5 1.6 2.5 1.7 1.9.2 2.8-2.3 4.5-3.3.2 2 2.3 3.6 4.2 3.3m-41.8 19.8l1.1 7.9 24.5-2.4c4.8-.5 9.6-1 14.4-.8 10.8.3 21.7 3.7 32.3 1.5 1-.2 2.1-.6 2.5-1.5a4 4 0 0 0 0-1.9l-1.2-5.9"/><path class="st3" d="M161 221.4l44.3-1.5c7.3-.3 14.8-.9 22.1-.3 1.6.1 4.1-.1 5.3.9.9.9 1 3 1.3 4.3a121.1 121.1 0 0 1 2.6 22l-.1 5.1c-.1 1.7.2 4-.4 5.6-.9 2.8-7.6 2.3-10.1 2.3-3.7.1-7.4 0-11-.2-13.6-.6-27.3-2.4-40.9-.5l-4.6.8c-.7.1-1.8.6-2.4.5-2.2-.3-1.9-1.6-2.1-3.2l-1.7-12.8-3.3-24.5c-.1-1-1.7-.6-1.6.4l4.7 34.6c.4 3 0 7.7 4.2 7 5.6-1 11.1-1.9 16.8-2.1 10.7-.3 21.4.9 32.1 1.3 5.3.2 10.7.2 16-.2 1.4-.1 3.7.1 4.9-1 1.1-1 .9-3.3 1-4.7.9-12.1-.4-24.3-3.6-36a.9.9 0 0 0-.6-.6c-11.5-2.3-23.9-.7-35.5-.3l-37.3 1.3c-1.2.2-1.2 1.8-.1 1.8z"/><path class="st3" d="M191.8 241.1c.3-2.3 2-.3 3 .4.7.5 1.5.9 2.4.7 1.9-.2 2.9-2.4 4.3-3.4l-1.2-.5c.5 2.5 2.5 4 5 3.9 1-.1 1-1.7 0-1.6-1.7.1-3.1-1-3.4-2.7-.1-.5-.8-.8-1.2-.5-.9.6-1.7 2.1-2.5 2.4-1.1.5-2.7-.4-3.6-.8l-1.3-.8c-2.1-.7-2.7.6-3 2.4-.2 1.1 1.3 1.5 1.5.5zm-29.1 20.4l1.1 7.9c0 .3.5.6.8.6 15.5-1.5 31.4-4.4 47-2.6 7.4.9 14.8 2.2 22.2 1.2 1.7-.2 4.3-.4 5.2-2.2.4-.8.2-1.7.1-2.5-.3-2-.8-4-1.2-5.9-.2-1-1.8-.6-1.6.4.3 1.6.9 3.3 1 4.9.1 1.1-.1 2.5-1.1 3.3-.5.4-1.9.4-2.5.5-3.3.5-6.6.4-9.9.2-6.4-.5-12.8-1.7-19.3-2-6.4-.3-12.8.5-19.2 1.2l-20.7 2.1.8.6-1.1-7.9c-.2-1.3-1.8-.9-1.6.2z"/><path class="st2" d="M457.9 211.4l48.8-1.7c5.6-.2 11.3-.4 16.8.8a96.6 96.6 0 0 1 3 34.7c0 .5-.1 1.1-.5 1.4-.3.3-.8.3-1.2.4-20.3 2.5-41.4-3.7-61.3 1.1-.7.2-1.6.3-2.2-.2-.3-.3-.4-.8-.4-1.2l-4.8-35.6"/><path class="st2" d="M485.1 229.8l.2-1.4c.6-.7 1.8-.3 2.5.3s1.3 1.5 2.3 1.6c1.7.2 2.5-2.1 4.1-3 .2 1.8 2 3.3 3.8 2.9m-37.8 18l1 7.2 22.1-2.2c4.3-.4 8.7-.9 13-.7 9.8.3 19.6 3.3 29.2 1.4.9-.2 1.9-.5 2.3-1.4.2-.5.1-1.2 0-1.7l-1.1-5.4"/><path class="st3" d="M457.9 212.2l39.3-1.3c6.5-.2 13-.7 19.5-.4 1.5.1 3.2.1 4.7.5 1.9.5 1.8 1.4 2.3 3.3a90.4 90.4 0 0 1 2.5 19.6v4.6c0 1.4.3 4.4-.3 5.7-1.5 3.2-6.5 2.5-9.5 2.6-3.2.1-6.4 0-9.6-.1-12.4-.6-24.9-2.1-37.2-.4l-4.2.7c-1.1.2-1.7.6-2.8 0-1.2-.7-1-1.7-1.1-3.1l-1.5-11-3-22c-.1-1-1.7-.6-1.6.4l4.1 30.3c.3 2.5-.2 7.7 3.5 7.4 2.5-.2 5-1 7.5-1.4l7.5-.6c9.8-.3 19.5.8 29.3 1.2 4.9.2 9.8.2 14.6-.1 1.3-.1 3.5.1 4.6-.8 1.1-.9 1-2.9 1.1-4.2a98 98 0 0 0-3.2-32.8.9.9 0 0 0-.6-.6c-10.3-2.1-21.4-.7-31.8-.3l-34 1.2c-1.1 0-1.1 1.7-.1 1.6z"/><path class="st3" d="M485.9 230c.3-2 1.8-.2 2.6.4.7.5 1.3.8 2.2.7 1.7-.2 2.6-2.1 3.9-3.1l-1.2-.5c.5 2.3 2.3 3.7 4.6 3.5 1-.1 1-1.7 0-1.6-1.5.1-2.7-.9-3-2.3-.1-.5-.8-.8-1.2-.5-.8.5-1.5 1.9-2.3 2.2-1.8.7-2.8-1-4.3-1.4-1.9-.6-2.6.5-2.8 2.2-.2 1 1.3 1.4 1.5.4zm-26.5 18.4l1 7.2c0 .3.5.6.8.6 13.9-1.4 28.3-4 42.2-2.4 6.7.8 13.4 2 20.1 1.1 1.7-.2 4.2-.4 5-2.2.9-2-.6-5.6-1-7.6-.2-1-1.8-.6-1.6.4.5 2.4 2.3 6.9-1.1 7.5a40 40 0 0 1-9.8.4c-5.9-.4-11.8-1.6-17.7-1.8-5.7-.3-11.5.5-17.2 1l-19 1.9.8.6-1-7.2c-.1-.9-1.6-.5-1.5.5z"/><path class="st2" d="M334.9 219.2l-60.3-2.1c-6.9-.2-13.9-.5-20.7 1-3.8 13.9-1.7 28.5-.3 42.8.1.6.2 1.3.6 1.8.4.3.9.4 1.5.5 25.1 3 51.1-4.6 75.6 1.4.9.2 2 .4 2.7-.3.4-.4.5-1 .5-1.5 2-14.6.6-29.3 2.5-43.9"/><path class="st2" d="M304.8 241.8l-.2-1.7c-.8-.9-2.2-.4-3.1.4-.9.8-1.7 1.8-2.8 1.9-2.1.2-3.1-2.6-5-3.7-.2 2.2-2.5 4-4.7 3.6m46.5 22.3l-1.2 8.9-27.3-2.7c-5.3-.5-10.7-1.1-16.1-.9-12.1.3-24.2 4.1-36.1 1.7-1.1-.2-2.3-.6-2.8-1.7-.3-.7-.1-1.4 0-2.1l1.3-6.6"/><path class="st3" d="M334.9 218.3l-41.4-1.4-20.4-.7a84 84 0 0 0-19.4 1.1c-.3.1-.5.3-.6.6a97.4 97.4 0 0 0-1.1 35.3c.3 2.7.2 5.8.9 8.3.4 1.5 1.1 2.1 2.6 2.4 5.6 1.1 11.7.9 17.4.7 12-.3 24-1.7 36-1.7 6.1 0 12.3.4 18.3 1.5 1.9.3 4.2 1.4 6.1 1 1.8-.4 2-2.2 2.2-3.8 1.8-14.2.6-28.6 2.4-42.8.1-1-1.5-1-1.6 0-1.1 8.2-1.2 16.4-1.3 24.6-.1 3.9-.2 7.9-.5 11.8-.1 1.7-.1 3.7-.5 5.4l-.1 1.1c-.8 1.8-1.9 2.4-3.3 1.8-1.1 0-2.4-.5-3.5-.7-14.9-2.6-30.1-1-45.1-.1-7.4.4-14.9.6-22.3.1-.9-.1-2.2 0-3-.3-2.6-.9-2.3-1.6-2.5-3.6l-.5-5.1c-.4-4.1-.8-8.2-1-12.3a104.6 104.6 0 0 1 .7-17c.3-1.7.3-4.5 1.7-5.6.8-.6 2.9-.5 3.9-.6l3.1-.2 5.2-.1c4.2 0 8.4.2 12.7.4l54.9 1.9c1-.3 1-1.9 0-2z"/><path class="st3" d="M303.3 239.9c-.3-2.1-1.2-3.5-3.6-2.4-1.8.8-2.6 3.2-5.1 1.5-1-.7-1.7-1.9-2.8-2.7-.4-.3-1.1 0-1.2.5-.4 2.1-1.9 3.2-3.9 3-1-.1-1 1.6 0 1.6a5 5 0 0 0 5.5-4.2l-1.2.5c1.6 1.1 2.7 3.5 4.8 3.8.8.1 1.6-.2 2.3-.6 1.1-.7 3.3-3.5 3.7-.6.1 1.1 1.6.6 1.5-.4zm31.4 24.5l-1.2 8.9.8-.6-22-2.2c-7.6-.8-15.2-1.8-22.8-1.4-7.1.3-14.1 1.7-21.1 2.2-3.7.3-7.5.3-11.2-.2-2.4-.4-4.3-.9-4-4.1.2-1.9.8-3.8 1.1-5.7.2-1-1.4-1.5-1.6-.4l-1.2 6.2c-.2 1-.5 2.1-.1 3.1 1 2.3 4.4 2.4 6.5 2.6 8.2 1 16.4-.5 24.5-1.5 8.7-1 17.1-.5 25.7.3l26.2 2.6c.3 0 .7-.3.8-.6l1.2-8.9c.1-.9-1.4-1.4-1.6-.3z"/><path class="st2" d="M447.9 220.9l-60.3-2.1c-6.9-.2-13.9-.5-20.7 1-3.8 13.9-1.7 28.5-.3 42.8.1.6.2 1.3.6 1.8.4.3.9.4 1.5.5 25.1 3 51.1-4.6 75.6 1.4.9.2 2 .4 2.7-.3.4-.4.5-1 .5-1.5 2-14.6.6-29.3 2.5-43.9"/><path class="st2" d="M417.7 243.5l-.2-1.7c-.8-.9-2.2-.4-3.1.4-.9.8-1.7 1.8-2.8 1.9-2.1.2-3.1-2.6-5-3.7-.2 2.2-2.5 4-4.7 3.6m46.6 22.3l-1.2 8.9-27.3-2.7c-5.3-.5-10.7-1.1-16.1-.9-12.1.3-24.2 4.1-36.1 1.7-1.1-.2-2.3-.6-2.8-1.7-.3-.7-.1-1.4 0-2.1l1.3-6.6"/><path class="st3" d="M447.9 220l-41.4-1.4-20.4-.7a84 84 0 0 0-19.4 1.1c-.3.1-.5.3-.6.6a97.4 97.4 0 0 0-1.1 35.3c.3 2.7.2 5.8.9 8.3.4 1.5 1.1 2.1 2.6 2.4 5.6 1.1 11.7.9 17.4.7 12-.3 24-1.7 36-1.7 6.1 0 12.3.4 18.3 1.5 1.9.3 4.2 1.4 6.1 1 1.8-.4 2-2.2 2.2-3.8 1.8-14.2.6-28.6 2.4-42.8.1-1-1.5-1-1.6 0-1.1 8.2-1.2 16.4-1.3 24.6-.1 3.9-.2 7.9-.5 11.8-.1 1.7-.1 3.7-.5 5.4l-.1 1.1c-.8 1.8-1.9 2.4-3.3 1.8-1.1 0-2.4-.5-3.5-.7-14.9-2.6-30.1-1-45.1-.1-7.4.4-14.9.6-22.3.1-.9-.1-2.2 0-3-.3-2.6-.9-2.3-1.6-2.5-3.6l-.5-5.1c-.4-4.1-.8-8.2-1-12.3a104.6 104.6 0 0 1 .7-17c.3-1.7.3-4.5 1.7-5.6.8-.6 2.9-.5 3.9-.6l3.1-.2 5.2-.1c4.2 0 8.4.2 12.7.4l54.9 1.9c1-.3 1-1.9 0-2z"/><path class="st3" d="M416.3 241.6c-.3-2.1-1.2-3.5-3.6-2.4-1.8.8-2.6 3.2-5.1 1.5-1-.7-1.7-1.9-2.8-2.7-.4-.3-1.1 0-1.2.5-.4 2.1-1.9 3.2-3.9 3-1-.1-1 1.6 0 1.6a5 5 0 0 0 5.5-4.2l-1.2.5c1.6 1.1 2.7 3.5 4.8 3.8.8.1 1.6-.2 2.3-.6 1.1-.7 3.3-3.5 3.7-.6 0 1.1 1.6.6 1.5-.4zm31.4 24.5l-1.2 8.9.8-.6-22-2.2c-7.6-.8-15.2-1.8-22.8-1.4-7.1.3-14.1 1.7-21.1 2.2-3.7.3-7.5.3-11.2-.2-2.4-.4-4.3-.9-4-4.1.2-1.9.8-3.8 1.1-5.7.2-1-1.4-1.5-1.6-.4l-1.2 6.2c-.2 1-.5 2.1-.1 3.1 1 2.3 4.4 2.4 6.5 2.6 8.2 1 16.4-.5 24.5-1.5 8.7-1 17.1-.5 25.7.3l26.2 2.6c.3 0 .7-.3.8-.6l1.2-8.9c.1-.9-1.5-1.4-1.6-.3zm-230.5-1.5l.1-.1h.1c-.1 0-.1 0 0 0s.1 0 0 0c.1 0 .1 0 0 0 .1.1.1.1 0 0 .3.3.8.3 1.1 0 .3-.3.3-.9 0-1.1-.7-.5-1.6-.7-2.4-.1-.3.3-.5.7-.3 1.1.5.3 1.1.5 1.4.2zm5.9.6h1.3c.4 0 .8-.4.8-.8s-.4-.8-.8-.8h-1.3c-.4 0-.8.4-.8.8s.3.8.8.8zm11.1-1.7c.2.1.2.2.1.4.2-.4.1-.9-.3-1.1-.3-.2-.9-.1-1.1.3-.3.7-.1 1.4.5 1.8.4.3.9.1 1.1-.3.2-.4 0-.9-.3-1.1zm81.3 4.5c.9 0 1.8.2 2.7.4 1 .3 1.4-1.3.4-1.6-1-.3-2-.4-3.1-.5-1 0-1 1.6 0 1.7zm7.6 1.2l2.2.3c.4.1.8-.4.8-.8 0-.5-.4-.8-.8-.8l-2.2-.3c-.4-.1-.8.4-.8.8 0 .5.4.8.8.8zm6.5-.8c-.4.3-.6.7-.6 1.2s.3 1.1.8 1.2c.5.1 1.1-.1 1.4-.5.3-.3.5-.8.6-1.2 0-.4-.4-.8-.8-.8h-.7c-.4 0-.8.4-.8.8 0 .5.4.8.8.8h.7l-.8-.8c0-.2-.1.1 0-.1l-.1.1c0-.1 0-.1 0 0l-.1.1c-.1 0 0 0 0 0-.1 0-.1 0 0 0l.6.2c-.1-.1 0 0 0 .1v.1c0 .1 0 .1 0 0l-.2.2c.4-.3.5-.7.3-1.1-.2-.4-.7-.6-1.1-.3z"/><path class="st3" d="M427.1 270l3.6.2c1 .1 1-1.6 0-1.6l-3.6-.2c-1 0-1 1.6 0 1.6zm9.1-.2h.1l-.6 1.4h2.4c1 0 1-1.6 0-1.6h-2.4c-.7 0-1 .9-.6 1.4.3.4.9.6 1.4.4 1.2-.3.7-1.9-.3-1.6zm7.5.1s-.1 0 0 0l.3-.2.6.1.2.4c0 .3 0 .4-.2.6l.1-.1c.4-.2.5-.8.3-1.1-.2-.4-.7-.5-1.1-.3-.5.2-.9.8-.7 1.3.2.6 1.1 1 1.6.4.3-.3.3-.8 0-1.1-.3-.3-.9-.4-1.1 0zm64.9-18.5c1 0 2-.1 2.9-.4 1-.3.6-1.9-.4-1.6-.8.2-1.6.4-2.5.3-1 .1-1 1.7 0 1.7zm-271 10.9l2.4-.9-.8-.2c.5.5.6 1.1.4 1.7l.8-.6-1.7.1c-1 0-1 1.7 0 1.6l1.7-.1c.4 0 .7-.2.8-.6.4-1.2.1-2.4-.8-3.3a.8.8 0 0 0-.8-.2l-2.4.9c-1 .4-.6 2 .4 1.6zm97.9 6.2c.4-.2 1.1-.5 1.5-.3l.2.2c0 .1 0 0 0 0h-1l-1.3.1c-1 .3-.6 1.9.4 1.6.7-.2 1.4.1 2.1 0 .7-.1 1.3-.7 1.4-1.4.1-.7-.4-1.5-1-1.8-.9-.5-1.9-.2-2.8.1-.9.3-.5 1.9.5 1.5zm112.9 2l1.8.1-.8-1-.4 1.6.6-.6c-.6.1-1.2.2-1.9.1-.4-.1-.8.4-.8.8 0 .5.4.8.8.8.8.1 1.5 0 2.3-.1.3-.1.5-.3.6-.6l.4-1.6c.1-.5-.2-1-.8-1l-1.8-.1c-1 0-1 1.6 0 1.6z"/><path class="st4" d="M549.2 187.1c-4.4-.3-7.4-1.5-8.9-5.3-.9-2.4-.5-7.2-.6-10.9-.1-5.7.6-9.9 3.9-11.7.5-.3 1.4-.7 1.9-.7 11.8.3 24.6.2 36.8.2 1.7 0 3.7-.2 5.1.1 2.3.4 5.5 3.7 5.9 6.2.4 2.4.1 6 0 8.6-.1 2.6.4 6.2-.2 8.4a7.1 7.1 0 0 1-5.7 5c-1.9.3-4.2.1-6.4.1l-15.9.2c-1.1 0-2.5-.2-3.2 0-.8.2-2.2 1.8-3 2.5l-7.4 6.3c-.4.3-1.3 1-1.5.8-.5-.5-.4-4-.5-4.8l-.3-5z"/><path class="st5" d="M558.4 188.4c.8-.7 1.8-2 2.6-2.2.8-.2 2.1-.1 3.2-.1l3.3-.1c4.5-.1 8.9-.1 13.3-.3 2.4-.1 4.8.1 6.6-.2 2.1-.4 4.1-2.9 4.7-4.6l-.2-12.3c0-1.3.2-2.8-.1-3.9-.5-2.4-2.8-3.4-4.6-4.5-13.9.2-28.8-.5-41.9-.5l-.4.1c-4.6 1.8-3.9 9.7-3.7 16.2.1 1.7-.1 3.6.3 4.7a7 7 0 0 0 5.4 4.6c.9.1 2.5-.1 2.9.3.7.6.5 3.2.7 4.5l.5 4.6c2.5-1.8 4.9-4 7.4-6.3z"/><path class="st4" d="M573 167.6c0 .4-.5.4-.8.3-.2-.7.8-.9.8-.3zm-4.6-.1v.5l-.6.2c-.4-.3.1-1.1.6-.7zm-16.2 1.1c-.3.2-.7.1-.9-.2-.1-.8 1.1-.6.9.2zm9-.6c.3.5-.4.9-.8.5-.1-.6.4-.7.8-.5zm2.3.3c-.2 0-.2.2-.5.1-.6-.5.7-1.1.5-.1zm-7.1-.3c0 .4 0 .7-.4.7-.3.1-.2-.2-.4-.2-.1-.5.5-.7.8-.5zm8.9.6c-1.2.8-.3-1.5 0 0zm4.7-.2c.2.4-.2.8-.6.6l-.1-.6h.7zm2.5 3.5l.3.6c0 1.8-2.9-.6-.3-.6zm-5.2.4c.6.5.1 1.6-.8 1.1-.3-.4-.1-1.3.8-1.1zm-11.7.7c.6 1.1-.9 1.4-1.1.7-.3-.6.4-1.2 1.1-.7zm6.2-.1c.2.7-.6.8-.9.5 0-.5.5-.7.9-.5zm-10.6.4v.5c-.9.6-1-1.3 0-.5zm33.9 1.6c-1-.4.6-2 .9-.9.2.4 0 1-.9.9zM365.2 72.5c2.6-.2 4.4-.9 5.3-3.2.5-1.4.3-4.3.3-6.5.1-3.4-.4-5.9-2.3-6.9-.3-.2-.8-.4-1.1-.4-7 .2-14.7.1-21.9.1-1 0-2.2-.1-3 .1-1.4.3-3.3 2.2-3.5 3.7a29 29 0 0 0 0 5.1c.1 1.6-.2 3.7.1 5a4.3 4.3 0 0 0 3.4 3c1.2.2 2.5.1 3.8.1l9.5.1h1.9c.5.1 1.3 1.1 1.8 1.5l4.4 3.7c.2.2.7.6.9.5.3-.3.2-2.4.3-2.9l.1-3z"/><path class="st5" d="M359.8 73.3c-.5-.4-1.1-1.2-1.5-1.3l-1.9-.1-2-.1-7.9-.2c-1.4-.1-2.9.1-4-.1-1.2-.2-2.4-1.7-2.8-2.8l.1-7.3c0-.8-.1-1.7.1-2.3.3-1.4 1.6-2 2.7-2.7 8.3.1 17.1-.3 25-.3l.2.1c2.7 1.1 2.3 5.8 2.2 9.7 0 1 0 2.1-.2 2.8a4 4 0 0 1-3.2 2.7c-.6.1-1.5 0-1.8.2-.4.3-.3 1.9-.4 2.7l-.3 2.8-4.3-3.8z"/><path class="st4" d="M351.1 60.9c0 .2.3.2.5.2.1-.5-.5-.6-.5-.2zm2.7-.1v.3l.3.1c.3-.2 0-.6-.3-.4zm9.7.7c.2.1.4 0 .5-.1.1-.5-.6-.4-.5.1zm-5.4-.4c-.2.3.3.5.5.3 0-.4-.3-.4-.5-.3zm-1.4.2l.3.1c.4-.4-.4-.7-.3-.1zm4.3-.2c0 .2 0 .4.2.4l.2-.1c.1-.3-.3-.4-.4-.3zm-5.4.4c.8.4.2-1 0 0zm-2.7-.2c-.1.2.1.5.3.3l.1-.3h-.4zm-1.5 2.1l-.2.3c0 1.1 1.7-.3.2-.3zm3.1.3c-.4.3 0 .9.5.7.2-.4 0-.9-.5-.7zm7 .4c-.3.6.5.8.7.4.1-.4-.4-.7-.7-.4zm-3.8-.1c-.1.4.3.5.5.3.1-.3-.2-.4-.5-.3zm6.4.2v.3c.5.4.6-.7 0-.3zm-20.2 1c.6-.2-.4-1.2-.6-.5-.1.2 0 .6.6.5zm-198.8 139c2.6-.2 4.4-.9 5.3-3.2.5-1.4.3-4.3.3-6.5.1-3.4-.4-5.9-2.3-6.9-.3-.2-.8-.4-1.1-.4-7 .2-14.7.1-21.9.1-1 0-2.2-.1-3 .1-1.4.3-3.3 2.2-3.5 3.7a29 29 0 0 0 0 5.1c.1 1.6-.2 3.7.1 5a4.3 4.3 0 0 0 3.4 3c1.2.2 2.5.1 3.8.1l9.5.1h1.9c.5.1 1.3 1.1 1.8 1.5l4.4 3.7c.2.2.7.6.9.5.3-.3.2-2.4.3-2.9l.1-3z"/><path class="st5" d="M139.6 205c-.5-.4-1.1-1.2-1.5-1.3l-1.9-.1-2-.1-7.9-.2c-1.4-.1-2.9.1-4-.1-1.2-.2-2.4-1.7-2.8-2.8l.1-7.3c0-.8-.1-1.7.1-2.3.3-1.4 1.6-2 2.7-2.7 8.3.1 17.1-.3 25-.3l.2.1c2.7 1.1 2.3 5.8 2.2 9.7 0 1 0 2.1-.2 2.8a4 4 0 0 1-3.2 2.7c-.6.1-1.5 0-1.8.2-.4.3-.3 1.9-.4 2.7l-.3 2.8-4.3-3.8z"/><path class="st4" d="M130.9 192.6c0 .2.3.2.5.2.1-.4-.5-.6-.5-.2zm2.7-.1v.3l.3.1c.4-.2 0-.6-.3-.4zm9.7.7c.2.1.4 0 .5-.1.1-.5-.6-.4-.5.1zm-5.4-.4c-.2.3.3.5.5.3.1-.4-.2-.4-.5-.3zm-1.3.2l.3.1c.3-.3-.4-.7-.3-.1zm4.2-.1c0 .2 0 .4.2.4l.2-.1c.1-.4-.2-.5-.4-.3zm-5.3.3c.7.4.2-.9 0 0zm-2.8-.1c-.1.2.1.5.3.3l.1-.3a.3.3 0 0 0-.4 0zm-1.5 2.1l-.2.3c0 1.1 1.7-.4.2-.3zm3.1.2c-.4.3 0 .9.5.7.2-.3 0-.9-.5-.7zm7 .4c-.3.6.5.8.7.4.1-.4-.3-.7-.7-.4zm-3.7-.1c-.1.4.3.5.5.3 0-.3-.3-.4-.5-.3zm6.3.3v.3c.5.4.6-.8 0-.3zm-20.2 1c.6-.2-.4-1.2-.6-.5 0 .1 0 .5.6.5z"/><path d="M549.3 234.1l.4 3.4.3 1.8v1.4c0 .5.2 1.1.6 1.3 0 .2.1.4.3.3 4.7-.7 9.2-2.1 13.9-2.7l4.2-.6 1.9-.3c.3 0 .9-.2 1.2-.1.2 0 .4-.2.3-.4l-.1-.1.1-.3c-.4-1.9-.8-3.9-1-5.8l-.6-5.7v-.1c0-.2-.1-.4-.4-.4-3.6.6-7.2.6-10.8 1.2-3.6.6-7.3 1.5-10.8 2.3-.2 0-.2.3-.2.4l.1.1v.1l.6 3.6v.2l-.1-.1m1.4 5.6c0-.9-.3-1.8-.4-2.6l-.1-1.5-.3-1.8-.6-3.2c1.6 1 3.7 1.1 5.5 1.9 1 .4 2.1.7 3 1.2l-4.4 4.6c-.9 1-2.3 2.2-2.5 3.6-.4-.6-.2-1.5-.2-2.2m18.4-.9l-4.1.5c-4.7.6-9.4 1.8-14 2.8l.2-.1c.5-1.5 2-2.7 3-3.8l3.7-3.9.2-.1.1-.2c.5.4 1.3.9 2 .9.4.5 1.1.2 1.6.1l.1-.1.2-.2c.1-.6.8-1.1 1.4-1.4l.2-.1c.6.2 4.2 2.5 4.5 2.7l1.8 1.6 1.3 1c-.6-.1-1.7.2-2.2.3m1.6-6.3l.9 5.1c-1.3-.9-2.3-2.1-3.6-3a24 24 0 0 0-2.1-1.3l-1.3-.7 2.2-1.6c.7-.5 1.2-1.1 1.7-1.7.5-.6 1.2-1 1.7-1.5.3 1.6.4 3.2.5 4.7m-.5-5.4c-.5.1-.9.6-1.3.9l-1.8 1.9c-.7.8-1.8 1.4-2.7 2a3 3 0 0 1-.7.5c-.2 0-.3.1-.3.2l-1.5 1.2-.1.3v.2c-.3.1-.8.3-1 .1l-.2-.1-2.1-1.1c-.8-.5-1.8-.7-2.6-1.1-.9-.4-1.7-.9-2.7-1a14 14 0 0 1-3.5-1c3.4-.6 6.7-1.5 10-2.1 3.5-.6 7-.6 10.5-1.2v.3M86.8 130.8l.4 3.4.3 1.8v1.4c0 .5.2 1.1.6 1.3 0 .2.1.4.3.3 4.7-.7 9.2-2.1 13.9-2.7l4.2-.6 1.9-.3c.3 0 .9-.2 1.2-.1.2 0 .4-.2.3-.4l-.1-.1.1-.3c-.4-1.9-.8-3.9-1-5.8l-.6-5.7v-.1c0-.2-.1-.4-.4-.4-3.6.6-7.2.6-10.8 1.2-3.6.6-7.3 1.5-10.8 2.3-.2 0-.2.3-.2.4l.1.1v.1l.6 3.6v.2l-.1-.1m1.4 5.7c0-.9-.3-1.8-.4-2.6l-.1-1.5-.3-1.8-.6-3.2c1.6 1 3.7 1.1 5.5 1.9 1 .4 2.1.7 3 1.2l-4.4 4.6c-.9 1-2.3 2.2-2.5 3.6-.4-.7-.2-1.6-.2-2.2m18.5-1l-4.1.5c-4.7.6-9.4 1.8-14 2.8l.2-.1c.5-1.5 2-2.7 3-3.8l3.7-3.9.2-.1.1-.2c.5.4 1.3.9 2 .9.4.5 1.1.2 1.6.1l.1-.1.2-.2c.1-.6.8-1.1 1.4-1.4l.2-.1c.6.2 4.2 2.5 4.5 2.7l1.8 1.6 1.3 1c-.7-.1-1.8.3-2.2.3m1.5-6.2l.9 5.1c-1.3-.9-2.3-2.1-3.6-3a24 24 0 0 0-2.1-1.3l-1.3-.7 2.2-1.6c.7-.5 1.2-1.1 1.7-1.7.5-.6 1.2-1 1.7-1.5.3 1.5.4 3.1.5 4.7m-.5-5.4c-.5.1-.9.6-1.3.9l-1.8 1.9c-.7.8-1.8 1.4-2.7 2a3 3 0 0 1-.7.5c-.2 0-.3.1-.3.2l-1.5 1.2-.1.3v.2c-.3.1-.8.3-1 .1l-.2-.1-2.1-1.1c-.8-.5-1.8-.7-2.6-1.1-.9-.4-1.7-.9-2.7-1a14 14 0 0 1-3.5-1c3.4-.6 6.7-1.5 10-2.1 3.5-.6 7-.6 10.5-1.2v.3" fill="#432918"/><path class="st4" d="M79.1 203.1c3.6-.9 3.5 4.6.6 4.5-2.3-.1-3.1-3.9-.6-4.5zm1.1 2.8c.4-.4.2-1-.1-1.3-1.3-.1-.7 1.3.1 1.3z"/><path d="M94.7 205.3h7c1.3 0 1.3-2 0-2h-7c-1.3.1-1.3 2 0 2z"/><path d="M97.1 200v8.9c0 1.3 2 1.3 2 0V200c-.1-1.3-2-1.3-2 0z"/><path class="st4" d="M102.8 162c1.8-.3 3.9.4 4.2 1.5 1.1 3.6-6.8 4-6.7.6.1-1.1 1.1-1.9 2.5-2.1zm2.6 2.1c-.1-1.2-3.5-1.1-3.2.6.8.9 3.3.6 3.2-.6zM91 176.3c6.2-1 7.9 5.9 1.9 7-3.6.7-7.2-2.3-5.3-5.3a6 6 0 0 1 3.4-1.7zm-1 2.1c-.4.3-1.2.9-1.3 1.4-.2 1.1 1.3 2.1 2.3 2.2 4.3.7 5.3-4.9.5-4.2a4 4 0 0 0-1.5.6zm25.9-2.6c1.6-.3 2.2.3 2.3.9.4 2.1-3.8 2.6-3.8.5-.1-.9.5-1.2 1.5-1.4zm450.2-54.9c.4 1.6-1.8 1.6-1.5.1.3-.5 1-.6 1.5-.1zm-17.8-20.1c3.9-1 3.7 4.9.7 4.8-2.5 0-3.4-4.1-.7-4.8zm1.1 3.1c.4-.4.2-1-.1-1.4-1.4-.1-.7 1.4.1 1.4z"/><path d="M565.1 103.2h7.6c1.4 0 1.4-2.1 0-2.1h-7.6c-1.4 0-1.4 2.1 0 2.1z"/><path d="M567.6 97.5v9.6c0 1.4 2.1 1.4 2.1 0v-9.6c0-1.4-2.1-1.4-2.1 0z"/><path class="st4" d="M544.2 126.4c4.3-1.1 3.4 4.5.4 4.4-2.3-.1-3.4-3.7-.4-4.4zm-.2 2c.1.9 1.5.8 1.4-.3-.5-.4-1 .2-1.4.3zm-4.4-16c1.7-2.7 5.2.4 4 2.4-1.7 2.8-5.6 0-4-2.4zm2.2 1.8a1 1 0 0 0 0-1c-.3 0-.5-.4-.8 0 0 .5.4.7.8 1zM122.7 143l6.8-6.8c.3-.3.8-1.1 1.2-1 .3.1.7.6 1 .9l1.8 1.8c.2.2.9.7.9 1 0 .2-.4.6-.6.8l-2.1 2.3c-2.4 2.7-4.8 4.9-7.2 7.6l-.7.8c-.1.2-.5.7-.8.7-.3 0-.8-.7-1.1-1l-6.3-6c-.2-.2-1-.8-1-1 0-.3.8-1 .9-1.1l1.9-2c.3-.3.6-.9 1-.9s.9.5 1.2.8c1 1.2 1.9 2.1 3.1 3.1zm7.8-7.2l-5.6 5.9-2.8 2.8-2.4 2.6c-.1.1-.3.2-.2.4.3-.1.5-.4.7-.6l2.1-2.2 8.1-8.4c.1-.1.3-.2.2-.4l-.1-.1zm.4.4c-3.4 3.4-7 7.5-10.4 11.1-.2.2-.6.5-.5.8.2.1.3-.1.4-.2 3.7-3.7 7.2-7.6 10.8-11.4l-.3-.3zm.5.4l-5.5 6-4.8 5.1c-.2.2-.6.5-.5.8.2.1.3-.2.3-.3l10-10.8c.2-.2.6-.5.6-.8-.1.1-.1.1-.1 0zm.3.4l-10.1 11.3c-.1.2-.6.6-.5.8.2.2.4-.2.3-.2l10.6-11.5-.3-.4zm.6.6c-3.6 4-7.2 7.9-10.6 11.9l11-11.6-.4-.3zm.5.6l-10.5 11.4c-.1.2-.4.2-.2.4a1106 1106 0 0 0 11-11.4c0-.2-.1-.4-.3-.4zm.6.6l-5.5 5.9-4.7 5c-.2.2-.6.4-.5.7.2.1.2-.2.3-.2l2.4-2.5a666 666 0 0 0 8.3-8.7l-.3-.2zm-15.1 1l-2.5 2.7c-.3.3-.6.5-.7.9.2 0 .3-.2.5-.3l1.3-1.4 1.6-1.9c-.1.1-.1 0-.2 0zm.4.3l-2.5 2.8c-.3.3-.7.5-.7.9.2.1.4-.2.5-.3l2.9-3.3-.2-.1zm.4.4l-2.9 3.3c-.1.1-.4.3-.2.5l1.7-1.8 1.6-1.9-.2-.1zm.4.4l-2.8 3.2c-.1.1-.3.3-.3.5.2.1.4-.2.5-.3l2.9-3.2-.3-.2zm.5.5l-3 3.3c-.1.1-.4.3-.1.4l.8-.8 2.4-2.7c.1-.1 0-.2-.1-.2zm-2.2 3.8l2.1-2.3c.3-.3 1.2-1 .6-1.1l-2.4 2.8c-.3.3-.6.6-.7.9.1.1.3-.2.4-.3zm3.1-2.9l-2.4 2.7c-.2.3-.6.6-.7.9.2.1.4-.2.5-.3l2.9-3.3h-.3zm.5.3l-3.2 3.7c.2.2.3-.1.5-.2l2.9-3.3a.2.2 0 0 1-.2-.2zm.3.5l-1.6 1.9-1.5 1.8c.6-.4 1.1-1.1 1.7-1.7l1.7-1.8c-.1-.1-.1-.3-.3-.2zm.5.4c-1 1.3-2.3 2.4-3.2 3.6l.8-.8 2.5-2.7s.1-.1-.1-.1zm457 65.8l6.8-6.8c.3-.3.8-1.1 1.2-1 .3.1.7.6 1 .9l1.8 1.8c.2.2.9.7.9 1 0 .2-.4.6-.6.8l-2.1 2.3c-2.4 2.7-4.8 4.9-7.2 7.6l-.7.8c-.1.2-.5.7-.8.7-.3 0-.8-.7-1.1-1l-6.3-6c-.2-.2-1-.8-1-1 0-.3.8-1 .9-1.1l1.9-2c.3-.3.6-.9 1-.9s.9.5 1.2.8c1 1.2 2 2.1 3.1 3.1zm7.8-7.2l-5.6 5.9-2.8 2.8-2.4 2.6c-.1.1-.3.2-.2.4.3-.1.5-.4.7-.6l2.1-2.2 8.1-8.4c.1-.1.3-.2.2-.4l-.1-.1zm.5.4c-3.4 3.4-7 7.5-10.4 11.1-.2.2-.6.5-.5.8.2.1.3-.1.4-.2 3.7-3.7 7.2-7.6 10.8-11.4l-.3-.3zm.4.5l-5.5 6-4.8 5.1c-.2.2-.6.5-.5.8.2.1.3-.2.3-.3l10-10.8c.2-.2.6-.5.6-.8h-.1zm.4.3l-10.1 11.3c-.1.2-.6.6-.5.8.2.2.4-.2.3-.2l10.6-11.5c-.2-.1-.2-.3-.3-.4zm.5.6c-3.6 4-7.2 7.9-10.6 11.9l11-11.6-.4-.3zm.5.6l-10.5 11.4c-.1.2-.4.2-.2.4a1106 1106 0 0 0 11-11.4c0-.2-.1-.3-.3-.4zm.6.6l-5.5 5.9-4.7 5c-.2.2-.6.4-.5.7.2.1.2-.2.3-.2l2.4-2.5a666 666 0 0 0 8.3-8.7l-.3-.2zm-15.1 1l-2.5 2.7c-.3.3-.6.5-.7.9.2 0 .3-.2.5-.3l1.3-1.4 1.6-1.9c-.1.1-.1 0-.2 0zm.4.3l-2.5 2.8c-.3.3-.7.5-.7.9.2.1.4-.2.5-.3l2.9-3.3c-.1.1-.1 0-.2-.1zm.4.5l-2.9 3.3c-.1.1-.4.3-.2.5l1.7-1.8 1.6-1.9c-.1 0-.1-.2-.2-.1zm.4.3l-2.8 3.2c-.1.1-.3.3-.3.5.2.1.4-.2.5-.3l2.9-3.2-.3-.2zm.6.5l-3 3.3c-.1.1-.4.3-.1.4l.8-.8 2.4-2.7-.1-.2zm-2.3 3.8l2.1-2.3c.3-.3 1.2-1 .6-1.1l-2.4 2.8c-.3.3-.6.6-.7.9.1.2.3-.1.4-.3zm3.1-2.9l-2.4 2.7c-.2.3-.6.6-.7.9.2.1.4-.2.5-.3l2.9-3.3h-.3zm.5.4l-3.2 3.7c.2.2.3-.1.5-.2l2.9-3.3-.2-.2zm.4.4l-1.6 1.9-1.5 1.8c.6-.4 1.1-1.1 1.7-1.7l1.7-1.8c-.1-.1-.1-.2-.3-.2zm.5.4c-1 1.3-2.3 2.4-3.2 3.6l.8-.8 2.5-2.7-.1-.1z"/><path d="M555.4 260.9H615c1 0 1-1.6 0-1.6h-59.6c-1.1 0-1.1 1.6 0 1.6zm37.8-16.6h48c1 0 1-1.6 0-1.6h-48c-1.1 0-1.1 1.6 0 1.6zm-10.9-14.1h26.9c1 0 1-1.6 0-1.6h-26.9c-1.1 0-1.1 1.6 0 1.6zm-456.8-7.4H53.8c-1 0-1 1.6 0 1.6h71.7c1.1 0 1.1-1.6 0-1.6zm7.1 12.8H99.9c-1 0-1 1.6 0 1.6h32.7c1 0 1-1.6 0-1.6zm-15.4 13.5H94.8c-1 0-1 1.6 0 1.6h22.4c1 0 1-1.6 0-1.6zm422.2-101.5h57.7c1 0 1-1.6 0-1.6h-57.7c-1.1-.1-1.1 1.6 0 1.6zm26.9-9.7h28.2c1 0 1-1.6 0-1.6h-28.2c-1.1 0-1.1 1.6 0 1.6zM157.6 95.3l-55.7.7c-1 0-1 1.6 0 1.6l55.7-.7c1 0 1-1.6 0-1.6zm-34 12.2h-50c-1 0-1 1.6 0 1.6h50c1 0 1-1.6 0-1.6z"/></svg>