<svg xmlns="http://www.w3.org/2000/svg" viewBox="0 0 559 520"><style>.st1{fill:#fff}</style><g id="Layer_1"><path d="M192.8 162.6c-.8.3-1.7.7-2.5 1-38.3 15.5-71.3 39.5-92.4 75.5-3.6 6.1-6.9 12.7-7.4 21.3-.4 7 1.3 15.5 5.6 23.7 1.4 22.8 8.9 48.7 26.8 71.5 22 28 54.1 43.3 78.4 43.9 13.3.3 24.9-3 36.3-6.5 37.9-11.4 75.1-24 111.5-37.7 3.5-1.3 7.1-2.7 10.6-4.1 24.1-9.5 47.3-20.3 64.8-38.4 7.6-7.8 14-16.9 23.3-22.5 7.6-4.6 17-6.7 23.2-12.9 5.4-5.2 8.3-13.1 10-21.7 2-10.4 2.4-22.4-1.4-35.6-3.8-13.2-12-27.8-23.3-38.3-10.9-10.2-23.3-15.6-34.7-24.8-7.1-5.8-13.8-13.3-21.3-17.7-7.8-4.7-15.3-5.3-22.2-5.5-21.2-.8-41.5.7-61.4 2.7-43.7 4.4-86.2 11.3-123.9 26.1" fill="#cfebf6"/><path class="st1" d="M190.9 151.2c6.1 1.9 10.6 6.3 12.8 12.7.3.9 1.1 1.4 2 1.4 1 0 1.8-.6 2-1.5 3.4-10.5 8.4-12.7 12.9-13.4 1-.1 1.7-.9 1.8-1.9.1-1-.5-1.9-1.4-2.2-2.6-.9-11.5-4.6-14.5-12.5-.3-.9-1.2-1.5-2.2-1.4-.9.1-1.7.7-1.9 1.7-1.5 6.6-5.3 10.9-11.6 13-.9.3-1.5 1.1-1.5 2 .1 1 .7 1.8 1.6 2.1zm14.2-11.3c2.2 3.1 5.4 5.9 9.2 8-3.7 1.9-6.6 5-8.8 9.7-2.1-3.6-5.1-6.6-8.7-8.6 3.8-2.1 6.5-5.1 8.3-9.1zM415.8 323c-1.6-.7-3.2-.8-4.6-.9l-.8-.1c-5.1-.4-8.8 3.4-8.8 8.7 0 6.1 5.5 9.9 9.3 9.9 3.7 0 10.6-3.3 10.6-9.6-.1-3.8-3-6.8-5.7-8zm-5 13.4c-1.5 0-5-1.9-5-5.6 0-2.2 1.2-4.5 3.8-4.5h.4l.9.1c1.2.1 2.3.2 3.2.5 1.5.7 3.1 2.4 3.1 4.2-.1 3.4-4.8 5.3-6.4 5.3zm17.3-144.6c-.2-2.8-.3-5.7-.5-8.5-.1-1.2-1.1-2.1-2.2-2-7.8.3-15.7.5-23.4.7-8.4.2-17 .5-25.6.8-1.1.1-2 1-2 2.1v1c0 6.4.3 13.2.8 22 .1 1.2 1.1 2.1 2.3 2 6.2-.4 12.6-.7 19.5-1 .7.9 1.3 1.8 2 2.7 3.2 4.5 6.6 9.1 10.7 12.9.4.4.9.6 1.5.6.2 0 .5 0 .7-.1.7-.3 1.3-.9 1.4-1.7.6-4.1 1.3-9.4 1.7-15 4-.1 7.9-.3 11.9-.4 1.2 0 2.1-1 2.1-2.2-.4-4.7-.7-9.4-.9-13.9z"/><path class="st1" d="M412.7 204.1c-1.1 0-2 .9-2.1 2-.3 4.3-.7 8.6-1.2 12.3-2.5-2.8-4.8-5.9-7.1-9.2-.9-1.2-1.8-2.4-2.7-3.7-.4-.5-1-.9-1.7-.9h-.1c-6.6.3-12.7.6-18.6.9-.4-7.2-.6-13.1-.7-18.5 7.9-.3 15.8-.5 23.5-.8 7-.2 14.2-.4 21.3-.7.1 2.1.2 4.3.4 6.4.2 3.8.5 7.7.6 11.6-3.8.3-7.7.4-11.6.6zm-88.5-53.9a2 2 0 0 0 2.2 2l21-.4-.9 8.1c-.3 2.3-.5 4.6-.8 7-.1.9.4 1.7 1.2 2.1.3.2.6.2 1 .2.5 0 1-.2 1.4-.6 6.4-5.8 13.1-11.4 19.6-16.9l.6-.5 52.1-1.1c.6 0 1.2-.3 1.6-.7.4-.4.6-1 .5-1.6l-1.2-10.5c-.7-6.1-1.4-12.3-1.9-18.5-.1-1.2-1.1-2-2.3-2l-93.6 5.7c-1.2.1-2.1 1.1-2 2.2.2 3.6.4 7.2.7 10.9.3 5 .6 9.8.8 14.6z"/><path class="st1" d="M416.4 121.4c.5 5.5 1.1 11.1 1.7 16.5l.9 8.2-50.5 1.1c-.5 0-1 .2-1.3.5l-1.2 1c-5.1 4.3-10.4 8.7-15.6 13.2.1-.5.1-.9.2-1.4.4-3.5.8-7 1.1-10.6.1-.6-.1-1.2-.6-1.7-.4-.4-1-.7-1.6-.7l-21.4.4c-.2-4.2-.5-8.3-.7-12.4-.2-2.9-.4-5.8-.5-8.7l89.5-5.4z"/><path class="st1" d="M346.2 140.7c2 0 3.8-2.1 3.8-3.8 0-1.4-1-2.2-1.4-2.6l-.1-.1c-.4-.4-.9-.6-1.5-.6h-1.2c-.6 0-1.1.2-1.5.6-.7.7-1.1 1.7-1.1 2.7 0 3.5 2.3 3.8 3 3.8zm.8-4c.2.1.3.3.4.4 0 0 0 .1-.1.1l-.3-.3v-.2zm-1.2-.2v.4l-.1.1v-.1c.1-.2.1-.3.1-.4zm23.4 2.4c2.2 0 3-1.3 3.2-2.2.1-.3.3-.7.3-1.2 0-.4-.1-1.8-1.8-2.5-.4-.6-1-.9-1.8-.9s-1.3.3-1.7.6c-.4.1-.7.3-1 .6-.8.8-.7 1.8-.7 2.3.1 1.9 1.4 3.3 3.5 3.3zm21.4-.9s4-.5 4-3c0-.2 0-.5-.1-.7-.6-1.9-2.6-2.3-3.9-2.5l-.5-.1c-.2 0-.4-.1-.6-.1-1.4 0-2.4 1-2.4 2.4v.2c.1 3.4 2.5 3.8 3.5 3.8zm.1-4.2c.3.1.5.3.6.6-.1.2-.1.4-.3.6h-.8c.2-.6.3-1 .5-1.2zM176.1 234c6.2 0 11.8-5.3 11.8-11.1 0-6.7-5.9-12.4-12.9-12.4-2 0-3.9.5-5.4 1.6-3.4 2.3-5.6 6.3-5.6 10.5-.1 8.6 8.3 11.4 12.1 11.4zm-4.2-18.3a5 5 0 0 1 3-.8c4.7 0 8.7 3.7 8.7 8.2 0 3.1-3.4 6.8-7.5 6.8-2.1 0-7.9-1.7-7.9-7.2 0-2.8 1.5-5.5 3.7-7zm29.7 16.7c-1.2 0-2.8.5-3.7 1-2.1 1-3.6 3.8-3.6 6.5 0 4.3 3.5 8 7.4 8 5.3 0 7.5-4.7 7.5-7.2 0-5.7-4.4-8.3-7.6-8.3zm.1 11.2c-1.3 0-3.1-1.4-3.1-3.7 0-1.4.9-2.5 1.2-2.6.7-.3 1.5-.6 1.8-.6 0 0 3.3.2 3.3 4 0 .4-.6 2.9-3.2 2.9zm-56.1 96.2c-1.2 0-2.8.5-3.7 1-2.1 1-3.6 3.8-3.6 6.5 0 4.3 3.5 8 7.4 8 5.3 0 7.5-4.7 7.5-7.2 0-5.8-4.4-8.3-7.6-8.3zm.1 11.1c-1.3 0-3.1-1.4-3.1-3.7 0-1.4.9-2.5 1.2-2.6.7-.4 1.5-.6 1.8-.6 0 0 3.3.2 3.3 4 0 .4-.6 2.9-3.2 2.9zm59.1-27l8.1 6.6c2.7 2.2 5.4 4.5 8.2 6.7.4.3.9.5 1.3.5h.2c.6-.1 1.1-.3 1.4-.8 2.5-3.1 5.2-6 7.8-8.9l1.5-1.7c.4-.4.6-1 .5-1.6 0-.6-.3-1.1-.8-1.5l-2-1.6c-4.8-3.9-9.7-7.8-13.6-10.6-.8-.6-1.9-.5-2.6.1-3.2 2.7-6.9 5.9-10.4 9.6-.4.4-.6 1-.6 1.6.3.7.5 1.2 1 1.6zm11.7-8.4c3.6 2.6 7.8 6.1 12 9.4l.3.2c-2.2 2.4-4.4 4.9-6.6 7.5-2.2-1.8-4.3-3.6-6.5-5.3-2.1-1.7-4.2-3.5-6.3-5.2 2.4-2.5 4.8-4.7 7.1-6.6zm52.8-122.6c-.6 0-1.2 0-1.7.1-6.6.9-10.6 7.3-10.6 13 0 7.8 6.5 12 12.7 12 7.6 0 13.3-6.7 13.3-12.6-.1-5.9-5.9-12.5-13.7-12.5zm.4 20.9c-.7 0-1.6-.1-2.4-.3.1-.3.2-.6.2-.9 0-.8.7-1.2 1-1.2h.4c.1.1.2.5.2.7.1.5.3 1.1.6 1.7zm4.3-1.2c-.1-.4-.3-.8-.7-1.1-.1-.1-.1-.4-.2-.6-.3-1.2-1.1-3.9-4.7-3.9-2.2 0-4.5 1.6-5.1 4.2a7.2 7.2 0 0 1-2.1-5.3c0-3.9 2.6-8.2 6.9-8.8.4-.1.8-.1 1.2-.1 5.3 0 9.3 4.4 9.3 8.2.1 2.6-1.6 5.7-4.6 7.4zm35.5-21.7h-1.9c-7.2 0-12 6.9-12 13.3 0 4.3 4.4 12 13.2 12 6.9 0 14.3-5.1 14.3-12.6 0-7.1-6-12.7-13.6-12.7zm-.8 21.1c-.4 0-.7 0-1.1-.1 0-.2.1-.5 0-.7v-.4c0-.8.3-1.5.6-1.9.4.7.7 2.3.8 3.2 0-.1-.2-.1-.3-.1zm4.6-.9c-.5-2.6-1.4-6.7-5-6.7-.2 0-.5 0-.7.1-2.7.8-4 3.5-4.1 5.9-2.6-1.9-3.6-5-3.6-6 0-4.3 3.2-9 7.8-9h1.9c5.2 0 9.3 3.7 9.3 8.5-.1 3.4-2.7 5.9-5.6 7.2zm-11.7 11c-4.6 1-9.6 1.1-14.7 1.1h-2.7c-1.2 0-2.1 1-2.1 2.1s1 2.1 2.1 2.1h2.7c5.4 0 10.6-.1 15.6-1.2a2.1 2.1 0 0 0 1.6-2.6c-.2-1.1-1.4-1.8-2.5-1.5zm7.2 82.1c0 .6.3 1.2.8 1.6.4.3.9.5 1.4.5h.3c4-.6 8.1-.8 12.1-1.1 2.7-.2 5.6-.3 8.3-.6 1.2-.1 2-1.1 1.9-2.3-.2-2.7-.5-5.4-.9-8.1-.2-1.3-.3-2.7-.5-4-.1-1.1-1.1-2-2.2-1.9h-.4c-6.4.4-13 .7-19.5 1.5-1.1.1-1.9 1.1-1.9 2.2.2 2.9.3 5.9.4 8.8l.2 3.4zm19.5-11.6c.1.7.2 1.4.2 2 .2 1.9.5 3.9.7 5.8-2 .2-4.1.3-6.1.4-3.3.2-6.7.4-10.1.8v-1l-.3-6.9c5.2-.5 10.4-.8 15.6-1.1z"/><path class="st1" d="M362.5 274.8c0-.1 0-.2-.1-.4 1.6-2.1 2.6-4.7 2.6-7.6 0-3.6-1.3-6.6-3.7-8.7-2.7-2.4-6.3-3.8-10.2-4-2.1-.1-3.9.4-5.5 1.3h-.4c-10.4.2-21.2.4-30.7.5l-6.5.1c-.3-3.5-1.1-7.2-1.9-10.5-.4-1.8-.8-3.4-1-4.9 10.5-.6 20.9-1.3 31.3-2.2 4.1-.4 7.6-3.5 8.4-7.5 1-5.1 1.5-10.4 1.5-15.7 0-2-.1-4-.2-6 .1 0 .2-.1.3-.1h.2c3.5 0 5.2-3.3 5.2-9.8 0-4.8-1.7-13.9-8.2-13.9-.6 0-1.3.1-2 .2-1.4-4.4-3-8.8-5-13.1-1.3-2.8-4-4.7-7.1-4.9-8.4-.6-17-1-25.5-1-18.7 0-37.6 1.6-56.2 4.7-4.2.7-7.6 3.8-8.7 7.8a85.1 85.1 0 0 0-2.8 18.7c-.3 0-.5-.1-.8-.1-8 0-8 7.3-8 10 0 7.9 4.4 11.4 8.7 11.4.5 0 1 0 1.5-.1 1.1 7.6 2.6 14.3 3.5 17.8.9 3.7 4.3 6.4 8.1 6.4h.3l3.5-.1 23.1-.9c.7 2.5.7 5.6.8 9 0 1.8.1 3.7.2 5.6-42 1.1-47.6 4-51.8 24.9l-61 1.4c-.6 0-1.2.3-1.6.8-.4.5-.6 1.1-.5 1.7 3.6 23.1 9.3 46.2 14.8 68.5.9 3.8 1.9 7.7 2.8 11.5-.5.9-.3 2.1.6 2.7.1.1.2.5.3.8.4 1.3 1.2 4 5.5 4l28-.9c21.3-.7 46.9-1.4 47.1-1.5.4 0 1.2 0 2.2-.1 48.2-1.4 49-4.6 49.6-6.9v-.1c7.6.6 14.5.8 15.2.8 28.2 0 40.8-10.4 40.8-33.6 0-9.7-2.6-26.5-4.8-41.3-.5-5.4-1.3-10.5-1.9-14.7z"/><path class="st1" d="M358.7 278c.5 3.7 1.1 7.8 1.8 12.1.1.9.3 1.8.4 2.6-.3-.2-.6-.3-.9-.3-2.5-.2-5 .1-7.3.3l-3.8.3c-.1-1.7-.2-3.3-.4-4.9l-.6-8.4c1.2.3 2.4.5 3.7.5 2.4 0 4.9-.8 7.1-2.2zm-10 37.1c1.4-.2 2.9-.4 4.8-.4 1.3 0 2.5 0 3.8.1 2.2.1 4.3.2 6.4 0h.2c.7 6.2 1.2 11.7 1.2 15.9v.7c-2.7-.7-5.3-1.8-8-2.9-3.4-1.4-6.8-2.8-10.6-3.6 1-2.8 1.7-6 2.2-9.8zm14.8-4.5c-2 .1-4 0-6 0-1.3 0-2.6-.1-4-.1-1.7 0-3.1.1-4.4.2.1-2.2.2-4.5.2-7 0-2.2-.1-4.3-.2-6.5l4-.3c2.2-.2 4.3-.5 6.5-.3.7 0 1.3-.2 1.7-.7.8 5 1.5 10 2.2 14.7zm-13-52.2h.4c2.1.1 5.1.8 7.7 3 1.5 1.3 2.2 3.1 2.2 5.5 0 5.1-4.9 9.1-9.1 9.1-4.8 0-8.9-4.1-8.9-8.7-.1-3.5 3.3-8.9 7.7-8.9zm-69-6.1c3.1 1.5 6.6 2.4 10.4 2.4 3.5 0 7.2-.7 10.7-2.1.3-.1.5-.3.7-.4.3 1.8.6 3.6.7 5.3-.4 0-.8 0-1.2.2-2.8 1.5-6 2.2-9.4 2.2-3.7 0-7.7-.9-11.5-2.7-.3-1.6-.3-3.2-.4-4.9zm19.3-11.5c.3 1.8.7 3.6 1.2 5.6.1.7.3 1.4.5 2.1-.5-.2-1-.2-1.6 0-2.9 1.2-6 1.8-9 1.8-3.9 0-7.5-1.1-10.5-3.1-.1-1.9-.3-3.7-.6-5.4 6.6-.3 13.3-.6 20-1zm-7.5 23.3c3.7 0 7.1-.7 10.3-2.2-.9 4.4-3.9 6.7-9.2 6.7-7 0-10.1-2.3-11.6-6.4 3.5 1.2 7 1.9 10.5 1.9zm50.3-74.5c2.6 0 3.9 5.6 3.9 9.6 0 4.8-1 5.6-1 5.5h-.8c-.6-5-1.5-10-2.9-15.1h.8zm-95.1-14.3c18.3-3 37-4.6 55.5-4.6 7.5 0 15 .3 22.5.8-15.7 6.2-41.8 6.2-59.5 6.2-5.6 0-12.5-.3-19-2.3.2 0 .4-.1.5-.1zm-12.2 39.5c-2.1 0-4.5-1.9-4.5-7.2 0-5.3 1.5-5.7 3.7-5.7h.7c.1 4.2.4 8.6.9 12.8-.2 0-.5.1-.8.1z"/><path class="st1" d="M253.1 238.6l-3.5.1h-.2c-1.9 0-3.5-1.3-3.9-3.1-1.5-6-4.9-21.3-4.9-34.8 0-7.6.9-14.4 2.7-20.8.1-.5.4-1 .6-1.5 7.9 3 16.4 3.5 23.1 3.5 19.3 0 48.4 0 64.4-8 .3-.2.6-.4.8-.7.2.3.4.5.5.9 2.1 4.5 3.8 9.1 5.1 13.7 0 .2 0 .4.1.6.1.3.2.6.4.8 2.4 8.6 3.7 17.4 3.7 25.8 0 5.1-.5 10.1-1.4 14.9a5.1 5.1 0 0 1-4.5 4.1c-27.6 2.4-55.8 3.5-83 4.5zM242 264.3c1.3 1 1.9 2.8 1.9 5.4 0 4.5-2.9 6.8-8.7 6.8-1.9 0-2-.2-2.7-1-.2-.3-.5-.6-.8-.9 1.7-5.2 4.3-8.3 10.3-10.3zm-74.8 22.8l94.6-2.2c.5 3.2 1.4 7.1 2.9 14.1 2.2 10.2 5.9 27 12.2 58.1l-93 5.6c-.8-3.3-1.6-6.6-2.4-9.8-5.2-21.5-10.7-43.7-14.3-65.8z"/><path class="st1" d="M263.8 366.2c-1.1 0-1.9.1-2.2.1l-47.1 1.5-27.9.9c-.9 0-1.2-.2-1.2-.2-.1-.1-.2-.5-.3-.8-.1-.2-.2-.5-.3-.8l92.8-5.5c-.8-.3-1.5-1.1-1.5-2 0-1.2 1-2.1 2.1-2.1 1 0 1.9 0 2.9-.1-6.4-31.7-10.1-48.8-12.4-59.1-1.8-8.4-2.7-12.2-3.2-15.7-.2-1.1-1.1-1.8-2.1-1.8l-33.7.8c.1-.7.3-1.3.4-1.9 1 .8 2.3 1.3 4.8 1.3 8.1 0 13-4.1 13-11.1 0-2.6-.5-4.8-1.6-6.5 6.8-1.3 16.7-1.9 31.4-2.3 1.4 6.4 5.2 11.9 16.3 11.9 8.2 0 13.2-4.5 13.7-12.5l6.5-.1c8.2-.1 17.4-.3 26.4-.4-1.6 2.4-2.6 5.2-2.6 7.5 0 4.1 2.1 7.8 5.2 10.2 0 .2-.1.4-.1.6.1 3.4.4 6.9.7 10.3.4 5.1.8 10.3.8 15.4 0 16.7-3.5 25.7-8.7 30.6-.3.1-.5.3-.7.5-.1.1-.2.2-.2.4-5.5 4.4-12.7 4.9-19.9 5.1h-1.7c-10.8.3-21.9.5-21.9 16v.1c1.1-.1 2.2-.2 3.3-.2 1.2-.1 2.2.8 2.3 2 .1 1.1-.7 2-1.7 2.2 2.4.9 6.1 1.7 11.7 2.4-3.7 1-14.5 2.5-43.3 3.3z"/><path class="st1" d="M317.3 359.5c-8.8-.6-19.1-1.9-21.2-3.5.1-10.4 6.2-11.1 17.7-11.3 0 .1.1.2.1.2 1.7 3.3 3.3 6.4 3.3 9.7 0 .7 0 1.4.1 2 0 .6.1 1.2.1 1.8 0 .5-.1.8-.1 1.1zm11.4.5c-1.6 0-4.2-.1-7.1-.3 0-.4.1-.8.1-1.3 0-.7 0-1.4-.1-2.1 0-.6-.1-1.2-.1-1.8 0-3.8-1.4-7.1-2.9-10.1 3.1-.2 6.2-.5 9.3-1.2 4.1 5 7.9 10 9.7 16.3-2.8.4-5.7.5-8.9.5zm26.9-6.2c-3.4 2.3-7.8 4.1-13.8 5.2v-.2c-1.8-6.6-5.5-11.9-9.5-16.9 1.6-.7 3.2-1.5 4.7-2.6l1 1c4.9 5 10 10.2 16.7 13.4.2.1.5.1.9.1.8 0 1.6-.4 1.9-1.2-.4.8-1.1 1.2-1.9 1.2zm2-1.6c.2-1-.2-2-1.2-2.4-6-2.9-10.6-7.6-15.5-12.5l-.8-.8c1.8-1.9 3.5-4.4 4.9-7.4 3.6.6 7 2 10.5 3.4 3 1.3 6.1 2.5 9.5 3.3-.6 6.1-2.4 11.9-7.4 16.4zm-101-213.3h.3c1.2-.1 2-1.2 1.9-2.4-.1-.5-.1-1.1-.1-1.6 0-.7.1-1.5.2-2.2.2-1.2-.6-2.3-1.8-2.5-1.2-.2-2.3.6-2.5 1.8-.2.9-.2 1.9-.2 2.9 0 .7 0 1.4.1 2.1.1 1.1 1 1.9 2.1 1.9zm5.3-12.7c.4 0 .8-.1 1.1-.3 1-.6 2.1-1 3.2-1.2h.1c1.2-.2 1.9-1.3 1.7-2.4-.2-1.2-1.3-1.9-2.5-1.8-1.8.3-3.4.9-4.9 1.8-1 .6-1.3 1.9-.7 2.9.6.6 1.3 1 2 1zm2.2 23.7c.3.1.5.2.8.2.8 0 1.6-.5 2-1.3.4-1.1-.1-2.3-1.2-2.8-1.1-.5-2.2-1.1-3.1-1.9-.9-.8-2.2-.7-3 .2-.8.9-.7 2.2.2 3 1.2 1 2.7 1.9 4.3 2.6zm10.7.1c.3 0 .5 0 .8-.2 1.5-.6 2.9-1.4 4.3-2.4 1-.7 1.2-2 .5-3s-2-1.2-3-.5c-1.1.8-2.2 1.4-3.3 1.9-1.1.4-1.6 1.7-1.2 2.8.2.9 1 1.4 1.9 1.4zm.7-24.7c1.3.4 2.4 1 3.5 1.6.4.2.8.3 1.1.3.7 0 1.4-.4 1.8-1 .6-1 .3-2.3-.7-3-1.3-.8-2.8-1.5-4.4-2.1-1.1-.4-2.3.3-2.7 1.4-.4 1.3.3 2.5 1.4 2.8zm8.5 14.4c.2.1.5.1.7.1.9 0 1.7-.6 2-1.4.5-1.5.8-3 .8-4.4v-.7c-.1-1.2-1.1-2.1-2.3-2-1.2.1-2.1 1.1-2 2.3v.5c0 1-.2 2-.5 3-.4 1 .2 2.3 1.3 2.6zm125.9 147c-1.2.3-1.9 1.4-1.6 2.5.2 1 1.1 1.7 2.1 1.7.2 0 .3 0 .5-.1 1.5-.3 3-.8 4.3-1.4 1.1-.5 1.6-1.7 1.1-2.8-.5-1.1-1.7-1.6-2.8-1.1-1.2.5-2.3.9-3.6 1.2zm-7 2.4c.4-1.1-.3-2.3-1.4-2.7-1.1-.4-2.2-.9-3.1-1.5-1-.7-2.3-.5-3 .5-.7 1-.5 2.3.5 3 1.3.9 2.7 1.6 4.3 2.1.2.1.4.1.7.1.9 0 1.7-.6 2-1.5zm20.9-13.5c-1.1-.3-2.3.4-2.6 1.5-.3 1.1-.8 2.2-1.4 3.2-.6 1-.3 2.3.7 3 .4.2.8.3 1.1.3.7 0 1.4-.4 1.8-1 .9-1.4 1.5-2.8 1.9-4.4.3-1.2-.4-2.3-1.5-2.6zm-11.5-17.8c-1.5-.4-3.2-.5-4.8-.4-1.2.1-2.1 1.1-2 2.3.1 1.2 1.1 2.1 2.3 2 1.2-.1 2.3 0 3.4.3h.1c.2 0 .3.1.5.1 1 0 1.8-.7 2-1.6.4-1.2-.4-2.4-1.5-2.7zm9.9 12.6c.3 0 .6-.1.9-.2 1.1-.5 1.5-1.8 1-2.9-.7-1.4-1.6-2.7-2.6-3.9-.8-.9-2.1-1-3-.2-.9.8-1 2.1-.2 3 .8.9 1.5 1.9 2 2.9.4.9 1.2 1.3 1.9 1.3zm-24.7-3.1c.8-.9 1.7-1.8 2.6-2.5.9-.7 1.1-2.1.4-3a2.2 2.2 0 0 0-3-.4c-1.2.9-2.3 2-3.3 3.2-.8.9-.6 2.3.3 3 .4.3.9.5 1.4.5.6 0 1.2-.3 1.6-.8zm-3.4 8.7c0-.4 0-.8.1-1.2.1-1.2-.7-2.2-1.9-2.4-1.2-.1-2.2.7-2.4 1.9-.1.5-.1 1.1-.1 1.6 0 1.1.1 2.1.3 3.1.2 1 1.1 1.7 2.1 1.7h.4c1.2-.2 1.9-1.4 1.7-2.5-.2-.7-.2-1.4-.2-2.2z"/><path d="M190.9 151.2c6.1 1.9 10.6 6.3 12.8 12.7.3.9 1.1 1.4 2 1.4 1 0 1.8-.6 2-1.5 3.4-10.5 8.4-12.7 12.9-13.4 1-.1 1.7-.9 1.8-1.9.1-1-.5-1.9-1.4-2.2-2.6-.9-11.5-4.6-14.5-12.5-.3-.9-1.2-1.5-2.2-1.4-.9.1-1.7.7-1.9 1.7-1.5 6.6-5.3 10.9-11.6 13-.9.3-1.5 1.1-1.5 2 .1 1 .7 1.8 1.6 2.1zm14.2-11.3c2.2 3.1 5.4 5.9 9.2 8-3.7 1.9-6.6 5-8.8 9.7-2.1-3.6-5.1-6.6-8.7-8.6 3.8-2.1 6.5-5.1 8.3-9.1zm196.4 190.8c0 6.1 5.5 9.9 9.3 9.9 3.7 0 10.6-3.3 10.6-9.6 0-3.8-2.9-6.9-5.6-8.1-1.6-.7-3.2-.8-4.6-.9l-.8-.1c-5.2-.3-8.9 3.5-8.9 8.8zm8-4.4h.4l.9.1c1.2.1 2.3.2 3.2.5 1.5.7 3.1 2.4 3.1 4.2 0 3.5-4.7 5.3-6.4 5.3-1.5 0-5-1.9-5-5.6.1-2.3 1.2-4.5 3.8-4.5zm-33.1-143.4c-1.1.1-2 1-2 2.1v1c0 6.4.3 13.2.8 22 .1 1.2 1.1 2.1 2.3 2 6.2-.4 12.6-.7 19.5-1 .7.9 1.3 1.8 2 2.7 3.2 4.5 6.6 9.1 10.7 12.9.4.4.9.6 1.5.6.2 0 .5 0 .7-.1.7-.3 1.3-.9 1.4-1.7.6-4.1 1.3-9.4 1.7-15 4-.1 7.9-.3 11.9-.4 1.2 0 2.1-1 2.1-2.2-.1-4.6-.4-9.3-.7-13.9-.2-2.8-.3-5.7-.5-8.5-.1-1.2-1.1-2.1-2.2-2-7.8.3-15.7.5-23.4.7-8.6.1-17.3.4-25.8.8zm47 2.7c.1 2.1.2 4.3.4 6.4.2 3.8.5 7.7.6 11.6-3.9.1-7.8.3-11.7.4-1.1 0-2 .9-2.1 2-.3 4.3-.7 8.6-1.2 12.3-2.5-2.8-4.8-5.9-7.1-9.2-.9-1.2-1.8-2.4-2.7-3.7-.4-.5-1-.9-1.7-.9h-.1c-6.6.3-12.7.6-18.6.9-.4-7.2-.6-13.1-.7-18.5 7.9-.3 15.8-.5 23.5-.8 7.1 0 14.3-.2 21.4-.5zm-99.2-35.4a2 2 0 0 0 2.2 2l21-.4-.9 8.1c-.3 2.3-.5 4.6-.8 7-.1.9.4 1.7 1.2 2.1.3.2.6.2 1 .2.5 0 1-.2 1.4-.6 6.4-5.8 13.1-11.4 19.6-16.9l.6-.5 52.1-1.1c.6 0 1.2-.3 1.6-.7.4-.4.6-1 .5-1.6l-1.2-10.5c-.7-6.1-1.4-12.3-1.9-18.5-.1-1.2-1.1-2-2.3-2l-93.6 5.7c-1.2.1-2.1 1.1-2 2.2.2 3.6.4 7.2.7 10.9.3 5 .6 9.8.8 14.6zm92.2-28.8c.5 5.5 1.1 11.1 1.7 16.5l.9 8.2-50.5 1.1c-.5 0-1 .2-1.3.5l-1.2 1c-5.1 4.3-10.4 8.7-15.6 13.2.1-.5.1-.9.2-1.4.4-3.5.8-7 1.1-10.6.1-.6-.1-1.2-.6-1.7-.4-.4-1-.7-1.6-.7l-21.4.4c-.2-4.2-.5-8.3-.7-12.4-.2-2.9-.4-5.8-.5-8.7l89.5-5.4z"/><path d="M346.2 140.7c2 0 3.8-2.1 3.8-3.8 0-1.4-1-2.2-1.4-2.6l-.1-.1c-.4-.4-.9-.6-1.5-.6h-1.2c-.6 0-1.1.2-1.5.6-.7.7-1.1 1.7-1.1 2.7 0 3.5 2.3 3.8 3 3.8zm.8-4c.2.1.3.3.4.4 0 0 0 .1-.1.1l-.3-.3v-.2zm-1.2-.2v.4l-.1.1v-.1c.1-.2.1-.3.1-.4zm23.4 2.4c2.2 0 3-1.3 3.2-2.2.1-.3.3-.7.3-1.2 0-.4-.1-1.8-1.8-2.5-.4-.6-1-.9-1.8-.9s-1.3.3-1.7.6c-.4.1-.7.3-1 .6-.8.8-.7 1.8-.7 2.3.1 1.9 1.4 3.3 3.5 3.3zm21.4-.9s4-.5 4-3c0-.2 0-.5-.1-.7-.6-1.9-2.6-2.3-3.9-2.5l-.5-.1c-.2 0-.4-.1-.6-.1-1.4 0-2.4 1-2.4 2.4v.2c.1 3.4 2.5 3.8 3.5 3.8zm.1-4.2c.3.1.5.3.6.6-.1.2-.1.4-.3.6h-.8c.2-.6.3-1 .5-1.2zM176.1 234c6.2 0 11.8-5.3 11.8-11.1 0-6.7-5.9-12.4-12.9-12.4-2 0-3.9.5-5.4 1.6-3.4 2.3-5.6 6.3-5.6 10.5-.1 8.6 8.3 11.4 12.1 11.4zm-4.2-18.3a5 5 0 0 1 3-.8c4.7 0 8.7 3.7 8.7 8.2 0 3.1-3.4 6.8-7.5 6.8-2.1 0-7.9-1.7-7.9-7.2 0-2.8 1.5-5.5 3.7-7zm29.7 16.7c-1.2 0-2.8.5-3.7 1-2.1 1-3.6 3.8-3.6 6.5 0 4.3 3.5 8 7.4 8 5.3 0 7.5-4.7 7.5-7.2 0-5.7-4.4-8.3-7.6-8.3zm.1 11.2c-1.3 0-3.1-1.4-3.1-3.7 0-1.4.9-2.5 1.2-2.6.7-.3 1.5-.6 1.8-.6 0 0 3.3.2 3.3 4 0 .4-.6 2.9-3.2 2.9zM153.2 348c0-5.7-4.4-8.3-7.6-8.3-1.2 0-2.8.5-3.7 1-2.1 1-3.6 3.8-3.6 6.5 0 4.3 3.5 8 7.4 8 5.3 0 7.5-4.7 7.5-7.2zm-10.6-.8c0-1.4.9-2.5 1.2-2.6.7-.4 1.5-.6 1.8-.6 0 0 3.3.2 3.3 4 0 .4-.6 2.9-3.2 2.9-1.3 0-3.1-1.4-3.1-3.7zm20-61.9c3.6 23.1 9.3 46.2 14.8 68.5.9 3.8 1.9 7.7 2.8 11.5.1-.1.1-.2.2-.3.7-.9 2.1-1.1 3-.4.9.7 1.3 1.5 1.6 2.2l92.8-5.5c-.8-.3-1.5-1.1-1.5-2 0-1.2 1-2.1 2.1-2.1 1 0 1.9 0 2.9-.1-6.4-31.7-10.1-48.8-12.4-59.1-1.8-8.4-2.7-12.2-3.2-15.7-.2-1.1-1.1-1.8-2.1-1.8l-33.7.8c-.1.4-.2.8-.2 1.2-.2 1-1.1 1.7-2.1 1.7h-.4c-1.2-.2-1.9-1.4-1.7-2.5v-.2l-61 1.4c-.6 0-1.2.3-1.6.8-.2.4-.4 1-.3 1.6zm99.2-.4c.5 3.2 1.4 7.1 2.9 14.1 2.2 10.2 5.9 27 12.2 58.1l-93 5.6c-.8-3.3-1.6-6.6-2.4-9.8-5.2-21.5-10.7-43.6-14.3-65.7l94.6-2.3z"/><path d="M204.8 323.9l8.1 6.6c2.7 2.2 5.4 4.5 8.2 6.7.4.3.9.5 1.3.5h.2c.6-.1 1.1-.3 1.4-.8 2.5-3.1 5.2-6 7.8-8.9l1.5-1.7c.4-.4.6-1 .5-1.6 0-.6-.3-1.1-.8-1.5l-2-1.6c-4.8-3.9-9.7-7.8-13.6-10.6-.8-.6-1.9-.5-2.6.1-3.2 2.7-6.9 5.9-10.4 9.6-.4.4-.6 1-.6 1.6.3.7.5 1.2 1 1.6zm11.7-8.4c3.6 2.6 7.8 6.1 12 9.4l.3.2c-2.2 2.4-4.4 4.9-6.6 7.5-2.2-1.8-4.3-3.6-6.5-5.3-2.1-1.7-4.2-3.5-6.3-5.2 2.4-2.5 4.8-4.7 7.1-6.6zm61.3-76.3c1.1-.3 2.3.3 2.6 1.5.1.4.2.8.2 1.1 6.7-.3 13.4-.6 20.1-1-.2-1.2.6-2.2 1.8-2.4 1.2-.2 2.3.6 2.5 1.8 0 .1.1.3.1.4 10.5-.6 20.9-1.3 31.3-2.2 4.1-.4 7.6-3.5 8.4-7.5 1-5.1 1.5-10.4 1.5-15.7 0-2-.1-4-.2-6-.2.1-.4.1-.7.1-.3 0-.7-.1-1-.2-1.1-.5-1.5-1.8-.9-2.9.4-.9 1.2-1.4 2.2-1.5-.6-5-1.5-10-2.9-15.1-.7.1-1.4.2-2.3.4-.8.2-1.7-.1-2.2-.8 2.4 8.6 3.7 17.4 3.7 25.8 0 5.1-.5 10.1-1.4 14.9a5.1 5.1 0 0 1-4.5 4.1c-27.6 2.4-55.8 3.5-83 4.5l-3.5.1h-.2c-1.9 0-3.5-1.3-3.9-3.1-1.5-6-4.9-21.3-4.9-34.8 0-7.6.9-14.4 2.7-20.8.1-.5.4-1 .6-1.5-.4-.1-.7-.3-1.1-.4-1.1-.5-1.6-1.7-1.1-2.8.5-1.1 1.7-1.6 2.8-1.1 1.2.5 2.3.9 3.5 1.2.2 0 .4-.1.6-.1 18.3-3 37-4.6 55.5-4.6 7.5 0 15 .3 22.5.8 1-.4 2-.9 3-1.3 1.1-.5 2.3-.1 2.9 1 .4.7.3 1.5-.2 2.2.2.3.4.5.5.9 2.1 4.5 3.8 9.1 5.1 13.7.1-.9.7-1.7 1.6-2 .8-.2 1.5-.3 2.1-.4-1.4-4.4-3-8.8-5-13.1-1.3-2.8-4-4.7-7.1-4.9-8.4-.6-17-1-25.5-1-18.7 0-37.6 1.6-56.2 4.7-4.2.7-7.6 3.8-8.7 7.8a85.1 85.1 0 0 0-2.8 18.7h.2c1.2.2 2 1.3 1.8 2.4-.2 1.1-1 1.8-2.1 1.8.1 4.2.4 8.6.9 12.8h.5c.6-.1 1.2-.1 1.7-.1 1.2 0 2.1 1 2.1 2.1s-1 2.1-2.1 2.1c-.4 0-.9 0-1.3.1h-.4c1.1 7.6 2.6 14.3 3.5 17.8.9 3.7 4.3 6.4 8.1 6.4h.3l3.5-.1 23.1-.9v-.1c-.1-1.3.6-2.5 1.7-2.8z"/><path d="M331.4 174c.3-.2.6-.4.8-.7.4-.6.5-1.4.2-2.2-.5-1.1-1.8-1.5-2.9-1-.9.5-1.9.9-3 1.3-15.7 6.2-41.8 6.2-59.5 6.2-5.6 0-12.5-.3-19-2.3-1.2-.4-2.4-.8-3.5-1.2-1.1-.5-2.3.1-2.8 1.1-.5 1.1.1 2.3 1.1 2.8.4.2.7.3 1.1.4 7.9 3 16.4 3.5 23.1 3.5 19.2.1 48.4.1 64.4-7.9zm-62.1 18.9c-.6 0-1.2 0-1.7.1-6.6.9-10.6 7.3-10.6 13 0 7.8 6.5 12 12.7 12 7.6 0 13.3-6.7 13.3-12.6-.1-5.9-5.9-12.5-13.7-12.5zm4.7 19.7c.2.6.1 1.2-.2 1.8-.4.6-1.1 1-1.8 1-.4 0-.8-.1-1.2-.4-.5-.3-.8-.8-1.1-1.2h-.1c-.7 0-1.6-.1-2.4-.3-.3.7-1.1 1.2-1.9 1.2-1.2 0-2.1-1-2.1-2.1 0-.4.1-.9.2-1.3a7.2 7.2 0 0 1-2.1-5.3c0-3.9 2.6-8.2 6.9-8.8.4-.1.8-.1 1.2-.1 5.3 0 9.3 4.4 9.3 8.2 0 2.5-1.7 5.6-4.7 7.3zm35.5-21.7h-1.9c-7.2 0-12 6.9-12 13.3 0 4.3 4.4 12 13.2 12 6.9 0 14.3-5.1 14.3-12.6 0-7.1-6-12.7-13.6-12.7zm3.8 20.2c0 .2.1.4.1.6v.2c.2 1.2-.6 2.3-1.8 2.5h-.4c-1 0-1.9-.7-2.1-1.8v-.2c0-.1 0-.2-.1-.3h-.4c-.4 0-.7 0-1.1-.1-.2.9-.8 1.6-1.8 1.7-1.2.2-2.3-.6-2.5-1.8-.1-.4-.1-.7-.1-1.1v-.5c-2.6-1.9-3.6-5-3.6-6 0-4.3 3.2-9 7.8-9h1.9c5.2 0 9.3 3.7 9.3 8.5.3 3.5-2.3 6-5.2 7.3z"/><path d="M273.2 210.9c-.3-1.2-1.1-3.9-4.7-3.9-2.2 0-4.5 1.6-5.1 4.2-.1.4-.2.8-.2 1.3 0 1.2 1 2.1 2.1 2.1.9 0 1.6-.5 1.9-1.2.1-.3.2-.6.2-.9 0-.8.7-1.2 1-1.2h.4c.1.1.2.5.2.7.1.5.3 1.1.7 1.7.3.4.6.9 1.1 1.2.4.2.8.4 1.2.4a2 2 0 0 0 1.8-1c.4-.5.4-1.2.2-1.8-.1-.4-.3-.8-.7-1.1 0 0-.1-.3-.1-.5zm35-6.6c-.2 0-.5 0-.7.1-2.7.8-4 3.5-4.1 5.9v.5c0 .4 0 .8.1 1.1.2 1.2 1.3 2 2.5 1.8.9-.1 1.6-.9 1.8-1.7 0-.2.1-.5 0-.7v-.4c0-.8.3-1.5.6-1.9.4.7.7 2.3.8 3.2 0 .1 0 .2.1.3v.2c.2 1 1.1 1.8 2.1 1.8h.4c1.2-.2 2-1.3 1.8-2.5v-.2c0-.2-.1-.4-.1-.6-.7-2.8-1.6-6.9-5.3-6.9zm-6.6 17.8c-4.6 1-9.6 1.1-14.7 1.1h-2.7c-1.2 0-2.1 1-2.1 2.1s1 2.1 2.1 2.1h2.7c5.4 0 10.6-.1 15.6-1.2a2.1 2.1 0 0 0 1.6-2.6c-.2-1.1-1.4-1.8-2.5-1.5zm-62.1-3.3c1.2 0 2.1-1 2.1-2.1s-1-2.1-2.1-2.1c-.5 0-1.1.1-1.7.1h-.5c-.3 0-.6.1-.9.1-2.1 0-4.5-1.9-4.5-7.2 0-5.3 1.5-5.7 3.7-5.7h.7c1 0 1.9-.8 2.1-1.8.2-1.2-.6-2.3-1.8-2.4h-.2c-.3 0-.5-.1-.8-.1-8 0-8 7.3-8 10 0 7.9 4.4 11.4 8.7 11.4.5 0 1 0 1.5-.1h.4c.4 0 .9-.1 1.3-.1zm98.4-31c0 .2 0 .4.1.6.1.3.2.6.4.8.5.6 1.4 1 2.2.8.9-.2 1.6-.3 2.3-.4.3 0 .5-.1.8-.1 2.6 0 3.9 5.6 3.9 9.6 0 4.8-1 5.6-1 5.5h-.8c-1 .1-1.8.6-2.2 1.5-.5 1.1-.1 2.3.9 2.9.3.2.6.2 1 .2.2 0 .5-.1.7-.1.1 0 .2-.1.3-.1h.2c3.5 0 5.2-3.3 5.2-9.8 0-4.8-1.7-13.9-8.2-13.9-.6 0-1.3.1-2 .2s-1.4.2-2.1.4c-1 .2-1.7 1-1.7 1.9zm-110.6 96.4h.4c1 0 1.9-.7 2.1-1.7.1-.4.2-.8.2-1.2.1-.7.3-1.3.4-1.9-.5-.4-.8-.8-1.2-1.2-.2-.2-.4-.5-.7-.8-.8-.8-.8-2.2 0-3 .8-.8 2.2-.8 3 0l.2.2c1.7-5.2 4.3-8.3 10.3-10.3-.1-.1-.2-.1-.3-.2-1-.7-1.2-2-.5-3s2-1.2 3-.5 1.8 1.5 2.4 2.6c6.8-1.3 16.7-1.9 31.4-2.3-.3-1.4-.5-2.8-.6-4.3-42 1.1-47.6 4-51.8 24.9v.2c-.3 1.1.5 2.3 1.7 2.5zm80.8-23.9l6.5-.1c8.2-.1 17.4-.3 26.4-.4 1.2-1.7 2.7-3.3 4.6-4.3h-.4c-10.4.2-21.2.4-30.7.5H308c.1.9.1 1.8.1 2.7.1.6 0 1.1 0 1.6z"/><path d="M294.4 272.8c8.2 0 13.2-4.5 13.7-12.5 0-.5.1-1 .1-1.6 0-.9-.1-1.8-.1-2.7-.3-3.5-1.1-7.2-1.9-10.5-.4-1.8-.8-3.4-1-4.9 0-.1-.1-.3-.1-.4-.2-1.2-1.3-2-2.5-1.8a2.2 2.2 0 0 0-1.8 2.4c.3 1.8.7 3.6 1.2 5.6.2.7.3 1.4.5 2.1.5.2 1 .6 1.2 1.2.3.8.1 1.8-.5 2.4.3 1.8.6 3.6.7 5.3.7.1 1.3.5 1.7 1.1.5 1 .1 2.3-.9 2.9-.3.2-.7.3-1 .5-.9 4.4-3.9 6.7-9.2 6.7-7 0-10.1-2.3-11.6-6.4-1.1-.4-2.3-.9-3.4-1.4-1.1-.5-1.5-1.8-1-2.9.5-1.1 1.8-1.5 2.9-1 .2.1.3.2.5.2l-.3-4.8c-.9-.5-1.9-1-2.7-1.6-1-.7-1.2-2-.5-3s2-1.2 3-.5l.1.1c-.1-1.9-.3-3.7-.6-5.4-.1-.4-.1-.8-.2-1.1-.3-1.1-1.5-1.8-2.6-1.5-1.1.3-1.8 1.5-1.5 2.6v.1c.7 2.5.7 5.6.8 9 0 1.8.1 3.7.2 5.6.1 1.4.3 2.9.6 4.3 1.2 6.4 5.1 11.9 16.2 11.9zm46.6-13c-1.6 2.4-2.6 5.2-2.6 7.5 0 4.1 2.1 7.8 5.2 10.2.2-.9 1-1.6 2-1.6 1.2-.1 2.2.9 2.2 2 0 .6.1 1.2.1 1.8 1.2.3 2.4.5 3.7.5 2.4 0 4.8-.8 7-2.2-.1-.9-.3-1.8-.4-2.6-.2-1.2.7-2.2 1.8-2.4 1.1-.1 2 .5 2.3 1.5 1.6-2.1 2.6-4.7 2.6-7.6 0-3.6-1.3-6.6-3.7-8.7-2.7-2.4-6.3-3.8-10.2-4-2.1-.1-3.9.4-5.5 1.3-1.8 1-3.3 2.5-4.5 4.3zm9.9-1.4c2.1.1 5.1.8 7.7 3 1.5 1.3 2.2 3.1 2.2 5.5 0 5.1-4.9 9.1-9.1 9.1-4.8 0-8.9-4.1-8.9-8.7 0-3.5 3.3-8.9 7.8-8.9h.3zm-102.7 11.3c0-2.6-.5-4.8-1.6-6.5-.6-1-1.4-1.9-2.4-2.6-1-.7-2.3-.4-3 .5-.7 1-.4 2.3.5 3 .1.1.2.1.3.2 1.3 1 1.9 2.8 1.9 5.4 0 4.5-2.9 6.8-8.7 6.8-1.9 0-2-.2-2.7-1-.2-.3-.5-.6-.8-.9l-.2-.2c-.8-.8-2.2-.8-3 0-.8.8-.8 2.2 0 3 .3.3.5.5.7.8.4.5.8.9 1.2 1.2 1 .8 2.3 1.3 4.8 1.3 8.1 0 13-4.1 13-11zm60.6 34.5c0 .6.3 1.2.8 1.6.4.3.9.5 1.4.5h.3c4-.6 8.1-.8 12.1-1.1 2.7-.2 5.6-.3 8.3-.6 1.2-.1 2-1.1 1.9-2.3-.2-2.7-.5-5.4-.9-8.1-.2-1.3-.3-2.7-.5-4-.1-1.1-1.1-2-2.2-1.9h-.4c-6.4.4-13 .7-19.5 1.5-1.1.1-1.9 1.1-1.9 2.2.2 2.9.3 5.9.4 8.8l.2 3.4zm19.5-11.6c.1.7.2 1.4.2 2 .2 1.9.5 3.9.7 5.8-2 .2-4.1.3-6.1.4-3.3.2-6.7.4-10.1.8v-1l-.3-6.9c5.2-.5 10.4-.8 15.6-1.1z"/><path d="M302.6 257.6c-2.8 1.5-6 2.2-9.4 2.2-3.7 0-7.7-.9-11.5-2.7-.2-.1-.3-.2-.5-.2-1.1-.5-2.3-.1-2.9 1-.5 1.1-.1 2.3 1 2.9 1.1.5 2.2 1 3.4 1.4 3.5 1.2 7 1.9 10.5 1.9 3.7 0 7.1-.7 10.3-2.2.4-.2.7-.3 1-.5 1-.5 1.5-1.8.9-2.9-.3-.7-1-1.1-1.7-1.1-.3-.1-.7 0-1.1.2zm-1.7-9.1c-2.9 1.2-6 1.8-9 1.8-3.9 0-7.5-1.1-10.5-3.1l-.1-.1c-1-.7-2.3-.4-3 .5-.7 1-.4 2.3.5 3 .9.6 1.8 1.1 2.7 1.6 3.1 1.5 6.6 2.4 10.4 2.4 3.5 0 7.2-.7 10.7-2.1.3-.1.5-.3.7-.4.6-.6.9-1.5.5-2.4-.2-.6-.7-1-1.2-1.2-.6-.2-1.2-.2-1.7 0zm16.1 93c.2.5.5 1 .7 1.5.3.5.5 1 .8 1.6 3.1-.2 6.2-.5 9.3-1.2-.1-.2-.2-.3-.4-.5-.8-.9-.6-2.3.3-3 .9-.8 2.3-.6 3 .3.5.6 1 1.2 1.4 1.8 1.6-.7 3.2-1.5 4.7-2.6l-1.4-1.4c-.7-.7-.8-1.8-.2-2.7-5.5 4.4-12.7 4.9-19.9 5.1.8 0 1.4.4 1.7 1.1zm27.3-53.1c.4 5.1.8 10.3.8 15.4 0 16.7-3.5 25.7-8.7 30.6.8-.3 1.7-.1 2.3.5l1.6 1.6c1.8-1.9 3.5-4.4 4.9-7.4-.3 0-.6-.1-.8-.1-1.2-.1-2-1.2-1.9-2.4.1-1.2 1.2-2 2.4-1.9.6.1 1.2.2 1.9.3.9-2.8 1.6-6.1 2.1-9.8h-.7c-1 0-1.9-.7-2.1-1.7-.2-1.2.5-2.3 1.7-2.5.5-.1 1-.2 1.5-.2.1-2.2.2-4.5.2-7 0-2.2-.1-4.3-.2-6.5-.5 0-1 .1-1.5.1-1.2 0-2.1-1-2.1-2.1s1-2.1 2.1-2.1c.4 0 .8 0 1.2-.1-.1-1.7-.2-3.3-.4-4.9l-.6-8.4c0-.6-.1-1.2-.1-1.8-.1-1.2-1-2.1-2.2-2-1 0-1.8.7-2 1.6 0 .2-.1.4-.1.6.2 3.3.4 6.8.7 10.2z"/><path d="M360.1 273c-1.2.2-2 1.2-1.8 2.4.1.8.2 1.7.4 2.6.5 3.7 1.1 7.8 1.8 12.1.1.9.3 1.8.4 2.6.7.4 1.1 1.2 1 2 0 .5-.2.9-.6 1.3.7 4.9 1.5 9.9 2.1 14.6 1.2-.1 2.2.8 2.3 2 .1 1.1-.7 2-1.8 2.2.7 6.2 1.2 11.7 1.2 15.9v.7l1.1.3c1.2.3 1.9 1.4 1.6 2.5-.2 1-1.1 1.7-2.1 1.7h-.5c-.1 0-.3-.1-.4-.1-.6 6.1-2.4 11.9-7.4 16.4 0 .2-.1.3-.2.5-.4.8-1.1 1.2-1.9 1.2-3.4 2.3-7.8 4.1-13.8 5.2.2 1.1-.5 2.1-1.5 2.4-.2.1-.4.1-.6.1-.9 0-1.8-.6-2.1-1.6 0-.1-.1-.2-.1-.3-2.7.3-5.6.4-8.8.4-1.6 0-4.2-.1-7.1-.3-.1.8-.2 1.5-.4 2.2-.3.9-1.1 1.6-2.1 1.6-.2 0-.4 0-.6-.1-1.1-.3-1.8-1.5-1.5-2.6.1-.4.2-.8.2-1.3-8.8-.6-19.1-1.9-21.2-3.5.1-10.4 6.2-11.1 17.7-11.3-.2-.4-.4-.8-.6-1.3-.5-1.1-.1-2.3 1-2.9.2-.1.4-.1.5-.2h-.9c-10.8.3-21.9.5-21.9 16v.1c1.1-.1 2.2-.2 3.3-.2 1.2-.1 2.2.8 2.3 2 .1 1.1-.7 2-1.7 2.2 2.4.9 6.1 1.7 11.7 2.4 1.1-.3 1.7-.6 2.1-.8.4-.9 1.4-1.3 2.4-1.1 1.1.3 1.8 1.4 1.6 2.5 7.6.6 14.5.8 15.2.8 28.2 0 40.8-10.4 40.8-33.6 0-9.7-2.6-26.5-4.8-41.3-.8-5.4-1.6-10.4-2.2-14.6 0-.1 0-.2-.1-.4.1-.9-.9-1.6-2-1.4z"/><path d="M321.6 356.4c0-.6-.1-1.2-.1-1.8 0-3.8-1.4-7.1-2.9-10.1-.3-.5-.5-1-.8-1.6-.3-.5-.5-1-.7-1.5-.3-.6-.9-1-1.6-1.1h-.8c-.2 0-.4.1-.5.2-1.1.5-1.5 1.8-1 2.9a16.28 16.28 0 0 1 .7 1.5c1.7 3.3 3.3 6.4 3.3 9.7 0 .7 0 1.4.1 2 0 .6.1 1.2.1 1.8 0 .4 0 .7-.1 1 0 .5-.1.9-.2 1.3-.3 1.1.3 2.3 1.5 2.6.2.1.4.1.6.1.9 0 1.8-.6 2.1-1.6.2-.7.3-1.4.4-2.2 0-.4.1-.8.1-1.3-.2-.5-.2-1.2-.2-1.9zm10.6-14.5c-.5-.6-.9-1.2-1.4-1.8-.8-.9-2.1-1-3-.3-.9.8-1 2.1-.3 3 .1.2.2.3.4.5 4.1 5 7.9 10 9.7 16.3 0 .1.1.2.1.3.3 1 1.1 1.6 2.1 1.6.2 0 .4 0 .6-.1 1.1-.3 1.7-1.3 1.5-2.4v-.2c-2-6.7-5.6-11.9-9.7-16.9zm24.3 7.9c-6-2.9-10.6-7.6-15.5-12.5l-.8-.8-1.6-1.6c-.6-.6-1.5-.8-2.3-.5-.3.1-.5.3-.7.5-.1.1-.2.2-.2.4-.5.8-.5 1.9.2 2.7l1.4 1.4 1 1c4.9 5 10 10.2 16.7 13.4.3.1.6.2.9.2.8 0 1.6-.4 1.9-1.2.1-.1.1-.3.2-.5.2-1.1-.3-2.1-1.2-2.5zm-9.9-24.8c-.6-.1-1.2-.2-1.9-.3-1.2-.1-2.2.7-2.4 1.9-.1 1.2.7 2.2 1.9 2.4.3 0 .6.1.8.1 3.6.6 7 2 10.5 3.4 3 1.3 6.1 2.5 9.5 3.3.1 0 .3.1.4.1h.5c1 0 1.9-.7 2.1-1.7.3-1.2-.5-2.3-1.6-2.5l-1.1-.3c-2.7-.7-5.3-1.8-8-2.9-3.5-1.4-6.9-2.8-10.7-3.5zm10.9-14.4c-1.3 0-2.6-.1-4-.1-1.7 0-3.1.1-4.4.2-.5.1-1 .1-1.5.2-1.2.2-1.9 1.3-1.7 2.5.2 1 1.1 1.7 2.1 1.7h.7c1.4-.2 2.9-.4 4.8-.4 1.3 0 2.5 0 3.8.1 2.2.1 4.3.2 6.4 0h.2c1.1-.2 1.8-1.1 1.8-2.2-.1-1.2-1.1-2.1-2.3-2-1.9.1-3.9.1-5.9 0zm-4.8-17.9l-3.8.3c-.4 0-.8.1-1.2.1-1.2 0-2.1 1-2.1 2.1s1 2.1 2.1 2.1c.5 0 1 0 1.5-.1l4-.3c2.2-.2 4.3-.5 6.5-.3.7 0 1.3-.2 1.7-.7.3-.3.5-.8.6-1.3.1-.8-.4-1.6-1-2-.3-.2-.6-.3-.9-.3-2.7-.1-5.1.2-7.4.4zM312 361c-1-.2-2 .2-2.4 1.1-.3.2-.9.5-2.1.8-4.1 1.1-14.9 2.5-43.7 3.3-1.1 0-1.9.1-2.2.1l-47.1 1.5-27.9.9c-.9 0-1.2-.2-1.2-.2-.1-.1-.2-.5-.3-.8-.1-.2-.2-.5-.3-.8-.3-.7-.7-1.6-1.6-2.2-.9-.7-2.3-.5-3 .4-.1.1-.1.2-.2.3-.5.9-.3 2.1.6 2.7.1.1.2.5.3.8.4 1.3 1.2 4 5.5 4l28-.9c21.3-.7 46.9-1.4 47.1-1.5.4 0 1.2 0 2.2-.1 48.2-1.4 49-4.6 49.6-6.9v-.1c.4-1-.2-2.1-1.3-2.4zm-55.4-222.1h.3c1.2-.1 2-1.2 1.9-2.4-.1-.5-.1-1.1-.1-1.6 0-.7.1-1.5.2-2.2.2-1.2-.6-2.3-1.8-2.5-1.2-.2-2.3.6-2.5 1.8-.2.9-.2 1.9-.2 2.9 0 .7 0 1.4.1 2.1.1 1.1 1 1.9 2.1 1.9zm5.3-12.7c.4 0 .8-.1 1.1-.3 1-.6 2.1-1 3.2-1.2h.1c1.2-.2 1.9-1.3 1.7-2.4-.2-1.2-1.3-1.9-2.5-1.8-1.8.3-3.4.9-4.9 1.8-1 .6-1.3 1.9-.7 2.9.6.6 1.3 1 2 1zm2.2 23.7c.3.1.5.2.8.2.8 0 1.6-.5 2-1.3.4-1.1-.1-2.3-1.2-2.8-1.1-.5-2.2-1.1-3.1-1.9-.9-.8-2.2-.7-3 .2-.8.9-.7 2.2.2 3 1.2 1 2.7 1.9 4.3 2.6zm10.7.1c.3 0 .5 0 .8-.2 1.5-.6 2.9-1.4 4.3-2.4 1-.7 1.2-2 .5-3s-2-1.2-3-.5c-1.1.8-2.2 1.4-3.3 1.9-1.1.4-1.6 1.7-1.2 2.8.2.9 1 1.4 1.9 1.4zm.7-24.7c1.3.4 2.4 1 3.5 1.6.4.2.8.3 1.1.3.7 0 1.4-.4 1.8-1 .6-1 .3-2.3-.7-3-1.3-.8-2.8-1.5-4.4-2.1-1.1-.4-2.3.3-2.7 1.4-.4 1.3.3 2.5 1.4 2.8zm8.5 14.4c.2.1.5.1.7.1.9 0 1.7-.6 2-1.4.5-1.5.8-3 .8-4.4v-.7c-.1-1.2-1.1-2.1-2.3-2-1.2.1-2.1 1.1-2 2.3v.5c0 1-.2 2-.5 3-.4 1 .2 2.3 1.3 2.6zm125.9 147c-1.2.3-1.9 1.4-1.6 2.5.2 1 1.1 1.7 2.1 1.7.2 0 .3 0 .5-.1 1.5-.3 3-.8 4.3-1.4 1.1-.5 1.6-1.7 1.1-2.8-.5-1.1-1.7-1.6-2.8-1.1-1.2.5-2.3.9-3.6 1.2zm-8.4-.3c-1.1-.4-2.2-.9-3.1-1.5-1-.7-2.3-.5-3 .5-.7 1-.5 2.3.5 3 1.3.9 2.7 1.6 4.3 2.1.2.1.4.1.7.1.9 0 1.7-.6 2-1.5.4-1.1-.2-2.3-1.4-2.7zm22.3-10.8c-1.1-.3-2.3.4-2.6 1.5-.3 1.1-.8 2.2-1.4 3.2-.6 1-.3 2.3.7 3 .4.2.8.3 1.1.3.7 0 1.4-.4 1.8-1 .9-1.4 1.5-2.8 1.9-4.4.3-1.2-.4-2.3-1.5-2.6zm-11.5-17.8c-1.5-.4-3.2-.5-4.8-.4-1.2.1-2.1 1.1-2 2.3.1 1.2 1.1 2.1 2.3 2 1.2-.1 2.3 0 3.4.3h.1c.2 0 .3.1.5.1 1 0 1.8-.7 2-1.6.4-1.2-.4-2.4-1.5-2.7zm9.2 5.6c-.8-.9-2.1-1-3-.2-.9.8-1 2.1-.2 3 .8.9 1.5 1.9 2 2.9.4.8 1.1 1.2 1.9 1.2.3 0 .6-.1.9-.2 1.1-.5 1.5-1.8 1-2.9-.6-1.3-1.5-2.6-2.6-3.8zm-23.9-2c-1.2.9-2.3 2-3.3 3.2-.8.9-.6 2.3.3 3 .4.3.9.5 1.4.5.6 0 1.2-.3 1.6-.8.8-.9 1.7-1.8 2.6-2.5.9-.7 1.1-2.1.4-3a2.2 2.2 0 0 0-3-.4zm-5.4 11.1c-1.2-.1-2.2.7-2.4 1.9-.1.5-.1 1.1-.1 1.6 0 1.1.1 2.1.3 3.1.2 1 1.1 1.7 2.1 1.7h.4c1.2-.2 1.9-1.4 1.7-2.5-.1-.8-.2-1.5-.2-2.3 0-.4 0-.8.1-1.2.2-1.1-.7-2.2-1.9-2.3zM160.5 265H80c-2.7 0-2.7 4.2 0 4.2h80.5c2.7.1 2.7-4.2 0-4.2zm11.2-13.8h-48.5c-2.7 0-2.7 4.2 0 4.2h48.5c2.8 0 2.8-4.2 0-4.2zm-29.4 38.9h-25.1c-2.7 0-2.7 4.2 0 4.2h25.1c2.7.1 2.7-4.2 0-4.2zm238.9 22.4H473c2.7 0 2.7-4.2 0-4.2h-91.8c-2.7 0-2.7 4.2 0 4.2zm-7.8-66.6h58c2.7 0 2.7-4.2 0-4.2h-58c-2.7-.1-2.7 4.2 0 4.2zm29.5-13h46.7c2.7 0 2.7-4.2 0-4.2h-46.7c-2.8 0-2.8 4.2 0 4.2zm46.7 46.8H479c2.7 0 2.7-4.2 0-4.2h-29.4c-2.7-.1-2.7 4.2 0 4.2z"/></g></svg>