<svg id="Layer_1" xmlns="http://www.w3.org/2000/svg" xmlns:xlink="http://www.w3.org/1999/xlink" viewBox="0 0 156 175"><style>.st1{clip-path:url(#SVGID_2_)}.st2{fill:#333}.st3{fill:#202020}</style><path d="M55.6 29.4c-.3.1-.5.3-.8.4-11.7 6.1-22 15.6-28.9 30-1.2 2.4-2.3 5.1-2.6 8.5-.2 2.8.1 6.2 1.3 9.5.1 9.1 1.9 19.5 6.9 28.6 6.2 11.3 15.6 17.4 22.8 17.7 4 .1 7.5-1.2 11-2.5 11.5-4.5 22.9-9.4 34-14.9 1.1-.5 2.2-1.1 3.2-1.6 7.4-3.7 14.5-8 20-15.2 2.4-3.1 4.5-6.7 7.4-8.9 2.3-1.8 5.2-2.7 7.2-5.1 1.7-2.1 2.7-5.2 3.3-8.6.8-4.2 1-8.9.1-14.2-.9-5.3-3.2-11.1-6.4-15.4-3.1-4.1-6.8-6.3-10-10-2.1-2.4-4-5.3-6.1-7.1-2.3-1.9-4.5-2.1-6.6-2.3-6.4-.4-12.4.2-18.5 1-12.9 1.6-25.8 4.2-37.3 10.1" fill="#cfebf6"/><defs><path id="SVGID_1_" d="M37.5 13.7h79v98.6h-79z"/></defs><clipPath id="SVGID_2_"><use xlink:href="#SVGID_1_" overflow="visible"/></clipPath><g class="st1"><path class="st2" d="M67.8 111.9c-.2 0-.3-.1-.3-.2-.1-.2-.2-.3.3-.6.7-.5 2.5-1.7 7.3-4.7 4.5-2.8 10.4-6.5 16.3-10.1 1.1-.7 2.3-1.4 3.5-2.2-1.6 1-3.3 1.9-4.9 2.9-25.5 15-25.6 15-25.9 14.9-.1 0-.2-.1-.3-.2-.1-.2-.2-.3.3-.6.7-.6 2.7-1.8 7.8-4.9 1.3-.8 2.7-1.6 4.1-2.5-12.8 7.5-12.9 7.5-13.1 7.4-.1 0-.2-.1-.3-.2-.1-.2-.2-.3.3-.6.7-.6 2.7-1.8 7.8-5 4.6-2.9 10.8-6.6 16.9-10.4-25.5 15-25.6 15-25.9 14.9-.1 0-.2-.1-.3-.2-.1-.2-.2-.3.3-.6.7-.6 2.6-1.7 7.6-4.8 2.4-1.4 5.1-3.1 8.1-4.9C60 109.5 60 109.5 59.7 109.4c-.1 0-.2-.1-.3-.2-.1-.2-.2-.3.3-.6.7-.6 2.6-1.8 7.7-4.9 4.7-2.9 11.1-6.8 17.4-10.8 1-.6 1.9-1.2 2.9-1.8-1 .6-2.1 1.2-3.1 1.8-25.9 15.2-25.9 15.2-26.2 15.1-.1 0-.2-.1-.3-.2-.1-.2-.2-.3.3-.6.7-.6 2.6-1.8 7.6-4.9 4.7-2.9 10.9-6.8 17.1-10.7 2.3-1.4 4.6-2.9 6.8-4.3l-7.2 4.2c-25.6 15-25.7 15-26 14.9-.1 0-.2-.1-.3-.2-.1-.2-.2-.3.3-.6.7-.6 2.6-1.8 7.7-4.9 4.7-2.9 11-6.8 17.2-10.7 1.9-1.2 3.8-2.3 5.6-3.5-2 1.2-4.1 2.4-6.1 3.6-25.7 15.1-25.8 15.1-26.1 15-.1 0-.2-.1-.3-.2-.1-.2-.2-.3.3-.6.7-.6 2.6-1.7 7.6-4.8C67 96.7 72.4 93.4 78 90c-24.1 14.2-24.2 14.1-24.5 14.1-.1 0-.2-.1-.3-.2-.1-.2-.2-.3.3-.6.7-.6 2.6-1.8 7.8-4.9 3.1-1.9 6.9-4.2 11-6.7-18.3 10.8-18.4 10.7-18.7 10.7-.1 0-.2-.1-.3-.2-.1-.2-.2-.3.3-.6.7-.6 2.6-1.8 7.7-4.9L78.6 86c1.4-.9 2.8-1.7 4.2-2.6-1.6 1-3.3 1.9-4.9 2.9-26.2 15.4-26.2 15.3-26.5 15.3-.1 0-.2-.1-.3-.2-.1-.2-.2-.3.3-.6.7-.6 2.7-1.8 7.8-5 4.8-3 11.2-6.9 17.7-10.8 0 0-.1 0-.1.1-26 14.9-26.1 14.9-26.4 14.8-.1 0-.2-.1-.3-.2-.1-.2-.2-.3.3-.6.7-.6 2.7-1.8 8-5.1 4.9-3 11.5-7.1 18-11.1 1.2-.7 2.4-1.5 3.6-2.2-1.1.7-2.2 1.3-3.4 2C50.4 98.1 50.3 98.1 50 98c-.1 0-.2-.1-.3-.2-.1-.2-.2-.3.3-.6.7-.6 2.7-1.8 8-5.1 4.8-3 11.3-6.9 17.8-10.9C49.4 96.7 49.3 96.7 49 96.6c-.1 0-.2-.1-.3-.2-.1-.2-.2-.3.3-.6.7-.6 2.7-1.8 8-5.1 4.9-3 11.4-7 17.9-11.1 1.4-.9 2.9-1.8 4.4-2.7l-4.5 2.7C48.2 95.1 48.2 95.1 47.9 95c-.1 0-.2-.1-.3-.2-.1-.2-.2-.3.3-.6.7-.6 2.7-1.8 8.1-5.1 1.5-.9 3.2-1.9 4.9-3-13.7 8-13.8 8-14.1 8-.1 0-.2-.1-.3-.2-.1-.2-.2-.3.3-.6.7-.6 2.8-1.9 8.4-5.4 5.1-3.2 12-7.4 18.9-11.6 1.5-.9 3.1-1.9 4.7-2.9-1.5.9-3 1.8-4.5 2.6-27.5 16.2-27.6 16.1-27.9 16-.1 0-.2-.1-.3-.2-.1-.2-.2-.3.3-.6.7-.6 2.8-1.9 8.4-5.3 4.4-2.7 10.2-6.2 16.1-9.8C45.6 91 45.5 91 45.2 90.9c-.1 0-.2-.1-.3-.2-.3-.5-.3-.5 8.9-6.1 5.3-3.3 12.3-7.6 19.4-12 2.5-1.5 5-3.1 7.4-4.6-2.6 1.5-5.2 3-7.7 4.5-28.8 17-28.8 16.9-29.2 16.8-.1 0-.2-.1-.3-.2-.1-.2-.2-.3.3-.6.7-.6 2.9-1.9 8.9-5.6 3.6-2.2 8-4.9 12.7-7.7-22 13-22 12.9-22.3 12.9-.1 0-.2-.1-.3-.2-.3-.5-.3-.5 9.6-6.5 5.7-3.5 13.3-8.1 20.9-12.7.9-.5 1.8-1.1 2.7-1.6-.9.5-1.8 1-2.7 1.6-30.6 18-30.7 18-31 17.9-.1 0-.2-.1-.3-.2-.1-.2-.2-.3.3-.6.8-.6 3.1-2 9.7-6 .6-.4 1.3-.8 1.9-1.2C42.4 85.1 42.3 85 42.1 85c-.1 0-.2-.1-.3-.2-.3-.5-.3-.5 10.6-7.1 6.3-3.8 14.7-8.9 23.1-14 .5-.3 1.1-.6 1.6-1-.6.3-1.1.6-1.6 1-33.9 19.9-34 19.9-34.4 19.8-.1 0-.2-.1-.3-.2-.3-.5-.3-.5 10.5-7.1 6.3-3.8 14.6-8.9 23-14 2.7-1.6 5.5-3.3 8.2-5-2.6 1.5-5.2 3.1-7.8 4.6-33.2 19.5-33.3 19.5-33.6 19.4-.1 0-.2-.1-.3-.2-.3-.5-.3-.5 10.2-6.8 1.1-.7 2.3-1.4 3.6-2.2-14.1 8.3-14.3 8.2-14.5 8.2-.1 0-.2-.1-.3-.2-.3-.5-.3-.5 10.3-6.8 1.5-.9 3.1-1.9 4.9-2.9C39.9 79.1 39.8 79 39.6 79c-.1 0-.2-.1-.3-.2-.3-.5-.3-.5 10.1-6.7.7-.4 1.3-.8 2-1.2-12.2 7.1-12.3 7.1-12.5 7-.1 0-.2-.1-.3-.2-.3-.5-.3-.5 9.9-6.6 2.8-1.7 6.2-3.7 9.7-5.9C39 76.5 38.9 76.5 38.6 76.4c-.1 0-.2-.1-.3-.2-.3-.5-.3-.5 9.6-6.6 5.7-3.5 13.3-8.2 20.9-12.9 2.9-1.8 5.8-3.6 8.7-5.3-2.8 1.6-5.6 3.3-8.4 4.9-30.4 17.9-30.5 17.9-30.8 17.8-.1 0-.2-.1-.3-.2-.3-.5-.3-.5 9.3-6.3 5-3.1 11.5-7 18.2-11.1-27.2 16-27.3 15.9-27.6 15.9-.1 0-.2-.1-.3-.2-.3-.5-.3-.5 8.9-6.1 5.3-3.2 12.3-7.6 19.4-11.9.8-.5 1.7-1 2.5-1.5-.6.4-1.3.8-1.9 1.1-27.9 16.4-28 16.3-28.3 16.3-.1 0-.2-.1-.3-.2-.1-.2-.2-.3.3-.6.7-.6 2.7-1.8 8.2-5.2 5-3.1 11.7-7.2 18.4-11.3.6-.4 1.3-.8 1.9-1.2l-1.5.9C38.6 68.1 38.5 68.1 38.2 68c-.1 0-.2-.1-.3-.2-.1-.2-.2-.3.3-.6.7-.5 2.5-1.7 7.3-4.7 4.4-2.7 10.1-6.3 16-9.8-22.9 13.5-23 13.5-23.3 13.4-.1 0-.2-.1-.3-.2-.1-.2-.2-.3.3-.6.6-.5 2-1.4 5.4-3.4 1.6-1 3.4-2.1 5.4-3.3-10.5 6.1-10.5 6.1-10.8 6.1-.1 0-.2-.1-.3-.2-.1-.2-.2-.3.2-.6.5-.4 1.8-1.3 4.9-3.2 3-1.9 7-4.5 11-7.1.5-.3 1.1-.7 1.6-1-.4.2-.8.5-1.3.7-16.1 9.5-16.1 9.5-16.4 9.4-.1 0-.2-.1-.3-.2-.1-.2-.2-.3.2-.6.5-.4 1.7-1.2 4.5-3 2.7-1.7 6.2-4 9.8-6.2-13.5 7.9-13.5 7.9-13.8 7.9-.1 0-.2-.1-.3-.2-.1-.2-.2-.3.2-.6.5-.4 1.6-1.2 4.1-2.8 2.5-1.7 5.9-3.9 9.3-6.1.8-.5 1.6-1 2.4-1.6-.3.2-.6.4-.9.5-12.4 7.3-12.4 7.3-12.7 7.2-.1 0-.2-.1-.3-.2-.2-.4-.2-.4 3.5-2.9 2-1.4 4.7-3.1 7.4-4.9l.1-.1C42 54 42 54 41.8 54c-.1 0-.2-.1-.3-.2-.2-.4-.2-.4 2.9-2.6 1.7-1.2 3.9-2.8 6.1-4.3.6-.4 1.1-.8 1.7-1.2l-.1.1c-7.8 4.6-7.8 4.6-8.1 4.5-.1 0-.2-.1-.3-.2-.1-.1-.1-.2.2-.6.5-.5 1.6-1.4 4-3.3h.1c-.7.4-.8.3-.9.1-.1-.2-.1-.5.1-.6h.1c.2-.1 1.4-.8 2.4-1.4 2.6-1.6 2.6-1.6 2.8-1.5.1 0 .2.1.3.2.2 0 .2 0-.1.4h-.1c-.5.5-1.6 1.4-4 3.3l-.1.1c1-.6 2.1-1.2 3.1-1.8 7.8-4.6 7.8-4.6 8.1-4.5.1 0 .2.1.3.2.2.4.2.4-2.9 2.6-1.7 1.2-3.9 2.8-6.1 4.3-.6.4-1.2.9-1.9 1.3.9-.5 1.8-1.1 2.7-1.6 10.2-6 10.2-6 10.4-5.9.1 0 .2.1.3.2.1.2.2.3-.2.6-.4.4-1.3 1-3.3 2.3-2 1.4-4.7 3.2-7.4 5-.1.1-.2.1-.3.2.5-.3 1-.6 1.4-.8 12.4-7.3 12.4-7.3 12.7-7.2.1 0 .2.1.3.2.1.2.2.3-.2.6-.5.4-1.6 1.2-4 2.8-2.5 1.7-5.9 3.9-9.2 6.1-.9.6-1.7 1.2-2.6 1.7 1.1-.6 2.2-1.3 3.3-1.9 14.6-8.6 14.7-8.6 14.9-8.5.1 0 .2.1.3.2.1.2.2.3-.2.6-.5.4-1.7 1.2-4.5 3-2.7 1.7-6.3 4-9.9 6.4l.6-.3c16.1-9.5 16.1-9.5 16.4-9.4.1 0 .2.1.3.2.1.2.2.3-.2.6-.5.4-1.8 1.3-4.9 3.2-3 1.9-7 4.5-11 7.1-.6.4-1.2.8-1.8 1.1 1-.6 2-1.2 3-1.7 17.7-10.4 17.7-10.4 18-10.3.1 0 .2.1.3.2.1.2.2.3-.2.6-.6.5-2 1.4-5.4 3.4-1.9 1.2-4.2 2.6-6.6 4.1.1-.1.2-.1.3-.2 23.8-14 23.9-14 24.2-13.9.1 0 .2.1.3.2.1.2.2.3-.3.6-.7.5-2.5 1.7-7.3 4.6-4.5 2.8-10.4 6.4-16.4 10.1-.1 0-.2.1-.2.1.9-.5 1.8-1.1 2.7-1.6C92 36 92.1 36 92.4 36.1c.1 0 .2.1.3.2.1.2.2.3-.3.6-.7.6-2.7 1.8-8.2 5.2-5 3.1-11.7 7.2-18.4 11.3-.7.5-1.5.9-2.2 1.4 1-.6 2.1-1.2 3.1-1.8 27.9-16.4 28-16.4 28.3-16.3.1 0 .2.1.3.2.1.2.2.3-.3.6-.7.6-2.8 1.9-8.6 5.5-5.3 3.2-12.3 7.6-19.4 11.9l-3 1.8c1.4-.8 2.8-1.6 4.1-2.4C97.1 37 97.2 37 97.5 37.1c.1 0 .2.1.3.2.1.2.2.3-.3.6-.7.6-3 2-9.1 5.7-5.1 3.1-11.8 7.2-18.6 11.3 29.2-17.2 29.3-17.1 29.6-17 .1 0 .2.1.3.2.3.5.3.5-9.6 6.6-5.7 3.5-13.3 8.2-21 12.9-2.9 1.8-5.9 3.6-8.9 5.4 3.2-1.9 6.5-3.8 9.6-5.7 31.3-18.4 31.4-18.4 31.8-18.3.1 0 .2.1.3.2.3.5.3.5-9.9 6.6-3 1.8-6.4 3.9-10.1 6.1 21.4-12.5 21.5-12.5 21.8-12.4.1 0 .2.1.3.2.3.5.3.5-10.1 6.7-.7.4-1.4.8-2.1 1.3 13.2-7.7 13.3-7.7 13.5-7.6.1 0 .2.1.3.2.3.5.3.5-10.3 6.8-1.5.9-3.1 1.8-4.7 2.8 14.9-8.7 15.1-8.7 15.3-8.6.1 0 .2.1.3.2.3.5.3.5-10.2 6.8-1.2.7-2.5 1.5-3.8 2.3 15.4-9 15.6-9 15.8-8.9.1 0 .2.1.3.2.3.5.3.5-10.5 7.1-6.3 3.8-14.6 8.9-23 14-2.8 1.7-5.6 3.4-8.3 5.1 2.8-1.7 5.7-3.3 8.5-5 33.9-19.9 34-19.9 34.3-19.8.1 0 .2.1.3.2.3.5.3.5-10.6 7.1-6.3 3.8-14.7 8.9-23.1 14-.2.1-.4.2-.6.4 29.8-17.5 29.9-17.5 30.2-17.4.1 0 .2.1.3.2.3.5.3.5-10 6.6-.6.4-1.2.7-1.9 1.1 9.5-5.5 9.6-5.5 9.8-5.5.1 0 .2.1.3.2.3.5.3.5-9.6 6.5-5.7 3.5-13.3 8.1-20.9 12.7-.8.5-1.5.9-2.3 1.4.3-.2.6-.4 1-.6C101.6 52.9 101.7 53 102 53c.1 0 .2.1.3.2.1.2.2.3-.3.6-.7.6-2.9 1.9-8.9 5.6-3.6 2.2-7.9 4.8-12.6 7.6 20.7-12.1 20.8-12.1 21.1-12 .1 0 .2.1.3.2.3.5.3.5-8.9 6.1-5.3 3.3-12.3 7.6-19.4 12l-7.2 4.5c2.3-1.3 4.5-2.7 6.8-4 28-16.5 28.1-16.4 28.4-16.4.1 0 .2.1.3.2.1.2.2.3-.3.6-.7.6-2.8 1.9-8.5 5.3-4.4 2.7-10.1 6.1-15.9 9.7 24-14.1 24.1-14.1 24.4-14 .1 0 .2.1.3.2.1.2.2.3-.3.6-.7.6-2.8 1.9-8.4 5.3-5.1 3.2-12 7.4-18.8 11.6-1.5.9-3 1.9-4.6 2.8 1.2-.7 2.5-1.5 3.7-2.2 26.9-15.8 27-15.8 27.3-15.7.1 0 .2.1.3.2.1.2.2.3-.3.6-.7.6-2.7 1.8-8.1 5.1-1.4.9-3 1.8-4.7 2.8 12.6-7.4 12.7-7.4 13-7.3.1 0 .2.1.3.2.1.2.2.3-.3.6-.7.6-2.7 1.8-7.9 5.1l-17.9 11c-1.5.9-3 1.8-4.5 2.8 1.6-.9 3.2-1.9 4.7-2.8 26.7-15.7 26.8-15.6 27.1-15.6.1 0 .2.1.3.2.1.2.2.3-.3.6-.7.6-2.7 1.8-8 5.1-4.8 3-11.2 6.9-17.7 10.8 25.6-15 25.7-15 26-14.9.1 0 .2.1.3.2.1.2.2.3-.3.6-.7.6-2.7 1.8-8 5.1-4.9 3-11.5 7.1-18 11.1-1.2.7-2.3 1.4-3.5 2.2l3-1.8c26.1-15.3 26.1-15.3 26.4-15.2.1 0 .2.1.3.2.1.2.2.3-.3.6-.7.6-2.7 1.8-7.8 5-4.8 3-11.2 6.9-17.6 10.8h-.1c.1 0 .2-.1.2-.1 26.2-15 26.3-15 26.6-14.9.1 0 .2.1.3.2.1.2.2.3-.3.6-.7.6-2.6 1.8-7.7 4.9L79 86.5c-1.4.8-2.8 1.7-4.1 2.6 1.3-.8 2.7-1.6 4-2.3C104.2 71.9 104.3 72 104.6 72c.1 0 .2.1.3.2.1.2.2.3-.3.6-.7.6-2.6 1.8-7.8 4.9-3.2 1.9-7 4.3-11.2 6.8 19.4-11.4 19.5-11.4 19.8-11.3.1 0 .2.1.3.2.1.2.2.3-.3.6-.7.6-2.6 1.7-7.6 4.8-4.2 2.6-9.6 5.9-15.1 9.2 24-14 24.1-14 24.4-13.9.1 0 .2.1.3.2.1.2.2.3-.3.6-.7.6-2.6 1.8-7.6 4.9-4.7 2.9-10.9 6.8-17.2 10.7-1.9 1.1-3.7 2.3-5.6 3.5 1.9-1.1 3.9-2.3 5.8-3.4 25.6-15 25.6-15 25.9-14.9.1 0 .2.1.3.2.1.2.2.3-.3.6-.7.6-2.6 1.8-7.6 4.9-4.7 2.9-10.9 6.8-17.1 10.7-2.3 1.4-4.6 2.9-6.9 4.3 2.5-1.5 5-3 7.5-4.4 25.9-15.2 26-15.2 26.3-15.1.1 0 .2.1.3.2.1.2.2.3-.3.6-.7.6-2.6 1.8-7.7 4.9-4.7 2.9-11.1 6.9-17.4 10.8-.9.6-1.9 1.2-2.8 1.8l3-1.8c25.7-15.1 25.8-15.1 26.1-15 .1 0 .2.1.3.2.1.2.2.3-.3.6-.7.6-2.6 1.7-7.6 4.8-2.4 1.5-5.2 3.2-8.3 5C114 78.4 114 78.4 114.3 78.5c.1 0 .2.1.3.2.1.2.2.3-.3.6-.7.6-2.7 1.8-7.8 5-4.6 2.9-10.8 6.6-17 10.4 25.6-15 25.6-15 25.9-14.9.1 0 .2.1.3.2.1.2.2.3-.3.6-.7.6-2.7 1.8-7.8 4.9-1.3.8-2.6 1.6-4.1 2.5 11.6-6.8 11.7-6.7 11.9-6.7.1 0 .2.1.3.2.1.2.2.3-.3.6-.7.5-2.5 1.7-7.3 4.7a1109 1109 0 0 1-16.3 10.1c-1 .6-2.1 1.3-3.1 1.9.9-.5 1.7-1 2.6-1.5 23.6-13.9 23.6-13.8 23.9-13.8.1 0 .2.1.3.2.1.2.2.3-.3.6-.6.5-2.1 1.4-5.6 3.6-1.3.8-2.7 1.7-4.3 2.6 8.8-5.1 8.8-5.1 9.1-5.1.1 0 .2.1.3.2.1.2.2.3-.2.6-.5.4-1.7 1.2-4.5 3.1-2.8 1.8-6.5 4.3-10.2 6.7-1 .7-2.1 1.4-3.1 2.1.8-.5 1.6-1 2.4-1.4 14.6-8.5 14.6-8.5 14.8-8.5.1 0 .2.1.3.2.1.2.2.3-.2.6-.5.4-1.5 1.1-3.8 2.6s-5.5 3.6-8.6 5.6c11.1-6.5 11.2-6.6 11.4-6.5.1 0 .2.1.3.2.2.4.2.4-3.4 2.9-2 1.4-4.7 3.2-7.3 5-.7.5-1.4.9-2.1 1.4.1-.1.2-.1.3-.2 9.4-5.5 9.4-5.5 9.7-5.5.1 0 .2.1.3.2.2.4.2.4-2.7 2.4-1.4 1-3.2 2.2-5.1 3.5 5.9-3.4 5.9-3.4 6.1-3.4.1 0 .2.1.3.2.2.4.2.4-2.1 2.1-1.2.9-2.8 2.1-4.4 3.2l-.2.2c4.8-2.8 4.8-2.8 5-2.7.1 0 .2.1.3.2.1.2.1.2-.2.6h-.1l-3.5 2.8h.2l-.1.4-.4.2.4-.2.2.4c-.1.1-1.4.8-2.4 1.4-2.6 1.5-2.6 1.5-2.8 1.5-.1 0-.2-.1-.3-.2-.1-.2-.1-.2.2-.6 0 0 .1 0 .1-.1.5-.4 1.4-1.2 3.4-2.7-.1.1-.3.2-.4.2-5.8 3.4-5.8 3.4-6 3.3-.1 0-.2-.1-.3-.2-.2-.4-.2-.4 2.1-2.1 1.2-.9 2.8-2.1 4.4-3.2.1-.1.2-.2.3-.2-.3.2-.7.4-1 .6-7.6 4.5-7.6 4.5-7.8 4.4-.1 0-.2-.1-.3-.2-.2-.4-.2-.4 2.7-2.4 1.4-1 3.3-2.3 5.2-3.6-.1 0-.1.1-.2.1-9.4 5.5-9.4 5.5-9.6 5.5-.1 0-.2-.1-.3-.2-.2-.4-.2-.4 3.4-2.9 2-1.4 4.7-3.2 7.3-5 .7-.5 1.5-1 2.2-1.5-1.1.7-2.3 1.3-3.4 2-12.3 7.2-12.3 7.2-12.5 7.1-.1 0-.2-.1-.3-.2-.1-.2-.2-.3.2-.6.5-.4 1.5-1.1 3.8-2.6 2.4-1.6 5.6-3.6 8.8-5.7h.1c-.5.3-.9.6-1.4.8C85 106 85 106 84.7 106c-.1 0-.2-.1-.3-.2-.1-.2-.2-.3.2-.6.5-.4 1.7-1.2 4.5-3s6.5-4.2 10.2-6.7l3.5-2.3c-2 1.2-4.1 2.4-6.1 3.6-17.9 10.5-17.9 10.5-18.2 10.4-.1 0-.2-.1-.3-.2-.1-.2-.2-.3.2-.6.6-.5 2.1-1.4 5.6-3.5 1.6-1 3.5-2.1 5.4-3.4-19.7 11.5-21.2 12.4-21.6 12.4z"/></g><g class="st1"><path class="st2" d="M74.9 38.2c-.1 0-.1 0 0 0-.2 0-.3-.1-.3-.2-.1-.1-.1-.2.2-.6 0 0 .1 0 .1-.1.6-.5 1.9-1.5 4.8-3.8-.3.2-.6.3-.9.5-6.5 3.8-6.5 3.8-6.7 3.7-.1 0-.2-.1-.3-.2-.2-.4-.2-.4 2.3-2.1.8-.5 1.7-1.2 2.7-1.8-4.8 2.8-4.8 2.8-5 2.8-.1 0-.2-.1-.3-.2-.2-.4-.2-.4 2.5-2.3 1.4-1 3.4-2.4 5.3-3.8.2-.2.5-.3.7-.5-.2.1-.3.2-.5.3-8 4.7-8 4.7-8.3 4.7-.1 0-.2-.1-.3-.2-.2-.4-.2-.4 2.7-2.4 1.5-1 3.4-2.4 5.4-3.7-7.3 4.3-7.3 4.3-7.5 4.2-.1 0-.2-.1-.3-.2-.2-.4-.2-.4 2.7-2.5 1.6-1.1 3.7-2.6 5.8-4.1.5-.3.9-.7 1.4-1H81c-7.6 4.5-7.6 4.5-7.8 4.4-.1 0-.2-.1-.3-.2-.2-.4-.2-.4 2.4-2.2l5-3.6h.1c-5.8 3.4-5.8 3.4-6 3.3-.1 0-.2-.1-.3-.2-.2-.4-.2-.4 2.3-2.3 1.3-1 3.1-2.3 5-3.7.5-.3.9-.7 1.4-1-6.2 3.7-6.2 3.7-6.5 3.6-.1 0-.2-.1-.3-.2-.1-.2-.1-.2.2-.6h.1c.5-.5 1.6-1.3 3.9-3.3-.4.2-.4.2-.5.2l.1-.4.4-.2-.2.1-.2-.4c.1-.1 1.3-.8 2.3-1.3 2.6-1.5 2.6-1.5 2.7-1.4.1 0 .2.1.3.2.1.1.1.2-.2.6h-.1c-.5.5-1.6 1.3-3.9 3.2l-.1.1c.6-.3 1.1-.7 1.7-1 6.3-3.7 6.3-3.7 6.5-3.7.1 0 .2.1.3.2.2.4.2.4-2.4 2.3-1.4 1-3.2 2.3-5 3.7-.5.3-.9.7-1.4 1 .1-.1.2-.1.4-.2 6.7-4 6.7-4 7-3.9.1 0 .2.1.3.2.2.4.2.4-2.3 2.2-1.3 1-3.1 2.2-4.9 3.5-.1 0-.1.1-.2.1 7.6-4.5 7.6-4.5 7.8-4.4.1 0 .2.1.3.2.1.4.1.4-2.8 2.5-1.6 1.1-3.7 2.6-5.8 4.1-.5.3-1 .7-1.5 1l.6-.3c8.1-4.8 8.1-4.8 8.3-4.7.1 0 .2.1.3.2.2.4.2.4-2.7 2.4-1.5 1-3.4 2.4-5.4 3.7 7.2-4.2 7.2-4.2 7.4-4.1.1 0 .2.1.3.2.2.4.2.4-2.5 2.3-1.4 1-3.4 2.4-5.3 3.8-.2.2-.4.3-.7.5 6.9-4 6.9-4 7.1-4 .1 0 .2.1.3.2.2.4.2.4-2.3 2.1-.8.5-1.7 1.1-2.6 1.8 3.3-1.9 3.3-1.9 3.5-1.9.1 0 .2.1.3.2.1.1.1.2-.2.6h-.1c-.6.5-1.9 1.5-4.8 3.7 2.5-1.5 2.5-1.5 2.7-1.4l-.1.4-.4.2.4-.2.2.4c-.2.1-2.2 1.3-4 2.3-3.6 2.3-4.1 2.6-4.2 2.6z"/></g><g class="st1"><path class="st3" d="M101.8 62.9c-.1-.1-.3 0-.1.3l.3.2-.2-.5z"/></g><g class="st1"><path class="st3" d="M101.7 65.4c.3.4.6.8.8.5-.4-.3-.3-.5-.7-.8-.1-.4 0-.7.1-.6-.1-.1 0-.6-.3-.7-.1.5 0 1.1.3 1.7 0 0-.1-.1-.2-.1"/></g><g class="st1"><path class="st3" d="M110.6 94.3l.1-.2c0 .1 0 .1-.1.2"/></g><g class="st1"><path class="st3" d="M94.5 106.7h.2-.2"/></g><g class="st1"><path class="st3" d="M90.9 105.5c.1 0 .1.1.2.1 0 0-.1-.1-.2-.1"/></g><g class="st1"><path class="st3" d="M110.6 94.3l-.4.5c.1.1.3-.2.4-.5"/></g><g class="st1"><path class="st3" d="M104.1 69.8c-.1-.1-.1-.2-.2-.2l.2.2"/></g><g class="st1"><path class="st3" d="M114.2 85l.1-.2c0-.1 0-.1-.1-.2v.4z"/></g><g class="st1"><path class="st3" d="M113.3 79.9c.2.1.3-.1.4-.2-.1.1-.3 0-.4 0v.2"/></g><g class="st1"><path class="st3" d="M104.2 71.8c-.1-.1-.1-.1-.1-.2-.1.1 0 .1.1.2"/></g><g class="st1"><path class="st3" d="M112.3 90.1h-.1c0 .1.1.1.1 0"/></g><g class="st1"><path class="st3" d="M101.2 63v-.1h-.1l.1.1z"/></g><g class="st1"><path class="st3" d="M83.6 104.3c.2 0 .1 0 0 0"/></g><g class="st1"><path class="st3" d="M40.3 75.7c-.1.8-.5-1.1-.5 0 0-.1.5.9.5 0"/></g><g class="st1"><path class="st3" d="M104.2 70l.2.3c-.1-.2-.1-.3-.2-.3"/></g><g class="st1"><path class="st3" d="M68.3 110.2s.1.1.2.1c0-.1 0-.1-.2-.1"/></g><g class="st1"><path class="st3" d="M79.4 105.6l-.3.1c.1 0 .2-.1.3-.1"/></g><g class="st1"><path class="st3" d="M62.7 109.7c-.1-.1-.2-.1-.4-.2v.1c.2 0 .3 0 .4.1"/></g><g class="st1"><path class="st3" d="M57.5 106s0 .1.1.1.1.1.2.1l-.3-.2z"/></g><g class="st1"><path class="st3" d="M103.6 38.4c.1.1.1.2.2.3-.1-.1.9.3-.2-.3"/></g><g class="st1"><path class="st3" d="M104 69.9c.1 0 .1 0 .2.1 0-.1-.1-.1-.2-.1.1-.1 0-.1 0 0"/></g><g class="st1"><path class="st3" d="M61.6 111.3c-.3-.2-.7-.4-1-.6.3.2.7.4 1 .6"/></g><g class="st1"><path class="st3" d="M57.8 40.3l.3-.1c-.1 0-.2.1-.3.1"/></g><g class="st1"><path class="st3" d="M57.9 108.9c-.1-.2-.2-.4-.4-.5h-.1c.2.1.4.3.5.5"/></g><g class="st1"><path class="st3" d="M110.5 43.6c-1.3-1.3-.9-.5-1.4-.7-.7-.6-.8-.8-.7-.9 0-.1.2-.1.1-.3-.7-.5-1.3-.7-1.7-1 0-.1-.1-.1.1-.1-.8-.3-2-1.4-3-1.6 0-.1-.1-.1-.1-.1.1.2 0 .4-.1.4-.4-.2-.8-.2-.9-.5.2.1.3.1.4.1l-.5-.1c-.3-.5.6.2.7 0-.4-.2-.9-.3-1.4-.5-.5-.1-.9-.3-1.2-.4 0-.2.4 0 .7.1.3.1.5.2.1-.1l1 .6c-.6-.8.6.3.1-.5-1.3-.7-1.6-.5-3-1.1-.4.1 0 .3-.3.3-2.1-.3-1.4-1.1-3-1-.4.1-.6.5-1.7.2l.4-.3c-1.4-.1-.8.4-2.3.1.3-.1 1.1-.1.9-.1-1-.3-.7.2-1.4.2l-.2-.3c-.4 0-.8.1-1.3.1h.1c-1.2.1-2.4.4-3.6.8.1-.1.3-.3-.1-.3-2.1.6-4.3 1.5-6.2 2.2l-.6.6c-.2.1-.3.1-.2-.1-.7.3 0 .2-.2.4-.4.2-.6.2-.4 0-1.1.8-3.2 2.3-4.5 2.6l.2-.2c-1 .3-.9.9-1.9.8l.2-.1c-1 .1-2.3-.1-3.4-.4-1.1-.3-2.2-.6-3.1-1-.4.3-2.3-.7-2.6-.3-.7-.3-.9-.4-1.2-.5-.3-.1-.7-.3-1.7-.4-.5-.1-.8.3-1.5.3v-.3l-.9.3c-.2-.1-.3-.2-.5-.3l-.6.1c.3 0 .6.1.5.1-.5.1-1.1.1-1.6.2-.5 0-.9 0-.9-.1-.7.3-1.5.5-2.2.8 0-.1.4-.3.7-.4-1.1.6-.3-.2-1.3.4.2 0 0 .2 0 .2-.3 0-.7.2-1.2.3-.5.2-1 .5-1.4.7l.1-.2c-1.6.8-3.1 1.9-4.6 3.2.6-.4.7 0 .3.3l-.4-.1c-.2.4.5-.3.1.3-.6.5-.6.1-.3-.3-.2.2-.4.5-.6.7-.1 0 0-.2 0-.3-.1.2-.4.4-.7.6-.3.3-.6.5-.7.8h-.1c-1.3 1.5-1.7 2.3-2.5 3.6.2.2-.2.6-.2 1.2-.3.5-.7 1-1 1.6-.2.3-.3.6-.5.9-.1.3-.2.6-.4 1-.2 1 .1.3.1.8-.2 0-.7 1.3-.6.6-.3.8-.3 1.3-.5 1.9-.1.6-.2 1.2-.3 2.3.1-.2.2-.5.2-.3 0 .4-.2.8-.3.8v-.1c0 1.2-.4 2.5-.5 3.8a7.77 7.77 0 0 0 0 3.5V69c.1.6.2 1.3.4 1.9.1.9-.2-.5-.3.2.3 1 .4 1.8.5 2.6.1.8.2 1.5.5 2.3-.1.4-.1.8 0 1.4.1.5.3 1.1.5 1.7.2.6.4 1.2.5 1.8.2.6.3 1.1.4 1.5l.1-.1c.3.4.1.6.2.9.1-.1 0-.5.1-.3 1.5 3.6 2.9 7.5 4.8 11.1.7 1.3 1.1.3 1.8 2.1l-.5-.3c1.9 2.3 3.5 5 5.6 7-.2-.1-.2 0-.4-.2.3.6 1.5 1.7 1.6 1.6.3.3 0 .2.1.4.3.5 1.2.9 1.3 1.3 0 .1-.2-.1-.3-.1.3.2 1.3 1.3 1.2.9.7.8 1.6 1.4 2.2 2 .6.2 1.4 1.3 1.8 1.1-.1.1.2.5.7.8.5.3 1.1.6 1.5.7-.3 0 .5.4.2.4.7.4 1.5.5 1.4.3.6.5 1.4.6 2.2.6h1c.3 0 .6.1.8.2 1.3-.2 2.4-.5 3.5-1 1.1-.4 2-1 2.9-1.5.1.2-.4.5-1 .7-.5.3-1 .5-.9.7 1.9-1 2.6-1.9 4.3-2.7.5-.2-.2.3-.3.4 1.6-1.1 3.2-1.6 4.7-2.3 0 0-.2.1-.3.2.3-.1.7-.1.7-.3-.1 0-.2.1-.3.1-.6-.1 1.1-.8 1.2-1-.5.6 1.7-.1.9.6.2-.1.5-.2.4-.3.3 0 .4.1.1.2 1.1-.2.7-.4 1.8-.4 0 .1-.2.1-.3.2.5-.2 1.1-.4 2-.2-.1 0 0 .1-.2.1 1.5.1 2.7 0 4.3.6-.6.2.5.3.5.6l.9.2-.3-.3c.8.2 1.6.2 2.3.4h-.7c.5.1 1.1.2 1.6.2-.3-.1-.6-.1-.9-.2.9 0 0-.4 1.1-.2-.2 0 .8.1 1.3.3.4-.1.8-.2 1.5-.2.2.1-.1.4 0 .4.4-.3 2-.4 2.4-.9-.1.1-.1.3 0 .3l.3-.3c.4 0 .5-.1.5.1 1.1-.5-.5-.2.9-.6-.1.1 0 .1-.2.2 1.3-.5 2.3-1.5 3.3-2.3.2 0 .1.2-.1.4s-.4.4-.2.3c1.4-1.3 2.4-3.1 3.4-4.6l-.2.3c-.2-.5.9-1 1.2-1.9-.1.2.1.4.1.3.7-1 1.1-2.2 1.8-4v.3c.4-.6.9-1.7 1.3-2.3 0-.3.2-.7-.1-.5 1.6-1.9 1.5-4.3 2.7-6.2-.1.2-.1.6 0 .4.2-.6.3-1.2.4-1.8-.2.1-.2.2-.4.5 0-.3 0-.8.1-1.2-.1.8.3.1.5-.2-.1 0-.1-.1-.2-.1.6-.8-.3-.3.2-1.4l.1.1c.1-.5 0-.9.2-1.4.3-.2 0 .5.2.6v-2c-.1 0-.1-.1-.1-.1h.2c.1.2 0 .7 0 .9.3-.6.4-.9.4-1.2-.2-.1-.3-.1-.6-.2h.1c-.3-.1-.5-.2-.7-.3-.1 0-.3-.1-.4-.2l-.3-.1.3.2c-1 .2-1.7-.6-3-.8 1.2.2.3-.1.5-.3-.2-.2-.6-.5-.5-.5-.6-.1-.7-.6-1.5-.8 0-.1-.5-.3-.3-.4-.6-.4.1.2-.1.3-.6-.2-1-.7-1.5-1.2-.3-.2-.5-.6-.8-.8-.3-.3-.6-.5-.9-.7-.5-.5-.9-.7-1.2-1-.3-.3-.6-.5-1.1-1-.2-.4.5.1.5.1-.3-.6-.6-1.1-1-1.6.1.1.1-.1.1-.3-.3-.5-.5-.2-.6-.9.1.1.3.2.5.3-.3-.5-.7-1-1.1-1.6.1-.2.4.3.5.5-.2-.3-.4-.7-.6-1.1-.2-.4-.3-.7-.5-.8l.1.5c-.1-.3.1-.2.2 0 .3.5.2.9.2 1-.1-.1-.2-.3-.2-.4-.2.3.1.7.3 1.2.3.5.6 1 .9 1.4l-.5-.2.7.7c0 .2-.1.5-.4.1.2.7.4.5.6 1.1 0 .1 0 .1-.1 0l.5.5c-.1-.1-.1.2-.3-.1.3.6.6.9.9 1.2.3.3.5.5.6.7l-.1-.1c1.2 1.2.3 0 1.4.7l.2 1.1.3-.1c.1.1.4.4.2.4.6.3 0-.2.4 0 .3.3.7.7 1.1 1 .4.3.7.5.7.8.4 0-.6-.6.2-.2 0 .5.9.5 1.5 1-.3.1-.9-.4-.3.2.6-.1 1.3.8 1.9 1 .1-.1.4 0 .9.1.1 0 .2.1.4.1.1 0 .2.1.3.1.2.1.4.1.7.2 0 0-.1.2-.1.4s-.1.4-.2.6c-.1.5-.3 1.2-.5 1.6.3.3 0 1.2-.2 2-.2-.1-.2-.2-.2-.6l-.2.7c0 .2 0 .4-.1.9l-.2-.2c-.3.9-.3 1.9-.9 2.9.2.1.9-.7.6.6-.1 0-.3 0-.3-.4 0 .1 0 .4-.2.6v-.5c-.3.5.1.3-.1.7-.2-.1-.2.3-.3.1 0-.1.2-.3.2-.5-.2.4-.5 1-.7 1.1.1 0 .2.1.1.4-.4.9-.3.2-.6.7 0 .3-.4.7-.1.9-.1.2-.2.2-.4.3-.1.5-1 2-.5 1.7l.1-.1v.1c-.5 1.6-1.6 2.9-2.3 4.3h-.1c-.4.9-1 1.8-1.3 2.5-.2.2-.5.4-.5.3-.4.6-.3.7-1.1 1.4.3-.6-.2.1.4-.6l-.7.7c-.2.2-.4.5-.6.9.1-.4-.7.3-.9.6l.6-.3c-.3.4-.7.6-1 .9v-.4c-.4.2-.8.4-1.1.7-.3.2-.6.5-.9.7-.6.4-1.3.7-2 .6-.2.1 0 .1.3.1.2 0 .5-.1.3.1-.8.2-1.7-.1-2-.1-.6 0-.8.1-1.1.2-.3.1-.6.2-1.2.1.1.1.3.4-.7.4-.9-.1-1-.6-.4-.6.2 0 .3.1.3.1.3 0 .6 0 .3-.2l-.1.1c-.4-.1-1.5-.4-1.2-.5-.6-.1-.3.1.2.3-1-.4-1.7-.4-2.8-.8.2.1.3.3.1.2-1.6-.6-.8 0-1.9-.3-.6-.3.3-.3-.9-.4-.7-.2-.1-.3.2-.3-1.1 0-2.1-.5-2.7-.5h.6-1l.3.2c-.3-.1-.6-.1-.6-.1-.4.1.3.3-.4.5h-.9c-.3 0-.6 0-.7-.1 1.4 0-.2-.3 1-.4-.2 0-.5.1-.9.1-.1 0 0-.1.1-.1-1.4-.1-.6.4-2 .6.2-.2-.4-.2-.6-.1.6-.1.3.2-.2.4-.9.1-.9.3-1.4.4l.5-.1c-.1.2-.6.3-1.2.6-.1-.1.5-.3.3-.2-.6.5-1.6.3-2.4.9-.5.1-.2-.2-.6-.1-.9.7-1.2.4-2 1.1.4 0 .4-.1-.2.5l1.5-1-.9.8c.5-.3 1-.7 1.3-.8-.4.4-.4.3-.1.4-.8.1-1.2.9-2.1 1.2l-.2-.5c-1.2.4-1.9 1.3-3.4 1.8l.5-.1c-.1.1-.3.2-.6.3-.3.1-.6.1-.8.3 0-.2-.3-.2-.6-.2 0 .1-.3.1-.6.2-.3 0-.6.1-.7.3-.2 0-.5-.1-.7-.2-.6 0-1 0-1.4.1-.4.1-.8.1-1.4-.1.4-.1-.1-.3.7-.2-.4-.1-.7-.2-.8-.1-.2-.2-1.2-.2-1.4-.6-.2 0-.3.1-.7-.1v-.1c0 .1-.7-.3-.4.1-.2-.3-.5-.5-.9-.8-.3-.3-.7-.5-1.1-.8a5.5 5.5 0 0 1-1.7-1.7c-.7-.6-1.6-1.4-2.2-2 .1 0 .1-.1.2.1-.7-1-.9-.2-1.7-1.3-.3-.7.6.4.4 0 .3-.5-1.2-1.2-1.6-2.1l.2.1c-.3-.7-1.2-1.2-2-2.1h.1c-.7-.5-1.7-1.6-2.4-2.5.4.2.4.4.4.1-.3-.4-.2.3-.8-.5-.1-.3-.4-1-.2-1.2l.5.8c0-.6-.7-1-.9-1.4h.1c-.8-1.2-1.1-1-1.8-2.4v.2c-.7-.6-.2-.7-.8-1.3l.2-.4c-.3-.4-1.2-1.6-1.7-2.5.5.4 1.1 1.4 1.6 2-.1-.2-.4-.6-.6-1-.2-.4-.4-.7-.6-.8.1.2.3.4.4.6-.5-.5-1-1.2-1.5-2.2.7-.1-.9-2.7-.7-3.6-.4-.9-.7-1.8-1-2.7-.2-1-.4-2-.7-3.1-.3.9-.2-.6-.6-.4-.1-.5-.2-.7-.1-.8v-1.6c.1-.4.2.5.3.4-.2-1.1.1-.5.1-1.3-.2.2-.3-.3-.3-1l-.1.9c-.5-1.5.2-1.4-.2-3 .1.2.1.3.2.5-.1-.4-.1-1.2-.2-1.9s-.2-1.5-.4-1.9c.1-.1.2-.3.2 0v-1.5c0-.5-.1-1.1 0-1.6.1-1 .1-2 .4-2.7l.1.2c0-.4-.1-.7.1-1.1 0 0 .1.2.1 0s0-1 .2-1.4v.4c.1-.2.1-.4.2-.6.1-.2.1-.4.2-.6.1-.4.2-.7.2-1.1.1-.7.2-1.4.5-2.1.2.1.4-.2.7-.6.3-.4.6-.8.8-1.1 1.1-1.8 1.8-3.2 3.1-4.8.3-.1.6-.4 1-.7.4-.3.8-.6 1.3-1 .9-.7 1.9-1.4 2.9-1.8-.3.1-.1-.3.2-.5.4-.2 1.1-.8 1.1-.5l-.2.1c.5.1 1.3-.3 2-.5v-.5c1 0 2.3-.4 3.4-.7 1.1-.3 2.2-.4 2.7 0 .5-.1 1.1-.1 1.5-.1l.3-.7c1.3.2 1.9.4 3.6.7l-.4.1c.9.2 1.3-.4 2.2-.2l.2.4c1.6.4 3.2 1.2 5.1 1 0 .1-.1.2-.4.2.2 0 .5.1.9.1s.8 0 1.2-.1c.4-.1.7-.2.9-.3.2-.1.2-.2.1-.3.1.2.5 0 1-.3s1.1-.7 1.4-1v.3c.6-.6.5-.7 1.4-1.3.2-.1.3.1 0 .2.8-.3.5-.5 1.4-.9l-.3.3c.8-.4.7-.4 1-.8.4-.3 1.5-.7 1.7-.5 0-.2.4-.5.9-.7.1 0-.1.2-.1.2.7-.2 1.1-.5 1.6-.7.4-.2.8-.4 1.3-.4 0 .1.1.1.2.1-1.1.2-1.9.6-1.9.5.1.2.9-.1.4.5.6-.4 1.7-1.2 2.5-1.2h.1-.1c.2 0 .4-.1.5-.2h.7c.1.1.3.1.6 0 .3 0 .6 0 .8-.1 0-.2.5-.2 0-.4.1 0-.1 0-.4.1h-.2c-.3 0-.7.1-1.1.2.3-.2.7-.3 1.2-.2.2-.2.5-.3.6-.4 0 0 .1 0 .1.1.7.2 1.7.4 1.9.6 1.4-.2 3.2.1 4.1-.2.4 0 .4.2.5.3-.2 0-.5-.1-.6 0 .8 0 2.3.5 2.5.3.9.4-.6.1.7.5h-.2c.6.3 1.1.6 1.7.8.5.2 1.1.4 1.6.5 1.1.4 2.2.9 3.1 2.1-.1-.2-.2-.2-.2-.3.4.4.8.8 1.3 1.2l.9.9c-.1.1-.3.2-.4.4l-.5.5c-.4.4-.8.9-1.2 1.3-.8.9-1.5 1.8-2.3 2.7-.6.8-.5 1-.7 1.6l-.3.1-.2 1.1c-.2.7-.6 1.2-1 1.8-.3.6-.7 1.3-.7 2.3l.2-.2c-.1.3-.2.9-.3 1.3-.1.4-.1.8-.2.7 0 .1.2.2 0 .5h-.1v.8l.1.8c-.1 1.3-.6-.2-.5 1.7.1.7.6 2 .6 1.7 0-.3 0-.7.2-.8l.1.6c.4.1.8.5 1-1l-.3-1 .2-.3c0 .3 0 .6.1.9.1-.5 0-.8-.1-1.1.1-.1.2-.2.2-.4-.1-.3-.2-.7-.4-1 .2-.1.3.5.4-.2-.1-.5-.4.4-.4-.4.2-.5.4-.3.3-.9.1-.1.2.1.2.3-.1-.5.2-1.3 0-1.6.3-.4.4-1.7.7-1.5 0-.2 0-.9.2-1.4 0 .5.2.1.4-.4s.5-1 .7-.8c-.1-.8.9-2.1 1.4-3.1 0 .1 0 .2-.1.3.4-.5.6-.6.9-.8-.2-.3.3-1.1.6-1.6.8-.4 0 .6.4.6-.2-.2.7-1.2.4-1.1.6-.3.4-.3.8-.3-.1-.1-.1-.2 0-.2l.3-.3c.2-.2.6-.5.8-.8.3-.2.6-.3.8-.4 0-.3.3-.1-.7-.9-.3-1 .9.1.9.1m-23.1-6.8c.2-.1.4-.1.5-.1-.2 0-.3 0-.5.1m-2 .6c.2-.1.5-.2.8-.3.1.1 0 .2-.1.2.1-.1-.4 0-.7.1m4.4.6c-.3.1-.4 0-.4 0h.4l.1-.1c-.1 0-.1.1-.1.1"/></g><g class="st1"><path class="st3" d="M90.3 37.7h.1c-.1-.1-.1-.1-.1 0h-.2.2"/></g><g class="st1"><path class="st3" d="M60.2 40h.2-.2"/></g><g class="st1"><path class="st3" d="M115.5 84.3s.1 0 .1-.1l-.1.1"/></g><g class="st1"><path class="st3" d="M115.9 79.6c-.3-.1-.5-.2-.8-.3.4.1.6.2.8.3"/></g><g class="st1"><path class="st3" d="M112.5 78.1c-.1 0-.1 0-.1.1l.1-.1z"/></g><g class="st1"><path class="st3" d="M80.1 107.1H80c-.3.2-.1.1.1 0"/></g><g class="st1"><path class="st3" d="M96.5 107.8c-.2.1-.4.1-.6.1.3 0 .5.1.6-.1"/></g><g class="st1"><path class="st3" d="M61.7 111.3s-.1 0-.1-.1l.1.1z"/></g><g class="st1"><path class="st3" d="M95.1 107.8c.3.1.6.1.8.1-.3 0-.6 0-.8-.1"/></g><g class="st1"><path class="st3" d="M102.9 67v-.2.2z"/></g><g class="st1"><path class="st3" d="M102.9 66.8l-.1-.2c0 .1 0 .2.1.2"/></g><g class="st1"><path class="st3" d="M102.6 66.3l.2.4c-.1-.2-.1-.4-.2-.4"/></g><g class="st1"><path class="st3" d="M104.8 71.2c.1-.1 0-.1 0 0"/></g><g class="st1"><path class="st3" d="M105.6 72.3c-.2-.3-.3-.8-.6-1.1h-.1c.2.1.4.9.7 1.1"/></g><g class="st1"><path class="st3" d="M109.1 77.2c-.3-.3-.6-.5-.9-.8.1.2.3.5-.2.1 1 1.2-.1-.3 1.1.7"/></g><g class="st1"><path class="st3" d="M112.3 79.3c-.6-.3-.1.1-.1.2.4.1.5.1.1-.2"/></g><g class="st1"><path class="st3" d="M106.5 101.2l-.1-.2c-.3.5 0 .1.1.2"/></g><g class="st1"><path class="st3" d="M103.7 105.8c.2-.1.3-.1.5-.2l.1-.3c-.2.1-.4.3-.6.5"/></g><g class="st1"><path class="st3" d="M100.3 105.8c.1 0 .1-.1.2-.1-.2.1-.5.2-.7.3l.5-.2z"/></g><g class="st1"><path class="st3" d="M58.5 106.6l-.1.3c.3.2.6 0 .1-.3"/></g><g class="st1"><path class="st3" d="M46.2 91.8c0-.2-.2-.8-.4-1 .1.4.2.9.4 1"/></g><g class="st1"><path class="st3" d="M55.3 42.9l-.3.2c.2-.1.4-.2.7-.3-.1.1-.2.1-.4.1"/></g><g class="st1"><path class="st3" d="M85.8 30.2c0-.1-.2-.1-.2 0l.2.2v-.2z"/></g><g class="st1"><path class="st3" d="M85 30.4c.1.2.2.4.4.5-.2-.2-.1-.2-.3-.5 0-.1.2-.1.2 0 0-.1.1-.1 0-.2-.3 0-.3.1-.3.3.1.1.1 0 0-.1"/></g><g class="st1"><path class="st3" d="M78.2 36H78c0 .1.1.1.2 0"/></g><g class="st1"><path class="st3" d="M84.8 31.9v-.1.1z"/></g><g class="st1"><path class="st3" d="M80.1 34.6v-.1.1z"/></g><g class="st1"><path class="st3" d="M81.5 33.4s.1.2.2.3c0-.1-.1-.1 0-.2-.1 0-.2-.1-.2-.1"/></g><g class="st1"><path class="st3" d="M83.8 31.6c0-.1 0 0 0 0"/></g><g class="st1"><path class="st3" d="M79 35.3c-.1-.1-.1-.1 0 0-.1-.1-.1-.1 0 0"/></g><g class="st1"><path class="st3" d="M85.3 29.9v-.1h-.1z"/></g><g class="st1"><path class="st3" d="M73.2 36.1c.1 0 .1 0 0 0"/></g><g class="st1"><path class="st3" d="M77.7 22c-.3 0 0-.4-.4-.4.1.1.1.5.4.4"/></g><g class="st1"><path class="st3" d="M84.8 31.9c-.1 0-.1 0 0 0-.1 0 0 0 0 0"/></g><g class="st1"><path class="st3" d="M73.2 32.3h-.1.1"/></g><g class="st1"><path class="st3" d="M73.1 30.8c0-.1.1-.1 0 0 0-.1 0-.1 0 0 0-.1 0-.1 0 0"/></g><g class="st1"><path class="st3" d="M73.5 29.3s-.1 0 0 0z"/></g><g class="st1"><path class="st3" d="M89 23.6h-.2c.2 0 .2.3.2 0"/></g><g class="st1"><path class="st3" d="M84.7 31.8l.1.1-.1-.1c.1 0 0 0 0 0"/></g><g class="st1"><path class="st3" d="M71.3 30.3l.1-.3c-.1.1-.1.2-.1.3"/></g><g class="st1"><path class="st3" d="M85.4 14.2c0-.1 0 0 0 0"/></g><g class="st1"><path class="st3" d="M71.5 29.3c.1 0 .2-.1.2-.1h-.1l-.1.1z"/></g><g class="st1"><path class="st3" d="M88.9 25.5c.1-.2-.3-.2-.4-.3 0-.3.3-.1.5-.1 0-.2-.3-.4-.2-.6h.1c-.2-.3.2-.6-.1-.9h.1c-.2 0-.3 0-.4-.1 0-.1-.1-.2.1-.2 0 .1.1.1.1.1l-.1-.1c.3 0 .1.2.3.2 0-.3-.2-.6-.1-.7.3 0 0 .4.3.3l-.2.2c.5-.1-.1.2.5.1.2-.3 0-.4.1-.8-.1-.1-.2 0-.4-.1-.2-.6.8-.3.5-.7-.2-.1-.5-.2-.3-.5l.3.1c.1-.4-.4-.3-.2-.6.1.1.1.3.1.2.3-.2-.2-.2-.1-.4h.3c0-.4-.2-.8-.2-1.2.1 0 .2.1.3 0-.1-.5.1-1.1.2-1.7l-.3-.2s.1-.1.2 0c.1-.2-.2 0-.3-.1 0-.1.1-.2.2-.1-.2-.3-.5-1-.3-1.4l.1.1c.1-.3-.5-.2-.4-.6l.1.1c0-.5-.2-.9-.2-1.4 0-.2-.1-.4-.1-.7-.1-.1-.3 0-.5-.1-.2.2-.4.2-.6.2-.2 0-.4.1-.5.3-.2-.1-.3-.1-.5-.2-.1 0-.4 0-.6-.1-.1 0-.1.4-.2.5l-.1-.2-.1.3-.4-.1-.1.1c.1 0 .2.1.2.1-.2.2-.6 0-.7-.1l-.5.4c0-.1 0-.2.1-.3-.2.4-.2-.2-.3.1.1 0 0 .2.1.2-.2-.1-.5 0-.7.2v-.2c-.4.1-.8.5-1.2.7.2 0 .3.3.2.4l-.2-.2c0 .2.2 0 .1.3-.2.1-.3-.2-.2-.3l-.1.2c-.1-.1 0-.1-.1-.2 0 .2-.5 0-.4.3l-.1-.1c-.4.2-.5.5-.9.7.1.2 0 .2 0 .5-.3.1-.6.1-.9.3-.1.2.1.2.1.4-.1-.2-.4.1-.4-.2-.3.3-.4.4-.7.8.1 0 .2 0 .2.1s-.2.1-.3 0c-.2.6-1.4.4-1.5 1.1-.1.2-.1.3-.2.5-.2.1 0-.2-.2-.2-.1.6-.6.6-.7 1.1-.7-.2-.7.9-1.3 1.1l.1.1c.1.2-.2.1-.2.1.1.1.2 0 .2.1-.4.9-1.3 1.6-1.9 2.4-.2.3.6.5.1.8L73 25c0 .8-.6 1.4-.6 2.2 0-.1-.1-.1-.1-.2-.2.1-.2.5 0 .6-.1.1-.2 0-.3 0-.2.1.1.5-.1.5l-.1-.1c.1.1-.2.4.1.4-.2.2-.1.5-.2.7.2.2-.2.4.1.6-.4-.1-.4.4-.3.6-.1-.1-.1.1-.3 0 0 .2 0 .4.2.4-.5.3.2.8-.4.9.1.6.2 1.2.3 1.7-.4 0 0-.6-.4-.6.1.5.4.8.3 1.3-.1.1-.2-.1-.2-.1.1.5 0 1 .2 1.4 0 0-.1 0-.1-.1 0 .1 0 .2.1.2l-.1-.1c.2-.1.6.3.7.3-.5-.1-.1.4-.7.3 0 .1.1.1.2.1 0 .1-.1.1-.2 0 .1.3.3.2.3.5-.1 0-.1 0-.2-.1.2.1.4.2.3.5-.1 0-.1 0-.1-.1 0 .3.2.5.3.7.1.2.2.4.2.7-.3.2-.1.3-.3.7 0 .2.2 0 .3 0v-.2c.3 0 .7-.3.9-.2l-.3.2.6-.1-.3-.1c.3-.2.1-.4.4-.4-.1 0 .2 0 .4.1.1-.1.2-.2.4-.2.1.1 0 .4.1.4.1-.3.5-.2.5-.5v.3-.2c.1 0 .1.1.1.2.3 0-.2-.4.2-.3v.1c.4 0 .6-.3.9-.3.2.3-.2.2-.1.4.4-.2.8-.7 1.2-.8h-.1c-.1-.4.4.1.5-.2v.2c.3-.1.5-.4.9-.7v.1c.2 0 .4-.2.6-.2 0-.1.1-.2 0-.3.9.3.8-.9 1.5-.7-.1 0-.1.2 0 .1l.3-.3c-.1-.1-.1-.1-.3-.1 0-.1 0-.3.1-.3-.1.2.2.3.3.3 0 0-.1-.1-.1-.2.4.1-.2-.3.2-.3l.1.1c.1-.1.1-.3.2-.3.2.1 0 .2.1.3.1-.1 0-.6.3-.5 0 .1-.1.2-.1.3.3.1.3 0 .4 0l.3-.1H82c-.2-.6.3-.4.2-.9 0 .5.1.2.3.4h.3c0-.3.3-.1.2-.4.1.1.1-.1.2.1.1-.2-.1-.1-.2-.2 0-.4.7-.3.7-.8.1-.4-.1-.6.1-1 .2 0 .2.3.2.3.2-.1.3-.2.3-.4 0 .1.1.1.2.1.1-.1-.2-.3 0-.3.1.1.1.2.2.3 0-.2 0-.4.1-.6.1.1.1.2.2.3.1-.2.2-.5 0-.7h-.1c0-.1.2.1.2.2 0 .2-.2.1-.3.1v-.1c-.5-.2-.2.4-.4.6l-.2-.3.1.4c-.1 0-.3-.1-.2-.2-.2 0 0 .2-.2.2v.2c0-.1-.2-.1-.1-.2-.3.1-.1.5-.4.4-.2.4.2.2.2.6l-.6-.3.2.2s-.1.1-.2 0c0 .2.1.1.2.2-.3 0-.3.5-.6.2.1.2.2 0 .2.2-.4-.3-.1.2-.4.2-.1-.2.1-.2-.2-.3.2.4-.3.2-.4.3.2.2-.2.3-.3.6 0-.1-.5.2-.7.2.2.3-.1.4-.2.5-.1-.2-.1-.2-.1-.4l-.1.1c0 .1 0 .2-.1.3H80c-.2.1-.2.5-.5.5.1.2.5.4.3.7-.1-.1-.2-.3-.2-.3s0 .1-.1.1v-.2c-.2 0 0 .2-.1.2l-.2-.2s.1 0 .1-.1c-.1 0-.3 0-.4-.1.1.1.1.2.1.3-.2.1-.2-.1-.3-.1 0 .1-.2.1 0 .3-.1 0-.1-.1-.2-.1 0 .2-.5.3-.2.5-.2.4-.8.2-1.1.5v-.1c-.2.2-.4.2-.5.5-.1 0-.2-.1-.2-.2-.2.1-.2.2-.5.2.1-.2-.1-.1.1-.2-.2 0-.3-.1-.5.2 0-.2-.2-.2-.3-.1l.2.1c-.1.1-.2.1-.3.1v-.3c-.5-.2-.6.8-1.1.3-.1.2.3.1.2.3-.2 0-.5-.4-.6-.4-.2-.1-.2.1-.2.2s-.1.2-.1.2c0 .1 0 .4-.2.5-.2 0-.1-.4 0-.5v.1c.1 0 .1-.1.1-.2v.1c0-.1-.1-.1 0-.3-.1.1-.1.2-.1.2 0-.1-.1-.1-.1-.1H73v-.1c0 .1-.1.2-.1.2.1-.3-.2.1-.3-.1.1-.2.3-.2.2-.3.1-.1.3-.1.3-.2-.1 0-.1 0 0-.1 0 0 .1 0 .1-.1 0 0 0-.1.1-.1l.1.1c-.1 0-.1-.1-.1-.2l-.2.1c0-.1 0-.1.1-.2-.1-.1-.3.1-.5 0 .1-.1-.2-.3.1-.4-.1.3.3-.1.3.2v-.2h.1c.2-.3-.3-.1-.3-.4.2 0 .3-.1.2-.1 0 .1-.2.1-.4 0 .1-.2-.1-.2-.1-.3v.1c-.2 0-.1-.1-.2-.3.1 0 .1.1.1.1-.3-.2.3-.4.1-.6.1-.1.3 0 .4-.1-.2-.2.2-.3.1-.5-.2.1-.2.1-.3-.1l.1.4-.3-.3c0 .1.1.3.1.4-.2-.1-.1-.1-.3-.1.3-.2-.2-.4.1-.6h.5c.2-.3-.2-.6-.1-1l-.1.1c-.2-.1 0-.3-.1-.4.2 0 .2 0 .3-.1-.1 0 .1-.3-.3-.4l.2-.1c.1-.3-.4-.5-.3-.8.2.1.3 0 .4.2 0-.1.1-.2 0-.2.1 0-.2-.3 0-.4-.1-.1-.2-.1-.2-.2h.1c-.1 0-.1-.2-.3-.1.6-.2.2-.9.7-1.1 0-.2 0-.5.1-.7 0 0 .1 0 .1.1.2-.2-.4-.3-.1-.6.3-.1.1.2.2.2.5.1.1-.4.4-.5v.1c.2-.1 0-.5.1-.7h.1c-.2-.3-.1-.7-.1-.9.2.2.1.2.3.2 0-.1-.3-.1-.3-.4.1 0 .3-.1.5-.1l-.1.2c.3 0 .1-.3.2-.4l.1.1c.1-.3-.2-.5 0-.8h-.1c-.2-.3.2-.1.1-.4l.3.1c0-.2-.1-.6 0-.8.1.2.1.6.2.8.1-.1.2-.4.1-.5v.2c-.2-.3-.1-.5 0-.8.5.4.5-.5 1-.4.1-.5.6-.7.9-1.1-.5-.2.1-.1-.3-.4l.1-.1.5-.1c.2 0 0 .2.1.2.2-.2.2.1.5 0-.2-.1-.1-.2 0-.3h-.3c.1-.5.5.1.6-.4v.2c.1-.2.5-.5.4-.9.1 0 .2.1.2.2.4-.3.5-1 .9-1.1l.1.1c0-.1 0-.3.1-.3l.1.1c0-.1 0-.3.2-.3v.2c.5-.2.3-.7.6-1 .2.3.6.2.8.1.5-.3.6-.8.9-1.1.5.2 1-.4 1.5-.4-.1 0-.1-.3-.1-.3.1 0 .2-.4.3-.1.2.3.4.1.6 0l-.2-.4c.7.4 1.1-.7 1.5-.2l.3-.3.1.2h.1l.1-.1c0 .1 0 .1-.1.2 0 0 .3-.8.5-.9-.1.1-.1.3-.2.4v.3c0 .1 0 .1.2.1-.1 0-.1.1-.2.1 0 0-.1.1 0 .1 0 0 0 .1.1.1h.3c-.3 0 0 .4.2.6h-.2c.3.1.4.1.5.4 0 .1-.2.1-.1 0-.1.2.2.1.1.4l-.1.4c0 .2.1.2.3.3.1.1 0 .4-.3.4.1 0 .3.1.3.3h-.2c-.2.3.3.5 0 .8H88v-.5c-.2 0-.3.2-.6 0 .2.2.5.5.4.7h-.1v.1c0 .1-.1.1-.1.2-.2 0-.1.2-.1.3.2 0 .2.2.4 0v-.4c.1.1.2.2.1.3.1.1.3.1.4.2-.3.1-.6.4-.8.4.1.3 0 .8.4 1.1 0 .1-.1.1-.2.1 0-.1 0-.1-.1-.2.1.2-.1.6.2.7-.2.2-.3-.2-.3.1l-.1-.1c-.6.5.5 1.2-.3 1.8.1 0 .1-.1.1-.1-.5.7-.3 1.7-1 2.3-.2.2 0 .3.1.5l-.3-.1.2.3c0 .4-.8.3-.7.8h.2c-.1.1-.1.5-.3.4 0 0 .1.1 0 .1l-.1-.1v.5c-.2.2-.4-.3-.7.1 0 .2.1.6.2.6 0-.1.2-.1.3 0v.2c.3.2.6.6 1 .4l-.1-.4h.2l-.1.2c.2 0 .1-.2.1-.3h.2l-.2-.4c.2 0 .2.3.4.1-.1-.2-.4-.1-.4-.3.2 0 .3.1.3-.1.1 0 .1.1.2.2 0-.2.1-.3 0-.5.3 0 .2-.4.5-.3-.1-.1-.2-.3-.1-.5.3.4.2-.4.6-.2-.3-.3.1-.6 0-1 0 0 .1.1 0 .1.1-.1.2-.1.3-.2-.3-.1-.3-.4-.4-.6.4-.1.3.3.6.3-.3-.1-.1-.4-.4-.4.2-.1.1-.1.4-.1-.4-.2 0-.2-.2-.4.3-.2.4.1.3-.2.4.2.5.5.5.5m.4-6.5v.2c-.1 0-.2 0-.2-.1.1.1.1 0 .2-.1m-1.7.9c0-.1 0-.1.1-.1 0 0 0 .1-.1.1"/></g><g class="st1"><path class="st3" d="M80.9 35.3s.1 0 0 0c.1 0 .1 0 0 0"/></g><g class="st1"><path class="st3" d="M81.9 34.6h.2-.2"/></g><g class="st1"><path class="st3" d="M82.6 34.1s0-.1 0 0z"/></g><g class="st1"><path class="st3" d="M71.1 35.3s0-.1 0 0c-.1-.2-.1-.1 0 0"/></g><g class="st1"><path class="st3" d="M73.6 38.4c-.1.1-.1.1-.2.1.1.1.2 0 .2-.1"/></g><g class="st1"><path class="st3" d="M71.2 30.3h.1z"/></g><g class="st1"><path class="st3" d="M73.2 38.6h.3c-.1-.1-.2-.1-.3 0"/></g><g class="st1"><path class="st3" d="M85.3 31.2c0-.1 0 0 0 0"/></g><g class="st1"><path class="st3" d="M85.3 31v.1c.1 0 .1 0 0-.1"/></g><g class="st1"><path class="st3" d="M84.5 32.1c0 .1 0 0 0 0"/></g><g class="st1"><path class="st3" d="M84.3 32.4c.1-.1.3 0 .3-.2v-.1c0 .2-.4.2-.3.3"/></g><g class="st1"><path class="st3" d="M82.5 32.8c.1 0 .2-.1.3-.2-.1 0-.2-.1-.2-.2-.5.1.2.1-.1.4"/></g><g class="st1"><path class="st3" d="M81.7 33.3c.1-.1-.1-.1-.1-.1 0 .1 0 .1.1.1"/></g><g class="st1"><path class="st3" d="M76.4 36.7l-.1-.2c-.1.1 0 .1.1.2"/></g><g class="st1"><path class="st3" d="M75.5 38.2l.2.1v-.2z"/></g><g class="st1"><path class="st3" d="M74.4 36.9l.1-.1-.2.2z"/></g><g class="st1"><path class="st3" d="M73.6 29.6h-.3c.1 0 .3.1.3 0"/></g><g class="st1"><path class="st3" d="M75.1 25.2c.1 0 .3-.1.2-.2-.1.1-.2.1-.2.2"/></g><g class="st1"><path class="st3" d="M85.4 16.4v.1l.1-.1z"/></g><path d="M43.6 140.8c0-.3.1-.5.2-.7.1-.1.3-.2.5-.2s.4.1.5.2c.2.1.2.4.2.6 0 .3-.1.5-.2.7-.2.1-.3.2-.5.2s-.4-.1-.5-.2c-.2-.1-.2-.3-.2-.6zm1.4 10.9h-1.3v-8.6H45v8.6zm8 0l-3.9-10.1H49c.1.8.1 1.8.1 2.9v7.3h-1.2v-11.4h2l3.6 9.4h.1l3.6-9.4h2v11.4h-1.3v-7.4c0-.8 0-1.8.1-2.8h-.1L54 151.7h-1zm12.8.1c-1.3 0-2.3-.4-3-1.2a4.6 4.6 0 0 1-1.1-3.2c0-1.4.3-2.5 1-3.3s1.6-1.2 2.7-1.2 1.9.4 2.5 1.1c.6.7.9 1.6.9 2.8v.8H63c0 1 .3 1.8.8 2.3.5.5 1.2.8 2 .8.9 0 1.8-.2 2.7-.6v1.2c-.5.2-.9.3-1.3.4-.3.1-.8.1-1.4.1zm-.4-7.7c-.7 0-1.2.2-1.6.7-.4.4-.6 1.1-.7 1.9h4.5c0-.8-.2-1.4-.5-1.9-.5-.5-1-.7-1.7-.7zm11.3 5.3c0 .8-.3 1.4-.9 1.8-.6.4-1.4.6-2.5.6s-2-.2-2.7-.5v-1.2c.4.2.9.4 1.3.5.5.1.9.2 1.4.2.7 0 1.2-.1 1.6-.3.4-.2.5-.5.5-1 0-.3-.1-.6-.4-.9-.3-.2-.9-.5-1.7-.8-.8-.3-1.4-.6-1.7-.8-.3-.2-.6-.5-.8-.8s-.2-.6-.2-1c0-.7.3-1.2.9-1.7.6-.4 1.3-.6 2.3-.6.9 0 1.8.2 2.7.6l-.5 1.1c-.9-.4-1.6-.5-2.3-.5-.6 0-1.1.1-1.4.3-.3.2-.5.5-.5.8 0 .2.1.4.2.6.1.2.3.3.6.5.3.1.8.4 1.5.6 1 .4 1.7.7 2.1 1.1.3.3.5.8.5 1.4zm7.6 0c0 .8-.3 1.4-.9 1.8-.6.4-1.4.6-2.5.6s-2-.2-2.7-.5v-1.2c.4.2.9.4 1.3.5.5.1.9.2 1.4.2.7 0 1.2-.1 1.6-.3.4-.2.5-.5.5-1 0-.3-.1-.6-.4-.9-.3-.2-.9-.5-1.7-.8-.8-.3-1.4-.6-1.7-.8-.3-.2-.6-.5-.8-.8s-.2-.6-.2-1c0-.7.3-1.2.9-1.7.6-.4 1.3-.6 2.3-.6.9 0 1.8.2 2.7.6l-.5 1.1c-.9-.4-1.6-.5-2.3-.5-.6 0-1.1.1-1.4.3-.3.2-.5.5-.5.8 0 .2.1.4.2.6.1.2.3.3.6.5.3.1.8.4 1.5.6 1 .4 1.7.7 2.1 1.1.3.3.5.8.5 1.4zm7.4 2.3l-.3-1.2h-.1c-.4.5-.9.9-1.3 1.1-.4.2-1 .3-1.6.3-.8 0-1.5-.2-2-.7-.5-.4-.7-1.1-.7-1.9 0-1.7 1.4-2.6 4.1-2.7h1.5v-.6c0-.7-.1-1.2-.4-1.5s-.8-.5-1.4-.5c-.7 0-1.5.2-2.4.7l-.4-1a7.72 7.72 0 0 1 2.9-.7c1 0 1.8.2 2.3.7s.7 1.2.7 2.2v5.8h-.9zm-3-.9c.8 0 1.4-.2 1.9-.7.5-.4.7-1.1.7-1.9v-.8l-1.3.1c-1 0-1.8.2-2.2.5-.5.3-.7.7-.7 1.3 0 .5.1.8.4 1.1.3.3.7.4 1.2.4zm13.6-7.7v.8l-1.6.2c.1.2.3.4.4.7.1.3.2.6.2 1 0 .8-.3 1.5-.9 2-.6.5-1.4.8-2.4.8-.3 0-.5 0-.7-.1-.6.3-.8.7-.8 1.1 0 .2.1.4.3.5.2.1.5.2 1 .2h1.5c.9 0 1.6.2 2.1.6.5.4.7 1 .7 1.7 0 .9-.4 1.7-1.1 2.2-.8.5-1.9.7-3.3.7-1.1 0-2-.2-2.6-.6-.6-.4-.9-1-.9-1.8 0-.5.2-1 .5-1.4.3-.4.8-.6 1.4-.8-.2-.1-.4-.3-.6-.5-.1-.2-.2-.5-.2-.7 0-.3.1-.6.2-.8.2-.2.4-.5.8-.7-.4-.2-.8-.5-1.1-.9-.3-.4-.4-.9-.4-1.5 0-.9.3-1.7.8-2.2s1.4-.8 2.4-.8c.4 0 .9.1 1.2.2h3.1zm-6.8 10c0 .5.2.8.6 1.1.4.2 1 .4 1.7.4 1.1 0 1.9-.2 2.4-.5s.8-.8.8-1.3-.1-.8-.4-1c-.3-.2-.8-.3-1.6-.3h-1.6c-.6 0-1 .1-1.4.4s-.5.7-.5 1.2zm.7-7.2c0 .6.2 1.1.5 1.4.3.3.8.5 1.4.5 1.3 0 1.9-.6 1.9-1.8 0-1.3-.6-1.9-1.9-1.9-.6 0-1.1.2-1.4.5s-.5.6-.5 1.3zm11.5 5.9c-1.3 0-2.3-.4-3-1.2a4.6 4.6 0 0 1-1.1-3.2c0-1.4.3-2.5 1-3.3s1.6-1.2 2.7-1.2 1.9.4 2.5 1.1c.6.7.9 1.6.9 2.8v.8h-5.9c0 1 .3 1.8.8 2.3.5.5 1.2.8 2 .8.9 0 1.8-.2 2.7-.6v1.2c-.5.2-.9.3-1.3.4-.2.1-.7.1-1.3.1zm-.4-7.7c-.7 0-1.2.2-1.6.7-.4.4-.6 1.1-.7 1.9h4.5c0-.8-.2-1.4-.5-1.9-.5-.5-1-.7-1.7-.7z" fill="#626c72"/></svg>