<svg id="Layer_1" xmlns="http://www.w3.org/2000/svg" viewBox="0 0 559 520"><style>.st1,.st2{fill-rule:evenodd;clip-rule:evenodd}.st2{fill:#fff}</style><path d="M282.9 380.8c.9.3 1.7.5 2.6.8 39 11.6 79.8 12.4 119.3-4.8 6.7-2.9 13.6-6.5 19.6-13.5 4.9-5.7 9.2-14.2 11.3-24 13.9-20.5 25.3-47.7 26.8-79 1.8-38.5-12.4-72.5-30.4-88.8-9.9-8.9-20.8-13.6-31.7-18.1-36.1-14.8-72.4-28.2-108.9-40.1-3.5-1.2-7.1-2.3-10.6-3.4-24.4-7.5-49.1-13.3-74.1-9.1-10.8 1.8-21.7 5.4-32.4 4.2-8.7-1-17.2-5.2-26-4.1-7.5 1-14.9 5.8-21.8 12.1a90.31 90.31 0 0 0-22.3 31.6c-5.8 13.8-9.2 31.7-7.6 48.2 1.5 15.9 7.4 28.6 9.8 44 1.5 9.7 1.7 20.5 4.5 29.1 2.8 9.1 8 14.5 13.1 19.2 15.5 14.5 31.8 26.4 48.1 37.6 35.9 24.5 72.6 46.3 110.7 58.1" fill="#cfebf6"/><path class="st1" d="M165.4 325.6c-8.8-.2-16.7-.5-18.9-7.5-.9-2.9-.3-8-.3-12.4 0-8.8.2-16.6.2-25.1 0-4.3-.3-8.7.3-12.3.8-4.3 4.6-7.9 8.6-8.4 2.7-.3 5.7.1 8.4.2 19.2.5 39.7.2 58.7.2 16.2 0 33.8-.3 50.3.3 5.5.2 12-.7 16.3.5 3 .9 5.1 3.5 6 6.5.4 1.5 0 4.3 0 6.5v33.8c0 8.1.4 15.4-6 17.4-3.3 1-7.9 0-11.9.2-26.2 1.2-55.1.3-82.7.3-2 0-4.9-.5-6.3 0-1 .3-2.5 3.4-3.2 4.6-2.2 3.7-3.3 5.9-5.6 9.8-.6 1.1-2 4.5-3.2 4.6-1.4.1-2.5-3.1-3.2-4.4-2.5-5.3-4.7-10-7.5-14.8z"/><path class="st2" d="M275.7 323.1c3.4 0 10 .6 12.4-.4 2-.7 2.7-3.3 4-5.1-.2-11.8.5-25.9.5-38 0-7.6 1.5-15.1-4.6-16.7-40.3.1-84-.3-125.1-.3-2.9 0-6.1-.4-8.4 0-7.2 1.3-5.9 11.5-5.8 19.6.2 7.5 0 15.5 0 23.5 0 4.1-.5 9 .2 11.6.6 2.1 2.9 4.5 5.1 5.1 3.7 1.1 8.1.1 12.4 1.2 3.8 5.1 6.2 11.5 9.6 16.8 2.6-4.4 5.3-8.8 7.9-13 .9-1.5 1.7-2.9 2.6-4.4 28.7 0 60 .1 89.2.1z"/><path class="st1" d="M172.7 212.7c.6 2.4-2.7 2.4-2.3.2.5-.8 1.5-.9 2.3-.2zm-26.8-30.1c5.8-1.5 5.6 7.4 1 7.3-3.7-.1-5.1-6.2-1-7.3zm1.7 4.6c.6-.7.3-1.5-.2-2.1-2.1-.2-1.1 2.1.2 2.1z"/><path d="M171.1 186.2h11.4c2 0 2-3.2 0-3.2h-11.4c-2 0-2 3.2 0 3.2z"/><path d="M175 177.6V192c0 2 3.2 2 3.2 0v-14.4c0-2.1-3.2-2.1-3.2 0z"/><path class="st1" d="M441.8 246.6c.6 2.4-2.7 2.4-2.3.2.6-.8 1.6-.9 2.3-.2zm-26.7-30.1c5.8-1.5 5.6 7.4 1 7.3-3.8-.1-5.1-6.2-1-7.3zm1.6 4.6c.6-.7.3-1.5-.2-2.1-2-.2-1 2.1.2 2.1z"/><path d="M440.3 220.1h11.4c2 0 2-3.2 0-3.2h-11.4c-2.1.1-2.1 3.2 0 3.2z"/><path d="M444.1 211.5v14.4c0 2 3.2 2 3.2 0v-14.4c0-2.1-3.2-2.1-3.2 0z"/><path class="st1" d="M292.9 128.5c48.1-3.8 73.5 19.4 87.8 51.3 9.5 21.2 13.2 46.1 3.4 68.8-6.7 15.5-20.5 29.8-34 38.2-30.3 19-75.1 15.6-102.7-4.2-13.6-9.8-25.5-26.4-31.8-42.9-6.8-17.6-5.5-37.3.8-54.7 6.1-16.8 15.8-31.6 30.5-41.6 11.6-7.7 27.6-13.4 46-14.9z"/><path class="st2" d="M249.6 149.7c-16.7 11.8-32.4 36.4-32.3 63.7.1 27.3 16.4 48.4 31 61.1 4.7 4.1 10.1 6.9 15.7 9.8 44.7 23 97.1-.9 113.7-37.8 13.6-30.2.1-69.4-15.7-86.2-2.9-3-4.9-6.6-7.6-8.9-13.3-11.1-35.3-18.5-62.8-16.1-16.2 1.4-31.8 7.3-42 14.4z"/><path class="st1" d="M297.1 214.9c12.5-12.4 27.2-26.9 40.5-40.3 1.6-1.6 5.1-6.3 7.1-5.7 2 .6 4 3.5 5.7 5.2l10.9 10.9c1.4 1.4 5.1 4 5.2 5.7.1 1.3-2.5 3.6-3.9 5-4.4 4.7-8.7 9.5-12.7 13.9-14.5 15.8-28.5 29.4-43.2 45.5-1.2 1.3-2.7 2.7-4.3 4.6-.9 1-3.2 4.3-4.6 4.3-1.9.1-4.9-4.1-6.6-5.7-13.2-12-25-23.2-37.8-35.7-1.4-1.4-5.8-4.5-5.9-6.1-.2-1.7 4.5-5.9 5.2-6.6 4.2-4.4 7.4-7.6 11.6-12.1 1.6-1.7 3.8-5.3 6.1-5.5 2.4-.1 5.4 3.3 7.3 5 6.8 6.2 12.7 11.6 19.4 17.6zm46.9-43c-10.6 11.9-22.6 23.2-33.7 35.1-5.4 5.8-11.5 11-16.8 16.8-4.7 5.2-9.6 10.4-14.1 15.5-.4.5-1.9 1.3-1.1 2.3 1.9-.4 3.1-2.4 4.3-3.6 4.3-4.4 8.2-8.9 12.5-13.2 16.4-16.4 32.4-33.9 48.5-50.3.5-.5 1.9-1.3 1.1-2.3-.3-.1-.3-.4-.7-.3zm2.5 2.2c-20.3 20.6-41.5 44.8-61.9 66-1.2 1.3-3.8 2.8-3.2 4.5 1.1.5 1.7-.8 2.3-1.4 21.8-22.3 42.8-45.6 64.2-68.1-.6-.1-.8-.7-1.4-1zm2.5 2.8c-10.8 11.7-21.7 23.8-32.8 35.7-9.5 10.2-19.3 20.4-28.4 30.5-1.2 1.3-3.5 3.2-3 4.8 1.2.5 1.5-1 2-1.6 19.8-21.2 39.8-43 59.4-64.2 1.3-1.4 3.3-3.1 3.4-4.8-.2 0-.3-.4-.6-.4zm2.3 2.2C332 201 310.7 224.2 291 246.3c-.9 1-3.7 3.8-3 4.6 1 1 2.1-1.2 2-1.1 21.6-22.6 42.1-46.3 63.1-68.7-.9-.5-1-1.6-1.8-2zm3.2 3.4c-21.3 23.6-42.7 47-63.5 71 22.2-22.7 43.8-45.8 65.3-69.2-.6-.6-1.1-1.3-1.8-1.8zm2.9 3.5c-20.6 22.9-41.6 45.3-62.4 68.1-.3.9-2.2 1.4-1.1 2.3 1.1.8 1.6-.7 2-1.1 21.6-21.9 42.8-44.9 64-66.9-.8-1-1.3-2-2.5-2.4zm3.9 3.8c-11 11.2-21.6 23.4-32.8 35-9.5 9.9-18.9 20.2-28 30-1.2 1.3-3.6 2.6-3.2 4.3 1.1.7 1.4-.9 1.8-1.4 4.7-5.1 9.6-10.1 14.3-15 16.5-17.2 33.3-34.6 49.4-51.7-.6-.1-.8-.8-1.5-1.2zm-90.2 5.7c-5.3 5.1-10.3 10.9-15 16.4-1.5 1.7-3.7 3.2-4.3 5.5 1.3.2 2-1.3 2.7-2 2.6-2.8 5.1-5.5 7.7-8.2 3.5-3.7 7.1-7.5 9.8-11.1-.6 0-.4-.6-.9-.6zm2.3 2.1c-4.9 5.4-10 11.3-14.8 16.6-1.6 1.7-3.9 3.1-4.3 5.5 1.2.8 2.1-.9 2.7-1.6 5.9-6.4 12.1-13.1 17.5-19.6-.5-.2-.5-.8-1.1-.9zm2.3 2.5c-5.3 6.2-11.8 13.5-17.3 19.6-.6.7-2.4 1.9-.9 3 3.7-3.2 6.8-7.1 10-10.7 3.3-3.6 6.6-7.2 9.6-11.2-.6-.2-.5-.9-1.4-.7zm2.5 2.2c-5.2 6.6-11.3 13.2-16.6 19.3-.7.8-1.9 1.8-1.8 3 1.3.5 2.1-1.2 2.7-1.8 5.9-6.4 12.1-12.7 17.5-19.1-.5-.5-1-1.1-1.8-1.4zm3.2 2.8c-5.4 6.2-12.2 13.5-17.8 19.8-.4.5-2.6 1.9-.5 2.5 2-1.1 3.2-3.3 4.8-5 4.9-5.4 10.1-10.6 14.6-16.2-.2-.5-.6-.8-1.1-1.1zm-13.4 23c4.4-4.7 8-8.8 12.5-13.7 1.6-1.7 6.9-6 3.4-6.8-4.8 5.5-9.8 11.3-14.6 16.6-1.5 1.7-3.4 3.3-4.1 5.5 1.2.8 2.1-1 2.8-1.6zm18.6-17.8c-4.8 5.4-9.9 11.1-14.6 16.4-1.5 1.7-3.9 3.4-4.1 5.5 1.2.7 2.1-.9 2.7-1.6 5.8-6.4 12-13.1 17.3-19.6-.5-.1-.6-.7-1.3-.7zm2.8 2.3c-6.2 7.4-13 14.1-18.9 21.9 1.4 1.4 2-.4 2.7-1.1 5.9-6.4 12.2-13.2 17.3-19.8-.5-.2-.6-.8-1.1-1zm2.2 2.5c-2.8 4-6.3 7.4-9.6 11.2-3.1 3.6-6.2 7.2-8.7 10.9 3.7-2.5 6.7-6.6 10-10.2 3.3-3.6 7-7 10-10.7-.6-.3-.6-1.3-1.7-1.2zm3 2.5c-6 7.5-13.6 14.3-18.9 21.6 2.1-.9 3.4-3.1 5-4.8 5.2-5.3 10.4-10.6 15-16.2-.5 0-.4-.7-1.1-.6zm114.3 37.3c6.5-1.6 5.2 6.8.6 6.6-3.5-.1-5.1-5.5-.6-6.6zm-.2 3.1c.1 1.4 2.2 1.2 2.1-.4-.8-.6-1.6.2-2.1.4zm-49.6 48.4c4.2-.4 6.7 1.7 7.3 4.6.8 4.2-2.1 7.7-5.4 8.1-3.8.4-9.3-2.3-8.1-8.1.5-2.2 3-4.3 6.2-4.6zm4.4 5.4c-.7-3.9-7.7-2.5-8.1 1.2 1 4.6 9.1 4.1 8.1-1.2zm30.2-17.3c5.7-.5 4.3 7.6 0 7.7-4.8.1-5.2-7.2 0-7.7zm-.4 5.2c1.1-.3 1.8-.9 1.7-2.3-1.6-.9-3.1 1.3-1.7 2.3zm-68.2 13.1c3.7-.4 5.1 1.5 5.4 3.5 1.1 7.8-12 6.6-9.7-.8.4-1.3 1.8-2.4 4.3-2.7zm-1.9 4.7c.2 2.2 4.9 1.9 4.6-.6-.1-1-.7-1.4-2.3-1.2-1.3.1-2.4.4-2.3 1.8zM184.3 111.6c2.9-.7 6.3.8 6.8 3.1 1.7 7.4-11 8.2-10.8 1.2.1-2.3 1.7-3.8 4-4.3zm4.1 4.3c-.2-2.4-5.6-2.3-5.2 1.2 1.4 1.8 5.4 1.1 5.2-1.2zm32.2 11.9c2.2-3.8 9.2-3.4 10.6.6 1 3.1-1.1 6.5-3.9 7.1-5 .8-6.9-3-6.7-7.7zm2.7 1.6c-1.2 3.6 6 4.8 5.2.4-.3-1.5-1.8-1.9-3.5-1.5-1 .3-1.6.6-1.7 1.1zm-58.1 11.4c10-2 12.7 12.1 3.1 14.3-5.9 1.3-11.7-4.7-8.5-10.8.9-1.6 3-3 5.4-3.5zm-1.7 4.2c-.7.6-1.9 1.8-2.1 2.9-.3 2.3 2.1 4.2 3.7 4.6 6.9 1.4 8.5-9.9.8-8.5-.7.1-1.7.4-2.4 1zm41.9-5.2c2.5-.6 3.5.5 3.7 1.9.7 4.3-6.1 5.2-6.2 1 0-1.9.9-2.5 2.5-2.9z"/></svg>