<svg xmlns="http://www.w3.org/2000/svg" viewBox="0 0 559 520"><style>.st1{fill:#fff}</style><g id="Layer_1"><path d="M199.8 164.8l-2.5 1c-38.3 15.5-71.3 39.5-92.4 75.5a45.8 45.8 0 0 0-7.4 21.3c-.4 7 1.3 15.5 5.6 23.7 1.4 22.8 8.9 48.7 26.8 71.5 22 28 54.1 43.3 78.4 43.9 13.3.3 24.9-3 36.3-6.5a1737 1737 0 0 0 122.1-41.8c24.1-9.5 47.3-20.3 64.8-38.4 7.6-7.8 14-16.9 23.3-22.5 7.6-4.6 17-6.7 23.2-12.9a40.6 40.6 0 0 0 10-21.7c2-10.4 2.4-22.4-1.4-35.6a87.2 87.2 0 0 0-23.3-38.3c-10.9-10.2-23.3-15.6-34.7-24.8-7.1-5.8-13.8-13.3-21.3-17.7a42.6 42.6 0 0 0-22.2-5.5c-21.2-.8-41.5.7-61.4 2.7-43.7 4.3-86.2 11.3-123.9 26.1" fill="#cfebf6"/><path class="st1" d="M412.2 341.6h-1c-.5 0-.9.2-1.1.4l-.1.1.6 1.1-.6-1.1c-1.2.6-1.3 2.7-1.3 2.7 0 1.9 1.8 3.2 3.4 3.2 2 0 3.4-1.8 3.4-3.3 0-1.5-1.2-3.1-3.3-3.1zm-.1 3.9c-.4 0-.9-.3-.9-.6l.1-.6.1-.1h.7c.6 0 .8.4.8.5.1.1-.2.8-.8.8zm-176.8-42.1v-10.1c0-.4-.2-.7-.4-.9-.3-.2-.6-.4-1-.3l-10.7.6-10.8.6c-.7 0-1.2.6-1.2 1.3v2.8l-.1 7.8-.1 7.9.1 4.5c0 .7.6 1.2 1.3 1.2h7.5c4.2 0 9.2 0 14.2.2.3 0 .7-.1.9-.4.3-.3.4-.6.4-.9l-.1-8.9v-5.4zm-15.4 12.8h-6.2V313l.1-7.8.1-7.8v-1.6l9.6-.5 9.4-.5v14l.1 7.6c-4.7-.2-9.2-.2-13.1-.2zM337.7 212a5.3 5.3 0 0 0-5.1 5.2c0 3.4 3.4 4.8 5.3 4.8 2 0 4.9-2.3 4.9-5.5v-.4a3 3 0 0 0-.6-1.8 5.9 5.9 0 0 0-4.5-2.3zm.1 7.4c-.4 0-2.7-.4-2.7-2.2 0-1.4 1.3-2.7 2.6-2.7.9 0 1.7.4 2.4 1.3l.1.2v.4c-.1 1.9-1.9 3-2.4 3zm26.4-.7h6.3l3.8-.1c.7 0 1.2-.6 1.2-1.3l-.1-6.7v-3.1c0-.4-.2-.7-.4-.9-.3-.2-.6-.4-1-.3-2.9.3-6.1.5-10 .5-.3 0-.7.1-.9.4-.2.2-.4.6-.3.9l.2 9.3c-.1.8.5 1.3 1.2 1.3zm8.6-9.7v7.3h-7.3l-.1-6.8 7.4-.5zm13.2-1.6c-.4 0-.7.1-1 .4-.3.2-.4.6-.4.9v8.9c0 .3.1.7.4.9.2.2.6.4.9.4h4.5l4.9-.2c.7-.1 1.2-.6 1.2-1.3v-8.8c0-.4-.1-.7-.4-.9-.3-.2-.6-.4-1-.3-2.6.3-5.5.3-9.1 0zm8 8.9l-3.6.1h-3.3V210h6.8v6.3zm24.4-3.9l-.2-4.9v-.6c0-.4-.1-.7-.4-.9-.3-.2-.6-.4-1-.3-3 .2-6.3.2-9.6.1-.4 0-.7.1-1 .4-.2.3-.4.6-.4 1l.6 7.7.3 3.1c.1.7.6 1.2 1.3 1.2l2.7.1 3.8.1 2.8-.1c.7 0 1.2-.7 1.2-1.3.1-2 0-3.9-.1-5.6zm-3.9 4.2l-3.8-.1h-1.5l-.2-2-.5-6.2 7.1-.1.2 4.3.2 4.1h-1.5zm-225.3 13.2h6.3l3.8-.1c.7 0 1.2-.6 1.2-1.3l-.1-6.7v-3.1c0-.4-.2-.7-.4-.9-.3-.2-.6-.4-1-.3-2.9.3-6.1.5-10 .5-.3 0-.7.1-.9.4-.2.2-.4.6-.3.9l.2 9.3c-.1.8.5 1.3 1.2 1.3zm8.6-9.7v7.3h-7.3l-.1-6.8 7.4-.5zm13.2-1.6c-.4 0-.7.1-1 .4-.3.2-.4.6-.4.9v8.9c0 .3.1.7.4.9.2.2.6.4.9.4h4.5l4.9-.2c.7-.1 1.2-.6 1.2-1.3v-8.8c0-.4-.1-.7-.4-.9-.3-.2-.6-.4-1-.3-2.6.2-5.5.2-9.1 0zm8 8.9l-3.6.1h-3.3v-6.4h6.8v6.3zm23.8-10.4c-.3-.2-.6-.4-1-.3-3 .2-6.3.2-9.6.1-.4 0-.7.1-1 .4-.2.3-.4.6-.4 1l.6 7.7.3 3.1c.1.7.6 1.2 1.3 1.2l2.7.1 3.8.1 2.8-.1c.7 0 1.2-.7 1.2-1.3l-.2-5.4-.2-4.9v-.6c.1-.5-.1-.8-.3-1.1zm-3.3 10.7l-3.8-.1h-1.5l-.2-2-.5-6.2 7.1-.1.2 4.3.2 4.1h-1.5zm154.3 14.2c-.5 0-1 .4-1.2.9-1 3.2-2.7 5.4-5 6.6-.5.3-.7.8-.7 1.3.1.5.5 1 1 1.1a10 10 0 0 1 7.3 5.6c.2.4.6.7 1.1.7.5 0 .9-.3 1.1-.7 1.6-2.9 4-4.2 6-4.9.5-.2.8-.7.8-1.2s-.4-1-.9-1.2c-4-1.4-7-4-8.4-7.5-.1-.4-.6-.8-1.1-.7zm6.1 9.5c-1.2.7-2.4 1.7-3.5 3a13 13 0 0 0-5.4-4.4c1.2-1 2.2-2.4 2.9-3.9a18 18 0 0 0 6 5.3zM201.2 176a10 10 0 0 1 7.3 5.6c.2.4.6.7 1.1.7.5 0 .9-.3 1.1-.7 1.6-2.9 4-4.2 6-4.9.5-.2.8-.7.8-1.2s-.4-1-.9-1.2c-4-1.4-7-4-8.4-7.5-.2-.5-.7-.8-1.2-.8s-1 .4-1.2.9c-1 3.2-2.7 5.4-5 6.6-.5.3-.7.8-.7 1.3.1.7.5 1.1 1.1 1.2zm6-5.6c1.5 2.2 3.5 4 5.9 5.3-1.2.7-2.4 1.7-3.5 3a13 13 0 0 0-5.4-4.4 12 12 0 0 0 3-3.9zm151.7 96c4.6 0 9.4-4.4 9.4-12.4 0-7.6-6-10.8-9.2-10.8h-.2c-5.7.4-9.2 6.4-9.2 12.1 0 8.1 5.7 11.1 9.2 11.1zm.2-20.6c1.8 0 6.7 1.9 6.7 8.2 0 6.4-3.5 9.9-6.9 9.9-2.6 0-6.7-2.3-6.7-8.6.1-3.7 2.2-9.2 6.9-9.5z"/><path class="st1" d="M360.5 257.8c1.2 0 2.6-.6 2.6-3.5 0-2.6-1.8-3-2.4-3l-.9.1c-.5-.1-1 0-1.3.4-.6.7-.9 1.5-.9 2.3.1 1.5 1.1 3.7 2.9 3.7zm-.2-3.4l.3-.5v.4l-.1.8-.2-.7c-.1 0-.1 0 0 0zm-48.9 22.9h-.6a11 11 0 0 0-9.8 6.1c-.2.5-.2 1 .2 1.4-.4-.4-.4-.9-.2-1.4-.7 1.4-1.1 3.2-1.1 5.1 0 5 3.5 11.9 11.4 11.9 6.8 0 12.3-5.5 12.3-12.2 0-6.7-6.2-10.9-12.2-10.9zm-.5 2.6h.5c3.2 0 5.6 1.1 7.2 2.8l-1.7 2.1-1.6 2.4c-.9 1.4-2.8 4.3-3.6 5-1.2-.6-4.6-4.3-6.6-6.7l-1.5-1.7a9 9 0 0 1 7.3-3.9zm.4 18.1c-6.1 0-8.9-5.5-8.9-9.4l.2-2.1.6.7c4.6 5.3 6.8 7.6 8.6 7.6 1.5 0 3-2 5.7-6.2.6-.9 1.1-1.8 1.5-2.2l1.2-1.5c.6 1.1.9 2.4.9 3.6 0 5.1-4.5 9.5-9.8 9.5z"/><path class="st1" d="M310.3 287h.2c.7-.1 1.2-.8 1-1.5-.2-.9-.2-1.7-.2-2.7 0-.7-.6-1.3-1.3-1.3-.7 0-1.3.6-1.3 1.3 0 1.1 0 2 .2 3.1.3.7.8 1.1 1.4 1.1zm58.5 45.8c-1.1 0-2.2.4-2.8 1.1-.5.6-2.2 2.6-2.2 4.9 0 1.8 1.2 3.6 3.2 3.6 2.4 0 5-2.3 5-6-.1-1.7-1.2-3.6-3.2-3.6zm-1.9 7.1c-.3 0-.6-.6-.6-1.1 0-1 .8-2.4 1.5-3.2.1-.1.4-.2.9-.2s.6.9.6 1.1c.1 2.3-1.4 3.4-2.4 3.4zM288.6 328c-.7-.1-1.4.3-1.5 1l-.4 2.7-.4 2.7c-.1.7.3 1.4 1 1.5h.2c.6 0 1.1-.4 1.3-1l.4-2.7.4-2.7c.2-.7-.3-1.4-1-1.5z"/><path class="st1" d="M403.1 360l-.8.1a4 4 0 0 0-2.1.9l-.3-.3c-4.5-2.8-8.5-5.8-12.8-9l-7.1-5.3c-.7-.5-1.2-1.1-1.8-1.7-.7-.8-1.5-1.6-2.5-2.2 1.5-2.6 2.3-5.5 2.3-8.3 0-2.7-.8-6.3-3.1-8.6-.8-.8-1.7-1.4-2.6-2a238.8 238.8 0 0 0-2.8-56.7l-.1-.3a19.2 19.2 0 0 0-6.9-30.1 19.9 19.9 0 0 0-8.2-1.8c-2.8 0-5.2.6-7.3 1.7l-4-.3c-8.8-.7-20.3-1.6-27.9-4.1l-.2-.2c-.3-.2-.6-.2-.8-.2h-.1l-2.9-.8.1-.8h.1a3 3 0 0 0 2.3-2.8c.2-1.5-.4-2.7-.4-2.7l-1-1.8-.8-1.4c1.1-.9 1.6-2.2 1.6-3.8 0-1.6-.5-3.2-1.1-4.4a67.5 67.5 0 0 0 37.4-30.1h.7c5.1 0 12.1-5.5 14.6-17.2.8 2.2 3.1 4.1 6.8 4.1 4.5 0 7.3-3.4 7.3-6.7l-.2-1.4a7 7 0 0 0-7-5.7 7.6 7.6 0 0 0-6.1 3.4l.1-2.5c0-17.2-7.6-25-15-26.7a60.5 60.5 0 0 0-48.9-35.6h-.2a55 55 0 0 0-2.5-.2l-3-.1a76.7 76.7 0 0 0-47.1 14.8 54.2 54.2 0 0 0-20.7 44.3c0 13.4 3.8 26 10.9 36.6l.1.1a62.4 62.4 0 0 0 36.7 25.9c-.7.7-1.2 1.8-1.2 3.3 0 3.2-.4 3.7-.7 4-.3.4-.6.8-.8 1.4 0 0-.4 1.6-.2 2.8v.1c.1 1.6.5 3 1.1 4.2-2.9.9-9 2.1-9 2.1-13.3 2-31.5 4.6-31.5 29l.1 5.4.1 5.4-.2 4.7v.1l-2.4.1-.1-1-.4-5.3c0-.7-.6-1.2-1.3-1.2-.7 0-1.2.6-1.2 1.3l.4 5.3.1.8-6.5.2v-6.5c0-.7-.6-1.3-1.3-1.3-.7 0-1.3.6-1.3 1.3v6.6l-7.2.2c-.2-2.1-.4-4.2-.4-6.3 0-.7-.6-1.3-1.3-1.3-.7 0-1.3.6-1.3 1.3 0 2.2.2 4.3.4 6.3l-12.9.4c-.3 0-.7.2-.9.4-.2.2-.4.6-.3.9l.3 12.6h-8.7c-.7 0-1.3.6-1.3 1.3 0 .7.6 1.3 1.3 1.3h8.7c0 2.1 0 3.6.5 9.3l-9 .1c-.7 0-1.3.6-1.3 1.3 0 .7.6 1.3 1.3 1.3l9.2-.1.7 8.4-2.5.1c-2.1 0-4.2.1-6.3.4-.7.1-1.2.7-1.1 1.4.1.6.6 1.1 1.3 1.1h.2c1.9-.3 4-.3 6-.4l2.7-.1 1.1 12.7c.1.7.6 1.2 1.3 1.2l6.4-.1c-.1.3 0 .7.2 1l.2.6c.1.7.6 1.1 1.3 1.1h.1c.7-.1 1.2-.7 1.1-1.4l-.4-1.4 5-.1c.2 2.9.3 6.6.3 9.8 0 .7.6 1.3 1.3 1.3.7 0 1.3-.6 1.3-1.3l-.3-9.7v-.1l7.7-.1.1 2.7.2 5.5c0 .7.6 1.3 1.3 1.3.7 0 1.3-.6 1.3-1.3l-.2-5.6-.1-2.7 7-.1.5 5.6.2 2.7c.1.7.6 1.2 1.3 1.2h.1c.7-.1 1.2-.7 1.2-1.4l-.2-2.7-.5-5.4 12.8-.2c.3 0 .7-.2.9-.4.2-.3.4-.6.3-.9l-.2-5.6 3.7 3.6.2.2.6.5.1.1.4.3c4.4 3.4 9.3 3.8 13.2 3.8 2.3 0 4.7-.2 7.1-.4l6.3-.4c-.6 1.1-1.3 2.7-1.3 5.1 0 .5.3 1 .7 1.2 1.3.6 3 1.1 9.6 1.1 5.1 0 5.2-3.6 5.3-5.7l.1-1.2 8.5.5c5.1.3 10.4.6 15.6.6 10.6 0 17.1 0 20.9-5.4 3.5-5 4.6-14.2 6.8-32.7l1.4-11.3 1.3-.1 1.1 8.4c1.8 13 3.2 23.3 3.2 32l-.1 5.2v.1l-.2.4-.7.2c-6.1 4.3-46.7 18.4-55.1 18.4-4.3 0-7-1.7-9.7-3.3-2.4-1.4-4.6-2.8-7.6-2.8-2.9 0-13.7 5.4-13.9 8.7l-6.5.6c-12.6 1-23.5 1.9-25 9.1v.3c0 2 3.8 4.2 9.3 4.2 2.3 0 10.1-.5 18.1-1.6a4 4 0 0 0-.3 1.5c0 2.2 1.4 4.1 3.8 5.3l-.2 1.5c0 2.1 1.6 3.8 3.3 4.9-.2.6-.3 1.3-.3 1.9 0 6 8.6 8.4 13.3 8.4 11.4 0 20.3-10.5 24.7-16.9 6.8-2.9 13.7-4.9 20.4-6.9a115 115 0 0 0 35.7-15.2l1.3.1c3.6 0 6.7-2 9-4.8.8.5 1.4 1.1 2.1 1.8.6.7 1.3 1.4 2.2 2 2.5 1.7 4.8 3.5 7.1 5.2 4.3 3.2 8.4 6.3 13 9.1a6 6 0 0 0-.9 3.3c0 2.9 2.8 5.2 5.1 5.2 2.8 0 6.1-2.6 6.1-5.9a6.1 6.1 0 0 0-5.9-5.2z"/><path class="st1" d="M371.3 158.4c.6 0 1.2.1 1.7.4 1.5.6 2.4 1.8 2.8 3.5l.1.8c0 1.6-1.3 4.2-4.7 4.2-3.2 0-4.6-1.7-4.6-3.4v-.8c0-2.8 2.5-4.7 4.7-4.7zm-4.2 110.3l1.1 8.8c-.4.6-3.8 2.4-8.5 2.4-2.3 0-4.8-.4-7.4-1.2-.5-.2-1 0-1.4.4.3-.4.8-.6 1.4-.4l-.8-6.5c1.4.3 2.9.5 4.4.5 4.2.1 8.1-1.4 11.2-4zm-7.4 13.8c3.4 0 6.7-.9 8.8-2.1l.6 6.8-.2.1a12 12 0 0 1-7 2c-3 0-6-.7-8.4-1.4l-.9-6.4c2.5.7 4.8 1 7.1 1zm2.2 9.4c2.8 0 5.3-.6 7.4-1.8l.5 7.7h-.1a14.6 14.6 0 0 1-7.3 1.8c-2.4 0-5-.5-7.3-1.5l-.2-.1-.7-5.4-.3-2.1c2.3.8 5.1 1.4 8 1.4zm-6.6 9.1c2.3.8 4.7 1.2 7.1 1.2 2.7 0 5.3-.6 7.5-1.6l.2 7.6h-.1a15 15 0 0 1-7.7 2.3c-2.2 0-4.1-.6-5.6-1.8a.8.8 0 0 0-.5-.2l-.9-7.5zm-1.1-63.8c2.4 0 4.9.5 7.2 1.6 6 2.7 10 8.6 10 14.8 0 9.5-6.7 16.6-15.5 16.6-8.9 0-16.1-7.3-16.1-16.2 0-2.8.9-7.2 3.3-10.8 2.6-4 6.4-6 11.1-6zm7.7-89.4l-1.4 1v-.1a6.7 6.7 0 0 0-4.2-3.7c-.5-.9-1-1.7-1.6-2.4l-.7-1c-.4-.6-1.2-.7-1.8-.4-.6.4-.7 1.2-.4 1.8l.8 1.1 1.1 1.6a8.8 8.8 0 0 0-3 4.1c-1.1-.6-2.3-1.2-3.6-1.4-.7-.1-1.3.4-1.4 1.1-.1.7.4 1.3 1.1 1.4 1.1.2 2.3.8 3.2 1.4l-.3 2.7c0 1.1.2 2.3.4 3.5l-2.2 1-2.2 1c-.7.2-1 1-.7 1.6.2.5.7.8 1.2.8l.4-.1 2.5-1.1 1.8-.8c.9 2.4 2.2 4.6 3.6 5.4-.3 1.3-.8 2.6-1.4 3.9-.3.6-.1 1.4.6 1.7l.6.1c.5 0 .9-.3 1.1-.7a26 26 0 0 0 1.7-4.9c3.8-1.3 5-8.4 5-11.1l-.1-2.2-.4-1.9.4-.2.6-.4c.2 1.9.4 3.9.4 6.1 0 6.3-1.2 11.2-2.9 14.8l-1.2-2c-.3-.6-1.1-.9-1.7-.6-.6.3-.9 1.1-.6 1.7l1.3 2.2c.2.4.6.6 1.1.6a17.1 17.1 0 0 1-3.7 4.5c-4.6-.3-13.9-5.6-13.9-20.8 0-6.3 2-17.4 9.6-19.6.7-.2 1.1-.9.9-1.6-.2-.7-.9-1.1-1.6-.9-9.1 2.6-11.5 15.1-11.5 22.1 0 14.3 7.6 20.8 13.3 22.8a6 6 0 0 1-2.2.4l-1.2-.1h-.2c-8.7-1.1-13.4-12.4-13.4-23 0-17.1 10.8-24.8 13.6-24.8h.4c5.2.9 10.7 5.5 12.8 15.4z"/><path class="st1" d="M356.8 163.6l-.1-1.4c0-.7-.6-1.3-1.3-1.2-.7 0-1.2.6-1.2 1.3a16 16 0 0 1-2-7.3c0-3.8 1.9-6.8 3.1-7.3h.3l.4-.1c.8.2 1.7 1.2 2.2 2.2.6 1.2 1 2.4 1.2 3.7l.1 1.9c-.1 2.7-1.2 6.8-2.7 8.2zm-9.4-33.6c-5.3 1.3-14.9 10.5-14.9 27.2 0 14.6 6.6 23.2 14 25.2-1.8 3.3-4 6.3-6.3 9.1l-.3-.1c-11.4-.2-22.3-9.8-23.3-20.6l-.1-.3 1.7-1.3c4-3.5 6.2-8.1 6.2-13a17 17 0 0 0-7.1-14.4c1.2-12.4 11.5-21.7 19.2-27.6a57 57 0 0 1 10.9 15.8z"/><path class="st1" d="M321.8 156.2c0 8.9-8.8 15.6-16.7 15.6-8.5 0-15.9-7.6-15.9-16.3 0-6.5 4.8-12.1 9.4-13.7l1.3-.3 1.1-.3c1.4-.4 2.9-.6 4.4-.6 6.6 0 16.4 4.1 16.4 15.6zm-79.6-37.5a49.7 49.7 0 0 1 8.9 21.7c-5.8 2.2-11.3 7.1-11.3 15 0 7.4 4.3 13.6 10.8 16.4v.1c0 6.3-4.1 13.9-10.2 15.7a62.3 62.3 0 0 1-10.1-34.5 55.7 55.7 0 0 1 11.9-34.4z"/><path class="st1" d="M242.4 155.5c0-9.4 9.4-13.8 15.7-13.8 1.9 0 4.1.1 6.1.9 5 1.9 8.2 7.1 8.2 13.4 0 9-6.9 15.2-13.1 15.2-9.6-.1-16.9-6.8-16.9-15.7z"/><path class="st1" d="M249.1 198.3c-2.7-2.6-5-5.3-7.1-8.3 6.7-2.5 10.9-10.3 11.2-17.1 1.9.6 4 .9 6.1.9 7.6 0 15.6-7.1 15.6-17.8 0-7.3-3.9-13.5-9.9-15.8a19.8 19.8 0 0 0-11.4-.4c-1.1-9.1-6-17.4-9.7-23 10.6-11.8 27.5-19.9 51.6-19.9a56 56 0 0 1 39 15.5c-7.8 6-18 15.3-19.8 28a21.2 21.2 0 0 0-14.4-1.5l-1 .2-1.6.4a17.6 17.6 0 0 0-11.1 16.1c0 10 8.6 18.8 18.5 18.8 3 0 6.1-.8 9-2.3a27.3 27.3 0 0 0 25.7 22l-1.8-.1a76.1 76.1 0 0 1-49 21.2 59.6 59.6 0 0 1-39.9-16.9zm26.4 35.7c2.6 2.4 6.7 3.7 12.1 3.7 3.9 0 7.8-.8 11.5-1.5l4-.8c.7-.1 1.2-.8 1-1.5-.1-.7-.8-1.2-1.5-1l-4.1.8c-3.8.8-7.3 1.5-11 1.5-3.8 0-12.5-.8-12.5-8.2v-1c.1-.7.2-.9.4-1.1.4-.4.7-.9.9-1.7l.3.1c3.1.9 6.3 1.3 9.7 1.3 5.7 0 11.7-1.2 18.3-3.7.7-.2 1-1 .7-1.6-.2-.7-1-1-1.6-.7a49.7 49.7 0 0 1-17.4 3.6c-3.1 0-6.2-.4-9-1.2a.9.9 0 0 0-.7 0v-1.7c0-1 .3-1.5 1-2 .3-.2.5-.4.5-.7a53.7 53.7 0 0 0 31-2.7c.4.9 1 2.3 1 3.5 0 1.3-.6 1.8-1.2 2.1-.5.3-.8.8-.7 1.4.3 1.2.9 2.2 1.4 3.1.6.9 1.1 1.7 1.1 2.4 0 .9-.1.9-.7 1.1-.5.2-1.2.4-1.5 1.3-.3.9-.3 1.7-.3 2.4 0 1.2 0 1.4-.7 1.6-.7.2-1 1-.7 1.6.2.5.7.8 1.2.8l.4-.1c1.1-.4 1.7-1 2-1.7l1.1.6c-11.3 16.6-19.3 25.2-21.4 25.2-.5 0-.6-.1-1.4-.8a79.4 79.4 0 0 1-14.9-22.5l-.6-1.1 2.3-.8z"/><path class="st1" d="M270.9 235.4l.9 1.7a81.3 81.3 0 0 0 15.5 23.2c.8.8 1.6 1.5 3.1 1.5 4.9 0 17-16.7 24.3-27.4 1.4.5 3 .9 4.6 1.3-9.8 14.6-25 32.9-28 33.6-2.6-.5-16.2-13.7-23.8-33.3l3.4-.6zm-35.2 94l-.4-2.2c-.1-.7-.8-1.2-1.5-1-.7.1-1.2.8-1 1.5l.3 1.8-6.8.1v-2.5c0-.7-.5-1.3-1.2-1.3s-1.3.5-1.3 1.2v2.7l-7.8.1-.1-1.1c-.1-1.6-.2-2.6-1.5-2.6-.4 0-1.2.3-1.3 1.3v.5l.2.7.1 1.2-12.6.2-1-11.5 1.1-.1c.7-.1 1.2-.7 1.1-1.4-.1-.7-.7-1.2-1.4-1.1l-.9.1-.7-8.3 1.6-.1c.7 0 1.2-.6 1.2-1.3 0-.7-.6-1.2-1.3-1.2l-1.7.1c-.4-5.7-.5-7.3-.5-9.2h1.1c.7 0 1.3-.6 1.3-1.3 0-.7-.6-1.3-1.3-1.3h-1.1l-.2-11.4 11.7-.3.2 2.5c0 .7.6 1.2 1.3 1.2h.1c.7 0 1.2-.6 1.2-1.3l-.2-2.4 7-.2v.9c0 .7.6 1.3 1.3 1.3.7 0 1.3-.6 1.3-1.3v-1l6.7-.2.1 1.9c0 .7.6 1.2 1.3 1.2h.1c.7 0 1.2-.6 1.2-1.3l-.1-1.8 14.4-.4.6 14.4-1.6.1c-.7.1-1.2.7-1.2 1.4s.6 1.2 1.3 1.2h.1l1.5-.1.3 6.3h-1c-.7 0-1.3.6-1.2 1.3 0 .7.6 1.2 1.3 1.2h1l.3 6.7H246c-.7 0-1.3.5-1.3 1.2s.5 1.3 1.2 1.3h1.3l.6 13.7-12.1-.1z"/><path class="st1" d="M345.3 295.9c-4.3 35.8-4.3 35.8-25.2 35.8-5.1 0-10.4-.3-15.5-.6l-9.7-.5c-.6 0-1 .3-1.2.8-.3.9-.4 1.9-.4 2.9-.1 2.3-.1 3.3-2.8 3.3-4.9 0-6.8-.3-7.8-.6.2-2 1-3.1 1.5-3.9.4-.5.9-1.2.4-2.1-.5-.9-1.5-.9-2.7-.9-2.3 0-4.7.2-7 .4s-4.6.4-6.9.4c-5.7 0-9.6-1.3-12.8-4.3 0 0-3.7-3-5.7-5.8l-.2-5.4 2-.1 4.3-.2 2.9.2c.7.1 1.3-.4 1.4-1.1.1-.7-.4-1.3-1.1-1.4l-3.3-.2-4.5.2-1.9.1-.3-6.7a163.6 163.6 0 0 1 11.8 0c.7 0 1.3-.5 1.4-1.2.1-.7-.5-1.3-1.2-1.4l-4.9-.2-7.2.2-.3-6.3h11.9c.7 0 1.3-.6 1.3-1.3 0-.7-.6-1.3-1.3-1.3h-12l-.7-15.6c0-.7-.6-1.2-1.3-1.2l-10.8.3.2-4.7-.1-5.5-.1-5.3c0-22 16.1-24.5 29.1-26.4 7.7 20.5 22.4 35.4 26.4 35.4 4.7 0 23.2-24.4 30.7-35.6 4.2.8 8.8 1.3 13.4 1.7-6.1 5-10 13-10 21 0 11.4 8.6 24.7 20 25.9l1.2.1h.2c-.3 4.1-.8 7.8-1.2 11.1z"/><path class="st1" d="M346.9 282.5c-10.7-.1-19-12.7-19-23.5 0-8.2 4.4-16.3 11.2-20.7h.1l3.7.3.9.1c-4.4 4-6.5 10.3-6.5 15.3 0 7.8 4.8 14.6 11.6 17.4l1.3 10.3c-.9.5-2.4.7-3.3.8zm9.7 29.3a12 12 0 0 0 5.7 1.4 17 17 0 0 0 7.8-2l-.4 11.3c-.7-.2-1.4-.3-2.2-.3h-.3c-3.8 0-7.3 1.7-9.8 4.4v-1.5c0-4-.3-8.5-.8-13.3zm-44.4 55l-5.9 2.3-.5.5c-9.4 14-18.3 16.1-22.8 16.1-3.7 0-10.7-2-10.7-5.9l.1-1.1h-1c-.7.1-1.3-.5-1.4-1.2-.1-.7.5-1.3 1.2-1.4h1l-.1-.1c-1.4-.7-2.8-1.9-2.8-3.1 0-.4.1-.9.4-1.4l-1.2.1c-.7 0-1.3-.6-1.3-1.3 0-.6.4-1 .8-1.2-1.1-.6-2.3-1.6-2.3-3 0-.6.3-1.3 1.1-2l2.7-.5c.7-.1 1.1-.8 1-1.5-.1-.7-.8-1.1-1.5-1a174.4 174.4 0 0 1-23.7 2.6c-3.8 0-6.1-1.2-6.7-1.8 1.5-5 11.7-5.8 22.6-6.7l8.2-.8.6.1h.4l.5-.2 3.5-.5c.7-.1 1.2-.7 1.1-1.4-.1-.7-.7-1.2-1.4-1.1l-3.7.5c1.6-1.9 8.9-5.9 11-5.9 2.3 0 4.1 1.1 6.3 2.4 2.8 1.7 6 3.7 11 3.7 1.3 0 3.4-.3 6-.9l.3.3c4.6 3 7.5 7.9 7.5 12.6.1 1 0 1.9-.3 2.8-.1.7.3 1.3 1 1.5-.7-.2-1.1-.9-1-1.5z"/><path class="st1" d="M315 365.8l.1-1.7c0-5.1-2.7-10.2-7.2-13.7l8.7-2.4.3.3a20 20 0 0 1 7 14.7l-8.9 2.8zm12.5-3.8l-1 .3c-.2-5.5-2.8-11-7.1-15.1l9.2-3 .3.4c4.4 4.2 7.1 9.5 7.5 14.7l-8.9 2.7zm11.4-3.5a26.2 26.2 0 0 0-7.7-15.2l9.6-3.5c3.4 2.4 7 6.8 7 12l-.2 2.1c-.1.5.1.9.4 1.2-3.1 1.3-6.1 2.4-9.1 3.4z"/><path class="st1" d="M350.1 354.1l.2-2.3c0-5.5-3.3-10.2-6.8-13.1 4.2-1.7 7.8-3.2 10-4.4l-.2 2.3c0 5.3 3 9.9 7.3 11.8-3.4 2.2-7 4.1-10.5 5.7z"/><path class="st1" d="M365.2 346.8c-5.1 0-9.3-4.6-9.3-10.2 0-6.3 5.3-11.8 11.3-11.8h.2c1.9 0 4 1 5.5 2.5 1.7 1.7 2.3 4.7 2.3 6.8.1 5.8-4.3 12.7-10 12.7zm37.5 21.8c-1 0-2.6-1.2-2.6-2.6 0-1.7 1.2-3.3 2.6-3.5h.4c1.8 0 3.1 1.7 3.1 2.8.1 1.8-1.9 3.3-3.5 3.3zm-.3-89.2c0-.7-.6-1.3-1.3-1.3l-4.1.2-.1-3.5v-1.4c0-.7-.5-1.3-1.2-1.3s-1.3.5-1.3 1.2v1.6l.1 3.7H391c-.7 0-1.3.5-1.3 1.2s.5 1.3 1.2 1.3h1.5l2.2-.1.1 2.5v1.4c0 .7.5 1.3 1.2 1.3h.1c.7 0 1.2-.5 1.3-1.2v-1.6l-.1-2.6 4-.2c.6.1 1.2-.5 1.2-1.2zM215.3 253c0-.7-.6-1.3-1.3-1.3l-4.1.2-.1-3.5V247c0-.7-.5-1.3-1.2-1.3s-1.3.5-1.3 1.2v1.6l.1 3.7h-3.5c-.7 0-1.3.5-1.3 1.2s.5 1.3 1.2 1.3h1.5l2.2-.1.1 2.5v1.4c0 .7.5 1.3 1.2 1.3h.1c.7 0 1.2-.5 1.3-1.2V257l-.1-2.6 4-.2c.6.1 1.2-.5 1.2-1.2zm189.3-68.5c3.1 0 4.5-2.8 4.5-4.3 0-3.4-2.6-4.9-4.5-4.9-.7 0-1.7.3-2.2.6-1.2.6-2.1 2.2-2.1 3.8-.1 2.5 1.9 4.8 4.3 4.8zm-1.2-6.4a3 3 0 0 1 1.1-.3s2 .1 2 2.4c0 .2-.4 1.7-1.9 1.7-.8 0-1.9-.9-1.9-2.2 0-.9.5-1.5.7-1.6zM376 147.8l2.1.7h.1l.5.1c.5 0 1-.3 1.2-.8.3-.6 0-1.4-.7-1.7l-2.5-.9c-.7-.2-1.4.2-1.6.9-.2.9.2 1.6.9 1.7zm1.6 29.3c-.7.2-1 1-.8 1.6.2.5.7.8 1.2.8l.4-.1 2.4-1c.6-.3.9-1.1.6-1.7-.3-.6-1.1-.9-1.7-.6l-2.1 1zm10.3-17.7c.1.6.7 1 1.2 1h.3c.7-.2 1.1-.8 1-1.5l-.7-2.5c-.2-.7-1-1-1.6-.8-.7.2-1 1-.8 1.6l.6 2.2zm-30-6.1l-.2-.1v-.1c.3-.6 0-1.4-.7-1.7-.6-.3-1.4 0-1.7.7a8.7 8.7 0 0 0-.6 3.4v2c0 .7.6 1.3 1.3 1.3.7 0 1.3-.6 1.3-1.3v-.4l.1-.2.9-2c.4-.5.2-1.2-.4-1.6zm6.7 25.8c.4 0 .9-.2 1.1-.6.4-.6.1-1.4-.5-1.7l-1.9-1.3c-.5-.4-1.3-.4-1.8.2-.4.5-.4 1.3.2 1.8.7.6 1.4 1.1 2.2 1.5l.7.1zm23.8-14.4l-.4 2.2c-.2.7.2 1.4.9 1.6h.3c.6 0 1.1-.4 1.2-.9l.5-2.7c.1-.7-.5-1.3-1.2-1.4-.6 0-1.2.5-1.3 1.2zm-17.7 16.1l1.9-.1c.7-.1 1.2-.7 1.2-1.4-.1-.7-.7-1.2-1.4-1.2h-2.3c-.7 0-1.3.5-1.3 1.2s.5 1.3 1.2 1.3c.2.2.4.2.7.2zm-2.5-33h.3c.7-.2 1.5-.3 2.3-.3.7-.1 1.2-.7 1.2-1.4-.1-.7-.7-1.2-1.4-1.2l-2.6.4c-.7.2-1.1.8-1 1.5.1.6.7 1 1.2 1zm19.5 25.2c.4-.6.3-1.4-.2-1.8-.6-.4-1.4-.3-1.8.2l-1.5 1.7c-.5.5-.5 1.3-.1 1.8.3.3.6.4.9.4l.9-.3a36 36 0 0 0 1.8-2zm-3.1-20.2c.3.3.6.4.9.4.3 0 .6-.1.9-.4.5-.5.5-1.3 0-1.8l-2-1.8c-.6-.4-1.4-.3-1.8.2-.4.6-.3 1.4.2 1.8.7.5 1.3 1 1.8 1.6zM413 316.7c.7 0 1.3-.6 1.3-1.3 0-.9-.1-1.9-.4-2.9-.2-.7-.9-1.1-1.6-.9-.7.2-1.1.9-.9 1.6l.3 2.2 1.3.1h-1.3c0 .7.6 1.2 1.3 1.2zm-20-4.5l.4.1c.5 0 1-.4 1.2-.9.2-.8.6-1.5 1-2.1a1.3 1.3 0 1 0-2.2-1.4 13 13 0 0 0-1.2 2.7c-.2.6.1 1.3.8 1.6zm15.3-7.5c-.6-.4-1.4-.2-1.8.3-.4.6-.2 1.4.3 1.8l1.8 1.5c.3.3.6.4.9.4l.9-.3c.5-.5.5-1.3.1-1.8a10 10 0 0 0-2.2-1.9zm1.1 15.3c-.6.5-1.2 1-1.9 1.3-.6.3-.9 1.1-.5 1.7.2.4.7.7 1.1.7l.6-.1c.9-.5 1.7-1 2.5-1.7.5-.5.5-1.3.1-1.8-.5-.6-1.3-.6-1.9-.1zm-10.3-14.2l.5-.1c.7-.3 1.4-.4 2.2-.5v-1.3l-.1-1.3-3 .6c-.7.3-1 1-.7 1.6.1.7.6 1 1.1 1zm0 18.4c.9.3 1.9.5 2.9.6h.1c.7 0 1.2-.5 1.3-1.2.1-.7-.5-1.3-1.2-1.4-.8-.1-1.6-.2-2.3-.5-.7-.2-1.4.1-1.6.8-.2.8.1 1.5.8 1.7zm-6.9-6.7c.3 1 .8 1.9 1.4 2.7.2.4.6.5 1 .5l.7-.2c.6-.4.7-1.2.3-1.8-.4-.6-.8-1.3-1-2-.2-.7-.9-1-1.6-.8-.7.2-1.1.9-.8 1.6zM174 278.1h-1c-.5 0-.9.2-1.1.4l-.1.1.6 1.1-.6-1.1c-1.2.6-1.3 2.7-1.3 2.7 0 1.9 1.8 3.2 3.4 3.2 2 0 3.4-1.8 3.4-3.3 0-1.5-1.3-3.1-3.3-3.1zm-.1 3.8c-.4 0-.9-.3-.9-.6l.1-.6.1-.1h.7c.6 0 .8.4.8.5 0 .2-.2.8-.8.8zm-.4-30l1.3.1-1.3-.1c0 .7.5 1.3 1.2 1.3s1.3-.6 1.3-1.3c0-.9-.1-1.9-.4-2.9-.2-.7-.9-1.1-1.6-.9-.7.2-1.1.9-.9 1.6.3.7.4 1.4.4 2.2zm-18.7-3.3l.4.1c.5 0 1-.4 1.2-.9.2-.8.6-1.5 1-2.1a1.3 1.3 0 1 0-2.2-1.4 13 13 0 0 0-1.2 2.7c-.3.7.1 1.4.8 1.6zm15.7-3.8c.3.3.6.4.9.4l.9-.3c.5-.5.5-1.3.1-1.8a13 13 0 0 0-2.2-1.9c-.6-.4-1.4-.2-1.8.3-.4.6-.2 1.4.3 1.8l1.8 1.5zm2.4 13.5c.5-.5.5-1.3.1-1.8-.5-.5-1.3-.5-1.8-.1-.6.5-1.2 1-1.9 1.3-.6.3-.9 1.1-.5 1.7.2.4.7.7 1.1.7l.6-.1a8 8 0 0 0 2.4-1.7zm-11.6-16.1c.7-.3 1.4-.4 2.2-.5v-1.3l-.1-1.3-3 .6c-.7.3-1 1-.7 1.6.2.5.7.8 1.2.8.1.2.3.2.4.1zm2.7 16.6c-.8-.1-1.6-.2-2.3-.5-.7-.2-1.4.1-1.6.8-.2.7.1 1.4.8 1.6.9.3 1.9.5 2.9.6h.1c.7 0 1.2-.5 1.3-1.2 0-.6-.5-1.2-1.2-1.3zm-7.7-5.7c-.2-.7-.9-1-1.6-.8-.7.2-1 .9-.8 1.6.3 1 .8 1.9 1.4 2.7.2.4.6.5 1 .5l.7-.2c.6-.4.7-1.2.3-1.8l-1-2zm142.2-100.7c-.9.8-1.4 2-1.4 3.4 0 3 2.3 6.8 4.9 6.8.6 0 1.8-.2 2.5-1.8.5-1 .7-2.3.7-4.2 0-.7-.6-1.3-1.3-1.3-.7 0-1.3.6-1.3 1.3 0 2.9-.6 3.4-.7 3.4-.6 0-2.3-2.1-2.3-4.3 0-1 .3-2.3 3.1-2.3 3.1 0 5.8 2.6 5.8 5.6l-.1 1c-.1.7.3 1.4 1 1.5.7.1 1.4-.3 1.5-1l.2-1.5c0-4.4-3.8-8.1-8.4-8.1-1.7.1-3.2.6-4.2 1.5zm-43.7 1.1c3.3 0 5.8 2.3 6.1 5.8 0 .5.4.9.8 1.1.5.2 1 .1 1.3-.3l.3-.3c.5-.5.5-1.3 0-1.8l-.1-.1a8.5 8.5 0 0 0-8.5-6.9c-2.9 0-4.6 1.9-4.6 5.2 0 3.3 2.1 5.4 5.3 5.4 1.3 0 2.2-1.1 2.2-2.6l-.2-1.6-.2-1c0-.7-.6-1.3-1.3-1.3-.7 0-1.3.6-1.3 1.3l.2 1.6.2 1c-2.1-.2-2.4-2.1-2.4-2.9.2-2.6 1.6-2.6 2.2-2.6zm48 32.4v-.5c0-.7-.6-1.3-1.3-1.2-.7 0-1.2.6-1.2 1.3v.3c0 4.1-3.8 5.9-7.4 5.9a9 9 0 0 1-4.7-1.3 1.3 1.3 0 1 0-1.4 2.2c1.7 1.1 3.8 1.7 6.1 1.7 4.9 0 9.9-2.9 9.9-8.4zm6.3 40.2c-.2-.7-.9-1-1.6-.8a55.5 55.5 0 0 1-30.3.8c-.7-.2-1.4.2-1.6.9-.2.7.2 1.4.9 1.6a56.6 56.6 0 0 0 31.8-.9c.7-.2 1.1-.9.8-1.6z"/><path d="M412.1 348c2 0 3.4-1.8 3.4-3.3 0-1.5-1.3-3.1-3.3-3.1h-1c-.5 0-.9.2-1.1.4l-.1.1.6 1.1-.6-1.1c-1.2.6-1.3 2.7-1.3 2.7 0 1.9 1.7 3.2 3.4 3.2zm-.8-3.7l.1-.1h.7c.6 0 .8.4.8.5 0 .1-.2.8-.9.8-.4 0-.9-.3-.9-.6l.2-.6zm-185-14.7l.1 2.5 7-.1-.3-2.5-6.8.1zm-27.4-21.9l-2.6.1.7 8.4 2.5-.2-.6-8.3zm29.6-26.7l-.2-2.5-6.5.2v2.5l6.7-.2zm-16.2.5l7-.2v-2.5l-7.2.2v.4l.2 2.1zm34.1 22.3l2.1-.1h.4l-.3-6.3-2.5.1.3 6.3zm-48.2-7.9h-2.5c0 2.1 0 3.6.5 9.3l2.6-.1c-.6-5.7-.6-7.2-.6-9.2zm-.2-14l11.7-.3-.2-2v-.5l-12.9.4c-.3 0-.7.2-.9.4-.2.2-.4.6-.3.9l.3 12.6h2.5l-.2-11.5zm36.5-2.2h-.1c-.7-.1-1.2-.6-1.1-1.3l-2.4.1.2 2.5 14.4-.4.6 14.4 2.5-.1-.7-15.6c0-.7-.6-1.2-1.3-1.2l-10.8.3v.2c-.1.6-.6 1.1-1.3 1.1zM200.8 330l-1-11.5-2.5.2 1.1 12.7c.1.7.6 1.2 1.3 1.2l6.4-.1c.1-.3.2-.6.5-.7.6-.4 1.4-.2 1.8.4l.2.4 5-.1-.2-2.5h-12.6zm46.1-14.5l.6 13.7-11.8.2.3 2.5 12.8-.2c.3 0 .7-.2.9-.4.2-.2.4-.6.3-.9l-.6-15-2.5.1zm-31 14.2l.2 2.5 7.7-.1v-2.5l-7.9.1zm30.6-23.4l.3 6.7 2.5-.1-.3-6.7h-.4l-2.1.1zm-34.1-13.1c-.7 0-1.2.6-1.2 1.3v2.8l-.1 7.8-.1 7.9.1 4.5c0 .7.6 1.2 1.3 1.2h7.5c4.2 0 9.2 0 14.2.2.3 0 .7-.1.9-.4.3-.3.4-.6.4-.9l-.1-8.9v-15.4c0-.4-.2-.7-.4-.9-.3-.2-.6-.4-1-.3l-10.7.6c-3.5.1-7.1.2-10.8.5zm20.4 1.5v14l.1 7.6-12.9-.2h-6.2v-3.2l.1-7.8.1-7.8v-1.6l9.6-.5 9.2-.5z"/><path d="M199.3 295.9c.7 0 1.3-.6 1.3-1.3s-.6-1.3-1.3-1.3H187c-.7 0-1.3.6-1.3 1.3s.6 1.3 1.3 1.3h12.3zm1.2 11.7c.7 0 1.2-.6 1.2-1.3 0-.7-.6-1.2-1.3-1.2l-1.7.1-2.6.1-9 .1c-.7 0-1.3.6-1.3 1.3s.6 1.3 1.3 1.3l9.2-.1 2.6-.1c.5-.2 1.1-.2 1.6-.2zm.4 10.8c.7-.1 1.2-.7 1.1-1.4-.1-.7-.7-1.2-1.4-1.1l-.9.1-2.5.2-2.5.1c-2.1 0-4.2.1-6.3.4-.7.1-1.2.7-1.1 1.4.1.6.6 1.1 1.3 1.1h.2c1.9-.3 4-.3 6-.4l2.7-.1 2.5-.2.9-.1zm8.8-36.8l.2 2.5c0 .7.6 1.2 1.3 1.2h.1c.7 0 1.2-.6 1.2-1.3l-.2-2.4-.2-2.2v-.4c-.2-2.1-.4-4.2-.4-6.3 0-.7-.6-1.3-1.3-1.3-.7 0-1.3.6-1.3 1.3 0 2.2.2 4.3.4 6.3v.5l.2 2.1zm9.6.6c0 .7.6 1.3 1.3 1.3.7 0 1.3-.6 1.3-1.3v-10c0-.7-.6-1.3-1.3-1.3-.7 0-1.3.6-1.3 1.3v10zm9.3.7c0 .7.6 1.2 1.3 1.2h.1c.7 0 1.2-.6 1.2-1.3l-.1-1.8-.2-2.5-.1-1-.4-5.3c0-.7-.6-1.2-1.3-1.2-.7 0-1.2.6-1.2 1.3l.4 5.3.1.8.2 2.5v2zm15.8 12.1c-.7.1-1.2.7-1.2 1.4s.6 1.2 1.3 1.2h.1l1.5-.1 2.5-.1h11.9c.7 0 1.3-.6 1.3-1.3 0-.7-.6-1.3-1.3-1.3h-12l-2.5.1-1.6.1zm2 8.8h-1c-.7 0-1.3.6-1.2 1.3 0 .7.6 1.2 1.3 1.2h1l2.1-.1h.4a163.6 163.6 0 0 1 11.8 0c.7 0 1.3-.5 1.4-1.2.1-.7-.5-1.3-1.2-1.4l-4.9-.2-7.2.2h-.4l-2.1.2zm.4 9.2h-1.1c-.7 0-1.3.5-1.3 1.2s.5 1.3 1.2 1.3h1.3l2.5-.1 2-.1 4.3-.2 2.9.2c.7.1 1.3-.4 1.4-1.1.1-.7-.4-1.3-1.1-1.4l-3.3-.2-4.5.2-1.9.1-2.4.1zm-31 15.7c-.1-1.6-.2-2.6-1.5-2.6-.4 0-1.2.3-1.3 1.3v.5l.2.7.1 1.2.2 2.5c.2 2.9.3 6.6.3 9.8 0 .7.6 1.3 1.3 1.3.7 0 1.3-.6 1.3-1.3l-.3-9.7v-.1l-.2-2.5-.1-1.1zm10.5.5v-2.1c0-.7-.5-1.3-1.2-1.3s-1.3.5-1.3 1.2v5.2l.1 2.7.2 5.5c0 .7.6 1.3 1.3 1.3.7 0 1.3-.6 1.3-1.3l-.2-5.6-.1-2.7-.1-2.5v-.4zm9-2c-.1-.7-.8-1.2-1.5-1-.7.1-1.2.8-1 1.5l.3 1.8.3 2.5.5 5.6.2 2.7c.1.7.6 1.2 1.3 1.2h.1c.7-.1 1.2-.7 1.2-1.4l-.2-2.7-.5-5.4-.3-2.5-.4-2.3zm38.1-92.4l-.7-1.4c-.3-.6-1.1-.9-1.7-.5-.6.3-.9 1.1-.5 1.7l.4.9-3.5.6-.5-1.5c-.2-.7-1-1-1.6-.8-.7.2-1 1-.8 1.6l.4 1c-13 1.9-29.1 4.4-29.1 26.4l.1 5.3.1 5.5-.2 4.7v.2c-.1.7-.6 1.2-1.3 1.2h-.1c-.7-.1-1.2-.6-1.1-1.3v-.1l.2-4.7-.1-5.4-.1-5.4c0-24.3 18.2-27 31.5-29 0 0 10.1-1.9 10.6-2.8.6.9 1.3 2.6 1.3 2.6l-3.3 1.2zM343 236c-8.8-.7-20.3-1.6-27.9-4.1.4.4.5 1.1.1 1.6l-.6 1c1.4.5 3 .9 4.6 1.3l1-1.5c.4-.6 1.2-.7 1.8-.4.6.4.7 1.2.4 1.8l-.4.6c4.2.8 8.8 1.3 13.4 1.7l2.4-1.8c.6-.4 1.4-.2 1.8.4.4.6.2 1.3-.3 1.7l3.7.3.9.1a15 15 0 0 1 3.3-2.3l-4.2-.4zm-5.3-24a5.3 5.3 0 0 0-5.1 5.2c0 3.4 3.4 4.8 5.3 4.8 2 0 4.9-2.3 4.9-5.5v-.4a3 3 0 0 0-.6-1.8 5.9 5.9 0 0 0-4.5-2.3zm.1 7.4c-.4 0-2.7-.4-2.7-2.2 0-1.4 1.3-2.7 2.6-2.7.9 0 1.7.4 2.4 1.3l.1.2v.4c-.1 1.9-1.9 3-2.4 3zm26.4-.7h6.3l3.8-.1c.7 0 1.2-.6 1.2-1.3l-.1-6.7v-3.1c0-.4-.2-.7-.4-.9-.3-.2-.6-.4-1-.3-2.9.3-6.1.5-10 .5-.3 0-.7.1-.9.4-.2.2-.4.6-.3.9l.2 9.3c-.1.8.5 1.3 1.2 1.3zm8.6-9.7v7.3h-7.3l-.1-6.8 7.4-.5zm12.2 9.5c.2.2.6.4.9.4h4.5l4.9-.2c.7-.1 1.2-.6 1.2-1.3v-8.8c0-.4-.1-.7-.4-.9-.3-.2-.6-.4-1-.3-2.7.2-5.6.2-9.2 0-.4 0-.7.1-1 .4-.3.2-.4.6-.4.9v8.9l.5.9zm9-8.4v6.2l-3.6.1h-3.3V210c2.6.2 4.8.2 6.9.1zm24.6 7.7l-.2-5.4-.2-4.9v-.6c0-.4-.1-.7-.4-.9-.3-.2-.6-.4-1-.3-3 .2-6.3.2-9.6.1-.4 0-.7.1-1 .4-.2.3-.4.6-.4 1l.6 7.7.3 3.1c.1.7.6 1.2 1.3 1.2l2.7.1 3.8.1 2.8-.1c.7-.2 1.3-.9 1.3-1.5zm-4.1-1.2l-3.8-.1h-1.5l-.2-2-.5-6.2 7.1-.1.2 4.3.2 4.1h-1.5zm-225.3 13.2h6.3l3.8-.1c.7 0 1.2-.6 1.2-1.3l-.1-6.7v-3.1c0-.4-.2-.7-.4-.9-.3-.2-.6-.4-1-.3-2.9.3-6.1.5-10 .5-.3 0-.7.1-.9.4-.2.2-.4.6-.3.9l.2 9.3c-.1.8.5 1.3 1.2 1.3zm8.6-9.7v7.3h-7.3l-.1-6.8 7.4-.5zm12.2 9.5c.2.2.6.4.9.4h4.5l4.9-.2c.7-.1 1.2-.6 1.2-1.3v-8.8c0-.4-.1-.7-.4-.9-.3-.2-.6-.4-1-.3-2.7.2-5.6.2-9.2 0-.4 0-.7.1-1 .4-.3.2-.4.6-.4.9v8.9l.5.9zm9-8.4v6.2l-3.6.1h-3.3v-6.4c2.6.2 4.8.2 6.9.1zm24.6 7.6l-.2-5.4-.2-4.9v-.6c0-.4-.1-.7-.4-.9-.3-.2-.6-.4-1-.3-3 .2-6.3.2-9.6.1-.4 0-.7.1-1 .4-.2.3-.4.6-.4 1l.6 7.7.3 3.1c.1.7.6 1.2 1.3 1.2l2.7.1 3.8.1 2.8-.1c.7-.2 1.3-.8 1.3-1.5zm-4.1-1.1l-3.8-.1h-1.5l-.2-2-.5-6.2 7.1-.1.2 4.3.2 4.1h-1.5zm164.8 23.6c0-.5-.4-1-.9-1.2-4-1.4-7-4-8.4-7.5-.2-.5-.7-.8-1.2-.8s-1 .4-1.2.9c-1 3.2-2.7 5.4-5 6.6-.5.3-.7.8-.7 1.3.1.5.5 1 1 1.1a10 10 0 0 1 7.3 5.6c.2.4.6.7 1.1.7.5 0 .9-.3 1.1-.7 1.6-2.9 4-4.2 6-4.9.6 0 .9-.5.9-1.1zm-7.8 3.1a13 13 0 0 0-5.4-4.4c1.2-1 2.2-2.4 2.9-3.9 1.5 2.2 3.5 4 5.9 5.3-1.1.7-2.4 1.7-3.4 3zm-179-78.8c0-.5-.4-1-.9-1.2-4-1.4-7-4-8.4-7.5-.2-.5-.7-.8-1.2-.8s-1 .4-1.2.9c-1 3.2-2.7 5.4-5 6.6-.5.3-.7.8-.7 1.3.1.5.5 1 1 1.1a10 10 0 0 1 7.3 5.6c.2.4.6.7 1.1.7.5 0 .9-.3 1.1-.7 1.6-2.9 4-4.2 6-4.9.6 0 .9-.5.9-1.1zm-7.8 3.1a13 13 0 0 0-5.4-4.4c1.2-1 2.2-2.4 2.9-3.9 1.5 2.2 3.5 4 5.9 5.3-1.1.7-2.4 1.7-3.4 3z"/><path d="M322 233.8c-.6-.4-1.4-.2-1.8.4l-1 1.5c-9.8 14.6-25 32.9-28 33.6-2.6-.5-16.2-13.7-23.8-33.3l-.5-1.5c-.2-.7-1-1-1.6-.8-.7.2-1 1-.8 1.6l.4 1c7.7 20.5 22.4 35.4 26.4 35.4 4.7 0 23.2-24.4 30.7-35.6l.4-.6c.3-.5.1-1.3-.4-1.7z"/><path d="M313.1 232.1l-1 1.5c-11.5 16.9-19.7 25.8-21.8 25.8-.5 0-.6-.1-1.4-.8a79.4 79.4 0 0 1-14.9-22.5l-.6-1.1-.7-1.4c-.3-.6-1.1-.9-1.7-.5-.6.3-.9 1.1-.5 1.7l.4.9.9 1.7a81.3 81.3 0 0 0 15.5 23.2c.8.8 1.6 1.5 3.1 1.5 4.9 0 17-16.7 24.3-27.4l.6-1c.3-.5.3-1.2-.1-1.6l-.2-.2c-.3-.2-.6-.2-.8-.2-.5-.2-.9 0-1.1.4zm36.8 37.7c.7-.1 1.3.4 1.4 1.1l.2 1.4c1.4.3 2.9.5 4.4.5a17 17 0 0 0 11.2-4.1l-.2-1.5c-.1-.7.4-1.3 1.1-1.5.6-.1 1.2.3 1.4.8a19.2 19.2 0 0 0-6.9-30.1 19.9 19.9 0 0 0-8.2-1.8 15.4 15.4 0 0 0-10.6 4c-4.4 4-6.5 10.3-6.5 15.3 0 7.8 4.8 14.6 11.6 17.4v-.2c-.1-.6.4-1.3 1.1-1.3zM339.7 254c0-2.8.9-7.2 3.3-10.8 2.7-4 6.4-6 11.2-6 2.4 0 4.9.5 7.2 1.6 6 2.7 10 8.6 10 14.8 0 9.5-6.7 16.6-15.5 16.6-9 0-16.2-7.3-16.2-16.2z"/><path d="M368.3 254c0-7.6-6-10.8-9.2-10.8h-.2c-5.7.4-9.2 6.4-9.2 12.1 0 8.1 5.6 11.1 9.2 11.1 4.6 0 9.4-4.3 9.4-12.4zm-16 1.3c0-3.8 2.1-9.2 6.8-9.5 1.8 0 6.7 1.9 6.7 8.2 0 6.4-3.5 9.9-6.9 9.9-2.5 0-6.6-2.3-6.6-8.6z"/><path d="M363.1 254.3c0-2.6-1.8-3-2.4-3l-.9.1c-.5-.1-1 0-1.3.4-.6.7-.9 1.5-.9 2.3 0 1.5 1 3.6 2.9 3.6 1.2.1 2.6-.5 2.6-3.4zm-2.9.1l.3-.5v.4l-.1.8-.2-.7zm-36.6 34c0-6.9-6.2-11-12.2-11h-.6a11 11 0 0 0-9.8 6.1l.3-.4c.5-.5 1.3-.4 1.8.1l.6.7a8.6 8.6 0 0 1 7.2-3.9h.5c3.2 0 5.6 1.1 7.2 2.8l.7-.8c.5-.5 1.3-.6 1.8-.1s.6 1.3.1 1.8l-1.1 1.3c.6 1.1.9 2.4.9 3.6 0 5.2-4.5 9.6-9.8 9.6-6.1 0-8.9-5.5-8.9-9.4l.2-2.1-1.5-1.6c-.4-.4-.4-.9-.2-1.4-.7 1.4-1.1 3.2-1.1 5.1 0 5 3.5 11.9 11.4 11.9 7-.2 12.5-5.6 12.5-12.3z"/><path d="M301.2 284.9l1.5 1.6.6.7c4.6 5.3 6.8 7.6 8.6 7.6 1.5 0 3-2 5.7-6.2.6-.9 1.1-1.8 1.5-2.2l1.2-1.5 1.1-1.3c.5-.5.4-1.3-.1-1.8s-1.3-.4-1.8.1l-.7.8-1.7 2.1-1.6 2.4c-.9 1.4-2.8 4.3-3.6 5-1.2-.6-4.6-4.3-6.6-6.7l-1.5-1.7-.6-.7c-.5-.5-1.3-.6-1.8-.1l-.3.4c-.3.5-.3 1.1.1 1.5z"/><path d="M310.3 287h.2c.7-.1 1.2-.8 1-1.5-.2-.9-.2-1.7-.2-2.7 0-.7-.6-1.3-1.3-1.3-.7 0-1.3.6-1.3 1.3 0 1.1 0 2 .2 3.1.3.7.8 1.1 1.4 1.1zm29.1-50.4c-.4-.6-1.2-.8-1.8-.4a27.8 27.8 0 0 0-12.4 22.8c0 11.9 9.3 25.7 21.4 26l.1-.5c.1-.7.7-1.2 1.4-1.1.3 0 .6.2.8.4v-.3c-.1-.7-.8-1.2-1.5-1h-.4c-10.8 0-19.2-12.6-19.2-23.5 0-8.2 4.4-16.3 11.2-20.7h.1c.6-.4.7-1.2.3-1.7zm28.5 29.1c-.7.1-1.2.8-1.1 1.5l.2 1.5 1.1 8.8c.3-.6 1.1-.9 1.7-.5.6.3.9 1.1.6 1.7-.3.6-1 1.2-2 1.7l.6 6.8c.6-.3 1.2-.1 1.6.4.4.6.3 1.4-.3 1.8l-1.1.6.5 7.7c.6-.3 1.3-.1 1.6.5.3.6.1 1.4-.5 1.7l-1 .5.2 7.6c.6-.3 1.3-.1 1.7.5.4.6.2 1.4-.4 1.8l-1.2.7-.4 11.3c.9.2 1.7.5 2.5 1a238.8 238.8 0 0 0-2.8-56.7l-.1-.3c-.2-.3-.8-.7-1.4-.6zm-10.5 59.5c0-4.1-.3-8.5-.8-13.4l-1.4-.9c-.6-.4-.7-1.2-.2-1.8.3-.4.8-.6 1.3-.5l-1-7.6-1.2-.4c-.7-.3-1-1-.7-1.7.2-.6.9-.9 1.5-.7l-.7-5.4-.3-2.1a5 5 0 0 1-1.3-.4c-.7-.2-1.1-.9-.9-1.6.2-.7.9-1.1 1.6-.9l.2.1-.9-6.4-1.1-.3c-.7-.2-1-.9-.8-1.6.2-.7.9-1 1.6-.8l-.8-6.5-.2-1.4c-.1-.7-.7-1.2-1.4-1.1-.7.1-1.2.7-1.1 1.4v.2c.9 8 2 15.3 2.9 21.8 1.8 13 3.2 23.3 3.2 32l-.1 5.2v.1a17 17 0 0 1 2.6-3.8v-1.5z"/><path d="M355.6 331.4c.4.6.3 1.4-.3 1.8l-1.8 1.1-.2 2.3c0 5.3 3 9.9 7.3 11.8l2-1.3c.6-.4 1.4-.3 1.8.3.4.6.3 1.4-.3 1.8l-.2.1 1.3.1c3.6 0 6.7-2 9-4.8l-.2-.1c-.6-.3-.9-1.1-.6-1.7.3-.6 1.1-.9 1.7-.6l.5.3c1.5-2.6 2.3-5.5 2.3-8.3 0-2.7-.8-6.3-3.1-8.6-.8-.8-1.7-1.4-2.6-2-.8-.4-1.6-.8-2.5-1-.7-.2-1.4-.3-2.2-.3h-.3c-3.8 0-7.3 1.7-9.8 4.4a14.2 14.2 0 0 0-2.6 3.8l-.2.4c.4 0 .8.2 1 .5zm11.6-6.6h.2c1.9 0 4 1 5.5 2.5 1.7 1.7 2.3 4.7 2.3 6.8 0 5.9-4.4 12.7-10.1 12.7-5.1 0-9.3-4.6-9.3-10.2.1-6.3 5.4-11.8 11.4-11.8z"/><path d="M366.9 342.5c2.4 0 5-2.3 5-6 0-1.8-1.1-3.6-3.1-3.6-1.1 0-2.2.4-2.8 1.1-.5.6-2.2 2.6-2.2 4.9 0 1.7 1.2 3.6 3.1 3.6zm1-6.9c.1-.1.4-.2.9-.2s.6.9.6 1.1c0 2.4-1.5 3.5-2.4 3.5-.3 0-.6-.6-.6-1.1-.1-1.1.7-2.4 1.5-3.3zm-86.4 10.3c2.3 0 4.1 1.1 6.3 2.4 2.8 1.7 6 3.7 11 3.7 1.3 0 3.4-.3 6-.9-.3-.4-.3-1 0-1.5.4-.6 1.2-.8 1.8-.4l1.5 1.1 8.7-2.4c-.3-.5-.2-1 .2-1.5.5-.5 1.3-.6 1.8-.1l.8.7 9.2-3c-.2-.5-.1-1 .3-1.4.5-.5 1.3-.5 1.8 0l.5.5 9.6-3.5c-.5-.4-.7-1.2-.3-1.7.4-.6 1.2-.7 1.8-.3l1.2 1c4.2-1.7 7.8-3.2 10-4.4l1.8-1.1c.6-.4.7-1.2.3-1.8-.3-.4-.7-.5-1.1-.5l-.7.2c-6.1 4.3-46.7 18.4-55.1 18.4-4.3 0-7-1.7-9.7-3.3-2.4-1.4-4.6-2.8-7.6-2.8-2.9 0-13.7 5.4-13.9 8.7l2.8-.3c1.6-1.8 8.9-5.8 11-5.8zm-10.9 8.6l.5-.2-1.5.2.6.1.4-.1z"/><path d="M266.8 362.3c.5.5.5 1.3 0 1.8l2.7-.5c.7-.1 1.1-.8 1-1.5-.1-.7-.8-1.1-1.5-1a174.4 174.4 0 0 1-23.7 2.6c-3.8 0-6.1-1.2-6.7-1.8 1.5-5 11.7-5.8 22.6-6.7l8.2-.8 1.5-.2 3.5-.5c.7-.1 1.2-.7 1.1-1.4-.1-.7-.7-1.2-1.4-1.1l-3.7.5-2.8.3-6.5.6c-12.6 1-23.5 1.9-25 9.1v.3c0 2 3.8 4.2 9.3 4.2 2.3 0 10.1-.5 18.1-1.6.3-.8.8-1.5 1.6-2.3.4-.5 1.2-.5 1.7 0z"/><path d="M363.9 349.2l.2-.1c.6-.4.7-1.2.3-1.8-.4-.6-1.2-.7-1.8-.3l-2 1.3c-3.5 2.3-7 4.2-10.5 5.8v.3c-.1.6-.7 1-1.2 1h-.2l-.6-.3a112 112 0 0 1-9.1 3.4l.1 1.2c0 .7-.5 1.3-1.2 1.3h-.1c-.7 0-1.2-.5-1.3-1.2v-.5l-8.9 2.7-1 .3v.9c0 .7-.6 1.3-1.3 1.3-.7 0-1.3-.6-1.3-1.3v-.1l-8.9 2.8-.3 1.5c-.1.6-.7 1-1.2 1h-.3c-.7-.2-1.1-.8-1-1.5l-5.9 2.3-.5.5c-9.4 14-18.3 16.1-22.8 16.1-3.7 0-10.7-2-10.7-5.9l.1-1.1h-1c-.7.1-1.3-.5-1.4-1.2-.1-.7.5-1.3 1.2-1.4h1l-.1-.1c-1.4-.7-2.8-1.9-2.8-3.1 0-.4.1-.9.4-1.4l-1.2.1c-.7 0-1.3-.6-1.3-1.3 0-.6.4-1 .8-1.2-1.1-.6-2.3-1.6-2.3-3 0-.6.3-1.3 1.1-2 .5-.5.5-1.3 0-1.8s-1.3-.5-1.8 0c-.8.8-1.3 1.5-1.6 2.3a4 4 0 0 0-.3 1.5c0 2.2 1.4 4.1 3.8 5.3l-.2 1.5c0 2.1 1.6 3.8 3.3 4.9-.2.6-.3 1.3-.3 1.9 0 6 8.6 8.4 13.3 8.4 11.4 0 20.3-10.5 24.7-16.9 6.8-2.9 13.7-4.9 20.4-6.9 11.6-3.4 23.7-6.9 35.7-15.2z"/><path d="M307.9 350.4l-1.5-1.1c-.6-.4-1.4-.2-1.8.4-.3.5-.3 1 0 1.5l.3.3c4.6 3 7.5 7.9 7.5 12.6l-.3 2.7c-.1.7.3 1.4 1 1.5h.3c.6 0 1.1-.4 1.2-1l.3-1.5.1-1.7c.1-5.1-2.6-10.2-7.1-13.7zm11.5-3.3l-.8-.7c-.5-.5-1.3-.4-1.8.1-.4.4-.4 1-.2 1.5l.3.3a20 20 0 0 1 7 14.7v.1c0 .7.6 1.3 1.3 1.3.7 0 1.3-.6 1.3-1.3v-.9a23.7 23.7 0 0 0-7.1-15.1zm11.2-4.4c-.5-.5-1.3-.5-1.8 0-.4.4-.4.9-.3 1.4l.3.4c4.4 4.2 7.1 9.5 7.5 14.7v.5c0 .7.6 1.2 1.3 1.2h.1c.7 0 1.2-.6 1.2-1.3l-.1-1.2a26.2 26.2 0 0 0-7.7-15.2l-.5-.5zm13-4l-1.2-1c-.6-.4-1.4-.3-1.8.3-.4.6-.3 1.3.3 1.7 3.4 2.4 7 6.8 7 12l-.2 2.1c-.1.5.1.9.4 1.2l.6.3h.2c.6 0 1.1-.4 1.2-1v-.3l.2-2.3c0-5.4-3.3-10.1-6.7-13zm24.9-58.2c1-.5 1.7-1.1 2-1.7.3-.6.1-1.4-.6-1.7-.6-.3-1.4-.1-1.7.5-.4.6-3.8 2.4-8.5 2.4-2.3 0-4.8-.4-7.4-1.2-.7-.2-1.4.2-1.6.8-.2.7.2 1.4.8 1.6l1.1.3c2.4.7 4.8 1 7.1 1a20 20 0 0 0 8.8-2zm.8 9.6l1.1-.6c.6-.4.7-1.2.3-1.8-.4-.5-1-.7-1.6-.4l-.2.1a12 12 0 0 1-7 2c-3 0-6-.7-8.4-1.4l-.2-.1c-.7-.2-1.4.2-1.6.9-.2.7.2 1.4.9 1.6l1.3.4c2.4.6 5.2 1.2 8 1.2a16 16 0 0 0 7.4-1.9zm.6 10.5l1-.5c.6-.3.8-1.1.5-1.7-.3-.6-1-.8-1.6-.5h-.1a14.6 14.6 0 0 1-7.3 1.8c-2.4 0-5-.5-7.3-1.5l-.2-.1c-.6-.2-1.2.2-1.5.7-.3.7 0 1.4.7 1.7l1.2.4c2.3.8 4.7 1.2 7.1 1.2 2.7.2 5.2-.4 7.5-1.5zm.2 10.6l1.2-.7c.6-.4.8-1.2.4-1.8-.4-.6-1.1-.8-1.7-.5h-.1a15 15 0 0 1-7.7 2.3c-2.2 0-4.1-.6-5.6-1.8a.8.8 0 0 0-.5-.2c-.5-.1-1 0-1.3.5-.4.6-.3 1.4.2 1.8l1.4.9a12 12 0 0 0 5.7 1.4c2.8.1 5.6-.6 8-1.9zm-22-27.8c-.7-.1-1.3.4-1.4 1.1l-.1.5-1.3 10.9c-4.3 35.8-4.3 35.8-25.2 35.8-5.1 0-10.4-.3-15.5-.6l-9.7-.5c-.6 0-1 .3-1.2.8-.3.9-.4 1.9-.4 2.9-.1 2.3-.1 3.3-2.8 3.3-4.9 0-6.8-.3-7.8-.6.2-2 1-3.1 1.5-3.9.4-.5.9-1.2.4-2.1-.5-.9-1.5-.9-2.7-.9-2.3 0-4.7.2-7 .4s-4.6.4-6.9.4c-5.7 0-9.6-1.3-12.8-4.3-.5-.5-1.3-.5-1.8.1-.5.5-.5 1.3.1 1.8a20 20 0 0 0 14.5 5c2.3 0 4.7-.2 7.1-.4l6.3-.4c-.6 1.1-1.3 2.7-1.3 5.1 0 .5.3 1 .7 1.2 1.3.6 3 1.1 9.6 1.1 5.1 0 5.2-3.6 5.3-5.7l.1-1.2 8.5.5c5.1.3 10.4.6 15.6.6 10.6 0 17.1 0 20.9-5.4 3.5-5 4.6-14.2 6.8-32.7l1.4-11.4c0-.4-.1-.7-.3-1 0-.2-.2-.4-.6-.4z"/><path d="M287.6 335.9c.6 0 1.1-.4 1.3-1l.4-2.7.4-2.7c.1-.7-.3-1.4-1-1.5-.7-.1-1.4.3-1.5 1l-.4 2.7-.4 2.7c-.1.7.3 1.4 1 1.5h.2zm112.7 26.4c-.2.4-.7.6-1.1.6l-.7-.2a6 6 0 0 0-.9 3.3c0 2.9 2.8 5.2 5.1 5.2 2.8 0 6.1-2.6 6.1-5.9 0-2.5-2.5-5.3-5.7-5.3l-.8.1a4 4 0 0 0-2.1.9c.3.3.4.9.1 1.3zm2.4.2h.4c1.8 0 3.1 1.7 3.1 2.8 0 1.8-2 3.3-3.5 3.3-1 0-2.6-1.2-2.6-2.6.1-1.7 1.2-3.3 2.6-3.5z"/><path d="M373.4 342.7c-.3.6-.1 1.4.6 1.7l.2.1c.8.5 1.4 1.1 2.1 1.8.6.7 1.3 1.4 2.2 2 2.5 1.7 4.8 3.5 7.1 5.2 4.3 3.2 8.4 6.3 13 9.1l.7.2c.4 0 .8-.2 1.1-.6.3-.5.2-1-.1-1.4l-.3-.3c-4.5-2.8-8.5-5.8-12.8-9l-7.1-5.3c-.7-.5-1.2-1.1-1.8-1.7-.7-.8-1.5-1.6-2.5-2.2l-.5-.3c-.9-.2-1.6 0-1.9.7zm23.6-64.3l-.1-3.5v-1.4c0-.7-.5-1.3-1.2-1.3s-1.3.5-1.3 1.2v1.6l.1 3.7 2.2-.1c.1-.2.2-.2.3-.2zm-2.4 2.7l.1 2.5v1.4c0 .7.5 1.3 1.2 1.3h.1c.7 0 1.2-.5 1.3-1.2v-1.6l-.1-2.6h-.3l-2.3.2z"/><path d="M402.4 279.4c0-.7-.6-1.3-1.3-1.3l-4.1.2h-.3l-2.2.1H391c-.7 0-1.3.5-1.3 1.2s.5 1.3 1.2 1.3h1.5l2.2-.1 2.3-.2h.3l4-.2c.6.3 1.2-.3 1.2-1zm-192.5-27.5l-.1-3.5V247c0-.7-.5-1.3-1.2-1.3s-1.3.5-1.3 1.2v1.6l.1 3.7 2.2-.1c.1-.2.2-.2.3-.2zm-2.4 2.7l.1 2.5v1.4c0 .7.5 1.3 1.2 1.3h.1c.7 0 1.2-.5 1.3-1.2V257l-.1-2.6h-.3l-2.3.2z"/><path d="M215.3 253c0-.7-.6-1.3-1.3-1.3l-4.1.2h-.3l-2.2.1h-3.5c-.7 0-1.3.5-1.3 1.2s.5 1.3 1.2 1.3h1.5l2.2-.1 2.3-.2h.3l4-.2c.6.3 1.2-.3 1.2-1zM409 180.2c0-3.4-2.6-4.9-4.5-4.9-.7 0-1.7.3-2.2.6-1.2.6-2.1 2.2-2.1 3.8 0 2.5 2.1 4.8 4.4 4.8 3.1 0 4.4-2.8 4.4-4.3zm-6.3-.5c0-.9.5-1.5.7-1.6a3 3 0 0 1 1.1-.3s2 .1 2 2.4c0 .2-.4 1.7-1.9 1.7-.8 0-1.9-.9-1.9-2.2zm-24.2-16.6l-.2-1.4a7 7 0 0 0-7-5.7 7.3 7.3 0 0 0-7.2 7.2v.8c0 3 2.4 6 7.1 6 4.5-.2 7.3-3.6 7.3-6.9zm-7.3 4.2c-3.2 0-4.6-1.7-4.6-3.4v-.8c0-2.8 2.5-4.7 4.7-4.7.6 0 1.2.1 1.7.4 1.5.6 2.4 1.8 2.8 3.5l.1.8c0 1.6-1.3 4.2-4.7 4.2zm-13.5 5.6c.2.4.6.6 1.1.6l.7-.2c.6-.4.7-1.2.3-1.8l-1.2-2c-.3-.6-1.1-.9-1.7-.6-.6.3-.9 1.1-.6 1.7l1.4 2.3zm20.5-24.3l.5.1c.5 0 1-.3 1.2-.8.3-.6 0-1.4-.7-1.7l-2.5-.9c-.7-.2-1.4.2-1.6.9-.2.7.2 1.4.9 1.6l2.2.8zm-.2 30.9l.4-.1 2.4-1c.6-.3.9-1.1.6-1.7-.3-.6-1.1-.9-1.7-.6l-2.1.9c-.7.2-1 1-.8 1.6.2.6.7.9 1.2.9zm11.7-23.2c-.2-.7-1-1-1.6-.8-.7.2-1 1-.8 1.6.2.7.5 1.4.6 2.2.1.6.7 1 1.2 1h.3c.7-.2 1.1-.8 1-1.5l-.7-2.5zm-33.9 1.5l.4.1c.5 0 1-.3 1.2-.8l.9-2c.3-.6.1-1.4-.5-1.7-.6-.3-1.4-.1-1.7.5l-1.1 2.4c-.2.6.2 1.3.8 1.5zm-1.7 4.5c0 .9.1 1.7.3 2.6.1.6.6 1 1.3 1h.2c.7-.1 1.1-.8 1-1.5l-.2-2.2c0-.7-.6-1.3-1.3-1.2-.8 0-1.3.6-1.3 1.3zm7.7 15.1c.7.6 1.4 1.1 2.2 1.5l.6.2c.4 0 .9-.2 1.1-.6.4-.6.1-1.4-.5-1.7l-1.9-1.3c-.5-.4-1.3-.4-1.8.2-.4.5-.3 1.3.3 1.7zm26.6-12.7l-.4 2.2c-.2.7.2 1.4.9 1.6h.3c.6 0 1.1-.4 1.2-.9l.5-2.7c.1-.7-.5-1.3-1.2-1.4-.6 0-1.2.5-1.3 1.2zm-17.7 16.1l1.9-.1c.7-.1 1.2-.7 1.2-1.4-.1-.7-.7-1.2-1.4-1.2h-2.3c-.7 0-1.3.5-1.3 1.2s.5 1.3 1.2 1.3c.2.2.4.2.7.2zm-2.5-33h.3c.7-.2 1.5-.3 2.3-.3.7-.1 1.2-.7 1.2-1.4-.1-.7-.7-1.2-1.4-1.2l-2.6.4c-.7.2-1.1.8-1 1.5.1.6.7 1 1.2 1zm-6.4 3.2l1.8-1.3c.6-.4.8-1.1.4-1.7-.4-.6-1.2-.8-1.7-.4l-2.2 1.5c-.5.4-.6 1.3-.2 1.8.3.3.6.5 1 .5l.9-.4zm23.2 24.3l.9-.3 1.8-1.9c.4-.6.3-1.4-.2-1.8-.6-.4-1.4-.3-1.8.2l-1.5 1.7c-.5.5-.5 1.3-.1 1.8.2.2.6.3.9.3zm-2.1-24l1.7 1.5c.3.3.6.4.9.4.3 0 .6-.1.9-.4.5-.5.5-1.3 0-1.8l-2-1.8c-.6-.4-1.4-.3-1.8.2-.4.6-.3 1.4.3 1.9zM413 316.7c.7 0 1.3-.6 1.3-1.3 0-.9-.1-1.9-.4-2.9-.2-.7-.9-1.1-1.6-.9-.7.2-1.1.9-.9 1.6l.3 2.2 1.3.1h-1.3c0 .7.6 1.2 1.3 1.2zm-20-4.5l.4.1c.5 0 1-.4 1.2-.9.2-.8.6-1.5 1-2.1a1.3 1.3 0 1 0-2.2-1.4 13 13 0 0 0-1.2 2.7c-.2.6.1 1.3.8 1.6zm16.6-3.5l.9-.3c.5-.5.5-1.3.1-1.8a13 13 0 0 0-2.2-1.9c-.6-.4-1.4-.2-1.8.3-.4.6-.2 1.4.3 1.8l1.8 1.5c.3.3.6.4.9.4zm-1.5 15l.6-.1c.9-.5 1.7-1 2.5-1.7.5-.5.5-1.3.1-1.8-.5-.5-1.3-.5-1.8-.1-.6.5-1.2 1-1.9 1.3-.6.3-.9 1.1-.5 1.7.1.5.6.7 1 .7zm-9-17.9l.5-.1c.7-.3 1.4-.4 2.2-.5v-1.3l-.1-1.3-3 .6c-.7.3-1 1-.7 1.6.1.7.6 1 1.1 1zm0 18.4c.9.3 1.9.5 2.9.6h.1c.7 0 1.2-.5 1.3-1.2.1-.7-.5-1.3-1.2-1.4-.8-.1-1.6-.2-2.3-.5-.7-.2-1.4.1-1.6.8-.2.8.1 1.5.8 1.7zm-6.9-6.7c.3 1 .8 1.9 1.4 2.7.2.4.6.5 1 .5l.7-.2c.6-.4.7-1.2.3-1.8-.4-.6-.8-1.3-1-2-.2-.7-.9-1-1.6-.8-.7.2-1.1.9-.8 1.6zm-218.3-33c2 0 3.4-1.8 3.4-3.3 0-1.5-1.3-3.1-3.3-3.1h-1c-.5 0-.9.2-1.1.4l-.1.1.6 1.1-.6-1.1c-1.2.6-1.3 2.7-1.3 2.7-.1 1.9 1.7 3.2 3.4 3.2zm-.8-3.8l.1-.1h.7c.6 0 .8.4.8.5 0 .1-.2.8-.9.8-.4 0-.9-.3-.9-.6l.2-.6zm1.6-27.5c.7 0 1.3-.6 1.3-1.3 0-.9-.1-1.9-.4-2.9-.2-.7-.9-1.1-1.6-.9-.7.2-1.1.9-.9 1.6l.3 2.2 1.3.1h-1.3c.1.6.6 1.2 1.3 1.2zm-19.9-4.6l.4.1c.5 0 1-.4 1.2-.9.2-.8.6-1.5 1-2.1a1.3 1.3 0 1 0-2.2-1.4 13 13 0 0 0-1.2 2.7c-.3.7.1 1.4.8 1.6zm16.6-3.4l.9-.3c.5-.5.5-1.3.1-1.8a13 13 0 0 0-2.2-1.9c-.6-.4-1.4-.2-1.8.3-.4.6-.2 1.4.3 1.8l1.8 1.5c.2.3.6.4.9.4zm-1.5 15l.6-.1c.9-.5 1.7-1 2.5-1.7.5-.5.5-1.3.1-1.8-.5-.5-1.3-.5-1.8-.1-.6.5-1.2 1-1.9 1.3-.6.3-.9 1.1-.5 1.7.1.5.5.7 1 .7zm-9-17.9l.5-.1c.7-.3 1.4-.4 2.2-.5v-1.3l-.1-1.3-3 .6c-.7.3-1 1-.7 1.6.1.7.6 1 1.1 1zm0 18.4c.9.3 1.9.5 2.9.6h.1c.7 0 1.2-.5 1.3-1.2.1-.7-.5-1.3-1.2-1.4-.8-.1-1.6-.2-2.3-.5-.7-.2-1.4.1-1.6.8-.3.8.1 1.5.8 1.7zm-7-6.8c.3 1 .8 1.9 1.4 2.7.2.4.6.5 1 .5l.7-.2c.6-.4.7-1.2.3-1.8-.4-.6-.8-1.3-1-2-.2-.7-.9-1-1.6-.8-.6.2-1 1-.8 1.6zm52.6 77.8c-.3.2-.4.5-.5.7-.1.3 0 .7.2 1l.2.6c.1.7.6 1.1 1.3 1.1h.1c.7-.1 1.2-.7 1.1-1.4l-.4-1.4-.2-.4c-.4-.4-1.2-.6-1.8-.2zm103.2-119.9c-.6.3-.9 1.1-.6 1.7l.2.4a54.5 54.5 0 0 1-31 2.7c.1-.3.1-.7-.1-1-.4-.6-1.2-.8-1.8-.4a7 7 0 0 0-1 .8 63.1 63.1 0 0 1-36.7-25.9c.2.3.6.5 1 .5h.3l1.8-.5a58 58 0 0 0 46.9 25.1c10.8 0 33.7-5.5 49-21.2l1.8.1c.7 0 1.3-.6 1.3-1.2s-.4-1.1-.9-1.2a46 46 0 0 0 6.3-9.1c.9.2 1.8.4 2.7.4a66.8 66.8 0 0 1-37.4 30.1l-.3-.7c-.1-.7-.8-.9-1.5-.6zm39.7-81.9l-.9-.1a5 5 0 0 0-1.2.2 58.7 58.7 0 0 0-11-15.9c.6-.5.7-1.3.3-1.8-.4-.6-1.2-.7-1.8-.2l-.3.2a59 59 0 0 0-17.6-11.3 54 54 0 0 0-21.4-4.2c-24.1 0-41 8.1-51.6 19.9-.4-.6-1.2-.8-1.8-.4-.6.4-.7 1.2-.4 1.8l.4.6a54.6 54.6 0 0 0-11.9 34.5c0 12.6 3.5 24.5 10.1 34.5a3 3 0 0 1-.8.2c-.7.1-1.1.8-1 1.5l.1.3a65.3 65.3 0 0 1-10.9-36.6c0-18.3 7.2-33.6 20.7-44.3a76.3 76.3 0 0 1 50.1-14.7v1.3c0 .7.6 1.3 1.3 1.3.7 0 1.3-.6 1.3-1.3v-1.2a60.5 60.5 0 0 1 49.2 35.6c-.3.2-.6.1-.9.1zm-.8 50.4h-.2c.1-.1.2-.1.2 0z"/><path d="M314.6 141.8l.2-1.5a21.2 21.2 0 0 0-14.4-1.5l-1 .2-1.6.4a17.6 17.6 0 0 0-11.1 16.1c0 10 8.6 18.8 18.5 18.8 3 0 6.1-.8 9-2.3l-.1-.9c-.1-.7.5-1.3 1.2-1.4.6-.1 1.1.3 1.3.8l1.7-1.3c4-3.5 6.2-8.1 6.2-13a17 17 0 0 0-7.1-14.4v.3c-.1.7-.6 1.2-1.3 1.2h-.1c-1-.2-1.5-.8-1.4-1.5zm-9.2-1.2c6.6 0 16.4 4.2 16.4 15.6 0 8.9-8.8 15.6-16.7 15.6-8.5 0-15.9-7.6-15.9-16.3 0-6.5 4.8-12.1 9.4-13.7l1.3-.3 1.1-.3c1.4-.4 2.9-.6 4.4-.6zm-54.7 31.3c.1-.7.6-1.2 1.3-1.2.7 0 1.3.6 1.3 1.3v.8c1.9.6 4 .9 6.1.9 7.6 0 15.6-7.1 15.6-17.8 0-7.3-3.9-13.5-9.9-15.8a19.8 19.8 0 0 0-11.4-.4l.1 1.4c.1.7-.5 1.3-1.2 1.4h-.1c-.7 0-1.2-.5-1.3-1.2l-.1-.8c-5.8 2.2-11.3 7.1-11.3 15 0 7.4 4.3 13.6 10.9 16.4zm-8.3-16.4c0-9.4 9.4-13.8 15.7-13.8 1.9 0 4.1.1 6.1.9 5 1.9 8.2 7.1 8.2 13.4 0 9-6.9 15.2-13.1 15.2-9.6-.1-16.9-6.8-16.9-15.7z"/><path d="M309.5 161.7c-.7-.1-1.1-.8-1-1.5l.1-1c0-3-2.7-5.6-5.8-5.6-2.8 0-3.1 1.3-3.1 2.3 0 2.1 1.7 4.2 2.3 4.3 0 0 .7-.5.7-3.4 0-.7.6-1.3 1.3-1.3s1.3.6 1.3 1.3c0 1.8-.2 3.2-.7 4.2-.7 1.6-1.9 1.8-2.5 1.8-2.6 0-4.9-3.8-4.9-6.8 0-1.4.5-2.6 1.4-3.4 1-.9 2.4-1.4 4.3-1.4 4.5 0 8.4 3.7 8.4 8.1l-.2 1.5c-.2.6-.9 1-1.6.9zm-54.7-10.8c4.3 0 7.6 2.8 8.5 6.9l.1.1c.5.5.5 1.3 0 1.8l-.3.3c-.4.3-.9.5-1.3.3-.5-.2-.8-.6-.8-1.1-.3-3.5-2.8-5.8-6.1-5.8-.7 0-2.1 0-2.1 2.7 0 .8.2 2.7 2.4 2.9l-.2-1-.2-1.6c0-.7.6-1.3 1.3-1.3.7 0 1.3.6 1.3 1.3l.2 1 .2 1.6c0 1.5-.9 2.6-2.2 2.6-3.1 0-5.3-2.2-5.3-5.4-.1-3.3 1.6-5.3 4.5-5.3zm33.3 39.6a9 9 0 0 0 4.7 1.3c3.6 0 7.4-1.9 7.4-5.9v-.3c0-.7.5-1.3 1.2-1.3s1.3.5 1.3 1.2v.5c0 5.6-5 8.5-10 8.5-2.2 0-4.4-.6-6.1-1.7-.6-.4-.8-1.2-.4-1.8.6-.7 1.3-.9 1.9-.5zm58.4-8.1c.9.2 1.8.4 2.7.4h.7c6.2 0 15.4-8.3 15.4-26.1 0-17.2-7.6-25-15-26.7l-.8-.2-.9-.1a5 5 0 0 0-1.2.2c-5.3 1.3-14.9 10.5-14.9 27.2 0 14.7 6.6 23.3 14 25.3zm3.3-2.1l-1.2-.1h-.2c-8.7-1.1-13.4-12.4-13.4-23 0-17.1 10.8-24.8 13.6-24.8h.4c6.6 1.1 13.7 8.1 13.7 24.3 0 11.2-3.8 18-7.6 21.2h.4c.7 0 1.3.6 1.3 1.3 0 .7-.6 1.3-1.3 1.3h-.1c-1 0-2.2-.2-3.5-.6-.7.3-1.4.4-2.1.4z"/><path d="M338.7 157.1c0-7 2.4-19.5 11.5-22.1.7-.2 1.4.2 1.6.9.2.7-.2 1.4-.9 1.6-7.6 2.2-9.6 13.3-9.6 19.6 0 15.2 9.3 20.6 13.9 20.8h.4c.7 0 1.3.6 1.3 1.3 0 .7-.6 1.3-1.3 1.3h-.1c-1 0-2.2-.2-3.5-.6-5.7-2-13.3-8.5-13.3-22.8z"/><path d="M355.2 147.7c-1.1.6-3.1 3.5-3.1 7.3 0 4.4 2.6 9 3.5 9.2 2 0 3.7-5.4 3.7-8.8l-.1-1.9c-.2-1.4-.6-2.5-1.2-3.7-.4-1-1.4-1.9-2.2-2.2h.1c.6-.3.9-1 .7-1.7l-.4-.8c1.8.4 3.5 2.1 4.2 3.7.6 1.4 1.2 2.8 1.4 4.4l.1 2.2c0 2.7-1.2 9.7-5 11.1l.2-.6c.2-.7-.2-1.4-.9-1.5-.7-.2-1.4.2-1.5.9l-.3 1.1c-1.5-.8-2.8-3-3.6-5.4l.4-.2c.7-.2 1-1 .7-1.6-.2-.7-1-1-1.6-.7l-.2.1a14.5 14.5 0 0 1-.1-6.2l.6.4.7.2c.4 0 .8-.2 1.1-.6.4-.6.2-1.4-.4-1.8l-1.2-.8a8.8 8.8 0 0 1 3-4.1l.7 1.2c0 .4.3.7.7.8z"/><path d="M356.2 164.3c.7.2 1.1.9.9 1.5l-.2.6a26 26 0 0 1-1.7 4.9c-.2.4-.7.7-1.1.7l-.6-.1c-.6-.3-.9-1.1-.6-1.7.6-1.3 1.1-2.6 1.4-3.9l.3-1.1c.2-.6.9-1 1.6-.9zm-4-23c.6-.4 1.4-.2 1.8.4l.7 1 1.6 2.4.4.8c.3.6 0 1.4-.7 1.7h-.1l-.4.1h-.3c-.4-.1-.7-.3-.9-.7l-.7-1.2-1.1-1.6-.8-1.1c-.3-.7-.1-1.4.5-1.8zm0 11c-.2.4-.6.6-1.1.6l-.7-.2a9.2 9.2 0 0 0-3.8-1.8c-.7-.1-1.2-.7-1.1-1.4.1-.7.8-1.2 1.4-1.1 1.3.2 2.5.8 3.6 1.4l1.2.8c.7.3.9 1.1.5 1.7zm-.3 6.8c.2.7-.1 1.4-.7 1.6l-.4.2-1.8.8-2.5 1.1-.4.1c-.5 0-1-.3-1.2-.8-.2-.7.1-1.4.7-1.6l2.2-1 2.2-1 .2-.1c.7-.3 1.5 0 1.7.7zm5.8-5.9c-.3.7-.4 1.6-.4 2.4v2.1c0 .7-.6 1.3-1.3 1.3-.7 0-1.3-.6-1.3-1.3v-2c0-1 .1-2.2.6-3.4.3-.6 1-.9 1.7-.7.7.2 1 .9.7 1.6zm-103.9-12.1c.1.7-.5 1.3-1.2 1.4h-.1c-.7 0-1.2-.5-1.3-1.2l-.1-.8a51.7 51.7 0 0 0-8.9-21.7l-.4-.6a1.3 1.3 0 1 1 2.2-1.4 55.8 55.8 0 0 1 9.7 23l.1 1.3zM239.6 188l.8-.2c6.1-1.8 10.2-9.4 10.2-15.7v-.1c.1-.7.6-1.2 1.3-1.2.7 0 1.3.6 1.3 1.3v.8c-.3 6.8-4.5 14.7-11.2 17.1l-1.8.5h-.3c-.4 0-.8-.2-1-.5l-.1-.1-.1-.3c-.2-.8.2-1.5.9-1.6zm77.6-46.3v.3c-.1.7-.6 1.2-1.3 1.2h-.1c-.7-.1-1.2-.7-1.2-1.4l.2-1.5c1.8-12.7 12-22 19.8-28l.3-.2c.6-.4 1.4-.3 1.8.2.4.6.3 1.4-.2 1.8-7.8 5.9-18.1 15.2-19.3 27.6zM314 172l-.1-.9c-.1-.7.5-1.3 1.2-1.4.6-.1 1.1.3 1.3.8l.1.3c1 10.8 11.9 20.4 23.3 20.6l.3.1c.5.2.9.7.9 1.2 0 .7-.6 1.3-1.3 1.3l-1.8-.1A27.7 27.7 0 0 1 314 172zm-2.2 53.4c-.2.7.3 1.4 1 1.5l.7.2c-.3 2.1-1.6 2.6-2.3 2.8h-.1l-.1 1.3c0 1.2 0 3.1-2.4 4l-.4.1c-.5 0-1-.3-1.2-.8-.2-.7.1-1.4.7-1.6.7-.3.7-.4.7-1.6 0-.7 0-1.5.3-2.4.3-.8 1.1-1.1 1.5-1.3.5-.2.7-.2.7-1.1 0-.7-.5-1.5-1.1-2.4a8 8 0 0 1-1.4-3.1c-.1-.6.2-1.2.7-1.4.5-.3 1.2-.8 1.2-2.1s-.5-2.7-1-3.5l-.2-.4c-.3-.6-.1-1.4.6-1.7.6-.3 1.4-.1 1.7.6l.3.7c.5 1.2 1.1 2.8 1.1 4.4a5 5 0 0 1-1.6 3.8l.8 1.4 1 1.8c-.5-.2-1 .2-1.2.8zm-35.3-10.3c.6-.4 1.4-.2 1.8.4.2.3.2.7.1 1l-.5.7c-.7.4-1 1-1 2v1.7c-.4.1-.8.4-.9.9-.2.6.1 1.1.6 1.4-.2.8-.6 1.3-.9 1.7-.3.3-.5.5-.5 2.1 0 7.4 8.7 8.2 12.5 8.2 3.7 0 7.2-.7 11-1.5l4.1-.8c.7-.1 1.4.3 1.5 1 .1.7-.3 1.4-1 1.5l-4 .8c-3.7.7-7.6 1.5-11.5 1.5-9.3 0-14.9-3.9-15-10.5l1.4-.2c.7-.1 1.2-.8 1.1-1.5-.1-.7-.8-1.2-1.5-1.1l-.7.1a3 3 0 0 1 .8-1.4c.3-.4.7-.8.7-4 0-1.6.5-2.6 1.2-3.3 0-.2.3-.5.7-.7z"/><path d="M276.5 228.6c-.7-.2-1.1-.9-.9-1.6.2-.7.9-1.1 1.6-.9a51.8 51.8 0 0 0 30.3-.8c.7-.2 1.4.2 1.6.8.2.7-.2 1.4-.8 1.6a57.1 57.1 0 0 1-31.8.9zm1-7.7c2.8.8 5.9 1.2 9 1.2 5.4 0 11.1-1.2 17.4-3.6.7-.2 1.4.1 1.6.7.2.7-.1 1.4-.7 1.6a51.4 51.4 0 0 1-18.3 3.7c-3.4 0-6.6-.5-9.7-1.3l-.3-.1c-.5-.3-.7-.9-.6-1.4.1-.4.5-.8.9-.9l.7.1zm21-126.6l2.8.2c.6.1.6 1 .6 1l-.8 1.5s-2.4-.3-3.2-.2c-.8-.6.6-2.5.6-2.5zm-25.7 130.4s-.4 1.6-.2 2.8c.1 1.3 1.1.8 1.3.7l1.3-1.9.1-1.7-.4-.5-2.1.6zm40.3-.3s.6 1.2.4 2.7c-.3.7-.7.7-.7.7l-1-1.2-.6-1.9.4-.5 1.5.2zm-2.9 6.1l4.9 1.4s.1 1.7-.5 1.8-1.4.9-1.6 1l-3.4-1.7.6-2.5zm-54.9 96.1s-6-4.8-6.8-8c-.5 4.2.4 5.3.4 5.3s4.7 4.8 6 5.7c1.2.9.4-3 .4-3zm90.4-44.1s4.1 0 4.9-1.4c.7 2.9 1 3.5 1 3.5s-4.6.5-6.3.2c-1.7-.2.4-2.3.4-2.3zm21-50.1H465c2.1 0 2.1-3.3 0-3.3h-98.3c-2.2 0-2.2 3.3 0 3.3zm40.6 10.8H501c2.1 0 2.1-3.3 0-3.3h-93.7c-2.1 0-2.1 3.3 0 3.3zm-185 110.3H120.9v3.3h2.3c2.1 0 2.1-3.3 0-3.3h-2.3c-2.1 0-2.1 3.3 0 3.3h101.4c2.2 0 2.2-3.3 0-3.3zM174.7 332H94.9c-2.1 0-2.1 3.3 0 3.3h79.8c2.2 0 2.2-3.3 0-3.3zm46.1-135.9h-72.2c-2.1 0-2.1 3.3 0 3.3h72.2c2.1 0 2.1-3.3 0-3.3zm-25.3-10h-23.8c-2.1 0-2.1 3.3 0 3.3h23.8c2.1 0 2.1-3.3 0-3.3zM174 175.4h-28.4c-2.1 0-2.1 3.3 0 3.3H174c2.1 0 2.1-3.3 0-3.3zm175 198.3h29.9c2.1 0 2.1-3.3 0-3.3H349c-2.1 0-2.1 3.3 0 3.3zm18.4-10h18.4c2.1 0 2.1-3.3 0-3.3h-18.4c-2.1 0-2.1 3.3 0 3.3z"/></g></svg>