<svg id="Layer_1" xmlns="http://www.w3.org/2000/svg" viewBox="0 0 559 520"><style>.st1{fill:#fff}.st3{fill-rule:evenodd;clip-rule:evenodd}</style><path d="M199 113l-2.7 1a179 179 0 0 0-97.9 86 61.3 61.3 0 0 0-2.4 57c1.2 29.1 8.7 63 27.2 94 22.7 38.1 56.2 61.1 81.7 64.4 14 1.8 26.2-1.1 38.2-4.3 39.9-10.4 79.1-22.3 117.5-35.8l11.1-4c25.4-9.4 49.9-20.7 68.4-41.7 8-9.1 14.9-20 24.8-26.1 8-5 17.9-6.7 24.6-13.8 5.7-6 8.9-15.7 10.8-26.5 2.3-13.1 2.7-28.2-1.1-45.4a130.7 130.7 0 0 0-24-51.4c-11.3-14.2-24.3-22.4-36-35.4-7.4-8.2-14.4-18.4-22.1-24.9a42.8 42.8 0 0 0-23.2-9.5c-22.3-3.3-43.5-3.7-64.5-3.3-46 .9-90.7 5-130.4 19.7" fill="#cfebf6"/><path class="st1" d="M407.9 178.9l6.2-5 .4-45.5h-3.3l-20.2 1.7s-7.2-7-13.9-6.8c-6.8.2-81.1 0-81.1 0l-92.5.6h-43.9s-31-3.5-29.2 27.2c1.1 1.7-.1 14.2-.1 14.2s.3 5.2 4.6 7.7l1.5.8s-9 11.2-7.8 14.3a54.5 54.5 0 0 1 1.6 11.2l.2 82.9s1.5 26.7 21.3 27.8c19.8-.4 45 1.5 45 1.5l43.1-1.2-1.7 18.2-21.3 3.3.8 8.9 90.8.7-3.1-11.1-22.2-1.5 1.3-18.3 32.3-.9 89.3-76.9 1.9-53.8z"/><path d="M155.7 123.3l-3.1.2c-10.3.7-20.9 5.8-21.4 15.7l-.8 11.9v.7c.1.6.6 1 1.2 1s1.2-.5 1.2-1.1c.2-1.6.6-6 .9-12.3.5-9.7 12.3-13 19.3-13.5l3.1-.2c4.4-.3 10.4-.8 23.6-.8l17.8.2 17.8.2 68.3-.7h.5c.6 0 1.1-.6 1.1-1.2a1 1 0 0 0-.4-.8l-.1-.1a1 1 0 0 0-.7-.3l-57.5.6-11.3.1-17.7-.2-17.8-.2c-13.5-.1-19.5.4-24 .8zM139 174c.4.4.5 1 .2 1.4h.6l2.6-.2-.1-.1c-.5-.4-.6-1.1-.3-1.6.4-.5 1.1-.6 1.6-.3l1.4 1.2a9.3 9.3 0 0 0 5.8-8.4 8 8 0 0 0-1.6-4.7c-2.5-3.2-6.7-3.4-9.9-3.5-5.1-.2-9.5 4-9.5 9.1 0 3.3 2.4 6.1 5.5 7.5 1.1-.7 2-1 2.4-1 .4 0 .9.2 1.3.6zm-6.9-7.1c0-3.3 2.7-6.8 6.8-6.8h.3c3.5.2 6.5.5 8.1 2.6.7 1 1.1 2.1 1.1 3.3 0 3.5-3 7.1-8.7 7.1-3 .1-7.6-2.3-7.6-6.2z"/><path d="M128.7 188.1l.1 2c0 .3.2.6.5.8.2.2.5.2.7.2h.2c6.6-1.3 13-1.6 19-.9l.9-.3c.2-.2.4-.5.4-.8l.1-1.5c0-5.3-2-10-5.5-13.1l-1.4-1.2c-.5-.4-1.2-.3-1.6.3-.4.5-.3 1.2.3 1.6l.1.1a15 15 0 0 1 5.8 12.3v.2c-5.5-.5-11.2-.2-17.2.8v-.5c0-8.2 5.1-11.6 6.5-12.2.5.3 1.1.3 1.5-.2l.1-.2c.3-.5.2-1.1-.2-1.4a2 2 0 0 0-1.3-.6c-.4 0-1.3.3-2.4 1-2.8 1.7-6.6 5.9-6.6 13.6zm36.2-14.9c.1.4 0 .7-.2 1h.9c1 0 2.1-.1 3.1-.4.2-.7.8-1 1.4-.9l.6.2c3.2-1.4 5.6-4.1 5.6-8.1 0-2.3-.8-4.3-2.5-6a11 11 0 0 0-6.7-2.8l-1-.1a9.5 9.5 0 0 0-9.7 9.6 8 8 0 0 0 4.7 7.4c.7-.4 1.5-.8 2.4-1 .6.1 1.3.5 1.4 1.1zm-6.2-7.2a7 7 0 0 1 7.3-7.3h.8c2.3.2 4.1.9 5.3 2.1a5.8 5.8 0 0 1 1.8 4.3c0 4.7-4.3 6.8-8.3 6.8-4.1 0-6.9-2.4-6.9-5.9z"/><path d="M174.9 186.4l-2.8-.2h-3c-3.7 0-7.6.1-11.3.9l-.1-1.9c0-2.7.6-9.3 6.3-10.7.3-.1.5-.2.6-.4.2-.3.3-.6.2-1-.2-.6-.8-1-1.4-.8-.9.2-1.7.5-2.4 1-3.6 2-5.6 6.3-5.6 12 0 1.2.1 2.3.3 3.5.1.3.2.6.5.8l.6.2h.3c3.8-1.1 8-1.2 12-1.2h4l.7-1.6c.3-.4.7-.6 1.1-.6z"/><path d="M168.6 173.8c-.1.6.2 1.3.8 1.4 3.4.9 7.7 5.7 7.7 9.8l-.1 1.5-2-.2.4.1c.6.3.8 1 .5 1.6l-.3.7 2.3.3c.3 0 .6 0 .9-.2.3-.2.4-.5.4-.8l.1-1 .1-1.9v-.3l-.7.3c-.6.3-1.3.1-1.6-.5-.3-.6-.1-1.3.5-1.6l1.4-.6c-1.2-4.2-5-8-8.4-9.2l-.6-.2c-.6-.1-1.2.2-1.4.8zm109.2-50.6c0 .6.5 1.1 1.2 1.1h.3l7.3-.1 21.9.3c2.7.1 15.3-.1 18-.1.7 0 1.2-.5 1.2-1.1 0-.6-.5-1.2-1.1-1.2l-18 .1c-7.2-.2-14.6-.3-21.9-.3H279c-.7.1-1.2.6-1.2 1.3zM131.9 295a21.1 21.1 0 0 0 19.8 14.9c7.4.2 14.6.7 21.6 1.2 8.9.6 17.2 1.2 25.1 1.2 5.6 0 11.2-.2 16.6-.4l15.3-.4c.6 0 1.1-.5 1.1-1.2 0-.6-.5-1.2-1.2-1.1l-15.3.4c-5.4.2-11 .4-16.5.4-7.8 0-16.1-.6-25-1.2-7-.5-14.2-1-21.6-1.2-14.1-.4-19-12.6-19-22.9v-.2l.1-20.2.1-29.5c0-13.7-.1-25.1-.4-35.7 0-.6-.5-1.2-1.2-1.1-.6 0-1.1.5-1.1 1.2.2 10.6.4 22 .4 35.7l-.1 29.4-.1 15.4v5c0 3 .3 5.6.9 8m242.4 21.1c8.9 0 18.5-1.1 22.5-9.1.3-.6.1-1.3-.5-1.6-.6-.3-1.3-.1-1.6.5-3.4 6.9-11.9 7.8-20.5 7.8-8.4 0-17.5-.4-27.1-.9-9.9-.5-20.2-1-29.9-1l-6.1.1-5.9.1c-6.1 0-12.3-.2-18.3-.4l-3.1-.1c.6 0 1.1.6 1.1 1.2v1.2l1.9.1c6 .2 12.2.4 18.4.4l5.9-.1 6.1-.1c9.7 0 19.9.5 29.8 1 9.7.5 18.8.9 27.3.9z"/><path d="M238.6 309.2c.6 0 1.2.4 1.2 1.1l.1 1.3 2.2.1 7.6.2 5.7-.2a323.5 323.5 0 0 1 26.6-.1v-1.2c0-.6.6-1.1 1.2-1.1a386.6 386.6 0 0 0-28.1.1l-5.5.2-7.5-.2a182.8 182.8 0 0 0-13.8.1c-.6.1-1.1.6-1 1.3.1.6.6 1.1 1.3 1a58 58 0 0 1 8.9-.2l-.1-1.1c.1-.7.6-1.3 1.2-1.3zm157.1-5c.7 0 1.2-.5 1.2-1.1.1-4.8 1.2-15.9 1.2-20.6V280l-1.5-.5c-.6-.2-.9-.9-.7-1.5.2-.6.9-.9 1.5-.7l.8.2-.1-10.1c-.7-.4-1.4-.9-2-1.5-.5-.4-.5-1.2-.1-1.6.4-.5 1.2-.5 1.6-.1l.4.3c-.1-7.1-.4-12.3-.6-16.5l-.3.3c-.4.5-1.2.5-1.6.1-.5-.4-.5-1.2-.1-1.6l1.9-1.7-.5-6.5-.2-2.7-.8.3-.4.1c-.5 0-.9-.3-1.1-.8-.2-.6.1-1.3.7-1.5l1-.3c.1 0 .3-.1.4 0-.2-3.4-.4-6.9-.4-11.8v-10.8c0-7-.1-14.6-1.1-22.1-.1-.6-.7-1.1-1.3-1-.6.1-1.1.7-1 1.3 1 7.4 1.1 14.8 1.1 21.8v10.8c0 7.5.4 11.9.8 17 .7 7.9 1.5 17.7 1.5 43.6 0 4.7-1.1 15.8-1.2 20.6-.3.6.2 1.1.9 1.1zM351.2 122l-19.4.2-7.4.1c-.6 0-1.2.5-1.1 1.2 0 .6.5 1.1 1.2 1.1l7.4-.1 19.4-.2h4.2c18.4 0 29.1 0 33 5.8l2.6-.1c-4.1-8.1-16.1-8-35.6-8h-4.3zm-42.1 14.2l-16.6.1-16.6.1a30528.3 30528.3 0 0 1-82.9-2.1l-35.4-1c-16.4 0-17.7 5.4-17.7 11.4l.1 2.5.1 2.5c0 1.4-.1 2.5-.3 3.4-.1.6.3 1.2.9 1.4h.3c.5 0 1-.4 1.1-.9.2-1.1.3-2.3.3-3.9l-.1-2.5-.1-2.5c0-4.4 0-9 15.4-9l35.3 1 59.5 1.7c6.9.2 14.4.4 23.5.4l16.6-.1 16.6-.1c13.2 0 30.6.5 51.8 1.5l-.1-2.3c-21.1-1.1-38.5-1.6-51.7-1.6zM173.9 298.4h4.2l14.8-.1 14.8-.1 23.8.6c19.1.5 45.3 1.2 54 1.2 22.1 0 38.7-2.1 40-2.3l1.8.1 19.5.9c.6 0 1.2-.5 1.2-1.2s-.5-1.2-1.2-1.2l-19.4-.9-2-.1h-.2c-.2 0-17 2.3-39.7 2.3-8.6 0-34.8-.7-53.9-1.2l-23.9-.6-14.8.1-14.8.1H175v1.1c.1.8-.4 1.3-1.1 1.3zm-1.2-1.1v-1.2c-14.2 0-22.2-.2-26.4-4.4-4.5-4.5-5.3-14.1-5.3-32.7l.3-10.4c.3-9.1.7-21.5.7-32.5 0-6.3-.1-12.1-.4-17.6 0-.6-.6-1.1-1.2-1.1s-1.1.6-1.1 1.2c.3 5.4.4 11.2.4 17.4a1018.2 1018.2 0 0 1-1 42.8c0 19.6.9 29.3 5.9 34.3 5 5 13.7 5.1 29.2 5.1-.5.2-1-.3-1.1-.9z"/><path d="M346.5 296l-2.7.1c-.6 0-1.1.6-1.1 1.2s.6 1.1 1.2 1.1l2.6-.1c2.9 0 5.9.2 8.7.4 3 .2 6.1.4 9.1.4 16.9 0 20.1-5.4 20.1-15.5 0-2.6-.3-5.3-.5-7.9l-1.1-11.9c0-.6-.6-1.1-1.2-1.1s-1.1.6-1.1 1.2l1.1 12.1c.3 2.5.5 5.1.5 7.7 0 8-1.2 13.2-17.8 13.2l-4.6-.1c-.2.4-.6.7-1.1.7-.5 0-1-.4-1.1-.9l-2.1-.1c-2.9-.3-6-.5-8.9-.5z"/><path d="M378.8 229.1c.7 11.6 1.4 23.7 1.7 35.5 0 .6.5 1.1 1.2 1.1s1.2-.5 1.2-1.2c-.2-11.9-1-24-1.7-35.6-.8-14-1.7-28.4-1.7-42.7l-2.3-.1c-.1 14.5.8 29 1.6 43z"/><path d="M375.1 130.4h-13.4a1 1 0 0 0-.8.4c-.2.2-.3.5-.3.8l.2 6.2.1 2.3.5 11.5c.5 10.7 1 21.8 1.1 32.7 0 .6.4 1.1 1 1.1a176.7 176.7 0 0 0 15.9 1.1h4.3c6 0 12.2-.2 17.5-.4.3 0 .6-.1.8-.3 3.7-3.7 8-7.2 12.9-10.3.4-.2.6-.6.5-1-.6-11.5-.9-23.5-.9-36.6v-9.3c0-.4-.2-.7-.4-.9-.3-.2-.6-.3-1-.2-7.2 1.7-14.7 2.5-22.1 2.8l-2.6.1h-13.3zm37.8 41c.1 0 .1 0 0 0l1.3.1c.6 0 1.1.6 1.1 1.2s-.6 1.1-1.2 1.1l-1.2-.1a77 77 0 0 0-11.6 9.2l.2 1.7c.1.6-.4 1.2-1 1.3h-.1c-.6 0-1.1-.5-1.2-1.1l-.1-1.2c-4.8.2-10.1.3-15.3.3-7 0-13.2-.3-18.9-.9-.1-10.6-.6-21.3-1.1-31.7l-.8-18.7h12.3c4.8 0 9.9 0 15.2-.3 7.2-.3 14.7-1.1 21.9-2.6v7.8a529 529 0 0 0 .5 33.9z"/><path d="M399.2 171c-.3 0-.6.2-.8.4-.2.2-.3.5-.3.8.2 3.6.5 7.3.9 10.8l.1.7.1 1.2c.1.6.6 1.1 1.2 1.1h.1c.6-.1 1.1-.6 1-1.3l-.2-1.7v-.2l-.8-9.5h1.7c3.2 0 7.3.3 10.6.5h.1l1.2.1c.6 0 1.2-.4 1.2-1.1 0-.6-.4-1.2-1.1-1.2l-1.3-.1c-3.3-.2-7.4-.5-10.8-.5a14 14 0 0 0-2.9 0zM374 145.6c2.1.2 4.4.2 6.7.2 6.3 0 12.5-.6 17.1-1.2.6-.1 1.1-.6 1-1.3-.1-.6-.7-1.1-1.3-1a158 158 0 0 1-23.4.9c-.6 0-1.2.4-1.2 1.1 0 .7.5 1.3 1.1 1.3zm23.7 4.7c-5.8 1.6-11.7 2.1-18 2.7l-6.1.6c-.6.1-1.1.6-1 1.3.1.6.6 1 1.2 1h.1l6-.6c6.1-.6 12.3-1.1 18.3-2.8.6-.2 1-.8.8-1.4a1 1 0 0 0-1.3-.8zm-3 9.7a60 60 0 0 1-15.4 1.5h-5.2c-.6 0-1.2.5-1.2 1.2 0 .6.5 1.2 1.2 1.2h5.2a60 60 0 0 0 15.9-1.6c.6-.2 1-.8.8-1.4-.1-.7-.7-1.1-1.3-.9zm-8 8.8a21 21 0 0 1-11.7 1.5c-.6-.1-1.2.3-1.4.9-.1.6.3 1.2.9 1.4 1.2.3 2.5.4 3.7.4a24 24 0 0 0 9.3-2c.6-.2.9-.9.7-1.5-.2-.7-.9-1-1.5-.7zm-102.2 161h-.1c-.6 0-1.1-.4-1.1-1l-.2-1.3-10.9-.1c-11.6 0-22 .3-31.7.9v1.3c0 .6-.5 1.1-1.2 1.1s-1.2-.6-1.2-1.2v-1c-7.5.5-14.6 1.2-21.4 2.2-.6.1-1 .6-1 1.2l.4 8.9c0 .6.5 1.1 1.2 1.1 17-.6 35.1-1.2 53-1.2 13.5 0 25.7.3 37.2 1 .3 0 .7-.1.9-.3.2-.2.4-.6.3-.9l-.6-6-.6-5.4c0-.6-.5-1.1-1.1-1.1l-21.1-.5.1 1c.1.7-.3 1.2-.9 1.3zm21.4 4.9l.5 4.6c-11.2-.7-23-1-36.1-1-17.5 0-35.2.6-51.9 1.2l-.3-6.7c15.8-2.1 33-3.1 54-3.1 11.3 0 22.6.3 33.2.6l.6 4.4z"/><path d="M239.3 330.7c.7 0 1.2-.5 1.2-1.1v-3.9c0-4.8-.3-9.6-.6-14.2l-.1-1.3c0-.6-.6-1.1-1.2-1.1s-1.1.6-1.1 1.2l.1 1.1c.3 4.6.6 9.4.6 14.3v3.8c-.1.7.4 1.2 1.1 1.2zm44.1-21.4c-.7 0-1.2.5-1.2 1.1v3.2c0 4.2.3 8.5.9 13.9l.2 1.3c.1.6.6 1 1.1 1h.1c.6-.1 1.1-.7 1-1.3l-.1-1c-.6-5.5-.9-9.8-.9-14v-3.1c0-.6-.5-1.1-1.1-1.1zm-133.3-70.7l2.3 2a108.8 108.8 0 0 0 4.2 3.3c.3 0 .6-.1.8-.3l.6-.6 5.5-5.7c.2-.2.3-.6.3-.9 0-.3-.2-.6-.5-.8a73.6 73.6 0 0 1-4.7-3.6l-1.7-1.4c-.5-.4-1.1-.3-1.6.1-1.6 1.6-3 3.4-4.4 5.1l-1 1.2c-.3.5-.3 1.2.2 1.6zm2.6-1.3l3.6-4.2.9.7 3.8 2.9-4.3 4.5-2.7-2.3-1.5-1.3.2-.3zM256 167.9c3.6-2.1 7.3-3.9 10.9-5.6l1.9-.9 3.1 2.8 4.2 3.8c.4.3.9.4 1.3.1l1.6-.9c3-1.7 6-3.5 8.9-5.4l2.1 1.8c2 1.7 4.1 3.5 6.4 4.9l.6.2.6-.2c4.6-2.7 9.4-5 14-7.2.6-.3.8-1 .6-1.5-.3-.6-1-.8-1.5-.6a158 158 0 0 0-13.6 6.9 43.2 43.2 0 0 1-5.5-4.3l-2.8-2.4c-.4-.3-1-.3-1.4-.1-3.1 2.1-6.4 4-9.5 5.8l-.8.5-3.5-3.2-3.7-3.4c-.4-.3-.9-.4-1.3-.2l-2.6 1.3c-3.6 1.7-7.3 3.6-11 5.7-.6.3-.7 1-.4 1.6.1.6.9.8 1.4.5zm-83.6 34h1.2c.2-5.8.7-10.2 1.9-13.1l.3-.7c.3-.6.1-1.3-.5-1.6l-.4-.1h-.1c-.4 0-.9.2-1.1.6l-.7 1.6a50.8 50.8 0 0 0-1.9 14.5c.2-.7.7-1.2 1.3-1.2zm-1.1 1.2l-.1 6.1c0 20.5 1.1 67 1.5 86.9v1.3c0 .6.5 1.1 1.2 1.1s1.2-.5 1.2-1.2v-1.2c-.5-19.9-1.5-66.4-1.5-86.8v-5h-1.1c-.7-.1-1.2-.6-1.2-1.2zm5.9-18.5c.3.6 1 .8 1.6.5l.7-.3c1.2-.5 2.8-.8 4.7-.8h.9c-.2-.1-.3-.3-.4-.6l-.2-1.7h-.3c-2 0-3.7.2-5.1.7l-1.4.6c-.6.3-.8 1-.5 1.6zm181.5 112.8c.5 0 .9-.3 1.1-.7l.1-.4V275c.2-51.8.2-75.5-11.4-86.9-10.5-10.2-29.3-9.8-66.7-8.8-13.2.3-28.2.7-46 .7h-2.6l.1.4c.1.6-.3 1.2-.9 1.4h-.2c-.5 0-1-.4-1.1-.9l-.2-.8h-15.2v.1c.1.6-.3 1.2-.9 1.3h-.2c-.5 0-1-.4-1.1-1l-.1-.5c-2 .1-3.8.1-5.3.3l.2.5c.3.6.1 1.3-.5 1.6l-.6.1c-.4 0-.8-.2-1-.6l-.3-.6-.4-.8-5.6.8c-2.4.4-4.4.8-7.1.8l-3-.2a22 22 0 0 0-2.9-.2l.2 1.1c.1.5-.1 1-.4 1.2l2.9.2 3.3.2c3 0 5.1-.4 7.6-.8 3.4-.6 7.7-1.4 16.2-1.4h19.4c17.8 0 32.8-.4 46.1-.7 35.6-.9 55.3-1.4 65 8.1 3 3 5.2 6.9 6.8 12.2h1.5c.6 0 1.1.5 1.1 1.2 0 .6-.5 1.1-1.2 1.1h-.9c3.5 13.8 3.4 35.8 3.3 70.7v21.6c-.1.7.3 1 .9 1z"/><path d="M355.1 204.3c.6 0 1.1-.5 1.2-1.1 0-.6-.5-1.2-1.1-1.2h-1.5l-12.7-.4-20.3-.5-17.1-.2c-18-.2-36.6-.5-54.9-.5-26.9 0-42.3.5-55.9.9l-18.9.5h-1.2c-.6 0-1.1.5-1.1 1.2s.5 1.1 1.2 1.2h1.1l19.1-.5c13.6-.4 29-.9 55.9-.9 18.3 0 36.9.2 54.9.5l17.2.2 20.3.5 13.4.4c-.1-.1.1-.1.4-.1zm-171.9-10.2c0 2.3 2.4 3.9 4.6 3.9 2.3 0 3.9-2.7 3.9-4.5 0-1.9-1.4-3.6-3.3-4l-.7-.1c-2.4 0-4.5 2.9-4.5 4.7zm4.4-2.4h.3c.8.2 1.4.9 1.4 1.7 0 .9-.8 2.2-1.5 2.2-1.1 0-2.3-.8-2.3-1.6 0-.6 1.3-2.3 2.1-2.3zm14.9 5.2c2.7 0 5.1-2.4 5.1-4.3 0-.6-.2-1.3-.7-1.8a5.6 5.6 0 0 0-4.1-1.9c-2.7 0-4.5 2.3-4.5 3.9 0 1.5 1.4 4.1 4.2 4.1zm.3-5.6c.8 0 1.7.4 2.4 1.1l.1.2c0 .5-1.2 2-2.7 2-1.4 0-1.9-1.5-1.9-1.7 0-.3.6-1.6 2.1-1.6zm14.6 4.9c2.6 0 4.5-1.7 4.5-4.1 0-1.2-.6-2-1-2.5l-.1-.1c-.1-.5-.6-.8-1.1-.8l-.4.1c-.1-.5-.6-.8-1.1-.8h-.9c-1.6 0-4 2-4 4.5.1 2.2 1.7 3.7 4.1 3.7zm0-6.1h1.2l.5.9c.2.3.5.7.5 1.1 0 1.7-2 1.8-2.2 1.8-1.1 0-1.7-.5-1.7-1.5a3 3 0 0 1 1.7-2.3zM195 172.4c0 .3-.1.6-.3.8h1.4c.7 0 1.4-.1 2.1-.4v-.9c.2-.6.9-.9 1.5-.6l.8.4c2.5-1.8 4.5-4.8 4.5-7.7 0-1.2-.2-2-.9-2.8-1.6-2-3.8-2.5-6-3-.8-.2-1.5-.3-2.2-.6-.9-.3-1.7-.4-2.6-.4-4.2 0-7.5 3.6-7.5 8.2 0 3.3 1.5 5.7 4.3 7 1.2-.6 2.5-1 3.7-1 .7-.2 1.2.3 1.2 1zm-6.9-7.2c0-3.3 2.3-5.8 5.2-5.8l1.8.3c.8.3 1.7.5 2.5.6 1.9.4 3.6.8 4.7 2.2.3.4.4.6.4 1.4 0 3.5-3.8 7-6.6 7h-.4c-5 0-7.6-1.9-7.6-5.7z"/><path d="M185 184c.2.2.5.3.7.3h.3l.4-.2c.4-.3.6-.8.4-1.2l-.2-1.1v-.4c0-4 3.6-7.8 7.2-7.8.3 0 .6-.1.8-.4.2-.2.3-.5.3-.8 0-.6-.5-1.2-1.2-1.2-1.3 0-2.6.4-3.7 1a10.8 10.8 0 0 0-5.8 9.2v.3l.2 1.7.6.6zm13.3-12.1v.9c.1.3.3.5.6.6 3 1.3 4.8 4.2 6.4 7.1l.4.8.3.6c.2.4.6.6 1 .6l.6-.1c.6-.3.8-1 .5-1.6l-.2-.5-.1-.1c-1.7-3.2-3.7-6.8-7.2-8.6l-.8-.4c-.6-.2-1.3.1-1.5.7zm16 9.6h.2c.6-.1 1-.7.9-1.3v-.1l-.1-.9c0-2.3 1.4-4.8 3.6-6.4 1 .4 2.1.6 3.2.6 1 0 2-.2 3-.5l-.1-.8c.2-.6.8-1 1.4-.8l1.1.4c2-1.3 3.4-3.4 3.4-6.1 0-5-3.3-8-8.9-8-5.3 0-7.8 4.1-7.8 7.9 0 2.5 1.3 4.6 2.7 5.8-2.4 2.1-3.9 5-3.9 7.8l.1.9.1.5c.1.6.6 1 1.1 1zm2.4-16c0-2.1 1.1-5.6 5.4-5.6 3 0 6.6 1 6.6 5.6 0 3.4-3.3 5.4-6.5 5.4l-1.7-.2a1 1 0 0 0-.9-.5c-.6 0-2.9-2-2.9-4.7z"/><path d="M225.1 172c-.1.3 0 .5.1.8.1.3.4.6.8.7 2.9.8 4.2 4.4 4.8 6.6l.2.8c.1.6.6.9 1.1.9h.2c.6-.1 1-.7.9-1.4l-.1-.4c-.6-2.7-2-6.8-5.4-8.4l-1.1-.4c-.7-.1-1.3.2-1.5.8zm19.9 66.1c-.4-3.8-.6-7.8-.8-11.7-.1-2.9-.2-5.9-.5-8.8-.1-.6-.6-1.1-1.2-1.1-10.5.5-21.1.7-31.4 1l-20.8.6c-.6 0-1.1.5-1.1 1.1l-.1 3.6c0 5.1.5 10.3.9 15.3l.1 1.3c.1.6.6 1.1 1.2 1.1 19.2 0 36.4-.4 52.5-1.1.3 0 .6-.2.8-.4.4-.2.5-.6.4-.9zm-52.6.1v-.3c-.4-5-.9-10.1-.9-15.1v-2.4l19.7-.5 30.4-.9.4 7.6c.1 3.5.3 7.1.6 10.6-15.5.6-31.9 1-50.2 1zm52.1 9.9c-.1-.6-.7-1.1-1.3-1-9 1.1-18 1.2-26.3 1.2h-13.2l-13.3.2c-.6 0-1.1.6-1.1 1.2s.5 1.1 1.2 1.1l13.2-.2h13.2c8.4 0 17.5-.1 26.6-1.2.6-.1 1.1-.7 1-1.3zm-39.1 12.8c4.5 0 7.4-.2 10-.3l5.5-.2 4.1.1 4.1.1c2.8 0 6.5-.1 10.2-1 .6-.1 1-.8.9-1.4-.1-.6-.8-1-1.4-.9-3.4.8-7 .9-9.6.9l-4.1-.1-4.1-.1-5.6.2c-2.5.1-5.4.3-9.8.3-5.2 0-10-.3-14.9-.8-.6-.1-1.2.4-1.3 1-.1.6.4 1.2 1 1.3 4.8.7 9.8.9 15 .9zm32.6 5.7c.6 0 1.1-.6 1.1-1.2s-.6-1.1-1.2-1.1c-6.4.3-12.8.8-19 1.4-8.8.8-18 1.5-27.1 1.5-.6 0-1.2.5-1.2 1.2 0 .6.5 1.2 1.2 1.2 9.2 0 18.4-.8 27.3-1.5a233 233 0 0 1 18.9-1.5zm-47 10.5c2.2.2 4.4.3 7.3.3h7.8l4.4.1h.1c.6 0 1.1-.5 1.2-1.1 0-.6-.5-1.2-1.1-1.2l-4.5-.1h-7.8c-2.8 0-5-.1-7.1-.3-.6-.1-1.2.4-1.3 1-.1.6.4 1.2 1 1.3zm27.9-1.1l3.4-.1c2 0 4.1.1 6.1.3 2 .1 4.1.3 6.2.3 2.8 0 5.1-.2 7.3-.7.6-.1 1-.8.9-1.4-.1-.6-.8-1-1.4-.9-2 .5-4.2.7-6.8.7-2 0-4.1-.1-6.1-.3-2-.1-4.1-.3-6.2-.3-1.3 0-2.5 0-3.6.2-.6.1-1.1.6-1.1 1.3.1.5.7 1 1.3.9zm50.6-17.9l-.6-.2c-.4-.3-.6-.8-.5-1.3l.1-.4.3-.4a7 7 0 0 0-2.9-.8h-1.2a7.5 7.5 0 0 0-7.6 7.5c0 4 3.4 6.1 6.5 6.1 4.1 0 8.4-3.3 8.4-8.7 0-1-.5-2-1.2-2.7l-.6.6c-.1.2-.4.3-.7.3zm-5.7 8.2c-2 0-4.2-1.3-4.2-3.8 0-2.8 2.4-5.1 5.3-5.1h1.1c1.3 0 3.9 1.4 3.9 2.6-.1 4-3.2 6.3-6.1 6.3zm24.6-24.5c.5-.4 1.2-.3 1.6.3l.6.8a7.3 7.3 0 0 0 1.9-4.9 6 6 0 0 0-1.1-3.5c-1-1.3-2.5-1.5-3.7-1.7l-.8-.1-1.4-.1c-3.6 0-6.5 2.7-6.5 6a6 6 0 0 0 2.4 4.7l1.3-1.4.3-.3c-.9-.7-1.7-1.7-1.7-3 0-2.1 1.9-3.7 4.1-3.7l.9.1 1 .2c1.1.2 1.8.3 2.2.8.4.6.7 1.3.7 2.1 0 2.6-2.2 4.8-4.1 4.8a5 5 0 0 1-1.4-.3l-.3.9-1 1.1c1 .4 2 .7 2.6.7a6 6 0 0 0 2.6-.7l-.7-.9c-.2-.8-.1-1.6.5-1.9zm25.9 18.3c-.3 0-.6-.1-.9-.4-.4-.5-.4-1.2.1-1.6l.2-.2c-.6-.5-1.3-.8-2.2-1.1l-1.8-.3c-1.8 0-3.4.9-4.7 2.2l.4.3c.5.4.5 1.2.1 1.6-.2.3-.5.4-.9.4-.3 0-.5-.1-.8-.3l-.3-.3a6.5 6.5 0 0 0-1.1 3.1c0 3.1 1.9 6.3 6.2 6.3 4.2 0 6.9-3.9 6.9-6.5l-.1-1.5-.1-1.2-.2-1-.2.1c-.1.3-.3.4-.6.4zm-5.6 7.5c-3.7 0-3.9-3.3-3.9-3.9 0-1.2 2.2-4.8 4.9-4.8l1.1.2c.9.3 1.4.6 1.9 1.1l.4.6.1 1.5.1 1.2c0 1.4-1.7 4.1-4.6 4.1zm21.6-22.5c-.3-.5-.4-1-.4-1.5 0-1.9 1.8-4.3 3.6-4.3h.3c3.1.4 3.4 1.8 3.5 2.2l.1 1.1c0 1.8-1.3 4.4-3.5 4.4-1.3 0-2.3-.5-3-1.2.1.4-.1.8-.4 1.1l-1 .8c1.2 1 2.7 1.6 4.4 1.6 3.8 0 5.8-3.9 5.8-6.7l-.2-1.6c-.4-1.5-1.6-3.4-5.5-4-3.6-.5-6.6 3.4-6.6 6.6 0 .9.2 1.7.6 2.4l1-.8c.5-.2.9-.3 1.3-.1z"/><path d="M284.7 242.3c0-.3-.2-.6-.4-.8-.4-.3-.9-.4-1.3-.2l-.3.3-1.3 1.4a172.5 172.5 0 0 1-12.7 12.7l-.3.4-.1.4c-.2.5 0 1.1.5 1.3l.6.2c.3 0 .6-.1.8-.3l.6-.6a167 167 0 0 0 12.5-12.9l1-1.1c.4-.1.5-.5.4-.8zm19.9 18.8c.3 0 .6-.1.9-.4.4-.5.4-1.2-.1-1.6l-.4-.3a104.6 104.6 0 0 1-14.5-15.9l-.6-.8c-.4-.5-1.1-.6-1.6-.3-.5.4-.6 1.1-.3 1.6l.7.9c4.4 6 9.4 11.5 14.8 16.3l.3.3.8.2zm26-14c.3-.3.5-.7.4-1.1l-.2-.5c-.1-.2-.3-.3-.4-.3-.4-.2-.8-.1-1.2.2l-1 .8c-4.7 3.8-9.6 7.7-14.4 11.9l-.2.2c-.5.4-.5 1.2-.1 1.6.2.3.6.4.9.4.3 0 .5-.1.8-.3l.2-.1a694.2 694.2 0 0 1 15.2-12.8zm64.6 1.3c.5.4 1.2.4 1.6-.1l.3-.3c2.1-2.1 4.8-3.4 7.7-3.5h.3c4.6 0 11.6 5.6 11.6 12.5 0 6.4-5.8 10.2-11.4 10.2a12 12 0 0 1-7.5-2.7l-.4-.3c-.5-.4-1.2-.4-1.6.1-.4.5-.4 1.2.1 1.6l2 1.5c2.2 1.4 4.8 2.1 7.4 2.1 7.7 0 13.7-5.5 13.7-12.5 0-8.5-8.5-14.8-13.9-14.8h-.4c-2.8.1-5.5 1.2-7.8 2.9l-1.9 1.7c-.3.5-.2 1.2.2 1.6z"/><path d="M409.8 256.9c0-1.2-.5-2.5-1.3-3.5s-2-1.3-2.9-1.6l-1-.3-.5-.1c-.5 0-.9.3-1.1.5-.5.2-.8.7-1.3 1.6-.2.5-.6 1.5-.6 2.6 0 3.3 1.5 5.3 3.9 5.3 2.6 0 4.8-2 4.8-4.5zm-4.9 2.2c-1.3 0-1.6-1.6-1.6-3 0-.8.4-1.8.7-2.2l.2-.1.8.2c.8.2 1.4.4 1.8.9.5.6.8 1.3.8 2-.1 1.2-1.2 2.2-2.7 2.2zm19.6-16.3c.5-.4.5-1.1.1-1.6a25 25 0 0 0-2.3-2.3c-.5-.4-1.2-.4-1.6.1-.4.5-.4 1.2.1 1.6l2.1 2.1c.2.3.6.4.9.4.2 0 .5-.1.7-.3zm-18.6-7.8c.7 0 1.2-.5 1.2-1.1 0-.6-.4-1.2-1.1-1.2l-3.2-.1c-.6 0-1.2.5-1.2 1.2 0 .6.5 1.2 1.2 1.2h3.1zm21.8 27h.2c.5 0 1-.4 1.1-.9l.5-3.2c.1-.6-.4-1.2-1-1.3-.6-.1-1.2.4-1.3 1l-.4 2.9c-.1.8.3 1.4.9 1.5zm.4-9.9h.2c.6-.1 1-.7.9-1.4-.2-1.1-.5-2.1-.9-3.1-.2-.6-.9-.9-1.5-.7-.6.2-.9.9-.7 1.5l.8 2.8c.2.5.6.9 1.2.9zm-18.5 25.7l-2.9.5c-.6.1-1.1.6-1 1.3.1.6.6 1 1.2 1h.1l3.2-.5c.6-.1 1-.8.9-1.4-.3-.6-.9-1-1.5-.9zm13.6-6.9c.2.2.4.2.7.2.4 0 .7-.2.9-.5l1.7-2.7c.3-.6.1-1.3-.5-1.6-.6-.3-1.3-.1-1.6.5l-1.6 2.5c-.3.5-.1 1.3.4 1.6zm-3.3 3.3c-.4-.5-1.1-.6-1.6-.3l-2.5 1.6c-.6.3-.8 1-.5 1.6.2.4.6.6 1 .6l.6-.1c1-.5 1.9-1.1 2.7-1.7.5-.5.7-1.2.3-1.7zm-4.7-37l.5.1c.4 0 .9-.3 1.1-.7a1 1 0 0 0-.6-1.5l-3-1.1c-.6-.2-1.3.2-1.4.8-.2.6.2 1.3.8 1.4.8.2 1.7.6 2.6 1zM395.8 278c-.2.6.1 1.3.7 1.5l1.5.5 1.6.4h.2c.5 0 1-.4 1.1-.9.1-.6-.3-1.2-.9-1.4l-2.1-.5-.8-.2c-.5-.3-1.1 0-1.3.6zm-1.2-44c-.6.2-.9.9-.7 1.5.2.5.6.8 1.1.8l.4-.1.8-.3h.1c.6-.2 1-.8.8-1.5-.1-.5-.6-.8-1-.8h-.4l-1.1.4z"/><path class="st1" d="M459.3 273.9l-19.2-61.6-5.2 1.7-39.5-54.5-69.3 48.5-52.5 40.1 42.6 55.7 16.6 43.5-9.1-49.7z"/><path d="M453.6 276.3a9.5 9.5 0 0 0-8.4-3.2c-21.2 2.3-42.1 6.7-63.2 8.7-9.8.9-33.3 1.3-37.7 13.6-.3-.4-.9-.6-2-.6-8.2-4.4-20.9 4.6-14.5 13.7a122 122 0 0 1 7 11.2c-.7 12.2 2.6 24.5 1.9 37.2-1.9 2.8-2.2 6.6 0 12a9.4 9.4 0 0 0 6 5.7 9.4 9.4 0 0 0 5.6 2.5c17.4 1.6 33-6.1 50-8 18-2 35.8-2.9 53.6-6.1a37.9 37.9 0 0 0 15.6-5.6c6.8 6.3 20.7 2.1 17.8-8.7-2.1-8.1-3.2-15.8-7.3-23.3a98.5 98.5 0 0 1-4-7.9c-.8-12-2.3-24-5.8-35.8-1.7-6.1-9.4-8.1-14.6-5.4m-46.8 55.1l.5-1.2 1.1-1.4c.3 1.1.7 2.2 1.3 3.2h-.2c-.9 0-1.8-.3-2.7-.6m-41 9.4l5.7.3-.7.7a14 14 0 0 1-4 3l-1-4" fill="#acd5e5"/><path d="M328.4 327.1c1.1 7.7 1.5 15.5 2.6 23.2.6 4.2 1.7 8.4 1.7 12.7 0 3.2-.2 6.3-.1 9.5.2 3.5 1.1 7.6 4.4 9.2-.2 1.2.7 2.6 2.3 2.3 32-4.9 63.2-14.2 95.3-18.8 9.7-1.4 19.3-2.2 29-3.8a530 530 0 0 1 13.3-2c2.2-.3 6-1.2 8.1-.8 1.2.2 2.4-1.4 1.7-2.5a3 3 0 0 0-.8-.8l.3-.3a2 2 0 0 0 .6-2c-2.5-13.4-5.4-26.7-6.9-40.3-1.5-13.1-1.9-26.3-4.2-39.4l-.3-.8c.2-1.4-.6-2.9-2.4-2.6-24.5 4.4-49.5 4.3-74 8.4-25 4.1-49.9 10.2-74.6 15.9-1.1.2-1.7 1.7-1.3 2.7l.6 1v.4c1 8.2 2.6 16.4 4.1 24.5l.2 1.4-.4-.6m9.7 39.3c.1-6.1-1.8-12.2-2.6-18.2-.4-3.2.2-7.4-.5-10.7l-2.3-12.2c-1.4-7.5-2.7-14.9-4.4-22.3 11 7.2 25.6 7.8 37.6 13 6.7 2.9 14.4 5 21 8.4-10.1 10.4-20.5 20.7-30.1 31.6-6.1 6.9-16.1 15.3-17.4 24.9-2.5-4-1.4-10.1-1.3-14.5m127.1-6.4c-9.3 1.6-18.5 2.6-27.9 3.8-32.3 4-64.4 12.3-96.2 19.5.5-.1.9-.4 1.2-1 3.7-10.1 13.7-18.7 20.7-26.5 8.3-9.2 17.4-17.6 25.8-26.8.6.1 1.2-.1 1.6-.6l.2-.2c.3-.4.4-.9.4-1.3 3.7 2.5 9.2 6.5 14 6.3 3 3.5 7.4 1.7 11.2.5.5-.1.8-.4 1-.8.7-.1 1.4-.7 1.5-1.5.5-4.3 5.4-7.4 9.5-10 .5.1 1.2-.2 1.3-.8l.1-.1c4.2 1.3 29 17.5 30.8 18.8 4.4 3 8.1 7.6 12.1 11.1 2.9 2.5 5.9 4.8 9.2 6.8-5.7 0-13.5 2.3-16.5 2.8m10.9-43.3c1.2 11.8 3.6 23.6 5.9 35.3-8.9-6-16-14.5-24.9-20.5-4.8-3.2-9.7-6.4-14.8-9.2-2.6-1.4-5.5-3.4-8.6-4.6 5.2-3.7 10.4-7.4 15.4-11.3 4.5-3.5 8.1-7.8 12-12 3.7-4 8.1-7 12-10.7 1.4 10.9 1.9 22 3 33m-3.6-37.3c-3.6.7-6.5 3.8-9.2 6.2-4.4 4-8.3 8.6-12.3 13-5 5.6-12.2 9.7-18.2 14.1l-5.1 3.7h-.1c-1.1.1-1.9.8-2.2 1.7-3.5 2.6-7 5.2-10.2 8.1-.6.5-1 1.2-.8 2l.3 1.5c-2.1.4-5.3 2.4-6.9.6-.5-.6-1.1-.7-1.7-.6-4.3-2.9-9.8-4.7-14.2-7.6-5.4-3.5-12.2-4.9-18.1-7.4-6-2.5-12-5.9-18.3-7.2-8.1-1.6-16.7-3.3-24.2-6.8 23.2-3.9 45.9-10.4 69-14.5 23.8-4.3 48.2-4 72.1-8-.1.3 0 .7.1 1.2"/><path d="M454.3 250.2c-4.7-12.4-8.3-25-13.7-37.1l-.5-.7c-.1-1.4-1.3-2.7-3-1.9-22.7 10.3-46.9 16.4-69.7 26.4-23.2 10.2-45.9 22.2-68.4 33.8-1 .5-1.2 2.1-.6 2.9l.8.8.1.4c3 7.7 6.6 15.2 10 22.8l.6 1.3-.6-.5 1.8 3.4c2.9 7.2 5.2 14.6 8.2 21.9 1.6 3.9 3.8 7.7 4.8 11.9.8 3.1 1.3 6.2 2.3 9.2 1 3.3 2.9 7.1 6.5 7.8 0 .5.3 1 .6 1.3a38 38 0 0 1-.7-6v-.4c-3-3.3-3.4-9.1-4.4-13.1-1.4-5.9-4.7-11.4-7-17-1.2-3-1.7-7.2-3.1-10.2l-5.2-11.2c-3.2-6.9-6.3-13.8-9.7-20.6 12.5 4.3 26.7 1.3 39.7 3.3 7.2 1.2 15.2 1.3 22.4 3l-4.3 7.5c1.5-1 3.3-1.6 5.1-1.8l.8-.1.4-.1.9-1.7c.6 0 1.1-.4 1.4-1l.1-.2c.2-.5.1-.9.1-1.4 2 .7 4.3 1.6 6.8 2.3.7-.5 1.5-.8 2.4-1l2.5-.3c1 0 1.9.1 2.8.4 4.1-.7 8.2-1.3 12.4-1.6l.1-.2c.7-.3 1.2-1 1.1-1.8-.5-4.3 3.4-8.5 6.7-12 .5-.1 1.1-.5 1.1-1.1v-.1c3.7.2 24 7 31.7 9.6 1.7-.5 3.4-1.1 5.2-1.5l1.7-.3c-3-1.5-6-2.9-9.1-4-5.5-2-11-3.8-16.6-5.3-2.8-.8-6.2-1.9-9.5-2.4 4.1-4.9 8.3-9.7 12.2-14.7 3.5-4.5 5.9-9.5 8.7-14.5 2.6-4.8 6.2-8.8 9-13.3 4.1 10.2 7.2 20.8 11 31.2 2.7 7.4 5.9 14.7 9.3 21.9 1.6-.2 3.3-.4 5.1-.4a319 319 0 0 1-10.3-23.6zM430 225c-3.3 5-5.9 10.4-8.7 15.6-3.5 6.6-9.4 12.4-14.2 18.1l-4 4.8h-.1a2.3 2.3 0 0 0-1.7 2.2c-2.8 3.4-5.5 6.8-7.9 10.4-.4.6-.6 1.4-.3 2.1l.7 1.3c-2 .9-4.5 3.6-6.6 2.3a2 2 0 0 0-1.8-.2c-4.9-1.8-10.7-2.1-15.7-3.9-6.1-2.1-13-1.8-19.4-2.7-6.4-.9-13-2.8-19.5-2.4-8.2.4-17 .9-25.1-.6 21.5-9.5 41.9-21.4 63.4-31.1 22.1-10 45.8-15.8 67.9-25.5l.5 1.2c-3.5 1.7-5.5 5.5-7.5 8.4z"/><path d="M317.7 307.3l-1.5-3.4c-2.6-5.5-7.1-10.1-10.5-15.1-1.8-2.7-3.2-6.7-5.2-9.3l-7.5-9.8c-4.6-6-9.1-12.1-14-18 13.1 1.5 26.4-4.6 39.4-5.3 7.3-.4 15.1-2 22.5-1.9l-3.1 9.7c1.9-1.8 4-3.3 6.2-4.7l.5-1.9c.6-.2 1-.7 1.1-1.2l.1-.2c.1-.5-.1-.9-.2-1.4l6.2.7 7.2-3c4.4-1.7 8.8-3.3 13.3-4.6.2-.4.3-.9.1-1.4-1.5-4.1 1.5-9 3.9-13.2.5-.2 1-.8.9-1.3v-.1c3.4-.6 22.2 1.3 31.3 2.3 2.3-1.5 4.8-2.5 7.4-3.2-3-.8-6.1-1.4-9.1-1.8-5.8-.7-11.5-1.3-17.4-1.6-2.9-.1-6.5-.5-9.8-.3 3-5.6 6-11.3 8.7-17 2.5-5.2 3.7-10.6 5.3-16.1 1.5-5.2 4.1-9.9 5.9-14.9 6.2 9.1 11.6 18.8 17.5 28.1 4.2 6.6 8.9 13 13.7 19.3 1.1-1.1 2.6-2 4.1-2.5-4.9-6.4-9.6-12.8-14-19.5-7.2-11.1-13.5-22.6-21.5-33.3l-.6-.6c-.4-1.3-1.9-2.3-3.3-1.2-19.9 15-42.3 26.1-62.3 40.8-20.4 15-40 31.6-59.5 47.8-.8.7-.7 2.3.1 3 .3.3.6.4 1 .6l.1.3c4.6 6.9 9.7 13.4 14.7 20.1l.8 1.2-.7-.4 2.5 2.9c4.4 6.4 8.3 13.2 12.8 19.6 2.5 3.5 5.3 6.7 7.3 10.5 1.4 2.8 2.6 5.7 4.2 8.5.6 1.1 1.4 2.3 2.3 3.3-1.1-3.5-1.4-7-.9-10.5zm17.7-103.1c19.4-14.5 41.3-25.3 60.8-39.7l.7 1.1c-2.9 2.2-4.1 6.4-5.4 9.7-2.1 5.6-3.6 11.4-5.1 17.2-2 7.2-6.5 14.2-9.9 20.8l-2.9 5.6-.1.1c-1 .6-1.4 1.6-1.2 2.5-2 3.9-3.9 7.8-5.5 11.8-.3.7-.3 1.5.2 2.2l1 1.2c-1.7 1.4-3.6 4.5-5.9 3.7-.7-.3-1.3-.1-1.8.2-5.2-.7-10.9.2-16.1-.4-6.4-.7-13.1 1.1-19.5 1.5-6.5.5-13.3.1-19.6 1.9-7.9 2.2-16.4 4.6-24.7 4.8 18.8-14.1 36.2-30.1 55-44.2z"/><path class="st3" d="M102.8 116.1c3-.7 4.7.9 5 2.9.6 5.4-7.9 6.2-8 .8-.1-2.1 1.3-3 3-3.7zm-.4 4.2c.9 3.5 5-2.5 1.3-1.7-.9.2-1.6.4-1.3 1.7zm-16.6 75.5c4.5-.9 4.2 5.7 1.1 5.9-2.9.3-4.9-5.1-1.1-5.9zm1.2 3.4c0-.5 0-.9-.2-1.2h-.6c0 .7.1 1.2.8 1.2zm21.2 6.9c-2-3-.9-7.4 2.3-7.8 2.1-.3 4.7 1 5.2 3.1.7 3.7-3.7 7.5-7.5 4.7zm2.9-1.3c3.3.7 2.3-6.5-1.1-3.2-.1 1.6 0 3 1.1 3.2zM99.2 235c.7-.2 1.3-.2 1.5.8 1 3.9-5.3.2-1.5-.8zm-18-81.5c5.4-1.4 5.2 6.8 1 6.7-3.5-.1-4.8-5.8-1-6.7zm1.5 4.2c.6-.6.3-1.4-.2-1.9-1.9-.2-.9 1.9.2 1.9zm60.4-55.7c6.2-1.1 5.7 8.2.6 8-3.3-.1-5.3-7.1-.6-8zm1.4 5.4c2.5-.4-.3-5-1.7-2.1.3 1 .6 2.3 1.7 2.1z"/><path d="M104.5 156.8H115c1.9 0 1.9-2.9 0-2.9h-10.5c-1.9 0-1.9 2.9 0 2.9z"/><path d="M108 148.8v13.3c0 1.9 2.9 1.9 2.9 0v-13.3c0-1.9-2.9-1.9-2.9 0z"/><path class="st3" d="M527.3 338.7c.5 1.8-2.1 1.9-1.8.2.5-.7 1.3-.8 1.8-.2zm-20.9-23.6c4.6-1.2 4.4 5.8.8 5.7-3-.1-4-4.9-.8-5.7zm1.3 3.6c.5-.5.3-1.2-.2-1.6-1.6-.2-.8 1.6.2 1.6z"/><path d="M526.1 317.9h8.9c1.6 0 1.6-2.5 0-2.5h-8.9c-1.6 0-1.6 2.5 0 2.5z"/><path d="M529.2 311.1v11.3c0 1.6 2.5 1.6 2.5 0v-11.3c-.1-1.6-2.5-1.6-2.5 0z"/><path class="st3" d="M501.5 345.2c5.1-1.2 4.1 5.4.5 5.2-2.8-.1-4-4.4-.5-5.2zm-.2 2.4c.1 1.1 1.8.9 1.6-.3-.5-.5-1.1.1-1.6.3zm-38.8 38c3.3-.3 5.3 1.3 5.7 3.6.6 3.3-1.6 6.1-4.2 6.3-3 .3-7.3-1.8-6.3-6.3.2-1.7 2.2-3.3 4.8-3.6zm3.4 4.2c-.6-3.1-6.1-1.9-6.3 1 .8 3.6 7.1 3.2 6.3-1zm23.7-13.5c4.5-.4 3.4 5.9 0 6-3.8.1-4.1-5.6 0-6zm-.3 4c.8-.2 1.4-.7 1.3-1.8-1.3-.7-2.4 1.1-1.3 1.8zm-53.5 10.3c2.9-.3 4 1.2 4.2 2.8.8 6.1-9.4 5.2-7.6-.7.3-1 1.4-1.9 3.4-2.1zm-1.5 3.8c.2 1.8 3.9 1.5 3.6-.5-.1-.8-.6-1.1-1.8-1-1.1.1-1.9.3-1.8 1.5z"/><path d="M104.2 260.6H40.7c-3.2 0-3.2 4.9 0 4.9h63.5c3.2.1 3.2-4.9 0-4.9zm-25-11.4H14.4c-3.2 0-3.2 4.9 0 4.9h64.8c3.2 0 3.2-4.9 0-4.9zM65 236.3H50.1c-3.2 0-3.2 4.9 0 4.9H65c3.2.1 3.2-4.9 0-4.9zm385-35.5h79.7c3.2 0 3.2-4.9 0-4.9H450c-3.2-.1-3.2 4.9 0 4.9zm31.7 14.8h70.9c3.2 0 3.2-4.9 0-4.9h-70.9c-3.2 0-3.2 4.9 0 4.9zm-10.8 14.2h32.4c3.2 0 3.2-4.9 0-4.9h-32.4c-3.2-.1-3.2 4.9 0 4.9zm46.6.7h9.5c3.2 0 3.2-4.9 0-4.9h-9.5c-3.2-.1-3.2 4.9 0 4.9z"/></svg>