<svg id="Layer_1" xmlns="http://www.w3.org/2000/svg" viewBox="0 0 835.5 642"><style>.st1{fill:#999}.st2{fill:#fff}.st3{fill:#2fb2e6}</style><path d="M309.5 188.1c-1.1.5-2.2 1-3.3 1.6-50.6 24.3-94.9 62.3-124.7 119.5-5.1 9.7-9.8 20.2-11 33.8-1 11.1.6 24.7 5.6 37.7.3 36.2 8.2 77.6 29.8 114.1 26.6 44.8 67.1 69.4 98.5 70.4 17.2.6 32.4-4.7 47.4-10 49.8-17.9 98.8-37.6 146.8-59.2 4.7-2.1 9.3-4.2 13.9-6.4 31.8-14.8 62.6-32 86.4-60.5 10.3-12.3 19.3-26.8 31.8-35.7 10.1-7.2 22.4-10.6 31-20.3 7.3-8.3 11.6-20.7 14.4-34.4 3.4-16.6 4.5-35.6.5-56.6S663 237.8 649 220.9c-13.4-16.3-29.2-25-43.2-39.8-8.9-9.4-17.1-21.3-26.4-28.3-9.8-7.5-19.4-8.5-28.3-9-27.4-1.4-53.7.8-79.6 3.9-56.7 6.5-112.3 17.2-162 40.4" fill="#cfebf6"/><path class="st1" d="M185.9 205.3c-5.5 1.9-11.2 0-16.8.6-4 .4-7.6 2-10.7 4.4-7.4 5.7-11.6 14.5-15.7 22.6a653.87 653.87 0 0 0-22.9 48.6c-2.1 4.9-5 10.1-5.6 15.5-.6 5.9 3.5 10.7 6.6 15.3l11.4 17.1c1.4 2.1 4.8.1 3.4-2l-9-13.5c-1.4-2.1-2.8-4.2-4.2-6.2-1.5-2.2-3.4-4.6-4.2-7.3-1.5-5.3 2.8-12.2 4.8-17 2.1-5 4.3-9.9 6.5-14.9 4.4-9.7 9-19.3 13.8-28.7 4.1-8.1 8.1-17.2 14.5-23.9 3.5-3.6 7.8-6.1 12.9-6.4 5.5-.2 10.8 1.2 16.2-.6 2.4-.6 1.4-4.4-1-3.6zM150 330.9c25.7-.8 51.4-1 77.2-.5 2.5.1 2.5-3.8 0-3.9-25.7-.5-51.4-.4-77.2.5-2.5.1-2.5 4 0 3.9z"/><path class="st1" d="M171.2 210c-3.3 9.1-2.4 19.2-2.4 28.7v32.5c0 2.5 3.9 2.5 3.9 0V240c0-9.5-1-19.8 2.3-29 .8-2.4-2.9-3.4-3.8-1zm13.4-.9c28 30.9 59.4 58.4 93.6 82.2 2.1 1.4 4-1.9 2-3.4a546.1 546.1 0 0 1-92.8-81.6c-1.7-1.8-4.5 1-2.8 2.8z"/><path class="st1" d="M177.3 205.3c.7-4.8 1.4-9.8 3.5-14.2 2.4-5 6.6-8 11.6-10.1 5.2-2.2 10.7-3.9 16-5.9 5.3-1.9 10.8-4.6 16.3-5.8 5.1-1.1 10.8 4.7 14.7 7.5 4.2 3 8.4 6 12.5 9.1 8.4 6.3 16.6 12.9 24.2 20.1 8.6 8.2 16.5 17.1 22.9 27.1 1.4 2.1 4.7.1 3.4-2-12.4-19.1-29.5-34.3-47.6-47.9-4.7-3.5-9.5-7-14.3-10.4-4-2.8-8.6-7.4-13.7-7.6-2.5-.1-4.9.9-7.3 1.7-3.4 1.2-6.9 2.5-10.3 3.7-5.9 2.2-12 4.2-17.8 6.5-5.3 2.1-10 5.1-13 10.1-3 5.1-4 11.1-4.9 16.9-.3 2.6 3.4 3.7 3.8 1.2z"/><path class="st1" d="M225.8 162.4c-1.5-2 6-3.7 6.8-3.9l8.8-2.4 17.6-4.8 17.6-4.8 8.8-2.4c3.5-1 6.2-2.1 9.1.8 3.9 3.9 7.3 8.2 11.1 12.2s7.7 7.9 11.8 11.7c8 7.6 16.4 14.9 25.1 21.7 1.9 1.5 4.7-1.2 2.7-2.7a344.65 344.65 0 0 1-44.9-42.2c-2.7-3-5.2-6.8-9.8-6.6-4.9.2-10.2 2.5-14.9 3.8l-33.3 9c-3.6 1-25.9 4.5-19.8 12.5 1.4 2 4.8.1 3.3-1.9z"/><path class="st1" d="M295 142.4c20.4-7.9 41.3-14.4 62.5-19.5-.8-.5-1.6-.9-2.4-1.4 3.2 9.6 8.8 16.6 16.2 23.2 4.4 4 3.1 11.2 3.2 16.6l.3 18.2c.4 24.7.8 49.4 1.1 74.1 0 2.5 3.9 2.5 3.9 0l-1.2-75.4-.3-18.2c-.1-4.8.9-11.2-1.9-15.4-2.5-3.8-6.9-6.3-9.8-9.8-3.5-4.2-6.1-9.1-7.8-14.3-.3-1-1.3-1.6-2.4-1.4-21.2 5.1-42.1 11.6-62.5 19.5-2.2.9-1.2 4.7 1.1 3.8z"/><path class="st1" d="M359.1 122c13.2-.3 26.8-.9 39.9.5 4.8.5 9.9 1.6 13.9 4.2 5.4 3.6 5.7 9.1 6 15.1 1.3 28.6 2.1 57.3 2.4 86 .3 28.7.2 57.3-.3 86-.5 26.4-1.8 52.8-1.3 79.2.5 24.4 1.6 48.8.9 73.2-.1 2.5 3.8 2.5 3.9 0 .6-22.7-.2-45.3-.8-68-.6-26.6.5-53.2 1.1-79.9 1.3-59.3.6-118.6-2-177.8-.3-5.7-.9-11.1-5.3-15.2-3.7-3.4-8.7-5.1-13.6-6.1-6.5-1.2-13.1-1.2-19.6-1.3-8.4-.1-16.7-.1-25.1 0-2.6.3-2.7 4.2-.1 4.1z"/><path class="st1" d="M424.3 140.6c2.3-2 4.6-3.9 6.9-5.9 1.2-1 2.5-2.6 3.9-3.3 1.4-.7 2.5-.5 4-.2 5.2 1.1 10.4 3.1 15.4 5 9.9 3.7 19.6 8.2 28.7 13.6l6.9 4.2c.7.4 2.4 1.2 2.9 1.9 1.5 2-.2 3.6-1.2 5a149.5 149.5 0 0 0-20.5 41.9c-.8 2.4 3 3.4 3.7 1 3-9.5 6.8-18.6 11.6-27.4 2.3-4.2 4.8-8.2 7.5-12.2 1.9-2.7 5.2-6.2 3-9.7-.8-1.4-2.4-2.2-3.7-3-2.1-1.4-4.2-2.7-6.4-4a190.21 190.21 0 0 0-39.3-17.8c-4-1.3-9.6-4.1-13.7-2.3-1.9.9-3.6 2.6-5.2 4-2.5 2.1-4.9 4.2-7.4 6.3-1.8 1.8 1 4.5 2.9 2.9z"/><path class="st1" d="M493.6 162.6c9.8 5 19.6 10 29.5 15 2.3 1.2 4.6 2.3 6.9 3.5 2.8 1.4 5.6 2.2 6 5.7.7 5.2 1.1 10.4 1.6 15.6.5 5.1 1.7 10.6.1 15.5-1.7 5.3-4.9 10.3-7.4 15.2-4.9 9.7-9.7 19.3-14.6 29-5.6 11.2-11.3 22.4-16.9 33.6-1.1 2.2 2.2 4.2 3.4 2 10.8-21.4 21.5-42.9 32.3-64.3 2.4-4.7 5.2-9.4 6.9-14.4 1.7-5.2.6-10.7.1-16-.6-5.7-1-11.5-1.8-17.2-.6-4.7-3.9-6.1-7.8-8.1-12.1-6.2-24.3-12.3-36.4-18.5-2.2-1-4.1 2.3-1.9 3.4z"/><path class="st1" d="M542 196.2c17.4 12.7 38 30.6 28.7 54.5-4.3 10.9-12.6 19.8-19.4 29.3-7.7 10.8-13.5 22.7-19.2 34.5-7 14.5-14 29.1-21.1 43.6-1.1 2.2 2.3 4.2 3.4 2 6.7-13.8 13.3-27.6 20-41.4 6.2-12.8 12.3-25.6 20.6-37.2 7-9.7 15.3-18.9 19.6-30.3 4-10.7 2.7-22-3.1-31.7-6.7-11.1-17.2-19.2-27.5-26.7-2-1.4-4 1.9-2 3.4z"/><path class="st1" d="M567.2 264.8c7.6-.3 15.2-.2 22.7.3 6.2.4 13.4.8 18.2 5.3 4.7 4.3 5.3 11.3 5.6 17.3.3 7.6.5 15.1.7 22.7.4 15.3.9 30.6 1.3 45.9.1 3.8.1 7.3-2.5 10.3-2.2 2.5-5 4.7-7.5 6.9-5.4 4.8-10.6 10.2-16.5 14.2-7.3 5-15.9 3.6-24.3 3.3-8.6-.4-17.3-.7-25.9-1.1-2.5-.1-2.5 3.8 0 3.9 8.6.4 17.3.7 25.9 1.1 7.5.3 15.6 1.6 22.7-1.7 6.7-3.2 12.2-9.1 17.6-14 2.9-2.6 5.8-5.1 8.7-7.7 2.4-2.2 4.5-4.5 5.3-7.7.9-3.4.5-7.1.4-10.6-.1-4.5-.3-9.1-.4-13.6-.3-8.6-.5-17.2-.8-25.9-.2-8.5-.4-16.9-.7-25.4-.2-6.3-.9-13.1-4.8-18.3-4.1-5.5-10.9-7.3-17.4-8.1-9.3-1.1-18.9-1.2-28.3-.8-2.4-.1-2.5 3.8 0 3.7z"/><path class="st1" d="M564.4 380.1l-14.6-13.4c-.6-.6-1.2-1.1-1.8-1.7-.5-.7-.4-1.3.3-1.9.4-1.2 1.2-2.4 1.8-3.4 1.6-3.1 3.2-6.1 4.8-9.2 6.2-11.8 12.4-23.7 18.6-35.5 1.2-2.2-2.2-4.2-3.4-2-7 13.4-14 26.7-21 40.1-1.6 3.1-3.7 6.3-5 9.5-.8 2-.4 3.5 1.1 5.1 5.1 5.3 11 10 16.4 15 1.9 1.9 4.7-.9 2.8-2.6zm8.1-30.5c3.7 2.9 7.8 5.1 12.4 6.5 2.4.7 3.4-3 1-3.7-3.9-1.2-7.5-3-10.7-5.5-1.9-1.6-4.6 1.2-2.7 2.7z"/><path class="st1" d="M454.1 274.4c-.2 23.1-.5 46.2-.7 69.3l-.3 34.3c-.1 10.5-.9 21.3.3 31.8.9 8.3 3.6 16.5 10.1 22.2 6 5.3 13.8 7.7 21.6 8.8 9.1 1.3 18.4.9 27.6.9 11.3 0 22.6-.1 34-.1 5.1 0 10.8.8 14.8-3 3.7-3.6 6.7-8.5 9.3-12.9 5.7-9.5 10-19.8 12.7-30.5.6-2.4-3.1-3.5-3.7-1-2.3 9.2-5.7 18-10.3 26.2-2.2 3.9-4.6 7.6-7.2 11.2-1.5 2.1-3.2 4.9-5.8 5.8-2.5.9-5.8.4-8.5.4-10.5 0-20.9.1-31.4.1-9.1 0-18.3.4-27.4-.4-7.5-.7-15.4-2.4-21.6-7-7.5-5.6-10-14.7-10.5-23.6-.6-9.5-.1-19.1 0-28.6l.3-32.4c.2-23.7.5-47.5.7-71.2-.1-2.8-4-2.8-4-.3zm-311.9 74.2a248 248 0 0 1 26.1 21.9c3.7 3.6 7.1 7.7 11.1 11 3.8 3.2 8.1 4.5 13 4.7 11.9.5 24 .1 35.9.1h79.2c2.5 0 2.5-3.9 0-3.9H199.7c-5.9 0-12.3.6-17.2-3.3-3.9-3.1-7.1-7.1-10.6-10.6-8.7-8.4-18-16.2-27.7-23.3-2.1-1.5-4 1.9-2 3.4z"/><path class="st1" d="M227.7 391.9c.9 5.1 1.4 10.2 1.5 15.3 0 1.9-.6 4.9 0 6.6.6 1.5 2.5 2.4 3.8 3.2 6.5 4.2 14.1 6.3 21.8 7.3 8.4 1.1 17 .8 25.5.4 10.2-.5 20.4-1.1 30.6-1.6l61.8-3.3c3.2-.2 6.8 0 9.4-2 2.9-2.2 3.6-5.9 4-9.2 1.4-10.3 2.5-20.6 3.5-30.9.5-4.9 1.6-10.4.9-15.3-.7-4.8-4.2-7.7-7.7-10.5-8.9-7.1-17.8-14.3-26.7-21.4-1.9-1.6-4.7 1.2-2.7 2.7l19.8 15.9c3.2 2.5 6.4 5 9.5 7.6 3.6 3.1 4.4 6.1 4 10.7-.7 8.6-1.6 17.2-2.5 25.8-.4 3.9-.9 7.7-1.4 11.6-.5 3.9-.3 9.8-5.1 10.9-3.6.8-7.7.5-11.3.7-4.5.2-9 .5-13.5.7-8.4.4-16.7.9-25.1 1.3-16.8.9-33.6 1.9-50.5 2.7-15.5.7-32.2.5-45.1-9.4.3.6.6 1.1 1 1.7.3-7.5-.3-15-1.5-22.4-.7-2.6-4.5-1.5-4 .9zm284.1-149.8c-8.9-2.7-17.6-5.8-26.2-9.3-2.9-1.2-5.6-2.3-8.5-.5-2.9 1.8-4.1 5.1-5.1 8.2-.4 1.2 1.5 1.7 1.9.5 1.3-4 3.5-8.9 8.6-7.3 3.1 1 6.2 2.5 9.2 3.7 6.4 2.5 12.9 4.6 19.5 6.6 1.3.4 1.8-1.5.6-1.9zm-15.4-16.4c5.2-11.9 10.1-24 14.6-36.2.2-.5-.2-1.1-.7-1.2-3-.9-6-1.7-9.1-2.5-1.9-.5-4.5-1.6-6.5-.9-1.9.7-3.1 3.1-4.2 4.6-1.6 2.3-2.8 4.8-3.9 7.4-.5 1.2 1.4 1.7 1.9.5.9-2.1 1.9-4.1 3.1-6 1.7-2.8 3.3-4.8 6.8-4.4 3.8.5 7.7 1.9 11.3 3-.2-.4-.5-.8-.7-1.2-4.5 12.1-9.3 24-14.4 35.8-.3 1.2 1.3 2.2 1.8 1.1zm9.2-3c5 1.9 10.2 3.4 15.4 4.7 1.2.3 1.7-1.6.5-1.9-5.2-1.3-10.3-2.9-15.4-4.7-1.2-.4-1.7 1.4-.5 1.9zm7.6-15.1c4 3.3 8.5 5.7 13.5 7.2 1.2.4 1.7-1.5.5-1.9-4.7-1.4-8.9-3.6-12.6-6.7-.9-.8-2.3.6-1.4 1.4zm-123 34.2c3.4.2 10.2 1.1 12.9-1.6 1.2-1.2 1.3-2.8 1.4-4.4.2-2.8.1-5.5.2-8.3.2-11.7-.2-23.4-.9-35.1-.1-1.2-2-1.3-1.9 0 .6 9.3.9 18.7.9 28.1 0 4.7 0 9.4-.2 14-.1 1.6.1 2.7-1 3.9-1.1 1.2-2.1 1.2-3.6 1.3-2.6.2-5.2.2-7.8.1-1.2 0-1.2 1.9 0 2zm12.2-59c-.3-15.2-1-30.4-1.9-45.5 0-.5-.4-1-1-1h-13.1c-1.3 0-1.3 1.9 0 1.9h13.1l-1-1c.9 15.2 1.6 30.3 1.9 45.5.1 1.3 2 1.3 2 .1zm-16.5-11.5h7.2c1.3 0 1.3-1.9 0-1.9h-7.2c-1.3 0-1.3 1.9 0 1.9zm1.4 44.1h7.2c1.3 0 1.3-1.9 0-1.9h-7.2c-1.2 0-1.2 1.9 0 1.9zm.5-7.5l5.7-.6c1.2-.1 1.2-2.1 0-1.9l-5.7.6c-1.2 0-1.2 2 0 1.9zm-1.9-28.9l5.7-.6c1.2-.1 1.2-2.1 0-1.9l-5.7.6c-1.2.1-1.2 2.1 0 1.9zm-68.6 50.3c5.7-4.3 11.1-9 16-14.2 1.4-1.5 3.7-3.3 3.3-5.6-.4-2.4-3.5-4.6-5.1-6.3a236.66 236.66 0 0 0-33.7-28.7c-1-.7-2 1-1 1.7 10.1 7 19.5 14.8 28.3 23.4 2.1 2.1 4.2 4.1 6.2 6.3 1.7 1.8 3.8 3 2.2 6.1-.5 1.1-2 2.1-2.8 3-4.5 4.6-9.3 8.8-14.4 12.6-.9.7 0 2.4 1 1.7z"/><path class="st1" d="M311.2 211c-18.1-12.1-27.6-33.2-46.1-44.9v1.7c4.6-2.6 9.2-5 13.9-7.3 1.1-.5.1-2.2-1-1.7-4.7 2.3-9.4 4.7-13.9 7.3-.7.4-.6 1.3 0 1.7 18.5 11.7 28 32.8 46.1 44.9 1.1.6 2.1-1 1-1.7zm96.2 134.1c.6-14.9.5-29.7-.3-44.6l-.3-5.1c-.1-1 .2-2.5-.3-3.5-.7-1.4-1.9-1.3-3.4-1.4-7.5-.3-15 0-22.5.5-1.2.1-1.3 2 0 1.9 6.3-.4 12.5-.6 18.8-.6.8 0 4.4-.4 5 .1.9.9.6 4.2.7 5.4.2 3 .3 5.9.4 8.9.5 12.7.5 25.5 0 38.2-.1 1.5 1.9 1.5 1.9.2z"/><path class="st1" d="M369.4 316.5c4 3.8 8 7.5 12 11.1 2 1.8 4.1 3.6 6.2 5.4 1 .9 2.1 1.9 3.5 2.1 3.4.5 3.8-3 4-5.4.4-5.6.4-11.2.3-16.8 0-1.2-2-1.3-1.9 0 .1 3.7.2 7.3 0 11-.1 1.7.2 4.1-.3 5.8 0 .4-.1.9-.1 1.3-1.2.4-2.4.7-3.6 1.1-.7-.1-1.9-1.6-2.4-2.1-5.6-4.8-11-9.8-16.3-14.9-.9-.8-2.3.6-1.4 1.4zM345.6 398c.4-8.1.6-16.3.5-24.4 0-1.9-.2-3.8-.1-5.7.2-2.5 1.1-4.2 2.5-6.2 2.5-3.5 5-6.9 7.5-10.4.7-1-1-2-1.7-1l-7.9 10.9c-2.4 3.3-2.4 5.8-2.3 9.8.1 9-.1 18-.5 27 0 1.3 1.9 1.3 2 0zm9-5.8h10.8c1.9 0 4.5.5 5.7-1.4 1.2-2 .6-5.7.6-7.9.1-4 .2-7.9.2-11.9 0-1.3-1.9-1.3-1.9 0-.1 2.7-.1 5.4-.2 8.1 0 2.5.4 5.7-.2 8.1-.4 2-1 2.6-3.1 3-1.1.2-2.5 0-3.6 0h-8.4c-1.1.1-1.1 2 .1 2z"/><path class="st1" d="M354.6 381.9h8.1c1.3 0 1.3-1.9 0-1.9h-8.1c-1.2-.1-1.2 1.9 0 1.9zm-.5-5.8h5.8c1.3 0 1.3-1.9 0-1.9h-5.8c-1.3-.1-1.3 1.9 0 1.9zm-55.7 35.2c1.8-3.5 2.6-7.1 2.3-11 0-.5-.4-1-1-1-13.8.5-27.6 1.2-41.4 2.1-1.2.1-1.3 2 0 1.9 13.8-.9 27.6-1.6 41.4-2.1l-1-1c.2 3.6-.4 6.8-2.1 10-.5 1.3 1.2 2.3 1.8 1.1zm31.2-59c-8-4.3-16-8.5-24-12.8-3.8-2-7.6-4.1-11.4-6.1-3.3-1.7-6.9-4.5-10.5-5.3-5.8-1.3-10 7.3-12.7 11-5.4 7.3-10.8 14.7-16.2 22-.7 1 .9 2 1.7 1l13.5-18.3c2.3-3.1 4.6-6.3 6.9-9.4 1.1-1.5 2.6-3.7 4.6-4.3 2.2-.6 4.8 1.3 6.6 2.3 13.5 7.2 27.1 14.4 40.6 21.6 1 .6 2-1.1.9-1.7z"/><path class="st1" d="M281.4 371.3c.4-4.8.2-10.2 1.2-15 1-4.4 3.8-3.5 7.1-3.5h7.4c1.3 0 1.3-1.9 0-1.9h-10.5c-1.7 0-4-.3-5.1 1.2-1.4 1.8-.9 5.5-1.1 7.5l-.9 11.7c-.2 1.2 1.8 1.2 1.9 0zm11.2-7.7c0 2.7.1 5.4.1 8.1 0 .5.4 1 1 1 5.8-.3 11.6-.5 17.3-.8 1.2-.1 1.3-2 0-1.9-5.8.3-11.6.5-17.3.8l1 1c0-2.7-.1-5.4-.1-8.1-.1-1.3-2-1.3-2-.1zm-66.5 3.2c-2.8-3.9-5.8-7.6-9-11.2-2.4-2.7-5.2-7.1-9.1-7.5-4.9-.6-10.4.2-15.4.4-5.5.2-11 .3-16.6.5-1.2 0-1.3 2 0 1.9l28-.9c2.8-.1 4.6-.2 6.8 1.8 1.7 1.6 3.3 3.4 4.8 5.1 3.1 3.4 5.9 7 8.7 10.8.9 1.1 2.5.1 1.8-.9zm-38.8-.8h19.5c1.3 0 1.3-1.9 0-1.9h-19.5c-1.3 0-1.3 1.9 0 1.9zm-34.1-54.8c9.3-.5 18.6-.9 27.9-1.4l7-.3c1.4-.1 3.4.2 4.8-.4 2.3-1 1.7-3.8 1.7-5.9-.3-19-.6-38-1-57 0-1.2-2-1.3-1.9 0 .3 16.6.6 33.2.8 49.9 0 1.9.1 3.9.1 5.8 0 1 .3 2.3.1 3.2-.4 1.7-1.1 2-2.7 2.3-3.8.8-8.2.4-12.1.6l-24.8 1.2c-1.2.1-1.2 2 .1 2zm53.9-40.9l11.3 8.9c3.5 2.8 7.8 5.4 10.9 8.7 2.1 2.2 1.7 5.2 1.8 8 0 2.2.8 6.3-1.6 7.1-1.9.6-5.1 0-7.1 0h-7.8c-1.3 0-1.3 1.9 0 1.9H225c2 0 5 .6 6.8-.2 1.5-.7 1.3-2.2 1.4-3.7 0-3.1.1-6.3-.1-9.3-.4-5-4.9-7.4-8.5-10.2-5.3-4.2-10.6-8.3-15.9-12.5-1.2-.9-2.6.5-1.6 1.3z"/><path class="st1" d="M204.8 286.7l9.2 6.8c1 .7 2-.9 1-1.7l-9.2-6.8c-1.1-.7-2 1-1 1.7zm43.6.5c-.1 4.5-.3 9-.4 13.4-.1 2.1-.1 4.3-.2 6.4 0 1.2-.4 2.9.5 3.9 1.4 1.7 5.4.9 7.2.9 4.6 0 9.2 0 13.7.1 1.3 0 1.3-1.9 0-1.9-3.3 0-6.7 0-10-.1h-5c-1.9 0-4 .6-4.5-1.6-.3-1.5.1-3.6.2-5.1.1-1.7.1-3.4.2-5.1l.3-10.9c0-1.3-1.9-1.3-2 0zM219 270.6c2.9-1.4 5.6-3.4 7.8-5.7.9-.9-.5-2.3-1.4-1.4-2.2 2.2-4.6 4-7.4 5.4-1.1.6-.1 2.3 1 1.7zm9.1 4.9l6.3-4.2c1-.7.1-2.4-1-1.7l-6.3 4.2c-1.1.7-.1 2.4 1 1.7zm-73.7-18.4c-6.6 12.2-12.8 24.6-18.6 37.3-.5 1.1-1.6 2.7-.8 3.9.9 1.4 4 1.2 5.5 1.3 7 .7 14.1.6 21-.4 1.2-.2 1.2-2.1 0-1.9-5.7.8-11.5 1-17.3.7l-3.7-.3c-1.7-.2-3.8.5-3.2-1.7.8-2.7 2.5-5.4 3.6-7.9 4.8-10.1 9.8-20.1 15.2-29.9.6-1.2-1.1-2.2-1.7-1.1zm149.8 62.8c5.4-5.1 9.7-11.1 13.6-17.3 3.2-5 7.5-10.1 2.3-15.1-12.6-12.1-25.7-23.6-38.6-35.3-.9-.8-2.3.5-1.4 1.4 11 10.1 22 20.1 33 30.2 2.4 2.2 7.3 5.3 7.7 8.7.4 2.8-3.6 7.5-5 9.7-3.7 5.9-7.8 11.6-13 16.4-.9.8.4 2.2 1.4 1.3zm-75.8-128.5c7.3 7.2 15.6 13.1 22.9 20.3 7.4 7.3 14.9 14.6 23.8 20.2 1.1.7 2-1 1-1.7-9.1-5.7-16.6-13.2-24.2-20.6-7-6.9-15.1-12.6-22.1-19.5-.9-1-2.3.4-1.4 1.3z"/><path class="st1" d="M228.4 190l-16.3 14.2c-.9.8.4 2.2 1.4 1.4l16.3-14.2c.9-.9-.5-2.2-1.4-1.4zm-4.7 20.2c4.6 6.9 10 13.3 16.2 18.8 3 2.7 6.2 5.1 9.5 7.4 2.7 1.8 5 2.7 8 .9 1.8-1 4.4-2.7 2.9-4.9-1.1-1.7-3.1-3.2-4.6-4.6l-5.3-5.3c-6.4-6.5-12.7-13.5-20.6-18.3-1.1-.6-2.1 1-1 1.7 6.2 3.7 11.1 8.9 16.2 14l8 8c1.3 1.3 2.7 2.6 4 4 .4.5 1.6 1.4 1.6 2.2-.1.7-2.3 1.8-2.9 2-3.6 1-7.5-2.8-10.2-4.9-2.5-2-5-4.1-7.3-6.3a89.6 89.6 0 0 1-12.7-15.5c-.8-1.2-2.5-.2-1.8.8z"/><path class="st1" d="M225.3 210.8c1.8-1.2 3.7-2.4 5.5-3.6 1-.7.1-2.4-1-1.7-1.8 1.2-3.7 2.4-5.5 3.6-1.1.7-.1 2.4 1 1.7zm7.5 25.4c7.8 9.6 16.8 18.2 26.1 26.4 4.6 4 9.2 8 13.8 11.9 1.3 1.1 3.2 3.5 5.1 3.6 2.2.1 4.8-2.3 6.6-3.4 1.1-.6.1-2.3-1-1.7-1.2.7-2.6 1.9-3.9 2.3-2.3.8-3.9-.9-5.5-2.3-1.9-1.6-3.8-3.2-5.7-4.9-4.1-3.5-8.2-7.1-12.2-10.7-7.8-7.1-15.3-14.6-22-22.8-.8-.7-2.1.6-1.3 1.6zm85.9 13.5c10.2-10 20.3-20.1 30.2-30.4-.6-.2-1.1-.5-1.7-.7-.2 9.4-.3 18.9-.5 28.3 0 1.3 1.9 1.3 1.9 0 .2-9.4.3-18.9.5-28.3 0-.8-1.1-1.3-1.7-.7-9.9 10.3-20 20.5-30.2 30.4-.8.9.6 2.3 1.5 1.4zm12.6.2c-2.7 2.3-5.5 4.5-8.2 6.8-.3.2-.4.9-.2 1.2 11.7 15.3 26.6 27.7 43.8 36.5 1.1.6 2.1-1.1 1-1.7-16.8-8.6-31.6-20.8-43.1-35.8-.1.4-.1.8-.2 1.2 2.7-2.3 5.5-4.5 8.2-6.8 1.1-.9-.3-2.2-1.3-1.4zm1.4 56.2c3.4-3 8.4-7.5 9.7-12.1 1.3-4.5-4.5-7.9-7.3-10.3-9.1-7.8-18.5-15.6-25.3-25.7-.7-1-2.4-.1-1.7 1 5.4 8.1 12.4 14.8 19.7 21.1 3.5 3.1 8 5.9 11 9.5 4.3 5.1-4 11.9-7.6 15.1-.8.9.6 2.2 1.5 1.4zm22.8-68c3.4.1 6.7-.2 10-.9 1.2-.2.7-2.1-.5-1.9-3.1.6-6.3.9-9.4.8-1.4.1-1.4 2-.1 2zm-.7-9.1c3.4.3 6.7.1 10-.7.4-.1.7-.5.7-.9v-11.8c0-1.3-1.9-1.3-1.9 0v11.8c.2-.3.5-.6.7-.9-3.1.7-6.2.9-9.4.6-1.4-.2-1.3 1.8-.1 1.9zm-30.4-79c6.2 7.2 12.3 14.4 18.7 21.5 1.9 2.1 3.2 2.1 5.7.8 4.3-2.3 8.6-4.7 12.9-7 1.1-.6.1-2.3-1-1.7-3.4 1.8-6.7 3.7-10.1 5.5-2.1 1.1-3.9 2.7-6.2 1-1.4-1-2.6-3-3.7-4.3-5-5.7-10-11.5-14.9-17.2-.9-.9-2.2.5-1.4 1.4z"/><path class="st1" d="M355.4 153c-1.7-4.1-3.2-9.6-6.7-12.5-3.1-2.6-7.2-2.2-10.8-1-2.1.7-7.2 1.9-6.3 5.1.4 1.5 2.1 2.3 3.3 3.1 2.6 1.9 4.3 4.5 5.1 7.6.3 1.2 2.2.7 1.9-.5-.7-2.6-1.9-5-3.8-7-.9-.9-1.9-1.6-2.9-2.4-2.9-2.1.8-3.3 2.8-4 4.1-1.5 8.5-1.7 11.2 2.3 2.1 3 3.3 6.9 4.7 10.2.3 1.2 2 .3 1.5-.9zm108.8 38.6l-.3-32.3c0-3.2-.3-4.2-3.5-4.2h-16.3c-1.3 0-1.3 1.9 0 1.9h13.1c1 0 2.1-.1 3.1 0 1.9.2 1.1-.2 1.6 1 .7 1.8.1 5 .1 7l.3 26.6c0 1.3 1.9 1.3 1.9 0zm-22.4-24.8c.3 9 .5 18 .8 27.1 0 .5.4 1 1 1 2.2 0 4.5 0 6.7.1 1.3 0 1.3-1.9 0-1.9-2.2 0-4.5 0-6.7-.1l1 1c-.3-9-.5-18-.8-27.1 0-1.4-2-1.4-2-.1zm7.6 7.3c-.2 3.1-.1 6.2.5 9.3.2 1.2 2.1.7 1.9-.5-.5-2.9-.7-5.8-.4-8.8 0-1.2-1.9-1.2-2 0zm-15.1 36.7l-.3 14.6c-.1 4.7-.8 9.9-.3 14.6.3 2.5 1.7 2.5 4 2.5 4.9 0 9.9-.3 14.8-.4 1.2 0 1.3-2 0-1.9l-11.1.3c-1.3 0-4.9.7-5.7-.5-.6-.8.1-4.8.1-5.7.1-7.8.3-15.7.4-23.5.1-1.2-1.9-1.2-1.9 0zm51.4 43.6c.8 9 1.1 18 1 27.1 0 .8 1.1 1.3 1.7.7 5.5-6.4 9.7-13.6 12.6-21.5.4-1.2-1.4-1.7-1.9-.5a69.5 69.5 0 0 1-12.1 20.7c.6.2 1.1.5 1.7.7.1-9-.2-18.1-1-27.1-.2-1.4-2.1-1.4-2-.1zm60.7-16.2c2.1 1.2 4.2 2.4 6.3 3.7.3.2 3 1.5 3.1 1.8.2.7-1.1 2-1.4 2.4a325.16 325.16 0 0 0-23.8 37.3l1.3-.3c-1.3-.6-2.8-1.1-4-1.8-1.1-.6-1.1-.3-.9-1.5.1-.7.9-1.7 1.3-2.2 1.8-3.2 3.6-6.3 5.4-9.5 3.6-6.3 7.2-12.7 10.7-19 .6-1.1-1.1-2.1-1.7-1-4.5 8-9 16-13.6 24-1.1 1.9-2.1 3.7-3.2 5.6-.5.9-1.5 2.1-1.3 3.3.4 2.1 4.8 3.1 6.4 3.8.5.2 1.1.2 1.3-.3a351.91 351.91 0 0 1 23.5-36.8c.8-1 2.6-2.6 2.3-4.1-.2-1.3-1.8-1.9-2.8-2.4-2.6-1.5-5.2-3.1-7.8-4.6-1.2-.7-2.2 1-1.1 1.6zm-29.9 54.7c1.1.6 4.1 1.5 4.8 2.4 1.2 1.8-1.4 5.4-2.2 7a976.4 976.4 0 0 1-17.9 34.3c-.6 1.1 1.1 2.1 1.7 1 5.1-9.3 10.1-18.7 14.9-28.2 1.2-2.4 2.4-4.8 3.6-7.3.8-1.7 2.3-3.6 2.6-5.5.6-3.1-4.4-4.4-6.5-5.5-1.2-.5-2.1 1.2-1 1.8z"/><path class="st1" d="M547.1 236.4l6.7-8.5c.8-1-.6-2.4-1.4-1.4l-6.7 8.5c-.8 1 .6 2.4 1.4 1.4zm-8.4 112.5c-5-.7.8-8.7 1.8-10.6 1.5-2.7 2.9-5.3 4.4-8 3.2-5.7 6.3-11.4 9.5-17.1 5.6-10.1 10.5-22.1 19.3-29.8.9-.8-.4-2.2-1.4-1.4-5 4.3-8.3 9.9-11.5 15.6-4 7.1-7.9 14.3-11.9 21.4-3.9 7-7.8 14-11.7 21.1-1.6 3-5 9.8.9 10.7 1.3.2 1.8-1.7.6-1.9zm-69.6-31.3c.4 32.2.9 64.5 1.3 96.7 0 .6.4.9 1 1 23 2.4 46.2 2.9 69.3 1.4 1.2-.1 1.3-2 0-1.9-23.1 1.5-46.3 1-69.3-1.4l1 1c-.4-32.2-.9-64.5-1.3-96.7-.1-1.4-2-1.4-2-.1z"/><path class="st1" d="M513.6 408.5c.4-3.4.4-6.8.2-10.2 0-.5-.4-1-1-1-7.9-.2-15.8 0-23.7.7-1.2.1-1.2 2 0 1.9 7.9-.6 15.8-.9 23.7-.7l-1-1c.2 3.4.1 6.8-.2 10.2 0 1.3 1.9 1.3 2 .1zm-31.2-26.8c4.1-15.1-2.3-30.5.3-45.8.2-1.2-1.7-1.7-1.9-.5-2.6 15.2 3.8 30.7-.3 45.8-.3 1.1 1.6 1.7 1.9.5z"/><path class="st2" d="M454.8 469.3c0-1-.2-2-.9-2.6-.6-.5-1.5-.5-2.3-.4-19.6 1-39.2 2.3-58.8 3.8-1.6.1-2.8 1.5-2.8 3.1.3 17.3.8 34.5 1.5 51.8 0 1.1.2 2.4 1.1 3.1.7.6 1.8.6 2.7.5 6.7-.2 13.5-.5 20.2-.9 2.8 3.4 5.6 6.5 8.3 9.8.9 1.1 2.6 1 3.4-.2 2.3-3.4 4.3-6.9 6.1-10.7 6.2-.4 12.4-1 18.5-1.5 2.3-.2 4.1-2.1 4.1-4.4.1-17.1-.3-34.2-1.1-51.4z"/><path class="st3" d="M456.2 469.3c-.4-5.6-5.4-4.4-9.7-4.1-7.3.4-14.5.8-21.8 1.3-7 .5-14.1.9-21.1 1.4-3.6.3-7.3.3-10.9.8-1.6.3-2.9.9-3.7 2.4-1.1 2.2-.4 5.5-.4 7.8.1 3.7.1 7.3.2 11l.6 22c.1 3.5.3 6.9.4 10.4.1 2.1-.2 5.1 1.6 6.7 1.6 1.4 4.3.9 6.2.9 3.8-.1 7.6-.3 11.4-.5 1.6-.1 4.1-.7 5.6 0 1.4.6 2.6 2.6 3.6 3.8 1.6 1.9 3.6 5.5 6.1 6.3 2.1.6 3.5-.7 4.6-2.4 2.1-3.1 3.9-6.4 5.5-9.8-.4.2-.8.5-1.2.7 3.5-.3 7-.5 10.5-.8 2.9-.2 6.4-.1 9.2-.9 5.5-1.6 4.3-8.3 4.3-12.7 0-14.7-.3-29.5-1-44.3-.1-1.8-2.8-1.8-2.7 0 .6 12.2.9 24.4 1 36.6v9c0 3.4 1 7.8-3.1 8.9-2.8.7-6 .6-8.9.8-3.1.3-6.2.5-9.3.7-.5 0-1 .2-1.2.7-1 2-2 4-3.1 6-.5.9-1.1 2-1.7 2.9-.6.8-.5 1-1.5 1.4-1.4.5-1.4-.2-2.4-1.4-1.5-1.8-3-3.5-4.5-5.3-1.3-1.5-1.9-3-3.9-3.1-5.2-.3-10.6.5-15.8.7-1.6.1-3.4.4-4.9-.3-1.3-.7-1.2-.5-1.3-1.8-.1-.6-.1-1.3-.1-1.9l-.3-8.4c-.4-11-.7-22-.9-33 0-2.2-.8-5.7-.1-7.8 1-3.2 6.2-2.7 9.1-2.9l16.6-1.2c6-.4 11.9-.8 17.9-1.1l9.6-.6c2.1-.1 8.7-1.5 8.9 1.3 0 1.6 2.7 1.6 2.6-.2z"/><path class="st2" d="M599.7 351.9c0-.2 0-.5-.2-.6-.1-.1-.4-.1-.5-.1l-14.1.9c-.4 0-.7.4-.7.7.1 4.1-.1 5.2.1 9.4 0 .3 0 .6.3.8.2.1.4.1.6.1 1.6-.1 3.2-.1 4.8-.2.7.8 1.3 1.6 2 2.3.2.3.6.2.8 0 .5-.8 1-1.6 1.5-2.6 1.5-.1 3-.2 4.4-.4.6-.1 1-.5 1-1.1 0-4 .2-5.1 0-9.2z"/><path class="st3" d="M600.7 351.7c-.1-.2-.1-.4-.2-.6-.1-.3-.3-.6-.7-.7-3.2-.6-7 .2-10.2.4-1.7.1-5.1-.4-6.1 1.3-.9 1.6-.2 5.5-.2 7.3 0 1.7-.5 3.9 1.4 4.6 1.5.6 3.3-.5 4.8.2 1.1.4 1.5 1.9 2.6 2.2 1.9.3 2.2-2.4 3.9-2.8 1.9-.5 4.2.3 4.7-2.1.6-2.9.1-6.5 0-9.4-.1-1.3-2-1.3-2 0 .1 1.9.1 3.9.1 5.8 0 1.4.3 2.8-1.2 3.6-.9.5-2.4-.2-3.3.3-.7.4-1.4 2.1-1.8 2.2-.9.2-1.2-1.3-1.8-1.7-.6-.3-.6-.2-1.3-.3-1-.1-2.7.6-3.6.2-.7.3-.9 0-.6-1v-1.8c0-1.4-.2-3.1 0-4.5.4-2.7 3.2-2 5.5-2.2.8-.1 7.9-.8 8-.5.5 1.2 2.4.7 2-.5z"/><path class="st2" d="M559.8 220.6c0-.2 0-.3-.2-.4-.1-.1-.3-.1-.4-.1-3.4.2-6.7.4-10.1.7-.3 0-.5.3-.5.5 0 3 0 3.7.1 6.7 0 .2 0 .4.2.5.1.1.3.1.5.1 1.2 0 2.3-.1 3.5-.2l1.4 1.7c.2.2.4.2.6 0 .4-.6.7-1.2 1-1.8l3.2-.3c.4 0 .7-.4.7-.8 0-2.9.1-3.7 0-6.6z"/><path class="st3" d="M560.7 220.4c-.1-.1-.1-.3-.2-.4-.1-.3-.3-.6-.7-.7-1.8-.3-3.9.1-5.7.2-1.6.1-3.8-.1-5.3.4-2 .7-1.2 4.5-1.2 6.1 0 .9-.2 2.3.4 3.1 1 1.2 2.7.1 3.9.5 1 .3 1.4 1.8 2.6 1.8 1.2 0 1.7-1.6 2.2-2.5-.3.2-.6.3-.8.5 1.6-.1 4.3.3 4.8-1.7s.1-4.8 0-6.9c-.1-1.3-2-1.3-2 0 .1 1.3.7 5.7-.5 6.5-.7.5-2-.2-2.8.3-.8.4-.7 1.6-1.4 2h1c-.8-.3-1-1.4-1.7-1.8-.6-.3-1.6-.2-2.2 0-.6-.1-1 0-1.4.4v-3.6c0-.5-.2-2 0-2.3.5-.7 2.1-.5 2.8-.5 2.1-.1 4.8-.8 6.8-.4l-.7-.7c.1.1.1.3.2.4.5 1 2.4.5 1.9-.7z"/><path class="st2" d="M589.5 297.7c0-.3 0-.6-.3-.8-.2-.1-.5-.1-.7-.1-6 .3-12 .7-18.1 1.2-.5 0-.9.5-.9.9.1 5.3.2 10.6.5 15.9 0 .4.1.7.3 1 .2.2.5.2.8.2l6.2-.3c.9 1 1.7 2 2.6 3 .3.3.8.3 1-.1.7-1.1 1.3-2.1 1.9-3.3 1.9-.1 3.8-.3 5.7-.5.7-.1 1.2-.7 1.3-1.4 0-5.2-.1-10.5-.3-15.7z"/><path class="st3" d="M590.4 297.7c-.4-3.2-4.9-1.8-7.1-1.6-2.6.2-5.2.3-7.7.5-1.7.1-4.2-.2-5.6.5-.9.4-1.1.8-1.3 1.8-.5 2.3.1 5.6.2 7.9.1 2.5-.2 5.5.3 7.9.1.7.2 1.4.8 1.8 1.2.9 3.6.1 5 .2 1.5 0 2 .1 3.1 1.1.5.5.9 1.3 1.5 1.6.8.4 1.4.5 2.1-.1 1.7-1.3 1-2.8 3.6-3.3 2.4-.5 5 .3 5.6-2.6.5-2.2 0-5 0-7.3-.2-2.8-.3-5.6-.5-8.4-.1-1.3-2-1.3-2 0 .1 3.2.3 6.5.3 9.7 0 1.3.5 3.6 0 4.9-.9 2.3-2.9 1.8-4.8 2-2.5.2-1.3.6-2.9 2.3-1.2 1.3-1.2.4-2.4-.8-.8-.8-.5-.8-1.3-1.1-1.2-.5-3.6.3-5 .2-1.3.4-1.8-.1-1.5-1.3 0-.8-.1-1.6-.1-2.4-.1-2.9-.2-5.7-.2-8.6v-2.4c.5-1.1 1.3-1.6 2.4-1.4 1.6-.4 3.5-.3 5.2-.4.9-.1 10.3-.7 10.3-.7.2 1.2 2.2 1.2 2 0z"/><path class="st2" d="M540.1 382.3c0-.3 0-.6-.3-.8-.2-.1-.4-.1-.7-.1-5.8.3-8.4.5-14.3.9-.5 0-.8.4-.8.9.1 5.1-.1 6.5.1 11.7 0 .3.1.7.3.9.2.2.5.2.8.2 2-.1 2 0 4-.1.8 1 1.7 1.9 2.5 2.9.3.3.8.3 1-.1.7-1 1.3-2.1 1.8-3.2 1.8-.1 2.4-.3 4.3-.5.7-.1 1.2-.6 1.2-1.3.1-5 .3-6.3.1-11.4z"/><path class="st3" d="M541 382.3c-.4-2.7-3.2-1.8-5.3-1.7-1.9.1-3.7.2-5.6.4-1.6.1-4-.1-5.6.4-2.6.9-1.5 4.8-1.5 6.9 0 2-.9 7 .8 8.4.9.7 2.4.2 3.4.4 1.1.1 1.6.3 2.5 1.1.6.6.9 1.4 1.7 1.7 2.4.9 2.8-2.6 4.4-3.4 2-.9 4.5.4 5.1-2.5.8-3.6.3-8.1.1-11.7-.1-1.3-2-1.3-2 0 .1 2.5.1 4.9.1 7.4 0 .8.2 2.2-.1 2.9-.6 2.1-2 1.7-3.6 1.9-2.4.3-1 .6-2.7 2.2-.2.9-.6 1-1.3.4-.6-.6-1.1-1.3-1.7-1.9-.5-.2-.6-.2-1.2-.3-.8-.1-1.7.3-2.5 0-1.1.3-1.5-.2-1.2-1.3 0-.7 0-1.4-.1-2.1 0-2-.3-4.2 0-6.1.3-2.3 1.1-2.3 3.2-2.5 1-.1 1.9-.1 2.9-.2.7-.1 8-.5 8-.6.4 1.4 2.4 1.5 2.2.2z"/><path class="st2" d="M333.3 302.6c0-.2 0-.4-.2-.5-.1-.1-.3-.1-.5-.1-4 .2-5.7.3-9.6.6-.3 0-.6.3-.6.6.1 3.5-.1 4.4.1 7.9 0 .2 0 .5.2.6.1.1.4.1.5.1h2.7l1.7 2c.2.2.5.2.7 0 .5-.7.9-1.4 1.2-2.2 1.2-.1 1.7-.2 2.9-.3.5 0 .8-.4.8-.9.2-3.4.3-4.3.1-7.8z"/><path class="st3" d="M334.3 302.6c-.1-1-.5-1.4-1.5-1.6-1.9-.3-4.3.2-6.3.4-1.3.1-3.6-.3-4.6.7-.9 1-.4 3.3-.4 4.5 0 1.5-.3 3.5.1 5 .4 1.2 1.2 1.2 2.3 1.2 1 0 1.4-.1 2.2.7.5.5.8 1.3 1.6 1.4 1.5.2 2.2-1.8 2.7-2.8-.3.2-.6.3-.8.5 1.7-.1 4.2.1 4.7-1.9.5-2.4.1-5.6 0-8.1-.1-1.3-2-1.3-2 0 .1 1.2.1 2.4.1 3.6 0 1.1.3 3-.4 3.8-.8.9-1.9.2-2.8.7-.9.5-.8 1.9-1.7 2.4h1c-.9-.4-1.2-1.8-2.1-2.2-.5-.2-1.2-.1-1.7-.1 0 0-1.2.2-1.1.2-.1-.1 0-1.3-.1-1.6v-2.7c0-.8-.2-1.7 0-2.5.3-1.3 1.6-1 2.7-1.1.7-.1 6.2-.2 6.2-.8.1 1.6 2.1 1.6 1.9.3z"/><path class="st2" d="M306.2 347.9c0-.2 0-.4-.2-.5-.1-.1-.3-.1-.5-.1-4 .2-5.7.3-9.6.6-.3 0-.6.3-.6.6.1 3.5-.1 4.4.1 7.9 0 .2 0 .5.2.6.1.1.4.1.5.1h2.7l1.7 2c.2.2.5.2.7 0 .5-.7.9-1.4 1.2-2.2 1.2-.1 1.7-.2 2.9-.3.5 0 .8-.4.8-.9.1-3.5.2-4.4.1-7.8z"/><path class="st3" d="M307.2 347.9c-.1-1-.5-1.4-1.5-1.6-1.9-.3-4.3.2-6.3.4-1.3.1-3.6-.3-4.6.7-.9 1-.4 3.3-.4 4.5 0 1.5-.3 3.5.1 5 .4 1.2 1.2 1.2 2.3 1.2 1 0 1.4-.1 2.2.7.5.5.8 1.3 1.6 1.4 1.5.2 2.2-1.8 2.7-2.8-.3.2-.6.3-.8.5 1.7-.1 4.2.1 4.7-1.9.5-2.4.1-5.7 0-8.1-.1-1.3-2-1.3-2 0 .1 1.2.1 2.4.1 3.6 0 1.1.3 3-.4 3.8-.8.9-1.9.2-2.8.7-.9.5-.8 1.9-1.7 2.4h1c-.9-.4-1.2-1.8-2.1-2.2-.5-.2-1.2-.1-1.7-.1 0 0-1.2.2-1.1.2-.1-.1 0-1.3-.1-1.6V352c0-.8-.2-1.7 0-2.5.3-1.3 1.6-1 2.7-1.1.7-.1 6.2-.2 6.2-.8.1 1.5 2 1.5 1.9.3z"/><path class="st2" d="M260.9 397.9c0-.2 0-.4-.2-.5-.1-.1-.3-.1-.5-.1-4 .2-5.7.3-9.6.6-.3 0-.6.3-.6.6.1 3.5-.1 4.4.1 7.9 0 .2 0 .5.2.6.1.1.4.1.5.1h2.7l1.7 2c.2.2.5.2.7 0 .5-.7.9-1.4 1.2-2.2 1.2-.1 1.7-.2 2.9-.3.5 0 .8-.4.8-.9.1-3.4.3-4.3.1-7.8z"/><path class="st3" d="M261.9 397.9c-.1-1-.5-1.4-1.5-1.6-1.9-.3-4.3.2-6.3.4-1.3.1-3.6-.3-4.6.7-.9 1-.4 3.3-.4 4.5 0 1.5-.3 3.5.1 5 .4 1.2 1.2 1.2 2.3 1.2 1 0 1.4-.1 2.2.7.5.5.8 1.3 1.6 1.4 1.5.2 2.2-1.8 2.7-2.8-.3.2-.6.3-.8.5 1.7-.1 4.2.1 4.7-1.9.5-2.4.1-5.6 0-8.1-.1-1.3-2-1.3-2 0 .1 1.2.1 2.4.1 3.6 0 1.1.3 3-.4 3.8-.8.9-1.9.2-2.8.7-.9.5-.8 1.9-1.7 2.4h1c-.9-.4-1.2-1.8-2.1-2.2-.5-.2-1.2-.1-1.7-.1 0 0-1.2.2-1.1.2-.1-.1 0-1.3-.1-1.6V402c0-.8-.2-1.7 0-2.5.3-1.3 1.6-1 2.7-1.1.7-.1 6.2-.2 6.2-.8.1 1.6 2 1.6 1.9.3z"/><path class="st2" d="M232.5 366.3c0-.2 0-.4-.2-.5-.1-.1-.3-.1-.5-.1-4 .2-5.7.3-9.6.6-.3 0-.6.3-.6.6.1 3.5-.1 4.4.1 7.9 0 .2 0 .5.2.6.1.1.4.1.5.1h2.7l1.7 2c.2.2.5.2.7 0 .5-.7.9-1.4 1.2-2.2 1.2-.1 1.7-.2 2.9-.3.5 0 .8-.4.8-.9.1-3.4.2-4.3.1-7.8z"/><path class="st3" d="M233.5 366.3c-.1-1-.5-1.4-1.5-1.6-1.9-.3-4.3.2-6.3.4-1.3.1-3.6-.3-4.6.7-.9 1-.4 3.3-.4 4.5 0 1.5-.3 3.5.1 5 .4 1.2 1.2 1.2 2.3 1.2 1 0 1.4-.1 2.2.7.5.5.8 1.3 1.6 1.4 1.5.2 2.2-1.8 2.7-2.8-.3.2-.6.3-.8.5 1.7-.1 4.2.1 4.7-1.9.5-2.4.1-5.7 0-8.1-.1-1.3-2-1.3-2 0 .1 1.2.1 2.4.1 3.6 0 1.1.3 3-.4 3.8-.8.9-1.9.2-2.8.7-.9.5-.8 1.9-1.7 2.4h1c-.9-.4-1.2-1.8-2.1-2.2-.5-.2-1.2-.1-1.7-.1 0 0-1.2.2-1.1.2-.1-.1 0-1.3-.1-1.6v-2.7c0-.8-.2-1.7 0-2.5.3-1.3 1.6-1 2.7-1.1.7-.1 6.2-.2 6.2-.8.1 1.6 2 1.6 1.9.3z"/><path class="st2" d="M254.2 279.3c0-.2 0-.4-.2-.5-.1-.1-.3-.1-.5-.1-4 .2-5.7.3-9.6.6-.3 0-.6.3-.6.6.1 3.5-.1 4.4.1 7.9 0 .2 0 .5.2.6.1.1.4.1.5.1h2.7l1.7 2c.2.2.5.2.7 0 .5-.7.9-1.4 1.2-2.2 1.2-.1 1.7-.2 2.9-.3.5 0 .8-.4.8-.9.1-3.5.2-4.4.1-7.8z"/><path class="st3" d="M255.1 279.3c-.1-1-.5-1.4-1.5-1.6-1.9-.3-4.3.2-6.3.4-1.3.1-3.6-.3-4.6.7-.9 1-.4 3.3-.4 4.5 0 1.5-.3 3.5.1 5 .4 1.2 1.2 1.2 2.3 1.2 1 0 1.4-.1 2.2.7.5.5.8 1.3 1.6 1.4 1.5.2 2.2-1.8 2.7-2.8-.3.2-.6.3-.8.5 1.7-.1 4.2.1 4.7-1.9.6-2.4.1-5.7 0-8.1-.1-1.3-2-1.3-2 0 .1 1.2.1 2.4.1 3.6 0 1.1.3 3-.4 3.8-.8.9-1.9.2-2.8.7-.9.5-.8 1.9-1.7 2.4h1c-.9-.4-1.2-1.8-2.1-2.2-.5-.2-1.2-.1-1.7-.1 0 0-1.2.2-1.1.2-.1-.1 0-1.3-.1-1.6v-2.7c0-.8-.2-1.7 0-2.5.3-1.3 1.6-1 2.7-1.1.7-.1 6.2-.2 6.2-.8.1 1.5 2.1 1.5 1.9.3z"/><path class="st2" d="M196.8 238c0-.2 0-.4-.2-.5-.1-.1-.3-.1-.5-.1-4 .2-5.7.3-9.6.6-.3 0-.6.3-.6.6.1 3.5-.1 4.4.1 7.9 0 .2 0 .5.2.6.1.1.4.1.5.1h2.7l1.7 2c.2.2.5.2.7 0 .5-.7.9-1.4 1.2-2.2 1.2-.1 1.7-.2 2.9-.3.5 0 .8-.4.8-.9.2-3.4.3-4.3.1-7.8z"/><path class="st3" d="M197.8 238c-.1-1-.5-1.4-1.5-1.6-1.9-.3-4.3.2-6.3.4-1.3.1-3.6-.3-4.6.7-.9 1-.4 3.3-.4 4.5 0 1.5-.3 3.5.1 5 .4 1.2 1.2 1.2 2.3 1.2 1 0 1.4-.1 2.2.7.5.5.8 1.3 1.6 1.4 1.5.2 2.2-1.8 2.7-2.8-.3.2-.6.3-.8.5 1.7-.1 4.2.1 4.7-1.9.5-2.4.1-5.6 0-8.1-.1-1.3-2-1.3-2 0 .1 1.2.1 2.4.1 3.6 0 1.1.3 3-.4 3.8-.8.9-1.9.2-2.8.7-.9.5-.8 1.9-1.7 2.4h1c-.9-.4-1.2-1.8-2.1-2.2-.5-.2-1.2-.1-1.7-.1 0 0-1.2.2-1.1.2-.1-.1 0-1.3-.1-1.6v-2.7c0-.8-.2-1.7 0-2.5.3-1.3 1.6-1 2.7-1.1.7-.1 6.2-.2 6.2-.8.1 1.6 2.1 1.6 1.9.3z"/><path class="st2" d="M552.8 410.2c0-.2 0-.5-.2-.6-.1-.1-.4-.1-.5-.1l-14.1.9c-.4 0-.7.4-.7.7.1 4.1-.1 5.2.1 9.4 0 .3 0 .6.3.8.2.1.4.1.6.1 1.6-.1 3.2-.1 4.8-.2.7.8 1.3 1.6 2 2.3.2.3.6.2.8 0 .5-.8 1-1.6 1.5-2.6 1.5-.1 3-.2 4.4-.4.5-.1 1-.5 1-1.1 0-4.1.1-5.2 0-9.2z"/><path class="st3" d="M553.7 409.9c-.1-.2-.1-.4-.2-.6-.1-.3-.3-.6-.7-.7-3.2-.6-7 .2-10.2.4-1.7.1-5.1-.4-6.1 1.3-.9 1.6-.2 5.5-.2 7.3 0 1.7-.5 3.9 1.4 4.6 1.5.6 3.3-.5 4.8.2 1.1.4 1.5 1.9 2.6 2.2 1.9.3 2.2-2.4 3.9-2.8 1.9-.5 4.2.3 4.7-2.1.6-2.9.1-6.5 0-9.4-.1-1.3-2-1.3-2 0 .1 1.9.1 3.9.1 5.8 0 1.4.3 2.8-1.2 3.6-.9.5-2.4-.2-3.3.3-.7.4-1.4 2.1-1.8 2.2-.9.2-1.2-1.3-1.8-1.7-.6-.3-.6-.2-1.3-.3-1-.1-2.7.6-3.6.2-.7.3-.9 0-.6-1v-1.8c0-1.4-.2-3.1 0-4.5.4-2.7 3.2-2 5.5-2.2.8-.1 7.9-.8 8-.5.5 1.2 2.4.7 2-.5z"/><path class="st2" d="M492.1 392.9c0-.2 0-.4-.2-.5-.1-.1-.3-.1-.5-.1-4 .2-8 .5-12 .8-.3 0-.6.3-.6.6l.3 10.6c0 .2 0 .5.2.6.1.1.4.1.5.1 1.4 0 2.7-.1 4.1-.2l1.7 2c.2.2.5.2.7 0 .5-.7.9-1.4 1.2-2.2l3.8-.3c.5 0 .8-.4.8-.9.2-3.5.1-7 0-10.5z"/><path class="st3" d="M493 392.7c-.1-.2-.1-.4-.2-.5-.1-.3-.3-.6-.7-.7-2.9-.5-6.5.2-9.4.4-1.6.1-4.2-.3-4.8 1.6-.3 1.2 0 2.7 0 4 0 1.8.1 3.5.2 5.3.1 1.7-.1 2.9 1.7 3.3 1.3.3 2.9-.6 4.1.2.7.5.9 1.6 1.9 1.7.5.1.9-.1 1.3-.4 1.4-1.1.6-1.7 2.4-2 1.7-.3 3.3 0 3.7-2 .6-3.2-.1-7.2-.2-10.5-.1-1.3-2-1.3-2 0 .1 2.1.2 4.2.2 6.3 0 .8.3 2.3 0 3.1-.5 1.4-1.5 1.1-2.7 1.2-1.8.2-1 .3-2.2 1.3-1 1-.1.6-1.1-.1-.6-.4-.5-.7-1.1-.9-.6-.2-2.1 0-2.7.1-1.5.2-1.3.3-1.4-1.3-.1-2.1-.1-4.2-.2-6.3-.1-3 1.9-2.5 4.4-2.6.5 0 6.8-.6 6.8-.5.5 1 2.4.4 2-.7z"/><path class="st2" d="M582.9 272.1c0-.2 0-.4-.2-.5-.1-.1-.3-.1-.5-.1-4 .2-8 .5-12 .8-.3 0-.6.3-.6.6l.3 10.6c0 .2 0 .5.2.6.1.1.4.1.5.1 1.4 0 2.7-.1 4.1-.2l1.7 2c.2.2.5.2.7 0 .5-.7.9-1.4 1.2-2.2l3.8-.3c.5 0 .8-.4.8-.9.3-3.6.2-7.1 0-10.5z"/><path class="st3" d="M583.9 271.8c-.1-.2-.1-.4-.2-.5-.1-.3-.3-.6-.7-.7-2.9-.5-6.5.2-9.4.4-1.6.1-4.2-.3-4.8 1.6-.3 1.2 0 2.7 0 4 0 1.8.1 3.5.2 5.3.1 1.7-.1 2.9 1.7 3.3 1.3.3 2.9-.6 4.1.2.7.5.9 1.6 1.9 1.7.5.1.9-.1 1.3-.4 1.4-1.1.6-1.7 2.4-2 1.7-.3 3.3 0 3.7-2 .6-3.2-.1-7.2-.2-10.5-.1-1.3-2-1.3-2 0 .1 2.1.2 4.2.2 6.3 0 .8.3 2.3 0 3.1-.5 1.4-1.5 1.1-2.7 1.2-1.8.2-1 .3-2.2 1.3-1 1-.1.6-1.1-.1-.6-.4-.5-.7-1.1-.9-.6-.2-2.1 0-2.7.1-1.5.2-1.3.3-1.4-1.3-.1-2.1-.1-4.2-.2-6.3-.1-3 1.9-2.5 4.4-2.6.5 0 6.8-.6 6.8-.5.5 1 2.4.5 2-.7z"/><path class="st2" d="M377.5 360c0-.2 0-.4-.2-.5-.1-.1-.3-.1-.5-.1-4 .2-8 .5-12 .8-.3 0-.6.3-.6.6l.3 10.6c0 .2 0 .5.2.6.1.1.4.1.5.1 1.4 0 2.7-.1 4.1-.2l1.7 2c.2.2.5.2.7 0 .5-.7.9-1.4 1.2-2.2l3.8-.3c.5 0 .8-.4.8-.9.3-3.5.2-7 0-10.5z"/><path class="st3" d="M378.5 359.8c-.1-.2-.1-.4-.2-.5-.1-.3-.3-.6-.7-.7-2.9-.5-6.5.2-9.4.4-1.6.1-4.2-.3-4.8 1.6-.3 1.2 0 2.7 0 4 0 1.8.1 3.5.2 5.3.1 1.7-.1 2.9 1.7 3.3 1.3.3 2.9-.6 4.1.2.7.5.9 1.6 1.9 1.7.5.1.9-.1 1.3-.4 1.4-1.1.6-1.7 2.4-2 1.7-.3 3.3 0 3.7-2 .6-3.2-.1-7.2-.2-10.5-.1-1.3-2-1.3-2 0 .1 2.1.2 4.2.2 6.3 0 .8.3 2.3 0 3.1-.5 1.4-1.5 1.1-2.7 1.2-1.8.2-1 .3-2.2 1.3-1 1-.1.6-1.1-.1-.6-.4-.5-.7-1.1-.9-.6-.2-2.1 0-2.7.1-1.5.2-1.3.3-1.4-1.3-.1-2.1-.1-4.2-.2-6.3-.1-3 1.9-2.5 4.4-2.6.5 0 6.8-.6 6.8-.5.5 1 2.4.5 2-.7z"/><path class="st2" d="M507.5 296.3c0-.3-.1-.7-.3-.9-.2-.2-.5-.2-.8-.1-6.8.4-13.6.8-20.3 1.3-.6 0-1 .5-1 1.1.1 6 .3 11.9.5 17.9 0 .4.1.8.4 1.1.3.2.6.2.9.2l7-.3c1 1.2 1.9 2.2 2.9 3.4.3.4.9.3 1.2-.1.8-1.2 1.5-2.4 2.1-3.7 2.1-.2 4.3-.3 6.4-.5.8-.1 1.4-.7 1.4-1.5 0-6-.1-11.9-.4-17.9z"/><path class="st3" d="M508.5 296.3c-.4-3.4-5.4-1.8-7.8-1.7-2.8.2-5.5.3-8.3.5-1.9.1-5.1-.2-6.8.6-1 .4-1.2.9-1.5 1.9-.6 2.6.1 6.3.2 9 .1 2.6.1 5.1.3 7.7.1 1.1-.1 2.5.9 3.2 1.1.8 3.1.3 4.3.2 1.4-.1 2.9-.5 4.1.4.9.6 1.3 1.9 2.2 2.5 2.8 2 3.4-2.7 5.2-3.6 2.7-1.3 6.7 1.1 7.5-2.9.5-2.7 0-6.1-.1-8.9 0-2.9-.1-5.9-.2-8.9-.1-1.3-2-1.3-2 0 .2 3.6.3 7.2.3 10.8 0 1.5.4 3.6 0 5.1-.7 2.9-3.1 2.7-5.6 2.9-.7.1-1.4-.1-2 .4-.9.7-.8 2.9-2.1 3-1.2 0-1.7-2.1-2.7-2.7-.8-.4-2-.1-2.9-.1-.9 0-4 .7-4.7.2-.8-.6-.4-3.2-.5-4.1l-.3-10.9c0-1.3-.4-2.6 1.2-3.4.6-.3 1.9-.1 2.5-.2 1.7-.1 3.4-.2 5.1-.4.9-.1 11.5-.9 11.6-.6.3 1.3 2.2 1.3 2.1 0z"/><path class="st2" d="M361.3 312.1c0-.4-.1-.8-.4-1.1-.3-.2-.6-.2-.9-.2-8.1.4-16.1 1-24.2 1.6-.7.1-1.2.6-1.2 1.3.1 7.1.3 14.2.6 21.3 0 .5.1 1 .4 1.3.3.2.7.2 1.1.2 2.8-.1 5.5-.2 8.3-.4 1.1 1.4 2.3 2.7 3.4 4 .4.4 1.1.4 1.4-.1.9-1.4 1.8-2.8 2.5-4.4l7.6-.6c.9-.1 1.7-.9 1.7-1.8.2-7 0-14-.3-21.1z"/><path class="st3" d="M362.3 312.1c-.1-1.1-.4-1.8-1.5-2.2-.9-.3-2.4 0-3.3.1l-5.1.3-8.9.6c-1.7.1-3.4.2-5.1.4-1 .1-2.4-.1-3.4.4-.9.5-1.1 1-1.3 2-.6 3 .1 6.9.2 10l.3 8.8c.1 1.4-.3 3.7 1 4.6 1.5 1.1 4.7.2 6.3.2 1.2-.1 2.4-.3 3.6.4 1.1.7 1.6 2.4 2.7 3.2 1 .7 1.8.8 2.8-.1.5-.4.9-1.3 1.2-1.9 1-1.7 1.1-2 3.1-2.4 3.9-.8 7.7.5 7.7-4.5.2-6.6 0-13.2-.3-19.9-.1-1.3-2-1.3-2 0 .2 4.1.3 8.3.4 12.4 0 2.1.5 4.8 0 6.8-.8 3.2-3.7 3-6.4 3.2-.9.1-1.9-.1-2.7.5-1 .9-1 3.6-2.6 3.6-1.5 0-2.2-2.7-3.5-3.4-1-.5-3 0-4.1 0-1.3.1-4.4.8-5.3-.3-.7-.9-.2-5.1-.2-6.3-.1-4-.9-8.6-.3-12.5.3-2 .6-2.5 2.7-3 .8-.2 1.7-.1 2.5-.2 2.3-.2 4.7-.3 7-.5 1.1-.1 12.3-1.1 12.4-.4.3 1.4 2.2 1.4 2.1.1z"/><path class="st2" d="M294.5 286.6c0-.3 0-.5-.2-.7-.2-.1-.4-.1-.6-.1-5.3.3-10.6.6-15.9 1-.4 0-.8.4-.8.8.1 4.7.2 9.3.4 14 0 .3 0 .7.3.8.2.2.5.2.7.1 1.8-.1 3.6-.1 5.5-.2.7.9 1.5 1.8 2.2 2.6.2.3.7.3.9-.1.6-.9 1.2-1.9 1.6-2.9 1.7-.1 3.3-.3 5-.4.6-.1 1.1-.6 1.1-1.2.1-4.4 0-9-.2-13.7z"/><path class="st3" d="M295.5 286.6c-.3-2.5-2.9-1.7-4.9-1.6-2.2.1-4.5.3-6.7.4-1.9.1-4.6-.1-6.4.5-2.6.9-1.4 5.5-1.4 7.5.1 2.3.1 4.7.2 7 0 .8-.1 2.2.6 2.8.7.7 2.2.4 3.1.4 1.1 0 2.3-.3 3.3.1s1.2 1.5 2.1 2c2.5 1.5 2.7-1.9 4.5-2.7 2.1-1 5 .7 5.8-2.2.5-2 0-4.5 0-6.6 0-2.5-.1-5-.2-7.6-.1-1.3-2-1.3-2 0l.3 8.8c0 1 .4 2.8 0 3.8-1.2 2.9-3.2.9-5.1 1.9-.8.4-1.3 2.3-1.9 2.4-1.3.3-1.5-1.6-2.4-2-.5-.3-1-.1-1.6-.1-.9 0-2.4.3-3.3.1-1.2.4-1.6 0-1.2-1.2 0-.6 0-1.3-.1-1.9-.1-2.7-.5-5.6-.2-8.3.2-2.2.6-2.5 2.8-2.6l4.3-.3c1-.1 8.5-.5 8.4-.7.2 1.4 2.2 1.4 2 .1z"/><path class="st2" d="M245.6 320.8c0-.3-.1-.7-.3-.9-.2-.2-.5-.2-.8-.1-6.6.4-13.2.8-19.8 1.3-.5 0-1 .5-.9 1 .1 5.8.3 11.6.5 17.4 0 .4.1.8.4 1.1.2.2.6.2.9.2l6.8-.3c.9 1.1 1.9 2.2 2.8 3.3.3.4.9.3 1.1-.1.8-1.2 1.5-2.3 2.1-3.6 2.1-.2 4.2-.3 6.2-.5.8-.1 1.4-.7 1.4-1.5 0-5.8-.1-11.6-.4-17.3z"/><path class="st3" d="M246.6 320.8c-.4-3.4-5.3-1.8-7.6-1.7-2.7.2-5.4.3-8 .5-1.9.1-5-.2-6.7.6-.9.4-1.2.9-1.4 1.9-.6 2.5.1 6.1.2 8.7.1 2.5.1 5 .3 7.5.1 1-.1 2.5.9 3.1 1.1.8 3 .3 4.2.2 1.3-.1 2.8-.4 4 .4.9.6 1.3 1.9 2.1 2.5 2.7 1.9 3.3-2.6 5.1-3.5 2.6-1.3 6.5 1 7.3-2.9.5-2.6 0-6-.1-8.6l-.3-8.7c-.1-1.3-2-1.3-2 0 .2 3.5.3 7 .3 10.5 0 1.5.4 3.5 0 4.9-.7 2.8-3 2.6-5.4 2.8-.7.1-1.3 0-1.9.4-1 .6-.8 2.9-2.1 2.9-1.2 0-1.7-2.1-2.6-2.6-.8-.4-2-.1-2.9-.1-.8 0-3.9.7-4.5.2-.7-.6-.4-3.1-.4-4l-.3-10.6c-.1-2.8 1.1-3.3 3.6-3.4l4.9-.3c.9-.1 11.2-.9 11.2-.6.3 1.1 2.3 1.1 2.1-.1z"/><path class="st2" d="M182.6 267.8c0-.3-.1-.7-.3-.9-.2-.2-.5-.2-.8-.1-6.6.4-13.2.8-19.8 1.3-.5 0-1 .5-.9 1 .1 5.8.3 11.6.5 17.4 0 .4.1.8.4 1.1.2.2.6.2.9.2l6.8-.3c.9 1.1 1.9 2.2 2.8 3.3.3.4.9.3 1.1-.1.8-1.2 1.5-2.3 2.1-3.6 2.1-.2 4.2-.3 6.2-.5.8-.1 1.4-.7 1.4-1.5 0-5.8-.1-11.5-.4-17.3z"/><path class="st3" d="M183.6 267.8c-.4-3.4-5.3-1.8-7.6-1.7-2.7.2-5.4.3-8 .5-1.9.1-5-.2-6.7.6-.9.4-1.2.9-1.4 1.9-.6 2.5.1 6.1.2 8.7.1 2.5.1 5 .3 7.5.1 1-.1 2.5.9 3.1 1.1.8 3 .3 4.2.2 1.3-.1 2.8-.4 4 .4.9.6 1.3 1.9 2.1 2.5 2.7 1.9 3.3-2.6 5.1-3.5 2.6-1.3 6.5 1 7.3-2.9.5-2.6 0-6-.1-8.6l-.3-8.7c-.1-1.3-2-1.3-2 0 .2 3.5.3 7 .3 10.5 0 1.5.4 3.5 0 4.9-.7 2.8-3 2.6-5.4 2.8-.7.1-1.3 0-1.9.4-1 .6-.8 2.9-2.1 2.9-1.2 0-1.7-2.1-2.6-2.6-.8-.4-2-.1-2.9-.1-.8 0-3.9.7-4.5.2-.7-.6-.4-3.1-.4-4l-.3-10.6c-.1-2.8 1.1-3.3 3.6-3.4l4.9-.3c.9-.1 11.2-.9 11.2-.6.3 1.2 2.3 1.2 2.1-.1z"/><path class="st2" d="M551.3 182.9c0-.3-.1-.7-.3-.9-.2-.2-.5-.2-.8-.1-6.6.4-13.2.8-19.8 1.3-.5 0-1 .5-.9 1 .1 5.8.3 11.6.5 17.4 0 .4.1.8.4 1.1.2.2.6.2.9.2l6.8-.3c.9 1.1 1.9 2.2 2.8 3.3.3.4.9.3 1.1-.1.8-1.2 1.5-2.3 2.1-3.6 2.1-.2 4.2-.3 6.2-.5.8-.1 1.4-.7 1.4-1.5 0-5.8-.1-11.5-.4-17.3z"/><path class="st3" d="M552.3 182.9c-.4-3.4-5.3-1.8-7.6-1.7-2.7.2-5.4.3-8 .5-1.9.1-5-.2-6.7.6-.9.4-1.2.9-1.4 1.9-.6 2.5.1 6.1.2 8.7.1 2.5.1 5 .3 7.5.1 1-.1 2.5.9 3.1 1.1.8 3 .3 4.2.2 1.3-.1 2.8-.4 4 .4.9.6 1.3 1.9 2.1 2.5 2.7 1.9 3.3-2.6 5.1-3.5 2.6-1.3 6.5 1 7.3-2.9.5-2.6 0-6-.1-8.6l-.3-8.7c-.1-1.3-2-1.3-2 0 .2 3.5.3 7 .3 10.5 0 1.5.4 3.5 0 4.9-.7 2.8-3 2.6-5.4 2.8-.7.1-1.3 0-1.9.4-1 .6-.8 2.9-2.1 2.9-1.2 0-1.7-2.1-2.6-2.6-.8-.4-2-.1-2.9-.1-.8 0-3.9.7-4.5.2-.7-.6-.4-3.1-.4-4l-.3-10.6c-.1-2.8 1.1-3.3 3.6-3.4l4.9-.3c.9-.1 11.2-.9 11.2-.6.3 1.1 2.2 1.1 2.1-.1z"/><path class="st2" d="M505.6 337.3c0-.2 0-.3-.2-.4-.1-.1-.3-.1-.4-.1-3.3.2-6.7.4-10 .7-.3 0-.5.3-.5.5 0 2.9 0 3.7.1 6.7 0 .2 0 .4.2.5.1.1.3.1.5.1 1.2 0 2.3-.1 3.4-.2l1.4 1.7c.2.2.4.2.6 0 .4-.6.7-1.2 1-1.8l3.2-.3c.4 0 .7-.4.7-.8 0-2.9.1-3.7 0-6.6z"/><path class="st3" d="M506.5 337.1c-.1-.1-.1-.3-.2-.4-.1-.3-.3-.6-.7-.7-1.8-.3-3.9.1-5.7.2-1.6.1-3.8-.1-5.3.4-2 .7-1.2 4.5-1.2 6.1 0 .9-.2 2.3.4 3 1 1.2 2.7.1 3.9.5 1 .3 1.4 1.8 2.6 1.8 1.2 0 1.7-1.6 2.2-2.5-.3.2-.6.3-.8.5 1.6-.1 4.3.3 4.8-1.7s.1-4.8 0-6.9c-.1-1.3-2-1.3-2 0 .1 1.3.7 5.7-.5 6.5-.7.5-2-.2-2.7.3-.8.4-.7 1.6-1.4 2h1c-.8-.3-1-1.4-1.7-1.8-.6-.3-1.6-.2-2.2 0-.6-.1-1 0-1.4.4v-3.6c0-.5-.2-2 0-2.3.5-.7 2.1-.5 2.8-.5 2.1-.1 4.8-.8 6.8-.4l-.7-.7c.1.1.1.3.2.4.4 1.1 2.3.6 1.8-.6z"/><path class="st2" d="M352.6 395.3c0-.2 0-.5-.2-.7-.2-.1-.4-.1-.6-.1-4.9.3-9.8.6-14.7 1-.4 0-.7.4-.7.8.1 4.3-.1 5.5.1 9.8 0 .3 0 .6.3.8.2.1.4.1.7.1 1.7-.1 3.4-.1 5.1-.2l2.1 2.4c.2.3.6.2.8 0 .6-.9 1.1-1.7 1.5-2.7 1.5-.1 3.1-.2 4.6-.4.6-.1 1-.5 1-1.1.1-4.3.2-5.4 0-9.7z"/><path class="st3" d="M353.6 395.1c-.1-.2-.2-.4-.2-.7-.1-.3-.3-.6-.7-.7-3.3-.6-7.3.2-10.6.5-1.8.1-5.2-.5-6.3 1.3-1 1.6-.2 5.7-.2 7.6 0 1.7-.5 4 1.4 4.8 1.6.6 3.4-.5 5 .2 1.1.5 1.6 2 2.8 2.2 2 .3 2.3-2.5 4-3 1.9-.5 4.4.3 4.9-2.2.6-3 .2-6.8 0-9.8-.1-1.3-2-1.3-2 0 .1 2 .1 4.1.1 6.1 0 1.5.4 2.9-1.3 3.8-.9.5-2.5-.2-3.5.3-.8.4-1.3 2.2-1.8 2.3-1 .3-1.2-1.4-1.9-1.7-.6-.3-.6-.2-1.3-.3-1-.1-2.8.6-3.8.2-.8.3-1-.1-.7-1.1V403c0-1.5-.2-3.3 0-4.8.4-2.8 3.4-2.1 5.8-2.3.9-.1 8.3-.9 8.4-.5.4 1.4 2.3.9 1.9-.3z"/><path class="st2" d="M486.3 327.2c0-.2 0-.4-.2-.5-.1-.1-.3-.1-.4-.1-3.8.2-5.4.3-9.2.6-.3 0-.5.3-.5.6.1 3.3-.1 4.2.1 7.5 0 .2 0 .5.2.6.1.1.3.1.5.1h2.6c.5.6 1.1 1.2 1.6 1.9.2.2.5.2.6 0 .4-.7.8-1.3 1.2-2.1 1.2-.1 1.6-.2 2.8-.3.4 0 .8-.4.8-.9-.1-3.2.1-4.1-.1-7.4z"/><path class="st3" d="M487.3 327.2c-.1-1-.5-1.4-1.5-1.5-1.9-.2-4.1.2-6 .3-1.2.1-3.5-.3-4.4.7-.9.9-.4 3.1-.4 4.3 0 1.5-.3 3.4.1 4.7.4 1.1 1.2 1.2 2.3 1.2.9 0 1.3-.1 2 .6.5.5.8 1.2 1.6 1.3 1.4.2 2.1-1.7 2.6-2.7-.3.2-.6.3-.8.5 1.6-.1 4 .1 4.5-1.9s.1-5.2 0-7.5c-.1-1.3-2-1.3-2 0 0 1.1.1 2.3.1 3.4 0 1 .3 2.8-.4 3.6-.7.8-1.8.2-2.7.7-.8.5-.8 1.8-1.6 2.3h1c-.9-.4-1.2-1.7-2-2.1-.5-.2-1.2-.1-1.7-.1 0 0-1.2.2-1 .3-.1-.1 0-1.3-.1-1.5v-2.5c0-.7-.2-1.7 0-2.4.3-1.2 1.5-.9 2.5-1 .7-.1 5.9-.1 5.8-.8.3 1.4 2.3 1.4 2.1.1z"/><path class="st2" d="M517 359.6c0-.3 0-.6-.3-.8-.2-.1-.5-.1-.7-.1-6 .3-12 .7-18.1 1.2-.5 0-.9.5-.9.9.1 5.3.2 10.6.5 15.9 0 .4.1.7.3 1 .2.2.5.2.8.2l6.2-.3c.9 1 1.7 2 2.6 3 .3.3.8.3 1-.1.7-1.1 1.3-2.1 1.9-3.3 1.9-.1 3.8-.3 5.7-.5.7-.1 1.2-.7 1.3-1.4.1-5.2-.1-10.5-.3-15.7z"/><path class="st3" d="M518 359.6c-.4-3.2-4.9-1.8-7.1-1.6-2.6.2-5.2.3-7.7.5-1.7.1-4.2-.2-5.6.5-.9.4-1.1.8-1.3 1.8-.5 2.3.1 5.6.2 7.9.1 2.5-.2 5.5.3 7.9.1.7.2 1.4.8 1.8 1.2.9 3.6.1 5 .2 1.5 0 2 .1 3.1 1.1.5.5.9 1.3 1.5 1.6.8.4 1.4.5 2.1-.1 1.7-1.3 1-2.8 3.6-3.3 2.4-.5 5 .3 5.6-2.6.5-2.2 0-5 0-7.3-.3-2.8-.4-5.6-.5-8.4-.1-1.3-2-1.3-2 0 .1 3.2.3 6.5.3 9.7 0 1.3.5 3.6 0 4.9-.9 2.3-2.9 1.8-4.8 2-2.5.2-1.3.6-2.9 2.3-1.2 1.3-1.2.4-2.4-.8-.8-.8-.5-.8-1.3-1.1-1.2-.5-3.6.3-5 .2-1.3.4-1.8-.1-1.5-1.3 0-.8-.1-1.6-.1-2.4-.1-2.9-.2-5.7-.2-8.6v-2.4c.5-1.1 1.3-1.6 2.4-1.4 1.6-.4 3.5-.3 5.2-.4.9-.1 10.3-.7 10.3-.7.2 1.2 2.1 1.2 2 0z"/><path class="st2" d="M469.9 254.7c0-.4-.1-.9-.4-1.1-.3-.2-.6-.2-1-.2-8.4.5-16.9 1-25.3 1.7-.7.1-1.2.6-1.2 1.3.1 7.4-.1 9.4.2 16.8 0 .5.1 1 .5 1.4.3.3.8.2 1.2.2 2.9-.1 5.8-.2 8.7-.4l3.6 4.2c.4.5 1.1.4 1.4-.1 1-1.5 1.9-3 2.6-4.6 2.7-.2 5.3-.4 8-.7 1-.1 1.8-.9 1.8-1.9-.1-7.3.2-9.3-.1-16.6z"/><path class="st3" d="M470.8 254.7c-.2-1.2-.4-1.8-1.6-2.2-.9-.3-2.4 0-3.3.1l-5.1.3c-3.4.2-6.8.4-10.1.7-2.3.2-6.4-.3-8.5.8-2.5 1.4-1.3 7.3-1.3 9.7 0 2.3 0 4.6.1 6.9 0 1.4-.3 3.5 1 4.5 1.5 1.1 4.9.3 6.6.2 2.1-.1 2.9-.2 4.5 1.2.8.8 1.4 2 2.3 2.7.8.5 1.4.5 2.2.1.8-.5 1.3-1.6 1.7-2.3 1-1.7 1-2.1 2.9-2.5 4.1-.9 8.3.7 8.4-4.6.4-5.4.5-10.5.2-15.6-.1-1.3-2-1.3-2 0 .2 3.5.2 6.9.1 10.4 0 1.3.4 3.8-.1 5-1.1 2.8-4 2.5-6.5 2.7-1 .1-2.2-.1-3 .6-1.3 1-1 4.5-3.3 3.8-1.2-.4-1.9-2.9-3.1-3.5-1.1-.6-3.6 0-4.8.1-1.8.1-4.4.9-5-1-.4-1.6-.1-3.8-.1-5.4 0-2.8-.5-6.3 0-9.1.6-3 4.1-2.4 6.5-2.6 2.1-.2 4.2-.3 6.3-.4 1.3-.1 13-1.2 13.1-.4.1 1 2.1 1 1.9-.2z"/><path class="st2" d="M329.3 377.2c0-.3-.1-.7-.3-.9-.2-.2-.5-.2-.8-.1-6.9.4-13.7.8-20.6 1.3-.6 0-1 .5-1 1.1.1 6-.1 7.7.2 13.7 0 .4.1.9.4 1.1.3.2.6.2.9.2l7.1-.3c1 1.2 1.9 2.3 2.9 3.4.3.4.9.3 1.2-.1.8-1.2 1.5-2.4 2.1-3.8 2.2-.2 4.3-.3 6.5-.5.8-.1 1.4-.7 1.4-1.6 0-6 .3-7.6 0-13.5z"/><path class="st3" d="M330.3 377.2c-.5-3.5-5.5-1.9-7.9-1.7-2.8.2-5.6.3-8.4.5-1.9.1-5.2-.2-6.9.6-2.7 1.2-1.4 6.3-1.5 8.8 0 2-.9 7.4 1 8.8 1.1.8 3.2.3 4.4.2 1.4-.1 2.9-.5 4.2.4.9.6 1.3 1.9 2.2 2.6 2.8 2 3.4-2.7 5.3-3.6 2.7-1.3 6.8 1.1 7.6-3 .4-2.1.1-4.6.1-6.8 0-2.3 0-4.6-.1-6.8-.1-1.3-2-1.3-2 0 .1 2.7.2 5.3.1 8 0 1.2.2 2.7-.1 3.8-.7 2.8-3.3 2.6-5.7 2.8-.7.1-1.4-.1-2 .4-.9.8-.8 3-2.2 3-1.3 0-1.7-2.2-2.8-2.7-.9-.4-2-.1-3-.1-.9 0-4.1.7-4.7.2-.8-.6-.4-2.8-.4-3.7-.1-2.5 0-5 0-7.5 0-2.7 1.4-3.1 3.8-3.2 1.7-.1 3.4-.2 5.1-.4.9-.1 11.7-.9 11.7-.6.4 1.2 2.3 1.2 2.2 0z"/><path class="st2" d="M391.8 254.7c0-.4-.1-.9-.4-1.1-.3-.2-.6-.2-1-.2-8.4.5-16.9 1-25.3 1.7-.7.1-1.2.6-1.2 1.3.1 7.4-.1 9.4.2 16.8 0 .5.1 1 .5 1.4.3.3.8.2 1.2.2 2.9-.1 5.8-.2 8.7-.4l3.6 4.2c.4.5 1.1.4 1.4-.1 1-1.5 1.9-3 2.6-4.6 2.7-.2 5.3-.4 8-.7 1-.1 1.8-.9 1.8-1.9-.1-7.3.2-9.3-.1-16.6z"/><path class="st3" d="M392.8 254.7c-.2-1.2-.4-1.8-1.6-2.2-.9-.3-2.4 0-3.3.1l-5.1.3c-3.4.2-6.8.4-10.1.7-2.3.2-6.4-.3-8.5.8-2.5 1.4-1.3 7.3-1.3 9.7 0 2.3 0 4.6.1 6.9 0 1.4-.3 3.5 1 4.5 1.5 1.1 4.9.3 6.6.2 2.1-.1 2.9-.2 4.5 1.2.8.8 1.4 2 2.3 2.7.8.5 1.4.5 2.2.1.8-.5 1.3-1.6 1.7-2.3 1-1.7 1-2.1 2.9-2.5 4.1-.9 8.3.7 8.4-4.6.3-5.4.4-10.5.2-15.6-.1-1.3-2-1.3-2 0 .2 3.5.2 6.9.1 10.4 0 1.3.4 3.8-.1 5-1.1 2.8-4 2.5-6.5 2.7-1 .1-2.2-.1-3 .6-1.3 1-1 4.5-3.3 3.8-1.2-.4-1.9-2.9-3.1-3.5-1.1-.6-3.6 0-4.8.1-1.8.1-4.4.9-5-1-.4-1.6-.1-3.8-.1-5.4 0-2.8-.5-6.3 0-9.1.6-3 4.1-2.4 6.5-2.6 2.1-.2 4.2-.3 6.3-.4 1.3-.1 13-1.2 13.1-.4.1 1 2 1 1.9-.2z"/><path class="st2" d="M434.7 125.8c0-.4-.1-.9-.4-1.1-.3-.2-.6-.2-1-.2-8.4.5-16.9 1-25.3 1.7-.7.1-1.2.6-1.2 1.3.1 7.4-.1 9.4.2 16.8 0 .5.1 1 .5 1.4.3.3.8.2 1.2.2 2.9-.1 5.8-.2 8.7-.4l3.6 4.2c.4.5 1.1.4 1.4-.1 1-1.5 1.9-3 2.6-4.6 2.7-.2 5.3-.4 8-.7 1-.1 1.8-.9 1.8-1.9 0-7.3.3-9.3-.1-16.6z"/><path class="st3" d="M435.7 125.8c-.2-1.2-.4-1.8-1.6-2.2-.9-.3-2.4 0-3.3.1l-5.1.3c-3.4.2-6.8.4-10.1.7-2.3.2-6.4-.3-8.5.8-2.5 1.4-1.3 7.3-1.3 9.7 0 2.3 0 4.6.1 6.9 0 1.4-.3 3.5 1 4.5 1.5 1.1 4.9.3 6.6.2 2.1-.1 2.9-.2 4.5 1.2.8.8 1.4 2 2.3 2.7.8.5 1.4.5 2.2.1.8-.5 1.3-1.6 1.7-2.3 1-1.7 1-2.1 2.9-2.5 4.1-.9 8.3.7 8.4-4.6.4-5.4.5-10.5.2-15.6-.1-1.3-2-1.3-2 0 .2 3.5.2 6.9.1 10.4 0 1.3.4 3.8-.1 5-1.1 2.8-4 2.5-6.5 2.7-1 .1-2.2-.1-3 .6-1.3 1-1 4.5-3.3 3.8-1.2-.4-1.9-2.9-3.1-3.5-1.1-.6-3.6 0-4.8.1-1.8.1-4.4.9-5-1-.4-1.6-.1-3.8-.1-5.4 0-2.8-.5-6.3 0-9.1.6-3 4.1-2.4 6.5-2.6 2.1-.2 4.2-.3 6.3-.4 1.3-.1 13-1.2 13.1-.4.1 1 2.1 1 1.9-.2z"/><path class="st2" d="M153 327.4c0-.4-.1-.9-.4-1.1-.3-.2-.6-.2-1-.2-8.4.5-16.9 1-25.3 1.7-.7.1-1.2.6-1.2 1.3.1 7.4-.1 9.4.2 16.8 0 .5.1 1 .5 1.4.3.3.8.2 1.2.2 2.9-.1 5.8-.2 8.7-.4l3.6 4.2c.4.5 1.1.4 1.4-.1 1-1.5 1.9-3 2.6-4.6 2.7-.2 5.3-.4 8-.7 1-.1 1.8-.9 1.8-1.9 0-7.3.3-9.3-.1-16.6z"/><path class="st3" d="M154 327.4c-.2-1.2-.4-1.8-1.6-2.2-.9-.3-2.4 0-3.3.1l-5.1.3c-3.4.2-6.8.4-10.1.7-2.3.2-6.4-.3-8.5.8-2.5 1.4-1.3 7.3-1.3 9.7 0 2.3 0 4.6.1 6.9 0 1.4-.3 3.5 1 4.5 1.5 1.1 4.9.3 6.6.2 2.1-.1 2.9-.2 4.5 1.2.8.8 1.4 2 2.3 2.7.8.5 1.4.5 2.2.1.8-.5 1.3-1.6 1.7-2.3 1-1.7 1-2.1 2.9-2.5 4.1-.9 8.3.7 8.4-4.6.4-5.3.5-10.5.2-15.6-.1-1.3-2-1.3-2 0 .2 3.5.2 6.9.1 10.4 0 1.3.4 3.8-.1 5-1.1 2.8-4 2.5-6.5 2.7-1 .1-2.2-.1-3 .6-1.3 1-1 4.5-3.3 3.8-1.2-.4-1.9-2.9-3.1-3.5-1.1-.6-3.6 0-4.8.1-1.8.1-4.4.9-5-1-.4-1.6-.1-3.8-.1-5.4 0-2.8-.5-6.3 0-9.1.6-3 4.1-2.4 6.5-2.6 2.1-.2 4.2-.3 6.3-.4 1.3-.1 13-1.2 13.1-.4.1 1 2.1 1 1.9-.2z"/><path class="st2" d="M477.1 201.6c0-.4-.1-.9-.4-1.1-.3-.2-.6-.2-1-.2-8.4.5-16.9 1-25.3 1.7-.7.1-1.2.6-1.2 1.3.1 7.4-.1 9.4.2 16.8 0 .5.1 1 .5 1.4.3.3.8.2 1.2.2 2.9-.1 5.8-.2 8.7-.4l3.6 4.2c.4.5 1.1.4 1.4-.1 1-1.5 1.9-3 2.6-4.6 2.7-.2 5.3-.4 8-.7 1-.1 1.8-.9 1.8-1.9 0-7.3.3-9.2-.1-16.6z"/><path class="st3" d="M478.1 201.6c-.2-1.2-.4-1.8-1.6-2.2-.9-.3-2.4 0-3.3.1l-5.1.3c-3.4.2-6.8.4-10.1.7-2.3.2-6.4-.3-8.5.8-2.5 1.4-1.3 7.3-1.3 9.7 0 2.3 0 4.6.1 6.9 0 1.4-.3 3.5 1 4.5 1.5 1.1 4.9.3 6.6.2 2.1-.1 2.9-.2 4.5 1.2.8.8 1.4 2 2.3 2.7.8.5 1.4.5 2.2.1.8-.5 1.3-1.6 1.7-2.3 1-1.7 1-2.1 2.9-2.5 4.1-.9 8.3.7 8.4-4.6.3-5.3.4-10.4.2-15.6-.1-1.3-2-1.3-2 0 .2 3.5.2 6.9.1 10.4 0 1.3.4 3.8-.1 5-1.1 2.8-4 2.5-6.5 2.7-1 .1-2.2-.1-3 .6-1.3 1-1 4.5-3.3 3.8-1.2-.4-1.9-2.9-3.1-3.5-1.1-.6-3.6 0-4.8.1-1.8.1-4.4.9-5-1-.4-1.6-.1-3.8-.1-5.4 0-2.8-.5-6.3 0-9.1.6-3 4.1-2.4 6.5-2.6 2.1-.2 4.2-.3 6.3-.4 1.3-.1 13-1.2 13.1-.4.1 1.1 2.1 1.1 1.9-.2z"/><path class="st2" d="M356.3 244.2c0-.2 0-.5-.2-.7-.2-.1-.4-.1-.6-.1-4.9.3-9.8.6-14.8 1-.4 0-.7.4-.7.8.1 4.3-.1 5.5.1 9.8 0 .3 0 .6.3.8.2.1.4.1.7.1 1.7-.1 3.4-.1 5.1-.2.7.8 1.4 1.6 2.1 2.5.2.3.6.2.8 0 .6-.9 1.1-1.7 1.5-2.7 1.5-.1 3.1-.2 4.6-.4.6-.1 1-.5 1-1.1.1-4.4.3-5.5.1-9.8z"/><path class="st3" d="M357.2 243.9c-.1-.2-.2-.4-.2-.7-.1-.3-.3-.6-.7-.7-3.3-.6-7.3.2-10.7.5-1.8.1-5.3-.5-6.4 1.3-1 1.6-.2 5.7-.2 7.6 0 1.7-.5 4 1.4 4.8 1.6.6 3.4-.5 5 .2 1.1.5 1.6 2.1 2.8 2.3 2 .3 2.3-2.5 4.1-3 1.9-.5 4.4.3 4.9-2.2.6-3 .2-6.8 0-9.8-.1-1.3-2-1.3-2 0 .1 2 .1 4.1.1 6.1 0 1.5.4 3-1.3 3.8-.9.5-2.5-.2-3.5.3-.8.4-1.3 2.2-1.8 2.3-1 .3-1.3-1.4-1.9-1.7-.6-.3-.6-.2-1.3-.3-1.1-.1-2.8.6-3.8.2-.8.3-1-.1-.7-1.1v-1.9c0-1.5-.2-3.3 0-4.8.4-2.8 3.4-2.2 5.8-2.3.9-.1 8.3-.9 8.5-.5.4 1.3 2.3.8 1.9-.4z"/><path class="st2" d="M508.4 251.7c0-.2 0-.4-.2-.5-.1-.1-.3-.1-.4-.1-3.8.2-5.4.3-9.2.6-.3 0-.5.3-.5.6.1 3.3-.1 4.2.1 7.5 0 .2 0 .5.2.6.1.1.3.1.5.1h2.6c.5.6 1.1 1.2 1.6 1.9.2.2.5.2.6 0 .4-.7.8-1.3 1.2-2.1 1.2-.1 1.6-.2 2.8-.3.4 0 .8-.4.8-.9-.1-3.3.1-4.1-.1-7.4z"/><path class="st3" d="M509.4 251.7c-.1-1-.5-1.4-1.5-1.5-1.9-.2-4.1.2-6 .3-1.2.1-3.5-.3-4.4.7-.9.9-.4 3.1-.4 4.3 0 1.5-.3 3.4.1 4.7.4 1.1 1.2 1.2 2.3 1.2.9 0 1.3-.1 2 .6.5.5.8 1.2 1.6 1.3 1.4.2 2.1-1.7 2.6-2.7-.3.2-.6.3-.8.5 1.6-.1 4 .1 4.5-1.9.5-2.1.1-5.2 0-7.5-.1-1.3-2-1.3-2 0 0 1.1.1 2.3.1 3.4 0 1 .3 2.8-.4 3.6-.7.8-1.8.2-2.7.7-.8.5-.8 1.8-1.6 2.3h1c-.9-.4-1.2-1.7-2-2.1-.5-.2-1.2-.1-1.7-.1 0 0-1.2.2-1 .3-.1-.1 0-1.3-.1-1.5v-2.5c0-.7-.2-1.7 0-2.4.3-1.2 1.5-.9 2.5-1 .7-.1 5.9-.1 5.8-.8.3 1.3 2.2 1.3 2.1.1z"/><path class="st2" d="M461.5 236.6c0-.2 0-.3-.2-.4-.1-.1-.3-.1-.4-.1-3.3.2-6.7.4-10 .7-.3 0-.5.3-.5.5 0 2.9 0 3.7.1 6.7 0 .2 0 .4.2.5.1.1.3.1.5.1 1.2 0 2.3-.1 3.4-.2l1.4 1.7c.2.2.4.2.6 0 .4-.6.7-1.2 1-1.8l3.2-.3c.4 0 .7-.4.7-.8 0-2.9.1-3.7 0-6.6z"/><path class="st3" d="M462.4 236.3c-.1-.1-.1-.3-.2-.4-.1-.3-.3-.6-.7-.7-1.8-.3-3.9.1-5.7.2-1.6.1-3.8-.1-5.3.4-2 .7-1.2 4.5-1.2 6.1 0 .9-.2 2.3.4 3 1 1.2 2.7.1 3.9.5 1 .3 1.4 1.8 2.6 1.8 1.2 0 1.7-1.6 2.2-2.5-.3.2-.6.3-.8.5 1.6-.1 4.3.3 4.8-1.7s.1-4.8 0-6.9c-.1-1.3-2-1.3-2 0 .1 1.3.7 5.7-.5 6.5-.7.5-2-.2-2.7.3-.8.4-.7 1.6-1.4 2h1c-.8-.3-1-1.4-1.7-1.8-.6-.3-1.6-.2-2.2 0-.6-.1-1 0-1.4.4v-3.6c0-.5-.2-2 0-2.3.5-.7 2.1-.5 2.8-.5 2.1-.1 4.8-.8 6.8-.4l-.7-.7c.1.1.1.3.2.4.4 1.1 2.2.6 1.8-.6z"/><path class="st2" d="M477.4 240.1c0-.2 0-.4-.2-.5-.1-.1-.3-.1-.4-.1-3.8.2-5.4.3-9.2.6-.3 0-.5.3-.5.6.1 3.3-.1 4.2.1 7.5 0 .2 0 .5.2.6.1.1.3.1.5.1h2.6c.5.6 1.1 1.2 1.6 1.9.2.2.5.2.6 0 .4-.7.8-1.3 1.2-2.1 1.2-.1 1.6-.2 2.8-.3.4 0 .8-.4.8-.9-.1-3.3.1-4.2-.1-7.4z"/><path class="st3" d="M478.4 240.1c-.1-1-.5-1.4-1.5-1.5-1.9-.2-4.1.2-6 .3-1.2.1-3.5-.3-4.4.7-.9.9-.4 3.1-.4 4.3 0 1.5-.3 3.4.1 4.7.4 1.1 1.2 1.2 2.3 1.2.9 0 1.3-.1 2 .6.5.5.8 1.2 1.6 1.3 1.4.2 2.1-1.7 2.6-2.7-.3.2-.6.3-.8.5 1.6-.1 4 .1 4.5-1.9.5-2.1.1-5.2 0-7.5-.1-1.3-2-1.3-2 0 0 1.1.1 2.3.1 3.4 0 1 .3 2.8-.4 3.6-.7.8-1.8.2-2.7.7-.8.5-.8 1.8-1.6 2.3h1c-.9-.4-1.2-1.7-2-2.1-.5-.2-1.2-.1-1.7-.1 0 0-1.2.2-1 .3-.1-.1 0-1.3-.1-1.5v-2.5c0-.7-.2-1.7 0-2.4.3-1.2 1.5-.9 2.5-1 .7-.1 5.9-.1 5.8-.8.3 1.3 2.3 1.3 2.1.1z"/><path class="st2" d="M376.2 290.4c0-.2 0-.4-.2-.5-.1-.1-.3-.1-.4-.1-3.8.2-5.4.3-9.2.6-.3 0-.5.3-.5.6.1 3.3-.1 4.2.1 7.5 0 .2 0 .5.2.6.1.1.3.1.5.1h2.6c.5.6 1.1 1.2 1.6 1.9.2.2.5.2.6 0 .4-.7.8-1.3 1.2-2.1 1.2-.1 1.6-.2 2.8-.3.4 0 .8-.4.8-.9-.1-3.2 0-4.1-.1-7.4z"/><path class="st3" d="M377.1 290.4c-.1-1-.5-1.4-1.5-1.5-1.9-.2-4.1.2-6 .3-1.2.1-3.5-.3-4.4.7-.9.9-.4 3.1-.4 4.3 0 1.5-.3 3.4.1 4.7.4 1.1 1.2 1.2 2.3 1.2.9 0 1.3-.1 2 .6.5.5.8 1.2 1.6 1.3 1.4.2 2.1-1.7 2.6-2.7-.3.2-.6.3-.8.5 1.6-.1 4 .1 4.5-1.9s.1-5.2 0-7.5c-.1-1.3-2-1.3-2 0 0 1.1.1 2.3.1 3.4 0 1 .3 2.8-.4 3.6-.7.8-1.8.2-2.7.7-.8.5-.8 1.8-1.6 2.3h1c-.9-.4-1.2-1.7-2-2.1-.5-.2-1.2-.1-1.7-.1 0 0-1.2.2-1 .3-.1-.1 0-1.3-.1-1.5v-2.5c0-.7-.2-1.7 0-2.4.3-1.2 1.5-.9 2.5-1 .7-.1 5.9-.1 5.8-.8.3 1.4 2.3 1.4 2.1.1z"/><path class="st2" d="M399.7 304.7c0-.2 0-.4-.2-.5-.1-.1-.3-.1-.4-.1-3.8.2-5.4.3-9.2.6-.3 0-.5.3-.5.6.1 3.3-.1 4.2.1 7.5 0 .2 0 .5.2.6.1.1.3.1.5.1h2.6c.5.6 1.1 1.2 1.6 1.9.2.2.5.2.6 0 .4-.7.8-1.3 1.2-2.1 1.2-.1 1.6-.2 2.8-.3.4 0 .8-.4.8-.9-.1-3.3 0-4.2-.1-7.4z"/><path class="st3" d="M400.6 304.7c-.1-1-.5-1.4-1.5-1.5-1.9-.2-4.1.2-6 .3-1.2.1-3.5-.3-4.4.7-.9.9-.4 3.1-.4 4.3 0 1.5-.3 3.4.1 4.7.4 1.1 1.2 1.2 2.3 1.2.9 0 1.3-.1 2 .6.5.5.8 1.2 1.6 1.3 1.4.2 2.1-1.7 2.6-2.7-.3.2-.6.3-.8.5 1.6-.1 4 .1 4.5-1.9.5-2.1.1-5.2 0-7.5-.1-1.3-2-1.3-2 0 0 1.1.1 2.3.1 3.4 0 1 .3 2.8-.4 3.6-.7.8-1.8.2-2.7.7-.8.5-.8 1.8-1.6 2.3h1c-.9-.4-1.2-1.7-2-2.1-.5-.2-1.2-.1-1.7-.1 0 0-1.2.2-1 .3-.1-.1 0-1.3-.1-1.5v-2.5c0-.7-.2-1.7 0-2.4.3-1.2 1.5-.9 2.5-1 .7-.1 5.9-.1 5.8-.8.3 1.3 2.3 1.3 2.1.1z"/><path class="st2" d="M492.6 195.1c0-.2 0-.4-.2-.5-.1-.1-.3-.1-.4-.1-3.6.2-5.2.3-8.8.6-.3 0-.5.3-.5.6 0 3.2-.1 4 .1 7.2 0 .2 0 .4.2.6.1.1.3.1.5.1h2.4l1.5 1.8c.2.2.5.2.6 0 .4-.6.8-1.3 1.1-2 1.1-.1 1.5-.2 2.6-.3.4 0 .7-.4.7-.8.2-3.3.4-4.1.2-7.2z"/><path class="st3" d="M493.6 195.1c-.1-.9-.5-1.4-1.4-1.5-1.8-.2-3.9.2-5.7.3-1.2.1-3.3-.2-4.2.7-.9.9-.4 3-.4 4.2 0 1.4-.3 3.2.1 4.5.3 1.1 1.2 1.2 2.2 1.2.9 0 1.3-.1 1.9.6.5.5.8 1.2 1.5 1.3 1.4.2 2-1.6 2.5-2.6-.3.2-.6.3-.8.5 1.6-.1 3.9.1 4.3-1.8.5-2.2.1-5.2 0-7.4-.1-1.3-2-1.3-2 0 0 1.1.1 2.2.1 3.3 0 .9.3 2.7-.3 3.4-.7.8-1.7.2-2.5.6-.8.5-.7 1.7-1.5 2.2h1c-.9-.4-1.1-1.6-2-2-.4-.2-1.1-.1-1.6-.1 0 0-1.1.2-.9.3-.1-.1 0-1.2 0-1.4V199c0-.7-.2-1.6 0-2.3.3-1.1 1.4-.8 2.4-.9.7-.1 5.6-.1 5.5-.8 0 1.3 2 1.3 1.8.1z"/><path class="st2" d="M444 152.3c0-.2 0-.4-.2-.5-.1-.1-.3-.1-.4-.1-3.6.2-5.2.3-8.8.6-.3 0-.5.3-.5.6 0 3.2-.1 4 .1 7.2 0 .2 0 .4.2.6.1.1.3.1.5.1h2.4l1.5 1.8c.2.2.5.2.6 0 .4-.6.8-1.3 1.1-2 1.1-.1 1.5-.2 2.6-.3.4 0 .7-.4.7-.8.3-3.3.4-4.1.2-7.2z"/><path class="st3" d="M445 152.3c-.1-.9-.5-1.4-1.4-1.5-1.8-.2-3.9.2-5.7.3-1.2.1-3.3-.2-4.2.7-.9.9-.4 3-.4 4.2 0 1.4-.3 3.2.1 4.5.3 1.1 1.2 1.2 2.2 1.2.9 0 1.3-.1 1.9.6.5.5.8 1.2 1.5 1.3 1.4.2 2-1.6 2.5-2.6-.3.2-.6.3-.8.5 1.6-.1 3.9.1 4.3-1.8.5-2.2.1-5.2 0-7.4-.1-1.3-2-1.3-2 0 0 1.1.1 2.2.1 3.3 0 .9.3 2.7-.3 3.4-.7.8-1.7.2-2.5.6-.8.5-.7 1.7-1.5 2.2h1c-.9-.4-1.1-1.6-2-2-.4-.2-1.1-.1-1.6-.1 0 0-1.1.2-.9.3-.1-.1 0-1.2 0-1.4v-2.4c0-.7-.2-1.6 0-2.3.3-1.1 1.4-.8 2.4-.9.7-.1 5.6-.1 5.5-.8 0 1.3 2 1.3 1.8.1z"/><path class="st2" d="M410.7 183c0-.3 0-.6-.3-.8-.2-.1-.4-.1-.7-.1-5.6.3-11.3.7-16.9 1.1-.5 0-.8.4-.8.9.1 5-.1 6.3.1 11.2 0 .3 0 .7.3.9.2.2.5.2.8.2l5.8-.3c.8 1 1.6 1.9 2.4 2.8.3.3.7.3 1-.1.7-1 1.2-2 1.8-3.1 1.8-.1 3.5-.3 5.3-.4.7-.1 1.2-.6 1.2-1.3 0-4.8.2-6.1 0-11z"/><path class="st3" d="M411.6 183c-.4-2.8-3.7-1.8-5.8-1.6-2.6.2-5.2.3-7.8.5-1.6.1-4.2-.2-5.7.5-2.2 1.1-1.3 4.9-1.3 7 0 1.9-.9 6.3.8 7.7.9.7 2.7.3 3.7.3 1.3-.1 2.5-.3 3.6.5.7.5 1 1.6 1.8 2 .7.4 1.3.4 2-.1 1.7-1.1 1.2-2.7 3.4-3.1 2.3-.4 4.8.3 5.3-2.5.7-3.4.2-7.8 0-11.2-.1-1.3-2-1.3-2 0 .1 2.1.1 4.2.1 6.3 0 1 .3 2.7-.1 3.6-.7 1.9-1.9 1.6-3.4 1.7-2.5.2-2.2 0-3.5 1.7-1.8 2.2-1.3-.1-3-.9-.6-.3-.6-.2-1.3-.3-1.3-.1-2.8.5-4.1.2-1.2.4-1.6 0-1.3-1.2v-7.4c0-3.7 4.1-2.9 6.9-3.1.8-.1 9.7-.6 9.7-.7.2 1.4 2.2 1.4 2 .1z"/><path class="st2" d="M359.5 187.4c0-.3 0-.6-.3-.8-.2-.2-.5-.1-.7-.1-6.2.3-12.4.7-18.6 1.2-.5 0-.9.5-.9 1 .1 5.5-.1 6.9.1 12.4 0 .4.1.8.3 1 .2.2.6.2.9.2l6.4-.3c.9 1.1 1.8 2.1 2.6 3.1.3.3.8.3 1.1-.1.7-1.1 1.4-2.2 1.9-3.4 1.9-.1 3.9-.3 5.8-.5.7-.1 1.3-.7 1.3-1.4.2-5.5.4-6.9.1-12.3z"/><path class="st3" d="M360.5 187.4c-.4-3.2-4.7-1.8-6.9-1.7-2.5.1-5 .3-7.4.5-1.9.1-4.6-.1-6.4.5-2.8.9-1.6 5.5-1.6 7.7 0 2-.9 6.9.8 8.3 1.3 1 3.9.2 5.3.2 1.5.1 2 .1 3.2 1.1.5.5.9 1.3 1.5 1.7.8.4 1.3.4 2.1-.1 1.5-1 1.2-2.9 3.2-3.4 2.5-.6 5.8.6 6.4-2.7.5-3.6 0-8.3-.2-12.1-.1-1.3-2-1.3-2 0 .1 2.4.1 4.9.1 7.3 0 1 .3 2.8-.1 3.7-.8 2.3-3.1 1.8-5 2-.8.1-1.3 0-1.9.4-.6.4-.8 2.6-1.5 2.8-1.3.3-1.7-1.9-2.7-2.4-.6-.3-.6-.2-1.3-.3-1.5-.1-3 .3-4.5.2-2.3-.1-1.5-1.5-1.6-3.4 0-2.2-.3-4.7 0-6.9.4-2.4 1.4-2.4 3.6-2.5l5-.3c.8-.1 9.9-.7 9.9-.6.2 1.2 2.2 1.2 2 0z"/><path class="st2" d="M367.1 158.7c0-.1 0-.3-.1-.4-.1-.1-.2-.1-.3-.1-2.9.2-5.8.3-8.7.6-.2 0-.4.2-.4.5 0 2.6.1 5.1.2 7.7 0 .2 0 .4.2.5.1.1.3.1.4.1 1 0 2-.1 3-.1.4.5.8 1 1.2 1.4.1.2.4.1.5 0 .3-.5.6-1 .9-1.6.9-.1 1.8-.1 2.7-.2.3 0 .6-.3.6-.7 0-2.6-.1-5.2-.2-7.7z"/><path class="st3" d="M368 158.4c0-.1-.1-.3-.1-.4-.1-.3-.3-.6-.7-.7-1.6-.3-3.4.1-5 .2-1.4.1-3.6-.2-4.8.4-.9.5-.9 1.1-.9 2.1 0 1.8.1 3.6.1 5.4 0 .8-.2 2.1.5 2.7.9.9 2.3-.1 3.3.3.9.3 1.2 1.5 2.2 1.5 1.1 0 1.6-1.4 2-2.2-.3.2-.6.3-.8.5 1.5-.1 3.8.2 4.3-1.6.2-1 0-2.3 0-3.3 0-1.5-.1-3-.1-4.6-.1-1.3-2-1.3-2 0 .1 1.3.1 2.5.1 3.8 0 .8.4 3-.3 3.5-.5.4-1.8-.1-2.4.2-.7.4-.6 1.4-1.3 1.8h1c-.7-.3-.9-1.2-1.5-1.6-.5-.3-1.4-.2-2-.1-.4-.2-.8-.1-.9.3-.3.5-.3.3-.2-.5-.2-1-.1-2.1-.1-3.1 0-.5-.4-2.7-.1-3.1.4-.5 1.1-.4 1.8-.4 2-.1 4.5-.7 6.4-.4l-.7-.7c0 .1.1.3.1.4.7 1.4 2.6.8 2.1-.4z"/><path class="st2" d="M319.8 208.8c0-.2 0-.3-.2-.5-.1-.1-.3-.1-.4-.1-3.4.2-6.7.4-10.1.7-.3 0-.5.3-.5.5 0 3 .1 5.9.3 8.9 0 .2 0 .4.2.5.1.1.3.1.5.1 1.2 0 2.3-.1 3.5-.2.5.6 1 1.1 1.4 1.7.2.2.4.2.6 0 .4-.6.7-1.2 1-1.8l3.2-.3c.4 0 .7-.4.7-.8 0-2.8-.1-5.7-.2-8.7z"/><path class="st3" d="M320.7 208.6c-.1-.2-.1-.3-.2-.5-.1-.3-.3-.6-.7-.7-2.5-.5-5.5.2-8 .3-1.4.1-3.7-.3-4.2 1.5-.3 1 0 2.3 0 3.4 0 1.5.1 3 .1 4.5.1 1.4-.1 2.7 1.5 2.9 1.1.2 2.4-.4 3.4.1.7.4.8 1.4 1.7 1.5.5.1.9-.1 1.2-.4 1.1-.9.4-1.4 1.9-1.7 1.5-.3 2.9 0 3.3-1.9.5-2.7-.1-6.1-.2-8.8-.1-1.3-2-1.3-2 0 .1 1.5.1 2.9.1 4.4 0 1 .5 3.6-.5 4.3-.7.5-2-.2-2.8.3-.8.4-.7 1.6-1.4 2.1h1c-.8-.3-1-1.4-1.7-1.8-.6-.3-1.6-.1-2.2 0-.5-.1-.8-.1-1.1.2-.4.4-.5.2-.3-.7-.2-1.1-.1-2.4-.1-3.6 0-.7-.5-3-.1-3.6.5-.8 1.4-.6 2.2-.6.6 0 7-.6 7-.7.6 1.2 2.5.6 2.1-.5z"/><path class="st2" d="M215.3 298.4c0-.2 0-.3-.2-.5-.1-.1-.3-.1-.4-.1-3.4.2-6.7.4-10.1.7-.3 0-.5.3-.5.5 0 3 .1 5.9.3 8.9 0 .2 0 .4.2.5.1.1.3.1.5.1 1.2 0 2.3-.1 3.5-.2.5.6 1 1.1 1.4 1.7.2.2.4.2.6 0 .4-.6.7-1.2 1-1.8l3.2-.3c.4 0 .7-.4.7-.8 0-2.9 0-5.8-.2-8.7z"/><path class="st3" d="M216.3 298.1c-.1-.2-.1-.3-.2-.5-.1-.3-.3-.6-.7-.7-2.5-.5-5.5.2-8 .3-1.4.1-3.7-.3-4.2 1.5-.3 1 0 2.3 0 3.4 0 1.5.1 3 .1 4.5.1 1.4-.1 2.7 1.5 2.9 1.1.2 2.4-.4 3.4.1.7.4.8 1.4 1.7 1.5.5.1.9-.1 1.2-.4 1.1-.9.4-1.4 1.9-1.7 1.5-.3 2.9 0 3.3-1.9.5-2.7-.1-6.1-.2-8.8-.1-1.3-2-1.3-2 0 .1 1.5.1 2.9.1 4.4 0 1 .5 3.6-.5 4.3-.7.5-2-.2-2.8.3-.8.4-.7 1.6-1.4 2.1h1c-.8-.3-1-1.4-1.7-1.8-.6-.3-1.6-.1-2.2 0-.5-.1-.8-.1-1.1.2-.4.4-.5.2-.3-.7-.2-1.1-.1-2.4-.1-3.6 0-.7-.5-3-.1-3.6.5-.8 1.4-.6 2.2-.6.6 0 7-.6 7-.7.6 1.2 2.5.7 2.1-.5z"/><path class="st2" d="M282.8 244.9c0-.2 0-.3-.2-.5-.1-.1-.3-.1-.4-.1-3.4.2-6.7.4-10.1.7-.3 0-.5.3-.5.5 0 3 .1 5.9.3 8.9 0 .2 0 .4.2.5.1.1.3.1.5.1 1.2 0 2.3-.1 3.5-.2.5.6 1 1.1 1.4 1.7.2.2.4.2.6 0 .4-.6.7-1.2 1-1.8l3.2-.3c.4 0 .7-.4.7-.8 0-2.8 0-5.8-.2-8.7z"/><path class="st3" d="M283.8 244.6c-.1-.2-.1-.3-.2-.5-.1-.3-.3-.6-.7-.7-2.5-.5-5.5.2-8 .3-1.4.1-3.7-.3-4.2 1.5-.3 1 0 2.3 0 3.4 0 1.5.1 3 .1 4.5.1 1.4-.1 2.7 1.5 2.9 1.1.2 2.4-.4 3.4.1.7.4.8 1.4 1.7 1.5.5.1.9-.1 1.2-.4 1.1-.9.4-1.4 1.9-1.7 1.5-.3 2.9 0 3.3-1.9.5-2.7-.1-6.1-.2-8.8-.1-1.3-2-1.3-2 0 .1 1.5.1 2.9.1 4.4 0 1 .5 3.6-.5 4.3-.7.5-2-.2-2.8.3-.8.4-.7 1.6-1.4 2.1h1c-.8-.3-1-1.4-1.7-1.8-.6-.3-1.6-.1-2.2 0-.5-.1-.8-.1-1.1.2-.4.4-.5.2-.3-.7-.2-1.1-.1-2.4-.1-3.6 0-.7-.5-3-.1-3.6.5-.8 1.4-.6 2.2-.6.6 0 7-.6 7-.7.6 1.2 2.5.7 2.1-.5z"/><path class="st2" d="M298.7 166.7c0-.2 0-.3-.2-.5-.1-.1-.3-.1-.4-.1-3.4.2-6.7.4-10.1.7-.3 0-.5.3-.5.5 0 3 .1 5.9.3 8.9 0 .2 0 .4.2.5.1.1.3.1.5.1 1.2 0 2.3-.1 3.5-.2.5.6 1 1.1 1.4 1.7.2.2.4.2.6 0 .4-.6.7-1.2 1-1.8l3.2-.3c.4 0 .7-.4.7-.8 0-2.8-.1-5.7-.2-8.7z"/><path class="st3" d="M299.6 166.4c-.1-.2-.1-.3-.2-.5-.1-.3-.3-.6-.7-.7-2.5-.5-5.5.2-8 .3-1.4.1-3.7-.3-4.2 1.5-.3 1 0 2.3 0 3.4 0 1.5.1 3 .1 4.5.1 1.4-.1 2.7 1.5 2.9 1.1.2 2.4-.4 3.4.1.7.4.8 1.4 1.7 1.5.5.1.9-.1 1.2-.4 1.1-.9.4-1.4 1.9-1.7 1.5-.3 2.9 0 3.3-1.9.5-2.7-.1-6.1-.2-8.8-.1-1.3-2-1.3-2 0 .1 1.5.1 2.9.1 4.4 0 1 .5 3.6-.5 4.3-.7.5-2-.2-2.8.3-.8.4-.7 1.6-1.4 2.1h1c-.8-.3-1-1.4-1.7-1.8-.6-.3-1.6-.1-2.2 0-.5-.1-.8-.1-1.1.2-.4.4-.5.2-.3-.7-.2-1.1-.1-2.4-.1-3.6 0-.7-.5-3-.1-3.6.5-.8 1.4-.6 2.2-.6.6 0 7-.6 7-.7.6 1.3 2.5.7 2.1-.5z"/><path class="st2" d="M233.5 157c0-.3 0-.6-.2-.7-.2-.1-.4-.1-.6-.1-5.4.3-10.8.6-16.2 1.1-.4 0-.8.4-.8.8.1 4.7.2 9.5.4 14.2 0 .3 0 .7.3.9.2.2.5.2.7.2 1.9-.1 3.7-.1 5.6-.2.8.9 1.5 1.8 2.3 2.7.2.3.7.3.9-.1.6-.9 1.2-1.9 1.7-2.9 1.7-.1 3.4-.3 5.1-.4.6-.1 1.1-.6 1.1-1.2.1-4.9 0-9.6-.3-14.3z"/><path class="st3" d="M234.5 157c-.3-2.6-3-1.8-5-1.6-2.3.1-4.6.3-6.8.4-1.9.1-4.7-.1-6.5.5-2.7.9-1.4 5.6-1.4 7.6.1 2.4.1 4.7.2 7.1 0 .8-.1 2.2.6 2.8.8.7 2.2.4 3.1.4 1.1 0 2.3-.3 3.4.2 1 .4 1.3 1.5 2.1 2.1 2.5 1.6 2.8-1.9 4.6-2.8 2.1-1 5.1.8 5.9-2.3.5-2 0-4.6 0-6.7 0-2.6-.1-5.2-.2-7.7-.1-1.3-2-1.3-2 0l.3 9c0 1 .4 2.9 0 3.8-1.2 3-3.2.9-5.2 1.9-.8.4-1.3 2.3-1.9 2.5-1.3.3-1.6-1.6-2.5-2-.5-.3-1.1-.1-1.6-.1-1 0-2.4.3-3.3.1-1.2.4-1.6 0-1.2-1.3 0-.6 0-1.3-.1-1.9-.1-2.7-.5-5.7-.2-8.4.2-2.2.7-2.5 2.8-2.7l4.3-.3c1-.1 8.6-.5 8.6-.7.2 1.3 2.2 1.3 2 .1z"/><path class="st2" d="M315.1 231.4c0-.3-.1-.7-.3-.9-.2-.2-.5-.2-.8-.1-6.9.4-13.7.8-20.6 1.3-.6 0-1 .5-1 1.1.1 6.1-.1 7.7.2 13.7 0 .4.1.9.4 1.1.3.2.6.2.9.2l7.1-.3c1 1.2 1.9 2.3 2.9 3.4.3.4.9.3 1.2-.1.8-1.2 1.5-2.4 2.1-3.8 2.2-.2 4.3-.3 6.5-.5.8-.1 1.4-.7 1.4-1.6.1-6 .3-7.5 0-13.5z"/><path class="st3" d="M316.1 231.4c-.5-3.5-5.5-1.9-7.9-1.7-2.8.2-5.6.3-8.4.5-1.9.1-5.2-.2-6.9.6-2.7 1.2-1.4 6.3-1.5 8.8 0 2-.9 7.4 1 8.8 1.1.8 3.2.3 4.4.2 1.4-.1 2.9-.5 4.2.4.9.6 1.3 1.9 2.2 2.6 2.8 2 3.4-2.7 5.3-3.6 2.7-1.3 6.8 1.1 7.6-3 .4-2.1.1-4.6.1-6.8.1-2.3 0-4.6-.1-6.8-.1-1.3-2-1.3-2 0 .1 2.7.2 5.3.1 8 0 1.2.2 2.7-.1 3.8-.7 2.8-3.3 2.6-5.7 2.8-.7.1-1.4-.1-2 .4-.9.8-.8 3-2.2 3-1.3 0-1.7-2.2-2.8-2.7-.9-.4-2-.1-3-.1-.9 0-4.1.7-4.7.2-.8-.6-.4-2.8-.4-3.7-.1-2.5 0-5 0-7.5 0-2.7 1.4-3.1 3.8-3.2 1.7-.1 3.4-.2 5.2-.4.9-.1 11.7-.9 11.7-.6.3 1.2 2.3 1.2 2.1 0z"/><path class="st2" d="M291.5 266.7c0-.2 0-.4-.2-.5-.1-.1-.3-.1-.4-.1-3.4.2-6.8.4-10.3.7-.3 0-.5.3-.5.5 0 3-.1 3.8.1 6.8 0 .2 0 .4.2.5.1.1.3.1.5.1 1.2 0 2.4-.1 3.5-.2.5.6 1 1.1 1.5 1.7.2.2.5.2.6 0 .4-.6.8-1.2 1.1-1.9l3.2-.3c.4 0 .7-.4.7-.8.1-2.7.2-3.5 0-6.5z"/><path class="st3" d="M292.5 266.5c-.1-.2-.1-.3-.2-.5-.1-.3-.3-.6-.7-.7-1.8-.3-3.9.1-5.8.2-1.6.1-3.9-.1-5.4.4-2 .7-1.2 4.6-1.2 6.2 0 .9-.2 2.3.4 3.1 1 1.2 2.7.1 4 .5 1 .3 1.5 1.8 2.6 1.8 1.2 0 1.8-1.7 2.2-2.5-.3.2-.6.3-.8.5 1.6-.1 4.4.3 4.9-1.8s.1-4.9 0-7c-.1-1.3-2-1.3-2 0 .1 1.4.7 5.8-.5 6.6-.7.5-2-.2-2.8.3-.8.4-.7 1.7-1.5 2.1h1c-.8-.3-1-1.4-1.8-1.8-.6-.3-1.7-.2-2.3 0-.6-.1-1 0-1.4.4v-3.7c0-.5-.2-2 0-2.4.5-.8 2.1-.5 2.9-.6 2.1-.1 4.9-.8 7-.4l-.7-.7c.1.2.1.3.2.5.4 1.2 2.3.7 1.9-.5z"/><path class="st2" d="M213.4 202.2c0-.2 0-.4-.2-.5-.1-.1-.3-.1-.4-.1-3.4.2-6.8.4-10.3.7-.3 0-.5.3-.5.5 0 3-.1 3.8.1 6.8 0 .2 0 .4.2.5.1.1.3.1.5.1 1.2 0 2.4-.1 3.5-.2.5.6 1 1.1 1.5 1.7.2.2.5.2.6 0 .4-.6.8-1.2 1.1-1.9l3.2-.3c.4 0 .7-.4.7-.8 0-2.7.1-3.5 0-6.5z"/><path class="st3" d="M214.3 202c-.1-.2-.1-.3-.2-.5-.1-.3-.3-.6-.7-.7-1.8-.3-3.9.1-5.8.2-1.6.1-3.9-.1-5.4.4-2 .7-1.2 4.6-1.2 6.2 0 .9-.2 2.3.4 3.1 1 1.2 2.7.1 4 .5 1 .3 1.5 1.8 2.6 1.8 1.2 0 1.8-1.7 2.2-2.5-.3.2-.6.3-.8.5 1.6-.1 4.4.3 4.9-1.8s.1-4.9 0-7c-.1-1.3-2-1.3-2 0 .1 1.4.7 5.8-.5 6.6-.7.5-2-.2-2.8.3-.8.4-.7 1.7-1.5 2.1h1c-.8-.3-1-1.4-1.8-1.8-.6-.3-1.7-.2-2.3 0-.6-.1-1 0-1.4.4v-3.7c0-.5-.2-2 0-2.4.5-.8 2.1-.5 2.9-.6 2.1-.1 4.9-.8 7-.4l-.7-.7c.1.2.1.3.2.5.4 1.2 2.3.7 1.9-.5z"/><path class="st2" d="M262.2 362.8c0-.2 0-.5-.2-.7-.2-.1-.4-.1-.6-.1-4.9.3-9.8.6-14.8 1-.4 0-.7.4-.7.8.1 4.3-.1 5.5.1 9.8 0 .3 0 .6.3.8.2.1.4.1.7.1 1.7-.1 3.4-.1 5.1-.2.7.8 1.4 1.6 2.1 2.5.2.3.6.2.8 0 .6-.9 1.1-1.7 1.5-2.7 1.5-.1 3.1-.2 4.6-.4.6-.1 1-.5 1-1.1.2-4.4.3-5.5.1-9.8z"/><path class="st3" d="M263.2 362.5c-.1-.2-.2-.4-.2-.7-.1-.3-.3-.6-.7-.7-3.3-.6-7.3.2-10.7.5-1.8.1-5.3-.5-6.4 1.3-1 1.6-.2 5.7-.2 7.6 0 1.7-.5 4 1.4 4.8 1.6.6 3.4-.5 5 .2 1.1.5 1.6 2.1 2.8 2.3 2 .3 2.3-2.5 4.1-3 1.9-.5 4.4.3 4.9-2.2.6-3 .2-6.8 0-9.8-.1-1.3-2-1.3-2 0 .1 2 .1 4.1.1 6.1 0 1.5.4 3-1.3 3.8-.9.5-2.5-.2-3.5.3-.8.4-1.3 2.2-1.8 2.3-1 .3-1.3-1.4-1.9-1.7-.6-.3-.6-.2-1.3-.3-1.1-.1-2.8.6-3.8.2-.8.3-1-.1-.7-1.1v-1.9c0-1.5-.2-3.3 0-4.8.4-2.8 3.4-2.2 5.8-2.3.9-.1 8.3-.9 8.5-.5.4 1.3 2.3.8 1.9-.4z"/><path class="st2" d="M213.9 261.1c0-.2 0-.5-.2-.6-.1-.1-.3-.1-.5-.1-4.4.2-8.7.5-13.1.9-.4 0-.6.3-.6.7.1 3.8-.1 4.9.1 8.7 0 .3 0 .5.2.7.2.1.4.1.6.1 1.5-.1 3-.1 4.5-.2.6.7 1.2 1.4 1.8 2.2.2.2.6.2.7 0 .5-.8 1-1.5 1.4-2.4l4.1-.3c.5 0 .9-.5.9-1 .1-3.9.3-4.9.1-8.7z"/><path class="st3" d="M214.8 260.8c-.1-.2-.1-.4-.2-.6-.1-.3-.3-.6-.7-.7-3-.5-6.5.2-9.5.4-1.6.1-4.8-.4-5.7 1.3-.9 1.5-.2 5.1-.2 6.8 0 1.6-.4 3.7 1.3 4.3 1.4.5 3.1-.4 4.5.1 1 .4 1.4 1.8 2.5 2 1.9.3 2.1-2.2 3.6-2.6 1.8-.5 4 .3 4.4-2.1.5-2.7.1-6 0-8.7-.1-1.3-2-1.3-2 0 .1 1.8.1 3.6.1 5.4 0 1.2.3 2.5-1 3.3-.8.5-2.2-.2-3.1.2-.6.3-1.5 2.1-1.7 2.1-.7.1-1-1.3-1.6-1.6-.5-.3-.6-.2-1.3-.3-.9-.1-2.5.5-3.3.2-.6.3-.8 0-.5-.9v-1.6c0-1.3-.2-2.9 0-4.2.3-2.4 3-1.8 5.1-1.9.8-.1 7.3-.7 7.4-.5.5 1.3 2.3.8 1.9-.4z"/><path class="st2" d="M179.5 346.7c0-.2 0-.4-.2-.5-.1-.1-.3-.1-.4-.1-3.8.2-7.5.4-11.3.7-.3 0-.5.3-.5.6.1 3.3-.1 4.2.1 7.5 0 .2 0 .5.2.6.1.1.3.1.5.1 1.3 0 2.6-.1 3.9-.2.5.6 1.1 1.2 1.6 1.9.2.2.5.2.6 0 .4-.7.8-1.3 1.2-2.1l3.5-.3c.4 0 .8-.4.8-.9.1-3.2.2-4 0-7.3z"/><path class="st3" d="M180.5 346.5c-.1-.2-.1-.3-.2-.5-.1-.3-.3-.6-.7-.7-2.6-.5-5.6.2-8.2.3-1.5.1-4.2-.3-5.1 1.2-.8 1.3-.2 4.4-.2 5.9 0 1.4-.3 3.3 1.2 3.9 1.2.4 2.6-.4 3.8.1.9.4 1.1 1.5 2.1 1.7 1.7.3 1.9-1.8 3.2-2.2 1.6-.5 3.5.3 4-1.9.4-2.3.1-5.2 0-7.5-.1-1.3-2-1.3-2 0 .1 1.5.8 6.5-.7 7.4-.8.5-2.2-.2-3 .3-.8.5-.8 1.8-1.6 2.3h1c-.9-.4-1.1-1.6-1.9-2-.6-.3-1.8-.1-2.4 0-.6-.1-1.2 0-1.7.3 0-.5 0-1.1-.1-1.6v-2.4c0-.6-.3-2.1 0-2.6.5-1 2.3-.7 3.3-.7.6 0 7.2-.6 7.2-.6.5 1 2.4.4 2-.7z"/><path class="st2" d="M161 249.6c0-.2 0-.4-.2-.5-.1-.1-.3-.1-.4-.1-3.8.2-7.5.4-11.3.7-.3 0-.5.3-.5.6.1 3.3-.1 4.2.1 7.5 0 .2 0 .5.2.6.1.1.3.1.5.1 1.3 0 2.6-.1 3.9-.2.5.6 1.1 1.2 1.6 1.9.2.2.5.2.6 0 .4-.7.8-1.3 1.2-2.1l3.5-.3c.4 0 .8-.4.8-.9 0-3.2.2-4 0-7.3z"/><path class="st3" d="M162 249.3c-.1-.2-.1-.3-.2-.5-.1-.3-.3-.6-.7-.7-2.6-.5-5.6.2-8.2.3-1.5.1-4.2-.3-5.1 1.2-.8 1.3-.2 4.4-.2 5.9 0 1.4-.3 3.3 1.2 3.9 1.2.4 2.6-.4 3.8.1.9.4 1.1 1.5 2.1 1.7 1.7.3 1.9-1.8 3.2-2.2 1.6-.5 3.5.3 4-1.9.4-2.3.1-5.2 0-7.5-.1-1.3-2-1.3-2 0 .1 1.5.8 6.5-.7 7.4-.8.5-2.2-.2-3 .3-.8.5-.8 1.8-1.6 2.3h1c-.9-.4-1.1-1.6-1.9-2-.6-.3-1.8-.1-2.4 0-.6-.1-1.2 0-1.7.3 0-.5 0-1.1-.1-1.6v-2.4c0-.6-.3-2.1 0-2.6.5-1 2.3-.7 3.3-.7.6 0 7.2-.6 7.2-.6.5 1 2.4.5 2-.7z"/><path class="st2" d="M172.6 294.3c0-.2 0-.4-.2-.5-.1-.1-.3-.1-.5-.1-4 .2-5.7.3-9.6.6-.3 0-.6.3-.6.6.1 3.5-.1 4.4.1 7.9 0 .2 0 .5.2.6.1.1.4.1.5.1h2.7l1.7 2c.2.2.5.2.7 0 .5-.7.9-1.4 1.2-2.2 1.2-.1 1.7-.2 2.9-.3.5 0 .8-.4.8-.9.1-3.5.2-4.4.1-7.8z"/><path class="st3" d="M173.5 294.3c-.1-1-.5-1.4-1.5-1.6-1.9-.3-4.3.2-6.3.4-1.3.1-3.6-.3-4.6.7-.9 1-.4 3.3-.4 4.5 0 1.5-.3 3.5.1 5 .4 1.2 1.2 1.2 2.3 1.2 1 0 1.4-.1 2.2.7.5.5.8 1.3 1.6 1.4 1.5.2 2.2-1.8 2.7-2.8-.3.2-.6.3-.8.5 1.7-.1 4.2.1 4.7-1.9.6-2.4.1-5.7 0-8.1-.1-1.3-2-1.3-2 0 .1 1.2.1 2.4.1 3.6 0 1.1.3 3-.4 3.8-.8.9-1.9.2-2.8.7-.9.5-.8 1.9-1.7 2.4h1c-.9-.4-1.2-1.8-2.1-2.2-.5-.2-1.2-.1-1.7-.1 0 0-1.2.2-1.1.2-.1-.1 0-1.3-.1-1.6v-2.7c0-.8-.2-1.7 0-2.5.3-1.3 1.6-1 2.7-1.1.7-.1 6.2-.2 6.2-.8.1 1.5 2.1 1.5 1.9.3z"/></svg>