<svg id="Layer_1" xmlns="http://www.w3.org/2000/svg" viewBox="0 0 559 520"><style>.st1{fill-rule:evenodd;clip-rule:evenodd}.st3{fill:#383d61}</style><path d="M378.3 371.2c.7-.4 1.4-.8 2.2-1.2 32.9-18.2 59.7-45.7 74-85.9 2.4-6.9 4.5-14.2 3.7-23.6-.6-7.7-3.4-17-8.5-25.8-4.5-25-15.1-53.3-34.7-77.8-24.2-30.1-55.8-45.9-78.2-45.7-12.3.1-22.4 4.1-32.4 8.3a1313.5 1313.5 0 0 0-96.8 45c-3 1.6-6.1 3.2-9.1 4.8-20.7 11.1-40.5 23.9-53.9 44.2-5.8 8.8-10.5 19-18.2 25.5-6.3 5.3-14.6 8-19.5 14.9-4.2 5.9-5.8 14.6-6.1 24.1-.4 11.5 1.1 24.7 6.4 39 5.3 14.4 15 30.2 26.8 41.4 11.5 10.8 23.6 16.4 35.3 26.2 7.4 6.2 14.6 14.2 22.1 18.8 7.8 4.9 14.7 5.3 21.1 5.4 19.6.2 37.9-2.1 55.9-5 39.4-6.2 77.5-15.2 109.9-32.6" fill="#cfebf6"/><path class="st1" d="M186.3 218.2c.6 2.2-2.5 2.3-2.2.2.6-.8 1.6-.9 2.2-.2zm-3.2-67.5c3.1-.7 4.9.9 5.1 3 .6 5.6-8.2 6.4-8.3.8 0-2.1 1.5-3.1 3.2-3.8zm-.4 4.4c.9 3.7 5.2-2.6 1.4-1.8-.9.2-1.7.4-1.4 1.8zm222.8 175.8c5.3-1.5 10.6-1 14.4.7 2.8 1.3 6.1 3.7 7.6 7 1.6 3.5.3 7.7-1.2 10-2.7 4.1-8.8 6.8-15.8 7.1-.8 0-1.9-.1-2.7.1-.9.2-1.6.9-2.4 1.4-.7.5-1.5.9-2.5 1.4-1 .5-5.3 2.4-5.8 1-.3-.9 1.4-1.6 2.2-2.5.3-.3 2.2-2 2-2.5-.1-.2-1.2-.6-1.6-.7-2.5-1.1-5.3-3.1-6.3-6.7-2.2-8.4 4.5-14.2 12.1-16.3zm-1.5 25.3c1-.6 2.1-1.6 3.2-2 1.2-.3 2.6-.1 3.8-.1 5.8-.2 11.3-2.6 13.7-6.1 1.3-1.9 2.5-5.4 1.5-8.2-1.1-3.2-4.3-5.4-7.2-6.8-3.3-1.5-7-1.8-10.9-1.3-5.4.8-9.9 3.9-12 6.9-1.4 2.1-2.2 5.1-1.3 8.3.8 2.9 3.1 4.8 5.3 5.8.5.2 2.3.6 2.4 1 .4.9-1.3 2.9-1.7 3.4-.3.3-.7.6-.5.8 1.6-.5 2.6-1.1 3.7-1.7z"/><path class="st1" d="M397.6 338.7c0 .1.1.2.1.2-.5 1.1-.7 2.4-1.8 3.2-.6-1.2.9-2.3 1.2-3.4.3-.1.4-.1.5 0zm1.1.8c0 .6-.3 1.2-.6 1.7-.2.4-.5 1.2-1.2 1.2-.1-1.1.6-2.4 1.5-3.1.1.1.2.2.3.2zm.9.5c.2.6-.2 1.5-1 1.8-.5-.6.3-1.9 1-1.8zm1.2.4c.1.5-.2.8-.6 1-.1-.1-.2-.2-.4-.2 0-.5.5-1.2 1-.8zm-235.4-99.8c-1 3.6-3.7 5.6-6.3 6.7-.3.1-1.5.5-1.6.7-.1.5 1.7 2.3 2 2.5.9.8 2.5 1.6 2.2 2.5-.5 1.4-4.7-.5-5.8-1-.9-.5-1.7-.9-2.5-1.4-.8-.5-1.6-1.1-2.4-1.4-.8-.2-1.9-.1-2.7-.1-7-.3-13.1-2.9-15.8-7.1-1.5-2.3-2.8-6.6-1.2-10 1.5-3.2 4.8-5.7 7.6-7 3.8-1.7 9.1-2.2 14.4-.7 7.8 2.2 14.5 7.9 12.1 16.3zm-7 10.8c.1-.3-.3-.5-.5-.8-.4-.5-2-2.5-1.7-3.4.2-.4 1.9-.8 2.4-1 2.2-1 4.4-2.9 5.3-5.8.9-3.3.1-6.3-1.3-8.3-2-3-6.6-6.1-12-6.9-3.9-.5-7.6-.3-10.9 1.3-2.8 1.3-6 3.6-7.2 6.8-1 2.8.2 6.3 1.5 8.2 2.4 3.5 7.9 5.9 13.7 6.1 1.2.1 2.6-.2 3.8.1 1.2.3 2.2 1.3 3.2 2 1.4.6 2.4 1.1 3.7 1.7z"/><path class="st1" d="M161.3 232.1c0 .1-.1.2-.1.2.5 1.1.7 2.4 1.8 3.2.6-1.2-.9-2.3-1.2-3.4-.2-.1-.3-.1-.5 0z"/><path class="st1" d="M160.3 232.9c0 .6.3 1.2.6 1.7.2.4.5 1.2 1.2 1.2.1-1.1-.6-2.4-1.5-3.1-.2.1-.2.2-.3.2zm-.9.5c-.2.6.2 1.5 1 1.8.5-.5-.3-1.9-1-1.8zm-1.2.4c-.1.5.2.8.6 1 .1-.1.2-.2.4-.2 0-.5-.5-1.2-1-.8zm-36.5-100.4c4.6-.9 4.4 5.9 1.2 6.1-3.1.3-5.1-5.3-1.2-6.1zm1.2 3.5c0-.5 0-1-.2-1.2h-.6c.1.7.2 1.2.8 1.2zm22 7.2c-2-3.1-.9-7.7 2.4-8.1 2.2-.3 4.9 1 5.3 3.2.8 3.8-3.7 7.8-7.7 4.9zm3-1.4c3.5.7 2.3-6.7-1.2-3.4 0 1.7.1 3.1 1.2 3.4zM135.6 174c.7-.2 1.3-.2 1.6.8 1 4-5.5.2-1.6-.8zm25.2 15.4c5.6-1.4 5.4 7.1 1 6.9-3.6 0-4.9-5.9-1-6.9zm1.6 4.4c.6-.6.3-1.5-.2-2-2-.2-1 2 .2 2zm-38.9 5.4c6.5-1.2 5.9 8.5.6 8.3-3.5-.2-5.5-7.5-.6-8.3zm1.4 5.5c2.6-.4-.3-5.2-1.8-2.2.4 1.1.7 2.4 1.8 2.2zm21.6-2.4c-.5 5.2-5-2.4 0 0z"/><path d="M184.9 192.9h10.9c2 0 2-3 0-3h-10.9c-2-.1-2 3 0 3z"/><path d="M188.5 184.6v13.8c0 2 3 2 3 0v-13.8c.1-1.9-3-1.9-3 0zm174.9 169.7h10.9c2 0 2-3 0-3h-10.9c-2 0-2 3 0 3z"/><path d="M367 346v13.8c0 2 3 2 3 0V346c.1-1.9-3-1.9-3 0z"/><path class="st1" d="M408.2 278.9c2.8-.5 6 .6 6.5 2.4 1.6 5.6-10.6 6.3-10.3.9.1-1.8 1.6-2.9 3.8-3.3zm3.9 3.3c-.2-1.9-5.4-1.8-5 .9 1.4 1.3 5.2.8 5-.9zm30.7 8.9c2.1-2.9 8.8-2.5 10.1.5 1 2.3-1.1 5-3.8 5.4-4.6.7-6.4-2.3-6.3-5.9zm2.6 1.3c-1.2 2.7 5.8 3.7 5 .3-.3-1.1-1.8-1.5-3.4-1.1-.9.2-1.4.4-1.6.8zm-55.5 8.7c9.5-1.5 12.2 9.2 3 10.9-5.6 1-11.2-3.6-8.1-8.2.8-1.3 2.8-2.4 5.1-2.7zm-1.5 3.1c-.7.4-1.8 1.4-2 2.2-.3 1.7 2 3.2 3.6 3.5 6.6 1 8.1-7.5.8-6.5-.9.1-1.8.4-2.4.8zm40-3.9c2.4-.5 3.4.4 3.6 1.4.6 3.3-5.8 3.9-5.9.8-.1-1.5.8-1.9 2.3-2.2z"/><path d="M377.8 268.7c0 51.4-31 62.5-77.1 63.7-3.8.1-7.4 2-9.5 5.1l-18.7 26.6c-2.5 3.1-4.8 4.1-6.5 3.4-1.8-.7-1.1-4.4-.8-6.2 1.4-9 3.4-14.2 1.8-23.6-.2-1.3-.4-2.6-1.4-3.5a4.6 4.6 0 0 0-3.5-1.4c-16.9.2-34.3-.8-51-8.6-11.2-5.2-17.3-15.2-20.7-26.9-8.6-30-10.2-73.8 17.3-95.6 8.9-7.1 21.7-11.1 32.8-13.4 15.7-3.2 31.8-2.9 47.8-2.9 51.9 0 89.5 10.3 89.5 83.3z" fill="#9ee4ff"/><path class="st3" d="M267 369.4c-.6 0-1.2-.1-1.7-.3-2.9-1.1-2.3-5.3-1.9-7.8v-.2c.3-2.1.7-4 1-5.8 1.1-5.8 2-10.4.8-17.3-.2-1.1-.4-2.1-.9-2.6-.6-.6-1.4-1-2.3-1h-3.3c-14.6 0-31.9-1-48.5-8.8-10.4-4.8-17.7-14.2-21.6-27.9-9.4-32.7-9.6-75.5 17.9-97.3 9.7-7.7 23.6-11.7 33.5-13.7 13.3-2.7 26.5-2.9 40.1-2.9h8c22.5 0 47.8 1.7 65.2 14.6 17.5 12.8 26 35.8 26 70.3 0 52.5-31.5 64.1-78.8 65.3-3.3.1-6.4 1.7-8.2 4.4L273.8 365c-2.3 2.9-4.6 4.4-6.8 4.4zm-.3-3.3h.3c.5 0 1.9-.3 4.1-3l18.6-26.5c2.5-3.5 6.5-5.6 10.9-5.8 46.6-1.2 75.5-12.1 75.5-62.1 0-68.3-32.2-81.6-87.9-81.6h-8c-13.4 0-26.5.2-39.5 2.9-9.6 1.9-23 5.8-32.1 13-26.3 20.8-25.5 63.6-16.8 93.9 3.7 12.9 10.2 21.4 19.8 25.9 16.1 7.5 32.8 8.5 47.1 8.5h3.2c1.8 0 3.5.7 4.8 1.9 1.3 1.3 1.6 2.9 1.8 4.4 1.3 7.5.3 12.6-.8 18.5-.3 1.7-.7 3.6-1 5.7v.2c-.5 2.8-.3 3.8 0 4.1-.1 0-.1 0 0 0z"/><path class="st3" d="M212.2 213.5c-.4 0-.7-.1-1-.3-.7-.5-.9-1.6-.3-2.3 4.4-5.6 9.4-9.1 14.6-10.4.9-.2 1.8.3 2 1.2.2.9-.3 1.7-1.2 2-4.5 1.1-8.8 4.2-12.8 9.2-.3.3-.8.6-1.3.6zm19.6-12.4c-.9 0-1.7-.7-1.7-1.6 0-.9.7-1.6 1.7-1.6.3 0 .7-.1 1.2-.3.6-.2 1.4-.5 2.3-.5.9 0 1.7.7 1.7 1.6 0 .9-.7 1.6-1.7 1.6-.3 0-.7.1-1.2.3-.6.2-1.4.5-2.3.5z"/><path fill="#fff" d="M227.4 282.1l44.5-36.4 15.1 17.4 47.7-13.8-45.3 36.8-20.1-17z"/><path class="st3" d="M289.4 287.7c-.4 0-.8-.1-1.1-.4l-19.4-16.4-41 12.7c-.8.2-1.6-.1-2-.8-.4-.7-.2-1.5.4-2l44.5-36.4c.7-.6 1.7-.5 2.3.2l14.4 16.6 46.6-13.5c.8-.2 1.6.1 1.9.8.4.7.2 1.5-.4 2l-45.3 36.8c-.2.3-.5.4-.9.4zm-20.1-20.2c.4 0 .8.1 1.1.4l19 16.1 38-30.9-39.9 11.6c-.6.2-1.3 0-1.7-.5L271.7 248l-36.8 30 33.9-10.5h.5z"/><path class="st1" d="M330.3 364.8c2.1.6 6.9-1.2 7.4.6.3.9-1.5 2.5-1.7 2.7-4.4 4.5-8.3 8.3-12.7 13.1-.4.4-1.4 1.9-2.2 2-1.3 0-3.7-3.2-4.5-4-3.7-4-6.6-7-10.5-10.9-.5-.5-1.9-1.3-1.5-2.4.5-1.6 6.1-.5 8.4-1 .3-3.6-.5-9.5.4-13 2.7-.5 7.1-.3 10.3-.4 1.3-.1 4.5-.4 5.4.3 1.3.9.9 6.9 1 9.1.1 1.3 0 2.7.2 3.9zm-15.6-11.6c-.3 4.5 1.1 9.9-.3 13.3-1.9.3-4.4.1-6.6.1 4 4.7 8.8 9.8 13.3 14.5 3.6-4.3 8-8.8 11.7-12.8.5-.6 1.3-1.4 1.3-1.8-2.1-.2-5 .6-5.7-1-.2-3.9-.2-8-.1-12-4.6-.1-9-.3-13.6-.3zm93.7-97.2c-.2 1.2 0 2.8 0 4.3s.3 3-.5 3.9c-3.4.1-7.5.2-10.7-.2-.5-2.2-.2-5.4-.5-7.8-1.4-.4-3.6 0-4.8-.5-.4-1.5 1.1-2.5 1.9-3.3 2.7-2.7 5.7-5.5 8.3-8.3 1.1-.2 2.5 1.7 3.5 2.6 1.8 1.8 3.6 3.7 5.5 5.6.8.8 2.6 2.3 2 3.2-.7 1.1-3.3.1-4.7.5zm-1.3-5.8c-1.5-1.6-2.9-3.2-4.3-4.8-.1 0-.1-.1-.2-.1-2.3 2.3-4.7 4.8-6.8 7.2-.7.8-1.6 1.4-2 2.4 1.3 0 2.5.1 3.7.3.9 2.1.4 5.5.8 8 3 .1 5.8-.1 8.7-.1.3-2.6-.4-6.2.6-8 1.1-.2 2.3-.2 3.6-.2-1-1.7-2.7-3.2-4.1-4.7z"/></svg>