<svg id="Layer_1" xmlns="http://www.w3.org/2000/svg" viewBox="0 0 500 360"><style>.st0{fill:#231f20}.st1{fill:#fff}</style><path class="st0" d="M449.2 270.7c-12.3-25.1-24.6-50.3-36.8-75.4-.1-.1-.2-.2-.2-.3-.1-.1-.1-.2-.2-.4L344.5 113c-1-1.3-3.1-1.7-4.4-.5-17 15.4-33.9 30.7-50.9 46.1 1.2-1.1-.2 0-2.6.7-4.5 1.2-8.9 2.4-13.4 3.6-14.5 3.9-29.1 7.9-43.6 11.8-14.1 3.8-28.3 7.6-42.4 11.5-4.6 1.2-17.6 6-20 5.6-22.3-4.2-44.7-8.4-67-12.6-2.2-.4-3.6 1.7-3.5 3.6 3.7 51.2 2.4 102.7 7.6 153.7.2 1.5 1.4 2.4 2.8 2.7 29.7 5.5 59.3 11 89 16.5 5.8 1.1 11.1-2.1 16.5-4 15.8-5.8 31.6-11.5 47.4-17.3l97.2-35.4c6.4-2.3 7.2-5.7 10.3-11.8l16.5-32.7c20.4 6.8 40.9 13.6 61.3 20.4 2.3.8 5.2-1.6 3.9-4.2z"/><path class="st1" d="M353.7 281.3c-3.8-7.5-7.6-14.9-11.4-22.4.6-1.1 1.1-2.2 1.5-3 7-12 14.1-23.9 21.1-35.9 3.6 6 7.3 11.9 10.9 17.9-5.9 11.5-11.8 23-17.6 34.5-1.5 3-3 5.9-4.5 8.9zM118.6 325.4c-.1-2.2-.2-4.4-.3-6.5 0-.8-.1-1.6-.1-2.4 5.8 3.7 13 5.7 18.4-.1 2.9-3.2 5.2-7 5.8-11.4 0-.2 0-.4.1-.7 2.7.5 5.5.9 8.2 1.4l3.3 26.4-27.3-5.1c-2.3-.4-4.7-.9-7-1.3-.4-.2-.7-.3-1.1-.3zM360.7 142.5c-7.8 8.9-15.7 17.9-23.5 26.8-4.1-7-8.2-14-12.1-21 7.9-6.8 15.8-13.5 23.7-20.3 3.9 4.9 7.9 9.7 11.9 14.5zM373.6 158.1c-7.4 11.3-14.9 22.7-22.3 34-.1 0-.3.1-.4.1-4.1-6.8-8.3-13.7-12.3-20.6 7.9-9 15.9-18.1 23.8-27.1 3.7 4.5 7.4 9.1 11.2 13.6zM388.2 175.7c-2.9 4.9-5.8 9.8-8.7 14.8-3.3-.7-6.8-1.6-10.5-1.7-5-.1-9.5 1.5-14.2 2.6 6.8-10.4 13.7-20.9 20.5-31.3l12.9 15.6zM397.8 187.3c-5.4 4.6-10.4 4.6-15.7 3.7l7.8-13.2c2.6 3.1 5.2 6.3 7.9 9.5zM279 279.2c-.3.1-.5.2-.8.3-.1-.6-.3-1.2-.5-1.8-3.3-10-11.6-12.7-21.4-10.9-8 1.5-15.1 3.1-20.8-1.1 13-4.5 26.1-9.1 39.1-13.6 3.1 8.5 6.1 17 9.3 25.5-1.6.5-3.2 1.1-4.9 1.6zM284.9 279.9c1.6 4.1 3.2 8.3 4.8 12.3-4.6.9-9.2-.5-10.4-6.3l-.6-3.9c.8-.3 1.7-.6 2.5-.8 1.2-.5 2.4-.9 3.7-1.3zM148.1 284.4c.8 6.2 1.6 12.4 2.3 18.6-2.6-.4-5.1-.9-7.7-1.3.3-6.6-.6-14.4 5.4-17.3zM150.5 283.6c.2 0 .4-.1.6-.1 6.4-1 11.7-1.6 16.6-4.2 4.7.9 9.3 1.8 14 2.7 1.6 9.1 3.3 18.2 4.9 27.2-1.2-.2-2.3-.4-3.5-.6-8.7-1.5-17.3-2.9-26-4.4-1.4-.2-2.7-.5-4.1-.7-.8-6.6-1.6-13.3-2.5-19.9zM346.6 199.2v-1.7h1.1c-.4.6-.7 1.2-1.1 1.7zM318.2 211.6c.8-.3 1.7-.4 2.7-.4 4.6.1 9.5 2.3 14.1 3.1.6.1 1.1.1 1.7.2-3.2 4.8-6.4 9.7-9.5 14.5-3.1-5.8-6-11.6-9-17.4zM344.4 192.3c-1.3-.2-2.8.9-2.8 2.2 0 3.2 1.4 13.8-3.1 14.9-5.1 1.2-12-2.3-17-3.2-2.2-.4-4.1-.1-5.7.6-.9-1.8-1.8-3.6-2.8-5.4 2.7-2.5 5.1-6.4 7-8.6 5.6-6.4 11.2-12.8 16.8-19.1 3.7 6.3 7.5 12.6 11.3 18.8-1.2 0-2.4-.1-3.7-.2zM311.6 209.7c-4.8 4.6-8.4 11.9-15.1 11.4-4.9-.4-6-5.7-6.8-11.5 6.3-1.9 12.6-3.8 18.9-5.8 1 2 2 4 3 5.9z"/><path class="st1" d="M285.9 218.4c2 4.8 5.2 6.5 10.1 7.7 4.3 1 8.8-.7 11.4-4.2 1.9-2.4 3.9-5.5 6.5-7.8l9.3 18.3c-.4.1-.8.3-1.2.4-5.5 1.9-11 3.8-16.4 5.7-9.8 3.4-19.6 6.8-29.4 10.3-.6-1.7-1.3-3.4-1.9-5.1-3.4-8.8-6.8-17.5-10.1-26.2 7-2.1 14-4.3 20.9-6.4-.1 2.7 0 5.4.8 7.3zM271.9 244.7c.6 1.6 1.2 3.3 1.9 5-7.6 2.7-15.2 5.3-22.8 8-5.9 2-11.7 4.1-17.6 6.1-.9-1-1.8-2.1-2.6-3.5-2.4-4.1-4.2-8.3-6.9-12.2-.3-.5-.7-.8-1.1-1.2-1.4-5.2-2.8-10.3-4.1-15.5 14.3-4.4 28.7-8.8 43-13.2 3.4 8.9 6.8 17.7 10.2 26.5zM186.5 280.1l-3.9-21.3c1.1-1.7 2.3-3.3 4-4.7 8.5-7.3 24.7-12.3 33.2-2.8.9 1 1.6 2.1 2.4 3.3.5 2 1.1 3.9 1.6 5.9.6 2 1.1 4.1 1.7 6.1-6.6 2.3-13.1 4.6-19.7 6.9-4.9 1.7-9.7 3.4-14.6 5.1l-4.2 1.5c-.1-.1-.3-.1-.5 0zM181.2 279.3c-3.5-.7-7-1.4-10.5-2 1.2-.9 2.3-1.9 3.5-3.2 2.1-2.4 3.4-5 4.7-7.8.8 4.3 1.6 8.7 2.3 13zM227.6 264.7l.6.9c-.1 0-.2.1-.3.1-.1-.3-.2-.7-.3-1z"/><path class="st1" d="M219.3 244c-6.1-3.8-14.2-3.3-21.2-1.4-7.8 2.1-12.7 5.6-16.6 10.1-.6-3.1-1.1-6.1-1.7-9.2 1.3-.4 2.6-.9 3.6-1.2 10.9-3.3 21.8-6.7 32.7-10 1.1 3.8 2.2 7.7 3.2 11.7zM177.4 258.3c-2.4 3.8-4.6 8.1-7.3 12.7-1.5 2.5-3.4 4.1-5.7 5.1-5.1-1-10.2-2-15.3-2.9-1.5-12.1-3-24.2-4.6-36.2 4.5.9 9 1.9 13.5 2.8 5.5 1.1 11 2.3 16.5 3.4 1.1 4.9 2 10 2.9 15.1zM157.3 277.2c.6.1 1.1.2 1.7.3-3 .5-6.1.7-9.1 1.2-.1-1-.3-2-.4-3l7.8 1.5zM187 282.5c.4-.1.7-.1 1.1-.2 12.7-4.4 25.4-8.9 38.1-13.3 2.5 8.5 5.1 17 7.5 25.6-14 4.7-28 9.5-42 14.2-1.6-8.8-3.2-17.6-4.7-26.3zM228.6 268.1c.4-.1.7-.3 1.1-.4 1.4 1.6 3 3 5.1 4.1 12.7 6.2 33.2-7.8 38.4 9.4-12.4 4.2-24.7 8.4-37.1 12.5-2.4-8.5-5-17.1-7.5-25.6zM277 251.2c1.8-.6 3.6-1.2 5.4-1.9 12.8-4.4 25.5-8.9 38.3-13.3 1.2-.4 2.4-.9 3.7-1.3 4.2 8.3 8.5 16.6 12.7 24.9l-9 3c-13.9 4.7-27.8 9.4-41.6 14.1-3.3-8.5-6.3-17-9.5-25.5zM340.9 256c-4.1-8-8.2-16-12.2-24 1.2-1.8 2.4-4.3 3-5.3 2.7-4.2 5.5-8.3 8.2-12.5 4.3-1.1 5.9-5.2 6.5-9.9l4.5-6.9h.3c4.1 6.8 8.2 13.5 12.4 20.2-7 11.9-14 23.8-21 35.6-.7 1-1.2 1.9-1.7 2.8zM353.8 197c.9-.2 1.8-.4 2.8-.6 7.4-1.8 13.1-2.6 20.1-1.3-3.9 6.7-7.9 13.4-11.8 20.1-3.7-6.1-7.4-12.1-11.1-18.2zM323.1 150c4 7.1 8.2 14.2 12.3 21.3-.3.3-.5.6-.8.9-6.2 7-12.3 14.1-18.5 21.1-1.5 1.8-3.1 3.5-4.6 5.3l-13.8-27c.2-.1.4-.2.5-.3 8.4-7.1 16.6-14.2 24.9-21.3zM307.4 201.6c-6 1.8-12 3.7-18 5.5-.5-4.2-1.1-8.3-3.1-10.4-2.2-2.5-5.6-2.9-8.7-3.1-2.2-.1-4.9.7-7.1 1.2-10 2-7.5-8.6-6.5-13.5 6.3-1.8 12.6-3.5 18.9-5.3 2.7-.7 6.7-1.2 10.3-2.3 4.8 9.3 9.5 18.6 14.2 27.9z"/><path class="st1" d="M274.6 199.1c9.4-1.9 10.4 3.4 10.4 9.3-7.3 2.2-14.6 4.5-21.8 6.7-1.4-3.7-2.9-7.5-4.3-11.2-2.5-6.3-4.8-12.9-7.7-19.1 2.6-.7 5.1-1.4 7.7-2.2-1.5 11.8.7 19.5 15.7 16.5zM248.7 185.5c2.8 6 5 12.3 7.4 18.4 1.6 4 3.1 8 4.6 11.9-14.3 4.4-28.5 8.7-42.8 13.1-.9-3.3-1.8-6.6-2.6-9.9-.5-1.8-1-3.7-1.5-5.6 4.6 3.4 9 2 14.5 2.3 3.8.2 8 3.7 11.8 2.3 7.6-2.7 11.2-11.5 8.4-19-1.6-4.2-4.6-7.3-8.9-8.7-1.9-.6-3.8-.7-5.8-.7 2.3-.6 4.6-1.3 6.9-1.9 2.7-.7 5.4-1.4 8-2.2z"/><path class="st1" d="M216.2 202.1c1.3-2.7 3.4-5.2 5.3-7.6 6.5 1.2 15.4-2.2 20.4 2.8 4.5 4.5 3.1 13-2.6 15.7-2.1 1-6.5-1.5-8.6-2-3.2-.8-6.3 0-9.6 0-5.7.1-6.8-4.8-4.9-8.9zM210.9 201.6c-.4-1.8-.6-3.5-.8-5.3 1.5-.4 3.1-.9 4.6-1.3-1.4 2.1-2.8 4.3-3.8 6.6zM207.6 197c.9 7.2 3.1 14.4 4.9 21.3l3 11.4c-9.7 3-19.4 5.9-29.1 8.9-2.4.7-4.7 1.4-7.1 2.2-2.1-11.4-4.1-22.7-6.2-34.1 11.6-3.2 23.1-6.4 34.5-9.7zM174.2 240.4c-10-2.1-19.9-4.1-29.9-6.2-1.4-10.8-2.7-21.6-4.1-32.4 1.1.2 2.1.3 3.2.5 7.2 1.1 14.3 2.3 21.5 3.4.8.1 1.9.4 3.1.7 2.1 11.3 4.2 22.7 6.2 34zM137.7 201.4v.3c1.3 10.7 2.7 21.3 4 32-9.2-1.9-18.3-3.8-27.5-5.7-.5-10.2-.9-20.3-1.4-30.5l24.9 3.9zM142 236.3c1.5 12.1 3 24.2 4.6 36.3-10.2-2-20.4-3.9-30.6-5.9-.5-12-1.1-24.1-1.6-36.1l27.6 5.7zM146.9 275.2c.2 1.3.3 2.7.5 4-1.7.4-3.3 1.1-4.7 2-4 2.7-4.8 11.4-6 19.4-6.5-1.1-12.9-2.2-19.4-3.3-.3-7.7-.7-15.3-1-23-.1-1.7-.2-3.4-.2-5.2 10.3 2.2 20.6 4.1 30.8 6.1zM136.4 303.2c-1.8 10.4-5 18.2-18.4 6.7-.1-3.3-.3-6.6-.4-9.9 6.2 1.1 12.5 2.1 18.8 3.2zM156.7 332.5l-3.3-26.4c1.6.3 3.1.5 4.7.8 8.5 1.4 17 2.9 25.5 4.3 1.1.2 2.3.5 3.5.7 1.6 9.1 3.3 18.2 4.9 27.3-2.2-.3-4.8-1-9.2-1.8-8.6-1.6-17.3-3.2-26.1-4.9zM192.2 311.3c14.1-4.8 28.2-9.5 42.2-14.3 2.5 9 4.8 18.1 6.5 27.2l-37.8 13.5c-2.5.9-4.2 1.4-5.8 1.7-1.8-9.4-3.4-18.8-5.1-28.1zM243.3 323.3c-1.7-9.1-4-18.1-6.5-27.1 12.3-4.2 24.7-8.3 37-12.5 0 .2.1.3.1.5 1.3 7.9 3.1 14.8 12.3 15.2 2 .1 4-.6 5.8-1.5 1 2.3 2.1 4.7 3.1 7-17.2 6.1-34.5 12.2-51.8 18.4zM297.6 303.9c-1.1-2.4-2.2-4.9-3.3-7.3 1.5-.9 2.9-1.9 4.2-2.8 10.7-7.1 18.4-7.9 26.3.4-6.4 2.3-12.8 4.6-19.2 6.8-2.7 1-5.4 2-8 2.9z"/><path class="st1" d="M329.9 292.4c-6.2-7.6-12.1-11.6-22.9-9.3-4.2.9-8.3 4.3-11.7 6.7-1 .7-2.1 1.2-3.2 1.7-1.7-4.1-3.3-8.3-4.9-12.4 14.1-4.8 28.3-9.6 42.4-14.3 2.8-1 5.7-1.9 8.5-2.9 4 7.8 7.9 15.6 11.9 23.3-.9.3-1.7.6-2.6.9-5.8 2.2-11.6 4.2-17.5 6.3zM377.2 235.4l-10.8-17.7 12.9-21.9c.5.1.9.2 1.4.3 7.4 2 12.6 1.1 18.1-3.1-7.1 14.1-14.4 28.2-21.6 42.4zM345.5 124.2c-16.4 14.1-32.9 28.2-49.3 42.2-.4.3-.6.5-.7.7-.7-1.3-1.4-2.7-2-4 16-14.5 32.1-29.1 48.1-43.6 1.3 1.5 2.6 3.1 3.9 4.7zM230.5 180.9c14.5-3.9 29.1-7.9 43.6-11.8 3.6-1 10.4-1.6 15.1-3.4.5.9.9 1.9 1.4 2.8l-8.4 2.4c-14.1 3.9-28.1 7.9-42.2 11.8-22.6 6.3-45.1 12.6-67.7 19-.2-1.4-.5-2.7-.7-4.1 4.5-1 9.6-3.4 12.9-4.2 15.3-4.2 30.6-8.3 46-12.5zM139.1 338.7c-9.5-1.8-19-3.5-28.5-5.3-.9-.2-1.7-.3-2.6-.5 3.5.6 1.9-3.2 1.6-6-.8-8.9-1.3-17.8-1.7-26.7-2-38-2.2-76.1-4.8-114.1 21.1 3.9 42.1 7.9 63.2 11.8h.2c.2 1.3.5 2.6.7 3.9-7-.7-17.8-3.7-23.2-4.6-11.2-1.8-22.3-3.5-33.5-5.3-1.8-.3-2.9 1.3-2.8 2.9 2 44.3 4 88.6 6 133 .1 1.2 1.2 1.9 2.2 2.1l41.4 7.8c9 1.7 17.9 3.4 26.9 5 2.5.5 5.8 1.6 8.9 2.1.2 1.3.5 2.6.7 3.9-.2 0-.4-.1-.6-.1-18-3.2-36-6.5-54.1-9.9zM209.9 345.8l-10.8 3.9c-.3-1.6-.6-3.3-.9-4.9 7.6-1.5 15.5-5.7 22.6-8.2 18.1-6.4 36.1-12.9 54.2-19.3 25.8-9.2 51.5-18.4 77.3-27.5.6 1.2 1.2 2.3 1.8 3.5-13 4.8-26.1 9.5-39.1 14.3-35 12.7-70 25.5-105.1 38.2zM364.5 278.8c-2 4-4 7.9-6 11.9l-1.8-3.6c.9-1.6 1.7-3.7 2.1-4.6 3.5-6.9 7.1-13.9 10.6-20.8 9-17.7 18.1-35.4 27.1-53.1 2.4-4.7 4.8-9.3 7.2-14 .7.8 1.3 1.6 2 2.4-13.7 27.2-27.5 54.5-41.2 81.8zM388.8 244.6l41.1 12.4-22.8-48.7c.8-1.5 1.6-3.1 2.3-4.6 10.2 21 20.5 42 30.7 62.9-17.8-5.9-35.7-11.9-53.5-17.8.8-1.5 1.5-2.8 2.2-4.2z"/><g><path class="st1" d="M304.4 6.9h-7.6c-34-1.9-60.5 26.5-60.5 59.8 0 29 20.8 59.8 33.4 85.7 8.8 19.5 23.9 34.6 29 54.8h3.8c5.1-20.3 20.1-35.1 29-54.8 12.6-25.8 33.4-56.7 33.4-85.7 0-33.3-26.5-61.7-60.5-59.8zM291.5 84c-6.1-2.4-11.4-3.7-15.6-8.9l-1.1-1.2c-9.4-13.2-.9-31.7 12.3-39.7 14.6-8.5 30.7-3.8 39.7 9.9C341.4 67.9 313.7 93 291.5 84z"/><path d="M349.4 21.6c-12.9-13.6-30-17.5-48-17.5-17.5 0-32.2 2.8-46 14.2-15.1 12.4-22.3 32.3-21.8 51.4.6 24.2 14.3 47.4 25.4 68.1 5.8 10.9 11 22.2 17.5 32.7 7.5 12.1 15.6 23.6 19.5 37.5.3 1.2 1.5 2.1 2.7 2.1h3.8c.7 0 1.3-.2 1.7-.6.5-.3.8-.8 1-1.5 3.4-12.2 10-22.6 16.8-33.2 6.5-10.2 11.7-20.8 17.3-31.5 11.1-21.2 25.1-43.4 27.8-67.8 2.3-20-3.8-39.2-17.7-53.9zm8.9 67.9c-6.3 21.8-19.2 41.3-29.2 61.5-8.9 17.9-22.3 33.6-28.4 52.7-6.2-19.2-19.9-34.6-28.4-52.7-9.7-20.6-22.2-39.7-29.2-61.5-6.7-20.8-4.3-42.9 9.6-60.2 12.5-15.6 29.9-19.5 48.9-19.5 18.9 0 34.5 4.8 47.2 19.5 14.6 16.8 15.4 39.7 9.5 60.2z"/><path d="M330.5 45.2c-7.8-17.6-29.2-21.6-44.9-13.3-15.2 8-22.6 28.9-13.3 43.6.1.1.2.3.3.4.1.1.1.1.1.2 10.8 11.6 27.8 15.7 42.4 9.4 15.9-7 22.2-25.1 15.4-40.3zm-21.7 36.7c-10.7 3.7-24.2-1.8-31.7-9.6-8-13-.2-27.8 11.4-35.5 14.7-9.7 33.5-.2 38.7 15.3 4.5 13.3-6.7 25.7-18.4 29.8z"/><g><path d="M333.6 15.9c.3 3.3-.6 6.8-3.4 8.8-.7.5 0 1.8.7 1.2 3.2-2.3 4.5-6.2 4.1-10.1 0-.8-1.5-.8-1.4.1zM340.9 18.9c.5 4.6-1.4 8.5-4.8 11.5-.7.6.3 1.6 1 1 3.7-3.2 5.8-7.6 5.2-12.5-.1-.9-1.5-.9-1.4 0zM348.8 26.3c.7 3.6-2 5.4-4.7 7.1-.8.5-.1 1.7.7 1.2 3.4-2 6.2-4.4 5.4-8.7-.2-.8-1.6-.5-1.4.4zM352.5 32.9c-.6 2.9-2.7 5.1-5.5 6.1-.9.3-.5 1.7.4 1.4 3.2-1.1 5.7-3.7 6.5-7.1.2-.9-1.2-1.3-1.4-.4zM356 40c0 1.6.1 3.2-.3 4.7-.5 1.9-2.5 2.5-4.2 2.8-.9.2-.5 1.5.4 1.4 1.9-.4 3.8-1.1 4.8-2.9 1-1.7.7-4.1.7-6 0-.9-1.4-.9-1.4 0zM359.5 46c.5 3.5-1.1 7.4-4.5 8.8-.8.3-.5 1.7.4 1.4 4-1.6 6.1-6 5.6-10.1-.3-1-1.7-1-1.5-.1zM362 57.3c-.1 4.5-3.4 7.5-7.7 8.1-.9.1-.5 1.5.4 1.4 4.9-.8 8.6-4.4 8.7-9.5 0-.9-1.4-.9-1.4 0zM362 68c-.4 3.5-4.2 5.1-7 6.2-.8.3-.5 1.7.4 1.4 3.6-1.4 7.6-3.4 8.1-7.6 0-.9-1.4-.9-1.5 0zM354.9 83.2c2.5.3 5.2.3 6.8-1.9.5-.7-.7-1.4-1.2-.7-1.2 1.6-3.4 1.5-5.2 1.2-.9-.1-1.3 1.3-.4 1.4zM351.2 90.3c1.7 2 4 3.6 6.6 4 .9.1 1.3-1.2.4-1.4-2.4-.4-4.4-1.7-6-3.6-.6-.7-1.6.3-1 1zM349 97.8c1.3 1.6 3.1 2.7 5 3.3.9.3 1.2-1.1.4-1.4-1.7-.6-3.2-1.5-4.4-3-.6-.6-1.6.4-1 1.1zM345.3 103.7c-.6 3.5 1.9 5.6 4.7 7.1.8.4 1.5-.8.7-1.2-2.2-1.1-4.5-2.7-4.1-5.5.2-.9-1.1-1.3-1.3-.4zM340.9 113.8c-.5 3.1 1.4 5.7 3.6 7.6.7.6 1.7-.4 1-1-1.8-1.6-3.7-3.7-3.3-6.2.2-.9-1.1-1.3-1.3-.4zM334.9 123.5c.1 3.2 2.9 5.1 5.4 6.6.8.5 1.5-.8.7-1.2-2-1.2-4.6-2.7-4.7-5.4 0-1-1.4-1-1.4 0zM331.1 131.6c-.2 3 1.5 5.5 3.7 7.4.7.6 1.7-.4 1-1-1.9-1.7-3.4-3.8-3.3-6.4.1-.9-1.3-.9-1.4 0zM326.4 142c.5 3.5 2.5 6.2 4.9 8.7.6.7 1.6-.4 1-1-2.1-2.1-4.1-4.6-4.5-7.7-.1-.9-1.5-.9-1.4 0zM321.1 151.7c.4 2.8 2.2 5.1 4 7.2.6.7 1.6-.3 1-1-1.6-1.9-3.2-4.1-3.6-6.6-.2-.9-1.6-.5-1.4.4zM317.6 158.4c.1 3.5 2.2 6.2 4.2 8.9.5.7 1.8 0 1.2-.7-1.8-2.4-3.9-5-4-8.1-.1-1-1.5-1-1.4-.1zM311.6 166.6c.4 3.4 2.6 6.1 5.7 7.5.8.4 1.5-.8.7-1.2-2.6-1.2-4.6-3.4-5-6.3-.1-.9-1.5-.9-1.4 0zM306 176.4c1.3 2.9 3.2 5.7 5.9 7.5.8.5 1.5-.7.7-1.2-2.5-1.7-4.2-4.3-5.4-7-.3-.8-1.6-.1-1.2.7zM303.4 183.6c.1 3.3 2.2 5.7 4.6 7.7.7.6 1.7-.4 1-1-2.1-1.8-4.1-3.8-4.2-6.7 0-.9-1.4-.9-1.4 0zM299.6 190.5c.1 3.8 2.1 7.4 4.9 9.9.7.6 1.7-.4 1-1-2.5-2.3-4.4-5.5-4.5-8.9 0-.9-1.4-.9-1.4 0zM253.2 94.4c-12.8-24.8-6-56.5 16-73.8.7-.6-.3-1.6-1-1-22.5 17.6-29.3 50.2-16.2 75.5.4.9 1.6.1 1.2-.7z"/></g></g><g><path class="st0" d="M399.1 142.3h83.8c3 0 3-4.6 0-4.6h-83.8c-2.9-.1-3 4.6 0 4.6z"/></g><g><path class="st0" d="M429.9 170.9h66.9c3 0 3-4.6 0-4.6h-66.9c-3 0-3 4.6 0 4.6z"/></g><g><path class="st0" d="M185.8 159.9H7.5c-3 0-3 4.6 0 4.6h178.3c3 0 3-4.6 0-4.6z"/></g><g><path class="st0" d="M76.5 191.8H3.3c-3 0-3 4.6 0 4.6h73.2c2.9 0 2.9-4.6 0-4.6z"/></g><g><path class="st0" d="M303.6 335.4h147.5c3 0 3-4.6 0-4.6H303.6c-3 0-3 4.6 0 4.6z"/></g><g><path class="st0" d="M383.2 310h41.4c3 0 3-4.6 0-4.6h-41.4c-3-.1-3 4.6 0 4.6z"/></g><g><path class="st0" d="M449 310c3 0 3-4.6 0-4.6-3-.1-3 4.6 0 4.6z"/></g><g><path class="st0" d="M103.5 300H72c-3 0-3 4.6 0 4.6h31.5c3 0 3-4.6 0-4.6z"/></g><g><path class="st0" d="M102.3 287.5H92.2c-3 0-3 4.6 0 4.6h10.1c3 0 3-4.6 0-4.6z"/></g><g><path class="st0" d="M99.9 241.7H29.7c-3 0-3 4.6 0 4.6h70.2c3 0 3-4.6 0-4.6z"/></g><g><path class="st0" d="M101.1 251.8h-19c-3 0-3 4.6 0 4.6h19c3 0 3-4.6 0-4.6z"/></g><g><path class="st0" d="M424.2 226.7h50.6c3 0 3-4.6 0-4.6h-50.6c-3-.1-3 4.6 0 4.6z"/></g><g><path class="st0" d="M421.2 218.3h11.9c3 0 3-4.6 0-4.6h-11.9c-3 0-3 4.6 0 4.6z"/></g><g><path class="st0" d="M368.9 281.4h39.9c3 0 3-4.6 0-4.6h-39.9c-3 0-3 4.6 0 4.6z"/></g><g><path class="st0" d="M375.4 270.7h10.7c3 0 3-4.6 0-4.6h-10.7c-3 0-3 4.6 0 4.6z"/></g><g><path class="st0" d="M257.6 127.4h-40.5c-3 0-3 4.6 0 4.6h40.5c3 .1 3-4.6 0-4.6z"/></g><g><path class="st0" d="M365.9 79.7h23.8c3 0 3-4.6 0-4.6h-23.8c-3 0-3 4.6 0 4.6z"/></g></svg>