<svg id="Layer_1" xmlns="http://www.w3.org/2000/svg" viewBox="0 0 559 520"><style>.st1{fill:#fff}.st2{fill-rule:evenodd;clip-rule:evenodd}.st3{fill:#432918}.st8{fill:none;stroke:#000;stroke-width:2;stroke-linecap:round;stroke-linejoin:round;stroke-miterlimit:10;stroke-dasharray:6,9}.st9{fill-rule:evenodd;clip-rule:evenodd;fill:#fff}</style><path d="M386.7 370.3l2.2-1.2a155.8 155.8 0 0 0 74-85.9 54 54 0 0 0-4.8-49.4 175 175 0 0 0-34.7-77.8c-24.2-30.1-55.8-45.9-78.2-45.7a82.9 82.9 0 0 0-32.4 8.3 1313.5 1313.5 0 0 0-96.8 45l-9.1 4.8c-20.7 11.1-40.5 23.9-53.9 44.2-5.8 8.8-10.5 19-18.2 25.5-6.3 5.3-14.6 8-19.5 14.9a44.8 44.8 0 0 0-6.1 24.1c-.4 11.5 1.1 24.7 6.4 39a114 114 0 0 0 26.8 41.4c11.5 10.8 23.6 16.4 35.3 26.2 7.4 6.2 14.6 14.2 22.1 18.8a37.3 37.3 0 0 0 21.1 5.4c19.6.2 37.9-2.1 55.9-5 39.4-6.2 77.5-15.2 109.9-32.6" fill="#cfebf6"/><path d="M339.6 226.9h-.1l-16.2-2.1-16.3 1.5-17.3-.4.5-35 16.7-.1 16.4 1.2 16.3-.4 16.2-1.4 16.4.4 8.4 1.3 35.5.3 1.3 34.6-36.8-1.2-8.4.8-16.3-1.6z"/><path class="st1" d="M323.3 223.4l16.3 2.1 16.3-2.1 16.3 1.7 8.4-.9 35.7 1.1-1.3-31.7-34.4-.4-8.5-1.2-16.2-.4-16.3 1.4-16.3.4-16.4-1.2-15.6.1-.5 32.3 16.2.3z"/><path class="st2" d="M435.6 342.6c2.8-.7 2.7 3.5.5 3.4-1.8 0-2.4-2.9-.5-3.4zm.8 2.1c.3-.3.2-.7-.1-1-1 0-.5 1 .1 1zm-3.7 16c3.1-.7 2.4 3.2.3 3.1-1.7-.1-2.4-2.6-.3-3.1zm-.1 1.4c.1.7 1.1.5 1-.2-.4-.2-.8.1-1 .2zM409.2 385c2-.2 3.2.8 3.4 2.2.4 2-1 3.6-2.5 3.8-1.8.2-4.4-1.1-3.8-3.8.2-1.1 1.4-2.1 2.9-2.2zm2.1 2.5c-.3-1.8-3.6-1.2-3.8.6.4 2.2 4.2 1.9 3.8-.6zm14.2-8.1c2.7-.3 2 3.6 0 3.6-2.2 0-2.4-3.4 0-3.6zm-.2 2.4c.5-.1.8-.4.8-1.1-.7-.4-1.4.6-.8 1.1zM93.2 299.6c2.8-.7 2.7 3.5.5 3.4-1.8-.1-2.4-2.9-.5-3.4zm.8 2.1c.3-.3.2-.7-.1-1-.9 0-.5 1 .1 1z"/><path d="M105.1 301.3h5.4c1 0 1-1.5 0-1.5h-5.4c-.9 0-.9 1.5 0 1.5z"/><path d="M107 297.2v6.8c0 1 1.5 1 1.5 0v-6.8c0-1-1.5-1-1.5 0z"/><path class="st2" d="M111.3 268.2c1.4-.2 3 .3 3.2 1.2.8 2.8-5.2 3.1-5.1.5.1-1 .9-1.5 1.9-1.7zm2 1.6c-.1-.9-2.6-.9-2.4.5.6.6 2.5.4 2.4-.5zm15.2 4.4c1-1.4 4.3-1.3 5 .2.5 1.1-.5 2.5-1.9 2.6-2.3.4-3.2-1-3.1-2.8zm1.2.6c-.6 1.4 2.9 1.8 2.4.2-.1-.6-.9-.7-1.7-.5l-.7.3zm-27.4 4.3c4.7-.7 6 4.5 1.5 5.4-2.8.5-5.5-1.8-4-4 .4-.7 1.4-1.2 2.5-1.4zm-.7 1.6c-.3.2-.9.7-1 1.1-.2.9 1 1.6 1.8 1.7 3.3.5 4-3.7.4-3.2-.5 0-.9.2-1.2.4zm19.7-2c1.2-.2 1.7.2 1.8.7.3 1.6-2.9 2-2.9.4-.1-.7.4-.9 1.1-1.1z"/><path class="st3" d="M292.7 207l.5 4.2c.1.8.3 1.5.3 2.3v1.7c0 .6.2 1.4.8 1.7 0 .2.1.5.4.4 5.8-.9 11.5-2.6 17.3-3.4l5.3-.7 2.4-.4 1.5-.2c.2 0 .4-.3.3-.5l-.1-.2v-.1l.1-.4c-.4-2.4-1-4.8-1.2-7.3-.3-2.4-.3-4.8-.8-7.1l-.1-.1c0-.3-.1-.5-.4-.5-4.4.8-9 .8-13.4 1.5-4.5.8-9.1 1.8-13.5 2.9-.2 0-.3.3-.2.5l.1.2v.1l.7 4.4v.3l-.1-.1m1.7 7.3c0-1.1-.3-2.2-.5-3.3l-.1-1.9-.4-2.2-.8-4c2 1.3 4.6 1.4 6.8 2.4 1.2.5 2.6.9 3.8 1.5l-5.5 5.7c-1.1 1.2-2.9 2.8-3.2 4.5-.3-.8-.1-1.9-.1-2.7m23.1-1.2l-5.1.7c-5.9.7-11.7 2.2-17.4 3.5l.2-.2c.7-1.8 2.5-3.4 3.8-4.8 1.5-1.7 3.2-3.2 4.7-4.8l.3-.1.1-.2c.7.5 1.7 1.2 2.5 1.1.5.6 1.3.3 2 .1l.2-.1.3-.3c.1-.8 1-1.3 1.7-1.8l.2-.1c.8.2 5.3 3.2 5.6 3.4.8.5 1.5 1.4 2.2 2 .5.5 1.1.9 1.7 1.2-1-.1-2.5.3-3 .4m2-7.8c.2 2.1.7 4.3 1.1 6.4-1.6-1.1-2.9-2.6-4.5-3.7l-2.7-1.7-1.6-.8 2.8-2c.8-.6 1.5-1.4 2.2-2.2l2.2-1.9.5 5.9m-.7-6.8c-.7.1-1.2.7-1.7 1.1-.8.7-1.5 1.6-2.2 2.4-.9 1-2.2 1.8-3.3 2.5l-.9.7c-.2 0-.4.1-.4.3l-1.9 1.5c-.1.1-.2.2-.1.4l.1.3c-.4.1-1 .4-1.3.1l-.3-.1c-.8-.5-1.8-.8-2.6-1.4-1-.6-2.2-.9-3.3-1.3-1.1-.5-2.2-1.1-3.3-1.3-1.5-.3-3-.6-4.4-1.2 4.2-.7 8.3-1.9 12.5-2.6 4.3-.8 8.8-.7 13.1-1.5v.1"/><path d="M167.4 214.1v-.3l.6-.6-.6.4v-.3l.1-.1-.1-.2c-.2-1.1-.7-2-1.6-2.6h-.1l.1-.2.1-.3-.3.1-.4.2.3-.3h-.7l-.3-.1.2-.3-.4.2h-.1l-.3-.1.1-.1-.1.1-1.3-.5c1-.8 1.6-1.7 1.9-2.7l.3-.2-.3.1a7 7 0 0 0 .1-2.5l.2-.1h-.2l-.1-1 .8-.5-.9.3-.1-.3.9-.7-.9.4-.2-.6.2-.2-.2.1v-.1l-.3-1 .6-.3-.7.1c-.4-1-1-1.8-2-2.1a5 5 0 0 0-1.6-.3c-.9 0-1.7.3-2.5 1.1-.6.6-1.1 1.2-1.3 2.1l-.1.1-.3.3.3-.1-.1.6-.3.2-.8.6.9-.4h.1v.5l-.3.4.3-.1v.5l-.2.1.1.3h.1v.5l-.3.1v.3h.3v.3l-.2.2-.6.5.7-.3h.1l.1.6-.2.1-.6.4.7-.1h.2l.1.4-.2.1-.5.3.6-.1h.3l.7.8-.4.2-.6.3.7-.1.6-.1.2.2-.4.2.1.2.5-.2.1.1-.3.1-.9.3.9-.1h.4v.1l-.4.1.1.2h-.5c-1 0-2.1.5-2.9 1.5l-.3.5-.5.4.4-.2-.2.3-.9.5-.6.5.7-.3.4-.2-.4.9-.1.1-.7.4.7-.1-.3 1v.5l.1.1-.3.3.5-.2h1.5l-.7.7.9-.4.4-.2h1.1l.1.1.1-.1h.5l-.6.4.9-.3.3-.1h1.3l-.1.1.1-.1 1.5-.1h.6v.1l.1-.1.9.1h.1l1.5.2h.1l-.3.4.6-.4h.6l-.5.6.7-.6h.6l.1-.1.9-.1h.3c.7-.2.8-.5.8-.9v-.1l.2-.3-.3.1.2-.1m-.7.4l.4-.4v.2l-.4.2m.4-.8l-.8.5-.6.3 1.3-1.1.1.3m-1 .9l-.7.6h-.3l1-.6m.9-1.5l-1.5.9.2-.1 1.2-1-.2-.2-2 1.4.1-.1 1.8-1.5-.1-.2-2.7 1.6 1-.8 1.4-1.1-.2-.2-1.3 1-1.6.9-.1.1.5-.4 2.5-2-.1-.2-.9.5.5-.6.3-.4c.6.5 1.1 1.3 1.2 2.4m-7.2 1.5l1.7-1.3 1-.7 1.7-1.2.5-.3.8-.6.1.1h.1l-.4.3-2.1 1.5-3.4 2.2m2.4-1.1l-.8.5.8-.5m-1.7 1l-.1.1-.2.3h-.6l.9-.4m4-2.8l-1 .7 1-.7m-4.3 1.2l.4-.2.8-.3-.6.4-2.4 1.7 1.7-1.2.9-.7-1.3.6-1.9.9.9-.6.4-.2-.1-.3-.4.2-.9.4.7-.5.4-.3.1.1 1.2-.6 2.2-1.1-.1.1-1.6 1.2-.4.2v.2zm2.3-2.4l-.6.6-.5.2.5-.4.8-.6-.9.4-.4.2.1-.1 1.3-.6-.3.3m1.4-.5l-.2.2-.2.1-.5.2-.5.2.2-.1 1.2-.6m-2.6.6l-.6.6-.5.3-2.2 1 3.4-2-.1.1m-.9 1l.3-.1-.9.6-1.1.6-.6.2-3.3 1.2-.2.1.8-.4 1.4-.8.2-.1.3-.1c1.2-.2 2.2-.7 3.1-1.2m1.9-.1l.5-.4-.4.4 1.1-.7 1-.5-.3.3-.3.3-.2.1-1.3.8-.7.3.6-.6m2-1.5s.1 0 0 0l.1-.1-.1.1m-.3-.3l-.3.1.2-.2.1.1m-1.6-.5l1.3.4-.1.1-.8.3-.5.2.4-.4.1-.1-.2-.2-1.1.6c-1.4.8-2.8 1.5-4.1 2.5l-.2.1h-.3l-1.1.3 2.1-1.1 3.6-1.9-.1-.2-3.1 1.3c-1.3.6-2.6 1.2-4 1.6l2.9-1.3c1.4-.6 2.9-1.2 4.2-2l.7-.5-.8.2-.6.2 1.4-.6 1.1-.5-.8.7v.3zm.7-.9l-1.2.3-2 .7-1 .4v-.4l2-.5 1.9-.5-.1-.3-1.5.3a18 18 0 0 0 2.1-.8l-.1-.3-.6.2a8 8 0 0 0 1.6-.8c-.2.5-.6 1.1-1.1 1.7m-4.4 1.3l.1.1-.3.1-1.7.4-.9.2c.7-.4 1.5-.7 2.3-.9.2-.1.4 0 .5.1m5.5-3.4l-1.8.4h-.1l1.5-.7.6-.3-.6.1c-.5 0-.9.1-1.4.3l1.9-1 .4-.3-.2 1.6-.3-.1zm.3-1.7l-.5.2-3 1-1.8.6h.1l-.1-.3-.4.1-1.4.2h-.4c.8-.5 2.1-1.1 3.3-1.3l-.4.3.1.3.9-.3c1.2-.4 2.6-.8 3.5-1.5l.1-.1v.8m-.2-1.9l.1.5-.5.1c-1.3.2-2.6.7-3.8 1.2-1 .4-2.1.8-3.1 1 1.1-.5 2.2-.9 3.4-1.2 1.3-.4 2.7-.9 3.9-1.6m-.9 0l.8-.5.1.2-.9.3m-3.2 2.1l2.8-1-1.1.5-.4.2.1.2.4-.2 1.6-.4c-.8.4-1.8.7-2.8 1l-.2.1.1-.1.2-.2h-.3l-1 .1.6-.2m4-1.1l-.6.1h-.1l.4-.3.4-.3v.3l-.1.2zm-.1-1.8c-1.6.7-3.3 1.3-5 1.8l-2.3.8c.9-.6 2-.9 3.1-1.3a13 13 0 0 0 3.8-1.7l.2-.2.2.6m-4.7 1.2l1.2-.4 1.7-.6c-.8.4-1.6.6-2.5.9l-.4.1m4.5-2s0 .1 0 0l-.3.2-1 .4-2.1.7-1.8.7-1.6.7.5-.3.8-.4 2.4-1c.9-.3 1.9-.7 2.8-1.2l-.1-.2a47 47 0 0 1-4.5 1.7l4.7-2.2h.1c-.1.3 0 .6.1.9m-.4-1.2c-1.6.3-3.2 1-4.8 1.6l-2 .8 1.2-.6.5-.3c.9-.5 1.9-.9 2.9-1.2l1-.3.9-.3-.1-.3-1.9.7-4.3 1.6c1.6-1.1 3.7-2.1 5.6-2.7l-.1-.3c-1 .2-2.1.6-3.1 1.1-.9.4-1.7.8-2.6 1 .5-.4 1.2-.7 1.9-1l.2-.1.9-.3c.7-.2 1.6-.5 2-1l.1-.2c.9.3 1.4 1 1.7 1.8m-1.8-1.9s0 .1 0 0h-.1c-.7 0-1.4.3-2 .5l-1.5.4c.4-.5 1.1-1 1.4-.9l.1-.3h-.1l.7-.1 1.5.4m-3.9.8l.3-.3-.6.6-.2.2h.3c.7 0 1.3-.3 1.9-.5.5-.2 1-.4 1.6-.4-.4.3-1 .4-1.5.6l-1 .3-.2.1-1.8.9c.4-.6.7-1.1 1.2-1.5m-1.3 2.3v-.1l1.2-.3-1.3.8.1-.4m1.1.4l-1.3.7v-.2l1.3-.5m-1.3 1.2l2.6-.9 3.4-1.2c-1.7.8-3.8 1.8-6 2.6v-.5m-.1.8l1-.3.9-.3-.7.4-1.2.6c.1-.1 0-.3 0-.4m.1.8l.4-.1-.4.3v-.2m.1.7l2.8-1 2.8-1-.3.1-1.1.4.1.2.6-.2.5-.2 1.2-.3-2.8 1c-1.3.4-2.6.8-3.8 1.4v-.4m.1.9l1.5-.4-1.4.7-.1-.3m.4.8h1.1l-.5.3.1.2 3.4-1.1 2-.7-3.2 1.3-2.3.8-.6-.8m3.2.1l-2 .7 1.8-.6.2-.1m-2.2 1l2.4-.8c.8-.3 1.7-.7 2.5-.8-.7.4-1.5.7-2.2.9-.9.2-1.8.5-2.6.9l-.1-.2m.4.4l1.4-.5 1-.4 1.7-.4 1-.2c-1 .5-2.1.8-3.3 1.1l-1.7.5-.1-.1m.3.5l.4-.1-.4.1c.1.1 0 0 0 0m-.1.4l-.3.1h-.1l.4-.1m-.9.3c-.9.3-1.8.7-2.6 1.2.8-.7 1.7-1.2 2.6-1.2m-3 1.7l.3-.1 2-.5.5-.1-.9.3-.7.2a7 7 0 0 0-1.3.5l.1-.3m-.5 1c2-.8 4.1-1.6 6.1-2.2l-3.3 1.5a24 24 0 0 0-3.3 1.5l.5-.8m-.7 1.3c1.6-.4 3.2-1.1 4.8-1.8l.2-.1-.8.4-4.5 2.4.3-.9m-.4 1.5v-.2l.4-.2c.8-.4 1.6-.8 2.4-1l-.5.3-2 1.1h-.3c.1 0 0 0 0 0m.6.1l1.4-.5 2.3-.9-.9.6a8 8 0 0 0-1.6.8h-1.2zm2.9-.6l.7-.3.2-.1-1.2 1h-.8c.4-.1.8-.3 1.1-.6m2.5-.5l-1.7 1.2h-.5c.6-.5 1.4-.9 2.2-1.2m-.8 1.2c-.1 0-.1 0 0 0a23 23 0 0 0 2.8-1.9l1.5-1.1 1.4-.8.5-.4.8-.3.1-.1a3 3 0 0 1-.7.5l-.5.3-1.7 1.1-1 .7a10 10 0 0 0-2.2 1.9l-.2.1h-.8m2.1 0l.2-.1 2.5-1.6.9-.6-.7.6-2.3 1.8h-.3c-.1-.2-.2-.2-.3-.1m2.9-1.1l-1.3 1.2-.5-.1 1.8-1.1m.4 1.3l-1.3-.1 2.6-1.7-.3.2-1.5 1.3.1.2.7-.5 1.1-.7-1.2 1.2-.2.1m.7 0l1-.7.1-.1-.6.7-.1.1h-.4m2.6-.5l-.6.5-.3.1.9-.6" fill="#acd5e5"/><path d="M191.3 226.9l-15.9-2.1-15.8 1.5-16.9-.4.5-35 16.3-.1 16 1.2 15.8-.4 15.9-1.4 15.9.4 15.9 1.3 34.5.3 1.3 34.6-35.8-1.2-15.9.8-15.9-1.6z"/><path class="st1" d="M175.4 223.4l15.9 2.1 15.9-2.1h.1l15.8 1.7 15.9-.9 34.7 1.1-1.2-31.7-33.5-.4-15.9-1.2-15.9-.4-15.9 1.4-15.9.4-15.9-1.2-15.2.1-.5 32.3 15.7.3z"/><path d="M174.1 224.2c-1.3-3-1.3-7.8-1.4-12l-.1-4-.1-2.4c-.3-4.7-.7-10.5.6-14.5l.9.3c-1.3 3.9-.9 9.6-.6 14.2l.1 2.4.1 4c0 4.1.1 8.9 1.3 11.6l-.8.4zm149.6.7c-.3 0-.5-.3-.7-.5l-.1-.1v-.1c-.2-2.5 0-5 .2-7.4.2-2.4.3-4.8.2-7.4-.1-2.3-.4-4.5-.6-6.7a81 81 0 0 1-.8-10.1h.9c0 3.5.4 6.8.8 10a72.5 72.5 0 0 1 .4 14.2c-.2 2.4-.3 4.7-.2 7.1l.2.3.1-.1v.2c0 .2.1.6-.3.7.1-.1 0-.1-.1-.1" fill="#191919"/><path d="M191.6 321.9l-16.2-2.2-16.2 1.5-17.3-.3.5-78.6h16.7l16.3 1.2 16.2-.5 16.2-1.3 16.4.4 16.2 1.2 175.7.3 1.3 78.1-177-1.1-16.2.8-16.3-1.7z"/><path class="st1" d="M168.8 318.7l6.6-.4 16.2 2.2 16.3-2.2 16.3 1.7 16.2-.8 175.9 1.1L415 245l-174.6-.3-16.3-1.3-16.2-.3-16.2 1.3-16.3.5-16.3-1.2h-15.6l-.5 75.8 16.1.4z"/><path d="M414.9 366.3h-.6c-2.7 0-5.5-.3-8.2-.6a63.5 63.5 0 0 0-14.2-.4c-2.5.2-5.2.3-7.8.3-3 0-5.7-.2-8.2-.7l-.3-.1c-3.9-.7-4.2-.9-5.2-4.2l-.3-1c-1.1-3.5-1.5-6-1.5-9.4 0-2-.3-4.2-.6-6.2-.4-3.3-.9-6.7-.3-10l.1-.6h.6c3.8.2 7.8-.1 11.7-.4 3.2-.2 6.5-.5 9.8-.5l3.1.1 5.4.3c5.3.3 10.7.6 15.8.7h.8v.8c-.2 3 .5 6 1.2 8.9a37 37 0 0 1 1.3 7.4c.2 3.9-.6 7-1.4 10.2l-1.1 4.9-.1.5z" fill="#2c9356"/><path d="M406 349.6l-.5-.6.2-.2-.2.1a49 49 0 0 0-6.1-5.8l.1-.1h-.1l-1.7-1.4.5-.7-.7.5-.4-.3-.6-.5.2-.3-.4.2-1.4-1.2-.5-.4-.1.6-.1.4-.3 1.9c-.8.6-1.5 1.3-2.2 2.1h-.5l-2.4-.1.3-.9-.8.8h-.4l-.8-.1 1-1.9-1.6 1.9-.7-.1.3-.6-1 .5h-.1l1.3-1.4-1.9 1.3-.4-.1-3.4-.4h-.6l-1.7.2h-.2v.2l-.1 1.4-.4.3.4.4v.6l-.7 1.2-.7 1.7 1.2-1.2-.4.6-1.4 2 1.9-1.5.4-.3.1.8-.1.7.2-.2v.4h.6l-.2.4.4-.4.8.1-.2.4.6-.3 1.1.1-.3.6 1-.5h1.1l-.4.8 1-.7 1 .1-1.1 1.5 1.8-1.4.1-.1h.6l-.3.3.5.5.8-.8h1.4l1.8.2v1.2l-.6.8.6-.5v.7l-.7 1 .8-.6.1 1.1-.3.3.3-.1.2 1.2-.6.6.7-.4.2.7-.6.4.6-.2.3 1 .1.3.3-.1c1.4-.4 3.2-1.4 5-2.5l-.8 1 2.5-2 .2-.2 1.1-.7c1.4-.8 2.7-1.8 3.9-2.8l1.8-1.4.3-.2v.1zm-1.2-.4l-1.2.6c-1.4.7-2.8 2-4.2 3.2-1.6 1.5-3.3 3-5 3.5l.6-.7 1.6-1.4 2.9-2c1.5-1 2.8-1.8 3.9-2.9l.7-.7-1 .1a6 6 0 0 0-3.2 1.3l1.6-2.2.9-1.2-1.3.7-1 .7 1.1-1.6.5-.8 3.1 3.4m-5.7 2.6c.8-.8 1.7-1.5 2.7-1.8l-2.7 1.8m1.5-6.7l.7.6-.8.5-.4.2.4-1 .1-.3zm-.3-.3l-.2.1-1.4.7.2-.7.2-.9-.8.5-.2.1.4-.5.4-.5 1.4 1.2m-2.1-1.2l-.7.4.4-.5.3-.5.5.4-.5.2zm-.5 2.4l-.6.8a25 25 0 0 0-2.3 2.3l-.3.3-.3.3 1-1.1c.7-.9 1.5-1.8 2.5-2.6m.1-3.3l-.5.2-.9.5.5-.7.3-.4.6.4m-1.2-1l.2.2-.4.3-3.2 2.6 2.7-3.3.1-.2.6.4m-5.3 8.1l-.6.8-1.7-.2c1.6-2.1 3.6-4 5.4-5.6l-.4.5c-1.6 1.5-3 3.2-3.9 4.7l.6.4c.9-1.4 2.1-2.7 3.3-4l.5-.5 1.9-1.5-.8 1c-1.7 1.2-3 2.9-4.3 4.4m-5.9.5l-.7-.1c.9-.7 1.7-1.6 2.4-2.5l1.4-1.5c-.5.9-1.3 1.9-2 2.7l-1.1 1.4m2.9-4.8l.4-.9h.5l-.1.1-.8.8m1.4-.4l.1-.4 1.2.1c-.5.1-.9.3-1.3.7-.1-.2-.1-.3 0-.4m1.5.7l.8-1.1h.3l-.1.1-1.3 1.5c.2-.1.3-.3.3-.5m3.7-5.5l.7.6h-.1l-.8.4.2-1m-1.4 2.9l-.4.6-.3.1.7-.7m-6.7 1.3l.9.1-1.4 1.6c-.9 1.1-2 2.3-3 3.2l1.2-1.5 2.3-3.4m-3.7-.5l.5.1c-1.2.9-2.3 2-3.3 3.1l-.3.3 1.4-1.7 1.3-1.4.4-.4m-.8 5.4l-.4.7h-.4l.8-.7m-.1-.8l1.1-1.3c.8-.9 1.6-1.9 2.2-3l.5.1-.8.9a47 47 0 0 1-3 3.3m0-4.7l-.4.5-.9 1-1.1 1.1c.6-.7 1.1-1.5 1.8-2.1l-.5-.5-1.3 1.1.5-.9.1-.3 1.8.1m-3.6-.1l.7-.1-.8.6.1-.5m0 1.5s0-.1 0 0l.1-.2-.1.2m.5 4.6v-.4l.6-.6-.3.7-.1.4-.2-.1m.8.1l2-2.3 2.1-2.4-1.3 1.6c-.8 1-1.7 2-2.3 3.1h-.5m4.1-.4l-.4.6h-.4l.8-.6m2.6.8h-.1l1.4-1.8a8.5 8.5 0 0 1 2.7-2.9l-1.1 1.6c-.7 1-1.4 2.1-2.2 3l-.1.1h-.6m1.4 0l.4-.5-.1.1.5.3h-.1l-.7.1m3.3.6l1.6-1.8 3-3.3.8-.6-1.7 1.9c-1.2 1.3-2.4 2.6-3.4 4l-.3.5v-.7m.1 1.2l.8-.7.2-.1-.5.6-.5.6v-.4m0 1.1l.9-.7 2.8-2.7.1-.1c.8-.8 1.7-1.5 2.3-2.4l2-1.4c-.9 1.6-2.6 3.1-4.3 4.4a21.8 21.8 0 0 0-3.8 3.6v-.7m.2 1.5l.4-.2c1.8-1 3.2-2.5 4.6-4a37 37 0 0 1 2.8-2.8 48.4 48.4 0 0 1-5.8 6.2l-1 1-.8.8c-.2-.4-.2-.7-.2-1m.2 1.3l1.1-.6c1.6-.9 2.9-2.3 4.2-3.6.8-.8 1.6-1.7 2.5-2.4a34.9 34.9 0 0 1-7 6.9l-.6.4-.2-.7m.2 1.1l.8-.2.5-.2-.1.1-.3.6h.2l-1 .4-.1-.7m11.7-6.3l-1.4 1.1.2-.2 1.5-1.4 1-.9.2.3-1.5 1.1" fill="#f5f7f7"/><path class="st3" d="M158.9 209c-.3-1.3-.8-2.3-1.3-3.5-.3-.7-.7-1.5-.8-2.3-.1-1.3 1.3-5.6 3.3-5.5 1 0 2.6 1.3 3.2 2.2.4.6.6 1.5.8 2.2.5 2.2.4 4.6-1.5 6.2v.3c1.4.6 3.3 1.7 3.8 3.2 1.4 4.2-3.4 3.2-5.3 3.1-1.6-.1-3.6.1-5.1-.3l-1.1-.1-1.4-2.3c-.1-1.8 3.9-3 5.1-3 .3 0 .3-.4 0-.4-2.5 0-5.5 1.7-6 4.4-.4 2.5 2.8 1.8 4.5 1.9l6.7.4c.9 0 2.5.4 3.3-.5 1.3-1.5-.6-4-1.6-5-.7-.7-.6-.4-1.3-1-1-1-.8-.2-.2-1.5a6 6 0 0 0 .7-3c-.1-2.2-.7-5.4-2.7-6.8-1.6-1.1-4.2 0-5.4 1.5-2.2 2.8 1.2 7.1 1.7 9.9.2.3.6.2.6-.1"/><path class="st2" d="M158.5 247.9c3.1-.3 6 .6 7.9 2 1.4 1 3 2.8 3.5 4.7.5 2.1-.7 4.3-1.8 5.4-2 2-5.6 2.8-9.5 2.2-.5-.1-1.1-.3-1.5-.2-.5 0-1 .3-1.5.5l-1.5.5c-.6.2-3.2.8-3.3-.1-.1-.5.9-.8 1.5-1.1.2-.1 1.4-.9 1.4-1.2l-.8-.6a5.7 5.7 0 0 1-2.7-4.4c-.5-4.8 3.9-7.3 8.3-7.7zm-3.6 13.9c.6-.2 1.3-.7 2-.7l2.1.3c3.3.5 6.6-.2 8.3-1.9.9-.9 2-2.7 1.7-4.4-.3-1.9-1.8-3.5-3.3-4.5a10.6 10.6 0 0 0-5.9-1.9c-3.1-.2-5.9 1.1-7.4 2.5-1 1-1.8 2.6-1.6 4.5.2 1.7 1.2 3 2.3 3.8.3.2 1.2.6 1.2.8.1.5-1 1.5-1.3 1.7-.2.1-.4.2-.4.4 1-.1 1.7-.3 2.3-.6z"/><path d="M123 212.1h10.4c1.9 0 1.9-3 0-3H123c-1.9.1-1.9 3 0 3z"/><path d="M126.4 202.9v13.6c0 1.9 3 1.9 3 0v-13.6c0-1.9-3-1.9-3 0zm259.8-22h14.1c1.9 0 1.9-3 0-3h-14.1c-1.9 0-1.9 3 0 3z"/><path d="M391 172.1v14.1c0 1.9 3 1.9 3 0v-14.1c0-1.9-3-1.9-3 0zm9 61.8h36.3c1.9 0 1.9-3 0-3H400c-1.9.1-1.9 3 0 3zm29.8 6.1h18.9c1.9 0 1.9-3 0-3h-18.9c-1.9 0-1.9 3 0 3zm-269 85.5h-37.5c-1.9 0-1.9 3 0 3h37.5c2-.1 2-3 0-3zm-29.5-8.5h-22.5c-1.9 0-1.9 3 0 3h22.5c2-.1 2-3 0-3zm-20.5 9.5h-3c-1.9 0-1.9 3 0 3h3c2-.1 2-3 0-3zm337.5-94.6c1.9 0 1.9-3 0-3-1.9.1-1.9 3 0 3zm-76-48c1.9 0 1.9-3 0-3-1.9.1-1.9 3 0 3zm9-15c1.9 0 1.9-3 0-3-1.9.1-1.9 3 0 3zM343.1 331h-58.5c-1.9 0-1.9 3 0 3h58.5c1.9-.1 1.9-3 0-3zm82 .9h20.5c1.9 0 1.9-3 0-3h-20.5c-1.9.1-1.9 3 0 3z"/><path class="st8" d="M251.9 171.9s-115.7-108-162.5 8.7l-26.6 74.8"/><path class="st2" d="M59.8 222.6c18.6-1.5 28.4 7.5 34 19.9a32.8 32.8 0 0 1 1.3 26.6c-2.6 6-7.9 11.5-13.1 14.8a38 38 0 0 1-39.7-1.6A37.4 37.4 0 0 1 30 265.7a31 31 0 0 1 .3-21.2 32.4 32.4 0 0 1 11.8-16.1c4.4-3 10.6-5.2 17.7-5.8z"/><path class="st9" d="M43.1 230.9a31.5 31.5 0 0 0-12.5 24.6 32.1 32.1 0 0 0 18.1 27.4 33 33 0 0 0 44-14.6c5.3-11.7 0-26.9-6.1-33.3-1.1-1.2-1.9-2.6-3-3.4a33.5 33.5 0 0 0-24.3-6.2c-6.3.4-12.3 2.7-16.2 5.5z"/><path class="st2" d="M62.2 256.2l12.6-12.5c.5-.5 1.6-2 2.2-1.8.6.2 1.2 1.1 1.8 1.6l3.4 3.4c.4.4 1.6 1.2 1.6 1.8 0 .4-.8 1.1-1.2 1.6a75.8 75.8 0 0 0-3.9 4.3c-4.5 4.9-8.8 9.1-13.4 14.1l-1.3 1.4c-.3.3-1 1.3-1.4 1.3-.6 0-1.5-1.3-2-1.8-4.1-3.7-7.7-7.2-11.7-11.1-.4-.4-1.8-1.4-1.8-1.9s1.4-1.8 1.6-2l3.6-3.7c.5-.5 1.2-1.7 1.9-1.7s1.7 1 2.3 1.6c1.8 1.9 3.6 3.5 5.7 5.4zm14.5-13.4c-3.3 3.7-7 7.2-10.4 10.9-1.7 1.8-3.6 3.4-5.2 5.2l-4.4 4.8c-.1.1-.6.4-.4.7.6-.1.9-.7 1.3-1.1l3.9-4.1c5.1-5.1 10-10.5 15-15.6.1-.1.6-.4.4-.7l-.2-.1zm.8.8c-6.3 6.4-12.9 13.9-19.2 20.5-.4.4-1.2.9-1 1.4.3.1.5-.3.7-.4 6.8-6.9 13.3-14.1 19.9-21.1-.2-.2-.2-.4-.4-.4zm.8.8l-10.2 11.1-8.8 9.4c-.4.4-1.1 1-.9 1.5.4.2.5-.3.6-.5L77.4 246c.4-.4 1-1 1.1-1.5l-.2-.1zm.7.7l-18.7 20.8c-.3.3-1.2 1.2-.9 1.4.3.3.7-.4.6-.4 6.7-7 13-14.3 19.5-21.3-.2 0-.3-.4-.5-.5zm1 1.1l-19.7 22c6.9-7 13.6-14.2 20.2-21.4a1 1 0 0 0-.5-.6zm.9 1l-19.3 21.1c-.1.3-.7.4-.4.7.3.2.5-.2.6-.4 6.7-6.8 13.3-13.9 19.8-20.7l-.7-.7zm1.2 1.2l-10.2 10.9-8.7 9.3c-.4.4-1.1.8-1 1.3.3.2.4-.3.6-.4l4.4-4.7 15.3-16-.4-.4zm-27.9 1.8l-4.7 5.1c-.5.5-1.1 1-1.3 1.7.4.1.6-.4.8-.6l2.4-2.5c1.1-1.1 2.2-2.3 3-3.5-.2 0-.1-.2-.2-.2zm.7.6l-4.6 5.1c-.5.5-1.2.9-1.3 1.7.4.3.7-.3.8-.5l5.4-6.1c-.1.1-.2-.1-.3-.2zm.7.8l-5.4 6.1c-.2.2-.7.6-.3.9 1.1-1 2.1-2.2 3.1-3.3l3-3.5c-.2 0-.2-.3-.4-.2zm.7.7l-5.1 6c-.2.2-.6.5-.6.9.4.2.7-.4.8-.6l5.4-5.9c-.1-.1-.2-.3-.5-.4zm1 .8l-5.5 6.1c-.1.2-.8.6-.1.8.6-.3 1-1 1.5-1.6l4.5-5-.4-.3zm-4.1 7.2l3.9-4.2c.5-.5 2.2-1.9 1.1-2.1l-4.5 5.1c-.5.5-1.1 1-1.3 1.7.3.2.6-.3.8-.5zm5.8-5.5l-4.5 5.1c-.5.5-1.2 1-1.3 1.7.4.2.7-.3.8-.5 1.8-2 3.7-4 5.4-6.1l-.4-.2zm.8.7c-1.9 2.3-4 4.4-5.9 6.8.4.4.6-.1.8-.4 1.8-2 3.8-4.1 5.4-6.1-.1-.1-.1-.3-.3-.3zm.7.8l-3 3.5c-1 1.1-1.9 2.2-2.7 3.4 1.2-.8 2.1-2.1 3.1-3.2l3.1-3.3c-.2-.2-.2-.5-.5-.4zm.9.7c-1.9 2.3-4.2 4.4-5.9 6.7.6-.3 1-1 1.5-1.5a111 111 0 0 0 4.7-5c-.1 0-.1-.2-.3-.2z"/><path class="st8" d="M274.8 363.1s78.4 79.6 134.6 51.7 88.3-118.3 88.3-118.3"/><path class="st2" d="M494.8 223.7c18.6-1.5 28.4 7.5 34 19.9a32.8 32.8 0 0 1 1.3 26.6c-2.6 6-7.9 11.5-13.1 14.8a38 38 0 0 1-39.7-1.6 37.4 37.4 0 0 1-12.3-16.6 31 31 0 0 1 .3-21.2 32.4 32.4 0 0 1 11.8-16.1c4.3-3 10.5-5.3 17.7-5.8z"/><path class="st9" d="M478 231.9a31.5 31.5 0 0 0-12.5 24.6 32.1 32.1 0 0 0 18.1 27.4 33 33 0 0 0 44-14.6c5.3-11.7 0-26.9-6.1-33.3-1.1-1.2-1.9-2.6-3-3.4a33.5 33.5 0 0 0-24.3-6.2c-6.2.5-12.2 2.7-16.2 5.5z"/><path class="st2" d="M502.7 251.4l8 1.4c.8.1 2 .3 2.2.9.2.7-1.1 1.5-1.7 2.1l-3.8 3.5c-.5.5-1.7 1.1-1.9 1.8-.1.6.2 1.9.3 2.4l.8 4.7c.1.6.5 1.5-.1 2.1-1.6-.1-3.1-1.1-4.5-1.9l-4.4-2.2c-2.4 1-4.5 2.1-6.8 3.3-.7.4-1.5 1.1-2.4.7-.3-2.2.5-4.6 1-6.8.1-.6.5-1.9.4-2.4-.1-.5-1.4-1.4-1.9-1.9l-1.9-1.8c-1.4-1.4-2.7-2.2-3.4-3.9 1.1-.9 2.9-.8 4.6-1.1l4.9-.7c1.7-2.7 3.2-6.2 4.9-8.7.6-1 1.8 1.4 2.1 1.8 1.1 2.4 2.5 4.8 3.6 6.7zm-6.7-3.8c.6-.8 1.4-1.4 1.9-2.2-.2-.1-.2-.3-.3-.5-.7.7-1.4 1.9-1.6 2.7zm2.1-1.3c-1.6 2.2-3.7 4-5 6.6l-.8.2-3.4 3.9c-.3.4-1 1-.3 1.4 3.4-3.7 6.8-7.5 10-11.5-.2-.3-.2-.6-.5-.6zm-7.8 11.6c-.3.3-1.1.9-.6 1.5.6-.1.9-.7 1.3-1.1l8.4-10-.4-.7a295 295 0 0 1-8.7 10.3zm.3 2.3c.4.1.2.7.4 1l7-8.4c.7-.9 3-2.9 1.8-3.7-3 3.8-6.2 7.4-9.2 11.1zm7.6-6.4l-5.2 6.4c-.9 1.1-2.6 2.8-2.5 3.8l.1-.2 9.4-11.2c.4-.5 1.2-1 .9-1.8-1.1.8-1.8 1.9-2.7 3zm3.2-1.8l-11.3 13.9c-.1.4 0 .8-.2 1.1.4.2.5-.4.7-.6 4-4.5 7.9-9.3 11.6-13.9-.4 0-.5-.3-.8-.5zm1.8.7c-4.3 5.1-8.5 10.3-12.7 15.6 1.7-.4 2.2-1.5 3.2-2.6 3.6-4.2 7.3-8.5 10.6-12.7l-1.1-.3zm-16.2 3.7c.1.4.4.5.6.7l3.3-3.7c0-.1.2-.2-.1-.2-1.8.5-2.4 2.3-3.8 3.2zm17.1-1.9l-9.5 11.9c2-.7 2.7-2.3 4-3.9l6.2-7.7c.4-.5 1-1 1-1.5-.8-.2-1.3.7-1.7 1.2zm-6.2 10.7c.8.4 1.1-.5 1.5-.9l7.3-9.2c.4-.5 1-1 1-1.5-.2-.2-.6-.2-1-.2-2.8 4.1-6.2 7.9-8.8 11.8zm-9.3-11.4c0-.1 0-.2-.2-.2-1.2.3-2 1.4-2.3 2.2.9.1 1.6-1.5 2.5-2zm20.1.1l-8.1 10.6c-.3.4-1 .9-.9 1.5 1-.7 1.6-1.8 2.4-2.8l7.3-9.1c-.3-.1-.4-.3-.7-.2zm-23.9.3c-.1.3.4.7.7.8.2-.4.6-.6.9-1l-1.6.2zm24.2 1.7c.6-.6 1.3-1 1.8-1.7-.8 0-1.6 1.6-1.8 1.7zm-7.5 9.4c-.3.4-.7.8-.6 1.2.4.1.7-.4 1-.8l.9-1.1c.7-.8 1.8-2 1.6-2.9l-2.9 3.6zm1.8 0c-.4.6-1.3 1.1-1.1 1.8.6-.1.9-.8 1.3-1.4l1.3-1.7c-.1-.2 0-.5-.2-.6l-1.3 1.9zm0 2.4c.8-.1 1.2-1.4 1.7-2.2l-.2-.2c-.4.9-1.4 1.6-1.5 2.4zm1.3.5c.1 0 .8-.8.5-1.3-.1.4-1 .9-.5 1.3z"/></svg>