<svg id="Layer_1" xmlns="http://www.w3.org/2000/svg" viewBox="0 0 559 520"><style>.st1,.st2{fill-rule:evenodd;clip-rule:evenodd}.st2{fill:#fff}.st4{fill:#373737}</style><path d="M190.2 106.1c-1 .2-1.9.5-2.9.8-43.9 11.9-83.3 36.3-111.6 79.4-4.8 7.3-9.4 15.4-11.2 26.6-1.5 9.2-.9 20.9 2.5 32.7-1.9 30.6 2.3 66.8 18.3 101.3 19.7 42.3 52.2 69.9 78.5 76.2 14.4 3.4 27.5 1.6 40.4-.4 42.8-6.6 85.1-14.8 126.7-24.8l12.1-3c27.5-7.1 54.4-16.3 76-36.3 9.4-8.6 17.8-19.3 28.7-24.6 8.9-4.3 19.4-5.1 27.2-11.8 6.6-5.7 11-15.5 14.1-26.5 3.8-13.4 5.9-29.2 3.8-47.7-2.1-18.4-8.8-39.7-19.5-56.3-10.3-16-23-26-33.9-41-6.9-9.4-13.1-20.8-20.5-28.4-7.8-8-15.8-10.5-23.2-12.4-22.9-5.9-45.1-8.5-67-10.4-48.2-4-95.5-4.5-138.5 6.6" fill="#cfebf6"/><path class="st1" d="M193.3 302.3c-3-6.2-1.3-14.9-1-22 .7-15 1.9-28.5 2.7-42.1.7-12.2-1.8-35.7 18-36.9 26.8-1.8 49.4.1 78.2.3 12.5.1 25.4-.2 39.3 0 11.5.2 30.1-1.5 38 3.3 10.2 6.3 6.9 19.2 6.5 30.1-.6 17-1.2 27.9-1.8 45.5-.2 6.3.8 17.9-2.9 22-2.9 3.2-11.5 6.2-16.3 6.8-7.5 1-15.9 0-24 .1-24 .3-48.9.6-71.9.4-15.7 11.8-31.8 26.1-47.4 38.3-4.6 3.6-13.3 12-17 7.6-2.4-2.8 1.3-7.6 3-11.1 6.1-12 11.5-22.4 16.1-33.5-8.6.5-15.7-.9-19.5-8.8z"/><path class="st2" d="M206.2 341.2c11.8-7.8 25.2-19.3 37.5-28.1 4.1-3 8.7-7.5 12.2-8.9 5.3-2.1 21.1-.8 27.4-1 21.4-.7 33-.9 54.6-1.4 7.6-.2 22.5 1.3 26.3-4.9 2.3-3.7 1-15 1.2-20.7.7-15.2 2.4-25.2 3.1-41.2.3-5.8 2.8-15.3.1-20.8-4.7-9.5-27.1-5.8-37.8-5.6-34.9.6-64.6.7-100.2.7-6.5 0-14.8-1.5-20.2 1.3-6.7 3.4-8 11.3-8.4 19.3-.7 16-1 28-1.6 44.9-.2 7.2-2.6 17 .2 22.8 2.1 4.4 5.9 5.1 9.1 6.1 2.6.8 8.1.7 9.7 3.6 2.5 4.6-3.7 13.1-5.5 17-2.9 6.2-5.3 10.8-7.5 16.2-1 .2-.2 2.3-.2.7z"/><path class="st1" d="M264.9 252.4c7.3 12.4 8.7-11 0 0zm16.2-.2c-.4 6.2 7.3 5 7 .9-.3-3.3-4.8-4.7-7-.9zm17.2 3.2c.9.4 2.8.5 3.5-.9-.8-3.6-4.8-1.9-3.5.9zm17.7-3.5c-1.5 2.9 2.8 4.7 4.6 1.9-.7-2.8-2.4-3-4.6-1.9zm161.9-99c3.9-.6 6.8 2.1 5.9 6.4-1.2 5.2-10.2 4.7-10.6-.8-.3-3.4 1.9-5.2 4.7-5.6zm-.8 6.2c1.1 1.2 3.4.2 3.4-1.4-.8-2-3.9-1.1-3.4 1.4zm-10 82.3c3.9-.6 6.8 2.1 5.9 6.4-1.2 5.2-10.2 4.7-10.6-.8-.3-3.4 1.8-5.2 4.7-5.6zm-.8 6.1c1.1 1.2 3.4.2 3.4-1.4-.8-2-3.9-1-3.4 1.4zm-133.6-91.8c1.4-.4 2.1-.5 3.1-.3 3.6.9 4.6 8.6-.8 9.8-6.7 1.5-8.4-7.9-2.3-9.5zm-.3 5.9c1.5.8 3.1-.4 2.8-2.2-1.6-.9-2.8.6-2.8 2.2zm-22 207.5c1.4-.4 2.1-.5 3.1-.3 3.6.9 4.6 8.6-.8 9.8-6.7 1.5-8.4-7.9-2.3-9.5zm-.3 5.9c1.5.8 3.1-.4 2.8-2.2-1.6-1-2.8.6-2.8 2.2zm-46.2-3.7c.8 3.2-3.6 3.2-3.1.3.8-1.1 2.1-1.3 3.1-.3zm154.4-176.4c4.4-1 6.9 1.3 7.3 4.2.9 7.9-11.6 9.1-11.8 1.1 0-3 2-4.3 4.5-5.3zm-.5 6.1c1.3 5.2 7.3-3.6 2-2.5-1.4.3-2.5.6-2 2.5zm-255 136.6c4.4-1 6.9 1.3 7.3 4.2.9 7.9-11.6 9.1-11.8 1.1 0-2.9 2.1-4.3 4.5-5.3zm-.5 6.2c1.3 5.2 7.3-3.6 2-2.5-1.4.2-2.5.6-2 2.5zm228.8-196.7c-2 5-6.2 7.3-9.9 8.5-.5.1-2.2.4-2.3.7-.3.7 2.1 3.4 2.4 3.9 1.1 1.3 3.3 2.6 2.8 3.8-.9 1.9-6.5-1.5-7.9-2.4-1.3-.8-2.2-1.6-3.2-2.3-1.1-.8-2-1.9-3.2-2.3-1.1-.4-2.6-.4-3.8-.6-9.8-1.5-17.9-6.2-21-12.4-1.8-3.5-2.9-9.7-.2-14.3 2.6-4.3 7.7-7.2 11.8-8.6 5.6-1.8 13.1-1.7 20.3 1.3 10.4 4.2 18.8 13.3 14.2 24.7zm-11.5 14.1c.2-.3-.3-.8-.6-1.2-.5-.7-2.5-3.8-1.8-5 .3-.5 2.8-.8 3.6-1.1 3.2-1.1 6.7-3.4 8.4-7.3 1.9-4.5 1.2-8.8-.5-11.9-2.4-4.5-8.2-9.7-15.7-11.6-5.4-1.4-10.6-1.6-15.4.1-4.2 1.4-9.1 4.1-11.2 8.3-1.8 3.7-.7 8.8.8 11.7 2.8 5.3 10.2 9.5 18.3 10.8 1.6.3 3.7.2 5.3.8 1.6.6 2.9 2.2 4.2 3.3 1.5 1.1 2.8 2 4.6 3.1z"/><path class="st1" d="M386.7 134.5c0 .2-.1.2-.2.2.5 1.7.7 3.5 2 4.8 1.1-1.5-.9-3.3-1.1-4.9-.2-.1-.5-.1-.7-.1zm-1.6 1c0 .8.3 1.8.5 2.5.2.6.5 1.8 1.4 1.9.4-1.6-.4-3.5-1.6-4.6 0 .1-.1.2-.3.2zm-1.3.6c-.3.9.1 2.1 1.1 2.7.8-.7 0-2.7-1.1-2.7zm-1.8.3c-.2.7.1 1.2.7 1.5.2-.1.3-.2.5-.3.2-.6-.4-1.6-1.2-1.2zM110.1 279.1c6.5-1.3 6.2 8.3 1.7 8.7-4.4.4-7.4-7.5-1.7-8.7zm1.6 5.1c0-.7 0-1.4-.3-1.7h-.8c.1.9.2 1.6 1.1 1.7zm31.1 10c-2.9-4.4-1.3-10.8 3.4-11.5 3.1-.4 6.9 1.4 7.5 4.5 1.1 5.5-5.3 11.1-10.9 7zm4.2-1.9c4.9 1 3.3-9.5-1.7-4.8.1 2.5.1 4.4 1.7 4.8zm-17.3 44.2c1-.2 1.9-.3 2.2 1.1 1.4 5.7-7.8.3-2.2-1.1zm104.5 23.1c7.9-2 7.6 10 1.4 9.8-5.1-.1-6.9-8.4-1.4-9.8zm2.2 6.2c.8-.9.5-2.1-.3-2.8-2.7-.3-1.3 2.8.3 2.8zm-54.8 7.5c9.1-1.6 8.3 12.1.8 11.8-4.9-.2-7.8-10.5-.8-11.8zm1.9 7.9c3.6-.6-.4-7.3-2.5-3.1.5 1.5.9 3.3 2.5 3.1zm30.5-3.4c-.6 7.3-7-3.4 0 0z"/><path d="M261.8 335.5h15.3c2.8 0 2.8-4.3 0-4.3h-15.3c-2.7.1-2.7 4.3 0 4.3z"/><path d="M267 323.8v19.4c0 2.8 4.3 2.8 4.3 0v-19.4c0-2.7-4.3-2.7-4.3 0zM88.1 223.1h15.3c2.8 0 2.8-4.3 0-4.3H88.1c-2.8 0-2.8 4.3 0 4.3z"/><path d="M93.3 211.4v19.4c0 2.8 4.3 2.8 4.3 0v-19.4c0-2.7-4.3-2.7-4.3 0zm310.3 36.9h15.3c2.8 0 2.8-4.3 0-4.3h-15.3c-2.8 0-2.8 4.3 0 4.3z"/><path d="M408.8 236.6V256c0 2.8 4.3 2.8 4.3 0v-19.4c0-2.7-4.3-2.7-4.3 0zm-146.1-74.3H278c2.8 0 2.8-4.3 0-4.3h-15.3c-2.7 0-2.7 4.3 0 4.3z"/><path d="M267.9 150.6V170c0 2.8 4.3 2.8 4.3 0v-19.4c0-2.7-4.3-2.7-4.3 0z"/><path class="st2" d="M237.7 252h-98.1c-1.4 0-2.6-1.2-2.6-2.6v-98.1c0-1.4 1.2-2.6 2.6-2.6h98.1c1.4 0 2.6 1.2 2.6 2.6v98.1c0 1.5-1.2 2.6-2.6 2.6z"/><path d="M232.1 254h-.2c-.2-.1-.4-.2-.5-.4-.3-.6-.3-.6 3.5-4.7l.4-.4c-1 .6-2 1.2-2.9 1.7-6.1 3.7-6.2 3.7-6.6 3.6-.2-.1-.4-.2-.5-.4-.4-.7.2-1.1 2.6-2.9-4 2.4-4.2 2.3-4.6 2.2-.2 0-.4-.2-.5-.4-1.8 1-2.1 1.1-2.4 1-.2-.1-.4-.2-.5-.4-.5-.8-.5-.9 10.5-9.7 2.1-1.7 4.3-3.5 6.3-5.1-3 1.8-6.8 4.1-10.2 6.2-13.5 8.3-15 9-15.7 8.9-.2-.1-.4-.2-.5-.4-.3-.6-.3-.9 2.3-2.8-2.4 1.4-3.2 1.6-3.6 1.5-.2-.1-.4-.2-.5-.4-.5-.9-.6-1 15.1-12 2.9-2.1 6.2-4.3 9-6.3-4.3 2.5-9.8 5.9-14.7 8.9-17 10.4-18.8 11.3-19.5 11.1-.2-.1-.4-.2-.5-.4-.6-1-.6-1.1 19.8-14 2.1-1.3 4.4-2.8 6.6-4.2-2.4 1.5-4.9 3-7.3 4.5-18.2 11.2-21.9 13.3-22.8 13-.2-.1-.4-.2-.5-.4-.6-1.1-.8-1.3 24.2-18.2 2.6-1.7 5.3-3.6 7.8-5.3-2.4 1.3-5.1 2.8-8.1 4.5-1.8 1.1-3.6 2.3-5.4 3.4-21.7 13.4-28.7 17.6-30.1 17.2-.2 0-.3-.1-.4-.3h-.3c-.2 0-.3-.1-.4-.2-.5.2-.7.2-.9.2-.2-.1-.4-.2-.5-.4-.3-.5-.5-.9 3-3.3-4.5 2.6-6.1 3.3-6.7 3.1-.2-.1-.4-.2-.5-.4-.7-1.2.2-2.1 30.1-20.8 10.1-6.3 21.9-13.7 28.2-18-6.8 3.8-19 11.3-30.2 18.1-27.9 17-36.2 21.9-37.6 21.6-.2-.1-.4-.2-.5-.4-2.4 1.2-3.6 1.7-4 1.6-.2-.1-.4-.2-.6-.4-.8-1.4.8-2.9 41.2-27 13.5-8.1 28.3-16.9 35.4-21.6-8.3 4.5-25.7 15.2-40.4 24.1-31.6 19.3-41.7 25.2-43.1 24.8-.2-.1-.4-.2-.5-.4-.5-.8.1-1.4 3.5-3.7 2.1-1.4 5.1-3.4 9.3-6 7.7-4.8 18-11 28.9-17.6 15.2-9.2 33.4-20.2 41.4-25.6-7.6 4.2-22.8 13.6-36.6 22-33.6 20.6-49.6 30.2-51.7 29.7-.3-.1-.5-.2-.6-.4-.4-.8 0-1.4 3.6-3.9 2.2-1.5 5.4-3.6 9.8-6.3 8.2-5.1 19-11.6 30.5-18.4 17.8-10.7 39.4-23.6 46.3-28.6-7.5 3.8-28.1 16.4-46.6 27.8-36.1 22.1-48.4 29.4-50.2 29-.2-.1-.4-.2-.6-.4-.9-1.6 1.4-3.6 52.5-33.8 18.2-10.8 38.5-22.7 45.3-27.5-8.6 4.2-33.9 19.7-53.2 31.5-33.9 20.8-44 26.8-45.6 26.4-.2-.1-.4-.2-.5-.4-.4-.8 0-1.4 3.8-4 2.3-1.6 5.7-3.7 10.3-6.6 8.6-5.3 20.1-12.2 32.2-19.4 19.9-11.9 44.1-26.3 50.8-31.4-.4.2-.8.4-1.3.6-4.4 2.7-11.1 6.5-20.8 12-8.8 5.3-18.8 11.5-27.8 17.1-32.7 20.2-47.3 29-49.3 28.5-.3-.1-.5-.2-.6-.4-.1-.2-.2-.5-.1-.8.1-.5 1-1.3 2.6-2.5-.1-.2-.2-.5-.1-.7.1-.3.5-.8 1.3-1.5-.3.1-.5.1-.7.1-.2-.1-.4-.2-.6-.4-.1-.2-.1-.4-.1-.7 0-.2.2-.4.5-.7v-.1c-.1-.2-.1-.5-.1-.7 0-.1.1-.2.2-.3-.4.1-.7.2-.9.1-.2-.1-.4-.2-.6-.4-.4-.8-.2-1.4 4.4-4.5 1.7-1.1 3.8-2.5 6.4-4.1-2.8 1.6-4.7 2.5-6 3.2-3.7 2-5.5 2.8-6.1 2.7-.2-.1-.4-.2-.5-.4-.1-.2-.2-.5-.1-.7.1-.4 1-1.2 2.7-2.4.5-.6 1.5-1.3 3.4-2.5 2.2-1.4 5.4-3.4 9.7-6.1 8.2-4.9 19.2-11.4 30.9-18.2 20.3-11.8 47.2-27.5 54.1-32.8-7.6 3.5-32.3 18.7-52.6 31.2-33.4 20.5-44.7 27.3-46.9 27.3h-.2c-.2-.1-.4-.2-.6-.4-.4-.8-.2-1.4 4.5-4.6 2.7-1.9 6.7-4.4 12.1-7.8 10.1-6.2 23.8-14.4 37-22.3 7.1-4.3 14.6-8.7 21.5-12.8l-17.6 9.7c-1.7 1-3.5 1.9-5.3 2.9-1.6 1-3.1 1.9-4.6 2.8-33.7 20.7-43.7 26.7-45.3 26.3-.2-.1-.4-.2-.5-.4-.1-.2-.2-.5-.1-.7 0-.2.2-.4.5-.7.3-.6 1.4-1.5 3.2-2.8-2.9 1.5-4.4 2.1-4.9 2-.2-.1-.4-.2-.6-.4-.1-.2-.2-.5-.1-.8.1-.4.7-1 1.7-1.8v-.2c0-.1.1-.3.3-.5-.1-.7.8-1.7 4.2-4.1 2.5-1.8 6.2-4.2 11.3-7.3 9.4-5.9 22.3-13.5 34.8-20.9 17.8-10.6 39.2-23.3 46.5-28.6-7.4 3.9-25.5 15-41.9 25.1-36.9 22.6-54.6 33.3-56.9 32.7-.3-.1-.5-.2-.6-.4-.1-.2-.1-.4-.1-.7.1-.4.8-1 2.2-2h-.2c-.2-.1-.4-.2-.6-.4-.1-.2-.2-.5-.1-.7.1-.4.9-1.1 2.3-2.2-1.3.6-2.1.8-2.5.7-.3-.1-.5-.2-.6-.4-.5-.8 0-1.4 3.9-4.1 2-1.3 4.7-3.1 8.3-5.3-5.8 3.3-9 4.8-9.9 4.6-.3-.1-.5-.2-.6-.4-.3-.5-.5-.8 2-2.6-1 .4-1.7.6-2 .5-.2-.1-.4-.2-.6-.4-.3-.6-.3-1.1 2.5-3.1-1.7.8-2.6 1.1-3 1-.2-.1-.4-.2-.5-.4-.4-.7-.2-1.5 6.3-5.7-2.3 1.2-3.3 1.6-3.7 1.5-.2-.1-.4-.2-.5-.4-.1-.2-.1-.4-.1-.7v-.1c-.2-.1-.4-.2-.5-.4-.6-1.1-.8-1.4 31-21.2 5.5-3.4 11.4-7.1 16.3-10.2-5.3 3.2-11.6 7-17.3 10.4-24.5 14.9-29.7 17.9-30.8 17.6-.2-.1-.4-.2-.5-.4-.6-1.1-.8-1.4 26.8-18.6 6.1-3.8 13-8.1 18.1-11.5-5.3 3.1-12.3 7.4-18.4 11.2-19.9 12.2-22.3 13.5-23.1 13.3-.2-.1-.4-.2-.5-.4-.6-1-.7-1.3 23.3-17 2.3-1.5 4.7-3.1 7.1-4.6-.6.3-1.1.6-1.7 1-1.3.8-2.5 1.5-3.8 2.3-19.9 12.3-24.5 14.9-25.6 14.6-.2-.1-.4-.2-.5-.4-.1-.2-.1-.4-.1-.6 0-.1.1-.2.3-.4 0-.8 2.3-2.4 17.4-12.7 3.7-2.5 7.8-5.3 11.3-7.7-2.8 1.7-5.8 3.5-8.7 5.3-19 11.5-21.7 13-22.5 12.8-.2-.1-.4-.2-.5-.4-.2-.4-.1-.7.1-1l-.2-.2c-.5-.9-.6-1 14.6-11.6.5-.4 1-.7 1.5-1.1-7.9 4.9-10.7 6.5-11.8 7-2.3 1.3-2.7 1.3-3 1.3-.2-.1-.4-.2-.5-.4-.5-.9-.6-1 10.7-8.7-7.9 4.8-8 4.7-8.5 4.6-.2-.1-.4-.2-.5-.4-.4-.6-.4-.6 4.7-6.4l2.4-2.7c-.5.3-1.1.7-1.6 1-4 2.5-4 2.5-4.5 2.4-.2-.1-.4-.2-.5-.4-.3-.5-.3-.5 1.2-2.6-.2.1-.3 0-.4 0-.2 0-.4-.2-.5-.3-.1-.1-.3-.2-.4-.3-.2-.4-.1-.8.3-1.1.1 0 .1-.1.2-.1.2-.1.6-.4.9-.5 1-.6 1.1-.7 1.5-.6.1 0 .1 0 .2.1.4-.2.6-.2.8-.2.2.1.4.2.5.4.3.5.3.5-1.2 2.6.3-.2.7-.4 1-.6 4.9-3.1 5.2-3.1 5.7-3 .2.1.4.2.5.4.4.6.4.6-5 6.8l-2.2 2.5c2.2-1.3 5.1-3.1 7.7-4.7 10.4-6.3 10.5-6.3 11-6.2.2.1.4.2.5.4.4.7.1 1.1-3.7 3.8-2.2 1.5-5.1 3.6-8 5.6-.2.1-.4.3-.5.4l1.5-.9c13.2-8.1 14.8-8.9 15.5-8.7.2.1.4.2.5.4.1.2.1.4.1.6-.1.4-.5.8-3 2.2-1.2 1.1-4.5 3.4-12.4 9l-6.1 4.3c2.6-1.6 5.5-3.3 8.1-4.9 16.2-9.9 18.2-11 19-10.8.2.1.4.2.5.4v.1c3.4-1.9 3.8-2 4.2-1.9.2.1.4.2.5.4.6 1 .7 1.2-20.3 15.4-1.6 1.1-3.3 2.2-4.9 3.3.9-.5 1.9-1.1 2.9-1.6 1.4-.9 2.8-1.7 4.2-2.6 17.5-10.7 21.7-13.1 22.9-13.1 1.9-1 2.4-1.2 2.8-1.1.2.1.4.2.5.4.6 1 .7 1.2-21.4 15.5-4.7 3.1-10 6.5-14.2 9.4 3.9-2.3 8.5-5.2 12.9-7.9 21.6-13.3 26.6-16.1 27.7-15.8.2.1.4.2.5.4.6 1.1.8 1.4-26.3 18.3-5.9 3.7-12.6 7.9-17.8 11.2 5.9-3.5 13.8-8.3 20.7-12.5 24.4-14.9 29.5-17.8 30.6-17.5.2.1.4.2.5.4.6 1.1.7 1.3-28.5 19.5-8.3 5.2-17.9 11.2-24.1 15.2.6-.4 1.3-.7 1.9-1.1 1.2-.7 2.6-1.6 4.2-2.5 6.3-3.8 14.1-8.5 21.4-13 26.4-16.2 34.8-21.2 36.3-20.8.2.1.4.2.5.4.1.2.1.4.1.6-.1.3-.4.7-1.3 1.3.1.1.1.1.1.2.5.8-.2 1.4-2.8 3.2-1.6 1.1-4 2.6-7.3 4.7-6.1 3.8-14.3 8.6-23 13.7-12.1 7.2-26.5 15.7-33.6 20.3 7.6-4.2 22.3-13.2 34.8-20.8 29.7-18.1 36.3-21.9 37.5-21.6.2.1.4.2.5.4.3.6.1 1.1-1 2 5.6-3.2 8-4.3 8.7-4.2.2.1.4.2.5.4.3.5.5.8-1.6 2.3 1.2-.6 2-.8 2.3-.7.2.1.5.2.6.4.7 1.2.9 1.6-41.5 26.9-4.5 2.7-9.3 5.5-14 8.4 4.1-2.3 8.7-4.9 13.8-7.7.4-.2.8-.5 1.2-.7 33.1-20.4 47.8-29.3 49.9-28.8.3.1.5.2.6.4.1.2.1.4.1.7 0 .2-.2.4-.5.7 0 .1.1.3 0 .4 2-1 3.2-1.4 3.6-1.3.2.1.5.2.6.4.1.2.1.4.1.7-.1.2-.3.6-.9 1 .4-.1.7-.2.9-.1.2.1.4.2.5.4.5.8 0 1.6-4 4.5-2.5 1.7-6.1 4.1-11.2 7.3-9.3 5.8-22.1 13.4-34.5 20.8-12.4 7.4-26.6 15.8-36.6 22.1 6.7-3.8 16.1-9 29-16.1.1 0 .2-.1.2-.1 3.7-2.3 7.4-4.5 10.9-6.7 31.7-19.5 43-26.2 45.4-26.5 1.4-.6 2.2-.8 2.5-.7.2.1.4.2.6.4.1.1.1.2.1.3.2.1.4.2.5.4.1.2.2.5.1.7-.2.6-1.6 1.8-4.3 3.7 1.2-.5 2-.8 2.5-.8.3-.1.5-.1.7 0 .3.1.5.2.6.5.5.9.8 1.4-15.5 11.5-9.4 5.8-22.5 13.6-35.1 21.1-18.8 11.2-41.4 24.7-49.7 30.4 7.8-4.2 25.9-15.3 42.2-25.3 36.3-22.3 53.6-32.7 55.9-32.1.3.1.5.2.6.4.4.8.2 1.5-4.1 4.5 3.3-1.7 5.2-2.5 5.8-2.3.2.1.5.2.6.4.1.2.2.5.1.7 0 .2-.2.4-.4.6-.1.7-1.1 1.5-4.3 3.7-2.5 1.7-6.1 4-11.2 7-1.1.7-2.2 1.4-3.4 2.1 10.1-6 14.5-8.2 15.5-7.9.2.1.4.2.6.4.1.1.1.3.1.5 1.6-.8 2.6-1.1 3-1 .2.1.4.2.6.4.1.2.2.5.1.7-.1.2-.2.5-.6.8.1.2.1.4.1.7-.1.3-.5.8-1.4 1.4.4-.1.7-.2.9-.1.3.1.5.2.6.4.1.2.1.4.1.7-.1.4-1.1 1.3-3.4 2.8.1.1.1.1.1.2.4.8.1 1.5-4.5 4.7-2.7 1.9-6.7 4.4-12.1 7.8-10.1 6.2-23.6 14.3-36.6 22.1-15.5 9.2-32.4 19.4-40.7 24.8 8.3-4.7 24.3-14.5 38.9-23.4 37.1-22.7 54.8-33.4 57.1-32.8.3.1.5.2.6.4.5.8 0 1.5-4 4.2-2.4 1.6-5.9 3.9-10.8 6.8-9 5.5-20.9 12.5-33.5 20-19.1 11.3-42.1 24.9-49.5 30.2 7.6-3.9 28-16.3 46.2-27.6 36.2-22.2 48.6-29.6 50.4-29.1.2.1.4.2.6.4.5.8-.1 1.6-4.1 4.4-2.5 1.7-6.1 4.1-11.2 7.2-9.3 5.8-21.8 13.3-33.8 20.5-16.1 9.6-34 20.3-40.6 25 8.1-4.1 29.6-17.3 47.5-28.2 31.6-19.4 41-24.9 42.4-24.6.2.1.4.2.5.4.8 1.4-1 3-46.2 30.4-13.1 7.9-27.5 16.6-35.3 21.7 8.1-4.6 22.5-13.4 35.7-21.4 33.2-20.2 44.5-26.9 46.1-26.5.2.1.4.2.6.4.8 1.4-.6 2.7-40 26.2-13.3 7.9-29 17.3-36.4 22.3 1.2-.7 2.6-1.5 4.1-2.4 2.2-1.4 5.2-3.2 9.2-5.5 5.7-3.5 12.1-7.4 18.2-11.2 29.2-18 39.1-23.9 40.8-23.4.2.1.4.2.6.4.1.2.1.4.1.7 0 .1-.1.2-.2.3.2.1.3.2.4.3.7 1.3-.5 2.6-33.2 23-8.6 5.4-17.9 11.2-23.7 15 6.6-3.8 16.9-10.1 25.8-15.5 25.5-15.6 31.3-18.9 32.5-18.6.2.1.4.2.5.4.4.6.6 1-4.7 4.3 1.9-1 2.8-1.3 3.2-1.2.1 0 .2.1.2.1 1.2-.6 1.9-.8 2.2-.7.2.1.4.2.5.4.1.2.1.5.1.7-.2.5-1.4 1.5-4.3 3.3-1.1 1.3-5.5 4.3-19.9 14-6.4 4.3-13.7 9.2-18.5 12.7 4.4-2.6 10.6-6.4 16-9.7 18.5-11.4 22.4-13.6 23.4-13.4.2.1.4.2.5.4.5.9.7 1.1-13.4 10.1 10.5-6.4 12.5-7.3 13.2-7.1.2.1.4.2.5.4.5.9.6 1.1-15.9 12.5l-7.2 5c2.6-1.6 5.5-3.4 8-4.9 12.7-7.8 13.4-8.1 14-8 .2.1.4.2.5.4.4.8.2 1.1-4.2 4h-.1c4.9-2.9 5.8-3.3 6.3-3.1.2.1.4.2.5.4.5.8.5.9-11 10.2l-4.7 3.8 3-1.8c9.1-5.6 9.6-5.8 10.1-5.6.2.1.4.2.5.4.9-.5 1.1-.5 1.3-.4.2.1.4.2.5.4.4.7-.2 1.1-2.6 2.9-.3.2-.6.4-.9.7.3-.1.4-.1.5 0 .2.1.4.2.5.4.3.6.3.6-3.6 4.8l-.1.1c4.2-2.5 4.3-2.5 4.7-2.4.2.1.4.2.5.4.2.3.1.6 0 .8 0 .3-.1.6-.4.7-.1 0-.1.1-.2.1-.3.1-1.3.7-2 1.2-2.4 1.5-2.4 1.5-2.8 1.4-.1 0-.1 0-.2-.1-2.1.7-2.6 1-2.9 1m-90.8-14c-.8.5-1.5 1-2 1.4a218 218 0 0 0 10-5.6c-3.7 2-6.3 3.4-8 4.2m68.1-48.4c-5.8 3.5-12 7.1-18.1 10.7-18.5 10.9-40.8 24-49.2 29.7 2.5-1.4 6.1-3.4 10.3-5.9.8-.5 1.6-.9 2.5-1.5 9.2-5.4 20.9-12.6 31.8-19.3 8.9-5.3 16.4-9.9 22.7-13.7m-24.9 21.1c-8.6 4.9-17.2 9.9-24.6 14.2 5.7-3.3 12.6-7.2 20.6-11.7 1.3-.8 2.6-1.7 4-2.5m-3.4-1.4c-2.1 1.2-4.2 2.4-6.2 3.6 1.6-.9 3.4-1.9 5.1-2.9.4-.2.7-.4 1.1-.7m-3.1-24.9c-15.4 8.8-30.7 17.7-37.5 22.1 7.2-3.8 22.6-13 37.5-22.1M145.2 203c-1.7 1.1-3.2 2-4.3 2.8 6.5-3.4 21-12.2 35.9-21.3-2.7 1.5-5.3 3.1-8 4.6-11.2 6.8-18.9 11.4-23.6 13.9m47.5-3.6l-.6.3c-3.4 2.1-6.5 4-9.5 5.8 2.6-1.5 5.2-3.1 7.9-4.6 2.9-1.7 6-3.5 8.9-5.3-2.1 1.3-4.3 2.5-6.7 3.8m-18.3-21c-12.2 7.1-24.8 14.6-31.3 18.7 6.8-3.6 19.3-11.2 31.3-18.7m-.9-2.3c-11.9 6.9-24.5 14.3-30.9 18.4 6.5-3.6 18.9-11.1 30.9-18.4m58.6 4c-5.4 3-14 8.1-23.7 13.9 9.7-5.5 18.4-10.6 23.7-13.9m3 3.9c-1.2.7-2.6 1.4-4.1 2.3.8-.4 1.5-.8 2.1-1.1.8-.4 1.4-.8 2-1.2m-29-5.8c-3.2 1.9-6.5 3.9-9.7 5.9 7.3-4.2 15-8.6 21.8-12.6-3.6 1.9-7.6 4.1-12.1 6.7m11.8-24.4c-7.7 4.3-22.1 13.2-35.2 21.3-1.7 1-3.3 2-4.9 3 1.4-.8 2.7-1.6 4.1-2.4 13.6-8.1 28.5-17 36-21.9m14.4 12c-2.8 1.5-6.2 3.5-9.9 5.7 3.8-2.2 7.2-4.1 9.9-5.7m.1-13c-6.5 3.5-18.6 10.8-31 18.3 12.9-7.4 24.8-14.4 31-18.3m-40.2 6.7c-4.3 2.6-9.1 5.5-13.8 8.4 7.5-4.4 15-8.9 20.5-12.3-1.9 1.1-4.1 2.4-6.7 3.9m15.1-5.2c-5.4 3.1-13.3 7.9-21.5 12.9 8.3-4.8 16.3-9.6 21.5-12.9" fill="#3d5a98"/><path class="st4" d="M234.3 252.4c.2 0 .1-.1-.5-.1l-.4.2.9-.1zm-3.9-.4c-.7.1-1.5.2-1 .4.7-.2.8-.1 1.6-.3.6 0 1 .1.9.1.2 0 .9 0 1.2-.1-.8-.1-1.7-.1-2.7 0-.2 0 0 0 0-.1m-56.7-.2h.4-.4m-34.3-1.8c.2.2.3.2.3.2-.2-.1-.3-.3-.3-.2m34.3 1.8l-.9-.1c-.1.1.5.1.9.1m48.9.7h.5c-.2-.1-.3-.1-.5 0 0-.1 0-.1 0 0m-33.4-.9h.3c.1 0 .2 0 .2-.1l-.5.1zm11.9 0c-.3 0-.4.1-.5.2.2-.1.4-.1.6-.1l-.1-.1m-20.4 0s-.1 0-.1-.1c0 .1.1.1.1.1m59.9-10.2c0 .1 0 .1 0 0m-6.3 10.6h.2v-.1l-.2.1zm-96-18.4c.1.3.1.1 0 0m18.5-83.6c-1.1-.1 1.9-.2.1-.3.2 0-1.5.2-.1.3m65.5 102.4h-.5.5M157 149.7h-.2c.1-.1.1-.1.2 0m-18.7 58.5c0 .1 0 .2-.1.3 0 0 0-.1.1-.3m-.2 18.9v-.5.5m0-28.7v-.7.7m0-10.2v.5-.5zm102.5 22.2c0 .2-.1.4-.1.5 0-.2.1 1.3.1-.5"/><path class="st4" d="M222.6 252.4c-.1 0-.1.1-.3.1.1-.1.2-.1.3-.1.1 0 .1 0 0 0M136.9 198v-1.6 1.6m88.5-49.2h.4-.4m-88.5 42.7c.1-.3.1-.6.1-.9v-.2l-.1 1.1zm103.5 19.4"/><path class="st4" d="M240.8 221.6c0-1.5-.2-.7-.3-1.1-.1-1.8.1-.9.2-1.5-.1-1.2-.2-2-.2-2.9 0-.1 0-.2.1 0-.2-1.2 0-3.6-.2-5v-.2c-.1.2-.2.3-.3.2 0-.7-.1-1.3 0-1.5 0 .4 0 .5.1.7l-.1-.7c.2-.7.1 1 .2 1-.1-1.4-.2-3.1-.2-4.2.2-.2.1 2.5.2 1.1l-.1 1.7c.3-1.3 0 1 .3-.2.1-2.2-.1-2.5 0-4.7-.1-.5-.1.2-.2-.3-.2-3.1.4-2.5.2-4.8-.1-.6-.3-.8-.2-2.5l.2.6c0-2.1-.3-1.2-.2-3.5.1.4.1 1.7.1 1.4.2-1.5-.1-1-.1-2.1l.2-.2c0-2.3-.2-4.8-.2-7.3.1.1.1.6.2 0-.1-3.2 0-6.8.1-9.9l-.2-1.2c0-.3.1-.5.1-.2.1-1.2-.1-.1-.2-.6 0-.7.1-.9.1-.5-.1-2.1-.3-6-.1-8.2v.4c.1-1.7-.3-2-.2-3.6V155c0-.5-.1-1-.2-1.4-.2-.9-.6-1.7-1-2.4-.3-.2-.9-1-1.8-1.5-.8-.5-1.8-.7-1.9-.6-.6-.1-.9-.2-1.3-.2-.3 0-.5 0-.8-.1-.5 0-1.1-.1-2.6-.1-.8 0-1.2.2-2.2.2v-.2l-1.3.2-.7-.2h-.9c.4 0 .8.1.7.1-1.5.1-3.6-.1-3.6-.2l-3.4.1c.1-.1.7-.1 1.1-.1-1.8.2-.3-.2-2 0 .2 0-.1.1-.2.1-.8-.1-2.8-.1-4.2-.1l.3-.1c-2.6 0-5.4.1-8.3.1 1 .1.8.2 0 .3l-.3-.2c-.5.1.9.1-.2.2-1.1 0-.7-.2-.1-.2l-1.3.1c-.1 0 .2-.1.3-.1-.5.1-2.2-.2-3 0h-.1c-2.9 0-4.2.1-6.5.1 0 .1-1 .1-1.7.2-1.7 0-3.6-.2-5.7-.1-1.5.1-.4.1-1.1.2-.1-.1-2.2-.1-1.1-.2-2.5 0-3.2 0-6.3.1.3.1.7.1.5.1-.6 0-1.3-.1-1.2-.1h.2c-3.5.2-8.1-.4-10.9-.1h.2l-2.9.1c-1.3 0 .8-.1-.2-.2-3.1.2-5 0-7.5.1-2-.4-7.1 0-9.8-.2l.2.1c-.7.1-.8-.1-1.4-.1.1.1.8.1.3.1h-3.4c-.2 0-.4 0-.6.1-.2 0-.4.1-.6.1-1.6.4-3.1 1.5-4 3-.4.7-.7 1.6-.8 2.4v2.4c0 1.5-.1 3.1-.1 4.6 0 2.2.5 1.3.3 4.1l-.2-.8c.2 4.5 0 9.2.2 13.6 0-.3-.1-.3-.1-.7-.1.9 0 3.4.1 3.4 0 .7-.1.2-.1.6-.1.9.2 2.3 0 2.8v-.4c.1.6 0 2.8.1 2.2-.1 1.6.1 3.2 0 4.5.2.9-.1 2.8.1 3.1-.2-.1-.2 2.9-.1 3.9-.1-.3-.1.9-.2.5 0 1.2 0 2.3.2 2.1-.3 2.2.2 4.4-.1 5.6l.3 10c-.2-.1 0-3.5-.3-3.4.1 3 .3 4.8.2 7.8 0 .8-.1-.4-.1-.7.1 3 0 5.8.1 8.5 0 0 0-.3-.1-.6 0 .5 0 1.2.1 1.2v-.5c.2-.8.3 2.1.4 2.2-.3-.9-.1 2.6-.5 1.2 0 .3.1.8.1.7 0 .5-.1.7-.1.2.1 1.9.2 1.2.2 2.9-.1 0-.1-.4-.1-.5.1.9.2 1.7.2 3.2 0-.1-.1.1-.1-.4 0 2.5.3 4.2.2 7-.2-.8-.1.9-.3 1.1v.7c0 .3 0 .5.1.8v-.6c0 .7.2 1.3.4 1.9.3.6.5 1.1.9 1.5-.2-.2-.4-.5-.6-.8.4.7 1 1.4 1.7 1.9-.4-.3-.7-.7-1-1 .5.5.5.4.6.4l.1.1c.1.1.3.2.6.5-.1-.1.1.1.5.3.4.2.9.5 1.3.6.6.1 1.3.1 2.3.1.2.1-.2.2 0 .3.6-.2 3 0 3.8-.2-.3 0-.3.1-.2.2l.5-.1c.6 0 .7.1.6.1 1.8 0-.6-.2 1.6-.1h-.4c2.1.1 4.1-.1 6.1 0 .6.2-1.7 0-1 .2 2.8 0 5.8-.2 8.6-.2h-.5c.4-.3 2 .1 3.4 0-.3 0-.4.2-.4.1 1.9 0 3.8-.1 6.7-.2l-.4.1c1.1.1 2.9 0 4.1.1.4-.1 1-.1.6-.2 3.7.4 7-.2 10.3.1-.4 0-.9.1-.6.1l2.8-.1c-.2-.1-.4-.1-.9-.2.4-.1 1.1-.1 1.8-.1-1.2.1 0 .2.5.3-.1 0 .1-.1 0-.1 1.4.2.2-.2 2.2-.1l-.1.1c.7 0 1.4-.1 2.2-.1.3.1-.8.1-.8.2 1.1 0 2.2-.3 3.2-.1-.5 0-1.2 0-1.6.1 1.1.2 1.2.1 2.1.1h-.1l1.9.1h-.5c1.4-.4 2.9-.1 4.7-.3-1.8.2-.3.1-.4.3.5 0 1.2.1 1 .1.9-.1 1.5.1 2.8-.1.1 0 1 0 .8.1 1.2 0-.3-.1-.2-.2 1.8-.2 4.2.2 6.8 0 2.2-.1 2.6-.3 4.7-.4.7.1-.6.2-.6.2 1.1.1 2 .1 3 0-.2 0 0 .1.3.1.8 0 .6-.2 1.7-.1-.2.1-.4.1-.8.2 1 0 2-.1 3-.2.3.1-.6.1-1 .2 1.2 0 3-.1 3.4-.2h-.7c.4 0 .2.1-.1.1-1 .1-1.4 0-1.5-.1h.7c-.8-.3-3 0-4.4 0l.6-.2-1.5.2c-.3-.1-.5-.2.2-.2-1.1-.1-.9.1-1.9 0-.1 0-.1 0 0 0l-1 .1c.2 0-.2-.2.5-.1-1.9-.1-3 .2-3.7 0h.2c-2.6.1-.3.2-2.2.3l-1.3-.4-.3.2c-.3 0-.8 0-.7-.1-1 .1.2.1-.4.2-1.3-.1-3.5.1-3.8-.2-.5.1 1.2.1-.1.2-.4-.3-1.6 0-2.8-.1.4-.1 1.5-.1.3-.2-.7.2-2.3-.1-3.3 0 0 .2-2.2.1-3.8.1.1-.1-3.1-.1-4.7-.2-.3.2-1.9.2-3.1.2 0-.1.3-.2.9-.2h-1.1c-.3.1-.6.1-1.3.1l.3-.1c-1.5 0-2.9.2-4.8.1-.1.1 1.5.4-.5.5-.1-.1-.1-.2.4-.2-.2 0-.6.1-.9 0l.8-.1c-.9-.1-.4.1-1.1.1 0-.1-.5-.1-.4-.2h.9c-.8 0-1.7-.1-2-.2.1.1 0 .1-.6.1-1.5 0-.5-.1-1.3-.2-.4.1-1.3 0-1.3.1-.4 0-.5-.1-.7-.1-.8.1-3.5 0-2.7.2h.1c-2.5.2-5.1-.1-7.6 0v-.1c-1.5.1-3.3 0-4.3.1-.4 0-1-.1-.8-.2-1.1 0-1.2.1-2.9 0 1.1-.1-.4-.1 1.2-.1-1.5 0-1.8-.1-3.3 0 .5-.1-1.1-.2-1.8-.1l1 .1H154l.4-.2c-3-.2-5.4.4-7.6 0-.8.1 1.6.1.9.2-1.4 0-2.8-.3-3.2-.3h-1.7c-.4 0-.9 0-1.7-.5.1.1.2.2.1.2s-.4-.1-1-.5c-.2-.2-.4-.4-.5-.6-.1-.2-.2-.3-.2-.4 0-.2.1-.1.4.2l.3.3c.3.3.8.5.4.2-.1 0-.1 0-.2-.1-.2-.2-.6-.7-.9-1-.2-.4-.4-.7-.2-.5-.4-.8-.3-.3 0 .3-.4-.7-.6-1.3-.7-1.9 0-.2-.1-.3-.1-.5v-1.7c0 .3-.1.6-.1.3.1-2.7-.1-1.2-.1-3 .1-1 .2.4.1-1.4.1-1.1.2-.2.2.2-.1-1.6.1-3.1.1-4v-.5l-.1.5c0-.5 0-.9.1-.9-.1-.5-.2.4-.3-.6.1-.7-.1-2.1.1-2.3-.1 2.1.2-.2.2 1.6v-1.3.2c.1-2-.2-.9-.2-3.1.1.3.2-.5.2-.8 0 .9-.2.4-.2-.4.1-1.4-.1-1.5 0-2.2v.8c-.1-.3-.1-1-.1-1.9.1-.1 0 .9.1.5-.2-1.1.2-2.4.1-3.8.1-.7.2-.1.2-.7-.1-1.6.1-1.8 0-3.5-.1.5-.1.6-.2-.6l.1 2.8-.2-1.8c0 .9.1 1.8.1 2.3-.1-.9-.1-.8-.2-.4.2-1.2-.1-2.3 0-3.7h.3c.1-2-.2-3.6-.1-6.3l-.1.9c-.1-.4 0-1.6-.1-2.5.1.1.1-.5.2-.8-.1 0 0-1.9-.2-2.2l.1-1.2c.1-2.1-.3-2.4-.3-4.5.1.6.2-.3.3 1.1 0-.7 0-1.3-.1-1.3.1-.4-.1-1.9 0-2.5 0-.3-.2-.4-.1-1.2 0-.1.1 0 .1 0-.1 0-.1-1.2-.2-.5.3-2.1 0-5.9.2-7.8 0-1.5-.1-3.3-.1-4.7 0 .1.1 0 0 .3.1-1.9-.3-1.2-.2-3.3.2-1.1.1 1.1.2.5.3-.3 0-2.6.1-4v.3c.1-1.1-.1-2.7-.1-4.5 0 0 0 .1.1 0-.2-1.2-.2-3.6-.3-5.3.1.5.1.8.2.5 0-.8-.2.2-.2-1.3.1-.5.1-1.6.3-1.8v1.5c.2-.7 0-1.9 0-2.7l.1.1c0-2.2-.2-2.3-.2-4.7l-.1.2c-.2-1.3.1-1.1 0-2.4l.2-.4c0-.4-.1-1.2-.1-2s.2-1.7.5-2.4c-.1.4-.3 1-.4 1.7v1c0 .3 0 .7.1.9v-1.8c.1-.6.3-1.2.3-1.4l-.3 1c0-1 .6-2.4 1.9-3.3 0 .2.8-.4 2-.7.6-.1 1.2-.1 1.9-.1.6 0 1.1.1 1.5.1 3-.1 6 .1 9.5 0-1.2-.3 1 0 .8-.3h1.2l2.5.2c.6.1-.8.1-.7.1 1.8 0 .8.1 1.9.2-.2-.1.6-.2 1.6-.1l-1.4-.1c2.5-.2 2.2.3 4.7.1l-.8.1c1.3-.1 4.8 0 6-.3.2 0 .5.1 0 .1 3.1 0 6.9-.3 9.3-.1l-.2.1c.6 0 1-.1 1.7-.1 0 0-.2.1 0 .1.3 0 1.5-.1 2.3-.1l-.7.1c3 .1 4.6-.2 7.2-.3 0 .2 2.4.3 3.6.3 3.5 0 6-.2 9.2-.3 2 .2 6.8.1 10.1.2-.5 0 .1-.2.7-.2.8 0 2.1-.2 2 .1h-.3c.6.2 2.1.1 3.4.2l.2-.3c3.2.4 8.4-.1 10.1.2.8-.1 1.7-.1 2.5-.1v.1h2.7c.8 0 1.6.2 2.6.8-.2-.1-.3-.1-.5-.2.6.3.9.5 1.3.7.3.2.7.5 1 1v.4c.2.5.4 1.1.4 1.7v1.9c0 1.3 0 2.6.1 3.9 0 0-.1-.1-.1-.5 0 1.2-.1 4.8.2 4.3-.2 0 0 2.7.1 4.1l-.1-.2c.2 1.2.2 1.2.3 2.9 0 .4-.1.3-.1-.2-.1 1.3.1 1 .1 2.6l-.1-.6c0 1.3 0 1.2.1 2s0 2.6-.2 2.8c.1.2.2.9.1 1.7 0 .1-.1-.2-.1-.3-.1 2.3.2 3.4 0 4.9 0 0-.1.1-.1.3v-3.1c-.1 0-.2 1.4-.3.3.1 1.2.3 3.1.3 4.6v.2-.1 2.1c-.1.2-.1 1.7-.1 2.4.1-.1.1.9.2 0v-2.7c.1.6.1 1.2.1 2 .1.4.2.8.2 1-.2 1-.3 2.9-.4 3.2.1 2.2.1 5.2.3 6.6 0 .6-.1.7-.1 1 0-.4 0-.8-.1-1 .1 1.3 0 3.7.2 4-.1 1.6-.2-.9-.1 1.3l-.1-.3c-.3 4.3.5 6.9.1 11.7 0-.3 0-.5.1-.6-.2 5.4.2 11.1-.1 16.4-.1 1.5.1 1.7.2 2.6l-.2.3.2 1.6c.1 2.2-.4 3.9-.1 6.7l.1-.4c0 1 .1 3.2-.1 3 0 .1.1.3 0 .7h-.1c-.1.8-.4 1.5-.9 2.2-.6.7-.7.5-.7.5s-.1 0-.3.1c-.2.1-.5.3-1 .6-.4.2-1 .5-1.6.6-.5.1-.9.2-.7.2.4 0 1-.1 1.1 0-.3.1-.6.1-.9.1-.1.1-.3.3-.2.4 0 .1.2.1.5.1h.5c.2 0 .5 0 .8-.1.6-.2 1.1-.5 1.6-.9.2-.1.4-.2.5-.2-.4.3-.8.6-1.3.8.8-.3 1.2-.7 1.6-1.2.2 0 .4-.2.6-.5.3-.5.6-1.1.7-1.6.1-.1 0 .1.1.2 0 .1.1.1.3-.5.1-.4 0-.2-.1-.1s-.1.2 0-.5c.2-.4.2-.5.3-.7.1-.2.1-.4 0-.9.1-.1.1.1.1.5v-1.5c0-.5 0-.9-.1-1.2.1-.8 0-2.8.2-2.7-.1-.3-.2-1.4-.2-2.2.3 1.4 0-2.8.3-2.5-.2-1-.1-3.7-.2-5.5 0 .1.1.3 0 .5 0-1 .1-1.3.1-2-.2-.1-.2-1.7-.4-2.6.2-1.2.2.8.4.4-.2.1-.2-2.2-.3-1.7.1-1 .1-.8.2-1.3-.3-.2 0-.9-.2-1.7.1-1.4.2-.4.2-1.9-.4-.1-.3 1.3-.3 1.3m-.5-36.1v.7c.1-.1 0-.4 0-.7m0-3.1v1.3c0 .1-.1 0-.1-.3.1.2.1-.5.1-1m-1 6.4v-.7.9c.1 0 .1-.1 0-.2"/><path class="st4" d="M239.5 189.7v.2c.1-.1.1-.2 0-.2v-.3.3m-21.6-82h.3zM198 252.3l1 .1c-.4 0-.7-.1-1-.1m5.6.1c.1 0 .1 0 .1-.1l-.1.1zm-66.5-24.9v-.2.2m4.6 24.5c-.3 0-.6-.1-.9-.2.5.2.9.3.9.2m-4.8-53.8v-.2zm2.9 52.9c.4.3.7.5 1.1.6-.4-.1-.8-.3-1.1-.6m87.7 1.4h.3-.3zm.3 0h.3c-.1-.1-.2-.1-.3 0m.9-.1h-.6.6m-21.4 0c.5 0 1.3.1 2.1.1h.1c-.4 0-1.7-.2-2.2-.1m219.4 251.8h1.9c-.3-.1-.8-.1.1-.1-2.4-.2.4.1-2 .1m-5.8-.1c1 0 0-.1 0-.1-.6 0-.7 0 0 .1m-41.8 0l.1-.1c-.7 0 0 0-.1.1m-8 .7h.8l.4-.1zm-4.7-1h.4l-1.3.1zM138.2 190l-.2.2c0 .6.2.7.2-.2m-.2-30.4c.1-.3.1-1.2.1-1.7 0 .7-.1 1.4-.1 1.7m82.7-9.6l-.6.1 1.1-.1z"/><path d="M208.2 252v-39.8h13.3l2-15.5h-15.3v-9.9c0-4.5 1.2-7.5 7.7-7.5h8.2v-13.9c-1.4-.2-6.3-.6-11.9-.6-11.8 0-19.9 7.2-19.9 20.5v11.4H179v15.5h13.3V252h15.9z" fill="#fff"/><path class="st4" d="M208.2 252.4c.1 0 .1-.1-.3-.1l-.3.2.6-.1zm-2.7-.4c-.5.1-1 .2-.7.4.5-.2.6-.1 1.1-.3.4 0 .7.1.6.1.1 0 .6 0 .9-.1-.5-.1-1.2-.1-1.9 0-.2 0 0 0 0-.1m-25-40.1h.3-.3m12 13.3l.1-.7c-.1 0-.1.4-.1.7m7.5 27.3h.4c-.2-.1-.3-.1-.4 0 0-.1 0-.1 0 0m-7.3-16.3v.2c0 .1 0 .1.1.2l-.1-.4zm0 8.4c0-.2-.1-.3-.2-.3.1.1.1.2.1.4 0-.1.1-.1.1-.1m0-14.4c0-.1 0-.1 0 0 0-.1 0-.1 0 0m16.2 12.1s0 .1 0 0m-.7 9.7v-.1h-.1l.1.1zm-28.5-50.2c0 .2 0 .1 0 0m41.3-36c-.8-.2 1.3-.1.1-.3.2.1-1.1.1-.1.3m-21.2 86.6h-.3.3m21.4-86.9h-.1.1m-29.3 31.9c-.1 0-.2 0-.3-.1 0 0 .1.1.3.1m-12.5 0v-.2.2m13.3-7v-.5.5m.1-7.1v.3-.3zm16 37.1c0 .2-.1.3-.1.3.1 0 .2 1 .1-.3m-8.8 32s-.1.1-.2.1c.1-.1.1-.1.2-.1m-8.4-62.3V189v1.1m17.5 6.1h.3-.3m-17.5-10.6c0-.2.1-.4.1-.7v-.1c-.1.3-.1.5-.1.8m17.1 35.2z"/><path class="st4" d="M209.1 228.3c0-1.1-.2-.5-.3-.7-.1-1.3.1-.6.2-1-.1-.8-.2-1.4-.2-2 0 0 0-.2.1 0-.2-.9 0-2.5-.2-3.5v-.1c-.1.2-.2.2-.3.2 0-.5-.1-.9 0-1.1 0 .3 0 .3.1.5l-.1-.5c.2-.5.1.7.2.7-.1-1-.2-2.2-.2-2.9.2-.2.1 1.8.2.8l-.1 1.2c.3-.9 0 .7.3-.1.1-1.6-.1-1.7 0-3.3-.1-.3-.1.1-.2-.2-.1-1.1 0-1.5.1-1.9.1-.2.1-.3.1-.6v-.3s0-.1-.1-.1l-.1-.1c0-.1 0-.1.1-.1h.9l-.4.2c1.5 0 .9-.3 2.4-.2-.3.1-1.2.1-1 .1 1 .2.7-.1 1.5-.1l.2.2c1.6 0 3.4-.2 5.1-.2-.1.1-.4.1 0 .2h4.4c.1-.4.1-.9.2-1.3 0-.3.1-.5.1-.8.1-.5.2-1 .3-1.4v-.8c0-.2.1-.3.1-.1.2-.8-.1-.1-.1-.5.1-.5.2-.6.2-.3.1-1.5.3-4.2.6-5.8v.3c.2-1.2-.1-1.4.2-2.5v.2c.1-.5.1-1 .2-1.5l.3-2H221c-.8 0-1.5-.1-2.1-.1-.4.2-2.6-.1-2.8.2-1.5-.2-1.1-.2-3.2-.3-.6 0-.8.2-1.5.2v-.2l-1 .2-.5-.2h-.7c.3 0 .6.1.5.1h-.8c-.1 0-.2 0-.3-.1 0-.2.1-.3.1-.3l-.1-2.4c.1.1.1.5.1.8-.2-1.3.2-.2 0-1.4 0 .2-.1-.1-.1-.1.1-.6.1-1.9.1-2.9l.1.2v-2.8c0-1 0-1.9.2-2.9-.1.3-.2.4-.2.4-.1 0-.1-.2 0-.5l.2-.2c0-.4-.2.6-.1-.2.2-.7.3-.4.3 0 .1-.3.1-.6.2-.8.1 0 0 .2.1.2 0-.1.1-.2.1-.3.1-.1.2-.3.3-.4.2-.3.4-.6.6-.8h.1c.6-.6 1.2-.9 1.8-1.1.6-.2 1.2-.4 1.9-.4 0-.1.6-.2 1.1-.3 1.2 0 2.5.1 4 .1 1-.1.3-.1.8-.2.1.1 1.5.1.8.2 1.5 0 2.2 0 3.8-.1 0-.3 0-.9-.1-1.7 0 .1 0 .2-.1.3 0 .1 0 .2-.1.1 0-.4.1-.9.1-.9v.1c-.2-2.5.4-5.7.1-7.7v.1l-.1-2.1c0-.9.1.6.2-.1-.1-.6-.1-1.1-.1-1.5v-1.5c-.2 0-.3 0-.5-.1-.3 0-.6-.1-.9-.1-.2 0-.4 0-.6-.1-.4 0-.8-.1-1.3-.1-1.4-.5-5-.3-6.9-.5l.1.1c-.5.1-.6-.1-1-.1.1.1.5.1.2.1-2.1 0-4.3.1-6.5.4-2.2.3-4.4 1-6.3 2.1-.7.4-.8.6-1 .9l-.4.4c-.1.1-.2.2-.4.3-.2.1-.3.2-.5.4.1-.2.2-.3.3-.5-2.5 2.1-4.7 4.9-5.7 8 0-.2 0-.2.1-.5-.1.1-.2.4-.3.6-.1.2-.2.5-.2.8l-.2 1c-.2.5-.1.1-.3.4-.2.6-.2 1.7-.4 2v-.3c0 .1 0 .3-.1.5 0 .2 0 .4-.1.6 0 .4-.1.7 0 .5-.3 1.2-.1 2.3-.2 3.2.1.6-.1 2 .1 2.2-.2-.1-.2 2-.1 2.8-.1-.2-.1.6-.2.4 0 .8 0 1.6.2 1.5-.3 1.5.2 3.1-.1 4v.5h-.9c-.5 0-1 0-1.5.1-1 0-1.9.1-2.9.1.1-.2 2.5 0 2.4-.3-2.1.1-3.3.3-5.4.2-.5 0 .3-.1.5-.1h-5.4v1.5-.2.6c0 .2 0 .3.1.3v-.4c.2-.6.3 1.5.4 1.5-.3-.6-.1 1.9-.5.9 0 .2.1.6.1.5 0 .4-.1.5-.1.1.1 1.3.2.9.2 2.1-.1 0-.1-.2-.1-.4.1.6.2 1.2.2 2.2 0-.1-.1.1-.1-.2 0 1.8.3 3 .2 4.9-.2-.6-.1.7-.3.8l.1 1 .1-.4c0 .4 0 1.1.1 1.6h1.5-.8 1.8l-1-.1c.9-.1-.1-.2 1.1-.2-.2 0 .9 0 1.4.1.4-.1.9-.1 1.6-.1.2.1-.1.2 0 .3.4-.2 2.1 0 2.7-.2-.2 0-.2.1-.1.2l.4-.1c.4 0 .5.1.4.1 1.3 0-.4-.2 1.1-.1-.1 0-.1 0-.3.1h3.7v.3c-.1.2-.1 0-.1-.1-.2 0-.4 0-.3.1h.2v1l.1 1.4c0 1 .1 1.9.1 2.8v-.4c.3.3-.1 1.4 0 2.4 0-.2-.2-.3-.1-.2 0 1.3.1 2.7.2 4.7l-.1-.2c-.1.8 0 2.1-.1 2.9.1.3.1.7.2.4-.4 2.6.2 4.9-.1 7.2 0-.3-.1-.7-.1-.4l.1 2c.1-.2.1-.3.2-.7.1.2.1.8.1 1.3-.1-.9-.2 0-.3.4 0-.1.1.1.1 0-.2 1 .2.2.1 1.6l-.1-.1c0 .5.1 1 .1 1.6-.1.2-.1-.6-.2-.6 0 .8.3 1.6.1 2.3 0-.3 0-.8-.1-1.2-.2.8-.1.9-.1 1.5v-.1l-.1 1.3v-.3c.4 1 .1 2 .3 3.4-.2-1.3-.1-.2-.3-.3 0 .3-.1.9-.1.7.1.6-.1 1.1.1 1.9 0 0 0 .7-.1.5 0 .8.1-.2.1-.1 0 .4.1.8 0 1.2 0 .6 0 1.1-.1 1.8h1.5c.4 0 .7 0 1.1-.1 1.6-.1 1.9-.3 3.3-.4.5.1-.4.2-.4.2.8.1 1.4.1 2.1 0-.2 0 0 .1.2.1.6 0 .4-.2 1.2-.1-.1.1-.3.1-.6.2.7 0 1.4-.1 2.1-.2.2.1-.4.1-.7.2.8 0 2.1-.1 2.4-.2h-.5c.3 0 .2.1-.1.1-.7.1-1 0-1.1-.1h.5c-.5-.3-2.1 0-3.1 0l.4-.2-1.1.2c-.2-.1-.4-.2.1-.2-.7-.1-.7.1-1.3 0-.1 0 0 0 0 0l-.7.1c.1 0-.1-.2.3-.1-1.3-.1-2.1.2-2.6 0h.1c-1.8.1-.2.2-1.5.3-.3-.1-.7-.3-.8-.4l-.2.2h-.2c0-.1 0-.2.1-.2l-.1-.2c0 .1 0 .2-.1 0 .1-.9-.1-2.5.2-2.7-.1-.3-.1.9-.2-.1.3-.3 0-1.1.1-2 .1.3.1 1 .2.2-.2-.5.1-1.6 0-2.3-.2 0-.1-1.5-.1-2.7.1.1.1-2.2.2-3.3-.2-.2-.2-1.3-.2-2.2.1 0 .2.2.2.6v-.8c-.1-.2-.1-.4-.1-.9l.1.2c0-1-.2-2.1-.1-3.4-.1-.1-.4 1.1-.5-.3.1-.1.2-.1.2.3 0-.1-.1-.4 0-.7l.1.6c.1-.6-.1-.3-.1-.8.1 0 .1-.4.2-.3v.6c0-.5.1-1.2.2-1.4-.1 0-.1 0-.1-.4 0-1 .1-.4.2-1-.1-.2 0-.9-.1-.9 0-.3.1-.4.1-.5-.1-.5 0-2.5-.2-1.9-.2-1.7.1-3.6 0-5.3h.1c-.1-1 0-2.3-.1-3 0-.3.1-.7.2-.6 0-.8-.1-.9 0-2 .1.8.1-.3.1.8 0-1 .1-1.2 0-2.4 0 .2.1.1.1-.2v-1.1h-.7l.7.1v.1h-1.6l.3-.2c-2.1-.2-3.8.4-5.4 0-.6.1 1.1.1.6.2-1 0-2-.3-2.3-.3-1.3-.1-1.2.3-2.6.2.2.1.3.2-.7.3-1 0-1.2-.3-.6-.3h.3c.3 0 .7 0 .3-.1l-.1.1c-.2 0-.7 0-1-.1h-.3v-.1c-.3.1-.2.1.1.1h-.3v-2c0 .2-.1.4-.1.2.1-1.9-.1-.8-.1-2.1.1-.7.2.3.1-1 .1-.8.2-.2.2.1-.1-1.2.1-2.2.1-2.8v-.4l-.1.3c0-.4 0-.7.1-.7-.1-.4-.2.3-.3-.5.1-.5-.1-1.5.1-1.6-.1 1.5.2-.2.2 1.1v-.9.1c.1-1.4-.2-.7-.2-2.2.1.2.2-.3.2-.6 0 .6-.2.3-.2-.3V198v.4c-.1-.2-.1-.4-.1-.8h.2s-.1 0-.1.1h.3c.2 0 .4 0 .5.1.4 0 .9.1 1.4 0 .5.1 0 .2.5.2 1.2-.1 1.3.1 2.5 0-.3-.1-.4-.1.4-.2l-2 .1 1.3-.2c-.6 0-1.3.1-1.6.1.6-.1.5-.1.3-.2.8.2 1.6-.1 2.6 0v.3c1.4.1 2.5-.2 4.4-.1l-.6-.1c.2-.1 1.1 0 1.8-.1 0 .1.1.1.2.1h.5s.6 0 1.2-.1c0-.6 0-1.2-.1-1.3l.1-.8c.1-1.5-.3-1.7-.3-3.2.1.4.2-.2.3.7 0-.5 0-.9-.1-.9.1-.3-.1-1.3 0-1.8 0-.2-.2-.3-.1-.8 0-.1 0 0 0 0s-.1-.8-.2-.4c.2-.7.2-1.8.1-2.8 0-1 0-2 .2-2.6 0-.5.1-1.1.1-1.7.1-.6.1-1.1.2-1.6v.2c.2-.6.2-.8.1-1.1v-.4c0-.2.1-.4.2-.8.4-.7-.2.8 0 .3.2-.1.3-.5.4-1 .1-.3.1-.6.2-.8.1-.3.2-.5.4-.7l-.1.2c.2-.3.3-.8.5-1.2.2-.5.5-1 .8-1.5 0 0 0 .1 0 0 .2-.4.5-.9.8-1.5.4-.5.8-1.1 1.2-1.5-.2.4-.3.5-.1.4.2-.2.1-.2.1-.3 0-.1 0-.2.4-.5.3-.2.9-.6 1.1-.6l-.7.7c.3-.1.5-.3.7-.5.2-.2.5-.4.7-.6v.1c.6-.4.9-.7 1.2-1 .3-.2.7-.5 1.4-.9h-.2c.8-.5.7-.2 1.5-.7.1 0 .2.1.3.1.3-.1.8-.3 1.3-.5l.9-.3c.3-.1.6-.2.8-.2-.3.1-.7.3-1.2.4-.5.2-.9.4-1.3.5.3-.1.8-.2 1.2-.4.5-.1.9-.2 1-.3-.2.1-.5.2-.7.2.7-.3 1.6-.6 2.8-.7 0 .1.1.1.4.1h2.5c.4 0 .8.1 1 .1 2.1-.1 4.2.1 6.6.3-.9-.4.7 0 .6-.3.6 0 .8 0 .8.1l1.7.3c.4.1-.5 0-.5.1.6.1.7.1.8.2l.1.1c0-.1.1-.1.1-.1v.1-.2s.1-.1 0-.2h.1v.3c0 .3 0 .4-.1.6-.1.4-.1.8 0 1.7l-.1-.6c.1.9 0 3.4.3 4.3 0 .2-.1.4-.1 0 0 1.1 0 2.3.1 3.5 0 .6 0 1.1.1 1.7v1.2l-.1-.1c0 .1.1.1.1.2h-.2v-.1H222l.5-.1c-2.1-.1-3.3.2-5 .3 0-.2-1.7-.3-2.5-.3-1.3.1-2.4.3-3.4.8s-1.9 1.3-2.5 2.4c-.5.6-1 1.9-1.1 3.3-.1.7-.1 1.4-.1 2.1 0 .7 0 1.3-.1 1.9 0-.4.2.1.2.5 0 .5.2 1.5-.1 1.4v-.2c-.2.4-.1 1.5-.2 2.4l.3.1c-.1.5-.1 1.1-.1 1.7v2.4c1 0 1.9 0 2.7-.1.6 0 1.2 0 1.5.1.5-.1 1.2-.1 1.8-.1v.1c1.5 0 2.3.1 4.1 0l-.4.1c1.1 0 1.3-.4 2.3-.4l.3.2h2.9v.2c0 .3 0 .6-.1 1 0 0-.1-.1-.1-.4-.1.9-.6 3.3-.2 3-.2 0-.3 1.9-.3 2.9l-.4-.1c.1.9.1.9 0 2.1-.1.3-.1.2-.1-.1-.2.9 0 .7-.2 1.8v-.4c-.1.9-.1.9 0 1.4 0 .6-.3 1.8-.4 1.9 0 .1.1.2.1.5 0 .2 0 .5-.1.7-.1 0-.1-.1-.1-.2 0 .1-.1.2-.1.3h-2.4s-.1-.1-.2-.1h2.2c0-.1-1-.2-.2-.3-.8.1-2.2.3-3.2.3h-.1.1-1.4c-.1-.1-1.2-.1-1.7-.1 0 .1-.6.1 0 .2h1.9c-.4.1-.8.1-1.4.1-.3.1-.5.2-.7.2-.7-.2-2-.3-2.2-.4-1.2 0-2.8.1-3.9.2 0 .7.1 1.3.2 1.5 0 .4-.1.5-.1.7 0-.3 0-.6-.1-.7.1.9 0 2.6.2 2.8-.1 1.1-.2-.6-.1.9l-.1-.2c-.3 3 .5 4.9.1 8.2 0-.2 0-.3.1-.4-.2 3.8.2 7.8-.1 11.6-.1 1.1.1 1.2.2 1.8l-.2.2.2 1.1c.1 1.6-.4 2.7-.1 4.7l.1-.3c0 .7.1 2.3-.1 2.2 0 .1.1.2.1.5h-.1l.1 1.8c-.1 1.4-.3-.2-.3 1.8 0 .7.2 2.1.3 1.8 0-.3.1-.8.1-.8v.7c.2.1.5.6.7-1l-.1-1.2.1-.4v1c.1-.6 0-.9-.1-1.3.1-.1.1-.3.1-.5l-.2-1.1c.1-.1.2.5.2-.3-.1-.5-.2.5-.3-.4.1-.6.2-.4.1-1 .1-.1.1 0 .1.3-.1-.6 0-1.5-.2-1.8.1-.6 0-2 .2-1.9-.1-.2-.2-1-.2-1.6.3 1 0-2 .3-1.7-.2-.7-.1-2.6-.2-3.9 0 .1.1.2 0 .3 0-.7.1-.9.1-1.4-.2-.1-.2-1.2-.4-1.8.2-.9.2.5.4.3-.2 0-.2-1.5-.3-1.2.1-.7.1-.6.2-.9-.3-.1 0-.6-.2-1.2.1-1 .2-.3.2-1.3.2-.7.3.3.3.3m8.5-15.7h-.5c.1.1.2.1.5 0m2.1 0h-.9c-.1 0 0-.1.2-.1-.1.1.4.1.7.1m-4.5-1h.5c-.1.1-.3.1-.5 0l-.1.1s.1 0 .1-.1"/><path class="st4" d="M214.6 211.8h-.1c0 .1.1.1.1 0h.2-.2m-22.1 13.7s0 .1 0 0m19-29.4h.2zM192 242.4l-.1.7c.1-.3.1-.5.1-.7m-.1 3.9s.1 0 0 0c.1.1.1.1 0 0zm-13.5-48.8v-.3.3m4.3 15c-.2 0-.4.1-.6.1.3 0 .6 0 .6-.1m8.9-22.2v-.2zm-10.4 22.2h.9-.9m22.3 40h.2-.2zm.2 0h.2c-.1-.1-.2-.1-.2 0m.6-.1h-.4.4m-15.2 0c.4 0 .9.1 1.5.1-.2 0-1.1-.2-1.5-.1m200.1 249.9v1.3c0-.1.1-.2.1-.3v-.4c0-.1 0 0 0 0 0 .2-.1.3-.1-.6m.1-4.1c0 .7.1 0 .1 0 0-.4 0-.5-.1 0m0-29.5l.1.1c0-.6 0 0-.1-.1m-1.9-3.7l.5.1c.1 0 .2-.1.2-.1h-.7zm-3.3-.9h.2-.9zm5.5-27.2l-.2.2c0 .4.2.4.2-.2m9.6-17.2c.2 0 .8-.2 1.1-.4-.4.1-.9.3-1.1.4m5.1 27.1l-.1-.5.1.9z"/></svg>