<svg id="Layer_1" xmlns="http://www.w3.org/2000/svg" viewBox="0 0 90 43.9"><style>.st0{fill:#A6A8AB;}</style><path class="st0" d="M18.6 14.1h-3.7v-.8c0-.8-.2-1.6-.6-2.2-.4-.6-1.1-.9-2-.9-.5 0-.9.1-1.3.3-.3.2-.6.4-.8.7-.2.3-.3.7-.4 1.1-.1.4-.1.8-.1 1.3s0 .9.1 1.3c0 .4.1.7.3.9.1.3.4.5.6.7.3.2.7.4 1.1.6l2.8 1.1c.8.3 1.5.7 2 1.1s.9.9 1.2 1.5c.3.6.5 1.2.6 2 .1.7.1 1.6.1 2.5 0 1.1-.1 2.1-.3 3-.2.9-.6 1.7-1.1 2.4-.5.7-1.2 1.2-2 1.6-.8.4-1.8.6-3 .6-.9 0-1.7-.2-2.5-.5s-1.4-.7-2-1.3c-.6-.5-1-1.2-1.3-1.9-.3-.7-.5-1.6-.5-2.4v-1.4h3.7v1.2c0 .7.2 1.3.6 1.8.4.5 1.1.8 2 .8.6 0 1.1-.1 1.5-.3.4-.2.6-.4.8-.8.2-.3.3-.7.3-1.2s.1-1 .1-1.6c0-.7 0-1.2-.1-1.7 0-.4-.2-.8-.3-1.1-.2-.3-.4-.5-.7-.7-.3-.2-.6-.4-1.1-.5L10 20.2c-1.6-.7-2.7-1.5-3.2-2.6s-.8-2.4-.8-4c0-1 .1-1.9.4-2.8.3-.9.7-1.6 1.2-2.3.5-.6 1.2-1.1 2-1.5.8-.4 1.7-.6 2.8-.6.9 0 1.8.2 2.5.5.8.3 1.4.8 2 1.3.5.6 1 1.2 1.3 1.9.3.7.4 1.4.4 2.1v1.9zm2.1-1.3c0-1 .2-2 .5-2.8.4-.8.8-1.5 1.4-2 .6-.5 1.3-.9 2-1.2.7-.3 1.5-.4 2.2-.4.7 0 1.5.1 2.2.4.7.3 1.4.7 2 1.2.6.5 1.1 1.2 1.4 2 .4.8.5 1.7.5 2.8v13.6c0 1.1-.2 2-.5 2.8-.4.8-.8 1.4-1.4 2-.6.5-1.3.9-2 1.2-.7.3-1.5.4-2.2.4-.8 0-1.5-.1-2.2-.4-.7-.3-1.4-.7-2-1.2-.6-.5-1.1-1.2-1.4-2-.4-.8-.5-1.7-.5-2.8V12.8zm3.7 13.6c0 .9.2 1.6.7 2 .5.4 1.1.6 1.8.6s1.3-.2 1.8-.6c.5-.4.7-1.1.7-2V12.8c0-.9-.2-1.6-.7-2-.5-.4-1.1-.6-1.8-.6s-1.3.2-1.8.6c-.5.4-.7 1.1-.7 2v13.6zM35.7 6.7h6c4.4 0 6.5 2.5 6.5 7.6 0 1.5-.2 2.8-.7 3.9-.5 1-1.3 1.8-2.5 2.5l4 11.8h-4l-3.4-11h-2.2v11h-3.7V6.7zm3.7 11.5h2.1c.7 0 1.2-.1 1.6-.3.4-.2.7-.4.9-.8.2-.3.3-.8.4-1.3.1-.5.1-1.1.1-1.7 0-.7 0-1.2-.1-1.7s-.2-.9-.5-1.3c-.2-.4-.6-.6-1-.8-.4-.2-1-.3-1.6-.3h-1.9v8.2zm11-11.5h3.7v3.7L50.4 13V6.7zm18.2 20c0 .8-.2 1.6-.5 2.4-.3.7-.7 1.4-1.3 1.9-.5.5-1.2 1-1.9 1.3-.7.3-1.5.5-2.3.5-.8 0-1.6-.2-2.3-.5-.7-.3-1.4-.7-1.9-1.3-.5-.5-1-1.2-1.3-1.9-.3-.7-.5-1.5-.5-2.4v-20h3.7v19.7c0 .9.2 1.6.7 2 .4.4 1 .7 1.6.7.7 0 1.2-.2 1.6-.7.4-.4.7-1.1.7-2V6.7h3.7v20zm2.6-20h3.6l5.6 15.6h.1V6.7h3.7v25.8h-3.5L75 17h-.1v15.5h-3.7V6.7z"/><path class="st0" d="M45 43.9c-.5 0-1-.2-1.4-.6L38.3 38c-.1-.1-.3-.2-.5-.2H2c-1.1 0-2-.9-2-2V2C0 .9.9 0 2 0h86c1.1 0 2 .9 2 2v33.9c0 1.1-.9 2-2 2H52.2c-.2 0-.3.1-.5.2l-5.3 5.3c-.4.3-.9.5-1.4.5zM2 1.3c-.4 0-.7.3-.7.7v33.9c0 .4.3.7.7.7h35.8c.5 0 1 .2 1.4.6l5.3 5.3c.3.3.7.3.9 0l5.3-5.3c.4-.4.9-.6 1.4-.6H88c.4 0 .7-.3.7-.7V2c0-.4-.3-.7-.7-.7H2z"/></svg>