<svg id="Layer_1" xmlns="http://www.w3.org/2000/svg" viewBox="0 0 559 520"><style>.st1,.st2{fill-rule:evenodd;clip-rule:evenodd}.st2{fill:#fff}.st4{fill:#52bfeb}</style><path d="M371.9 384.6c.7-.4 1.4-.8 2.2-1.2 32.9-18.2 59.7-45.7 74-85.9 2.4-6.9 4.5-14.2 3.7-23.6-.6-7.7-3.4-17-8.5-25.8-4.5-25-15.1-53.3-34.7-77.8-24.2-30.1-55.8-45.9-78.2-45.7-12.3.1-22.4 4.1-32.4 8.3a1313.5 1313.5 0 0 0-96.8 45c-3 1.6-6.1 3.2-9.1 4.8-20.7 11.1-40.5 23.9-53.9 44.2-5.8 8.8-10.5 19-18.2 25.5-6.3 5.3-14.6 8-19.5 14.9-4.2 5.9-5.8 14.6-6.1 24.1-.4 11.5 1.1 24.7 6.4 39 5.3 14.4 15 30.2 26.8 41.4 11.5 10.8 23.6 16.4 35.3 26.2 7.4 6.2 14.6 14.2 22.1 18.8 7.8 4.9 14.7 5.3 21.1 5.4 19.6.2 37.9-2.1 55.9-5 39.4-6.2 77.5-15.2 109.9-32.6" fill="#cfebf6"/><path class="st1" d="M173.9 390.4c7.5-1.9 7.2 9.5 1.3 9.3-4.8-.1-6.5-8-1.3-9.3zm2.1 5.9c.8-.8.4-2-.3-2.7-2.6-.2-1.2 2.7.3 2.7z"/><path d="M206.2 395h14.6c2.6 0 2.6-4.1 0-4.1h-14.6c-2.6 0-2.6 4.1 0 4.1z"/><path d="M211.1 383.9v18.4c0 2.6 4.1 2.6 4.1 0v-18.4c0-2.6-4.1-2.6-4.1 0z"/><path class="st1" d="M198.6 336.9c12.8-2.6 16.3 15.5 4 18.3-7.5 1.7-15-6.1-10.9-13.8 1.1-2.2 3.8-3.9 6.9-4.5zm-2.1 5.3c-.9.7-2.5 2.3-2.7 3.7-.4 2.9 2.7 5.4 4.8 5.8 8.9 1.7 10.9-12.7 1.1-10.9-1.1.2-2.4.7-3.2 1.4zM450.2 186c.8 3-3.4 3-2.9.3.7-1 1.9-1.2 2.9-.3zm-34.3-38.5c7.5-1.9 7.2 9.5 1.3 9.3-4.8-.1-6.5-8-1.3-9.3zm2.1 5.8c.8-.8.4-2-.3-2.7-2.6-.2-1.2 2.8.3 2.7z"/><path d="M448.2 152.1h14.6c2.6 0 2.6-4.1 0-4.1h-14.6c-2.6 0-2.6 4.1 0 4.1z"/><path d="M453.1 141v18.4c0 2.6 4.1 2.6 4.1 0V141c0-2.6-4.1-2.6-4.1 0z"/><path class="st1" d="M408 196.6c8.4-2 6.6 8.7.8 8.5-4.5-.1-6.5-7.1-.8-8.5zm-.3 4c.2 1.8 2.9 1.5 2.7-.5-1-.8-2 .2-2.7.5zm-8.5-31c3.4-5.3 10 .7 7.7 4.7-3.3 5.5-10.7 0-7.7-4.7zm4.3 3.6c.5-.6.5-1.3 0-1.9-.5-.1-1-.7-1.5 0-.2 1 .7 1.4 1.5 1.9zm-17.8 129.9c-.3 29.8 0 56.9 0 86.8 0 8.9 1.6 20.6-2.4 28.7-2.9 5.7-9.4 10.4-14.8 11.8-1.8.5-4.5.2-6.9.2-29.5.2-59.5.2-90 .2-4.2 0-10.6.7-13.7-.6-9.9-4-15.5-15.6-16.7-23.9-1.3-8.5-.2-18.2-.2-27.6 0-59.6.2-119.3.2-179.4 0-7.2-1.6-15.1 3.6-21.6 3.2-4.1 9-7.1 13-8.1 4-.9 8.9 0 13.9 0 22.2 0 46.5-.9 68.9-.2 4.2.1 9.1.4 13.9.4 7.5 0 15.2-1.6 22 3.2 11.6 8.3 9 19.6 9 28.9-.2 33.7.8 67.8.2 101.2z"/><path class="st2" d="M245.9 186.6c-2.1 7.7-1.1 18.7-.9 27.6.2 9.6 0 19 0 27.8v152.9c0 9.7 0 23.8 13.3 30.6 3.3 1.7 9.2 1.1 13.5 1.1 23.2 0 45.9.2 68.2.2 8.3 0 19.2 1.6 27.4-.4 3.7-.9 8.9-3.7 11.6-7.9 2.4-3.7 2.3-9.6 2.3-14.7 0-54.8.2-108.8.2-162.9 0-14 .7-29.9.2-44.5-.2-5.3-.2-10.8-2.4-14.8-5.4-9.5-15.2-8.6-22.5-8.6-29.1 0-57.5.4-85.7.4-7 0-14.6-.7-20.3 5.2-3 3.3-4.2 5.4-4.9 8z"/><path class="st1" d="M248.7 207.1c.1-.1 0-.4.2-.6 1.7-1.6 6.8-.9 8.1-.9 18.8-.8 37.8.4 56.3-.4 16.9-.7 38.3.2 56.5.2.8 0 7-.5 7.9.4.8.9.6 10 .6 11.4 0 53.9-.2 106-.2 160.2 0 3 1 9.7-.4 11.3-1.2 1.4-6.5.9-8.1 1-38.3 0-74.3.7-112.3.7-2.6 0-6.4.3-7.9-1.1-1.8-1.7-1.3-7.6-1.3-11.5 0-49.6-.6-97.7-.6-147.5 0-3.3.2-7.4.4-11.3.2-3.3-.8-9.5.8-11.9zm3.9 180.2c37.9-1.1 76.6-1.9 114.2-1.9 2.4 0 5.1.7 7.3-.6-.3-55 .6-110.8.6-165.5 0-3.6.4-7.2-.2-10.7-41.1.9-82.2.8-123.2 1.1.9 59.2.4 118.4 1.3 177.6z"/><path class="st1" d="M263 212.4c.5 2.1-3.7 6.7-5.8 7-1.2-1.5 4-7.6 5.8-7zm5.4-.2c1.5 1.9-3.1 6-4.9 7.9-2.5 2.7-5 6.5-7.3 6.6-1.1-2 3.5-5.9 5.6-8.3 2.2-2.4 4.6-5.2 6.6-6.2zm61.8-24.6c-1.2 3.3-5.6 2.1-8.1 2.1-5.8 0-11.3-.2-17.5-.2-1.7 0-11.3 1.2-8.5-2.8 1-1.4 6.6-.9 8.8-.9 5.6 0 11.5.2 17.1.2 2.9-.1 6.7-1.3 8.2 1.6zm-54.8 24.8c.4 2.4-2.3 4-4.1 6-2 2.2-4.2 4.7-6.8 7.5-2.9 3.1-5.3 8.7-8.6 7.1 1.2-2.8 4.6-5.8 7.9-9.4 4.2-4.6 8.2-10.3 11.6-11.2zm-3 11.6c.3 2.5-3.6 5.3-6 7.9-2.2 2.4-5.6 7.8-8.1 8.5-1-2.6 2.6-5.7 5.1-8.5 1.6-1.8 3.7-3.6 5.3-5.3 1.1-1.2 1.9-3.5 3.7-2.6zm-4.5 12.1c1.3 1.4-1.1 2.9-2.4 4.3-1.7 1.8-3.7 5.4-5.6 4.5-.9-1.6 1.6-3 3-4.5 1.5-1.8 3.1-4.7 5-4.3zm-.8 6.3c0 2.2-4.4 7.6-6.6 7.3-.9-1.8 4.7-7.7 6.6-7.3zm1 4.7c.6 1.5-1.5 2.5-2.6 3.8-1.5 1.7-2.9 4.6-4.7 4.3-1.2-1.2 1-3.5 2.4-5.1 1.3-1.5 3.4-4.3 4.9-3zm31.3 153.5c3.6-5.4 8.3-3.6 13.7-3.9 4.6-.3 9.9-1.5 13.7 2.8 2.8 3.2 3.6 14.2-.9 17.5-2.9 2.1-9 1.3-13 1.3-3 0-9.6 1.4-13-2.1-2.5-2.7-2.8-12.1-.5-15.6zm3.2 13c2.3 2.3 8.1 1.2 10.7 1.3 3.4.1 8.9.9 10.9-1.1s1.6-10.5 0-12.4c-1.2-1.4-6.9-1.5-10.1-1.5-4.5 0-9.8-1-12 2.6-1.6 2.5-1.2 9.4.5 11.1zm-17.3-227.3c2.9-5.4 9.6.1 5.8 3.9-2.1 2.2-8.1.4-5.8-3.9zm64.9 167.2c-9.7-.7-16.4-3.3-19.7-11.7-2-5.2-1.1-16-1.3-24.1-.3-12.7 1.4-21.8 8.6-25.8 1-.6 3-1.5 4.2-1.5 26.1.6 54.3.4 81.2.4 3.8 0 8.1-.4 11.3.2 5.1.9 12.2 8.3 13 13.6.8 5.3.2 13.3 0 19-.2 5.8.8 13.7-.4 18.6-1.3 5.5-7 10.3-12.6 11.1-4.3.6-9.3.2-14 .2-11.3 0-23.4.4-35.2.4-2.5 0-5.4-.5-7.1 0-1.8.5-4.9 3.9-6.7 5.4-5.4 4.5-10.8 9.3-16.3 13.8-.9.7-2.8 2.2-3.3 1.7-1.1-1.1-.9-8.8-1-10.7-.4-3.6-.7-7.5-.7-10.6z"/><path class="st2" d="M370.5 356.4c1.7-1.5 4-4.4 5.7-4.8 1.8-.5 4.7-.2 7.1-.2 2.4 0 4.9-.2 7.3-.2 9.9-.2 19.6-.2 29.3-.6 5.3-.2 10.6.3 14.7-.4 4.6-.8 9-6.4 10.3-10.3 0-8.4-.4-18.8-.4-27.2 0-3 .3-6.3-.2-8.6-1.2-5.2-6.1-7.5-10.1-9.8-30.8.4-63.5-1-92.5-1-.3 0-.5.1-.8.2-10.2 4-8.7 21.4-8.2 35.8.1 3.7-.2 7.9.6 10.5 1.5 5 6.3 9.2 11.9 10.1 2 .3 5.4-.2 6.5.6 1.6 1.2 1.2 7.1 1.5 9.8.4 3.8.9 7.5 1 10.3 5.4-4.4 10.8-9.3 16.3-14.2z"/><path class="st1" d="M402.6 310.5c0 .9-1 .9-1.7.6-.5-1.5 1.7-2 1.7-.6zm-10-.2v1c-.4.1-.6.5-1.3.4-1.1-.7.2-2.3 1.3-1.4zm-36 2.4c-.7.4-1.6.2-1.9-.4-.1-1.9 2.4-1.4 1.9.4zm19.9-1.5c.7 1.2-.9 1.9-1.7 1-.2-1.2.9-1.4 1.7-1zm5.2.8c-.5-.1-.4.4-1 .2-1.5-1.1 1.4-2.4 1-.2zm-15.6-.6c.1.9-.1 1.5-.8 1.5-.6.2-.4-.4-.8-.4-.4-1.2.9-1.6 1.6-1.1zm19.6 1.3c-2.7 1.6-.6-3.5 0 0zm10.3-.4c.5.9-.4 1.8-1.3 1.3-.2-.2-.2-.7-.2-1.3.3-.3 1.2-.3 1.5 0zm5.4 7.7c.3.6.6.8.6 1.3.3 3.8-6.2-1.5-.6-1.3zm-11.3.8c1.4 1.1.1 3.4-1.7 2.5-.9-1-.2-3 1.7-2.5zm-25.9 1.5c1.2 2.4-2 3.1-2.5 1.5-.4-1.3 1.1-2.6 2.5-1.5zm13.8-.2c.5 1.5-1.3 1.8-1.9 1-.1-1.1 1-1.4 1.9-1zm-23.5.8v1c-2 1.6-2.3-2.5 0-1zm74.9 3.7c-2.3-.9 1.4-4.4 2.1-1.9.2.8-.1 2.1-2.1 1.9z"/><path d="M271.8 88.5l-.6-.3c-7.6-4.4-16-7-24.4-9.5-6.2-1.8-12.7-2.7-19.2-3.3-10.1-1-20.1-.3-30 1.3-4.4.7-8.8 1.8-13.1 3.1-16.1 4.6-30.4 12.5-42.9 23.4a109.95 109.95 0 0 0-28.9 38.7 107.4 107.4 0 0 0-9.5 41.3c-.3 8.7.4 17.2 2.2 25.7 1.3 6 2.8 11.9 5.3 17.5.1.7.4 1.3.7 1.8 0 .5.2.8.5 1.1.1.3.1.7.3 1 5 11.3 11.7 21.7 20.2 30.8 11.4 12.3 24.8 21.7 40.4 28.2 21.8 9 44.3 11 67.5 6.6 13.3-2.5 25.7-7.4 37.2-14.4 4.2-2.6 8.5-3 13.1-1.8 7.1 1.9 14.2 3.7 21.3 5.6l9.1 2.4c.3-.5.1-.7 0-1-2.6-9.4-5.1-18.9-7.8-28.3-1.4-5-.8-9.5 2-14 10.3-16.5 15.8-34.4 16.5-53.7.5-14-1.5-27.7-6.3-41-7.6-20.9-20.4-38.1-38.4-51.6-4.5-3.4-9.2-6.5-14.2-9-.3-.4-.6-.6-1-.6z" fill="#fdfefe"/><path class="st4" d="M331.6 190.6c.5-14-1.5-27.7-6.3-41-7.6-20.9-20.4-38.1-38.4-51.6-4.5-3.4-9.2-6.5-14.2-9-.8.7-.9 0-1-.5l-.6-.3c-7.6-4.4-16-7-24.4-9.5-6.2-1.8-12.7-2.7-19.2-3.3-10.1-1-20.1-.3-30 1.3-4.4.7-8.8 1.8-13.1 3.1-16.1 4.6-30.4 12.5-42.9 23.4a109.95 109.95 0 0 0-28.9 38.7 107.4 107.4 0 0 0-9.5 41.3c-.3 8.7.4 17.2 2.2 25.7 1.3 6 2.8 11.9 5.3 17.5.1.7.4 1.3.7 1.8.7.1.6.6.5 1.1.1.3.1.7.3 1 5 11.3 11.7 21.7 20.2 30.8 11.4 12.3 24.8 21.7 40.4 28.2 21.8 9 44.3 11 67.5 6.6 13.3-2.5 25.7-7.4 37.2-14.4 4.2-2.6 8.5-3 13.1-1.8 7.1 1.9 14.2 3.7 21.3 5.6l9.1 2.4c.3-.5.1-.7 0-1-2.6-9.4-5.1-18.9-7.8-28.3-1.4-5-.8-9.5 2-14 10.4-16.5 15.8-34.5 16.5-53.8zM241 148.3c0 .1-.1.2-.1.3-.1 0-.2-.1-.2-.1 0-.1.1-.2.1-.3.1.1.2.1.2.1zm-14.2 17.6zm-9-38.4c4.8 0 9 4 9 8.7 0 5.2-4.4 8.7-9 8.8-5.3.1-8.8-4.4-8.7-8.9 0-4.8 3.9-8.6 8.7-8.6zm57.1 94.2c-6.7.8-13.4.3-20 .4-2.7.1-2.4-.3-2.4 2.3 0 4.9.1 9.7 0 14.6 0 4.6-2.8 8.2-7 9a8.91 8.91 0 0 1-10.9-8.7c-.1-5.6 0-11.2.1-16.7 0-1.2-.4-1.8-1.6-2.1-5.4-1.5-9.8-4.7-14.2-8-.7-.5-.8-1.9-1.8-1.6-.7.2-1.2 1.1-1.8 1.7-3.2 3-6.9 5.3-10.9 7-4.3 1.8-8.8 2.6-13.5 2.6-7.3 0-14.5-.5-21.8.1-6.8.5-13.3-.4-19.5-3.3-5.1-2.4-9.3-5.9-12.8-10.3-.3-.4-.7-.8-1-1.2-.7 0-.7-.5-.7-.9-.4 0-.8-.1-.3-.6-2.2-3.9-3.9-7.9-4.6-12.3-.3-2-.5-4.1-.5-6.2v-50.2c0-2.5.5-4.8 2.2-6.8 2.1-2.4 4.9-3.4 8.1-2.9 3.7.6 6.2 2.7 7.2 6.3.3 1.1.3 2.2.3 3.4v18.9c0 1.2.1 1.6 1.4.9 3.6-1.8 7.4-2.8 11.4-3.4 9.7-1.4 18.3.9 26 6.6 13.4 9.8 17.7 26.8 10.9 42-.2.4-.3.8-.5 1.1l.2.2c4.9-1.6 8-5 10-9.5.9-2.1 1.3-4.3 1.3-6.6v-25.6c0-2.9 2.7-6.5 6.1-7.4 3.3-.9 6.1-.2 8.6 1.6 2.2 1.6 3.1 4.1 3.1 6.8 0 1.3 0 2.7.1 4 .2 0 .3-.1.4-.2-.1.1-.2.1-.4.2 0 7.3-.2 14.6 0 21.9.2 5.4 2.7 9.7 7.2 12.8.3.2.6.7 1.1.5.5-.2.2-.7.2-1.1v-13.6c0-17.4 14-32.2 31.7-33.8 19.4-1.8 35.9 11.5 38.6 29.3 3.2 18.3-10.6 36.3-30 38.8zm-139.7-15.3z"/><path class="st4" d="M272 170.5c-8.7-1.1-17.2 4.9-19.1 13.5-.8 3.5-.2 7-.4 10.5v8.7c0 .9.2 1.4 1.3 1.4 5.7-.1 11.5.1 17.2-.1 8.8-.2 16.2-7.4 16.7-16 .4-9-6.2-16.8-15.7-18zm-106.9 0c-9.7 0-17.6 7.4-17.5 17.2 0 9.4 7.9 17.1 17.5 17.1 9.2 0 17.7-7 17.7-17.3-.1-9.6-7.8-17-17.7-17zM272.7 89c-.8.7-.9 0-1-.5.5 0 .8.2 1 .5zM241 148.3c0 .1-.1.2-.1.3-.1 0-.2-.1-.2-.1 0-.1.1-.2.1-.3.1.1.2.1.2.1z"/><path d="M217.6 146c-2.5 0-4.9-.9-6.6-2.7-2-1.9-3.1-4.6-3-7.3 0-5.3 4.4-9.5 9.8-9.6 2.6 0 5.2 1.1 7.1 3 1.9 1.8 3 4.3 2.9 6.8-.1 6.1-5.2 9.8-10.1 9.8h-.1zm.2-17.5c-4.2 0-7.6 3.4-7.7 7.5 0 2.2.8 4.3 2.4 5.8 1 1 2.7 2.1 5.2 2.1 3.9 0 7.9-3 7.9-7.7 0-1.9-.8-3.8-2.3-5.3a7.74 7.74 0 0 0-5.5-2.4z"/><path d="M135.2 206.4c.4.2.6.5.7.9-.8 0-.8-.4-.7-.9zm-.3-.6l.3.6c-.4 0-.9-.1-.3-.6z" fill="#45b0e6"/><path class="st4" d="M197.1 203.5c-.1.1-.2.2-.3 0 0 0 .1-.1.1-.2l.2.2z"/><path d="M243.6 249.2a9.89 9.89 0 0 1-10-10c-.1-5.5 0-11.1.1-16.8 0-.8-.1-.9-.8-1.1-5.7-1.5-10.1-4.7-14.6-8.2-.4-.3-.6-.7-.8-1.1-.1-.1-.1-.2-.2-.3-.2.1-.4.4-.6.6-.2.2-.4.5-.6.7-3.2 3-6.8 5.3-11.2 7.2-4.2 1.8-8.7 2.6-13.7 2.6h-.2c-2.1 0-4.3-.1-6.4-.1-5-.1-10.2-.2-15.3.2-7.4.6-13.9-.5-20-3.4-4.9-2.3-9.1-5.6-12.6-9.9l.1 1.2-1.3-2.3-.2.1-.2-.9-1-1.7c-2.6-4.6-4.1-8.6-4.7-12.6-.4-2.2-.5-4.3-.5-6.3v-50.2c0-3.2.8-5.6 2.5-7.5a9.5 9.5 0 0 1 9.1-3.2c4.1.7 6.9 3.1 8.1 7.1.4 1.3.4 2.6.4 3.7v18.8c3.5-1.7 7.3-2.8 11.6-3.4 9.8-1.4 18.8.9 26.8 6.8 13.5 9.9 18.1 26.8 11.6 42.3 3.3-1.6 5.7-4.3 7.4-8.1.8-1.8 1.2-3.9 1.2-6.2v-25.6c0-3.4 3.2-7.4 6.8-8.4 3.4-1 6.6-.4 9.6 1.8 2.3 1.6 3.5 4.3 3.5 7.6v10.7c0 5-.1 10.2.1 15.3.1 4.7 2.3 8.7 6.3 11.7v-13.2c0-17.8 14.4-33.2 32.7-34.9 19.4-1.8 36.9 11.4 39.8 30.1 1.5 9.3-1 18.7-7 26.4-6 7.7-14.5 12.6-24.1 13.9-4.5.6-9 .5-13.3.4-2.2 0-4.6-.1-6.8 0h-1.4v15.9c0 5-3.2 9.1-7.8 10-1 .3-1.7.3-2.4.3zm-26.2-39.5c1.1 0 1.6.9 1.9 1.4.1.2.2.4.3.5 4.3 3.3 8.5 6.4 13.8 7.8 1.6.4 2.4 1.4 2.4 3.1-.1 5.6-.1 11.3-.1 16.7 0 2.5 1.1 4.8 3 6.3 1.8 1.4 4.2 2 6.6 1.5 3.7-.8 6.1-3.9 6.1-8v-15.2c0-1 0-1.7.5-2.2.5-.5 1.2-.5 2.2-.5h.8c2.3-.1 4.7 0 6.9 0 4.3.1 8.7.1 13-.4 9-1.1 17.1-5.8 22.7-13 5.6-7.3 7.9-16.1 6.6-24.9-2.8-17.6-19.2-30.1-37.5-28.4-17.2 1.6-30.7 16-30.7 32.8v13.9c.1.3.2 1.4-.8 1.9s-1.8-.2-2-.5l-.1-.1c-4.8-3.4-7.5-8.2-7.6-13.6-.1-5.1-.1-10.3-.1-15.3v-10.6c0-2.7-.9-4.7-2.7-6a8.58 8.58 0 0 0-7.7-1.5c-3 .9-5.3 4.1-5.3 6.4v25.6c0 2.7-.4 5-1.4 7.1-2.3 5.1-5.7 8.4-10.5 10-.3.2-.6.3-.9.2-.2 0-.6-.1-.9-.6-.1-.2-.3-.7.1-1.3l.1-.2c.1-.3.2-.6.3-.8 6.7-14.8 2.5-31.2-10.5-40.7-7.5-5.5-16-7.7-25.2-6.4-4.1.6-7.8 1.7-11.1 3.3-.5.2-1.4.7-2.2.2-.8-.5-.8-1.4-.8-2.1v-18.9c0-1.2 0-2.2-.3-3.1-.9-3.1-3.1-5-6.4-5.6-2.8-.5-5.2.4-7.1 2.5-1.3 1.5-1.9 3.4-1.9 6.1v50.2c0 1.9.2 3.9.5 6 .6 3.7 2 7.5 4.5 11.9l.1.2.3.1v.2c.3.2.4.6.6.9.1.1.1.2.2.2.2.3.5.6.7.8 3.4 4.3 7.6 7.7 12.4 9.9 5.8 2.7 12 3.8 18.9 3.2 5.2-.4 10.4-.3 15.5-.2 2.1 0 4.2.1 6.4.1 4.8 0 9-.8 13-2.5 4.2-1.8 7.6-4 10.6-6.8.2-.1.3-.3.5-.5.5-.6 1-1.2 1.8-1.4.2.3.3.3.5.3zm-82.3-3.3l-.9.1.9-.1zm30-.5c-10.3 0-18.6-8.2-18.6-18.1 0-5 1.8-9.6 5.3-13 3.5-3.4 8.2-5.3 13.3-5.3 10.5 0 18.7 7.9 18.7 18.1 0 4.9-1.9 9.5-5.4 12.9a19 19 0 0 1-13.3 5.4zm0-34.3c-4.5 0-8.7 1.7-11.8 4.7-3 3-4.7 7.1-4.7 11.5 0 8.8 7.4 16 16.4 16 4.4 0 8.7-1.7 11.8-4.8 3.1-3 4.7-7.1 4.7-11.4.1-9.1-7-16-16.4-16zm88.6 34.1c-.3 0-1.1 0-1.7-.6-.5-.5-.6-1.2-.6-1.9v-8.7c.1-1.3.1-2.6 0-3.9-.1-2.2-.1-4.5.4-6.8 2-9.3 11-15.6 20.3-14.4 10 1.3 17.1 9.5 16.5 19.2-.5 9.1-8.5 16.7-17.7 17-3.5.1-7 .1-10.4.1h-6.8c.1 0 0 0 0 0zm-.1-2.1h7.1c3.4 0 6.9 0 10.3-.1 8.2-.2 15.2-6.9 15.6-15 .5-8.5-5.8-15.8-14.7-17-8.3-1.1-16.1 4.5-17.9 12.7-.4 2-.4 4.1-.3 6.3 0 1.3.1 2.7 0 4.1v8.7c-.1.1-.1.2-.1.3z"/><path transform="rotate(-89.84 147.52 170.12)" d="M129.9 169h35.3v2.2h-35.3z"/><path d="M166.4 223.3h-1.3l.1-2.1c18.9.8 30.7-18 30.8-18.2l1.8 1.1c-.1.2-3.1 5.1-8.7 9.9-6.9 6.1-14.7 9.3-22.7 9.3zm32-1l-.6-2c13.3-4.1 22-11.5 25.8-22.2 2.8-8 1.7-14.9 1.7-15l2.1-.3c.1.3 1.2 7.4-1.8 15.9-2.7 7.8-9.7 18.3-27.2 23.6zm56.7-16.7c-19.1 0-22.3-2.5-22.6-4l2.1-.3c0-.2-.1-.3-.1-.3.1.1 2.2 2.5 20.6 2.5v2.1zm.7 17.6c-13.5 0-22.9-1.9-23-1.9l.4-2.1c.1 0 11 2.2 26.1 1.8l.1 2.1c-1.2.1-2.4.1-3.6.1z"/><path d="M217.1 298.9c-15.3 0-30.3-3-44.7-8.9-15.5-6.4-29.2-15.9-40.7-28.4-8.4-9-15.2-19.5-20.3-31-.1-.3-.2-.6-.2-.9v-.1c-.4-.4-.6-.8-.6-1.3-.4-.6-.6-1.2-.7-1.8-2.7-6.2-4.3-12.6-5.3-17.5-1.8-8.4-2.5-17.1-2.3-25.9.5-14.4 3.7-28.4 9.6-41.6 6.7-14.9 16.5-28 29.1-38.9 12.7-11 27.3-19 43.2-23.6 5.1-1.5 9.3-2.5 13.2-3.1 10.8-1.8 20.7-2.2 30.2-1.3 5.8.6 12.6 1.4 19.4 3.3 8.6 2.5 17 5.1 24.6 9.5l.5.2c.5.1.9.3 1.2.7 4.5 2.2 9 5.1 14.2 9 18 13.6 31 31.1 38.6 52 4.7 13.1 6.9 26.9 6.4 41.3-.7 19.4-6.3 37.6-16.6 54.1-2.7 4.3-3.3 8.6-1.9 13.4 1.9 6.7 3.8 13.5 5.6 20.1.7 2.7 1.5 5.4 2.2 8.1v.1c.1.3.3.9-.2 1.6l-.3.5-3.4-.9c-2.1-.5-4.2-1.1-6.3-1.6-7.1-1.9-14.2-3.7-21.3-5.6-4.5-1.2-8.6-.6-12.5 1.7-11.6 7.1-24.2 12-37.5 14.5-7.8 1.5-15.6 2.3-23.2 2.3zm.6-223.2c-6.4 0-13 .6-20.1 1.7-3.8.6-7.9 1.6-13 3.1-15.8 4.5-30.1 12.4-42.6 23.2a111.05 111.05 0 0 0-28.7 38.4 108.56 108.56 0 0 0-7.3 66.5c1 4.9 2.6 11.2 5.3 17.3v.2c.1.5.3 1 .6 1.5l.1.2v.3c0 .1 0 .2.2.4l.2.2.1.2c0 .1.1.2.1.4s.1.4.1.5c5 11.4 11.8 21.7 20 30.6a113.7 113.7 0 0 0 40.1 28c21.3 8.8 43.8 11 67 6.6 13.1-2.5 25.5-7.3 36.9-14.3 4.2-2.6 8.7-3.2 13.7-1.9 7.1 1.9 14.2 3.7 21.3 5.6 2.1.6 4.2 1.1 6.3 1.6l1.8.5c-.7-2.6-1.4-5.3-2.2-7.9-1.8-6.6-3.6-13.4-5.6-20.1-1.5-5.3-.8-9.9 2.1-14.7 10.1-16.2 15.7-34.1 16.4-53.3.5-14.1-1.6-27.8-6.3-40.7-7.5-20.6-20.3-37.8-38.1-51.3-5.2-3.9-9.7-6.8-14.1-8.9l-.1-.1-.1-.1c-.1-.2-.3-.2-.5-.3h-.1l-.8-.4c-7.5-4.4-15.8-6.9-24.3-9.4-6.6-1.9-13.4-2.7-19.1-3.3-2.8-.1-6-.3-9.3-.3z"/><ellipse cx="218.2" cy="135.6" rx="8.3" ry="8.1" fill="#fbe03c"/></svg>