<svg xmlns="http://www.w3.org/2000/svg" viewBox="0 0 559 520"><style>.st3{fill:#432918}.st5{fill:#383d61}.st7{opacity:.4;fill:#2fb2e6;enable-background:new}.st9{fill:#52bfeb}.st12{fill-rule:evenodd;clip-rule:evenodd}</style><g id="Layer_1"><path d="M192.8 151.4c-.8.3-1.7.7-2.5 1C152 167.9 118.9 192 97.9 228c-3.6 6.1-6.9 12.7-7.4 21.3-.4 7 1.3 15.5 5.6 23.7 1.4 22.8 8.9 48.7 26.8 71.5 22 28 54.1 43.3 78.4 43.9 13.3.3 24.9-3 36.3-6.5 37.9-11.4 75.1-24 111.5-37.7 3.5-1.3 7.1-2.7 10.6-4.1 24.1-9.5 47.3-20.3 64.8-38.4 7.6-7.8 14-16.9 23.3-22.5 7.6-4.6 17-6.7 23.2-12.9 5.4-5.2 8.3-13.1 10-21.7 2-10.4 2.4-22.4-1.4-35.6-3.8-13.2-12-27.8-23.3-38.3-10.9-10.2-23.3-15.6-34.7-24.8-7.1-5.8-13.8-13.3-21.3-17.7-7.8-4.7-15.3-5.3-22.2-5.5-21.2-.8-41.5.7-61.4 2.7-43.7 4.3-86.2 11.2-123.9 26" fill="#cfebf6"/><path d="M204.6 311.8c-7.3-1.9-14.7-3.9-22-5.8l-8.1-2.1c-6.2-1.6-12.4-3.3-18.4-5.6-.4-.2-.8-.3-1-.7-.1-.3-.1-.6 0-.9.9-5.5 1.7-11.1 3.3-16.4.6-2.2 1.4-4.4 1.9-6.6.5-2.3.7-4.6.9-7 .2-2.2.3-4.5 1.2-6.5.2-.4.4-.7.7-.9.3-.1.6-.1.9-.1 6.4.4 12.9.9 18.9 3.2 1.8.7 3.5 1.5 5.3 2.2 1.7.6 3.6 1.1 5.4 1.5 5.6 1.3 11.3 2.5 16.9 4 2.4.7 5.2 1.7 6 4.1.4 1.1.3 2.4.1 3.5-1.6 11.9-6.5 23.2-11.3 34.2" fill="#2fb2e6" opacity=".4"/><path class="st3" d="M185.3 317.6c-.1-.2-.3-.4-.5-.6l-.1-.1c-.1-.1-.1-.1-.2-.1-.8-.5-2-.6-2.7.1-.3.4-.7.6-.8 1.1s.3.9.6 1.1c.8.6 2.1 1.1 3.1.8.6-.2 1.2-.6 1.1-1.3 0-.4-.2-.7-.5-1zm-.8 1.7c-.7.2-1.6-.2-2.2-.5-.2-.2-.5-.4-.6-.7-.1-.3.5-.7.7-.9.4-.4 1.2-.3 1.8 0v.1c.2.4.5.7.8 1 .4.5 0 .9-.5 1z"/><path class="st3" d="M218 273.5h-.2c-.2-.4-.3-1.1-.7-1.4v-.1c-.3-.2-.5-.4-.7-.6-2.2-.6-4.4-1.2-6.6-1.7l-1.5-.3c-1-.4-2-.7-3-1-.8-.3-1.5-.4-2.3-.4-.7-.3-1.4-.6-2.1-.8-.7-.2-1.4-.5-2.1-.7-.6-.2-1.4-.4-2.1-.4-.3-.1-.6-.2-.9-.4-2.3-.9-4.6-1.4-6.9-2.1-.9-.3-1.8-.5-2.7-.8 0-.1-.1-.1-.1-.2-.1 0-.2-.1-.2-.1a.3.3 0 0 0-.4 0l-10-3c-2.1-.6-4.3-1.3-6.4-1.8-2.2-.5-4.3-1.1-6.5-1.5-.3-.1-.4.3-.2.4-.1 0-.2.1-.3.2-.2.3-.6.6-.9.7-.3.2-.1.5.2.5-.8 2.9-.9 5.9-1.5 8.8-.6 3.4-1.5 6.7-2.1 10.1-.9 5.1-2.4 10.1-3.9 15.1-.1.1-.1.2-.1.3-.1.2-.1.4-.2.6-.1.1-.2.3-.4.4-.1.1-.1.4.1.4-.4 1.3-.8 2.6-1.1 4-1 1.2-3 1.7-4.4 2.2-1.8.6-3.6 1.4-5.4 2-4.1 1.3-8.3 2.7-12.3 4.3v-.1c-.1-.1-.3-.2-.5-.2s-.3 0-.4.2c-.3.8-.9 1.8-.6 2.7-.1.1-.1.2 0 .3.2.1.3.2.5.3.3.1.4-.1.4-.4 1 .4 2.1.6 3.1.9 1.2.3 2.4.7 3.6 1.1 2.4.7 4.9 1.5 7.3 2.3 4.8 1.6 9.5 3.6 14.5 4.7 10.2 2.4 20.3 5.3 30.5 8 .1 0 .3 0 .3-.1.9 0 2-.6 2.8-1 1.4-.7 2.7-1.6 4-2.5 2.7-2 5.4-4.2 8.5-5.6.1-.1.2-.1.2-.2.2-.2.3-.5.4-.9.2-.6.2-1.2.3-1.8.1 0 .2-.1.3-.1s.2-.1.2-.2c.1 0 .3-.1.4-.2l.1-.1.3-.2.3.1c.2 0 .3-.1.2-.2.1 0 .2-.1.3-.2.1-.2.1-.4.2-.7.4-.7.5-1.4.6-2.2 3.3-11.9 6.8-23.8 9.9-35.8l.2-.6zm-7.3-1.6l1.8.3c.5.2 1 .5 1.4.7-1.2-.2-2.4-.6-3.6-1h-.1c0-.1-.1-.2-.2-.2.2.1.5.1.7.2zm-2.4-1.1c.4.4.9.6 1.4.8-.5-.1-.9-.3-1.4-.4-.3-.1-.6-.3-.9-.4-.1-.1-.3-.1-.5-.3.4.1.9.2 1.4.3zm-7-2.3h-.1c-.2 0-.5-.1-.7-.1v-.1c.2 0 .5.1.8.2zm-4.8-1.8l.9.3c-.3-.1-.7-.2-1-.2 0 0-.1 0-.1-.1h.2zm-1.3 1.1c.1 0 .1-.1.1-.1.2.1.3.2.5.2 0 .1.1.1.2.1.5.1 1.1.3 1.6.4.2.1.3.2.5.3-1-.3-1.9-.5-2.9-.9 0 .1 0 .1 0 0 0 .1 0 0 0 0zm-1.2-.5h.6l-.3.3c-.1-.1-.3-.2-.3-.3zm-5.2-3.1c-.3 0-.7.1-.9.3-.1.1-.2.3-.2.5 0 .1-.1.1-.1.2-.1.3.2.4.4.4l.2.2c.5.4 1.2.1 1.6-.3.1-.1.1-.2 0-.3-.1-.2-.2-.4-.4-.5 0-.2-.1-.3-.2-.4 1.2.4 2.5.7 3.7 1.1-.2.6-.3 1.2-.5 1.8-.5-.2-1.1-.3-1.6-.5-1.8-.5-3.6-1.1-5.5-1.6 0-.2.1-.4.1-.5.1-.4.2-.9.3-1.4 1.2.4 2.2.7 3.1 1zm-3.5-1c-.1.1-.2.1-.3.2v-.3c.1 0 .2 0 .3.1zm-1.4 1.6c.2 0 .3 0 .4-.1.1.1.2.1.3.1s.1 0 .2-.1c0 .1-.1.2-.1.3-.2-.1-.4-.1-.5-.2h-.3zm-.5-1.1c.2-.1.3-.2.4-.4 0 0 0 .1.1.1 0 .2-.1.4-.2.5 0 0 0 .1-.1.1h-.3c0-.1 0-.1.1-.3-.1.1-.1.1 0 0-.1.1 0 .1 0 0zm-3.6-.1c-.6-.1-1.1-.3-1.6-.5.5.1 1.1.3 1.6.5zm-6.2-2.6l1.1.3h-.3s-.1 0-.1-.1c-.7-.3-1.6-.5-2.4-.6-.5-.2-1.1-.4-1.6-.7 1 .5 2.1.8 3.3 1.1zm-4.6-2.4c-.2 0-.4 0-.5-.1v-.1c.2 0 .3.1.5.2zm-.6.9c-1-.1-2.1-.4-3.1-.7 1.1.2 2.1.4 3.1.7zm-3.8.4c1.7.6 3.5 1 5.3 1.3 2.7.8 5.3 2 8 2.7h.2c1.9.7 4 1.2 6 1.7.2.1.4.1.6.2 0 .1 0 .1.1.2s.2.1.3.1.1-.1.1-.1c2 .6 4 1.1 6 1.7 2.3.7 4.7 1.4 7 2l5.4 1.5c.1 0 .2.1.2.1l.1.1.1.1c.1.1.2.2.3.2.2.2.4 0 .5-.2.1 0 .2 0 .2.1 2.1.7 4.1 1.5 6.2 2 .6.2 1.5.5 2.3.5l.1.1c.2 0 .3.1.4.1-.9 2.7-1.1 5.6-1.8 8.4l-2.7 10.1-2.7 10.1-1.2 4.5a6.71 6.71 0 0 1-1.4 2.8c-.1 0-.2.1-.2.1.1-.1-.2-.1-.4-.1l-.9-.3c-.7-.2-1.3-.4-2-.7-1.9-.6-3.7-1.3-5.6-1.9-2.3-.8-4.8-1.3-7.1-1.9-2.5-.7-5-1.3-7.5-2-4.4-1.2-8.6-3.3-13.1-4.3-1.2-.3-2.5-.5-3.7-.7-.6-.2-1.2-.4-1.7-.6-1.6-.5-3.1-1.1-4.8-1.5-.2-.2-.5-.3-.7-.5h-.1c1.1-2.6 1.3-5.6 1.8-8.4.6-3.5 2.1-6.8 2.4-10.3.2-1.8.3-3.5.7-5.3.4-2.1 1-4.1 1.6-6.2.3-1.2.5-2.5.8-3.8.1-.3.5-1.1.4-1.6v-.1c.3-.1.4-.2.5-.2zm38.4 52.3c-.5 0-1-.1-1.4-.2.4.1.7.1 1.1.1.1 0 .2.1.3.1zm-7.4-3.2c.3 0 .6.1.8.2s.4.1.6.2h-.6c-.2-.2-.5-.3-.8-.4zm-.2 1.4c-.9-.3-1.8-.7-2.7-1l.1-.1c.6.2 1.2.3 1.8.5.3.2.6.4.8.6zm-6-3.9l-.1.1-1-.3c.4 0 .8 0 1.1.2zm-2.1-.5c-1.8-.5-3.6-1.1-5.4-1.7l5.7 1.5h-.1l-.2.2zm-.3 1.4c-.3-.1-.5-.1-.8-.2v-.2c.2.1.5.2.8.4zm-21.5-7.9c.5 0 1 .3 1.5.4.3.1.6.1.9.2v.2h-.2c-.7-.4-1.6-.5-2.2-.8zm1.2 2.1c-.4-.2-.7-.3-1.1-.5h.6c0 .1.1.1.2.2l.3.3zm.5 0c2 .7 3.9 1.6 6 1.9l1.2.6-6.3-2.1-1-.3.1-.1zm4.6-.7l4.2 1.5h-.5c-1.1-.4-2.3-.7-3.4-1.3 0 0-.2-.1-.3-.2zm2.7 1.8c.4.1.8.3 1.2.4l.3.3c-.3-.1-.6-.2-1-.4-.2-.1-.4-.2-.5-.3zm-14-2.9l-1.8-.6s.1 0 .1-.1c.5.3 1.1.5 1.7.7zm-1.2-25.7c0 .1 0 .1.1.1-.2.5-.4 1-.5 1.5.2-.9.3-1.7.5-2.6h.1c-.1.4-.2.7-.2 1zm3.1-10.3c.3-.5.5-1 .6-1.5.2-.4.3-.9.4-1.3 0-.3-.3-.4-.5-.3l-.1.1c0-.1.1-.2.1-.2l.3-.3c0 .2.1.4.3.4l-.9 4c-.3.1-.6.3-.9.5.1-.3.4-.5.7-.7.3-.4.2-.6 0-.7zm-3.4 12.4c0 .1 0 .2.1.2-.2.2-.4.4-.5.6.1-.4.2-.8.2-1.1 0 .1.1.2.2.3zm-.3 2c-.1.3-.3.6-.4.9v.1c0 .1 0 .2.1.3-.3.4-.5.8-.5 1.3 0 .1.1.3.2.3-.2.2-.3.4-.5.5.3-1.1.5-2.1.7-3.2 0-.1 0-.2.1-.3 0 .1.1.2.3.1zm1.2.3c0 .2-.1.4-.1.6-.1 0-.1 0-.2.1-.3.4-.7.7-1.1 1 .4-.7 1-1.2 1.4-1.7zm-.2-.7c.2-.2.3-.4.4-.7 0 .2-.1.4-.1.7h-.3c.1 0 .1 0 0 0zm-3.1 16.2c-.1.3-.2.6-.3 1 0-.2-.2-.3-.4-.2l-.6.3c.4-.4.9-.7 1.3-1.1zm-.1-.7c.1-.1.2-.2.2-.4 0 0 .1 0 .1-.1h.1c0 .2-.1.3-.1.5-.1-.1-.2-.1-.3 0 0-.1 0-.1 0 0zm.3-2.5c0 .1 0 .1-.1.2h-.2c.2-.2.4-.5.5-.8.1-.1-.1-.3-.2-.4h-.2c.2-.1.4-.3.6-.5l.1-.1c.3-.3-.1-.6-.4-.4-.2.1-.3.2-.5.3.3-.3.7-.6 1.1-.8 0 .8-.5 2.1-.7 2.5zm.9-6.2c.2-.1.5-.2.7-.4-.1.3-.2.6-.2.9-.1-.1-.3-.2-.4-.1-.4.3-1.1.6-1.4 1.1.1-.2.1-.5.2-.7.1-.2.3-.4.4-.5.1 0 .2 0 .2-.1.2-.1.3-.2.5-.2zm-.2-.5c.3-.4.8-.8 1.3-1.1-.1.3-.2.6-.2.9 0-.1-.1-.2-.2-.1-.3 0-.6.1-.9.3zm-1.7 8.1c-.1.2-.1.4-.2.5-.4.2-.8.4-1.1.6h-.2c0-.1 0-.2.1-.3.4-.3.9-.6 1.4-.8zm-1-.7c.1-.2.1-.5.2-.7.4-.1.8-.3 1.1-.3-.2.4-.7.7-1.3 1zm1.5-3.3c.3-.2.6-.4.9-.5-.1 0-.1.1-.1.1a3 3 0 0 1-.8.4zm1.5-1.4c-.4-.1-.8 0-1.2.1.1-.5 1.1-1.1 1.5-1.4-.1.3-.1.6-.2.9 0 .2 0 .3-.1.4zm1.2-4.5h-.1c-.3.2-.6.3-.9.4.3-.5.8-1 1.3-1.4-.1.3-.2.6-.3 1zm.7-5.8c-.1.4-.4.6-.7.8.2-.2.5-.5.7-.8zm-2.2 6.9c-.3.3-.6.7-.6 1.2l-.1.1c.2-.7.4-1.4.5-2.1h.1c-.1.2-.2.3-.2.5-.1.2.1.4.3.3zm-3.9 12.7c.2 0 .3-.1.5-.1-.2.1-.4.3-.6.4 0-.1 0-.2.1-.3zm.7-1.8c.1-.2.3-.3.5-.5.2-.1.4-.2.7-.3v.2c-.5.3-.8.4-1.2.6zm1.8.9c-.1.1-.1.3-.2.4-.6.2-1.1.5-1.6.7.6-.4 1.3-.6 1.8-1.1zm-1.1 2.6c.3.2.7.3 1.1.4h.1c-.7-.1-1.4-.3-1.8-.5.2.1.4.1.6.1zm5.2-21.6v.2c-.1-.1-.2-.1-.3 0 .1-.1.2-.3.3-.4.2-.2 0-.4-.2-.5 0 0 0-.1.1-.1.2-.3-.1-.6-.4-.5.1-.2.1-.4.2-.5.1 0 .2-.1.2-.1.1-.2.3-.3.4-.5l-.3 2.4zm.4-5c-.3.3-.5.6-.8.9.3-.5.7-.9 1.2-1.4.3-.3-.1-.6-.4-.4l-.1.1c0-.2.1-.4.1-.5.4-.2.5-.5.6-.9 0-.1 0-.3-.2-.3.3-.5.5-.9.6-1.5.2-.2.3-.4.4-.6l-1.2 4.6c.1-.1-.1-.1-.2 0zm2.9-14.1h.1s0 .1.1.1l.1.1c0 .1 0 .2.2.3h.2l.3.3c-.2.1-.4.1-.6.2 0-.2 0-.3-.1-.4h-.1v-.2c.1-.4-.4-.6-.5-.3l-.2-.2c.2.1.4.1.5.1zm-2 4.8h.3c-.2.3-.4.7-.5 1.1 0-.4.1-.7.2-1.1zm-1.1 6.2c.2-1 .3-2 .5-3.1h.3v.6c-.2.4-.4.8-.4 1.3-.2.4-.4.8-.4 1.2 0-.1 0 0 0 0zm-.2 1.1v.3c-.2.5-.3 1.2-.4 1.7 0 0 0 .1-.1.1.2-.7.3-1.4.5-2.1zm-22 41.6h.3c.6.2 1.1.3 1.7.5.1.1.2.2.3.2-.8-.2-1.6-.5-2.3-.7zm5.8.8c-.6-.2-1.2-.3-1.8-.5.1-.1.1-.1.1-.2.6.2 1.2.4 1.7.7zm1.5-.1c.6.2 1.1.4 1.7.6l-1.2-.3c-.1 0-.3-.2-.5-.3zm1 2c.4.1.7.1 1.1.2l.6.3c.2.1.4.3.6.4-.8-.3-1.6-.6-2.3-.9zm1.2-.6c.4.1.8.2 1.1.3-.2 0-.5-.1-.7-.1-.1 0-.2-.1-.4-.2zm1.5 1.6l2.1.6c.1 0 .3.1.4.1 0 .1.1.2.1.2-.8-.2-1.7-.6-2.6-.9zm3.2-.6l1.1.3h-.6c-.1-.1-.3-.2-.5-.3zm2.2 2.4l-1-.3c-.3-.1-.5-.3-.8-.5.9.3 1.7.6 2.6.9-.2.1-.5 0-.8-.1zm4.8 1.3c.5.1 1 .2 1.5.4-.5-.2-1-.3-1.5-.4zm1.3-1.4c-.3-.1-.5-.2-.7-.4l1.4.3c0 .1 0 .1.1.2-.3 0-.6-.1-.8-.1zm-2.4-1.6c-1.9-.4-3.8-.9-5.6-1.4-1.2-.3-2.4-.7-3.6-1.1 0 0 .1 0 .2.1.1 0 .2 0 .3-.1.9-1.1 2.5-2.2 3.9-2.5.2 0 .2-.2.2-.3 2 .6 4.1 1.1 6.1 1.8l3 1.2c.9.3 1.9.4 2.9.5 1.7.2 3.2.6 4.9 1.1.6.2 1.3.5 1.9.7.1 0 .1 0 .2.1-.9 1-2.5 1.6-3.6 2.2-.2.1-.2.2-.2.4-1.5-.4-3.1-.8-4.7-1.1-1.9-.9-3.8-1.6-5.9-1.6zm9.8 4.5c0-.1 0-.1-.1-.2.2 0 .3 0 .5-.1 0 0 .1 0 .1-.1.5.2.9.4 1.4.6-.6 0-1.2-.1-1.9-.2zm1.9 1l1.7.3c-.6 0-1.2-.2-1.7-.3zm15.6 3.8c-.1 0-.3-.1-.4-.1 0-.2 0-.4-.2-.4.3.1.6.1.9.2l.3.3h-.6zm-1.6-2.2c.6.1 1.1.3 1.7.5-.6-.2-1.2-.3-1.7-.5zm2.9 3.1c.1 0 .2-.1.2-.2s.1-.2.1-.3c.1.1.2.1.3.1 0 .1-.1.2-.1.2 0 .1 0 .2.1.3-.2.1-.4 0-.6-.1zm1.5-1.4c0 .1 0 .1 0 0s0-.2-.1-.3v-.2h.1v.1h.5v.2c-.3 0-.5.1-.5.2zm2.5.8c-.1.1-.2.1-.3.2.2-.2.3-.4.5-.7v.3c-.1.1-.2.1-.2.2zm3.2-2.3c0 .1-.1.1-.1.2l-.4.4c-.4.3-.7.5-1.1.7 0-.1 0-.1.1-.2l1.2-.9c.1-.1.2-.2.3-.2 0-.1 0-.1 0 0 0-.1 0 0 0 0zm2.3-.7c-.5.4-1 .7-1.5 1.1.2-.2.4-.4.5-.6.5-.3 1-.6 1.6-.9-.2.1-.4.2-.6.4zm7.5-6.3a.3.3 0 0 0-.4 0v-.1l.6-.3c-.1.2-.2.3-.2.4zm-4.5 1.5c-2 1.3-4 2.5-6 3.6-1.1.6-2.2 1.3-3.2 2.1-.2-.2-.5-.1-.6.1v.1c-.1 0-.1 0-.2-.1-.2 0-.4.1-.4.2l-.9-.3c-.2-.2-.4-.4-.8-.4-.1 0-.2 0-.3.1-1.3-.4-2.6-.8-3.9-1.1-1.5-.6-3.1-.8-4.7-1.1l-1.2-.3c-1.1-.9-2.7-1-4.2-1.1-.3 0-.6-.1-.9-.1-.9-.2-1.8-.4-2.7-.7 1.3-.7 2.9-1.3 3.8-2.5h.3c.2 0 .3-.3.1-.4-.3-.3-.8-.4-1.1-.5-.6-.2-1.3-.5-1.9-.7-1.5-.5-2.9-.9-4.5-1.1-1.2-.1-2.3-.3-3.4-.6-1-.3-2-.8-3-1.1-2.1-.7-4.4-1.4-6.6-1.9-.3-.1-.5.4-.2.5-1.4.4-2.9 1.4-3.8 2.6h-.2c-.2 0-.3.1-.3.3v.2l-3.3-1.2a84.6 84.6 0 0 0-9.8-2.9c-.1-.1-.3-.2-.4-.3-.3-.2-1-.5-1.3-.2-.9-.2-1.9-.5-2.8-.7 4.1-1.6 8.2-2.9 12.3-4.3 1.8-.6 3.6-1.4 5.5-2 1.2-.4 2.6-.9 3.6-1.8.2.1.4 0 .4-.2v-.1c2.5.7 5 1.5 7.5 2.3l7.2 2.1c.3.2.7.3 1.1.4.6.2 1.2.4 1.8.5 1.6.6 3.3 1.1 4.9 1.6 1.8.5 3.6.8 5.3 1.2 1.1.5 2.4.9 3.6 1.2.8.3 1.5.7 2.3 1 1.2.4 2.5.6 3.8.8 1.4.3 2.6.8 3.9 1.3a67.8 67.8 0 0 0 8.3 2.4c.4.1 1 .3 1.7.5-1.6.6-3.2 1.6-4.8 2.6zm5.6-3.4c-.2-.1-.5-.1-.7-.2.2 0 .3-.1.5-.1h.1v.1l.1.2c0-.1 0-.1 0 0zm7.3-27.2c-.4 1.7-.8 3.4-1.3 5 .4-1.7.8-3.4 1.3-5zm-6.9 26.1c0-.2.1-.4.2-.5 0 .1-.1.3-.1.4l-.1.1zm9.4-40c-.9-.3-1.7-.6-2.6-.9 1.4.4 2.8.7 4.2 1.1h.1v.3c-.6-.2-1.1-.4-1.7-.5zm-.7 8.8c.2-.8.5-1.6.8-2.4v.1l-.3 1.5c-.2.2-.4.5-.5.8zm-1 4.6c0-.1.1-.2.1-.3-.1.3-.1.7-.2 1l-.3 1c.2-.6.3-1.2.4-1.7zm-1.3 6c0-.1 0-.2.1-.3v-.2c.1-.4.3-.9.4-1.3l.1.1c-.2.6-.4 1.2-.6 1.7zm4.7-16.1c.1-.1.1-.2.2-.3l.1-.1c-.1.6-.5 1.2-.7 1.8 0-.5.2-1 .4-1.4zm-7.7 28.7c.1-.4.2-.8.2-1.2h.1l-.3 1.2zm2.7-9.7c0-.1 0-.1 0 0-.1-.2-.1-.3-.2-.3 0-.1.1-.3.1-.4.3-.4.5-.9.7-1.3l-.6 2zm2.2-7.5c0-.2.1-.3.1-.5.3-1.1.6-2.2 1-3.2-.4 1.2-.8 2.5-1.1 3.7zm2.3-8.3c0-.2-.3-.3-.5-.2 0-.2.1-.3.1-.5.1.2.3.2.5.1l.1-.1c-.1.2-.1.5-.2.7z"/><path class="st3" d="M197.6 313.2c-3.9-1.1-7.8-2.3-11.7-3.5-4-1.3-8-2.4-12-3.6-1.7-.5-3.3-1.3-5-1.7-2-.5-3.9-1-5.9-1.6-1.8-.5-3.5-1.3-5.2-1.8-1.5-.4-3-.6-4.6-.8v-.1c.1-.3-.4-.4-.5-.1-.1 0-.1.1-.2.1-.2 0-.4.1-.3.3-1.8.8-3.7 1.5-5.5 2.3-.2 0-.4-.1-.6-.1s-.3.2-.2.4c-.8.2-1.8.5-2.1 1.3-.1.2 0 .4.2.4h.2s.1 0 .1.1c3.9 1.2 8 2 11.8 3.3 3.8 1.3 7.4 2.9 11.4 3.6 1.8.3 3.6.6 5.3 1.2s3.4 1.3 5.2 1.7l5.6 1.5c1.7.5 3.3 1.2 4.9 1.7h.1c.1 0 .2.1.3.1h.5c.3.1.4-.4.1-.5 0 0-.1 0-.1-.1 1.1-.6 2.4-.9 3.6-1.2 1.6-.5 2.9-1.6 4.6-1.8.3 0 .3-.3.2-.5.1-.2.1-.5-.2-.6zm-11.6-2.8c1.8.6 3.6 1.2 5.4 1.7-.1.1-.3.2-.4.3-1.9-.5-3.7-1.2-5.6-1.8.2-.1.4-.2.6-.2zm4.1 2.5c-.7.3-1.4.5-2.2.7-1.5-.5-3-1.2-4.6-1.7-.2-.1-.3-.1-.5-.1.5-.3 1.1-.6 1.6-.8 1.9.6 3.8 1.3 5.7 1.9zm-11.2-4.7l6 1.8c-.2.1-.3.1-.4.2-.2-.1-.4-.1-.6-.2-1.7-.6-3.4-1.1-5-1.8-.1.1 0 .1 0 0zm4.4 2.3c.1 0 .2.1.3.1-.6.3-1.1.6-1.6.9-1.8-.6-3.7-1.1-5.6-1.6l1.7-1.1c1.7.5 3.5 1.1 5.2 1.7zm-25.1-5.4c.6-.2 1.3-.7 1.9-1.1.1 0 .1.1.2.1.5.2 1.1.6 1.7.7.9.1 1.8.2 2.8.4-.8.4-1.6.7-2.4 1.1-.2.1-.3.2-.5.2-1.2-.3-2.3-.7-3.4-1.1-.3-.1-.5-.2-.8-.2.3 0 .4-.1.5-.1zm-.2-.6c-.4.2-.8.3-1.2.4-1.4-.4-2.7-.8-4.1-1.1.6-.3 1.2-.7 1.9-.9.4.1.8.2 1.3.3.7.2 1.4.2 2.1.2.5 0 1 .2 1.5.4-.6.2-1 .5-1.5.7zm8 1c1.4.3 2.8.7 4.2 1.1-.7.3-1.5.8-2.1 1.1-.1 0-.2.1-.2.1-.9-.1-1.7-.3-2.6-.4-.8-.1-1.6-.3-2.3-.5 1-.5 2-1 3-1.4zm5.2 1.3c.1 0 .1 0 .2.1 2 .5 3.9 1.1 5.8 1.6l-1.7 1.1-4.4-1.2c-.7-.2-1.5-.3-2.2-.5.7-.4 1.5-.8 2.3-1.1zm2.8 0c1.2.4 2.4.7 3.6 1.1v.1c-1.8-.5-3.6-1.1-5.4-1.5v-.3l1.8.6zm-6.4-2.1l1 .3c1.1.3 2.1.7 3.1 1.1-.2 0-.4.1-.6.2-1.4-.4-2.8-.8-4.3-1.1.3-.3.6-.4.8-.5zm-5.2-1.5c.2.1.5.1.7.2 1.2.3 2.4.6 3.6 1-.3.1-.5.3-.8.4-1.6-.4-3.4-.4-4.9-1.1.4-.1.7-.2 1.1-.1.1 0 .2-.2.3-.4zm-4.5-1.3c.1 0 .2-.1.2-.2 1.1.3 2.2.8 3.3 1.2-.4.1-.9.2-1.3.4-1.2-.4-2.3-.6-3.6-.7-.3 0-.6-.1-.9-.2.7-.2 1.5-.2 2.3-.5zm-5-1.2c1.2.3 2.6.4 3.9.7-.8.1-1.6.4-2.4.8-1-.3-2-.7-3-.8.5-.3 1-.5 1.5-.7zm-2.3.9c.9.4 1.9.7 2.9 1l-.6.3-1.2.6c-1.3-.3-2.6-.6-3.9-.8 1-.3 1.9-.7 2.8-1.1zm-6.1 2.4c.4-.3 1.2-.5 1.6-.6.2-.1.5-.2.7-.3.7.2 1.5.3 2.2.4.6.1 1.3.2 1.9.4-1.1.5-2.3.9-3.4.8-1-.2-2-.4-3-.7zm9.7 2.6c-1.3-.4-2.6-.7-3.9-1.1l-1.2-.3c.1 0 .2-.1.4-.1.8-.2 1.7-.5 2.5-.9.1 0 .3.1.4.1 1.2.3 2.3.6 3.5 1-.6.3-1.2.6-1.5 1.1-.2.1-.2.2-.2.2zm4.9 1.4c-.1 0-.2.1-.3.2-.9-.3-1.9-.7-2.8-1-.4-.1-.8-.3-1.2-.4.5-.6 1.2-.9 2-1.2.6.2 1.3.4 1.9.6.8.3 1.7.5 2.5.8-.2.1-.5.3-.7.4-.5.3-.8.6-1.4.6zm5.4 2l-.1.1c-1.6-.5-3.2-1-4.7-1.6.1 0 .3-.1.4-.2.6-.4 1.3-.8 1.9-1.1a22.91 22.91 0 0 0 4.9 1c-.8.5-1.7 1.1-2.4 1.8zm6.9 1.3c-.2 0-.2.1-.2.2-1.1-.3-2.2-.5-3.4-.7l-2.7-.6c.8-.8 2-1.3 2.9-1.8 1.2.2 2.3.5 3.5.8l3.1.9c-.9.6-2.1 1.3-3.2 1.2zm6.3 2.3c-1.6-.4-3.1-.9-4.7-1.5-.3-.1-.5-.2-.8-.3 1-.1 2.1-.8 2.9-1.2.1-.1.3-.2.4-.2.7.2 1.4.4 2.2.6l3.4.9c-.8.4-1.5.7-2.4.8-.5.1-.9.4-1 .9zm6.1 1.7l-5.5-1.5c.3-.7 1.2-.4 1.8-.6.6-.3 1.3-.6 1.9-.9.1 0 .1-.1.2-.1.6.2 1.1.3 1.7.5 1 .3 2 .8 3 1.2-.4.1-.9.3-1.3.4-.6.2-1 .7-1.5 1h-.3zm4.7 1.7c-1.3-.4-2.6-1-3.9-1.4.1-.1.2-.1.2-.2.6-.6 1.9-.9 2.8-1.1 1.2.4 2.4.8 3.6.8-.1.2-.1.4.2.5.1 0 .2 0 .3.1-1 .3-2.2.6-3.2 1.3zm4.4-1.7c-.1 0-.1 0-.2.1 0-.1.1-.1.2-.1-.1-.2-.1-.2-.1-.3.2-.2.1-.7-.2-.6-1.2.2-2.4-.1-3.5-.4.6-.2 1.3-.4 1.9-.7 0 0 .1 0 .1-.1 1.4.4 2.8.7 4.3 1-.9.3-1.6.8-2.5 1.1zm3.1-1.4c0-.1-.1-.3-.2-.3-1.3-.2-2.6-.5-3.9-.9l.3-.3c1.5.5 3 .9 4.5 1.3-.2 0-.5.1-.7.2zm-31-42.5c-1-.4 1.1-4.2 1.3-4.7.2-.6.6-1.4.6-2.2 14.5 4 29 7.9 43.5 11.6.6.2.9-.5.3-.6-14.5-4-29.1-7.9-43.7-11.6h.1c.1 0 .1-.1 0-.1-.2-.2-.4-.3-.6-.2l-.3-.3c-.4-.3-.9.2-.5.4 1.8 1.6-3.9 7.1-.7 8 .2.1.2-.2 0-.3z"/><path class="st3" d="M208.7 284.4c-.3-1.9.3-3.8 1-5.4.1-.3 1.6-2.5.6-2.7-.9-.1-1.5 2.3-1.7 2.8-.5 1.1-.8 2.3-.9 3.6-.3-.1-.5-.1-.9-.1-.2 0-.2.1-.3.1-2.9-.2-5.8-1.2-8.6-2.1-3.5-1.1-7.1-2-10.7-2.9-3.5-.9-7-1.9-10.6-2.8-4-1.1-8.2-2.5-12.3-3.2-.3-.1-.5.3-.1.4 3.8 1.4 8 2.3 11.9 3.3l11.4 3c3.7 1 7.4 1.9 11.1 3.1 2.7.9 5.5 1.8 8.4 2v.2c.2.5.5.8 1.1 1.1.2 0 .6-.1.6-.4zm-12.9-1.8c-2.5-.7-5-1.1-7.5-1.5-2.9-.4-5.8-.8-8.6-1.6-2.7-.7-5.4-1.8-8.1-2.6-1.3-.4-2.6-.7-3.8-1-.6-.2-1.2-.4-1.9-.5-.6-.1-1.2 0-1.7 0-.4-.1-.5.5-.1.6.5.1 1 .1 1.5.1.7 0 1.5.3 2.1.5 1.3.3 2.6.7 3.9 1 2.7.7 5.3 1.8 8 2.5 2.5.7 5.1 1.1 7.7 1.5 2.9.4 5.7.9 8.5 1.6.2.1.4-.5 0-.6zm-1.6 2.5c-4.8-1.3-9.6-2.9-14.5-4-1.2-.3-2.4-.4-3.6-.6-1.3-.3-2.6-.7-3.9-1.1-2.4-.8-4.8-1.9-7.3-2.5-.4-.1-.5.5-.1.6 2.5.7 4.9 1.7 7.3 2.6 2.5.9 4.9 1.2 7.5 1.7 4.9 1 9.7 2.7 14.5 4 .4.1.6-.6.1-.7zm.3 2.5c-2.5-.7-5-1.1-7.5-1.5-2.9-.4-5.8-.8-8.6-1.6-2.7-.7-5.4-1.8-8.1-2.6-1.3-.4-2.6-.7-3.8-1-.6-.2-1.2-.4-1.9-.5-.6-.1-1.2 0-1.7 0-.4-.1-.5.5-.1.6.5.1 1 .1 1.5.1.7 0 1.5.3 2.1.5 1.3.3 2.6.7 3.9 1 2.7.7 5.3 1.8 8 2.5 2.5.7 5.1 1.1 7.7 1.5 2.9.4 5.7.9 8.5 1.6.1.1.4-.5 0-.6zm-1.6 2.5c-4.8-1.3-9.6-2.9-14.5-4-1.2-.3-2.4-.4-3.6-.6-1.3-.3-2.6-.7-3.9-1.1-2.4-.8-4.8-1.9-7.3-2.5-.4-.1-.5.5-.1.6 2.5.7 4.9 1.7 7.3 2.6 2.5.9 4.9 1.2 7.5 1.7 4.9 1 9.7 2.7 14.5 4 .4 0 .5-.6.1-.7z"/><path d="M350.1 284.3c0 20.4-12.3 24.8-30.6 25.3-1.5 0-2.9.8-3.8 2l-7.4 10.6c-1 1.2-1.9 1.6-2.6 1.4-.7-.3-.4-1.8-.3-2.5.6-3.6 1.4-5.6.7-9.4-.1-.5-.2-1-.5-1.4-.4-.4-.9-.6-1.4-.6-6.7.1-13.6-.3-20.3-3.4-4.4-2.1-6.9-6-8.2-10.7-3.4-11.9-4-29.3 6.9-38 3.5-2.8 8.6-4.4 13-5.3 6.2-1.3 12.6-1.1 19-1.1 20.6 0 35.5 4.1 35.5 33.1z" fill="#9ee4ff"/><path class="st5" d="M306.1 324.3c-.2 0-.5 0-.7-.1-1.2-.4-.9-2.1-.7-3.1v-.1c.1-.8.3-1.6.4-2.3.4-2.3.8-4.1.3-6.9-.1-.4-.1-.8-.4-1-.2-.2-.6-.4-.9-.4h-1.3c-5.8 0-12.6-.4-19.3-3.5-4.1-1.9-7-5.6-8.6-11.1-3.7-13-3.8-30 7.1-38.6 3.8-3 9.4-4.6 13.3-5.4 5.3-1.1 10.5-1.2 15.9-1.2h3.2c8.9 0 19 .7 25.9 5.8 6.9 5.1 10.3 14.2 10.3 27.9 0 20.8-12.5 25.5-31.3 25.9-1.3 0-2.5.7-3.3 1.7l-7.4 10.6c-.7 1.2-1.6 1.8-2.5 1.8zm-.1-1.3h.1c.2 0 .8-.1 1.6-1.2l7.4-10.5c1-1.4 2.6-2.2 4.3-2.3 18.5-.5 30-4.8 30-24.7 0-27.1-12.8-32.4-34.9-32.4h-3.2c-5.3 0-10.5.1-15.7 1.1-3.8.8-9.1 2.3-12.8 5.2-10.4 8.3-10.1 25.3-6.7 37.3 1.5 5.1 4 8.5 7.9 10.3 6.4 3 13 3.4 18.7 3.4h1.3c.7 0 1.4.3 1.9.8s.6 1.2.7 1.7c.5 3 .1 5-.3 7.3-.1.7-.3 1.4-.4 2.2v.1c-.1 1.2 0 1.6.1 1.7z"/><path class="st5" d="M284.4 262.4c-.1 0-.3 0-.4-.1-.3-.2-.3-.6-.1-.9 1.8-2.2 3.7-3.6 5.8-4.1.4-.1.7.1.8.5.1.3-.1.7-.5.8-1.8.4-3.5 1.7-5.1 3.7-.2 0-.4.1-.5.1zm7.8-4.9c-.4 0-.7-.3-.7-.6 0-.4.3-.6.7-.6.1 0 .3-.1.5-.1.2-.1.6-.2.9-.2.4 0 .7.3.7.6 0 .4-.3.6-.7.6-.1 0-.3.1-.5.1-.3 0-.6.2-.9.2z"/><path fill="#fff" d="M290.4 289.6l17.7-14.4 6 6.9 18.9-5.5-18 14.6-8-6.8z"/><path class="st5" d="M315 291.9c-.2 0-.3-.1-.4-.2l-7.7-6.5-16.3 5c-.3.1-.6 0-.8-.3-.2-.3-.1-.6.2-.8l17.7-14.4c.3-.2.7-.2.9.1l5.7 6.6 18.5-5.4c.3-.1.6 0 .8.3.1.3.1.6-.2.8l-18 14.6c-.1.1-.2.2-.4.2zm-8-8.1c.2 0 .3.1.4.2l7.6 6.4 15.1-12.3-15.9 4.6c-.3.1-.5 0-.7-.2l-5.6-6.4-14.6 11.9 13.4-4.2h.3z"/><path class="st7" d="M258.1 150.1c-.2-1-.6-1.9-1-2.7-.7-3.9-.7-10.3-4.4-12.7-4.5-3-8.1-.4-11.7 2.5l-.1.1c-.4.2-.9.5-1.2.7-.1.1-.2.1-.2.2-.9.5-1.7.9-2.7 1.2-2.4.7-5.2 1-7.5 1.2-3 .4-5.5 1.5-7.7 3.4-.4 0-.7.1-1 .2-.4.1-.6.2-1 .4-1.1.5-2 1.9-1.7 3.1 1 4.5 2 8.8 4.2 12.7.7 1.2 1.6 2.4 2.7 3.2-.9.7-1.4 2-1.1 3 .9 3.5 2.1 6.8 4 9.9 2.1 3.7 2.5 8.3 4.4 12.2.4.6.9 1.1 1.6 1.2.1 5.2 1.9 11.4 6.3 13.1 1.4.5 2.6-.4 3.5-1.4.2-.4.5-.7.6-1.1 1.5 1.4 4.2 1.1 5-.9.4.7.9 1.4 1.7 1.6 2.5.6 5.6 1 7.2-1.6.5-.7.9-1.5 1.2-2.2.5-.1 1-.2 1.4-.4 2.2-.9 4.6-2.9 6.2-4.5.9-.9 1.5-1.7 2.1-2.7.7-1 1.5-.9 2.5-1.7 1.4-1.2 2.4-2.7 2.2-4.7-.2-2.5-1.6-5-2.4-7.3-.9-2.7-1.7-5.3-3-8-2.5-5.6-4.7-11.4-7.7-16.7a3.6 3.6 0 0 0-2.4-1.3z"/><path class="st7" d="M230.8 138.4c1.5.6 3.1.7 4.6.1 1.4-.5 2.2-1.6 2.1-3.1 1-.6 1.6-1.7 1.2-3.1-.5-1.2-.9-2.2-2-3-.7-.5-1.7-.7-2.7-.7-2.4 0-4.1 1.2-5.7 2.7-.9.9-1.1 2.2-.5 3.4 0 .1.1.2.2.4v1.1c.3 1.2 1.5 2.1 2.8 2.2z"/><path class="st3" d="M268.3 158.6c-2.5-5.1-4.8-10.3-7.1-15.5-2.2-5.3-4.1-10.9-6.5-16.2-.1-.1-.2-.2-.4-.2-.2-.9-.5-1.6-1.1-2.1-1.6-1.6-3.7-2.2-6-2.1-.7 0-1.4.2-2 .5-1 0-2 .1-3 .4h-.5c-.1 0-.2.1-.4.1-1.1.1-2.1.5-3.2 1-1.4.5-2.6 1-3.9 1.6-1.5.2-2.9.6-4.2 1.1-2.6.9-5 2-7.5 3.2-.5.2-1 .4-1.5.7l-.2.1c-2.1 1-4.1 1.6-5.8 3.1-2.5 2.1-6 6.3-3.9 9.8-.2.1-.4.2-.2.5 1.9 5.3 4.2 10.4 6.5 15.7 2.2 5.1 4.4 10.3 6.5 15.5 2.1 5.5 4.2 10.9 6.3 16.4.9 2.4 1.7 4.7 2.7 7 .9 1.7 1.9 3.6 2.2 5.5.1 0 .1 0 .2.1v.1c.4.9.9 1.5 1.5 2 .1.4.2.9.2 1.2 1.7 2.1 5 2.5 7.6 2.4 2.2-.1 4.2-1 6.2-2 .6-.2 1.1-.6 1.7-.9 1.2.1 2.2-.5 3.4-1.1.7-.4 1.5-.7 2.2-1.1.6-.1 1.2-.2 1.9-.4 2.7-.6 5.1-1.9 7.7-3 2.7-1.1 5.8-2 8.5-3.4 1.9-1 2.7-3.1 3.9-4.8.6-1.1.4-3.1.2-4.4.2 0 .6-.2.6-.5-.4-.9-.7-1.9-.9-2.7-3.7-9.3-7.3-18.5-11.7-27.6zm7.2 25.8c0-.1-.1-.2-.1-.4.1-.1.1-.2.1-.4l-.1-.2c.1.4.2.6.4 1h-.3zm-.8-7.7c1.1 2.7 2.2 5.6 3.2 8.3l-.1.1c-.4-1.2-.7-2.4-1.2-3.6l-.1-.2v-.1c-.7-1.6-1.3-3-1.8-4.5zm-15.2-34.1c2.2 5.3 4.7 10.7 7.3 15.9.4.6.6 1.4 1 2-.1-.1-.1-.2-.2-.2v-.1c-.5-1.4-1.4-2.6-1.9-4-.1-.2-.1-.5-.2-.6-.4-.9-.9-1.6-1.4-2.4v-.2c-1.4-3.2-2.9-6.3-4.1-9.7 0-.1-.1-.1-.1-.2-.4-.3-.4-.4-.4-.5zm-7.6-13.5c.4.4.6.9.9 1.2l-.2.1-.2.1c-.2-.5-.5-.9-.7-1.2 0-.1.1-.1.2-.2zm2.1 4.9c.1.9.4 1.6.6 2.5v.1c-.1-.4-.2-.7-.5-1.1-.5-1.1-.9-2.4-1.4-3.6.7.5 1.1 1.3 1.3 2.1zm-6.1-6.9c-.5.1-1.1.1-1.6-.1.1-.1 0-.4 0-.5.3.1 1 .2 1.6.6zm1.5 2.9l-.4.4c-.4.1-.6.4-1 .5-.2.1-.4.1-.5.1.2-.2.6-.4.9-.6.1-.1.1-.1.1-.2.4-.2.7-.2.9-.2zm-5.2-5.4l.1-.1c.2-.1.4-.1.6-.2.1 0 .4-.1.5-.1h.5c-.6.1-1.1.3-1.7.4h-.1.1zm1.9 7.3c-.5.4-1.1.7-1.7 1.1-1.5 1-3.1 1.9-4.6 2.6 2.2-1.1 4.2-2.4 6.3-3.7zm-9.2-2.6h.5c.2.2.5.6.9 1-.1 0-.4 0-.5.1-.1.1-.2.2-.4.5-.1-.6-.1-1.1-.5-1.6zm1.6 2.2c0 .5.1 1 .2 1.4-.1.1-.1.2-.2.2-.2 0-.6.1-.5.5 0 .1.1.4.1.5v.2l-.2.1c-.1-.9 0-1.9.6-2.9zm-7.7-.7c1.2-.6 2.9-.4 4.1-.1h.1c.1.1.4.4.5.7.4.9.2 1.7 0 2.6-.7 1.7-3 2-4.6 1.4-1.6-.9-1.7-3.9-.1-4.6zm5.5 6.2c-.9.2-1.6.5-2.5.7h-.1c.6-.2 1.1-.5 1.7-.7.1-.1.4-.1.5-.2.1.2.2.2.4.2zm-8-6.1c.2-.1.2-.2.4-.2.2-.1.4-.1.6-.2l-.2.2c-.5.6-.7 1.4-.7 2.1-.1-.2-.2-.5-.2-.7 0-.4 0-.8.1-1.2zm-1.7-.5c-.1.1-.2.2-.4.2-.4.1-.7.2-1.1.4 0-.1-.1-.2-.2-.4.5-.1 1.2-.2 1.7-.2zm-1.6 5.2c-.2-.7-.6-1.5-1.1-2.1.1 0 .1-.1.2-.1.4.6.7 1.5.9 2.2zm-3.9-3.4c.7-.4 1.4-.6 2-.9l-.1.2v.2c-.6.2-1.4.4-2 .6h-.1l.2-.1zm-3.7 12.6c.6-.2 1.2-.5 1.9-.7-.6.4-2.2 1.4-3.1 1.2.4-.1.9-.3 1.2-.5zm-2.3 2l-.1-.2.2-.2c.1.9.5 1.7.9 2.5l.1.2h-.1c-.2-.6-.5-1.2-.9-1.9v-.2l-.1-.2zm4.4 10.5c.1.5.4.9.5 1.4-.1-.1-.2-.1-.5-.1-.1-.4-.4-.7-.6-1.2.2-.1.5-.1.6-.1zm-4.1-4.5c.1.2.4.5.5.7.4.7.6 1.4.9 2.1l.1.1c0 .1.1.2.1.4.1.6.2 1.1.5 1.7-.6-1.7-1.4-3.4-2.1-5zm3.7 8.6c-.4-.9-.7-1.7-1.1-2.6.2.5.6 1 1 1.5 0 .3.1.7.1 1.1zm14.3 35.6c-.2-.6-.5-1.2-.7-2 .2.4.4.7.6 1.1.1.2.2.5.4.6l-.3.3zm-6-17.5c-.2-.4-.4-.7-.6-1.1-.4-.7-.7-1.4-1.1-2.1.2.5.6.9 1.1 1.2.4.7.6 1.5 1 2.2-.1-.1-.2-.2-.4-.2zm-5.1-14.9c-.4-.6-.6-1.1-.9-1.6-.4-1.1-.6-2.1-1-3.2.7 1.6 1.3 3.2 1.9 4.8zm17.4 44l.1-.1c.2.1.5.1.9.1.1 0 .4 0 .5-.1.2.2.5.5.9.7-.9-.1-1.6-.2-2.4-.6zm4-.1v-.2c-.1-.2-.2-.5-.2-.7.2 0 .5.1.7.1.1.2.4.6.6.9-.3-.1-.7-.1-1.1-.1zm4-1.8c.5-.1.9-.1 1.2-.4l.1.1c-.4.2-.9.3-1.3.3zm4.6-1.5c-.7.2-1.5.4-2.1.6 0-.1-.1-.2-.2-.4.9-.1 1.7-.5 2.6-.5-.2.2-.3.2-.3.3zm2-.6l-.1-.2c.4-.1.7-.4 1.1-.5.4-.1.6-.1 1-.2-.6.3-1.3.7-2 .9zm5-1.1c-.1-.1-.1-.1-.2-.1.6-.1 1.1-.2 1.6-.4-.6.1-1.1.4-1.4.5zm4.3-3.7c-.7.2-1.5.5-2.1.9l-.1-.2c.7-.2 1.5-.6 2.1-.9 0 .1 0 .1.1.2zm1.5-3.9c-2.2.9-4.4 2.4-6.6 3.4-.7.4-1.6.5-2.4 1-2.1.5-4.2 1-6.1 1.9-.2-.5-.5-1.1-.7-1.6.5-.2 1.1-.4 1.6-.7 1.9-1.1 4.1-1.4 6.1-2.1 1-.4 1.9-1 2.7-1.5.5-.1 1-.2 1.4-.4 1.4-.4 2.9-.7 4-1.6-.1.4 0 1 0 1.6zm-7.3-.7c.7-.5 1.5-.9 2.2-1.4.9-.5 1.9-.7 3-1.1-1.4.5-2.7 1.1-4 2-.2.1-.5.2-.7.4-.3 0-.4.1-.5.1zm12.6 4.1c-.7.2-1.6.5-2.1.7.5-.2 1-.6 1.5-1 .3.3.5.3.6.3zm-1-9.2c-.1 0-.2-.1-.4-.1.7-.2 1.5-.5 2.2-.9.1 0 .2-.1.5-.1-.2.2-.6.4-.9.5-.5.2-1 .3-1.4.6zm3.7 4.3c0-.6.1-1.4.4-2 .2-.4.5-.7.6-1.1-.1 1-.4 2.3-1 3.1zm.2-4.7l-.2-.2c.2-.1.5-.4.6-.6 0 .2-.3.4-.4.8zm.3-4.8c0 .1-.1.1-.1.2 0 .4.1.6.1 1 0 .9-1.4 1.2-1.9 1.5-1.5.6-3 1.1-4.6 1.7-1.1.5-2.5.6-3.6 1.1-1.4.6-2.6 1.2-3.9 2-3.1 1.6-6.2 2.6-9.6 3.6-3.9 1.2-7.5 2.9-11.4 3.7-.1-.2-.4-.5-.6-.4-3.4-9.7-8.8-18.4-12.1-28.1-1.6-4.7-3.2-9.4-5.1-14.2l-3-7.2c-.4-1.1-1.2-2.2-1.6-3.5 1.7.2 4.1-1.6 5.3-2.4 3.9-2.4 8.2-2.9 12.4-4.4.4-.1.5-.5.4-.7 3-.7 6-2 8.6-3.5.1.1.4.2.5.2 1.5-.5 3.1-1 4.6-1.4 1.1-.4 2.6-.5 3.7-1.2.2.7.6 1.5.9 2.2.9 2.5 1.9 4.8 3 7.2 2.1 4.5 4.1 9.1 6.2 13.7l3 6c.4 1.2 1 2.4 1.6 3.5v.4l3.7 9.8c.7 2 1.6 4.4 2.9 6.3.2.6.5 1.2.7 1.7.1.5 0 .8-.1 1.2zm-12-33.1v.2l-1.1-2.5c-.1-.2-.2-.4-.2-.6.2.5.5 1 .9 1.5.2.5.3.9.4 1.4zm-5.9-17c-.2-.5-.4-1-.5-1.5v-.1c0-.1-.1-.4-.1-.5.2.7.3 1.4.6 2.1z"/><path d="M388 171.1c-.1 0-.1-.1-.2-.1-2.5-1.4-5.2-2.3-7.9-3.1-2-.6-4.1-.9-6.2-1.1-3.3-.3-6.5-.1-9.7.4-1.4.2-2.8.6-4.2 1-5.2 1.5-9.8 4-13.9 7.6a35.92 35.92 0 0 0-12.4 25.8c-.1 2.8.1 5.6.7 8.3.4 1.9.9 3.8 1.7 5.6 0 .2.1.4.2.6 0 .1.1.3.2.4 0 .1 0 .2.1.3a36.39 36.39 0 0 0 19.6 19.1c7 2.9 14.3 3.6 21.8 2.1 4.3-.8 8.3-2.4 12-4.6 1.3-.8 2.7-1 4.2-.6l6.9 1.8c1 .3 2 .5 2.9.8.1-.1 0-.2 0-.3-.8-3-1.6-6.1-2.5-9.1-.5-1.6-.3-3.1.7-4.5 3.3-5.3 5.1-11.1 5.3-17.3.2-4.5-.5-9-2-13.2-2.4-6.7-6.6-12.3-12.4-16.7-1.4-1.1-3-2.1-4.6-2.9-.1-.2-.2-.3-.3-.3z" fill="#fdfefe"/><path class="st9" d="M407.3 204.1c.2-4.5-.5-9-2-13.2-2.4-6.7-6.6-12.3-12.4-16.7-1.4-1.1-3-2.1-4.6-2.9-.3.2-.3 0-.3-.2-.1 0-.1-.1-.2-.1-2.5-1.4-5.2-2.3-7.9-3.1-2-.6-4.1-.9-6.2-1.1-3.3-.3-6.5-.1-9.7.4-1.4.2-2.8.6-4.2 1-5.2 1.5-9.8 4-13.9 7.6a35.92 35.92 0 0 0-12.4 25.8c-.1 2.8.1 5.6.7 8.3.4 1.9.9 3.8 1.7 5.6 0 .2.1.4.2.6.2 0 .2.2.2.4 0 .1 0 .2.1.3a36.39 36.39 0 0 0 19.6 19.1c7 2.9 14.3 3.6 21.8 2.1 4.3-.8 8.3-2.4 12-4.6 1.3-.8 2.7-1 4.2-.6l6.9 1.8c1 .3 2 .5 2.9.8.1-.1 0-.2 0-.3-.8-3-1.6-6.1-2.5-9.1-.5-1.6-.3-3.1.7-4.5 3.3-5.4 5.1-11.2 5.3-17.4zM378 190.5c-.1.1-.1.1-.1 0 0 0 .1-.1.1 0 0-.1 0-.1 0 0zm-4.5 5.6zm-3-12.4c1.5 0 2.9 1.3 2.9 2.8 0 1.7-1.4 2.8-2.9 2.8-1.7 0-2.8-1.4-2.8-2.9 0-1.4 1.3-2.7 2.8-2.7zm18.5 30.4c-2.2.3-4.3.1-6.5.1-.9 0-.8-.1-.8.7v4.7c0 1.5-.9 2.6-2.3 2.9-1.9.4-3.5-.9-3.5-2.8v-5.4c0-.4-.1-.6-.5-.7-1.8-.5-3.2-1.5-4.6-2.6-.2-.2-.3-.6-.6-.5-.2.1-.4.3-.6.5-1 1-2.2 1.7-3.5 2.3-1.4.6-2.8.8-4.3.8-2.3 0-4.7-.2-7 0-2.2.2-4.3-.1-6.3-1.1-1.7-.8-3-1.9-4.1-3.3-.1-.1-.2-.3-.3-.4-.2 0-.2-.1-.2-.3-.1 0-.3 0-.1-.2-.7-1.3-1.3-2.6-1.5-4-.1-.7-.2-1.3-.2-2v-16.2c0-.8.2-1.6.7-2.2.7-.8 1.6-1.1 2.6-.9 1.2.2 2 .9 2.3 2 .1.4.1.7.1 1.1v6.1c0 .4 0 .5.5.3 1.2-.6 2.4-.9 3.7-1.1 3.1-.4 5.9.3 8.4 2.1 4.3 3.2 5.7 8.7 3.5 13.6-.1.1-.1.2-.2.4l.1.1c1.6-.5 2.6-1.6 3.2-3.1.3-.7.4-1.4.4-2.1v-8.3c0-.9.9-2.1 2-2.4 1.1-.3 2-.1 2.8.5.7.5 1 1.3 1 2.2v1.3c.1 0 .1 0 .1-.1 0 0-.1 0-.1.1 0 2.4-.1 4.7 0 7.1a5 5 0 0 0 2.3 4.1c.1.1.2.2.4.2.1-.1.1-.2.1-.4v-4.4c0-5.6 4.5-10.4 10.2-10.9 6.3-.6 11.6 3.7 12.5 9.5 1 6.1-3.5 11.9-9.7 12.7zm-45.1-4.9z"/><path class="st9" d="M388.1 197.6c-2.8-.4-5.6 1.6-6.2 4.4-.2 1.1-.1 2.3-.1 3.4v2.8c0 .3.1.5.4.5h5.6a5.7 5.7 0 0 0 5.4-5.2c.1-3-2.1-5.5-5.1-5.9zm-34.6 0c-3.1 0-5.7 2.4-5.7 5.6 0 3 2.5 5.5 5.7 5.5 3 0 5.7-2.3 5.7-5.6 0-3.1-2.5-5.5-5.7-5.5zm34.8-26.3c-.3.2-.3 0-.3-.2.1 0 .2.1.3.2zM378 190.5c-.1.1-.1.1-.1 0 0 0 .1-.1.1 0 0-.1 0-.1 0 0z"/><path d="M370.5 189.7c-.8 0-1.6-.3-2.1-.9-.6-.6-1-1.5-1-2.4 0-1.7 1.4-3.1 3.2-3.1.8 0 1.7.3 2.3 1 .6.6 1 1.4.9 2.2 0 2-1.7 3.2-3.3 3.2zm0-5.6c-1.4 0-2.5 1.1-2.5 2.4 0 .7.3 1.4.8 1.9.3.3.9.7 1.7.7 1.3 0 2.6-1 2.6-2.5 0-.6-.3-1.2-.7-1.7-.5-.6-1.2-.8-1.9-.8z"/><path d="M343.9 209.2c.1.1.2.2.2.3-.3 0-.3-.1-.2-.3zm-.1-.2c0 .1.1.1.1.2-.2 0-.3 0-.1-.2z" fill="#45b0e6"/><path class="st9" d="M363.8 208.3s-.1.1-.1 0c0 0 .1-.1.1 0 0-.1 0-.1 0 0z"/><path d="M378.9 223c-.7 0-1.4-.2-2-.7-.8-.6-1.2-1.5-1.2-2.5v-5.4c0-.2 0-.3-.3-.3-1.8-.5-3.3-1.5-4.7-2.6l-.3-.3s0-.1-.1-.1-.1.1-.2.2-.1.2-.2.2c-1 1-2.2 1.7-3.6 2.3s-2.8.9-4.4.9h-2.2c-1.6 0-3.3-.1-4.9.1-2.4.2-4.5-.2-6.5-1.1-1.6-.7-2.9-1.8-4.1-3.2v.4l-.4-.7h-.1l-.1-.3-.3-.5a12.88 12.88 0 0 1-1.7-6.1v-16.2c0-1 .3-1.8.8-2.4.8-.9 1.8-1.2 2.9-1 1.3.2 2.2 1 2.6 2.3.1.4.1.8.1 1.2v6.1c1.1-.6 2.4-.9 3.8-1.1 3.2-.4 6.1.3 8.7 2.2 4.4 3.2 5.9 8.7 3.7 13.7a5.1 5.1 0 0 0 2.8-4.6v-8.2c0-1.1 1-2.4 2.2-2.7 1.1-.3 2.1-.1 3.1.6.7.5 1.1 1.4 1.1 2.5v8.3c0 1.5.7 2.8 2 3.8v-4.3c0-5.8 4.6-10.7 10.6-11.3 6.3-.6 11.9 3.7 12.9 9.7.5 3-.3 6-2.2 8.5-1.9 2.5-4.7 4.1-7.8 4.5-1.4.2-2.9.2-4.3.1h-2.7v5.1c0 1.6-1 2.9-2.5 3.2-.1-.3-.3-.3-.5-.3zm-8.5-12.7c.4 0 .5.3.6.5 0 .1.1.1.1.2 1.4 1.1 2.8 2.1 4.5 2.5.5.1.8.5.8 1v5.4c0 .8.4 1.5 1 2s1.4.6 2.1.5c1.2-.2 2-1.3 2-2.6v-4.9c0-.3 0-.5.2-.7s.4-.2.7-.2h2.4c1.4 0 2.8 0 4.2-.1 2.9-.4 5.5-1.9 7.3-4.2s2.6-5.2 2.1-8c-.9-5.7-6.2-9.7-12.1-9.2-5.6.5-9.9 5.2-9.9 10.6v4.5c0 .1.1.5-.3.6-.3.1-.6-.1-.7-.2a5.48 5.48 0 0 1-2.5-4.4v-8.3c0-.9-.3-1.5-.9-1.9-.8-.6-1.6-.7-2.5-.5-1 .3-1.7 1.3-1.7 2.1v8.2c0 .9-.1 1.6-.4 2.3-.7 1.7-1.8 2.7-3.4 3.2-.1.1-.2.1-.3.1-.1 0-.2 0-.3-.2 0-.1-.1-.2 0-.4v-.1c0-.1.1-.2.1-.3 2.2-4.8.8-10.1-3.4-13.1-2.4-1.8-5.2-2.5-8.1-2.1-1.3.2-2.5.5-3.6 1.1-.2.1-.5.2-.7.1-.3-.2-.3-.5-.2-.7V187c0-.4 0-.7-.1-1-.3-1-1-1.6-2.1-1.8-.9-.2-1.7.1-2.3.8-.4.5-.6 1.1-.6 2v16.2c0 .6.1 1.3.2 1.9.2 1.2.7 2.4 1.5 3.9v.1h.1v.1c.1.1.1.2.2.3 0 0 0 .1.1.1.1.1.2.2.2.3 1.1 1.4 2.4 2.5 4 3.2 1.9.9 3.9 1.2 6.1 1 1.7-.1 3.4-.1 5-.1h2.1c1.5 0 2.9-.3 4.2-.8 1.3-.6 2.5-1.3 3.4-2.2l.2-.2c.2-.2.3-.4.6-.4 0-.1.1-.1.1-.1zm-26.6-1.1h-.3.3zm9.7-.2a5.93 5.93 0 0 1-4.3-10.1c1.1-1.1 2.6-1.7 4.3-1.7a5.85 5.85 0 0 1 4.3 10 5.82 5.82 0 0 1-4.3 1.8zm0-11a5.14 5.14 0 0 0-5.3 5.2c0 2.8 2.4 5.2 5.3 5.2 1.4 0 2.8-.6 3.8-1.5 1-1 1.5-2.3 1.5-3.7.1-3-2.2-5.2-5.3-5.2zm28.6 11c-.1 0-.4 0-.5-.2-.2-.2-.2-.4-.2-.6v-4.1c0-.7 0-1.4.1-2.2.7-3 3.5-5 6.6-4.6 3.2.4 5.5 3.1 5.3 6.2-.2 2.9-2.7 5.4-5.7 5.5h-5.6c.1 0 0 0 0 0zm0-.7h5.6a5.2 5.2 0 0 0 5-4.8c.2-2.8-1.9-5.1-4.7-5.5-2.7-.3-5.2 1.5-5.8 4.1-.1.7-.1 1.3-.1 2v4.2c0-.1 0 0 0 0z"/><path transform="rotate(-89.84 347.85 197.58)" d="M342.2 197.2h11.4v.7h-11.4z"/><path d="M353.9 214.7h-.4v-.7c6.1.3 9.9-5.8 10-5.9l.6.3c0 .1-1 1.6-2.8 3.2-2.2 2-4.8 3.1-7.4 3.1zm10.4-.4l-.2-.6c4.3-1.3 7.1-3.7 8.3-7.2.9-2.6.6-4.8.6-4.8l.7-.1c0 .1.4 2.4-.6 5.1-.9 2.5-3.2 5.9-8.8 7.6zm18.3-5.4c-6.2 0-7.2-.8-7.3-1.3l.7-.1v-.1s.7.8 6.6.8v.7zm.2 5.7c-4.4 0-7.4-.6-7.4-.6l.1-.7s3.5.7 8.4.6v.7h-1.1z"/><path d="M370.3 239.1c-5 0-9.8-1-14.4-2.9-5-2.1-9.4-5.1-13.2-9.2-2.7-2.9-4.9-6.3-6.6-10 0-.1-.1-.2-.1-.3-.1-.1-.2-.3-.2-.4-.1-.2-.2-.4-.2-.6-.9-2-1.4-4.1-1.7-5.7a35.98 35.98 0 0 1 2.4-21.8c2.2-4.8 5.3-9 9.4-12.6s8.8-6.1 14-7.6c1.7-.5 3-.8 4.3-1 3.5-.6 6.7-.7 9.8-.4 1.9.2 4.1.4 6.3 1.1 2.8.8 5.5 1.6 8 3.1l.2.1c.1 0 .3.1.4.2a36.59 36.59 0 0 1 17.1 19.7c1.5 4.2 2.2 8.7 2.1 13.3-.2 6.3-2 12.2-5.4 17.5-.9 1.4-1.1 2.8-.6 4.3.6 2.2 1.2 4.4 1.8 6.5.2.9.5 1.7.7 2.6 0 .1.1.3-.1.5l-.1.2-1.1-.3c-.7-.2-1.4-.4-2-.5l-6.9-1.8a5 5 0 0 0-4 .5c-3.7 2.3-7.8 3.9-12.1 4.7-2.8.5-5.3.8-7.8.8zm.2-72.1a37.43 37.43 0 0 0-10.7 1.6c-5.1 1.5-9.7 4-13.8 7.5-4 3.5-7.1 7.7-9.3 12.4-1.9 4.2-2.9 8.6-3.1 13.2-.1 2.8.1 5.6.7 8.2.3 1.6.8 3.6 1.7 5.6 0 .2.1.3.2.5v.2s0 .1.1.1l.1.1v.4c1.6 3.7 3.8 7 6.5 9.9 3.7 4 8 7 13 9 6.9 2.8 14.2 3.5 21.6 2.1 4.2-.8 8.2-2.4 11.9-4.6 1.4-.8 2.8-1 4.4-.6l6.9 1.8c.7.2 1.4.4 2 .5l.6.1c-.2-.9-.5-1.7-.7-2.6-.6-2.1-1.2-4.3-1.8-6.5-.5-1.7-.3-3.2.7-4.7 3.3-5.2 5.1-11 5.3-17.2.2-4.6-.5-9-2-13.1-2.4-6.6-6.6-12.2-12.3-16.6-1.7-1.3-3.1-2.2-4.6-2.9 0-.1-.1-.1-.2-.1l-.1-.1c-2.4-1.4-5.1-2.2-7.8-3-2.1-.6-4.3-.9-6.2-1.1-1 0-2-.1-3.1-.1z"/><ellipse cx="370.7" cy="186.3" rx="2.7" ry="2.6" fill="#fbe03c"/><path class="st12" d="M158.4 233.9c.6 2.2-2.5 2.3-2.2.2.5-.8 1.5-.9 2.2-.2zm-3.2-67.1c3.1-.7 4.9.9 5.1 3 .6 5.6-8.1 6.4-8.3.8 0-2.1 1.4-3.1 3.2-3.8zm-.4 4.4c.9 3.6 5.1-2.6 1.4-1.8-1 .2-1.8.4-1.4 1.8zm-17.2 84.9c-1 3.6-3.7 5.6-6.2 6.7-.3.1-1.5.5-1.5.7-.1.5 1.7 2.2 2 2.5.9.8 2.5 1.5 2.2 2.4-.4 1.4-4.7-.5-5.7-1-.9-.5-1.7-.9-2.4-1.4-.8-.5-1.5-1.1-2.4-1.4-.8-.2-1.9-.1-2.7-.1-7-.3-13-2.9-15.7-7-1.5-2.3-2.8-6.5-1.2-10 1.5-3.2 4.8-5.6 7.6-6.9 3.8-1.7 9.1-2.2 14.3-.7 7.4 2.2 14 7.9 11.7 16.2zm-7 10.8c.1-.2-.3-.5-.5-.8-.4-.5-2-2.5-1.6-3.3.2-.4 1.9-.8 2.4-1 2.2-1 4.4-2.9 5.3-5.8.9-3.3.1-6.2-1.3-8.3-2-3-6.5-6.1-11.9-6.9-3.9-.5-7.5-.3-10.8 1.3-2.8 1.3-6 3.6-7.1 6.7-1 2.8.2 6.2 1.5 8.1 2.4 3.5 7.9 5.9 13.6 6.1 1.2.1 2.6-.2 3.8.1 1.2.3 2.2 1.3 3.2 1.9 1.1.7 2.1 1.3 3.4 1.9z"/><path class="st12" d="M133.5 247.7c0 .1-.1.2-.1.2.5 1.1.7 2.4 1.8 3.2.6-1.2-.9-2.3-1.1-3.3-.3-.2-.4-.2-.6-.1z"/><path class="st12" d="M132.5 248.5c0 .6.3 1.2.6 1.7.2.4.5 1.2 1.2 1.2.1-1.1-.6-2.4-1.5-3.1-.2.1-.2.2-.3.2zm-.9.5c-.2.6.2 1.5.9 1.8.6-.6-.2-1.9-.9-1.8zm-1.2.4c-.1.5.2.8.6 1 .1-.1.2-.2.3-.2.1-.6-.4-1.2-.9-.8zm-36.2-99.8c4.6-.9 4.3 5.8 1.2 6.1-3.1.3-5.2-5.3-1.2-6.1zm1.2 3.5c0-.5 0-1-.2-1.2h-.6c0 .7.1 1.2.8 1.2zm21.8 7.1c-2-3.1-.9-7.6 2.4-8.1 2.2-.3 4.9 1 5.3 3.1.8 3.9-3.8 7.9-7.7 5zm3-1.4c3.4.7 2.3-6.6-1.2-3.3 0 1.7.1 3.1 1.2 3.3zM108 189.9c.7-.2 1.3-.2 1.6.8 1 4-5.5.2-1.6-.8zm25 15.4c5.6-1.4 5.3 7 1 6.9-3.6-.1-4.9-5.9-1-6.9zm1.6 4.3c.6-.6.3-1.5-.2-2-2-.1-1 2.1.2 2zM96 215c6.4-1.2 5.8 8.5.6 8.3-3.5-.2-5.6-7.5-.6-8.3zm1.3 5.5c2.5-.4-.3-5.2-1.8-2.2.4 1.1.7 2.3 1.8 2.2zm21.5-2.4c-.5 5.1-5-2.4 0 0z"/><path d="M156.9 208.7h10.8c1.9 0 1.9-3 0-3h-10.8c-1.9 0-1.9 3 0 3z"/><path d="M160.6 200.5v13.7c0 1.9 3 1.9 3 0v-13.7c0-2-3-2-3 0z"/><path class="st12" d="M409.8 342c5.1-1.5 10.3-1 14 .7 2.7 1.3 6 3.6 7.4 6.8 1.6 3.4.3 7.5-1.2 9.8-2.6 4-8.5 6.6-15.4 6.9-.8 0-1.9-.1-2.6.1-.9.2-1.6.9-2.4 1.4-.7.4-1.5.9-2.4 1.4-1 .5-5.2 2.3-5.6 1-.3-.9 1.3-1.6 2.2-2.4.3-.3 2.1-2 2-2.5-.1-.2-1.2-.6-1.5-.7-2.5-1.1-5.1-3-6.1-6.6-2.3-8.2 4.2-13.8 11.6-15.9zm-1.4 24.7c1-.6 2-1.6 3.2-1.9 1.2-.3 2.6-.1 3.7-.1 5.7-.2 11.1-2.5 13.4-6 1.3-1.9 2.5-5.3 1.5-8-1.1-3.1-4.2-5.3-7-6.6-3.2-1.5-6.8-1.8-10.6-1.3-5.3.7-9.7 3.8-11.7 6.7-1.4 2-2.2 4.9-1.3 8.1.8 2.8 3 4.7 5.2 5.7.5.2 2.2.6 2.4 1 .4.8-1.2 2.8-1.6 3.3-.2.3-.7.6-.5.8 1.2-.6 2.2-1.1 3.3-1.7z"/><path class="st12" d="M402.2 349.6c0 .1.1.2.1.2-.5 1.1-.7 2.4-1.8 3.1-.6-1.1.8-2.2 1.1-3.3.3-.1.5-.1.6 0zm1 .8c0 .6-.3 1.2-.6 1.7-.2.4-.5 1.2-1.1 1.2-.1-1.1.6-2.4 1.5-3 .1 0 .1.1.2.1zm.9.5c.2.6-.2 1.5-.9 1.8-.6-.6.2-1.9.9-1.8zm1.2.3c.1.5-.2.8-.6 1-.1-.1-.2-.2-.3-.2-.1-.5.4-1.1.9-.8z"/><path d="M368.8 364.8h10.6c1.9 0 1.9-3 0-3h-10.6c-1.9.1-1.9 3 0 3z"/><path d="M372.4 356.8v13.4c0 1.9 3 1.9 3 0v-13.4c-.1-1.9-3-1.9-3 0z"/><path class="st12" d="M412.4 291.3c2.7-.5 5.9.6 6.4 2.3 1.6 5.5-10.3 6.1-10 .9.1-1.7 1.5-2.8 3.6-3.2zm3.9 3.2c-.2-1.8-5.2-1.7-4.8.9 1.3 1.3 5 .8 4.8-.9zm30 8.7c2-2.8 8.6-2.5 9.8.5 1 2.3-1.1 4.8-3.7 5.2-4.6.7-6.3-2.2-6.1-5.7zm2.5 1.3c-1.2 2.7 5.6 3.6 4.8.3-.3-1.1-1.7-1.4-3.3-1.1-.9.2-1.4.4-1.5.8zm-54.1 8.4c9.3-1.5 11.9 9 2.9 10.6-5.5 1-10.9-3.5-7.9-8 .8-1.2 2.7-2.2 5-2.6zm-1.6 3.1c-.6.4-1.8 1.3-1.9 2.1-.3 1.7 1.9 3.1 3.5 3.4 6.4 1 7.9-7.3.8-6.3-.8.1-1.8.4-2.4.8zm39-3.9c2.4-.5 3.3.4 3.5 1.4.6 3.2-5.7 3.8-5.8.8 0-1.4.9-1.9 2.3-2.2zM412.7 269c-.2 1.2 0 2.7 0 4.2 0 1.4.3 3-.4 3.8-3.3.1-7.3.2-10.4-.2-.5-2.2-.2-5.2-.4-7.6-1.3-.4-3.5 0-4.7-.5-.4-1.4 1.1-2.4 1.9-3.2 2.6-2.6 5.5-5.4 8.1-8.1 1.1-.2 2.5 1.7 3.4 2.6 1.7 1.7 3.5 3.6 5.3 5.5.7.7 2.6 2.2 2 3.1-.9 1-3.5 0-4.8.4zm-1.3-5.7c-1.4-1.6-2.8-3.2-4.2-4.7-.1 0-.1-.1-.2-.1-2.2 2.2-4.5 4.7-6.7 7-.7.7-1.6 1.4-2 2.3 1.3 0 2.5.1 3.6.3.8 2 .4 5.4.8 7.8 2.9.1 5.7-.1 8.5-.1.3-2.5-.4-6.1.6-7.8 1-.2 2.2-.2 3.5-.2-.9-1.6-2.5-3-3.9-4.5z"/><path d="M193.4 343.8H74.1c-.7 0-2.1 1.1-.8 1.1h119.3c.7 0 2.1-1.1.8-1.1zm5.7 13.9h-66.5c-.4 0-2.2.8-1.3.8h66.5c.4-.1 2.2-.8 1.3-.8zm-29.7 14.2H80.2c-1.1 0-1.5 1.4-.2 1.4h89.2c1.1 0 1.5-1.4.2-1.4zm253.9-136.3H511c.7 0 2.1-1 .8-1h-87.7c-.6 0-2.1 1-.8 1zm19.3 10.8h78.8c.8 0 2-1.2.7-1.2h-78.8c-.7 0-2 1.2-.7 1.2zm20.6 13.7h29.5c.6 0 2.1-1 .8-1H464c-.7.1-2.1 1-.8 1zm9.4-33.4h24.2c.8 0 2-1.2.7-1.2h-24.2c-.8 0-2 1.2-.7 1.2zm-201.3 7.4h-80c-.6 0-2.1 1-.8 1h80c.6 0 2.1-1 .8-1zm18.6-11.3h-60.7c-.6 0-2.1.9-.8.9h60.7c.7 0 2.1-.9.8-.9zm-38 26.5h-14c-.8 0-2 1.2-.7 1.2h14c.8 0 2-1.2.7-1.2zm64.6-106.9h87.3c.7 0 2.1-1 .8-1h-87.3c-.7 0-2.1 1-.8 1zm-20.7 12.7h64c.6 0 2.1-1 .8-1h-64c-.6 0-2.1 1-.8 1zm43.4 184.3h-79.3c-.8 0-2 1.1-.7 1.1h79.3c.8 0 2-1.1.7-1.1zm-3.9 6.8h-28c-.6 0-2.1.9-.8.9h28c.6-.1 2.1-.9.8-.9zm5.7 9.7h-55.3c-1.1 0-1.5 1.3-.2 1.3h55.3c1.1.1 1.5-1.3.2-1.3z"/></g></svg>