<svg id="katman_1" xmlns="http://www.w3.org/2000/svg" viewBox="0 0 1600 1200"><style>.st0{fill:#2FB2E6;} .st1{fill:#6ECCC5;} .st2{fill:#FFFFFF;} .st3{fill:#30211A;} .st4{font-family:&apos;MuseoSansRounded-900&apos;;} .st5{font-size:48.964px;} .st6{fill:none;stroke:#000000;stroke-width:3;stroke-linecap:round;stroke-linejoin:round;} .st7{fill:none;stroke:#000000;stroke-width:3;stroke-linecap:round;stroke-linejoin:round;stroke-dasharray:0,4.9596;}</style><path class="st0" d="M712.2 278.8h-12.3V276c0-2.8-.7-5.2-2-7.3-1.3-2-3.6-3.1-6.7-3.1-1.7 0-3.1.3-4.2 1-1.1.6-1.9 1.5-2.5 2.5-.6 1-1 2.2-1.3 3.5-.2 1.3-.4 2.7-.4 4.2 0 1.7.1 3.1.2 4.3.1 1.2.4 2.2.9 3 .5.8 1.2 1.6 2.1 2.2.9.6 2.2 1.3 3.8 1.9l9.4 3.7c2.7 1 4.9 2.3 6.6 3.7 1.7 1.4 3 3.1 3.9 4.9.9 1.9 1.5 4.1 1.9 6.5.3 2.5.5 5.2.5 8.4 0 3.6-.4 7-1.1 10.1-.7 3.1-1.9 5.8-3.6 8-1.6 2.2-3.8 4-6.6 5.2-2.7 1.3-6.1 1.9-10 1.9-3 0-5.7-.5-8.3-1.6-2.6-1-4.8-2.5-6.6-4.3-1.9-1.8-3.3-4-4.4-6.5-1.1-2.5-1.6-5.2-1.6-8.1v-4.6h12.3v3.9c0 2.3.7 4.3 2 6.1 1.3 1.8 3.6 2.7 6.7 2.7 2.1 0 3.7-.3 4.9-.9 1.2-.6 2.1-1.4 2.7-2.5.6-1.1 1-2.4 1.1-4 .2-1.6.2-3.4.2-5.3 0-2.2-.1-4.1-.2-5.5-.2-1.4-.5-2.6-1-3.5-.5-.9-1.2-1.6-2.2-2.2-.9-.6-2.2-1.2-3.7-1.8l-8.8-3.6c-5.3-2.2-8.9-5-10.7-8.6-1.8-3.6-2.7-8.1-2.7-13.4 0-3.2.4-6.3 1.3-9.2.9-2.9 2.2-5.4 3.9-7.5 1.7-2.1 3.9-3.8 6.6-5 2.7-1.2 5.7-1.9 9.3-1.9 3.1 0 5.8.6 8.4 1.7 2.5 1.1 4.7 2.6 6.5 4.5 1.8 1.9 3.2 3.9 4.2 6.2 1 2.3 1.4 4.6 1.4 7.1v6zm7.2-4.4c0-3.5.6-6.5 1.8-9.2 1.2-2.7 2.8-4.8 4.8-6.6 2-1.7 4.2-3 6.6-3.9 2.5-.9 4.9-1.3 7.4-1.3s5 .4 7.4 1.3c2.5.9 4.7 2.2 6.6 3.9 2 1.7 3.6 3.9 4.8 6.6 1.2 2.7 1.8 5.7 1.8 9.2v45.3c0 3.5-.6 6.6-1.8 9.2-1.2 2.6-2.8 4.8-4.8 6.5-2 1.7-4.2 3-6.6 3.9-2.5.9-4.9 1.3-7.4 1.3s-5-.4-7.4-1.3c-2.5-.9-4.7-2.2-6.6-3.9-2-1.7-3.6-3.9-4.8-6.5-1.2-2.6-1.8-5.7-1.8-9.2v-45.3zm12.3 45.3c0 3 .8 5.2 2.5 6.6 1.6 1.4 3.6 2.1 5.8 2.1 2.3 0 4.2-.7 5.9-2.1 1.6-1.4 2.5-3.6 2.5-6.6v-45.3c0-3-.8-5.2-2.5-6.6-1.6-1.4-3.6-2.1-5.9-2.1-2.3 0-4.2.7-5.8 2.1-1.6 1.4-2.5 3.6-2.5 6.6v45.3zm37.3-65.6h19.8c14.5 0 21.7 8.4 21.7 25.2 0 5-.8 9.3-2.4 12.8-1.6 3.6-4.3 6.5-8.3 8.6l13.3 39.2h-13l-11.5-36.7h-7.4V340H769v-85.9zm12.3 38.4h7c2.2 0 3.9-.3 5.2-.9 1.3-.6 2.3-1.5 3-2.6.7-1.1 1.1-2.5 1.4-4.2.2-1.6.4-3.6.4-5.7 0-2.2-.1-4.1-.4-5.7s-.7-3.1-1.5-4.2c-.8-1.2-1.8-2-3.2-2.6-1.4-.6-3.2-.8-5.4-.8h-6.4v26.7zm36.7-38.4h12.3v12.3l-12.3 8.9v-21.2zm60.4 66.6c0 2.8-.5 5.4-1.6 7.8-1 2.4-2.5 4.5-4.3 6.3-1.8 1.8-3.9 3.2-6.3 4.3s-5 1.6-7.7 1.6-5.3-.5-7.7-1.6c-2.4-1-4.5-2.5-6.3-4.3-1.8-1.8-3.2-3.9-4.3-6.3-1-2.4-1.6-5-1.6-7.8v-66.6h12.3v65.4c0 3.1.7 5.3 2.2 6.8 1.4 1.4 3.3 2.2 5.4 2.2 2.2 0 4-.7 5.4-2.2 1.4-1.4 2.2-3.7 2.2-6.8v-65.4h12.3v66.6zm8.7-66.6h11.8l18.6 51.7h.2v-51.7H930V340h-11.6l-18.8-51.6h-.2V340h-12.3v-85.9z"/><path class="st0" d="M800 378c-1.7 0-3.4-.6-4.7-1.9l-17.7-17.7c-.4-.4-1-.6-1.6-.6H657.1c-3.6 0-6.6-3-6.6-6.6V238.6c0-3.6 3-6.6 6.6-6.6H943c3.6 0 6.6 3 6.6 6.6v112.6c0 3.6-3 6.6-6.6 6.6H823.9c-.6 0-1.1.2-1.6.6l-17.7 17.7c-1.2 1.3-2.9 1.9-4.6 1.9zM657.1 236.4c-1.2 0-2.2 1-2.2 2.2v112.6c0 1.2 1 2.2 2.2 2.2h119.1c1.8 0 3.4.7 4.7 1.9l17.7 17.7c.9.9 2.2.9 3.1 0l17.7-17.7c1.2-1.2 2.9-1.9 4.7-1.9h119.1c1.2 0 2.2-1 2.2-2.2V238.6c0-1.2-1-2.2-2.2-2.2H657.1z"/><circle class="st1" cx="1189" cy="619.9" r="188"/><path class="st2" d="M1276.8 557.1c-10.7-5.8-14.2 1.6-23.5 3.3-6.3 1.1-7.8-1.7-11.1-8.6-3.8-7.8-6.6-15.9-10.5-23.7-11.2-22.6-29.7-56.1-60.5-49.6-4.7 1-16.8 6.5-16.7 13.1.1 6.1 17.4 10.1 9.4 19.8-3.9 4.6-24.5 1.7-31.8 4-16.1 5.2-7.1 20.9-15.2 31.8v13.2c0 5.9 2.4 36.6-2.8 39.5-2.7 1.5-10.7-1.2-14.1-1-6.2.3-8.8 1.3-13.2 5.4-8.1 7.5-9 16-3.5 24.6 8 12.5 15.5 9.9 27.8 13.3 3.7 14.8 6.2 27.3 17.3 39.4 1.8 2 3.7 3.8 5.7 5.7 1.6 6.1 8.9 15.7 15 14.4 4.7 3.6 10.1 6.7 13.9 10.9 10.9 12.3-7.7 34.4 10.5 44.4 17.2 9.4 34.8 11.8 54.4 10.1 10.2-.9 24.3-.6 31.8-8.6-2.8-13-5.2-26.4-10.2-38.3-4.4-10.6-4.9-13.5 1.8-20.8 16.7-18.2 22.2-41.3 19.8-66.4-.7-7.6-8.4-23.2-3.8-29.2 1.9-2.5 8.4-3.8 11.3-7.7 3.1-4.1 5.5-9.9 6.4-15 1.6-9.7.1-19.6-8.2-24z"/><path class="st0" d="M1366.1 798c-6-14.2-23.5-23.9-36.5-31.3-7.7-4.4-15.4-8.3-23.7-11.7-7-2.9-16.1-3.7-22.3-8-5.6-3.8-9-11.2-15-15.1-6.7-4.3-10-2.8-17.9-2.4-.8 7.8 7.1 18.4 2.3 24.1-5.1 6-25.5 4.4-32.4 4.8-13.2.9-60.7 7.4-54.5-19.2-1.4 1.2-3 1.9-4.8 2.3l1.9-8.5c-13.3-2.1-16.3 18.5-19.9 27.1-40.1 5.3-73.9 11.3-101.1 44.3-7.1 8.6-9 18.3-1.4 27.3 3.8 4.5 8.3 7 14.2 9.3 6.7 2.6 13.4 3.4 20.4 4.7 13.7 2.5 26.2 8.6 39.9 10.5 29.5 4.2 60.7-.2 90.4-.1 27 0 56.2-1.1 82.6-7.5 22.6-5.5 47-5.8 69.3-12.3 20.6-5.9 15.8-21.3 8.5-38.3z"/><path class="st3" d="M1355.1 779.8c-13.5-12.2-30.4-20.8-47.4-27.2-7.4-2.8-15-5.2-22.8-6.5-.6-.1-1 0-1.4.2-.1-.2-.2-.5-.5-.6-5.4-4.3-8.8-10.4-14-14.8-5.1-4.3-10.9-3.1-16.3-.4-1.5-8.8-2.3-17.7-4.9-26.2-.1-.3-.2-.6-.4-.8 4.5-4.1 8.6-8.6 12-13.7 5.6-8.4 9.1-18 10.8-27.9 3.3-19 .5-38.7-4.5-57.2.3.5.9.8 1.7.7 7.5-.8 12.7-8.1 15.7-14.4 3.8-7.8 5.7-17.4 2.9-25.9-2.7-7.9-9.8-11.8-17.8-12.6-7.5-.7-15.7 2.6-17.8 10.4-2.8-6.3-5.7-12.5-8.7-18.7-.4-.8-.7-1.5-1.1-2.3.1 0 .1-.1.2-.2 2.2-2.5 1.4-5.1-.5-7.5.3-.7.5-1.5.6-2.3v-.4c.4-.2.7-.5 1-.8 2.1-2 .5-4.9-1.3-6.4-.2-.2-.5-.4-.7-.5 1.7-.9 3.2-2.1 4.3-3.5 2.7-3.3 2.6-8.2.9-12-1.4-3.3-3.8-5.4-7.1-5.9-1.4-1.8-3.4-3.3-5.7-3.8.7-3.4.6-7-.5-9.8-.3-.9-1-1.5-2-1.5h-1c-.1-.2-.1-.5-.2-.7.1-3.1-.3-6.1-1.5-9-.5-1.2-1.3-1.6-2.6-1.5-.8.1-1.5.3-2.2.5-.2-.4-.3-.9-.5-1.3 3.1-7.2 4.2-16.3-5.8-16.7-2.2-.1-4.2.7-6 1.9-1.2-.6-2.5-1.1-4-1.3-2.5-.4-5.3 0-7.4 1.5-.9-1.7-2.3-3.1-4-4-.1-.1-.2-.1-.3-.2-2.3-3.1-6.3-4.8-10.2-2.9-2.9 1.4-5 4.7-6.1 8.2l-.9-.9c-3-3-7.4-5-11.4-3.8-4.9-.6-10.6-.1-13.5 4-.1.2-.2.3-.3.5-.6.6-1.1 1.2-1.5 1.9-2.5-.4-4.6.3-6.4 1.6-2.8-.7-5.8-1-8.6-1.1-4.8-.2-10.2.4-14.5 2.8-.3-.1-.5-.2-.8-.2-3.7.1-6.5 2.1-8.5 4.8-3.9 1.1-7.8 4-9.9 6.9-1.6 2.2-1.9 4.6-1.3 6.8-1.1 1.3-2 2.9-2.6 4.7-1.6 1.3-2.8 3.3-3.3 5.4-1.3 4.8.1 9.7 3.2 13.3-.1 3.1 1.3 6.1 3.6 8.1-3 2.8-3.7 6.5-3 10.3-1.3 3.7-.7 8 1.4 11.3l-1.8 1.2c-3.8 3.4-3.7 8.5-1.6 12.7.2 2.2 1 4.2 2.2 6.1 0 .2.1.3.1.5.5 2.1 1.6 4.7 3.2 6.9-.3.4-.5.8-.7 1.2-1.6 3-1.4 7.2.7 9.9-2.1.8-3.9 2.2-4.6 4.4-1.5 4.6 4.3 9.2 8.3 9.6 3.9.4 7.5-1.4 9.9-4.3-.1 1.5-.3 3.1-.4 4.6l-.6 7.5c-6.9-1.8-14.3-2.5-21.1-.2-9.1 3-13.8 11.4-14.8 20.5-2.1 18.4 18.2 23.9 32.4 25.9 2.7.4 3.8-3.7 1.1-4.1-11.7-1.6-29.6-4.9-29.4-20.1.1-8 4.4-15.7 12.2-18.3 6.2-2 13-1.1 19.2.6-.4 7.5-.7 15.1-.7 22.6-2.9-3.5-5.6-7.6-9.7-9.7-4.5-2.3-8.3.6-11 4.2-1.6 2.2 2.1 4.3 3.7 2.1.9-1.2 2.1-2.8 3.8-2.9 1.4-.1 2.8 1.1 3.8 2 2.6 2.3 4.7 5.3 6.9 8 .8.9 1.7.8 2.5.4 0 1.6 0 3.2.1 4.8.3 16.2 1.9 32.4 10 46.8 9.2 16.3 24.8 26.4 41.4 33.8v.3c0 5.9-.7 11.8-1.1 17.6-13.2-.2-19.5 13.2-20.4 25.3-25.1-.1-49.9 9-72 20.4-5.9 3.1-11.5 7-16.8 11.1-6.2 4.8-12.5 10.5-16.3 17.5-3.7 6.9-3.1 14.4 3.2 19.5 2.1 1.7 5.1-1.3 3-3-13.4-11 7.8-27.2 16.2-33.4 5.8-4.2 11.9-7.7 18.3-10.9 12.3-6 25.3-10.8 38.6-14 8.4-2 17-3.1 25.7-3.1 0 1.6.2 3.2.4 4.7.5 3.3 1.8 6.7 3.8 9.4 2.3 3 5.3 4 8.8 4.9 9.1 2.4 18.7 3.1 28 4.2 4.2.5 8.4 1.2 12.6 1.6 5.7.5 11.4.6 17.1.3 10.7-.4 21.6-1.9 31.8-5.1 16.8-5.1 31.5-15.8 37.3-32.6.2.2.5.3.9.4 15.9 2.7 31.5 9.2 45.7 17 8.1 4.4 15.8 9.5 22.7 15.6 6 5.3 11.5 11.6 14.5 19.1 2.3 5.8 2.8 12 1.2 18.1-.7 2.6 3.4 3.8 4.1 1.1 4.2-16-5.3-30.6-17-41.1zM1099 503.6c-.1-.1-.1-.3-.2-.4-.2-.4-.3-.9-.4-1.4.2.2.5.3.7.5l.6.3c-.3.3-.5.6-.7 1zm155.2 247.2c.1.2.1.4.2.5.2.5.4.9.7 1.4l-1.8.9c-5.6 2.7-11.9 4.1-18.1 5.1-14.9 2.4-30.7 2.2-45.5-.6-6.3-1.2-12.8-3-18.4-6.2-.8-.4-1.6-.9-2.3-1.5.3-.5.6-1.1.7-1.8.3-1.6-1.1-2.7-2.4-2.6-.7-9.7 1.2-19.6 1.5-29.3 1.6.7 3.3 1.3 5 2 9.7 3.7 20.1 6.3 30.6 5.6 10.7-.7 20.6-5.1 29.6-10.8 3.5-2.2 6.8-4.6 10-7.2 4.3 14.7 3.8 30.6 10.2 44.5zm.2-186.3c1.6-6.3 8.1-8 13.8-7.5 6.6.5 12.1 4.1 14 10.5 2.2 7 .3 15.1-2.8 21.6-2.2 4.6-6.4 11.7-12.1 12.3-1.3.1-2 1.3-2 2.3-.4-1.5-.8-2.9-1.3-4.4-1.4-4.6-2.9-9-4.5-13.5 1 .2 2-.2 2.3-1.5 1.2-5.7 4.8-11.9 11.5-10.7 2.7.5 3.8-3.6 1.1-4.1-8.6-1.5-14.3 4.7-16.4 12.3-2-5.4-4.2-10.7-6.5-15.9 1.2.3 2.6 0 2.9-1.4zm-22.7-61.4c.3.1.7.3 1 .4-.4.2-.7.4-1 .7v-1.1zm.5 6.7c1.4.5 3 1.6 4 2.3.5.4 1 .8 1.5 1.3-.1 1.3-.7 2.4-2 3l-1.2-1.8c-.9-1.2-2-2.3-3.1-3.2.2-.5.5-1 .8-1.6zm-.2 14.5c-.2.3-.3.6-.4 1-.4-.6-.8-1.3-1.1-1.9l1.5.9zm-6.8-11.4c0 .6.1 1.3.2 1.9-.3-.6-.5-1.3-.7-2 .2 0 .3.1.5.1zm-1.5-32c.1.2.1.4.2.6-.4-.1-.7-.2-1.1-.2.3-.2.6-.3.9-.4zm-.2 4.9c.4.3.7.7.9 1.2 0 .2 0 .5-.1.7l-1.8.3c-.2-.9-.5-1.7-.9-2.5.7-.1 1.4 0 1.9.3zm-1.8 6.8c.5-.2 1.1-.4 1.7-.6-.5 1.3-1.1 2.7-1.8 3.9-.1-.8-.3-1.6-.6-2.4.2-.3.5-.6.7-.9zm-2.1-27.8c.8 2 .2 4.5-.6 6.6-.2-.1-.3-.3-.5-.4-1.1-.7-2.3-1.2-3.5-1.4 0-2.2-.6-4.2-1.7-5.9 1.9-.8 5.4-1.1 6.3 1.1zm-1.2 24.2c0 .2 0 .4-.1.6-.1-.1-.2-.1-.4-.1.2-.2.4-.3.5-.5zm-4.3-14.6c.9.2 1.7.6 2.5 1.3l.3.3c-.6 1.2-1.4 2.4-2.2 3.7-.4.4-.8.7-1.2 1-.1.1-.2.2-.4.3-.2 0-.3 0-.5.1h-.1c-.1-.8-.2-1.7-.4-2.5.9-1.4 1.5-2.8 2-4.2zm-3.6 22.7c0 .5.1 1 .2 1.5-1-.9-2-1.7-3-2.5 1 .4 1.9.7 2.8 1zm-3-12.3c-.5.3-1 .5-1.6.7-.1 0-.3-.1-.4-.1v-.3c1-.5 1.8-1.1 2.7-1.8 0 .2-.1.4-.2.6-.1.3-.3.6-.5.9zm2.5-18.5c.5.9.7 2 .6 3.2-1 .2-1.9.4-2.8.8-.1-.2-.3-.3-.4-.5.7-1.2 1.6-2.4 2.6-3.5zm-2.4 11.5c-.7 1-1.5 1.9-2.4 2.6v-.5c.6-1 1.3-2 2.1-2.8.1.1.2.4.3.7zm-3.9-14.3c1.1-.1 2.1 0 2.9.2-1 1.1-1.8 2.3-2.5 3.5-.9-.6-1.9-1-2.9-1.3-.4-.1-.8-.1-1.2 0 .5-1.3 1.6-2.2 3.7-2.4zm-1.6 7.5c-.2.4-.3.7-.5 1.1-.2-.2-.4-.4-.7-.6.1-.3.3-.6.4-.9.4.1.6.3.8.4zm-3.4 12.2l.8 1.1v.7c-.3.3-.7.6-1.1.9-.6.3-1.4.4-2.2.4 1-1.1 1.8-2.1 2.5-3.1zm-2.7-3.5c-.4.6-.8 1.2-1.3 1.8v-1c.2-.4.4-.7.6-1.2.3.2.5.3.7.4zm-1.4-10.8h.4v.1c-.2.1-.4.3-.6.5.1-.2.2-.4.2-.6zm-1.8 3.2c-.1.3-.3.5-.4.8 0 0-.1-.1-.2-.1.2-.2.4-.5.6-.7zm-8-8.2c1.6-2 4.4-4 7-3.5.6 1.4.4 3.1-.1 4.7-1.4.3-2.8.7-4.1 1.2-1-.8-2.1-1.4-3.3-1.8.2-.2.3-.4.5-.6zm2.8 12.4c-.6.5-1.1 1.1-1.4 1.8l-1.2.6c.6-.7 1.2-1.4 1.7-2.2.4 0 .7-.1.9-.2zm-8.5 8.7c.4.2.9.3 1.4.1.1 0 .2-.1.3-.1.1.1.1.2.2.4-.7 0-1.5-.1-2.2-.1l.3-.3zm-.6-12.7l.3 2c-.1.3-.3.6-.4.9-.6.6-1.3 1.2-1.8 1.7.8-1.4 1.5-3 1.9-4.6zm-4.1-1.8l.2-.2c-.3 1.4-.8 2.8-1.5 4.1-.2-.5-.5-1.1-.9-1.6.7-.8 1.4-1.6 2.2-2.3zm-2.6 13.5l1.2-.3c.4-.1.9-.3 1.3-.4-.4.3-.8.7-1.3 1-.6.3-1.3.6-1.9.8.2-.3.5-.7.7-1.1zm-3.1-16.6c.1.2.3.3.5.5-.4.3-.8.6-1.1 1 .1-.5.3-1 .6-1.5zm-3-5.6c0 .2.1.5.2.7.2.3.3.6.5.9-.7.7-1.2 1.6-1.7 2.4-.3-.8-.7-1.5-1.2-2.2.7-.7 1.4-1.4 2.2-1.8zm-2.1 34.5c.6-.4 1.2-.9 1.7-1.4.8.5 1.5 1.1 2 2.1.4.7.6 1.6.6 2.3-.4-.3-.7-.6-1.1-.8-1.2-.8-2.5-1.3-3.8-1.7.2-.2.4-.3.6-.5zm2.8 9.1c.3 0 .7-.1 1-.2.8 2.3-.6 5.5-2.5 6.8-.1 0-.1.1-.2.1 1.1-1.9 1.7-4.1 1.8-6.3-.1-.1-.1-.2-.1-.4zm-5.1-36.8c.1.2.1.3.2.5-.1 0-.2.1-.4.1.1-.2.1-.4.2-.6zm-6-4.4l.2-.2c1-.9 1.7-.9 2.7-.3.1.1.3.2.4.3-.5 1-.9 2-1.2 3-.7-.6-1.5-1.1-2.3-1.5 0-.4.1-.9.2-1.3zm2.4 42.4c0 .1-.1.2-.2.3-.8-1.6-1.3-3.4-1.5-5.1.1-.1.2-.1.3-.2.4.5.9.9 1.5 1.3.1 1.2 0 2.5-.1 3.7zm-3.8-31.4l-.3.6c-.4-.2-.8-.3-1.2-.5-.2-.8-.6-1.7-1-2.4.9.6 1.8 1.4 2.5 2.3zm.8 35.2c-.7.6-1.4 1.2-2.2 1.6-.4-1.5-.1-3.4.1-4.6.1-.3.1-.6.2-.8.2.5.4.9.6 1.4.3.7.8 1.5 1.3 2.4zm-6 8.3c.3-.3.6-.6.9-1 1.2.4 2.5.6 3.7.4.1 0 .3.1.4.1-.1.1-.2.3-.3.4-1 .7-2.2 1.1-3.6 1.1-.8-.1-1.1-.4-1.1-1zm-2.4-19.2c.4-.4.8-.8 1.1-1.2-.2 1.5-.6 3-1.2 4.4.3-1 .3-2.1.1-3.2zm-.8 16.3c-.1.1-.1.2-.2.3-.2.1-.3.3-.5.4-.3.2-.6.4-.9.5.3-.6.6-1.1.9-1.7.3.2.5.3.7.5zm-1.2-21.2c.1.1.3.1.4.1l-.9.9-.9-.6c.5 0 1-.2 1.4-.4zm-6.2 23.5c-.3.4-.7.8-1 1.2-1.2 1.5-2.9 3.1-4.7 4.2.4-1.1.9-2.3 1.3-3.4 0-.1.1-.2.2-.4 1.5-.8 2.9-1.8 4.1-2.9 0 .4 0 .9.1 1.3zm-1.3-49.6c-.4.2-.7.4-1 .7-.4-.3-.8-.5-1.1-.8.6 0 1.4.1 2.1.1zm-1 11.6h-.2c-.1-.2-.3-.3-.4-.5.2-.3.3-.7.4-1.1.1.5.1 1 .2 1.6zm-4.2 11.7c.4.6.9 1.1 1.5 1.6.7.6 1.4 1.1 2.2 1.4.3 1.1.5 2.3.6 3.4v.5c0 .9 0 1.8.1 2.7-.1 1.6-.3 3.3-.7 5-.2.2-.5.3-.8.4.9-5.4.4-11.2-3-15h.1zm-1.5-21c-1.4.6-1.4 2.8-.2 3.6-.4.1-.8.2-1.1.3-.4-1.6-.6-3.1-.8-4.5.6.2 1.4.4 2.1.6zm-3.6 25.3c.5.6.9 1.3 1.1 2 .4 1.4.5 2.8.3 4.3-.2 0-.4-.1-.6-.1-.1-.3-.3-.6-.5-.8-.2-.3-.4-.5-.6-.8-.1-1.5 0-3.1.3-4.6zm1.5 26.8l-.6 1.8h-.2c-.1-.3-.2-.5-.2-.8l1-1zm-4.4-52.6c.3 1.8.6 3.6 1 5.4l-1.8.3c-.6-1.5-.8-3.2-.9-4.8.6-.4 1.2-.7 1.7-.9zm-1.6 11.6c1 .9 2.2 1.5 3.5 1.9-1.2.2-2.3.5-3.3.9-.3-.2-.6-.5-.9-.8.4-.6.6-1.2.7-2zm-2.2 12.3c.2-.1.4-.1.6-.2 0 .8 0 1.6.1 2.4-.6.7-1.1 1.4-1.7 2.2.2-1.5.5-3 1-4.4zm-.6 34c0 .4-.1.9-.2 1.3-.3.1-.6.1-.9.2-.8-.6-1.6-1.2-2.5-1.8 1.2.4 2.4.5 3.6.3zm-6.1-50.4c.2-.7.6-1.5.9-2.3-.3 2-.2 4 .6 6l.3.6c-.3.5-.5 1.1-.6 1.7-.2.8-.1 1.5.1 2.2-.5.3-.9.5-1.4.7l-.6-.6c-.6-2.6-.1-5.6.7-8.3zm.4 30c.2-.2.5-.4.8-.6-.1.3-.2.6-.2.9l-.6-.3zm.4 12.6l-.9-.3c-.2-.4-.5-.8-.7-1.2.2 0 .4-.1.6-.1.3.6.6 1.1 1 1.6zm-.2-20.7c.3-.5.6-.9.9-1.4-.1.6-.1 1.2-.2 1.9-.2-.2-.5-.4-.7-.5zm-1.7 25.9c.4.4.9.7 1.4 1.1-2.1-.9-4.3-1.5-6.6-1.6-.1-.3-.2-.5-.2-.8 0-.1 0-.2-.1-.3.4-.2.9-.3 1.4-.3h.7c1.1.8 2.2 1.4 3.4 1.9zm-5.8 35.2c.6.2 1.2.3 1.8.4-.3.1-.6.2-1 .4l-.9-.6c.1 0 .1-.1.1-.2zm-.1-52.8c-.1.1-.2.1-.3.2 0-1.9.2-3.8.7-5.5.3-.1.6-.1 1-.2-.7 1.8-1.2 3.7-1.4 5.5zm.6 43.1c.3-.1.5-.1.8-.1-.1.5-.1 1-.1 1.6-.3-.6-.5-1-.7-1.5zm.3-62.8c-.4-.4-.9-.8-1.3-1.2.3 0 .6 0 .9.1.8.2 1.5.7 2.2 1.3.1.4.3.9.4 1.3-.8-.4-1.6-.9-2.2-1.5zm1.7-10.9l.1-.1c-.5 2-.8 4-.8 6.1-1.3-.4-2.7-.6-4-.3.4-2.5 2.9-4.4 4.7-5.7zm-8.1 20.6c-.5-1.4 0-3.1.4-4.4.1-.2.1-.4.2-.7 1.7-.6 3.7-.3 5.4.5-1.4 1.5-2.5 3.3-3.4 5.2-.6.1-1.1.2-1.5.1-.7-.1-.9-.2-1.1-.7zm3.2 56.6c-.3-.2-.6-.5-.9-.7.1-.1.2-.3.2-.4.2.4.4.8.7 1.1zm-3.6-4.4c.1-1.5.5-3.8 1.8-4.6-.2 1-.3 2.1-.2 3.1-.6.4-1.1.9-1.6 1.5zm1 32c.2-.3.5-.5.8-.7 0 .8.1 1.7.5 2.4.3.8.9 1.4 1.5 2 .1.2.2.3.4.5-1.9-1-4.2-2.9-3.2-4.2zm3.4-8.4c-.4-.8-.5-1.9-.5-2.8 0-.2 0-.4.1-.7.8.8 1.7 1.4 2.9 1.9-.9.4-1.8.9-2.5 1.6zm6 7.9c-.7.6-1.6 1-2.5 1.2-.5.1-.8.1-1.1-.1-.1-.2-.3-.5-.4-.7-.1-.3-.2-.5-.3-.8 0 0 .1-.1.2-.1 1.1-.6 2.7-.4 4.2 0 0 .2-.1.4-.1.5zm2.8-12.5h-.4c.9-.6 1.6-1.3 2.2-2.2.4 1.2-.3 2-1.8 2.2zm1-23.1c.2-.2.4-.4.7-.6.8 1 1.3 2.2 1.3 3.4 0 .1-.1.2-.1.3-.2.1-.4.1-.7.2-.2-.2-.5-.4-.7-.6-.1-1-.3-1.8-.5-2.7zm1.7 31.9c-.5-.4-1-.7-1.5-.9.7-.6 1.3-1.2 1.9-2-.2.9-.3 1.9-.4 2.9zm-1.7-43.3c-.4-.2-.7-.3-1.1-.5 1.1.1 2.2 0 3.3-.1l.7.7-.3.6c-.9-.1-1.8-.3-2.6-.7zm4 20.5c.8-1.1 1.4-2.3 1.8-3.6-.8 3.9-1.5 7.9-2.1 11.9-.2-.3-.5-.6-.8-.8 1.1-2.4 1.5-5.1 1.1-7.5zm31 147c-8.5-5.4-15.9-12.5-21.2-21.1-5.7-9-8.6-19.5-9.7-30-1.2-12.1-1.1-24.3-.8-36.4.5-16.1 1.8-32.2 4.2-48.2 1.9-12.8 4.5-25.6 8.7-37.8 3-.7 5.8-2.7 8.1-4.8l1.2-1.2c.4.2.9.2 1.3.1l3.9-1.5c.5.9 1.3 1.7 2.7 2.3 1.1.4 2.3.6 3.4.5.4.5.9.8 1.6.8 3.6-.1 7.2-.6 10.5-2.2 2.5-1.1.3-4.8-2.1-3.6-.9.4-1.8.7-2.8.9.8-.9 1.4-1.8 1.9-2.8.1-.1.1-.3.2-.4.2-.1.5-.3.7-.5 1.9.8 4 .8 6.1-.6 2.8-1.9 4.6-5.8 4.6-9.1 0-1.2-.3-2.3-.8-3.4.7-1 1.1-2.3 1.1-4.1-.1-3.2-1.6-5.6-3.8-7.2 1.3-.5 2.5-1.2 3.7-1.9 37.7-4.9 57.7 38.6 71.1 67.3 8.8 18.8 16.5 38 20.9 58.3 4.4 20.2 5.6 42.1-2.4 61.5-4 9.8-10.7 18.4-18.9 25-9.2 7.5-19.5 14.2-31.2 17-10 2.4-20.2.9-29.9-2.1-11.3-3.5-22.5-8.5-32.3-14.8zm78.5 79.8c-6.8 1-13.8 1.4-20.7 1.4-6.7 0-13.1-.8-19.7-1.6-8.9-1.1-17.8-1.8-26.6-3.6-2.5-.5-5.1-1.1-7.5-2-1.9-.7-2.9-2.3-3.8-4-1.6-3-2.2-6.5-2.3-9.9 1.3-.7 1.3-2.8.1-3.6 0-.2 0-.5.1-.7.7-8.9 5.7-20.6 16-20.8-.1 1.5-.1 3.1-.1 4.7-.6-2.4-4.4-1.3-4 1.3.5 3.5 2.3 6.4 4.8 8.8.2.6.7.9 1.2 1.1 5.4 4.5 13.3 6.9 19.3 8.3 14.8 3.6 30.6 4 45.7 2.3 8.1-.9 16.3-2.4 23.8-5.7 3.5-1.5 7.4-3.8 9.8-7 .6-.3 1-1 1-1.7.4-.8.7-1.6.9-2.4.3-1.2-.3-2.2-1.5-2.6-2.8-.9-5.8-1.8-8.8-1.9-.8-2.4-1.4-4.9-1.9-7.4 2.7-1.5 5.6-2.9 8.7-2.7 2.2.2 4 1.8 5.4 3.2 4 4.1 7.1 8.8 11.4 12.5-7.3 22-30 30.8-51.3 34z"/><path class="st3" d="M1190.8 666.6c10.2-.4 20.6-5.4 28.6-11.6 7.9-6.2 14.2-14.3 19.4-22.9 4.3-7 7.8-14.5 11.2-22 1.8.4 3.6-1.9 2-3.6-1.7-1.7-3.3-3.4-4.2-5.6-.9-2.6-5-1.5-4.1 1.1.3.8.6 1.5 1 2.2-.2.1-.3.2-.5.4-25.3 28.7-64.9 41.6-102.3 33.3-.5-.1-.9-.1-1.3.1v-.9c0-2.7-4.2-2.7-4.2 0-.1 3.7-1.1 7.4-1.2 11.1 0 1.7 2.4 3 3.6 1.5.6-.8.7-1.7.8-2.7 0-.3 0-.6-.1-.9 0-.3.1-.5.1-.8 5.5 7.2 14 11.8 22.2 15.2 9.1 3.9 19.3 6.5 29 6.1zm28.8-27c-.3.2-.6.5-1 .7 0-.1-.1-.3-.2-.4 0 0 0-.1-.1-.1l2.3-1.7c-.2.5-.6 1-1 1.5zm11.6-17c-.4.5-.7 1-.7 1.6-4.1 4.2-8.7 8-13.5 11.6-.1-1-.2-2.1-.2-3.2 0-.3-.1-.6-.1-.8 5.1-2.7 9.9-5.8 14.5-9.2zm-16.2 19.7c.1.1.2.3.4.4-.3.2-.6.5-1 .7-.1-.1-.2-.3-.4-.4.4-.2.7-.5 1-.7zm-2.3-8.5c0 1.6.2 3.2.6 4.7-5.6 3.8-11.4 7.2-17.3 10.2-.6-2.6-1.1-5.3-1.6-8 6.2-1.8 12.4-4.1 18.3-6.9zm-69.9 8.7c.1 0 .2 0 .3.1.1.3.3.6.6.9.2.2.5.4.7.6.3.5.7 1.1 1.1 1.6-1-1-1.9-2.1-2.7-3.2zm10.6 2.6l-1.2-1.2c.4 0 .9.1 1.3.1-.2.4-.2.8-.1 1.1zm4.8-.3c-.1-.1-.2-.2-.2-.4 5.4.3 10.8.3 16.2-.2v.5c.1 2.4.3 4.8.5 7.1-5.8-1.3-11.4-3.9-16.5-7zm22.5 8.1c-.6-.1-1.2-.1-1.7-.2-.2-2.6-.6-5.3-.6-7.9 0-.3-.1-.6-.2-.9 4.1-.5 8.1-1.2 12.1-2.2.6 2.9 1.1 5.9 1.8 8.8-2 .9-4.1 1.8-6.4 2.5-1.7.1-3.3 0-5-.1zm11.2 8.7c.3.2.7.4 1.2.3.2 0 .5-.1.7-.1.1 0 .1 0 .2.1-2.3.3-4.6.5-6.9.5 1.6-.2 3.2-.5 4.8-.8zm-50.8-104.1c.8.1 1.6-.1 2.1-.8 3.3-1.5 6.3-3.5 9.2-5.7 6.2-.4 13 3.9 16.4 9.5 5.5 8.9 1.4 19.1-.7 28.7-.1 0-.2 0-.3-.1-9.8-.7-14.1 10.4-10.1 17.9-7.8.8-14.7 5.7-19 12.3-1.5 2.3 2.2 4.4 3.7 2.1 4.3-6.7 11.7-11 19.8-10.2 1.8.2 2.9-2.5 1.5-3.6-5.4-4.3-4-14.4 3.7-14.3v.3c-.9 6.9-.1 14.2 6.3 18.1 4.5 2.8 10.4 3 15.5 2.4 10.1-1.3 21.8-6.8 26.2-16.7.9-2.1 1.4-4.2 1.5-6.2.5.3 1.2.3 1.9-.1 4.9-2.8 11.6-4.3 17.2-2.6 2.6.8 3.7-3.3 1.1-4.1-6.6-2-14.5-.4-20.4 3-1.6-9.9-11.5-18.2-19.5-23.5-2.3-1.5-4.4 2.2-2.1 3.7 6.9 4.5 14.6 10.5 17 18.7 1.5 5.1-.2 10.2-3.7 14-6.9 7.6-20.3 12-30.2 8.7-4.5-1.5-6.5-5-6.8-9.6-.6-9.6 4.3-18.7 4.6-28.2.3-9.8-5.6-18.7-14.4-22.7-1.4-.6-2.7-1.1-4.1-1.4.2-.2.4-.3.7-.5 1.5-1.2.2-3.6-1.5-3.6-7.5.1-15.6 3.3-18 11-.1.5-.1.9 0 1.2-.4 1.3.8 2.8 2.4 2.3zm45.6-16.7c-.1-.2-.1-.3-.2-.5.3-.1.6-.4.9-.7 1-1.4 2-2.9 3.2-4.2l.6-.6c.1 0 .1-.1.2-.1.1-.1.2-.1.3-.2l3.9-1.5c.9-.3 1.4-1 1.5-1.7 1.6.3 3.1.9 4.4 1.5 2.4 1.2 4.6-2.5 2.1-3.7-5-2.4-11.2-3.5-16.4-1.2-5.7 2.5-6.6 8.5-4.6 13.9 1 2.7 5.1 1.6 4.1-1z"/><path class="st3" d="M1140.7 588.9c1.1-8 9.4-12.6 16.8-13.5 2.7-.3 2.7-4.6 0-4.2-4.2.5-8.7 2-12.5 4.4 4-3.8 9.5-5.9 14.9-6.8 2.1-.4 1.9-3.3.2-4-.2-.4-.6-.8-1.1-1-4.6-1.9-9.9-1.8-14.2.7-4.7 2.8-6.1 8.1-5.3 13.2.1.9.7 1.4 1.3 1.5-2.2 2.4-3.7 5.3-4.2 8.7-.4 2.6 3.7 3.7 4.1 1zm3.4-12.7c-.2.1-.4.3-.6.4v-.3c.2 0 .4 0 .6-.1zm48.7-25c-.4.3-.8.5-1.1.8-1.8 1.4 0 3.8 1.9 3.5 1 .2 2.1-.2 2.5-1.4 0 0 0-.1.1-.1 5.4-3.3 12.3-3.1 18.2-5 .7-.2 1.2-.7 1.4-1.3 1.2-.6 1.8-2.2.5-3.2-8.4-6.9-19.3-2.1-23.5 6.7zm6.8 7.1c-2.2 1.6-.1 5.2 2.1 3.7 2.7-2 6.2-3 9.4-3.7 3.7-.9 7.9-1.3 11.5.2 2.5 1 3.6-3.1 1.1-4.1-4.2-1.6-8.9-1.1-13.1-.3-3.7.7-7.8 2-11 4.2zm9.9 111.7c-4.4 1.8-8.7 3.9-13.2 5.6-2.5 1-1.4 5.1 1.1 4.1 4.4-1.8 8.7-3.9 13.2-5.6 2.5-1.1 1.4-5.2-1.1-4.1z"/><circle class="st1" cx="389.6" cy="638.9" r="188"/><path class="st2" d="M512.5 604.3c-6.1-5.2-9-5.4-17-5.8-1.6-4.6-1.4-9.4-2.3-14.3-1.4-7.6-5.2-14.3-6.9-22-1.7-7.8 1.3-15.8-1-24.3-3.3-12.3-13.2-20.2-24.6-24.7-22.2-8.9-41.6-23.3-65.9-26.4-11.1-1.4-43.6 3.4-24 20.9-.4.8-1.2 1-2.2.6l-1.4 2.8c-5.2-8.6-24.5 4.2-29 9-9 9.7-14.4 21.4-12.8 34.6.8 7.1.9 11-1.8 18-3.4 9-4.1 8.5-12.2 6.5-13.1-3.2-23.3 5.1-27.8 17.2-2.2 6-3 12.1 0 18.1 4.7 9.1 10 5.9 17.2 9.8 7.1 3.7 2.9 9.8 1.5 15.7-1.9 8-1.8 17-1.4 25.4.8 16.5 5.2 34 15.5 47.5 6 7.9 9.9 9.9 10.7 19.9.8 9.9 4.2 21.1 7.6 30.6 2.9 8.3 7.3 11.5 14.6 4.9 5.8-5.1 11-12 16.4-17.5 1-1 5.3-6.1 6.8-6.7.8-.3 2.6-.6 3.3-.7 4.3 4.8 11.2 4.2 17.4 3.9 6.3-.3 11.9-2.1 17.2-4.1 2.9-1.1 6.5-2.3 9.5-2.6 3.8 10.2 15.7 22.5 27 22.1 4.5-.2 2.1 1.6 4.6-4.3 1.8-4.2 2.8-8.6 3.6-13 1.2-6.5.1-13.6 1.4-20.1 1.4-6.9 4.9-8.5 9.5-14.5 5.6-7.3 9.6-15.3 13.3-23.4 3-6.6 4.6-14.8 6.9-21.9 2-5.9 1.4-14.4 4.7-19.4 7.9.9 15.2 1.7 21.3-5.8 3.8-4.7 7.1-12.2 8.3-18 1.9-7.9-2.4-13.3-8-18z"/><path class="st0" d="M529.8 706.7c-6.4-10.7-16.2-21.3-29.6-21.9-3.6-.2-11.9-.2-15.7 1.3-6 2.5-7.4 8.8-10.6 14.3-3.1 5.3-8.7 8.6-12.1 14.1-2.5 4-3.8 8.4-5 12.9-1.7 6.1-3.5 12.4-4.6 18.8-1 5.3-.7 12.5-4.3 16.5-10.6-6.9-22.6-9.9-33.2-17.2-6.8-4.6-12.8-.8-20 1.1-6.8 1.8-12.7 1.7-19.7 2-8.9.4-13.6 7.1-21.6 12.6-7.1 4.9-10.7 8.7-16 .8-7.7-11.5-6.3-27.2-13.8-38.8-8.1-12.4-14.4-23.1-19.1-37v-.9c-6.7.7-15.1-2.8-22.1-3.4-8.4-.8-13.9 1.8-20.7 7-13.4 10.3-23.3 26.4-28.9 42.4-12.9 36.9-3.7 76.6 18.4 108.7 3.6 5.2 5.3 5.8 11.3 7.8 14.9 4.9 33.6 3.5 49.6 5 29.5 2.7 60.1 2.6 89.7 1.2 12.8-.6 25.2 1.3 37.8-1.6 12.5-2.9 23.9-1.2 36.3-3.1 22.9-3.5 46.1-3.5 68.8-8 5.6-1.1 4.3 1.7 6.4-4.4 1.8-5.2 1.7-13.4 2.1-18.9 2.4-38.2-3.5-78.4-23.4-111.3z"/><path class="st3" d="M555.4 798.3c-.3-12.4-1.7-24.7-3.6-37-3.7-23.7-9.5-47.9-25.7-66.4-5.4-6.2-11.9-11.9-20.3-13-7.7-.9-15.3 1.6-22.6 3.6 4.5-11.5 6.5-23.9 8.2-36.1 1.2-8.6 2.3-17.3 3-26.1.9.1 1.9-.3 2.3-1.4 1-2.5 3.5-3.9 6.1-3.9 3.2 0 4 2.8 3.7 5.4-.3 2.6 3.8 2.6 4.1 0 .6-4.7-2.1-9-7-9.5-3.5-.4-6.6 1.1-8.8 3.6.2-3.9.3-7.8.2-11.6.5-.2.8-.6 1.1-1.2 2.4-5.9 10.6-2.8 14.5-.6 2.8 1.6 5.5 3.8 7.4 6.4 1.9 2.6 2.3 5.4 2.3 8.5-.3 11.8-11.9 29.7-25.6 25.2-2.5-.8-3.6 3.2-1.1 4 17.2 5.6 31.5-16.3 30.8-31.2-.4-8.2-6.9-14.3-14-17.6-5.1-2.4-11.6-3.2-15.6.4-.6-9.5-2.4-18.8-5.8-27.8-.9-2.5-2-4.9-3.2-7.3.9.4 1.9.2 2.5-.8 6.5-10.5 2.6-24.1-3.1-34-1.8-3.1-4-6.2-6.6-9.1-6.6-7.6-15-13.2-24.2-17.5-2.6-2.2-5.2-4.3-8-6.3-9.2-6.7-20.5-12.6-31.9-14.1-7.5-1-15.3-.9-22.8-.2-7.7.7-16.6 2.2-22.6 7.6-5.3 4.7-5.2 11.5-1.9 16.5-10.5-3.1-21.6-1.4-30.7 5.6-9.9 7.7-15.8 19.7-17.3 32-1.1 3.5-1.5 7.4.7 10.5.3.4.6.6 1 .8.1.3.1.5.2.8.2.6.5 1 .9 1.2-.2 1-.3 2.1-.3 3.1.1 2.3 3.3 2.6 4 .9.5-.3.8-.8.8-1.6.1-1.7.3-3.3.6-5 .6-1.3 1.2-2.5 1.9-3.6 2.5-4.5 5.6-8.6 8.9-12.6 3.1-3.8 6.4-7.7 9.9-11.3-2.1 2.5-4 5-5.8 7.5-10 13.8-17.9 29.4-24.3 45.3-.6.3-.9.8-.9 1.3-2.5-2.4-5.5-4.2-9.2-4.7-4.6-.6-9.2.7-13.3 2.9-7.7 4-15.5 12-16.4 21-1.3 12 11.8 32.1 24.8 26.5-2.2 9.5-3.7 19.1-4.2 28.9-.5 9.5.4 18.9 2.5 28.1-8.7-2.5-17.6-5.6-26.7-4.1-11.1 1.9-19 11.8-25.7 20-6.9 8.5-12.6 17.7-16.7 27.9-4.2 10.5-6.1 21.8-6.7 33-.8 14.6.8 29 6.2 42.6 2.2 5.5 4.9 10.6 7.8 15.8 2.6 4.7 5.7 9.4 7.4 14.5.8 2.5 4.8 1.5 4-1.1-1.4-4.4-3.8-8.5-6.1-12.5-2.8-4.9-5.6-9.8-7.9-15-5.4-11.9-7.5-24.8-7.4-37.7 0-11.9 1.6-23.7 5.4-35 3.5-10.4 9.3-20 16.1-28.6 6.3-8 13.7-17.7 24.2-20 8.9-1.9 18.5 2.2 26.9 4.5.1 0 .2.1.4.1 3.6 12.6 9.7 24.5 18.5 34.6 1.4 1.6 2.9 3.2 4.5 4.7-1.3 2-.9 5-.7 7.2.6 4.9 1.9 9.7 3.4 14.5 1.6 5.1 3.5 10.2 5.9 15 1.6 3.3 3.6 7.3 6.9 9.2.8.5 1.8.3 2.5-.3 9.1-8.4 18.4-16.4 27.5-24.8 4.8.5 9.7.7 14.5.5 5.4 27.7.8 56.3 6.2 84 .2.9 1.1 1.5 2 1.5 8.3-.1 16.9-1.9 24.7-4.9 2.5-1 1.4-5-1.1-4-6.9 2.7-14.4 4.4-21.9 4.7-4.9-26.9-.7-54.7-5.8-81.6 8.3-.7 16.6-2.4 24.6-4.8 11.5 7.3 21.9 16.2 34.2 22.1 1.3.6 3.2-.1 3.1-1.8-.2-3.2.6-6.5 1.2-9.6.9-4.6 2-9.2 3-13.7.9-4 1.9-8 2.5-12 .3-1.8 1.3-5.3-.4-6.7-.7-.6-1.4-.6-2.1-.4 3.3-2.6 6.4-5.4 9.4-8.4 7.3-7.3 13-15.8 17.1-25.2.4.8 1.2 1.3 2.3 1 9.6-2.6 19.9-6.1 29.2-.6 5.3 3.1 9.7 8.4 13.3 13.2 3.7 4.9 6.8 10.4 9.4 16 5.1 11 7.8 22.9 10.1 34.7 2.3 12.1 3.9 24.2 4.7 36.5.8 12.6.9 25.6-1.4 38-1.6-.2-3.1 2-1.8 3.6.5.6.7 1.6 1.1 2.3.8 1.6 3.4 1.2 3.8-.5 2.6-11.2 3.1-22.9 2.8-34.5zm-68-245.3v-.4c-.2-5-1.4-10-3-14.8-.1-.2-.1-.4-.2-.6 2.2 5 3.6 10.6 3.2 15.8zm-12.7-23.5c3 2.9 4.9 6.8 6 11.1-.8-1.5-2-2.9-2.9-3.9l-.6-.6c-1-2-1.9-4-2.9-5.9.2-.2.3-.5.4-.7zm-5.3 12.4c1.3 1.6 2.6 3.2 3.9 4.9-1.4-1.5-2.8-2.9-4.3-4.3-.1-.1-.2-.1-.2-.2.2-.1.4-.2.6-.4zm-1.9-8.8c.2.2.4.5.5.7-.1-.1-.3-.2-.4-.2-.4-.4-.7-.8-1.1-1.2l1 .7zm-3.2 5.4c-7.5-6.1-16-11.1-24.5-15.5-6.9-3.5-13.9-6.8-21.1-9.6 6.1 2 12.1 4.3 17.9 7 9.9 4.4 20.1 10.1 27.7 18.1zm-27.5-25.9c-4.3-2.4-9.2-3.9-13.8-5.3-4.2-1.3-8.4-2.3-12.8-3 6.7.4 13.4 1.9 19.6 4 1.8 1 3.5 2 5.2 3 1.6 1.1 3.2 2.1 4.8 3.3-1-.8-2-1.4-3-2zm-9.8-21.8c2.1.8 4.2 1.8 6.2 2.8l-2.7-.6c-4.2-2.2-8.6-4.1-13.2-5.5 3.3.9 6.5 2 9.7 3.3zm-23.1 8.5c7.6-1 15.8-1.6 23.4-1 .2 0 .4 0 .6.1 1.2.3 2.4.7 3.6 1.1 1.8 1 3.6 2 5.3 3.2-3.7-1.7-7.7-2.8-11.9-3.4-7.3-.9-15-.5-22.3.2.6-.1 1-.2 1.3-.2zm-4.3 8v.2c-.9-.1-1.8-.3-2.7-.3 1 0 1.8.1 2.7.1zm-30.4-9.6c.8-3.5 3.9-5.7 6.9-7.2 5-2.4 10.7-3.5 16.4-3.9-4.6 1-9 2.6-13.1 4.7-3.6 1.8-7.5 4.4-9.2 8.2-.5 1-.7 2.1-.7 3.1-.6-1.4-.7-3.1-.3-4.9zm23.3-5.6c-1.3.5-2.5 1.1-3.7 1.8-3.5 2-8.5 5.2-8.9 9.2-.8-2.6-.3-5.4 2-7.6 2.7-2.6 7-3.3 10.6-3.4zm-15.8 14.2c.2.6.5 1.1.9 1.6-.5.1-1 .1-1.4.2-2.5-2.9-3.3-5.9-.6-9-.4 2.4.1 4.9 1.1 7.2zm-39.3 10.8c-2.2 2.2-4.3 4.7-6.2 7.1-.1.1-.1.2-.2.3 1.8-2.8 4-5.2 6.4-7.4zm-7.8 22.1c2.2-3.7 4.7-7.1 7.5-10.3 3.9-4.5 8.3-8.6 13.3-11.7 2.1-1.3 4.6-2.6 7.1-3.2-10.2 6.4-21 14.8-27.9 25.2zm-.3 25.8c8.2-16.5 18.2-33.8 32.7-45.5 3.7-3 8.1-5.5 12.7-6.8.5.2 1.1.3 1.6.5 1.1.3 2-.4 2.4-1.2.8-.1 1.5-.1 2.3-.1-.7 1.7 1.8 3.6 3.5 2.2 3.7-3 8.8-3 13.3-2.5 5.3.6 10.5 2.4 15.4 4.2 10.1 3.7 20 8.3 29.5 13.5 10.3 5.7 20.2 12.4 28.2 21 3.6 3.9 6.7 8.2 9.3 12.9v.4c0 .9.5 1.5 1.2 1.8 3 5.8 5.2 12 6.7 18.3 1.3 5.2 2 10.4 2.4 15.7-.1-.1-.2-.2-.3-.2-3.4-2.6-7.4-4.4-11.2-6.2-4.2-2-8.5-3.8-12.7-5.9-2.3-1.2-6-2.8-7.1-5.2-.3-.7-.8-1-1.3-1.1.6-3.5.3-7.3-.7-10.7-1.3-4.5-4.8-8-8.7-10.3-4.3-2.5-9.2-3.6-14.1-4.2-4.1-.5-9-.9-13 .3-3.8 1.2-5.5 4.9-6.7 8.9-.8-1.5-1.9-3-3.2-4.2-3.2-2.8-7.5-3.9-11.6-4-6.6-.1-13.6 2.5-18.7 6.9-1.9-7.7-13.2-10.1-20.9-9.4-11.3.9-24.7 7.2-25.9 19.8-.3 0-.5 0-.8.2-3.4 1.4-6.9 2.7-10.4 4.1 1.9-4.6 4-8.9 6.1-13.2zm49.6 6c-1.8 1.7-3.5 3.5-5.2 5.3.4-.7.5-1.7-.2-2.5-5.4-6.6-15.9-2.1-22.8-1.3-2.6.3-2.6 4.4 0 4.1 3.6-.4 7.1-1.3 10.7-1.9 1-.2 2.1-.3 3.2-.3-.8.2-1.6.3-2.3.5-4.1.9-8.2 2.2-12 4-2.4 1.2-.3 4.7 2.1 3.6 2.7-1.3 5.6-2.2 8.5-3 1.9-.5 3.8-1 5.7-1.2.6-.1 2.8-.2 3 0 .4.5.9.8 1.4.9-1.6 1.8-3.3 3.6-5 5.3-6.9.8-14 2.4-20.8.8-3.8-.9-5.6-3.2-6.4-6.9-.6-2.7-.4-5.7.7-8.3 4.4-10.4 19.8-13.7 29.8-11.5 5.2 1.2 9.3 4.3 7.7 9.8-.5 1.6.7 2.6 1.9 2.6zm-19 20.2c1.4-.8 2.9-1.4 4.5-1.9 1.3-.3 2.4-.2 3.5-.9.5 0 .9-.1 1.4-.1 1.7-.1 2.3-1.9 1.8-3.1 1.9-2 3.7-4 5.5-6 5.3-5.7 11.4-12.3 19.1-14.8.7.5 1.8.6 2.6-.2 2.5-2.3 5.3-3.6 8-.9 2.5 2.6 3.7 6.5 4.7 9.8 1.1 3.8 1.7 7.6 2.4 11.4.8 4.3 2.4 7.8 5.3 11.1 2.9 3.4 6.6 5.9 9.6 9.2 3.3 3.5 3.3 9.1-.1 12.6-3.1 3.1-7.9 1.8-11.1-.3-1.4-.9-2.7-2.3-3.3-3.8-.5-1.2-.6-2.4-1.1-3.6-1.4-3-5.1-1.8-7.4-.9-4.8 1.9-8.8 4.7-13.1 7.4-4.5 2.8-9.1 2.2-13.4-.9-4.6-3.3-6.7-8.4-6.8-13.9 0-1-.9-2.2-2.1-2.1-3 .4-5.5 1.8-8.1 3.4-2 1.2-5.1 3.9-7.7 3.4-3-.6-2.8-5.3-1.9-7.4 1.6-3.2 4.7-5.7 7.7-7.5zm64.8.7l-.2-.2c-2.2-2.3-3.8-5.1-5.2-7.9-.5-1-1.5-1.2-2.3-.9l-.3-1.4c.9.8 2.4.9 3.2-.4 2.7-4.4 11.7 3 14 5.2 1.9 1.9 4.8-1.1 2.9-2.9-1.9-1.9-5.2-4.5-8.6-6.1 3.6-.2 6.9.7 8.8 4.5 1.2 2.4 4.7.3 3.6-2.1-4.8-9.8-16.2-6.2-24.4-3.7-.1 0-.2.1-.4.1-.1-.6-.2-1.2-.4-1.8.5-.2 1-.6 1.2-1.3 1.3-3.6 1.8-7.8 3.6-11.2 1.5-2.9 5.4-2.6 8.2-2.5 8.9.3 21.4 1.8 24.7 11.7 2.6 7.9-.6 16-7.7 20.1-6 3.4-14.2 4-20.5 1 .1 0-.1-.1-.2-.2zm-135.3 27.5c-4.6-4.6-7.6-11.5-7.2-18.1.4-7.1 7.3-13.5 12.9-17 6.9-4.3 15.2-4.9 20.5 2-.7 1.9-1.4 3.7-2.1 5.6-7.6-4.8-19.1 4.7-19.3 13-.1 2.7 4 2.7 4.1 0 .2-5.4 8.8-13.1 13.7-8.8-2.4 7.1-4.6 14.2-6.6 21.3l-1.2 4.3c-.2.1-.3.2-.5.3-4.7 4.1-10.5 1.3-14.3-2.6zm52.2 150.2c-1.7-1.7-3-4.4-4.1-6.4-2.1-4.2-3.7-8.5-5.2-13-1.4-4.3-2.6-8.7-3.4-13.1-.3-1.6-.5-3.2-.5-4.9v-1.1c10.5 8.9 23.3 14.7 37 17.1-7.9 7.2-15.9 14.2-23.8 21.4zm112.7-43.1c-.1 1.3-.4 2.6-.6 3.9-.8 4.1-1.8 8.2-2.7 12.4-1 4.2-1.9 8.4-2.7 12.6-.4 1.9-.8 4-1 6-10-5.3-18.9-12.4-28.2-18.7 12.7-4.5 24.7-11.1 35.3-19.5-.4.6-.4 1.3.1 2-.2.4-.2.9-.2 1.3zm19-30c-5.2 8.7-12.4 16-20.2 22.4-11.1 9.1-24.4 16.4-38.5 21.1-.8-.3-1.6.1-2 .7-19.7 6.1-41 6.9-60.3-.2-18.1-6.7-31.7-20.7-40.3-37.7-12.4-24.4-10.6-52.3-4.2-78.1 3.3-13.1 7.7-25.8 12.3-38.5.3-.9.7-1.8 1-2.7 4.4-2 9-3.7 13.4-5.4.3 2.3 1 4.7 2.2 6.5 2 2.9 5.3 4.4 8.7 5.1 2.9.5 5.8.6 8.7.4-1.5 1.2-2.8 2.6-3.9 4.1-5.9-2.2-12.7.3-18.7 1.1-2.6.4-1.5 4.3 1.1 4 4.7-.6 10.9-3 15.7-1.5-.7 2-.9 4.2-.4 6.4 1.1 4.8 5.5 7.1 9.9 5.5 3.6-1.3 6.7-4.5 10.3-5.8 1.2 9.5 8.6 18.7 19 18.4 4.6-.1 8.3-3.2 11.9-5.6 2.3-1.5 4.8-2.8 7.4-3.8.9-.4 1.8-.7 2.7-.9.2.6.4 1.9.6 2.5.6 1.8 1.7 3.3 3.1 4.6 3.2 2.9 7.3 4.8 11.7 4.3 9.9-1 13.1-13.5 7.3-20.6 8.9-.1 20.8-1.9 25.9 7.2 1.3 2.3 4.9.2 3.6-2.1-6.1-11-19.3-9.3-30-9.3-1.1 0-1.7.7-1.9 1.5l-3.6-3.3c11.2 4 25.7-.7 30.8-11.7 1.5 1.9 3.9 3.2 5.9 4.3 3.8 2.1 7.8 3.8 11.8 5.7 4 1.8 8 3.6 11.7 5.9 1.9 1.2 4.9 3.1 4.7 5.1-.1.5 0 .9.3 1.2 0 5.2-.2 10.5-.6 15.7-.9 12.9-2.6 25.8-4.9 38.5-2.4 12.4-5.8 24.3-12.2 35z"/><path class="st3" d="M460 616c-1.1-.5-2.1-1.2-3.1-1.9-2-1.3-3.8-2.9-5.9-4.1-2-1.3-4.2 1.6-2.5 3.2l1.5 1.5c-11.1 15.1-34.1 16.3-51.2 15.3-7.9-.5-15.7-1.9-23.4-3.7-8.8-2-17.7-4.6-25.6-8.9-5.8-3.2-11.4-7.7-13-14.4-.3-1.1-1.5-1.7-2.5-1.4-3.1.8-6.1 1.7-8.5 4-2 1.8 1 4.7 2.9 2.9.1-.1.2-.1.3-.2 4.7 12.2 6.4 25.3 12.8 36.8 5.4 9.6 13 18.2 22.5 23.8 18 10.6 43.1 8.2 59.9-3.9 15.3-11.1 23.3-29.2 31-45.9.2-.3.2-.7.2-1 .5.3 1 .7 1.5 1-.1 1.1.6 2.3 2 2.4 1.3.1 2.4.4 3.5-.5s1.1-2.7.1-3.7c-.7-.7-1.8-.9-2.5-1.3zm-113.2 9.2v.1c-2.7-3.3-5.2-6.9-7.5-10.5 2.6 2.5 5.7 4.6 8.9 6.4.1.1.2.1.3.2-.6 1.2-1.1 2.6-1.7 3.8zm4.2 23.4c-.4-.7-.8-1.5-1.2-2.3.5.6 1.1 1.2 1.6 1.8-.1.1-.3.3-.4.5zm12.9-20.1c-.5 1.9-.8 3.8-1.2 5.8-.2 1-.4 1.9-.5 2.9-.1.3-.1.7-.2 1-.2.3-.3.7-.2 1.2-4.6-3.2-8.7-7-12.5-11.2.5-.1.9-.4 1.2-.9.6-1.3 1.1-2.7 1.7-4.1 3.9 1.8 7.9 3.2 12.1 4.5-.3.2-.4.4-.4.8zm19.9 4.1c-1.9 4.6-3.5 9.6-3.6 14.6-.3.1-.7.3-.9.6-5.1-1.5-10.1-3.7-14.7-6.5.2-.1.4-.3.6-.5 1-1.1 1-3.2 1.3-4.6.4-2.2.8-4.5 1.3-6.7.1-.3.1-.6 0-.8 2 .5 4 1 5.9 1.5 3.4.8 6.8 1.5 10.2 2.1 0 .1 0 .2-.1.3zm11.6 28.5v-.5h.6s0 .1.1.1c-.2.1-.5.2-.7.4zm-.3-10.8c-3.6-.1-7.2-.5-10.8-1.3-.2-5.3 1.4-10.6 3.5-15.4.1-.3.2-.5.2-.7 7.3 1.1 14.6 1.7 22 1.4v.1c0 2.5.1 5 .2 7.6 0 1.3.1 2.6.1 3.8v.8c-.2.4-.3.9-.2 1.4.1.3.1.6.2.9-5 1.2-10.1 1.6-15.2 1.4zm34.4-9.1c-4.7 3.1-9.8 5.4-15.1 6.9.2-1.5-.1-3.4-.1-4.6-.1-3-.2-6-.2-8.9v-.3c4-.3 8-.8 12-1.6 4.1-.8 8.1-2 11.9-3.7-.4 1.1-.5 2.3-.5 3.5 0 .7.3 1.2.7 1.5-2.6 2.7-5.5 5.1-8.7 7.2zm-25.1 80.7c-5.3 6.1-12.5 9.9-20.6 10.2-7.9.3-15.5-2.9-21.2-8.2-2-1.8-4.9 1.1-2.9 2.9 6.4 6 14.7 9.4 23.6 9.4 9.3 0 18.1-4.5 24.2-11.5 1.5-1.8-1.4-4.8-3.1-2.8z"/><path class="st3" d="M389.1 683.4c2.6-.7 1.5-4.7-1.1-4-6 1.7-12.4.4-18.1-1.7-6-2.2-11.8-5.7-16.4-10.2-1.9-1.9-4.8 1-2.9 2.9 9.4 9.3 25.2 16.7 38.5 13zm-23.3-133c7.7-.9 14.2-6 22-6.2 2.7-.1 2.7-4.2 0-4.1-3.9.1-7.5 1.1-11.1 2.5-3.6 1.4-7.1 3.2-10.9 3.7-2.6.3-2.6 4.5 0 4.1zm53.9-6.2c4.6.7 8.7 2.1 12.6 4.6 2.2 1.5 4.3-2.1 2.1-3.6-4.2-2.7-8.7-4.3-13.6-5-2.6-.4-3.7 3.6-1.1 4zm-12.1 265c-.5-.8-1.5-1.2-2.3-.9-.5.2-1.1.3-1.6.5l-1.2.3c-1.2-.4-3 .4-2.9 1.9 0 .5.1 1 .2 1.5 0 0 0 .2.1.3-.4.8-.3 1.9.4 2.5.7.7 1.6 1.3 2.6 1.2.5 0 .9-.2 1.4-.4.1-.1.2-.1.3-.2h-.1.1c1.1-.1 2-.9 2-2.1v-.1c.5-.7.8-1.6 1.1-2.3.2-.8.3-1.5-.1-2.2zm-3.1 6.5z"/><path class="st3" d="M404.5 815.7c-.2.2.2 0 0 0zm-5.3-20.9c.6.6 1.1 1 2.1 1 .5 0 .9-.1 1.4-.3.4.3.9.5 1.4.5 1 0 1.9-.8 2-1.8.8-1.1.4-3-1.2-3.2 0-1.1-.2-2-1-2.9-.9-1-2.1-.7-2.9.1-1.1 0-2.1.8-2.1 2v.2c0 .2-.1.4-.1.6-.1.3-.1.7-.2 1v.1c-.2.3-.3.7-.3 1.1 0 .6.2 1.2.6 1.6.1-.2.2-.1.3 0zm.1-18c1.1.7 2.5.3 3.6-.3 1.8-1.1 1.7-2.6.8-4.2l-.9-1.5c-.1-.2-.3-.5-.4-.7l-.1-.1v.3c-.2-2-2.7-2.8-3.9-1-1.1 1.7-1.7 3.4-2.3 5.3-.5 1.8 1.8 3.1 3.2 2.2zm3.1-6.9c0 .1 0-.1 0 0z"/><path class="st3" d="M402.3 769.8c0 .1.1.1.1.2-.1-.1-.1-.1-.1-.2zm-4.1-10.4c.7.2 1.4.1 2.1-.1.5 0 1.1-.2 1.4-.6.4-.5.6-.9.6-1.6 0-.4-.1-.8-.4-1.2 0-.1-.1-.3-.1-.4l-.3-1c-.4-1.7-3-2.1-3.8-.5-.2.4-.4.9-.6 1.3-.2.1-.3.2-.4.3-.8.8-.8 2.1 0 2.9.5.5 1 .8 1.5.9zm-98.4-6.9c-1.1 5.3-2.4 10.6-3.7 15.9-.8-2.8-1.3-5.7-1.8-8.6-1.3-7.6-2.1-15.3-4.9-22.5-1-2.5-5-1.4-4 1.1 4.7 11.9 3.9 25.7 9 37.4-.5 2.3-1 4.5-1.4 6.8-1.9 9.9-3.3 20.3-1.4 30.3.5 2.6 4.5 1.5 4-1.1-1.9-9.7-.2-19.9 1.7-29.5.1-.3.1-.6.2-.9.5.7 1 1.4 1.6 2.1 1.7 2.1 4.6-.9 2.9-2.9-1.3-1.6-2.3-3.3-3.2-5.1 1.7-7.3 3.6-14.5 5.1-21.8.4-2.7-3.6-3.8-4.1-1.2zm203.5 2.2c-3.2 6-6.6 11.8-9.9 17.7 0-.1 0-.1-.1-.2-.9-2.9-1.5-6-2-9-.9-5.6-1.5-11.4-1.5-17.2 0-2.7-4.1-2.7-4.1 0 0 6.5.7 13 1.8 19.4.5 3.2 1.2 6.4 2.3 9.5.3.7.6 1.5 1 2.3-.6 1.2-1.1 2.3-1.7 3.5-4 8.6-7.3 18.3-5.4 27.9.5 2.6 4.5 1.5 4-1.1-1.7-8.9 1.9-18.1 5.6-26l.6-1.2c2.3.8 4.1-2.5 1.8-3.7 3.5-6.7 7.5-13.2 11.1-19.9 1.3-2.2-2.3-4.3-3.5-2z"/><text transform="translate(361.508 949.98)" class="st4 st5">SİZ</text><text transform="translate(1057.247 949.98)" class="st4 st5">müşteriniz</text><path class="st7" d="M553.3 474.4c35.9-25.1 70.1-52.7 102.1-82.6"/><path d="M644.5 391.8c5.5 1.3 8.9-4.2 14.1-3.9l-1.5-1.5c.4 6-.1 12-1.5 17.9-.4 1.7 1.8 2.6 2.7 1.2.3-.5.7-1.1 1-1.6 1-1.6-1.6-3.1-2.6-1.5-.3.5-.7 1.1-1 1.6l2.7 1.2c1.4-6.2 2-12.4 1.6-18.7-.1-.9-.6-1.4-1.5-1.5-4.8-.3-8.7 5.1-13.3 4-1.8-.5-2.6 2.4-.7 2.8zm-98.2 73.6l-3 14.6c-.2 1 .4 1.9 1.4 1.9 4.8.1 9.7 0 14.5-.4 1.9-.2 1.9-3.2 0-3-4.8.4-9.6.5-14.5.4.5.6 1 1.3 1.4 1.9l3-14.6c.5-1.9-2.4-2.7-2.8-.8z"/><path class="st7" d="M931.1 389.5c33.2 28.6 68.4 54.8 105.3 78.5"/><path d="M1033.6 457.6c.1 5.6 6.3 7.6 7.3 12.7.3-.6.7-1.2 1-1.8-5.8 1.8-11.6 2.8-17.7 3-1.7 0-2 2.4-.4 2.9l1.8.6c1.8.6 2.6-2.3.8-2.9l-1.8-.6c-.1 1-.3 2-.4 2.9 6.3-.1 12.5-1.2 18.5-3.1.8-.3 1.2-1 1-1.8-.9-4.8-7.1-7.2-7.1-11.9 0-2-3-2-3 0zm-95.6-77c-4.9.2-9.9.5-14.8.7-1 0-1.7.9-1.4 1.9 1.1 4.7 2.4 9.4 4 13.9.6 1.8 3.5 1 2.9-.8-1.6-4.6-2.9-9.2-4-13.9-.5.6-1 1.3-1.4 1.9 4.9-.2 9.9-.5 14.8-.7 1.8-.1 1.9-3.1-.1-3z"/></svg>