<svg id="Layer_1" xmlns="http://www.w3.org/2000/svg" viewBox="0 0 559 520"><style>.st1,.st2{fill-rule:evenodd;clip-rule:evenodd;fill:#e6e6e6}.st2{fill:#fff}.st3{fill:#e6e6e6}.st4{fill-rule:evenodd;clip-rule:evenodd}.st4,.st5{fill:#999}.st6{fill-rule:evenodd;clip-rule:evenodd}.st6,.st7{fill:#4d4d4d}.st8{fill-rule:evenodd;clip-rule:evenodd}.st9{fill:#1da1f2}.st10{fill:#373737}</style><path d="M181.3 118.1c-.9.3-1.8.7-2.7 1-40.3 15.5-75.3 42.5-97.9 86-3.9 7.4-7.4 15.5-8 26.3-.5 8.8 1.1 19.9 5.6 30.7 1.2 29.1 8.7 63 27.2 94 22.7 38.1 56.2 61.1 81.7 64.4 14 1.8 26.2-1.1 38.2-4.3 39.9-10.4 79.1-22.3 117.5-35.8 3.7-1.3 7.4-2.6 11.1-4 25.4-9.4 49.9-20.7 68.4-41.7 8-9.1 14.9-20 24.8-26.1 8-5 17.9-6.7 24.6-13.8 5.7-6 8.9-15.7 10.8-26.5 2.3-13.1 2.7-28.2-1.1-45.4-3.8-17.2-12.2-36.7-24-51.4-11.3-14.2-24.3-22.4-36-35.4-7.4-8.2-14.4-18.4-22.1-24.9-8.1-6.8-15.9-8.4-23.2-9.5-22.3-3.3-43.5-3.7-64.5-3.3-46 .9-90.7 5.1-130.4 19.7" fill="#cfebf6"/><path class="st1" d="M184.1 361.1c-5.2-.1-9.8-.3-11.1-4.4-.5-1.7-.2-4.7-.2-7.3 0-5.2.1-18.4.1-23.4 0-2.5-.2-5.1.2-7.2.5-2.5 2.7-4.6 5-4.9 1.6-.2 3.3.1 4.9.1 11.2.3 23.2.1 34.4.1 9.5 0 32.2-.2 41.9.2 3.2.1 7-.4 9.5.3 1.7.5 3 2 3.5 3.8.2.9 0 2.5 0 3.8v28.5c0 4.8.3 9-3.5 10.2-1.9.6-4.6 0-7 .1-15.4.7-44.7.2-60.9.2-1.2 0-2.9-.3-3.7 0"/><path class="st2" d="M196.5 359.7c16.8-.1 47.5 0 64.6 0 2 0 5.8.3 7.3-.2 1.2-.4 1.6-1.9 2.4-3-.1-6.9.3-23.8.3-31 0-4.5.9-8.9-2.7-9.8-23.6.1-61.6-.2-85.7-.2-1.7 0-3.6-.2-4.9 0-4.2.8-3.5 6.8-3.4 11.5.1 4.4 0 17.8 0 22.4 0 2.4-.3 5.3.1 6.8.3 1.2 1.7 2.6 3 3 2.2.6 4.8.1 7.3.7"/><path class="st3" d="M187.3 337c1.9 0 3.7-.7 5.3-1.9-.1.1-.2.1-.3.1-.3 0-.6-.2-.8-.5l-.3-.6a6.9 6.9 0 0 1-3.9 1.2c-1.9 0-3.6-.6-5-1.5-.1.2-.1.4-.2.6-.1.4-.4.6-.8.6h-.2c-.4-.1-.7-.6-.6-1 .1-.4.3-.9.4-1.3a7.5 7.5 0 0 1-2-5.2c0-4.2 3.6-7.8 7.8-7.8 1.7 0 3 .3 4.1.9 2.7 1.4 4.3 3.9 4.3 6.7 0 2.2-1 4.3-2.5 5.8.2.3.3.7.5 1 .1.3.1.6-.1.9 2.3-1.8 3.8-4.7 3.8-7.7 0-3.4-1.9-6.4-5.2-8.1-1.3-.7-2.9-1-4.9-1-5 0-9.4 4.4-9.4 9.5 0 5.2 4.3 9.3 10 9.3z"/><path class="st3" d="M189.4 323.3c-.6-.5-1.1-1-2-1.1-.2 0-.5-.1-.7-.1-2 0-3.5 1.8-3.5 3.5 0 1 .4 1.8 1 2.3.2-.2.4-.4.7-.6.4-.3.9-.2 1.2.2.3.4.2.9-.2 1.2l-.1.1c.3.1.7.1 1 .1.4 0 .7-.1 1-.1-.1-.2-.3-.3-.4-.5-.3-.3-.3-.9.1-1.2-.2.1-.4.2-.7.2 0 0-1.9-.1-1.9-1.7 0-.6.7-1.8 1.8-1.8h.4c.4.1.8.4 1.2.7.1.1.3.5.3.8 0 .4-.3 1.2-.9 1.6.3-.1.7-.1 1 .2.2.2.4.5.6.7.7-.7 1.1-1.7 1.1-2.5-.2-.6-.5-1.5-1-2z"/><path class="st3" d="M185.8 328.8l.1-.1c.4-.3.4-.8.2-1.2-.3-.4-.8-.4-1.2-.2-.2.2-.5.4-.7.6a11.5 11.5 0 0 0-3.3 4.8c-.2.4-.3.8-.4 1.3-.1.4.1.9.6 1h.2c.4 0 .7-.2.8-.6.1-.2.1-.4.2-.6.6-2 1.8-3.7 3.5-5zm7.2 5.3c-.2-.3-.3-.7-.5-1-.9-1.9-2-3.6-3.3-5.2-.2-.2-.4-.5-.6-.7-.2-.3-.6-.4-1-.2-.1 0-.1.1-.2.1-.3.3-.4.8-.1 1.2.1.2.3.3.4.5 1.4 1.6 2.5 3.4 3.4 5.4l.3.6c.1.3.4.5.8.5.1 0 .2 0 .3-.1.1-.1.2-.1.3-.2.3-.3.3-.6.2-.9z"/><path class="st1" d="M200.4 323.8h26.4v3.4h-26.4zm0 5.6h34.8v3.4h-34.8zm-22.2 11.1h87.7v3.4h-87.7zm0 5.3h87.7v3.4h-87.7zm0 5.4H250v3.4h-71.8z"/><path class="st4" d="M172.2 332.3c-6.8-.1-12.8-.4-14.5-5.8-.7-2.2-.3-6.2-.3-9.6 0-6.8.1-24.1.1-30.6 0-3.3-.2-6.7.3-9.4.6-3.3 3.5-6.1 6.6-6.5 2.1-.3 4.3.1 6.5.1 14.7.4 30.4.1 45.1.1 12.4 0 42.2-.2 54.9.3 4.3.2 9.2-.6 12.5.4 2.3.7 3.9 2.7 4.6 5 .3 1.1 0 3.3 0 5v37.4c0 6.3.3 11.9-4.6 13.3-2.5.7-6.1 0-9.1.1-20.1.9-58.6.3-79.8.3-1.6 0-3.8-.4-4.8 0"/><path class="st2" d="M188.4 330.4c22-.1 62.2 0 84.6 0 2.6 0 7.7.4 9.6-.3 1.5-.6 2.1-2.5 3.1-3.9-.1-9 .4-31.3.4-40.6 0-5.8 1.1-11.6-3.5-12.8-30.9.1-80.7-.3-112.3-.3-2.2 0-4.7-.3-6.5 0-5.5 1-4.6 8.8-4.4 15.1.1 5.8 0 23.3 0 29.4 0 3.1-.4 6.9.1 8.9.4 1.6 2.3 3.4 3.9 3.9 2.9.8 6.2.1 9.5.9"/><path class="st5" d="M176.3 300.7c2.5 0 4.9-.9 6.9-2.4-.2.1-.3.1-.5.1-.4 0-.8-.2-1-.6-.1-.3-.3-.5-.4-.8-1.5 1-3.3 1.6-5.1 1.6-2.5 0-4.8-.7-6.6-2-.1.2-.2.5-.2.7-.1.5-.6.8-1 .8h-.3c-.6-.2-.9-.8-.8-1.3.2-.6.4-1.1.6-1.7-1.6-1.8-2.6-4.1-2.6-6.8 0-5.4 4.7-10.2 10.2-10.2 2.2 0 3.9.4 5.4 1.1 3.6 1.9 5.6 5 5.6 8.7 0 2.9-1.3 5.7-3.3 7.7.2.4.4.9.6 1.3.2.4.1.8-.2 1.1 3-2.4 5-6.1 5-10.1 0-4.5-2.5-8.4-6.8-10.6-1.8-.9-3.8-1.4-6.4-1.4-6.6 0-12.3 5.8-12.3 12.4.1 7 5.7 12.4 13.2 12.4z"/><path class="st5" d="M179 282.7c-.8-.6-1.5-1.3-2.6-1.5-.3-.1-.6-.1-.9-.1-2.6 0-4.5 2.4-4.5 4.6 0 1.3.5 2.4 1.3 3.1.3-.3.6-.5.9-.7.5-.4 1.2-.3 1.5.2.4.5.3 1.2-.2 1.5-.1 0-.1.1-.2.1.4.1.9.2 1.3.2.5 0 .9-.1 1.3-.2-.2-.2-.3-.4-.5-.6-.4-.5-.3-1.1.1-1.5h.1c-.3.1-.6.2-.9.2 0 0-2.5-.1-2.5-2.2 0-.8.9-2.4 2.4-2.4h.5c.6.1 1 .5 1.6 1l.1.1c.2.1.4.7.4 1.1 0 .6-.4 1.5-1.2 2.1.4-.2.9-.1 1.3.3.3.3.5.6.7.9.9-.9 1.4-2.2 1.4-3.2-.2-1.2-.6-2.4-1.4-3z"/><path class="st5" d="M174.4 289.8c.1 0 .1-.1.2-.1.5-.4.6-1 .2-1.5-.4-.5-1-.6-1.5-.2-.3.2-.6.5-.9.7-1.9 1.7-3.4 3.8-4.3 6.3-.2.5-.4 1.1-.6 1.7a1 1 0 0 0 .8 1.3h.3c.5 0 .9-.3 1-.8.1-.2.2-.5.2-.7a14 14 0 0 1 4.6-6.7zm9.4 7c-.2-.4-.4-.9-.6-1.3-1.2-2.4-2.7-4.7-4.4-6.8-.2-.3-.5-.6-.7-.9-.3-.4-.8-.5-1.3-.3-.1 0-.2.1-.2.1h-.1a1 1 0 0 0-.1 1.5c.2.2.3.4.5.6 1.8 2.1 3.3 4.5 4.5 7.1.1.3.3.5.4.8.2.4.6.6 1 .6.1 0 .3 0 .4-.1.2-.1.3-.2.4-.3.3-.2.4-.6.2-1z"/><path class="st4" d="M193.5 283.3h34.6v4.5h-34.6zm0 7.3h45.6v4.5h-45.6zm-29.1 14.6h115v4.5h-115zm0 7h115v4.5h-115zm0 7h94.1v4.5h-94.1z"/><path class="st6" d="M158.6 290.3c-8.6-.2-16.3-.5-18.4-7.3-.9-2.8-.3-7.8-.3-12.1 0-8.6.2-30.6.2-38.9 0-4.2-.3-8.5.3-12 .8-4.1 4.5-7.7 8.4-8.2 2.6-.3 5.5.1 8.2.2 18.7.5 38.7.2 57.2.2 15.8 0 53.6-.3 69.7.3 5.4.2 11.7-.7 15.9.5 2.9.8 5 3.4 5.8 6.3.4 1.5 0 4.2 0 6.3V273c0 7.9.4 15.1-5.8 16.9-3.2.9-7.7 0-11.6.2-25.6 1.2-74.4.3-101.3.3-2 0-4.8-.5-6.2 0"/><path class="st2" d="M179.2 287.9c27.9-.1 79 0 107.4 0 3.4 0 9.7.5 12.1-.3 2-.7 2.6-3.2 3.9-5-.2-11.5.5-39.7.5-51.5 0-7.4 1.4-14.8-4.4-16.2-39.3.1-102.5-.3-142.6-.3-2.8 0-5.9-.4-8.2 0-7 1.3-5.8 11.2-5.6 19.1.1 7.3 0 29.6 0 37.4 0 4-.5 8.8.2 11.3.6 2 2.9 4.4 5 5 3.6 1 7.9.1 12.1 1.2"/><path class="st7" d="M163.9 250.2c3.2 0 6.2-1.2 8.8-3.1-.2.1-.4.1-.6.1-.5 0-1-.3-1.3-.8-.2-.3-.3-.7-.5-1-1.9 1.3-4.2 2-6.5 2-3.2 0-6.1-.9-8.4-2.5l-.3.9c-.2.6-.7 1-1.3 1h-.4c-.7-.2-1.2-1-1-1.7.2-.7.4-1.4.7-2.1-2.1-2.3-3.3-5.3-3.3-8.6 0-6.9 6-13 12.9-13 2.8 0 4.9.5 6.8 1.4 4.6 2.4 7.2 6.4 7.2 11.1 0 3.7-1.7 7.2-4.2 9.7.3.6.5 1.1.8 1.7.2.5.1 1-.2 1.4 3.8-3.1 6.4-7.8 6.4-12.8 0-5.7-3.1-10.7-8.6-13.5-2.2-1.2-4.9-1.7-8.1-1.7-8.3 0-15.7 7.3-15.7 15.7.1 9 7.2 15.8 16.8 15.8z"/><path class="st7" d="M167.3 227.4c-1-.8-1.9-1.6-3.3-1.9-.4-.1-.8-.1-1.1-.1-3.3 0-5.8 3.1-5.8 5.8 0 1.7.7 3 1.7 3.9.4-.3.7-.6 1.1-.9.6-.5 1.5-.4 1.9.3.5.6.4 1.5-.3 1.9l-.2.2c.6.2 1.1.2 1.6.2.6 0 1.1-.1 1.6-.2-.2-.3-.4-.5-.6-.8-.5-.6-.4-1.4.1-1.9h.1c-.4.2-.7.3-1.2.3 0 0-3.2-.1-3.2-2.8 0-1.1 1.1-3 3-3 .2 0 .4 0 .6.1.7.1 1.3.6 2 1.2l.1.1c.2.2.5.9.5 1.4 0 .7-.5 2-1.5 2.6.5-.2 1.2-.1 1.6.4.3.4.6.7.9 1.1 1.2-1.2 1.8-2.8 1.8-4.1.1-1.5-.4-3-1.4-3.8z"/><path class="st7" d="M161.3 236.5l.2-.2c.6-.5.7-1.3.3-1.9-.5-.6-1.3-.7-1.9-.3-.4.3-.8.6-1.1.9a21.24 21.24 0 0 0-6.2 10.1c-.2.7.2 1.5 1 1.7h.4c.6 0 1.2-.4 1.3-1l.3-.9c1-3.3 3-6.2 5.7-8.4zm12 8.8c-.3-.6-.5-1.1-.8-1.7-1.5-3.1-3.4-6-5.6-8.7-.3-.4-.6-.8-.9-1.1-.4-.5-1.1-.6-1.6-.4-.1 0-.2.1-.3.2h-.1c-.6.5-.6 1.4-.1 1.9.2.3.4.5.6.8 2.3 2.7 4.2 5.7 5.7 9 .2.3.3.7.5 1 .2.5.7.8 1.3.8.2 0 .4 0 .6-.1.2-.1.4-.2.5-.4.4-.3.5-.8.2-1.3z"/><path class="st6" d="M185.7 228.2h43.9v5.7h-43.9zm0 9.3h57.9v5.7h-57.9zm-37 18.4h146v5.7h-146zm0 9h146v5.7h-146zm0 8.9h119.5v5.7H148.7z"/><path class="st8" d="M120.7 418.8c.7 2.7-3.1 2.7-2.6.2.6-.9 1.7-1 2.6-.2zM52.9 232.9c6.7-1.7 6.5 8.5 1.2 8.4-4.4-.1-5.9-7.2-1.2-8.4zm1.9 5.3c.7-.8.4-1.8-.2-2.4-2.4-.2-1.2 2.4.2 2.4z"/><path d="M82 237.1h13.1c2.4 0 2.4-3.7 0-3.7H82c-2.4 0-2.4 3.7 0 3.7z"/><path d="M86.4 227.1v16.6c0 2.4 3.7 2.4 3.7 0v-16.6c0-2.4-3.7-2.4-3.7 0z"/><path class="st8" d="M465.7 132.4c.7 2.7-3.1 2.7-2.6.2.6-.9 1.7-1.1 2.6-.2zm-45.7 2.9c6.7-1.7 6.5 8.5 1.2 8.4-4.4-.1-5.9-7.2-1.2-8.4zm1.9 5.3c.7-.8.4-1.8-.2-2.4-2.4-.2-1.2 2.5.2 2.4z"/><path d="M472.2 362.6h13.1c2.4 0 2.4-3.7 0-3.7h-13.1c-2.4.1-2.4 3.7 0 3.7z"/><path d="M476.9 353.1v16.6c0 2.4 3.7 2.4 3.7 0v-16.6c0-2.4-3.7-2.4-3.7 0z"/><path class="st8" d="M343.1 143.7c7.5-1.8 6 7.9.7 7.7-4-.2-5.8-6.4-.7-7.7zm-.2 3.6c.2 1.6 2.6 1.3 2.4-.5-.9-.7-1.8.2-2.4.5zM402 373.8c4.8-.5 7.7 2 8.4 5.3.9 4.8-2.4 8.9-6.2 9.3-4.4.5-10.7-2.6-9.3-9.3.5-2.6 3.4-4.9 7.1-5.3zm5 6.2c-.8-4.5-8.9-2.8-9.3 1.4 1.2 5.3 10.5 4.7 9.3-1.4zm35-20c6.6-.6 5 8.7 0 8.9-5.7.1-6.1-8.3 0-8.9zm-.5 6c1.2-.3 2-1 1.9-2.6-1.9-1.1-3.6 1.5-1.9 2.6zm-72.9.4c4.3-.5 5.9 1.7 6.2 4.1 1.2 9-13.8 7.6-11.2-1 .4-1.5 2.1-2.8 5-3.1zm-2.2 5.5c.3 2.6 5.7 2.2 5.3-.7-.2-1.2-.8-1.6-2.6-1.4-1.6.1-2.8.4-2.7 2.1zm-269.3-221c3.4-.8 7.3 1 7.9 3.6 2 8.6-12.7 9.5-12.4 1.4.1-2.6 1.9-4.3 4.5-5zm4.8 5.1c-.3-2.8-6.5-2.7-6 1.4 1.6 2 6.3 1.2 6-1.4zm288.2-44.4c2.5-4.4 10.6-3.9 12.2.7 1.2 3.5-1.3 7.5-4.5 8.1-5.8 1.1-7.9-3.4-7.7-8.8zm3.1 1.9c-1.4 4.2 7 5.6 6 .5-.3-1.7-2.1-2.2-4.1-1.7-1.1.3-1.7.6-1.9 1.2zM75.1 184.7c11.5-2.3 14.7 14 3.6 16.5-6.8 1.6-13.5-5.5-9.8-12.4 1-2 3.4-3.6 6.2-4.1zm-1.9 4.8c-.8.6-2.2 2.1-2.4 3.3-.4 2.7 2.4 4.9 4.3 5.3 8 1.6 9.8-11.5 1-9.8-1 .1-2.2.6-2.9 1.2zm299.4-64.1c2.9-.7 4.1.6 4.3 2.1.8 5-7 6-7.2 1.2 0-2.1 1.1-2.8 2.9-3.3zM146.8 240.5c-10.2-.2-19.3-.6-21.8-8.7-1.1-3.4-.4-9.3-.4-14.4 0-10.1.2-36.2.2-46 0-4.9-.4-10.1.4-14.2.9-4.9 5.3-9.1 9.9-9.7 3.1-.4 6.5.1 9.7.2 22.1.6 45.8.2 67.7.2 18.7 0 63.5-.3 82.5.4 6.4.2 13.9-.9 18.8.6 3.4 1 5.9 4 6.9 7.5.5 1.7 0 5 0 7.5V220c0 9.4.5 17.8-6.9 20-3.8 1.1-9.1 0-13.7.2-30.3 1.4-88.1.4-119.9.4-2.4 0-5.7-.5-7.3 0"/><path class="st2" d="M171.3 237.7c33-.2 93.6 0 127.2 0 4 0 11.5.6 14.4-.4 2.3-.9 3.1-3.8 4.6-5.9-.2-13.6.6-47 .6-61 0-8.8 1.7-17.5-5.3-19.2-46.5.2-121.4-.4-168.8-.4-3.3 0-7-.5-9.7 0-8.3 1.5-6.9 13.3-6.7 22.6.2 8.7 0 35 0 44.2 0 4.7-.6 10.4.2 13.3.7 2.4 3.4 5.2 5.9 5.9 4.3 1.2 9.4.1 14.3 1.4"/><path d="M153.1 193c3.8 0 7.4-1.4 10.4-3.7-.2.1-.5.2-.7.2-.6 0-1.2-.4-1.5-1l-.6-1.2c-2.3 1.5-4.9 2.4-7.7 2.4-3.8 0-7.2-1.1-9.9-2.9l-.3 1.1c-.2.7-.9 1.2-1.6 1.2-.1 0-.3 0-.4-.1-.9-.2-1.4-1.1-1.1-2 .2-.9.5-1.7.8-2.5-2.5-2.7-3.9-6.2-3.9-10.2 0-8.2 7.1-15.4 15.3-15.4 3.3 0 5.9.5 8.1 1.7 5.4 2.8 8.5 7.6 8.5 13.1 0 4.4-2 8.5-5 11.5.3.7.6 1.3.9 2 .3.6.1 1.2-.2 1.7 4.5-3.6 7.6-9.2 7.6-15.2 0-6.8-3.7-12.6-10.2-16-2.6-1.4-5.8-2.1-9.6-2.1-9.9 0-18.5 8.7-18.5 18.6-.2 10.8 8.3 18.8 19.6 18.8z"/><path d="M157.1 166c-1.2-1-2.3-1.9-3.9-2.2-.4-.1-.9-.1-1.3-.1-3.9 0-6.8 3.6-6.8 6.8a6 6 0 0 0 2 4.6c.4-.4.9-.8 1.3-1.1.7-.5 1.7-.4 2.3.3.5.7.4 1.7-.3 2.3-.1.1-.2.1-.3.2.7.2 1.3.3 1.9.3.7 0 1.3-.1 1.9-.3-.3-.3-.5-.6-.8-1-.6-.7-.5-1.7.2-2.3 0 0 .1 0 .1-.1-.4.2-.9.3-1.4.3 0 0-3.7-.1-3.7-3.3 0-1.3 1.4-3.6 3.6-3.6.2 0 .5 0 .7.1.9.2 1.5.7 2.4 1.4l.1.1c.2.2.6 1.1.6 1.7 0 .9-.6 2.3-1.8 3.1.6-.3 1.4-.1 1.9.4.4.4.8.9 1.1 1.3 1.4-1.4 2.1-3.3 2.1-4.9-.1-1.2-.7-3.1-1.9-4z"/><path d="M150.1 176.8c.1-.1.2-.1.3-.2.7-.5.8-1.6.3-2.3-.5-.7-1.6-.8-2.3-.3-.5.4-.9.7-1.3 1.1a24.5 24.5 0 0 0-6.5 9.4c-.3.8-.6 1.6-.8 2.5-.2.9.3 1.8 1.1 2 .1 0 .3.1.4.1.7 0 1.4-.5 1.6-1.2l.3-1.1c1.3-4 3.6-7.4 6.9-10zm14.2 10.4c-.3-.7-.6-1.3-.9-2-1.8-3.7-4-7.1-6.6-10.2-.4-.5-.7-.9-1.1-1.3-.5-.6-1.3-.7-1.9-.4-.1.1-.2.1-.3.2 0 0-.1 0-.1.1-.7.6-.8 1.6-.2 2.3.3.3.5.6.8 1 2.7 3.2 4.9 6.8 6.8 10.6l.6 1.2c.3.6.9 1 1.5 1 .2 0 .4 0 .7-.1.3-.1.4-.3.6-.5.2-.7.3-1.3.1-1.9z"/><path class="st8" d="M178.9 167h51.9v6.7h-51.9zm0 11h68.6v6.7h-68.6zm-43.8 21.8h172.8v6.7H135.1zm0 10.6h172.8v6.7H135.1zm0 10.6h141.5v6.7H135.1z"/><path class="st8" d="M389.1 156.2c55.5-4.3 84.8 22.4 101.3 59.2 10.9 24.4 15.3 53.2 3.9 79.3-7.7 17.8-23.7 34.3-39.2 44.1-34.9 21.9-86.7 17.9-118.5-4.9-15.7-11.3-29.4-30.5-36.7-49.4-7.8-20.3-6.3-43 1-63.2 7-19.4 18.2-36.5 35.2-48 13.2-8.8 31.7-15.5 53-17.1z"/><path class="st2" d="M339.1 180.7c-19.3 13.6-37.4 42-37.2 73.4.2 31.5 18.9 55.8 35.7 70.5 5.5 4.7 11.7 7.9 18.1 11.3 51.5 26.6 112.1-1.1 131.2-43.6 15.7-34.8.1-80.1-18.1-99.4-3.3-3.5-5.7-7.6-8.8-10.3-15.3-12.8-40.7-21.3-72.5-18.6-18.6 1.6-36.6 8.4-48.4 16.7z"/><path class="st9" d="M378.7 314.1h-.1c-.2 0-.3-.2-.4-.3-.2-.3-.2-.4.4-.9 1-.8 3.8-2.5 10.9-6.9 4.3-2.7 9.6-5.9 15.2-9.3-29.1 17-29.2 17-29.7 16.9-.2 0-.3-.2-.4-.3-.2-.3-.2-.4.4-.9 1.1-.9 4-2.7 11.7-7.3 3-1.8 6.4-3.9 10.1-6.1-23.8 13.9-24 13.9-24.4 13.8-.2 0-.3-.2-.4-.3-.1-.3-.2-.4.4-1 1.1-.9 4.2-2.8 12.6-8 7.7-4.8 18-11.1 28.2-17.3 2.2-1.3 4.4-2.7 6.6-4-2.9 1.7-5.8 3.4-8.6 5.1-43.6 25.5-43.7 25.5-44.2 25.4-.2 0-.3-.2-.4-.3-.1-.3-.2-.4.4-1 1.1-.9 4.4-3 13.4-8.5 8.2-5 19.1-11.7 30.1-18.4 2.5-1.5 5.1-3.1 7.6-4.6-3.2 1.9-6.5 3.8-9.6 5.6-46.1 27-46.2 27-46.7 26.8-.2 0-.3-.2-.4-.3-.4-.7-.4-.7 14.9-10.1 8.9-5.4 20.9-12.8 32.5-19.8 3.2-1.9 6.4-3.9 9.6-5.8-3.6 2.1-7.2 4.2-10.7 6.3-49 28.7-49.1 28.6-49.6 28.5-.2 0-.3-.2-.4-.3-.4-.7-.4-.7 15.8-10.6 9.4-5.7 22.2-13.4 34.5-20.8.8-.5 1.7-1 2.6-1.5-1.1.7-2.3 1.3-3.4 2-51.4 30.1-51.5 30.1-52.1 29.9-.2 0-.3-.2-.4-.3-.4-.7-.4-.7 16-10.7 8.2-5 19-11.4 29.8-17.9-48.7 28.5-48.9 28.5-49.4 28.3-.2 0-.3-.2-.4-.3-.3-.5-.3-.5 4.9-5.1.1 0 .1-.1.2-.1-.3.1-.5.3-.8.4-6.5 3.8-6.5 3.8-6.8 3.7-.2 0-.3-.2-.4-.3-.2-.4-.3-.5 2.2-2.7-3.1 1.8-3.1 1.8-3.4 1.7-.2 0-.3-.2-.4-.3-.2-.3-.2-.3 1-2.7 0-.1.1-.1.1-.2-.3.2-.6.4-.9.5-3 1.8-3 1.8-3.3 1.7-.2 0-.3-.1-.4-.3-.2-.3-.2-.3.8-2.5-.6.3-.6.3-.9.3-.1 0-.7-.2-1.3-.4-.6-.2-.9-.3-1.2-.3-1.2.7-1.2.7-1.5.5l.3-.6-.3-.6c.1 0 1.1-.6 1.1-.6.2-.1.4-.1.6 0 .1 0 .8.2 1.4.4.5.1.9.2 1.1.3.2-.1.5-.3.8-.5 1.4-.8 1.5-.9 1.9-.4.2.4.2.4-.8 2.5v.1c.3-.2.7-.4 1-.6 3-1.8 3-1.8 3.3-1.7.2 0 .3.2.4.3.2.3.2.3-1 2.7 0 .1-.1.2-.1.2.7-.4 1.5-.9 2.3-1.3 4.3-2.5 4.3-2.5 4.6-2.4.2 0 .3.2.4.3.2.4.3.5-2.2 2.7.3-.2.7-.4 1-.6 1.5-.9 3.1-1.8 4.3-2.5 2.5-1.4 2.5-1.4 2.8-.9.1.2.2.4-.3.9-.6.6-1.9 1.8-4.6 4.2-.2.2-.5.4-.7.6 9-5.1 29.4-17.1 47.9-27.9 52.6-30.8 52.8-30.8 53.3-30.6.2 0 .3.2.4.3.4.7.4.7-16 10.7-8.1 4.9-18.7 11.3-29.4 17.7 45.8-26.8 45.9-26.8 46.4-26.6.2 0 .3.2.4.3.4.7.4.7-15.8 10.6-9.4 5.7-22.2 13.4-34.5 20.8-.6.3-1.1.7-1.7 1 0 0 .1 0 .1-.1 48.8-28.6 48.9-28.5 49.5-28.4.2 0 .3.2.4.3.4.7.4.7-14.9 10.1-8.9 5.4-20.9 12.7-32.5 19.8-3 1.8-6 3.6-9 5.5 2.5-1.4 4.9-2.9 7.3-4.3 46.1-27 46.3-27 46.8-26.8.2 0 .3.2.4.3.4.7.4.7-13.8 9.4-8.2 5-19.1 11.7-30 18.4-2.3 1.4-4.7 2.9-7.1 4.3 2.1-1.3 4.3-2.5 6.4-3.8 43.6-25.5 43.7-25.5 44.2-25.4.2 0 .3.2.4.3.1.3.2.4-.4 1-1.1.9-4.2 2.8-12.6 8-7.7 4.7-18 11-28.2 17.3-1.9 1.1-3.7 2.3-5.6 3.4 1.1-.7 2.3-1.3 3.4-2 39.5-23.1 39.6-23.1 40-23 .2 0 .3.2.4.3.2.3.2.4-.4 1-1 .9-4 2.7-11.7 7.3-2.9 1.7-6.1 3.7-9.6 5.8 19.2-11.2 19.3-11.2 19.7-11.1.2 0 .3.2.4.3.2.3.2.4-.4.9-1 .8-3.8 2.5-10.9 6.9-4.2 2.6-9.2 5.6-14.6 8.9 23.6-13.8 23.7-13.8 24.1-13.6.2 0 .3.2.4.3.2.3.2.4-.4.9-1 .8-3.5 2.4-9.8 6.3-6 3.7-13.9 8.7-21.9 13.6 28.3-16.6 28.4-16.5 28.8-16.4.2 0 .3.2.4.3.2.3.2.4-.4.9-.9.7-3 2.1-8.1 5.3-5 3.2-11.7 7.4-18.3 11.7-1.2.8-2.4 1.5-3.6 2.3.5-.3 1.1-.6 1.6-1 25.4-14.9 25.5-14.9 25.9-14.8.2 0 .3.2.4.3.2.3.2.4-.4.9-.8.6-2.7 1.8-6.9 4.5l-5.4 3.4c7.7-4.5 7.8-4.5 8.1-4.4.2 0 .3.2.4.3.2.3.3.4-.4.9s-2.1 1.5-5.1 3.4c-1.7 1.1-3.6 2.3-5.7 3.7.6-.4 1.2-.7 1.8-1 5.3-3.1 5.3-3.1 5.6-2.4.2.3.1.7-.2.9 0 0-.1 0-.1.1-.8.4-8.3 4.8-14.9 8.7-15.2 8.9-15.2 8.9-15.6 8.8-.2 0-.3-.2-.4-.3-.2-.3-.3-.4.3-.9.7-.5 2.1-1.5 5.1-3.4 1.8-1.2 4-2.5 6.3-4-18.4 10.8-18.5 10.8-18.9 10.7-.2 0-.3-.2-.4-.3-.2-.3-.2-.4.4-.9.8-.6 2.7-1.8 6.9-4.5 1.8-1.1 3.9-2.4 6.1-3.8-17.6 10.3-17.7 10.3-18 10.2-.2 0-.3-.2-.4-.3-.2-.3-.2-.4.4-.9.9-.7 3-2.1 8.1-5.3 5-3.2 11.7-7.4 18.3-11.7 1.4-.9 2.8-1.8 4.3-2.7-2.6 1.5-5.2 3-7.7 4.5-30.6 17.9-30.7 17.9-31.2 17.8-.2 0-.3-.2-.4-.3-.2-.3-.2-.4.4-.9 1-.8 3.5-2.4 9.8-6.3 6-3.8 14.1-8.8 22.1-13.7.2-.1.4-.2.6-.4-.9.5-1.8 1.1-2.7 1.6-32.2 18.4-34.7 19.8-35.2 19.8z"/><path class="st9" d="M376.9 292.1h-.1c-.2 0-.3-.2-.4-.3-.1-.3-.2-.4.4-.9 1.1-.9 4.2-2.8 12.4-7.7 1.6-1 3.4-2 5.2-3.1-16.6 9.7-16.7 9.6-17.1 9.5-.2 0-.3-.2-.4-.3-.1-.3-.2-.4.4-1 1.1-.9 4.2-2.8 12.3-7.7 3.7-2.3 8.1-4.9 12.7-7.7-28.6 16.7-28.8 16.7-29.2 16.6-.2 0-.3-.2-.4-.3-.1-.3-.2-.4.4-1 1.1-.9 4.3-2.9 13.1-8.3 8-4.9 18.7-11.5 29.4-18l7.8-4.8c-2.9 1.7-5.8 3.4-8.6 5.1-44.2 25.9-44.3 25.8-44.8 25.7-.2 0-.3-.2-.4-.3-.1-.3-.2-.4.4-1 1.1-.9 4.5-2.9 13.6-8.5 5.9-3.6 13.2-8 20.9-12.6-37.5 22-37.7 21.9-38.1 21.8-.2 0-.3-.2-.4-.3-.4-.7-.4-.7 15.5-10.4 9.2-5.6 21.7-13.2 33.9-20.5 1.2-.7 2.4-1.4 3.6-2.2-1.4.8-2.7 1.6-4.1 2.4-50.3 29.4-50.4 29.4-50.9 29.2-.2 0-.3-.2-.4-.3-.4-.7-.4-.7 16.6-11 7.4-4.5 16.9-10.1 26.6-16-43.8 25.6-43.9 25.6-44.4 25.4-.2 0-.3-.2-.4-.3-.4-.7-.4-.7 16.7-11 5.8-3.5 12.7-7.6 20.1-12-38.4 22.4-38.6 22.4-39 22.3-.2 0-.3-.2-.4-.3-.4-.7-.4-.7 15.9-10.5 1.4-.9 2.9-1.8 4.5-2.7-20.3 11.8-20.4 11.8-20.8 11.7-.2 0-.3-.2-.4-.3-.4-.7-.4-.7 16.1-10.7 5.7-3.5 12.7-7.6 20.1-12-36.3 21.2-36.4 21.2-36.9 21-.2 0-.3-.2-.4-.3-.4-.7-.4-.7 16.9-11.2 7.2-4.3 16.2-9.7 25.6-15.3-42.2 24.7-42.3 24.6-42.8 24.5-.2 0-.3-.2-.4-.3-.2-.3-.2-.3 1.2-2.6-2.4 1.4-2.4 1.4-2.7 1.3-.2 0-.3-.2-.4-.3-.1-.1-.1-.1-.3-1.9 0-.3-.1-.7-.1-.9-.1 0-.3-.1-.4-.3-.2-.3-.1-.7.2-.9l.2-.1c.2-.1.6-.4 1 0l.1.1c.1.1.1.1.3 2 0 .2 0 .5.1.7.4-.2.9-.5 1.3-.7 2.4-1.4 2.4-1.4 2.7-1.4.2 0 .3.2.4.3.2.3.2.3-1.3 2.8 6.9-3.8 30.7-17.8 52-30.3 53.9-31.5 54-31.5 54.5-31.3.2 0 .3.2.4.3.4.7.4.7-16.9 11.2-6.9 4.2-15.5 9.3-24.5 14.7 36.3-21.2 36.5-21.2 36.9-21.1.2 0 .3.2.4.3.4.7.4.7-16.1 10.7-5.7 3.4-12.5 7.5-19.8 11.9 34.3-20 34.4-20 34.9-19.9.2 0 .3.2.4.3.4.7.4.7-15.9 10.5-1.7 1-3.5 2.1-5.5 3.3 28.1-16.4 28.3-16.3 28.7-16.2.2 0 .3.2.4.3.4.7.4.7-16.7 11-5.6 3.4-12.4 7.4-19.6 11.7 36.3-21.2 36.5-21.2 36.9-21.1.2 0 .3.2.4.3.4.7.4.7-16.6 11-7.1 4.3-15.9 9.6-25.1 15.1 36.2-21.2 36.3-21.1 36.8-21 .2 0 .3.2.4.3.4.7.4.7-15.5 10.4-9.2 5.6-21.8 13.2-33.9 20.5-.6.4-1.3.8-1.9 1.2 44.2-25.8 44.3-25.8 44.8-25.7.2 0 .3.2.4.3.1.3.2.4-.4 1-1.1.9-4.5 3-13.6 8.5-5.7 3.5-12.8 7.7-20.2 12.2 33.2-19.4 33.3-19.4 33.8-19.3.2 0 .3.2.4.3.4.7.4.7-13.5 9.3-8 4.9-18.7 11.5-29.4 18-2.4 1.5-4.9 3-7.3 4.5 2.1-1.3 4.3-2.5 6.4-3.7 42.2-24.7 42.3-24.7 42.8-24.6.2 0 .3.2.4.3.1.3.2.4-.4 1-1.1.9-4.2 2.8-12.3 7.7-3.5 2.1-7.6 4.6-12 7.3 23.6-13.8 23.8-13.8 24.2-13.7.2 0 .3.2.4.3.1.3.2.4-.4 1-1.1.9-4.2 2.8-12.4 7.7-1.7 1-3.6 2.2-5.5 3.3 18.6-10.9 18.8-10.8 19.2-10.7.2 0 .3.2.4.3.2.3.1.7-.2.9-.1 0-.1.1-.2.1-1.6.7-22.4 12.9-40.8 23.7-38.6 22.2-41.4 23.7-41.9 23.7zm27.2-53h-.1c-.2 0-.3-.2-.4-.3-.2-.3-.3-.4.4-.9.8-.6 2.6-1.8 6.6-4.3 1.6-1 3.3-2.1 5.2-3.2-11.9 6.9-11.9 6.9-12.3 6.8-.2 0-.3-.2-.4-.3-.2-.3-.2-.4.4-.9.8-.6 2.5-1.7 6.4-4.2 2.3-1.4 4.9-3.1 7.8-4.9-13.5 7.9-13.6 7.9-14 7.8-.2 0-.3-.2-.4-.3-.2-.3-.3-.4.4-.9.7-.6 2.5-1.7 6.2-4.1 2-1.3 4.4-2.8 6.9-4.4-11.4 6.7-11.5 6.7-11.8 6.6-.2 0-.3-.2-.4-.3-.2-.3-.2-.4.4-.9.7-.6 2.2-1.6 5.4-3.7 3.3-2.2 7.8-5.1 12.2-8.1-18.2 10.4-18.2 10.4-18.6 10.3-.2 0-.3-.2-.4-.3-.3-.6-.3-.6 5.3-4.4 3.1-2.1 7.2-4.8 11.3-7.5.1-.1.2-.2.3-.2-14.9 8.7-14.9 8.7-15.3 8.6-.2 0-.3-.2-.4-.3-.2-.3-.3-.4.4-.9.6-.5 1.9-1.4 4.5-3.1 1.8-1.2 3.9-2.6 6.2-4.1-9.6 5.6-9.7 5.6-10 5.5-.2 0-.3-.2-.4-.3-.3-.6-.3-.6 3.9-3.5 1.6-1.1 3.7-2.5 5.8-4-6.2 3.6-6.3 3.6-6.6 3.5-.2 0-.3-.2-.4-.3-.3-.5-.3-.5 2.1-2.5 1.2-1 2.7-2.3 4.3-3.6.2-.1.3-.3.5-.4-1.4.8-1.5.8-1.7.7l.2-.6.6-.3-.6.3-.3-.6c.2-.1 2.2-1.3 3.8-2.2 1.9-1.1 3-1.8 3.7-2.1.8-.4.8-.2 1 .1.3.5.3.5-2.1 2.5-1.2 1-2.7 2.3-4.3 3.6-.2.2-.4.3-.6.5 1.3-.8 2.7-1.6 4.1-2.4 10.6-6.2 10.6-6.2 10.9-6.1.2 0 .3.2.4.3.3.6.3.6-3.9 3.4-1.7 1.2-3.9 2.7-6.2 4.2.1-.1.2-.1.3-.2 14.8-8.7 14.8-8.7 15.2-8.6.2 0 .3.2.4.3.2.3.3.4-.3.9s-1.9 1.4-4.5 3.1c-1.8 1.2-3.9 2.6-6.2 4.1 11.8-6.9 11.8-6.9 12.2-6.8.2 0 .3.2.4.3.2.3.2.4-.4.9-.6.5-2.1 1.5-5 3.4-3.1 2.1-7.2 4.8-11.3 7.6-.1.1-.3.2-.4.3.6-.3 1.1-.7 1.7-1 18.3-10.7 18.3-10.7 18.7-10.6.2 0 .3.2.4.3.2.3.3.4-.4.9-.7.6-2.2 1.6-5.3 3.6-3.3 2.2-7.7 5.1-12.2 8-.1.1-.2.1-.3.2.6-.3 1.1-.7 1.7-1 19.9-11.6 19.9-11.6 20.3-11.5.2 0 .3.2.4.3.2.3.3.4-.4.9-.7.6-2.5 1.7-6.2 4.1-2.1 1.3-4.5 2.9-7.1 4.5 14.3-8.3 14.3-8.3 14.7-8.2.2 0 .3.2.4.3.2.3.2.4-.4.9-.8.6-2.6 1.8-6.4 4.2-2.3 1.5-5 3.2-7.9 5 15.9-9.3 16-9.3 16.3-9.2.2 0 .3.2.4.3.2.3.2.4-.4.9-.8.6-2.6 1.8-6.7 4.3-1.6 1-3.4 2.1-5.3 3.3 13.8-8.1 13.9-8 14.2-7.9.2 0 .3.2.4.3.2.3.1.7-.2.9-.1 0-.1 0-.2.1-1 .5-12.7 7.3-22.9 13.3-21.4 13.2-23.2 14.2-23.7 14.2z"/><path class="st9" d="M365.2 271.1h-.1c-.2 0-.3-.2-.4-.3-.4-.7-.4-.7 16.1-10.8 9.1-5.5 21.4-12.9 33.5-20.2-50.3 29.5-50.5 29.4-51 29.3-.2 0-.3-.2-.4-.3-.4-.7-.4-.7 14.8-9.8 1.4-.8 2.8-1.7 4.3-2.6-21.2 12.4-21.4 12.3-21.8 12.2-.2 0-.3-.2-.4-.3-.4-.7-.4-.7 14.2-9.6 5.1-3.1 11.3-6.8 17.9-10.8-33.9 19.8-34 19.8-34.5 19.7-.2 0-.3-.2-.4-.3-.4-.6-.4-.6 7.1-5.5 4.2-2.7 9.7-6.4 15.3-10 1.4-.9 2.7-1.8 4.1-2.7-1.4.8-2.8 1.7-4.2 2.5-23.1 13.5-23.1 13.5-23.5 13.4-.2 0-.3-.2-.4-.3-.2-.3-.2-.4.4-.9.7-.6 2.5-1.7 6.2-4.1 3.1-2 7.1-4.6 11.3-7.2-20 11.7-20 11.7-20.4 11.6-.2 0-.3-.2-.4-.3-.2-.3-.3-.4.4-.9.7-.6 2.5-1.7 6.2-4.1 2.6-1.6 5.7-3.6 9.1-5.8-16.8 9.8-16.9 9.8-17.3 9.7-.2 0-.3-.2-.4-.3-.2-.3-.2-.4.4-.9.7-.6 2.4-1.7 5.9-4.1 3.7-2.5 8.6-5.7 13.5-9l3.4-2.2c-1.1.7-2.3 1.3-3.4 2-20.4 12-20.4 12-20.9 11.9-.2 0-.3-.2-.4-.3-.2-.3-.2-.4.4-.9.7-.6 2.2-1.6 5.5-3.8 3.4-2.3 7.9-5.3 12.5-8.4 1.1-.8 2.3-1.5 3.4-2.3-1 .6-1.9 1.1-2.9 1.7-18.4 10.8-18.4 10.8-18.8 10.7-.2 0-.3-.2-.4-.3-.2-.3-.3-.4.4-.9s2.1-1.5 5.2-3.4c1.5-1 3.2-2.1 5.1-3.3-11.7 6.8-11.8 6.8-12.1 6.7-.2 0-.3-.2-.4-.3-.3-.4-.3-.4 3.7-4.7l.6-.6c-.1.1-.2.1-.3.2-4.6 2.7-4.6 2.7-5 2.1-.2-.4-.2-.4 2.5-4 .1-.2.3-.4.5-.6-2.3 1.3-2.3 1.3-2.6 1.3-.2 0-.3-.2-.4-.3-.2-.3-.2-.3.5-2.1-.1 0-.1.1-.2.1-2.4 1.4-2.4 1.4-2.7.8-.2-.3-.2-.3.5-2.3.3-.8.5-1.7.6-1.8h.1l-.1-.3.2-.1c.2-.1.6-.3.9 0 0 0 .1.1.1.2.1.2.1.2-.5 2.3 0 .1 0 .1-.1.2.1-.1.3-.2.4-.2 2-1.2 2-1.2 2.3-1.1.2 0 .3.2.4.3.2.3.2.3-.5 2.1.3-.2.5-.3.8-.5 2.7-1.6 2.7-1.6 3-1.5.2 0 .3.2.4.3.2.4.2.4-2.4 3.9-.2.2-.4.5-.5.7.4-.3.9-.5 1.3-.8 4.3-2.5 4.3-2.5 4.6-2.5.2 0 .3.2.4.3.3.4.3.4-3.7 4.7-.2.3-.5.5-.7.8 3.6-2.1 9.2-5.4 14.4-8.4 18.2-10.7 18.2-10.7 18.6-10.6.2 0 .3.2.4.3.2.3.3.4-.4.9s-2.1 1.5-5.2 3.4c-1.5 1-3.2 2.1-5 3.2 12-7 12-7 12.4-6.9.2 0 .3.2.4.3.2.3.2.4-.4.9-.7.6-2.2 1.6-5.5 3.8-3.4 2.3-7.9 5.4-12.5 8.4l-3.6 2.4c1.7-1 3.5-2 5.1-3C390 235 390 235 390.5 235.1c.2 0 .3.2.4.3.2.3.2.4-.4.9-.7.6-2.4 1.7-5.9 4.1-3.7 2.5-8.6 5.7-13.5 9l-3.6 2.4c1.6-.9 3.2-1.9 4.8-2.8 21.7-12.7 21.7-12.7 22.1-12.6.2 0 .3.2.4.3.2.3.2.4-.4.9-.7.6-2.5 1.7-6.2 4.1-2.6 1.6-5.7 3.6-9 5.7 17.4-10.2 17.4-10.2 17.8-10.1.2 0 .3.2.4.3.2.3.2.4-.4.9-.7.6-2.5 1.7-6.2 4.1-3.2 2-7.2 4.6-11.5 7.3 22.4-13.1 22.4-13.1 22.8-13 .2 0 .3.2.4.3.2.3.2.4-.4.9-.8.6-2.6 1.9-6.7 4.6-4.2 2.7-9.7 6.4-15.3 10-2 1.3-4 2.6-5.9 3.9 8.6-5 19.4-11.3 29.6-17.3 46.4-27.2 46.5-27.1 47-27 .2 0 .3.2.4.3.1.3.2.4-.4 1-1.1.9-4.5 3-13.8 8.6-5.3 3.2-11.7 7.1-18.5 11.2 38.2-22.3 38.3-22.3 38.8-22.2.2 0 .3.2.4.3.1.3.2.4-.4 1-1.2.9-4.6 3-14.3 8.9-1.6 1-3.3 2-5.2 3.1 29.4-17.2 29.6-17.1 30-17 .2 0 .3.2.4.3.4.7.4.7-16.1 10.7-9.1 5.5-21.2 12.8-33.2 20 47.9-28 48-28 48.6-27.9.2 0 .3.2.4.3.2.3.1.7-.2.9-.1 0-.1.1-.2.1-1.8.8-27.8 16-50.7 29.4-47.8 28-51 29.8-51.6 29.8zm-20.6-27.5z"/><path class="st9" d="M354.8 246.6h-.1c-.2 0-.3-.2-.4-.3-.3-.5-.3-.5 3.4-3.3 1.9-1.4 4.5-3.3 7.1-5.3.5-.3.9-.7 1.4-1-.4.2-.8.4-1.1.7-11 6.4-11 6.4-11.3 6.3-.2 0-.3-.2-.4-.3-.3-.5-.3-.5 3-3.1 1.7-1.3 4.1-3 6.4-4.7.2-.1.3-.3.5-.4-.2.1-.5.3-.7.4-10.3 6.1-10.3 6.1-10.7 6-.2 0-.3-.2-.4-.3-.3-.5-.3-.5 2.9-2.9 1.3-1 3-2.2 4.7-3.4-8.5 5-8.5 5-8.8 4.9-.2 0-.3-.2-.4-.3-.3-.5-.3-.5 2.7-2.9 1.5-1.2 3.5-2.8 5.6-4.4l1.5-1.2c-.5.3-.9.5-1.4.8-8.9 5.2-8.9 5.2-9.2 5.1-.2 0-.3-.2-.4-.3-.3-.5-.3-.5 2.5-2.8 1.4-1.1 3.3-2.7 5.2-4.2.4-.3.7-.6 1.1-.9l-1.5.9c-8.9 5.2-8.9 5.2-9.2 5.1-.2 0-.3-.2-.4-.3-.3-.5-.3-.5 2.6-2.6.7-.5 1.5-1 2.3-1.6-5.6 3.3-5.6 3.2-5.9 3.2-.2 0-.3-.2-.4-.3-.3-.5-.3-.5 2.3-2.6 1.3-1 3-2.4 4.7-3.8.2-.1.3-.2.5-.4-1.6.9-3.2 1.9-4.4 2.6-2.7 1.6-2.7 1.6-3 1-.3-.5-.3-.5 2-2.5 1.1-1 2.7-2.3 4.2-3.6.2-.2.5-.4.7-.6-5.5 3.2-5.5 3.2-5.8 3.1-.2 0-.3-.2-.4-.3-.1-.2-.2-.4.3-.9.6-.6 1.8-1.7 4.5-4.1-2.5 1.5-3.8 2.2-4.5 2.6l-.1.1c-.8.4-.9.2-1-.1-.1-.2-.2-.4.3-.9h.1c.5-.5 1.6-1.4 3.6-3.1-3.2 1.9-3.2 1.8-3.5 1.3-.2-.4-.2-.4 3.1-4.2.1-.1.2-.3.3-.4l-1.2.7c-1.1.6-1.4.8-1.8.3-.2-.4-.3-.4 1.7-2.6-1 .6-1.1.5-1.3.1-.2-.4-.2-.4 1.2-2.7 0-.1.1-.1.1-.2h-.1l.2-.6-.3-.6c.1 0 .4-.2.8-.5 1-.6 1-.6 1.3-.5.1.1.3.1.3.3.2.3.2.4-1.1 2.6 1.8-1.1 1.8-1.1 2.1-1 .2 0 .3.2.4.3.2.4.2.4-1.7 2.6 2.7-1.6 2.7-1.6 3.1-1 .3.4.3.4-3.1 4.2l-.4.4c.4-.2.7-.4 1.1-.6 4.8-2.8 4.8-2.8 5.1-2.7.2 0 .3.2.4.3.1.2.2.4-.3.9h-.1c-.5.5-1.6 1.4-3.6 3.1 3.8-2.2 3.9-2.2 4.1-2.2.2 0 .3.2.4.3.1.2.2.4-.3.9-.6.6-1.8 1.7-4.4 4.1.1-.1.2-.1.3-.2 5.9-3.5 5.9-3.5 6.2-3.4.2 0 .3.2.4.3.3.5.3.5-2.1 2.5-1.2 1-2.7 2.3-4.2 3.6-.2.2-.5.4-.7.6.2-.1.5-.3.7-.4 7-4.1 7-4.1 7.3-4 .2 0 .3.2.4.3.3.5.3.5-2.3 2.6-1.3 1-3 2.4-4.7 3.8-.2.1-.3.3-.5.4.5-.3 1-.6 1.6-.9 8.7-5.1 8.7-5.1 9-5 .2 0 .3.2.4.3.3.5.3.5-2.7 2.7-.7.5-1.4 1-2.2 1.6 5.8-3.4 5.9-3.4 6.2-3.3.2 0 .3.2.4.3.3.5.3.5-2.5 2.8-1.4 1.1-3.3 2.7-5.2 4.2-.4.3-.7.6-1.1.9l1.5-.9c8.9-5.2 8.9-5.2 9.2-5.1.2 0 .3.2.4.3.3.5.3.5-2.7 2.9-1.5 1.2-3.5 2.8-5.6 4.4l-1.5 1.2c.7-.4 1.5-.9 2.2-1.3 9.7-5.7 9.7-5.7 10.1-5.6.2 0 .3.2.4.3.3.5.3.5-2.9 2.9-1.3 1-3 2.2-4.7 3.4 9.8-5.7 9.8-5.7 10.1-5.6.2 0 .3.2.4.3.3.5.3.5-3 3.1-1.7 1.3-4.1 3-6.4 4.7-.2.1-.4.3-.5.4.5-.3.9-.5 1.4-.8 11-6.4 11-6.4 11.3-6.3.2 0 .3.2.4.3.3.5.3.5-3.4 3.3-1.9 1.4-4.6 3.4-7.1 5.3-.5.3-.9.7-1.4 1 .8-.5 1.6-1 2.4-1.4 3-1.8 6-3.5 8.2-4.8 4.3-2.5 4.3-2.5 4.7-1.9.2.3.1.7-.2.9 0 0-.1 0-.1.1-.6.3-6.6 3.8-11.9 6.9-11.2 5.9-12.3 6.6-12.7 6.6z"/><path class="st10" d="M381.1 314.1c.3-.1.1-.4-.7-.3l-.6.4 1.3-.1zm-5.5-1c-1 .1-2.1.4-1.5.8 1-.3 1.2-.1 2.3-.5.8 0 1.4.2 1.3.4.3-.1 1.3.1 1.7-.1-1.1-.3-2.4-.4-3.8-.2-.4-.3-.1-.3 0-.4m3.5-22.3l-.6.4c.1-.1.3-.3.6-.4m-10.8-20.6c.2.1.3.1.4.2-.1-.1-.2-.2-.4-.2m-9.9-4.6c.1.1.3.2.4.3-.1-.2-.3-.3-.4-.3m20.7 25.2l1.6-1.1c-.2 0-.9.6-1.6 1.1m-14.6 21.7h.7-.7c.1 0 0 0 0 0m-5.9-11.8l-.4.1c-.1.1-.2.2-.3.2l.7-.3zm-14 1.5c.2 0-.6-.3-.9-.5.2.1.2.2.1.2.2.1.4.2.8.3m16.6 8l.5.1c-.2 0-.4 0-.5-.1m8.8-13.4s.1.1.2 0h-.2m30.7 15.8c-.1 0-.2 0 0 0m-19.6.5h.3c0-.1.1-.1.1-.2l-.4.2zM349 254.7c.3.4.1.2 0 0m56.7-25.7c-.5 1.5 0-2.5-.7-.3.1-.1.1.4.2.8.2.3.3.4.5-.5m-41.6 83.4c-.2-.1-.4-.1-.7-.2.3.1.5.2.7.2m-12.8-73.6c0 .1 0 .2.1.4 0-.1 0-.2-.1-.4m-5.4 7.9v-.5.2c-.1.1-.1.2 0 .3m.1-19.8c0-.3 0-.5-.1-.9v.1c.1.2.2.4.1.8m1.9-13.6l-.2.2c0 .1-.1.3-.1.4l.3-.6zm90.5 77.1c-.3.2-.5.2-.7.3.4 0-1 1.6.7-.3m-73.8 21.9c-.1.1-.2.1-.5.1.2 0 .3.1.5.1v-.2m-21.4-85.7c-.1-.8-.1-1.6-.1-2.4 0 .7 0 1.5.1 2.4m1.2-19.2c.2-.4.4-.8.6-1.3v-.3c-.3.6-.4 1.1-.6 1.6m437.1 300.3z"/><path class="st10" d="M426.7 301.3c1.8-1.3.6-1 .8-1.5 2.1-1.7 1.2-.5 2-.8 1.2-1.1 2-2.2 2.9-3.1.1 0 .3-.1.2.1 1.1-1.4 3.8-3.5 4.9-5.3.1-.1.2-.1.3-.1-.4.1-.6 0-.7-.2.7-.7 1-1.5 1.5-1.6-.4.4-.4.6-.5.8l.6-.8c1-.4-.8 1.1-.6 1.4 1.3-1.6 2.5-3.6 3.6-4.7.5 0-2.2 2.9-.6 1.5-.6.6-1.1 1.2-1.7 1.7 1.7-.9-1 1.1.7.3 2.1-2.4 2.1-2.8 4.1-5.3.2-.7-.4 0-.2-.7 2.2-3.9 2.9-2.3 4.2-5.4.2-.9-.1-1.4 1.3-3.3v.9c1.5-2.6.2-1.8 2-4.5-.1.6-.9 2.2-.7 1.8 1.3-1.7.4-1.4 1.1-2.9l.5-.1c1.3-3 2.3-6.4 3.4-9.9.1.2 0 .9.4.1 1.2-4.4 2.6-9.3 3.5-13.7 0-.6-.1-1.1-.2-1.7 0-.4.3-.7.3-.3.3-1.7-.2-.1-.3-.9.1-1 .3-1.3.4-.6 0-1.5 0-3.7-.1-5.8 0-1.1 0-2.2-.1-3.2v-1.1l.2-.1c.1-.1.2-.1.3-.1l-.1.2c.1-.1.2-.1.3-.2.2-.1.3-.3.5-.5.3-.3.5-.6.7-.9.4-.6.8-1.1 1.8-1.7l-.3.3c1-.9 2.1-1.8 3-2.8.5-.5 1-1 1.4-1.5.5-.5.8-.9 1.5-1.7.6-.7 1.2-1.5 1.8-2.2.6-.7 1.1-1.5 1.6-2.2.6-.8 1.1-1.5 1.6-2.2.3-.4.6-.8.9-1.1.2-.2.3-.4.5-.6.2-.2.2-.3.3-.4-.2.1-.3.1-.3 0-1.4.7-3.3 1.4-5.1 2.2-.9.4-1.7.7-2.3 1-.6.3-1 .5-1.2.7-1 .2-1.8.4-2.1.4h-.7c-.2-.1-.5-.1-.6-.2-.1 0-.4.2-.8.4s-1 .5-1.5.6l1.2-.7-1 .4c-.2.1-.3.1-.4.1l1.7-.8v-.1c-.2.1-.7.4-1 .5.1-.2.8-.6 1.2-.9.5-.3.7-.3.8-.3l.1-.1.4-.5.8-1c.5-.7.9-1.4 1.4-2.2.1.2-.4.9-.7 1.5 1.3-2.5.7-.1 1.7-2.5-.3.2-.1-.2-.1-.4.3-.4.6-1 1-1.6.3-.7.8-1.5 1.1-2.3.6-1.6 1.2-3.2 1.6-4.7.1 0 .2.1.2.2.1-.3.2-.6.3-1 .1-.2.1-.5.2-.8-1.5.8-3 1.7-4.5 2.6-1.5.9-3 1.7-4.4 2.4l-1.2.6-1.2.5c-.8.3-1.6.7-2.4.9 1.4-.4 1.2.2.1.6l-.6-.2c-.6.5 1.2-.2-.2.5-1.4.4-1.1-.1-.3-.5l-1.7.7c-.1-.1.2-.3.3-.5-.3.2-1.1.3-1.9.5-.4.1-.8.1-1.2.2-.2 0-.4.1-.5.2-.1 0-.2.1-.2.1v.1-.1h-.1l-.1-.1c-.2-.2-.4-.3-.5-.5-.6-.6-1.2-1-1.8-1.5-1.2-.9-2.3-1.6-3.8-2.5-.2.3-1.4-.5-2.4-.6-2.2-1.1-4.9-2.3-7.9-2.7-2.2-.1-.7.2-1.6.3-.1-.4-3.2-.4-1.6-.6-.9 0-1.7.1-2.4.1s-1.3.1-1.9.2c-.6.1-1.3.3-2.1.4-.8.2-1.7.5-2.8.9.5 0 1.1-.1.8.1-.8.2-1.8.5-1.8.3l.2-.1c-2.4 1-5.1 2.2-7.6 3.7s-4.5 3.4-5.6 5.3l.1-.2c-.8 1.2-1.6 2.4-2.2 3.7-1.1 1.7.4-1.1-.5 0-.9 2.2-1.6 3.8-2.2 5.5-.6 1.6-1 3.2-1.1 5.2-.1.2-.2.5-.3.9-.1.3-.1.7-.2 1.1a15.04 15.04 0 0 0 .1 5.5v.5l.1.3c-.3 0-.1 0-1.6-.3l.2.2c-1 .2-1.1-.3-1.8-.4.1.2 1 .3.4.4-8.2-.7-16.5-3.6-23.9-7.5-2.7-1.4-2.1.3-5.2-2l1.2.2c-2.8-1.2-5.5-3-8-4.8-2.5-1.9-4.9-3.9-7.2-5.8.3.2.4.1.8.5-.7-1.1-3.4-3.3-3.6-3.1-.6-.7 0-.3-.3-.8-.2-.3-.4-.5-.7-.8l-.4-.4-.2-.2-.3-.3c-.8-.8-1.5-1.5-1.8-2.1-.1-.2.4.3.7.6-.5-.4-1.5-1.6-2.4-2.5l-.3-.3s0-.1-.1 0l-.1.1c0 .1-.1.1-.1.2-.1.3-.2.5-.3.7-.2.3-.2.5 0 .3-.5.8-1 1.6-1.4 2.5-.2.4-.4.8-.6 1.3-.1.3-.2.5-.3.8-.4 1-.7 2-1 3 0 1.3-1.1 4.1-.5 4.5-.3-.1-.5.9-.6 2.2-.1 1.3.1 2.8.3 3.5-.2-.5 0 1.4-.3.8.1.9.3 1.7.4 2.3.2.6.4.9.5.7 0 1.7.7 3.2 1.3 4.5.7 1.3 1.3 2.4 1.4 3.4 1.1 1.8 2.4 3.4 3.8 4.8l.3.3.2.2c.1.1.3.2.4.4.3.3.7.5 1.1.8.2.2.5.3.7.4 0 0 .2.1.1.1h-.4c-.4-.2-.5-.3-.4-.4-.2-.1-.4-.3-.6-.4-.3-.2-.6-.5-1.1-.6l.6.3c.2.1.3.2.5.3l.3.2c.1 0 0 .1 0 .1 0 .1-.1.2-.3.2-.4.1-1.1 0-1.8-.3-.1-.1-.2-.1-.1-.1h.2c.1 0 .3-.1.3-.1h-.3l-.3-.1c-.5-.1-1-.3-1.5-.5-1.5-.6-3.3-1.6-4.9-2.4-.1.2-.1.6-.1 1v1.1c0 .7 0 1.5.1 2.2 0 .4 0 .7.1 1.1l.2.9.3 1.4c-.1 0-.2-.4-.3-.8.1.8.2 1.8.5 1.7l-.2-.7c.1-1.3 1.4 2.8 1.7 2.8-.5-.5-.3.4-.1 1.3.2.8.5 1.6-.4.8.2.5.6 1 .7.8.2.7.2 1-.2.3.6 1.3 1 1.6 1.2 1.9.3.3.5.7 1.1 1.7-.1.1-.4-.3-.7-.5.4.5.9 1 1.4 1.5.5.6 1 1.2 1.6 2.1-.1-.1-.1.2-.4-.3 1.1 1.4 2.4 2.4 3.6 3.4.6.5 1.3.9 2 1.4.7.5 1.4 1 2.2 1.6-.6-.1-.4.2 0 .4.1.1.2.1.3.2.1.1.2.2.3.2.1.1.1.2 0 .3.2.1.5.2.9.3v-.2c.3.1.7.3 1.1.4l1.3.3c.3.1.6.2.7.2-.5-.1-1-.2-1.4-.3l1 .3.5.1.3.1s-.1 0-.2.1h.3-.1l-.2-.1c1 .2 1.6.3 2.1.3.2 0 .4.1.6.1.1 0 .2 0 .4.1-.1 0-.4.1-.7.1.3-.1-1.7.4-3.1.2-.2.2-.8.5-2.1.4-.4-.1-.4-.5-.7-.6 0 .2-.7.3-1.4.2-1.4-.1-3-.3-3.4-.2.3 0 .1-.3-.2-.4-.2.1-.4.1-.5.2v.1c-.1 0-.1.1 0 .2v.5c0 .1-.1.1-.3-.1.6 1.7.6 1.4.7 1.3.1-.1.1-.2.7 1.5-.1-.3-.1-.1-.4-.7.2.4.3.9.6 1.3.2.4.3.7.5 1.1.4.6.7 1.3 1.1 1.9.8 1.2 1.7 2.3 2.5 3.4.2 1-1.6-1.9-1.4-.9 2.6 3.3 6.3 5.7 9.7 7.6-.2-.1-.4-.2-.6-.4.8-.3 2.5 1.6 4.5 2-.5-.1-.7.1-.6.1 1.2.4 2.4.8 3.8 1 .8.1 1.8.1 3.3.1h.3l-.2.2c-.1 0-.1-.1-.2-.1-1.2.7-2.1 1.5-3.2 2.1-.3.4-1.1.9-.5.8-2.4.9-4.5 2.1-6.6 3.2-2.1 1.1-4.2 2-6.5 2.3.5-.1 1.2-.5.8-.4-1.2.4-2.4.8-3.7 1.1.4.2.5.1 1.4.1-.4.3-1.5.7-2.4.9 1.7-.5-.1-.4-.9-.5.1.1-.1.2 0 .3-2.1-.1-.2.7-3 .7l.1-.2c-1 .2-1.9.5-3.1.6-.5-.3 1.1-.2 1.1-.5-1.6.2-3 .9-4.6.6.7-.1 1.8-.1 2.4-.3-.4-.1-.7-.1-1-.2-.3 0-.6-.1-.8-.1h-1.7.2c-1.2 0-2.6-.2-4.3-.4l1.4.2c-.4.2-.9.3-1.5.3s-1.5-.1-2.3-.2c-.1 0-.2 0-.4.1h-.3s.1.1.2.1c.6.3 1.3.7 2.1 1.1-2-.9-2.5-1.1-2.4-1 0 .1.4.4-.3.2.4.4 1.4 1.1.7.8 1.2.5 1.6.9 2.2 1.3.3.2.7.4 1.1.7.4.3 1.1.5 1.8.8-.1.1 1.7.9 1 .9 1.2.6 1 .5.7.2-.3-.3-.9-.6-.7-.6.4.2.9.4 1.3.6.5.2.8.4 1.1.5.7.3 1.3.7 2.1 1.1 1.4.8 3.1 1.5 4.9 1.9 1.5.4 2.5.6 3.4.7.9.1 1.8.2 3.2.5.9.5-.9.2-.9.2 1.5.6 2.7.9 4.1 1.1-.3 0 0 .2.4.4 1.2.2.9-.3 2.4.2-.3.1-.7.2-1.3.2 1.4.2 2.8.2 4.3.3.4.3-.9.2-1.5.2 1.6.2 4.3.4 4.8.1-.3-.1-.7-.2-1-.2.6.1.3.3-.2.3-1.4.1-2-.4-2.1-.5l1 .1c-1-.8-4.1-.5-6.2-1l1-.3h-2.2c-.4-.2-.6-.6.4-.4-1.4-.6-1.3-.1-2.5-.7-.1-.1-.1-.1.1-.1l-1.4-.2c.3 0-.1-.4.7-.1-2.4-1-4.1-.9-4.9-1.6h.2c-3.5-1.1-.5.3-3.2-.3-.5-.5-.9-1-1.3-1.6l-.5.2c-.3-.2-1-.5-.8-.6-1.4-.3.1.2-.7.2-.7-.5-1.9-1.1-2.8-1.5-.9-.4-1.6-.9-1.2-1-.5-.1-.3.1-.1.2.1.1.2.2-.8-.2.3-.2-.1-.4-.8-.7-.7-.3-1.7-.7-1.9-1 1.5.5 1.8.9 1.8.5-1.7-.5-2.7-1.3-.5-.7.4.1.7.1.8.1-.7-.2-.2-.2.6-.2s1.8.1 2.8 0c0 .1.8.2 2.3.1 1.4 0 3.1-.1 4.2-.2l-.1.1c.2-.3.8-.5 1.6-.6.8-.2 1.8-.4 2.6-.6 0 .3-.3.5-1.1.8l1.5-.3c.3-.2.8-.4 1.7-.7l-.3.4c2-.6 3.9-1.5 6.5-2.3 0-.4-2.3-.1.2-1.3.2.1.4.4-.3.7.2-.1.7-.5 1.2-.6l-.9.7c1.2-.4.5-.5 1.4-.8.1.2.7-.1.7.1-.2.1-.8.2-1.1.5 1-.4 2.3-.8 2.8-.8-.1-.1-.1-.3.6-.7 1.8-1 .8-.1 1.9-.5.4-.4 1.6-.9 1.4-1.2.5-.3.7-.2 1-.2.1-.1.2-.2.4-.3.2-.1.4-.3.7-.5.6-.4 1.2-.8 1.7-1.2 1-.8 1.6-1.3.7-.8l-.3.2.1-.1c.4-.4.9-.7 1.3-1.1l.7-.6.4-.3-.2-.1c-.7-.1-1.4-.1-2.2-.2-.8-.1-1.5-.2-2.3-.4-.4 0-.8-.2-1.2-.2l-.9-.2c-.6-.1-1.2-.3-1.7-.5v-.1c-2-.5-4.2-1.5-5.5-2.1-.5-.3-1.1-.9-.8-.9-1.3-.8-1.6-.8-3.1-2.3 1.3.8-.3-.5 1.3.9-1.5-1.3-1.7-1.8-3.4-3.1.7.3-.7-1.3-1.3-2.1.2.4.4.8.7 1.2-.7-.8-1.3-1.5-1.7-2.3l.6.2c-.7-1.4-1.4-2.5-2.1-3.6-.1-.2-.1-.2-.2-.2l-.1-.2c-.1-.1-.2-.3-.3-.4-.1-.2-.2-.3-.3-.5l-.1-.2v-.1c0-.1.1 0 .1 0 .4.1.9.2 1.3.5.2-.1 0-.2-.4-.3-.3-.1-.7-.2-.6-.4.3.1.7.1.9.2.2 0 .2.1.4.1.3.1.7.1 1 .2 1.3.2 2.5.3 2.9.2 2.1-.1 2.7-.4 3.2-.7.5-.3.8-.5 2.6-.8-.8 0-1.9-.1-.2-.7.1 0 0 0 0 0h-.1c-.1 0-.1 0-.1-.1-.1 0-.1-.1-.1-.1s.2-.1.5 0c.6 0 1.4.1 1.7.3.1.1 0 .1-.2.1.1 0 .2.1.2.1-.1.1-.3.1-.3.1-.1.1 0 .1.7 0 0 0 0-.1-.1-.1l.3-.3.1-.1c.1 0 0 0 .2-.1.3-.1.6-.2.8-.2-.1-.1 0-.1.6 0-4.1-.9-3.1-.6-1.6-.1-.2.1-.3.1-.5.2.2-.1.3-.1.5-.2-1.1-.3-2.3-.7-3.5-1-.6-.2-1-.3-1.5-.4-.5-.1-.9-.3-1.4-.4-.5-.1-.9-.3-1.4-.4-.5-.1-1-.3-1.3-.5-.4-.2-.8-.4-1.1-.6-.2-.1-.4-.2-.5-.3-.1-.1-.2-.1-.4-.2.1.1.3.3.3.4.1.1 0 .1-.1 0-1.5-1-1.8-1.2-2.1-1.2-.3-.1-.5 0-1.4-.7-.9-1.1.7-.1-1.3-1.5-1-1.1 0-.5.5-.2-.4-.3-.9-.7-1.2-1-.4-.4-.6-.8-.9-1.1-.6-.7-.9-1.4-1.3-1.9l.8.8c-.5-.5-.8-.9-1.1-1.4l.2.7c-.4-.6-.7-1.1-.6-1.1-.5-.5-.1.7-1.1-.3-.1-.2-.2-.5-.4-.7-.1-.3-.3-.6-.5-.8-.3-.6-.5-1-.4-1.3 1.2 2.6.2-.5 1.4 1.7-.3-.4-.5-.9-.8-1.5 0-.1.1 0 .2.2-.5-1.3-.6-1.5-.9-1.8-.3-.2-.6-.5-1-1.8.3.3.2-.7 0-1.2.3 1.1-.3.6-.6-.4-.3-1.8-.5-1.9-.6-2.9l.1 1.1c-.3-.3-.4-1.4-.5-2.2.2 0 .2.8.2.5-.2-.3-.2-.7-.1-1 0-.2 0-.3.1-.4 0-.1 0-.1.1-.2v-.1l.1.1c.4.3.6.5 1 .5.2.2.2.3.2.4 0 .1 0 .2.1.3.5.1 1 .3 1.4.4.2.1.4.1.5.2l.2.1.4.1c1 .4 2.3.8 4.1 1-.7-.2-1-.4-.9-.4h1.6c-.8-.1-1.7-.2-2.7-.3l-1.5-.3c-.5-.1-1.1-.3-1.4-.4l1.8.3c.6.1 1.2.1 1.7.1-.8-.1-1.6-.3-2.4-.5-.2 0-.4-.1-.6-.1-.1 0-.3-.1-.4-.1-.2-.1-.5-.1-.6-.2 1.3.2 1.1.2.6-.2.2.1.3.2.6.3.3.1.5.2.8.3.5.2 1.1.2 1.6.3 1 .1 1.8.2 3.2.4l1 .8c1.2.2 2.4.3 3.4.3h.8c.1 0 .1-.1.2-.1.1-.1.1-.2.2-.4-1.3-.9-2.6-1.7-3.7-2.6-.5-.4-1.1-.8-1.7-1.3-.3-.2-.5-.4-.7-.6l-.7-.7.6.7.3.3.4.3c-.7-.3-1.2-.9-1.9-1.6-.2-.2-.4-.3-.5-.5l-.3-.3-.2-.2c-.2-.3-.4-.5-.6-.7.3-.1-.1-.7-.3-1.2-.1.2-1.5-2.1-2-2.2-.2-.5-.3-1-.5-1.6-.3-.6-.5-1.2-.8-1.6-.3-.4-.5-.8-.7-1.1-.5-.7-.9-1.4-1.2-2.8.5.8.3-.5 1 1.2-.3-.9-.4-1.7-.6-1.7 0-.5-.8-2.5-.6-3.4-.1-.4-.4-.5-.4-1.5 0-.1.1 0 .1 0-.1 0-.2-1.7-.5-.7.4-1.5.5-3.5.9-5.4.3-1.9.9-3.8 1.7-4.8.2-.6.3-.7.4-1.1.1-.3.3-.6.4-.9 0-.1.1-.2.1-.2l.2.2.4.4c.3.3.5.6.7.8-.1 0-.1.1-.2-.1.3.4.5.6.6.7.2.1.5.3.7.4.4.2.9.5 1.9 1.6.8 1.4-1.3-1-.7-.2-.1.4.5 1.1 1.3 1.8.9.7 1.9 1.6 2.5 2.4l-.4-.3c.5.6 1.3 1.2 2.2 1.8.4.3.9.6 1.4 1 .5.3 1 .7 1.5 1.1 0 0-.1 0-.1.1 1.6.8 4.4 2.6 6.5 3.7-.8-.1-1-.4-.8.1 1 .5 0-.6 1.9.5.5.5 1.8 1.5 1.8 1.9-.6-.3-1.2-.7-1.8-1 .7 1 2.3 1.3 3.2 1.9l-.2.1c1.4.8 2.2 1 3 1.2.8.2 1.6.6 3.2 1.2l-.3-.3c1.9.3 1.3.9 3.2 1.2l.3.7c.6.1 1.6.4 2.8.7 1.2.3 2.5.5 3.5.8-.6 0-1.6-.1-2.6-.3-1-.2-2-.5-2.8-.6.6.2 1.6.6 2.5.8.9.2 1.8.4 2.1.4-.5-.1-1.1-.2-1.6-.4 1.6 0 3.5.5 5.8 1-.6.9 6.1 1.6 7.8 2.5 1.1 0 2.1.2 3.2.2 1.6.1 3.3.3 5 .4-.2-.9-.4-1.8-.5-2.7-.1-.5-.1-.9-.2-1.4l-.1-.8c-.1-1.1-.1-2.2-.1-3.4-.8 1.7 0-1.4-.7-1.1 0-1.1.1-1.5.2-1.6l.5-1.6c.2-.5.4-1.1.6-1.6.4-.7-.1 1.1.1 1 .7-2.3.5-.9 1.2-2.3-.4.2-.1-.9.5-2.1-.4.5-.7 1.1-1 1.7.2-.8.4-1.4.6-1.8.2-.4.5-.7.7-1 .2-.3.5-.6.7-1 .3-.4.6-.9.9-1.7l-.3 1c.2-.4.5-.9.8-1.5.4-.6.9-1.2 1.3-1.9.5-.6 1-1.2 1.4-1.8.4-.6.8-1 1-1.4.3-.1.7-.2.2.3.7-.7 1.6-1.3 2.5-2 .4-.4.9-.6 1.4-1 .5-.3.9-.7 1.4-.9 1-.5 1.9-1.1 2.8-1.4.5-.2.9-.3 1.4-.5.4-.1.9-.2 1.3-.2l-.3.3c.7-.2 1.2-.7 2.2-.7 0 .1-.3.2.1.2.4-.1 2-.7 3-.6l-.9.3c2 0 3.5-.1 5-.1s2.9 0 4.6.4c-.1.5 2.8 1.7 4.1 2.5h-.1c2 1.1 3.7 2.1 5.3 3.2l1.2.9c.1 0 .2.2.4.3l.4.4c.3.2.5.6.9.7.4-.1.8-.2 1.3-.3l.6-.2.4-.1c.5-.2 1.1-.3 1.6-.5 1.5-.1 3.9-.7 6.4-1.7.6-.2 1.3-.5 1.9-.8l.9-.4.3-.1c.3-.1.5-.2.5-.1.1-.1.4-.6.9-.9.1-.1.2-.1.2-.2-.1.3.3.6-.5 1l.1-.1c-.5.4-.7.6-.8.7 0 .1-.1.1-.1.2s0 0-.1.2-.2.4-.3.5l.4.6c-.5.5-1 1.1-1.6 1.7-.3.3-.5.6-.8.9-.4.4-.7.8-1.1 1.2-.6.6-1.1 1.1-1.8 1.6l-1.1.8-.5.4-.3.2-.4.2c-1.9 1.3-3.7 2.5-5.4 3.6h1l.1.1h.1c.9-.1 1.5-.1 1.8 0 2-.4 3.9-.7 5.7-1.2l-.5.5c1.2-.2 2.3-.4 3.4-.6.5-.1 1.1-.3 1.6-.4l1-.3c.1 0 .3-.1.4-.1.1 0 .1 0 .2-.1.1 0 .3-.1.5-.2l-.4.4s.2-.2.6-.4c.3-.3.9-.7 1.4-1 .3-.2.7-.4 1-.6.1 0 .1.1 0 .2-.5.4-1 .8-1.5 1.1-.2.2-.4.5-.6.7l-.7.6-.3.3-.5.5-.9 1c-.6.7-1.2 1.3-1.7 2 0-.1 0-.3.4-.7-1.2 1.2-5.1 4-4.2 4.1-.1-.1-.3 0-.6.2-.2.1-.5.4-.8.6-.2.1-.3.3-.5.4l-.3.2c-.1.1 0 .2 0 .4 0 .5.1 1 .1 1.5 0 .3.1.6.1.9.1.6.2 1.2.2 1.7l-.3-.3c.4 1.6.6 1.7.6 4-.1.5-.3.5-.2-.3-.3 1.8.3 1.4-.1 3.6 0-.3-.1-.6-.1-.8-.2 1.9-.1 1.7 0 2.8 0 1.2-.6 3.5-1 3.7.2.3.2 1.3-.1 2.4-.1.1-.1-.3-.1-.5-.2.8-.4 1.4-.5 2l-.3 1.7c-.2 1-.3 2-.8 2.9-.1 0-.2.1-.3.3.8-2.4 1.2-4.3 1.2-4.1-.3-.1-.9 1.8-.9.2-.1 1.6-.4 4.4-1.1 6.2-.1.1-.1.2-.2.2v-.2c-.2.4-.3.8-.4 1.2-.3.6-.4.9-.6 1.5-.3.1-1 2.1-1.4 3 .4.1-.2 1.2.5.2-.1.1 0-.2.3-.8 0-.1.1-.3.1-.4v.1c.2-.6.6-1.4.9-2.3-.1.8-.3 1.6-.9 2.6v1.5c-1 1.1-2.3 3.4-2.8 3.5-1.1 2.8-3.3 6.4-3.8 8.3-.4.8-.7.7-1 1l.6-1.2c-.8 1.6-2.8 4.3-2.7 4.9-1.5 1.6.4-1.2-1.4 1.2l.1-.4c-2.1 2.1-3.4 4.1-5 6.1-1.5 2-3.2 4-6 5.8.4-.2.6-.4.7-.4-3 2.3-6 4.7-9.3 6.7-3.3 2-6.7 3.9-10.2 5-2 .7-2.1 1-3.2 1.7l-.6-.2c-.6.4-1.3.8-1.9 1.1-1.4.6-2.8.8-4.3.9-1.5.2-3 .4-4.9 1l.5.2c-.7.1-1.8.4-2.7.5-.9.1-1.6.2-1.5 0-.1.1-.4.3-1 .3l-.1-.2c-1.1.3-2.3.5-3.4.7-2.7 0 .4-.8-3.6-.6-1.4.1-4.1.7-3.6.8.6 0 1.5.1 1.6.3l-1.3.1c-.2.6-1.3 1.2 2.1 1.6l2.3-.4.8.2c-.7.1-1.3.1-2 .1 1.1.3 1.8 0 2.6-.3.2.1.5.2 1 .2l2.2-.7c.3.2-1 .6.6.5 1-.4-1.1-.4.7-.8 1.1.1.9.4 2.1 0 .2.1-.1.3-.6.4 1.1-.3 3.1-.6 3.6-1 .6.1 1.6-.1 2.4-.3.8-.2 1.5-.3 1.5 0 .3-.2 1.9-.9 2.9-1.2-1.7 1.2 3.9-1.1 3.6-.3 1.2-1 4.9-2 7.1-3.4-.1.1-.3.3-.6.4 1.4-.5 1.8-.6 2.7-.9-.1-.6 2-1.6 2.8-2.5 1.8-.5-.7 1 0 1.2-.3-.3 2.5-1.9 1.8-1.9 1.3-.4 1.1-.5 1.9-.5-.1-.7 1-.8 1.8-1.7 1.8-.8.8.2 2.4-1.2 1.4-.8-.1.5-.1.5m29.1-41.6c-.1.4-.2.8-.3 1 0-.2.1-.5.3-1m1.2-4.2c-.1.5-.3 1.1-.5 1.8-.2.1-.2-.1-.1-.5-.1.3.3-.7.6-1.3m-5.2 7.8c.2-.6.3-.8.4-.9-.1.3-.2.6-.4 1.1v.1c.1-.1 0-.2 0-.3"/><path class="st10" d="M451.8 264.6c0 .1 0 .1-.1.3.1-.1.1-.2.2-.3v-.3c0 .1 0 .2-.1.3m-73.4 26.6l.1-.1c-.1.1-.2.1-.3.1.1.1.1.1.2 0m84.4-72.1l-.3.2.4-.2zM356 299.6h-.3.3m-10.5.9c-.6 0-1.4-.1-2.2-.2 1 .1 1.7.2 2.2.2m-8.5.2c.3.1.5.2.7.2l-.7-.2zm6.6-53.2c0-.1 0-.2-.1-.3-.1-.7-.1-.2.1.3m18.1 22.8l.3-.3c-.5.1-.8.2-.3.3m-18.5-43.4v-.3.3zm19.9 42.9c-.7.1-1 .1-1.1.2.4 0 1-.1 1.1-.2m8.3 43.9l.4.1.1-.1h-.5zm.5 0h.4-.4m1.3 0h-.9c.3.1.7.1.9 0m-12-2.1l-.1.1c.1 0 .1 0 .1-.1m-3-.8c.7.3 1.7.8 2.8 1l.1-.1c-.5 0-2.2-.9-2.9-.9m-11.5-6.3l2.2 1.2c-.4-.3-.8-.7.3-.3-1.4-.9-1.3-.8-1.2-.6 0 .1.1.2-.1.2-.1 0-.2-.1-.4-.1-.2-.2-.5-.3-.8-.4m-4.1-2.6c1 .5.8.2 1.2.3-.2-.1-.1 0-.1-.1 0 0-.1 0-.1-.1-.2 0-.5 0-1-.1m22.8-17.7l.3-.2c-.9-.5-.1.1-.3.2m-9-6.8l.4 1c.2.1.3.2.5.3-.2-.5-.6-.9-.9-1.3m.1-5l.1.2-.1-.2s-.1-.1 0-.1h.2-.2c-.1 0-.1.1 0 .1m-9.1-56.7l-.5.2c-.1.7.2 1 .5-.2m29.6 17.1c.4.4 1.4 1 2.2 1.1-.9-.5-1.7-1-2.2-1.1m86-18.7c.1-.2.3-.5.4-.7-.3.4-.5.9-.8 1.3.1-.2.3-.4.4-.6"/></svg>