<svg id="Layer_1" xmlns="http://www.w3.org/2000/svg" viewBox="0 0 559 520"><style>.st1,.st2{fill-rule:evenodd;clip-rule:evenodd}.st2{fill:#fff}</style><path d="M183 136.3c-.9.3-1.8.7-2.7 1-40.3 15.5-75.3 42.5-97.9 86-3.9 7.4-7.4 15.5-8 26.3-.5 8.8 1.1 19.9 5.6 30.7 1.2 29.1 8.7 63 27.2 94 22.7 38.1 56.2 61.1 81.7 64.4 14 1.8 26.2-1.1 38.2-4.3 39.9-10.4 79.1-22.3 117.5-35.8 3.7-1.3 7.4-2.6 11.1-4 25.4-9.4 49.9-20.7 68.4-41.7 8-9.1 14.9-20 24.8-26.1 8-5 17.9-6.7 24.6-13.8 5.7-6 8.9-15.7 10.8-26.5 2.3-13.1 2.7-28.2-1.1-45.4-3.8-17.2-12.2-36.7-24-51.4-11.3-14.2-24.3-22.4-36-35.4-7.4-8.2-14.4-18.4-22.1-24.9-8.1-6.8-15.9-8.4-23.2-9.5-22.3-3.3-43.5-3.7-64.5-3.3-46 .9-90.7 5-130.4 19.7" fill="#cfebf6"/><path class="st1" d="M448.1 167.5c1 3.7-4.2 3.7-3.6.3.9-1.2 2.4-1.4 3.6-.3zm-41.9-47.1c9.2-2.3 8.8 11.6 1.6 11.4-6-.2-8-9.8-1.6-11.4zm2.6 7.1c1-1 .5-2.4-.3-3.3-3.3-.2-1.7 3.4.3 3.3z"/><path d="M445.6 126h17.8c3.2 0 3.2-5 0-5h-17.8c-3.2 0-3.2 5 0 5z"/><path d="M451.7 112.4V135c0 3.2 5 3.2 5 0v-22.6c0-3.2-5-3.2-5 0z"/><path class="st1" d="M396.5 180.5c10.2-2.5 8.1 10.7 1 10.4-5.5-.2-8-8.7-1-10.4zm-.4 4.9c.2 2.2 3.5 1.8 3.2-.6-1.1-1-2.3.2-3.2.6zM88.4 404.6c9.2-2.3 8.8 11.6 1.6 11.4-5.9-.2-8-9.8-1.6-11.4zm2.6 7.2c1-1 .5-2.4-.3-3.3-3.3-.3-1.7 3.3.3 3.3z"/><path d="M127.9 410.2h17.8c3.2 0 3.2-5 0-5h-17.8c-3.2.1-3.3 5 0 5z"/><path d="M133.9 396.7v22.6c0 3.2 5 3.2 5 0v-22.6c0-3.2-5-3.2-5 0z"/><path class="st1" d="M148.5 293.3c4.6-1 9.9 1.3 10.7 4.9 2.7 11.6-17.3 12.9-16.9 2 .1-3.8 2.6-6.1 6.2-6.9zm6.5 6.8c-.4-3.8-8.8-3.6-8.1 1.9 2.1 2.7 8.4 1.7 8.1-1.9zm-36.4 39c15.6-3.1 19.9 19 4.9 22.4-9.2 2.1-18.4-7.4-13.3-16.9 1.3-2.6 4.6-4.7 8.4-5.5zm-2.6 6.5c-1.1.9-3 2.9-3.3 4.6-.5 3.6 3.3 6.6 5.8 7.1 10.8 2.1 13.4-15.6 1.3-13.3-1.3.2-2.8.8-3.8 1.6zm250.8-74.5c-.3 36.5 0 69.6 0 106.2 0 10.9 2 25.3-3 35.2-3.5 7-11.5 12.7-18.1 14.5-2.2.6-5.5.2-8.5.2-36.1.3-72.7.2-110.1.2-5.2 0-12.9.9-16.8-.7-12.1-4.9-18.9-19.1-20.4-29.2-1.6-10.4-.2-22.3-.2-33.8 0-72.9.2-146 .2-219.4 0-8.8-1.9-18.5 4.4-26.4 3.9-5 11-8.7 15.9-9.9 4.9-1.2 10.9 0 17 0 27.2 0 56.8-1.1 84.3-.2 5.2.2 11.1.5 17 .5 9.1 0 18.6-2 26.9 3.9 14.2 10.1 11 24 11 35.4 0 40.9 1.2 82.6.4 123.5z"/><path class="st2" d="M195.9 128.6c-2.6 9.4-1.3 22.8-1.1 33.8.2 11.7 0 23.2 0 34v187c0 11.9 0 29.1 16.3 37.5 4.1 2.1 11.3 1.4 16.5 1.4 28.3 0 56.1.2 83.4.2 10.1 0 23.5 2 33.5-.5 4.5-1.1 10.9-4.5 14.2-9.7 2.9-4.6 2.8-11.7 2.8-17.9 0-67.1.2-133.1.2-199.2 0-17.1.8-36.5.2-54.5-.2-6.4-.2-13.2-3-18.2-6.6-11.6-18.6-10.6-27.6-10.6-35.7 0-70.3.4-104.8.5-8.6 0-17.9-.8-24.8 6.4-3.5 4-4.9 6.5-5.8 9.8z"/><path class="st1" d="M199.3 153.7c.1-.1 0-.4.2-.7 2.1-1.9 8.3-1.1 9.9-1.1 23-.9 46.2.4 68.9-.5 20.6-.8 46.9.2 69.2.2 1 0 8.6-.7 9.7.5 1 1.1.7 12.3.7 14 0 65.9-.2 129.6-.2 196 0 3.6 1.2 11.9-.5 13.8-1.5 1.7-8 1.2-9.9 1.2-46.8 0-90.8.9-137.4.9-3.2 0-7.9.3-9.6-1.4-2.2-2.1-1.6-9.3-1.6-14 0-60.7-.7-119.5-.7-180.4 0-4 .3-9 .4-13.8.2-4.2-1.1-11.8.9-14.7zm4.8 220.3c46.3-1.3 93.7-2.3 139.7-2.3 2.9 0 6.3.9 9-.7-.4-67.3.7-135.5.7-202.4 0-4.4.5-8.8-.2-13.1-50.2 1.2-100.5 1-150.7 1.4 1 72.4.4 144.8 1.5 217.1z"/><path class="st1" d="M216.8 160.1c.6 2.5-4.5 8.2-7.1 8.5-1.5-1.8 4.9-9.2 7.1-8.5zm6.6-.2c1.9 2.3-3.8 7.3-6 9.6-3 3.3-6.2 7.9-9 8-1.3-2.5 4.3-7.3 6.9-10.1 2.8-2.8 5.6-6.3 8.1-7.5zm75.6-30.1c-1.4 4-6.8 2.5-9.9 2.5-7.1 0-13.8-.2-21.4-.2-2.1 0-13.8 1.5-10.3-3.4 1.2-1.7 8-1.2 10.8-1.2 6.8 0 14.1.2 20.9.2 3.4 0 8-1.5 9.9 2.1zm-67.1 30.3c.5 3-2.8 4.9-5.1 7.4-2.5 2.7-5.1 5.7-8.3 9.2-3.5 3.8-6.5 10.7-10.6 8.7 1.5-3.4 5.6-7.1 9.6-11.5 5.5-5.7 10.4-12.7 14.4-13.8zm-3.6 14.3c.3 3.1-4.4 6.5-7.3 9.7-2.7 3-6.8 9.6-9.9 10.3-1.2-3.1 3.2-7 6.2-10.3 2-2.2 4.5-4.4 6.4-6.4 1.4-1.7 2.4-4.5 4.6-3.3zm-5.5 14.7c1.6 1.7-1.4 3.5-3 5.3-2 2.2-4.6 6.6-6.9 5.5-1-1.9 2-3.7 3.7-5.5 1.9-2.2 3.9-5.8 6.2-5.3zm-1 7.8c0 2.6-5.4 9.3-8 9-1.1-2.3 5.7-9.6 8-9zm1.2 5.7c.7 1.8-1.8 3.1-3.2 4.6-1.9 2.1-3.5 5.6-5.7 5.3-1.5-1.5 1.2-4.2 3-6.2 1.6-1.9 4.1-5.3 5.9-3.7zm162.7-55.1c4.1-6.5 12.3.9 9.4 5.7-3.9 6.7-13.1 0-9.4-5.7zm5.2 4.3c.6-.8.6-1.5 0-2.3-.6-.1-1.2-.8-1.8 0-.1 1.2.9 1.7 1.8 2.3zM261.4 390.4c4.4-6.6 10.1-4.4 16.8-4.8 5.6-.4 12.1-1.9 16.8 3.4 3.5 4 4.4 17.4-1.2 21.4-3.6 2.6-11 1.6-15.9 1.6-3.7 0-11.7 1.7-15.9-2.5-3.2-3.4-3.5-14.8-.6-19.1zm3.9 15.8c2.9 2.8 9.9 1.5 13.1 1.6 4.1.2 10.9 1.1 13.3-1.4 2.4-2.5 2-12.9 0-15.2-1.5-1.7-8.4-1.9-12.4-1.9-5.5 0-12-1.3-14.7 3.2-1.9 3.3-1.4 11.7.7 13.7zm-21.2-278c3.5-6.5 11.8.1 7.1 4.8-2.6 2.6-9.9.5-7.1-4.8zm79.1 201.2c-14.2-1-23.9-4.8-28.7-17.1-3-7.6-1.5-23.3-1.8-35.1-.4-18.5 2-31.7 12.5-37.5 1.5-.8 4.4-2.2 6.1-2.1 38 .9 79.1.6 118.4.6 5.5 0 11.8-.6 16.5.3 7.5 1.4 17.7 12 18.9 19.8 1.2 7.8.3 19.3 0 27.8s1.2 19.9-.6 27.2c-2 8-10.3 15-18.3 16.2-6.3.9-13.6.3-20.4.3-16.4 0-34.2.6-51.3.6-3.6 0-7.9-.7-10.4 0-2.7.7-7.1 5.7-9.8 7.9-7.9 6.5-15.7 13.6-23.8 20.1-1.3 1.1-4 3.2-4.9 2.4-1.7-1.5-1.3-12.8-1.5-15.6-.4-5.6-.8-11.3-.9-15.8z"/><path class="st2" d="M352.8 333.7c2.5-2.2 5.8-6.4 8.2-7 2.6-.7 6.8-.3 10.4-.3 3.6 0 7.2-.2 10.7-.3 14.5-.3 28.5-.3 42.7-.9 7.7-.3 15.4.4 21.4-.6 6.7-1.2 13.1-9.3 15-14.9 0-12.3-.6-27.3-.6-39.7 0-4.3.5-9.1-.3-12.5-1.7-7.6-8.9-10.9-14.7-14.3-44.8.6-92.6-1.5-134.9-1.5-.5 0-.8.2-1.2.3-14.8 5.8-12.6 31.1-11.9 52.2.2 5.4-.2 11.5.9 15.3 2.2 7.3 9.1 13.3 17.4 14.6 3 .5 7.9-.2 9.5.9 2.4 1.8 1.7 10.4 2.1 14.4.6 5.5 1.3 11 1.5 14.9 8-6.3 15.8-13.5 23.8-20.6z"/><path class="st1" d="M399.7 266.7c0 1.3-1.5 1.3-2.4.9-.8-2.2 2.4-2.9 2.4-.9zm-14.6-.3v1.5c-.6.2-.9.8-1.8.6-1.7-1 .2-3.4 1.8-2.1zm-52.4 3.5c-1 .5-2.3.3-2.7-.6-.3-2.7 3.3-2 2.7.6zm29-2.1c1 1.8-1.4 2.8-2.4 1.5-.4-1.8 1.2-2.1 2.4-1.5zm7.5 1.1c-.7-.1-.7.5-1.5.3-2.2-1.6 2-3.5 1.5-.3zm-22.8-.8c.1 1.2-.1 2.1-1.2 2.1-.8.2-.6-.6-1.2-.6-.5-1.7 1.4-2.3 2.4-1.5zm28.7 1.8c-4.1 2.4-1-5 0 0zm14.9-.6c.8 1.3-.5 2.6-1.8 1.8-.3-.4-.3-1.1-.3-1.8.4-.4 1.7-.4 2.1 0zm8 11.3c.5.8.9 1.2.9 1.8.2 5.7-9.2-2.1-.9-1.8zm-16.5 1.2c2 1.5.2 5-2.4 3.7-1.4-1.6-.5-4.5 2.4-3.7zm-37.8 2.1c1.8 3.4-2.9 4.5-3.7 2.1-.6-1.8 1.6-3.7 3.7-2.1zm20.1-.3c.7 2.2-1.8 2.7-2.7 1.5-.1-1.6 1.4-2.1 2.7-1.5zm-34.2 1.2v1.5c-3 2.3-3.3-3.8 0-1.5zm109.2 5.4c-3.3-1.3 2-6.4 3.1-2.7.2 1-.2 3-3.1 2.7zm-209-10.1c-.2 2.3.1 11.7-1.3 13-.7.7-3-1.2-4.1-2-6.8-5.5-13.3-11.4-19.9-16.9-2.2-1.8-6-6.1-8.2-6.6-2.1-.6-5.7 0-8.7 0-14.3 0-29.2-.5-43-.5-5.7 0-11.9.5-17.1-.3-6.7-1-13.7-6.8-15.4-13.5-1.5-6.1-.3-15.7-.5-22.8-.3-7.1-1-16.7 0-23.3 1-6.5 9.6-15.5 15.9-16.6 4-.7 9.2-.3 13.8-.3 32.9 0 67.3.2 99.2-.5 1.4 0 3.8 1.1 5.1 1.8 8.8 4.9 10.8 16 10.5 31.5-.3 9.9.9 23.1-1.5 29.4-4 10.3-12.1 13.5-24 14.3-.1 3.8-.5 8.5-.8 13.3z"/><path class="st2" d="M225.7 287.5c.2-3.3.8-7.9 1.3-12.5.3-3.3-.2-10.5 1.8-12 1.3-1 5.4-.4 7.9-.8 6.9-1.1 12.7-6.2 14.6-12.3 1-3.1.6-8.2.8-12.8.6-17.6 2.4-38.9-10-43.7-.4-.1-.6-.3-1-.3-35.4 0-75.5 1.8-113 1.3-4.8 2.9-10.8 5.7-12.3 12-.7 2.8-.3 6.9-.3 10.5 0 10.3-.5 22.9-.5 33.2 1.6 4.7 6.9 11.5 12.5 12.5 5 .9 11.5.2 17.9.5 11.9.5 23.7.5 35.8.8l8.9.3c3 0 6.5-.3 8.7.3 2 .5 4.8 4 6.9 5.9 6.8 5.9 13.3 11.9 20 17.1z"/><path class="st1" d="M166.4 214.3c0 1.1 1.3 1.1 2 .8.7-2-1.9-2.5-2-.8zm12.3-.3v1.3c.5.1.7.6 1.5.5 1.4-.9-.1-2.9-1.5-1.8zm43.9 2.9c.9.4 1.9.2 2.3-.5.2-2.2-2.8-1.7-2.3.5zm-24.3-1.8c-.8 1.5 1.2 2.4 2 1.3.4-1.5-1-1.8-2-1.3zm-6.3.9c.6-.1.5.5 1.3.3 1.8-1.3-1.7-2.9-1.3-.3zm19.1-.6c-.1 1 .1 1.8 1 1.8.7.2.5-.5 1-.5.5-1.5-1.1-2-2-1.3zm-24 1.5c3.4 2 .8-4.2 0 0zm-12.6-.5c-.7 1.1.4 2.2 1.5 1.5.3-.3.3-.9.3-1.5-.3-.4-1.4-.4-1.8 0zm-6.6 9.4c-.4.7-.8 1-.8 1.5-.2 4.8 7.7-1.7.8-1.5zm13.8 1.1c-1.7 1.3-.2 4.2 2 3.1 1.2-1.4.4-3.8-2-3.1zm31.7 1.8c-1.5 2.9 2.4 3.8 3.1 1.8.5-1.6-1.4-3.2-3.1-1.8zm-16.9-.3c-.6 1.8 1.5 2.2 2.3 1.3.1-1.4-1.2-1.8-2.3-1.3zm28.7 1v1.3c2.5 1.9 2.8-3.2 0-1.3zm-91.5 4.5c2.8-1.1-1.7-5.3-2.6-2.3-.2.9.2 2.5 2.6 2.3z"/></svg>