<svg id="Layer_1" xmlns="http://www.w3.org/2000/svg" viewBox="0 0 559 520"><style>.st1{fill:#acd5e5}.st2{fill:#432918}</style><path d="M225.1 136.8c-.7.4-1.4.7-2.1 1.1-31.8 16.7-59.7 42.7-78.4 81.8-3.2 6.7-6.1 13.9-6.9 23.1-.6 7.6.4 16.9 3.6 25.8.2 24.8 5.1 53.2 18.7 78.1 16.7 30.7 42.2 47.5 61.9 48.2 10.8.4 20.4-3.2 29.8-6.9 31.3-12.2 62.1-25.8 92.3-40.5 2.9-1.4 5.9-2.9 8.8-4.4 20-10.2 39.3-21.9 54.3-41.5 6.5-8.4 12.1-18.4 20-24.4 6.4-4.9 14.1-7.3 19.5-13.9 4.6-5.7 7.3-14.2 9.1-23.6 2.1-11.4 2.8-24.4.3-38.8-2.5-14.4-8.6-30.3-17.3-41.9-8.4-11.2-18.3-17.1-27.1-27.3-5.6-6.4-10.7-14.6-16.6-19.4-6.2-5.1-12.2-5.8-17.8-6.2-17.2-1-33.8.6-50.1 2.6-35.8 4.9-70.8 12.2-102 28.1" fill="#cfebf6"/><path class="st1" d="M241.6 266a5.86 5.86 0 0 0-5.3-2c-13.5 1.4-26.9 4.3-40.4 5.5-6.2.6-21.3.9-24.1 8.7-.2-.2-.6-.4-1.3-.4-5.3-2.8-13.4 2.9-9.3 8.8a108 108 0 0 1 4.5 7.2c-.4 7.8 1.7 15.6 1.2 23.8-1.2 1.8-1.4 4.2 0 7.7.8 2 2.2 3.1 3.8 3.6a6 6 0 0 0 3.6 1.6c11.1 1 21.1-3.9 31.9-5.1 11.5-1.3 22.9-1.9 34.3-3.9 4-.7 7.4-1.8 9.9-3.6 4.3 4 13.2 1.4 11.4-5.6-1.4-5.2-2-10.1-4.6-14.9-1.1-2-1.8-3.5-2.5-5.1-.5-7.7-1.5-15.3-3.7-22.9-1.1-3.9-6.1-5.2-9.4-3.4m-29.9 35.2c.1-.2.2-.4.4-.7.2-.3.4-.6.7-.9.2.7.5 1.4.8 2.1h-.1c-.7-.2-1.2-.3-1.8-.5m-26.2 6c1.2.1 2.5.2 3.7.2l-.5.5c-.6.8-1.5 1.4-2.5 1.9-.2-.9-.4-1.8-.7-2.6"/><path class="st2" d="M161.6 298.4c.7 4.9.9 9.9 1.7 14.9.4 2.7 1.1 5.4 1.1 8.1 0 2-.1 4 0 6 .1 2.2.7 4.8 2.8 5.9-.1.8.4 1.6 1.4 1.5 20.5-3.1 40.4-9.1 60.9-12 6.2-.9 12.3-1.4 18.5-2.5 2.8-.5 5.6-.9 8.5-1.3 1.4-.2 3.9-.8 5.2-.5.8.2 1.5-.9 1.1-1.6-.1-.2-.3-.4-.5-.5l.2-.2c.3-.3.5-.7.4-1.3-1.6-8.5-3.4-17.1-4.4-25.7-.9-8.4-1.2-16.8-2.7-25.2 0-.2-.1-.4-.2-.5.1-.9-.4-1.9-1.5-1.7-15.7 2.8-31.6 2.8-47.3 5.4-16 2.7-31.9 6.5-47.7 10.2-.7.2-1.1 1.1-.8 1.7.1.2.2.4.4.6v.2c.7 5.3 1.7 10.5 2.6 15.7.1.3.1.6.1.9-.1-.1-.2-.3-.3-.4m6.2 25.2c.1-3.9-1.2-7.8-1.6-11.6-.3-2.1.1-4.7-.3-6.8-.5-2.6-1-5.2-1.4-7.8-.9-4.8-1.7-9.5-2.8-14.3 7 4.6 16.4 5 24 8.3 4.3 1.9 9.2 3.2 13.4 5.4-6.5 6.7-13.1 13.2-19.2 20.2-3.9 4.4-10.3 9.8-11.1 15.9-1.8-2.6-1.1-6.5-1-9.3m81.2-4.1c-6 1-11.8 1.7-17.8 2.4-20.7 2.6-41.1 7.9-61.4 12.4.3-.1.6-.3.7-.6 2.3-6.4 8.7-12 13.3-17 5.3-5.9 11.1-11.3 16.5-17.1.4.1.8-.1 1-.4l.1-.1c.2-.3.2-.5.3-.9 2.4 1.6 5.9 4.1 8.9 4.1 1.9 2.2 4.7 1.1 7.2.3.3-.1.5-.3.6-.5.4-.1.9-.4.9-.9.3-2.8 3.4-4.7 6.1-6.4.3 0 .8-.2.9-.5v-.1c2.7.9 18.5 11.2 19.7 12 2.8 1.9 5.2 4.9 7.7 7.1 1.8 1.6 3.8 3.1 5.9 4.3-3.7.1-8.7 1.6-10.6 1.9m7-27.7c.8 7.6 2.3 15.1 3.7 22.5-5.7-3.8-10.2-9.2-15.9-13.1-3.1-2.1-6.2-4.1-9.4-5.9-1.6-.9-3.5-2.2-5.5-3 3.3-2.4 6.7-4.7 9.9-7.2 2.9-2.2 5.2-5 7.7-7.6 2.4-2.5 5.2-4.5 7.7-6.8.8 7.1 1.1 14.1 1.8 21.1m-2.4-23.8c-2.3.4-4.2 2.5-5.9 4-2.8 2.6-5.3 5.5-7.9 8.3-3.2 3.6-7.8 6.2-11.7 9-1.1.8-2.2 1.6-3.2 2.3h-.1c-.7 0-1.2.5-1.4 1.1-2.2 1.7-4.4 3.3-6.5 5.2-.4.3-.6.8-.5 1.3.1.4.1.7.2.9-1.4.3-3.4 1.5-4.4.4-.3-.4-.7-.5-1.1-.4-2.8-1.9-6.3-3-9.1-4.8-3.4-2.3-7.8-3.2-11.6-4.7-3.8-1.6-7.6-3.8-11.7-4.6-5.2-1-10.6-2.1-15.5-4.3 14.8-2.5 29.3-6.6 44.1-9.3 15.2-2.7 30.8-2.6 46.1-5.1.2.1.2.4.2.7"/><path class="st2" d="M242.1 249.3c-3-7.9-5.3-16-8.8-23.7-.1-.2-.2-.3-.3-.4-.1-.9-.9-1.7-1.9-1.2-14.5 6.6-30 10.5-44.5 16.8-14.8 6.5-29.3 14.2-43.7 21.6-.6.3-.8 1.3-.4 1.9.2.2.3.4.5.5v.2c1.9 4.9 4.2 9.7 6.4 14.5.1.3.2.6.4.9-.1-.1-.2-.2-.4-.3l1.1 2.2c1.9 4.6 3.4 9.4 5.3 14 1 2.5 2.4 4.9 3.1 7.6.5 2 .9 3.9 1.4 5.9.6 2.1 1.9 4.5 4.2 5 0 .3.2.6.4.9-.3-1.2-.4-2.5-.5-3.8v-.3c-1.9-2.1-2.2-5.8-2.8-8.4-.9-3.8-3-7.3-4.5-10.9-.8-1.9-1.1-4.6-2-6.5l-3.3-7.2c-2-4.4-4-8.8-6.2-13.1 8 2.8 17.1.8 25.3 2.1 4.6.7 9.7.8 14.3 1.9-.9 1.6-1.8 3.2-2.8 4.8 1-.6 2.1-1 3.3-1.1.3 0 .4-.1.5-.1h.3c.2-.4.4-.7.6-1.1.4 0 .7-.3.9-.6l.1-.1c.1-.3.1-.6 0-.9 1.3.4 2.8 1 4.3 1.4.5-.3 1-.5 1.5-.7.5-.1 1-.1 1.6-.2.6 0 1.2.1 1.8.3 2.6-.4 5.3-.8 7.9-1 0 0 0-.1.1-.1.4-.2.7-.6.7-1.1-.4-2.8 2.2-5.4 4.3-7.7.3 0 .7-.3.7-.7v-.1c2.4.1 15.3 4.5 20.2 6.1 1.1-.3 2.2-.7 3.3-1 .4-.1.7-.1 1.1-.2-1.9-1-3.8-1.9-5.8-2.6-3.5-1.3-7-2.4-10.6-3.4-1.8-.5-4-1.2-6.1-1.5 2.6-3.1 5.3-6.2 7.8-9.4 2.3-2.9 3.8-6.1 5.5-9.3 1.7-3 3.9-5.6 5.8-8.5 2.6 6.5 4.6 13.3 7 19.9 1.7 4.7 3.8 9.4 5.9 14l3.2-.3c-2.1-5.1-4.3-10-6.2-15zm-15.6-16.1c-2.1 3.2-3.8 6.6-5.6 10-2.2 4.2-6 7.9-9.1 11.6-.9 1-1.7 2-2.6 3.1h-.1c-.7.2-1.1.8-1.1 1.4-1.8 2.2-3.5 4.3-5.1 6.6-.3.4-.4.9-.2 1.4.2.4.3.6.4.9-1.3.6-2.9 2.3-4.2 1.5-.4-.3-.8-.3-1.1-.1-3.1-1.1-6.8-1.3-10-2.5-3.9-1.3-8.3-1.1-12.4-1.7-4.1-.6-8.3-1.8-12.5-1.5-5.3.3-10.8.6-16-.4 13.7-6.1 26.8-13.6 40.5-19.8 14.1-6.4 29.2-10.1 43.4-16.3.1.3.2.5.3.8-2 .7-3.3 3.1-4.6 5z"/><path class="st2" d="M154.8 285.8c-.3-.8-.7-1.5-1-2.2-1.7-3.5-4.5-6.4-6.7-9.6-1.2-1.7-2-4.3-3.3-6l-4.8-6.3c-2.9-3.9-5.8-7.7-8.9-11.5 8.4 1 16.9-2.9 25.2-3.4 4.7-.3 9.6-1.3 14.4-1.2-.6 2.1-1.3 4.1-2 6.2 1.2-1.1 2.6-2.1 4-3l.3-1.2c.4-.1.7-.4.7-.8v-.2c.1-.3 0-.6-.2-.9 1.2.1 2.5.3 3.9.4 1.5-.7 3.1-1.3 4.6-1.9 2.8-1.1 5.6-2.1 8.5-2.9.1-.3.2-.6.1-.9-.9-2.6.9-5.8 2.5-8.4.3-.1.6-.5.6-.8v-.1c2.2-.4 14.2.9 20 1.5 1.5-.9 3.1-1.6 4.7-2-1.9-.5-3.9-.9-5.8-1.1-3.7-.5-7.4-.8-11.1-1-1.9-.1-4.1-.3-6.3-.2 1.9-3.6 3.8-7.2 5.6-10.9 1.6-3.3 2.4-6.8 3.4-10.3 1-3.3 2.6-6.3 3.8-9.5 4 5.8 7.4 12 11.2 17.9 2.7 4.2 5.7 8.3 8.8 12.3.7-.7 1.7-1.3 2.6-1.6-3.1-4.1-6.2-8.2-9-12.5-4.6-7.1-8.6-14.5-13.7-21.3-.1-.2-.3-.3-.4-.4-.3-.9-1.2-1.5-2.1-.8-12.7 9.6-27 16.7-39.8 26.1-13.1 9.6-25.6 20.2-38 30.5-.5.4-.5 1.5 0 1.9.2.2.4.3.6.4l.1.2c3 4.4 6.2 8.6 9.4 12.8.2.3.4.5.5.8-.1-.1-.3-.1-.4-.2l1.6 1.9c2.8 4.1 5.3 8.4 8.2 12.5 1.6 2.2 3.4 4.3 4.7 6.7.9 1.8 1.7 3.7 2.7 5.4.4.7.9 1.4 1.5 2.1-.9-2.1-1-4.3-.7-6.5zm11.3-65.9c12.4-9.3 26.4-16.2 38.8-25.3.2.2.3.4.5.7-1.9 1.4-2.6 4.1-3.4 6.2-1.4 3.6-2.3 7.3-3.3 11-1.3 4.6-4.1 9.1-6.4 13.3-.6 1.2-1.2 2.4-1.8 3.5h-.1c-.6.4-.9 1-.8 1.6-1.3 2.5-2.5 5-3.5 7.6-.2.4-.2 1 .1 1.4.3.3.4.5.6.7-1.1.9-2.3 2.9-3.8 2.3-.5-.2-.9-.1-1.1.1-3.3-.4-6.9.2-10.3-.2-4.1-.5-8.4.7-12.5 1-4.1.3-8.5.1-12.5 1.2-5.1 1.4-10.5 2.9-15.8 3.1 12.2-9 23.3-19.2 35.3-28.2z"/><path class="st1" d="M329.6 214.7c-.3-.4-.7-.6-1.2-.6-3.2.1-6.5.6-9.7.6-1.5 0-5.1-.1-5.9 1.7 0-.1-.1-.1-.3-.1-1.2-.8-3.2.5-2.3 1.9.4.6.7 1.2 1 1.8-.2 1.8.1 3.7-.1 5.6-.3.4-.4 1-.1 1.8.2.5.5.8.9.9.2.2.5.4.8.4 2.6.4 5.1-.6 7.7-.7 2.8-.1 5.5-.1 8.2-.4 1-.1 1.8-.3 2.4-.7 1 1 3.1.5 2.8-1.1-.2-1.2-.3-2.4-.9-3.6-.2-.5-.4-.8-.5-1.2 0-1.8-.1-3.7-.5-5.5-.3-.8-1.5-1.2-2.3-.8m-7.7 7.8s.1-.1.1-.2l.2-.2c0 .2.1.3.2.5-.2 0-.3 0-.5-.1m-6.3 1c.3 0 .6.1.9.1l-.1.1c-.2.2-.4.3-.6.4-.1-.2-.1-.4-.2-.6"/><path class="st2" d="M310.1 221c.1 1.2.1 2.4.2 3.5 0 .6.2 1.3.1 1.9 0 .5-.1 1-.1 1.4 0 .5.1 1.2.6 1.4 0 .2.1.4.3.4 4.9-.4 9.7-1.5 14.7-1.9 1.5-.1 3-.1 4.4-.3.7-.1 1.4-.1 2-.2.3 0 .9-.1 1.2 0 .2.1.4-.2.3-.4 0-.1-.1-.1-.1-.1.1-.1.1-.2.1-.3-.2-2-.5-4.1-.6-6.2-.1-2 0-4-.2-6v-.1c0-.2-.1-.5-.3-.4-3.8.4-7.6.1-11.3.5-3.8.4-7.7 1-11.5 1.6-.2 0-.3.2-.2.4 0 .1 0 .1.1.2v.1c.1 1.3.2 2.5.4 3.8v.2s0-.1-.1-.1m.9 6.2c.1-.9-.1-1.9-.2-2.8 0-.5.1-1.1 0-1.6-.1-.6-.1-1.2-.2-1.9-.1-1.1-.3-2.3-.4-3.4 1.6 1.2 3.8 1.5 5.6 2.4 1 .5 2.1.9 3.1 1.5-1.6 1.5-3.3 2.9-4.9 4.5-1 1-2.6 2.1-2.9 3.6-.3-.8-.1-1.7-.1-2.3m19.4.3l-4.3.3c-4.9.3-9.9 1.2-14.8 1.9.1 0 .1 0 .2-.1.7-1.5 2.3-2.7 3.4-3.8 1.4-1.3 2.8-2.5 4.2-3.8.1 0 .2 0 .2-.1s.1-.1.1-.2c.5.4 1.3 1.1 2.1 1.1.4.6 1.1.3 1.7.2.1 0 .1-.1.2-.1s.2-.1.2-.2c.1-.6.9-1.1 1.5-1.4.1 0 .2 0 .2-.1.6.2 4.2 3 4.5 3.2.6.5 1.1 1.2 1.7 1.8.4.4.9.8 1.3 1.1-.7-.1-1.9.2-2.4.2m2.1-6.4c.1 1.8.3 3.6.5 5.4-1.3-1-2.3-2.4-3.6-3.4-.7-.5-1.4-1.1-2.1-1.6-.4-.2-.8-.6-1.3-.8.8-.5 1.7-1 2.5-1.5.7-.5 1.3-1.1 1.9-1.7.6-.6 1.3-1 1.9-1.5.2 1.7.2 3.4.2 5.1m-.1-5.7c-.6.1-1 .5-1.5.8-.7.6-1.4 1.2-2 1.8-.8.8-1.9 1.3-2.9 1.9-.3.2-.5.3-.8.5-.2 0-.3.1-.3.2-.6.4-1.1.7-1.6 1.1-.1.1-.2.2-.1.3v.2c-.3 0-.8.3-1.1 0-.1-.1-.2-.1-.3-.1-.6-.5-1.4-.8-2.1-1.3-.8-.6-1.8-.9-2.7-1.3-.9-.4-1.8-1-2.7-1.3-1.2-.3-2.5-.7-3.6-1.3 3.6-.4 7.1-1.1 10.6-1.5 3.7-.4 7.4-.1 11-.5 0 .4 0 .4.1.5"/><path class="st1" d="M331 189.1v-.2l.5-.5-.5.3v-.2h.1l-.1-.2c-.1-.9-.5-1.7-1.2-2.3h-.1c.1-.1.1-.1.1-.2l.1-.2-.2.1c-.1 0-.2.1-.3.1l.3-.2h-.6c-.1 0-.1-.1-.2-.1l.2-.2-.3.1c-.1 0-.2-.1-.2-.1l.1-.1h-.1l-1-.5c.9-.6 1.4-1.3 1.7-2.1l.3-.2h-.2c.2-.7.3-1.4.2-2.1l.2-.1h-.2c0-.3 0-.5-.1-.8l.7-.4-.8.2v-.3l.8-.5-.8.3c0-.2-.1-.3-.1-.5l.2-.1-.5-.1v-.1c-.1-.3-.1-.6-.2-.8l.6-.2-.6.1c-.3-.8-.7-1.5-1.6-1.9-.5-.2-.9-.3-1.3-.3-.8-.1-1.4.2-2.2.7-.6.4-1 1-1.2 1.7l-.1.1-.3.2h.3c0 .2-.1.3-.1.5-.1.1-.2.1-.3.2l-.7.5.8-.2h.1c0 .1 0 .2-.1.3l-.3.3.3-.1v.4c-.1 0-.1 0-.2.1l.1.2h.1v.4h-.2v.2h.2v.3c-.1 0-.1.1-.2.1l-.5.4.6-.2h.1c0 .2 0 .3.1.5-.1 0-.1.1-.2.1l-.5.3.6-.1h.2c0 .1.1.2.1.3-.1 0-.1.1-.2.1l-.5.3h.8c.1.3.3.5.5.7-.1 0-.2.1-.3.1l-.5.2h1.1c0 .1.1.1.1.2-.1.1-.2.1-.3.2l.1.2c.1-.1.3-.1.4-.1l.1.1c-.1 0-.2 0-.2.1l-.7.2h1.2v.1c-.1 0-.2 0-.3.1v.2c-.1 0-.3-.1-.4-.1-.9-.1-1.8.3-2.5 1.1 0 0-.1.2-.3.4l-.5.3.4-.1c-.1.1-.1.2-.2.3a3 3 0 0 0-.8.4l-.5.4.6-.2c.1 0 .2-.1.3-.1-.1.2-.3.5-.4.7 0 0-.1 0-.1.1l-.6.3.6-.1c-.2.3-.3.6-.3.8v.4s0 .1.1.1l-.3.2.4-.1h.1l.7.1c.2 0 .3 0 .5.1l-.6.5.8-.3c.1 0 .2-.1.3-.1.3 0 .6.1.9.1l.1.1.1-.1h.4l-.5.3.8-.2c.1 0 .2 0 .2-.1h3v.1h.1c.3 0 .5.1.8.1h.1c.4.1.8.2 1.2.2h.1l-.3.3.5-.3h.5l-.4.5.6-.5h1.5c.6-.1.7-.3.7-.7l.2-.3-.6-.2c0 .1 0 .1 0 0m-.6.3c.1-.1.3-.2.4-.3v.1c-.2.1-.3.2-.4.2m.3-.6c-.2.2-.5.3-.7.4-.2.1-.3.2-.5.2.4-.3.8-.6 1.2-.8v.2m-.8.7s-.1 0 0 0c-.3.2-.5.3-.6.5h-.2c.2-.2.5-.4.8-.5m.8-1.2c-.5.2-.9.4-1.3.7.1 0 .1-.1.2-.1l1.1-.8-.1-.2c-.6.4-1.2.7-1.8 1l.1-.1c.5-.4 1-.8 1.6-1.1l-.1-.2c-.9.4-1.6.8-2.3 1.2l.9-.6c.4-.2.8-.5 1.2-.8l-.1-.2c-.4.3-.8.5-1.2.8-.4.2-.9.5-1.4.7h-.1c.1-.1.3-.2.4-.3.7-.5 1.5-1 2.2-1.5l-.1-.2a3 3 0 0 0-.8.4c.2-.1.3-.3.4-.5l.3-.3c.5.5.8 1.2.9 2.1m-6.1.8c.5-.4 1-.7 1.5-1 .3-.2.6-.3.9-.5.5-.3 1-.5 1.5-.9.1-.1.3-.2.4-.2.3-.1.5-.3.7-.5 0 0 .1 0 .1.1h.1l-.4.2c-.6.3-1.3.7-1.9 1.1-1 .7-1.9 1.3-2.9 1.7m2.1-.7c-.2.1-.4.3-.7.4.2-.2.4-.3.7-.4m-1.5.7l-.1.1-.2.3h-.5c.2-.2.5-.3.8-.4m3.5-2.1c-.3.2-.6.4-.9.5.3-.2.6-.3.9-.5m-3.7.8c.1 0 .2-.1.3-.1.2-.1.4-.2.7-.2-.2.1-.3.2-.5.3-.7.5-1.4.9-2.1 1.3l1.5-.9.8-.5-1.2.4c-.5.2-1.1.4-1.6.6.3-.2.5-.3.8-.5.1-.1.2-.1.4-.2l-.1-.2c-.1 0-.2.1-.4.2-.3.1-.5.2-.8.3.2-.1.4-.3.6-.4l.4-.2v.1c.3-.1.7-.3 1-.5.6-.3 1.3-.5 1.9-.8 0 0-.1 0-.1.1-.5.3-1 .7-1.4.9-.1 0-.2.1-.3.1l.1.2zm2.1-2l-.5.5c-.1 0-.3.1-.4.1.1-.1.3-.2.4-.3l.7-.5-.8.3c-.1 0-.3.1-.4.1l.1-.1c.4-.1.7-.3 1.1-.4 0 .2-.1.3-.2.3m1.2-.2l-.2.2-.1.1-.5.1c-.1 0-.3.1-.4.1l.2-.1a3 3 0 0 1 1-.4m-2.2.3l-.5.4c-.1.1-.3.1-.4.2-.6.3-1.2.5-1.9.7 1-.5 2-1 3-1.4-.1 0-.1 0-.2.1m-.8.8c.1 0 .1-.1.2-.1-.2.1-.5.3-.8.4-.3.1-.6.3-.9.4l-.5.2c-.9.3-1.9.6-2.8.8-.1 0-.1 0-.2.1.2-.1.4-.2.7-.3.4-.2.9-.4 1.3-.6l.2-.1h.3c.8-.1 1.6-.5 2.5-.8m1.5 0c.2-.1.3-.2.5-.3l-.4.3 1-.5c.2-.1.5-.3.8-.4-.1.1-.2.1-.3.2l-.2.2-.2.1-1.2.6c-.2.1-.4.1-.6.2.3-.1.4-.3.6-.4m1.8-1.1s.1-.1 0 0c.1-.1.1 0 .1 0 0-.1 0 0-.1 0m-.3-.3c-.1 0-.2.1-.3.1l.2-.1h.1m-1.3-.6c.2 0 .6.2 1 .4h-.1c-.2.1-.5.2-.7.2-.1 0-.3.1-.4.1.1-.1.3-.2.4-.3h.1l-.1-.2c-.3.1-.6.3-1 .4-1.2.5-2.5 1.1-3.6 1.8l-.2.1h-.3c-.3 0-.6.1-1 .2.6-.3 1.2-.5 1.8-.8 1-.4 2.1-.9 3.1-1.4l-.1-.2c-.9.2-1.8.6-2.7.9-1.1.4-2.3.9-3.4 1.1.8-.3 1.7-.6 2.5-.9 1.2-.4 2.5-.8 3.6-1.5l.6-.3-.7.1c-.2 0-.4.1-.5.1.4-.1.8-.3 1.2-.5l.9-.4c-.2.2-.5.4-.7.5l.3.6zm.7-.7l-1 .2c-.6.1-1.1.3-1.7.5-.3.1-.5.2-.8.3v-.4l1.7-.3 1.7-.3v-.2c-.4 0-.8.1-1.3.1.6-.2 1.2-.3 1.8-.5l-.1-.2c-.2 0-.4.1-.5.1.5-.2 1-.3 1.4-.6-.4.4-.7.9-1.2 1.3m-3.7.9l.1.1c-.1 0-.1 0-.2.1-.5.1-1 .2-1.5.2-.3 0-.5.1-.8.1.6-.3 1.3-.5 2-.6.1-.1.3 0 .4.1m4.7-2.5c-.5.1-1 .2-1.6.2h-.1c.4-.2.9-.3 1.3-.5l.5-.2h-.5c-.4 0-.8.1-1.2.2.6-.2 1.1-.4 1.6-.8l.4-.2c0 .5-.1.9-.3 1.3h-.1zm.4-1.5l-.5.1c-.8.2-1.7.4-2.6.7-.5.1-1 .3-1.5.4h.1l-.1-.2c-.1 0-.2 0-.3.1-.4.1-.8.1-1.2.1h-.3a11 11 0 0 1 2.9-.9c-.1.1-.2.1-.3.2l.1.2c.2-.1.5-.1.8-.2 1-.2 2.2-.5 3-1l.1-.1c-.2.2-.2.4-.2.6m-.1-1.5v.4h-.4c-1.1.1-2.2.5-3.3.8-.9.3-1.8.5-2.7.7.9-.4 1.9-.6 2.9-.8a16 16 0 0 0 3.5-1.1m-.7-.1c.2-.1.5-.2.7-.4v.2c-.2.1-.5.2-.7.2m-2.8 1.5c.8-.2 1.6-.5 2.4-.6-.3.1-.6.2-1 .3-.1 0-.2.1-.4.1l.1.2c.1 0 .2-.1.4-.1.4-.1.9-.2 1.4-.3-.7.3-1.6.5-2.4.7h-.2l.1-.1.2-.2h-.3c-.3 0-.6 0-.9.1.2.1.4 0 .6-.1m3.4-.6c-.2 0-.3.1-.5.1h-.1c.1-.1.3-.1.4-.2l.4-.2v.3h-.2zm0-1.5c-1.4.5-2.9.9-4.3 1.2-.7.2-1.3.3-2 .5.8-.4 1.7-.6 2.7-.9 1.1-.3 2.3-.6 3.3-1.2l.2-.1c.1.2.1.3.1.5m-4 .7l1-.3c.5-.1 1-.2 1.5-.4-.7.3-1.4.4-2.1.6-.1.1-.3.1-.4.1m3.9-1.4s0 .1 0 0l-.3.1c-.3.1-.5.2-.8.2-.6.2-1.2.4-1.8.5-.5.1-1 .3-1.6.5-.5.2-.9.4-1.4.5.2-.1.3-.2.5-.2.2-.1.4-.2.7-.3.7-.3 1.4-.5 2.1-.7.8-.2 1.6-.5 2.4-.8l-.1-.2c-1.2.5-2.5.8-3.9 1.2 1.5-.5 3-1.1 4-1.6h.1c0 .3.1.5.1.8m-.3-1c-1.4.2-2.8.6-4.1 1-.6.2-1.2.4-1.7.5.3-.2.7-.3 1-.4.2-.1.3-.1.5-.2.8-.3 1.6-.6 2.5-.9.3-.1.6-.2.9-.2l.8-.2-.1-.2c-.6.1-1.1.3-1.6.4-1.2.3-2.5.7-3.7 1 1.4-.8 3.2-1.5 4.9-1.9v-.2c-.9.1-1.8.4-2.6.8-.7.3-1.5.6-2.3.7.5-.3 1.1-.5 1.6-.7l.2-.1c.2-.1.5-.1.8-.2.6-.1 1.4-.3 1.7-.7l.1-.2c.5.4.9 1 1.1 1.7m-1.4-1.7s.1 0 0 0c-.7 0-1.3.2-1.8.3l-1.3.3c.4-.4 1-.8 1.2-.6l.1-.2h-.1.6c.4-.1.8 0 1.3.2m-3.3.4c.1-.1.2-.1.3-.2-.3.2-.5.5-.5.5l-.2.2h.3c.5 0 1.1-.2 1.6-.3l1.3-.3c-.3.2-.9.3-1.3.4-.3.1-.6.1-.8.2l-.2.1c-.5.2-1.1.4-1.5.7.3-.5.6-1 1-1.3m-1.2 1.9v-.1c.3 0 .7-.1 1-.2-.4.2-.8.4-1.1.6.1-.1.1-.2.1-.3m.9.3c-.4.2-.8.3-1.1.5v-.2c.4 0 .8-.1 1.1-.3m-1.2 1l2.2-.6c1-.3 1.9-.6 2.9-.8-1.5.6-3.3 1.3-5.1 1.9v-.5m0 .7c.3-.1.6-.1.9-.2.3-.1.5-.1.8-.2l-.6.3c-.3.2-.7.4-1 .5-.2-.2-.1-.3-.1-.4m-.1.7c.1 0 .2 0 .4-.1-.1.1-.2.1-.4.2v-.1m.1.5c.8-.2 1.6-.4 2.4-.7l2.4-.6c-.1 0-.2.1-.3.1l-1 .3.1.2c.2-.1.4-.1.5-.2.1 0 .3-.1.4-.1.3-.1.7-.2 1.1-.2-.8.3-1.6.5-2.4.7-1.1.3-2.2.5-3.2 1v-.5m.1.8c.4-.1.9-.1 1.3-.2-.5.2-.9.4-1.2.5-.1-.1-.1-.2-.1-.3m.2.7h.9c-.1.1-.3.1-.4.2l.1.2c1-.2 2-.5 2.9-.7.6-.2 1.2-.3 1.7-.5-.8.4-1.8.6-2.8.9-.7.2-1.4.3-2 .6-.1-.3-.2-.5-.4-.7m2.7.2c-.6.2-1.1.4-1.7.5.5-.2 1-.3 1.6-.4l.1-.1m-1.9.8c.7-.1 1.4-.3 2.1-.6l2.1-.6c-.6.3-1.3.5-1.9.7-.8.1-1.5.3-2.2.6 0-.1-.1-.1-.1-.1m.3.3c.4-.1.8-.2 1.2-.4.3-.1.6-.2.8-.2.5-.1 1-.1 1.4-.2.3 0 .6-.1.8-.1-.8.4-1.8.6-2.8.7l-1.5.3c.1 0 .1 0 .1-.1m.3.5h.3-.3m-.1.3c-.1 0-.2 0-.3.1h-.1c.1-.1.2-.1.4-.1m-.9.2c.1 0 .1 0 0 0-.8.2-1.5.5-2.2.9.7-.6 1.5-1 2.2-.9m-2.5 1.2l.3-.1c.5-.2 1.1-.2 1.7-.3h.4c-.3.1-.5.1-.8.2-.2.1-.4.1-.6.2-.4.1-.8.2-1.1.3 0-.1 0-.2.1-.3m-.5.8c1.7-.5 3.5-1.1 5.3-1.5-.9.4-1.9.7-2.8 1-.9.3-1.9.6-2.8 1.1 0-.2.1-.4.3-.6m-.7 1.1c1.4-.2 2.8-.7 4.1-1.2.1 0 .1 0 .2-.1-.2.1-.5.2-.7.3-1.3.6-2.7 1.1-3.9 1.8.1-.3.2-.6.3-.8m-.4 1.2v-.2c.1 0 .2-.1.3-.1.7-.3 1.4-.6 2.1-.7-.1.1-.3.1-.4.2-.6.2-1.2.5-1.7.8h-.3c0 .1 0 0 0 0m.5.1c.4-.1.8-.2 1.2-.4.6-.2 1.3-.4 2-.6-.3.2-.5.3-.7.4-.5.2-1 .4-1.4.6-.3 0-.5-.1-.8-.1l-.3.1zm2.5-.3c.2-.1.4-.1.6-.2.1 0 .1 0 .2-.1-.4.3-.8.6-1.1.8-.2 0-.4 0-.7-.1.4 0 .7-.2 1-.4m2.1-.3l-1.5.9h-.4c.5-.4 1.2-.6 1.9-.9m-.8 1c.8-.4 1.6-.9 2.5-1.5.4-.3.9-.6 1.3-.8.4-.2.8-.3 1.2-.6l.4-.3c.2-.1.4-.1.7-.2h.1c-.2.1-.4.3-.7.4-.2.1-.3.2-.4.2l-1.5.9c-.3.2-.6.3-.9.5-.7.4-1.4.9-2 1.4l-.1.1c-.1-.1-.4-.1-.6-.1m1.8.1l.2-.1c.7-.4 1.5-.8 2.2-1.2.3-.2.5-.3.8-.5-.2.1-.4.3-.7.4-.7.5-1.4.9-2 1.4h-.5m2.5-.7l-1.2.9c-.1 0-.3-.1-.4-.1.5-.3 1-.6 1.6-.8m.2 1.1c-.4 0-.8-.1-1.1-.2l2.3-1.3c-.1.1-.2.1-.2.2-.4.3-.9.7-1.4 1l.1.2c.2-.1.4-.2.7-.3.3-.2.6-.3.9-.5-.4.3-.7.6-1.1.9h-.2m.6 0c.3-.2.6-.4.8-.5 0 0 .1 0 .1-.1-.2.2-.4.4-.6.5l-.1.1c0 .1-.1 0-.2 0m2.2-.3c-.1.1-.3.2-.5.4h-.3c.3-.2.6-.3.8-.4"/><path d="M362.4 202.1l-17.2-3-17.3.1-18.3-1.6 2.6-29.3 17.7 1.2 17.2 2.2 17.3.8 17.3.1 17.3 1.5 17.2 2.2 37.5 2.9-.6 29-38.9-3.6-17.3-.5-17.2-2.6-17.3.6zm-17-4.1l17.1 3 17.4-.6h.1l17.2 2.6 17.2.5 37.7 3.5.5-26.7-36.4-2.8-17.2-2.2-17.2-1.5-17.3-.1-17.3-.8-17.2-2.2-16.6-1.1-2.4 27 17 1.4h17.4zm13.8 43.2l-17.2-3-17.3.1-18.3-1.6 2.6-29.3 17.7 1.2 17.2 2.2 17.3.8 17.3.1 17.3 1.5 17.2 2.2 37.5 2.9-.6 29-38.9-3.6-17.3-.5-17.2-2.6-17.3.6zm-17-4.2l17.1 3 17.4-.6h.1L394 242l17.2.5 37.7 3.5.5-26.7-36.4-2.8-17.2-2.2-17.2-1.5-17.3-.1-17.3-.8-17.2-2.2-16.6-1.1-2.4 27 17.1 1.5 17.3-.1z"/><path d="M336 198c-.9-2.5-.7-6.6-.4-10.1.1-1.2.1-2.4.2-3.3v-2c0-3.9 0-8.8 1.4-12.1l.7.3c-1.3 3.2-1.3 8-1.3 11.8v2c0 1-.1 2.1-.2 3.4-.2 3.5-.4 7.4.4 9.8l-.8.2zm-1 39.8c-.2 0-.4-.2-.6-.5l-.1-.1v-.1c0-2.1.3-4.2.6-6.2s.6-4 .6-6.1c0-1.9-.1-3.8-.2-5.6-.1-2.7-.3-5.6 0-8.5l.8.1c-.2 2.9-.1 5.7.1 8.4.1 1.8.2 3.7.2 5.7 0 2.2-.3 4.2-.6 6.2s-.5 3.9-.6 5.9l.2.2c.1 0 .1-.1.1-.1v.2c0 .1.1.5-.3.6-.1-.1-.2-.1-.2-.1" fill="#191919"/><path d="M446.6 283.2h-.5c-2.2-.2-4.6-.6-6.8-1-2.7-.5-5.5-1-8-1.1-1.3 0-2.6 0-3.8-.1-2.1 0-4.4 0-6.5-.2-2.5-.2-4.8-.5-6.8-1l-.3-.1c-3.2-.8-3.4-1-4.1-3.8-.1-.3-.1-.6-.2-.9-.7-3-.9-5.1-.7-8 .1-1.7 0-3.5-.1-5.2-.2-2.8-.4-5.6.4-8.3l.1-.5.5.1c3.2.3 6.5.3 9.8.3 2.7 0 5.5 0 8.2.2.9.1 1.8.1 2.6.2l4.5.6c4.4.6 8.9 1.1 13.2 1.5l.6.1-.1.6c-.3 2.5.1 5 .5 7.5.3 2 .7 4.2.6 6.3-.1 3.3-.9 5.8-1.8 8.4-.4 1.3-.9 2.6-1.2 4l-.1.4z" fill="#2c9356"/><path d="M440.1 268.7c-.1-.2-.3-.4-.4-.6l.2-.1-.2.1c-1.2-1.7-3-3.5-4.7-5.2v-.1h-.1c-.5-.4-.9-.9-1.3-1.3l.4-.6-.6.4-.3-.3c-.2-.1-.3-.3-.5-.4l.2-.3-.4.1c-.4-.4-.8-.7-1.1-1.1l-.4-.4-.1.5c0 .1 0 .2-.1.4-.1.4-.2 1-.4 1.6-.7.5-1.3 1-1.9 1.6h-.4c-.6 0-1.3-.1-2-.2l.3-.7-.7.6c-.1 0-.2 0-.3-.1-.3 0-.5-.1-.7-.1l1-1.5-1.5 1.5c-.2 0-.4-.1-.6-.1l.3-.5-.9.4h-.1l1.1-1.1-1.7 1c-.1 0-.2-.1-.4-.1-.9-.2-1.9-.4-2.8-.5-.2 0-.4 0-.5-.1h-1.6v.2c-.1.4-.1.8-.2 1.2-.1.1-.2.2-.3.2l.3.4v.5c-.2.3-.4.6-.6 1l-.7 1.4 1.1-.9c-.1.2-.3.3-.4.5l-1.3 1.6 1.7-1.2c.1-.1.2-.2.4-.3v.7l-.2.6.2-.1v.3l.2.1h.2l-.2.4.4-.3c.2 0 .4.1.6.1l-.2.3.6-.2c.3 0 .6.1.9.1l-.3.5.9-.4h.4c.2 0 .4 0 .6.1l-.4.6.8-.6c.3 0 .6.1.9.1l-1 1.2 1.6-1s.1 0 .1-.1c.2 0 .3 0 .5.1l-.3.3.4.4c.2-.2.5-.4.7-.7h1.2c.6 0 1.1.1 1.5.3v1l-.5.6.5-.4v.6l-.7.8.7-.5v.9l-.2.3.2-.1c0 .3 0 .7.1 1l-.5.5.6-.3c0 .2.1.4.1.6l-.5.3.6-.1c.1.3.1.6.2.8l.1.3.3-.1c1.2-.2 2.8-1 4.3-1.8l-.7.8 2.2-1.5c.1 0 .1-.1.2-.1.4-.2.7-.4 1-.5 1.2-.6 2.3-1.4 3.5-2.1.5-.4 1.1-.7 1.6-1.1l.3-.2-.3.1zm-1-.4l-1 .4c-1.2.5-2.5 1.5-3.7 2.4-1.4 1.1-2.9 2.3-4.4 2.7.2-.2.3-.4.5-.5.5-.3 1-.7 1.4-1.1.8-.5 1.7-1 2.5-1.5 1.3-.7 2.5-1.4 3.4-2.2l.6-.5h-.8c-1 0-1.9.4-2.8.9.5-.6 1-1.1 1.5-1.7l.8-1-1.2.5c-.3.1-.6.3-.9.5.4-.4.7-.8 1-1.3l.4-.6c1.1 1 2 2 2.7 3m-4.9 1.8c.7-.6 1.5-1.1 2.3-1.4-.7.5-1.5 1-2.3 1.4m1.7-5.5l.5.5-.7.3c-.1.1-.2.1-.3.2.2-.3.3-.5.4-.8l.1-.2zm-.2-.2l-.2.1c-.4.1-.8.3-1.2.5.1-.2.2-.4.2-.6l.3-.7-.7.4c-.1 0-.1.1-.2.1l.4-.4.3-.4c.3.3.7.6 1.1 1m-1.8-1.2l-.6.3c.1-.1.2-.3.3-.4l.3-.4.4.4-.4.1zm-.5 2c-.2.2-.3.4-.5.7l-2.1 1.8c-.1.1-.2.1-.3.2-.1.1-.2.2-.3.2l.9-.9c.7-.7 1.5-1.4 2.3-2m.3-2.7l-.4.1c-.3.1-.5.2-.8.3.2-.2.3-.4.5-.5l.3-.3.4.4m-1-.9l.2.2-.3.2c-.8.5-1.8 1.2-2.8 2 .9-.8 1.7-1.7 2.4-2.6l.1-.1c.1 0 .3.1.4.3m-4.9 6.4l-.6.6c-.5-.1-1-.2-1.4-.2 1.5-1.7 3.2-3.2 4.8-4.4l-.4.4c-1.4 1.1-2.7 2.5-3.5 3.7l.5.3c.8-1.1 1.9-2.2 3-3.1l.4-.4c.6-.4 1.1-.8 1.7-1.1-.2.3-.5.6-.8.8-1.3.9-2.5 2.2-3.7 3.4m-5 .1c-.2 0-.4-.1-.6-.1.8-.6 1.5-1.3 2.2-1.9l1.2-1.2c-.5.8-1.2 1.5-1.9 2.2-.2.4-.6.7-.9 1m2.7-3.8c.1-.2.3-.5.4-.7.1 0 .3 0 .4.1l-.1.1c-.2.1-.4.3-.7.5m1.2-.3l.1-.3c.3 0 .7.1 1 .1-.4.1-.8.2-1.1.5v-.3m1.3.7c.3-.3.5-.6.8-.9h.3l-.1.1-1.2 1.2c0-.1.1-.3.2-.4m3.4-4.4c.2.2.4.3.5.5h-.1c-.2.1-.4.2-.7.3.1-.2.2-.5.3-.8m-1.3 2.3c-.1.2-.2.4-.4.5 0 0-.1.1-.3.1.2-.2.5-.4.7-.6m-5.7.7c.2 0 .4.1.7.1l-1.3 1.3c-.8.9-1.8 1.8-2.7 2.5.3-.4.7-.8 1.1-1.2.8-.9 1.5-1.7 2.2-2.7m-3.1-.6c.1 0 .3.1.4.1-1.1.7-2 1.6-2.9 2.4-.1.1-.2.2-.3.2a8 8 0 0 1 1.3-1.3c.4-.4.8-.7 1.2-1.1 0-.1.2-.2.3-.3m-1 4.5c-.1.2-.3.4-.4.6h-.3c.2-.3.5-.4.7-.6m0-.7c.3-.3.6-.7 1-1 .7-.7 1.4-1.5 2-2.3.1 0 .3 0 .4.1l-.7.7c-.9.8-1.8 1.7-2.7 2.5m.3-3.9c-.1 0-.1 0 0 0-.1.1-.3.2-.4.4-.3.2-.6.5-.8.8-.3.3-.7.6-1 .9.5-.6 1-1.2 1.6-1.7l-.4-.5c-.4.3-.8.5-1.2.9.2-.2.3-.5.5-.7l.1-.2c.5-.1 1-.1 1.6.1m-3-.3h.6c-.2.1-.5.3-.7.4 0-.2.1-.3.1-.4m-.1 1.2c0-.1.1-.1.1-.2-.1.1-.1.2-.1.2m.1 3.9v-.4c.2-.2.4-.3.6-.5l-.3.6-.1.3h-.2m.6.1c.7-.6 1.3-1.2 1.8-1.8.6-.7 1.2-1.4 1.9-1.9-.4.4-.8.8-1.2 1.3-.8.8-1.5 1.6-2.1 2.5-.1 0-.2-.1-.4-.1m3.5-.1c-.1.2-.2.3-.3.5h-.3c.2-.2.4-.3.6-.5m2.2.8h-.1c.4-.4.8-.9 1.3-1.4.8-.9 1.5-1.9 2.4-2.3-.4.4-.7.8-1 1.3-.7.8-1.3 1.7-2 2.4 0 0-.1 0-.1.1-.3 0-.4 0-.5-.1m1.1.1l.4-.4-.1.1.4.3h-.7m2.8.7l1.4-1.4c.9-.8 1.9-1.7 2.7-2.6.2-.2.5-.3.7-.5l-1.5 1.5c-1.1 1-2.1 2-3.1 3.1l-.3.4c.1-.2.1-.3.1-.5m0 1.1l.7-.5c.1 0 .1-.1.2-.1l-.5.5-.4.5v-.4m-.1.8l.8-.6c.8-.6 1.7-1.4 2.5-2.1l.1-.1c.7-.6 1.5-1.2 2.1-1.8.6-.4 1.1-.8 1.7-1-.8 1.3-2.3 2.4-3.8 3.5-1.2.9-2.5 1.8-3.4 2.8v-.7m.1 1.3l.3-.2c1.6-.7 2.9-1.9 4.1-3.1.8-.8 1.6-1.5 2.5-2.1a47.7 47.7 0 0 1-5.2 4.8c-.3.3-.6.5-.9.8l-.7.6c-.1-.3-.1-.5-.1-.8m.1 1.2l1-.5c1.4-.7 2.6-1.8 3.7-2.8a20 20 0 0 1 2.2-1.9c-2 2.2-4.2 4.1-6.3 5.4l-.5.3c-.1-.2-.1-.4-.1-.5m.1.8l.7-.2c.2 0 .3-.1.5-.1v.1l-.3.5h.2c-.3.1-.6.2-.8.3-.2-.2-.3-.4-.3-.6m10.1-4.5c-.4.3-.8.6-1.2.8l.2-.2c.5-.4.9-.8 1.3-1.1l.9-.7c.1.1.1.2.2.3-.5.2-.9.6-1.4.9" fill="#f5f7f7"/><path class="st2" d="M324.1 184.4c-.1-1.1-.6-2-.9-3-.2-.6-.5-1.3-.5-1.9 0-1.1 1.4-4.6 3-4.4.9.1 2.1 1.3 2.5 2 .3.5.4 1.3.5 1.9.3 1.9.1 3.9-1.6 5.1-.1.1-.1.2 0 .3 1.1.6 2.7 1.6 3 2.9.9 3.6-3 2.5-4.6 2.3-1.3-.2-3-.1-4.2-.5-.3 0-.6-.1-.9-.1-.3-.7-.7-1.3-1-2 0-1.6 3.4-2.3 4.4-2.2.2 0 .3-.4 0-.4-2.1-.1-4.7 1.1-5.3 3.3-.5 2 2.3 1.7 3.7 1.9 1.9.2 3.7.5 5.6.7.8.1 2.1.5 2.8-.2 1.1-1.2-.3-3.4-1.1-4.3-.5-.6-.5-.4-1-.9-.8-.9-.6-.2-.1-1.3.5-.9.7-1.4.7-2.5.1-1.9-.3-4.6-1.9-5.8-1.3-1-3.5-.2-4.6.9-2 2.2.6 6 .9 8.4.3.1.7.1.6-.2"/><path d="M302 178.7c-.6 0-1.1-.5-1.1-1.1v-17.4c0-.7 0-1.8.7-2.7 1-1.2 2.6-1.2 3.5-1.2h17.8c.6 0 1.1.5 1.1 1.1 0 .6-.5 1.1-1.1 1.1h-17.8c-.5 0-1.4 0-1.7.4-.2.3-.2.9-.2 1.3v17.4c-.1.6-.6 1.1-1.2 1.1zm139.8 115c-.6 0-1.1-.5-1.1-1.1 0-.6.5-1.1 1.1-1.1l15.6-.1c0-5.5.3-11 .9-16.4.1-.6.6-1.1 1.2-1 .6.1 1.1.6 1 1.2-.6 5.7-.9 11.5-.9 17.3 0 .6-.5 1.1-1.1 1.1l-16.7.1zm-322.9-51.5c-.3 0-.6-.1-.8-.3-.4-.4-.5-1.1 0-1.6 20.3-21.1 42-41.3 64.4-60.1.5-.4 1.2-.3 1.6.1.4.5.3 1.2-.1 1.6-22.4 18.8-44 38.9-64.2 60-.3.2-.6.3-.9.3zm-3.6-18.2c-.2 0-.5-.1-.7-.2-.5-.4-.6-1.1-.2-1.6 9.3-12.2 17.8-25.1 25.4-38.5.3-.5 1-.7 1.5-.4.5.3.7 1 .4 1.5-7.6 13.4-16.2 26.4-25.6 38.7-.2.3-.5.5-.8.5zm-1.3-30.2c-.1 0-.2 0-.3-.1-.6-.2-.9-.8-.7-1.4 2-6 4.2-12.1 6.7-18 .2-.6.9-.8 1.5-.6.6.2.8.9.6 1.5-2.6 5.8-4.8 11.8-6.8 17.8-.1.5-.6.8-1 .8zm110 146.1c-.6 0-1-.4-1.1-1-.1-.6.4-1.2 1-1.2 17.6-2 35.4-3.3 53.1-3.7.6 0 1.1.5 1.1 1.1 0 .6-.5 1.1-1.1 1.1-17.6.4-35.4 1.7-52.9 3.7h-.1zm-5.7 43.1c-2.2 0-4.5-.1-6.7-.2-.6 0-1.1-.6-1.1-1.2s.6-1.1 1.2-1.1c2.2.1 4.4.2 6.6.2.6 0 1.1.5 1.1 1.1 0 .7-.5 1.2-1.1 1.2zm10-.2c-.6 0-1.1-.5-1.1-1.1 0-.6.4-1.1 1.1-1.2 2.2-.1 4.4-.3 6.6-.5.6-.1 1.2.4 1.2 1 .1.6-.4 1.2-1 1.2-2.2.3-4.5.5-6.8.6.1 0 .1 0 0 0zm-26.7-.8h-.1c-2.2-.2-4.5-.5-6.7-.8-.6-.1-1-.7-.9-1.3.1-.6.7-1 1.3-.9 2.2.3 4.4.6 6.6.8.6.1 1.1.6 1 1.2-.1.6-.6 1-1.2 1zm43.4-.9c-.5 0-1-.4-1.1-.9-.1-.6.3-1.2.9-1.3 2.3-.3 4.5-.7 6.5-1.2.6-.1 1.2.3 1.3.9.1.6-.3 1.2-.9 1.3-2.1.4-4.3.8-6.7 1.2.1 0 0 0 0 0zm-59.9-1.7h-.2c-2-.4-4-.9-6-1.3l-.6-.2c-.6-.1-1-.8-.8-1.3.1-.6.7-1 1.3-.8l.6.2c1.9.5 3.9.9 5.9 1.3.6.1 1 .7.9 1.3-.1.5-.6.8-1.1.8zm76.2-2c-.5 0-.9-.3-1.1-.8-.2-.6.1-1.2.7-1.4 2.1-.7 4.2-1.5 6.1-2.4.6-.3 1.2 0 1.5.6.3.6 0 1.2-.6 1.5-2 .9-4.1 1.7-6.3 2.4-.1.1-.2.1-.3.1zm-92.3-2.5c-.1 0-.3 0-.4-.1-2.3-1-4.3-2.1-6.1-3.3-.5-.4-.6-1-.3-1.6s1-.6 1.6-.3a28 28 0 0 0 5.7 3.1c.6.2.8.9.6 1.5-.3.4-.7.7-1.1.7zm107.3-4.7c-.4 0-.7-.2-.9-.5-.3-.5-.2-1.2.3-1.5 1.8-1.2 3.6-2.5 5.3-3.9.5-.4 1.2-.3 1.6.1.4.5.3 1.2-.1 1.6a71.3 71.3 0 0 1-5.5 4.1c-.3 0-.5.1-.7.1zm-120.1-5.7c-.4 0-.7-.2-.9-.5-1.2-1.7-2.3-3.6-3.5-5.9-.3-.5-.1-1.2.5-1.5.5-.3 1.2-.1 1.5.5 1.1 2.2 2.2 4 3.3 5.6.4.5.2 1.2-.3 1.6-.2.2-.4.2-.6.2zm132.7-5.2c-.3 0-.5-.1-.8-.3-.5-.4-.5-1.1-.1-1.6 1.4-1.6 2.9-3.2 4.3-5 .4-.5 1.1-.6 1.6-.2.5.4.6 1.1.2 1.6-1.5 1.8-2.9 3.5-4.4 5.1-.2.2-.5.4-.8.4zm-140.3-9.6c-.4 0-.8-.3-1-.7-1.1-2.5-1.9-4.4-2.6-6.2-.2-.6 0-1.2.6-1.5.6-.2 1.2 0 1.5.6.7 1.8 1.5 3.7 2.6 6.1.2.6 0 1.2-.6 1.5-.2.1-.4.2-.5.2zm150.7-3.6c-.2 0-.4-.1-.6-.2-.5-.3-.6-1-.3-1.6 1.2-1.7 2.4-3.6 3.6-5.6.3-.5 1-.7 1.5-.4.5.3.7 1 .4 1.5-1.2 2-2.5 3.9-3.7 5.6-.2.6-.5.7-.9.7zm-156.7-12c-.5 0-.9-.3-1.1-.8-.7-2.3-1.2-4.5-1.7-6.6-.1-.6.3-1.2.9-1.3.6-.1 1.2.3 1.3.9.4 2 .9 4.1 1.6 6.4.2.6-.2 1.2-.7 1.4-.1-.1-.2 0-.3 0zm165.5-2.2c-.2 0-.4 0-.6-.1-.5-.3-.7-1-.4-1.5 1.1-1.9 2.2-3.9 3.3-5.8.3-.5 1-.7 1.5-.4.5.3.7 1 .4 1.5-1.1 2-2.2 3.9-3.3 5.8-.2.3-.5.5-.9.5zM140 317.6c-.6 0-1.1-.5-1.1-1.1 0-2.3.3-4.6.7-6.8.1-.6.7-1 1.3-.9.6.1 1 .7.9 1.3-.4 2.1-.6 4.2-.7 6.4 0 .6-.5 1.1-1.1 1.1zm176.3-.3c-.2 0-.4 0-.5-.1-.5-.3-.7-1-.4-1.5 1.1-2 2.2-3.9 3.4-5.8.3-.5 1-.7 1.5-.4.5.3.7 1 .4 1.5-1.1 1.9-2.2 3.8-3.3 5.8-.4.3-.8.5-1.1.5zm8.6-14.3c-.2 0-.4-.1-.6-.2-.5-.3-.7-1-.3-1.5 1.3-1.9 2.6-3.8 3.9-5.5.4-.5 1.1-.6 1.6-.2.5.4.6 1.1.2 1.6-1.3 1.7-2.5 3.5-3.8 5.4-.2.2-.6.4-1 .4zm10.2-13.3c-.3 0-.5-.1-.8-.3-.5-.4-.5-1.1-.1-1.6 1.5-1.7 3.1-3.3 4.8-4.8.5-.4 1.2-.4 1.6.1.4.5.4 1.2-.1 1.6-1.6 1.5-3.2 3.1-4.7 4.7 0 .2-.3.3-.7.3zm12.6-11c-.4 0-.7-.2-.9-.5-.3-.5-.2-1.2.3-1.6 1.9-1.3 3.9-2.5 5.8-3.6.5-.3 1.2-.1 1.5.4.3.5.1 1.2-.4 1.5-1.9 1-3.8 2.2-5.6 3.4-.3.4-.5.4-.7.4zm14.9-7.5c-.5 0-.9-.3-1.1-.8-.2-.6.1-1.2.7-1.4 2.2-.7 4.4-1.3 6.6-1.6.6-.1 1.2.3 1.3.9.1.6-.3 1.2-.9 1.3-2.1.4-4.2.9-6.3 1.6h-.3zM234 176h-.1c-.6-.1-1.1-.6-1-1.2.9-7.9 4.2-15.7 9.2-21.8.4-.5 1.1-.6 1.6-.2.5.4.6 1.1.2 1.6-4.7 5.9-7.8 13.2-8.7 20.7-.2.5-.7.9-1.2.9zM104.6 278.1c-.1 0-.2 0-.3-.1a51.4 51.4 0 0 0-19.1-2.2c-.6.1-1.1-.4-1.2-1 0-.6.4-1.1 1-1.2 6.7-.5 13.6.3 19.9 2.3.6.2.9.8.7 1.4-.1.5-.5.8-1 .8zm195.7 1.1h-.2c-.6-.1-1-.7-.9-1.3 1.2-7.9 4-15.8 8-22.7.3-.5 1-.7 1.5-.4.5.3.7 1 .4 1.5-3.9 6.7-6.6 14.3-7.8 21.9 0 .6-.5 1-1 1zm178.8-69.6s-.1 0 0 0c-.7-.1-1.2-.6-1.1-1.2.6-7.5 1.9-14.9 3.8-22.2.2-.6.8-.9 1.4-.8.6.2 1 .8.8 1.4-1.9 7.1-3.1 14.5-3.8 21.8 0 .6-.5 1-1.1 1z" fill="#4e7f92"/></svg>