<svg id="Layer_1" xmlns="http://www.w3.org/2000/svg" xmlns:xlink="http://www.w3.org/1999/xlink" viewBox="0 0 188 175"><style>.st1{clip-path:url(#SVGID_2_)}.st2{fill:#1da1f2}.st3{fill:#373737}</style><path d="M43.9 70v.7c.3 11.4 4.6 23.1 15.4 34.2 1.8 1.9 3.9 3.8 7.1 5.4 2.6 1.3 6.2 2.4 10 2.9 9 3.7 20.1 6.5 31.6 6.4 14.1-.1 24.7-4.8 28.6-10.2 2.1-3 2.5-6.2 2.9-9.4 1.2-10.6 1.9-21.3 2-32v-3.1c-.1-7.1-.8-14.3-5.2-21.4-1.9-3.1-4.4-6.1-5.2-9.2-.6-2.5-.1-5-1.5-7.5-1.2-2.1-3.8-4.2-6.9-6.1-3.7-2.3-8.3-4.4-13.9-5.9-5.6-1.4-12.5-2.1-18.2-1.4-5.6.8-9.6 2.7-14.8 3.6-3.3.6-7.2.8-10 1.8-3 1-4.3 2.5-5.4 4.1-3.5 4.7-5.9 9.6-8.1 14.4C47.5 48 43.8 58.9 43.9 70" fill="#cfebf6"/><defs><path id="SVGID_1_" d="M41.1 30.3h93v73.9h-93z"/></defs><clipPath id="SVGID_2_"><use xlink:href="#SVGID_1_" overflow="visible"/></clipPath><g class="st1"><path class="st2" d="M69.1 103.8c-.1 0-.2-.1-.2-.2-.1-.2-.2-.3.3-.6.7-.5 2.5-1.7 7.3-4.6l11.7-7.1c-4.9 2.8-9.5 5.5-13.2 7.6-5 2.9-7 4-7.8 4.3-.5.2-.6.1-.7-.1-.1-.2-.2-.3.3-.6.7-.6 2.7-1.7 7.9-4.9 2.5-1.5 5.4-3.2 8.5-5.1-3.5 2-6.7 3.9-9.5 5.4-5.4 3.1-7.4 4.2-8.2 4.6-.5.2-.6.1-.7-.1-.1-.2-.2-.3.3-.6.7-.6 2.8-1.9 8.4-5.3 5.2-3.1 12.1-7.3 18.9-11.5 1.9-1.1 3.8-2.3 5.7-3.4-2.4 1.4-4.7 2.7-7.1 4.1-7.2 4.1-14.6 8.4-20.1 11.6-6 3.5-8.2 4.7-9.1 5.1-.5.2-.6.1-.7-.1-.1-.2-.2-.3.3-.6.7-.6 2.9-1.9 9-5.6 5.5-3.3 13-7.8 20.2-12.2 2.1-1.3 4.3-2.6 6.5-3.9-2.6 1.5-5.3 3-7.9 4.6-7.6 4.4-15.5 8.9-21.3 12.3-10 5.8-10 5.8-10.3 5.3-.3-.5-.3-.5 10-6.7 5.9-3.6 14-8.4 21.8-13.1 2.6-1.6 5.3-3.2 7.9-4.8-2.9 1.7-5.8 3.4-8.7 5a2431 2431 0 0 1-22.6 13c-10.7 6.1-10.7 6.1-10.9 5.6-.3-.5-.3-.5 10.6-7 6.3-3.8 14.9-8.9 23.1-13.8 1.2-.7 2.5-1.5 3.7-2.2-1.5.8-2.9 1.7-4.4 2.5-8.5 4.9-17.2 10-23.7 13.7-11.2 6.6-11.2 6.6-11.4 6.2-.3-.5-.3-.5 10.8-7.1 6.1-3.7 14.4-8.5 22.5-13.3-8.6 5-17.5 10.1-24.1 13.9-11.4 6.5-11.4 6.5-11.7 6.1-.2-.3-.2-.3 3.3-3.4l.2-.2c-.2.1-.4.3-.7.4-1 .6-2.1 1.2-2.9 1.7-1.7 1-1.7 1-1.9.6-.2-.3-.2-.3 1.6-1.9-2.4 1.4-2.4 1.4-2.6 1-.1-.2-.1-.2.7-1.8 0-.1.1-.1.1-.2-.2.1-.5.3-.7.4-2 1.2-2 1.2-2.2 1.1-.1 0-.2-.1-.2-.2-.1-.2-.1-.2.5-1.7-.4.2-.5.2-.6.2-.1 0-.5-.1-.9-.3-.4-.1-.6-.2-.8-.2-.8.4-.8.4-1 .3l.2-.4-.2-.4.7-.4c.1-.1.2-.1.4 0 .1 0 .5.1.9.3.4.1.6.2.8.2.1-.1.3-.2.5-.3.9-.5 1-.6 1.2-.3v.1c.1.2.1.2-.5 1.6 0 0 0 .1-.1.1.3-.1.5-.3.8-.4 2-1.1 2-1.2 2.2-1.1.1 0 .2.1.2.2.1.2.1.2-.7 1.8 0 .1-.1.1-.1.2.5-.3 1-.6 1.6-.9 1.4-.8 2.2-1.3 2.6-1.5.5-.2.6-.1.7.1.1.2.1.2-.2.6-.2.2-.7.6-1.4 1.3.3-.2.5-.3.8-.5 1-.6 2.1-1.2 2.9-1.6 1.7-.9 1.7-1 1.9-.6.1.2.1.2-.2.6-.4.4-1.3 1.2-3.1 2.8-.2.2-.4.3-.6.5 6-3.4 19.8-11.3 32.3-18.5 8.7-5 17.7-10.2 24.3-14 11.4-6.5 11.4-6.5 11.7-6.1.3.5.3.5-10.7 7-6 3.6-14.1 8.4-22.1 13.1 8.1-4.7 16.2-9.4 22.4-12.9 11.2-6.4 11.2-6.4 11.4-5.9.3.5.3.5-10.6 7-6.3 3.8-14.9 8.9-23.1 13.8-1 .6-2.1 1.3-3.2 1.9l2.1-1.2c8.1-4.6 16.4-9.5 22.5-13 10.6-6.1 10.6-6.1 10.9-5.6.3.5.3.5-10 6.7-5.9 3.6-14 8.4-21.8 13.1l-7.5 4.5c2.1-1.2 4.3-2.5 6.4-3.7 7.6-4.4 15.5-8.9 21.3-12.3 6.4-3.7 8.8-5 9.7-5.4.5-.2.6-.1.7.1.3.5.3.5-9.2 6.2-5.5 3.3-12.9 7.8-20.2 12.2-2 1.2-4.1 2.4-6.1 3.7l5.7-3.3c7.2-4.1 14.6-8.4 20.1-11.6 6-3.4 8.2-4.7 9.1-5.1.5-.2.6-.1.7.1.1.2.2.3-.3.6-.7.6-2.8 1.9-8.4 5.3-5.2 3.1-12 7.3-18.9 11.5-1.7 1-3.4 2-5.1 3.1l3.6-2.1c6.6-3.8 13.2-7.6 18.2-10.5 5.4-3.1 7.4-4.2 8.2-4.6.5-.2.6-.1.7.1.1.2.2.3-.3.6-.7.6-2.7 1.7-7.9 4.9-2.4 1.4-5.2 3.1-8.2 4.9 2.4-1.4 4.7-2.7 6.7-3.9 5-2.9 7-4 7.8-4.3.5-.2.6-.1.7.1.1.2.2.3-.3.6-.7.5-2.5 1.7-7.3 4.6-3.2 1.9-7.1 4.3-11.3 6.8 3.7-2.1 7.1-4.1 10-5.7 4.6-2.7 6.5-3.7 7.3-4 .5-.2.6-.1.7.1.1.2.2.3-.3.6-.6.5-2.3 1.6-6.6 4.2-4 2.5-9.5 5.8-14.9 9.1l-.9.6c5-2.9 9.9-5.7 13.6-7.8 4-2.3 5.6-3.2 6.4-3.5.5-.2.6-.1.7.1.1.2.2.3-.2.6-.6.5-2 1.4-5.4 3.5-3.4 2.1-7.8 4.9-12.3 7.7a54 54 0 0 0-3.1 2c.6-.4 1.2-.7 1.8-1.1 17.1-9.8 17.1-9.8 17.3-9.8.1 0 .2.1.3.2.1.2.2.3-.2.6-.5.4-1.8 1.2-4.6 3-1.4.8-2.9 1.8-4.6 2.8.6-.3 1.2-.7 1.7-1 2.5-1.4 3.7-2.1 4.3-2.4.5-.2.5-.1.6.1.1.2.2.3-.2.6-.4.4-1.4 1-3.4 2.3-1.3.8-2.8 1.8-4.4 2.8.7-.4 1.3-.7 1.8-1.1 3.5-2 3.5-2 3.7-1.6.1.2.1.5-.1.6h-.1c-.5.2-5.6 3.2-10 5.7-2.5 1.5-5 2.9-6.9 4-1.7 1-2.6 1.5-3.1 1.7-.5.2-.5.1-.6-.1-.1-.2-.2-.3.2-.6.4-.4 1.4-1 3.4-2.3 1.4-.9 3-1.9 4.8-3.1-3.2 1.8-6.2 3.6-8.6 5-2.5 1.4-3.7 2.1-4.3 2.4-.5.2-.5.1-.6-.1-.1-.2-.2-.3.2-.6.5-.4 1.8-1.2 4.6-3 1.5-.9 3.2-2 5-3.1-2.7 1.6-5.3 3.1-7.4 4.3-3.2 1.8-4.6 2.6-5.2 2.9-.5.2-.6.1-.7-.1-.1-.2-.2-.3.2-.6.6-.5 2-1.4 5.4-3.5C87 96.8 91.5 94 96 91.2c1.2-.7 2.4-1.5 3.6-2.2-1.9 1.1-3.9 2.3-5.9 3.4-5.1 3-10.3 5.9-14.1 8.1-4 2.3-5.6 3.2-6.4 3.5-.5.2-.6.1-.7-.1-.1-.2-.2-.3.2-.6.6-.5 2.3-1.6 6.6-4.2 4-2.5 9.5-5.8 14.9-9.1.5-.3 1-.6 1.4-.9-1 .6-1.9 1.1-2.9 1.7-5.8 3.4-11.7 6.7-16.1 9.3-4.6 2.7-6.5 3.7-7.3 4 0-.3-.1-.3-.2-.3z"/></g><g class="st1"><path class="st2" d="M67.9 89.3c-.1 0-.2-.1-.2-.2-.1-.2-.2-.3.3-.6.7-.6 2.8-1.8 8.3-5.1 1.6-1 3.4-2 5.3-3.2-1.6.9-3.1 1.8-4.5 2.6-5.5 3.1-7.5 4.3-8.4 4.7-.5.2-.6.1-.7-.1-.1-.2-.2-.3.3-.6.7-.6 2.8-1.8 8.3-5.1 3-1.8 6.6-3.9 10.4-6.2-4.5 2.6-8.7 5-12.2 7-5.8 3.3-8 4.6-8.8 4.9-.5.2-.6.1-.7-.1-.1-.2-.2-.3.3-.6.7-.6 2.9-1.9 8.8-5.5 5.4-3.3 12.5-7.6 19.7-11.9 2.2-1.3 4.4-2.6 6.5-3.9-2.4 1.4-4.8 2.8-7.1 4.1-7.5 4.2-15 8.5-20.6 11.7-6.1 3.5-8.4 4.8-9.2 5.1-.5.2-.6.1-.7-.1-.1-.2-.2-.3.3-.6.7-.6 3-1.9 9.1-5.6 4.5-2.7 10.2-6.1 16.1-9.6-6.4 3.7-12.7 7.3-17.6 10.1-10 5.7-10 5.7-10.3 5.3-.3-.5-.3-.5 10.4-6.9 6.2-3.7 14.6-8.7 22.7-13.6 1.4-.9 2.9-1.7 4.3-2.6-1.6.9-3.1 1.8-4.7 2.7-8.3 5-16.9 9.9-23.2 13.6-10.9 6.3-10.9 6.3-11.2 5.8-.3-.5-.3-.5 11.1-7.3 5.7-3.4 13.1-7.7 20.5-12.1-7.6 4.4-15.1 8.7-20.9 12C58.1 84 58.1 84 57.8 83.5c-.3-.5-.3-.5 11.2-7.3 4.6-2.7 10.3-6.1 16.3-9.6-6.3 3.7-12.4 7.2-17.3 10-11.7 6.7-11.7 6.7-12 6.2-.3-.5-.3-.5 10.7-6.9 1.6-1 3.4-2 5.3-3.1-1.9 1.1-3.6 2.1-5.3 3-11 6.3-11 6.3-11.3 5.8-.3-.5-.3-.5 10.8-7.1 4.5-2.7 10.2-6 16.1-9.5-5.9 3.4-11.6 6.7-16.2 9.3C55 80.7 55 80.7 54.8 80.2c-.3-.5-.3-.5 11.3-7.4 5.5-3.3 12.7-7.5 20-11.8-7.2 4.2-14.3 8.3-19.8 11.4-11.7 6.7-11.7 6.7-12 6.2-.1-.2-.1-.2.8-1.8H55c-1.8 1-1.8 1-2 .7-.1-.1-.1-.1-.2-1.3 0-.2 0-.4-.1-.6v-.5h.1l-.1-.3.1-.1c.2-.1.4-.2.6 0l.1.1c0 .1 0 .1.2 1.3 0 .2 0 .3.1.5.3-.2.6-.3.9-.5 1.6-.9 1.6-.9 1.8-.9.1 0 .2.1.3.2.1.2.1.2-.9 1.9v.1c4.5-2.5 20.6-11.7 35-20.1L115.8 43c11.7-6.7 11.7-6.7 12-6.2.3.5.3.5-11.3 7.4a1796 1796 0 0 1-19.1 11.3c6-3.4 11.7-6.7 16.3-9.4 11.2-6.4 11.2-6.4 11.5-5.9.3.5.3.5-10.8 7.1-4.5 2.7-10 5.9-15.9 9.4 5.5-3.2 10.7-6.2 15-8.6 11-6.3 11-6.3 11.3-5.8.3.5.3.5-10.7 6.9-1.9 1.1-3.9 2.3-6.2 3.6 3.6-2.1 7-4 10-5.7 11.7-6.7 11.7-6.7 12-6.2.3.5.3.5-11.2 7.3-4.5 2.7-10.1 5.9-15.9 9.4 5.9-3.4 11.4-6.6 16-9.2 11.6-6.6 11.6-6.6 11.8-6.1.3.5.3.5-11.1 7.3-5.4 3.2-12.4 7.3-19.5 11.5 6-3.5 11.8-6.8 16.4-9.4 10.9-6.3 10.9-6.3 11.2-5.8.3.5.3.5-10.4 6.9L94.4 66.4c-1.1.6-2.1 1.3-3.2 1.9.3-.1.5-.3.8-.4 7.6-4.4 15.4-8.9 21.2-12.2 6.4-3.7 8.7-5 9.6-5.3.5-.2.6-.1.7.1.1.2.2.3-.3.6-.7.6-3 1.9-9.1 5.6-4.3 2.6-9.9 5.9-15.6 9.3 5.5-3.2 10.9-6.3 15.1-8.7 6.1-3.5 8.3-4.8 9.2-5.1.5-.2.6-.1.7.1.1.2.2.3-.3.6-.7.6-2.9 1.9-8.8 5.5-5.4 3.3-12.5 7.6-19.7 11.9-2.1 1.2-4.2 2.5-6.2 3.8l5.7-3.3c7.1-4.1 14.2-8.2 19.5-11.2 5.8-3.3 8-4.6 8.8-4.9.5-.2.6-.1.7.1.1.2.2.3-.3.6-.7.6-2.8 1.8-8.3 5.1-2.9 1.7-6.3 3.7-9.9 5.9 3.4-2 6.6-3.8 9.3-5.3 5.5-3.1 7.5-4.3 8.4-4.7.5-.2.6-.1.7.1.1.2.2.3-.3.6-.7.6-2.8 1.8-8.3 5.1-1.7 1-3.6 2.1-5.6 3.3 2.1-1.2 4-2.3 5.7-3.3 9-5.1 9-5.1 9.2-4.7.1.2 0 .5-.2.6h-.1c-1 .4-15 8.5-27.4 15.7-6.9 4-13.7 7.9-18.9 10.9-5.6 3.2-7.7 4.4-8.5 4.7-.6-.1-.8-.1-.8-.1z"/></g><g class="st1"><path class="st2" d="M86.1 54.2c-.1 0-.2-.1-.2-.2-.1-.2-.2-.3.2-.6.5-.4 1.7-1.2 4.5-2.8 1.3-.8 2.8-1.7 4.4-2.7-1.5.9-2.9 1.7-4.2 2.4-2.7 1.6-4 2.3-4.6 2.5-.5.2-.5.1-.6-.1-.1-.2-.2-.3.2-.6.5-.4 1.7-1.1 4.3-2.8 1.7-1.1 3.8-2.4 6.1-3.8-2 1.1-3.9 2.2-5.4 3.1-2.6 1.5-3.8 2.2-4.3 2.4-.5.2-.5.1-.6-.1-.1-.2-.2-.3.2-.6.5-.4 1.6-1.1 4.2-2.7 1.6-1 3.4-2.1 5.4-3.4-1.5.9-3 1.7-4.2 2.4-2.4 1.4-3.5 2-4.1 2.3-.5.2-.5.1-.7-.1-.1-.2-.2-.3.2-.6.4-.4 1.5-1 3.6-2.4 2.2-1.5 5.2-3.4 8.2-5.3.2-.1.4-.2.5-.4-.2.1-.3.2-.5.3a834 834 0 0 1-8.4 4.8c-2.2 1.2-3.2 1.8-3.8 2.1-.5.2-.5.1-.7-.1-.1-.2-.2-.3.2-.6.4-.4 1.4-1 3.3-2.3l7.5-5c.2-.1.5-.3.7-.5-2.6 1.5-5.1 3-7.1 4.1-1.8 1.1-2.8 1.6-3.3 1.8-.5.2-.5.1-.7-.1-.1-.2-.2-.3.2-.6s1.3-.9 3-2c1.3-.9 2.9-1.9 4.7-3-1.4.8-2.7 1.6-3.8 2.2-1.7 1-2.5 1.5-3 1.7-.5.2-.5.1-.7-.1-.2-.4-.2-.4 2.6-2.3 1.2-.8 2.7-1.8 4.3-2.9-.8.5-1.6.9-2.3 1.3-2.5 1.5-2.5 1.5-2.8 1.1-.2-.3-.2-.3 1.4-1.6.8-.6 1.8-1.5 2.9-2.4.2-.1.3-.3.5-.4-1.3.7-1.4.7-1.5.4-.1-.2-.1-.5.1-.6h.1c.2-.1 1.5-.8 2.5-1.4 1.3-.8 2-1.2 2.5-1.4.5-.2.5-.1.7.1.2.3.2.3-1.4 1.6-.8.7-1.8 1.5-2.9 2.4-.2.2-.4.3-.6.5.9-.5 1.9-1.1 2.9-1.7 1.7-1 3.5-2 4.8-2.8 2.5-1.5 2.5-1.5 2.8-1.1.2.4.2.4-2.6 2.3-1.2.8-2.8 1.9-4.5 3l.6-.3c2.5-1.4 4.9-2.8 6.8-3.9 1.7-1 2.5-1.5 3-1.7.5-.2.5-.1.6.1.1.2.2.3-.2.6s-1.3.9-3 2c-1.3.9-3 1.9-4.7 3.1 1.9-1.1 3.6-2.1 5.1-2.9 1.8-1.1 2.8-1.6 3.2-1.8.5-.2.5-.1.7.1.1.2.2.3-.2.6-.4.4-1.4 1-3.3 2.3-2.1 1.4-4.8 3.2-7.6 5-.2.2-.5.3-.7.5.5-.3 1.1-.6 1.6-.9 3-1.8 6.1-3.5 8.4-4.8 2.2-1.2 3.2-1.8 3.7-2.1.5-.2.5-.1.7.1.1.2.2.3-.2.6-.4.4-1.5 1-3.6 2.4-2.2 1.5-5.2 3.4-8.2 5.3-.2.1-.5.3-.7.4.6-.3 1.1-.6 1.7-1 3.3-1.9 6.6-3.8 9.1-5.2 2.4-1.4 3.5-2 4.1-2.3.5-.2.5-.1.6.1.1.2.2.3-.2.6-.5.4-1.6 1.1-4.1 2.7-1.6 1-3.5 2.2-5.6 3.5 2.2-1.2 4.2-2.4 5.9-3.4 2.6-1.5 3.8-2.2 4.4-2.4.5-.2.5-.1.6.1.1.2.2.3-.2.6-.5.4-1.7 1.2-4.3 2.8-1.7 1.1-3.9 2.4-6.1 3.8 2.5-1.4 4.8-2.8 6.8-3.9 2.7-1.6 4-2.3 4.6-2.5.5-.2.5-.1.6.1.1.2.2.3-.2.6-.5.4-1.8 1.2-4.5 2.9-1.3.8-2.8 1.7-4.5 2.7 1.9-1.1 3.7-2.1 5.3-3 5.2-3 5.2-3 5.4-2.6.1.2 0 .5-.2.6h-.1c-.7.3-8.5 4.8-15.4 8.8-3.9 2.2-7.7 4.5-10.7 6.1-2.9 1.6-4.1 2.4-4.8 2.6-.2.3-.3.3-.4.3z"/></g><g class="st1"><path class="st2" d="M60 75.4c-.1 0-.2-.1-.3-.2-.3-.5-.3-.5 10.8-7.1 6.4-3.8 15.2-9 23.6-14 .4-.2.8-.4 1.1-.7-.5.3-.9.5-1.4.8-8.5 4.9-17.4 10-23.9 13.8-11.2 6.4-11.3 6.4-11.5 6-.3-.5-.3-.5 9.9-6.5 1.5-.9 3.2-1.9 5-3-2.3 1.3-4.4 2.5-6.3 3.6-6.8 3.9-9.2 5.3-10.1 5.6-.5.2-.6.1-.7-.1-.3-.5-.3-.5 9.6-6.3 4-2.4 8.9-5.3 14.1-8.4-5.6 3.2-10.9 6.3-15.2 8.7-6.4 3.7-8.8 5-9.7 5.4-.5.2-.6.1-.7-.1-.2-.4-.2-.4 4.8-3.6l10.2-6.6 3.3-2.1c-1.1.6-2.3 1.3-3.4 1.9-3.8 2.2-7.7 4.4-10.6 6.1-2.8 1.6-4.1 2.4-4.8 2.6-.5.2-.5.1-.6-.1-.1-.2-.2-.3.2-.6.5-.4 1.6-1.1 4.2-2.7 2.3-1.4 5.2-3.3 8.2-5.2-3.5 2-6.9 4-9.5 5.5-2.7 1.5-3.9 2.2-4.5 2.5-.5.2-.5.1-.6-.1-.1-.2-.2-.3.2-.6.5-.4 1.7-1.1 4.2-2.7 1.9-1.2 4.3-2.7 6.8-4.3-2.7 1.6-5.4 3.1-7.5 4.3-2.6 1.5-3.9 2.2-4.5 2.5-.5.2-.5.1-.7-.1-.1-.2-.2-.3.2-.6.5-.4 1.6-1.1 4-2.7 2.5-1.6 5.8-3.8 9.1-5.9l2.7-1.8c-.9.5-1.9 1.1-2.8 1.6-3.4 2-6.8 3.9-9.4 5.4-2.5 1.4-3.6 2.1-4.2 2.3-.5.2-.5.1-.7-.1-.1-.2-.2-.3.2-.6.4-.4 1.5-1.1 3.7-2.5 2.3-1.5 5.3-3.5 8.4-5.5l2.7-1.8c-.8.5-1.6.9-2.4 1.4a834 834 0 0 1-8.4 4.8c-2.2 1.2-3.2 1.8-3.8 2.1-.5.2-.5.1-.6-.1-.1-.2-.2-.3.2-.6.4-.4 1.4-1 3.5-2.3 1.2-.7 2.6-1.6 4.1-2.6-1.7 1-3.3 1.9-4.7 2.7-4.2 2.4-4.2 2.4-4.4 2-.2-.3-.2-.3 2.5-3.1l.5-.5c-.1.1-.2.1-.3.2-3.1 1.8-3.1 1.8-3.3 1.4-.1-.3-.1-.3 1.7-2.6.1-.1.2-.3.4-.5-1.6.9-1.6.9-1.8.9-.1 0-.2-.1-.2-.2-.1-.2-.1-.2.4-1.4-.1 0-.1.1-.2.1-1.6.9-1.6.9-1.8.6-.1-.2-.1-.2.3-1.5.1-.2.2-.5.2-.7-.1-.2-.1-.5.1-.6l.1-.1c.4-.2.5-.1.6.1.1.2.1.2-.3 1.6v.1c.1-.1.2-.1.3-.2 1.3-.8 1.3-.8 1.5-.7.1 0 .2.1.2.2.1.2.1.2-.4 1.4l.6-.3c1.8-1 1.8-1 2-1 .1 0 .2.1.2.2.2.3.2.3-1.6 2.6-.1.2-.3.3-.4.5.3-.2.6-.4.9-.5 3.1-1.8 3.1-1.8 3.4-1.4.2.3.2.3-2.5 3.1l-.6.6c2.4-1.4 6.2-3.6 9.8-5.6 3-1.7 6.1-3.5 8.3-4.8 2.1-1.2 3.2-1.8 3.7-2.1.5-.2.5-.1.6.1.1.2.2.3-.2.6.2.1-.8.7-2.8 2-1.2.7-2.6 1.6-4.1 2.6 1.8-1 3.4-2 4.8-2.8 2.2-1.2 3.2-1.8 3.8-2.1.5-.2.5-.1.7.1.1.2.2.3-.2.6-.4.4-1.5 1.1-3.7 2.5-2.3 1.5-5.3 3.5-8.4 5.6-.9.6-1.9 1.2-2.8 1.8 1.3-.7 2.6-1.5 3.9-2.2 3.4-2 6.8-3.9 9.3-5.4 2.5-1.4 3.6-2.1 4.2-2.3.5-.2.5-.1.7.1.1.2.2.3-.2.6-.5.4-1.6 1.1-4 2.7-2.5 1.6-5.8 3.8-9.1 5.9-.9.6-1.9 1.2-2.8 1.9 1.2-.7 2.5-1.5 3.7-2.2 3.6-2.1 7.2-4.2 9.9-5.7 2.6-1.5 3.8-2.2 4.4-2.5.5-.2.5-.1.6.1.1.2.2.3-.2.6-.5.4-1.7 1.1-4.2 2.7-1.9 1.2-4.3 2.7-6.8 4.3 2.9-1.6 5.6-3.2 7.8-4.5 2.7-1.5 3.9-2.2 4.5-2.5.5-.2.5-.1.6.1.1.2.2.3-.2.6-.5.4-1.6 1.1-4.1 2.7-2.3 1.5-5.3 3.3-8.4 5.3.1 0 .2-.1.3-.1 3.8-2.2 7.7-4.4 10.6-6.1 2.8-1.6 4.1-2.4 4.7-2.6.5-.2.5-.1.7.1.1.2.2.3-.2.6-.5.4-1.7 1.2-4.5 3S73.8 61 70 63.4c-1.5 1-3 1.9-4.5 2.9 5.9-3.4 13.3-7.7 20.4-11.7 7.6-4.4 15.6-9 21.4-12.3 6.5-3.7 8.8-5 9.7-5.4.5-.2.6-.1.7.1.1.2.2.3-.3.6-.7.6-3 2-9.3 5.7-4.1 2.4-9.3 5.5-14.6 8.7 6.5-3.7 12.8-7.4 17.7-10.2 6.8-3.9 9.2-5.3 10.1-5.6.5-.2.6-.1.7.1.1.2.2.3-.3.6-.8.6-3.1 2-9.6 5.9-1.8 1-3.7 2.2-5.8 3.4 4.1-2.4 7.9-4.6 11.2-6.4 11.2-6.4 11.2-6.4 11.5-6 .3.5.3.5-10.8 7.1-6.4 3.8-15.1 9-23.6 14-.3.2-.6.4-1 .6.1-.1.3-.1.4-.2 8.4-4.8 17-9.8 23.4-13.5 11-6.3 11-6.3 11.3-5.8.1.2 0 .5-.2.6 0 0-.1 0-.1.1-1.2.5-18.6 10.6-34 19.4-8.4 4.8-17 9.8-23.4 13.5-8.6 4.7-10.4 5.8-11 5.8z"/></g><g class="st1"><path class="st2" d="M53.1 59.2c-.1 0-.2-.1-.3-.2-.2-.4-.2-.4 2.3-2.2 1.3-1 3-2.2 4.8-3.5l1.2-.9c-.3.2-.7.4-1 .6-7.4 4.2-7.4 4.2-7.6 4.2-.1 0-.2-.1-.3-.2-.2-.3-.2-.3 2-2 1.2-.9 2.7-2 4.3-3.1.2-.1.4-.3.6-.4-.3.1-.5.3-.7.4-1.7 1-3.4 2-4.7 2.7-2.5 1.4-2.5 1.4-2.7 1-.2-.4-.2-.4 1.9-1.9.9-.7 2.2-1.6 3.4-2.5-1.4.8-2.8 1.6-3.9 2.2-2.3 1.3-2.3 1.3-2.6 1-.2-.3-.2-.3 1.8-1.9l3.8-3c.4-.3.8-.6 1.1-.9-.4.2-.8.4-1.1.7-1.5.8-2.9 1.7-4 2.3-2.2 1.3-2.2 1.3-2.4.9-.2-.3-.2-.3 1.7-1.8.9-.8 2.2-1.8 3.5-2.8.3-.2.6-.5.9-.7-.4.2-.8.5-1.2.7-1.5.8-2.9 1.7-4 2.3-2.2 1.3-2.2 1.3-2.4.9-.2-.4-.2-.4 1.7-1.7.5-.4 1.2-.8 1.8-1.3-.8.4-1.5.9-2.1 1.2-2.2 1.2-2.2 1.2-2.4.9-.2-.3-.2-.3 1.5-1.7.9-.7 2-1.6 3.1-2.5.2-.1.3-.3.5-.4-1.1.7-2.3 1.3-3.1 1.8-1.8 1-1.8 1-2 .7-.2-.3-.2-.3 1.3-1.6.8-.6 1.8-1.5 2.8-2.3.2-.2.4-.4.7-.6-3.8 2.2-3.8 2.2-4 2.2-.1 0-.2-.1-.3-.2-.1-.2-.1-.2.2-.6.4-.4 1.2-1.2 3-2.7l.1-.1c-1.8 1-2.7 1.5-3.2 1.8-.5.2-.5.1-.7-.1-.1-.2-.1-.2.2-.6.4-.4 1.1-1 2.5-2.2-2.3 1.3-2.3 1.3-2.5 1-.2-.3-.2-.3 2.1-2.8l.3-.3c-1.8 1.1-1.8 1-2.1.7-.2-.3-.2-.3 1.2-1.8-.7.4-.8.4-1 .1-.1-.2-.1-.2.9-1.8 0 0 0-.1.1-.1H48l.2-.4-.2-.4s.3-.2.5-.3c.7-.4.7-.4.9-.3.1 0 .2.1.2.2.1.2.1.2-.8 1.8 1.3-.7 1.3-.7 1.5-.7.1 0 .2.1.2.2.1.3.2.3-1.2 1.8 1.9-1.1 1.9-1.1 2.1-.7.2.3.2.3-2 2.7-.1.1-.2.2-.3.4.3-.2.6-.3.8-.5 3.2-1.9 3.2-1.9 3.4-1.8.1 0 .2.1.3.2.1.2.1.2-.2.6-.4.4-1.1 1-2.5 2.2 2.7-1.6 2.7-1.6 2.9-1.5.1 0 .2.1.3.2.1.2.1.2-.2.6-.4.4-1.2 1.2-3 2.7l-.1.1c.1-.1.2-.1.4-.2 4-2.3 4-2.3 4.2-2.2.1 0 .2.1.3.2.2.3.2.3-1.4 1.6-.8.7-1.8 1.5-2.9 2.4-.2.2-.4.3-.6.5.2-.1.4-.2.6-.4 1.1-.7 2.3-1.3 3.1-1.8 1.8-1 1.8-1 2-.6.2.3.2.3-1.5 1.7-.9.7-2 1.6-3.2 2.5-.2.1-.3.3-.5.4.4-.2.8-.5 1.2-.7 1.4-.8 2.9-1.6 3.9-2.3 2.1-1.2 2.1-1.2 2.4-.9.2.4.2.4-1.8 1.8-.5.4-1.1.8-1.8 1.3.8-.5 1.6-.9 2.3-1.3 2.2-1.3 2.2-1.3 2.4-.9.2.3.2.3-1.7 1.8-.9.8-2.2 1.8-3.5 2.8-.3.2-.6.5-.9.7.4-.2.8-.5 1.2-.7 1.5-.8 2.9-1.7 4-2.3 2.2-1.3 2.2-1.3 2.4-.9.2.3.2.3-1.8 1.9-1 .8-2.4 1.9-3.7 2.9-.4.3-.8.6-1.2 1 .6-.3 1.1-.6 1.7-1 1.6-.9 3.2-1.8 4.4-2.5 2.4-1.4 2.4-1.4 2.6-1 .2.4.2.4-1.9 1.9-1 .7-2.2 1.6-3.4 2.5 1.7-1 3.3-1.9 4.6-2.7 2.5-1.4 2.5-1.4 2.7-1 .2.3.2.3-2 2-1.2.9-2.7 2-4.3 3.1-.2.1-.4.3-.6.4.4-.2.8-.5 1.2-.7 1.8-1 3.6-2.1 5-2.9 2.6-1.5 2.6-1.5 2.9-1.1.2.4.2.4-2.3 2.2-1.3 1-3.1 2.2-4.8 3.5-.4.3-.8.6-1.2.8.6-.4 1.3-.7 1.9-1.1 2-1.2 4-2.3 5.5-3.2 2.9-1.6 2.9-1.6 3.1-1.3.1.2.1.5-.1.6h-.1c-.4.2-4.4 2.5-8 4.6-2 1.2-4 2.3-5.6 3.2-2 1-2.7 1.4-2.9 1.4z"/></g><g class="st1"><path class="st3" d="M70.8 103.8c.2-.1.1-.2-.5-.2l-.4.3.9-.1z"/></g><g class="st1"><path class="st3" d="M67.1 103.2c-.6.1-1.4.2-1 .5.7-.2.8-.1 1.5-.4.6 0 1 .1.9.2.2-.1.9.1 1.2-.1-.7-.2-1.6-.3-2.6-.2-.3.1-.1.1 0 0"/></g><g class="st1"><path class="st3" d="M69.4 88.5l-.4.2c.1-.1.3-.1.4-.2"/></g><g class="st1"><path class="st3" d="M62.2 74.8c.1.1.2.1.3.1-.1 0-.2-.1-.3-.1"/></g><g class="st1"><path class="st3" d="M55.6 71.8c.1.1.2.1.3.2-.2-.1-.3-.2-.3-.2"/></g><g class="st1"><path class="st3" d="M69.4 88.5l1.1-.7c-.1-.1-.6.3-1.1.7"/></g><g class="st1"><path class="st3" d="M59.6 102.8h.5-.5c.1 0 .1 0 0 0"/></g><g class="st1"><path class="st3" d="M55.7 95l-.3.1c-.1 0-.1.1-.2.2l.5-.3z"/></g><g class="st1"><path class="st3" d="M46.3 96c.1 0-.4-.2-.6-.3l.1.1c.1.1.2.1.5.2"/></g><g class="st1"><path class="st3" d="M57.4 101.3l.3.1s-.2-.1-.3-.1"/></g><g class="st1"><path class="st3" d="M83.9 102.9c-.1 0-.1 0 0 0"/></g><g class="st1"><path class="st3" d="M70.8 103.2h.2v-.1l-.2.1z"/></g><g class="st1"><path class="st3" d="M49.3 64.6c.1.2 0 .1 0 0"/></g><g class="st1"><path class="st3" d="M87.3 47.6c-.4 1 0-1.7-.5-.2.1-.1.1.3.2.5s.1.3.3-.3"/></g><g class="st1"><path class="st3" d="M59.4 102.7c-.1 0-.3-.1-.5-.1.2.1.4.1.5.1"/></g><g class="st1"><path class="st3" d="M50.8 54.1c0 .1 0 .1.1.2-.1 0-.1-.1-.1-.2"/></g><g class="st1"><path class="st3" d="M47.1 59.3V59v.3"/></g><g class="st1"><path class="st3" d="M47.3 46.2v-.6.1c-.1.1 0 .2 0 .5"/></g><g class="st1"><path class="st3" d="M48.5 37.2l-.1.1c0 .1-.1.2-.1.3l.2-.4z"/></g><g class="st1"><path class="st3" d="M109.2 88.2c-.2.1-.3.2-.5.2.3 0-.6 1.1.5-.2"/></g><g class="st1"><path class="st3" d="M59.7 102.7c-.1 0-.2.1-.3 0 .1.1.2.1.3 0 0 .1 0 0 0 0"/></g><g class="st1"><path class="st3" d="M45.4 46c-.1-.5-.1-1.1-.1-1.6 0 .4 0 1 .1 1.6"/></g><g class="st1"><path class="st3" d="M125.6 40.8c.1.1.1 0 0 0"/></g><g class="st1"><path class="st3" d="M45.7 39.7c.1-.3.3-.5.4-.8v-.2c-.1.3-.2.6-.4 1"/></g><g class="st1"><path class="st3" d="M101.4 95.4c1.2-.9.4-.6.5-1 1.4-1.1.8-.3 1.4-.5.8-.8 1.3-1.5 1.9-2 .1 0 .2-.1.1.1.7-.9 2.6-2.3 3.3-3.5.1-.1.1-.1.2-.1-.3.1-.4 0-.5-.1.4-.5.7-1 1-1.1-.3.3-.2.4-.3.5l.4-.6c.6-.3-.6.7-.4.9.9-1 1.7-2.4 2.4-3.1.4 0-1.5 1.9-.4 1-.4.4-.7.8-1.1 1.1 1.2-.6-.7.7.4.2 1.4-1.6 1.4-1.9 2.8-3.5.2-.5-.3 0-.1-.5 1.5-2.6 2-1.5 2.8-3.6.1-.6-.1-.9.9-2.2v.6c1-1.8.2-1.2 1.3-3-.1.4-.6 1.5-.5 1.2.9-1.1.3-.9.8-1.9l.4-.1c.9-2 1.6-4.3 2.3-6.5 0 .1 0 .6.3.1.8-2.9 1.8-6.2 2.3-9.1 0-.4-.1-.8-.1-1.1 0-.3.2-.5.2-.2.2-1.1-.2-.1-.2-.6.1-.6.2-.8.3-.4 0-1 0-2.4-.1-3.9v-2.9l.1-.1c.1 0 .1-.1.2-.1l-.1.2c.1 0 .1-.1.2-.1l.3-.3c.2-.2.3-.4.5-.6.3-.4.6-.7 1.2-1.1l-.2.2c.7-.6 1.4-1.2 2-1.8.3-.3.6-.7 1-1 .3-.4.6-.6 1-1.1l1.2-1.5c.4-.5.7-1 1.1-1.4.4-.5.7-1 1.1-1.4.2-.3.4-.5.6-.8.1-.1.2-.3.3-.4.1-.1.1-.2.2-.3h-.2c-1 .5-2.2 1-3.4 1.4-.6.2-1.1.5-1.6.6-.4.2-.7.3-.8.5-.7.2-1.2.3-1.4.3h-.4c-.1 0-.3-.1-.4-.1 0 0-.2.1-.5.3-.3.1-.7.3-1 .4l.8-.4-.7.3c-.1 0-.2.1-.3.1l1.2-.5v-.1c-.1.1-.5.3-.7.3.1-.1.5-.4.8-.6.3-.2.5-.2.5-.2v-.1l.3-.3.5-.7c.3-.5.6-.9.9-1.4 0 .1-.2.6-.5 1 .8-1.6.5-.1 1.2-1.6-.2.2-.1-.2-.1-.3.2-.3.4-.6.7-1.1.2-.4.5-1 .7-1.5.4-1 .8-2.1 1.1-3.1.1 0 .1.1.2.1.1-.2.2-.4.2-.6 0-.2.1-.3.1-.5-1 .6-2 1.1-3 1.7-1 .6-2 1.1-3 1.6-.3.1-.6.3-.8.4l-.8.3c-.5.2-1.1.4-1.6.6.9-.2.8.1.1.4l-.4-.2c-.4.3.8-.2-.1.4-1 .3-.7-.1-.2-.3l-1.1.4c-.1-.1.2-.2.2-.3-.2.2-.7.2-1.3.3-.3 0-.5.1-.8.1-.1 0-.2.1-.3.1 0 0-.1 0-.1.1v.1-.1h-.1l-.1-.1c-.1-.1-.2-.2-.4-.3-.4-.4-.8-.7-1.2-1-.8-.6-1.6-1.1-2.6-1.6-.2.2-.9-.3-1.6-.4-1.5-.8-3.3-1.5-5.3-1.8-1.4-.1-.4.1-1.1.2-.1-.3-2.1-.3-1.1-.4-.6 0-1.1.1-1.6.1s-.9.1-1.3.1c-.4.1-.9.2-1.4.3-.5.2-1.1.3-1.9.6.3 0 .7-.1.6.1-.5.1-1.2.3-1.2.2l.1-.1c-1.6.7-3.4 1.5-5.1 2.5-1.7 1-3.1 2.3-3.8 3.5l.1-.1c-.5.8-1 1.6-1.4 2.5-.7 1.1.3-.8-.4 0-.6 1.4-1.1 2.5-1.5 3.6-.4 1.1-.7 2.1-.7 3.4-.1.2-.2.4-.2.6-.1.2-.1.5-.1.7-.1.5-.1 1.1-.1 1.7 0 .6.1 1.3.2 1.9v.5c-.2 0-.1 0-1.1-.2l.1.2c-.7.1-.8-.2-1.2-.3.1.1.7.2.3.3-5.5-.4-11.1-2.4-16-4.9-1.8-.9-1.4.2-3.5-1.3l.8.1c-1.9-.8-3.7-2-5.4-3.2-1.7-1.3-3.3-2.6-4.9-3.8.2.1.3.1.6.3-.5-.7-2.3-2.2-2.4-2.1-.4-.5 0-.2-.2-.5-.1-.2-.3-.3-.5-.5l-.3-.2-.1-.1-.2-.2c-.6-.5-1-1-1.2-1.4-.1-.1.3.2.5.4-.3-.3-1-1.1-1.6-1.7l-.2-.2s0-.1 0 0v.1s0 .1-.1.1c-.1.2-.2.3-.2.4-.1.2-.1.3 0 .2-.3.5-.6 1.1-.9 1.6-.1.3-.3.6-.4.9-.1.2-.1.4-.2.5-.3.7-.5 1.3-.7 2 0 .9-.7 2.7-.3 3-.2-.1-.4.6-.4 1.5s.1 1.8.2 2.3c-.1-.3 0 .9-.2.5.1.6.2 1.1.3 1.5.1.4.2.6.3.4 0 1.1.4 2.1.9 3 .4.9.9 1.6.9 2.3.8 1.2 1.6 2.2 2.5 3.2.1.2.1.1.2.2l.1.1c.1.1.2.2.3.2.2.2.5.3.7.5.2.1.3.2.5.3l.1.1H52c-.3-.2-.3-.2-.3-.3-.1-.1-.3-.2-.4-.3-.2-.2-.4-.3-.7-.4.1.1.3.2.4.2.1.1.2.1.3.2l.2.1v.1c0 .1-.1.1-.2.1-.2 0-.7 0-1.2-.2-.1 0-.1-.1-.1-.1h.1c.1 0 .2 0 .2-.1H50l-.2-.1-1-.3c-1-.4-2.2-1.1-3.3-1.6-.1.1-.1.4-.1.6v2.8l.1.6c.1.3.1.6.2.9 0 0-.1-.3-.2-.5.1.5.2 1.2.3 1.1l-.2-.5c.1-.8.9 1.9 1.2 1.9-.4-.3-.2.3-.1.8.1.6.3 1-.3.5.2.3.4.7.5.5.2.5.2.7-.2.2.4.8.6 1.1.8 1.3.2.2.3.4.8 1.1-.1 0-.3-.2-.5-.3.3.3.6.6.9 1 .3.4.7.8 1.1 1.4-.1 0 0 .1-.3-.2.8.9 1.6 1.6 2.4 2.2.4.3.9.6 1.3.9.5.3 1 .6 1.5 1-.4-.1-.3.1 0 .3.1 0 .2.1.2.1.1.1.2.1.2.1.1.1.1.1 0 .2.2.1.4.1.6.2v-.2c.2.1.4.2.7.3.3.1.6.1.9.2.2.1.4.1.5.1-.3-.1-.6-.1-.9-.2.2.1.4.1.7.2l.4.1h.4-.1l-.2-.1c.7.1 1.1.2 1.4.2.1 0 .3 0 .4.1.1 0 .1 0 .3.1-.1 0-.3.1-.5.1.2-.1-1.1.3-2.1.1-.1.1-.5.3-1.4.3-.3-.1-.3-.4-.5-.4 0 .1-.4.2-.9.1-1 0-2-.2-2.3-.1.2 0 .1-.2-.1-.3-.1 0-.2.1-.3.1-.1 0 0 .1 0 .1v.3c0 .1-.1 0-.2-.1.4 1.1.4.9.5.9.1-.1.1-.1.5 1-.1-.2-.1-.1-.3-.5.1.3.2.6.4.9.1.3.2.5.3.7.3.4.5.9.8 1.2.5.8 1.1 1.5 1.7 2.3.1.6-1.1-1.2-.9-.6 1.7 2.2 4.2 3.8 6.5 5-.1-.1-.3-.2-.4-.3.5-.2 1.6 1.1 3 1.3-.3-.1-.5.1-.4.1.8.3 1.6.5 2.5.7.5.1 1.2.1 2.2.1h.2l-.1.1-.1-.1c-.8.5-1.4 1-2.2 1.4-.2.3-.8.6-.3.5-1.6.6-3 1.4-4.4 2.1-1.4.7-2.8 1.3-4.4 1.5.3-.1.8-.3.5-.3-.8.3-1.6.5-2.5.8.2.1.4 0 .9.1-.3.2-1 .5-1.6.6 1.1-.4-.1-.3-.6-.3.1 0-.1.1 0 .2-1.4-.1-.2.4-2 .5l.1-.1c-.7.1-1.3.3-2.1.4-.3-.2.7-.2.8-.4-1.1.1-2 .6-3.1.4.4-.1 1.2-.1 1.6-.2-.1.4-.2.4-.4.4s-.4 0-.6-.1h-1.1.1c-.8 0-1.8-.1-2.9-.3l.9.1c-.3.1-.6.2-1 .2s-1-.1-1.6-.1H42s.1 0 .1.1c.4.2.9.5 1.4.7-1.3-.6-1.7-.7-1.6-.7 0 0 .3.2-.2.1.3.3.9.7.5.6.8.4 1.1.6 1.5.9.2.1.4.3.7.5.3.2.7.3 1.2.5 0 .1 1.1.6.7.6.8.4.7.3.5.1-.2-.2-.6-.4-.5-.4.3.1.6.2.9.4.3.1.5.2.7.3.4.2.9.5 1.4.7 1 .5 2.1 1 3.3 1.3 1 .3 1.6.4 2.3.5.6.1 1.2.2 2.2.3.6.3-.6.1-.6.1 1 .4 1.8.6 2.8.7-.2 0 0 .1.3.3.8.1.6-.2 1.6.1a2 2 0 0 1-.9.2c.9.1 1.9.1 2.9.2.2.2-.6.1-1 .2 1.1.1 2.9.3 3.2.1-.2 0-.5-.1-.7-.2.4 0 .2.2-.1.2-1 .1-1.3-.2-1.4-.3h.7c-.6-.5-2.8-.3-4.2-.7l.6-.2h-1.5c-.3-.2-.4-.4.2-.3-.9-.4-.9-.1-1.7-.5-.1-.1 0-.1.1 0l-1-.2c.2 0-.1-.3.5-.1-1.6-.7-2.8-.6-3.3-1h.1c-2.3-.7-.3.2-2.1-.2-.3-.3-.6-.7-.9-1l-.3.3c-.2-.1-.7-.3-.5-.4-.9-.2.1.2-.5.1-.5-.3-1.3-.7-1.9-1-.6-.3-1.1-.6-.8-.7-.3-.1-.2.1-.1.2s.2.1-.5-.1c.2-.1 0-.3-.5-.5-.4-.2-1.2-.5-1.3-.7 1 .3 1.2.6 1.2.3-1.1-.3-1.8-.8-.3-.5.3 0 .4.1.5.1-.5-.2-.1-.2.4-.1H48s.5.1 1.5.1c.9 0 2.1-.1 2.8-.1v.1c.1-.2.6-.3 1.1-.4.5-.1 1.2-.3 1.7-.4 0 .2-.2.3-.8.5.3-.1.7-.1 1-.2.2-.2.5-.3 1.2-.5l-.2.3c1.3-.4 2.6-1 4.3-1.5 0-.2-1.5-.1.2-.9.1.1.2.2-.2.5.1-.1.5-.3.8-.4l-.6.5c.8-.2.3-.3.9-.5.1.2.5-.1.5.1-.1.1-.5.2-.8.3.7-.2 1.5-.5 1.9-.5-.1-.1-.1-.2.4-.4 1.2-.6.5 0 1.3-.3.2-.3 1.1-.6 1-.8.4-.2.5-.1.6-.2.1-.1.2-.1.3-.2.1-.1.3-.2.4-.3.4-.3.8-.6 1.1-.8.7-.5 1.1-.8.4-.6l-.2.1.1-.1c.3-.2.6-.5.9-.7l.5-.4.2-.2-.1-.1c-.5 0-1-.1-1.5-.1-.5-.1-1-.2-1.5-.2-.3 0-.5-.1-.8-.2l-.6-.1-1.2-.3v-.1c-1.3-.3-2.8-1-3.7-1.4-.4-.2-.7-.6-.5-.6-.9-.5-1.1-.5-2.1-1.5.9.5-.2-.3.9.6-1-.9-1.1-1.2-2.3-2 .5.2-.5-.9-.9-1.4.1.3.3.5.4.8-.5-.5-.8-1-1.2-1.6l.4.1c-.5-.9-1-1.7-1.4-2.4-.1-.1-.1-.1-.1-.2L54 77c-.1-.1-.1-.2-.2-.3-.1-.1-.1-.2-.2-.3l.2-.4v-.1h.1c.3.1.6.1.9.3.1-.1 0-.1-.3-.2-.2-.1-.5-.1-.4-.2.2 0 .4.1.6.2.1 0 .2.1.3.1.2 0 .4.1.6.1.9.1 1.7.2 2 .2 1.4 0 1.8-.3 2.2-.4.3-.2.6-.3 1.8-.6-.5 0-1.3 0-.1-.4.1 0 0 0 0 0h-.2c-.1 0-.1 0-.1-.1h.3c.4 0 .9.1 1.1.2.1.1 0 .1-.1.1 0 0 .1 0 .1.1-.1 0-.2.1-.2.1-.1 0 0 .1.5 0 0 0 0-.1-.1-.1.1 0 .1-.1.2-.2l.1-.1.1-.1c.2-.1.4-.1.6-.1h.4c-2.7-.6-2.1-.4-1-.1-.1 0-.2.1-.3.1.1 0 .2-.1.3-.1l-2.3-.6c-.4-.1-.7-.2-1-.3l-.9-.3-.9-.3c-.3-.1-.7-.2-.9-.3-.2-.1-.5-.2-.7-.4-.1-.1-.2-.1-.4-.2-.1 0-.2-.1-.2-.1l.2.2c.1.1 0 .1-.1 0-1-.6-1.2-.8-1.4-.8-.2 0-.3 0-1-.5-.6-.7.5 0-.9-1-.7-.8 0-.3.4-.1-.3-.2-.6-.4-.8-.7-.2-.2-.4-.5-.6-.7-.4-.5-.6-1-.8-1.3l.5.6c-.3-.3-.5-.6-.8-.9l.1.5c-.3-.4-.5-.7-.4-.7-.4-.3-.1.5-.7-.2-.1-.1-.2-.3-.3-.5l-.3-.6c-.2-.4-.4-.7-.3-.8.8 1.7.1-.3.9 1.1-.2-.3-.3-.6-.5-1 0-.1.1 0 .1.1-.3-.8-.4-1-.6-1.2-.2-.2-.4-.3-.7-1.2.2.2.1-.5 0-.8.2.7-.2.4-.4-.2-.2-1.2-.4-1.3-.4-1.9v.7c-.2-.2-.3-.9-.4-1.4.1 0 .1.5.2.3-.1-.2-.1-.4-.1-.6 0-.1 0-.2.1-.3v-.1l.1.1c.3.2.4.3.6.3.2.1.1.2.1.3v.2c.3.1.7.2.9.3.1.1.2.1.3.1l.2.1.3.1c.7.3 1.5.5 2.8.6-.4-.2-.7-.3-.6-.3h1.1c-.6 0-1.2-.1-1.8-.2-.3-.1-.7-.1-1-.2-.3-.1-.7-.2-.9-.2l1.2.2c.4 0 .8.1 1.1.1l-1.6-.3c-.1 0-.3-.1-.4-.1-.1 0-.2 0-.3-.1-.2 0-.3-.1-.4-.1.9.1.8.1.4-.1.1.1.2.1.4.2s.4.1.5.2c.4.1.7.2 1 .2.7.1 1.2.1 2.1.3l.7.6c.8.1 1.6.2 2.3.2h.5c.1 0 .1-.1.1-.1l.2-.2c-.8-.6-1.7-1.1-2.5-1.7-.4-.3-.7-.6-1.1-.8-.2-.1-.4-.3-.5-.4l-.4-.4.4.5.2.2.3.2c-.5-.2-.8-.6-1.3-1l-.4-.4-.2-.2-.1-.1c-.1-.2-.3-.3-.4-.5.2 0-.1-.5-.2-.8-.1.1-1-1.4-1.4-1.4l-.3-1-.5-1c-.2-.3-.3-.5-.5-.7-.3-.5-.6-.9-.8-1.9.3.5.2-.3.7.8-.2-.6-.3-1.1-.4-1.1 0-.4-.6-1.6-.4-2.2-.1-.3-.3-.3-.3-1 0-.1.1 0 .1 0-.1 0-.1-1.1-.3-.5.2-1 .3-2.3.6-3.6.2-1.3.6-2.5 1.2-3.2.1-.4.2-.5.3-.7l.3-.6s0-.1.1-.1l.1.1.3.3c.2.2.3.4.5.5-.1 0 0 .1-.1-.1.2.3.3.4.4.5.1.1.3.2.4.2.3.1.6.3 1.2 1.1.5.9-.8-.7-.5-.1-.1.3.3.7.9 1.2.6.5 1.3 1 1.7 1.6l-.3-.2c.3.4.9.8 1.4 1.2.3.2.6.4.9.7l1 .7s-.1 0-.1.1c1.1.5 2.9 1.7 4.4 2.5-.5-.1-.7-.3-.5.1.6.4 0-.4 1.3.3.3.4 1.2 1 1.2 1.2-.4-.2-.8-.4-1.2-.7.4.6 1.6.9 2.2 1.3l-.1.1c.9.5 1.5.6 2 .8.5.2 1.1.4 2.1.8l-.2-.2c1.3.2.9.6 2.1.8l.2.4c.4.1 1.1.3 1.9.5.8.2 1.7.3 2.4.5-.4 0-1.1-.1-1.7-.2-.7-.1-1.3-.3-1.9-.4.4.1 1 .4 1.7.6.6.2 1.2.3 1.4.3-.3-.1-.7-.1-1-.2 1 0 2.3.3 3.9.7-.4.6 4.1 1.1 5.2 1.6.7 0 1.4.1 2.2.2l3.3.3c-.1-.6-.2-1.2-.4-1.8-.1-.3-.1-.6-.1-.9v-.5c0-.7-.1-1.5 0-2.2-.6 1.1 0-.9-.5-.7 0-.7.1-1 .1-1.1l.3-1.1c.1-.4.3-.7.4-1 .3-.5-.1.7.1.7.5-1.5.3-.6.8-1.5-.2.1-.1-.6.3-1.4-.2.4-.4.7-.7 1.1.1-.5.2-.9.4-1.2.2-.3.3-.5.5-.7.2-.2.3-.4.5-.7.2-.3.4-.6.6-1.1l-.2.7c.1-.2.3-.6.6-1l.9-1.2c.3-.4.7-.8.9-1.2.3-.4.6-.7.7-.9.2-.1.5-.2.1.2.5-.5 1.1-.9 1.7-1.4l.9-.6.9-.6c.6-.4 1.3-.7 1.9-.9l.9-.3c.3-.1.6-.1.9-.2l-.2.2c.5-.1.8-.5 1.5-.4 0 .1-.2.2.1.1.3-.1 1.3-.4 2-.4l-.6.2c1.3 0 2.4-.1 3.4-.1s1.9 0 3.1.3c-.1.3 1.9 1.1 2.8 1.7h-.1c1.4.7 2.5 1.4 3.5 2.1.3.2.5.4.8.6 0 0 .2.1.3.2l.3.3c.2.2.4.4.6.5.3-.1.6-.1.8-.2l.4-.1.3-.1 1.1-.3c1 0 2.6-.5 4.3-1.1.4-.2.8-.3 1.3-.5l.6-.3.2-.1c.2-.1.3-.1.3-.1 0-.1.3-.4.6-.6 0 0 .1-.1.2-.1-.1.2.2.4-.3.7v-.1c-.3.3-.5.4-.5.5l-.1.1-.1.1c-.1.1-.2.2-.2.3l.3.4c-.4.3-.7.7-1.1 1.1l-.6.6c-.2.3-.5.5-.7.8-.4.4-.8.7-1.2 1.1l-.7.6-.4.3-.2.1-.2.2c-1.3.8-2.5 1.6-3.6 2.4h.7l.1.1h1.3c1.4-.3 2.6-.5 3.8-.8l-.3.3c.8-.1 1.5-.3 2.3-.4l1.1-.3c.2-.1.4-.1.7-.2.1 0 .2 0 .3-.1h.1c.1 0 .2-.1.3-.1l-.3.3s.1-.1.4-.3c.2-.2.6-.4.9-.7.2-.1.4-.3.7-.4.1 0 .1 0 0 .1-.4.3-.7.5-1 .7-.1.2-.3.3-.4.5l-.4.4-.2.2-.3.3-.6.7c-.4.4-.8.9-1.2 1.3 0-.1 0-.2.2-.5-.8.8-3.4 2.6-2.8 2.7-.1-.1-.2 0-.4.1-.1.1-.4.2-.6.4l-.3.3-.2.1c-.1.1 0 .2 0 .2 0 .3 0 .7.1 1 0 .2 0 .4.1.6 0 .4.1.8.1 1.1l-.2-.2c.3 1.1.4 1.1.4 2.7-.1.4-.2.3-.1-.2-.2 1.2.2 1-.1 2.4 0-.2-.1-.4-.1-.6-.1 1.2-.1 1.1 0 1.8 0 .8-.4 2.3-.7 2.5.1.2.1.9-.1 1.6-.1.1-.1-.2-.1-.3-.1.5-.2.9-.3 1.3-.1.4-.1.8-.2 1.1-.1.7-.2 1.3-.5 1.9-.1 0-.1.1-.2.2.5-1.6.8-2.9.8-2.7-.2 0-.6 1.2-.6.1-.1 1.1-.3 2.9-.8 4.1 0 .1-.1.1-.1.1v-.1c-.1.3-.2.5-.2.8-.2.4-.3.6-.4 1-.2.1-.7 1.4-.9 2 .2 0-.1.8.4.2-.1.1 0-.1.2-.5 0-.1.1-.2.1-.3v.1c.2-.4.4-.9.6-1.5-.1.5-.2 1.1-.6 1.7v1c-.7.7-1.6 2.2-1.9 2.3-.8 1.9-2.2 4.2-2.5 5.5-.3.5-.5.5-.6.6.2-.3.4-.6.4-.8-.5 1-1.9 2.8-1.8 3.2-1 1.1.3-.8-.9.8l.1-.3c-1.4 1.4-2.3 2.7-3.3 4-1 1.3-2.2 2.6-4 3.8.3-.2.4-.3.5-.3-2 1.5-4 3.1-6.2 4.4-2.2 1.3-4.5 2.6-6.9 3.3-1.3.5-1.4.6-2.2 1.1l-.4-.1c-.4.3-.9.5-1.3.7-1 .4-1.9.5-2.9.6-1 .1-2 .3-3.3.7l.4.1c-.5.1-1.2.2-1.8.3-.6.1-1.1.1-1 0-.1 0-.3.2-.7.2v-.1c-.8.2-1.5.3-2.3.5-1.8 0 .2-.5-2.4-.4-1 .1-2.8.5-2.4.5.4 0 1 .1 1 .2l-.9.1c-.2.4-.9.8 1.4 1l1.6-.3.5.2c-.4 0-.9.1-1.3.1.8.2 1.2 0 1.8-.2.1.1.4.1.7.2l1.5-.5c.2.1-.7.4.4.3.7-.3-.7-.3.4-.5.8.1.6.3 1.4 0 .1.1 0 .2-.4.3.8-.2 2.1-.4 2.4-.7.4 0 1.1-.1 1.6-.2s1-.2 1 0c.2-.1 1.3-.6 2-.8-1.1.8 2.6-.8 2.4-.2.8-.7 3.3-1.3 4.8-2.3-.1.1-.2.2-.4.2l1.8-.6c0-.4 1.3-1.1 1.9-1.7 1.2-.3-.4.7 0 .8-.2-.2 1.7-1.2 1.2-1.2.9-.3.7-.3 1.3-.3-.1-.4.7-.5 1.2-1.1 1.2-.6.5.1 1.6-.8.1-1.2-.8-.4-.8-.4m19.5-27.5c-.1.3-.2.5-.2.7 0-.2 0-.4.2-.7m.8-2.8c-.1.3-.2.7-.3 1.2-.1.1-.2-.1-.1-.3-.1.2.2-.5.4-.9m-3.5 5.2c.1-.4.2-.5.3-.6-.1.2-.2.4-.3.7v-.1"/></g><g class="st1"><path class="st3" d="M118.2 71.1c0 .1 0 .1-.1.2.1-.1.2-.2.1-.2.1-.1.1-.2.1-.2 0 .1-.1.1-.1.2"/></g><g class="st1"><path class="st3" d="M68.9 88.7h-.1c.1.1.1.1.1 0"/></g><g class="st1"><path class="st3" d="M125.6 41l-.2.1h.2z"/></g><g class="st1"><path class="st3" d="M53.9 94.3h-.2.2"/></g><g class="st1"><path class="st3" d="M46.9 94.9c-.4 0-1-.1-1.5-.1.7 0 1.2.1 1.5.1"/></g><g class="st1"><path class="st3" d="M41.2 95c.2.1.3.1.4.2l-.4-.2z"/></g><g class="st1"><path class="st3" d="M45.6 59.9v-.2c-.1-.5-.1-.2 0 .2"/></g><g class="st1"><path class="st3" d="M57.8 74.9l.2-.2c-.4.1-.6.1-.2.2"/></g><g class="st1"><path class="st3" d="M45.4 46.2V46v.2z"/></g><g class="st1"><path class="st3" d="M58.7 74.6c-.5 0-.6.1-.8.2.4-.1.7-.1.8-.2"/></g><g class="st1"><path class="st3" d="M64.3 103.6h.3-.3z"/></g><g class="st1"><path class="st3" d="M64.6 103.6h.3-.3"/></g><g class="st1"><path class="st3" d="M65.5 103.6h-.6c.2.1.4.1.6 0"/></g><g class="st1"><path class="st3" d="M57.4 102.2c0 .1 0 .1 0 0"/></g><g class="st1"><path class="st3" d="M55.4 101.7c.5.2 1.2.5 1.9.7h.1c-.4-.1-1.5-.7-2-.7"/></g><g class="st1"><path class="st3" d="M47.7 97.5l1.5.8c-.2-.2-.5-.5.2-.2-.9-.6-.8-.5-.8-.4 0 .1.1.1-.1.1-.1 0-.1 0-.3-.1-.1 0-.3-.1-.5-.2"/></g><g class="st1"><path class="st3" d="M44.9 95.8c.6.3.5.1.8.2h-.2c0-.1-.2-.2-.6-.2"/></g><g class="st1"><path class="st3" d="M60.2 84.1l.2-.1c-.6-.4 0 .1-.2.1"/></g><g class="st1"><path class="st3" d="M54.2 79.6l.3.7c.1.1.2.1.4.2-.3-.4-.5-.6-.7-.9"/></g><g class="st1"><path class="st3" d="M54.2 76.3l.1.1-.1-.1s0-.1 0 0l.1-.1-.1.1c0-.1 0 0 0 0"/></g><g class="st1"><path class="st3" d="M48.1 38.8l-.3.1c-.1.5.2.7.3-.1"/></g><g class="st1"><path class="st3" d="M68 50.1c.2.2 1 .6 1.5.7-.6-.3-1.2-.6-1.5-.7"/></g><g class="st1"><path class="st3" d="M125.7 37.8c.1-.2.2-.3.3-.5-.2.3-.4.6-.6.8l.3-.3"/></g><path d="M14.3 151.7H13v-10.2H9.4v-1.2H18v1.2h-3.6v10.2zm12.1 0l-1.6-5c-.1-.3-.3-1-.6-2.1h-.1c-.2.9-.4 1.6-.5 2.1l-1.6 5h-1.5l-2.3-8.6h1.4c.6 2.2 1 3.8 1.3 4.9s.5 1.9.5 2.3h.1c.1-.3.1-.7.3-1.2.1-.5.2-.8.3-1.1l1.6-4.9H25l1.5 4.9c.3.9.5 1.6.6 2.3h.1c0-.2.1-.5.2-.9s.6-2.5 1.6-6.3h1.3l-2.4 8.6h-1.5zm5.4-10.9c0-.3.1-.5.2-.7.1-.1.3-.2.5-.2s.4.1.5.2.2.4.2.6c0 .3-.1.5-.2.7-.2.1-.3.2-.5.2s-.4-.1-.5-.2c-.2-.1-.2-.3-.2-.6zm1.4 10.9h-1.3v-8.6h1.3v8.6zm5.5-.9c.2 0 .5 0 .7-.1.2 0 .4-.1.5-.1v1c-.1.1-.3.1-.6.2-.3 0-.5.1-.7.1-1.7 0-2.5-.9-2.5-2.6v-5.1h-1.2v-.6l1.1-.6.5-1.8h.8v2h2.5v1h-2.5v5c0 .5.1.9.4 1.2.2.2.6.4 1 .4zm5.6 0c.2 0 .5 0 .7-.1.2 0 .4-.1.5-.1v1c-.1.1-.3.1-.6.2-.3 0-.5.1-.7.1-1.7 0-2.5-.9-2.5-2.6v-5.1h-1.2v-.6l1.2-.5.5-1.8h.8v2h2.5v1H43v5c0 .5.1.9.4 1.2.2.1.5.3.9.3zm6.5 1c-1.3 0-2.3-.4-3-1.2a4.6 4.6 0 0 1-1.1-3.2c0-1.4.3-2.5 1-3.3s1.6-1.2 2.7-1.2 1.9.4 2.5 1.1c.6.7.9 1.6.9 2.8v.8h-5.9c0 1 .3 1.8.8 2.3.5.5 1.2.8 2 .8.9 0 1.8-.2 2.7-.6v1.2c-.5.2-.9.3-1.3.4s-.7.1-1.3.1zm-.3-7.7c-.7 0-1.2.2-1.6.7-.4.4-.6 1.1-.7 1.9h4.5c0-.8-.2-1.4-.5-1.9-.5-.5-1-.7-1.7-.7zm9.6-1.1c.4 0 .7 0 1 .1l-.2 1.2c-.4-.1-.7-.1-.9-.1-.7 0-1.3.3-1.8.8s-.7 1.3-.7 2.1v4.6h-1.3v-8.6h1.1l.1 1.6h.1c.3-.6.7-1 1.1-1.3.5-.3 1-.4 1.5-.4zm16.1 2.9c0 1.9-.5 3.3-1.5 4.3s-2.5 1.5-4.4 1.5h-3.2v-11.4h3.5c1.8 0 3.2.5 4.1 1.5s1.5 2.3 1.5 4.1zm-1.4 0c0-1.5-.4-2.6-1.1-3.4-.7-.8-1.9-1.1-3.3-1.1h-1.9v9.1H70c1.6 0 2.8-.4 3.6-1.2.8-.7 1.2-1.9 1.2-3.4zm3.6-5.1c0-.3.1-.5.2-.7.1-.1.3-.2.5-.2s.4.1.5.2.2.4.2.6c0 .3-.1.5-.2.7-.2.1-.3.2-.5.2s-.4-.1-.5-.2c-.1-.1-.2-.3-.2-.6zm1.5 10.9h-1.3v-8.6h1.3v8.6zm6.6-8.7c.4 0 .7 0 1 .1l-.2 1.2c-.4-.1-.7-.1-.9-.1-.7 0-1.3.3-1.8.8s-.7 1.3-.7 2.1v4.6h-1.3v-8.6h1.1l.1 1.6h.1c.3-.6.7-1 1.1-1.3.5-.3 1-.4 1.5-.4zm6.3 8.8c-1.3 0-2.3-.4-3-1.2a4.6 4.6 0 0 1-1.1-3.2c0-1.4.3-2.5 1-3.3s1.6-1.2 2.7-1.2 1.9.4 2.5 1.1c.6.7.9 1.6.9 2.8v.8H90c0 1 .3 1.8.8 2.3.5.5 1.2.8 2 .8.9 0 1.8-.2 2.7-.6v1.2c-.5.2-.9.3-1.3.4s-.9.1-1.4.1zm-.4-7.7c-.7 0-1.2.2-1.6.7-.4.4-.6 1.1-.7 1.9h4.5c0-.8-.2-1.4-.5-1.9-.5-.5-1-.7-1.7-.7zm9.1 7.7a4 4 0 0 1-2.9-1.1c-.7-.8-1-1.8-1-3.2 0-1.4.3-2.5 1-3.3s1.7-1.2 2.9-1.2a4.87 4.87 0 0 1 2.2.4l-.4 1.1-.9-.3c-.3-.1-.6-.1-.9-.1-1.7 0-2.6 1.1-2.6 3.3 0 1.1.2 1.9.6 2.4s1.1.8 1.9.8c.7 0 1.4-.2 2.2-.5v1.1c-.5.5-1.2.6-2.1.6zm7-1c.2 0 .5 0 .7-.1.2 0 .4-.1.5-.1v1c-.1.1-.3.1-.6.2-.3 0-.5.1-.7.1-1.7 0-2.5-.9-2.5-2.6v-5.1h-1.2v-.6l1.2-.5.5-1.8h.8v2h2.5v1h-2.5v5c0 .5.1.9.4 1.2.1.1.5.3.9.3zm12.3.9l-3.9-10.1h-.1c.1.8.1 1.8.1 2.9v7.3h-1.2v-11.4h2l3.6 9.4h.1l3.6-9.4h2v11.4h-1.3v-7.4c0-.8 0-1.8.1-2.8h-.1l-3.9 10.1h-1zm12.8.1c-1.3 0-2.3-.4-3-1.2a4.6 4.6 0 0 1-1.1-3.2c0-1.4.3-2.5 1-3.3s1.6-1.2 2.7-1.2 1.9.4 2.5 1.1c.6.7.9 1.6.9 2.8v.8h-5.9c0 1 .3 1.8.8 2.3.5.5 1.2.8 2 .8.9 0 1.8-.2 2.7-.6v1.2c-.5.2-.9.3-1.3.4s-.7.1-1.3.1zm-.4-7.7c-.7 0-1.2.2-1.6.7-.4.4-.6 1.1-.7 1.9h4.5c0-.8-.2-1.4-.5-1.9-.5-.5-1-.7-1.7-.7zm11.3 5.3c0 .8-.3 1.4-.9 1.8-.6.4-1.4.6-2.5.6s-2-.2-2.7-.5v-1.2c.4.2.9.4 1.3.5.5.1.9.2 1.4.2.7 0 1.2-.1 1.6-.3.4-.2.5-.5.5-1 0-.3-.1-.6-.4-.9-.3-.2-.9-.5-1.7-.8-.8-.3-1.4-.6-1.7-.8-.3-.2-.6-.5-.8-.8s-.2-.6-.2-1c0-.7.3-1.2.9-1.7.6-.4 1.3-.6 2.3-.6.9 0 1.8.2 2.7.6l-.5 1.1c-.9-.4-1.6-.5-2.3-.5-.6 0-1.1.1-1.4.3-.3.2-.5.5-.5.8 0 .2.1.4.2.6.1.2.3.3.6.5.3.1.8.4 1.5.6 1 .4 1.7.7 2.1 1.1s.5.8.5 1.4zm7.6 0c0 .8-.3 1.4-.9 1.8-.6.4-1.4.6-2.5.6s-2-.2-2.7-.5v-1.2c.4.2.9.4 1.3.5.5.1.9.2 1.4.2.7 0 1.2-.1 1.6-.3.4-.2.5-.5.5-1 0-.3-.1-.6-.4-.9-.3-.2-.9-.5-1.7-.8-.8-.3-1.4-.6-1.7-.8-.3-.2-.6-.5-.8-.8s-.2-.6-.2-1c0-.7.3-1.2.9-1.7.6-.4 1.3-.6 2.3-.6.9 0 1.8.2 2.7.6l-.5 1.1c-.9-.4-1.6-.5-2.3-.5-.6 0-1.1.1-1.4.3-.3.2-.5.5-.5.8 0 .2.1.4.2.6.1.2.3.3.6.5.3.1.8.4 1.5.6 1 .4 1.7.7 2.1 1.1s.5.8.5 1.4zm7.4 2.3l-.3-1.2h-.1c-.4.5-.9.9-1.3 1.1s-1 .3-1.6.3c-.8 0-1.5-.2-2-.7s-.7-1.1-.7-1.9c0-1.7 1.4-2.6 4.1-2.7h1.5v-.6c0-.7-.1-1.2-.4-1.5s-.8-.5-1.4-.5c-.7 0-1.5.2-2.4.7l-.4-1a7.72 7.72 0 0 1 2.9-.7c1 0 1.8.2 2.3.7s.7 1.2.7 2.2v5.8h-.9zm-2.9-.9c.8 0 1.4-.2 1.9-.7.5-.4.7-1.1.7-1.9v-.8l-1.3.1c-1 0-1.8.2-2.2.5-.5.3-.7.7-.7 1.3 0 .5.1.8.4 1.1.2.3.6.4 1.2.4zm13.5-7.7v.8l-1.6.2c.1.2.3.4.4.7.1.3.2.6.2 1 0 .8-.3 1.5-.9 2s-1.4.8-2.4.8c-.3 0-.5 0-.7-.1-.6.3-.8.7-.8 1.1 0 .2.1.4.3.5.2.1.5.2 1 .2h1.5c.9 0 1.6.2 2.1.6s.7 1 .7 1.7c0 .9-.4 1.7-1.1 2.2-.8.5-1.9.7-3.3.7-1.1 0-2-.2-2.6-.6-.6-.4-.9-1-.9-1.8 0-.5.2-1 .5-1.4s.8-.6 1.4-.8c-.2-.1-.4-.3-.6-.5-.1-.2-.2-.5-.2-.7 0-.3.1-.6.2-.8s.4-.5.8-.7c-.4-.2-.8-.5-1.1-.9s-.4-.9-.4-1.5c0-.9.3-1.7.8-2.2s1.4-.8 2.4-.8c.4 0 .9.1 1.2.2h3.1zm-6.8 10c0 .5.2.8.6 1.1.4.2 1 .4 1.7.4 1.1 0 1.9-.2 2.4-.5s.8-.8.8-1.3-.1-.8-.4-1-.8-.3-1.6-.3h-1.6c-.6 0-1 .1-1.4.4s-.5.7-.5 1.2zm.7-7.2c0 .6.2 1.1.5 1.4.3.3.8.5 1.4.5 1.3 0 1.9-.6 1.9-1.8 0-1.3-.6-1.9-1.9-1.9-.6 0-1.1.2-1.4.5s-.5.6-.5 1.3zm11.5 5.9c-1.3 0-2.3-.4-3-1.2a4.6 4.6 0 0 1-1.1-3.2c0-1.4.3-2.5 1-3.3s1.6-1.2 2.7-1.2 1.9.4 2.5 1.1c.6.7.9 1.6.9 2.8v.8h-5.9c0 1 .3 1.8.8 2.3.5.5 1.2.8 2 .8.9 0 1.8-.2 2.7-.6v1.2c-.5.2-.9.3-1.3.4s-.7.1-1.3.1zm-.4-7.7c-.7 0-1.2.2-1.6.7-.4.4-.6 1.1-.7 1.9h4.5c0-.8-.2-1.4-.5-1.9-.5-.5-1-.7-1.7-.7z" fill="#626c72"/></svg>