<svg id="Layer_1" xmlns="http://www.w3.org/2000/svg" xmlns:xlink="http://www.w3.org/1999/xlink" viewBox="0 0 156 175"><style>.st3{clip-path:url(#SVGID_6_);fill:#f9f9f9}.st4{fill:#fafafa}.st4,.st5,.st6,.st7,.st8{clip-path:url(#SVGID_6_)}.st5{fill:#fbfbfb}.st6{fill:#fdfdfd}.st7{fill:#fefefe}.st8{fill:#fff}.st9{clip-path:url(#SVGID_8_);fill:#373737}.st16{clip-path:url(#SVGID_12_);fill-rule:evenodd;clip-rule:evenodd;fill:#fff}.st17{clip-path:url(#SVGID_14_);fill:#373737}</style><path d="M96.9 118c.3-.1.6-.1.9-.2 13.5-2.9 26.5-9.8 37.4-22.7 1.9-2.2 3.7-4.6 4.9-8 1-2.8 1.6-6.4 1.3-10.1 2.5-9.4 3.5-20.6 1-31.5-3-13.4-10.8-22.4-18-24.8-4-1.3-7.9-.9-11.7-.5-12.8 1.3-25.6 3.2-38.3 5.6-1.2.2-2.5.5-3.7.7-8.4 1.7-16.8 4.1-24.3 9.9-3.3 2.5-6.4 5.7-9.9 7.1-2.9 1.2-6 1.3-8.6 3.2-2.3 1.7-4.2 4.6-5.8 8-1.9 4.1-3.5 8.9-4.1 14.6-.6 5.7.1 12.4 2.1 17.7 2 5.1 5 8.4 7.3 13.2 1.4 3 2.5 6.6 4.2 9.1 1.8 2.6 3.9 3.5 6 4.2 6.3 2.2 12.6 3.4 18.8 4.3 13.6 2 27.3 2.9 40.5.2" fill="#cfebf6"/><defs><path id="SVGID_1_" d="M40.2 27.3h81.2v80.9H40.2z"/></defs><clipPath id="SVGID_2_"><use xlink:href="#SVGID_1_" overflow="visible"/></clipPath><path d="M42.2 107.6h-.1c-.2-.1-.4-.2-.5-.3-.1-.2-.1-.4-.1-.5.1-.2.5-.6 1.3-1.2h-.5c-.2-.1-.4-.2-.5-.4-.4-.7.1-1.3 3.5-3.6 2.1-1.4 5.2-3.4 9.4-6 7.8-4.8 18.3-11 28.5-17 6.8-4 13.9-8.2 20-11.9l-10.3 5.8c-3.6 2.2-7.3 4.4-10.9 6.6-27.9 16.9-37.4 22.4-39.1 22.4h-.1c-.2 0-.4-.2-.5-.3-.1-.2-.1-.4-.1-.6.1-.3.6-.8 1.4-1.4-.2-.8 1.1-2.1 11.6-8.5-7.1 4.1-10.2 5.6-11 5.4-.2-.1-.4-.2-.5-.3-.6-1.1.5-2.1 33.6-22 13.6-8.2 29.9-18 35.9-22.2-5.8 3.1-19.4 11.3-31.6 18.8C56.1 85.8 47.4 91 46 90.6c-.2-.1-.4-.2-.5-.3-.1-.2-.1-.4-.1-.6.1-.5 1.3-1.4 3.6-3-.1-.1-.2-.1-.2-.2-.2-.4-.1-.8.5-1.4-1 .4-1.6.6-1.9.5-.2-.1-.4-.2-.5-.4-.1-.1-.1-.3-.1-.5-.6.2-1 .3-1.2.3-.2 0-.4-.2-.4-.3-.4-.6 0-1.2 2.8-3.1-.8.3-1.3.4-1.5.4-.2-.1-.4-.2-.5-.3-.6-1-.7-1.2 31-20.4 10.6-6.4 23.2-14 29.2-18-6.4 3.5-19.2 11.3-30 17.9C52.4 75.8 44.7 80.3 43.5 80c-.2-.1-.4-.2-.5-.3-.6-1.1.5-2.1 32.9-21.6 9.2-5.6 19.2-11.6 25.5-15.5C95.6 46 87 51.2 79 56 54.5 70.8 46.1 75.7 44.9 75.4c-.2-.1-.4-.2-.5-.3-.6-1 .3-1.9 28.9-19.3 10.1-6.2 22.2-13.5 27.6-17.1-6.2 3.3-19.8 11.5-31.1 18.4-22.3 13.5-26.7 16-27.6 15.8-.2 0-.3-.2-.4-.3-.3-.6-.2-1.2 4.9-4.4-2.3 1.2-3.3 1.6-3.7 1.5-.2 0-.3-.2-.4-.3-.1-.2-.1-.4-.1-.6.1-.3.5-.7 1.4-1.4-.2-.3-.3-.5.4-1.1-1 .5-1.6.7-1.9.6-.2 0-.4-.2-.4-.3-.1-.2-.1-.4-.1-.6 0-.1.1-.1.1-.2-.6.3-1 .3-1.2.3-.2 0-.3-.2-.4-.3-.4-.6.1-1.2 2.6-2.8.9-.6 2.2-1.4 3.7-2.4-1.1.5-1.7.7-1.9.6-.2 0-.3-.2-.4-.3-.6-1 .2-1.8 25.4-17.1 2.7-1.7 5.6-3.4 8.3-5-.3.2-.7.4-1 .6-2.2 1.4-4.5 2.7-6.7 4.1-19.9 11.8-24.3 14.3-25.3 14-.1 0-.2-.1-.3-.2h-.4c-.2 0-.4-.2-.5-.3-.4-.6.2-1.1 1.7-2.2 1-.7 2.5-1.7 4.5-3 3.8-2.4 8.8-5.5 14.1-8.7l8-4.9c-1.3.8-2.7 1.6-4 2.4C51.4 51 47.5 53.2 46.6 53c-.2 0-.3-.2-.4-.3-.4-.6.2-1.1 1.3-1.9-1 .5-1.4.6-1.7.5-.2 0-.3-.2-.4-.3-.4-.7.4-1.2 1.4-1.9.8-.6 2-1.4 3.6-2.4 1.1-.7 2.3-1.5 3.6-2.3-4.3 2.5-5.3 2.9-5.7 2.8-.2 0-.3-.2-.4-.3-.4-.7-.5-.8 10-8.7.6-.4 1.2-.9 1.8-1.3-2.2 1.3-2.3 1.3-2.6 1.2-.2 0-.3-.2-.4-.3-.2-.3-.1-.7.2-.9.1 0 .1-.1.2-.1.5-.2 2.6-1.5 4.3-2.5 5.1-3.1 5.1-3.1 5.5-3 .2 0 .3.2.4.3.4.7.4.7-8.6 7.5-1.8 1.4-4 3-5.8 4.4 3.3-1.9 7.9-4.7 11.8-7.1 12.5-7.6 13.8-8.3 14.4-8.1.2 0 .3.2.4.3.4.6-.3 1.2-1.5 2.1-.9.6-2.1 1.5-3.9 2.6-1 .6-2.1 1.4-3.3 2.1 9.6-5.9 12-7.1 12.7-6.9.2 0 .3.2.4.3.3.5-.1 1-.8 1.6 2.7-1.5 3.7-1.9 4-1.8.2 0 .3.2.4.3.4.7-.3 1.2-1.9 2.4-1.1.8-2.8 1.9-5.1 3.4-4.2 2.7-9.9 6.2-15.4 9.5-1.2.7-2.4 1.5-3.6 2.2.6-.3 1.2-.7 1.8-1l3.9-2.4C84.3 32.4 88 30.3 88.9 30.6c2.6-1.4 3.6-1.8 4-1.7.2 0 .3.2.4.3.5.9.7 1.1-23.2 15.6-6.4 3.9-13.7 8.3-18.8 11.6 5.2-3 12.4-7.4 18.8-11.2 19.8-12 24-14.4 24.9-14.2.2 0 .3.2.4.3.3.5.4.8-3.4 3.3 4.3-2.4 6.4-3.4 7-3.2.2.1.4.2.5.3 0 .1.1.1.1.2.3-.1.6-.1.7-.1.2 0 .3.2.4.3.1.2.1.4.1.5-.1.3-.7.9-2.5 2 0 .1-.1.2-.1.2 2.2-1.2 3.3-1.6 3.7-1.5.2 0 .4.2.5.3.1.2.1.4.1.6-.1.2-.3.5-.8.9 0 0 0 .1.1.1.3.5.2.9-2.2 2.7 3-1.6 4.4-2.2 5-2.1.2.1.4.2.5.3.6 1.1-.5 2.1-30.9 20.6A864.5 864.5 0 0 0 49.5 72c6.4-3.5 18.6-10.9 29-17.3 23.6-14.3 28.9-17.4 29.9-17.1.2 0 .3.2.4.3.4.6-.1 1.2-2.7 2.9-1.6 1.1-4 2.6-7.2 4.6-6 3.7-14.2 8.7-22.2 13.5C66.5 65 54.6 72.2 48.4 76.2c6.1-3.4 17.3-10.2 27.5-16.5 25-15.3 33.6-20.3 34.9-20 .2.1.4.2.5.3.6 1 .8 1.3-33.3 21.9-9.8 5.9-20.5 12.4-26.3 16.2 6.4-3.6 18.1-10.7 28.1-16.8 23.7-14.5 31.2-19 32.5-18.6.2.1.4.2.5.3.3.5.5.8-3.6 3.4 1.6-.8 2.5-1.1 2.9-1 .2.1.4.2.5.3 0 .1.1.2.1.3 1.4-.7 2.2-.9 2.5-.8.2.1.4.2.5.3.4.6 0 1.1-2.1 2.5.3-.1.5-.1.6 0 .2.1.4.2.5.4.1.2.1.4.1.5 0 .1-.1.1-.1.2 1-.4 1.6-.6 1.9-.5.2.1.4.2.5.3.4.7 0 1.3-3.3 3.5-2 1.4-4.9 3.3-8.8 5.7-7.6 5-17.4 10.9-26.9 16.6C66.7 81.6 54.2 89.1 48.3 93c7.1-3.8 22.5-13.1 35.5-21 25.7-15.6 33.4-20.1 34.5-19.8.2 0 .3.2.4.3.4.7 0 1.3-3.1 3.4-1.9 1.3-4.6 3.1-8.4 5.4-1 .6-2 1.2-3.1 1.9 9.8-5.8 13.6-7.8 14.4-7.6.2.1.4.2.5.3.5-.2.8-.3 1-.2.2 0 .4.2.4.3.6 1.1-.6 2.2-36.6 23.5-11.4 6.9-24.8 14.8-33 20 4.7-2.8 11.6-6.7 21.6-12.3 3.3-2 6.5-4 9.6-5.9 27.8-16.9 36.7-22.2 38.1-21.8.2.1.4.2.5.3.1.1.1.3.1.5.2.1.3.2.4.3.1.2.1.4.1.6-.1.2-.3.5-.8.9.1.6-.5 1.3-3.2 3.2-1.9 1.3-4.6 3.1-8.4 5.5-6.9 4.4-16.1 10-25 15.4-8.3 5-17.2 10.5-22.7 14 6.4-3.6 17.1-10.1 26.2-15.7 22.9-14 29.8-18 31-17.7.2 0 .4.2.5.3.2.4.2.8-1.6 2.2 2.2-1.2 3.1-1.6 3.5-1.5.2 0 .3.2.4.3.5.9.7 1.2-27.1 18.8-7.8 4.9-16.8 10.6-22 14.2 5.3-3 14.1-8.4 21.6-13 20-12.2 26-15.7 27-15.4.2 0 .4.2.4.3.5.9.6 1-23.6 16.7C90.7 94 83 99 78 102.4c4.4-2.6 10.5-6.3 15.8-9.5 18-11 22-13.3 23-13.1.2 0 .3.2.4.3.5.8.5.9-17.8 13-3.5 2.3-7.4 4.9-10.6 7C92 98.2 95.6 96 99 93.9c14-8.5 15.5-9.4 16.2-9.2.2 0 .3.2.4.3.5.8.5.9-15.2 11.8l-4.8 3.3c.9-.5 1.8-1.1 2.6-1.6 11.6-7 12.9-7.7 13.5-7.5.2 0 .3.2.4.3.4.7.4.7-8.3 6.5-.3.2-.5.4-.8.5.1.1.2.1.2.2.2.3.1.7-.2.9-.1 0-.1.1-.2.1-.4.2-2.4 1.4-3.8 2.2-4.3 2.6-4.3 2.6-4.7 2.5-.2 0-.3-.2-.4-.3-.3-.6-.1-.8 2.9-3 .6-.4 1.4-.9 2.1-1.5l-.1.1c-11.2 6.8-11.8 7-12.3 6.9-.2 0-.3-.2-.4-.3-.4-.8-.5-.8 13.5-10.4 3-2 6.2-4.3 9-6.2-2.7 1.6-5.9 3.6-9 5.4-14.7 9.4-17.8 11.1-18.6 10.9-.2 0-.3-.2-.4-.3-.5-.8-.5-.9 18.1-13.2 3.7-2.5 7.9-5.2 11.3-7.5-4.4 2.6-10.3 6.2-15.5 9.4C76.7 105 73 107.2 72.1 107c-.2 0-.3-.2-.4-.3-.5-.9-.6-1.1 25.1-17.7 6.5-4.2 13.5-8.7 18.1-11.8-5.3 3.1-13.5 8.1-20.6 12.4C74 101.7 68 105.3 66.9 105c-.2 0-.4-.2-.4-.3-.5-.9-.7-1.2 26.8-18.6 7.5-4.7 16.2-10.2 21.5-13.8-5.2 3-13.2 7.9-20.5 12.3-23.4 14.2-31.4 18.9-32.6 18.6-.2-.1-.4-.2-.5-.3-.2-.4-.1-.8.5-1.3-4.1 2.3-5.9 3.1-6.5 3-.2-.1-.4-.2-.5-.3-.6-1-.7-1.2 28.3-18.8 7.1-4.3 15.5-9.5 22.4-13.8-6.5 3.7-15 8.5-25.8 14.4-.4.3-.8.5-1.2.8-25.7 15.6-34.5 20.7-36.2 20.7m59.8-8zm0 0zm-19-9.7c-5.4 3.2-10.7 6.3-14.6 8.6 4-2.2 9.2-5.3 14.6-8.6m16.1-23.7c-5.5 3.3-11.7 6.9-17.8 10.5C74 81 65.8 85.8 59.1 89.8c4.1-2.3 9.1-5.1 14.9-8.3 2.7-1.6 5.4-3.3 8-4.9 6.8-4.2 12.4-7.6 17.1-10.4m-25 7.2c-10 5.7-19.8 11.4-24.6 14.5 5.1-2.7 14.9-8.6 24.6-14.5m-2.5-.4c-7.1 4.1-13.8 8.1-17.8 10.6 4.1-2.3 10.7-6.3 17.8-10.6m-5.3 1c-5.7 3.2-10.8 6.2-14.1 8.2 3.5-1.8 8.5-4.8 14.1-8.2m9.7-7.7c-9.6 5.6-19.6 11.5-25.1 15C56.7 78 66.7 72 76 66.3m35.9 5.1c-4.2 2.4-10.1 5.9-16.2 9.7 6-3.6 12-7.1 16.2-9.7m2.4-16.1c-6.2 3.4-18.6 10.9-29.8 17.7-4.2 2.6-8 4.9-11.5 6.9 2.4-1.4 4.9-2.9 7.6-4.5 12.4-7.1 27.1-15.7 33.7-20.1m-6-3.1c-2.8 1.6-6.4 3.7-10.3 6 4-2.2 7.6-4.3 10.3-6m1-2.6c-3.4 1.9-8.1 4.7-13.2 7.8 5.1-3 9.8-5.8 13.2-7.8m-3.3.3c-3 1.7-6.9 4-11.2 6.6 4.3-2.5 8.2-4.8 11.2-6.6m-2.4-1.2c-2.3 1.3-4.9 2.9-7.6 4.5 2.8-1.6 5.4-3.2 7.6-4.5m-20.5-2.4c-3.4 2-6.9 4.2-10.3 6.2 5.9-3.4 12.2-7.1 17.3-10.2-2 1.2-4.3 2.5-7 4m-25.5-9.2zm0 0" clip-path="url(#SVGID_2_)" fill="#00960a"/><defs><path id="SVGID_3_" d="M53.8 86.4l-.8-1.3c-3.3-5.3-5.1-11.4-5.1-17.6a33.22 33.22 0 0 1 56.7-23.4c6.3 6.3 9.7 14.6 9.7 23.4A33.25 33.25 0 0 1 64.2 96l-1.2-.7-12.6 3.3 3.4-12.2zM41.2 67.5c0 7 1.8 13.9 5.3 19.9L40.8 108l21.2-5.5c5.8 3.2 12.4 4.8 19.1 4.8 22 0 40-17.9 40-39.8a39.98 39.98 0 0 0-40-39.9c-22 .1-39.9 18-39.9 39.9"/></defs><clipPath id="SVGID_4_"><use xlink:href="#SVGID_3_" overflow="visible"/></clipPath><g clip-path="url(#SVGID_4_)"><defs><path id="SVGID_5_" d="M40.2 27.3h81.2v80.9H40.2z"/></defs><clipPath id="SVGID_6_"><use xlink:href="#SVGID_5_" overflow="visible"/></clipPath><path class="st3" d="M47.9 94.7h66.4v6H47.9z"/><path class="st4" d="M47.9 81.3h66.4v13.4H47.9z"/><path class="st5" d="M47.9 67.9h66.4v13.4H47.9z"/><path class="st6" d="M47.9 54.5h66.4v13.4H47.9z"/><path class="st7" d="M47.9 41.1h66.4v13.4H47.9z"/><path class="st8" d="M47.9 34.5h66.4v6.7H47.9z"/><path class="st3" d="M40.9 108.1h80.3-80.3zm0-13.4h80.3v13.4H40.9z"/><path class="st4" d="M40.9 81.3h80.3v13.4H40.9z"/><path class="st5" d="M40.9 67.9h80.3v13.4H40.9z"/><path class="st6" d="M40.9 54.5h80.3v13.4H40.9z"/><path class="st7" d="M40.9 41.1h80.3v13.4H40.9z"/><path class="st8" d="M40.9 27.7h80.3v13.4H40.9zm80.2 0H40.9h80.2z"/></g><defs><path id="SVGID_7_" d="M40.2 27.3h81.2v80.9H40.2z"/></defs><clipPath id="SVGID_8_"><use xlink:href="#SVGID_7_" overflow="visible"/></clipPath><path class="st9" d="M63.1 95.6c.1-.1 0-.1-.3 0l-.2.2.5-.2zm-2.2.3c-.3.2-.7.4-.5.5.3-.2.4-.2.8-.5.3-.1.6-.1.5 0 .1-.1.5-.1.6-.2-.3-.1-.8.1-1.4.2-.1.1 0 0 0 0M50.3 79.4l.1.2c0-.1 0-.1-.1-.2M50 57.3c0 .1 0 .1-.1.2.1 0 .1-.1.1-.2m.3 22.1l-.1-.5c-.1 0 .1.3.1.5m6.5 17.9c.1 0 .2-.1.3-.1-.1 0-.2.1-.3.1m-2.9-10.1v.3-.3zm-1.7 6.3c0-.1-.1-.2-.1-.3 0 .1 0 .2.1.3-.1 0 0 0 0 0m3.1 3.7l.2-.1c-.1.1-.2.1-.2.1m28.8 4c-.1 0-.1 0 0 0M63 95.3h.1-.1zM52.5 51.9c0 .1 0 .1 0 0 0 .2 0 .1 0 0m47.4-11.1c-.4-.4.9.5.2-.2.1.2-.8-.3-.2.2M56.7 97.3c-.1 0-.2 0-.3.1.1 0 .2 0 .3-.1m43.4-56.6c0-.1 0 0 0 0m-38.7.9h-.1.1m-7.2 7.2l.2-.2-.2.2m11.6-10.2c.1-.1.2-.1.3-.2H66c.1.1 0 .1-.2.2m5.2-2.2h-.1c-.1 0-.1 0-.2.1l.3-.1zm15.8 64.3c-.1 0-.2 0-.3-.1.2.1-.7.3.3.1"/><path class="st9" d="M56.8 97.3l-.1.1c0-.1.1-.1.1-.1.1 0 .1 0 0 0m8.8-59.7l.8-.4c-.2.1-.5.3-.8.4m3.3-1.4c.2 0 .3-.1.5-.1 0 0 .1 0 .1-.1l-.6.2zm17.7 64.4z"/><path class="st9" d="M80.6 101.3c.9 0 .4-.1.6-.2 1-.1.5.1.8.2.3 0 .6-.1.9-.1.3-.1.5-.1.7-.1 0 0 .1 0 0 .1.7-.2 2-.2 2.8-.5h.1c-.1-.1-.2-.1-.2-.2.4-.1.7-.2.8-.1-.2 0-.2.1-.3.1l.4-.1c.4.1-.5.1-.5.3l1.2-.3c.4-.1.8-.2 1.1-.3.2.1-1.4.4-.6.3-.3.1-.6.1-.9.1.8.1-.6.1.1.2.6-.1.9-.2 1.3-.3.3-.1.7-.2 1.3-.3.2-.2-.1-.1.1-.2.8-.3 1.2-.3 1.5-.3.3 0 .5 0 1.1-.3.3-.2.3-.4 1.2-.7l-.2.3c1.1-.4.5-.5 1.7-.9-.2.1-.8.4-.7.4.8-.2.5-.3 1-.6l.2.1a25.02 25.02 0 0 0 3.4-2.2c0 .1-.2.2.1.1 1.4-1 3.1-2.2 4.4-3.3l.4-.5c.1-.1.2-.2.1 0 .5-.4 0-.1.2-.3.3-.3.4-.3.3-.1.8-.9 2.1-2.6 2.9-3.5l-.1.2c.6-.7.4-1 1.1-1.7 0 .1-.1.1-.1.2 1.2-1.7 2.2-3.8 3-5.2 0-.3.9-1.9.7-2.1.3-.5.4-.7.5-1 .1-.2.3-.6.5-1.4.1-.4 0-.7.1-1.2h.1v-.8l.2-.4c0-.2 0-.3.1-.5 0 .2-.1.4-.2.4.1-.8.4-1.9.5-2 0-.6.1-1.3.1-1.9 0 0 0 .4.1.6-.1-1 .2-.2.1-1.1 0 .1-.1-.1-.1-.1.1-.5.1-1.5.1-2.3l.1.2c0-1.4-.1-3-.4-4.6 0 .6-.1.5-.2 0l.1-.2c-.1-.3 0 .5-.2-.1-.1-.6.1-.4.2-.1l-.2-.7s.1.1.1.2c-.1-.3-.1-1.3-.3-1.7-.1-.4-.2-.7-.2-1-.1-.3-.2-.6-.2-.8-.1-.5-.3-1-.5-1.6-.1 0-.2-.5-.5-.8-.2-.5-.3-.9-.5-1.4l-.6-1.5c-.4-.7-.2-.2-.4-.5.1-.1-.5-1.1-.1-.6-.7-1.2-.9-1.6-1.9-3 .1.2.2.4.1.3-.2-.3-.4-.6-.3-.6l.1.1c-.6-.8-1.2-1.7-1.9-2.6-.3-.4-.6-.9-1-1.2-.3-.4-.7-.7-1-.9l.1.1c-.4-.4-.8-.7-1.3-1-.5-.5.4.2 0-.2-1.4-1-2.1-1.8-3.4-2.6-.2-.2-.5-.5-.8-.7-.4-.3-.8-.5-1.3-.8-.5-.3-.9-.5-1.4-.8-.4-.2-.9-.5-1.2-.7v.1c-.4-.1-.4-.3-.7-.4 0 .1.4.2.1.2-3-1.3-6.4-2.5-9.8-3-1.2-.2-.7.3-2.3 0l.5-.1c-2.5 0-5.2-.1-7.6.4.1-.1.1-.1.4-.1-.5-.1-1.9.3-1.9.4-.4.1-.1-.1-.3-.1-.5.1-1.3.4-1.5.4-.1 0 .1-.1.2-.1-.3.1-1.5.4-1.2.4-.2 0-.4.1-.7.2-.2.1-.4.1-.6.2-.4.1-.8.3-1.1.4-.4.3-1.5.5-1.6.8 0-.2-1.6.5-2 .9.1-.1-.5.2-.3 0-.6.3-1.1.7-1 .7-.3.1-.6.2-.8.4-.3.2-.5.3-.7.5-.4.3-.8.6-1.2.7-1.6 1.2-2.9 2.4-4.2 3.7 0-.1.3-.4.6-.8.3-.3.7-.6.6-.7-.2.1-.3.3-.4.4l-.4.4c-.2.3-.5.5-.7.8-.4.5-.9 1-1.4 1.6-.3.3.1-.2.2-.4-1.1 1.3-2.1 2.5-2.9 3.8 0 0 .1-.2.1-.3-.2.2-.4.6-.3.6l.1-.3c.4-.3-.4 1.1-.4 1.2 0-.3-.2 0-.4.3s-.4.5-.3.1c-.1.2-.2.4-.1.4-.2.2-.2.3-.1 0-.5.9-.2.7-.7 1.5v-.3c-.1.5-.3.9-.7 1.7 0-.1-.1 0 0-.2-.1.3-.3.6-.4.9l-.3.9-.3.9c-.1.3-.2.6-.4 1 0-.5-.2.5-.4.5l-.2.8.2-.3c-.1.3-.2.7-.2 1-.1.3-.1.6-.2.9l.1-.5-.3 1.3.2-.7c-.1.7.2 0 0 .9 0-.2-.1.7-.3 1 0 .4 0 .7-.1 1.2-.1.1-.2-.1-.2 0v2.1c0-.1-.1-.2-.1-.1l.1.3c-.1.3-.1.4-.1.3 0 1 .2-.3.1.9v-.2c-.1 1.2.1 2.3.1 3.4-.1.3-.1-.9-.2-.6.1 1.6.5 3.2.7 4.7v-.3c.1.1.2.4.2.7 0 .4.1.8.2 1.1-.1-.2-.2-.2-.1-.2.2 1 .6 2.1 1.2 3.5l-.1-.2c.2.6.5 1.5.8 2.1.1.2.3.5.3.3.3 1 .8 1.9 1.3 2.7.5.8 1 1.5 1.4 2.4-.1-.2-.3-.4-.2-.3l.2.3.1.2-.1.3-.1.4c.1-.1.1-.2.3-.5 0 .2-.1.6-.2 1 .1-.7-.2 0-.3.2 0 0 0 .1.1.1-.4.7.2.2-.2 1.2v-.1c-.1.4-.1.8-.2 1.2-.2.1.1-.4 0-.5-.2.6-.1 1.2-.4 1.7 0-.3.1-.6.2-.9-.3.6-.3.6-.4 1.1l-.3 1 .1-.2c.1.8-.4 1.5-.5 2.6.1-1-.1-.2-.2-.3.1-.6 0-.3 0-.4 0 .5-.3.8-.3 1.5 0 0-.1.5-.2.4-.1.6.1-.1.1-.1 0 .1 0 .2-.1.4 0 .1-.1.3-.1.5-.1.3-.2.7-.4 1.2.4-.1.9-.2 1.5-.3.1 0 .2-.1.3-.1l.3-.1c.2-.1.4-.1.5-.2 1.2-.4 1.4-.6 2.4-.9.4 0-.3.2-.3.2.6-.1 1.1-.2 1.6-.4-.1.1 0 .1.2.1.5-.1.3-.2.9-.3-.1.1-.2.2-.4.3.5-.2 1-.4 1.6-.6.2 0-.3.2-.5.3.6-.2 1.6-.5 1.8-.6l-.4.1c.2-.1.1.1 0 .1-.5.2-.8.2-.8.1l.4-.1c-.5-.1-1.6.5-2.4.6l.3-.3-.8.4c-.2 0-.3-.1.1-.2-.6.1-.5.2-1 .2-.1 0 0 0 0 0l-.5.2c.1-.1-.1-.1.2-.2-1 .2-1.6.5-2 .5h.1c-1.4.4-.1.2-1.1.6l-.4-.1c-.1 0-.2-.1-.3-.1 0 .1-.1.1-.2.2-.1 0-.4.1-.3 0-.3.1-.3.1-.2.1 0 0 .1 0-.1.1.2-.4.3-.8.4-1.2.1-.4.2-.7.3-.8 0-.3-.3.6-.1-.1.3-.1.2-.9.5-1.5.1.2-.2.8.1.2-.1-.4.4-1.2.5-1.7-.1-.1.3-1.2.4-2.1 0 .1.5-1.6.8-2.5-.1-.2.2-1 .3-1.7.1 0 .1.2 0 .5l.2-.6v-.3c0-.1 0-.2.1-.5 0 .1 0 .1.1.2l.1-.4c-.1-.1-.1-.2-.2-.3-.1-.1-.1-.2-.2-.2-.1-.1-.2-.3-.3-.5-.2-.3-.4-.7-.6-1.1-.1 0 .2.9-.5 0 0-.1.1-.1.3.1-.1-.1-.2-.3-.3-.4l.3.3c-.2-.4-.2-.2-.4-.5.1 0-.1-.3 0-.3.1.1.1.3.2.4-.2-.4-.4-.8-.4-1 0 .1-.1.1-.3-.2-.4-.7 0-.3-.2-.7-.1-.1-.3-.6-.4-.6-.1-.2-.1-.3-.1-.4l-.5-1c-.2-.3-.3-.6-.2-.3-.6-1.2-.9-2.7-1.3-4l-.3-1.2c-.1-.4-.2-.8-.3-1.1v-.5c-.1-.6-.2-.7-.2-1.5.1.6 0-.2.1.6-.1-.8 0-1-.2-1.8.1.3.1-.6 0-1v.6c0-.4-.1-.8-.1-1.2l.1.2v-1.2c0-.4 0-.7-.1-1.1a4 4 0 0 1 .2-1.9c-.1-.4-.1.9-.2.5 0-.4.1-.7.2-1.1.1-.3.2-.6.2-.7.2-1-.1-1 .2-2-.1.1-.2.2-.1-.6.2-.7.4-.9.3-.4 0 .2-.1.3-.1.2 0 .2-.1.6 0 .3v-.1c.1-.4.4-1.4.4-1.1.1-.6 0-.3-.1.1.1-.5.2-.8.3-1.2.1-.4.2-.7.4-1.2-.1.1-.2.3-.1.1.5-1.3.1-.6.4-1.6.3-.5.1.3.4-.7.3-.5.2-.1.1.2.2-.9.7-1.5.9-2v.9c.1-.3.2-.5.3-.7l-.2.2c.1-.2.2-.4.3-.4.1-.3-.3.1-.1-.4.2-.3.5-1 .7-1.1-.6 1 .2-.1-.3.8l.3-.6v.1c.7-.9.1-.5.7-1.5 0 .2.3-.1.4-.3-.3.4-.2.1 0-.3.4-.6.4-.7.6-1l-.3.3c0-.2.2-.5.5-.9.1 0-.2.4-.1.3.2-.6.9-1 1.3-1.6.3-.3.1.1.4-.2.5-.7.7-.7 1.3-1.4-.3.2-.3.2.1-.3l-.5.6-.5.6c.2-.3.4-.6.6-.8-.3.3-.6.8-.8 1 .2-.4.2-.4 0-.2.3-.2.5-.5.7-.7.2-.3.4-.5.7-.8l.2.2c.9-.7 1.3-1.5 2.5-2.4l-.4.3c0-.1.2-.3.4-.4.2-.2.4-.3.6-.5 0 .1.3-.1.5-.1-.1 0 .8-.6.9-.8l.6-.3c.5-.3.7-.5 1-.8.2-.2.5-.5 1-.7-.2.2.2 0-.4.5.3-.2.6-.3.6-.4.1 0 .3-.2.5-.3.2-.2.5-.3.7-.3.1-.1.1-.2.5-.4 0 0 .6-.3.2-.3 1.2-.3 3-1.3 4-1.4.4-.2.8-.3 1.2-.4.4-.1.8-.3 1.2-.3l-.1.1c1-.1.6-.4 1.7-.5.6 0-.6.2-.2.2.1.1.5.1.9 0 .2 0 .4-.1.7-.1h.7-.2c.3 0 .7-.1 1.1-.2.4-.1.9-.1 1.4-.2.3-.1.8-.2 1.3-.2.3 0 .5 0 .8-.1h.8c-.3.1-.4 0-.3.2.4 0-.1-.2.7-.2.3.1.9.2 1 .3h-.8c.4.2 1 .1 1.4.1L84 35h1.2c.3 0 .7 0 1.3.1l-.1-.1c.7 0 .6.2 1.3.2l.2.2c.2 0 .6.1 1.1.1.5.1 1 .2 1.4.3-.3 0-.6-.1-1-.1-.4-.1-.8-.1-1.1-.1.2 0 .6.1 1 .2s.7.2.8.1c-.2 0-.4-.1-.6-.1.6 0 1.3.2 2.2.5-.3.2 2.3.9 2.8 1.4 1.6.6 2.9 1.5 4.5 2.5-.4-.6.5.3.5 0 .4.2.5.3.5.4.3.3.7.6 1 .9.2.3-.4-.2-.4-.1.8.6.3.3.7.8 0-.2.4.1.8.5-.2-.2-.3-.4-.5-.6.6.4.8.6.9.9.2.2.4.5.9.9l-.4-.2c.3.2.8.7 1.2 1.1.5.5.9.9 1.2 1.1.1.1.1.3-.1.1 1.1 1.3 2.5 2.8 3.1 4l-.1-.1c.2.3.4.4.6.8 0 0-.1-.1 0 .1.1.1.5.7.7 1l-.2-.3c.2.4.4.7.5 1 .2.3.3.6.5.8.3.5.6 1 .9 1.6-.2.1.2 1.3.4 1.9.6 1.8 1.1 3.1 1.5 4.8 0 .3 0 .7.1 1.1 0 .4.1.9.2 1.4.1 1 .2 2.1.1 3 0-.3.1 0 .2.4 0 .4.1 1.2-.1 1.1v-.1c-.2.3-.1 1.2-.2 1.8l.2.1c-.1.2-.1.4-.1.7 0 .2-.1.5-.1.8-.1.5-.1 1.1-.2 1.6-.1 1-.3 2-.6 2.4 0 .4-.2.9-.3 1.3l-.1-.1c-.2.6-.3 1-.5 1.4-.1.4-.3.9-.6 1.6v-.3c-.3.7-.1 1.1-.4 1.8l-.3.1c-.6 1.3-1.4 2.5-2.1 3.7 0 0 0-.1.1-.3-.3.6-1.6 2.1-1.2 2-.1-.1-.9 1.2-1.3 1.8v-.2c-.3.6-.3.6-.9 1.3-.2.1-.2.1 0-.1-.5.5-.3.5-1 1.1l.2-.3c-.5.5-.5.5-.7.8-.2.2-.4.4-.7.6-.2.2-.5.3-.6.3 0 .1-.3.4-.6.7-.1 0 0-.1.1-.2-1 .7-1.4 1.2-2.1 1.6h-.2c.4-.3.8-.5 1-.7.2-.2.4-.3.4-.3-.1-.1-.7.4-.3-.1-.2.2-.5.5-.9.8a7 7 0 0 1-1 .8h-.1l.1-.1c-.2.1-.3.2-.4.3l-.6.3c-.1 0-.8.4-1.2.6.1.1-.4.3.1.2-.1 0 .1-.1.3-.2l.1-.1c.2-.1.5-.3.8-.5-.2.2-.5.4-.9.6-.1.2-.3.3-.4.4-.6.1-1.5.5-1.7.5-1.1.6-2.6 1.2-3.2 1.6-.3.1-.4.1-.5.1.2-.1.4-.2.5-.2-.3.1-.8.3-1.2.5 0 0-.4.2-.4.3-.9.2.4-.3-.7.1l.1-.1c-.6.1-1.1.2-1.6.3-.5.1-1 .2-1.4.4-1 .2-2 .4-3.3.4h.3c-2.9.1-6.1.1-9-.7-.8-.2-.9-.1-1.4-.2l-.1-.2c-.3 0-.6 0-.9-.1-1.2-.2-1.9-.9-3.4-1.3l.2.2c-.5-.2-1.6-.7-1.5-.7-.1 0-.2 0-.4-.1v-.1c-.4-.2-.9-.3-1.3-.5-.9-.5.3-.1-1.1-.9-.5-.4-1.5-.8-1.4-.6.2.1.5.3.5.4l-.5-.2c-.2.1-.6.1.4.9l.9.4.2.2-.7-.4c.3.3.6.4.9.5 0 .1.1.2.3.3l.9.3c.1.1-.4 0 .1.3.4.1-.3-.3.4-.1.4.3.2.3.7.4 0 .1-.1.1-.3 0 .4.1 1.1.5 1.4.5.4.3 1.5.5 1.4.7.2 0 .8.1 1.2.3-.4 0 0 .1.4.3.4.1 1 .3.8.4.6 0 2 .4 3.1.5h-.3c.6.1.7.2 1.1.3 0-.1.3-.1.6-.1h.9c.7.2-.4.1-.2.3 0-.1.3-.1.6-.1s.5 0 .4-.1c.5.1.5.1.7.2.1-.2.5 0 .9-.1.8.1.2.2 1 .2.5-.2-.3-.2-.3-.2m19-5.9c-.1.1-.3.2-.3.2.1 0 .2-.1.3-.2m1.4-.9c-.2.1-.4.3-.6.4-.1 0 0-.1.1-.2 0 .1.3-.1.5-.2m-3.4 1.2c.2-.1.3-.2.3-.2 0 .1-.2.2-.3.2 0 .1-.1.1-.1.1.1 0 .1-.1.1-.1"/><path class="st9" d="M97.3 96.1s-.1 0 0 0c-.1 0 0 0 0 0 .1 0 .1 0 .1-.1 0 0-.1 0-.1.1m33.4-41.2h-.1v.2zm-77.5 33l-.1.1s0-.1.1-.1m-1.1 3.8l-.2.5c.1-.2.1-.4.2-.5m-.9 2.9c0 .1 0 .1 0 0 0 .1.1.1 0 0zm2.2-46s0-.1.1-.1c.1-.3 0-.1-.1.1m-5.2 13.5v-.5.5m17.3-24.4c.1 0 .1 0 0 0zM48.4 60.9c-.1.3-.1.5-.1.7 0-.2 0-.4.1-.7m11.1 35.7h.1-.1zm.1 0l.2-.1c-.1 0-.1.1-.2.1m.5-.2l-.3.1c.1 0 .3 0 .3-.1m-11.4 3c.3-.1.7-.1 1.1-.2-.2.1-.9.1-1.1.2m56.7 96l-.2.7c.1-.2.2-.4.2-.1.1-.2.1-.3.1-.3-.2.1-.3.2-.1-.3m.9-3.1c-.1.6 0 .1 0 0 .1-.3.1-.3 0 0m-3.3-21.7h.1c0-.4 0 0-.1 0m-.9-4.3l-.1.4.1.2v-.6m.8-2.6v-.5.5zm21.6-29l-.2-.1c-.3.2-.3.3.2.1m16.3-1.6c.2.1.6.2.9.2-.3-.1-.7-.2-.9-.2M113.7 71v-.3.6-.3zm-72.9 36.8c-.1.1 0 .1.3 0l.2-.2-.5.2zm2.6-.4c.4-.2.9-.4.6-.5-.4.2-.5.2-1 .5-.4.1-.7.1-.6.1-.1.1-.6.1-.8.3.6-.1 1.2-.3 1.8-.4.2-.1 0-.1 0 0m37.2.2h-.2.2m22.8-6.7c-.2.1-.2.2-.2.2l.2-.2m3.4-2.3c-.1.1-.1.1-.2.1.1 0 .2 0 .2-.1m-58.3 7.1c-.1 0-.2.1-.3.1.1 0 .2 0 .3-.1m21.6.5l-.2-.1h-.2c.2 0 .3 0 .4.1m-7.5-3c.2.1.3 0 .4 0-.1 0-.2 0-.4-.1-.1 0-.1 0 0 .1m-12.2 2.5l-.2.1s.1-.1.2-.1m25.4 1.7c.1 0 .1 0 0 0 .1 0 .1 0 0 0m-31.9-8.2s0 .1 0 0m-3.1 8.9v-.1h-.1l.1.1zm71.5-14.7c-.2.2-.1.1 0 0m-10.1-60.3c.3.3 0 .1-.2 0s-.5-.2 0 .2c-.1-.1 1 .4.2-.2m-53.5 72.6c.1 0 .2-.1.3-.1-.1 0-.2 0-.3.1M102 33.3c.1 0 0 0 0 0m18.2 44.8s-.1.1-.1.2c.1-.1.1-.1.1-.2m-5.5 11.6l.2-.3c0 .2-.1.2-.2.3m6.6-18.3v-.5.5m0-6.9v.3-.3zM43.4 79.1v.3c.1-.1.4.8 0-.3m5.1 26.7s.1-.1.2-.1c-.1 0-.2 0-.2.1m71.9-34.7l.1-1.1c-.1.3-.1.7-.1 1.1M58.2 35.6l-.2.2c.1-.1.1-.2.2-.2m62.3 31.2c0-.2.1-.4.1-.6v-.1l-.1.7zM43.4 79.4"/><path class="st9" d="M46.4 85.9c-.5-.9-.4-.4-.5-.5-.6-1.1-.1-.6-.3-1-.4-.7-.7-1.2-1-1.7 0 0 0-.2.1 0-.4-.7-.9-2.2-1.3-3.1v-.1c0 .2-.1.2-.2.2-.2-.4-.4-.8-.3-1 .1.3.1.3.2.4l-.1-.5c0-.5.2.6.3.6-.2-.4-.3-.9-.5-1.4-.1-.5-.3-.9-.3-1.3.1-.2.5 1.6.3.7.1.4.1.7.2 1.1 0-.9.2.7.2-.2-.3-1.4-.5-1.6-.8-3-.1-.3-.1.1-.2-.2-.3-1-.2-1.4-.2-1.8 0-.4.1-.6-.1-1.4-.1-.4-.3-.5-.3-1.6l.2.4c0-.7-.1-.9-.2-1.1-.1-.2-.1-.4-.1-1.2.1.3.1 1.1.1.9.1-1-.1-.7-.1-1.4l.1-.2c0-1.5 0-3.2.2-4.9 0 .1 0 .4.1 0 .2-2.1.8-4.5 1.5-6.4 0-.3.1-.5.1-.8.1-.2.2-.3.1-.1.3-.7-.1-.1 0-.4.1-.4.3-.5.2-.3.1-.3.2-.8.4-1.2.2-.4.3-.9.5-1.4.2-.5.4-.9.6-1.4.2-.4.4-.8.6-1.1l.1.2c.6-1 .4-1.3 1-2.2l-.1.2c1.3-2.2 2.9-4.5 4.3-5.8.1-.2.5-.7.9-1.1.4-.4.8-.8.8-1 .5-.5.8-.6 1-.8.3-.2.6-.5 1.4-1.1.4-.3.5-.7 1-1.1l.1.1.6-.7.5-.2c.2-.1.3-.3.5-.4-.2.1-.5.3-.5.2.4-.3.9-.6 1.3-.9.4-.3.8-.4.8-.4l1.9-1.3c0 .1-.3.3-.6.5 1-.7.3 0 1.2-.7-.1 0 0-.1 0-.1.3-.1.7-.3 1.1-.5.5-.2 1-.5 1.4-.7l-.1.3c1.6-.7 3.3-1.4 5.2-2-.3.1-.5.1-.5 0s.2-.2.4-.2l.3.1c.3-.2-.6.1.1-.2.7-.2.5 0 .1.2l.8-.3c.1 0-.1.1-.2.2.3-.2 1.5-.2 2-.5h.1c.9-.2 1.6-.3 2.3-.5l2-.3c0-.1.6-.1 1.1-.3H82c1 0 .3-.1.7-.2.1.1 1.5.2.7.2 1.7.1 2.1.1 4.2.4-.2-.1-.5-.1-.3-.2.4 0 .9.2.8.2H88c.3 0 .6.1.9.1.3.1.6.1.9.2.3.1.6.2 1 .3l.9.3 1.8.6c.3.1.6.2.8.3.3.1.5.2.7.2h-.1c.6.2 1.3.4 1.9.6.8.4-.5-.1.1.2 2 .7 3 1.5 4.6 2.2.5.5 1.5 1.1 2.5 1.8.5.3 1 .7 1.5 1.1.5.4.9.7 1.2 1.1v-.1c.4.2.4.4.7.6 0-.1-.3-.4-.1-.2 1.5 1.3 2.9 2.8 4.2 4.4 1.3 1.6 2.4 3.4 3.4 5.1.4.6.5.8.7 1 .1.1.2.2.3.4.1.2.2.5.4.9l-.4-.4c1.5 2.6 2.5 5.6 3.4 8.4l-.2-.4c.1.6.5 2.2.6 2.2.1.5-.1.1 0 .4 0 .6.4 1.5.3 1.9 0 .1-.1-.2-.1-.3.1.4.2 1.9.3 1.5 0 .6.1 1.1.1 1.6.1.5.1 1 .1 1.4.1.3.1.8.1 1.2 0 .4 0 .8.1.9-.1 0-.1.4-.2 1 0 .6-.1 1.3 0 1.6 0-.2-.1.6-.2.3-.1.8-.1 1.5 0 1.4-.1.4-.2.7-.2 1.1-.1.4-.1.7-.1 1 0 .3-.1.6-.1.9-.1.3-.2.5-.3.7-.4 2.3-1 4.4-1.8 6.4-.1-.1.9-2.2.6-2.2-.1.5-.3.9-.4 1.3-.1.4-.2.8-.4 1.2-.3.7-.6 1.5-1.1 2.4-.3.5.1-.3.1-.5-.8 1.9-1.9 3.4-2.8 5 0 0 .1-.2.2-.3-.2.3-.5.7-.4.7l.2-.3c.4-.4-.6 1.3-.6 1.4.2-.6-1.2 1.4-.8.4-.1.2-.3.4-.2.4-.2.3-.3.3-.2 0-.4.5-.5.7-.6.9-.1.2-.2.3-.6.7 0 0 .1-.2.2-.3-.2.2-.3.5-.5.8-.2.3-.5.6-.8.9 0-.1-.1 0 .1-.2-1.1 1.2-1.9 2.2-3.4 3.3.3-.5-.5.3-.7.3l-.7.6.4-.2c-.7.5-1.3 1-1.9 1.4l.5-.4c-.4.3-.9.6-1.3.9l.8-.4c-.7.5.2.1-.8.7.2-.1-.7.5-1.2.6-.3.3-.7.5-1.3.8-.2 0 0-.2-.1-.2-.3.3-1.8 1-2.2 1.3.1-.1.1-.2.1-.2l-.3.2-.4.1c-1.1.5.4 0-.9.5.1 0 0 0 .3-.1-.7.2-1.3.5-2 .8-.6.2-1.3.5-1.9.6-.2 0 .1-.1.3-.2.3-.1.5-.2.3-.2-1.8.6-3.8 1.3-5.6 1.5h.3c-.1.1-.5.2-.9.2s-1 0-1.4.1c.2 0 .3-.2.2-.1-.6.1-1.3.1-2 .2s-1.5.1-2.5.2l.2-.1c-.7 0-2 0-2.8-.1-.2.1-.7 0-.4.1-1.2-.2-2.4-.4-3.6-.5-1.1-.1-2.3-.3-3.3-.7.3.1.6.1.4 0-.6-.1-1.2-.3-1.8-.4.1.1.2.1.6.3-.2 0-.8-.1-1.2-.2.8.2 0-.2-.3-.3 0 0-.1 0-.1.1-.9-.5-.2.1-1.5-.4h.1c-.5-.2-.9-.2-1.4-.5-.2-.2.5.2.6.1-.7-.3-1.5-.4-2.1-.7.3.1.7.3 1 .4-.6-.4-.7-.4-1.2-.7-.4-.2-.8-.4-1.1-.6l.3.2c-.3 0-.6-.1-.9-.3-.1-.1-.3-.1-.4-.2-.2-.1-.3-.2-.5-.3-.1 0-.2.1-.3.1-.1 0-.2.1-.3.1-.2.1-.4.1-.6.2 1.2-.5.2-.2.2-.3-.3 0-.8.1-.7.1-.6.3-1 .2-1.8.5 0 0-.6.2-.5 0-.8.2.2 0 .1.1-1.1.4-2.8.6-4.5 1.2-1.4.5-1.7.7-3 1.1-.5.1.3-.2.3-.2-.8.1-1.3.3-2 .5.1-.1 0-.1-.2-.1-.6.2-.3.2-1.1.4.1-.1.3-.2.5-.3-.7.2-1.3.5-2 .7-.2 0 .4-.2.6-.3-.8.2-2 .6-2.2.8l.5-.1c-.3.1-.2-.1 0-.1.6-.3 1-.2 1-.2l-.5.2c.6.1 1.9-.5 2.9-.8l-.4.3 1-.4c.2 0 .4 0-.1.2.7-.1.6-.2 1.2-.3.1 0 0 0 0 0l.7-.2c-.1.1.1.1-.3.2 1.3-.2 2-.6 2.4-.6h-.1c1.7-.5.1-.2 1.4-.7l.9.1.1-.2c.2 0 .5-.1.5-.1.6-.3-.1 0 .2-.2.9-.1 2.3-.7 2.6-.5.3-.2-.8.1.1-.2.3.1 1-.3 1.8-.4-.2.2-1 .3-.2.2.1-.1.4-.2.7-.2.1 0 .3-.1.4-.1h.3l.1.1h.1c.1.1.2.1.3.1.1-.1 1.3.6 2.4 1-.1 0 1.9.9 2.9 1.3.2-.1 1.3.3 2 .5-.1.1-.2.1-.6 0l.7.2c.2 0 .4 0 .9.1l-.2.1c1 .3 2 .4 3.2.7.1-.1-.9-.5.4-.3 0 .1.1.2-.3.1.1 0 .4 0 .6.1h-.5c.6.1.3 0 .8.1 0 .1.3.1.3.2-.1 0-.4-.1-.6-.1.5.1 1.1.2 1.3.3 0-.1 0-.1.4-.1 1 .1.3.1.9.2.2 0 .9.1.9 0 .3 0 .3.1.5.1h1.3c.5 0 .8 0 .5-.1h-.1.1c.8 0 1.7-.1 2.6 0h1.3c.4 0 .9 0 1.3-.1.5-.1 1-.2 1.6-.2.5-.1 1-.2 1.3-.3.3-.1.7 0 .6 0 .7-.2.8-.3 1.9-.4-.7.2.3 0-.8.2.5-.1.8-.1 1.1-.2.3-.1.6-.2 1.1-.4-.3.2.8-.1 1.2-.3-.2.1-.5.1-.7.1.5-.2.9-.3 1.4-.5l-.2.2c1-.2 1.8-.7 2.6-1 .8-.4 1.5-.8 2.2-1 .2-.2 0-.1-.3.1-.3.1-.5.2-.3 0 .9-.4 1.8-.7 2.1-.8.6-.3.8-.5 1.1-.7.2-.2.5-.4 1.1-.7-.2.1-.4 0 .4-.6.8-.5 1.1-.5.6-.1-.2.1-.3.2-.3.2-.2.2-.6.4-.2.3l.1-.1c.4-.2 1.5-.9 1.3-.7.6-.5.2-.2-.2 0 .5-.3.9-.6 1.3-.9.4-.3.7-.6 1.3-1-.2.1-.4.2-.2 0 1.4-1.1.6-.6 1.5-1.4.6-.4 0 .3.8-.6.6-.5.2 0 0 .2l1.1-1.1c.3-.3.7-.6.9-.8l-.4.5c.2-.3.4-.5.6-.7l-.3.2c.3-.2.5-.5.5-.4.2-.3-.3.1.1-.5.3-.3.9-1.1 1.1-1.1-1 1.1.2 0-.6.9.1-.2.3-.4.6-.7 0 0 0 .1-.1.1 1-1 .3-.6 1.2-1.7 0 .2.3-.2.4-.4-.3.5-.3.2 0-.3.6-.7.6-.8.8-1.2-.1.2-.2.3-.3.4.1-.2.3-.6.6-1.1.1 0-.3.5-.1.3.1-.3.4-.7.7-1 .3-.4.5-.8.7-1.2.3-.4.1 0 .4-.3.4-1 .7-1 1.1-2.1-.2.3-.2.3 0-.5-.2.6-.5 1.2-.8 1.8.1-.4.3-.8.4-1.2-.3.5-.5 1.1-.7 1.4.2-.6.2-.5 0-.3.3-.3.4-.7.6-1.1.1-.4.3-.8.5-1.2l.2.1c.4-.6.5-1.2.8-1.8.2-.6.4-1.3.7-2.2l-.2.5c0-.3.4-1.1.5-1.6.1.1.2-.3.3-.5 0 0 .1-.3.1-.7.1-.3.1-.7.1-.8l.3-.8c.2-.7.2-1.1.2-1.5 0-.4 0-.8.1-1.5 0 .4.2-.2.1.7.1-.5.1-.9.1-.9.1-.3.1-1.3.2-1.7 0-.2-.1-.3-.1-.8 0-.1 0 0 0 0s0-.8-.1-.4c.1-.4.1-.8.2-1.2 0-.5.1-1 0-1.5v-2.6c-.1-1-.3-2.2-.4-3.2 0 .1 0 0 .1.2-.1-1.3-.4-.7-.5-2.2 0-.8.2.7.2.3.1-.1 0-.6-.1-1.1-.1-.3-.1-.5-.2-.8-.1-.3-.1-.6-.2-.8l.1.2c-.1-.4-.2-.8-.4-1.3s-.4-1-.6-1.6c-.4-.7-1-2.2-1.6-3.3.2.3.3.5.3.2-.2-.5-.1.2-.6-.7-.1-.3-.4-1-.3-1.2l.5.9c-.1-.5-.6-1.1-.8-1.6h.1c-.8-1.3-.9-1.3-1.8-2.7v.2c-.6-.7-.3-.7-.9-1.3v-.3c-.2-.2-.5-.6-.9-1.1-.4-.4-.8-.9-1.1-1.3.2.2.6.5.9.9.3.4.7.7.9 1-.3-.5-1.2-1.6-1.5-1.8.2.2.4.4.5.6l-2-2c.2 0-.3-.6-.9-1.3-.3-.3-.6-.7-.9-1-.3-.3-.5-.6-.6-.8-1.6-1.3-3.1-2.7-5.1-4 .6.7-.6-.4-.6-.1-.5-.3-.7-.4-.7-.4-.5-.3-.9-.7-1.4-1-.3-.3.5.2.5.1-1.1-.6-.4-.4-1.1-.8.1.2-.4-.1-1.1-.4l.8.6c-1.6-.7-1.2-.9-2.9-1.4l.5.1c-.8-.4-3.1-1.2-4-1.3-.1-.1-.3-.2.1-.1-2-.7-4.6-1-6.3-1.4h.2c-.4-.1-.7 0-1.2-.1 0 0 .2 0 0-.1-.2 0-1.1 0-1.6-.1h.5c-1-.1-1.8-.2-2.6-.1-.4 0-.7 0-1.1.1-.4 0-.8.1-1.2.1 0-.1-.4-.1-.9-.2h-1.5c-.6 0-1.2.1-1.7.2l-1.5.3-1.5.3c-.5.1-1 .3-1.5.4-.4 0-.8.1-1.3.3-.5.1-1.1.3-1.7.5-.6.2-1.2.4-1.9.6-.6.2-1.2.4-1.7.7.3-.1 0 .2-.3.3l-.8.4c-.2.1-.4.2-.4.1l.2-.1c-.2 0-.6.2-.9.3l-.6.3-.6.3v.3c-.5.2-1.1.5-1.7.8-.6.3-1.1.7-1.7 1.1-1.1.8-2 1.6-2.5 1.8-.4.4-.9.8-1.2 1.2l-.1-.1c-1.1 1-1.7 1.5-2.9 2.8l.2-.3c-.7.7-.6 1.2-1.2 1.9-.2.8-.3.8-.4.8-1.1 1.4-2.3 2.8-3.1 4.4 0 0 0-.1.1-.4-.1.2-.3.4-.5.7-.2.3-.4.6-.5.9-.3.6-.6 1.1-.4 1-.1-.1-.9 1.6-1.2 2.5v-.2c-.2.8-.2.8-.6 1.9-.1.2-.2.2 0-.1-.4.8-.2.7-.6 1.7l.1-.4c-.3.9-.2.8-.3 1.3-.1.6-.5 1.7-.7 1.8 0 .1 0 .6-.2 1.2-.1.1 0-.1 0-.2-.4 1.5-.3 2.3-.6 3.3 0 0-.1.1-.1.2.2-1.2.4-2.2.4-2.1-.1 0-.3 1-.3.1 0 .4-.1.9-.1 1.5-.1.6-.1 1.1-.2 1.6 0 0 0 .1-.1.1v-.1c0 .2-.1.4-.1.6-.1.3-.1.5-.1.8-.1.1-.2 1.1-.2 1.6.1 0 .1.6.2 0v-.6c0-.3.1-.7.1-1.2 0 .4.1.8-.1 1.3.1.3.1.5.2.7-.2.7-.3 2-.4 2.2.1 1.5.2 3.6.6 4.5.1.4 0 .5 0 .7-.1-.2-.1-.5-.1-.7.1.4.2 1 .3 1.6.1.5.2 1 .3 1.1.2 1.1-.3-.6.1.9l-.1-.2c.2 1.5.6 2.6 1.1 3.7.5 1.1 1 2.3 1.5 3.8-.1-.2-.1-.3-.1-.4.3.8.6 1.5 1 2.2.2.4.4.7.6 1.1l.6 1c-.1.5-.3 1-.4 1.4-.1.5-.3 1-.4 1.5l-.9 3c-.3 1-.2 1.1-.3 1.7l-.4.3-.1 1.1c-.3 1.5-1 2.5-1.3 4.4l.1-.2c-.2.7-.5 2.1-.6 2 0 .1 0 .2-.1.5h-.1l-.3 1.7c-.4 1.3-.2-.3-.7 1.6-.2.7-.3 2-.2 1.8.1-.3.2-.7.3-.7l-.1.6c.2.2.2.7.8-.8l.2-1.1.2-.3-.2.9c.2-.5.2-.8.3-1.2.1-.1.1-.2.2-.4l.1-1.1c.1-.1 0 .5.3-.2.1-.5-.3.4-.1-.4.2-.5.3-.3.3-.9.1-.1.1.1 0 .3.1-.6.4-1.4.3-1.7.3-.5.5-1.8.6-1.7 0-.2.1-1 .2-1.5 0 1 .5-1.8.7-1.5 0-.7.6-2.4.8-3.6v.3c.2-.7.3-.8.5-1.3-.1-.1.1-1.2.2-1.8.4-.8.1.5.3.3-.1 0 .3-1.5.1-1.2.3-.6.2-.5.4-.8-.1-.1-.1-.1 0-.2V88c0-.1.1-.2.1-.3-.1-.1-.1-.3-.2-.4-.1-.1-.1-.2-.2-.2-.4-.9 0-.3-.5-1.2-.3-.8.1 0 .1 0m-4.6-23.4c0 .2 0 .4-.1.5.1-.1.1-.2.1-.5m.3-2c0 .2-.1.5-.2.9-.1.1-.1 0 0-.2 0 .1.2-.4.2-.7m-1.3 4.3c0-.3 0-.4.1-.5-.1.1-.1.3-.1.5m.1.6v-.2.2m31-56.8l-.1.1z"/><path class="st9" d="M69.2 105.3s-.1 0-.1-.1c0 .1.1.1.1.1m-4.5-1.7l-.6-.3.6.3m-3.6-1.1c-.1 0-.1 0 0 0zm52.8-13l.1-.1c.2-.3.1-.1-.1.1m-12.6 12.2c.2-.1.3-.2.5-.3-.3.1-.5.2-.5.3m19-30.5s.1 0 0 0v-.1.1zm-17.8 29.7c-.3.2-.5.3-.7.4.2-.1.5-.2.7-.4m-57.3 5.6H45h.2zm-.2.1l-.2.1c.1-.1.2-.1.2-.1m-.6.2l.4-.1c-.1 0-.3 0-.4.1m14.2-3.8c-.4.1-.9.1-1.4.3.2 0 1.1-.1 1.4-.3m50.7 105.8l-1.2.3c.2 0 .5 0 0 .1 1.5-.3-.4 0 1.2-.4m3.8-1c-.6.2.1.1 0 0 .1.1.2 0 .2 0h-.2m27.6 3.9v.1c.5-.1 0 0 0-.1m5.1-2l-.5.1-.2.2zm3.3-.4l-.2.1.8-.4zm23.9-38.7l-.1.2c0 .3.2.4.1-.2m-6.3-19.6c-.1-.2-.3-.7-.6-1 .3.4.5.8.6 1M60.3 33l.3-.2c-.2.1-.4.3-.7.4.2-.1.3-.1.4-.2"/><defs><path id="SVGID_9_" d="M67 49.2c-.7 0-1.7.2-2.7 1.2-.9 1-3.5 3.4-3.5 8.3s3.6 9.6 4.1 10.3c.5.7 6.9 11 17.1 15 8.4 3.3 10.2 2.7 12 2.5 1.8-.2 5.9-2.4 6.7-4.7.8-2.3.8-4.3.6-4.7-.2-.4-.9-.7-1.9-1.2-1-.5-5.9-2.9-6.8-3.2-.9-.3-1.6-.5-2.2.5-.7 1-2.6 3.2-3.2 3.9-.6.7-1.2.7-2.2.3-1-.5-4.2-1.5-8-4.9-3-2.6-5-5.9-5.6-6.9-.6-1-.1-1.5.4-2 .4-.4 1-1.2 1.5-1.7.5-.6.7-1 1-1.7.3-.7.2-1.2-.1-1.7-.2-.5-2.2-5.4-3.1-7.4-.7-1.7-1.5-1.7-2.2-1.7h-1.6c-.1-.2-.2-.2-.3-.2"/></defs><clipPath id="SVGID_10_"><use xlink:href="#SVGID_9_" overflow="visible"/></clipPath><g clip-path="url(#SVGID_10_)"><defs><path id="SVGID_11_" d="M40.2 27.3h81.2v80.9H40.2z"/></defs><clipPath id="SVGID_12_"><use xlink:href="#SVGID_11_" overflow="visible"/></clipPath><path d="M60.9 49.1v38.2-38.2zm0 0h6.8v38.2h-6.8z" clip-path="url(#SVGID_12_)" fill-rule="evenodd" clip-rule="evenodd" fill="#f9f9f9"/><path clip-path="url(#SVGID_12_)" fill-rule="evenodd" clip-rule="evenodd" fill="#fafafa" d="M67.6 49.1h6.8v38.2h-6.8z"/><path clip-path="url(#SVGID_12_)" fill-rule="evenodd" clip-rule="evenodd" fill="#fbfbfb" d="M74.4 49.1h6.8v38.2h-6.8z"/><path clip-path="url(#SVGID_12_)" fill-rule="evenodd" clip-rule="evenodd" fill="#fdfdfd" d="M81.1 49.1h6.8v38.2h-6.8z"/><path clip-path="url(#SVGID_12_)" fill-rule="evenodd" clip-rule="evenodd" fill="#fefefe" d="M87.9 49.1h6.8v38.2h-6.8z"/><path class="st16" d="M94.7 49.1h6.8v38.2h-6.8z"/><path class="st16" d="M101.4 49.1h.1v38.2h-.1z"/></g><defs><path id="SVGID_13_" d="M40.2 27.3h81.2v80.9H40.2z"/></defs><clipPath id="SVGID_14_"><use xlink:href="#SVGID_13_" overflow="visible"/></clipPath><path class="st17" d="M71.4 50.8c-.1 0-.1 0 0 .2l.2.1-.2-.3zm.3 1.3c.2.2.4.4.4.2l-.4-.4c-.1-.2-.1-.3 0-.3-.1 0-.1-.3-.2-.3 0 .2.1.5.2.8.1 0 0 0 0 0m1.5 16.5l-.1-.1c.1 0 .1 0 .1.1m8.8 7.6h-.1.1m1.7 1s-.1 0-.1-.1c0 .1.1.1.1.1m-10.5-8.6l.2.3c0-.1-.1-.2-.2-.3M73 54.3c0-.1-.1-.1-.1-.1l.1.1m-1.9 9.6c.1-.1.1-.2.1-.2-.1 0-.1.1-.1.2m2.4-3.1c0 .1 0 .2.1.2 0 0 0-.1-.1-.2.1 0 .1 0 0 0m-.6-5.5c-.1-.1 0 0 0 0m-1.1 11.4c0 .1 0 .1 0 0 0 .1 0 .1 0 0m-4.4-18.1s.1 0 0 0m3.7 2.3zm16.5 26.5c-.1.1 0 .1 0 0m3.9 8.8c.4.1-.6.1-.1.3 0-.1.6-.3.1-.3M73 54.4l.1.1-.1-.1m18.4 32c.1 0 .1 0 0 0m1.7-13s-.1-.1 0 0c-.1-.1-.1 0 0 0m-4.3 2.2l.1-.1-.1.1m7.2-1c.1 0 .1.1.2.1 0 0-.1 0-.2-.1m3.1 1.5c-.1 0-.1 0 0 0-.1-.1-.2-.1-.2-.1l.2.1zm-38.5-20c0-.1.1-.1.1-.1-.1 0 0-.5-.1.1m12.3-1.8c.1 0 .1.1 0 0 .1.1.1 0 0 0 .1 0 0 0 0 0m23.7 19.5l.5.2c-.2 0-.4-.1-.5-.2m-25.4 3.5c-.1-.1-.1 0 0 0m27.3-2.5l.2.2h.1l-.3-.2zM60.7 56z"/><path class="st17" d="M61.8 52.5c-.3.5 0 .3 0 .4-.3.6-.2.2-.4.4-.1.4-.1.7-.2 1 0 0-.1.1-.1 0 0 .4-.4 1.2-.3 1.7l-.1.1c.1-.1.2-.1.2 0-.1.2 0 .4-.1.5v-.2.2c-.2.2 0-.3-.1-.4v1.4c-.2.1 0-.9-.1-.4 0-.2.1-.4.1-.6-.3.4.1-.3-.2 0-.1.4-.1.6-.1.8v.8c.1.2.1-.1.2.1 0 .5 0 .7-.1.9-.1.2-.2.3 0 .7.1.2.3.2.3.8l-.2-.2c.1.7.3.4.4 1.1-.1-.1-.2-.5-.2-.4 0 .5.2.3.3.7l-.1.1c.2.7.6 1.5 1 2.3-.1 0-.2-.1-.1.1.5 1 1 2.1 1.4 3l.3.3v.1c.2.4.1 0 .2.1.1.2.1.3 0 .2.2.3.6.7.9 1 .3.4.6.8.7 1.1l-.1-.1c.3.5.6.4.8.9h-.2c.7 1 1.6 2.1 2.1 2.9.1 0 .3.3.5.5s.4.4.5.4c.4.6.2.5.8 1.3.2.2.4.2.6.4l-.1.1.4.2.1.3.2.2c0-.2-.1-.3-.1-.3.4.3.8.9.8.9.3.2.6.5.9.7-.1 0-.2-.1-.3-.2.6.3 0 .2.5.5 0-.1.1 0 .1 0 .1.1.2.3.4.5s.4.3.6.5h-.1c.3.3.7.6 1.1.8.4.3.8.5 1.2.8-.3-.2-.1-.3.1-.2v.2c.2 0-.2-.2.2-.1.3.2.1.3-.1.2.1.1.3.1.4.2h-.2c.2 0 .6.5.9.5.8.5 1.2.7 1.9 1 .1-.1.3.1.6.1.5.3 1.1.6 1.7.9.5.1.2 0 .4 0 0 .1.6.3.3.3.8.3 1 .4 2 .6-.1-.1-.2-.1-.1-.2.2 0 .4.2.3.2h-.1c1.2.2 2.5 1.2 3.5 1.2h-.1c.3.1.7.1 1 .1.4.1-.3 0 0 .2 1.1 0 1.7.3 2.6.3.3.2 1 .2 1.6.1.3 0 .6-.1.9-.1h.9l-.1-.1c.2-.1.3 0 .5-.1 0 0-.3 0-.1-.1 1-.4 1.9-.8 2.8-1.3.9-.5 1.8-1.1 2.6-2 .3-.3.3-.5.3-.6 0-.1 0-.2.1-.3.1-.1.1-.2.3-.5v.3c.1-.2.2-.4.2-.6l.2-.6c.1-.4.2-.8.3-1.1a6 6 0 0 0 .2-2.3c0 .1.1.1.1.2.1-.2.1-.5 0-.8 0-.1-.1-.3-.2-.4l-.2-.2c-.2-.3 0-.1-.1-.3-.3-.4-.8-.4-.9-.6h.2c-.2-.1-.8-.4-.7-.2-.5-.3-1-.4-1.3-.7-.3 0-.8-.5-1-.3.1-.2-.8-.6-1.1-.6.1 0-.2-.2-.1-.2-.4-.2-.7-.3-.7-.2-.6-.5-1.4-.5-1.6-.9-.6-.2-1.1-.4-1.6-.6-.6.2-.9.1-1.2.1-.3 0-.7.1-1 .3 0-.1.3-.3.7-.3.4 0 .7.1.7 0-.3-.1-.6-.1-.9 0-.3.1-.5.2-.7.4-.2.2-.3.4-.4.6-.1.2-.2.3-.4.5s0-.2 0-.2c-.5.8-1.2 1.5-1.7 2.2 0 0 0-.1.1-.2-.1.1-.3.3-.2.3l.1-.1c.3-.1-.2.7-.2.8 0-.4-.6.6-.5.1-.1.1-.1.2-.1.3-.1.1-.2.1-.1 0-.2.2-.2.4-.3.4 0 .1-.1.2-.3.3v-.2c-.1.2-.3.4-.7.3 0 0 0-.1.1 0-.3 0-.6-.1-1-.2s-.7-.2-1.1-.4c.3-.1-.3-.2-.2-.3l-.5-.2.1.2c-.4-.2-.8-.2-1.1-.5l.3.1c-.2-.1-.5-.2-.7-.3.1.1.2.2.4.3-.4-.1-.1.2-.5-.1.1 0-.4-.2-.5-.4-.2-.1-.4-.1-.7-.3 0-.1.1-.1.1-.2-.2 0-.8-.5-1.1-.5.1 0 .1 0 .1-.1h-.2l.1-.6c-.5-.4 0 .3-.5-.2l.1.1c-.5-.5-1.1-.8-1.6-1.2 0-.2.5.3.4.1-.7-.6-1.6-1.1-2.2-1.8l.1.1c-.3.1-.4-.6-.8-.8.1.1.2 0 .2 0-.4-.5-.9-.9-1.5-1.6l.1.1c-.2-.3-.6-.8-.8-1.1-.1-.1-.2-.2-.2-.1-.2-.6-.6-1-.9-1.5-.3-.4-.7-.9-.6-1.4 0 .1.1.2.1.2-.1-.2 0-.4.1-.7-.1 0-.1.1-.2.2 0-.1.1-.4.2-.5-.2.4.1.1.3 0 0 0 0-.1-.1-.1.5-.2-.1-.2.4-.6v.1c.1-.2.2-.4.4-.6.2 0-.1.2-.1.3.2-.3.3-.7.6-.9-.1.1-.2.3-.3.5.3-.2.3-.3.5-.4l.5-.5-.1.1c.1-.5.5-.9.6-1.5-.1.6.1.1.1.2l.2-.2c0-.1.1-.1.1-.1 0-.2.1-.3.1-.5s.1-.4 0-.6c0 0-.1-.4.1-.3-.2-.4 0 .1-.1.1-.1-.3-.3-.7-.4-1-.1-.4-.2-.8-.5-1.1-.4-.6-.5-.7-.9-1.3 0-.2.2.1.2.1-.1-.4-.2-.6-.4-.9.1.1.1 0 .1-.1-.1-.3-.2-.1-.3-.5.1 0 .2.1.3.2-.2-.3-.4-.6-.5-.9 0-.1.2.1.3.2-.2-.3-.4-.9-.6-1l.1.2c-.1-.1.1-.1.1 0 .2.3.1.5.1.5l-.1-.2c-.1.3.4.9.6 1.3l-.2-.1.3.4c0 .1-.1.2-.2 0 .1.4.2.3.2.6l.2.3c-.1 0-.1.1-.2-.1.1.6.5.9.5 1.1.4.8.2 0 .5.6l-.1.5h.2c0 .1.1.2 0 .2.2.3 0-.1.2.1 0 .2.2.5.3.7.1.2.1.4 0 .5.1.1 0-.4.1 0-.1.1-.1.2-.1.3 0 .2 0 .3-.2.5 0-.2.1-.4-.1-.2.1.3-.4.7-.5.9.1 0 0 .2-.1.4s-.3.4-.5.6c0-.1-.7.8-1.1 1.1 0 .1-.1.2-.2.4-.1.1-.3.3-.4.5-.1-.1-.1-.2.1-.4l-.3.3c0 .1-.1.2-.1.5l-.1-.1c-.1.3-.1.6 0 .9.1.3.3.5.4.8.1 0 0-.6.4-.1 0 .1-.1.1-.2 0 0 0 .1.1.2.3l-.2-.2c.1.3.1.1.3.3-.1 0 0 .2 0 .2l-.1-.2c.1.2.2.5.2.6 0 0 .1-.1.2.1.3.4 0 .2.1.5.1.1.2.4.3.3.1.1 0 .2.1.2.2.2.7.9.6.6v-.1c.6.6 1 1.4 1.6 2 .4.3.8.8 1.1 1 .1.1.2.3.1.3.3.2.3.2.7.6-.3-.2.1.1-.3-.2.3.4.4.5.8.7-.2 0 .2.3.4.5l-.3-.1c.2.2.4.3.5.5h-.2c.7.8 1.6.9 2.1 1.5.3.1-.4-.4-.1-.3.4.3.7.7.8.8.5.4.6.1 1.1.5 0-.1-.1-.2.4 0 .4.2.4.4.1.3-.1 0-.1-.1-.1-.1-.1-.1-.3-.1-.2 0h.1c.2.2.7.4.6.4.3.1.2 0 0-.1.5.3.8.4 1.4.7-.1-.1-.1-.2 0-.1.8.4.4.1.9.3.3.2-.2.1.4.3.3.2 0 .2-.1.1.3.1.5.2.8.3.3.1.5.2.8.1h-.4c.2 0 .5 0 .7-.1h-.3c.2 0 .4-.1.4-.1.1-.1 0-.1 0-.1s0-.1.1-.2.3-.2.4-.3c.1-.1.2-.2.3-.2l-.2.3s.1 0-.1.3l.4-.4v.1c.5-.4.1-.3.5-.9 0 .1.2 0 .3-.1-.2.2-.2 0-.1-.2.3-.3.3-.4.4-.6l-.2.2c0-.1.2-.3.3-.5.1 0-.1.2-.1.2.1-.4.6-.5.8-1 .2-.1.1.1.3-.1.3-.5.4-.4.7-.9-.1 0-.1.1-.1 0 0 0 0-.1.1-.3l-.2.4-.4.3c.1-.2.2-.4.2-.6-.2.2-.3.5-.4.7.1-.3.1-.2 0-.2.2-.1.3-.3.4-.5.1-.2.2-.4.3-.5l.2.2c.2-.2.3-.3.5-.3.2-.1.5 0 .9.1l-.2-.1c.1-.1.5.1.8.2-.1.1.1.2.2.3 0-.1.6.3.7.1l.3.3c.6.3.8.1 1.4.4-.2 0 0 .2-.4 0 .2.1.4.2.4.1.1.1.6.2.8.3.1 0 .2-.1.4.1 0 0 .4.1.2-.1.5.5 1.8.8 2.2 1.3.5.2 1 .4 1.4.6h-.1c.2.2.3.2.5.2h.2c.1 0 .2.1.2.2 0 .2-.1.1-.1 0s-.1-.1-.1 0c-.1.1 0 .1 0 .4.1.2.1.5 0 .7v-.1c-.1.3.1.8-.1 1.4.1.4 0 1.2-.2 1.7-.1-.2 0-.3-.1-.2-.1.2.2 0 .1.5-.1.1-.3.5-.4.4.1-.1.1-.3.2-.4-.1.1-.2.2-.2.4 0 .1 0 .1-.1.2 0 .1-.1.1-.1.2v-.1c-.3.6-.2.7-.8 1.2h.1c-.2.4-.3.2-.6.5h-.2c-.2.2-.7.7-1.1 1 .2-.3.6-.6.9-.9-.1.1-.3.2-.5.4-.2.1-.3.3-.4.3.1-.1.2-.2.3-.2a3 3 0 0 1-1 .9c0-.2-.4 0-.7.2-.4.2-.8.3-1.1.3-.2.1-.4.2-.7.2-.2.1-.4.1-.7.1-.5 0-1 .1-1.6.1.4.2-.3 0-.3.3h-.4c-.3-.1-.5-.1-.8-.2-.2-.1.3 0 .2-.1-.6-.1-.2-.1-.6-.3.1.1-.2.1-.5 0 .1.1.3.1.4.2-.4 0-.6-.1-.7-.2-.2-.1-.3-.2-.7-.2h.3c-.4 0-1.5-.4-1.9-.3-.1-.1-.1-.1 0-.1-1-.3-2.2-.5-2.9-.9h.1c-.2 0-.4 0-.6-.1 0 0 .1 0 0-.1-.1 0-.5-.1-.7-.2h.2c-.4-.2-.8-.3-1.2-.4-.3-.1-.7-.2-1.1-.3 0-.1-.1-.2-.3-.4-.1-.1-.2-.1-.3-.2-.1-.1-.2-.1-.3-.2-.5-.3-.9-.5-1.4-.6-.4-.2-.9-.4-1.3-.6-.1-.1-.3-.3-.5-.4-.2-.2-.4-.3-.7-.5-.2-.2-.5-.4-.7-.5-.2-.2-.5-.4-.6-.6.1.1-.1.1-.3 0-.2-.2-.6-.3-.5-.4l.1.1c0-.2-.5-.5-.7-.8l-.2.1c-.1-.2-.3-.5-.6-.7-.2-.2-.5-.4-.7-.6-.2-.2-.5-.4-.6-.6-.2-.2-.3-.4-.3-.6-.2-.1-.4-.4-.6-.5l.1-.1c-.5-.5-.7-.8-1.3-1.4l.2.1c-.3-.4-.7-.2-1-.6l.1-.2c-.5-.7-.9-1.4-1.6-2 0 0 .1 0 .2.1-.2-.3-.8-1.3-.9-1.1.1-.1-.5-.7-.8-1.1h.1c-.4-.3-.4-.2-.7-.6-.1-.1 0-.1.1 0-.2-.4-.3-.2-.5-.7l.2.1c-.2-.4-.2-.3-.5-.5-.2-.2-.4-.7-.3-.8-.1 0-.3-.2-.4-.4 0-.1.1 0 .1.1-.3-.7-.6-.9-.7-1.4v-.1c.2.5.4.9.4.9.1 0-.1-.5.2-.2-.2-.3-.7-.8-.8-1.2v-.1c0-.1-.1-.2-.1-.3 0-.1-.1-.2-.1-.4.1-.1-.1-.5-.2-.7-.1.1-.2-.2-.2.1l.1.2v.1c0 .1.1.3.2.5-.1-.2-.2-.3-.3-.6-.1-.1-.2-.2-.3-.2 0-.4 0-1 .1-1.1-.1-.3-.2-.7-.3-1.1-.1-.4-.2-.7-.3-.9 0-.2.1-.2.1-.3 0 .1 0 .3.1.3 0-.2-.1-.5-.1-.7 0-.3 0-.5-.1-.5.1-.5.1.3.1-.4v.1c.1-.3.1-.6.1-.9v-.9c0-.6.1-1.2.6-1.8l-.1.1c.4-.8.8-1.6 1.3-2.3.3-.4.5-.7.8-1l.5-.5c.2-.1.3-.3.5-.4.4-.2.4-.3.6-.5l.1.1c.1-.1.3-.2.4-.3.3-.1.6-.1 1 0 .3.1.7.1 1.2 0l-.1-.1c.3 0 1.1 0 1 .1 0 0 .1-.1.2 0v.1c.2 0 .5.1.7.2.2.2.1.2.1.3 0 .1 0 .1.2.4.2.2.6.7.6.6-.1-.1-.1-.3-.1-.4.1.1.1.2.2.3.2 0 .5.1.3-.7-.1-.2-.3-.3-.4-.4 0-.1 0-.1-.1-.2.1.1.2.3.3.4-.1-.3-.3-.4-.5-.5 0-.1 0-.2-.1-.3-.2-.1-.4-.2-.7-.2-.1-.1.3 0-.1-.2-.3 0 .2.2-.3.2-.3-.1-.2-.2-.5-.1 0-.1 0-.1.2-.1-.3 0-.7 0-.9.1-.3-.1-.9 0-.9-.2-.1 0-.5.1-.8.2.2-.1 0-.1-.3-.1-.3.1-.7.2-.6 0-.2.2-.5.3-.8.5-.3.2-.6.5-.8.8 0 0 0-.1.1-.1-.3.3-.4.3-.5.4.1.1-.2.6-.3.8-.4.2 0-.3-.2-.3.1.1-.4.7-.2.6-.3.2-.2.2-.4.2.1.2-.2.3-.2.6-.3.3-.2 0-.5.5-.2-.1-.1-.5-.1-.5m0 11.8c0-.1-.1-.2-.1-.2.1.1.1.1.1.2m.5 1c0-.1-.1-.3-.2-.4 0 0 .1 0 .1.1-.1-.1 0 .1.1.3m-.1-2.3c.1.1.1.2.1.2-.1 0-.1-.1-.1-.2-.1 0-.1 0 0 0-.1 0 0 0 0 0"/><path class="st17" d="M62 62.8s-.1 0 0 0c-.1 0-.1 0 0 0 0 0 0 .1 0 0m16.6 27.4zm63.5 50.1s.1 0 0 0c.1-.1.1 0 0 0m1.6-1.8l.3-.2c-.2.1-.2.1-.3.2m1.1-1.6zm13.6 14.8c.1-.2.1-.1 0 0m-6.8.1c.1 0 .2.1.3.1-.2-.1-.3-.2-.3-.1m15.2-1.5s.1 0 0 0zm-14.6 1.8c-.1-.1-.2-.1-.3-.2.1 0 .2.1.3.2m-9.5-22.8c0-.1 0-.1 0 0zm-.4-.6l.1.2c0-.1-.1-.2-.1-.2m147.4 112c-.1-.2-.1-.4-.2-.7.1.2.1.6.2.7m.5 2.7c0-.2-.1-.3-.2-.6 0 .1 0 .3-.1 0 0 .1 0 .2.1.2v.1c0 .1.1 0 .2.3m-.3 1.7c.1-.3-.1-.1 0 0-.2.1-.2.2 0 0m2 11.4l-.1.1c.2.1.1-.1.1-.1m2.4 1.3l-.2-.2H78zm.8 1.5H79l.3.2zm19.4 1.3v-.2c-.2 0-.3.1 0 .2m.8 7.4c-.1 0-.3.2-.4.3.2-.1.3-.2.4-.3M73 77.6l.1.1-.3-.2z"/><path d="M51.9 151.7h-1.3l-2.3-7.6c-.1-.3-.2-.8-.4-1.3s-.2-.8-.2-.9c-.1.7-.3 1.4-.5 2.3l-2.2 7.6h-1.3l-3-11.4h1.4l1.8 7.1c.2 1 .4 1.9.5 2.7.1-1 .3-1.9.6-2.8l2-6.9h1.4l2.1 7c.2.8.5 1.7.6 2.7.1-.7.3-1.6.6-2.7l1.8-7h1.4l-3 11.2zm10.5 0v-5.5c0-.7-.2-1.2-.5-1.6s-.8-.5-1.5-.5c-.9 0-1.6.2-2 .7-.4.5-.6 1.3-.6 2.4v4.5h-1.3v-12.2h1.3v3.7c0 .4 0 .8-.1 1.1h.1c.3-.4.6-.7 1.1-1 .5-.2 1-.4 1.6-.4 1 0 1.8.2 2.4.7.5.5.8 1.3.8 2.4v5.6h-1.3zm9.2 0l-.3-1.2h-.1c-.4.5-.9.9-1.3 1.1s-1 .3-1.6.3c-.8 0-1.5-.2-2-.7s-.7-1.1-.7-1.9c0-1.7 1.4-2.6 4.1-2.7h1.5v-.6c0-.7-.1-1.2-.4-1.5s-.8-.5-1.4-.5c-.7 0-1.5.2-2.4.7l-.4-1a7.72 7.72 0 0 1 2.9-.7c1 0 1.8.2 2.3.7s.7 1.2.7 2.2v5.8h-.9zm-2.9-.9c.8 0 1.4-.2 1.9-.7.5-.4.7-1.1.7-1.9v-.8l-1.3.1c-1 0-1.8.2-2.2.5-.5.3-.7.7-.7 1.3 0 .5.1.8.4 1.1.3.3.7.4 1.2.4zm9.3 0c.2 0 .5 0 .7-.1.2 0 .4-.1.5-.1v1c-.1.1-.3.1-.6.2-.3 0-.5.1-.7.1-1.7 0-2.5-.9-2.5-2.6v-5.1h-1.2v-.6l1.2-.5.5-1.8h.8v2h2.5v1h-2.5v5c0 .5.1.9.4 1.2.1.1.5.3.9.3zm8.4-1.4c0 .8-.3 1.4-.9 1.8-.6.4-1.4.6-2.5.6s-2-.2-2.7-.5v-1.2c.4.2.9.4 1.3.5.5.1.9.2 1.4.2.7 0 1.2-.1 1.6-.3.4-.2.5-.5.5-1 0-.3-.1-.6-.4-.9-.3-.2-.9-.5-1.7-.8-.8-.3-1.4-.6-1.7-.8-.3-.2-.6-.5-.8-.8s-.2-.6-.2-1c0-.7.3-1.2.9-1.7.6-.4 1.3-.6 2.3-.6.9 0 1.8.2 2.7.6l-.5 1.1c-.9-.4-1.6-.5-2.3-.5-.6 0-1.1.1-1.4.3-.3.2-.5.5-.5.8 0 .2.1.4.2.6.1.2.3.3.6.5.3.1.8.4 1.5.6 1 .4 1.7.7 2.1 1.1s.5.8.5 1.4zm9.5 2.3l-1.4-3.6h-4.6l-1.4 3.6h-1.3l4.5-11.5h1.1l4.5 11.5h-1.4zm-1.8-4.8l-1.3-3.5c-.2-.4-.3-1-.5-1.6-.1.5-.3 1-.5 1.6l-1.3 3.5h3.6zm8.5 4.9c-.6 0-1.1-.1-1.5-.3s-.8-.5-1.2-.9h-.1c.1.5.1 1 .1 1.4v3.5h-1.3v-12.4h1.1l.2 1.2h.1c.3-.5.7-.8 1.2-1 .4-.2 1-.3 1.5-.3 1.1 0 2 .4 2.6 1.2.6.8.9 1.9.9 3.3s-.3 2.5-.9 3.3c-.7.7-1.6 1-2.7 1zm-.2-7.7c-.9 0-1.5.2-1.9.7s-.6 1.3-.6 2.3v.3c0 1.2.2 2.1.6 2.6.4.5 1 .8 1.9.8.7 0 1.3-.3 1.7-.9.4-.6.6-1.4.6-2.5s-.2-1.9-.6-2.5-.9-.8-1.7-.8zm10 7.7c-.6 0-1.1-.1-1.5-.3s-.8-.5-1.2-.9h-.1c.1.5.1 1 .1 1.4v3.5h-1.3v-12.4h1.1l.2 1.2h.1c.3-.5.7-.8 1.2-1 .4-.2 1-.3 1.5-.3 1.1 0 2 .4 2.6 1.2.6.8.9 1.9.9 3.3s-.3 2.5-.9 3.3c-.7.7-1.6 1-2.7 1zm-.2-7.7c-.9 0-1.5.2-1.9.7s-.6 1.3-.6 2.3v.3c0 1.2.2 2.1.6 2.6.4.5 1 .8 1.9.8.7 0 1.3-.3 1.7-.9.4-.6.6-1.4.6-2.5s-.2-1.9-.6-2.5-.9-.8-1.7-.8z" fill="#626c72"/></svg>