<?xml version="1.0" encoding="UTF-8" standalone="no"?>
<!-- Generator: Adobe Illustrator 21.0.0, SVG Export Plug-In . SVG Version: 6.00 Build 0)  -->
<svg id="Layer_1" style="enable-background:new 0 0 559 520" xmlns="http://www.w3.org/2000/svg" xml:space="preserve" viewBox="0 0 559 520" version="1.1" y="0px" x="0px" xmlns:xlink="http://www.w3.org/1999/xlink">
<style type="text/css">
	.st0{fill:#CFEBF6;}
	.st1{fill-rule:evenodd;clip-rule:evenodd;}
	.st2{fill-rule:evenodd;clip-rule:evenodd;fill:#FFFFFF;}
	.st3{fill:#3D5A98;}
	.st4{fill:#373737;}
	.st5{fill:#FFFFFF;}
</style>
<path class="st0" d="m69.1 225.6m121.1-119.5c-1 0.2-1.9 0.5-2.9 0.8-43.9 11.9-83.3 36.3-111.6 79.4-4.8 7.3-9.4 15.4-11.2 26.6-1.5 9.2-0.9 20.9 2.5 32.7-1.9 30.6 2.3 66.8 18.3 101.3 19.7 42.3 52.2 69.9 78.5 76.2 14.4 3.4 27.5 1.6 40.4-0.4 42.8-6.6 85.1-14.8 126.7-24.8 4-1 8.1-2 12.1-3 27.5-7.1 54.4-16.3 76-36.3 9.4-8.6 17.8-19.3 28.7-24.6 8.9-4.3 19.4-5.1 27.2-11.8 6.6-5.7 11-15.5 14.1-26.5 3.8-13.4 5.9-29.2 3.8-47.7-2.1-18.4-8.8-39.7-19.5-56.3-10.3-16-23-26-33.9-41-6.9-9.4-13.1-20.8-20.5-28.4-7.8-8-15.8-10.5-23.2-12.4-22.9-5.9-45.1-8.5-67-10.4-48.2-4-95.5-4.5-138.5 6.6"/>
	<path class="st1" d="m193.3 302.3c-3-6.2-1.3-14.9-1-22 0.7-15 1.9-28.5 2.7-42.1 0.7-12.2-1.8-35.7 18-36.9 26.8-1.8 49.4 0.1 78.2 0.3 12.5 0.1 25.4-0.2 39.3 0 11.5 0.2 30.1-1.5 38 3.3 10.2 6.3 6.9 19.2 6.5 30.1-0.6 17-1.2 27.9-1.8 45.5-0.2 6.3 0.8 17.9-2.9 22-2.9 3.2-11.5 6.2-16.3 6.8-7.5 1-15.9 0-24 0.1-24 0.3-48.9 0.6-71.9 0.4-15.7 11.8-31.8 26.1-47.4 38.3-4.6 3.6-13.3 12-17 7.6-2.4-2.8 1.3-7.6 3-11.1 6.1-12 11.5-22.4 16.1-33.5-8.6 0.5-15.7-0.9-19.5-8.8z"/>
	<path class="st2" d="m206.2 341.2c11.8-7.8 25.2-19.3 37.5-28.1 4.1-3 8.7-7.5 12.2-8.9 5.3-2.1 21.1-0.8 27.4-1 21.4-0.7 33-0.9 54.6-1.4 7.6-0.2 22.5 1.3 26.3-4.9 2.3-3.7 1-15 1.2-20.7 0.7-15.2 2.4-25.2 3.1-41.2 0.3-5.8 2.8-15.3 0.1-20.8-4.7-9.5-27.1-5.8-37.8-5.6-34.9 0.6-64.6 0.7-100.2 0.7-6.5 0-14.8-1.5-20.2 1.3-6.7 3.4-8 11.3-8.4 19.3-0.7 16-1 28-1.6 44.9-0.2 7.2-2.6 17 0.2 22.8 2.1 4.4 5.9 5.1 9.1 6.1 2.6 0.8 8.1 0.7 9.7 3.6 2.5 4.6-3.7 13.1-5.5 17-2.9 6.2-5.3 10.8-7.5 16.2-1 0.2-0.2 2.3-0.2 0.7z"/>
	<path class="st1" d="m264.9 252.4c7.3 12.4 8.7-11 0 0z"/>
	<path class="st1" d="m281.1 252.2c-0.4 6.2 7.3 5 7 0.9-0.3-3.3-4.8-4.7-7-0.9z"/>
	<path class="st1" d="m298.3 255.4c0.9 0.4 2.8 0.5 3.5-0.9-0.8-3.6-4.8-1.9-3.5 0.9z"/>
	<path class="st1" d="m316 251.9c-1.5 2.9 2.8 4.7 4.6 1.9-0.7-2.8-2.4-3-4.6-1.9z"/>
<path class="st1" d="m477.9 152.9c3.9-0.6 6.8 2.1 5.9 6.4-1.2 5.2-10.2 4.7-10.6-0.8-0.3-3.4 1.9-5.2 4.7-5.6zm-0.8 6.2c1.1 1.2 3.4 0.2 3.4-1.4-0.8-2-3.9-1.1-3.4 1.4z"/>
<path class="st1" d="m467.1 241.4c3.9-0.6 6.8 2.1 5.9 6.4-1.2 5.2-10.2 4.7-10.6-0.8-0.3-3.4 1.8-5.2 4.7-5.6zm-0.8 6.1c1.1 1.2 3.4 0.2 3.4-1.4-0.8-2-3.9-1-3.4 1.4z"/>
<path class="st1" d="m332.7 155.7c1.4-0.4 2.1-0.5 3.1-0.3 3.6 0.9 4.6 8.6-0.8 9.8-6.7 1.5-8.4-7.9-2.3-9.5zm-0.3 5.9c1.5 0.8 3.1-0.4 2.8-2.2-1.6-0.9-2.8 0.6-2.8 2.2z"/>
<path class="st1" d="m310.4 369.1c1.4-0.4 2.1-0.5 3.1-0.3 3.6 0.9 4.6 8.6-0.8 9.8-6.7 1.5-8.4-7.9-2.3-9.5zm-0.3 5.9c1.5 0.8 3.1-0.4 2.8-2.2-1.6-1-2.8 0.6-2.8 2.2z"/>
<path class="st1" d="m263.9 371.3c0.8 3.2-3.6 3.2-3.1 0.3 0.8-1.1 2.1-1.3 3.1-0.3z"/>
<path class="st1" d="m418.3 194.9c4.4-1 6.9 1.3 7.3 4.2 0.9 7.9-11.6 9.1-11.8 1.1 0-3 2-4.3 4.5-5.3zm-0.5 6.1c1.3 5.2 7.3-3.6 2-2.5-1.4 0.3-2.5 0.6-2 2.5z"/>
<path class="st1" d="m162.8 337.6c4.4-1 6.9 1.3 7.3 4.2 0.9 7.9-11.6 9.1-11.8 1.1 0-2.9 2.1-4.3 4.5-5.3zm-0.5 6.2c1.3 5.2 7.3-3.6 2-2.5-1.4 0.2-2.5 0.6-2 2.5z"/>
	<path class="st1" d="m391.1 147.1c-2 5-6.2 7.3-9.9 8.5-0.5 0.1-2.2 0.4-2.3 0.7-0.3 0.7 2.1 3.4 2.4 3.9 1.1 1.3 3.3 2.6 2.8 3.8-0.9 1.9-6.5-1.5-7.9-2.4-1.3-0.8-2.2-1.6-3.2-2.3-1.1-0.8-2-1.9-3.2-2.3-1.1-0.4-2.6-0.4-3.8-0.6-9.8-1.5-17.9-6.2-21-12.4-1.8-3.5-2.9-9.7-0.2-14.3 2.6-4.3 7.7-7.2 11.8-8.6 5.6-1.8 13.1-1.7 20.3 1.3 10.4 4.2 18.8 13.3 14.2 24.7zm-11.5 14.1c0.2-0.3-0.3-0.8-0.6-1.2-0.5-0.7-2.5-3.8-1.8-5 0.3-0.5 2.8-0.8 3.6-1.1 3.2-1.1 6.7-3.4 8.4-7.3 1.9-4.5 1.2-8.8-0.5-11.9-2.4-4.5-8.2-9.7-15.7-11.6-5.4-1.4-10.6-1.6-15.4 0.1-4.2 1.4-9.1 4.1-11.2 8.3-1.8 3.7-0.7 8.8 0.8 11.7 2.8 5.3 10.2 9.5 18.3 10.8 1.6 0.3 3.7 0.2 5.3 0.8s2.9 2.2 4.2 3.3c1.5 1.1 2.8 2 4.6 3.1z"/>
	<path class="st1" d="m386.7 134.5c0 0.2-0.1 0.2-0.2 0.2 0.5 1.7 0.7 3.5 2 4.8 1.1-1.5-0.9-3.3-1.1-4.9-0.2-0.1-0.5-0.1-0.7-0.1z"/>
	<path class="st1" d="m385.1 135.5c0 0.8 0.3 1.8 0.5 2.5 0.2 0.6 0.5 1.8 1.4 1.9 0.4-1.6-0.4-3.5-1.6-4.6 0 0.1-0.1 0.2-0.3 0.2z"/>
	<path class="st1" d="m383.8 136.1c-0.3 0.9 0.1 2.1 1.1 2.7 0.8-0.7 0-2.7-1.1-2.7z"/>
	<path class="st1" d="m382 136.4c-0.2 0.7 0.1 1.2 0.7 1.5 0.2-0.1 0.3-0.2 0.5-0.3 0.2-0.6-0.4-1.6-1.2-1.2z"/>
<path class="st1" d="m110.1 279.1c6.5-1.3 6.2 8.3 1.7 8.7-4.4 0.4-7.4-7.5-1.7-8.7zm1.6 5.1c0-0.7 0-1.4-0.3-1.7h-0.8c0.1 0.9 0.2 1.6 1.1 1.7z"/>
<path class="st1" d="m142.8 294.2c-2.9-4.4-1.3-10.8 3.4-11.5 3.1-0.4 6.9 1.4 7.5 4.5 1.1 5.5-5.3 11.1-10.9 7zm4.2-1.9c4.9 1 3.3-9.5-1.7-4.8 0.1 2.5 0.1 4.4 1.7 4.8z"/>
<path class="st1" d="m129.7 336.5c1-0.2 1.9-0.3 2.2 1.1 1.4 5.7-7.8 0.3-2.2-1.1z"/>
<path class="st1" d="m234.2 359.6c7.9-2 7.6 10 1.4 9.8-5.1-0.1-6.9-8.4-1.4-9.8zm2.2 6.2c0.8-0.9 0.5-2.1-0.3-2.8-2.7-0.3-1.3 2.8 0.3 2.8z"/>
<path class="st1" d="m181.6 373.3c9.1-1.6 8.3 12.1 0.8 11.8-4.9-0.2-7.8-10.5-0.8-11.8zm1.9 7.9c3.6-0.6-0.4-7.3-2.5-3.1 0.5 1.5 0.9 3.3 2.5 3.1z"/>
<path class="st1" d="m214 377.8c-0.6 7.3-7-3.4 0 0z"/>
	<path d="m261.8 335.5h15.3c2.8 0 2.8-4.3 0-4.3h-15.3c-2.7 0.1-2.7 4.3 0 4.3z"/>
	<path d="m267 323.8v19.4c0 2.8 4.3 2.8 4.3 0v-19.4c0-2.7-4.3-2.7-4.3 0z"/>
	<path d="m88.1 223.1h15.3c2.8 0 2.8-4.3 0-4.3h-15.3c-2.8 0-2.8 4.3 0 4.3z"/>
	<path d="m93.3 211.4v19.4c0 2.8 4.3 2.8 4.3 0v-19.4c0-2.7-4.3-2.7-4.3 0z"/>
	<path d="m403.6 248.3h15.3c2.8 0 2.8-4.3 0-4.3h-15.3c-2.8 0-2.8 4.3 0 4.3z"/>
	<path d="m408.8 236.6v19.4c0 2.8 4.3 2.8 4.3 0v-19.4c0-2.7-4.3-2.7-4.3 0z"/>
	<path d="m262.7 162.3h15.3c2.8 0 2.8-4.3 0-4.3h-15.3c-2.7 0-2.7 4.3 0 4.3z"/>
	<path d="m267.9 150.6v19.4c0 2.8 4.3 2.8 4.3 0v-19.4c0-2.7-4.3-2.7-4.3 0z"/>
	<path class="st2" d="m237.7 252h-98.1c-1.4 0-2.6-1.2-2.6-2.6v-98.1c0-1.4 1.2-2.6 2.6-2.6h98.1c1.4 0 2.6 1.2 2.6 2.6v98.1c0 1.5-1.2 2.6-2.6 2.6z"/>
		<path class="st3" d="m232.1 254h-0.2c-0.2-0.1-0.4-0.2-0.5-0.4-0.3-0.6-0.3-0.6 3.5-4.7l0.4-0.4c-1 0.6-2 1.2-2.9 1.7-6.1 3.7-6.2 3.7-6.6 3.6-0.2-0.1-0.4-0.2-0.5-0.4-0.4-0.7 0.2-1.1 2.6-2.9-4 2.4-4.2 2.3-4.6 2.2-0.2 0-0.4-0.2-0.5-0.4-1.8 1-2.1 1.1-2.4 1-0.2-0.1-0.4-0.2-0.5-0.4-0.5-0.8-0.5-0.9 10.5-9.7 2.1-1.7 4.3-3.5 6.3-5.1-3 1.8-6.8 4.1-10.2 6.2-13.5 8.3-15 9-15.7 8.9-0.2-0.1-0.4-0.2-0.5-0.4-0.3-0.6-0.3-0.9 2.3-2.8-2.4 1.4-3.2 1.6-3.6 1.5-0.2-0.1-0.4-0.2-0.5-0.4-0.5-0.9-0.6-1 15.1-12 2.9-2.1 6.2-4.3 9-6.3-4.3 2.5-9.8 5.9-14.7 8.9-17 10.4-18.8 11.3-19.5 11.1-0.2-0.1-0.4-0.2-0.5-0.4-0.6-1-0.6-1.1 19.8-14 2.1-1.3 4.4-2.8 6.6-4.2-2.4 1.5-4.9 3-7.3 4.5-18.2 11.2-21.9 13.3-22.8 13-0.2-0.1-0.4-0.2-0.5-0.4-0.6-1.1-0.8-1.3 24.2-18.2 2.6-1.7 5.3-3.6 7.8-5.3-2.4 1.3-5.1 2.8-8.1 4.5-1.8 1.1-3.6 2.3-5.4 3.4-21.7 13.4-28.7 17.6-30.1 17.2-0.2 0-0.3-0.1-0.4-0.3h-0.3c-0.2 0-0.3-0.1-0.4-0.2-0.5 0.2-0.7 0.2-0.9 0.2-0.2-0.1-0.4-0.2-0.5-0.4-0.3-0.5-0.5-0.9 3-3.3-4.5 2.6-6.1 3.3-6.7 3.1-0.2-0.1-0.4-0.2-0.5-0.4-0.7-1.2 0.2-2.1 30.1-20.8 10.1-6.3 21.9-13.7 28.2-18-6.8 3.8-19 11.3-30.2 18.1-27.9 17-36.2 21.9-37.6 21.6-0.2-0.1-0.4-0.2-0.5-0.4-2.4 1.2-3.6 1.7-4 1.6-0.2-0.1-0.4-0.2-0.6-0.4-0.8-1.4 0.8-2.9 41.2-27 13.5-8.1 28.3-16.9 35.4-21.6-8.3 4.5-25.7 15.2-40.4 24.1-31.6 19.3-41.7 25.2-43.1 24.8-0.2-0.1-0.4-0.2-0.5-0.4-0.5-0.8 0.1-1.4 3.5-3.7 2.1-1.4 5.1-3.4 9.3-6 7.7-4.8 18-11 28.9-17.6 15.2-9.2 33.4-20.2 41.4-25.6-7.6 4.2-22.8 13.6-36.6 22-33.6 20.6-49.6 30.2-51.7 29.7-0.3-0.1-0.5-0.2-0.6-0.4-0.4-0.8 0-1.4 3.6-3.9 2.2-1.5 5.4-3.6 9.8-6.3 8.2-5.1 19-11.6 30.5-18.4 17.8-10.7 39.4-23.6 46.3-28.6-7.5 3.8-28.1 16.4-46.6 27.8-36.1 22.1-48.4 29.4-50.2 29-0.2-0.1-0.4-0.2-0.6-0.4-0.9-1.6 1.4-3.6 52.5-33.8 18.2-10.8 38.5-22.7 45.3-27.5-8.6 4.2-33.9 19.7-53.2 31.5-33.9 20.8-44 26.8-45.6 26.4-0.2-0.1-0.4-0.2-0.5-0.4-0.4-0.8 0-1.4 3.8-4 2.3-1.6 5.7-3.7 10.3-6.6 8.6-5.3 20.1-12.2 32.2-19.4 19.9-11.9 44.1-26.3 50.8-31.4-0.4 0.2-0.8 0.4-1.3 0.6-4.4 2.7-11.1 6.5-20.8 12-8.8 5.3-18.8 11.5-27.8 17.1-32.7 20.2-47.3 29-49.3 28.5-0.3-0.1-0.5-0.2-0.6-0.4s-0.2-0.5-0.1-0.8c0.1-0.5 1-1.3 2.6-2.5-0.1-0.2-0.2-0.5-0.1-0.7 0.1-0.3 0.5-0.8 1.3-1.5-0.3 0.1-0.5 0.1-0.7 0.1-0.2-0.1-0.4-0.2-0.6-0.4-0.1-0.2-0.1-0.4-0.1-0.7 0-0.2 0.2-0.4 0.5-0.7v-0.1c-0.1-0.2-0.1-0.5-0.1-0.7 0-0.1 0.1-0.2 0.2-0.3-0.4 0.1-0.7 0.2-0.9 0.1s-0.4-0.2-0.6-0.4c-0.4-0.8-0.2-1.4 4.4-4.5 1.7-1.1 3.8-2.5 6.4-4.1-2.8 1.6-4.7 2.5-6 3.2-3.7 2-5.5 2.8-6.1 2.7-0.2-0.1-0.4-0.2-0.5-0.4s-0.2-0.5-0.1-0.7c0.1-0.4 1-1.2 2.7-2.4 0.5-0.6 1.5-1.3 3.4-2.5 2.2-1.4 5.4-3.4 9.7-6.1 8.2-4.9 19.2-11.4 30.9-18.2 20.3-11.8 47.2-27.5 54.1-32.8-7.6 3.5-32.3 18.7-52.6 31.2-33.4 20.5-44.7 27.3-46.9 27.3h-0.2c-0.2-0.1-0.4-0.2-0.6-0.4-0.4-0.8-0.2-1.4 4.5-4.6 2.7-1.9 6.7-4.4 12.1-7.8 10.1-6.2 23.8-14.4 37-22.3 7.1-4.3 14.6-8.7 21.5-12.8-5.1 2.8-10.9 6-17.6 9.7-1.7 1-3.5 1.9-5.3 2.9-1.6 1-3.1 1.9-4.6 2.8-33.7 20.7-43.7 26.7-45.3 26.3-0.2-0.1-0.4-0.2-0.5-0.4s-0.2-0.5-0.1-0.7c0-0.2 0.2-0.4 0.5-0.7 0.3-0.6 1.4-1.5 3.2-2.8-2.9 1.5-4.4 2.1-4.9 2-0.2-0.1-0.4-0.2-0.6-0.4-0.1-0.2-0.2-0.5-0.1-0.8 0.1-0.4 0.7-1 1.7-1.8v-0.2c0-0.1 0.1-0.3 0.3-0.5-0.1-0.7 0.8-1.7 4.2-4.1 2.5-1.8 6.2-4.2 11.3-7.3 9.4-5.9 22.3-13.5 34.8-20.9 17.8-10.6 39.2-23.3 46.5-28.6-7.4 3.9-25.5 15-41.9 25.1-36.9 22.6-54.6 33.3-56.9 32.7-0.3-0.1-0.5-0.2-0.6-0.4s-0.1-0.4-0.1-0.7c0.1-0.4 0.8-1 2.2-2h-0.2c-0.2-0.1-0.4-0.2-0.6-0.4-0.1-0.2-0.2-0.5-0.1-0.7 0.1-0.4 0.9-1.1 2.3-2.2-1.3 0.6-2.1 0.8-2.5 0.7-0.3-0.1-0.5-0.2-0.6-0.4-0.5-0.8 0-1.4 3.9-4.1 2-1.3 4.7-3.1 8.3-5.3-5.8 3.3-9 4.8-9.9 4.6-0.3-0.1-0.5-0.2-0.6-0.4-0.3-0.5-0.5-0.8 2-2.6-1 0.4-1.7 0.6-2 0.5-0.2-0.1-0.4-0.2-0.6-0.4-0.3-0.6-0.3-1.1 2.5-3.1-1.7 0.8-2.6 1.1-3 1-0.2-0.1-0.4-0.2-0.5-0.4-0.4-0.7-0.2-1.5 6.3-5.7-2.3 1.2-3.3 1.6-3.7 1.5-0.2-0.1-0.4-0.2-0.5-0.4s-0.1-0.4-0.1-0.7v-0.1c-0.2-0.1-0.4-0.2-0.5-0.4-0.6-1.1-0.8-1.4 31-21.2 5.5-3.4 11.4-7.1 16.3-10.2-5.3 3.2-11.6 7-17.3 10.4-24.5 14.9-29.7 17.9-30.8 17.6-0.2-0.1-0.4-0.2-0.5-0.4-0.6-1.1-0.8-1.4 26.8-18.6 6.1-3.8 13-8.1 18.1-11.5-5.3 3.1-12.3 7.4-18.4 11.2-19.9 12.2-22.3 13.5-23.1 13.3-0.2-0.1-0.4-0.2-0.5-0.4-0.6-1-0.7-1.3 23.3-17 2.3-1.5 4.7-3.1 7.1-4.6-0.6 0.3-1.1 0.6-1.7 1-1.3 0.8-2.5 1.5-3.8 2.3-19.9 12.3-24.5 14.9-25.6 14.6-0.2-0.1-0.4-0.2-0.5-0.4s-0.1-0.4-0.1-0.6c0-0.1 0.1-0.2 0.3-0.4 0-0.8 2.3-2.4 17.4-12.7 3.7-2.5 7.8-5.3 11.3-7.7-2.8 1.7-5.8 3.5-8.7 5.3-19 11.5-21.7 13-22.5 12.8-0.2-0.1-0.4-0.2-0.5-0.4-0.2-0.4-0.1-0.7 0.1-1l-0.2-0.2c-0.5-0.9-0.6-1 14.6-11.6 0.5-0.4 1-0.7 1.5-1.1-7.9 4.9-10.7 6.5-11.8 7-2.3 1.3-2.7 1.3-3 1.3-0.2-0.1-0.4-0.2-0.5-0.4-0.5-0.9-0.6-1 10.7-8.7-7.9 4.8-8 4.7-8.5 4.6-0.2-0.1-0.4-0.2-0.5-0.4-0.4-0.6-0.4-0.6 4.7-6.4l2.4-2.7c-0.5 0.3-1.1 0.7-1.6 1-4 2.5-4 2.5-4.5 2.4-0.2-0.1-0.4-0.2-0.5-0.4-0.3-0.5-0.3-0.5 1.2-2.6-0.2 0.1-0.3 0-0.4 0-0.2 0-0.4-0.2-0.5-0.3s-0.3-0.2-0.4-0.3c-0.2-0.4-0.1-0.8 0.3-1.1 0.1 0 0.1-0.1 0.2-0.1 0.2-0.1 0.6-0.4 0.9-0.5 1-0.6 1.1-0.7 1.5-0.6 0.1 0 0.1 0 0.2 0.1 0.4-0.2 0.6-0.2 0.8-0.2 0.2 0.1 0.4 0.2 0.5 0.4 0.3 0.5 0.3 0.5-1.2 2.6 0.3-0.2 0.7-0.4 1-0.6 4.9-3.1 5.2-3.1 5.7-3 0.2 0.1 0.4 0.2 0.5 0.4 0.4 0.6 0.4 0.6-5 6.8-0.7 0.8-1.5 1.7-2.2 2.5 2.2-1.3 5.1-3.1 7.7-4.7 10.4-6.3 10.5-6.3 11-6.2 0.2 0.1 0.4 0.2 0.5 0.4 0.4 0.7 0.1 1.1-3.7 3.8-2.2 1.5-5.1 3.6-8 5.6-0.2 0.1-0.4 0.3-0.5 0.4l1.5-0.9c13.2-8.1 14.8-8.9 15.5-8.7 0.2 0.1 0.4 0.2 0.5 0.4s0.1 0.4 0.1 0.6c-0.1 0.4-0.5 0.8-3 2.2-1.2 1.1-4.5 3.4-12.4 9-2 1.4-4.1 2.9-6.1 4.3 2.6-1.6 5.5-3.3 8.1-4.9 16.2-9.9 18.2-11 19-10.8 0.2 0.1 0.4 0.2 0.5 0.4v0.1c3.4-1.9 3.8-2 4.2-1.9 0.2 0.1 0.4 0.2 0.5 0.4 0.6 1 0.7 1.2-20.3 15.4-1.6 1.1-3.3 2.2-4.9 3.3 0.9-0.5 1.9-1.1 2.9-1.6 1.4-0.9 2.8-1.7 4.2-2.6 17.5-10.7 21.7-13.1 22.9-13.1 1.9-1 2.4-1.2 2.8-1.1 0.2 0.1 0.4 0.2 0.5 0.4 0.6 1 0.7 1.2-21.4 15.5-4.7 3.1-10 6.5-14.2 9.4 3.9-2.3 8.5-5.2 12.9-7.9 21.6-13.3 26.6-16.1 27.7-15.8 0.2 0.1 0.4 0.2 0.5 0.4 0.6 1.1 0.8 1.4-26.3 18.3-5.9 3.7-12.6 7.9-17.8 11.2 5.9-3.5 13.8-8.3 20.7-12.5 24.4-14.9 29.5-17.8 30.6-17.5 0.2 0.1 0.4 0.2 0.5 0.4 0.6 1.1 0.7 1.3-28.5 19.5-8.3 5.2-17.9 11.2-24.1 15.2 0.6-0.4 1.3-0.7 1.9-1.1 1.2-0.7 2.6-1.6 4.2-2.5 6.3-3.8 14.1-8.5 21.4-13 26.4-16.2 34.8-21.2 36.3-20.8 0.2 0.1 0.4 0.2 0.5 0.4s0.1 0.4 0.1 0.6c-0.1 0.3-0.4 0.7-1.3 1.3 0.1 0.1 0.1 0.1 0.1 0.2 0.5 0.8-0.2 1.4-2.8 3.2-1.6 1.1-4 2.6-7.3 4.7-6.1 3.8-14.3 8.6-23 13.7-12.1 7.2-26.5 15.7-33.6 20.3 7.6-4.2 22.3-13.2 34.8-20.8 29.7-18.1 36.3-21.9 37.5-21.6 0.2 0.1 0.4 0.2 0.5 0.4 0.3 0.6 0.1 1.1-1 2 5.6-3.2 8-4.3 8.7-4.2 0.2 0.1 0.4 0.2 0.5 0.4 0.3 0.5 0.5 0.8-1.6 2.3 1.2-0.6 2-0.8 2.3-0.7 0.2 0.1 0.5 0.2 0.6 0.4 0.7 1.2 0.9 1.6-41.5 26.9-4.5 2.7-9.3 5.5-14 8.4 4.1-2.3 8.7-4.9 13.8-7.7 0.4-0.2 0.8-0.5 1.2-0.7 33.1-20.4 47.8-29.3 49.9-28.8 0.3 0.1 0.5 0.2 0.6 0.4s0.1 0.4 0.1 0.7c0 0.2-0.2 0.4-0.5 0.7 0 0.1 0.1 0.3 0 0.4 2-1 3.2-1.4 3.6-1.3 0.2 0.1 0.5 0.2 0.6 0.4s0.1 0.4 0.1 0.7c-0.1 0.2-0.3 0.6-0.9 1 0.4-0.1 0.7-0.2 0.9-0.1s0.4 0.2 0.5 0.4c0.5 0.8 0 1.6-4 4.5-2.5 1.7-6.1 4.1-11.2 7.3-9.3 5.8-22.1 13.4-34.5 20.8s-26.6 15.8-36.6 22.1c6.7-3.8 16.1-9 29-16.1 0.1 0 0.2-0.1 0.2-0.1 3.7-2.3 7.4-4.5 10.9-6.7 31.7-19.5 43-26.2 45.4-26.5 1.4-0.6 2.2-0.8 2.5-0.7 0.2 0.1 0.4 0.2 0.6 0.4 0.1 0.1 0.1 0.2 0.1 0.3 0.2 0.1 0.4 0.2 0.5 0.4s0.2 0.5 0.1 0.7c-0.2 0.6-1.6 1.8-4.3 3.7 1.2-0.5 2-0.8 2.5-0.8 0.3-0.1 0.5-0.1 0.7 0 0.3 0.1 0.5 0.2 0.6 0.5 0.5 0.9 0.8 1.4-15.5 11.5-9.4 5.8-22.5 13.6-35.1 21.1-18.8 11.2-41.4 24.7-49.7 30.4 7.8-4.2 25.9-15.3 42.2-25.3 36.3-22.3 53.6-32.7 55.9-32.1 0.3 0.1 0.5 0.2 0.6 0.4 0.4 0.8 0.2 1.5-4.1 4.5 3.3-1.7 5.2-2.5 5.8-2.3 0.2 0.1 0.5 0.2 0.6 0.4s0.2 0.5 0.1 0.7c0 0.2-0.2 0.4-0.4 0.6-0.1 0.7-1.1 1.5-4.3 3.7-2.5 1.7-6.1 4-11.2 7-1.1 0.7-2.2 1.4-3.4 2.1 10.1-6 14.5-8.2 15.5-7.9 0.2 0.1 0.4 0.2 0.6 0.4 0.1 0.1 0.1 0.3 0.1 0.5 1.6-0.8 2.6-1.1 3-1 0.2 0.1 0.4 0.2 0.6 0.4 0.1 0.2 0.2 0.5 0.1 0.7s-0.2 0.5-0.6 0.8c0.1 0.2 0.1 0.4 0.1 0.7-0.1 0.3-0.5 0.8-1.4 1.4 0.4-0.1 0.7-0.2 0.9-0.1 0.3 0.1 0.5 0.2 0.6 0.4s0.1 0.4 0.1 0.7c-0.1 0.4-1.1 1.3-3.4 2.8 0.1 0.1 0.1 0.1 0.1 0.2 0.4 0.8 0.1 1.5-4.5 4.7-2.7 1.9-6.7 4.4-12.1 7.8-10.1 6.2-23.6 14.3-36.6 22.1-15.5 9.2-32.4 19.4-40.7 24.8 8.3-4.7 24.3-14.5 38.9-23.4 37.1-22.7 54.8-33.4 57.1-32.8 0.3 0.1 0.5 0.2 0.6 0.4 0.5 0.8 0 1.5-4 4.2-2.4 1.6-5.9 3.9-10.8 6.8-9 5.5-20.9 12.5-33.5 20-19.1 11.3-42.1 24.9-49.5 30.2 7.6-3.9 28-16.3 46.2-27.6 36.2-22.2 48.6-29.6 50.4-29.1 0.2 0.1 0.4 0.2 0.6 0.4 0.5 0.8-0.1 1.6-4.1 4.4-2.5 1.7-6.1 4.1-11.2 7.2-9.3 5.8-21.8 13.3-33.8 20.5-16.1 9.6-34 20.3-40.6 25 8.1-4.1 29.6-17.3 47.5-28.2 31.6-19.4 41-24.9 42.4-24.6 0.2 0.1 0.4 0.2 0.5 0.4 0.8 1.4-1 3-46.2 30.4-13.1 7.9-27.5 16.6-35.3 21.7 8.1-4.6 22.5-13.4 35.7-21.4 33.2-20.2 44.5-26.9 46.1-26.5 0.2 0.1 0.4 0.2 0.6 0.4 0.8 1.4-0.6 2.7-40 26.2-13.3 7.9-29 17.3-36.4 22.3 1.2-0.7 2.6-1.5 4.1-2.4 2.2-1.4 5.2-3.2 9.2-5.5 5.7-3.5 12.1-7.4 18.2-11.2 29.2-18 39.1-23.9 40.8-23.4 0.2 0.1 0.4 0.2 0.6 0.4 0.1 0.2 0.1 0.4 0.1 0.7 0 0.1-0.1 0.2-0.2 0.3 0.2 0.1 0.3 0.2 0.4 0.3 0.7 1.3-0.5 2.6-33.2 23-8.6 5.4-17.9 11.2-23.7 15 6.6-3.8 16.9-10.1 25.8-15.5 25.5-15.6 31.3-18.9 32.5-18.6 0.2 0.1 0.4 0.2 0.5 0.4 0.4 0.6 0.6 1-4.7 4.3 1.9-1 2.8-1.3 3.2-1.2 0.1 0 0.2 0.1 0.2 0.1 1.2-0.6 1.9-0.8 2.2-0.7 0.2 0.1 0.4 0.2 0.5 0.4s0.1 0.5 0.1 0.7c-0.2 0.5-1.4 1.5-4.3 3.3-1.1 1.3-5.5 4.3-19.9 14-6.4 4.3-13.7 9.2-18.5 12.7 4.4-2.6 10.6-6.4 16-9.7 18.5-11.4 22.4-13.6 23.4-13.4 0.2 0.1 0.4 0.2 0.5 0.4 0.5 0.9 0.7 1.1-13.4 10.1 10.5-6.4 12.5-7.3 13.2-7.1 0.2 0.1 0.4 0.2 0.5 0.4 0.5 0.9 0.6 1.1-15.9 12.5-2.3 1.6-4.9 3.4-7.2 5 2.6-1.6 5.5-3.4 8-4.9 12.7-7.8 13.4-8.1 14-8 0.2 0.1 0.4 0.2 0.5 0.4 0.4 0.8 0.2 1.1-4.2 4h-0.1c4.9-2.9 5.8-3.3 6.3-3.1 0.2 0.1 0.4 0.2 0.5 0.4 0.5 0.8 0.5 0.9-11 10.2-1.5 1.2-3.2 2.6-4.7 3.8l3-1.8c9.1-5.6 9.6-5.8 10.1-5.6 0.2 0.1 0.4 0.2 0.5 0.4 0.9-0.5 1.1-0.5 1.3-0.4s0.4 0.2 0.5 0.4c0.4 0.7-0.2 1.1-2.6 2.9-0.3 0.2-0.6 0.4-0.9 0.7 0.3-0.1 0.4-0.1 0.5 0 0.2 0.1 0.4 0.2 0.5 0.4 0.3 0.6 0.3 0.6-3.6 4.8l-0.1 0.1c4.2-2.5 4.3-2.5 4.7-2.4 0.2 0.1 0.4 0.2 0.5 0.4 0.2 0.3 0.1 0.6 0 0.8 0 0.3-0.1 0.6-0.4 0.7-0.1 0-0.1 0.1-0.2 0.1-0.3 0.1-1.3 0.7-2 1.2-2.4 1.5-2.4 1.5-2.8 1.4-0.1 0-0.1 0-0.2-0.1-2.1 0.7-2.6 1-2.9 1m-90.8-14c-0.8 0.5-1.5 1-2 1.4 2.2-1.1 5.7-3.1 10-5.6-3.7 2-6.3 3.4-8 4.2m68.1-48.4c-5.8 3.5-12 7.1-18.1 10.7-18.5 10.9-40.8 24-49.2 29.7 2.5-1.4 6.1-3.4 10.3-5.9 0.8-0.5 1.6-0.9 2.5-1.5 9.2-5.4 20.9-12.6 31.8-19.3 8.9-5.3 16.4-9.9 22.7-13.7m-24.9 21.1c-8.6 4.9-17.2 9.9-24.6 14.2 5.7-3.3 12.6-7.2 20.6-11.7 1.3-0.8 2.6-1.7 4-2.5m-3.4-1.4c-2.1 1.2-4.2 2.4-6.2 3.6 1.6-0.9 3.4-1.9 5.1-2.9 0.4-0.2 0.7-0.4 1.1-0.7m-3.1-24.9c-15.4 8.8-30.7 17.7-37.5 22.1 7.2-3.8 22.6-13 37.5-22.1m-32.8 16.6c-1.7 1.1-3.2 2-4.3 2.8 6.5-3.4 21-12.2 35.9-21.3-2.7 1.5-5.3 3.1-8 4.6-11.2 6.8-18.9 11.4-23.6 13.9m47.5-3.6l-0.6 0.3c-3.4 2.1-6.5 4-9.5 5.8 2.6-1.5 5.2-3.1 7.9-4.6 2.9-1.7 6-3.5 8.9-5.3-2.1 1.3-4.3 2.5-6.7 3.8m-18.3-21c-12.2 7.1-24.8 14.6-31.3 18.7 6.8-3.6 19.3-11.2 31.3-18.7m-0.9-2.3c-11.9 6.9-24.5 14.3-30.9 18.4 6.5-3.6 18.9-11.1 30.9-18.4m58.6 4c-5.4 3-14 8.1-23.7 13.9 9.7-5.5 18.4-10.6 23.7-13.9m3 3.9c-1.2 0.7-2.6 1.4-4.1 2.3 0.8-0.4 1.5-0.8 2.1-1.1 0.8-0.4 1.4-0.8 2-1.2m-29-5.8c-3.2 1.9-6.5 3.9-9.7 5.9 7.3-4.2 15-8.6 21.8-12.6-3.6 1.9-7.6 4.1-12.1 6.7m11.8-24.4c-7.7 4.3-22.1 13.2-35.2 21.3-1.7 1-3.3 2-4.9 3 1.4-0.8 2.7-1.6 4.1-2.4 13.6-8.1 28.5-17 36-21.9m14.4 12c-2.8 1.5-6.2 3.5-9.9 5.7 3.8-2.2 7.2-4.1 9.9-5.7m0.1-13c-6.5 3.5-18.6 10.8-31 18.3 12.9-7.4 24.8-14.4 31-18.3m-40.2 6.7c-4.3 2.6-9.1 5.5-13.8 8.4 7.5-4.4 15-8.9 20.5-12.3-1.9 1.1-4.1 2.4-6.7 3.9m15.1-5.2c-5.4 3.1-13.3 7.9-21.5 12.9 8.3-4.8 16.3-9.6 21.5-12.9"/>
		<path class="st4" d="m234.3 252.4c0.2 0 0.1-0.1-0.5-0.1l-0.4 0.2 0.9-0.1z"/>
		<path class="st4" d="m230.4 252c-0.7 0.1-1.5 0.2-1 0.4 0.7-0.2 0.8-0.1 1.6-0.3 0.6 0 1 0.1 0.9 0.1 0.2 0 0.9 0 1.2-0.1-0.8-0.1-1.7-0.1-2.7 0-0.2 0 0 0 0-0.1"/>
		<path class="st4" d="m173.7 251.8h0.4-0.4"/>
		<path class="st4" d="m139.4 250c0.2 0.2 0.3 0.2 0.3 0.2-0.2-0.1-0.3-0.3-0.3-0.2"/>
		<path class="st4" d="m138.2 244.6v0.4-0.4"/>
		<path class="st4" d="m173.7 251.8l-0.9-0.1c-0.1 0.1 0.5 0.1 0.9 0.1"/>
		<path class="st4" d="m222.6 252.5h0.5c-0.2-0.1-0.3-0.1-0.5 0v0"/>
		<path class="st4" d="m189.2 251.6h0.3c0.1 0 0.2 0 0.2-0.1l-0.5 0.1z"/>
		<path class="st4" d="m201.1 251.6c-0.3 0-0.4 0.1-0.5 0.2 0.2-0.1 0.4-0.1 0.6-0.1l-0.1-0.1"/>
		<path class="st4" d="m219.9 251.9h0.3-0.3"/>
		<path class="st4" d="m180.7 251.6s-0.1 0-0.1-0.1c0 0.1 0.1 0.1 0.1 0.1"/>
		<path class="st4" d="m240.6 241.4v0"/>
		<path class="st4" d="m234.3 252h0.2v-0.1l-0.2 0.1z"/>
		<path class="st4" d="m138.3 233.6c0.1 0.3 0.1 0.1 0 0"/>
		<path class="st4" d="m156.8 150c-1.1-0.1 1.9-0.2 0.1-0.3 0.2 0-1.5 0.2-0.1 0.3"/>
		<path class="st4" d="m222.3 252.4h-0.5 0.5"/>
		<path class="st4" d="m157 149.7h-0.2c0.1-0.1 0.1-0.1 0.2 0"/>
		<path class="st4" d="m138.3 208.2c0 0.1 0 0.2-0.1 0.3 0 0 0-0.1 0.1-0.3"/>
		<path class="st4" d="m138.1 227.1v-0.5 0.5"/>
		<path class="st4" d="m138.1 198.4v-0.7 0.1 0.6"/>
		<path class="st4" d="m138.1 188.2v0.2 0.3-0.5z"/>
		<path class="st4" d="m240.6 210.4c0 0.2-0.1 0.4-0.1 0.5 0-0.2 0.1 1.3 0.1-0.5"/>
		<path class="st4" d="m222.6 252.4c-0.1 0-0.1 0.1-0.3 0.1 0.1-0.1 0.2-0.1 0.3-0.1s0.1 0 0 0"/>
		<path class="st4" d="m136.9 198v-1.6 1.6"/>
		<path class="st4" d="m225.4 148.8h0.4-0.4"/>
		<path class="st4" d="m136.9 191.5c0.1-0.3 0.1-0.6 0.1-0.9v-0.2l-0.1 1.1z"/>
		<polyline points="240.4 210.9 240.4 210.9 240.4 210.9" class="st4"/>
		<path class="st4" d="m240.8 221.6c0-1.5-0.2-0.7-0.3-1.1-0.1-1.8 0.1-0.9 0.2-1.5-0.1-1.2-0.2-2-0.2-2.9 0-0.1 0-0.2 0.1 0-0.2-1.2 0-3.6-0.2-5v-0.2c-0.1 0.2-0.2 0.3-0.3 0.2 0-0.7-0.1-1.3 0-1.5 0 0.4 0 0.5 0.1 0.7l-0.1-0.7c0.2-0.7 0.1 1 0.2 1-0.1-1.4-0.2-3.1-0.2-4.2 0.2-0.2 0.1 2.5 0.2 1.1l-0.1 1.7c0.3-1.3 0 1 0.3-0.2 0.1-2.2-0.1-2.5 0-4.7-0.1-0.5-0.1 0.2-0.2-0.3-0.2-3.1 0.4-2.5 0.2-4.8-0.1-0.6-0.3-0.8-0.2-2.5l0.2 0.6c0-2.1-0.3-1.2-0.2-3.5 0.1 0.4 0.1 1.7 0.1 1.4 0.2-1.5-0.1-1-0.1-2.1l0.2-0.2c0-2.3-0.2-4.8-0.2-7.3 0.1 0.1 0.1 0.6 0.2 0-0.1-3.2 0-6.8 0.1-9.9l-0.2-1.2c0-0.3 0.1-0.5 0.1-0.2 0.1-1.2-0.1-0.1-0.2-0.6 0-0.7 0.1-0.9 0.1-0.5-0.1-2.1-0.3-6-0.1-8.2v0.4c0.1-1.7-0.3-2-0.2-3.6v0.3-5.7-1.4c0-0.5-0.1-1-0.2-1.4-0.2-0.9-0.6-1.7-1-2.4-0.3-0.2-0.9-1-1.8-1.5-0.8-0.5-1.8-0.7-1.9-0.6-0.6-0.1-0.9-0.2-1.3-0.2-0.3 0-0.5 0-0.8-0.1-0.5 0-1.1-0.1-2.6-0.1-0.8 0-1.2 0.2-2.2 0.2v-0.2l-1.3 0.2-0.7-0.2h-0.9c0.4 0 0.8 0.1 0.7 0.1-1.5 0.1-3.6-0.1-3.6-0.2l-3.4 0.1c0.1-0.1 0.7-0.1 1.1-0.1-1.8 0.2-0.3-0.2-2 0 0.2 0-0.1 0.1-0.2 0.1-0.8-0.1-2.8-0.1-4.2-0.1l0.3-0.1c-2.6 0-5.4 0.1-8.3 0.1 1 0.1 0.8 0.2 0 0.3l-0.3-0.2c-0.5 0.1 0.9 0.1-0.2 0.2-1.1 0-0.7-0.2-0.1-0.2l-1.3 0.1c-0.1 0 0.2-0.1 0.3-0.1-0.5 0.1-2.2-0.2-3 0h-0.1c-2.9 0-4.2 0.1-6.5 0.1 0 0.1-1 0.1-1.7 0.2-1.7 0-3.6-0.2-5.7-0.1-1.5 0.1-0.4 0.1-1.1 0.2-0.1-0.1-2.2-0.1-1.1-0.2-2.5 0-3.2 0-6.3 0.1 0.3 0.1 0.7 0.1 0.5 0.1-0.6 0-1.3-0.1-1.2-0.1h0.2c-3.5 0.2-8.1-0.4-10.9-0.1h0.2l-2.9 0.1c-1.3 0 0.8-0.1-0.2-0.2-3.1 0.2-5 0-7.5 0.1-2-0.4-7.1 0-9.8-0.2l0.2 0.1c-0.7 0.1-0.8-0.1-1.4-0.1 0.1 0.1 0.8 0.1 0.3 0.1h-2.2-1.2c-0.2 0-0.4 0-0.6 0.1-0.2 0-0.4 0.1-0.6 0.1-1.6 0.4-3.1 1.5-4 3-0.4 0.7-0.7 1.6-0.8 2.4v0.6 0.6 1.2c0 1.5-0.1 3.1-0.1 4.6 0 2.2 0.5 1.3 0.3 4.1l-0.2-0.8c0.2 4.5 0 9.2 0.2 13.6 0-0.3-0.1-0.3-0.1-0.7-0.1 0.9 0 3.4 0.1 3.4 0 0.7-0.1 0.2-0.1 0.6-0.1 0.9 0.2 2.3 0 2.8v-0.4c0.1 0.6 0 2.8 0.1 2.2-0.1 1.6 0.1 3.2 0 4.5 0.2 0.9-0.1 2.8 0.1 3.1-0.2-0.1-0.2 2.9-0.1 3.9-0.1-0.3-0.1 0.9-0.2 0.5 0 1.2 0 2.3 0.2 2.1-0.3 2.2 0.2 4.4-0.1 5.6 0.1 3.5 0.2 6.8 0.3 10-0.2-0.1 0-3.5-0.3-3.4 0.1 3 0.3 4.8 0.2 7.8 0 0.8-0.1-0.4-0.1-0.7 0.1 3 0 5.8 0.1 8.5 0 0 0-0.3-0.1-0.6 0 0.5 0 1.2 0.1 1.2v-0.5c0.2-0.8 0.3 2.1 0.4 2.2-0.3-0.9-0.1 2.6-0.5 1.2 0 0.3 0.1 0.8 0.1 0.7 0 0.5-0.1 0.7-0.1 0.2 0.1 1.9 0.2 1.2 0.2 2.9-0.1 0-0.1-0.4-0.1-0.5 0.1 0.9 0.2 1.7 0.2 3.2 0-0.1-0.1 0.1-0.1-0.4 0 2.5 0.3 4.2 0.2 7-0.2-0.8-0.1 0.9-0.3 1.1v0.7c0 0.3 0 0.5 0.1 0.8v-0.6c0 0.7 0.2 1.3 0.4 1.9 0.3 0.6 0.5 1.1 0.9 1.5-0.2-0.2-0.4-0.5-0.6-0.8 0.4 0.7 1 1.4 1.7 1.9-0.4-0.3-0.7-0.7-1-1 0.5 0.5 0.5 0.4 0.6 0.4l0.1 0.1c0.1 0.1 0.3 0.2 0.6 0.5-0.1-0.1 0.1 0.1 0.5 0.3s0.9 0.5 1.3 0.6c0.6 0.1 1.3 0.1 2.3 0.1 0.2 0.1-0.2 0.2 0 0.3 0.6-0.2 3 0 3.8-0.2-0.3 0-0.3 0.1-0.2 0.2l0.5-0.1c0.6 0 0.7 0.1 0.6 0.1 1.8 0-0.6-0.2 1.6-0.1h-0.4c2.1 0.1 4.1-0.1 6.1 0 0.6 0.2-1.7 0-1 0.2 2.8 0 5.8-0.2 8.6-0.2h-0.5c0.4-0.3 2 0.1 3.4 0-0.3 0-0.4 0.2-0.4 0.1 1.9 0 3.8-0.1 6.7-0.2l-0.4 0.1c1.1 0.1 2.9 0 4.1 0.1 0.4-0.1 1-0.1 0.6-0.2 3.7 0.4 7-0.2 10.3 0.1-0.4 0-0.9 0.1-0.6 0.1l2.8-0.1c-0.2-0.1-0.4-0.1-0.9-0.2 0.4-0.1 1.1-0.1 1.8-0.1-1.2 0.1 0 0.2 0.5 0.3-0.1 0 0.1-0.1 0-0.1 1.4 0.2 0.2-0.2 2.2-0.1l-0.1 0.1c0.7 0 1.4-0.1 2.2-0.1 0.3 0.1-0.8 0.1-0.8 0.2 1.1 0 2.2-0.3 3.2-0.1-0.5 0-1.2 0-1.6 0.1 1.1 0.2 1.2 0.1 2.1 0.1h-0.1l1.9 0.1h-0.5c1.4-0.4 2.9-0.1 4.7-0.3-1.8 0.2-0.3 0.1-0.4 0.3 0.5 0 1.2 0.1 1 0.1 0.9-0.1 1.5 0.1 2.8-0.1 0.1 0 1 0 0.8 0.1 1.2 0-0.3-0.1-0.2-0.2 1.8-0.2 4.2 0.2 6.8 0 2.2-0.1 2.6-0.3 4.7-0.4 0.7 0.1-0.6 0.2-0.6 0.2 1.1 0.1 2 0.1 3 0-0.2 0 0 0.1 0.3 0.1 0.8 0 0.6-0.2 1.7-0.1-0.2 0.1-0.4 0.1-0.8 0.2 1 0 2-0.1 3-0.2 0.3 0.1-0.6 0.1-1 0.2 1.2 0 3-0.1 3.4-0.2h-0.7c0.4 0 0.2 0.1-0.1 0.1-1 0.1-1.4 0-1.5-0.1h0.7c-0.8-0.3-3 0-4.4 0l0.6-0.2-1.5 0.2c-0.3-0.1-0.5-0.2 0.2-0.2-1.1-0.1-0.9 0.1-1.9 0-0.1 0-0.1 0 0 0l-1 0.1c0.2 0-0.2-0.2 0.5-0.1-1.9-0.1-3 0.2-3.7 0h0.2c-2.6 0.1-0.3 0.2-2.2 0.3l-1.3-0.4-0.3 0.2c-0.3 0-0.8 0-0.7-0.1-1 0.1 0.2 0.1-0.4 0.2-1.3-0.1-3.5 0.1-3.8-0.2-0.5 0.1 1.2 0.1-0.1 0.2-0.4-0.3-1.6 0-2.8-0.1 0.4-0.1 1.5-0.1 0.3-0.2-0.7 0.2-2.3-0.1-3.3 0 0 0.2-2.2 0.1-3.8 0.1 0.1-0.1-3.1-0.1-4.7-0.2-0.3 0.2-1.9 0.2-3.1 0.2 0-0.1 0.3-0.2 0.9-0.2h-1.1c-0.3 0.1-0.6 0.1-1.3 0.1l0.3-0.1c-1.5 0-2.9 0.2-4.8 0.1-0.1 0.1 1.5 0.4-0.5 0.5-0.1-0.1-0.1-0.2 0.4-0.2-0.2 0-0.6 0.1-0.9 0l0.8-0.1c-0.9-0.1-0.4 0.1-1.1 0.1 0-0.1-0.5-0.1-0.4-0.2h0.9c-0.8 0-1.7-0.1-2-0.2 0.1 0.1 0 0.1-0.6 0.1-1.5 0-0.5-0.1-1.3-0.2-0.4 0.1-1.3 0-1.3 0.1-0.4 0-0.5-0.1-0.7-0.1-0.8 0.1-3.5 0-2.7 0.2h0.2-0.1c-2.5 0.2-5.1-0.1-7.6 0v-0.1c-1.5 0.1-3.3 0-4.3 0.1-0.4 0-1-0.1-0.8-0.2-1.1 0-1.2 0.1-2.9 0 1.1-0.1-0.4-0.1 1.2-0.1-1.5 0-1.8-0.1-3.3 0 0.5-0.1-1.1-0.2-1.8-0.1l1 0.1h-2.1l0.4-0.2c-3-0.2-5.4 0.4-7.6 0-0.8 0.1 1.6 0.1 0.9 0.2-1.4 0-2.8-0.3-3.2-0.3h-1.7c-0.4 0-0.9 0-1.7-0.5 0.1 0.1 0.2 0.2 0.1 0.2s-0.4-0.1-1-0.5c-0.2-0.2-0.4-0.4-0.5-0.6s-0.2-0.3-0.2-0.4c0-0.2 0.1-0.1 0.4 0.2l0.3 0.3c0.3 0.3 0.8 0.5 0.4 0.2-0.1 0-0.1 0-0.2-0.1-0.2-0.2-0.6-0.7-0.9-1-0.2-0.4-0.4-0.7-0.2-0.5-0.4-0.8-0.3-0.3 0 0.3-0.4-0.7-0.6-1.3-0.7-1.9 0-0.2-0.1-0.3-0.1-0.5v-0.5-1.2c0 0.3-0.1 0.6-0.1 0.3 0.1-2.7-0.1-1.2-0.1-3 0.1-1 0.2 0.4 0.1-1.4 0.1-1.1 0.2-0.2 0.2 0.2-0.1-1.6 0.1-3.1 0.1-4v0.9-1.4l-0.1 0.5c0-0.5 0-0.9 0.1-0.9-0.1-0.5-0.2 0.4-0.3-0.6 0.1-0.7-0.1-2.1 0.1-2.3-0.1 2.1 0.2-0.2 0.2 1.6v-1.3 0.2c0.1-2-0.2-0.9-0.2-3.1 0.1 0.3 0.2-0.5 0.2-0.8 0 0.9-0.2 0.4-0.2-0.4 0.1-1.4-0.1-1.5 0-2.2v0.8c-0.1-0.3-0.1-1-0.1-1.9 0.1-0.1 0 0.9 0.1 0.5-0.2-1.1 0.2-2.4 0.1-3.8 0.1-0.7 0.2-0.1 0.2-0.7-0.1-1.6 0.1-1.8 0-3.5-0.1 0.5-0.1 0.6-0.2-0.6l0.1 2.8-0.2-1.8c0 0.9 0.1 1.8 0.1 2.3-0.1-0.9-0.1-0.8-0.2-0.4 0.2-1.2-0.1-2.3 0-3.7h0.3c0.1-2-0.2-3.6-0.1-6.3l-0.1 0.9c-0.1-0.4 0-1.6-0.1-2.5 0.1 0.1 0.1-0.5 0.2-0.8-0.1 0 0-1.9-0.2-2.2l0.1-1.2c0.1-2.1-0.3-2.4-0.3-4.5 0.1 0.6 0.2-0.3 0.3 1.1 0-0.7 0-1.3-0.1-1.3 0.1-0.4-0.1-1.9 0-2.5 0-0.3-0.2-0.4-0.1-1.2 0-0.1 0.1 0 0.1 0-0.1 0-0.1-1.2-0.2-0.5 0.3-2.1 0-5.9 0.2-7.8 0-1.5-0.1-3.3-0.1-4.7 0 0.1 0.1 0 0 0.3 0.1-1.9-0.3-1.2-0.2-3.3 0.2-1.1 0.1 1.1 0.2 0.5 0.3-0.3 0-2.6 0.1-4v0.3c0.1-1.1-0.1-2.7-0.1-4.5 0 0 0 0.1 0.1 0-0.2-1.2-0.2-3.6-0.3-5.3 0.1 0.5 0.1 0.8 0.2 0.5 0-0.8-0.2 0.2-0.2-1.3 0.1-0.5 0.1-1.6 0.3-1.8v1.5c0.2-0.7 0-1.9 0-2.7l0.1 0.1c0-2.2-0.2-2.3-0.2-4.7l-0.1 0.2c-0.2-1.3 0.1-1.1 0-2.4l0.2-0.4c0-0.4-0.1-1.2-0.1-2s0.2-1.7 0.5-2.4c-0.1 0.4-0.3 1-0.4 1.7v1c0 0.3 0 0.7 0.1 0.9v-0.8-0.5-0.5c0.1-0.6 0.3-1.2 0.3-1.4-0.1 0.3-0.2 0.7-0.3 1 0-1 0.6-2.4 1.9-3.3 0 0.2 0.8-0.4 2-0.7 0.6-0.1 1.2-0.1 1.9-0.1 0.6 0 1.1 0.1 1.5 0.1 3-0.1 6 0.1 9.5 0-1.2-0.3 1 0 0.8-0.3h1.2l2.5 0.2c0.6 0.1-0.8 0.1-0.7 0.1 1.8 0 0.8 0.1 1.9 0.2-0.2-0.1 0.6-0.2 1.6-0.1l-1.4-0.1c2.5-0.2 2.2 0.3 4.7 0.1l-0.8 0.1c1.3-0.1 4.8 0 6-0.3 0.2 0 0.5 0.1 0 0.1 3.1 0 6.9-0.3 9.3-0.1l-0.2 0.1c0.6 0 1-0.1 1.7-0.1 0 0-0.2 0.1 0 0.1 0.3 0 1.5-0.1 2.3-0.1l-0.7 0.1c3 0.1 4.6-0.2 7.2-0.3 0 0.2 2.4 0.3 3.6 0.3 3.5 0 6-0.2 9.2-0.3 2 0.2 6.8 0.1 10.1 0.2-0.5 0 0.1-0.2 0.7-0.2 0.8 0 2.1-0.2 2 0.1h-0.3c0.6 0.2 2.1 0.1 3.4 0.2l0.2-0.3c3.2 0.4 8.4-0.1 10.1 0.2 0.8-0.1 1.7-0.1 2.5-0.1v0.1h2.7c0.8 0 1.6 0.2 2.6 0.8-0.2-0.1-0.3-0.1-0.5-0.2 0.6 0.3 0.9 0.5 1.3 0.7 0.3 0.2 0.7 0.5 1 1v0.4c0.2 0.5 0.4 1.1 0.4 1.7v0.4 0.5 1c0 1.3 0 2.6 0.1 3.9 0 0-0.1-0.1-0.1-0.5 0 1.2-0.1 4.8 0.2 4.3-0.2 0 0 2.7 0.1 4.1l-0.1-0.2c0.2 1.2 0.2 1.2 0.3 2.9 0 0.4-0.1 0.3-0.1-0.2-0.1 1.3 0.1 1 0.1 2.6l-0.1-0.6c0 1.3 0 1.2 0.1 2s0 2.6-0.2 2.8c0.1 0.2 0.2 0.9 0.1 1.7 0 0.1-0.1-0.2-0.1-0.3-0.1 2.3 0.2 3.4 0 4.9 0 0-0.1 0.1-0.1 0.3v-3.1c-0.1 0-0.2 1.4-0.3 0.3 0.1 1.2 0.3 3.1 0.3 4.6v0.2-0.1 0.9 1.2c-0.1 0.2-0.1 1.7-0.1 2.4 0.1-0.1 0.1 0.9 0.2 0v-0.6-0.3-1.8c0.1 0.6 0.1 1.2 0.1 2 0.1 0.4 0.2 0.8 0.2 1-0.2 1-0.3 2.9-0.4 3.2 0.1 2.2 0.1 5.2 0.3 6.6 0 0.6-0.1 0.7-0.1 1 0-0.4 0-0.8-0.1-1 0.1 1.3 0 3.7 0.2 4-0.1 1.6-0.2-0.9-0.1 1.3l-0.1-0.3c-0.3 4.3 0.5 6.9 0.1 11.7 0-0.3 0-0.5 0.1-0.6-0.2 5.4 0.2 11.1-0.1 16.4-0.1 1.5 0.1 1.7 0.2 2.6l-0.2 0.3 0.2 1.6c0.1 2.2-0.4 3.9-0.1 6.7l0.1-0.4c0 1 0.1 3.2-0.1 3 0 0.1 0.1 0.3 0 0.7h-0.1c-0.1 0.8-0.4 1.5-0.9 2.2-0.6 0.7-0.7 0.5-0.7 0.5s-0.1 0-0.3 0.1-0.5 0.3-1 0.6c-0.4 0.2-1 0.5-1.6 0.6-0.5 0.1-0.9 0.2-0.7 0.2 0.4 0 1-0.1 1.1 0-0.3 0.1-0.6 0.1-0.9 0.1-0.1 0.1-0.3 0.3-0.2 0.4 0 0.1 0.2 0.1 0.5 0.1h0.5c0.2 0 0.5 0 0.8-0.1 0.6-0.2 1.1-0.5 1.6-0.9 0.2-0.1 0.4-0.2 0.5-0.2-0.4 0.3-0.8 0.6-1.3 0.8 0.8-0.3 1.2-0.7 1.6-1.2 0.2 0 0.4-0.2 0.6-0.5 0.3-0.5 0.6-1.1 0.7-1.6 0.1-0.1 0 0.1 0.1 0.2 0 0.1 0.1 0.1 0.3-0.5 0.1-0.4 0-0.2-0.1-0.1s-0.1 0.2 0-0.5c0.2-0.4 0.2-0.5 0.3-0.7s0.1-0.4 0-0.9c0.1-0.1 0.1 0.1 0.1 0.5v-1.5c0-0.5 0-0.9-0.1-1.2 0.1-0.8 0-2.8 0.2-2.7-0.1-0.3-0.2-1.4-0.2-2.2 0.3 1.4 0-2.8 0.3-2.5-0.2-1-0.1-3.7-0.2-5.5 0 0.1 0.1 0.3 0 0.5 0-1 0.1-1.3 0.1-2-0.2-0.1-0.2-1.7-0.4-2.6 0.2-1.2 0.2 0.8 0.4 0.4-0.2 0.1-0.2-2.2-0.3-1.7 0.1-1 0.1-0.8 0.2-1.3-0.3-0.2 0-0.9-0.2-1.7 0.1-1.4 0.2-0.4 0.2-1.9-0.4-0.1-0.3 1.3-0.3 1.3m-0.5-36.1v0.7c0.1-0.1 0-0.4 0-0.7m0-3.1v1.3c0 0.1-0.1 0-0.1-0.3 0.1 0.2 0.1-0.5 0.1-1m-1 6.4v-0.7 0.8 0.1c0.1 0 0.1-0.1 0-0.2"/>
		<path class="st4" d="m239.5 189.7v0.2c0.1-0.1 0.1-0.2 0-0.2v-0.3 0.3"/>
		<path class="st4" d="m174.2 251.8"/>
		<polygon points="228.7 148.7 228.7 148.7 229 148.7" class="st4"/>
		<path class="st4" d="m190.8 252.3h0.2-0.2"/>
		<path class="st4" d="m198 252.3l1 0.1c-0.4 0-0.7-0.1-1-0.1"/>
		<path class="st4" d="m203.6 252.4c0.1 0 0.1 0 0.1-0.1l-0.1 0.1z"/>
		<path class="st4" d="m137.1 227.5v-0.2 0.2"/>
		<path class="st4" d="m141.7 252c-0.3 0-0.6-0.1-0.9-0.2 0.5 0.2 0.9 0.3 0.9 0.2"/>
		<polygon points="136.9 198.2 136.9 198.2 136.9 198" class="st4"/>
		<path class="st4" d="m139.8 251.1c0.4 0.3 0.7 0.5 1.1 0.6-0.4-0.1-0.8-0.3-1.1-0.6"/>
		<path class="st4" d="m227.5 252.5h0.3-0.3z"/>
		<path class="st4" d="m227.8 252.5h0.3c-0.1-0.1-0.2-0.1-0.3 0"/>
		<path class="st4" d="m228.7 252.4h-0.6 0.6"/>
		<path class="st4" d="m220.2 252.4"/>
		<path class="st4" d="m218 252.4c0.5 0 1.3 0.1 2.1 0.1h0.1c-0.4 0-1.7-0.2-2.2-0.1"/>
		<path class="st4" d="m208.7 251.8h1.9c-0.3-0.1-0.8-0.1 0.1-0.1-2.4-0.2 0.4 0.1-2 0.1"/>
		<path class="st4" d="m202.9 251.7c1 0 0-0.1 0-0.1-0.6 0-0.7 0 0 0.1"/>
		<path class="st4" d="m161.1 251.7l0.1-0.1c-0.7 0 0 0-0.1 0.1"/>
		<polygon points="153.1 252.4 153.9 252.4 154.3 252.3" class="st4"/>
		<polygon points="148.4 251.4 148.8 251.4 147.5 251.5" class="st4"/>
		<path class="st4" d="m138.2 190l-0.2 0.2c0 0.6 0.2 0.7 0.2-0.2"/>
		<path class="st4" d="m138 159.6c0.1-0.3 0.1-1.2 0.1-1.7 0 0.7-0.1 1.4-0.1 1.7"/>
		<polygon points="220.7 150 220.1 150.1 221.2 150" class="st4"/>
		<path class="st5" d="m208.2 252v-39.8h13.3l2-15.5h-15.3v-9.9c0-4.5 1.2-7.5 7.7-7.5h8.2v-13.9c-1.4-0.2-6.3-0.6-11.9-0.6-11.8 0-19.9 7.2-19.9 20.5v11.4h-13.3v15.5h13.3v39.8h15.9z"/>
		<path class="st4" d="m208.2 252.4c0.1 0 0.1-0.1-0.3-0.1l-0.3 0.2 0.6-0.1z"/>
		<path class="st4" d="m205.5 252c-0.5 0.1-1 0.2-0.7 0.4 0.5-0.2 0.6-0.1 1.1-0.3 0.4 0 0.7 0.1 0.6 0.1 0.1 0 0.6 0 0.9-0.1-0.5-0.1-1.2-0.1-1.9 0-0.2 0 0 0 0-0.1"/>
		<path class="st4" d="m192.5 225.2v0.3-0.3"/>
		<path class="st4" d="m180.5 211.9h0.3-0.3"/>
		<path class="st4" d="m179.5 209.6v0.2-0.2"/>
		<path class="st4" d="m192.5 225.2l0.1-0.7c-0.1 0-0.1 0.4-0.1 0.7"/>
		<path class="st4" d="m200 252.5h0.4c-0.2-0.1-0.3-0.1-0.4 0v0"/>
		<path class="st4" d="m192.7 236.2v0.2c0 0.1 0 0.1 0.1 0.2l-0.1-0.4z"/>
		<path class="st4" d="m192.7 244.6c0-0.2-0.1-0.3-0.2-0.3 0.1 0.1 0.1 0.2 0.1 0.4 0-0.1 0.1-0.1 0.1-0.1"/>
		<path class="st4" d="m198.1 251.9h0.2-0.2"/>
		<path class="st4" d="m192.7 230.2v0 0"/>
		<path class="st4" d="m208.9 242.3v0"/>
		<path class="st4" d="m208.2 252v-0.1h-0.1l0.1 0.1z"/>
		<path class="st4" d="m179.7 201.8v0"/>
		<path class="st4" d="m221 165.8c-0.8-0.2 1.3-0.1 0.1-0.3 0.2 0.1-1.1 0.1-0.1 0.3"/>
		<path class="st4" d="m199.8 252.4h-0.3 0.3"/>
		<path class="st4" d="m221.2 165.5h-0.1 0.1"/>
		<path class="st4" d="m191.9 197.4c-0.1 0-0.2 0-0.3-0.1 0 0 0.1 0.1 0.3 0.1"/>
		<path class="st4" d="m179.4 197.4v-0.2 0.2"/>
		<path class="st4" d="m192.7 190.4v-0.5 0.1 0.4"/>
		<path class="st4" d="m192.8 183.3v0.1 0.2-0.3z"/>
		<path class="st4" d="m208.8 220.4c0 0.2-0.1 0.3-0.1 0.3 0.1 0 0.2 1 0.1-0.3"/>
		<path class="st4" d="m200 252.4s-0.1 0.1-0.2 0.1c0.1-0.1 0.1-0.1 0.2-0.1"/>
		<path class="st4" d="m191.6 190.1v-1.1 1.1"/>
		<path class="st4" d="m209.1 196.2h0.3-0.3"/>
		<path class="st4" d="m191.6 185.6c0-0.2 0.1-0.4 0.1-0.7v-0.1c-0.1 0.3-0.1 0.5-0.1 0.8"/>
		<path class="st4" d="m208.7 220.8z"/>
		<path class="st4" d="m209.1 228.3c0-1.1-0.2-0.5-0.3-0.7-0.1-1.3 0.1-0.6 0.2-1-0.1-0.8-0.2-1.4-0.2-2 0 0 0-0.2 0.1 0-0.2-0.9 0-2.5-0.2-3.5v-0.1c-0.1 0.2-0.2 0.2-0.3 0.2 0-0.5-0.1-0.9 0-1.1 0 0.3 0 0.3 0.1 0.5l-0.1-0.5c0.2-0.5 0.1 0.7 0.2 0.7-0.1-1-0.2-2.2-0.2-2.9 0.2-0.2 0.1 1.8 0.2 0.8l-0.1 1.2c0.3-0.9 0 0.7 0.3-0.1 0.1-1.6-0.1-1.7 0-3.3-0.1-0.3-0.1 0.1-0.2-0.2-0.1-1.1 0-1.5 0.1-1.9 0.1-0.2 0.1-0.3 0.1-0.6v-0.2-0.1s0-0.1-0.1-0.1l-0.1-0.1c0-0.1 0-0.1 0.1-0.1h0.1 0.2 0.6l-0.4 0.2c1.5 0 0.9-0.3 2.4-0.2-0.3 0.1-1.2 0.1-1 0.1 1 0.2 0.7-0.1 1.5-0.1l0.2 0.2c1.6 0 3.4-0.2 5.1-0.2-0.1 0.1-0.4 0.1 0 0.2h1.9 2.5c0.1-0.4 0.1-0.9 0.2-1.3 0-0.3 0.1-0.5 0.1-0.8 0.1-0.5 0.2-1 0.3-1.4v-0.8c0-0.2 0.1-0.3 0.1-0.1 0.2-0.8-0.1-0.1-0.1-0.5 0.1-0.5 0.2-0.6 0.2-0.3 0.1-1.5 0.3-4.2 0.6-5.8v0.3c0.2-1.2-0.1-1.4 0.2-2.5v0.2c0.1-0.5 0.1-1 0.2-1.5 0.1-0.7 0.2-1.4 0.3-2h-1.7-1.2c-0.8 0-1.5-0.1-2.1-0.1-0.4 0.2-2.6-0.1-2.8 0.2-1.5-0.2-1.1-0.2-3.2-0.3-0.6 0-0.8 0.2-1.5 0.2v-0.2l-1 0.2-0.5-0.2h-0.7c0.3 0 0.6 0.1 0.5 0.1h-0.8c-0.1 0-0.2 0-0.3-0.1 0-0.2 0.1-0.3 0.1-0.3l-0.1-2.4c0.1 0.1 0.1 0.5 0.1 0.8-0.2-1.3 0.2-0.2 0-1.4 0 0.2-0.1-0.1-0.1-0.1 0.1-0.6 0.1-1.9 0.1-2.9l0.1 0.2v-2.8c0-1 0-1.9 0.2-2.9-0.1 0.3-0.2 0.4-0.2 0.4-0.1 0-0.1-0.2 0-0.5l0.2-0.2c0-0.4-0.2 0.6-0.1-0.2 0.2-0.7 0.3-0.4 0.3 0 0.1-0.3 0.1-0.6 0.2-0.8 0.1 0 0 0.2 0.1 0.2 0-0.1 0.1-0.2 0.1-0.3 0.1-0.1 0.2-0.3 0.3-0.4 0.2-0.3 0.4-0.6 0.6-0.8h0.1c0.6-0.6 1.2-0.9 1.8-1.1s1.2-0.4 1.9-0.4c0-0.1 0.6-0.2 1.1-0.3 1.2 0 2.5 0.1 4 0.1 1-0.1 0.3-0.1 0.8-0.2 0.1 0.1 1.5 0.1 0.8 0.2 1.5 0 2.2 0 3.8-0.1 0-0.3 0-0.9-0.1-1.7 0 0.1 0 0.2-0.1 0.3 0 0.1 0 0.2-0.1 0.1 0-0.4 0.1-0.9 0.1-0.9v0.1c-0.2-2.5 0.4-5.7 0.1-7.7v0.1l-0.1-2.1c0-0.9 0.1 0.6 0.2-0.1-0.1-0.6-0.1-1.1-0.1-1.5v-1-0.5c-0.2 0-0.3 0-0.5-0.1-0.3 0-0.6-0.1-0.9-0.1-0.2 0-0.4 0-0.6-0.1-0.4 0-0.8-0.1-1.3-0.1-1.4-0.5-5-0.3-6.9-0.5l0.1 0.1c-0.5 0.1-0.6-0.1-1-0.1 0.1 0.1 0.5 0.1 0.2 0.1-2.1 0-4.3 0.1-6.5 0.4s-4.4 1-6.3 2.1c-0.7 0.4-0.8 0.6-1 0.9l-0.4 0.4c-0.1 0.1-0.2 0.2-0.4 0.3s-0.3 0.2-0.5 0.4c0.1-0.2 0.2-0.3 0.3-0.5-2.5 2.1-4.7 4.9-5.7 8 0-0.2 0-0.2 0.1-0.5-0.1 0.1-0.2 0.4-0.3 0.6s-0.2 0.5-0.2 0.8l-0.2 1c-0.2 0.5-0.1 0.1-0.3 0.4-0.2 0.6-0.2 1.7-0.4 2v-0.3c0 0.1 0 0.3-0.1 0.5 0 0.2 0 0.4-0.1 0.6 0 0.4-0.1 0.7 0 0.5-0.3 1.2-0.1 2.3-0.2 3.2 0.1 0.6-0.1 2 0.1 2.2-0.2-0.1-0.2 2-0.1 2.8-0.1-0.2-0.1 0.6-0.2 0.4 0 0.8 0 1.6 0.2 1.5-0.3 1.5 0.2 3.1-0.1 4v0.3 0.1 0.1h-0.2-0.7c-0.5 0-1 0-1.5 0.1-1 0-1.9 0.1-2.9 0.1 0.1-0.2 2.5 0 2.4-0.3-2.1 0.1-3.3 0.3-5.4 0.2-0.5 0 0.3-0.1 0.5-0.1h-2.5-1.2-1.7v1 0.4 0.3-0.1-0.1-0.1-0.1 0.6c0 0.2 0 0.3 0.1 0.3v-0.4c0.2-0.6 0.3 1.5 0.4 1.5-0.3-0.6-0.1 1.9-0.5 0.9 0 0.2 0.1 0.6 0.1 0.5 0 0.4-0.1 0.5-0.1 0.1 0.1 1.3 0.2 0.9 0.2 2.1-0.1 0-0.1-0.2-0.1-0.4 0.1 0.6 0.2 1.2 0.2 2.2 0-0.1-0.1 0.1-0.1-0.2 0 1.8 0.3 3 0.2 4.9-0.2-0.6-0.1 0.7-0.3 0.8l0.1 1 0.1-0.4c0 0.4 0 1.1 0.1 1.6h1.5-0.3-0.5 1.8l-1-0.1c0.9-0.1-0.1-0.2 1.1-0.2-0.2 0 0.9 0 1.4 0.1 0.4-0.1 0.9-0.1 1.6-0.1 0.2 0.1-0.1 0.2 0 0.3 0.4-0.2 2.1 0 2.7-0.2-0.2 0-0.2 0.1-0.1 0.2l0.4-0.1c0.4 0 0.5 0.1 0.4 0.1 1.3 0-0.4-0.2 1.1-0.1-0.1 0-0.1 0-0.3 0.1h2 1 0.4 0.3v0.3c-0.1 0.2-0.1 0-0.1-0.1-0.2 0-0.4 0-0.3 0.1h0.2v0.3 0.7l0.1 1.4c0 1 0.1 1.9 0.1 2.8v-0.4c0.3 0.3-0.1 1.4 0 2.4 0-0.2-0.2-0.3-0.1-0.2 0 1.3 0.1 2.7 0.2 4.7l-0.1-0.2c-0.1 0.8 0 2.1-0.1 2.9 0.1 0.3 0.1 0.7 0.2 0.4-0.4 2.6 0.2 4.9-0.1 7.2 0-0.3-0.1-0.7-0.1-0.4l0.1 2c0.1-0.2 0.1-0.3 0.2-0.7 0.1 0.2 0.1 0.8 0.1 1.3-0.1-0.9-0.2 0-0.3 0.4 0-0.1 0.1 0.1 0.1 0-0.2 1 0.2 0.2 0.1 1.6l-0.1-0.1c0 0.5 0.1 1 0.1 1.6-0.1 0.2-0.1-0.6-0.2-0.6 0 0.8 0.3 1.6 0.1 2.3 0-0.3 0-0.8-0.1-1.2-0.2 0.8-0.1 0.9-0.1 1.5v-0.1l-0.1 1.3v-0.3c0.4 1 0.1 2 0.3 3.4-0.2-1.3-0.1-0.2-0.3-0.3 0 0.3-0.1 0.9-0.1 0.7 0.1 0.6-0.1 1.1 0.1 1.9 0 0 0 0.7-0.1 0.5 0 0.8 0.1-0.2 0.1-0.1 0 0.4 0.1 0.8 0 1.2 0 0.6 0 1.1-0.1 1.8h0.8 0.7c0.4 0 0.7 0 1.1-0.1 1.6-0.1 1.9-0.3 3.3-0.4 0.5 0.1-0.4 0.2-0.4 0.2 0.8 0.1 1.4 0.1 2.1 0-0.2 0 0 0.1 0.2 0.1 0.6 0 0.4-0.2 1.2-0.1-0.1 0.1-0.3 0.1-0.6 0.2 0.7 0 1.4-0.1 2.1-0.2 0.2 0.1-0.4 0.1-0.7 0.2 0.8 0 2.1-0.1 2.4-0.2h-0.5c0.3 0 0.2 0.1-0.1 0.1-0.7 0.1-1 0-1.1-0.1h0.5c-0.5-0.3-2.1 0-3.1 0l0.4-0.2-1.1 0.2c-0.2-0.1-0.4-0.2 0.1-0.2-0.7-0.1-0.7 0.1-1.3 0-0.1 0 0 0 0 0l-0.7 0.1c0.1 0-0.1-0.2 0.3-0.1-1.3-0.1-2.1 0.2-2.6 0h0.1c-1.8 0.1-0.2 0.2-1.5 0.3-0.3-0.1-0.7-0.3-0.8-0.4l-0.2 0.2h-0.2c0-0.1 0-0.2 0.1-0.2l-0.1-0.2c0 0.1 0 0.2-0.1 0 0.1-0.9-0.1-2.5 0.2-2.7-0.1-0.3-0.1 0.9-0.2-0.1 0.3-0.3 0-1.1 0.1-2 0.1 0.3 0.1 1 0.2 0.2-0.2-0.5 0.1-1.6 0-2.3-0.2 0-0.1-1.5-0.1-2.7 0.1 0.1 0.1-2.2 0.2-3.3-0.2-0.2-0.2-1.3-0.2-2.2 0.1 0 0.2 0.2 0.2 0.6v-0.8c-0.1-0.2-0.1-0.4-0.1-0.9l0.1 0.2c0-1-0.2-2.1-0.1-3.4-0.1-0.1-0.4 1.1-0.5-0.3 0.1-0.1 0.2-0.1 0.2 0.3 0-0.1-0.1-0.4 0-0.7l0.1 0.6c0.1-0.6-0.1-0.3-0.1-0.8 0.1 0 0.1-0.4 0.2-0.3v0.6c0-0.5 0.1-1.2 0.2-1.4-0.1 0-0.1 0-0.1-0.4 0-1 0.1-0.4 0.2-1-0.1-0.2 0-0.9-0.1-0.9 0-0.3 0.1-0.4 0.1-0.5-0.1-0.5 0-2.5-0.2-1.9v0.1-0.1c-0.2-1.7 0.1-3.6 0-5.3h0.1c-0.1-1 0-2.3-0.1-3 0-0.3 0.1-0.7 0.2-0.6 0-0.8-0.1-0.9 0-2 0.1 0.8 0.1-0.3 0.1 0.8 0-1 0.1-1.2 0-2.4 0 0.2 0.1 0.1 0.1-0.2v-1.1h-0.7l0.7 0.1v0.4-0.3h-1.6l0.3-0.2c-2.1-0.2-3.8 0.4-5.4 0-0.6 0.1 1.1 0.1 0.6 0.2-1 0-2-0.3-2.3-0.3-1.3-0.1-1.2 0.3-2.6 0.2 0.2 0.1 0.3 0.2-0.7 0.3-1 0-1.2-0.3-0.6-0.3h0.3c0.3 0 0.7 0 0.3-0.1l-0.1 0.1c-0.2 0-0.7 0-1-0.1h-0.1-0.1-0.1v-0.1c-0.3 0.1-0.2 0.1 0.1 0.1h-0.3v-0.3-0.4-1.3c0 0.2-0.1 0.4-0.1 0.2 0.1-1.9-0.1-0.8-0.1-2.1 0.1-0.7 0.2 0.3 0.1-1 0.1-0.8 0.2-0.2 0.2 0.1-0.1-1.2 0.1-2.2 0.1-2.8v0.6-1l-0.1 0.3c0-0.4 0-0.7 0.1-0.7-0.1-0.4-0.2 0.3-0.3-0.5 0.1-0.5-0.1-1.5 0.1-1.6-0.1 1.5 0.2-0.2 0.2 1.1v-0.9 0.1c0.1-1.4-0.2-0.7-0.2-2.2 0.1 0.2 0.2-0.3 0.2-0.6 0 0.6-0.2 0.3-0.2-0.3v-0.9-0.3-0.2 0.1 0.3c-0.1-0.2-0.1-0.4-0.1-0.8h0.2s-0.1 0-0.1 0.1v0.1-0.1h0.3c0.2 0 0.4 0 0.5 0.1 0.4 0 0.9 0.1 1.4 0 0.5 0.1 0 0.2 0.5 0.2 1.2-0.1 1.3 0.1 2.5 0-0.3-0.1-0.4-0.1 0.4-0.2l-2 0.1 1.3-0.2c-0.6 0-1.3 0.1-1.6 0.1 0.6-0.1 0.5-0.1 0.3-0.2 0.8 0.2 1.6-0.1 2.6 0v0.3c1.4 0.1 2.5-0.2 4.4-0.1l-0.6-0.1c0.2-0.1 1.1 0 1.8-0.1 0 0.1 0.1 0.1 0.2 0.1h0.2 0.1 0.2s0.6 0 1.2-0.1c0-0.6 0-1.2-0.1-1.3l0.1-0.8c0.1-1.5-0.3-1.7-0.3-3.2 0.1 0.4 0.2-0.2 0.3 0.7 0-0.5 0-0.9-0.1-0.9 0.1-0.3-0.1-1.3 0-1.8 0-0.2-0.2-0.3-0.1-0.8v0s-0.1-0.8-0.2-0.4c0.2-0.7 0.2-1.8 0.1-2.8 0-1 0-2 0.2-2.6 0-0.5 0.1-1.1 0.1-1.7 0.1-0.6 0.1-1.1 0.2-1.6v0.2c0.2-0.6 0.2-0.8 0.1-1.1v-0.4c0-0.2 0.1-0.4 0.2-0.8 0.4-0.7-0.2 0.8 0 0.3 0.2-0.1 0.3-0.5 0.4-1 0.1-0.3 0.1-0.6 0.2-0.8 0.1-0.3 0.2-0.5 0.4-0.7l-0.1 0.2c0.2-0.3 0.3-0.8 0.5-1.2 0.2-0.5 0.5-1 0.8-1.5v0c0.2-0.4 0.5-0.9 0.8-1.5 0.4-0.5 0.8-1.1 1.2-1.5-0.2 0.4-0.3 0.5-0.1 0.4 0.2-0.2 0.1-0.2 0.1-0.3s0-0.2 0.4-0.5c0.3-0.2 0.9-0.6 1.1-0.6l-0.7 0.7c0.3-0.1 0.5-0.3 0.7-0.5s0.5-0.4 0.7-0.6v0.1c0.6-0.4 0.9-0.7 1.2-1 0.3-0.2 0.7-0.5 1.4-0.9h-0.2c0.8-0.5 0.7-0.2 1.5-0.7 0.1 0 0.2 0.1 0.3 0.1 0.3-0.1 0.8-0.3 1.3-0.5 0.3-0.1 0.6-0.2 0.9-0.3s0.6-0.2 0.8-0.2c-0.3 0.1-0.7 0.3-1.2 0.4-0.5 0.2-0.9 0.4-1.3 0.5 0.3-0.1 0.8-0.2 1.2-0.4 0.5-0.1 0.9-0.2 1-0.3-0.2 0.1-0.5 0.2-0.7 0.2 0.7-0.3 1.6-0.6 2.8-0.7 0 0.1 0.1 0.1 0.4 0.1h0.5 0.6 1.4c0.4 0 0.8 0.1 1 0.1 2.1-0.1 4.2 0.1 6.6 0.3-0.9-0.4 0.7 0 0.6-0.3 0.6 0 0.8 0 0.8 0.1l1.7 0.3c0.4 0.1-0.5 0-0.5 0.1 0.6 0.1 0.7 0.1 0.8 0.2l0.1 0.1c0-0.1 0.1-0.1 0.1-0.1v0.1-0.1-0.1s0.1-0.1 0-0.2h0.1v0.1 0.2c0 0.3 0 0.4-0.1 0.6-0.1 0.4-0.1 0.8 0 1.7l-0.1-0.6c0.1 0.9 0 3.4 0.3 4.3 0 0.2-0.1 0.4-0.1 0 0 1.1 0 2.3 0.1 3.5 0 0.6 0 1.1 0.1 1.7v0.8 0.2 0.1 0.1l-0.1-0.1c0 0.1 0.1 0.1 0.1 0.2h-0.2v-0.1h-0.1-0.4-0.9l0.5-0.1c-2.1-0.1-3.3 0.2-5 0.3 0-0.2-1.7-0.3-2.5-0.3-1.3 0.1-2.4 0.3-3.4 0.8s-1.9 1.3-2.5 2.4c-0.5 0.6-1 1.9-1.1 3.3-0.1 0.7-0.1 1.4-0.1 2.1s0 1.3-0.1 1.9c0-0.4 0.2 0.1 0.2 0.5 0 0.5 0.2 1.5-0.1 1.4v-0.2c-0.2 0.4-0.1 1.5-0.2 2.4l0.3 0.1c-0.1 0.5-0.1 1.1-0.1 1.7v0.9 1.5c1 0 1.9 0 2.7-0.1 0.6 0 1.2 0 1.5 0.1 0.5-0.1 1.2-0.1 1.8-0.1v0.1c1.5 0 2.3 0.1 4.1 0l-0.4 0.1c1.1 0 1.3-0.4 2.3-0.4l0.3 0.2h1.8 0.9 0.2v0.2c0 0.3 0 0.6-0.1 1 0 0-0.1-0.1-0.1-0.4-0.1 0.9-0.6 3.3-0.2 3-0.2 0-0.3 1.9-0.3 2.9l-0.4-0.1c0.1 0.9 0.1 0.9 0 2.1-0.1 0.3-0.1 0.2-0.1-0.1-0.2 0.9 0 0.7-0.2 1.8v-0.4c-0.1 0.9-0.1 0.9 0 1.4 0 0.6-0.3 1.8-0.4 1.9 0 0.1 0.1 0.2 0.1 0.5 0 0.2 0 0.5-0.1 0.7-0.1 0-0.1-0.1-0.1-0.2 0 0.1-0.1 0.2-0.1 0.3h-0.4-0.7-1.3s-0.1-0.1-0.2-0.1h2.2c0-0.1-1-0.2-0.2-0.3-0.8 0.1-2.2 0.3-3.2 0.3h-0.1 0.1-0.6-0.8c-0.1-0.1-1.2-0.1-1.7-0.1 0 0.1-0.6 0.1 0 0.2h0.4 0.2 1.3c-0.4 0.1-0.8 0.1-1.4 0.1-0.3 0.1-0.5 0.2-0.7 0.2-0.7-0.2-2-0.3-2.2-0.4-1.2 0-2.8 0.1-3.9 0.2 0 0.7 0.1 1.3 0.2 1.5 0 0.4-0.1 0.5-0.1 0.7 0-0.3 0-0.6-0.1-0.7 0.1 0.9 0 2.6 0.2 2.8-0.1 1.1-0.2-0.6-0.1 0.9l-0.1-0.2c-0.3 3 0.5 4.9 0.1 8.2 0-0.2 0-0.3 0.1-0.4-0.2 3.8 0.2 7.8-0.1 11.6-0.1 1.1 0.1 1.2 0.2 1.8l-0.2 0.2 0.2 1.1c0.1 1.6-0.4 2.7-0.1 4.7l0.1-0.3c0 0.7 0.1 2.3-0.1 2.2 0 0.1 0.1 0.2 0.1 0.5h-0.1l0.1 1.8c-0.1 1.4-0.3-0.2-0.3 1.8 0 0.7 0.2 2.1 0.3 1.8 0-0.3 0.1-0.8 0.1-0.8v0.7c0.2 0.1 0.5 0.6 0.7-1l-0.1-1.2 0.1-0.4v1c0.1-0.6 0-0.9-0.1-1.3 0.1-0.1 0.1-0.3 0.1-0.5l-0.2-1.1c0.1-0.1 0.2 0.5 0.2-0.3-0.1-0.5-0.2 0.5-0.3-0.4 0.1-0.6 0.2-0.4 0.1-1 0.1-0.1 0.1 0 0.1 0.3-0.1-0.6 0-1.5-0.2-1.8 0.1-0.6 0-2 0.2-1.9-0.1-0.2-0.2-1-0.2-1.6 0.3 1 0-2 0.3-1.7-0.2-0.7-0.1-2.6-0.2-3.9 0 0.1 0.1 0.2 0 0.3 0-0.7 0.1-0.9 0.1-1.4-0.2-0.1-0.2-1.2-0.4-1.8 0.2-0.9 0.2 0.5 0.4 0.3-0.2 0-0.2-1.5-0.3-1.2 0.1-0.7 0.1-0.6 0.2-0.9-0.3-0.1 0-0.6-0.2-1.2 0.1-1 0.2-0.3 0.2-1.3 0.2-0.7 0.3 0.3 0.3 0.3m8.5-15.7h-0.5c0.1 0.1 0.2 0.1 0.5 0m2.1 0h-0.9c-0.1 0 0-0.1 0.2-0.1-0.1 0.1 0.4 0.1 0.7 0.1m-4.5-1h0.5c-0.1 0.1-0.3 0.1-0.5 0l-0.1 0.1s0.1 0 0.1-0.1"/>
		<path class="st4" d="m214.6 211.8h-0.1c0 0.1 0.1 0.1 0.1 0h0.2-0.2"/>
		<path class="st4" d="m192.5 225.5v0"/>
		<polygon points="211.5 196.1 211.5 196.1 211.7 196.1" class="st4"/>
		<path class="st4" d="m192 237.3v0.2-0.2"/>
		<path class="st4" d="m192 242.4l-0.1 0.7c0.1-0.3 0.1-0.5 0.1-0.7"/>
		<path class="st4" d="m191.9 246.3s0.1 0 0 0c0.1 0.1 0.1 0.1 0 0z"/>
		<path class="st4" d="m178.4 197.5v-0.3 0.3"/>
		<path class="st4" d="m182.7 212.5c-0.2 0-0.4 0.1-0.6 0.1 0.3 0 0.6 0 0.6-0.1"/>
		<polygon points="191.6 190.3 191.6 190.3 191.6 190.1" class="st4"/>
		<path class="st4" d="m181.2 212.5h0.9-0.9"/>
		<path class="st4" d="m203.5 252.5h0.2-0.2z"/>
		<path class="st4" d="m203.7 252.5h0.2c-0.1-0.1-0.2-0.1-0.2 0"/>
		<path class="st4" d="m204.3 252.4h-0.4 0.4"/>
		<path class="st4" d="m198.3 252.4"/>
		<path class="st4" d="m196.7 252.4c0.4 0 0.9 0.1 1.5 0.1-0.2 0-1.1-0.2-1.5-0.1"/>
		<path class="st4" d="m192.5 249.9v1.3c0-0.1 0.1-0.2 0.1-0.3v0.2-0.2-0.2-0.2 0c0 0.2-0.1 0.3-0.1-0.6"/>
		<path class="st4" d="m192.6 245.8c0 0.7 0.1 0 0.1 0 0-0.4 0-0.5-0.1 0"/>
		<path class="st4" d="m192.6 216.3l0.1 0.1c0-0.6 0 0-0.1-0.1"/>
		<path class="st4" d="m190.7 212.6l0.5 0.1c0.1 0 0.2-0.1 0.2-0.1h-0.7z"/>
		<polygon points="187.4 211.7 187.6 211.7 186.7 211.7" class="st4"/>
		<path class="st4" d="m192.9 184.5l-0.2 0.2c0 0.4 0.2 0.4 0.2-0.2"/>
		<path class="st4" d="m202.5 167.3c0.2 0 0.8-0.2 1.1-0.4-0.4 0.1-0.9 0.3-1.1 0.4"/>
		<polygon points="207.6 194.4 207.5 193.9 207.6 194.8" class="st4"/>
</svg>
