<?xml version="1.0" encoding="UTF-8" standalone="no"?>
<!-- Generator: Adobe Illustrator 21.0.0, SVG Export Plug-In . SVG Version: 6.00 Build 0)  -->
<svg id="Layer_1" style="enable-background:new 0 0 559 520" xmlns="http://www.w3.org/2000/svg" xml:space="preserve" viewBox="0 0 559 520" version="1.1" y="0px" x="0px" xmlns:xlink="http://www.w3.org/1999/xlink">
<style type="text/css">
	.st0{fill:#CFEBF6;}
	.st1{fill-rule:evenodd;clip-rule:evenodd;fill:#E6E6E6;}
	.st2{fill-rule:evenodd;clip-rule:evenodd;fill:#FFFFFF;}
	.st3{fill:#E6E6E6;}
	.st4{fill-rule:evenodd;clip-rule:evenodd;fill:#999999;}
	.st5{fill:#999999;}
	.st6{fill-rule:evenodd;clip-rule:evenodd;fill:#4D4D4D;}
	.st7{fill:#4D4D4D;}
	.st8{fill-rule:evenodd;clip-rule:evenodd;}
	.st9{fill:#1DA1F2;}
	.st10{fill:#373737;}
</style>
<path class="st0" d="m78.4 242.9m102.9-124.8c-0.9 0.3-1.8 0.7-2.7 1-40.3 15.5-75.3 42.5-97.9 86-3.9 7.4-7.4 15.5-8 26.3-0.5 8.8 1.1 19.9 5.6 30.7 1.2 29.1 8.7 63 27.2 94 22.7 38.1 56.2 61.1 81.7 64.4 14 1.8 26.2-1.1 38.2-4.3 39.9-10.4 79.1-22.3 117.5-35.8 3.7-1.3 7.4-2.6 11.1-4 25.4-9.4 49.9-20.7 68.4-41.7 8-9.1 14.9-20 24.8-26.1 8-5 17.9-6.7 24.6-13.8 5.7-6 8.9-15.7 10.8-26.5 2.3-13.1 2.7-28.2-1.1-45.4s-12.2-36.7-24-51.4c-11.3-14.2-24.3-22.4-36-35.4-7.4-8.2-14.4-18.4-22.1-24.9-8.1-6.8-15.9-8.4-23.2-9.5-22.3-3.3-43.5-3.7-64.5-3.3-46 0.9-90.7 5.1-130.4 19.7"/>
		<path class="st1" d="m184.1 361.1c-5.2-0.1-9.8-0.3-11.1-4.4-0.5-1.7-0.2-4.7-0.2-7.3 0-5.2 0.1-18.4 0.1-23.4 0-2.5-0.2-5.1 0.2-7.2 0.5-2.5 2.7-4.6 5-4.9 1.6-0.2 3.3 0.1 4.9 0.1 11.2 0.3 23.2 0.1 34.4 0.1 9.5 0 32.2-0.2 41.9 0.2 3.2 0.1 7-0.4 9.5 0.3 1.7 0.5 3 2 3.5 3.8 0.2 0.9 0 2.5 0 3.8v28.5c0 4.8 0.3 9-3.5 10.2-1.9 0.6-4.6 0-7 0.1-15.4 0.7-44.7 0.2-60.9 0.2-1.2 0-2.9-0.3-3.7 0"/>
		<path class="st2" d="m196.5 359.7c16.8-0.1 47.5 0 64.6 0 2 0 5.8 0.3 7.3-0.2 1.2-0.4 1.6-1.9 2.4-3-0.1-6.9 0.3-23.8 0.3-31 0-4.5 0.9-8.9-2.7-9.8-23.6 0.1-61.6-0.2-85.7-0.2-1.7 0-3.6-0.2-4.9 0-4.2 0.8-3.5 6.8-3.4 11.5 0.1 4.4 0 17.8 0 22.4 0 2.4-0.3 5.3 0.1 6.8 0.3 1.2 1.7 2.6 3 3 2.2 0.6 4.8 0.1 7.3 0.7"/>
			<path class="st3" d="m187.3 337c1.9 0 3.7-0.7 5.3-1.9-0.1 0.1-0.2 0.1-0.3 0.1-0.3 0-0.6-0.2-0.8-0.5l-0.3-0.6c-1.2 0.8-2.5 1.2-3.9 1.2-1.9 0-3.6-0.6-5-1.5-0.1 0.2-0.1 0.4-0.2 0.6-0.1 0.4-0.4 0.6-0.8 0.6h-0.2c-0.4-0.1-0.7-0.6-0.6-1s0.3-0.9 0.4-1.3c-1.3-1.4-2-3.2-2-5.2 0-4.2 3.6-7.8 7.8-7.8 1.7 0 3 0.3 4.1 0.9 2.7 1.4 4.3 3.9 4.3 6.7 0 2.2-1 4.3-2.5 5.8 0.2 0.3 0.3 0.7 0.5 1 0.1 0.3 0.1 0.6-0.1 0.9 2.3-1.8 3.8-4.7 3.8-7.7 0-3.4-1.9-6.4-5.2-8.1-1.3-0.7-2.9-1-4.9-1-5 0-9.4 4.4-9.4 9.5 0 5.2 4.3 9.3 10 9.3z"/>
			<path class="st3" d="m189.4 323.3c-0.6-0.5-1.1-1-2-1.1-0.2 0-0.5-0.1-0.7-0.1-2 0-3.5 1.8-3.5 3.5 0 1 0.4 1.8 1 2.3 0.2-0.2 0.4-0.4 0.7-0.6 0.4-0.3 0.9-0.2 1.2 0.2s0.2 0.9-0.2 1.2l-0.1 0.1c0.3 0.1 0.7 0.1 1 0.1 0.4 0 0.7-0.1 1-0.1-0.1-0.2-0.3-0.3-0.4-0.5-0.3-0.3-0.3-0.9 0.1-1.2-0.2 0.1-0.4 0.2-0.7 0.2 0 0-1.9-0.1-1.9-1.7 0-0.6 0.7-1.8 1.8-1.8h0.4c0.4 0.1 0.8 0.4 1.2 0.7 0.1 0.1 0.3 0.5 0.3 0.8 0 0.4-0.3 1.2-0.9 1.6 0.3-0.1 0.7-0.1 1 0.2 0.2 0.2 0.4 0.5 0.6 0.7 0.7-0.7 1.1-1.7 1.1-2.5-0.2-0.6-0.5-1.5-1-2z"/>
			<path class="st3" d="m185.8 328.8l0.1-0.1c0.4-0.3 0.4-0.8 0.2-1.2-0.3-0.4-0.8-0.4-1.2-0.2-0.2 0.2-0.5 0.4-0.7 0.6-1.5 1.3-2.6 2.9-3.3 4.8-0.2 0.4-0.3 0.8-0.4 1.3-0.1 0.4 0.1 0.9 0.6 1h0.2c0.4 0 0.7-0.2 0.8-0.6 0.1-0.2 0.1-0.4 0.2-0.6 0.6-2 1.8-3.7 3.5-5z"/>
			<path class="st3" d="m193 334.1c-0.2-0.3-0.3-0.7-0.5-1-0.9-1.9-2-3.6-3.3-5.2-0.2-0.2-0.4-0.5-0.6-0.7-0.2-0.3-0.6-0.4-1-0.2-0.1 0-0.1 0.1-0.2 0.1-0.3 0.3-0.4 0.8-0.1 1.2 0.1 0.2 0.3 0.3 0.4 0.5 1.4 1.6 2.5 3.4 3.4 5.4l0.3 0.6c0.1 0.3 0.4 0.5 0.8 0.5 0.1 0 0.2 0 0.3-0.1s0.2-0.1 0.3-0.2c0.3-0.3 0.3-0.6 0.2-0.9z"/>
		<rect y="323.8" x="200.4" height="3.4" class="st1" width="26.4"/>
		<rect y="329.4" x="200.4" height="3.4" class="st1" width="34.8"/>
		<rect y="340.5" x="178.2" height="3.4" class="st1" width="87.7"/>
		<rect y="345.8" x="178.2" height="3.4" class="st1" width="87.7"/>
		<rect y="351.2" x="178.2" height="3.4" class="st1" width="71.8"/>
		<path class="st4" d="m172.2 332.3c-6.8-0.1-12.8-0.4-14.5-5.8-0.7-2.2-0.3-6.2-0.3-9.6 0-6.8 0.1-24.1 0.1-30.6 0-3.3-0.2-6.7 0.3-9.4 0.6-3.3 3.5-6.1 6.6-6.5 2.1-0.3 4.3 0.1 6.5 0.1 14.7 0.4 30.4 0.1 45.1 0.1 12.4 0 42.2-0.2 54.9 0.3 4.3 0.2 9.2-0.6 12.5 0.4 2.3 0.7 3.9 2.7 4.6 5 0.3 1.1 0 3.3 0 5v37.4c0 6.3 0.3 11.9-4.6 13.3-2.5 0.7-6.1 0-9.1 0.1-20.1 0.9-58.6 0.3-79.8 0.3-1.6 0-3.8-0.4-4.8 0"/>
		<path class="st2" d="m188.4 330.4c22-0.1 62.2 0 84.6 0 2.6 0 7.7 0.4 9.6-0.3 1.5-0.6 2.1-2.5 3.1-3.9-0.1-9 0.4-31.3 0.4-40.6 0-5.8 1.1-11.6-3.5-12.8-30.9 0.1-80.7-0.3-112.3-0.3-2.2 0-4.7-0.3-6.5 0-5.5 1-4.6 8.8-4.4 15.1 0.1 5.8 0 23.3 0 29.4 0 3.1-0.4 6.9 0.1 8.9 0.4 1.6 2.3 3.4 3.9 3.9 2.9 0.8 6.2 0.1 9.5 0.9"/>
			<path class="st5" d="m176.3 300.7c2.5 0 4.9-0.9 6.9-2.4-0.2 0.1-0.3 0.1-0.5 0.1-0.4 0-0.8-0.2-1-0.6-0.1-0.3-0.3-0.5-0.4-0.8-1.5 1-3.3 1.6-5.1 1.6-2.5 0-4.8-0.7-6.6-2-0.1 0.2-0.2 0.5-0.2 0.7-0.1 0.5-0.6 0.8-1 0.8h-0.3c-0.6-0.2-0.9-0.8-0.8-1.3 0.2-0.6 0.4-1.1 0.6-1.7-1.6-1.8-2.6-4.1-2.6-6.8 0-5.4 4.7-10.2 10.2-10.2 2.2 0 3.9 0.4 5.4 1.1 3.6 1.9 5.6 5 5.6 8.7 0 2.9-1.3 5.7-3.3 7.7 0.2 0.4 0.4 0.9 0.6 1.3s0.1 0.8-0.2 1.1c3-2.4 5-6.1 5-10.1 0-4.5-2.5-8.4-6.8-10.6-1.8-0.9-3.8-1.4-6.4-1.4-6.6 0-12.3 5.8-12.3 12.4 0.1 7 5.7 12.4 13.2 12.4z"/>
			<path class="st5" d="m179 282.7c-0.8-0.6-1.5-1.3-2.6-1.5-0.3-0.1-0.6-0.1-0.9-0.1-2.6 0-4.5 2.4-4.5 4.6 0 1.3 0.5 2.4 1.3 3.1 0.3-0.3 0.6-0.5 0.9-0.7 0.5-0.4 1.2-0.3 1.5 0.2 0.4 0.5 0.3 1.2-0.2 1.5-0.1 0-0.1 0.1-0.2 0.1 0.4 0.1 0.9 0.2 1.3 0.2 0.5 0 0.9-0.1 1.3-0.2-0.2-0.2-0.3-0.4-0.5-0.6-0.4-0.5-0.3-1.1 0.1-1.5h0.1c-0.3 0.1-0.6 0.2-0.9 0.2 0 0-2.5-0.1-2.5-2.2 0-0.8 0.9-2.4 2.4-2.4h0.5c0.6 0.1 1 0.5 1.6 1l0.1 0.1c0.2 0.1 0.4 0.7 0.4 1.1 0 0.6-0.4 1.5-1.2 2.1 0.4-0.2 0.9-0.1 1.3 0.3 0.3 0.3 0.5 0.6 0.7 0.9 0.9-0.9 1.4-2.2 1.4-3.2-0.2-1.2-0.6-2.4-1.4-3z"/>
			<path class="st5" d="m174.4 289.8c0.1 0 0.1-0.1 0.2-0.1 0.5-0.4 0.6-1 0.2-1.5s-1-0.6-1.5-0.2c-0.3 0.2-0.6 0.5-0.9 0.7-1.9 1.7-3.4 3.8-4.3 6.3-0.2 0.5-0.4 1.1-0.6 1.7s0.2 1.2 0.8 1.3h0.3c0.5 0 0.9-0.3 1-0.8 0.1-0.2 0.2-0.5 0.2-0.7 0.8-2.6 2.4-4.9 4.6-6.7z"/>
			<path class="st5" d="m183.8 296.8c-0.2-0.4-0.4-0.9-0.6-1.3-1.2-2.4-2.7-4.7-4.4-6.8-0.2-0.3-0.5-0.6-0.7-0.9-0.3-0.4-0.8-0.5-1.3-0.3-0.1 0-0.2 0.1-0.2 0.1h-0.1c-0.5 0.4-0.5 1.1-0.1 1.5 0.2 0.2 0.3 0.4 0.5 0.6 1.8 2.1 3.3 4.5 4.5 7.1 0.1 0.3 0.3 0.5 0.4 0.8 0.2 0.4 0.6 0.6 1 0.6 0.1 0 0.3 0 0.4-0.1 0.2-0.1 0.3-0.2 0.4-0.3 0.3-0.2 0.4-0.6 0.2-1z"/>
		<rect y="283.3" x="193.5" height="4.5" class="st4" width="34.6"/>
		<rect y="290.6" x="193.5" height="4.5" class="st4" width="45.6"/>
		<rect y="305.2" x="164.4" height="4.5" class="st4" width="115"/>
		<rect y="312.2" x="164.4" height="4.5" class="st4" width="115"/>
		<rect y="319.2" x="164.4" height="4.5" class="st4" width="94.1"/>
		<path class="st6" d="m158.6 290.3c-8.6-0.2-16.3-0.5-18.4-7.3-0.9-2.8-0.3-7.8-0.3-12.1 0-8.6 0.2-30.6 0.2-38.9 0-4.2-0.3-8.5 0.3-12 0.8-4.1 4.5-7.7 8.4-8.2 2.6-0.3 5.5 0.1 8.2 0.2 18.7 0.5 38.7 0.2 57.2 0.2 15.8 0 53.6-0.3 69.7 0.3 5.4 0.2 11.7-0.7 15.9 0.5 2.9 0.8 5 3.4 5.8 6.3 0.4 1.5 0 4.2 0 6.3v47.4c0 7.9 0.4 15.1-5.8 16.9-3.2 0.9-7.7 0-11.6 0.2-25.6 1.2-74.4 0.3-101.3 0.3-2 0-4.8-0.5-6.2 0"/>
		<path class="st2" d="m179.2 287.9c27.9-0.1 79 0 107.4 0 3.4 0 9.7 0.5 12.1-0.3 2-0.7 2.6-3.2 3.9-5-0.2-11.5 0.5-39.7 0.5-51.5 0-7.4 1.4-14.8-4.4-16.2-39.3 0.1-102.5-0.3-142.6-0.3-2.8 0-5.9-0.4-8.2 0-7 1.3-5.8 11.2-5.6 19.1 0.1 7.3 0 29.6 0 37.4 0 4-0.5 8.8 0.2 11.3 0.6 2 2.9 4.4 5 5 3.6 1 7.9 0.1 12.1 1.2"/>
			<path class="st7" d="m163.9 250.2c3.2 0 6.2-1.2 8.8-3.1-0.2 0.1-0.4 0.1-0.6 0.1-0.5 0-1-0.3-1.3-0.8-0.2-0.3-0.3-0.7-0.5-1-1.9 1.3-4.2 2-6.5 2-3.2 0-6.1-0.9-8.4-2.5l-0.3 0.9c-0.2 0.6-0.7 1-1.3 1h-0.4c-0.7-0.2-1.2-1-1-1.7s0.4-1.4 0.7-2.1c-2.1-2.3-3.3-5.3-3.3-8.6 0-6.9 6-13 12.9-13 2.8 0 4.9 0.5 6.8 1.4 4.6 2.4 7.2 6.4 7.2 11.1 0 3.7-1.7 7.2-4.2 9.7 0.3 0.6 0.5 1.1 0.8 1.7 0.2 0.5 0.1 1-0.2 1.4 3.8-3.1 6.4-7.8 6.4-12.8 0-5.7-3.1-10.7-8.6-13.5-2.2-1.2-4.9-1.7-8.1-1.7-8.3 0-15.7 7.3-15.7 15.7 0.1 9 7.2 15.8 16.8 15.8z"/>
			<path class="st7" d="m167.3 227.4c-1-0.8-1.9-1.6-3.3-1.9-0.4-0.1-0.8-0.1-1.1-0.1-3.3 0-5.8 3.1-5.8 5.8 0 1.7 0.7 3 1.7 3.9 0.4-0.3 0.7-0.6 1.1-0.9 0.6-0.5 1.5-0.4 1.9 0.3 0.5 0.6 0.4 1.5-0.3 1.9l-0.2 0.2c0.6 0.2 1.1 0.2 1.6 0.2 0.6 0 1.1-0.1 1.6-0.2-0.2-0.3-0.4-0.5-0.6-0.8-0.5-0.6-0.4-1.4 0.1-1.9h0.1c-0.4 0.2-0.7 0.3-1.2 0.3 0 0-3.2-0.1-3.2-2.8 0-1.1 1.1-3 3-3 0.2 0 0.4 0 0.6 0.1 0.7 0.1 1.3 0.6 2 1.2l0.1 0.1c0.2 0.2 0.5 0.9 0.5 1.4 0 0.7-0.5 2-1.5 2.6 0.5-0.2 1.2-0.1 1.6 0.4 0.3 0.4 0.6 0.7 0.9 1.1 1.2-1.2 1.8-2.8 1.8-4.1 0.1-1.5-0.4-3-1.4-3.8z"/>
			<path class="st7" d="m161.3 236.5l0.2-0.2c0.6-0.5 0.7-1.3 0.3-1.9-0.5-0.6-1.3-0.7-1.9-0.3-0.4 0.3-0.8 0.6-1.1 0.9-2.4 2.2-4.3 4.9-5.5 8-0.3 0.7-0.5 1.4-0.7 2.1s0.2 1.5 1 1.7h0.4c0.6 0 1.2-0.4 1.3-1l0.3-0.9c1-3.3 3-6.2 5.7-8.4z"/>
			<path class="st7" d="m173.3 245.3c-0.3-0.6-0.5-1.1-0.8-1.7-1.5-3.1-3.4-6-5.6-8.7-0.3-0.4-0.6-0.8-0.9-1.1-0.4-0.5-1.1-0.6-1.6-0.4-0.1 0-0.2 0.1-0.3 0.2h-0.1c-0.6 0.5-0.6 1.4-0.1 1.9 0.2 0.3 0.4 0.5 0.6 0.8 2.3 2.7 4.2 5.7 5.7 9 0.2 0.3 0.3 0.7 0.5 1 0.2 0.5 0.7 0.8 1.3 0.8 0.2 0 0.4 0 0.6-0.1s0.4-0.2 0.5-0.4c0.4-0.3 0.5-0.8 0.2-1.3z"/>
		<rect y="228.2" x="185.7" height="5.7" class="st6" width="43.9"/>
		<rect y="237.5" x="185.7" height="5.7" class="st6" width="57.9"/>
		<rect y="255.9" x="148.7" height="5.7" class="st6" width="146"/>
		<rect y="264.9" x="148.7" height="5.7" class="st6" width="146"/>
		<rect y="273.8" x="148.7" height="5.7" class="st6" width="119.5"/>
	<path class="st8" d="m120.7 418.8c0.7 2.7-3.1 2.7-2.6 0.2 0.6-0.9 1.7-1 2.6-0.2z"/>
	<path class="st8" d="m52.9 232.9c6.7-1.7 6.5 8.5 1.2 8.4-4.4-0.1-5.9-7.2-1.2-8.4zm1.9 5.3c0.7-0.8 0.4-1.8-0.2-2.4-2.4-0.2-1.2 2.4 0.2 2.4z"/>
		<path d="m82 237.1h13.1c2.4 0 2.4-3.7 0-3.7h-13.1c-2.4 0-2.4 3.7 0 3.7z"/>
		<path d="m86.4 227.1v16.6c0 2.4 3.7 2.4 3.7 0v-16.6c0-2.4-3.7-2.4-3.7 0z"/>
	<path class="st8" d="m465.7 132.4c0.7 2.7-3.1 2.7-2.6 0.2 0.6-0.9 1.7-1.1 2.6-0.2z"/>
	<path class="st8" d="m420 135.3c6.7-1.7 6.5 8.5 1.2 8.4-4.4-0.1-5.9-7.2-1.2-8.4zm1.9 5.3c0.7-0.8 0.4-1.8-0.2-2.4-2.4-0.2-1.2 2.5 0.2 2.4z"/>
			<path d="m472.2 362.6h13.1c2.4 0 2.4-3.7 0-3.7h-13.1c-2.4 0.1-2.4 3.7 0 3.7z"/>
			<path d="m476.9 353.1v16.6c0 2.4 3.7 2.4 3.7 0v-16.6c0-2.4-3.7-2.4-3.7 0z"/>
	<path class="st8" d="m343.1 143.7c7.5-1.8 6 7.9 0.7 7.7-4-0.2-5.8-6.4-0.7-7.7zm-0.2 3.6c0.2 1.6 2.6 1.3 2.4-0.5-0.9-0.7-1.8 0.2-2.4 0.5z"/>
	<path class="st8" d="m402 373.8c4.8-0.5 7.7 2 8.4 5.3 0.9 4.8-2.4 8.9-6.2 9.3-4.4 0.5-10.7-2.6-9.3-9.3 0.5-2.6 3.4-4.9 7.1-5.3zm5 6.2c-0.8-4.5-8.9-2.8-9.3 1.4 1.2 5.3 10.5 4.7 9.3-1.4z"/>
	<path class="st8" d="m442 360c6.6-0.6 5 8.7 0 8.9-5.7 0.1-6.1-8.3 0-8.9zm-0.5 6c1.2-0.3 2-1 1.9-2.6-1.9-1.1-3.6 1.5-1.9 2.6z"/>
	<path class="st8" d="m368.6 366.4c4.3-0.5 5.9 1.7 6.2 4.1 1.2 9-13.8 7.6-11.2-1 0.4-1.5 2.1-2.8 5-3.1zm-2.2 5.5c0.3 2.6 5.7 2.2 5.3-0.7-0.2-1.2-0.8-1.6-2.6-1.4-1.6 0.1-2.8 0.4-2.7 2.1z"/>
	<path class="st8" d="m97.1 150.9c3.4-0.8 7.3 1 7.9 3.6 2 8.6-12.7 9.5-12.4 1.4 0.1-2.6 1.9-4.3 4.5-5zm4.8 5.1c-0.3-2.8-6.5-2.7-6 1.4 1.6 2 6.3 1.2 6-1.4z"/>
	<path class="st8" d="m390.1 111.6c2.5-4.4 10.6-3.9 12.2 0.7 1.2 3.5-1.3 7.5-4.5 8.1-5.8 1.1-7.9-3.4-7.7-8.8zm3.1 1.9c-1.4 4.2 7 5.6 6 0.5-0.3-1.7-2.1-2.2-4.1-1.7-1.1 0.3-1.7 0.6-1.9 1.2z"/>
	<path class="st8" d="m75.1 184.7c11.5-2.3 14.7 14 3.6 16.5-6.8 1.6-13.5-5.5-9.8-12.4 1-2 3.4-3.6 6.2-4.1zm-1.9 4.8c-0.8 0.6-2.2 2.1-2.4 3.3-0.4 2.7 2.4 4.9 4.3 5.3 8 1.6 9.8-11.5 1-9.8-1 0.1-2.2 0.6-2.9 1.2z"/>
	<path class="st8" d="m372.6 125.4c2.9-0.7 4.1 0.6 4.3 2.1 0.8 5-7 6-7.2 1.2 0-2.1 1.1-2.8 2.9-3.3z"/>
		<path class="st8" d="m146.8 240.5c-10.2-0.2-19.3-0.6-21.8-8.7-1.1-3.4-0.4-9.3-0.4-14.4 0-10.1 0.2-36.2 0.2-46 0-4.9-0.4-10.1 0.4-14.2 0.9-4.9 5.3-9.1 9.9-9.7 3.1-0.4 6.5 0.1 9.7 0.2 22.1 0.6 45.8 0.2 67.7 0.2 18.7 0 63.5-0.3 82.5 0.4 6.4 0.2 13.9-0.9 18.8 0.6 3.4 1 5.9 4 6.9 7.5 0.5 1.7 0 5 0 7.5v56.1c0 9.4 0.5 17.8-6.9 20-3.8 1.1-9.1 0-13.7 0.2-30.3 1.4-88.1 0.4-119.9 0.4-2.4 0-5.7-0.5-7.3 0"/>
		<path class="st2" d="m171.3 237.7c33-0.2 93.6 0 127.2 0 4 0 11.5 0.6 14.4-0.4 2.3-0.9 3.1-3.8 4.6-5.9-0.2-13.6 0.6-47 0.6-61 0-8.8 1.7-17.5-5.3-19.2-46.5 0.2-121.4-0.4-168.8-0.4-3.3 0-7-0.5-9.7 0-8.3 1.5-6.9 13.3-6.7 22.6 0.2 8.7 0 35 0 44.2 0 4.7-0.6 10.4 0.2 13.3 0.7 2.4 3.4 5.2 5.9 5.9 4.3 1.2 9.4 0.1 14.3 1.4"/>
			<path d="m153.1 193c3.8 0 7.4-1.4 10.4-3.7-0.2 0.1-0.5 0.2-0.7 0.2-0.6 0-1.2-0.4-1.5-1l-0.6-1.2c-2.3 1.5-4.9 2.4-7.7 2.4-3.8 0-7.2-1.1-9.9-2.9-0.1 0.4-0.2 0.7-0.3 1.1-0.2 0.7-0.9 1.2-1.6 1.2-0.1 0-0.3 0-0.4-0.1-0.9-0.2-1.4-1.1-1.1-2 0.2-0.9 0.5-1.7 0.8-2.5-2.5-2.7-3.9-6.2-3.9-10.2 0-8.2 7.1-15.4 15.3-15.4 3.3 0 5.9 0.5 8.1 1.7 5.4 2.8 8.5 7.6 8.5 13.1 0 4.4-2 8.5-5 11.5 0.3 0.7 0.6 1.3 0.9 2 0.3 0.6 0.1 1.2-0.2 1.7 4.5-3.6 7.6-9.2 7.6-15.2 0-6.8-3.7-12.6-10.2-16-2.6-1.4-5.8-2.1-9.6-2.1-9.9 0-18.5 8.7-18.5 18.6-0.2 10.8 8.3 18.8 19.6 18.8z"/>
			<path d="m157.1 166c-1.2-1-2.3-1.9-3.9-2.2-0.4-0.1-0.9-0.1-1.3-0.1-3.9 0-6.8 3.6-6.8 6.8 0 2 0.8 3.5 2 4.6 0.4-0.4 0.9-0.8 1.3-1.1 0.7-0.5 1.7-0.4 2.3 0.3 0.5 0.7 0.4 1.7-0.3 2.3-0.1 0.1-0.2 0.1-0.3 0.2 0.7 0.2 1.3 0.3 1.9 0.3 0.7 0 1.3-0.1 1.9-0.3-0.3-0.3-0.5-0.6-0.8-1-0.6-0.7-0.5-1.7 0.2-2.3 0 0 0.1 0 0.1-0.1-0.4 0.2-0.9 0.3-1.4 0.3 0 0-3.7-0.1-3.7-3.3 0-1.3 1.4-3.6 3.6-3.6 0.2 0 0.5 0 0.7 0.1 0.9 0.2 1.5 0.7 2.4 1.4l0.1 0.1c0.2 0.2 0.6 1.1 0.6 1.7 0 0.9-0.6 2.3-1.8 3.1 0.6-0.3 1.4-0.1 1.9 0.4 0.4 0.4 0.8 0.9 1.1 1.3 1.4-1.4 2.1-3.3 2.1-4.9-0.1-1.2-0.7-3.1-1.9-4z"/>
			<path d="m150.1 176.8c0.1-0.1 0.2-0.1 0.3-0.2 0.7-0.5 0.8-1.6 0.3-2.3s-1.6-0.8-2.3-0.3c-0.5 0.4-0.9 0.7-1.3 1.1-2.9 2.6-5.1 5.8-6.5 9.4-0.3 0.8-0.6 1.6-0.8 2.5s0.3 1.8 1.1 2c0.1 0 0.3 0.1 0.4 0.1 0.7 0 1.4-0.5 1.6-1.2 0.1-0.4 0.2-0.7 0.3-1.1 1.3-4 3.6-7.4 6.9-10z"/>
			<path d="m164.3 187.2c-0.3-0.7-0.6-1.3-0.9-2-1.8-3.7-4-7.1-6.6-10.2-0.4-0.5-0.7-0.9-1.1-1.3-0.5-0.6-1.3-0.7-1.9-0.4-0.1 0.1-0.2 0.1-0.3 0.2 0 0-0.1 0-0.1 0.1-0.7 0.6-0.8 1.6-0.2 2.3 0.3 0.3 0.5 0.6 0.8 1 2.7 3.2 4.9 6.8 6.8 10.6l0.6 1.2c0.3 0.6 0.9 1 1.5 1 0.2 0 0.4 0 0.7-0.1s0.4-0.3 0.6-0.5c0.2-0.7 0.3-1.3 0.1-1.9z"/>
		<rect y="167" x="178.9" height="6.7" class="st8" width="51.9"/>
		<rect y="178" x="178.9" height="6.7" class="st8" width="68.6"/>
		<rect y="199.8" x="135.1" height="6.7" class="st8" width="172.8"/>
		<rect y="210.4" x="135.1" height="6.7" class="st8" width="172.8"/>
		<rect y="221" x="135.1" height="6.7" class="st8" width="141.5"/>
	<path class="st8" d="m389.1 156.2c55.5-4.3 84.8 22.4 101.3 59.2 10.9 24.4 15.3 53.2 3.9 79.3-7.7 17.8-23.7 34.3-39.2 44.1-34.9 21.9-86.7 17.9-118.5-4.9-15.7-11.3-29.4-30.5-36.7-49.4-7.8-20.3-6.3-43 1-63.2 7-19.4 18.2-36.5 35.2-48 13.2-8.8 31.7-15.5 53-17.1z"/>
	<path class="st2" d="m339.1 180.7c-19.3 13.6-37.4 42-37.2 73.4 0.2 31.5 18.9 55.8 35.7 70.5 5.5 4.7 11.7 7.9 18.1 11.3 51.5 26.6 112.1-1.1 131.2-43.6 15.7-34.8 0.1-80.1-18.1-99.4-3.3-3.5-5.7-7.6-8.8-10.3-15.3-12.8-40.7-21.3-72.5-18.6-18.6 1.6-36.6 8.4-48.4 16.7z"/>
			<path class="st9" d="m378.7 314.1h-0.1c-0.2 0-0.3-0.2-0.4-0.3-0.2-0.3-0.2-0.4 0.4-0.9 1-0.8 3.8-2.5 10.9-6.9 4.3-2.7 9.6-5.9 15.2-9.3-29.1 17-29.2 17-29.7 16.9-0.2 0-0.3-0.2-0.4-0.3-0.2-0.3-0.2-0.4 0.4-0.9 1.1-0.9 4-2.7 11.7-7.3 3-1.8 6.4-3.9 10.1-6.1-23.8 13.9-24 13.9-24.4 13.8-0.2 0-0.3-0.2-0.4-0.3-0.1-0.3-0.2-0.4 0.4-1 1.1-0.9 4.2-2.8 12.6-8 7.7-4.8 18-11.1 28.2-17.3 2.2-1.3 4.4-2.7 6.6-4-2.9 1.7-5.8 3.4-8.6 5.1-43.6 25.5-43.7 25.5-44.2 25.4-0.2 0-0.3-0.2-0.4-0.3-0.1-0.3-0.2-0.4 0.4-1 1.1-0.9 4.4-3 13.4-8.5 8.2-5 19.1-11.7 30.1-18.4 2.5-1.5 5.1-3.1 7.6-4.6-3.2 1.9-6.5 3.8-9.6 5.6-46.1 27-46.2 27-46.7 26.8-0.2 0-0.3-0.2-0.4-0.3-0.4-0.7-0.4-0.7 14.9-10.1 8.9-5.4 20.9-12.8 32.5-19.8 3.2-1.9 6.4-3.9 9.6-5.8-3.6 2.1-7.2 4.2-10.7 6.3-49 28.7-49.1 28.6-49.6 28.5-0.2 0-0.3-0.2-0.4-0.3-0.4-0.7-0.4-0.7 15.8-10.6 9.4-5.7 22.2-13.4 34.5-20.8 0.8-0.5 1.7-1 2.6-1.5-1.1 0.7-2.3 1.3-3.4 2-51.4 30.1-51.5 30.1-52.1 29.9-0.2 0-0.3-0.2-0.4-0.3-0.4-0.7-0.4-0.7 16-10.7 8.2-5 19-11.4 29.8-17.9-48.7 28.5-48.9 28.5-49.4 28.3-0.2 0-0.3-0.2-0.4-0.3-0.3-0.5-0.3-0.5 4.9-5.1 0.1 0 0.1-0.1 0.2-0.1-0.3 0.1-0.5 0.3-0.8 0.4-6.5 3.8-6.5 3.8-6.8 3.7-0.2 0-0.3-0.2-0.4-0.3-0.2-0.4-0.3-0.5 2.2-2.7-3.1 1.8-3.1 1.8-3.4 1.7-0.2 0-0.3-0.2-0.4-0.3-0.2-0.3-0.2-0.3 1-2.7 0-0.1 0.1-0.1 0.1-0.2-0.3 0.2-0.6 0.4-0.9 0.5-3 1.8-3 1.8-3.3 1.7-0.2 0-0.3-0.1-0.4-0.3-0.2-0.3-0.2-0.3 0.8-2.5-0.6 0.3-0.6 0.3-0.9 0.3-0.1 0-0.7-0.2-1.3-0.4s-0.9-0.3-1.2-0.3c-1.2 0.7-1.2 0.7-1.5 0.5l0.3-0.6-0.3-0.6c0.1 0 1.1-0.6 1.1-0.6 0.2-0.1 0.4-0.1 0.6 0 0.1 0 0.8 0.2 1.4 0.4 0.5 0.1 0.9 0.2 1.1 0.3 0.2-0.1 0.5-0.3 0.8-0.5 1.4-0.8 1.5-0.9 1.9-0.4 0.2 0.4 0.2 0.4-0.8 2.5v0.1c0.3-0.2 0.7-0.4 1-0.6 3-1.8 3-1.8 3.3-1.7 0.2 0 0.3 0.2 0.4 0.3 0.2 0.3 0.2 0.3-1 2.7 0 0.1-0.1 0.2-0.1 0.2 0.7-0.4 1.5-0.9 2.3-1.3 4.3-2.5 4.3-2.5 4.6-2.4 0.2 0 0.3 0.2 0.4 0.3 0.2 0.4 0.3 0.5-2.2 2.7 0.3-0.2 0.7-0.4 1-0.6 1.5-0.9 3.1-1.8 4.3-2.5 2.5-1.4 2.5-1.4 2.8-0.9 0.1 0.2 0.2 0.4-0.3 0.9-0.6 0.6-1.9 1.8-4.6 4.2-0.2 0.2-0.5 0.4-0.7 0.6 9-5.1 29.4-17.1 47.9-27.9 52.6-30.8 52.8-30.8 53.3-30.6 0.2 0 0.3 0.2 0.4 0.3 0.4 0.7 0.4 0.7-16 10.7-8.1 4.9-18.7 11.3-29.4 17.7 45.8-26.8 45.9-26.8 46.4-26.6 0.2 0 0.3 0.2 0.4 0.3 0.4 0.7 0.4 0.7-15.8 10.6-9.4 5.7-22.2 13.4-34.5 20.8-0.6 0.3-1.1 0.7-1.7 1 0 0 0.1 0 0.1-0.1 48.8-28.6 48.9-28.5 49.5-28.4 0.2 0 0.3 0.2 0.4 0.3 0.4 0.7 0.4 0.7-14.9 10.1-8.9 5.4-20.9 12.7-32.5 19.8-3 1.8-6 3.6-9 5.5 2.5-1.4 4.9-2.9 7.3-4.3 46.1-27 46.3-27 46.8-26.8 0.2 0 0.3 0.2 0.4 0.3 0.4 0.7 0.4 0.7-13.8 9.4-8.2 5-19.1 11.7-30 18.4-2.3 1.4-4.7 2.9-7.1 4.3 2.1-1.3 4.3-2.5 6.4-3.8 43.6-25.5 43.7-25.5 44.2-25.4 0.2 0 0.3 0.2 0.4 0.3 0.1 0.3 0.2 0.4-0.4 1-1.1 0.9-4.2 2.8-12.6 8-7.7 4.7-18 11-28.2 17.3-1.9 1.1-3.7 2.3-5.6 3.4 1.1-0.7 2.3-1.3 3.4-2 39.5-23.1 39.6-23.1 40-23 0.2 0 0.3 0.2 0.4 0.3 0.2 0.3 0.2 0.4-0.4 1-1 0.9-4 2.7-11.7 7.3-2.9 1.7-6.1 3.7-9.6 5.8 19.2-11.2 19.3-11.2 19.7-11.1 0.2 0 0.3 0.2 0.4 0.3 0.2 0.3 0.2 0.4-0.4 0.9-1 0.8-3.8 2.5-10.9 6.9-4.2 2.6-9.2 5.6-14.6 8.9 23.6-13.8 23.7-13.8 24.1-13.6 0.2 0 0.3 0.2 0.4 0.3 0.2 0.3 0.2 0.4-0.4 0.9-1 0.8-3.5 2.4-9.8 6.3-6 3.7-13.9 8.7-21.9 13.6 28.3-16.6 28.4-16.5 28.8-16.4 0.2 0 0.3 0.2 0.4 0.3 0.2 0.3 0.2 0.4-0.4 0.9-0.9 0.7-3 2.1-8.1 5.3-5 3.2-11.7 7.4-18.3 11.7-1.2 0.8-2.4 1.5-3.6 2.3 0.5-0.3 1.1-0.6 1.6-1 25.4-14.9 25.5-14.9 25.9-14.8 0.2 0 0.3 0.2 0.4 0.3 0.2 0.3 0.2 0.4-0.4 0.9-0.8 0.6-2.7 1.8-6.9 4.5-1.6 1-3.5 2.2-5.4 3.4 7.7-4.5 7.8-4.5 8.1-4.4 0.2 0 0.3 0.2 0.4 0.3 0.2 0.3 0.3 0.4-0.4 0.9s-2.1 1.5-5.1 3.4c-1.7 1.1-3.6 2.3-5.7 3.7 0.6-0.4 1.2-0.7 1.8-1 5.3-3.1 5.3-3.1 5.6-2.4 0.2 0.3 0.1 0.7-0.2 0.9 0 0-0.1 0-0.1 0.1-0.8 0.4-8.3 4.8-14.9 8.7-15.2 8.9-15.2 8.9-15.6 8.8-0.2 0-0.3-0.2-0.4-0.3-0.2-0.3-0.3-0.4 0.3-0.9 0.7-0.5 2.1-1.5 5.1-3.4 1.8-1.2 4-2.5 6.3-4-18.4 10.8-18.5 10.8-18.9 10.7-0.2 0-0.3-0.2-0.4-0.3-0.2-0.3-0.2-0.4 0.4-0.9 0.8-0.6 2.7-1.8 6.9-4.5 1.8-1.1 3.9-2.4 6.1-3.8-17.6 10.3-17.7 10.3-18 10.2-0.2 0-0.3-0.2-0.4-0.3-0.2-0.3-0.2-0.4 0.4-0.9 0.9-0.7 3-2.1 8.1-5.3 5-3.2 11.7-7.4 18.3-11.7 1.4-0.9 2.8-1.8 4.3-2.7-2.6 1.5-5.2 3-7.7 4.5-30.6 17.9-30.7 17.9-31.2 17.8-0.2 0-0.3-0.2-0.4-0.3-0.2-0.3-0.2-0.4 0.4-0.9 1-0.8 3.5-2.4 9.8-6.3 6-3.8 14.1-8.8 22.1-13.7 0.2-0.1 0.4-0.2 0.6-0.4-0.9 0.5-1.8 1.1-2.7 1.6-32.2 18.4-34.7 19.8-35.2 19.8z"/>
			<path class="st9" d="m376.9 292.1h-0.1c-0.2 0-0.3-0.2-0.4-0.3-0.1-0.3-0.2-0.4 0.4-0.9 1.1-0.9 4.2-2.8 12.4-7.7 1.6-1 3.4-2 5.2-3.1-16.6 9.7-16.7 9.6-17.1 9.5-0.2 0-0.3-0.2-0.4-0.3-0.1-0.3-0.2-0.4 0.4-1 1.1-0.9 4.2-2.8 12.3-7.7 3.7-2.3 8.1-4.9 12.7-7.7-28.6 16.7-28.8 16.7-29.2 16.6-0.2 0-0.3-0.2-0.4-0.3-0.1-0.3-0.2-0.4 0.4-1 1.1-0.9 4.3-2.9 13.1-8.3 8-4.9 18.7-11.5 29.4-18l7.8-4.8c-2.9 1.7-5.8 3.4-8.6 5.1-44.2 25.9-44.3 25.8-44.8 25.7-0.2 0-0.3-0.2-0.4-0.3-0.1-0.3-0.2-0.4 0.4-1 1.1-0.9 4.5-2.9 13.6-8.5 5.9-3.6 13.2-8 20.9-12.6-37.5 22-37.7 21.9-38.1 21.8-0.2 0-0.3-0.2-0.4-0.3-0.4-0.7-0.4-0.7 15.5-10.4 9.2-5.6 21.7-13.2 33.9-20.5 1.2-0.7 2.4-1.4 3.6-2.2-1.4 0.8-2.7 1.6-4.1 2.4-50.3 29.4-50.4 29.4-50.9 29.2-0.2 0-0.3-0.2-0.4-0.3-0.4-0.7-0.4-0.7 16.6-11 7.4-4.5 16.9-10.1 26.6-16-43.8 25.6-43.9 25.6-44.4 25.4-0.2 0-0.3-0.2-0.4-0.3-0.4-0.7-0.4-0.7 16.7-11 5.8-3.5 12.7-7.6 20.1-12-38.4 22.4-38.6 22.4-39 22.3-0.2 0-0.3-0.2-0.4-0.3-0.4-0.7-0.4-0.7 15.9-10.5 1.4-0.9 2.9-1.8 4.5-2.7-20.3 11.8-20.4 11.8-20.8 11.7-0.2 0-0.3-0.2-0.4-0.3-0.4-0.7-0.4-0.7 16.1-10.7 5.7-3.5 12.7-7.6 20.1-12-36.3 21.2-36.4 21.2-36.9 21-0.2 0-0.3-0.2-0.4-0.3-0.4-0.7-0.4-0.7 16.9-11.2 7.2-4.3 16.2-9.7 25.6-15.3-42.2 24.7-42.3 24.6-42.8 24.5-0.2 0-0.3-0.2-0.4-0.3-0.2-0.3-0.2-0.3 1.2-2.6-2.4 1.4-2.4 1.4-2.7 1.3-0.2 0-0.3-0.2-0.4-0.3s-0.1-0.1-0.3-1.9c0-0.3-0.1-0.7-0.1-0.9-0.1 0-0.3-0.1-0.4-0.3-0.2-0.3-0.1-0.7 0.2-0.9l0.2-0.1c0.2-0.1 0.6-0.4 1 0l0.1 0.1c0.1 0.1 0.1 0.1 0.3 2 0 0.2 0 0.5 0.1 0.7 0.4-0.2 0.9-0.5 1.3-0.7 2.4-1.4 2.4-1.4 2.7-1.4 0.2 0 0.3 0.2 0.4 0.3 0.2 0.3 0.2 0.3-1.3 2.8 6.9-3.8 30.7-17.8 52-30.3 53.9-31.5 54-31.5 54.5-31.3 0.2 0 0.3 0.2 0.4 0.3 0.4 0.7 0.4 0.7-16.9 11.2-6.9 4.2-15.5 9.3-24.5 14.7 36.3-21.2 36.5-21.2 36.9-21.1 0.2 0 0.3 0.2 0.4 0.3 0.4 0.7 0.4 0.7-16.1 10.7-5.7 3.4-12.5 7.5-19.8 11.9 34.3-20 34.4-20 34.9-19.9 0.2 0 0.3 0.2 0.4 0.3 0.4 0.7 0.4 0.7-15.9 10.5-1.7 1-3.5 2.1-5.5 3.3 28.1-16.4 28.3-16.3 28.7-16.2 0.2 0 0.3 0.2 0.4 0.3 0.4 0.7 0.4 0.7-16.7 11-5.6 3.4-12.4 7.4-19.6 11.7 36.3-21.2 36.5-21.2 36.9-21.1 0.2 0 0.3 0.2 0.4 0.3 0.4 0.7 0.4 0.7-16.6 11-7.1 4.3-15.9 9.6-25.1 15.1 36.2-21.2 36.3-21.1 36.8-21 0.2 0 0.3 0.2 0.4 0.3 0.4 0.7 0.4 0.7-15.5 10.4-9.2 5.6-21.8 13.2-33.9 20.5-0.6 0.4-1.3 0.8-1.9 1.2 44.2-25.8 44.3-25.8 44.8-25.7 0.2 0 0.3 0.2 0.4 0.3 0.1 0.3 0.2 0.4-0.4 1-1.1 0.9-4.5 3-13.6 8.5-5.7 3.5-12.8 7.7-20.2 12.2 33.2-19.4 33.3-19.4 33.8-19.3 0.2 0 0.3 0.2 0.4 0.3 0.4 0.7 0.4 0.7-13.5 9.3-8 4.9-18.7 11.5-29.4 18-2.4 1.5-4.9 3-7.3 4.5 2.1-1.3 4.3-2.5 6.4-3.7 42.2-24.7 42.3-24.7 42.8-24.6 0.2 0 0.3 0.2 0.4 0.3 0.1 0.3 0.2 0.4-0.4 1-1.1 0.9-4.2 2.8-12.3 7.7-3.5 2.1-7.6 4.6-12 7.3 23.6-13.8 23.8-13.8 24.2-13.7 0.2 0 0.3 0.2 0.4 0.3 0.1 0.3 0.2 0.4-0.4 1-1.1 0.9-4.2 2.8-12.4 7.7-1.7 1-3.6 2.2-5.5 3.3 18.6-10.9 18.8-10.8 19.2-10.7 0.2 0 0.3 0.2 0.4 0.3 0.2 0.3 0.1 0.7-0.2 0.9-0.1 0-0.1 0.1-0.2 0.1-1.6 0.7-22.4 12.9-40.8 23.7-38.6 22.2-41.4 23.7-41.9 23.7z"/>
			<path class="st9" d="m404.1 239.1h-0.1c-0.2 0-0.3-0.2-0.4-0.3-0.2-0.3-0.3-0.4 0.4-0.9 0.8-0.6 2.6-1.8 6.6-4.3 1.6-1 3.3-2.1 5.2-3.2-11.9 6.9-11.9 6.9-12.3 6.8-0.2 0-0.3-0.2-0.4-0.3-0.2-0.3-0.2-0.4 0.4-0.9 0.8-0.6 2.5-1.7 6.4-4.2 2.3-1.4 4.9-3.1 7.8-4.9-13.5 7.9-13.6 7.9-14 7.8-0.2 0-0.3-0.2-0.4-0.3-0.2-0.3-0.3-0.4 0.4-0.9 0.7-0.6 2.5-1.7 6.2-4.1 2-1.3 4.4-2.8 6.9-4.4-11.4 6.7-11.5 6.7-11.8 6.6-0.2 0-0.3-0.2-0.4-0.3-0.2-0.3-0.2-0.4 0.4-0.9 0.7-0.6 2.2-1.6 5.4-3.7 3.3-2.2 7.8-5.1 12.2-8.1-18.2 10.4-18.2 10.4-18.6 10.3-0.2 0-0.3-0.2-0.4-0.3-0.3-0.6-0.3-0.6 5.3-4.4 3.1-2.1 7.2-4.8 11.3-7.5 0.1-0.1 0.2-0.2 0.3-0.2-14.9 8.7-14.9 8.7-15.3 8.6-0.2 0-0.3-0.2-0.4-0.3-0.2-0.3-0.3-0.4 0.4-0.9 0.6-0.5 1.9-1.4 4.5-3.1 1.8-1.2 3.9-2.6 6.2-4.1-9.6 5.6-9.7 5.6-10 5.5-0.2 0-0.3-0.2-0.4-0.3-0.3-0.6-0.3-0.6 3.9-3.5 1.6-1.1 3.7-2.5 5.8-4-6.2 3.6-6.3 3.6-6.6 3.5-0.2 0-0.3-0.2-0.4-0.3-0.3-0.5-0.3-0.5 2.1-2.5 1.2-1 2.7-2.3 4.3-3.6 0.2-0.1 0.3-0.3 0.5-0.4-1.4 0.8-1.5 0.8-1.7 0.7l0.2-0.6 0.6-0.3-0.6 0.3-0.3-0.6c0.2-0.1 2.2-1.3 3.8-2.2 1.9-1.1 3-1.8 3.7-2.1 0.8-0.4 0.8-0.2 1 0.1 0.3 0.5 0.3 0.5-2.1 2.5-1.2 1-2.7 2.3-4.3 3.6-0.2 0.2-0.4 0.3-0.6 0.5 1.3-0.8 2.7-1.6 4.1-2.4 10.6-6.2 10.6-6.2 10.9-6.1 0.2 0 0.3 0.2 0.4 0.3 0.3 0.6 0.3 0.6-3.9 3.4-1.7 1.2-3.9 2.7-6.2 4.2 0.1-0.1 0.2-0.1 0.3-0.2 14.8-8.7 14.8-8.7 15.2-8.6 0.2 0 0.3 0.2 0.4 0.3 0.2 0.3 0.3 0.4-0.3 0.9s-1.9 1.4-4.5 3.1c-1.8 1.2-3.9 2.6-6.2 4.1 11.8-6.9 11.8-6.9 12.2-6.8 0.2 0 0.3 0.2 0.4 0.3 0.2 0.3 0.2 0.4-0.4 0.9s-2.1 1.5-5 3.4c-3.1 2.1-7.2 4.8-11.3 7.6-0.1 0.1-0.3 0.2-0.4 0.3 0.6-0.3 1.1-0.7 1.7-1 18.3-10.7 18.3-10.7 18.7-10.6 0.2 0 0.3 0.2 0.4 0.3 0.2 0.3 0.3 0.4-0.4 0.9-0.7 0.6-2.2 1.6-5.3 3.6-3.3 2.2-7.7 5.1-12.2 8-0.1 0.1-0.2 0.1-0.3 0.2 0.6-0.3 1.1-0.7 1.7-1 19.9-11.6 19.9-11.6 20.3-11.5 0.2 0 0.3 0.2 0.4 0.3 0.2 0.3 0.3 0.4-0.4 0.9-0.7 0.6-2.5 1.7-6.2 4.1-2.1 1.3-4.5 2.9-7.1 4.5 14.3-8.3 14.3-8.3 14.7-8.2 0.2 0 0.3 0.2 0.4 0.3 0.2 0.3 0.2 0.4-0.4 0.9-0.8 0.6-2.6 1.8-6.4 4.2-2.3 1.5-5 3.2-7.9 5 15.9-9.3 16-9.3 16.3-9.2 0.2 0 0.3 0.2 0.4 0.3 0.2 0.3 0.2 0.4-0.4 0.9-0.8 0.6-2.6 1.8-6.7 4.3-1.6 1-3.4 2.1-5.3 3.3 13.8-8.1 13.9-8 14.2-7.9 0.2 0 0.3 0.2 0.4 0.3 0.2 0.3 0.1 0.7-0.2 0.9-0.1 0-0.1 0-0.2 0.1-1 0.5-12.7 7.3-22.9 13.3-21.4 13.2-23.2 14.2-23.7 14.2z"/>
			<path class="st9" d="m365.2 271.1h-0.1c-0.2 0-0.3-0.2-0.4-0.3-0.4-0.7-0.4-0.7 16.1-10.8 9.1-5.5 21.4-12.9 33.5-20.2-50.3 29.5-50.5 29.4-51 29.3-0.2 0-0.3-0.2-0.4-0.3-0.4-0.7-0.4-0.7 14.8-9.8 1.4-0.8 2.8-1.7 4.3-2.6-21.2 12.4-21.4 12.3-21.8 12.2-0.2 0-0.3-0.2-0.4-0.3-0.4-0.7-0.4-0.7 14.2-9.6 5.1-3.1 11.3-6.8 17.9-10.8-33.9 19.8-34 19.8-34.5 19.7-0.2 0-0.3-0.2-0.4-0.3-0.4-0.6-0.4-0.6 7.1-5.5 4.2-2.7 9.7-6.4 15.3-10 1.4-0.9 2.7-1.8 4.1-2.7-1.4 0.8-2.8 1.7-4.2 2.5-23.1 13.5-23.1 13.5-23.5 13.4-0.2 0-0.3-0.2-0.4-0.3-0.2-0.3-0.2-0.4 0.4-0.9 0.7-0.6 2.5-1.7 6.2-4.1 3.1-2 7.1-4.6 11.3-7.2-20 11.7-20 11.7-20.4 11.6-0.2 0-0.3-0.2-0.4-0.3-0.2-0.3-0.3-0.4 0.4-0.9 0.7-0.6 2.5-1.7 6.2-4.1 2.6-1.6 5.7-3.6 9.1-5.8-16.8 9.8-16.9 9.8-17.3 9.7-0.2 0-0.3-0.2-0.4-0.3-0.2-0.3-0.2-0.4 0.4-0.9 0.7-0.6 2.4-1.7 5.9-4.1 3.7-2.5 8.6-5.7 13.5-9 1.1-0.7 2.3-1.5 3.4-2.2-1.1 0.7-2.3 1.3-3.4 2-20.4 12-20.4 12-20.9 11.9-0.2 0-0.3-0.2-0.4-0.3-0.2-0.3-0.2-0.4 0.4-0.9 0.7-0.6 2.2-1.6 5.5-3.8 3.4-2.3 7.9-5.3 12.5-8.4 1.1-0.8 2.3-1.5 3.4-2.3-1 0.6-1.9 1.1-2.9 1.7-18.4 10.8-18.4 10.8-18.8 10.7-0.2 0-0.3-0.2-0.4-0.3-0.2-0.3-0.3-0.4 0.4-0.9s2.1-1.5 5.2-3.4c1.5-1 3.2-2.1 5.1-3.3-11.7 6.8-11.8 6.8-12.1 6.7-0.2 0-0.3-0.2-0.4-0.3-0.3-0.4-0.3-0.4 3.7-4.7l0.6-0.6c-0.1 0.1-0.2 0.1-0.3 0.2-4.6 2.7-4.6 2.7-5 2.1-0.2-0.4-0.2-0.4 2.5-4 0.1-0.2 0.3-0.4 0.5-0.6-2.3 1.3-2.3 1.3-2.6 1.3-0.2 0-0.3-0.2-0.4-0.3-0.2-0.3-0.2-0.3 0.5-2.1-0.1 0-0.1 0.1-0.2 0.1-2.4 1.4-2.4 1.4-2.7 0.8-0.2-0.3-0.2-0.3 0.5-2.3 0.3-0.8 0.5-1.7 0.6-1.8h0.1l-0.1-0.3 0.2-0.1c0.2-0.1 0.6-0.3 0.9 0 0 0 0.1 0.1 0.1 0.2 0.1 0.2 0.1 0.2-0.5 2.3 0 0.1 0 0.1-0.1 0.2 0.1-0.1 0.3-0.2 0.4-0.2 2-1.2 2-1.2 2.3-1.1 0.2 0 0.3 0.2 0.4 0.3 0.2 0.3 0.2 0.3-0.5 2.1 0.3-0.2 0.5-0.3 0.8-0.5 2.7-1.6 2.7-1.6 3-1.5 0.2 0 0.3 0.2 0.4 0.3 0.2 0.4 0.2 0.4-2.4 3.9-0.2 0.2-0.4 0.5-0.5 0.7 0.4-0.3 0.9-0.5 1.3-0.8 4.3-2.5 4.3-2.5 4.6-2.5 0.2 0 0.3 0.2 0.4 0.3 0.3 0.4 0.3 0.4-3.7 4.7-0.2 0.3-0.5 0.5-0.7 0.8 3.6-2.1 9.2-5.4 14.4-8.4 18.2-10.7 18.2-10.7 18.6-10.6 0.2 0 0.3 0.2 0.4 0.3 0.2 0.3 0.3 0.4-0.4 0.9s-2.1 1.5-5.2 3.4c-1.5 1-3.2 2.1-5 3.2 12-7 12-7 12.4-6.9 0.2 0 0.3 0.2 0.4 0.3 0.2 0.3 0.2 0.4-0.4 0.9-0.7 0.6-2.2 1.6-5.5 3.8-3.4 2.3-7.9 5.4-12.5 8.4l-3.6 2.4c1.7-1 3.5-2 5.1-3 20.3-11.9 20.3-11.9 20.8-11.8 0.2 0 0.3 0.2 0.4 0.3 0.2 0.3 0.2 0.4-0.4 0.9-0.7 0.6-2.4 1.7-5.9 4.1-3.7 2.5-8.6 5.7-13.5 9l-3.6 2.4c1.6-0.9 3.2-1.9 4.8-2.8 21.7-12.7 21.7-12.7 22.1-12.6 0.2 0 0.3 0.2 0.4 0.3 0.2 0.3 0.2 0.4-0.4 0.9-0.7 0.6-2.5 1.7-6.2 4.1-2.6 1.6-5.7 3.6-9 5.7 17.4-10.2 17.4-10.2 17.8-10.1 0.2 0 0.3 0.2 0.4 0.3 0.2 0.3 0.2 0.4-0.4 0.9-0.7 0.6-2.5 1.7-6.2 4.1-3.2 2-7.2 4.6-11.5 7.3 22.4-13.1 22.4-13.1 22.8-13 0.2 0 0.3 0.2 0.4 0.3 0.2 0.3 0.2 0.4-0.4 0.9-0.8 0.6-2.6 1.9-6.7 4.6-4.2 2.7-9.7 6.4-15.3 10-2 1.3-4 2.6-5.9 3.9 8.6-5 19.4-11.3 29.6-17.3 46.4-27.2 46.5-27.1 47-27 0.2 0 0.3 0.2 0.4 0.3 0.1 0.3 0.2 0.4-0.4 1-1.1 0.9-4.5 3-13.8 8.6-5.3 3.2-11.7 7.1-18.5 11.2 38.2-22.3 38.3-22.3 38.8-22.2 0.2 0 0.3 0.2 0.4 0.3 0.1 0.3 0.2 0.4-0.4 1-1.2 0.9-4.6 3-14.3 8.9-1.6 1-3.3 2-5.2 3.1 29.4-17.2 29.6-17.1 30-17 0.2 0 0.3 0.2 0.4 0.3 0.4 0.7 0.4 0.7-16.1 10.7-9.1 5.5-21.2 12.8-33.2 20 47.9-28 48-28 48.6-27.9 0.2 0 0.3 0.2 0.4 0.3 0.2 0.3 0.1 0.7-0.2 0.9-0.1 0-0.1 0.1-0.2 0.1-1.8 0.8-27.8 16-50.7 29.4-47.8 28-51 29.8-51.6 29.8zm-20.6-27.5z"/>
			<path class="st9" d="m354.8 246.6h-0.1c-0.2 0-0.3-0.2-0.4-0.3-0.3-0.5-0.3-0.5 3.4-3.3 1.9-1.4 4.5-3.3 7.1-5.3 0.5-0.3 0.9-0.7 1.4-1-0.4 0.2-0.8 0.4-1.1 0.7-11 6.4-11 6.4-11.3 6.3-0.2 0-0.3-0.2-0.4-0.3-0.3-0.5-0.3-0.5 3-3.1 1.7-1.3 4.1-3 6.4-4.7 0.2-0.1 0.3-0.3 0.5-0.4-0.2 0.1-0.5 0.3-0.7 0.4-10.3 6.1-10.3 6.1-10.7 6-0.2 0-0.3-0.2-0.4-0.3-0.3-0.5-0.3-0.5 2.9-2.9 1.3-1 3-2.2 4.7-3.4-8.5 5-8.5 5-8.8 4.9-0.2 0-0.3-0.2-0.4-0.3-0.3-0.5-0.3-0.5 2.7-2.9 1.5-1.2 3.5-2.8 5.6-4.4l1.5-1.2c-0.5 0.3-0.9 0.5-1.4 0.8-8.9 5.2-8.9 5.2-9.2 5.1-0.2 0-0.3-0.2-0.4-0.3-0.3-0.5-0.3-0.5 2.5-2.8 1.4-1.1 3.3-2.7 5.2-4.2 0.4-0.3 0.7-0.6 1.1-0.9l-1.5 0.9c-8.9 5.2-8.9 5.2-9.2 5.1-0.2 0-0.3-0.2-0.4-0.3-0.3-0.5-0.3-0.5 2.6-2.6 0.7-0.5 1.5-1 2.3-1.6-5.6 3.3-5.6 3.2-5.9 3.2-0.2 0-0.3-0.2-0.4-0.3-0.3-0.5-0.3-0.5 2.3-2.6 1.3-1 3-2.4 4.7-3.8 0.2-0.1 0.3-0.2 0.5-0.4-1.6 0.9-3.2 1.9-4.4 2.6-2.7 1.6-2.7 1.6-3 1-0.3-0.5-0.3-0.5 2-2.5 1.1-1 2.7-2.3 4.2-3.6 0.2-0.2 0.5-0.4 0.7-0.6-5.5 3.2-5.5 3.2-5.8 3.1-0.2 0-0.3-0.2-0.4-0.3-0.1-0.2-0.2-0.4 0.3-0.9 0.6-0.6 1.8-1.7 4.5-4.1-2.5 1.5-3.8 2.2-4.5 2.6l-0.1 0.1c-0.8 0.4-0.9 0.2-1-0.1-0.1-0.2-0.2-0.4 0.3-0.9h0.1c0.5-0.5 1.6-1.4 3.6-3.1-3.2 1.9-3.2 1.8-3.5 1.3-0.2-0.4-0.2-0.4 3.1-4.2 0.1-0.1 0.2-0.3 0.3-0.4l-1.2 0.7c-1.1 0.6-1.4 0.8-1.8 0.3-0.2-0.4-0.3-0.4 1.7-2.6-1 0.6-1.1 0.5-1.3 0.1s-0.2-0.4 1.2-2.7c0-0.1 0.1-0.1 0.1-0.2h-0.1l0.2-0.6-0.3-0.6c0.1 0 0.4-0.2 0.8-0.5 1-0.6 1-0.6 1.3-0.5 0.1 0.1 0.3 0.1 0.3 0.3 0.2 0.3 0.2 0.4-1.1 2.6 1.8-1.1 1.8-1.1 2.1-1 0.2 0 0.3 0.2 0.4 0.3 0.2 0.4 0.2 0.4-1.7 2.6 2.7-1.6 2.7-1.6 3.1-1 0.3 0.4 0.3 0.4-3.1 4.2l-0.4 0.4c0.4-0.2 0.7-0.4 1.1-0.6 4.8-2.8 4.8-2.8 5.1-2.7 0.2 0 0.3 0.2 0.4 0.3 0.1 0.2 0.2 0.4-0.3 0.9h-0.1c-0.5 0.5-1.6 1.4-3.6 3.1 3.8-2.2 3.9-2.2 4.1-2.2s0.3 0.2 0.4 0.3c0.1 0.2 0.2 0.4-0.3 0.9-0.6 0.6-1.8 1.7-4.4 4.1 0.1-0.1 0.2-0.1 0.3-0.2 5.9-3.5 5.9-3.5 6.2-3.4 0.2 0 0.3 0.2 0.4 0.3 0.3 0.5 0.3 0.5-2.1 2.5-1.2 1-2.7 2.3-4.2 3.6-0.2 0.2-0.5 0.4-0.7 0.6 0.2-0.1 0.5-0.3 0.7-0.4 7-4.1 7-4.1 7.3-4 0.2 0 0.3 0.2 0.4 0.3 0.3 0.5 0.3 0.5-2.3 2.6-1.3 1-3 2.4-4.7 3.8-0.2 0.1-0.3 0.3-0.5 0.4 0.5-0.3 1-0.6 1.6-0.9 8.7-5.1 8.7-5.1 9-5 0.2 0 0.3 0.2 0.4 0.3 0.3 0.5 0.3 0.5-2.7 2.7-0.7 0.5-1.4 1-2.2 1.6 5.8-3.4 5.9-3.4 6.2-3.3 0.2 0 0.3 0.2 0.4 0.3 0.3 0.5 0.3 0.5-2.5 2.8-1.4 1.1-3.3 2.7-5.2 4.2-0.4 0.3-0.7 0.6-1.1 0.9l1.5-0.9c8.9-5.2 8.9-5.2 9.2-5.1 0.2 0 0.3 0.2 0.4 0.3 0.3 0.5 0.3 0.5-2.7 2.9-1.5 1.2-3.5 2.8-5.6 4.4l-1.5 1.2c0.7-0.4 1.5-0.9 2.2-1.3 9.7-5.7 9.7-5.7 10.1-5.6 0.2 0 0.3 0.2 0.4 0.3 0.3 0.5 0.3 0.5-2.9 2.9-1.3 1-3 2.2-4.7 3.4 9.8-5.7 9.8-5.7 10.1-5.6 0.2 0 0.3 0.2 0.4 0.3 0.3 0.5 0.3 0.5-3 3.1-1.7 1.3-4.1 3-6.4 4.7-0.2 0.1-0.4 0.3-0.5 0.4 0.5-0.3 0.9-0.5 1.4-0.8 11-6.4 11-6.4 11.3-6.3 0.2 0 0.3 0.2 0.4 0.3 0.3 0.5 0.3 0.5-3.4 3.3-1.9 1.4-4.6 3.4-7.1 5.3-0.5 0.3-0.9 0.7-1.4 1 0.8-0.5 1.6-1 2.4-1.4 3-1.8 6-3.5 8.2-4.8 4.3-2.5 4.3-2.5 4.7-1.9 0.2 0.3 0.1 0.7-0.2 0.9 0 0-0.1 0-0.1 0.1-0.6 0.3-6.6 3.8-11.9 6.9-11.2 5.9-12.3 6.6-12.7 6.6z"/>
			<path class="st10" d="m381.1 314.1c0.3-0.1 0.1-0.4-0.7-0.3l-0.6 0.4 1.3-0.1z"/>
			<path class="st10" d="m375.6 313.1c-1 0.1-2.1 0.4-1.5 0.8 1-0.3 1.2-0.1 2.3-0.5 0.8 0 1.4 0.2 1.3 0.4 0.3-0.1 1.3 0.1 1.7-0.1-1.1-0.3-2.4-0.4-3.8-0.2-0.4-0.3-0.1-0.3 0-0.4"/>
			<path class="st10" d="m379.1 290.8l-0.6 0.4c0.1-0.1 0.3-0.3 0.6-0.4"/>
			<path class="st10" d="m368.3 270.2c0.2 0.1 0.3 0.1 0.4 0.2-0.1-0.1-0.2-0.2-0.4-0.2"/>
			<path class="st10" d="m358.4 265.6c0.1 0.1 0.3 0.2 0.4 0.3-0.1-0.2-0.3-0.3-0.4-0.3"/>
			<path class="st10" d="m379.1 290.8l1.6-1.1c-0.2 0-0.9 0.6-1.6 1.1"/>
			<path class="st10" d="m364.5 312.5h0.7-0.7c0.1 0 0 0 0 0"/>
			<path class="st10" d="m358.6 300.7l-0.4 0.1c-0.1 0.1-0.2 0.2-0.3 0.2l0.7-0.3z"/>
			<path class="st10" d="m344.6 302.2c0.2 0-0.6-0.3-0.9-0.5 0.2 0.1 0.2 0.2 0.1 0.2 0.2 0.1 0.4 0.2 0.8 0.3"/>
			<path class="st10" d="m361.2 310.2l0.5 0.1c-0.2 0-0.4 0-0.5-0.1"/>
			<path class="st10" d="m370 296.8s0.1 0.1 0.2 0h-0.2"/>
			<path class="st10" d="m400.7 312.6c-0.1 0-0.2 0 0 0"/>
			<path class="st10" d="m381.1 313.1h0.3c0-0.1 0.1-0.1 0.1-0.2l-0.4 0.2z"/>
			<path class="st10" d="m349 254.7c0.3 0.4 0.1 0.2 0 0"/>
			<path class="st10" d="m405.7 229c-0.5 1.5 0-2.5-0.7-0.3 0.1-0.1 0.1 0.4 0.2 0.8 0.2 0.3 0.3 0.4 0.5-0.5"/>
			<path class="st10" d="m364.1 312.4c-0.2-0.1-0.4-0.1-0.7-0.2 0.3 0.1 0.5 0.2 0.7 0.2"/>
			<path class="st10" d="m405 228.7v0.3-0.3"/>
			<path class="st10" d="m351.3 238.8c0 0.1 0 0.2 0.1 0.4 0-0.1 0-0.2-0.1-0.4"/>
			<path class="st10" d="m345.9 246.7v-0.5 0.2c-0.1 0.1-0.1 0.2 0 0.3"/>
			<path class="st10" d="m346 226.9c0-0.3 0-0.5-0.1-0.9v0.1c0.1 0.2 0.2 0.4 0.1 0.8"/>
			<path class="st10" d="m347.9 213.3l-0.2 0.2c0 0.1-0.1 0.3-0.1 0.4l0.3-0.6z"/>
			<path class="st10" d="m438.4 290.4c-0.3 0.2-0.5 0.2-0.7 0.3 0.4 0-1 1.6 0.7-0.3"/>
			<path class="st10" d="m364.6 312.3c-0.1 0.1-0.2 0.1-0.5 0.1 0.2 0 0.3 0.1 0.5 0.1v-0.2"/>
			<path class="st10" d="m343.2 226.6c-0.1-0.8-0.1-1.6-0.1-2.4 0 0.7 0 1.5 0.1 2.4"/>
			<path class="st10" d="m462.9 218.8"/>
			<path class="st10" d="m343.8 217c0.2-0.4 0.4-0.8 0.6-1.3v-0.3c-0.3 0.6-0.4 1.1-0.6 1.6"/>
			<path class="st10" d="m437.7 290.7z"/>
			<path class="st10" d="m426.7 301.3c1.8-1.3 0.6-1 0.8-1.5 2.1-1.7 1.2-0.5 2-0.8 1.2-1.1 2-2.2 2.9-3.1 0.1 0 0.3-0.1 0.2 0.1 1.1-1.4 3.8-3.5 4.9-5.3 0.1-0.1 0.2-0.1 0.3-0.1-0.4 0.1-0.6 0-0.7-0.2 0.7-0.7 1-1.5 1.5-1.6-0.4 0.4-0.4 0.6-0.5 0.8l0.6-0.8c1-0.4-0.8 1.1-0.6 1.4 1.3-1.6 2.5-3.6 3.6-4.7 0.5 0-2.2 2.9-0.6 1.5-0.6 0.6-1.1 1.2-1.7 1.7 1.7-0.9-1 1.1 0.7 0.3 2.1-2.4 2.1-2.8 4.1-5.3 0.2-0.7-0.4 0-0.2-0.7 2.2-3.9 2.9-2.3 4.2-5.4 0.2-0.9-0.1-1.4 1.3-3.3v0.9c1.5-2.6 0.2-1.8 2-4.5-0.1 0.6-0.9 2.2-0.7 1.8 1.3-1.7 0.4-1.4 1.1-2.9l0.5-0.1c1.3-3 2.3-6.4 3.4-9.9 0.1 0.2 0 0.9 0.4 0.1 1.2-4.4 2.6-9.3 3.5-13.7 0-0.6-0.1-1.1-0.2-1.7 0-0.4 0.3-0.7 0.3-0.3 0.3-1.7-0.2-0.1-0.3-0.9 0.1-1 0.3-1.3 0.4-0.6 0-1.5 0-3.7-0.1-5.8 0-1.1 0-2.2-0.1-3.2v-0.7-0.3-0.1l0.2-0.1c0.1-0.1 0.2-0.1 0.3-0.1l-0.1 0.2c0.1-0.1 0.2-0.1 0.3-0.2 0.2-0.1 0.3-0.3 0.5-0.5 0.3-0.3 0.5-0.6 0.7-0.9 0.4-0.6 0.8-1.1 1.8-1.7l-0.3 0.3c1-0.9 2.1-1.8 3-2.8 0.5-0.5 1-1 1.4-1.5 0.5-0.5 0.8-0.9 1.5-1.7 0.6-0.7 1.2-1.5 1.8-2.2s1.1-1.5 1.6-2.2c0.6-0.8 1.1-1.5 1.6-2.2 0.3-0.4 0.6-0.8 0.9-1.1 0.2-0.2 0.3-0.4 0.5-0.6s0.2-0.3 0.3-0.4c-0.2 0.1-0.3 0.1-0.3 0-1.4 0.7-3.3 1.4-5.1 2.2-0.9 0.4-1.7 0.7-2.3 1s-1 0.5-1.2 0.7c-1 0.2-1.8 0.4-2.1 0.4h-0.5-0.2c-0.2-0.1-0.5-0.1-0.6-0.2-0.1 0-0.4 0.2-0.8 0.4s-1 0.5-1.5 0.6l1.2-0.7-1 0.4c-0.2 0.1-0.3 0.1-0.4 0.1l1.7-0.8v-0.1c-0.2 0.1-0.7 0.4-1 0.5 0.1-0.2 0.8-0.6 1.2-0.9 0.5-0.3 0.7-0.3 0.8-0.3l0.1-0.1 0.4-0.5 0.8-1c0.5-0.7 0.9-1.4 1.4-2.2 0.1 0.2-0.4 0.9-0.7 1.5 1.3-2.5 0.7-0.1 1.7-2.5-0.3 0.2-0.1-0.2-0.1-0.4 0.3-0.4 0.6-1 1-1.6 0.3-0.7 0.8-1.5 1.1-2.3 0.6-1.6 1.2-3.2 1.6-4.7 0.1 0 0.2 0.1 0.2 0.2 0.1-0.3 0.2-0.6 0.3-1 0.1-0.2 0.1-0.5 0.2-0.8-1.5 0.8-3 1.7-4.5 2.6s-3 1.7-4.4 2.4l-1.2 0.6-1.2 0.5c-0.8 0.3-1.6 0.7-2.4 0.9 1.4-0.4 1.2 0.2 0.1 0.6l-0.6-0.2c-0.6 0.5 1.2-0.2-0.2 0.5-1.4 0.4-1.1-0.1-0.3-0.5l-1.7 0.7c-0.1-0.1 0.2-0.3 0.3-0.5-0.3 0.2-1.1 0.3-1.9 0.5-0.4 0.1-0.8 0.1-1.2 0.2-0.2 0-0.4 0.1-0.5 0.2-0.1 0-0.2 0.1-0.2 0.1v0.1-0.1h-0.1l-0.1-0.1c-0.2-0.2-0.4-0.3-0.5-0.5-0.6-0.6-1.2-1-1.8-1.5-1.2-0.9-2.3-1.6-3.8-2.5-0.2 0.3-1.4-0.5-2.4-0.6-2.2-1.1-4.9-2.3-7.9-2.7-2.2-0.1-0.7 0.2-1.6 0.3-0.1-0.4-3.2-0.4-1.6-0.6-0.9 0-1.7 0.1-2.4 0.1s-1.3 0.1-1.9 0.2-1.3 0.3-2.1 0.4c-0.8 0.2-1.7 0.5-2.8 0.9 0.5 0 1.1-0.1 0.8 0.1-0.8 0.2-1.8 0.5-1.8 0.3l0.2-0.1c-2.4 1-5.1 2.2-7.6 3.7s-4.5 3.4-5.6 5.3l0.1-0.2c-0.8 1.2-1.6 2.4-2.2 3.7-1.1 1.7 0.4-1.1-0.5 0-0.9 2.2-1.6 3.8-2.2 5.5-0.6 1.6-1 3.2-1.1 5.2-0.1 0.2-0.2 0.5-0.3 0.9-0.1 0.3-0.1 0.7-0.2 1.1-0.1 0.8-0.2 1.7-0.2 2.6s0.1 1.9 0.3 2.9v0.3 0.1 0.1l0.1 0.3c-0.3 0-0.1 0-1.6-0.3l0.2 0.2c-1 0.2-1.1-0.3-1.8-0.4 0.1 0.2 1 0.3 0.4 0.4-8.2-0.7-16.5-3.6-23.9-7.5-2.7-1.4-2.1 0.3-5.2-2l1.2 0.2c-2.8-1.2-5.5-3-8-4.8-2.5-1.9-4.9-3.9-7.2-5.8 0.3 0.2 0.4 0.1 0.8 0.5-0.7-1.1-3.4-3.3-3.6-3.1-0.6-0.7 0-0.3-0.3-0.8-0.2-0.3-0.4-0.5-0.7-0.8l-0.4-0.4-0.2-0.2-0.3-0.3c-0.8-0.8-1.5-1.5-1.8-2.1-0.1-0.2 0.4 0.3 0.7 0.6-0.5-0.4-1.5-1.6-2.4-2.5l-0.3-0.3s0-0.1-0.1 0l-0.1 0.1c0 0.1-0.1 0.1-0.1 0.2-0.1 0.3-0.2 0.5-0.3 0.7-0.2 0.3-0.2 0.5 0 0.3-0.5 0.8-1 1.6-1.4 2.5-0.2 0.4-0.4 0.8-0.6 1.3-0.1 0.3-0.2 0.5-0.3 0.8-0.4 1-0.7 2-1 3 0 1.3-1.1 4.1-0.5 4.5-0.3-0.1-0.5 0.9-0.6 2.2s0.1 2.8 0.3 3.5c-0.2-0.5 0 1.4-0.3 0.8 0.1 0.9 0.3 1.7 0.4 2.3 0.2 0.6 0.4 0.9 0.5 0.7 0 1.7 0.7 3.2 1.3 4.5 0.7 1.3 1.3 2.4 1.4 3.4 1.1 1.8 2.4 3.4 3.8 4.8l0.3 0.3 0.2 0.2c0.1 0.1 0.3 0.2 0.4 0.4 0.3 0.3 0.7 0.5 1.1 0.8 0.2 0.2 0.5 0.3 0.7 0.4 0 0 0.2 0.1 0.1 0.1h-0.1-0.3c-0.4-0.2-0.5-0.3-0.4-0.4-0.2-0.1-0.4-0.3-0.6-0.4-0.3-0.2-0.6-0.5-1.1-0.6l0.6 0.3c0.2 0.1 0.3 0.2 0.5 0.3l0.3 0.2c0.1 0 0 0.1 0 0.1 0 0.1-0.1 0.2-0.3 0.2-0.4 0.1-1.1 0-1.8-0.3-0.1-0.1-0.2-0.1-0.1-0.1h0.2c0.1 0 0.3-0.1 0.3-0.1h-0.2-0.1l-0.3-0.1c-0.5-0.1-1-0.3-1.5-0.5-1.5-0.6-3.3-1.6-4.9-2.4-0.1 0.2-0.1 0.6-0.1 1v1.1c0 0.7 0 1.5 0.1 2.2 0 0.4 0 0.7 0.1 1.1l0.2 0.9c0.1 0.5 0.2 0.9 0.3 1.4-0.1 0-0.2-0.4-0.3-0.8 0.1 0.8 0.2 1.8 0.5 1.7l-0.2-0.7c0.1-1.3 1.4 2.8 1.7 2.8-0.5-0.5-0.3 0.4-0.1 1.3 0.2 0.8 0.5 1.6-0.4 0.8 0.2 0.5 0.6 1 0.7 0.8 0.2 0.7 0.2 1-0.2 0.3 0.6 1.3 1 1.6 1.2 1.9 0.3 0.3 0.5 0.7 1.1 1.7-0.1 0.1-0.4-0.3-0.7-0.5 0.4 0.5 0.9 1 1.4 1.5 0.5 0.6 1 1.2 1.6 2.1-0.1-0.1-0.1 0.2-0.4-0.3 1.1 1.4 2.4 2.4 3.6 3.4 0.6 0.5 1.3 0.9 2 1.4s1.4 1 2.2 1.6c-0.6-0.1-0.4 0.2 0 0.4 0.1 0.1 0.2 0.1 0.3 0.2s0.2 0.2 0.3 0.2c0.1 0.1 0.1 0.2 0 0.3 0.2 0.1 0.5 0.2 0.9 0.3v-0.2c0.3 0.1 0.7 0.3 1.1 0.4s0.9 0.2 1.3 0.3c0.3 0.1 0.6 0.2 0.7 0.2-0.5-0.1-1-0.2-1.4-0.3 0.3 0.1 0.7 0.2 1 0.3l0.5 0.1 0.3 0.1s-0.1 0-0.2 0.1h0.2 0.1-0.1l-0.2-0.1c1 0.2 1.6 0.3 2.1 0.3 0.2 0 0.4 0.1 0.6 0.1 0.1 0 0.2 0 0.4 0.1-0.1 0-0.4 0.1-0.7 0.1 0.3-0.1-1.7 0.4-3.1 0.2-0.2 0.2-0.8 0.5-2.1 0.4-0.4-0.1-0.4-0.5-0.7-0.6 0 0.2-0.7 0.3-1.4 0.2-1.4-0.1-3-0.3-3.4-0.2 0.3 0 0.1-0.3-0.2-0.4-0.2 0.1-0.4 0.1-0.5 0.2v0.1c-0.1 0-0.1 0.1 0 0.2v0.2 0.3c0 0.1-0.1 0.1-0.3-0.1 0.6 1.7 0.6 1.4 0.7 1.3s0.1-0.2 0.7 1.5c-0.1-0.3-0.1-0.1-0.4-0.7 0.2 0.4 0.3 0.9 0.6 1.3 0.2 0.4 0.3 0.7 0.5 1.1 0.4 0.6 0.7 1.3 1.1 1.9 0.8 1.2 1.7 2.3 2.5 3.4 0.2 1-1.6-1.9-1.4-0.9 2.6 3.3 6.3 5.7 9.7 7.6-0.2-0.1-0.4-0.2-0.6-0.4 0.8-0.3 2.5 1.6 4.5 2-0.5-0.1-0.7 0.1-0.6 0.1 1.2 0.4 2.4 0.8 3.8 1 0.8 0.1 1.8 0.1 3.3 0.1h0.3l-0.2 0.2c-0.1 0-0.1-0.1-0.2-0.1-1.2 0.7-2.1 1.5-3.2 2.1-0.3 0.4-1.1 0.9-0.5 0.8-2.4 0.9-4.5 2.1-6.6 3.2s-4.2 2-6.5 2.3c0.5-0.1 1.2-0.5 0.8-0.4-1.2 0.4-2.4 0.8-3.7 1.1 0.4 0.2 0.5 0.1 1.4 0.1-0.4 0.3-1.5 0.7-2.4 0.9 1.7-0.5-0.1-0.4-0.9-0.5 0.1 0.1-0.1 0.2 0 0.3-2.1-0.1-0.2 0.7-3 0.7l0.1-0.2c-1 0.2-1.9 0.5-3.1 0.6-0.5-0.3 1.1-0.2 1.1-0.5-1.6 0.2-3 0.9-4.6 0.6 0.7-0.1 1.8-0.1 2.4-0.3-0.4-0.1-0.7-0.1-1-0.2-0.3 0-0.6-0.1-0.8-0.1h-1.7 0.2c-1.2 0-2.6-0.2-4.3-0.4l1.4 0.2c-0.4 0.2-0.9 0.3-1.5 0.3s-1.5-0.1-2.3-0.2c-0.1 0-0.2 0-0.4 0.1h-0.2-0.1s0.1 0.1 0.2 0.1c0.6 0.3 1.3 0.7 2.1 1.1-2-0.9-2.5-1.1-2.4-1 0 0.1 0.4 0.4-0.3 0.2 0.4 0.4 1.4 1.1 0.7 0.8 1.2 0.5 1.6 0.9 2.2 1.3 0.3 0.2 0.7 0.4 1.1 0.7s1.1 0.5 1.8 0.8c-0.1 0.1 1.7 0.9 1 0.9 1.2 0.6 1 0.5 0.7 0.2s-0.9-0.6-0.7-0.6c0.4 0.2 0.9 0.4 1.3 0.6 0.5 0.2 0.8 0.4 1.1 0.5 0.7 0.3 1.3 0.7 2.1 1.1 1.4 0.8 3.1 1.5 4.9 1.9 1.5 0.4 2.5 0.6 3.4 0.7s1.8 0.2 3.2 0.5c0.9 0.5-0.9 0.2-0.9 0.2 1.5 0.6 2.7 0.9 4.1 1.1-0.3 0 0 0.2 0.4 0.4 1.2 0.2 0.9-0.3 2.4 0.2-0.3 0.1-0.7 0.2-1.3 0.2 1.4 0.2 2.8 0.2 4.3 0.3 0.4 0.3-0.9 0.2-1.5 0.2 1.6 0.2 4.3 0.4 4.8 0.1-0.3-0.1-0.7-0.2-1-0.2 0.6 0.1 0.3 0.3-0.2 0.3-1.4 0.1-2-0.4-2.1-0.5l1 0.1c-1-0.8-4.1-0.5-6.2-1l1-0.3h-2.2c-0.4-0.2-0.6-0.6 0.4-0.4-1.4-0.6-1.3-0.1-2.5-0.7-0.1-0.1-0.1-0.1 0.1-0.1l-1.4-0.2c0.3 0-0.1-0.4 0.7-0.1-2.4-1-4.1-0.9-4.9-1.6h0.2c-3.5-1.1-0.5 0.3-3.2-0.3-0.5-0.5-0.9-1-1.3-1.6l-0.5 0.2c-0.3-0.2-1-0.5-0.8-0.6-1.4-0.3 0.1 0.2-0.7 0.2-0.7-0.5-1.9-1.1-2.8-1.5s-1.6-0.9-1.2-1c-0.5-0.1-0.3 0.1-0.1 0.2 0.1 0.1 0.2 0.2-0.8-0.2 0.3-0.2-0.1-0.4-0.8-0.7s-1.7-0.7-1.9-1c1.5 0.5 1.8 0.9 1.8 0.5-1.7-0.5-2.7-1.3-0.5-0.7 0.4 0.1 0.7 0.1 0.8 0.1-0.7-0.2-0.2-0.2 0.6-0.2s1.8 0.1 2.8 0c0 0.1 0.8 0.2 2.3 0.1 1.4 0 3.1-0.1 4.2-0.2l-0.1 0.1c0.2-0.3 0.8-0.5 1.6-0.6 0.8-0.2 1.8-0.4 2.6-0.6 0 0.3-0.3 0.5-1.1 0.8l1.5-0.3c0.3-0.2 0.8-0.4 1.7-0.7l-0.3 0.4c2-0.6 3.9-1.5 6.5-2.3 0-0.4-2.3-0.1 0.2-1.3 0.2 0.1 0.4 0.4-0.3 0.7 0.2-0.1 0.7-0.5 1.2-0.6l-0.9 0.7c1.2-0.4 0.5-0.5 1.4-0.8 0.1 0.2 0.7-0.1 0.7 0.1-0.2 0.1-0.8 0.2-1.1 0.5 1-0.4 2.3-0.8 2.8-0.8-0.1-0.1-0.1-0.3 0.6-0.7 1.8-1 0.8-0.1 1.9-0.5 0.4-0.4 1.6-0.9 1.4-1.2 0.5-0.3 0.7-0.2 1-0.2 0.1-0.1 0.2-0.2 0.4-0.3s0.4-0.3 0.7-0.5c0.6-0.4 1.2-0.8 1.7-1.2 1-0.8 1.6-1.3 0.7-0.8l-0.3 0.2 0.1-0.1c0.4-0.4 0.9-0.7 1.3-1.1l0.7-0.6 0.4-0.3-0.2-0.1c-0.7-0.1-1.4-0.1-2.2-0.2s-1.5-0.2-2.3-0.4c-0.4 0-0.8-0.2-1.2-0.2l-0.9-0.2c-0.6-0.1-1.2-0.3-1.7-0.5v-0.1c-2-0.5-4.2-1.5-5.5-2.1-0.5-0.3-1.1-0.9-0.8-0.9-1.3-0.8-1.6-0.8-3.1-2.3 1.3 0.8-0.3-0.5 1.3 0.9-1.5-1.3-1.7-1.8-3.4-3.1 0.7 0.3-0.7-1.3-1.3-2.1 0.2 0.4 0.4 0.8 0.7 1.2-0.7-0.8-1.3-1.5-1.7-2.3l0.6 0.2c-0.7-1.4-1.4-2.5-2.1-3.6-0.1-0.2-0.1-0.2-0.2-0.2l-0.1-0.2c-0.1-0.1-0.2-0.3-0.3-0.4-0.1-0.2-0.2-0.3-0.3-0.5l-0.1-0.2v-0.1c0-0.1 0.1 0 0.1 0 0.4 0.1 0.9 0.2 1.3 0.5 0.2-0.1 0-0.2-0.4-0.3-0.3-0.1-0.7-0.2-0.6-0.4 0.3 0.1 0.7 0.1 0.9 0.2 0.2 0 0.2 0.1 0.4 0.1 0.3 0.1 0.7 0.1 1 0.2 1.3 0.2 2.5 0.3 2.9 0.2 2.1-0.1 2.7-0.4 3.2-0.7s0.8-0.5 2.6-0.8c-0.8 0-1.9-0.1-0.2-0.7 0.1 0 0 0 0 0h-0.1c-0.1 0-0.1 0-0.1-0.1-0.1 0-0.1-0.1-0.1-0.1s0.2-0.1 0.5 0c0.6 0 1.4 0.1 1.7 0.3 0.1 0.1 0 0.1-0.2 0.1 0.1 0 0.2 0.1 0.2 0.1-0.1 0.1-0.3 0.1-0.3 0.1-0.1 0.1 0 0.1 0.7 0 0 0 0-0.1-0.1-0.1l0.3-0.3 0.1-0.1c0.1 0 0 0 0.2-0.1 0.3-0.1 0.6-0.2 0.8-0.2-0.1-0.1 0-0.1 0.6 0-4.1-0.9-3.1-0.6-1.6-0.1-0.2 0.1-0.3 0.1-0.5 0.2 0.2-0.1 0.3-0.1 0.5-0.2-1.1-0.3-2.3-0.7-3.5-1-0.6-0.2-1-0.3-1.5-0.4s-0.9-0.3-1.4-0.4-0.9-0.3-1.4-0.4-1-0.3-1.3-0.5c-0.4-0.2-0.8-0.4-1.1-0.6-0.2-0.1-0.4-0.2-0.5-0.3s-0.2-0.1-0.4-0.2c0.1 0.1 0.3 0.3 0.3 0.4 0.1 0.1 0 0.1-0.1 0-1.5-1-1.8-1.2-2.1-1.2-0.3-0.1-0.5 0-1.4-0.7-0.9-1.1 0.7-0.1-1.3-1.5-1-1.1 0-0.5 0.5-0.2-0.4-0.3-0.9-0.7-1.2-1-0.4-0.4-0.6-0.8-0.9-1.1-0.6-0.7-0.9-1.4-1.3-1.9l0.8 0.8c-0.5-0.5-0.8-0.9-1.1-1.4l0.2 0.7c-0.4-0.6-0.7-1.1-0.6-1.1-0.5-0.5-0.1 0.7-1.1-0.3-0.1-0.2-0.2-0.5-0.4-0.7-0.1-0.3-0.3-0.6-0.5-0.8-0.3-0.6-0.5-1-0.4-1.3 1.2 2.6 0.2-0.5 1.4 1.7-0.3-0.4-0.5-0.9-0.8-1.5 0-0.1 0.1 0 0.2 0.2-0.5-1.3-0.6-1.5-0.9-1.8-0.3-0.2-0.6-0.5-1-1.8 0.3 0.3 0.2-0.7 0-1.2 0.3 1.1-0.3 0.6-0.6-0.4-0.3-1.8-0.5-1.9-0.6-2.9l0.1 1.1c-0.3-0.3-0.4-1.4-0.5-2.2 0.2 0 0.2 0.8 0.2 0.5-0.2-0.3-0.2-0.7-0.1-1 0-0.2 0-0.3 0.1-0.4 0-0.1 0-0.1 0.1-0.2v-0.1l0.1 0.1c0.4 0.3 0.6 0.5 1 0.5 0.2 0.2 0.2 0.3 0.2 0.4s0 0.2 0.1 0.3c0.5 0.1 1 0.3 1.4 0.4 0.2 0.1 0.4 0.1 0.5 0.2l0.2 0.1 0.4 0.1c1 0.4 2.3 0.8 4.1 1-0.7-0.2-1-0.4-0.9-0.4h1.6c-0.8-0.1-1.7-0.2-2.7-0.3l-1.5-0.3c-0.5-0.1-1.1-0.3-1.4-0.4l1.8 0.3c0.6 0.1 1.2 0.1 1.7 0.1-0.8-0.1-1.6-0.3-2.4-0.5-0.2 0-0.4-0.1-0.6-0.1-0.1 0-0.3-0.1-0.4-0.1-0.2-0.1-0.5-0.1-0.6-0.2 1.3 0.2 1.1 0.2 0.6-0.2 0.2 0.1 0.3 0.2 0.6 0.3s0.5 0.2 0.8 0.3c0.5 0.2 1.1 0.2 1.6 0.3 1 0.1 1.8 0.2 3.2 0.4l1 0.8c1.2 0.2 2.4 0.3 3.4 0.3h0.8c0.1 0 0.1-0.1 0.2-0.1 0.1-0.1 0.1-0.2 0.2-0.4-1.3-0.9-2.6-1.7-3.7-2.6-0.5-0.4-1.1-0.8-1.7-1.3-0.3-0.2-0.5-0.4-0.7-0.6l-0.7-0.7 0.6 0.7 0.3 0.3 0.4 0.3c-0.7-0.3-1.2-0.9-1.9-1.6-0.2-0.2-0.4-0.3-0.5-0.5l-0.3-0.3-0.2-0.2c-0.2-0.3-0.4-0.5-0.6-0.7 0.3-0.1-0.1-0.7-0.3-1.2-0.1 0.2-1.5-2.1-2-2.2-0.2-0.5-0.3-1-0.5-1.6-0.3-0.6-0.5-1.2-0.8-1.6s-0.5-0.8-0.7-1.1c-0.5-0.7-0.9-1.4-1.2-2.8 0.5 0.8 0.3-0.5 1 1.2-0.3-0.9-0.4-1.7-0.6-1.7 0-0.5-0.8-2.5-0.6-3.4-0.1-0.4-0.4-0.5-0.4-1.5 0-0.1 0.1 0 0.1 0-0.1 0-0.2-1.7-0.5-0.7 0.4-1.5 0.5-3.5 0.9-5.4 0.3-1.9 0.9-3.8 1.7-4.8 0.2-0.6 0.3-0.7 0.4-1.1 0.1-0.3 0.3-0.6 0.4-0.9 0-0.1 0.1-0.2 0.1-0.2l0.2 0.2 0.4 0.4c0.3 0.3 0.5 0.6 0.7 0.8-0.1 0-0.1 0.1-0.2-0.1 0.3 0.4 0.5 0.6 0.6 0.7 0.2 0.1 0.5 0.3 0.7 0.4 0.4 0.2 0.9 0.5 1.9 1.6 0.8 1.4-1.3-1-0.7-0.2-0.1 0.4 0.5 1.1 1.3 1.8 0.9 0.7 1.9 1.6 2.5 2.4l-0.4-0.3c0.5 0.6 1.3 1.2 2.2 1.8 0.4 0.3 0.9 0.6 1.4 1 0.5 0.3 1 0.7 1.5 1.1 0 0-0.1 0-0.1 0.1 1.6 0.8 4.4 2.6 6.5 3.7-0.8-0.1-1-0.4-0.8 0.1 1 0.5 0-0.6 1.9 0.5 0.5 0.5 1.8 1.5 1.8 1.9-0.6-0.3-1.2-0.7-1.8-1 0.7 1 2.3 1.3 3.2 1.9l-0.2 0.1c1.4 0.8 2.2 1 3 1.2s1.6 0.6 3.2 1.2l-0.3-0.3c1.9 0.3 1.3 0.9 3.2 1.2l0.3 0.7c0.6 0.1 1.6 0.4 2.8 0.7s2.5 0.5 3.5 0.8c-0.6 0-1.6-0.1-2.6-0.3s-2-0.5-2.8-0.6c0.6 0.2 1.6 0.6 2.5 0.8s1.8 0.4 2.1 0.4c-0.5-0.1-1.1-0.2-1.6-0.4 1.6 0 3.5 0.5 5.8 1-0.6 0.9 6.1 1.6 7.8 2.5 1.1 0 2.1 0.2 3.2 0.2 1.6 0.1 3.3 0.3 5 0.4-0.2-0.9-0.4-1.8-0.5-2.7-0.1-0.5-0.1-0.9-0.2-1.4l-0.1-0.8c-0.1-1.1-0.1-2.2-0.1-3.4-0.8 1.7 0-1.4-0.7-1.1 0-1.1 0.1-1.5 0.2-1.6l0.5-1.6c0.2-0.5 0.4-1.1 0.6-1.6 0.4-0.7-0.1 1.1 0.1 1 0.7-2.3 0.5-0.9 1.2-2.3-0.4 0.2-0.1-0.9 0.5-2.1-0.4 0.5-0.7 1.1-1 1.7 0.2-0.8 0.4-1.4 0.6-1.8s0.5-0.7 0.7-1 0.5-0.6 0.7-1c0.3-0.4 0.6-0.9 0.9-1.7l-0.3 1c0.2-0.4 0.5-0.9 0.8-1.5 0.4-0.6 0.9-1.2 1.3-1.9 0.5-0.6 1-1.2 1.4-1.8s0.8-1 1-1.4c0.3-0.1 0.7-0.2 0.2 0.3 0.7-0.7 1.6-1.3 2.5-2 0.4-0.4 0.9-0.6 1.4-1 0.5-0.3 0.9-0.7 1.4-0.9 1-0.5 1.9-1.1 2.8-1.4 0.5-0.2 0.9-0.3 1.4-0.5 0.4-0.1 0.9-0.2 1.3-0.2l-0.3 0.3c0.7-0.2 1.2-0.7 2.2-0.7 0 0.1-0.3 0.2 0.1 0.2 0.4-0.1 2-0.7 3-0.6l-0.9 0.3c2 0 3.5-0.1 5-0.1s2.9 0 4.6 0.4c-0.1 0.5 2.8 1.7 4.1 2.5h-0.1c2 1.1 3.7 2.1 5.3 3.2l1.2 0.9c0.1 0 0.2 0.2 0.4 0.3l0.4 0.4c0.3 0.2 0.5 0.6 0.9 0.7 0.4-0.1 0.8-0.2 1.3-0.3l0.6-0.2 0.4-0.1c0.5-0.2 1.1-0.3 1.6-0.5 1.5-0.1 3.9-0.7 6.4-1.7 0.6-0.2 1.3-0.5 1.9-0.8l0.9-0.4 0.3-0.1c0.3-0.1 0.5-0.2 0.5-0.1 0.1-0.1 0.4-0.6 0.9-0.9 0.1-0.1 0.2-0.1 0.2-0.2-0.1 0.3 0.3 0.6-0.5 1l0.1-0.1c-0.5 0.4-0.7 0.6-0.8 0.7 0 0.1-0.1 0.1-0.1 0.2s0 0-0.1 0.2-0.2 0.4-0.3 0.5l0.4 0.6c-0.5 0.5-1 1.1-1.6 1.7-0.3 0.3-0.5 0.6-0.8 0.9-0.4 0.4-0.7 0.8-1.1 1.2-0.6 0.6-1.1 1.1-1.8 1.6l-1.1 0.8-0.5 0.4-0.3 0.2-0.4 0.2c-1.9 1.3-3.7 2.5-5.4 3.6h0.6 0.3 0.1l0.1 0.1h0.1c0.9-0.1 1.5-0.1 1.8 0 2-0.4 3.9-0.7 5.7-1.2l-0.5 0.5c1.2-0.2 2.3-0.4 3.4-0.6 0.5-0.1 1.1-0.3 1.6-0.4 0.3-0.1 0.7-0.2 1-0.3 0.1 0 0.3-0.1 0.4-0.1s0.1 0 0.2-0.1c0.1 0 0.3-0.1 0.5-0.2l-0.4 0.4s0.2-0.2 0.6-0.4c0.3-0.3 0.9-0.7 1.4-1 0.3-0.2 0.7-0.4 1-0.6 0.1 0 0.1 0.1 0 0.2-0.5 0.4-1 0.8-1.5 1.1-0.2 0.2-0.4 0.5-0.6 0.7l-0.7 0.6-0.3 0.3-0.5 0.5-0.9 1c-0.6 0.7-1.2 1.3-1.7 2 0-0.1 0-0.3 0.4-0.7-1.2 1.2-5.1 4-4.2 4.1-0.1-0.1-0.3 0-0.6 0.2-0.2 0.1-0.5 0.4-0.8 0.6-0.2 0.1-0.3 0.3-0.5 0.4l-0.3 0.2c-0.1 0.1 0 0.2 0 0.4 0 0.5 0.1 1 0.1 1.5 0 0.3 0.1 0.6 0.1 0.9 0.1 0.6 0.2 1.2 0.2 1.7l-0.3-0.3c0.4 1.6 0.6 1.7 0.6 4-0.1 0.5-0.3 0.5-0.2-0.3-0.3 1.8 0.3 1.4-0.1 3.6 0-0.3-0.1-0.6-0.1-0.8-0.2 1.9-0.1 1.7 0 2.8 0 1.2-0.6 3.5-1 3.7 0.2 0.3 0.2 1.3-0.1 2.4-0.1 0.1-0.1-0.3-0.1-0.5-0.2 0.8-0.4 1.4-0.5 2s-0.2 1.1-0.3 1.7c-0.2 1-0.3 2-0.8 2.9-0.1 0-0.2 0.1-0.3 0.3 0.8-2.4 1.2-4.3 1.2-4.1-0.3-0.1-0.9 1.8-0.9 0.2-0.1 1.6-0.4 4.4-1.1 6.2-0.1 0.1-0.1 0.2-0.2 0.2v-0.2c-0.2 0.4-0.3 0.8-0.4 1.2-0.3 0.6-0.4 0.9-0.6 1.5-0.3 0.1-1 2.1-1.4 3 0.4 0.1-0.2 1.2 0.5 0.2-0.1 0.1 0-0.2 0.3-0.8 0-0.1 0.1-0.3 0.1-0.4v0.1c0.2-0.6 0.6-1.4 0.9-2.3-0.1 0.8-0.3 1.6-0.9 2.6v1.5c-1 1.1-2.3 3.4-2.8 3.5-1.1 2.8-3.3 6.4-3.8 8.3-0.4 0.8-0.7 0.7-1 1l0.6-1.2c-0.8 1.6-2.8 4.3-2.7 4.9-1.5 1.6 0.4-1.2-1.4 1.2l0.1-0.4c-2.1 2.1-3.4 4.1-5 6.1-1.5 2-3.2 4-6 5.8 0.4-0.2 0.6-0.4 0.7-0.4-3 2.3-6 4.7-9.3 6.7s-6.7 3.9-10.2 5c-2 0.7-2.1 1-3.2 1.7l-0.6-0.2c-0.6 0.4-1.3 0.8-1.9 1.1-1.4 0.6-2.8 0.8-4.3 0.9-1.5 0.2-3 0.4-4.9 1l0.5 0.2c-0.7 0.1-1.8 0.4-2.7 0.5s-1.6 0.2-1.5 0c-0.1 0.1-0.4 0.3-1 0.3l-0.1-0.2c-1.1 0.3-2.3 0.5-3.4 0.7-2.7 0 0.4-0.8-3.6-0.6-1.4 0.1-4.1 0.7-3.6 0.8 0.6 0 1.5 0.1 1.6 0.3l-1.3 0.1c-0.2 0.6-1.3 1.2 2.1 1.6l2.3-0.4 0.8 0.2c-0.7 0.1-1.3 0.1-2 0.1 1.1 0.3 1.8 0 2.6-0.3 0.2 0.1 0.5 0.2 1 0.2l2.2-0.7c0.3 0.2-1 0.6 0.6 0.5 1-0.4-1.1-0.4 0.7-0.8 1.1 0.1 0.9 0.4 2.1 0 0.2 0.1-0.1 0.3-0.6 0.4 1.1-0.3 3.1-0.6 3.6-1 0.6 0.1 1.6-0.1 2.4-0.3s1.5-0.3 1.5 0c0.3-0.2 1.9-0.9 2.9-1.2-1.7 1.2 3.9-1.1 3.6-0.3 1.2-1 4.9-2 7.1-3.4-0.1 0.1-0.3 0.3-0.6 0.4 1.4-0.5 1.8-0.6 2.7-0.9-0.1-0.6 2-1.6 2.8-2.5 1.8-0.5-0.7 1 0 1.2-0.3-0.3 2.5-1.9 1.8-1.9 1.3-0.4 1.1-0.5 1.9-0.5-0.1-0.7 1-0.8 1.8-1.7 1.8-0.8 0.8 0.2 2.4-1.2 1.4-0.8-0.1 0.5-0.1 0.5m29.1-41.6c-0.1 0.4-0.2 0.8-0.3 1 0-0.2 0.1-0.5 0.3-1m1.2-4.2c-0.1 0.5-0.3 1.1-0.5 1.8-0.2 0.1-0.2-0.1-0.1-0.5-0.1 0.3 0.3-0.7 0.6-1.3m-5.2 7.8c0.2-0.6 0.3-0.8 0.4-0.9-0.1 0.3-0.2 0.6-0.4 1.1v0.1c0.1-0.1 0-0.2 0-0.3"/>
			<path class="st10" d="m451.8 264.6c0 0.1 0 0.1-0.1 0.3 0.1-0.1 0.1-0.2 0.2-0.3v-0.3c0 0.1 0 0.2-0.1 0.3"/>
			<path class="st10" d="m378.4 291.2l0.1-0.1c-0.1 0.1-0.2 0.1-0.3 0.1 0.1 0.1 0.1 0.1 0.2 0"/>
			<polygon points="462.8 219.1 462.5 219.3 462.9 219.1" class="st10"/>
			<path class="st10" d="m356 299.6h-0.3 0.3"/>
			<path class="st10" d="m345.5 300.5c-0.6 0-1.4-0.1-2.2-0.2 1 0.1 1.7 0.2 2.2 0.2"/>
			<path class="st10" d="m337 300.7c0.3 0.1 0.5 0.2 0.7 0.2l-0.7-0.2z"/>
			<path class="st10" d="m343.6 247.5c0-0.1 0-0.2-0.1-0.3-0.1-0.7-0.1-0.2 0.1 0.3"/>
			<path class="st10" d="m361.7 270.3l0.3-0.3c-0.5 0.1-0.8 0.2-0.3 0.3"/>
			<path class="st10" d="m343.2 226.9v-0.3 0.3z"/>
			<path class="st10" d="m363.1 269.8c-0.7 0.1-1 0.1-1.1 0.2 0.4 0 1-0.1 1.1-0.2"/>
			<path class="st10" d="m371.4 313.7l0.4 0.1 0.1-0.1h-0.5z"/>
			<path class="st10" d="m371.9 313.7h0.4-0.4"/>
			<path class="st10" d="m373.2 313.7h-0.9c0.3 0.1 0.7 0.1 0.9 0"/>
			<path class="st10" d="m361.2 311.6l-0.1 0.1c0.1 0 0.1 0 0.1-0.1"/>
			<path class="st10" d="m358.2 310.8c0.7 0.3 1.7 0.8 2.8 1l0.1-0.1c-0.5 0-2.2-0.9-2.9-0.9"/>
			<path class="st10" d="m346.7 304.5l2.2 1.2c-0.4-0.3-0.8-0.7 0.3-0.3-1.4-0.9-1.3-0.8-1.2-0.6 0 0.1 0.1 0.2-0.1 0.2-0.1 0-0.2-0.1-0.4-0.1-0.2-0.2-0.5-0.3-0.8-0.4"/>
			<path class="st10" d="m342.6 301.9c1 0.5 0.8 0.2 1.2 0.3-0.2-0.1-0.1 0-0.1-0.1 0 0-0.1 0-0.1-0.1-0.2 0-0.5 0-1-0.1"/>
			<path class="st10" d="m365.4 284.2l0.3-0.2c-0.9-0.5-0.1 0.1-0.3 0.2"/>
			<path class="st10" d="m356.4 277.4l0.4 1c0.2 0.1 0.3 0.2 0.5 0.3-0.2-0.5-0.6-0.9-0.9-1.3"/>
			<path class="st10" d="m356.5 272.4l0.1 0.2-0.1-0.2s-0.1-0.1 0-0.1h0.2-0.2c-0.1 0-0.1 0.1 0 0.1"/>
			<path class="st10" d="m347.4 215.7l-0.5 0.2c-0.1 0.7 0.2 1 0.5-0.2"/>
			<path class="st10" d="m377 232.8c0.4 0.4 1.4 1 2.2 1.1-0.9-0.5-1.7-1-2.2-1.1"/>
			<path class="st10" d="m463 214.1c0.1-0.2 0.3-0.5 0.4-0.7-0.3 0.4-0.5 0.9-0.8 1.3 0.1-0.2 0.3-0.4 0.4-0.6"/>
</svg>
