<?xml version="1.0" encoding="UTF-8" standalone="no"?>
<!-- Generator: Adobe Illustrator 21.0.0, SVG Export Plug-In . SVG Version: 6.00 Build 0)  -->
<svg id="Layer_1" style="enable-background:new 0 0 559 520" xmlns="http://www.w3.org/2000/svg" xml:space="preserve" viewBox="0 0 559 520" version="1.1" y="0px" x="0px" xmlns:xlink="http://www.w3.org/1999/xlink">
<style type="text/css">
	.st0{fill:#CFEBF6;}
	.st1{fill:#FFFFFF;}
	.st2{fill-rule:evenodd;clip-rule:evenodd;}
	.st3{fill:#432918;}
	.st4{fill:#ACD5E5;}
	.st5{fill:#191919;}
	.st6{fill:#2C9356;}
	.st7{fill:#F5F7F7;}
		.st8{fill:none;stroke:#000000;stroke-width:2;stroke-linecap:round;stroke-linejoin:round;stroke-miterlimit:10;stroke-dasharray:6,9;}
	.st9{fill-rule:evenodd;clip-rule:evenodd;fill:#FFFFFF;}
</style>
<path class="st0" d="m460.2 250.3m-73.5 120c0.7-0.4 1.4-0.8 2.2-1.2 32.9-18.2 59.7-45.7 74-85.9 2.4-6.9 4.5-14.2 3.7-23.6-0.6-7.7-3.4-17-8.5-25.8-4.5-25-15.1-53.3-34.7-77.8-24.2-30.1-55.8-45.9-78.2-45.7-12.3 0.1-22.4 4.1-32.4 8.3-33.1 13.8-65.4 28.8-96.8 45-3 1.6-6.1 3.2-9.1 4.8-20.7 11.1-40.5 23.9-53.9 44.2-5.8 8.8-10.5 19-18.2 25.5-6.3 5.3-14.6 8-19.5 14.9-4.2 5.9-5.8 14.6-6.1 24.1-0.4 11.5 1.1 24.7 6.4 39 5.3 14.4 15 30.2 26.8 41.4 11.5 10.8 23.6 16.4 35.3 26.2 7.4 6.2 14.6 14.2 22.1 18.8 7.8 4.9 14.7 5.3 21.1 5.4 19.6 0.2 37.9-2.1 55.9-5 39.4-6.2 77.5-15.2 109.9-32.6"/>
<polygon points="339.6 226.9 339.5 226.9 323.3 224.8 307 226.3 289.7 225.9 290.2 190.9 306.9 190.8 323.3 192 339.6 191.6 355.8 190.2 372.2 190.6 380.6 191.9 416.1 192.2 417.4 226.8 380.6 225.6 372.2 226.4 355.9 224.8"/>
<polygon points="323.3 223.4 323.3 223.4 339.6 225.5 355.9 223.4 355.9 223.4 372.2 225.1 380.6 224.2 416.3 225.3 415 193.6 380.6 193.2 372.1 192 355.9 191.6 339.6 193 323.3 193.4 306.9 192.2 291.3 192.3 290.8 224.6 307 224.9" class="st1"/>
<path class="st2" d="m435.6 342.6c2.8-0.7 2.7 3.5 0.5 3.4-1.8 0-2.4-2.9-0.5-3.4zm0.8 2.1c0.3-0.3 0.2-0.7-0.1-1-1 0-0.5 1 0.1 1z"/>
<path class="st2" d="m432.7 360.7c3.1-0.7 2.4 3.2 0.3 3.1-1.7-0.1-2.4-2.6-0.3-3.1zm-0.1 1.4c0.1 0.7 1.1 0.5 1-0.2-0.4-0.2-0.8 0.1-1 0.2z"/>
<path class="st2" d="m409.2 385c2-0.2 3.2 0.8 3.4 2.2 0.4 2-1 3.6-2.5 3.8-1.8 0.2-4.4-1.1-3.8-3.8 0.2-1.1 1.4-2.1 2.9-2.2zm2.1 2.5c-0.3-1.8-3.6-1.2-3.8 0.6 0.4 2.2 4.2 1.9 3.8-0.6z"/>
<path class="st2" d="m425.5 379.4c2.7-0.3 2 3.6 0 3.6-2.2 0-2.4-3.4 0-3.6zm-0.2 2.4c0.5-0.1 0.8-0.4 0.8-1.1-0.7-0.4-1.4 0.6-0.8 1.1z"/>
<path class="st2" d="m93.2 299.6c2.8-0.7 2.7 3.5 0.5 3.4-1.8-0.1-2.4-2.9-0.5-3.4zm0.8 2.1c0.3-0.3 0.2-0.7-0.1-1-0.9 0-0.5 1 0.1 1z"/>
	<path d="m105.1 301.3h5.4c1 0 1-1.5 0-1.5h-5.4c-0.9 0-0.9 1.5 0 1.5z"/>
	<path d="m107 297.2v6.8c0 1 1.5 1 1.5 0v-6.8c0-1-1.5-1-1.5 0z"/>
<path class="st2" d="m111.3 268.2c1.4-0.2 3 0.3 3.2 1.2 0.8 2.8-5.2 3.1-5.1 0.5 0.1-1 0.9-1.5 1.9-1.7zm2 1.6c-0.1-0.9-2.6-0.9-2.4 0.5 0.6 0.6 2.5 0.4 2.4-0.5z"/>
<path class="st2" d="m128.5 274.2c1-1.4 4.3-1.3 5 0.2 0.5 1.1-0.5 2.5-1.9 2.6-2.3 0.4-3.2-1-3.1-2.8zm1.2 0.6c-0.6 1.4 2.9 1.8 2.4 0.2-0.1-0.6-0.9-0.7-1.7-0.5-0.3 0.1-0.6 0.2-0.7 0.3z"/>
<path class="st2" d="m102.3 279.1c4.7-0.7 6 4.5 1.5 5.4-2.8 0.5-5.5-1.8-4-4 0.4-0.7 1.4-1.2 2.5-1.4zm-0.7 1.6c-0.3 0.2-0.9 0.7-1 1.1-0.2 0.9 1 1.6 1.8 1.7 3.3 0.5 4-3.7 0.4-3.2-0.5 0-0.9 0.2-1.2 0.4z"/>
<path class="st2" d="m121.3 278.7c1.2-0.2 1.7 0.2 1.8 0.7 0.3 1.6-2.9 2-2.9 0.4-0.1-0.7 0.4-0.9 1.1-1.1z"/>
<path class="st3" d="m292.7 207c0.2 1.4 0.3 2.8 0.5 4.2 0.1 0.8 0.3 1.5 0.3 2.3v1.7c0 0.6 0.2 1.4 0.8 1.7 0 0.2 0.1 0.5 0.4 0.4 5.8-0.9 11.5-2.6 17.3-3.4 1.8-0.3 3.5-0.4 5.3-0.7 0.8-0.1 1.6-0.3 2.4-0.4 0.4-0.1 1.1-0.2 1.5-0.2 0.2 0 0.4-0.3 0.3-0.5 0-0.1-0.1-0.1-0.1-0.2v-0.1c0.1-0.1 0.1-0.2 0.1-0.4-0.4-2.4-1-4.8-1.2-7.3-0.3-2.4-0.3-4.8-0.8-7.1 0-0.1 0-0.1-0.1-0.1 0-0.3-0.1-0.5-0.4-0.5-4.4 0.8-9 0.8-13.4 1.5-4.5 0.8-9.1 1.8-13.5 2.9-0.2 0-0.3 0.3-0.2 0.5 0 0.1 0.1 0.1 0.1 0.2v0.1c0.2 1.5 0.5 3 0.7 4.4v0.3l-0.1-0.1m1.7 7.3c0-1.1-0.3-2.2-0.5-3.3-0.1-0.6 0-1.3-0.1-1.9-0.1-0.7-0.3-1.5-0.4-2.2-0.3-1.3-0.5-2.7-0.8-4 2 1.3 4.6 1.4 6.8 2.4 1.2 0.5 2.6 0.9 3.8 1.5-1.8 1.9-3.7 3.7-5.5 5.7-1.1 1.2-2.9 2.8-3.2 4.5-0.3-0.8-0.1-1.9-0.1-2.7m23.1-1.2c-1.7 0.3-3.4 0.5-5.1 0.7-5.9 0.7-11.7 2.2-17.4 3.5 0.1 0 0.2-0.1 0.2-0.2 0.7-1.8 2.5-3.4 3.8-4.8 1.5-1.7 3.2-3.2 4.7-4.8 0.1 0 0.2 0 0.3-0.1s0.1-0.2 0.1-0.2c0.7 0.5 1.7 1.2 2.5 1.1 0.5 0.6 1.3 0.3 2 0.1 0.1 0 0.1-0.1 0.2-0.1s0.2-0.1 0.3-0.3c0.1-0.8 1-1.3 1.7-1.8 0.1 0 0.2 0 0.2-0.1 0.8 0.2 5.3 3.2 5.6 3.4 0.8 0.5 1.5 1.4 2.2 2 0.5 0.5 1.1 0.9 1.7 1.2-1-0.1-2.5 0.3-3 0.4m2-7.8c0.2 2.1 0.7 4.3 1.1 6.4-1.6-1.1-2.9-2.6-4.5-3.7-0.9-0.6-1.8-1.2-2.7-1.7-0.5-0.3-1-0.6-1.6-0.8 0.9-0.7 1.9-1.3 2.8-2 0.8-0.6 1.5-1.4 2.2-2.2 0.7-0.7 1.5-1.3 2.2-1.9 0.2 1.9 0.3 3.9 0.5 5.9m-0.7-6.8c-0.7 0.1-1.2 0.7-1.7 1.1-0.8 0.7-1.5 1.6-2.2 2.4-0.9 1-2.2 1.8-3.3 2.5-0.3 0.2-0.6 0.4-0.9 0.7-0.2 0-0.4 0.1-0.4 0.3-0.6 0.5-1.3 0.9-1.9 1.5-0.1 0.1-0.2 0.2-0.1 0.4 0 0.1 0 0.2 0.1 0.3-0.4 0.1-1 0.4-1.3 0.1-0.1-0.1-0.2-0.1-0.3-0.1-0.8-0.5-1.8-0.8-2.6-1.4-1-0.6-2.2-0.9-3.3-1.3-1.1-0.5-2.2-1.1-3.3-1.3-1.5-0.3-3-0.6-4.4-1.2 4.2-0.7 8.3-1.9 12.5-2.6 4.3-0.8 8.8-0.7 13.1-1.5v0.1"/>
<path class="st4" d="m167.4 214.1v-0.3l0.6-0.6-0.6 0.4v-0.3s0.1 0 0.1-0.1l-0.1-0.2c-0.2-1.1-0.7-2-1.6-2.6h-0.1c0.1-0.1 0.1-0.2 0.1-0.2l0.1-0.3-0.3 0.1c-0.1 0-0.3 0.1-0.4 0.2l0.3-0.3h-0.4-0.3c-0.1 0-0.2-0.1-0.3-0.1l0.2-0.3-0.4 0.2h-0.1c-0.1 0-0.2-0.1-0.3-0.1l0.1-0.1-0.1 0.1c-0.5-0.2-0.9-0.4-1.3-0.5 1-0.8 1.6-1.7 1.9-2.7l0.3-0.2-0.3 0.1c0.2-0.8 0.2-1.7 0.1-2.5l0.2-0.1h-0.2c0-0.3-0.1-0.6-0.1-1l0.8-0.5-0.9 0.3c0-0.1 0-0.2-0.1-0.3l0.9-0.7-0.9 0.4c0-0.2-0.1-0.4-0.2-0.6l0.2-0.2-0.2 0.1v-0.1c-0.1-0.3-0.2-0.7-0.3-1l0.6-0.3-0.7 0.1c-0.4-1-1-1.8-2-2.1-0.6-0.2-1.1-0.3-1.6-0.3-0.9 0-1.7 0.3-2.5 1.1-0.6 0.6-1.1 1.2-1.3 2.1-0.1 0-0.1 0.1-0.1 0.1l-0.3 0.3 0.3-0.1c0 0.2-0.1 0.4-0.1 0.6-0.1 0.1-0.2 0.1-0.3 0.2l-0.8 0.6 0.9-0.4h0.1v0.4 0.1l-0.3 0.4 0.3-0.1v0.5c-0.1 0-0.1 0.1-0.2 0.1l0.1 0.3h0.1v0.5c-0.1 0-0.2 0.1-0.3 0.1v0.3h0.3v0.3c-0.1 0.1-0.2 0.1-0.2 0.2l-0.6 0.5 0.7-0.3h0.1c0 0.2 0.1 0.4 0.1 0.6-0.1 0-0.1 0.1-0.2 0.1l-0.6 0.4 0.7-0.1h0.2c0 0.1 0.1 0.3 0.1 0.4-0.1 0.1-0.2 0.1-0.2 0.1l-0.5 0.3 0.6-0.1h0.3c0.2 0.3 0.4 0.6 0.7 0.8-0.1 0.1-0.2 0.1-0.4 0.2l-0.6 0.3 0.7-0.1c0.2 0 0.4-0.1 0.6-0.1l0.2 0.2c-0.1 0.1-0.3 0.2-0.4 0.2l0.1 0.2c0.2-0.1 0.3-0.1 0.5-0.2l0.1 0.1c-0.1 0-0.2 0.1-0.3 0.1l-0.9 0.3 0.9-0.1h0.4v0.1c-0.1 0-0.2 0.1-0.4 0.1l0.1 0.2h-0.5c-1 0-2.1 0.5-2.9 1.5 0 0-0.1 0.2-0.3 0.5l-0.5 0.4 0.4-0.2c-0.1 0.1-0.1 0.2-0.2 0.3-0.3 0.2-0.6 0.3-0.9 0.5l-0.6 0.5 0.7-0.3c0.1-0.1 0.3-0.1 0.4-0.2-0.2 0.3-0.3 0.6-0.4 0.9l-0.1 0.1-0.7 0.4 0.7-0.1c-0.2 0.4-0.3 0.7-0.3 1v0.5c0 0.1 0.1 0.1 0.1 0.1l-0.3 0.3 0.5-0.2h0.1 0.8 0.6l-0.7 0.7 0.9-0.4c0.1-0.1 0.2-0.1 0.4-0.2h1.1l0.1 0.1 0.1-0.1h0.5l-0.6 0.4 0.9-0.3c0.1 0 0.2-0.1 0.3-0.1h0.7 0.6l-0.1 0.1 0.1-0.1c0.5 0 1 0 1.5-0.1h0.6v0.1l0.1-0.1c0.3 0 0.6 0.1 0.9 0.1h0.1c0.5 0.1 1 0.2 1.5 0.2h0.1l-0.3 0.4 0.6-0.4h0.2 0.4l-0.5 0.6 0.7-0.6h0.6l0.1-0.1c0.3 0 0.6-0.1 0.9-0.1h0.1 0.2c0.7-0.2 0.8-0.5 0.8-0.9v-0.1l0.2-0.3-0.3 0.1 0.2-0.1m-0.7 0.4c0.2-0.1 0.3-0.3 0.4-0.4v0.2c-0.1 0-0.2 0.1-0.4 0.2m0.4-0.8c-0.2 0.2-0.5 0.4-0.8 0.5l-0.6 0.3c0.4-0.4 0.9-0.7 1.3-1.1 0.1 0.1 0.1 0.2 0.1 0.3m-1 0.9c-0.3 0.2-0.5 0.4-0.7 0.6h-0.3c0.3-0.2 0.7-0.4 1-0.6m0.9-1.5c-0.5 0.2-1 0.6-1.5 0.9 0.1-0.1 0.1-0.1 0.2-0.1 0.4-0.3 0.8-0.7 1.2-1l-0.2-0.2c-0.6 0.5-1.3 0.9-2 1.4l0.1-0.1c0.6-0.5 1.1-1 1.8-1.5l-0.1-0.2c-1 0.6-1.9 1.1-2.7 1.6 0.3-0.3 0.7-0.5 1-0.8 0.5-0.3 1-0.7 1.4-1.1l-0.2-0.2c-0.5 0.3-0.9 0.7-1.3 1-0.5 0.3-1.1 0.6-1.6 0.9 0 0-0.1 0-0.1 0.1 0.2-0.1 0.3-0.2 0.5-0.4 0.8-0.7 1.7-1.3 2.5-2l-0.1-0.2c-0.3 0.2-0.6 0.3-0.9 0.5 0.2-0.2 0.3-0.4 0.5-0.6l0.3-0.4c0.6 0.5 1.1 1.3 1.2 2.4m-7.2 1.5c0.5-0.5 1.1-0.9 1.7-1.3 0.3-0.2 0.7-0.4 1-0.7 0.6-0.4 1.1-0.7 1.7-1.2 0.1-0.1 0.3-0.2 0.5-0.3 0.3-0.2 0.6-0.4 0.8-0.6 0 0 0.1 0 0.1 0.1h0.1l-0.4 0.3c-0.7 0.4-1.4 1-2.1 1.5-1.2 0.8-2.3 1.6-3.4 2.2m2.4-1.1c-0.3 0.2-0.5 0.3-0.8 0.5 0.3-0.2 0.5-0.3 0.8-0.5m-1.7 1l-0.1 0.1-0.2 0.3h-0.6c0.3-0.1 0.6-0.2 0.9-0.4m4-2.8c-0.3 0.3-0.6 0.5-1 0.7 0.3-0.2 0.7-0.5 1-0.7m-4.3 1.2c0.1-0.1 0.3-0.1 0.4-0.2 0.3-0.1 0.5-0.2 0.8-0.3-0.2 0.1-0.4 0.3-0.6 0.4-0.8 0.6-1.6 1.2-2.4 1.7 0.6-0.4 1.1-0.8 1.7-1.2l0.9-0.7-1.3 0.6c-0.6 0.2-1.2 0.5-1.9 0.9l0.9-0.6c0.1-0.1 0.3-0.1 0.4-0.2l-0.1-0.3c-0.1 0.1-0.3 0.1-0.4 0.2-0.3 0.1-0.6 0.3-0.9 0.4 0.2-0.2 0.5-0.3 0.7-0.5l0.4-0.3 0.1 0.1 1.2-0.6c0.7-0.4 1.5-0.8 2.2-1.1 0 0-0.1 0-0.1 0.1-0.5 0.4-1.1 0.9-1.6 1.2-0.1 0.1-0.3 0.1-0.4 0.2v0.2zm2.3-2.4l-0.6 0.6c-0.2 0.1-0.3 0.1-0.5 0.2 0.2-0.1 0.3-0.2 0.5-0.4l0.8-0.6-0.9 0.4c-0.1 0.1-0.3 0.1-0.4 0.2l0.1-0.1c0.4-0.2 0.8-0.4 1.3-0.6l-0.3 0.3m1.4-0.5c-0.1 0.1-0.2 0.1-0.2 0.2-0.1 0-0.1 0.1-0.2 0.1l-0.5 0.2c-0.2 0.1-0.3 0.1-0.5 0.2l0.2-0.1 1.2-0.6m-2.6 0.6l-0.6 0.6c-0.2 0.1-0.3 0.2-0.5 0.3-0.7 0.4-1.4 0.7-2.2 1 1.1-0.7 2.3-1.3 3.4-2 0.1 0 0 0-0.1 0.1m-0.9 1c0.1 0 0.2-0.1 0.3-0.1l-0.9 0.6c-0.4 0.2-0.7 0.4-1.1 0.6l-0.6 0.2c-1 0.4-2.2 0.8-3.3 1.2-0.1 0-0.2 0.1-0.2 0.1 0.3-0.1 0.5-0.3 0.8-0.4 0.5-0.2 1-0.5 1.4-0.8l0.2-0.1 0.3-0.1c1.2-0.2 2.2-0.7 3.1-1.2m1.9-0.1c0.2-0.2 0.4-0.3 0.5-0.4l-0.4 0.4 1.1-0.7c0.3-0.2 0.6-0.4 1-0.5l-0.3 0.3-0.3 0.3-0.2 0.1c-0.5 0.2-0.9 0.5-1.3 0.8-0.2 0.1-0.5 0.2-0.7 0.3l0.6-0.6m2-1.5s0.1 0 0 0l0.1-0.1c0 0.1 0 0.1-0.1 0.1m-0.3-0.3c-0.1 0-0.2 0.1-0.3 0.1l0.2-0.2c0 0.1 0 0.1 0.1 0.1m-1.6-0.5c0.3 0 0.7 0.2 1.3 0.4l-0.1 0.1c-0.3 0.1-0.6 0.2-0.8 0.3s-0.3 0.1-0.5 0.2c0.2-0.1 0.3-0.2 0.4-0.4l0.1-0.1-0.2-0.2c-0.4 0.2-0.7 0.4-1.1 0.6-1.4 0.8-2.8 1.5-4.1 2.5l-0.2 0.1h-0.3c-0.4 0.1-0.7 0.2-1.1 0.3 0.7-0.4 1.4-0.7 2.1-1.1 1.2-0.6 2.4-1.2 3.6-1.9l-0.1-0.2c-1 0.4-2.1 0.9-3.1 1.3-1.3 0.6-2.6 1.2-4 1.6 0.9-0.5 1.9-0.9 2.9-1.3 1.4-0.6 2.9-1.2 4.2-2l0.7-0.5-0.8 0.2c-0.2 0.1-0.4 0.1-0.6 0.2 0.5-0.2 1-0.4 1.4-0.6l1.1-0.5c-0.2 0.2-0.5 0.5-0.8 0.7v0.3zm0.7-0.9l-1.2 0.3c-0.7 0.2-1.3 0.4-2 0.7-0.3 0.1-0.6 0.3-1 0.4v-0.2-0.2c0.6-0.2 1.3-0.4 2-0.5 0.7-0.2 1.3-0.3 1.9-0.5l-0.1-0.3-1.5 0.3c0.7-0.2 1.4-0.5 2.1-0.8l-0.1-0.3c-0.2 0-0.4 0.1-0.6 0.2 0.6-0.2 1.1-0.5 1.6-0.8-0.2 0.5-0.6 1.1-1.1 1.7m-4.4 1.3l0.1 0.1c-0.1 0-0.2 0.1-0.3 0.1-0.6 0.2-1.2 0.3-1.7 0.4-0.3 0.1-0.6 0.1-0.9 0.2 0.7-0.4 1.5-0.7 2.3-0.9 0.2-0.1 0.4 0 0.5 0.1m5.5-3.4c-0.5 0.1-1.2 0.3-1.8 0.4h-0.1c0.5-0.2 1-0.5 1.5-0.7l0.6-0.3-0.6 0.1c-0.5 0-0.9 0.1-1.4 0.3 0.7-0.3 1.3-0.6 1.9-1l0.4-0.3c0 0.5-0.1 1.1-0.2 1.6l-0.3-0.1zm0.3-1.7l-0.5 0.2c-1 0.3-2 0.7-3 1l-1.8 0.6h0.1l-0.1-0.3c-0.1 0-0.3 0.1-0.4 0.1-0.5 0.1-1 0.1-1.4 0.2h-0.4c0.8-0.5 2.1-1.1 3.3-1.3-0.1 0.1-0.2 0.2-0.4 0.3l0.1 0.3c0.3-0.1 0.6-0.2 0.9-0.3 1.2-0.4 2.6-0.8 3.5-1.5l0.1-0.1v0.8m-0.2-1.9c0 0.2 0.1 0.3 0.1 0.5l-0.5 0.1c-1.3 0.2-2.6 0.7-3.8 1.2-1 0.4-2.1 0.8-3.1 1 1.1-0.5 2.2-0.9 3.4-1.2 1.3-0.4 2.7-0.9 3.9-1.6m-0.9 0c0.3-0.1 0.5-0.3 0.8-0.5 0 0.1 0 0.2 0.1 0.2-0.3 0.1-0.6 0.2-0.9 0.3m-3.2 2.1c0.9-0.3 1.9-0.7 2.8-1-0.4 0.2-0.7 0.3-1.1 0.5-0.1 0.1-0.3 0.1-0.4 0.2l0.1 0.2c0.1-0.1 0.3-0.1 0.4-0.2 0.5-0.2 1.1-0.3 1.6-0.4-0.8 0.4-1.8 0.7-2.8 1-0.1 0-0.1 0-0.2 0.1l0.1-0.1 0.2-0.2h-0.3c-0.3 0-0.7 0.1-1 0.1 0.1-0.1 0.4-0.2 0.6-0.2m4-1.1c-0.2 0-0.4 0.1-0.6 0.1h-0.1c0.2-0.1 0.3-0.2 0.4-0.3l0.4-0.3v0.3l-0.1 0.2zm-0.1-1.8c-1.6 0.7-3.3 1.3-5 1.8-0.8 0.3-1.6 0.5-2.3 0.8 0.9-0.6 2-0.9 3.1-1.3 1.3-0.4 2.7-0.9 3.8-1.7l0.2-0.2c0.1 0.2 0.2 0.4 0.2 0.6m-4.7 1.2c0.4-0.2 0.8-0.3 1.2-0.4 0.6-0.2 1.2-0.4 1.7-0.6-0.8 0.4-1.6 0.6-2.5 0.9-0.1 0-0.2 0.1-0.4 0.1m4.5-2v0l-0.3 0.2c-0.3 0.1-0.6 0.2-1 0.4-0.7 0.3-1.4 0.5-2.1 0.7-0.6 0.2-1.2 0.4-1.8 0.7-0.5 0.3-1.1 0.5-1.6 0.7 0.2-0.1 0.4-0.2 0.5-0.3 0.3-0.2 0.5-0.3 0.8-0.4 0.8-0.4 1.6-0.7 2.4-1 0.9-0.3 1.9-0.7 2.8-1.2l-0.1-0.2c-1.4 0.6-2.9 1.2-4.5 1.7 1.8-0.8 3.4-1.6 4.7-2.2h0.1c-0.1 0.3 0 0.6 0.1 0.9m-0.4-1.2c-1.6 0.3-3.2 1-4.8 1.6-0.7 0.3-1.3 0.5-2 0.8l1.2-0.6c0.2-0.1 0.4-0.2 0.5-0.3 0.9-0.5 1.9-0.9 2.9-1.2 0.3-0.1 0.7-0.2 1-0.3l0.9-0.3-0.1-0.3c-0.6 0.2-1.3 0.4-1.9 0.7-1.4 0.5-2.9 1-4.3 1.6 1.6-1.1 3.7-2.1 5.6-2.7l-0.1-0.3c-1 0.2-2.1 0.6-3.1 1.1-0.9 0.4-1.7 0.8-2.6 1 0.5-0.4 1.2-0.7 1.9-1l0.2-0.1c0.2-0.1 0.6-0.2 0.9-0.3 0.7-0.2 1.6-0.5 2-1l0.1-0.2c0.9 0.3 1.4 1 1.7 1.8m-1.8-1.9v0h-0.1c-0.7 0-1.4 0.3-2 0.5-0.5 0.2-1 0.3-1.5 0.4 0.4-0.5 1.1-1 1.4-0.9l0.1-0.3h-0.1c0.2-0.1 0.5-0.1 0.7-0.1 0.4 0.2 0.9 0.3 1.5 0.4m-3.9 0.8l0.3-0.3c-0.3 0.3-0.5 0.6-0.6 0.6l-0.2 0.2h0.3c0.7 0 1.3-0.3 1.9-0.5 0.5-0.2 1-0.4 1.6-0.4-0.4 0.3-1 0.4-1.5 0.6-0.4 0.1-0.7 0.2-1 0.3l-0.2 0.1-1.8 0.9c0.4-0.6 0.7-1.1 1.2-1.5m-1.3 2.3v-0.1l1.2-0.3c-0.4 0.3-0.9 0.5-1.3 0.8 0-0.2 0.1-0.3 0.1-0.4m1.1 0.4c-0.5 0.2-0.9 0.5-1.3 0.7v-0.2c0.5-0.2 0.9-0.4 1.3-0.5m-1.3 1.2c0.8-0.3 1.7-0.6 2.6-0.9 1.1-0.4 2.3-0.9 3.4-1.2-1.7 0.8-3.8 1.8-6 2.6v-0.5m-0.1 0.8c0.3-0.1 0.7-0.2 1-0.3s0.6-0.2 0.9-0.3c-0.2 0.1-0.5 0.3-0.7 0.4-0.4 0.2-0.8 0.5-1.2 0.6 0.1-0.1 0-0.3 0-0.4m0.1 0.8c0.1 0 0.3-0.1 0.4-0.1-0.1 0.1-0.3 0.2-0.4 0.3v-0.2m0.1 0.7c0.9-0.3 1.9-0.7 2.8-1s1.9-0.6 2.8-1c-0.1 0-0.2 0.1-0.3 0.1-0.4 0.1-0.8 0.3-1.1 0.4l0.1 0.2c0.2-0.1 0.4-0.2 0.6-0.2 0.2-0.1 0.3-0.1 0.5-0.2l1.2-0.3c-0.9 0.4-1.9 0.7-2.8 1-1.3 0.4-2.6 0.8-3.8 1.4v-0.4m0.1 0.9c0.5-0.1 1-0.2 1.5-0.4-0.5 0.2-1 0.5-1.4 0.7 0-0.1 0-0.2-0.1-0.3m0.4 0.8h0.4 0.7c-0.2 0.1-0.3 0.2-0.5 0.3l0.1 0.2c1.1-0.4 2.3-0.7 3.4-1.1 0.7-0.2 1.4-0.5 2-0.7-1 0.5-2.1 0.9-3.2 1.3-0.8 0.3-1.6 0.5-2.3 0.8-0.2-0.3-0.4-0.6-0.6-0.8m3.2 0.1c-0.7 0.3-1.3 0.5-2 0.7l1.8-0.6c0.1-0.1 0.1-0.1 0.2-0.1m-2.2 1c0.8-0.2 1.6-0.5 2.4-0.8s1.7-0.7 2.5-0.8c-0.7 0.4-1.5 0.7-2.2 0.9-0.9 0.2-1.8 0.5-2.6 0.9 0-0.1 0-0.1-0.1-0.2m0.4 0.4c0.5-0.2 0.9-0.3 1.4-0.5 0.3-0.1 0.6-0.2 1-0.4 0.6-0.1 1.1-0.3 1.7-0.4 0.3-0.1 0.7-0.1 1-0.2-1 0.5-2.1 0.8-3.3 1.1-0.6 0.2-1.2 0.3-1.7 0.5 0 0-0.1 0-0.1-0.1m0.3 0.5c0.1 0 0.3 0 0.4-0.1-0.1 0.1-0.2 0.1-0.4 0.1 0.1 0.1 0 0 0 0m-0.1 0.4c-0.1 0-0.2 0.1-0.3 0.1h-0.1c0.2 0 0.3-0.1 0.4-0.1m-0.9 0.3c-0.9 0.3-1.8 0.7-2.6 1.2 0.8-0.7 1.7-1.2 2.6-1.2m-3 1.7l0.3-0.1c0.6-0.2 1.3-0.4 2-0.5 0.2 0 0.3-0.1 0.5-0.1-0.3 0.1-0.6 0.2-0.9 0.3-0.2 0.1-0.5 0.1-0.7 0.2-0.4 0.1-0.9 0.3-1.3 0.5 0-0.1 0.1-0.2 0.1-0.3m-0.5 1c2-0.8 4.1-1.6 6.1-2.2-1.1 0.6-2.2 1-3.3 1.5-1.1 0.4-2.2 0.9-3.3 1.5 0.2-0.3 0.3-0.6 0.5-0.8m-0.7 1.3c1.6-0.4 3.2-1.1 4.8-1.8 0.1 0 0.1-0.1 0.2-0.1-0.3 0.1-0.5 0.3-0.8 0.4-1.5 0.8-3.1 1.6-4.5 2.4l0.3-0.9m-0.4 1.5v-0.2c0.1-0.1 0.3-0.1 0.4-0.2 0.8-0.4 1.6-0.8 2.4-1-0.2 0.1-0.3 0.2-0.5 0.3-0.7 0.3-1.4 0.7-2 1.1h-0.3c0.1 0 0 0 0 0m0.6 0.1c0.5-0.2 0.9-0.3 1.4-0.5 0.8-0.3 1.5-0.6 2.3-0.9l-0.9 0.6c-0.6 0.2-1.1 0.5-1.6 0.8h-0.9-0.3zm2.9-0.6c0.2-0.1 0.5-0.2 0.7-0.3 0.1 0 0.1-0.1 0.2-0.1-0.4 0.4-0.9 0.7-1.2 1h-0.8c0.4-0.1 0.8-0.3 1.1-0.6m2.5-0.5c-0.6 0.4-1.1 0.8-1.7 1.2h-0.5c0.6-0.5 1.4-0.9 2.2-1.2m-0.8 1.2c-0.1 0-0.1 0 0 0 0.9-0.5 1.9-1.2 2.8-1.9 0.5-0.4 1-0.8 1.5-1.1 0.5-0.2 0.9-0.5 1.4-0.8l0.5-0.4c0.3-0.1 0.5-0.2 0.8-0.3 0 0 0.1 0 0.1-0.1-0.2 0.2-0.5 0.4-0.7 0.5s-0.3 0.2-0.5 0.3c-0.5 0.4-1.1 0.8-1.7 1.1-0.3 0.2-0.7 0.4-1 0.7-0.8 0.5-1.6 1.2-2.2 1.9l-0.2 0.1h-0.8m2.1 0l0.2-0.1c0.8-0.5 1.7-1.1 2.5-1.6l0.9-0.6c-0.3 0.2-0.5 0.4-0.7 0.6-0.8 0.6-1.5 1.2-2.3 1.8h-0.3c-0.1-0.2-0.2-0.2-0.3-0.1m2.9-1.1c-0.4 0.4-0.9 0.8-1.3 1.2-0.2 0-0.3-0.1-0.5-0.1 0.6-0.4 1.2-0.7 1.8-1.1m0.4 1.3c-0.5 0-0.9-0.1-1.3-0.1 0.8-0.6 1.6-1.1 2.6-1.7-0.1 0.1-0.2 0.2-0.3 0.2-0.5 0.4-1 0.9-1.5 1.3l0.1 0.2c0.2-0.2 0.5-0.3 0.7-0.5 0.4-0.2 0.7-0.4 1.1-0.7-0.4 0.4-0.8 0.7-1.2 1.2 0 0.1-0.1 0.1-0.2 0.1m0.7 0c0.3-0.2 0.7-0.5 1-0.7 0 0 0.1 0 0.1-0.1-0.2 0.2-0.5 0.5-0.6 0.7l-0.1 0.1h-0.4m2.6-0.5c-0.2 0.2-0.4 0.3-0.6 0.5-0.1 0-0.2 0-0.3 0.1 0.3-0.3 0.6-0.5 0.9-0.6"/>
<polygon points="191.3 226.9 191.3 226.9 175.4 224.8 159.6 226.3 142.7 225.9 143.2 190.9 159.5 190.8 175.5 192 191.3 191.6 207.2 190.2 223.1 190.6 239 191.9 273.5 192.2 274.8 226.8 239 225.6 223.1 226.4 207.2 224.8"/>
<polygon points="175.4 223.4 191.3 225.5 207.2 223.4 207.3 223.4 223.1 225.1 239 224.2 273.7 225.3 272.5 193.6 239 193.2 223.1 192 207.2 191.6 191.3 193 175.4 193.4 159.5 192.2 144.3 192.3 143.8 224.6 159.5 224.9" class="st1"/>
<path class="st5" d="m174.1 224.2c-1.3-3-1.3-7.8-1.4-12 0-1.4 0-2.8-0.1-4 0-0.8-0.1-1.6-0.1-2.4-0.3-4.7-0.7-10.5 0.6-14.5l0.9 0.3c-1.3 3.9-0.9 9.6-0.6 14.2 0.1 0.8 0.1 1.6 0.1 2.4 0.1 1.2 0.1 2.6 0.1 4 0 4.1 0.1 8.9 1.3 11.6l-0.8 0.4z"/>
<path class="st5" d="m323.7 224.9c-0.3 0-0.5-0.3-0.7-0.5l-0.1-0.1v-0.1c-0.2-2.5 0-5 0.2-7.4s0.3-4.8 0.2-7.4c-0.1-2.3-0.4-4.5-0.6-6.7-0.4-3.2-0.8-6.6-0.8-10.1h0.9c0 3.5 0.4 6.8 0.8 10 0.3 2.2 0.5 4.4 0.6 6.7 0.2 2.6 0 5.1-0.2 7.5s-0.3 4.7-0.2 7.1l0.2 0.3 0.1-0.1v0.2c0 0.2 0.1 0.6-0.3 0.7 0.1-0.1 0-0.1-0.1-0.1"/>
<polygon points="191.6 321.9 191.6 321.9 175.4 319.7 159.2 321.2 141.9 320.9 142.4 242.3 159.1 242.3 175.4 243.5 191.6 243 207.8 241.7 224.2 242.1 240.4 243.3 416.1 243.6 417.4 321.7 240.4 320.6 224.2 321.4 207.9 319.7"/>
<polygon points="168.8 318.7 175.4 318.3 191.6 320.5 207.9 318.3 207.9 318.3 224.2 320 240.4 319.2 416.3 320.3 415 245 240.4 244.7 224.1 243.4 207.9 243.1 191.7 244.4 175.4 244.9 159.1 243.7 143.5 243.7 143 319.5 159.1 319.9" class="st1"/>
<path class="st6" d="m414.9 366.3h-0.6c-2.7 0-5.5-0.3-8.2-0.6-3.2-0.4-6.6-0.7-9.6-0.6-1.5 0.1-3.1 0.2-4.6 0.2-2.5 0.2-5.2 0.3-7.8 0.3-3 0-5.7-0.2-8.2-0.7l-0.3-0.1c-3.9-0.7-4.2-0.9-5.2-4.2-0.1-0.3-0.2-0.7-0.3-1-1.1-3.5-1.5-6-1.5-9.4 0-2-0.3-4.2-0.6-6.2-0.4-3.3-0.9-6.7-0.3-10l0.1-0.6h0.6c3.8 0.2 7.8-0.1 11.7-0.4 3.2-0.2 6.5-0.5 9.8-0.5 1.1 0 2.1 0 3.1 0.1l5.4 0.3c5.3 0.3 10.7 0.6 15.8 0.7h0.8v0.8c-0.2 3 0.5 6 1.2 8.9 0.6 2.4 1.2 4.9 1.3 7.4 0.2 3.9-0.6 7-1.4 10.2-0.4 1.6-0.8 3.2-1.1 4.9l-0.1 0.5z"/>
<path class="st7" d="m406 349.6c-0.2-0.2-0.3-0.4-0.5-0.6l0.2-0.2-0.2 0.1c-1.6-1.9-3.8-3.9-6.1-5.8l0.1-0.1h-0.1c-0.6-0.5-1.1-0.9-1.7-1.4l0.5-0.7-0.7 0.5c-0.1-0.1-0.3-0.2-0.4-0.3-0.2-0.2-0.4-0.3-0.6-0.5l0.2-0.3-0.4 0.2c-0.5-0.4-1-0.8-1.4-1.2l-0.5-0.4-0.1 0.6c0 0.1 0 0.3-0.1 0.4-0.1 0.5-0.1 1.2-0.3 1.9-0.8 0.6-1.5 1.3-2.2 2.1h-0.5c-0.8 0-1.6-0.1-2.4-0.1l0.3-0.9-0.8 0.8h-0.4c-0.3 0-0.6-0.1-0.8-0.1l1-1.9-1.6 1.9c-0.2 0-0.4 0-0.7-0.1l0.3-0.6-1 0.5h-0.1l1.3-1.4-1.9 1.3c-0.1 0-0.3 0-0.4-0.1-1.1-0.2-2.3-0.3-3.4-0.4h-0.6c-0.6 0-1.2 0.1-1.7 0.2h-0.2v0.2c-0.1 0.5-0.1 1-0.1 1.4-0.1 0.1-0.2 0.2-0.4 0.3l0.4 0.4v0.6c-0.2 0.4-0.5 0.8-0.7 1.2l-0.7 1.7 1.2-1.2c-0.1 0.2-0.3 0.4-0.4 0.6l-1.4 2 1.9-1.5c0.1-0.1 0.3-0.2 0.4-0.3 0 0.3 0.1 0.5 0.1 0.8l-0.1 0.7 0.2-0.2v0.1 0.3h0.3 0.3l-0.2 0.4 0.4-0.4c0.3 0 0.5 0.1 0.8 0.1l-0.2 0.4 0.6-0.3c0.4 0 0.7 0.1 1.1 0.1l-0.3 0.6 1-0.5h0.1 0.3 0.7l-0.4 0.8 1-0.7c0.3 0 0.7 0 1 0.1l-1.1 1.5 1.8-1.4 0.1-0.1h0.6l-0.3 0.3 0.5 0.5 0.8-0.8h0.3 1.1c0.8 0 1.3 0.1 1.8 0.2v0.8 0.4l-0.6 0.8 0.6-0.5v0.7l-0.7 1 0.8-0.6c0 0.4 0.1 0.7 0.1 1.1l-0.3 0.3 0.3-0.1c0 0.4 0.1 0.8 0.2 1.2l-0.6 0.6 0.7-0.4c0 0.2 0.1 0.4 0.2 0.7l-0.6 0.4 0.6-0.2c0.1 0.3 0.2 0.7 0.3 1l0.1 0.3 0.3-0.1c1.4-0.4 3.2-1.4 5-2.5l-0.8 1 2.5-2 0.2-0.2c0.4-0.2 0.8-0.5 1.1-0.7 1.4-0.8 2.7-1.8 3.9-2.8 0.6-0.5 1.2-0.9 1.8-1.4l0.3-0.2v0.1zm-1.2-0.4l-1.2 0.6c-1.4 0.7-2.8 2-4.2 3.2-1.6 1.5-3.3 3-5 3.5 0.2-0.2 0.4-0.4 0.6-0.7 0.6-0.4 1.1-0.9 1.6-1.4 0.9-0.7 1.9-1.3 2.9-2 1.5-1 2.8-1.8 3.9-2.9l0.7-0.7-1 0.1c-1.2 0.1-2.3 0.6-3.2 1.3 0.6-0.7 1.1-1.4 1.6-2.2l0.9-1.2-1.3 0.7c-0.4 0.2-0.7 0.4-1 0.7 0.4-0.5 0.7-1.1 1.1-1.6l0.5-0.8c1 1.1 2.1 2.3 3.1 3.4m-5.7 2.6c0.8-0.8 1.7-1.5 2.7-1.8l-2.7 1.8m1.5-6.7c0.2 0.2 0.4 0.4 0.7 0.6l-0.8 0.5c-0.1 0.1-0.3 0.2-0.4 0.2 0.2-0.3 0.3-0.7 0.4-1l0.1-0.3zm-0.3-0.3l-0.2 0.1c-0.5 0.2-1 0.4-1.4 0.7 0.1-0.2 0.2-0.4 0.2-0.7l0.2-0.9-0.8 0.5c-0.1 0-0.1 0.1-0.2 0.1 0.1-0.2 0.3-0.4 0.4-0.5l0.4-0.5c0.5 0.5 1 0.9 1.4 1.2m-2.1-1.2c-0.3 0.1-0.5 0.2-0.7 0.4 0.1-0.2 0.2-0.3 0.4-0.5l0.3-0.5c0.2 0.1 0.3 0.3 0.5 0.4l-0.5 0.2zm-0.5 2.4c-0.2 0.3-0.4 0.6-0.6 0.8-0.8 0.7-1.6 1.5-2.3 2.3l-0.3 0.3-0.3 0.3c0.3-0.4 0.7-0.8 1-1.1 0.7-0.9 1.5-1.8 2.5-2.6m0.1-3.3l-0.5 0.2c-0.3 0.1-0.6 0.3-0.9 0.5 0.2-0.2 0.3-0.5 0.5-0.7l0.3-0.4c0.2 0.1 0.4 0.3 0.6 0.4m-1.2-1c0.1 0.1 0.2 0.1 0.2 0.2l-0.4 0.3c-0.9 0.7-2 1.6-3.2 2.6 0.9-1.1 1.9-2.2 2.7-3.3l0.1-0.2c0.2 0.1 0.4 0.3 0.6 0.4m-5.3 8.1c-0.2 0.3-0.4 0.5-0.6 0.8-0.6-0.1-1.2-0.2-1.7-0.2 1.6-2.1 3.6-4 5.4-5.6-0.1 0.2-0.3 0.3-0.4 0.5-1.6 1.5-3 3.2-3.9 4.7l0.6 0.4c0.9-1.4 2.1-2.7 3.3-4l0.5-0.5c0.6-0.6 1.3-1.1 1.9-1.5-0.3 0.4-0.5 0.7-0.8 1-1.7 1.2-3 2.9-4.3 4.4m-5.9 0.5c-0.2 0-0.5 0-0.7-0.1 0.9-0.7 1.7-1.6 2.4-2.5 0.5-0.5 0.9-1 1.4-1.5-0.5 0.9-1.3 1.9-2 2.7-0.4 0.6-0.8 1-1.1 1.4m2.9-4.8c0.2-0.3 0.3-0.6 0.4-0.9h0.5l-0.1 0.1c-0.3 0.3-0.6 0.5-0.8 0.8m1.4-0.4l0.1-0.4c0.4 0 0.8 0 1.2 0.1-0.5 0.1-0.9 0.3-1.3 0.7-0.1-0.2-0.1-0.3 0-0.4m1.5 0.7c0.3-0.4 0.6-0.7 0.8-1.1h0.3l-0.1 0.1c-0.4 0.5-0.9 1-1.3 1.5 0.2-0.1 0.3-0.3 0.3-0.5m3.7-5.5c0.2 0.2 0.5 0.4 0.7 0.6h-0.1c-0.3 0.1-0.5 0.3-0.8 0.4 0.1-0.3 0.1-0.6 0.2-1m-1.4 2.9c-0.1 0.3-0.3 0.5-0.4 0.6-0.1 0-0.1 0.1-0.3 0.1l0.7-0.7m-6.7 1.3c0.2 0 0.5 0 0.9 0.1-0.5 0.5-0.9 1-1.4 1.6-0.9 1.1-2 2.3-3 3.2l1.2-1.5c0.8-1.1 1.6-2.2 2.3-3.4m-3.7-0.5c0.2 0 0.3 0 0.5 0.1-1.2 0.9-2.3 2-3.3 3.1l-0.3 0.3c0.4-0.6 0.9-1.1 1.4-1.7 0.5-0.5 0.9-0.9 1.3-1.4 0.1-0.1 0.2-0.3 0.4-0.4m-0.8 5.4c-0.2 0.2-0.3 0.5-0.4 0.7h-0.4c0.3-0.2 0.6-0.4 0.8-0.7m-0.1-0.8c0.3-0.4 0.7-0.9 1.1-1.3 0.8-0.9 1.6-1.9 2.2-3 0.2 0 0.3 0 0.5 0.1-0.3 0.3-0.5 0.6-0.8 0.9-0.9 1.1-2 2.3-3 3.3m0-4.7c-0.2 0.2-0.3 0.3-0.4 0.5-0.3 0.3-0.6 0.6-0.9 1l-1.1 1.1c0.6-0.7 1.1-1.5 1.8-2.1l-0.5-0.5c-0.5 0.3-0.9 0.7-1.3 1.1 0.2-0.3 0.4-0.6 0.5-0.9l0.1-0.3c0.5 0 1.1 0 1.8 0.1m-3.6-0.1c0.2 0 0.5-0.1 0.7-0.1-0.3 0.2-0.5 0.4-0.8 0.6 0.1-0.2 0.1-0.3 0.1-0.5m0 1.5v0c0-0.1 0.1-0.2 0.1-0.2 0 0.1-0.1 0.1-0.1 0.2m0.5 4.6v-0.4l0.6-0.6c-0.1 0.2-0.2 0.5-0.3 0.7l-0.1 0.4c-0.1-0.1-0.2-0.1-0.2-0.1m0.8 0.1c0.8-0.8 1.4-1.5 2-2.3 0.7-0.9 1.4-1.7 2.1-2.4-0.4 0.5-0.8 1-1.3 1.6-0.8 1-1.7 2-2.3 3.1h-0.5m4.1-0.4c-0.1 0.2-0.3 0.4-0.4 0.6h-0.4c0.3-0.2 0.6-0.4 0.8-0.6m2.6 0.8h-0.1c0.5-0.5 0.9-1.2 1.4-1.8 0.8-1.2 1.7-2.4 2.7-2.9-0.4 0.5-0.8 1.1-1.1 1.6-0.7 1-1.4 2.1-2.2 3l-0.1 0.1h-0.6m1.4 0c0.1-0.2 0.3-0.3 0.4-0.5l-0.1 0.1 0.5 0.3h-0.1c-0.2 0-0.4 0.1-0.7 0.1m3.3 0.6c0.5-0.6 1.1-1.2 1.6-1.8 1-1.1 2.1-2.2 3-3.3 0.3-0.2 0.5-0.4 0.8-0.6-0.6 0.6-1.1 1.3-1.7 1.9-1.2 1.3-2.4 2.6-3.4 4l-0.3 0.5v-0.7m0.1 1.2l0.8-0.7c0.1 0 0.1-0.1 0.2-0.1-0.2 0.2-0.4 0.4-0.5 0.6l-0.5 0.6v-0.4m0 1.1l0.9-0.7c0.9-0.8 1.9-1.8 2.8-2.7l0.1-0.1c0.8-0.8 1.7-1.5 2.3-2.4 0.6-0.5 1.3-1 2-1.4-0.9 1.6-2.6 3.1-4.3 4.4-1.4 1.1-2.8 2.3-3.8 3.6 0.1-0.2 0.1-0.5 0-0.7m0.2 1.5l0.4-0.2c1.8-1 3.2-2.5 4.6-4 0.9-1 1.8-1.9 2.8-2.8-1.6 2.2-3.8 4.3-5.8 6.2-0.4 0.3-0.7 0.7-1 1l-0.8 0.8c-0.2-0.4-0.2-0.7-0.2-1m0.2 1.3l1.1-0.6c1.6-0.9 2.9-2.3 4.2-3.6 0.8-0.8 1.6-1.7 2.5-2.4-2.2 2.8-4.7 5.3-7 6.9l-0.6 0.4c-0.1-0.3-0.2-0.5-0.2-0.7m0.2 1.1l0.8-0.2c0.2-0.1 0.4-0.1 0.5-0.2 0 0 0 0.1-0.1 0.1l-0.3 0.6h0.2c-0.3 0.2-0.7 0.3-1 0.4 0-0.3 0-0.5-0.1-0.7m11.7-6.3c-0.5 0.4-0.9 0.7-1.4 1.1l0.2-0.2c0.5-0.5 1-1 1.5-1.4l1-0.9c0.1 0.1 0.2 0.2 0.2 0.3-0.5 0.3-1 0.7-1.5 1.1"/>
<path class="st3" d="m158.9 209c-0.3-1.3-0.8-2.3-1.3-3.5-0.3-0.7-0.7-1.5-0.8-2.3-0.1-1.3 1.3-5.6 3.3-5.5 1 0 2.6 1.3 3.2 2.2 0.4 0.6 0.6 1.5 0.8 2.2 0.5 2.2 0.4 4.6-1.5 6.2-0.1 0.1-0.1 0.3 0 0.3 1.4 0.6 3.3 1.7 3.8 3.2 1.4 4.2-3.4 3.2-5.3 3.1-1.6-0.1-3.6 0.1-5.1-0.3-0.4 0-0.8 0-1.1-0.1-0.5-0.8-0.9-1.5-1.4-2.3-0.1-1.8 3.9-3 5.1-3 0.3 0 0.3-0.4 0-0.4-2.5 0-5.5 1.7-6 4.4-0.4 2.5 2.8 1.8 4.5 1.9 2.2 0.1 4.5 0.3 6.7 0.4 0.9 0 2.5 0.4 3.3-0.5 1.3-1.5-0.6-4-1.6-5-0.7-0.7-0.6-0.4-1.3-1-1-1-0.8-0.2-0.2-1.5 0.5-1.1 0.7-1.7 0.7-3-0.1-2.2-0.7-5.4-2.7-6.8-1.6-1.1-4.2 0-5.4 1.5-2.2 2.8 1.2 7.1 1.7 9.9 0.2 0.3 0.6 0.2 0.6-0.1"/>
<path class="st2" d="m158.5 247.9c3.1-0.3 6 0.6 7.9 2 1.4 1 3 2.8 3.5 4.7 0.5 2.1-0.7 4.3-1.8 5.4-2 2-5.6 2.8-9.5 2.2-0.5-0.1-1.1-0.3-1.5-0.2-0.5 0-1 0.3-1.5 0.5s-0.9 0.4-1.5 0.5c-0.6 0.2-3.2 0.8-3.3-0.1-0.1-0.5 0.9-0.8 1.5-1.1 0.2-0.1 1.4-0.9 1.4-1.2 0-0.1-0.6-0.5-0.8-0.6-1.3-0.9-2.6-2.3-2.7-4.4-0.5-4.8 3.9-7.3 8.3-7.7zm-3.6 13.9c0.6-0.2 1.3-0.7 2-0.7s1.5 0.2 2.1 0.3c3.3 0.5 6.6-0.2 8.3-1.9 0.9-0.9 2-2.7 1.7-4.4-0.3-1.9-1.8-3.5-3.3-4.5-1.6-1.2-3.7-1.8-5.9-1.9-3.1-0.2-5.9 1.1-7.4 2.5-1 1-1.8 2.6-1.6 4.5 0.2 1.7 1.2 3 2.3 3.8 0.3 0.2 1.2 0.6 1.2 0.8 0.1 0.5-1 1.5-1.3 1.7-0.2 0.1-0.4 0.2-0.4 0.4 1-0.1 1.7-0.3 2.3-0.6z"/>
		<path d="m123 212.1h10.4c1.9 0 1.9-3 0-3h-10.4c-1.9 0.1-1.9 3 0 3z"/>
		<path d="m126.4 202.9v13.6c0 1.9 3 1.9 3 0v-13.6c0-1.9-3-1.9-3 0z"/>
		<path d="m386.2 180.9h14.1c1.9 0 1.9-3 0-3h-14.1c-1.9 0-1.9 3 0 3z"/>
		<path d="m391 172.1v14.1c0 1.9 3 1.9 3 0v-14.1c0-1.9-3-1.9-3 0z"/>
		<path d="m400 233.9h36.3c1.9 0 1.9-3 0-3h-36.3c-1.9 0.1-1.9 3 0 3z"/>
		<path d="m429.8 240h18.9c1.9 0 1.9-3 0-3h-18.9c-1.9 0-1.9 3 0 3z"/>
		<path d="m160.8 325.5h-37.5c-1.9 0-1.9 3 0 3h37.5c2-0.1 2-3 0-3z"/>
		<path d="m131.3 317h-22.5c-1.9 0-1.9 3 0 3h22.5c2-0.1 2-3 0-3z"/>
		<path d="m110.8 326.5h-3c-1.9 0-1.9 3 0 3h3c2-0.1 2-3 0-3z"/>
		<path d="m448.3 231.9c1.9 0 1.9-3 0-3-1.9 0.1-1.9 3 0 3z"/>
		<path d="m372.3 183.9c1.9 0 1.9-3 0-3-1.9 0.1-1.9 3 0 3z"/>
		<path d="m381.3 168.9c1.9 0 1.9-3 0-3-1.9 0.1-1.9 3 0 3z"/>
		<path d="m343.1 331h-58.5c-1.9 0-1.9 3 0 3h58.5c1.9-0.1 1.9-3 0-3z"/>
		<path d="m425.1 331.9h20.5c1.9 0 1.9-3 0-3h-20.5c-1.9 0.1-1.9 3 0 3z"/>
<path class="st8" d="m251.9 171.9s-115.7-108-162.5 8.7l-26.6 74.8"/>
<path class="st2" d="m59.8 222.6c18.6-1.5 28.4 7.5 34 19.9 3.7 8.2 5.1 17.8 1.3 26.6-2.6 6-7.9 11.5-13.1 14.8-11.7 7.3-29.1 6-39.7-1.6-5.3-3.8-9.9-10.2-12.3-16.6-2.6-6.8-2.1-14.4 0.3-21.2 2.4-6.5 6.1-12.2 11.8-16.1 4.4-3 10.6-5.2 17.7-5.8z"/>
<path class="st9" d="m43.1 230.9c-6.5 4.6-12.5 14.1-12.5 24.6 0.1 10.6 6.3 18.7 12 23.6 1.8 1.6 3.9 2.7 6.1 3.8 17.3 8.9 37.6-0.4 44-14.6 5.3-11.7 0-26.9-6.1-33.3-1.1-1.2-1.9-2.6-3-3.4-5.1-4.3-13.7-7.1-24.3-6.2-6.3 0.4-12.3 2.7-16.2 5.5z"/>
<path class="st2" d="m62.2 256.2c3.9-3.9 8.4-8.3 12.6-12.5 0.5-0.5 1.6-2 2.2-1.8s1.2 1.1 1.8 1.6l3.4 3.4c0.4 0.4 1.6 1.2 1.6 1.8 0 0.4-0.8 1.1-1.2 1.6-1.4 1.4-2.7 2.9-3.9 4.3-4.5 4.9-8.8 9.1-13.4 14.1-0.4 0.4-0.8 0.8-1.3 1.4-0.3 0.3-1 1.3-1.4 1.3-0.6 0-1.5-1.3-2-1.8-4.1-3.7-7.7-7.2-11.7-11.1-0.4-0.4-1.8-1.4-1.8-1.9s1.4-1.8 1.6-2c1.3-1.4 2.3-2.3 3.6-3.7 0.5-0.5 1.2-1.7 1.9-1.7s1.7 1 2.3 1.6c1.8 1.9 3.6 3.5 5.7 5.4zm14.5-13.4c-3.3 3.7-7 7.2-10.4 10.9-1.7 1.8-3.6 3.4-5.2 5.2-1.5 1.6-3 3.2-4.4 4.8-0.1 0.1-0.6 0.4-0.4 0.7 0.6-0.1 0.9-0.7 1.3-1.1 1.3-1.4 2.6-2.8 3.9-4.1 5.1-5.1 10-10.5 15-15.6 0.1-0.1 0.6-0.4 0.4-0.7-0.1 0-0.1-0.1-0.2-0.1zm0.8 0.8c-6.3 6.4-12.9 13.9-19.2 20.5-0.4 0.4-1.2 0.9-1 1.4 0.3 0.1 0.5-0.3 0.7-0.4 6.8-6.9 13.3-14.1 19.9-21.1-0.2-0.2-0.2-0.4-0.4-0.4zm0.8 0.8c-3.3 3.6-6.7 7.4-10.2 11.1-2.9 3.2-6 6.3-8.8 9.4-0.4 0.4-1.1 1-0.9 1.5 0.4 0.2 0.5-0.3 0.6-0.5 6.2-6.6 12.3-13.3 18.4-19.9 0.4-0.4 1-1 1.1-1.5-0.1 0-0.1-0.1-0.2-0.1zm0.7 0.7c-6 6.8-12.6 14-18.7 20.8-0.3 0.3-1.2 1.2-0.9 1.4 0.3 0.3 0.7-0.4 0.6-0.4 6.7-7 13-14.3 19.5-21.3-0.2 0-0.3-0.4-0.5-0.5zm1 1.1c-6.6 7.3-13.2 14.6-19.7 22 6.9-7 13.6-14.2 20.2-21.4-0.1-0.3-0.3-0.5-0.5-0.6zm0.9 1c-6.4 7.1-12.9 14.1-19.3 21.1-0.1 0.3-0.7 0.4-0.4 0.7 0.3 0.2 0.5-0.2 0.6-0.4 6.7-6.8 13.3-13.9 19.8-20.7-0.2-0.2-0.4-0.5-0.7-0.7zm1.2 1.2c-3.4 3.5-6.7 7.3-10.2 10.9-2.9 3.1-5.9 6.3-8.7 9.3-0.4 0.4-1.1 0.8-1 1.3 0.3 0.2 0.4-0.3 0.6-0.4 1.5-1.6 3-3.1 4.4-4.7 5.1-5.3 10.3-10.7 15.3-16-0.1-0.1-0.2-0.3-0.4-0.4zm-27.9 1.8c-1.6 1.6-3.2 3.4-4.7 5.1-0.5 0.5-1.1 1-1.3 1.7 0.4 0.1 0.6-0.4 0.8-0.6 0.8-0.9 1.6-1.7 2.4-2.5 1.1-1.1 2.2-2.3 3-3.5-0.2 0-0.1-0.2-0.2-0.2zm0.7 0.6c-1.5 1.7-3.1 3.5-4.6 5.1-0.5 0.5-1.2 0.9-1.3 1.7 0.4 0.3 0.7-0.3 0.8-0.5 1.8-2 3.7-4.1 5.4-6.1-0.1 0.1-0.2-0.1-0.3-0.2zm0.7 0.8c-1.7 1.9-3.7 4.2-5.4 6.1-0.2 0.2-0.7 0.6-0.3 0.9 1.1-1 2.1-2.2 3.1-3.3s2-2.2 3-3.5c-0.2 0-0.2-0.3-0.4-0.2zm0.7 0.7c-1.6 2-3.5 4.1-5.1 6-0.2 0.2-0.6 0.5-0.6 0.9 0.4 0.2 0.7-0.4 0.8-0.6 1.8-2 3.7-3.9 5.4-5.9-0.1-0.1-0.2-0.3-0.5-0.4zm1 0.8c-1.7 1.9-3.8 4.2-5.5 6.1-0.1 0.2-0.8 0.6-0.1 0.8 0.6-0.3 1-1 1.5-1.6 1.5-1.7 3.1-3.3 4.5-5-0.1 0-0.2-0.2-0.4-0.3zm-4.1 7.2c1.4-1.5 2.5-2.7 3.9-4.2 0.5-0.5 2.2-1.9 1.1-2.1-1.5 1.7-3 3.5-4.5 5.1-0.5 0.5-1.1 1-1.3 1.7 0.3 0.2 0.6-0.3 0.8-0.5zm5.8-5.5c-1.5 1.7-3.1 3.4-4.5 5.1-0.5 0.5-1.2 1-1.3 1.7 0.4 0.2 0.7-0.3 0.8-0.5 1.8-2 3.7-4 5.4-6.1-0.2 0-0.2-0.2-0.4-0.2zm0.8 0.7c-1.9 2.3-4 4.4-5.9 6.8 0.4 0.4 0.6-0.1 0.8-0.4 1.8-2 3.8-4.1 5.4-6.1-0.1-0.1-0.1-0.3-0.3-0.3zm0.7 0.8c-0.9 1.2-2 2.3-3 3.5-1 1.1-1.9 2.2-2.7 3.4 1.2-0.8 2.1-2.1 3.1-3.2s2.2-2.2 3.1-3.3c-0.2-0.2-0.2-0.5-0.5-0.4zm0.9 0.7c-1.9 2.3-4.2 4.4-5.9 6.7 0.6-0.3 1-1 1.5-1.5 1.6-1.6 3.2-3.3 4.7-5-0.1 0-0.1-0.2-0.3-0.2z"/>
<path class="st8" d="m274.8 363.1s78.4 79.6 134.6 51.7 88.3-118.3 88.3-118.3"/>
<path class="st2" d="m494.8 223.7c18.6-1.5 28.4 7.5 34 19.9 3.7 8.2 5.1 17.8 1.3 26.6-2.6 6-7.9 11.5-13.1 14.8-11.7 7.3-29.1 6-39.7-1.6-5.3-3.8-9.9-10.2-12.3-16.6-2.6-6.8-2.1-14.4 0.3-21.2 2.4-6.5 6.1-12.2 11.8-16.1 4.3-3 10.5-5.3 17.7-5.8z"/>
<path class="st9" d="m478 231.9c-6.5 4.6-12.5 14.1-12.5 24.6 0.1 10.6 6.3 18.7 12 23.6 1.8 1.6 3.9 2.7 6.1 3.8 17.3 8.9 37.6-0.4 44-14.6 5.3-11.7 0-26.9-6.1-33.3-1.1-1.2-1.9-2.6-3-3.4-5.1-4.3-13.7-7.1-24.3-6.2-6.2 0.5-12.2 2.7-16.2 5.5z"/>
<path class="st2" d="m502.7 251.4c2.6 0.5 5.1 0.9 8 1.4 0.8 0.1 2 0.3 2.2 0.9 0.2 0.7-1.1 1.5-1.7 2.1-1.4 1.2-2.4 2.2-3.8 3.5-0.5 0.5-1.7 1.1-1.9 1.8-0.1 0.6 0.2 1.9 0.3 2.4 0.3 1.8 0.5 3 0.8 4.7 0.1 0.6 0.5 1.5-0.1 2.1-1.6-0.1-3.1-1.1-4.5-1.9-1.5-0.7-3-1.4-4.4-2.2-2.4 1-4.5 2.1-6.8 3.3-0.7 0.4-1.5 1.1-2.4 0.7-0.3-2.2 0.5-4.6 1-6.8 0.1-0.6 0.5-1.9 0.4-2.4s-1.4-1.4-1.9-1.9c-0.7-0.7-1.3-1.2-1.9-1.8-1.4-1.4-2.7-2.2-3.4-3.9 1.1-0.9 2.9-0.8 4.6-1.1 1.7-0.2 3.4-0.4 4.9-0.7 1.7-2.7 3.2-6.2 4.9-8.7 0.6-1 1.8 1.4 2.1 1.8 1.1 2.4 2.5 4.8 3.6 6.7zm-6.7-3.8c0.6-0.8 1.4-1.4 1.9-2.2-0.2-0.1-0.2-0.3-0.3-0.5-0.7 0.7-1.4 1.9-1.6 2.7zm2.1-1.3c-1.6 2.2-3.7 4-5 6.6-0.4 0-0.5 0.2-0.8 0.2-1 1.2-2.4 2.7-3.4 3.9-0.3 0.4-1 1-0.3 1.4 3.4-3.7 6.8-7.5 10-11.5-0.2-0.3-0.2-0.6-0.5-0.6zm-7.8 11.6c-0.3 0.3-1.1 0.9-0.6 1.5 0.6-0.1 0.9-0.7 1.3-1.1 2.8-3.3 5.7-6.7 8.4-10-0.1-0.2-0.2-0.5-0.4-0.7-2.7 3.4-5.9 7.1-8.7 10.3zm0.3 2.3c0.4 0.1 0.2 0.7 0.4 1 2-2.5 4.7-5.7 7-8.4 0.7-0.9 3-2.9 1.8-3.7-3 3.8-6.2 7.4-9.2 11.1zm7.6-6.4c-1.8 2.2-3.4 4.1-5.2 6.4-0.9 1.1-2.6 2.8-2.5 3.8 0-0.1 0.1-0.1 0.1-0.2 3.1-3.6 6.4-7.6 9.4-11.2 0.4-0.5 1.2-1 0.9-1.8-1.1 0.8-1.8 1.9-2.7 3zm3.2-1.8c-3.8 4.6-7.5 9.3-11.3 13.9-0.1 0.4 0 0.8-0.2 1.1 0.4 0.2 0.5-0.4 0.7-0.6 4-4.5 7.9-9.3 11.6-13.9-0.4 0-0.5-0.3-0.8-0.5zm1.8 0.7c-4.3 5.1-8.5 10.3-12.7 15.6 1.7-0.4 2.2-1.5 3.2-2.6 3.6-4.2 7.3-8.5 10.6-12.7-0.4-0.1-0.7-0.2-1.1-0.3zm-16.2 3.7c0.1 0.4 0.4 0.5 0.6 0.7 1.1-1.3 2.2-2.5 3.3-3.7 0-0.1 0.2-0.2-0.1-0.2-1.8 0.5-2.4 2.3-3.8 3.2zm17.1-1.9c-3.2 3.9-6.6 8.2-9.5 11.9 2-0.7 2.7-2.3 4-3.9 2.1-2.6 4.1-5.2 6.2-7.7 0.4-0.5 1-1 1-1.5-0.8-0.2-1.3 0.7-1.7 1.2zm-6.2 10.7c0.8 0.4 1.1-0.5 1.5-0.9 2.5-3.1 4.9-6.2 7.3-9.2 0.4-0.5 1-1 1-1.5-0.2-0.2-0.6-0.2-1-0.2-2.8 4.1-6.2 7.9-8.8 11.8zm-9.3-11.4c0-0.1 0-0.2-0.2-0.2-1.2 0.3-2 1.4-2.3 2.2 0.9 0.1 1.6-1.5 2.5-2zm20.1 0.1c-2.6 3.5-5.5 7.2-8.1 10.6-0.3 0.4-1 0.9-0.9 1.5 1-0.7 1.6-1.8 2.4-2.8 2.5-3 5-6.1 7.3-9.1-0.3-0.1-0.4-0.3-0.7-0.2zm-23.9 0.3c-0.1 0.3 0.4 0.7 0.7 0.8 0.2-0.4 0.6-0.6 0.9-1-0.6 0-1 0.2-1.6 0.2zm24.2 1.7c0.6-0.6 1.3-1 1.8-1.7-0.8 0-1.6 1.6-1.8 1.7zm-7.5 9.4c-0.3 0.4-0.7 0.8-0.6 1.2 0.4 0.1 0.7-0.4 1-0.8 0.3-0.3 0.6-0.7 0.9-1.1 0.7-0.8 1.8-2 1.6-2.9-0.9 1.2-2 2.5-2.9 3.6zm1.8 0c-0.4 0.6-1.3 1.1-1.1 1.8 0.6-0.1 0.9-0.8 1.3-1.4s0.9-1.2 1.3-1.7c-0.1-0.2 0-0.5-0.2-0.6-0.4 0.6-0.8 1.3-1.3 1.9zm0 2.4c0.8-0.1 1.2-1.4 1.7-2.2 0-0.1-0.1-0.2-0.2-0.2-0.4 0.9-1.4 1.6-1.5 2.4zm1.3 0.5c0.1 0 0.8-0.8 0.5-1.3-0.1 0.4-1 0.9-0.5 1.3z"/>
</svg>
