<?xml version="1.0" encoding="UTF-8" standalone="no"?>
<!-- Generator: Adobe Illustrator 21.0.0, SVG Export Plug-In . SVG Version: 6.00 Build 0)  -->
<svg id="Layer_1" style="enable-background:new 0 0 156 175" xmlns="http://www.w3.org/2000/svg" xml:space="preserve" viewBox="0 0 156 175" version="1.1" y="0px" x="0px" xmlns:xlink="http://www.w3.org/1999/xlink">
<style type="text/css">
	.st0{fill:#CFEBF6;}
	.st1{clip-path:url(#SVGID_2_);}
	.st2{fill:#333333;}
	.st3{fill:#202020;}
	.st4{fill:#626C72;}
</style>
<path class="st0" d="m24.9 71.7m30.7-42.3c-0.3 0.1-0.5 0.3-0.8 0.4-11.7 6.1-22 15.6-28.9 30-1.2 2.4-2.3 5.1-2.6 8.5-0.2 2.8 0.1 6.2 1.3 9.5 0.1 9.1 1.9 19.5 6.9 28.6 6.2 11.3 15.6 17.4 22.8 17.7 4 0.1 7.5-1.2 11-2.5 11.5-4.5 22.9-9.4 34-14.9 1.1-0.5 2.2-1.1 3.2-1.6 7.4-3.7 14.5-8 20-15.2 2.4-3.1 4.5-6.7 7.4-8.9 2.3-1.8 5.2-2.7 7.2-5.1 1.7-2.1 2.7-5.2 3.3-8.6 0.8-4.2 1-8.9 0.1-14.2s-3.2-11.1-6.4-15.4c-3.1-4.1-6.8-6.3-10-10-2.1-2.4-4-5.3-6.1-7.1-2.3-1.9-4.5-2.1-6.6-2.3-6.4-0.4-12.4 0.2-18.5 1-12.9 1.6-25.8 4.2-37.3 10.1"/>
	<defs>
		<rect id="SVGID_1_" y="13.7" x="37.5" height="98.6" width="79"/>
	</defs>
	<clipPath id="SVGID_2_">
		<use xlink:href="#SVGID_1_"/>
	</clipPath>
	<g class="st1">
		<path class="st2" d="m67.8 111.9c-0.2 0-0.3-0.1-0.3-0.2-0.1-0.2-0.2-0.3 0.3-0.6 0.7-0.5 2.5-1.7 7.3-4.7 4.5-2.8 10.4-6.5 16.3-10.1 1.1-0.7 2.3-1.4 3.5-2.2-1.6 1-3.3 1.9-4.9 2.9-25.5 15-25.6 15-25.9 14.9-0.1 0-0.2-0.1-0.3-0.2-0.1-0.2-0.2-0.3 0.3-0.6 0.7-0.6 2.7-1.8 7.8-4.9 1.3-0.8 2.7-1.6 4.1-2.5-12.8 7.5-12.9 7.5-13.1 7.4-0.1 0-0.2-0.1-0.3-0.2-0.1-0.2-0.2-0.3 0.3-0.6 0.7-0.6 2.7-1.8 7.8-5 4.6-2.9 10.8-6.6 16.9-10.4-25.5 15-25.6 15-25.9 14.9-0.1 0-0.2-0.1-0.3-0.2-0.1-0.2-0.2-0.3 0.3-0.6 0.7-0.6 2.6-1.7 7.6-4.8 2.4-1.4 5.1-3.1 8.1-4.9-17.4 10.2-17.4 10.2-17.7 10.1-0.1 0-0.2-0.1-0.3-0.2-0.1-0.2-0.2-0.3 0.3-0.6 0.7-0.6 2.6-1.8 7.7-4.9 4.7-2.9 11.1-6.8 17.4-10.8 1-0.6 1.9-1.2 2.9-1.8-1 0.6-2.1 1.2-3.1 1.8-25.9 15.2-25.9 15.2-26.2 15.1-0.1 0-0.2-0.1-0.3-0.2-0.1-0.2-0.2-0.3 0.3-0.6 0.7-0.6 2.6-1.8 7.6-4.9 4.7-2.9 10.9-6.8 17.1-10.7 2.3-1.4 4.6-2.9 6.8-4.3l-7.2 4.2c-25.6 15-25.7 15-26 14.9-0.1 0-0.2-0.1-0.3-0.2-0.1-0.2-0.2-0.3 0.3-0.6 0.7-0.6 2.6-1.8 7.7-4.9 4.7-2.9 11-6.8 17.2-10.7 1.9-1.2 3.8-2.3 5.6-3.5-2 1.2-4.1 2.4-6.1 3.6-25.7 15.1-25.8 15.1-26.1 15-0.1 0-0.2-0.1-0.3-0.2-0.1-0.2-0.2-0.3 0.3-0.6 0.7-0.6 2.6-1.7 7.6-4.8 4.4-2.8 9.8-6.1 15.4-9.5-24.1 14.2-24.2 14.1-24.5 14.1-0.1 0-0.2-0.1-0.3-0.2-0.1-0.2-0.2-0.3 0.3-0.6 0.7-0.6 2.6-1.8 7.8-4.9 3.1-1.9 6.9-4.2 11-6.7-18.3 10.8-18.4 10.7-18.7 10.7-0.1 0-0.2-0.1-0.3-0.2-0.1-0.2-0.2-0.3 0.3-0.6 0.7-0.6 2.6-1.8 7.7-4.9 4.7-2.9 11-6.8 17.3-10.7 1.4-0.9 2.8-1.7 4.2-2.6-1.6 1-3.3 1.9-4.9 2.9-26.2 15.4-26.2 15.3-26.5 15.3-0.1 0-0.2-0.1-0.3-0.2-0.1-0.2-0.2-0.3 0.3-0.6 0.7-0.6 2.7-1.8 7.8-5 4.8-3 11.2-6.9 17.7-10.8 0 0-0.1 0-0.1 0.1-26 14.9-26.1 14.9-26.4 14.8-0.1 0-0.2-0.1-0.3-0.2-0.1-0.2-0.2-0.3 0.3-0.6 0.7-0.6 2.7-1.8 8-5.1 4.9-3 11.5-7.1 18-11.1 1.2-0.7 2.4-1.5 3.6-2.2-1.1 0.7-2.2 1.3-3.4 2-26.2 15.4-26.3 15.4-26.6 15.3-0.1 0-0.2-0.1-0.3-0.2-0.1-0.2-0.2-0.3 0.3-0.6 0.7-0.6 2.7-1.8 8-5.1 4.8-3 11.3-6.9 17.8-10.9-26.4 15.5-26.5 15.5-26.8 15.4-0.1 0-0.2-0.1-0.3-0.2-0.1-0.2-0.2-0.3 0.3-0.6 0.7-0.6 2.7-1.8 8-5.1 4.9-3 11.4-7 17.9-11.1 1.4-0.9 2.9-1.8 4.4-2.7l-4.5 2.7c-26.6 15.5-26.6 15.5-26.9 15.4-0.1 0-0.2-0.1-0.3-0.2-0.1-0.2-0.2-0.3 0.3-0.6 0.7-0.6 2.7-1.8 8.1-5.1 1.5-0.9 3.2-1.9 4.9-3-13.7 8-13.8 8-14.1 8-0.1 0-0.2-0.1-0.3-0.2-0.1-0.2-0.2-0.3 0.3-0.6 0.7-0.6 2.8-1.9 8.4-5.4 5.1-3.2 12-7.4 18.9-11.6 1.5-0.9 3.1-1.9 4.7-2.9-1.5 0.9-3 1.8-4.5 2.6-27.5 16.2-27.6 16.1-27.9 16-0.1 0-0.2-0.1-0.3-0.2-0.1-0.2-0.2-0.3 0.3-0.6 0.7-0.6 2.8-1.9 8.4-5.3 4.4-2.7 10.2-6.2 16.1-9.8-25.3 14.9-25.4 14.9-25.7 14.8-0.1 0-0.2-0.1-0.3-0.2-0.3-0.5-0.3-0.5 8.9-6.1 5.3-3.3 12.3-7.6 19.4-12 2.5-1.5 5-3.1 7.4-4.6-2.6 1.5-5.2 3-7.7 4.5-28.8 17-28.8 16.9-29.2 16.8-0.1 0-0.2-0.1-0.3-0.2-0.1-0.2-0.2-0.3 0.3-0.6 0.7-0.6 2.9-1.9 8.9-5.6 3.6-2.2 8-4.9 12.7-7.7-22 13-22 12.9-22.3 12.9-0.1 0-0.2-0.1-0.3-0.2-0.3-0.5-0.3-0.5 9.6-6.5 5.7-3.5 13.3-8.1 20.9-12.7 0.9-0.5 1.8-1.1 2.7-1.6-0.9 0.5-1.8 1-2.7 1.6-30.6 18-30.7 18-31 17.9-0.1 0-0.2-0.1-0.3-0.2-0.1-0.2-0.2-0.3 0.3-0.6 0.8-0.6 3.1-2 9.7-6 0.6-0.4 1.3-0.8 1.9-1.2-11.4 6.5-11.5 6.4-11.7 6.4-0.1 0-0.2-0.1-0.3-0.2-0.3-0.5-0.3-0.5 10.6-7.1 6.3-3.8 14.7-8.9 23.1-14 0.5-0.3 1.1-0.6 1.6-1-0.6 0.3-1.1 0.6-1.6 1-33.9 19.9-34 19.9-34.4 19.8-0.1 0-0.2-0.1-0.3-0.2-0.3-0.5-0.3-0.5 10.5-7.1 6.3-3.8 14.6-8.9 23-14 2.7-1.6 5.5-3.3 8.2-5-2.6 1.5-5.2 3.1-7.8 4.6-33.2 19.5-33.3 19.5-33.6 19.4-0.1 0-0.2-0.1-0.3-0.2-0.3-0.5-0.3-0.5 10.2-6.8 1.1-0.7 2.3-1.4 3.6-2.2-14.1 8.3-14.3 8.2-14.5 8.2-0.1 0-0.2-0.1-0.3-0.2-0.3-0.5-0.3-0.5 10.3-6.8 1.5-0.9 3.1-1.9 4.9-2.9-15.1 8.8-15.2 8.7-15.4 8.7-0.1 0-0.2-0.1-0.3-0.2-0.3-0.5-0.3-0.5 10.1-6.7 0.7-0.4 1.3-0.8 2-1.2-12.2 7.1-12.3 7.1-12.5 7-0.1 0-0.2-0.1-0.3-0.2-0.3-0.5-0.3-0.5 9.9-6.6 2.8-1.7 6.2-3.7 9.7-5.9-19.2 11.3-19.3 11.3-19.6 11.2-0.1 0-0.2-0.1-0.3-0.2-0.3-0.5-0.3-0.5 9.6-6.6 5.7-3.5 13.3-8.2 20.9-12.9 2.9-1.8 5.8-3.6 8.7-5.3-2.8 1.6-5.6 3.3-8.4 4.9-30.4 17.9-30.5 17.9-30.8 17.8-0.1 0-0.2-0.1-0.3-0.2-0.3-0.5-0.3-0.5 9.3-6.3 5-3.1 11.5-7 18.2-11.1-27.2 16-27.3 15.9-27.6 15.9-0.1 0-0.2-0.1-0.3-0.2-0.3-0.5-0.3-0.5 8.9-6.1 5.3-3.2 12.3-7.6 19.4-11.9 0.8-0.5 1.7-1 2.5-1.5-0.6 0.4-1.3 0.8-1.9 1.1-27.9 16.4-28 16.3-28.3 16.3-0.1 0-0.2-0.1-0.3-0.2-0.1-0.2-0.2-0.3 0.3-0.6 0.7-0.6 2.7-1.8 8.2-5.2 5-3.1 11.7-7.2 18.4-11.3 0.6-0.4 1.3-0.8 1.9-1.2l-1.5 0.9c-26.6 15.6-26.7 15.6-27 15.5-0.1 0-0.2-0.1-0.3-0.2-0.1-0.2-0.2-0.3 0.3-0.6 0.7-0.5 2.5-1.7 7.3-4.7 4.4-2.7 10.1-6.3 16-9.8-22.9 13.5-23 13.5-23.3 13.4-0.1 0-0.2-0.1-0.3-0.2-0.1-0.2-0.2-0.3 0.3-0.6 0.6-0.5 2-1.4 5.4-3.4 1.6-1 3.4-2.1 5.4-3.3-10.5 6.1-10.5 6.1-10.8 6.1-0.1 0-0.2-0.1-0.3-0.2-0.1-0.2-0.2-0.3 0.2-0.6 0.5-0.4 1.8-1.3 4.9-3.2 3-1.9 7-4.5 11-7.1 0.5-0.3 1.1-0.7 1.6-1-0.4 0.2-0.8 0.5-1.3 0.7-16.1 9.5-16.1 9.5-16.4 9.4-0.1 0-0.2-0.1-0.3-0.2-0.1-0.2-0.2-0.3 0.2-0.6 0.5-0.4 1.7-1.2 4.5-3 2.7-1.7 6.2-4 9.8-6.2-13.5 7.9-13.5 7.9-13.8 7.9-0.1 0-0.2-0.1-0.3-0.2-0.1-0.2-0.2-0.3 0.2-0.6 0.5-0.4 1.6-1.2 4.1-2.8 2.5-1.7 5.9-3.9 9.3-6.1 0.8-0.5 1.6-1 2.4-1.6-0.3 0.2-0.6 0.4-0.9 0.5-12.4 7.3-12.4 7.3-12.7 7.2-0.1 0-0.2-0.1-0.3-0.2-0.2-0.4-0.2-0.4 3.5-2.9 2-1.4 4.7-3.1 7.4-4.9l0.1-0.1c-9.1 5.1-9.1 5.1-9.3 5.1-0.1 0-0.2-0.1-0.3-0.2-0.2-0.4-0.2-0.4 2.9-2.6 1.7-1.2 3.9-2.8 6.1-4.3 0.6-0.4 1.1-0.8 1.7-1.2l-0.1 0.1c-7.8 4.6-7.8 4.6-8.1 4.5-0.1 0-0.2-0.1-0.3-0.2s-0.1-0.2 0.2-0.6c0.5-0.5 1.6-1.4 4-3.3h0.1c-0.7 0.4-0.8 0.3-0.9 0.1s-0.1-0.5 0.1-0.6h0.1c0.2-0.1 1.4-0.8 2.4-1.4 2.6-1.6 2.6-1.6 2.8-1.5 0.1 0 0.2 0.1 0.3 0.2 0.2 0 0.2 0-0.1 0.4h-0.1c-0.5 0.5-1.6 1.4-4 3.3l-0.1 0.1c1-0.6 2.1-1.2 3.1-1.8 7.8-4.6 7.8-4.6 8.1-4.5 0.1 0 0.2 0.1 0.3 0.2 0.2 0.4 0.2 0.4-2.9 2.6-1.7 1.2-3.9 2.8-6.1 4.3-0.6 0.4-1.2 0.9-1.9 1.3 0.9-0.5 1.8-1.1 2.7-1.6 10.2-6 10.2-6 10.4-5.9 0.1 0 0.2 0.1 0.3 0.2 0.1 0.2 0.2 0.3-0.2 0.6-0.4 0.4-1.3 1-3.3 2.3-2 1.4-4.7 3.2-7.4 5-0.1 0.1-0.2 0.1-0.3 0.2 0.5-0.3 1-0.6 1.4-0.8 12.4-7.3 12.4-7.3 12.7-7.2 0.1 0 0.2 0.1 0.3 0.2 0.1 0.2 0.2 0.3-0.2 0.6-0.5 0.4-1.6 1.2-4 2.8-2.5 1.7-5.9 3.9-9.2 6.1-0.9 0.6-1.7 1.2-2.6 1.7 1.1-0.6 2.2-1.3 3.3-1.9 14.6-8.6 14.7-8.6 14.9-8.5 0.1 0 0.2 0.1 0.3 0.2 0.1 0.2 0.2 0.3-0.2 0.6-0.5 0.4-1.7 1.2-4.5 3-2.7 1.7-6.3 4-9.9 6.4l0.6-0.3c16.1-9.5 16.1-9.5 16.4-9.4 0.1 0 0.2 0.1 0.3 0.2 0.1 0.2 0.2 0.3-0.2 0.6-0.5 0.4-1.8 1.3-4.9 3.2-3 1.9-7 4.5-11 7.1-0.6 0.4-1.2 0.8-1.8 1.1 1-0.6 2-1.2 3-1.7 17.7-10.4 17.7-10.4 18-10.3 0.1 0 0.2 0.1 0.3 0.2 0.1 0.2 0.2 0.3-0.2 0.6-0.6 0.5-2 1.4-5.4 3.4-1.9 1.2-4.2 2.6-6.6 4.1 0.1-0.1 0.2-0.1 0.3-0.2 23.8-14 23.9-14 24.2-13.9 0.1 0 0.2 0.1 0.3 0.2 0.1 0.2 0.2 0.3-0.3 0.6-0.7 0.5-2.5 1.7-7.3 4.6-4.5 2.8-10.4 6.4-16.4 10.1-0.1 0-0.2 0.1-0.2 0.1 0.9-0.5 1.8-1.1 2.7-1.6 26.6-15.6 26.7-15.6 27-15.5 0.1 0 0.2 0.1 0.3 0.2 0.1 0.2 0.2 0.3-0.3 0.6-0.7 0.6-2.7 1.8-8.2 5.2-5 3.1-11.7 7.2-18.4 11.3-0.7 0.5-1.5 0.9-2.2 1.4 1-0.6 2.1-1.2 3.1-1.8 27.9-16.4 28-16.4 28.3-16.3 0.1 0 0.2 0.1 0.3 0.2 0.1 0.2 0.2 0.3-0.3 0.6-0.7 0.6-2.8 1.9-8.6 5.5-5.3 3.2-12.3 7.6-19.4 11.9l-3 1.8c1.4-0.8 2.8-1.6 4.1-2.4 29-17.3 29.1-17.3 29.4-17.2 0.1 0 0.2 0.1 0.3 0.2 0.1 0.2 0.2 0.3-0.3 0.6-0.7 0.6-3 2-9.1 5.7-5.1 3.1-11.8 7.2-18.6 11.3 29.2-17.2 29.3-17.1 29.6-17 0.1 0 0.2 0.1 0.3 0.2 0.3 0.5 0.3 0.5-9.6 6.6-5.7 3.5-13.3 8.2-21 12.9-2.9 1.8-5.9 3.6-8.9 5.4 3.2-1.9 6.5-3.8 9.6-5.7 31.3-18.4 31.4-18.4 31.8-18.3 0.1 0 0.2 0.1 0.3 0.2 0.3 0.5 0.3 0.5-9.9 6.6-3 1.8-6.4 3.9-10.1 6.1 21.4-12.5 21.5-12.5 21.8-12.4 0.1 0 0.2 0.1 0.3 0.2 0.3 0.5 0.3 0.5-10.1 6.7-0.7 0.4-1.4 0.8-2.1 1.3 13.2-7.7 13.3-7.7 13.5-7.6 0.1 0 0.2 0.1 0.3 0.2 0.3 0.5 0.3 0.5-10.3 6.8-1.5 0.9-3.1 1.8-4.7 2.8 14.9-8.7 15.1-8.7 15.3-8.6 0.1 0 0.2 0.1 0.3 0.2 0.3 0.5 0.3 0.5-10.2 6.8-1.2 0.7-2.5 1.5-3.8 2.3 15.4-9 15.6-9 15.8-8.9 0.1 0 0.2 0.1 0.3 0.2 0.3 0.5 0.3 0.5-10.5 7.1-6.3 3.8-14.6 8.9-23 14-2.8 1.7-5.6 3.4-8.3 5.1 2.8-1.7 5.7-3.3 8.5-5 33.9-19.9 34-19.9 34.3-19.8 0.1 0 0.2 0.1 0.3 0.2 0.3 0.5 0.3 0.5-10.6 7.1-6.3 3.8-14.7 8.9-23.1 14-0.2 0.1-0.4 0.2-0.6 0.4 29.8-17.5 29.9-17.5 30.2-17.4 0.1 0 0.2 0.1 0.3 0.2 0.3 0.5 0.3 0.5-10 6.6-0.6 0.4-1.2 0.7-1.9 1.1 9.5-5.5 9.6-5.5 9.8-5.5 0.1 0 0.2 0.1 0.3 0.2 0.3 0.5 0.3 0.5-9.6 6.5-5.7 3.5-13.3 8.1-20.9 12.7-0.8 0.5-1.5 0.9-2.3 1.4 0.3-0.2 0.6-0.4 1-0.6 29.4-17.3 29.5-17.2 29.8-17.2 0.1 0 0.2 0.1 0.3 0.2 0.1 0.2 0.2 0.3-0.3 0.6-0.7 0.6-2.9 1.9-8.9 5.6-3.6 2.2-7.9 4.8-12.6 7.6 20.7-12.1 20.8-12.1 21.1-12 0.1 0 0.2 0.1 0.3 0.2 0.3 0.5 0.3 0.5-8.9 6.1-5.3 3.3-12.3 7.6-19.4 12l-7.2 4.5c2.3-1.3 4.5-2.7 6.8-4 28-16.5 28.1-16.4 28.4-16.4 0.1 0 0.2 0.1 0.3 0.2 0.1 0.2 0.2 0.3-0.3 0.6-0.7 0.6-2.8 1.9-8.5 5.3-4.4 2.7-10.1 6.1-15.9 9.7 24-14.1 24.1-14.1 24.4-14 0.1 0 0.2 0.1 0.3 0.2 0.1 0.2 0.2 0.3-0.3 0.6-0.7 0.6-2.8 1.9-8.4 5.3-5.1 3.2-12 7.4-18.8 11.6-1.5 0.9-3 1.9-4.6 2.8 1.2-0.7 2.5-1.5 3.7-2.2 26.9-15.8 27-15.8 27.3-15.7 0.1 0 0.2 0.1 0.3 0.2 0.1 0.2 0.2 0.3-0.3 0.6-0.7 0.6-2.7 1.8-8.1 5.1-1.4 0.9-3 1.8-4.7 2.8 12.6-7.4 12.7-7.4 13-7.3 0.1 0 0.2 0.1 0.3 0.2 0.1 0.2 0.2 0.3-0.3 0.6-0.7 0.6-2.7 1.8-7.9 5.1-4.9 3-11.4 7-17.9 11-1.5 0.9-3 1.8-4.5 2.8 1.6-0.9 3.2-1.9 4.7-2.8 26.7-15.7 26.8-15.6 27.1-15.6 0.1 0 0.2 0.1 0.3 0.2 0.1 0.2 0.2 0.3-0.3 0.6-0.7 0.6-2.7 1.8-8 5.1-4.8 3-11.2 6.9-17.7 10.8 25.6-15 25.7-15 26-14.9 0.1 0 0.2 0.1 0.3 0.2 0.1 0.2 0.2 0.3-0.3 0.6-0.7 0.6-2.7 1.8-8 5.1-4.9 3-11.5 7.1-18 11.1-1.2 0.7-2.3 1.4-3.5 2.2l3-1.8c26.1-15.3 26.1-15.3 26.4-15.2 0.1 0 0.2 0.1 0.3 0.2 0.1 0.2 0.2 0.3-0.3 0.6-0.7 0.6-2.7 1.8-7.8 5-4.8 3-11.2 6.9-17.6 10.8h-0.1c0.1 0 0.2-0.1 0.2-0.1 26.2-15 26.3-15 26.6-14.9 0.1 0 0.2 0.1 0.3 0.2 0.1 0.2 0.2 0.3-0.3 0.6-0.7 0.6-2.6 1.8-7.7 4.9-4.7 2.9-11 6.8-17.3 10.7-1.4 0.8-2.8 1.7-4.1 2.6 1.3-0.8 2.7-1.6 4-2.3 25.3-14.9 25.4-14.8 25.7-14.8 0.1 0 0.2 0.1 0.3 0.2 0.1 0.2 0.2 0.3-0.3 0.6-0.7 0.6-2.6 1.8-7.8 4.9-3.2 1.9-7 4.3-11.2 6.8 19.4-11.4 19.5-11.4 19.8-11.3 0.1 0 0.2 0.1 0.3 0.2 0.1 0.2 0.2 0.3-0.3 0.6-0.7 0.6-2.6 1.7-7.6 4.8-4.2 2.6-9.6 5.9-15.1 9.2 24-14 24.1-14 24.4-13.9 0.1 0 0.2 0.1 0.3 0.2 0.1 0.2 0.2 0.3-0.3 0.6-0.7 0.6-2.6 1.8-7.6 4.9-4.7 2.9-10.9 6.8-17.2 10.7-1.9 1.1-3.7 2.3-5.6 3.5 1.9-1.1 3.9-2.3 5.8-3.4 25.6-15 25.6-15 25.9-14.9 0.1 0 0.2 0.1 0.3 0.2 0.1 0.2 0.2 0.3-0.3 0.6-0.7 0.6-2.6 1.8-7.6 4.9-4.7 2.9-10.9 6.8-17.1 10.7-2.3 1.4-4.6 2.9-6.9 4.3 2.5-1.5 5-3 7.5-4.4 25.9-15.2 26-15.2 26.3-15.1 0.1 0 0.2 0.1 0.3 0.2 0.1 0.2 0.2 0.3-0.3 0.6-0.7 0.6-2.6 1.8-7.7 4.9-4.7 2.9-11.1 6.9-17.4 10.8-0.9 0.6-1.9 1.2-2.8 1.8l3-1.8c25.7-15.1 25.8-15.1 26.1-15 0.1 0 0.2 0.1 0.3 0.2 0.1 0.2 0.2 0.3-0.3 0.6-0.7 0.6-2.6 1.7-7.6 4.8-2.4 1.5-5.2 3.2-8.3 5 18.1-10.6 18.1-10.6 18.4-10.5 0.1 0 0.2 0.1 0.3 0.2 0.1 0.2 0.2 0.3-0.3 0.6-0.7 0.6-2.7 1.8-7.8 5-4.6 2.9-10.8 6.6-17 10.4 25.6-15 25.6-15 25.9-14.9 0.1 0 0.2 0.1 0.3 0.2 0.1 0.2 0.2 0.3-0.3 0.6-0.7 0.6-2.7 1.8-7.8 4.9-1.3 0.8-2.6 1.6-4.1 2.5 11.6-6.8 11.7-6.7 11.9-6.7 0.1 0 0.2 0.1 0.3 0.2 0.1 0.2 0.2 0.3-0.3 0.6-0.7 0.5-2.5 1.7-7.3 4.7-4.4 2.8-10.4 6.5-16.3 10.1-1 0.6-2.1 1.3-3.1 1.9 0.9-0.5 1.7-1 2.6-1.5 23.6-13.9 23.6-13.8 23.9-13.8 0.1 0 0.2 0.1 0.3 0.2 0.1 0.2 0.2 0.3-0.3 0.6-0.6 0.5-2.1 1.4-5.6 3.6-1.3 0.8-2.7 1.7-4.3 2.6 8.8-5.1 8.8-5.1 9.1-5.1 0.1 0 0.2 0.1 0.3 0.2 0.1 0.2 0.2 0.3-0.2 0.6-0.5 0.4-1.7 1.2-4.5 3.1-2.8 1.8-6.5 4.3-10.2 6.7-1 0.7-2.1 1.4-3.1 2.1 0.8-0.5 1.6-1 2.4-1.4 14.6-8.5 14.6-8.5 14.8-8.5 0.1 0 0.2 0.1 0.3 0.2 0.1 0.2 0.2 0.3-0.2 0.6-0.5 0.4-1.5 1.1-3.8 2.6s-5.5 3.6-8.6 5.6c11.1-6.5 11.2-6.6 11.4-6.5 0.1 0 0.2 0.1 0.3 0.2 0.2 0.4 0.2 0.4-3.4 2.9-2 1.4-4.7 3.2-7.3 5-0.7 0.5-1.4 0.9-2.1 1.4 0.1-0.1 0.2-0.1 0.3-0.2 9.4-5.5 9.4-5.5 9.7-5.5 0.1 0 0.2 0.1 0.3 0.2 0.2 0.4 0.2 0.4-2.7 2.4-1.4 1-3.2 2.2-5.1 3.5 5.9-3.4 5.9-3.4 6.1-3.4 0.1 0 0.2 0.1 0.3 0.2 0.2 0.4 0.2 0.4-2.1 2.1-1.2 0.9-2.8 2.1-4.4 3.2l-0.2 0.2c4.8-2.8 4.8-2.8 5-2.7 0.1 0 0.2 0.1 0.3 0.2 0.1 0.2 0.1 0.2-0.2 0.6h-0.1l-3.5 2.8h0.2l-0.1 0.4-0.4 0.2 0.4-0.2 0.2 0.4c-0.1 0.1-1.4 0.8-2.4 1.4-2.6 1.5-2.6 1.5-2.8 1.5-0.1 0-0.2-0.1-0.3-0.2-0.1-0.2-0.1-0.2 0.2-0.6 0 0 0.1 0 0.1-0.1 0.5-0.4 1.4-1.2 3.4-2.7-0.1 0.1-0.3 0.2-0.4 0.2-5.8 3.4-5.8 3.4-6 3.3-0.1 0-0.2-0.1-0.3-0.2-0.2-0.4-0.2-0.4 2.1-2.1 1.2-0.9 2.8-2.1 4.4-3.2 0.1-0.1 0.2-0.2 0.3-0.2-0.3 0.2-0.7 0.4-1 0.6-7.6 4.5-7.6 4.5-7.8 4.4-0.1 0-0.2-0.1-0.3-0.2-0.2-0.4-0.2-0.4 2.7-2.4 1.4-1 3.3-2.3 5.2-3.6-0.1 0-0.1 0.1-0.2 0.1-9.4 5.5-9.4 5.5-9.6 5.5-0.1 0-0.2-0.1-0.3-0.2-0.2-0.4-0.2-0.4 3.4-2.9 2-1.4 4.7-3.2 7.3-5 0.7-0.5 1.5-1 2.2-1.5-1.1 0.7-2.3 1.3-3.4 2-12.3 7.2-12.3 7.2-12.5 7.1-0.1 0-0.2-0.1-0.3-0.2-0.1-0.2-0.2-0.3 0.2-0.6 0.5-0.4 1.5-1.1 3.8-2.6 2.4-1.6 5.6-3.6 8.8-5.7h0.1c-0.5 0.3-0.9 0.6-1.4 0.8-14.7 8.7-14.7 8.7-15 8.7-0.1 0-0.2-0.1-0.3-0.2-0.1-0.2-0.2-0.3 0.2-0.6 0.5-0.4 1.7-1.2 4.5-3s6.5-4.2 10.2-6.7c1.2-0.8 2.3-1.5 3.5-2.3-2 1.2-4.1 2.4-6.1 3.6-17.9 10.5-17.9 10.5-18.2 10.4-0.1 0-0.2-0.1-0.3-0.2-0.1-0.2-0.2-0.3 0.2-0.6 0.6-0.5 2.1-1.4 5.6-3.5 1.6-1 3.5-2.1 5.4-3.4-19.7 11.5-21.2 12.4-21.6 12.4z"/>
	</g>
	<g class="st1">
		<path class="st2" d="m74.9 38.2c-0.1 0-0.1 0 0 0-0.2 0-0.3-0.1-0.3-0.2-0.1-0.1-0.1-0.2 0.2-0.6 0 0 0.1 0 0.1-0.1 0.6-0.5 1.9-1.5 4.8-3.8-0.3 0.2-0.6 0.3-0.9 0.5-6.5 3.8-6.5 3.8-6.7 3.7-0.1 0-0.2-0.1-0.3-0.2-0.2-0.4-0.2-0.4 2.3-2.1 0.8-0.5 1.7-1.2 2.7-1.8-4.8 2.8-4.8 2.8-5 2.8-0.1 0-0.2-0.1-0.3-0.2-0.2-0.4-0.2-0.4 2.5-2.3 1.4-1 3.4-2.4 5.3-3.8 0.2-0.2 0.5-0.3 0.7-0.5-0.2 0.1-0.3 0.2-0.5 0.3-8 4.7-8 4.7-8.3 4.7-0.1 0-0.2-0.1-0.3-0.2-0.2-0.4-0.2-0.4 2.7-2.4 1.5-1 3.4-2.4 5.4-3.7-7.3 4.3-7.3 4.3-7.5 4.2-0.1 0-0.2-0.1-0.3-0.2-0.2-0.4-0.2-0.4 2.7-2.5 1.6-1.1 3.7-2.6 5.8-4.1 0.5-0.3 0.9-0.7 1.4-1h-0.1c-7.6 4.5-7.6 4.5-7.8 4.4-0.1 0-0.2-0.1-0.3-0.2-0.2-0.4-0.2-0.4 2.4-2.2 1.4-1 3.2-2.3 5-3.6h0.1c-5.8 3.4-5.8 3.4-6 3.3-0.1 0-0.2-0.1-0.3-0.2-0.2-0.4-0.2-0.4 2.3-2.3 1.3-1 3.1-2.3 5-3.7 0.5-0.3 0.9-0.7 1.4-1-6.2 3.7-6.2 3.7-6.5 3.6-0.1 0-0.2-0.1-0.3-0.2-0.1-0.2-0.1-0.2 0.2-0.6h0.1c0.5-0.5 1.6-1.3 3.9-3.3-0.4 0.2-0.4 0.2-0.5 0.2l0.1-0.4 0.4-0.2-0.2 0.1-0.2-0.4c0.1-0.1 1.3-0.8 2.3-1.3 2.6-1.5 2.6-1.5 2.7-1.4 0.1 0 0.2 0.1 0.3 0.2s0.1 0.2-0.2 0.6h-0.1c-0.5 0.5-1.6 1.3-3.9 3.2l-0.1 0.1c0.6-0.3 1.1-0.7 1.7-1 6.3-3.7 6.3-3.7 6.5-3.7 0.1 0 0.2 0.1 0.3 0.2 0.2 0.4 0.2 0.4-2.4 2.3-1.4 1-3.2 2.3-5 3.7-0.5 0.3-0.9 0.7-1.4 1 0.1-0.1 0.2-0.1 0.4-0.2 6.7-4 6.7-4 7-3.9 0.1 0 0.2 0.1 0.3 0.2 0.2 0.4 0.2 0.4-2.3 2.2-1.3 1-3.1 2.2-4.9 3.5-0.1 0-0.1 0.1-0.2 0.1 7.6-4.5 7.6-4.5 7.8-4.4 0.1 0 0.2 0.1 0.3 0.2 0.1 0.4 0.1 0.4-2.8 2.5-1.6 1.1-3.7 2.6-5.8 4.1-0.5 0.3-1 0.7-1.5 1l0.6-0.3c8.1-4.8 8.1-4.8 8.3-4.7 0.1 0 0.2 0.1 0.3 0.2 0.2 0.4 0.2 0.4-2.7 2.4-1.5 1-3.4 2.4-5.4 3.7 7.2-4.2 7.2-4.2 7.4-4.1 0.1 0 0.2 0.1 0.3 0.2 0.2 0.4 0.2 0.4-2.5 2.3-1.4 1-3.4 2.4-5.3 3.8-0.2 0.2-0.4 0.3-0.7 0.5 6.9-4 6.9-4 7.1-4 0.1 0 0.2 0.1 0.3 0.2 0.2 0.4 0.2 0.4-2.3 2.1-0.8 0.5-1.7 1.1-2.6 1.8 3.3-1.9 3.3-1.9 3.5-1.9 0.1 0 0.2 0.1 0.3 0.2s0.1 0.2-0.2 0.6h-0.1c-0.6 0.5-1.9 1.5-4.8 3.7 2.5-1.5 2.5-1.5 2.7-1.4l-0.1 0.4-0.4 0.2 0.4-0.2 0.2 0.4c-0.2 0.1-2.2 1.3-4 2.3-3.6 2.3-4.1 2.6-4.2 2.6z"/>
	</g>
	<g class="st1">
		<path class="st3" d="m101.8 62.9c-0.1-0.1-0.3 0-0.1 0.3l0.3 0.2-0.2-0.5z"/>
	</g>
	<g class="st1">
		<path class="st3" d="m101.7 65.4c0.3 0.4 0.6 0.8 0.8 0.5-0.4-0.3-0.3-0.5-0.7-0.8-0.1-0.4 0-0.7 0.1-0.6-0.1-0.1 0-0.6-0.3-0.7-0.1 0.5 0 1.1 0.3 1.7 0 0-0.1-0.1-0.2-0.1"/>
	</g>
	<g class="st1">
		<path class="st3" d="m110.6 94.3l0.1-0.2c0 0.1 0 0.1-0.1 0.2"/>
	</g>
	<g class="st1">
		<path class="st3" d="m94.5 106.7h0.2-0.2"/>
	</g>
	<g class="st1">
		<path class="st3" d="m90.9 105.5c0.1 0 0.1 0.1 0.2 0.1 0 0-0.1-0.1-0.2-0.1"/>
	</g>
	<g class="st1">
		<path class="st3" d="m110.6 94.3l-0.4 0.5c0.1 0.1 0.3-0.2 0.4-0.5"/>
	</g>
	<g class="st1">
		<path class="st3" d="m104.1 69.8c-0.1-0.1-0.1-0.2-0.2-0.2l0.2 0.2"/>
	</g>
	<g class="st1">
		<path class="st3" d="m114.2 85l0.1-0.2c0-0.1 0-0.1-0.1-0.2v0.4z"/>
	</g>
	<g class="st1">
		<path class="st3" d="m113.3 79.9c0.2 0.1 0.3-0.1 0.4-0.2-0.1 0.1-0.3 0-0.4 0v0.2"/>
	</g>
	<g class="st1">
		<path class="st3" d="m104.2 71.8c-0.1-0.1-0.1-0.1-0.1-0.2-0.1 0.1 0 0.1 0.1 0.2"/>
	</g>
	<g class="st1">
		<path class="st3" d="m112.3 90.1h-0.1c0 0.1 0.1 0.1 0.1 0"/>
	</g>
	<g class="st1">
		<path class="st3" d="m103.1 54.5"/>
	</g>
	<g class="st1">
		<path class="st3" d="m101.2 63v-0.1h-0.1l0.1 0.1z"/>
	</g>
	<g class="st1">
		<path class="st3" d="m83.6 104.3c0.2 0 0.1 0 0 0"/>
	</g>
	<g class="st1">
		<path class="st3" d="m40.3 75.7c-0.1 0.8-0.5-1.1-0.5 0 0-0.1 0.5 0.9 0.5 0"/>
	</g>
	<g class="st1">
		<path class="st3" d="m104.2 70l0.2 0.3c-0.1-0.2-0.1-0.3-0.2-0.3"/>
	</g>
	<g class="st1">
		<path class="st3" d="m39.8 75.7v0.1-0.1"/>
	</g>
	<g class="st1">
		<path class="st3" d="m68.3 110.2s0.1 0.1 0.2 0.1c0-0.1 0-0.1-0.2-0.1"/>
	</g>
	<g class="st1">
		<path class="st3" d="m79.4 105.6l-0.3 0.1c0.1 0 0.2-0.1 0.3-0.1"/>
	</g>
	<g class="st1">
		<path class="st3" d="m62.7 109.7c-0.1-0.1-0.2-0.1-0.4-0.2v0.1c0.2 0 0.3 0 0.4 0.1"/>
	</g>
	<g class="st1">
		<path class="st3" d="m57.5 106s0 0.1 0.1 0.1 0.1 0.1 0.2 0.1l-0.3-0.2z"/>
	</g>
	<g class="st1">
		<path class="st3" d="m103.6 38.4c0.1 0.1 0.1 0.2 0.2 0.3-0.1-0.1 0.9 0.3-0.2-0.3"/>
	</g>
	<g class="st1">
		<path class="st3" d="m104 69.9c0.1 0 0.1 0 0.2 0.1 0-0.1-0.1-0.1-0.2-0.1 0.1-0.1 0-0.1 0 0"/>
	</g>
	<g class="st1">
		<path class="st3" d="m61.6 111.3c-0.3-0.2-0.7-0.4-1-0.6 0.3 0.2 0.7 0.4 1 0.6"/>
	</g>
	<g class="st1">
		<path class="st3" d="m57.8 40.3l0.3-0.1c-0.1 0-0.2 0.1-0.3 0.1"/>
	</g>
	<g class="st1">
		<path class="st3" d="m57.9 108.9c-0.1-0.2-0.2-0.4-0.4-0.5h-0.1c0.2 0.1 0.4 0.3 0.5 0.5"/>
	</g>
	<g class="st1">
		<path class="st3" d="m103.8 38.8z"/>
	</g>
	<g class="st1">
		<path class="st3" d="m110.5 43.6c-1.3-1.3-0.9-0.5-1.4-0.7-0.7-0.6-0.8-0.8-0.7-0.9 0-0.1 0.2-0.1 0.1-0.3-0.7-0.5-1.3-0.7-1.7-1 0-0.1-0.1-0.1 0.1-0.1-0.8-0.3-2-1.4-3-1.6 0-0.1-0.1-0.1-0.1-0.1 0.1 0.2 0 0.4-0.1 0.4-0.4-0.2-0.8-0.2-0.9-0.5 0.2 0.1 0.3 0.1 0.4 0.1l-0.5-0.1c-0.3-0.5 0.6 0.2 0.7 0-0.4-0.2-0.9-0.3-1.4-0.5-0.5-0.1-0.9-0.3-1.2-0.4 0-0.2 0.4 0 0.7 0.1s0.5 0.2 0.1-0.1l1 0.6c-0.6-0.8 0.6 0.3 0.1-0.5-1.3-0.7-1.6-0.5-3-1.1-0.4 0.1 0 0.3-0.3 0.3-2.1-0.3-1.4-1.1-3-1-0.4 0.1-0.6 0.5-1.7 0.2l0.4-0.3c-1.4-0.1-0.8 0.4-2.3 0.1 0.3-0.1 1.1-0.1 0.9-0.1-1-0.3-0.7 0.2-1.4 0.2l-0.2-0.3c-0.4 0-0.8 0.1-1.3 0.1h0.1c-1.2 0.1-2.4 0.4-3.6 0.8 0.1-0.1 0.3-0.3-0.1-0.3-2.1 0.6-4.3 1.5-6.2 2.2l-0.6 0.6c-0.2 0.1-0.3 0.1-0.2-0.1-0.7 0.3 0 0.2-0.2 0.4-0.4 0.2-0.6 0.2-0.4 0-1.1 0.8-3.2 2.3-4.5 2.6l0.2-0.2c-1 0.3-0.9 0.9-1.9 0.8l0.2-0.1c-1 0.1-2.3-0.1-3.4-0.4s-2.2-0.6-3.1-1c-0.4 0.3-2.3-0.7-2.6-0.3-0.7-0.3-0.9-0.4-1.2-0.5s-0.7-0.3-1.7-0.4c-0.5-0.1-0.8 0.3-1.5 0.3v-0.3l-0.9 0.3c-0.2-0.1-0.3-0.2-0.5-0.3l-0.6 0.1c0.3 0 0.6 0.1 0.5 0.1-0.5 0.1-1.1 0.1-1.6 0.2-0.5 0-0.9 0-0.9-0.1-0.7 0.3-1.5 0.5-2.2 0.8 0-0.1 0.4-0.3 0.7-0.4-1.1 0.6-0.3-0.2-1.3 0.4 0.2 0 0 0.2 0 0.2-0.3 0-0.7 0.2-1.2 0.3-0.5 0.2-1 0.5-1.4 0.7l0.1-0.2c-1.6 0.8-3.1 1.9-4.6 3.2 0.6-0.4 0.7 0 0.3 0.3l-0.4-0.1c-0.2 0.4 0.5-0.3 0.1 0.3-0.6 0.5-0.6 0.1-0.3-0.3-0.2 0.2-0.4 0.5-0.6 0.7-0.1 0 0-0.2 0-0.3-0.1 0.2-0.4 0.4-0.7 0.6-0.3 0.3-0.6 0.5-0.7 0.8h-0.1c-1.3 1.5-1.7 2.3-2.5 3.6 0.2 0.2-0.2 0.6-0.2 1.2-0.3 0.5-0.7 1-1 1.6-0.2 0.3-0.3 0.6-0.5 0.9-0.1 0.3-0.2 0.6-0.4 1-0.2 1 0.1 0.3 0.1 0.8-0.2 0-0.7 1.3-0.6 0.6-0.3 0.8-0.3 1.3-0.5 1.9-0.1 0.6-0.2 1.2-0.3 2.3 0.1-0.2 0.2-0.5 0.2-0.3 0 0.4-0.2 0.8-0.3 0.8v-0.1c0 1.2-0.4 2.5-0.5 3.8-0.1 0.6-0.2 1.3-0.2 1.9s0.1 1.1 0.2 1.6v-0.1c0.1 0.6 0.2 1.3 0.4 1.9 0.1 0.9-0.2-0.5-0.3 0.2 0.3 1 0.4 1.8 0.5 2.6s0.2 1.5 0.5 2.3c-0.1 0.4-0.1 0.8 0 1.4 0.1 0.5 0.3 1.1 0.5 1.7s0.4 1.2 0.5 1.8c0.2 0.6 0.3 1.1 0.4 1.5l0.1-0.1c0.3 0.4 0.1 0.6 0.2 0.9 0.1-0.1 0-0.5 0.1-0.3 1.5 3.6 2.9 7.5 4.8 11.1 0.7 1.3 1.1 0.3 1.8 2.1l-0.5-0.3c1.9 2.3 3.5 5 5.6 7-0.2-0.1-0.2 0-0.4-0.2 0.3 0.6 1.5 1.7 1.6 1.6 0.3 0.3 0 0.2 0.1 0.4 0.3 0.5 1.2 0.9 1.3 1.3 0 0.1-0.2-0.1-0.3-0.1 0.3 0.2 1.3 1.3 1.2 0.9 0.7 0.8 1.6 1.4 2.2 2 0.6 0.2 1.4 1.3 1.8 1.1-0.1 0.1 0.2 0.5 0.7 0.8s1.1 0.6 1.5 0.7c-0.3 0 0.5 0.4 0.2 0.4 0.7 0.4 1.5 0.5 1.4 0.3 0.6 0.5 1.4 0.6 2.2 0.6h1c0.3 0 0.6 0.1 0.8 0.2 1.3-0.2 2.4-0.5 3.5-1 1.1-0.4 2-1 2.9-1.5 0.1 0.2-0.4 0.5-1 0.7-0.5 0.3-1 0.5-0.9 0.7 1.9-1 2.6-1.9 4.3-2.7 0.5-0.2-0.2 0.3-0.3 0.4 1.6-1.1 3.2-1.6 4.7-2.3 0 0-0.2 0.1-0.3 0.2 0.3-0.1 0.7-0.1 0.7-0.3-0.1 0-0.2 0.1-0.3 0.1-0.6-0.1 1.1-0.8 1.2-1-0.5 0.6 1.7-0.1 0.9 0.6 0.2-0.1 0.5-0.2 0.4-0.3 0.3 0 0.4 0.1 0.1 0.2 1.1-0.2 0.7-0.4 1.8-0.4 0 0.1-0.2 0.1-0.3 0.2 0.5-0.2 1.1-0.4 2-0.2-0.1 0 0 0.1-0.2 0.1 1.5 0.1 2.7 0 4.3 0.6-0.6 0.2 0.5 0.3 0.5 0.6l0.9 0.2-0.3-0.3c0.8 0.2 1.6 0.2 2.3 0.4h-0.7c0.5 0.1 1.1 0.2 1.6 0.2-0.3-0.1-0.6-0.1-0.9-0.2 0.9 0 0-0.4 1.1-0.2-0.2 0 0.8 0.1 1.3 0.3 0.4-0.1 0.8-0.2 1.5-0.2 0.2 0.1-0.1 0.4 0 0.4 0.4-0.3 2-0.4 2.4-0.9-0.1 0.1-0.1 0.3 0 0.3l0.3-0.3c0.4 0 0.5-0.1 0.5 0.1 1.1-0.5-0.5-0.2 0.9-0.6-0.1 0.1 0 0.1-0.2 0.2 1.3-0.5 2.3-1.5 3.3-2.3 0.2 0 0.1 0.2-0.1 0.4s-0.4 0.4-0.2 0.3c1.4-1.3 2.4-3.1 3.4-4.6l-0.2 0.3c-0.2-0.5 0.9-1 1.2-1.9-0.1 0.2 0.1 0.4 0.1 0.3 0.7-1 1.1-2.2 1.8-4v0.3c0.4-0.6 0.9-1.7 1.3-2.3 0-0.3 0.2-0.7-0.1-0.5 1.6-1.9 1.5-4.3 2.7-6.2-0.1 0.2-0.1 0.6 0 0.4 0.2-0.6 0.3-1.2 0.4-1.8-0.2 0.1-0.2 0.2-0.4 0.5 0-0.3 0-0.8 0.1-1.2-0.1 0.8 0.3 0.1 0.5-0.2-0.1 0-0.1-0.1-0.2-0.1 0.6-0.8-0.3-0.3 0.2-1.4l0.1 0.1c0.1-0.5 0-0.9 0.2-1.4 0.3-0.2 0 0.5 0.2 0.6v-0.5-0.5-1c-0.1 0-0.1-0.1-0.1-0.1h0.2c0.1 0.2 0 0.7 0 0.9 0.3-0.6 0.4-0.9 0.4-1.2-0.2-0.1-0.3-0.1-0.6-0.2h0.1c-0.3-0.1-0.5-0.2-0.7-0.3-0.1 0-0.3-0.1-0.4-0.2l-0.3-0.1 0.3 0.2c-1 0.2-1.7-0.6-3-0.8 1.2 0.2 0.3-0.1 0.5-0.3-0.2-0.2-0.6-0.5-0.5-0.5-0.6-0.1-0.7-0.6-1.5-0.8 0-0.1-0.5-0.3-0.3-0.4-0.6-0.4 0.1 0.2-0.1 0.3-0.6-0.2-1-0.7-1.5-1.2-0.3-0.2-0.5-0.6-0.8-0.8-0.3-0.3-0.6-0.5-0.9-0.7-0.5-0.5-0.9-0.7-1.2-1s-0.6-0.5-1.1-1c-0.2-0.4 0.5 0.1 0.5 0.1-0.3-0.6-0.6-1.1-1-1.6 0.1 0.1 0.1-0.1 0.1-0.3-0.3-0.5-0.5-0.2-0.6-0.9 0.1 0.1 0.3 0.2 0.5 0.3-0.3-0.5-0.7-1-1.1-1.6 0.1-0.2 0.4 0.3 0.5 0.5-0.2-0.3-0.4-0.7-0.6-1.1s-0.3-0.7-0.5-0.8l0.1 0.5c-0.1-0.3 0.1-0.2 0.2 0 0.3 0.5 0.2 0.9 0.2 1-0.1-0.1-0.2-0.3-0.2-0.4-0.2 0.3 0.1 0.7 0.3 1.2 0.3 0.5 0.6 1 0.9 1.4l-0.5-0.2 0.7 0.7c0 0.2-0.1 0.5-0.4 0.1 0.2 0.7 0.4 0.5 0.6 1.1 0 0.1 0 0.1-0.1 0l0.5 0.5c-0.1-0.1-0.1 0.2-0.3-0.1 0.3 0.6 0.6 0.9 0.9 1.2s0.5 0.5 0.6 0.7l-0.1-0.1c1.2 1.2 0.3 0 1.4 0.7l0.2 1.1 0.3-0.1c0.1 0.1 0.4 0.4 0.2 0.4 0.6 0.3 0-0.2 0.4 0 0.3 0.3 0.7 0.7 1.1 1s0.7 0.5 0.7 0.8c0.4 0-0.6-0.6 0.2-0.2 0 0.5 0.9 0.5 1.5 1-0.3 0.1-0.9-0.4-0.3 0.2 0.6-0.1 1.3 0.8 1.9 1 0.1-0.1 0.4 0 0.9 0.1 0.1 0 0.2 0.1 0.4 0.1 0.1 0 0.2 0.1 0.3 0.1 0.2 0.1 0.4 0.1 0.7 0.2 0 0-0.1 0.2-0.1 0.4s-0.1 0.4-0.2 0.6c-0.1 0.5-0.3 1.2-0.5 1.6 0.3 0.3 0 1.2-0.2 2-0.2-0.1-0.2-0.2-0.2-0.6l-0.2 0.7c0 0.2 0 0.4-0.1 0.9l-0.2-0.2c-0.3 0.9-0.3 1.9-0.9 2.9 0.2 0.1 0.9-0.7 0.6 0.6-0.1 0-0.3 0-0.3-0.4 0 0.1 0 0.4-0.2 0.6v-0.5c-0.3 0.5 0.1 0.3-0.1 0.7-0.2-0.1-0.2 0.3-0.3 0.1 0-0.1 0.2-0.3 0.2-0.5-0.2 0.4-0.5 1-0.7 1.1 0.1 0 0.2 0.1 0.1 0.4-0.4 0.9-0.3 0.2-0.6 0.7 0 0.3-0.4 0.7-0.1 0.9-0.1 0.2-0.2 0.2-0.4 0.3-0.1 0.5-1 2-0.5 1.7l0.1-0.1v0.1c-0.5 1.6-1.6 2.9-2.3 4.3h-0.1c-0.4 0.9-1 1.8-1.3 2.5-0.2 0.2-0.5 0.4-0.5 0.3-0.4 0.6-0.3 0.7-1.1 1.4 0.3-0.6-0.2 0.1 0.4-0.6l-0.7 0.7c-0.2 0.2-0.4 0.5-0.6 0.9 0.1-0.4-0.7 0.3-0.9 0.6l0.6-0.3c-0.3 0.4-0.7 0.6-1 0.9v-0.4c-0.4 0.2-0.8 0.4-1.1 0.7-0.3 0.2-0.6 0.5-0.9 0.7-0.6 0.4-1.3 0.7-2 0.6-0.2 0.1 0 0.1 0.3 0.1 0.2 0 0.5-0.1 0.3 0.1-0.8 0.2-1.7-0.1-2-0.1-0.6 0-0.8 0.1-1.1 0.2s-0.6 0.2-1.2 0.1c0.1 0.1 0.3 0.4-0.7 0.4-0.9-0.1-1-0.6-0.4-0.6 0.2 0 0.3 0.1 0.3 0.1 0.3 0 0.6 0 0.3-0.2l-0.1 0.1c-0.4-0.1-1.5-0.4-1.2-0.5-0.6-0.1-0.3 0.1 0.2 0.3-1-0.4-1.7-0.4-2.8-0.8 0.2 0.1 0.3 0.3 0.1 0.2-1.6-0.6-0.8 0-1.9-0.3-0.6-0.3 0.3-0.3-0.9-0.4-0.7-0.2-0.1-0.3 0.2-0.3-1.1 0-2.1-0.5-2.7-0.5h0.6-1l0.3 0.2c-0.3-0.1-0.6-0.1-0.6-0.1-0.4 0.1 0.3 0.3-0.4 0.5h-0.9c-0.3 0-0.6 0-0.7-0.1 1.4 0-0.2-0.3 1-0.4-0.2 0-0.5 0.1-0.9 0.1-0.1 0 0-0.1 0.1-0.1-1.4-0.1-0.6 0.4-2 0.6 0.2-0.2-0.4-0.2-0.6-0.1 0.6-0.1 0.3 0.2-0.2 0.4-0.9 0.1-0.9 0.3-1.4 0.4l0.5-0.1c-0.1 0.2-0.6 0.3-1.2 0.6-0.1-0.1 0.5-0.3 0.3-0.2-0.6 0.5-1.6 0.3-2.4 0.9-0.5 0.1-0.2-0.2-0.6-0.1-0.9 0.7-1.2 0.4-2 1.1 0.4 0 0.4-0.1-0.2 0.5l1.5-1-0.9 0.8c0.5-0.3 1-0.7 1.3-0.8-0.4 0.4-0.4 0.3-0.1 0.4-0.8 0.1-1.2 0.9-2.1 1.2l-0.2-0.5c-1.2 0.4-1.9 1.3-3.4 1.8l0.5-0.1c-0.1 0.1-0.3 0.2-0.6 0.3s-0.6 0.1-0.8 0.3c0-0.2-0.3-0.2-0.6-0.2 0 0.1-0.3 0.1-0.6 0.2-0.3 0-0.6 0.1-0.7 0.3-0.2 0-0.5-0.1-0.7-0.2-0.6 0-1 0-1.4 0.1s-0.8 0.1-1.4-0.1c0.4-0.1-0.1-0.3 0.7-0.2-0.4-0.1-0.7-0.2-0.8-0.1-0.2-0.2-1.2-0.2-1.4-0.6-0.2 0-0.3 0.1-0.7-0.1v-0.1c0 0.1-0.7-0.3-0.4 0.1-0.2-0.3-0.5-0.5-0.9-0.8-0.3-0.3-0.7-0.5-1.1-0.8-0.7-0.5-1.4-1.1-1.7-1.7-0.7-0.6-1.6-1.4-2.2-2 0.1 0 0.1-0.1 0.2 0.1-0.7-1-0.9-0.2-1.7-1.3-0.3-0.7 0.6 0.4 0.4 0 0.3-0.5-1.2-1.2-1.6-2.1l0.2 0.1c-0.3-0.7-1.2-1.2-2-2.1h0.1c-0.7-0.5-1.7-1.6-2.4-2.5 0.4 0.2 0.4 0.4 0.4 0.1-0.3-0.4-0.2 0.3-0.8-0.5-0.1-0.3-0.4-1-0.2-1.2l0.5 0.8c0-0.6-0.7-1-0.9-1.4h0.1c-0.8-1.2-1.1-1-1.8-2.4v0.2c-0.7-0.6-0.2-0.7-0.8-1.3l0.2-0.4c-0.3-0.4-1.2-1.6-1.7-2.5 0.5 0.4 1.1 1.4 1.6 2-0.1-0.2-0.4-0.6-0.6-1s-0.4-0.7-0.6-0.8c0.1 0.2 0.3 0.4 0.4 0.6-0.5-0.5-1-1.2-1.5-2.2 0.7-0.1-0.9-2.7-0.7-3.6-0.4-0.9-0.7-1.8-1-2.7-0.2-1-0.4-2-0.7-3.1-0.3 0.9-0.2-0.6-0.6-0.4-0.1-0.5-0.2-0.7-0.1-0.8v-1.6c0.1-0.4 0.2 0.5 0.3 0.4-0.2-1.1 0.1-0.5 0.1-1.3-0.2 0.2-0.3-0.3-0.3-1l-0.1 0.9c-0.5-1.5 0.2-1.4-0.2-3 0.1 0.2 0.1 0.3 0.2 0.5-0.1-0.4-0.1-1.2-0.2-1.9s-0.2-1.5-0.4-1.9c0.1-0.1 0.2-0.3 0.2 0v-1.5c0-0.5-0.1-1.1 0-1.6 0.1-1 0.1-2 0.4-2.7l0.1 0.2c0-0.4-0.1-0.7 0.1-1.1 0 0 0.1 0.2 0.1 0s0-1 0.2-1.4v0.4c0.1-0.2 0.1-0.4 0.2-0.6s0.1-0.4 0.2-0.6c0.1-0.4 0.2-0.7 0.2-1.1 0.1-0.7 0.2-1.4 0.5-2.1 0.2 0.1 0.4-0.2 0.7-0.6s0.6-0.8 0.8-1.1c1.1-1.8 1.8-3.2 3.1-4.8 0.3-0.1 0.6-0.4 1-0.7s0.8-0.6 1.3-1c0.9-0.7 1.9-1.4 2.9-1.8-0.3 0.1-0.1-0.3 0.2-0.5 0.4-0.2 1.1-0.8 1.1-0.5l-0.2 0.1c0.5 0.1 1.3-0.3 2-0.5v-0.5c1 0 2.3-0.4 3.4-0.7s2.2-0.4 2.7 0c0.5-0.1 1.1-0.1 1.5-0.1l0.3-0.7c1.3 0.2 1.9 0.4 3.6 0.7l-0.4 0.1c0.9 0.2 1.3-0.4 2.2-0.2l0.2 0.4c1.6 0.4 3.2 1.2 5.1 1 0 0.1-0.1 0.2-0.4 0.2 0.2 0 0.5 0.1 0.9 0.1s0.8 0 1.2-0.1 0.7-0.2 0.9-0.3 0.2-0.2 0.1-0.3c0.1 0.2 0.5 0 1-0.3s1.1-0.7 1.4-1v0.3c0.6-0.6 0.5-0.7 1.4-1.3 0.2-0.1 0.3 0.1 0 0.2 0.8-0.3 0.5-0.5 1.4-0.9l-0.3 0.3c0.8-0.4 0.7-0.4 1-0.8 0.4-0.3 1.5-0.7 1.7-0.5 0-0.2 0.4-0.5 0.9-0.7 0.1 0-0.1 0.2-0.1 0.2 0.7-0.2 1.1-0.5 1.6-0.7 0.4-0.2 0.8-0.4 1.3-0.4 0 0.1 0.1 0.1 0.2 0.1-1.1 0.2-1.9 0.6-1.9 0.5 0.1 0.2 0.9-0.1 0.4 0.5 0.6-0.4 1.7-1.2 2.5-1.2h0.1-0.1c0.2 0 0.4-0.1 0.5-0.2h0.7c0.1 0.1 0.3 0.1 0.6 0 0.3 0 0.6 0 0.8-0.1 0-0.2 0.5-0.2 0-0.4 0.1 0-0.1 0-0.4 0.1h-0.2c-0.3 0-0.7 0.1-1.1 0.2 0.3-0.2 0.7-0.3 1.2-0.2 0.2-0.2 0.5-0.3 0.6-0.4 0 0 0.1 0 0.1 0.1 0.7 0.2 1.7 0.4 1.9 0.6 1.4-0.2 3.2 0.1 4.1-0.2 0.4 0 0.4 0.2 0.5 0.3-0.2 0-0.5-0.1-0.6 0 0.8 0 2.3 0.5 2.5 0.3 0.9 0.4-0.6 0.1 0.7 0.5h-0.2c0.6 0.3 1.1 0.6 1.7 0.8 0.5 0.2 1.1 0.4 1.6 0.5 1.1 0.4 2.2 0.9 3.1 2.1-0.1-0.2-0.2-0.2-0.2-0.3 0.4 0.4 0.8 0.8 1.3 1.2l0.9 0.9c-0.1 0.1-0.3 0.2-0.4 0.4l-0.5 0.5c-0.4 0.4-0.8 0.9-1.2 1.3-0.8 0.9-1.5 1.8-2.3 2.7-0.6 0.8-0.5 1-0.7 1.6l-0.3 0.1-0.2 1.1c-0.2 0.7-0.6 1.2-1 1.8-0.3 0.6-0.7 1.3-0.7 2.3l0.2-0.2c-0.1 0.3-0.2 0.9-0.3 1.3s-0.1 0.8-0.2 0.7c0 0.1 0.2 0.2 0 0.5h-0.1v0.8l0.1 0.8c-0.1 1.3-0.6-0.2-0.5 1.7 0.1 0.7 0.6 2 0.6 1.7s0-0.7 0.2-0.8l0.1 0.6c0.4 0.1 0.8 0.5 1-1l-0.3-1 0.2-0.3c0 0.3 0 0.6 0.1 0.9 0.1-0.5 0-0.8-0.1-1.1 0.1-0.1 0.2-0.2 0.2-0.4-0.1-0.3-0.2-0.7-0.4-1 0.2-0.1 0.3 0.5 0.4-0.2-0.1-0.5-0.4 0.4-0.4-0.4 0.2-0.5 0.4-0.3 0.3-0.9 0.1-0.1 0.2 0.1 0.2 0.3-0.1-0.5 0.2-1.3 0-1.6 0.3-0.4 0.4-1.7 0.7-1.5 0-0.2 0-0.9 0.2-1.4 0 0.5 0.2 0.1 0.4-0.4s0.5-1 0.7-0.8c-0.1-0.8 0.9-2.1 1.4-3.1 0 0.1 0 0.2-0.1 0.3 0.4-0.5 0.6-0.6 0.9-0.8-0.2-0.3 0.3-1.1 0.6-1.6 0.8-0.4 0 0.6 0.4 0.6-0.2-0.2 0.7-1.2 0.4-1.1 0.6-0.3 0.4-0.3 0.8-0.3-0.1-0.1-0.1-0.2 0-0.2l0.3-0.3c0.2-0.2 0.6-0.5 0.8-0.8 0.3-0.2 0.6-0.3 0.8-0.4 0-0.3 0.3-0.1-0.7-0.9-0.3-1 0.9 0.1 0.9 0.1m-23.1-6.8c0.2-0.1 0.4-0.1 0.5-0.1-0.2 0-0.3 0-0.5 0.1m-2 0.6c0.2-0.1 0.5-0.2 0.8-0.3 0.1 0.1 0 0.2-0.1 0.2 0.1-0.1-0.4 0-0.7 0.1m4.4 0.6c-0.3 0.1-0.4 0-0.4 0h0.4l0.1-0.1c-0.1 0-0.1 0.1-0.1 0.1"/>
	</g>
	<g class="st1">
		<path class="st3" d="m90.3 37.7h0.1c-0.1-0.1-0.1-0.1-0.1 0h-0.2 0.2"/>
	</g>
	<g class="st1">
		<path class="st3" d="m110.8 94.1"/>
	</g>
	<g class="st1">
		<path class="st3" d="m60.2 40h0.2-0.2"/>
	</g>
	<g class="st1">
		<path class="st3" d="m115.5 84.3s0.1 0 0.1-0.1l-0.1 0.1"/>
	</g>
	<g class="st1">
		<path class="st3" d="m115.9 79.6c-0.3-0.1-0.5-0.2-0.8-0.3 0.4 0.1 0.6 0.2 0.8 0.3"/>
	</g>
	<g class="st1">
		<path class="st3" d="m112.5 78.1c-0.1 0-0.1 0-0.1 0.1l0.1-0.1z"/>
	</g>
	<g class="st1">
		<path class="st3" d="m80.1 107.1h-0.1c-0.3 0.2-0.1 0.1 0.1 0"/>
	</g>
	<g class="st1">
		<path class="st3" d="m96.5 107.8c-0.2 0.1-0.4 0.1-0.6 0.1 0.3 0 0.5 0.1 0.6-0.1"/>
	</g>
	<g class="st1">
		<path class="st3" d="m61.7 111.3s-0.1 0-0.1-0.1l0.1 0.1z"/>
	</g>
	<g class="st1">
		<path class="st3" d="m95.1 107.8c0.3 0.1 0.6 0.1 0.8 0.1-0.3 0-0.6 0-0.8-0.1"/>
	</g>
	<g class="st1">
		<path class="st3" d="m102.9 67v-0.2 0.2z"/>
	</g>
	<g class="st1">
		<path class="st3" d="m102.9 66.8l-0.1-0.2c0 0.1 0 0.2 0.1 0.2"/>
	</g>
	<g class="st1">
		<path class="st3" d="m102.6 66.3l0.2 0.4c-0.1-0.2-0.1-0.4-0.2-0.4"/>
	</g>
	<g class="st1">
		<path class="st3" d="m104.8 71.2c0.1-0.1 0-0.1 0 0"/>
	</g>
	<g class="st1">
		<path class="st3" d="m105.6 72.3c-0.2-0.3-0.3-0.8-0.6-1.1h-0.1c0.2 0.1 0.4 0.9 0.7 1.1"/>
	</g>
	<g class="st1">
		<path class="st3" d="m109.1 77.2c-0.3-0.3-0.6-0.5-0.9-0.8 0.1 0.2 0.3 0.5-0.2 0.1 1 1.2-0.1-0.3 1.1 0.7"/>
	</g>
	<g class="st1">
		<path class="st3" d="m112.3 79.3c-0.6-0.3-0.1 0.1-0.1 0.2 0.4 0.1 0.5 0.1 0.1-0.2"/>
	</g>
	<g class="st1">
		<path class="st3" d="m106.5 101.2l-0.1-0.2c-0.3 0.5 0 0.1 0.1 0.2"/>
	</g>
	<g class="st1">
		<path class="st3" d="m103.7 105.8c0.2-0.1 0.3-0.1 0.5-0.2l0.1-0.3c-0.2 0.1-0.4 0.3-0.6 0.5"/>
	</g>
	<g class="st1">
		<path class="st3" d="m100.3 105.8c0.1 0 0.1-0.1 0.2-0.1-0.2 0.1-0.5 0.2-0.7 0.3l0.5-0.2z"/>
	</g>
	<g class="st1">
		<path class="st3" d="m58.5 106.6l-0.1 0.3c0.3 0.2 0.6 0 0.1-0.3"/>
	</g>
	<g class="st1">
		<path class="st3" d="m46.2 91.8c0-0.2-0.2-0.8-0.4-1 0.1 0.4 0.2 0.9 0.4 1"/>
	</g>
	<g class="st1">
		<path class="st3" d="m55.3 42.9l-0.3 0.2c0.2-0.1 0.4-0.2 0.7-0.3-0.1 0.1-0.2 0.1-0.4 0.1"/>
	</g>
	<g class="st1">
		<path class="st3" d="m85.8 30.2c0-0.1-0.2-0.1-0.2 0l0.2 0.2v-0.2z"/>
	</g>
	<g class="st1">
		<path class="st3" d="m85 30.4c0.1 0.2 0.2 0.4 0.4 0.5-0.2-0.2-0.1-0.2-0.3-0.5 0-0.1 0.2-0.1 0.2 0 0-0.1 0.1-0.1 0-0.2-0.3 0-0.3 0.1-0.3 0.3 0.1 0.1 0.1 0 0-0.1"/>
	</g>
	<g class="st1">
		<path class="st3" d="m78.2 36"/>
	</g>
	<g class="st1">
		<path class="st3" d="m73.3 37.5"/>
	</g>
	<g class="st1">
		<path class="st3" d="m73.1 37.1"/>
	</g>
	<g class="st1">
		<path class="st3" d="m78.2 36h-0.2c0 0.1 0.1 0.1 0.2 0"/>
	</g>
	<g class="st1">
		<path class="st3" d="m84.8 31.9v-0.1 0.1z"/>
	</g>
	<g class="st1">
		<path class="st3" d="m80.1 34.6v-0.1 0.1z"/>
	</g>
	<g class="st1">
		<path class="st3" d="m81.5 33.4s0.1 0.2 0.2 0.3c0-0.1-0.1-0.1 0-0.2-0.1 0-0.2-0.1-0.2-0.1"/>
	</g>
	<g class="st1">
		<path class="st3" d="m83.8 31.6v0"/>
	</g>
	<g class="st1">
		<path class="st3" d="m79 35.3c-0.1-0.1-0.1-0.1 0 0-0.1-0.1-0.1-0.1 0 0"/>
	</g>
	<g class="st1">
		<path class="st3" d="m87.4 28.5"/>
	</g>
	<g class="st1">
		<polygon points="85.3 29.9 85.3 29.8 85.2 29.8" class="st3"/>
	</g>
	<g class="st1">
		<path class="st3" d="m73.2 36.1c0.1 0 0.1 0 0 0"/>
	</g>
	<g class="st1">
		<path class="st3" d="m77.7 22c-0.3 0 0-0.4-0.4-0.4 0.1 0.1 0.1 0.5 0.4 0.4"/>
	</g>
	<g class="st1">
		<path class="st3" d="m84.8 31.9c-0.1 0-0.1 0 0 0-0.1 0 0 0 0 0"/>
	</g>
	<g class="st1">
		<path class="st3" d="m77.3 21.6"/>
	</g>
	<g class="st1">
		<path class="st3" d="m73.2 32.3h-0.1 0.1"/>
	</g>
	<g class="st1">
		<path class="st3" d="m72.7 35.1"/>
	</g>
	<g class="st1">
		<path class="st3" d="m73.1 30.8c0-0.1 0.1-0.1 0 0v0 0"/>
	</g>
	<g class="st1">
		<path class="st3" d="m73.5 29.3s-0.1 0 0 0z"/>
	</g>
	<g class="st1">
		<path class="st3" d="m89 23.6h-0.2c0.2 0 0.2 0.3 0.2 0"/>
	</g>
	<g class="st1">
		<path class="st3" d="m84.7 31.8l0.1 0.1-0.1-0.1c0.1 0 0 0 0 0"/>
	</g>
	<g class="st1">
		<path class="st3" d="m71.3 30.3l0.1-0.3c-0.1 0.1-0.1 0.2-0.1 0.3"/>
	</g>
	<g class="st1">
		<path class="st3" d="m85.4 14.2v0"/>
	</g>
	<g class="st1">
		<path class="st3" d="m71.5 29.3c0.1 0 0.2-0.1 0.2-0.1h-0.1l-0.1 0.1z"/>
	</g>
	<g class="st1">
		<path class="st3" d="m88.8 23.6z"/>
	</g>
	<g class="st1">
		<path class="st3" d="m88.9 25.5c0.1-0.2-0.3-0.2-0.4-0.3 0-0.3 0.3-0.1 0.5-0.1 0-0.2-0.3-0.4-0.2-0.6h0.1c-0.2-0.3 0.2-0.6-0.1-0.9h0.1c-0.2 0-0.3 0-0.4-0.1 0-0.1-0.1-0.2 0.1-0.2 0 0.1 0.1 0.1 0.1 0.1l-0.1-0.1c0.3 0 0.1 0.2 0.3 0.2 0-0.3-0.2-0.6-0.1-0.7 0.3 0 0 0.4 0.3 0.3l-0.2 0.2c0.5-0.1-0.1 0.2 0.5 0.1 0.2-0.3 0-0.4 0.1-0.8-0.1-0.1-0.2 0-0.4-0.1-0.2-0.6 0.8-0.3 0.5-0.7-0.2-0.1-0.5-0.2-0.3-0.5l0.3 0.1c0.1-0.4-0.4-0.3-0.2-0.6 0.1 0.1 0.1 0.3 0.1 0.2 0.3-0.2-0.2-0.2-0.1-0.4h0.3c0-0.4-0.2-0.8-0.2-1.2 0.1 0 0.2 0.1 0.3 0-0.1-0.5 0.1-1.1 0.2-1.7l-0.3-0.2s0.1-0.1 0.2 0c0.1-0.2-0.2 0-0.3-0.1 0-0.1 0.1-0.2 0.2-0.1-0.2-0.3-0.5-1-0.3-1.4l0.1 0.1c0.1-0.3-0.5-0.2-0.4-0.6l0.1 0.1c0-0.5-0.2-0.9-0.2-1.4 0-0.2-0.1-0.4-0.1-0.7-0.1-0.1-0.3 0-0.5-0.1-0.2 0.2-0.4 0.2-0.6 0.2s-0.4 0.1-0.5 0.3c-0.2-0.1-0.3-0.1-0.5-0.2-0.1 0-0.4 0-0.6-0.1-0.1 0-0.1 0.4-0.2 0.5l-0.1-0.2-0.1 0.3-0.4-0.1-0.1 0.1c0.1 0 0.2 0.1 0.2 0.1-0.2 0.2-0.6 0-0.7-0.1l-0.5 0.4c0-0.1 0-0.2 0.1-0.3-0.2 0.4-0.2-0.2-0.3 0.1 0.1 0 0 0.2 0.1 0.2-0.2-0.1-0.5 0-0.7 0.2v-0.2c-0.4 0.1-0.8 0.5-1.2 0.7 0.2 0 0.3 0.3 0.2 0.4l-0.2-0.2c0 0.2 0.2 0 0.1 0.3-0.2 0.1-0.3-0.2-0.2-0.3l-0.1 0.2c-0.1-0.1 0-0.1-0.1-0.2 0 0.2-0.5 0-0.4 0.3l-0.1-0.1c-0.4 0.2-0.5 0.5-0.9 0.7 0.1 0.2 0 0.2 0 0.5-0.3 0.1-0.6 0.1-0.9 0.3-0.1 0.2 0.1 0.2 0.1 0.4-0.1-0.2-0.4 0.1-0.4-0.2-0.3 0.3-0.4 0.4-0.7 0.8 0.1 0 0.2 0 0.2 0.1s-0.2 0.1-0.3 0c-0.2 0.6-1.4 0.4-1.5 1.1-0.1 0.2-0.1 0.3-0.2 0.5-0.2 0.1 0-0.2-0.2-0.2-0.1 0.6-0.6 0.6-0.7 1.1-0.7-0.2-0.7 0.9-1.3 1.1l0.1 0.1c0.1 0.2-0.2 0.1-0.2 0.1 0.1 0.1 0.2 0 0.2 0.1-0.4 0.9-1.3 1.6-1.9 2.4-0.2 0.3 0.6 0.5 0.1 0.8l-0.1-0.3c0 0.8-0.6 1.4-0.6 2.2 0-0.1-0.1-0.1-0.1-0.2-0.2 0.1-0.2 0.5 0 0.6-0.1 0.1-0.2 0-0.3 0-0.2 0.1 0.1 0.5-0.1 0.5l-0.1-0.1c0.1 0.1-0.2 0.4 0.1 0.4-0.2 0.2-0.1 0.5-0.2 0.7 0.2 0.2-0.2 0.4 0.1 0.6-0.4-0.1-0.4 0.4-0.3 0.6-0.1-0.1-0.1 0.1-0.3 0 0 0.2 0 0.4 0.2 0.4-0.5 0.3 0.2 0.8-0.4 0.9 0.1 0.6 0.2 1.2 0.3 1.7-0.4 0 0-0.6-0.4-0.6 0.1 0.5 0.4 0.8 0.3 1.3-0.1 0.1-0.2-0.1-0.2-0.1 0.1 0.5 0 1 0.2 1.4 0 0-0.1 0-0.1-0.1 0 0.1 0 0.2 0.1 0.2l-0.1-0.1c0.2-0.1 0.6 0.3 0.7 0.3-0.5-0.1-0.1 0.4-0.7 0.3 0 0.1 0.1 0.1 0.2 0.1 0 0.1-0.1 0.1-0.2 0 0.1 0.3 0.3 0.2 0.3 0.5-0.1 0-0.1 0-0.2-0.1 0.2 0.1 0.4 0.2 0.3 0.5-0.1 0-0.1 0-0.1-0.1 0 0.3 0.2 0.5 0.3 0.7s0.2 0.4 0.2 0.7c-0.3 0.2-0.1 0.3-0.3 0.7 0 0.2 0.2 0 0.3 0v-0.2c0.3 0 0.7-0.3 0.9-0.2l-0.3 0.2 0.6-0.1-0.3-0.1c0.3-0.2 0.1-0.4 0.4-0.4-0.1 0 0.2 0 0.4 0.1 0.1-0.1 0.2-0.2 0.4-0.2 0.1 0.1 0 0.4 0.1 0.4 0.1-0.3 0.5-0.2 0.5-0.5v0.3-0.2c0.1 0 0.1 0.1 0.1 0.2 0.3 0-0.2-0.4 0.2-0.3v0.1c0.4 0 0.6-0.3 0.9-0.3 0.2 0.3-0.2 0.2-0.1 0.4 0.4-0.2 0.8-0.7 1.2-0.8h-0.1c-0.1-0.4 0.4 0.1 0.5-0.2v0.2c0.3-0.1 0.5-0.4 0.9-0.7v0.1c0.2 0 0.4-0.2 0.6-0.2 0-0.1 0.1-0.2 0-0.3 0.9 0.3 0.8-0.9 1.5-0.7-0.1 0-0.1 0.2 0 0.1l0.3-0.3c-0.1-0.1-0.1-0.1-0.3-0.1 0-0.1 0-0.3 0.1-0.3-0.1 0.2 0.2 0.3 0.3 0.3 0 0-0.1-0.1-0.1-0.2 0.4 0.1-0.2-0.3 0.2-0.3l0.1 0.1c0.1-0.1 0.1-0.3 0.2-0.3 0.2 0.1 0 0.2 0.1 0.3 0.1-0.1 0-0.6 0.3-0.5 0 0.1-0.1 0.2-0.1 0.3 0.3 0.1 0.3 0 0.4 0l0.3-0.1h-0.1c-0.2-0.6 0.3-0.4 0.2-0.9 0 0.5 0.1 0.2 0.3 0.4h0.3c0-0.3 0.3-0.1 0.2-0.4 0.1 0.1 0.1-0.1 0.2 0.1 0.1-0.2-0.1-0.1-0.2-0.2 0-0.4 0.7-0.3 0.7-0.8 0.1-0.4-0.1-0.6 0.1-1 0.2 0 0.2 0.3 0.2 0.3 0.2-0.1 0.3-0.2 0.3-0.4 0 0.1 0.1 0.1 0.2 0.1 0.1-0.1-0.2-0.3 0-0.3 0.1 0.1 0.1 0.2 0.2 0.3 0-0.2 0-0.4 0.1-0.6 0.1 0.1 0.1 0.2 0.2 0.3 0.1-0.2 0.2-0.5 0-0.7h-0.1c0-0.1 0.2 0.1 0.2 0.2 0 0.2-0.2 0.1-0.3 0.1v-0.1c-0.5-0.2-0.2 0.4-0.4 0.6l-0.2-0.3 0.1 0.4c-0.1 0-0.3-0.1-0.2-0.2-0.2 0 0 0.2-0.2 0.2v0.2c0-0.1-0.2-0.1-0.1-0.2-0.3 0.1-0.1 0.5-0.4 0.4-0.2 0.4 0.2 0.2 0.2 0.6l-0.6-0.3 0.2 0.2s-0.1 0.1-0.2 0c0 0.2 0.1 0.1 0.2 0.2-0.3 0-0.3 0.5-0.6 0.2 0.1 0.2 0.2 0 0.2 0.2-0.4-0.3-0.1 0.2-0.4 0.2-0.1-0.2 0.1-0.2-0.2-0.3 0.2 0.4-0.3 0.2-0.4 0.3 0.2 0.2-0.2 0.3-0.3 0.6 0-0.1-0.5 0.2-0.7 0.2 0.2 0.3-0.1 0.4-0.2 0.5-0.1-0.2-0.1-0.2-0.1-0.4l-0.1 0.1c0 0.1 0 0.2-0.1 0.3h-0.3c-0.2 0.1-0.2 0.5-0.5 0.5 0.1 0.2 0.5 0.4 0.3 0.7-0.1-0.1-0.2-0.3-0.2-0.3s0 0.1-0.1 0.1v-0.2c-0.2 0 0 0.2-0.1 0.2l-0.2-0.2s0.1 0 0.1-0.1c-0.1 0-0.3 0-0.4-0.1 0.1 0.1 0.1 0.2 0.1 0.3-0.2 0.1-0.2-0.1-0.3-0.1 0 0.1-0.2 0.1 0 0.3-0.1 0-0.1-0.1-0.2-0.1 0 0.2-0.5 0.3-0.2 0.5-0.2 0.4-0.8 0.2-1.1 0.5v-0.1c-0.2 0.2-0.4 0.2-0.5 0.5-0.1 0-0.2-0.1-0.2-0.2-0.2 0.1-0.2 0.2-0.5 0.2 0.1-0.2-0.1-0.1 0.1-0.2-0.2 0-0.3-0.1-0.5 0.2 0-0.2-0.2-0.2-0.3-0.1l0.2 0.1c-0.1 0.1-0.2 0.1-0.3 0.1v-0.3c-0.5-0.2-0.6 0.8-1.1 0.3-0.1 0.2 0.3 0.1 0.2 0.3-0.2 0-0.5-0.4-0.6-0.4-0.2-0.1-0.2 0.1-0.2 0.2s-0.1 0.2-0.1 0.2c0 0.1 0 0.4-0.2 0.5-0.2 0-0.1-0.4 0-0.5v0.1c0.1 0 0.1-0.1 0.1-0.2v0.1c0-0.1-0.1-0.1 0-0.3-0.1 0.1-0.1 0.2-0.1 0.2 0-0.1-0.1-0.1-0.1-0.1h-0.1v-0.1c0 0.1-0.1 0.2-0.1 0.2 0.1-0.3-0.2 0.1-0.3-0.1 0.1-0.2 0.3-0.2 0.2-0.3 0.1-0.1 0.3-0.1 0.3-0.2-0.1 0-0.1 0 0-0.1 0 0 0.1 0 0.1-0.1 0 0 0-0.1 0.1-0.1l0.1 0.1c-0.1 0-0.1-0.1-0.1-0.2l-0.2 0.1c0-0.1 0-0.1 0.1-0.2-0.1-0.1-0.3 0.1-0.5 0 0.1-0.1-0.2-0.3 0.1-0.4-0.1 0.3 0.3-0.1 0.3 0.2v-0.2h0.1c0.2-0.3-0.3-0.1-0.3-0.4 0.2 0 0.3-0.1 0.2-0.1 0 0.1-0.2 0.1-0.4 0 0.1-0.2-0.1-0.2-0.1-0.3v0.1c-0.2 0-0.1-0.1-0.2-0.3 0.1 0 0.1 0.1 0.1 0.1-0.3-0.2 0.3-0.4 0.1-0.6 0.1-0.1 0.3 0 0.4-0.1-0.2-0.2 0.2-0.3 0.1-0.5-0.2 0.1-0.2 0.1-0.3-0.1l0.1 0.4-0.3-0.3c0 0.1 0.1 0.3 0.1 0.4-0.2-0.1-0.1-0.1-0.3-0.1 0.3-0.2-0.2-0.4 0.1-0.6h0.5c0.2-0.3-0.2-0.6-0.1-1l-0.1 0.1c-0.2-0.1 0-0.3-0.1-0.4 0.2 0 0.2 0 0.3-0.1-0.1 0 0.1-0.3-0.3-0.4l0.2-0.1c0.1-0.3-0.4-0.5-0.3-0.8 0.2 0.1 0.3 0 0.4 0.2 0-0.1 0.1-0.2 0-0.2 0.1 0-0.2-0.3 0-0.4-0.1-0.1-0.2-0.1-0.2-0.2h0.1c-0.1 0-0.1-0.2-0.3-0.1 0.6-0.2 0.2-0.9 0.7-1.1 0-0.2 0-0.5 0.1-0.7 0 0 0.1 0 0.1 0.1 0.2-0.2-0.4-0.3-0.1-0.6 0.3-0.1 0.1 0.2 0.2 0.2 0.5 0.1 0.1-0.4 0.4-0.5v0.1c0.2-0.1 0-0.5 0.1-0.7h0.1c-0.2-0.3-0.1-0.7-0.1-0.9 0.2 0.2 0.1 0.2 0.3 0.2 0-0.1-0.3-0.1-0.3-0.4 0.1 0 0.3-0.1 0.5-0.1l-0.1 0.2c0.3 0 0.1-0.3 0.2-0.4l0.1 0.1c0.1-0.3-0.2-0.5 0-0.8h-0.1c-0.2-0.3 0.2-0.1 0.1-0.4l0.3 0.1c0-0.2-0.1-0.6 0-0.8 0.1 0.2 0.1 0.6 0.2 0.8 0.1-0.1 0.2-0.4 0.1-0.5v0.2c-0.2-0.3-0.1-0.5 0-0.8 0.5 0.4 0.5-0.5 1-0.4 0.1-0.5 0.6-0.7 0.9-1.1-0.5-0.2 0.1-0.1-0.3-0.4l0.1-0.1 0.5-0.1c0.2 0 0 0.2 0.1 0.2 0.2-0.2 0.2 0.1 0.5 0-0.2-0.1-0.1-0.2 0-0.3h-0.3c0.1-0.5 0.5 0.1 0.6-0.4v0.2c0.1-0.2 0.5-0.5 0.4-0.9 0.1 0 0.2 0.1 0.2 0.2 0.4-0.3 0.5-1 0.9-1.1l0.1 0.1c0-0.1 0-0.3 0.1-0.3l0.1 0.1c0-0.1 0-0.3 0.2-0.3v0.2c0.5-0.2 0.3-0.7 0.6-1 0.2 0.3 0.6 0.2 0.8 0.1 0.5-0.3 0.6-0.8 0.9-1.1 0.5 0.2 1-0.4 1.5-0.4-0.1 0-0.1-0.3-0.1-0.3 0.1 0 0.2-0.4 0.3-0.1 0.2 0.3 0.4 0.1 0.6 0l-0.2-0.4c0.7 0.4 1.1-0.7 1.5-0.2l0.3-0.3 0.1 0.2h0.1l0.1-0.1c0 0.1 0 0.1-0.1 0.2 0 0 0.3-0.8 0.5-0.9-0.1 0.1-0.1 0.3-0.2 0.4v0.1 0.2c0 0.1 0 0.1 0.2 0.1-0.1 0-0.1 0.1-0.2 0.1 0 0-0.1 0.1 0 0.1 0 0 0 0.1 0.1 0.1h0.3c-0.3 0 0 0.4 0.2 0.6h-0.2c0.3 0.1 0.4 0.1 0.5 0.4 0 0.1-0.2 0.1-0.1 0-0.1 0.2 0.2 0.1 0.1 0.4l-0.1 0.4c0 0.2 0.1 0.2 0.3 0.3 0.1 0.1 0 0.4-0.3 0.4 0.1 0 0.3 0.1 0.3 0.3h-0.2c-0.2 0.3 0.3 0.5 0 0.8h-0.1v-0.5c-0.2 0-0.3 0.2-0.6 0 0.2 0.2 0.5 0.5 0.4 0.7h-0.1v0.1c0 0.1-0.1 0.1-0.1 0.2-0.2 0-0.1 0.2-0.1 0.3 0.2 0 0.2 0.2 0.4 0v-0.1-0.3c0.1 0.1 0.2 0.2 0.1 0.3 0.1 0.1 0.3 0.1 0.4 0.2-0.3 0.1-0.6 0.4-0.8 0.4 0.1 0.3 0 0.8 0.4 1.1 0 0.1-0.1 0.1-0.2 0.1 0-0.1 0-0.1-0.1-0.2 0.1 0.2-0.1 0.6 0.2 0.7-0.2 0.2-0.3-0.2-0.3 0.1l-0.1-0.1c-0.6 0.5 0.5 1.2-0.3 1.8 0.1 0 0.1-0.1 0.1-0.1-0.5 0.7-0.3 1.7-1 2.3-0.2 0.2 0 0.3 0.1 0.5l-0.3-0.1 0.2 0.3c0 0.4-0.8 0.3-0.7 0.8h0.2c-0.1 0.1-0.1 0.5-0.3 0.4 0 0 0.1 0.1 0 0.1l-0.1-0.1v0.5c-0.2 0.2-0.4-0.3-0.7 0.1 0 0.2 0.1 0.6 0.2 0.6 0-0.1 0.2-0.1 0.3 0v0.2c0.3 0.2 0.6 0.6 1 0.4l-0.1-0.4h0.2l-0.1 0.2c0.2 0 0.1-0.2 0.1-0.3h0.2l-0.2-0.4c0.2 0 0.2 0.3 0.4 0.1-0.1-0.2-0.4-0.1-0.4-0.3 0.2 0 0.3 0.1 0.3-0.1 0.1 0 0.1 0.1 0.2 0.2 0-0.2 0.1-0.3 0-0.5 0.3 0 0.2-0.4 0.5-0.3-0.1-0.1-0.2-0.3-0.1-0.5 0.3 0.4 0.2-0.4 0.6-0.2-0.3-0.3 0.1-0.6 0-1 0 0 0.1 0.1 0 0.1 0.1-0.1 0.2-0.1 0.3-0.2-0.3-0.1-0.3-0.4-0.4-0.6 0.4-0.1 0.3 0.3 0.6 0.3-0.3-0.1-0.1-0.4-0.4-0.4 0.2-0.1 0.1-0.1 0.4-0.1-0.4-0.2 0-0.2-0.2-0.4 0.3-0.2 0.4 0.1 0.3-0.2 0.4 0.2 0.5 0.5 0.5 0.5m0.4-6v0.1-0.1m0-0.5v0.2c-0.1 0-0.2 0-0.2-0.1 0.1 0.1 0.1 0 0.2-0.1m-1.7 0.9c0-0.1 0-0.1 0.1-0.1 0 0 0 0.1-0.1 0.1h0.1-0.1"/>
	</g>
	<g class="st1">
		<path class="st3" d="m87.9 20.1z"/>
	</g>
	<g class="st1">
		<path class="st3" d="m78.3 36.1"/>
	</g>
	<g class="st1">
		<polygon points="85.9 13.9 85.9 13.9" class="st3"/>
	</g>
	<g class="st1">
		<path class="st3" d="m80.9 35.3s0.1 0 0 0c0.1 0 0.1 0 0 0"/>
	</g>
	<g class="st1">
		<path class="st3" d="m81.9 34.6h0.2-0.2"/>
	</g>
	<g class="st1">
		<path class="st3" d="m82.6 34.1v0z"/>
	</g>
	<g class="st1">
		<path class="st3" d="m71.1 35.3v0c-0.1-0.2-0.1-0.1 0 0"/>
	</g>
	<g class="st1">
		<path class="st3" d="m73.6 38.4c-0.1 0.1-0.1 0.1-0.2 0.1 0.1 0.1 0.2 0 0.2-0.1"/>
	</g>
	<g class="st1">
		<polygon points="71.2 30.3 71.2 30.3 71.3 30.3" class="st3"/>
	</g>
	<g class="st1">
		<path class="st3" d="m73.2 38.6h0.3c-0.1-0.1-0.2-0.1-0.3 0"/>
	</g>
	<g class="st1">
		<path class="st3" d="m85.3 31.2z"/>
	</g>
	<g class="st1">
		<path class="st3" d="m85.3 31.2v0"/>
	</g>
	<g class="st1">
		<path class="st3" d="m85.3 31v0.1c0.1 0 0.1 0 0-0.1"/>
	</g>
	<g class="st1">
		<path class="st3" d="m84.5 32.1v0"/>
	</g>
	<g class="st1">
		<path class="st3" d="m84.3 32.4c0.1-0.1 0.3 0 0.3-0.2v-0.1c0 0.2-0.4 0.2-0.3 0.3"/>
	</g>
	<g class="st1">
		<path class="st3" d="m82.5 32.8c0.1 0 0.2-0.1 0.3-0.2-0.1 0-0.2-0.1-0.2-0.2-0.5 0.1 0.2 0.1-0.1 0.4"/>
	</g>
	<g class="st1">
		<path class="st3" d="m81.7 33.3c0.1-0.1-0.1-0.1-0.1-0.1 0 0.1 0 0.1 0.1 0.1"/>
	</g>
	<g class="st1">
		<path class="st3" d="m76.4 36.7l-0.1-0.2c-0.1 0.1 0 0.1 0.1 0.2"/>
	</g>
	<g class="st1">
		<polygon points="75.5 38.2 75.7 38.3 75.7 38.1" class="st3"/>
	</g>
	<g class="st1">
		<polygon points="74.4 36.9 74.5 36.8 74.3 37" class="st3"/>
	</g>
	<g class="st1">
		<path class="st3" d="m73.6 29.6h-0.3c0.1 0 0.3 0.1 0.3 0"/>
	</g>
	<g class="st1">
		<path class="st3" d="m75.1 25.2c0.1 0 0.3-0.1 0.2-0.2-0.1 0.1-0.2 0.1-0.2 0.2"/>
	</g>
	<g class="st1">
		<polygon points="85.4 16.4 85.4 16.5 85.5 16.4" class="st3"/>
	</g>
	<path class="st4" d="m43.6 140.8c0-0.3 0.1-0.5 0.2-0.7 0.1-0.1 0.3-0.2 0.5-0.2s0.4 0.1 0.5 0.2c0.2 0.1 0.2 0.4 0.2 0.6 0 0.3-0.1 0.5-0.2 0.7-0.2 0.1-0.3 0.2-0.5 0.2s-0.4-0.1-0.5-0.2c-0.2-0.1-0.2-0.3-0.2-0.6zm1.4 10.9h-1.3v-8.6h1.3v8.6z"/>
	<path class="st4" d="m53 151.7l-3.9-10.1h-0.1c0.1 0.8 0.1 1.8 0.1 2.9v7.3h-1.2v-11.4h2l3.6 9.4h0.1l3.6-9.4h2v11.4h-1.3v-7.4c0-0.8 0-1.8 0.1-2.8h-0.1l-3.9 10.1h-1z"/>
	<path class="st4" d="m65.8 151.8c-1.3 0-2.3-0.4-3-1.2s-1.1-1.8-1.1-3.2 0.3-2.5 1-3.3 1.6-1.2 2.7-1.2c1.1 0 1.9 0.4 2.5 1.1s0.9 1.6 0.9 2.8v0.8h-5.8c0 1 0.3 1.8 0.8 2.3s1.2 0.8 2 0.8c0.9 0 1.8-0.2 2.7-0.6v1.2c-0.5 0.2-0.9 0.3-1.3 0.4-0.3 0.1-0.8 0.1-1.4 0.1zm-0.4-7.7c-0.7 0-1.2 0.2-1.6 0.7-0.4 0.4-0.6 1.1-0.7 1.9h4.5c0-0.8-0.2-1.4-0.5-1.9-0.5-0.5-1-0.7-1.7-0.7z"/>
	<path class="st4" d="m76.7 149.4c0 0.8-0.3 1.4-0.9 1.8s-1.4 0.6-2.5 0.6-2-0.2-2.7-0.5v-1.2c0.4 0.2 0.9 0.4 1.3 0.5 0.5 0.1 0.9 0.2 1.4 0.2 0.7 0 1.2-0.1 1.6-0.3s0.5-0.5 0.5-1c0-0.3-0.1-0.6-0.4-0.9-0.3-0.2-0.9-0.5-1.7-0.8s-1.4-0.6-1.7-0.8-0.6-0.5-0.8-0.8-0.2-0.6-0.2-1c0-0.7 0.3-1.2 0.9-1.7 0.6-0.4 1.3-0.6 2.3-0.6 0.9 0 1.8 0.2 2.7 0.6l-0.5 1.1c-0.9-0.4-1.6-0.5-2.3-0.5-0.6 0-1.1 0.1-1.4 0.3s-0.5 0.5-0.5 0.8c0 0.2 0.1 0.4 0.2 0.6s0.3 0.3 0.6 0.5c0.3 0.1 0.8 0.4 1.5 0.6 1 0.4 1.7 0.7 2.1 1.1 0.3 0.3 0.5 0.8 0.5 1.4z"/>
	<path class="st4" d="m84.3 149.4c0 0.8-0.3 1.4-0.9 1.8s-1.4 0.6-2.5 0.6-2-0.2-2.7-0.5v-1.2c0.4 0.2 0.9 0.4 1.3 0.5 0.5 0.1 0.9 0.2 1.4 0.2 0.7 0 1.2-0.1 1.6-0.3s0.5-0.5 0.5-1c0-0.3-0.1-0.6-0.4-0.9-0.3-0.2-0.9-0.5-1.7-0.8s-1.4-0.6-1.7-0.8-0.6-0.5-0.8-0.8-0.2-0.6-0.2-1c0-0.7 0.3-1.2 0.9-1.7 0.6-0.4 1.3-0.6 2.3-0.6 0.9 0 1.8 0.2 2.7 0.6l-0.5 1.1c-0.9-0.4-1.6-0.5-2.3-0.5-0.6 0-1.1 0.1-1.4 0.3s-0.5 0.5-0.5 0.8c0 0.2 0.1 0.4 0.2 0.6s0.3 0.3 0.6 0.5c0.3 0.1 0.8 0.4 1.5 0.6 1 0.4 1.7 0.7 2.1 1.1 0.3 0.3 0.5 0.8 0.5 1.4z"/>
	<path class="st4" d="m91.7 151.7l-0.3-1.2h-0.1c-0.4 0.5-0.9 0.9-1.3 1.1s-1 0.3-1.6 0.3c-0.8 0-1.5-0.2-2-0.7-0.5-0.4-0.7-1.1-0.7-1.9 0-1.7 1.4-2.6 4.1-2.7h1.5v-0.6c0-0.7-0.1-1.2-0.4-1.5s-0.8-0.5-1.4-0.5c-0.7 0-1.5 0.2-2.4 0.7l-0.4-1c0.4-0.2 0.9-0.4 1.4-0.5s1-0.2 1.5-0.2c1 0 1.8 0.2 2.3 0.7s0.7 1.2 0.7 2.2v5.8h-0.9zm-3-0.9c0.8 0 1.4-0.2 1.9-0.7 0.5-0.4 0.7-1.1 0.7-1.9v-0.8l-1.3 0.1c-1 0-1.8 0.2-2.2 0.5-0.5 0.3-0.7 0.7-0.7 1.3 0 0.5 0.1 0.8 0.4 1.1s0.7 0.4 1.2 0.4z"/>
	<path class="st4" d="m102.3 143.1v0.8l-1.6 0.2c0.1 0.2 0.3 0.4 0.4 0.7s0.2 0.6 0.2 1c0 0.8-0.3 1.5-0.9 2s-1.4 0.8-2.4 0.8c-0.3 0-0.5 0-0.7-0.1-0.6 0.3-0.8 0.7-0.8 1.1 0 0.2 0.1 0.4 0.3 0.5s0.5 0.2 1 0.2h1.5c0.9 0 1.6 0.2 2.1 0.6s0.7 1 0.7 1.7c0 0.9-0.4 1.7-1.1 2.2-0.8 0.5-1.9 0.7-3.3 0.7-1.1 0-2-0.2-2.6-0.6s-0.9-1-0.9-1.8c0-0.5 0.2-1 0.5-1.4s0.8-0.6 1.4-0.8c-0.2-0.1-0.4-0.3-0.6-0.5-0.1-0.2-0.2-0.5-0.2-0.7 0-0.3 0.1-0.6 0.2-0.8 0.2-0.2 0.4-0.5 0.8-0.7-0.4-0.2-0.8-0.5-1.1-0.9s-0.4-0.9-0.4-1.5c0-0.9 0.3-1.7 0.8-2.2s1.4-0.8 2.4-0.8c0.4 0 0.9 0.1 1.2 0.2h3.1zm-6.8 10c0 0.5 0.2 0.8 0.6 1.1 0.4 0.2 1 0.4 1.7 0.4 1.1 0 1.9-0.2 2.4-0.5s0.8-0.8 0.8-1.3-0.1-0.8-0.4-1-0.8-0.3-1.6-0.3h-1.6c-0.6 0-1 0.1-1.4 0.4s-0.5 0.7-0.5 1.2zm0.7-7.2c0 0.6 0.2 1.1 0.5 1.4s0.8 0.5 1.4 0.5c1.3 0 1.9-0.6 1.9-1.8 0-1.3-0.6-1.9-1.9-1.9-0.6 0-1.1 0.2-1.4 0.5s-0.5 0.6-0.5 1.3z"/>
	<path class="st4" d="m107.7 151.8c-1.3 0-2.3-0.4-3-1.2s-1.1-1.8-1.1-3.2 0.3-2.5 1-3.3 1.6-1.2 2.7-1.2c1.1 0 1.9 0.4 2.5 1.1s0.9 1.6 0.9 2.8v0.8h-5.9c0 1 0.3 1.8 0.8 2.3s1.2 0.8 2 0.8c0.9 0 1.8-0.2 2.7-0.6v1.2c-0.5 0.2-0.9 0.3-1.3 0.4-0.2 0.1-0.7 0.1-1.3 0.1zm-0.4-7.7c-0.7 0-1.2 0.2-1.6 0.7-0.4 0.4-0.6 1.1-0.7 1.9h4.5c0-0.8-0.2-1.4-0.5-1.9-0.5-0.5-1-0.7-1.7-0.7z"/>
</svg>
