<?xml version="1.0" encoding="UTF-8" standalone="no"?>
<!-- Generator: Adobe Illustrator 21.0.0, SVG Export Plug-In . SVG Version: 6.00 Build 0)  -->
<svg id="Layer_1" style="enable-background:new 0 0 835.5 642" xmlns="http://www.w3.org/2000/svg" xml:space="preserve" viewBox="0 0 835.5 642" version="1.1" y="0px" x="0px" xmlns:xlink="http://www.w3.org/1999/xlink">
<style type="text/css">
	.st0{fill:#CFEBF6;}
	.st1{fill:#999999;}
	.st2{fill:#FFFFFF;}
	.st3{fill:#2FB2E6;}
</style>
<path class="st0" d="m177.1 356.7m132.4-168.6c-1.1 0.5-2.2 1-3.3 1.6-50.6 24.3-94.9 62.3-124.7 119.5-5.1 9.7-9.8 20.2-11 33.8-1 11.1 0.6 24.7 5.6 37.7 0.3 36.2 8.2 77.6 29.8 114.1 26.6 44.8 67.1 69.4 98.5 70.4 17.2 0.6 32.4-4.7 47.4-10 49.8-17.9 98.8-37.6 146.8-59.2 4.7-2.1 9.3-4.2 13.9-6.4 31.8-14.8 62.6-32 86.4-60.5 10.3-12.3 19.3-26.8 31.8-35.7 10.1-7.2 22.4-10.6 31-20.3 7.3-8.3 11.6-20.7 14.4-34.4 3.4-16.6 4.5-35.6 0.5-56.6s-13.6-44.3-27.6-61.2c-13.4-16.3-29.2-25-43.2-39.8-8.9-9.4-17.1-21.3-26.4-28.3-9.8-7.5-19.4-8.5-28.3-9-27.4-1.4-53.7 0.8-79.6 3.9-56.7 6.5-112.3 17.2-162 40.4"/>
			<path class="st1" d="m185.9 205.3c-5.5 1.9-11.2 0-16.8 0.6-4 0.4-7.6 2-10.7 4.4-7.4 5.7-11.6 14.5-15.7 22.6-5.6 10.7-10.9 21.6-15.9 32.6-2.4 5.3-4.8 10.7-7 16-2.1 4.9-5 10.1-5.6 15.5-0.6 5.9 3.5 10.7 6.6 15.3l11.4 17.1c1.4 2.1 4.8 0.1 3.4-2l-9-13.5c-1.4-2.1-2.8-4.2-4.2-6.2-1.5-2.2-3.4-4.6-4.2-7.3-1.5-5.3 2.8-12.2 4.8-17 2.1-5 4.3-9.9 6.5-14.9 4.4-9.7 9-19.3 13.8-28.7 4.1-8.1 8.1-17.2 14.5-23.9 3.5-3.6 7.8-6.1 12.9-6.4 5.5-0.2 10.8 1.2 16.2-0.6 2.4-0.6 1.4-4.4-1-3.6z"/>
			<path class="st1" d="m150 330.9c25.7-0.8 51.4-1 77.2-0.5 2.5 0.1 2.5-3.8 0-3.9-25.7-0.5-51.4-0.4-77.2 0.5-2.5 0.1-2.5 4 0 3.9z"/>
			<path class="st1" d="m171.2 210c-3.3 9.1-2.4 19.2-2.4 28.7v32.5c0 2.5 3.9 2.5 3.9 0v-31.2c0-9.5-1-19.8 2.3-29 0.8-2.4-2.9-3.4-3.8-1z"/>
			<path class="st1" d="m184.6 209.1c28 30.9 59.4 58.4 93.6 82.2 2.1 1.4 4-1.9 2-3.4-33.9-23.6-65.1-51-92.8-81.6-1.7-1.8-4.5 1-2.8 2.8z"/>
			<path class="st1" d="m177.3 205.3c0.7-4.8 1.4-9.8 3.5-14.2 2.4-5 6.6-8 11.6-10.1 5.2-2.2 10.7-3.9 16-5.9 5.3-1.9 10.8-4.6 16.3-5.8 5.1-1.1 10.8 4.7 14.7 7.5 4.2 3 8.4 6 12.5 9.1 8.4 6.3 16.6 12.9 24.2 20.1 8.6 8.2 16.5 17.1 22.9 27.1 1.4 2.1 4.7 0.1 3.4-2-12.4-19.1-29.5-34.3-47.6-47.9-4.7-3.5-9.5-7-14.3-10.4-4-2.8-8.6-7.4-13.7-7.6-2.5-0.1-4.9 0.9-7.3 1.7-3.4 1.2-6.9 2.5-10.3 3.7-5.9 2.2-12 4.2-17.8 6.5-5.3 2.1-10 5.1-13 10.1-3 5.1-4 11.1-4.9 16.9-0.3 2.6 3.4 3.7 3.8 1.2z"/>
			<path class="st1" d="m225.8 162.4c-1.5-2 6-3.7 6.8-3.9 2.9-0.8 5.9-1.6 8.8-2.4 5.9-1.6 11.7-3.2 17.6-4.8s11.7-3.2 17.6-4.8c2.9-0.8 5.9-1.6 8.8-2.4 3.5-1 6.2-2.1 9.1 0.8 3.9 3.9 7.3 8.2 11.1 12.2s7.7 7.9 11.8 11.7c8 7.6 16.4 14.9 25.1 21.7 1.9 1.5 4.7-1.2 2.7-2.7-16.2-12.7-31.2-26.8-44.9-42.2-2.7-3-5.2-6.8-9.8-6.6-4.9 0.2-10.2 2.5-14.9 3.8l-33.3 9c-3.6 1-25.9 4.5-19.8 12.5 1.4 2 4.8 0.1 3.3-1.9z"/>
			<path class="st1" d="m295 142.4c20.4-7.9 41.3-14.4 62.5-19.5-0.8-0.5-1.6-0.9-2.4-1.4 3.2 9.6 8.8 16.6 16.2 23.2 4.4 4 3.1 11.2 3.2 16.6 0.1 6.1 0.2 12.1 0.3 18.2 0.4 24.7 0.8 49.4 1.1 74.1 0 2.5 3.9 2.5 3.9 0-0.4-25.1-0.8-50.3-1.2-75.4-0.1-6.1-0.2-12.1-0.3-18.2-0.1-4.8 0.9-11.2-1.9-15.4-2.5-3.8-6.9-6.3-9.8-9.8-3.5-4.2-6.1-9.1-7.8-14.3-0.3-1-1.3-1.6-2.4-1.4-21.2 5.1-42.1 11.6-62.5 19.5-2.2 0.9-1.2 4.7 1.1 3.8z"/>
			<path class="st1" d="m359.1 122c13.2-0.3 26.8-0.9 39.9 0.5 4.8 0.5 9.9 1.6 13.9 4.2 5.4 3.6 5.7 9.1 6 15.1 1.3 28.6 2.1 57.3 2.4 86s0.2 57.3-0.3 86c-0.5 26.4-1.8 52.8-1.3 79.2 0.5 24.4 1.6 48.8 0.9 73.2-0.1 2.5 3.8 2.5 3.9 0 0.6-22.7-0.2-45.3-0.8-68-0.6-26.6 0.5-53.2 1.1-79.9 1.3-59.3 0.6-118.6-2-177.8-0.3-5.7-0.9-11.1-5.3-15.2-3.7-3.4-8.7-5.1-13.6-6.1-6.5-1.2-13.1-1.2-19.6-1.3-8.4-0.1-16.7-0.1-25.1 0-2.6 0.3-2.7 4.2-0.1 4.1z"/>
			<path class="st1" d="m424.3 140.6c2.3-2 4.6-3.9 6.9-5.9 1.2-1 2.5-2.6 3.9-3.3s2.5-0.5 4-0.2c5.2 1.1 10.4 3.1 15.4 5 9.9 3.7 19.6 8.2 28.7 13.6l6.9 4.2c0.7 0.4 2.4 1.2 2.9 1.9 1.5 2-0.2 3.6-1.2 5-2.9 4.2-5.7 8.6-8.2 13.1-5.1 9.1-9.2 18.8-12.3 28.8-0.8 2.4 3 3.4 3.7 1 3-9.5 6.8-18.6 11.6-27.4 2.3-4.2 4.8-8.2 7.5-12.2 1.9-2.7 5.2-6.2 3-9.7-0.8-1.4-2.4-2.2-3.7-3-2.1-1.4-4.2-2.7-6.4-4-4.3-2.6-8.7-5-13.2-7.2-8.4-4.2-17.2-7.7-26.1-10.6-4-1.3-9.6-4.1-13.7-2.3-1.9 0.9-3.6 2.6-5.2 4-2.5 2.1-4.9 4.2-7.4 6.3-1.8 1.8 1 4.5 2.9 2.9z"/>
			<path class="st1" d="m493.6 162.6c9.8 5 19.6 10 29.5 15 2.3 1.2 4.6 2.3 6.9 3.5 2.8 1.4 5.6 2.2 6 5.7 0.7 5.2 1.1 10.4 1.6 15.6 0.5 5.1 1.7 10.6 0.1 15.5-1.7 5.3-4.9 10.3-7.4 15.2-4.9 9.7-9.7 19.3-14.6 29-5.6 11.2-11.3 22.4-16.9 33.6-1.1 2.2 2.2 4.2 3.4 2 10.8-21.4 21.5-42.9 32.3-64.3 2.4-4.7 5.2-9.4 6.9-14.4 1.7-5.2 0.6-10.7 0.1-16-0.6-5.7-1-11.5-1.8-17.2-0.6-4.7-3.9-6.1-7.8-8.1-12.1-6.2-24.3-12.3-36.4-18.5-2.2-1-4.1 2.3-1.9 3.4z"/>
			<path class="st1" d="m542 196.2c17.4 12.7 38 30.6 28.7 54.5-4.3 10.9-12.6 19.8-19.4 29.3-7.7 10.8-13.5 22.7-19.2 34.5-7 14.5-14 29.1-21.1 43.6-1.1 2.2 2.3 4.2 3.4 2 6.7-13.8 13.3-27.6 20-41.4 6.2-12.8 12.3-25.6 20.6-37.2 7-9.7 15.3-18.9 19.6-30.3 4-10.7 2.7-22-3.1-31.7-6.7-11.1-17.2-19.2-27.5-26.7-2-1.4-4 1.9-2 3.4z"/>
			<path class="st1" d="m567.2 264.8c7.6-0.3 15.2-0.2 22.7 0.3 6.2 0.4 13.4 0.8 18.2 5.3 4.7 4.3 5.3 11.3 5.6 17.3 0.3 7.6 0.5 15.1 0.7 22.7 0.4 15.3 0.9 30.6 1.3 45.9 0.1 3.8 0.1 7.3-2.5 10.3-2.2 2.5-5 4.7-7.5 6.9-5.4 4.8-10.6 10.2-16.5 14.2-7.3 5-15.9 3.6-24.3 3.3-8.6-0.4-17.3-0.7-25.9-1.1-2.5-0.1-2.5 3.8 0 3.9 8.6 0.4 17.3 0.7 25.9 1.1 7.5 0.3 15.6 1.6 22.7-1.7 6.7-3.2 12.2-9.1 17.6-14 2.9-2.6 5.8-5.1 8.7-7.7 2.4-2.2 4.5-4.5 5.3-7.7 0.9-3.4 0.5-7.1 0.4-10.6-0.1-4.5-0.3-9.1-0.4-13.6-0.3-8.6-0.5-17.2-0.8-25.9-0.2-8.5-0.4-16.9-0.7-25.4-0.2-6.3-0.9-13.1-4.8-18.3-4.1-5.5-10.9-7.3-17.4-8.1-9.3-1.1-18.9-1.2-28.3-0.8-2.4-0.1-2.5 3.8 0 3.7z"/>
			<path class="st1" d="m564.4 380.1c-4.9-4.5-9.7-8.9-14.6-13.4-0.6-0.6-1.2-1.1-1.8-1.7-0.5-0.7-0.4-1.3 0.3-1.9 0.4-1.2 1.2-2.4 1.8-3.4 1.6-3.1 3.2-6.1 4.8-9.2 6.2-11.8 12.4-23.7 18.6-35.5 1.2-2.2-2.2-4.2-3.4-2-7 13.4-14 26.7-21 40.1-1.6 3.1-3.7 6.3-5 9.5-0.8 2-0.4 3.5 1.1 5.1 5.1 5.3 11 10 16.4 15 1.9 1.9 4.7-0.9 2.8-2.6z"/>
			<path class="st1" d="m572.5 349.6c3.7 2.9 7.8 5.1 12.4 6.5 2.4 0.7 3.4-3 1-3.7-3.9-1.2-7.5-3-10.7-5.5-1.9-1.6-4.6 1.2-2.7 2.7z"/>
			<path class="st1" d="m454.1 274.4c-0.2 23.1-0.5 46.2-0.7 69.3-0.1 11.4-0.2 22.9-0.3 34.3-0.1 10.5-0.9 21.3 0.3 31.8 0.9 8.3 3.6 16.5 10.1 22.2 6 5.3 13.8 7.7 21.6 8.8 9.1 1.3 18.4 0.9 27.6 0.9 11.3 0 22.6-0.1 34-0.1 5.1 0 10.8 0.8 14.8-3 3.7-3.6 6.7-8.5 9.3-12.9 5.7-9.5 10-19.8 12.7-30.5 0.6-2.4-3.1-3.5-3.7-1-2.3 9.2-5.7 18-10.3 26.2-2.2 3.9-4.6 7.6-7.2 11.2-1.5 2.1-3.2 4.9-5.8 5.8-2.5 0.9-5.8 0.4-8.5 0.4-10.5 0-20.9 0.1-31.4 0.1-9.1 0-18.3 0.4-27.4-0.4-7.5-0.7-15.4-2.4-21.6-7-7.5-5.6-10-14.7-10.5-23.6-0.6-9.5-0.1-19.1 0-28.6l0.3-32.4c0.2-23.7 0.5-47.5 0.7-71.2-0.1-2.8-4-2.8-4-0.3z"/>
			<path class="st1" d="m142.2 348.6c9.2 6.7 17.9 14 26.1 21.9 3.7 3.6 7.1 7.7 11.1 11 3.8 3.2 8.1 4.5 13 4.7 11.9 0.5 24 0.1 35.9 0.1h37 42.2c2.5 0 2.5-3.9 0-3.9h-72.1-35.7c-5.9 0-12.3 0.6-17.2-3.3-3.9-3.1-7.1-7.1-10.6-10.6-8.7-8.4-18-16.2-27.7-23.3-2.1-1.5-4 1.9-2 3.4z"/>
			<path class="st1" d="m227.7 391.9c0.9 5.1 1.4 10.2 1.5 15.3 0 1.9-0.6 4.9 0 6.6 0.6 1.5 2.5 2.4 3.8 3.2 6.5 4.2 14.1 6.3 21.8 7.3 8.4 1.1 17 0.8 25.5 0.4 10.2-0.5 20.4-1.1 30.6-1.6l61.8-3.3c3.2-0.2 6.8 0 9.4-2 2.9-2.2 3.6-5.9 4-9.2 1.4-10.3 2.5-20.6 3.5-30.9 0.5-4.9 1.6-10.4 0.9-15.3-0.7-4.8-4.2-7.7-7.7-10.5-8.9-7.1-17.8-14.3-26.7-21.4-1.9-1.6-4.7 1.2-2.7 2.7l19.8 15.9c3.2 2.5 6.4 5 9.5 7.6 3.6 3.1 4.4 6.1 4 10.7-0.7 8.6-1.6 17.2-2.5 25.8-0.4 3.9-0.9 7.7-1.4 11.6s-0.3 9.8-5.1 10.9c-3.6 0.8-7.7 0.5-11.3 0.7-4.5 0.2-9 0.5-13.5 0.7-8.4 0.4-16.7 0.9-25.1 1.3-16.8 0.9-33.6 1.9-50.5 2.7-15.5 0.7-32.2 0.5-45.1-9.4 0.3 0.6 0.6 1.1 1 1.7 0.3-7.5-0.3-15-1.5-22.4-0.7-2.6-4.5-1.5-4 0.9z"/>
			<path class="st1" d="m511.8 242.1c-8.9-2.7-17.6-5.8-26.2-9.3-2.9-1.2-5.6-2.3-8.5-0.5s-4.1 5.1-5.1 8.2c-0.4 1.2 1.5 1.7 1.9 0.5 1.3-4 3.5-8.9 8.6-7.3 3.1 1 6.2 2.5 9.2 3.7 6.4 2.5 12.9 4.6 19.5 6.6 1.3 0.4 1.8-1.5 0.6-1.9z"/>
			<path class="st1" d="m496.4 225.7c5.2-11.9 10.1-24 14.6-36.2 0.2-0.5-0.2-1.1-0.7-1.2-3-0.9-6-1.7-9.1-2.5-1.9-0.5-4.5-1.6-6.5-0.9-1.9 0.7-3.1 3.1-4.2 4.6-1.6 2.3-2.8 4.8-3.9 7.4-0.5 1.2 1.4 1.7 1.9 0.5 0.9-2.1 1.9-4.1 3.1-6 1.7-2.8 3.3-4.8 6.8-4.4 3.8 0.5 7.7 1.9 11.3 3-0.2-0.4-0.5-0.8-0.7-1.2-4.5 12.1-9.3 24-14.4 35.8-0.3 1.2 1.3 2.2 1.8 1.1z"/>
			<path class="st1" d="m505.6 222.7c5 1.9 10.2 3.4 15.4 4.7 1.2 0.3 1.7-1.6 0.5-1.9-5.2-1.3-10.3-2.9-15.4-4.7-1.2-0.4-1.7 1.4-0.5 1.9z"/>
			<path class="st1" d="m513.2 207.6c4 3.3 8.5 5.7 13.5 7.2 1.2 0.4 1.7-1.5 0.5-1.9-4.7-1.4-8.9-3.6-12.6-6.7-0.9-0.8-2.3 0.6-1.4 1.4z"/>
			<path class="st1" d="m390.2 241.8c3.4 0.2 10.2 1.1 12.9-1.6 1.2-1.2 1.3-2.8 1.4-4.4 0.2-2.8 0.1-5.5 0.2-8.3 0.2-11.7-0.2-23.4-0.9-35.1-0.1-1.2-2-1.3-1.9 0 0.6 9.3 0.9 18.7 0.9 28.1 0 4.7 0 9.4-0.2 14-0.1 1.6 0.1 2.7-1 3.9s-2.1 1.2-3.6 1.3c-2.6 0.2-5.2 0.2-7.8 0.1-1.2 0-1.2 1.9 0 2z"/>
			<path class="st1" d="m402.4 182.8c-0.3-15.2-1-30.4-1.9-45.5 0-0.5-0.4-1-1-1h-13.1c-1.3 0-1.3 1.9 0 1.9h13.1l-1-1c0.9 15.2 1.6 30.3 1.9 45.5 0.1 1.3 2 1.3 2 0.1z"/>
			<path class="st1" d="m385.9 171.3h7.2c1.3 0 1.3-1.9 0-1.9h-7.2c-1.3 0-1.3 1.9 0 1.9z"/>
			<path class="st1" d="m387.3 215.4h7.2c1.3 0 1.3-1.9 0-1.9h-7.2c-1.2 0-1.2 1.9 0 1.9z"/>
			<path class="st1" d="m387.8 207.9c1.9-0.2 3.8-0.4 5.7-0.6 1.2-0.1 1.2-2.1 0-1.9-1.9 0.2-3.8 0.4-5.7 0.6-1.2 0-1.2 2 0 1.9z"/>
			<path class="st1" d="m385.9 179c1.9-0.2 3.8-0.4 5.7-0.6 1.2-0.1 1.2-2.1 0-1.9-1.9 0.2-3.8 0.4-5.7 0.6-1.2 0.1-1.2 2.1 0 1.9z"/>
			<path class="st1" d="m317.3 229.3c5.7-4.3 11.1-9 16-14.2 1.4-1.5 3.7-3.3 3.3-5.6-0.4-2.4-3.5-4.6-5.1-6.3-10.3-10.6-21.6-20.2-33.7-28.7-1-0.7-2 1-1 1.7 10.1 7 19.5 14.8 28.3 23.4 2.1 2.1 4.2 4.1 6.2 6.3 1.7 1.8 3.8 3 2.2 6.1-0.5 1.1-2 2.1-2.8 3-4.5 4.6-9.3 8.8-14.4 12.6-0.9 0.7 0 2.4 1 1.7z"/>
			<path class="st1" d="m311.2 211c-18.1-12.1-27.6-33.2-46.1-44.9v1.7c4.6-2.6 9.2-5 13.9-7.3 1.1-0.5 0.1-2.2-1-1.7-4.7 2.3-9.4 4.7-13.9 7.3-0.7 0.4-0.6 1.3 0 1.7 18.5 11.7 28 32.8 46.1 44.9 1.1 0.6 2.1-1 1-1.7z"/>
			<path class="st1" d="m407.4 345.1c0.6-14.9 0.5-29.7-0.3-44.6l-0.3-5.1c-0.1-1 0.2-2.5-0.3-3.5-0.7-1.4-1.9-1.3-3.4-1.4-7.5-0.3-15 0-22.5 0.5-1.2 0.1-1.3 2 0 1.9 6.3-0.4 12.5-0.6 18.8-0.6 0.8 0 4.4-0.4 5 0.1 0.9 0.9 0.6 4.2 0.7 5.4 0.2 3 0.3 5.9 0.4 8.9 0.5 12.7 0.5 25.5 0 38.2-0.1 1.5 1.9 1.5 1.9 0.2z"/>
			<path class="st1" d="m369.4 316.5c4 3.8 8 7.5 12 11.1 2 1.8 4.1 3.6 6.2 5.4 1 0.9 2.1 1.9 3.5 2.1 3.4 0.5 3.8-3 4-5.4 0.4-5.6 0.4-11.2 0.3-16.8 0-1.2-2-1.3-1.9 0 0.1 3.7 0.2 7.3 0 11-0.1 1.7 0.2 4.1-0.3 5.8 0 0.4-0.1 0.9-0.1 1.3-1.2 0.4-2.4 0.7-3.6 1.1-0.7-0.1-1.9-1.6-2.4-2.1-5.6-4.8-11-9.8-16.3-14.9-0.9-0.8-2.3 0.6-1.4 1.4z"/>
			<path class="st1" d="m345.6 398c0.4-8.1 0.6-16.3 0.5-24.4 0-1.9-0.2-3.8-0.1-5.7 0.2-2.5 1.1-4.2 2.5-6.2 2.5-3.5 5-6.9 7.5-10.4 0.7-1-1-2-1.7-1-2.6 3.6-5.3 7.3-7.9 10.9-2.4 3.3-2.4 5.8-2.3 9.8 0.1 9-0.1 18-0.5 27 0 1.3 1.9 1.3 2 0z"/>
			<path class="st1" d="m354.6 392.2h10.8c1.9 0 4.5 0.5 5.7-1.4 1.2-2 0.6-5.7 0.6-7.9 0.1-4 0.2-7.9 0.2-11.9 0-1.3-1.9-1.3-1.9 0-0.1 2.7-0.1 5.4-0.2 8.1 0 2.5 0.4 5.7-0.2 8.1-0.4 2-1 2.6-3.1 3-1.1 0.2-2.5 0-3.6 0h-8.4c-1.1 0.1-1.1 2 0.1 2z"/>
			<path class="st1" d="m354.6 381.9h8.1c1.3 0 1.3-1.9 0-1.9h-8.1c-1.2-0.1-1.2 1.9 0 1.9z"/>
			<path class="st1" d="m354.1 376.1h5.8c1.3 0 1.3-1.9 0-1.9h-5.8c-1.3-0.1-1.3 1.9 0 1.9z"/>
			<path class="st1" d="m298.4 411.3c1.8-3.5 2.6-7.1 2.3-11 0-0.5-0.4-1-1-1-13.8 0.5-27.6 1.2-41.4 2.1-1.2 0.1-1.3 2 0 1.9 13.8-0.9 27.6-1.6 41.4-2.1l-1-1c0.2 3.6-0.4 6.8-2.1 10-0.5 1.3 1.2 2.3 1.8 1.1z"/>
			<path class="st1" d="m329.6 352.3c-8-4.3-16-8.5-24-12.8-3.8-2-7.6-4.1-11.4-6.1-3.3-1.7-6.9-4.5-10.5-5.3-5.8-1.3-10 7.3-12.7 11-5.4 7.3-10.8 14.7-16.2 22-0.7 1 0.9 2 1.7 1 4.5-6.1 9-12.2 13.5-18.3 2.3-3.1 4.6-6.3 6.9-9.4 1.1-1.5 2.6-3.7 4.6-4.3 2.2-0.6 4.8 1.3 6.6 2.3 13.5 7.2 27.1 14.4 40.6 21.6 1 0.6 2-1.1 0.9-1.7z"/>
			<path class="st1" d="m281.4 371.3c0.4-4.8 0.2-10.2 1.2-15 1-4.4 3.8-3.5 7.1-3.5h7.4c1.3 0 1.3-1.9 0-1.9h-10.5c-1.7 0-4-0.3-5.1 1.2-1.4 1.8-0.9 5.5-1.1 7.5l-0.9 11.7c-0.2 1.2 1.8 1.2 1.9 0z"/>
			<path class="st1" d="m292.6 363.6c0 2.7 0.1 5.4 0.1 8.1 0 0.5 0.4 1 1 1 5.8-0.3 11.6-0.5 17.3-0.8 1.2-0.1 1.3-2 0-1.9-5.8 0.3-11.6 0.5-17.3 0.8l1 1c0-2.7-0.1-5.4-0.1-8.1-0.1-1.3-2-1.3-2-0.1z"/>
			<path class="st1" d="m226.1 366.8c-2.8-3.9-5.8-7.6-9-11.2-2.4-2.7-5.2-7.1-9.1-7.5-4.9-0.6-10.4 0.2-15.4 0.4-5.5 0.2-11 0.3-16.6 0.5-1.2 0-1.3 2 0 1.9 9.3-0.3 18.7-0.6 28-0.9 2.8-0.1 4.6-0.2 6.8 1.8 1.7 1.6 3.3 3.4 4.8 5.1 3.1 3.4 5.9 7 8.7 10.8 0.9 1.1 2.5 0.1 1.8-0.9z"/>
			<path class="st1" d="m187.3 366h19.5c1.3 0 1.3-1.9 0-1.9h-19.5c-1.3 0-1.3 1.9 0 1.9z"/>
			<path class="st1" d="m153.2 311.2c9.3-0.5 18.6-0.9 27.9-1.4 2.3-0.1 4.7-0.2 7-0.3 1.4-0.1 3.4 0.2 4.8-0.4 2.3-1 1.7-3.8 1.7-5.9-0.3-19-0.6-38-1-57 0-1.2-2-1.3-1.9 0 0.3 16.6 0.6 33.2 0.8 49.9 0 1.9 0.1 3.9 0.1 5.8 0 1 0.3 2.3 0.1 3.2-0.4 1.7-1.1 2-2.7 2.3-3.8 0.8-8.2 0.4-12.1 0.6-8.3 0.4-16.5 0.8-24.8 1.2-1.2 0.1-1.2 2 0.1 2z"/>
			<path class="st1" d="m207.1 270.3c3.8 3 7.5 5.9 11.3 8.9 3.5 2.8 7.8 5.4 10.9 8.7 2.1 2.2 1.7 5.2 1.8 8 0 2.2 0.8 6.3-1.6 7.1-1.9 0.6-5.1 0-7.1 0h-7.8c-1.3 0-1.3 1.9 0 1.9h10.4c2 0 5 0.6 6.8-0.2 1.5-0.7 1.3-2.2 1.4-3.7 0-3.1 0.1-6.3-0.1-9.3-0.4-5-4.9-7.4-8.5-10.2-5.3-4.2-10.6-8.3-15.9-12.5-1.2-0.9-2.6 0.5-1.6 1.3z"/>
			<path class="st1" d="m204.8 286.7c3.1 2.3 6.1 4.5 9.2 6.8 1 0.7 2-0.9 1-1.7-3.1-2.3-6.1-4.5-9.2-6.8-1.1-0.7-2 1-1 1.7z"/>
			<path class="st1" d="m248.4 287.2c-0.1 4.5-0.3 9-0.4 13.4-0.1 2.1-0.1 4.3-0.2 6.4 0 1.2-0.4 2.9 0.5 3.9 1.4 1.7 5.4 0.9 7.2 0.9 4.6 0 9.2 0 13.7 0.1 1.3 0 1.3-1.9 0-1.9-3.3 0-6.7 0-10-0.1h-5c-1.9 0-4 0.6-4.5-1.6-0.3-1.5 0.1-3.6 0.2-5.1 0.1-1.7 0.1-3.4 0.2-5.1 0.1-3.6 0.2-7.2 0.3-10.9 0-1.3-1.9-1.3-2 0z"/>
			<path class="st1" d="m219 270.6c2.9-1.4 5.6-3.4 7.8-5.7 0.9-0.9-0.5-2.3-1.4-1.4-2.2 2.2-4.6 4-7.4 5.4-1.1 0.6-0.1 2.3 1 1.7z"/>
			<path class="st1" d="m228.1 275.5l6.3-4.2c1-0.7 0.1-2.4-1-1.7l-6.3 4.2c-1.1 0.7-0.1 2.4 1 1.7z"/>
			<path class="st1" d="m154.4 257.1c-6.6 12.2-12.8 24.6-18.6 37.3-0.5 1.1-1.6 2.7-0.8 3.9 0.9 1.4 4 1.2 5.5 1.3 7 0.7 14.1 0.6 21-0.4 1.2-0.2 1.2-2.1 0-1.9-5.7 0.8-11.5 1-17.3 0.7-1.2-0.1-2.5-0.2-3.7-0.3-1.7-0.2-3.8 0.5-3.2-1.7 0.8-2.7 2.5-5.4 3.6-7.9 4.8-10.1 9.8-20.1 15.2-29.9 0.6-1.2-1.1-2.2-1.7-1.1z"/>
			<path class="st1" d="m304.2 319.9c5.4-5.1 9.7-11.1 13.6-17.3 3.2-5 7.5-10.1 2.3-15.1-12.6-12.1-25.7-23.6-38.6-35.3-0.9-0.8-2.3 0.5-1.4 1.4 11 10.1 22 20.1 33 30.2 2.4 2.2 7.3 5.3 7.7 8.7 0.4 2.8-3.6 7.5-5 9.7-3.7 5.9-7.8 11.6-13 16.4-0.9 0.8 0.4 2.2 1.4 1.3z"/>
			<path class="st1" d="m228.4 191.4c7.3 7.2 15.6 13.1 22.9 20.3 7.4 7.3 14.9 14.6 23.8 20.2 1.1 0.7 2-1 1-1.7-9.1-5.7-16.6-13.2-24.2-20.6-7-6.9-15.1-12.6-22.1-19.5-0.9-1-2.3 0.4-1.4 1.3z"/>
			<path class="st1" d="m228.4 190c-5.4 4.7-10.9 9.5-16.3 14.2-0.9 0.8 0.4 2.2 1.4 1.4 5.4-4.7 10.9-9.5 16.3-14.2 0.9-0.9-0.5-2.2-1.4-1.4z"/>
			<path class="st1" d="m223.7 210.2c4.6 6.9 10 13.3 16.2 18.8 3 2.7 6.2 5.1 9.5 7.4 2.7 1.8 5 2.7 8 0.9 1.8-1 4.4-2.7 2.9-4.9-1.1-1.7-3.1-3.2-4.6-4.6l-5.3-5.3c-6.4-6.5-12.7-13.5-20.6-18.3-1.1-0.6-2.1 1-1 1.7 6.2 3.7 11.1 8.9 16.2 14l8 8c1.3 1.3 2.7 2.6 4 4 0.4 0.5 1.6 1.4 1.6 2.2-0.1 0.7-2.3 1.8-2.9 2-3.6 1-7.5-2.8-10.2-4.9-2.5-2-5-4.1-7.3-6.3-4.8-4.7-9.1-9.9-12.7-15.5-0.8-1.2-2.5-0.2-1.8 0.8z"/>
			<path class="st1" d="m225.3 210.8c1.8-1.2 3.7-2.4 5.5-3.6 1-0.7 0.1-2.4-1-1.7-1.8 1.2-3.7 2.4-5.5 3.6-1.1 0.7-0.1 2.4 1 1.7z"/>
			<path class="st1" d="m232.8 236.2c7.8 9.6 16.8 18.2 26.1 26.4 4.6 4 9.2 8 13.8 11.9 1.3 1.1 3.2 3.5 5.1 3.6 2.2 0.1 4.8-2.3 6.6-3.4 1.1-0.6 0.1-2.3-1-1.7-1.2 0.7-2.6 1.9-3.9 2.3-2.3 0.8-3.9-0.9-5.5-2.3-1.9-1.6-3.8-3.2-5.7-4.9-4.1-3.5-8.2-7.1-12.2-10.7-7.8-7.1-15.3-14.6-22-22.8-0.8-0.7-2.1 0.6-1.3 1.6z"/>
			<path class="st1" d="m318.7 249.7c10.2-10 20.3-20.1 30.2-30.4-0.6-0.2-1.1-0.5-1.7-0.7-0.2 9.4-0.3 18.9-0.5 28.3 0 1.3 1.9 1.3 1.9 0 0.2-9.4 0.3-18.9 0.5-28.3 0-0.8-1.1-1.3-1.7-0.7-9.9 10.3-20 20.5-30.2 30.4-0.8 0.9 0.6 2.3 1.5 1.4z"/>
			<path class="st1" d="m331.3 249.9c-2.7 2.3-5.5 4.5-8.2 6.8-0.3 0.2-0.4 0.9-0.2 1.2 11.7 15.3 26.6 27.7 43.8 36.5 1.1 0.6 2.1-1.1 1-1.7-16.8-8.6-31.6-20.8-43.1-35.8-0.1 0.4-0.1 0.8-0.2 1.2 2.7-2.3 5.5-4.5 8.2-6.8 1.1-0.9-0.3-2.2-1.3-1.4z"/>
			<path class="st1" d="m332.7 306.1c3.4-3 8.4-7.5 9.7-12.1 1.3-4.5-4.5-7.9-7.3-10.3-9.1-7.8-18.5-15.6-25.3-25.7-0.7-1-2.4-0.1-1.7 1 5.4 8.1 12.4 14.8 19.7 21.1 3.5 3.1 8 5.9 11 9.5 4.3 5.1-4 11.9-7.6 15.1-0.8 0.9 0.6 2.2 1.5 1.4z"/>
			<path class="st1" d="m355.5 238.1c3.4 0.1 6.7-0.2 10-0.9 1.2-0.2 0.7-2.1-0.5-1.9-3.1 0.6-6.3 0.9-9.4 0.8-1.4 0.1-1.4 2-0.1 2z"/>
			<path class="st1" d="m354.8 229c3.4 0.3 6.7 0.1 10-0.7 0.4-0.1 0.7-0.5 0.7-0.9v-11.8c0-1.3-1.9-1.3-1.9 0v11.8c0.2-0.3 0.5-0.6 0.7-0.9-3.1 0.7-6.2 0.9-9.4 0.6-1.4-0.2-1.3 1.8-0.1 1.9z"/>
			<path class="st1" d="m324.4 150c6.2 7.2 12.3 14.4 18.7 21.5 1.9 2.1 3.2 2.1 5.7 0.8 4.3-2.3 8.6-4.7 12.9-7 1.1-0.6 0.1-2.3-1-1.7-3.4 1.8-6.7 3.7-10.1 5.5-2.1 1.1-3.9 2.7-6.2 1-1.4-1-2.6-3-3.7-4.3-5-5.7-10-11.5-14.9-17.2-0.9-0.9-2.2 0.5-1.4 1.4z"/>
			<path class="st1" d="m355.4 153c-1.7-4.1-3.2-9.6-6.7-12.5-3.1-2.6-7.2-2.2-10.8-1-2.1 0.7-7.2 1.9-6.3 5.1 0.4 1.5 2.1 2.3 3.3 3.1 2.6 1.9 4.3 4.5 5.1 7.6 0.3 1.2 2.2 0.7 1.9-0.5-0.7-2.6-1.9-5-3.8-7-0.9-0.9-1.9-1.6-2.9-2.4-2.9-2.1 0.8-3.3 2.8-4 4.1-1.5 8.5-1.7 11.2 2.3 2.1 3 3.3 6.9 4.7 10.2 0.3 1.2 2 0.3 1.5-0.9z"/>
			<path class="st1" d="m464.2 191.6c-0.1-10.8-0.2-21.5-0.3-32.3 0-3.2-0.3-4.2-3.5-4.2h-16.3c-1.3 0-1.3 1.9 0 1.9h13.1c1 0 2.1-0.1 3.1 0 1.9 0.2 1.1-0.2 1.6 1 0.7 1.8 0.1 5 0.1 7 0.1 8.9 0.2 17.7 0.3 26.6 0 1.3 1.9 1.3 1.9 0z"/>
			<path class="st1" d="m441.8 166.8c0.3 9 0.5 18 0.8 27.1 0 0.5 0.4 1 1 1 2.2 0 4.5 0 6.7 0.1 1.3 0 1.3-1.9 0-1.9-2.2 0-4.5 0-6.7-0.1l1 1c-0.3-9-0.5-18-0.8-27.1 0-1.4-2-1.4-2-0.1z"/>
			<path class="st1" d="m449.4 174.1c-0.2 3.1-0.1 6.2 0.5 9.3 0.2 1.2 2.1 0.7 1.9-0.5-0.5-2.9-0.7-5.8-0.4-8.8 0-1.2-1.9-1.2-2 0z"/>
			<path class="st1" d="m434.3 210.8c-0.1 4.9-0.2 9.7-0.3 14.6-0.1 4.7-0.8 9.9-0.3 14.6 0.3 2.5 1.7 2.5 4 2.5 4.9 0 9.9-0.3 14.8-0.4 1.2 0 1.3-2 0-1.9l-11.1 0.3c-1.3 0-4.9 0.7-5.7-0.5-0.6-0.8 0.1-4.8 0.1-5.7 0.1-7.8 0.3-15.7 0.4-23.5 0.1-1.2-1.9-1.2-1.9 0z"/>
			<path class="st1" d="m485.7 254.4c0.8 9 1.1 18 1 27.1 0 0.8 1.1 1.3 1.7 0.7 5.5-6.4 9.7-13.6 12.6-21.5 0.4-1.2-1.4-1.7-1.9-0.5-2.8 7.6-6.9 14.5-12.1 20.7 0.6 0.2 1.1 0.5 1.7 0.7 0.1-9-0.2-18.1-1-27.1-0.2-1.4-2.1-1.4-2-0.1z"/>
			<path class="st1" d="m546.4 238.2c2.1 1.2 4.2 2.4 6.3 3.7 0.3 0.2 3 1.5 3.1 1.8 0.2 0.7-1.1 2-1.4 2.4-2.9 4-5.7 8-8.5 12.1-5.5 8.2-10.6 16.6-15.3 25.2 0.4-0.1 0.9-0.2 1.3-0.3-1.3-0.6-2.8-1.1-4-1.8-1.1-0.6-1.1-0.3-0.9-1.5 0.1-0.7 0.9-1.7 1.3-2.2 1.8-3.2 3.6-6.3 5.4-9.5 3.6-6.3 7.2-12.7 10.7-19 0.6-1.1-1.1-2.1-1.7-1-4.5 8-9 16-13.6 24-1.1 1.9-2.1 3.7-3.2 5.6-0.5 0.9-1.5 2.1-1.3 3.3 0.4 2.1 4.8 3.1 6.4 3.8 0.5 0.2 1.1 0.2 1.3-0.3 5.7-10.2 11.8-20.2 18.5-29.8 1.6-2.4 3.3-4.7 5-7 0.8-1 2.6-2.6 2.3-4.1-0.2-1.3-1.8-1.9-2.8-2.4-2.6-1.5-5.2-3.1-7.8-4.6-1.2-0.7-2.2 1-1.1 1.6z"/>
			<path class="st1" d="m516.5 292.9c1.1 0.6 4.1 1.5 4.8 2.4 1.2 1.8-1.4 5.4-2.2 7-1.9 3.9-3.9 7.8-5.9 11.7-3.9 7.6-7.9 15.1-12 22.6-0.6 1.1 1.1 2.1 1.7 1 5.1-9.3 10.1-18.7 14.9-28.2 1.2-2.4 2.4-4.8 3.6-7.3 0.8-1.7 2.3-3.6 2.6-5.5 0.6-3.1-4.4-4.4-6.5-5.5-1.2-0.5-2.1 1.2-1 1.8z"/>
			<path class="st1" d="m547.1 236.4c2.2-2.8 4.5-5.7 6.7-8.5 0.8-1-0.6-2.4-1.4-1.4-2.2 2.8-4.5 5.7-6.7 8.5-0.8 1 0.6 2.4 1.4 1.4z"/>
			<path class="st1" d="m538.7 348.9c-5-0.7 0.8-8.7 1.8-10.6 1.5-2.7 2.9-5.3 4.4-8 3.2-5.7 6.3-11.4 9.5-17.1 5.6-10.1 10.5-22.1 19.3-29.8 0.9-0.8-0.4-2.2-1.4-1.4-5 4.3-8.3 9.9-11.5 15.6-4 7.1-7.9 14.3-11.9 21.4-3.9 7-7.8 14-11.7 21.1-1.6 3-5 9.8 0.9 10.7 1.3 0.2 1.8-1.7 0.6-1.9z"/>
			<path class="st1" d="m469.1 317.6c0.4 32.2 0.9 64.5 1.3 96.7 0 0.6 0.4 0.9 1 1 23 2.4 46.2 2.9 69.3 1.4 1.2-0.1 1.3-2 0-1.9-23.1 1.5-46.3 1-69.3-1.4l1 1c-0.4-32.2-0.9-64.5-1.3-96.7-0.1-1.4-2-1.4-2-0.1z"/>
			<path class="st1" d="m513.6 408.5c0.4-3.4 0.4-6.8 0.2-10.2 0-0.5-0.4-1-1-1-7.9-0.2-15.8 0-23.7 0.7-1.2 0.1-1.2 2 0 1.9 7.9-0.6 15.8-0.9 23.7-0.7l-1-1c0.2 3.4 0.1 6.8-0.2 10.2 0 1.3 1.9 1.3 2 0.1z"/>
			<path class="st1" d="m482.4 381.7c4.1-15.1-2.3-30.5 0.3-45.8 0.2-1.2-1.7-1.7-1.9-0.5-2.6 15.2 3.8 30.7-0.3 45.8-0.3 1.1 1.6 1.7 1.9 0.5z"/>
			<path class="st2" d="m454.8 469.3c0-1-0.2-2-0.9-2.6-0.6-0.5-1.5-0.5-2.3-0.4-19.6 1-39.2 2.3-58.8 3.8-1.6 0.1-2.8 1.5-2.8 3.1 0.3 17.3 0.8 34.5 1.5 51.8 0 1.1 0.2 2.4 1.1 3.1 0.7 0.6 1.8 0.6 2.7 0.5 6.7-0.2 13.5-0.5 20.2-0.9 2.8 3.4 5.6 6.5 8.3 9.8 0.9 1.1 2.6 1 3.4-0.2 2.3-3.4 4.3-6.9 6.1-10.7 6.2-0.4 12.4-1 18.5-1.5 2.3-0.2 4.1-2.1 4.1-4.4 0.1-17.1-0.3-34.2-1.1-51.4z"/>
				<path class="st3" d="m456.2 469.3c-0.4-5.6-5.4-4.4-9.7-4.1-7.3 0.4-14.5 0.8-21.8 1.3-7 0.5-14.1 0.9-21.1 1.4-3.6 0.3-7.3 0.3-10.9 0.8-1.6 0.3-2.9 0.9-3.7 2.4-1.1 2.2-0.4 5.5-0.4 7.8 0.1 3.7 0.1 7.3 0.2 11 0.2 7.3 0.4 14.7 0.6 22 0.1 3.5 0.3 6.9 0.4 10.4 0.1 2.1-0.2 5.1 1.6 6.7 1.6 1.4 4.3 0.9 6.2 0.9 3.8-0.1 7.6-0.3 11.4-0.5 1.6-0.1 4.1-0.7 5.6 0 1.4 0.6 2.6 2.6 3.6 3.8 1.6 1.9 3.6 5.5 6.1 6.3 2.1 0.6 3.5-0.7 4.6-2.4 2.1-3.1 3.9-6.4 5.5-9.8-0.4 0.2-0.8 0.5-1.2 0.7 3.5-0.3 7-0.5 10.5-0.8 2.9-0.2 6.4-0.1 9.2-0.9 5.5-1.6 4.3-8.3 4.3-12.7 0-14.7-0.3-29.5-1-44.3-0.1-1.8-2.8-1.8-2.7 0 0.6 12.2 0.9 24.4 1 36.6v9c0 3.4 1 7.8-3.1 8.9-2.8 0.7-6 0.6-8.9 0.8-3.1 0.3-6.2 0.5-9.3 0.7-0.5 0-1 0.2-1.2 0.7-1 2-2 4-3.1 6-0.5 0.9-1.1 2-1.7 2.9-0.6 0.8-0.5 1-1.5 1.4-1.4 0.5-1.4-0.2-2.4-1.4-1.5-1.8-3-3.5-4.5-5.3-1.3-1.5-1.9-3-3.9-3.1-5.2-0.3-10.6 0.5-15.8 0.7-1.6 0.1-3.4 0.4-4.9-0.3-1.3-0.7-1.2-0.5-1.3-1.8-0.1-0.6-0.1-1.3-0.1-1.9l-0.3-8.4c-0.4-11-0.7-22-0.9-33 0-2.2-0.8-5.7-0.1-7.8 1-3.2 6.2-2.7 9.1-2.9 5.5-0.4 11.1-0.8 16.6-1.2 6-0.4 11.9-0.8 17.9-1.1l9.6-0.6c2.1-0.1 8.7-1.5 8.9 1.3 0 1.6 2.7 1.6 2.6-0.2z"/>
			<path class="st2" d="m599.7 351.9c0-0.2 0-0.5-0.2-0.6-0.1-0.1-0.4-0.1-0.5-0.1l-14.1 0.9c-0.4 0-0.7 0.4-0.7 0.7 0.1 4.1-0.1 5.2 0.1 9.4 0 0.3 0 0.6 0.3 0.8 0.2 0.1 0.4 0.1 0.6 0.1 1.6-0.1 3.2-0.1 4.8-0.2 0.7 0.8 1.3 1.6 2 2.3 0.2 0.3 0.6 0.2 0.8 0 0.5-0.8 1-1.6 1.5-2.6 1.5-0.1 3-0.2 4.4-0.4 0.6-0.1 1-0.5 1-1.1 0-4 0.2-5.1 0-9.2z"/>
				<path class="st3" d="m600.7 351.7c-0.1-0.2-0.1-0.4-0.2-0.6-0.1-0.3-0.3-0.6-0.7-0.7-3.2-0.6-7 0.2-10.2 0.4-1.7 0.1-5.1-0.4-6.1 1.3-0.9 1.6-0.2 5.5-0.2 7.3 0 1.7-0.5 3.9 1.4 4.6 1.5 0.6 3.3-0.5 4.8 0.2 1.1 0.4 1.5 1.9 2.6 2.2 1.9 0.3 2.2-2.4 3.9-2.8 1.9-0.5 4.2 0.3 4.7-2.1 0.6-2.9 0.1-6.5 0-9.4-0.1-1.3-2-1.3-2 0 0.1 1.9 0.1 3.9 0.1 5.8 0 1.4 0.3 2.8-1.2 3.6-0.9 0.5-2.4-0.2-3.3 0.3-0.7 0.4-1.4 2.1-1.8 2.2-0.9 0.2-1.2-1.3-1.8-1.7-0.6-0.3-0.6-0.2-1.3-0.3-1-0.1-2.7 0.6-3.6 0.2-0.7 0.3-0.9 0-0.6-1v-1.8c0-1.4-0.2-3.1 0-4.5 0.4-2.7 3.2-2 5.5-2.2 0.8-0.1 7.9-0.8 8-0.5 0.5 1.2 2.4 0.7 2-0.5z"/>
			<path class="st2" d="m559.8 220.6c0-0.2 0-0.3-0.2-0.4-0.1-0.1-0.3-0.1-0.4-0.1-3.4 0.2-6.7 0.4-10.1 0.7-0.3 0-0.5 0.3-0.5 0.5 0 3 0 3.7 0.1 6.7 0 0.2 0 0.4 0.2 0.5 0.1 0.1 0.3 0.1 0.5 0.1 1.2 0 2.3-0.1 3.5-0.2 0.5 0.6 0.9 1.1 1.4 1.7 0.2 0.2 0.4 0.2 0.6 0 0.4-0.6 0.7-1.2 1-1.8 1.1-0.1 2.1-0.2 3.2-0.3 0.4 0 0.7-0.4 0.7-0.8 0-2.9 0.1-3.7 0-6.6z"/>
				<path class="st3" d="m560.7 220.4c-0.1-0.1-0.1-0.3-0.2-0.4-0.1-0.3-0.3-0.6-0.7-0.7-1.8-0.3-3.9 0.1-5.7 0.2-1.6 0.1-3.8-0.1-5.3 0.4-2 0.7-1.2 4.5-1.2 6.1 0 0.9-0.2 2.3 0.4 3.1 1 1.2 2.7 0.1 3.9 0.5 1 0.3 1.4 1.8 2.6 1.8s1.7-1.6 2.2-2.5c-0.3 0.2-0.6 0.3-0.8 0.5 1.6-0.1 4.3 0.3 4.8-1.7s0.1-4.8 0-6.9c-0.1-1.3-2-1.3-2 0 0.1 1.3 0.7 5.7-0.5 6.5-0.7 0.5-2-0.2-2.8 0.3-0.8 0.4-0.7 1.6-1.4 2h1c-0.8-0.3-1-1.4-1.7-1.8-0.6-0.3-1.6-0.2-2.2 0-0.6-0.1-1 0-1.4 0.4v-1.4-2.2c0-0.5-0.2-2 0-2.3 0.5-0.7 2.1-0.5 2.8-0.5 2.1-0.1 4.8-0.8 6.8-0.4l-0.7-0.7c0.1 0.1 0.1 0.3 0.2 0.4 0.5 1 2.4 0.5 1.9-0.7z"/>
			<path class="st2" d="m589.5 297.7c0-0.3 0-0.6-0.3-0.8-0.2-0.1-0.5-0.1-0.7-0.1-6 0.3-12 0.7-18.1 1.2-0.5 0-0.9 0.5-0.9 0.9 0.1 5.3 0.2 10.6 0.5 15.9 0 0.4 0.1 0.7 0.3 1 0.2 0.2 0.5 0.2 0.8 0.2 2.1-0.1 4.1-0.2 6.2-0.3 0.9 1 1.7 2 2.6 3 0.3 0.3 0.8 0.3 1-0.1 0.7-1.1 1.3-2.1 1.9-3.3 1.9-0.1 3.8-0.3 5.7-0.5 0.7-0.1 1.2-0.7 1.3-1.4 0-5.2-0.1-10.5-0.3-15.7z"/>
				<path class="st3" d="m590.4 297.7c-0.4-3.2-4.9-1.8-7.1-1.6-2.6 0.2-5.2 0.3-7.7 0.5-1.7 0.1-4.2-0.2-5.6 0.5-0.9 0.4-1.1 0.8-1.3 1.8-0.5 2.3 0.1 5.6 0.2 7.9 0.1 2.5-0.2 5.5 0.3 7.9 0.1 0.7 0.2 1.4 0.8 1.8 1.2 0.9 3.6 0.1 5 0.2 1.5 0 2 0.1 3.1 1.1 0.5 0.5 0.9 1.3 1.5 1.6 0.8 0.4 1.4 0.5 2.1-0.1 1.7-1.3 1-2.8 3.6-3.3 2.4-0.5 5 0.3 5.6-2.6 0.5-2.2 0-5 0-7.3-0.2-2.8-0.3-5.6-0.5-8.4-0.1-1.3-2-1.3-2 0 0.1 3.2 0.3 6.5 0.3 9.7 0 1.3 0.5 3.6 0 4.9-0.9 2.3-2.9 1.8-4.8 2-2.5 0.2-1.3 0.6-2.9 2.3-1.2 1.3-1.2 0.4-2.4-0.8-0.8-0.8-0.5-0.8-1.3-1.1-1.2-0.5-3.6 0.3-5 0.2-1.3 0.4-1.8-0.1-1.5-1.3 0-0.8-0.1-1.6-0.1-2.4-0.1-2.9-0.2-5.7-0.2-8.6v-2.4c0.5-1.1 1.3-1.6 2.4-1.4 1.6-0.4 3.5-0.3 5.2-0.4 0.9-0.1 10.3-0.7 10.3-0.7 0.2 1.2 2.2 1.2 2 0z"/>
			<path class="st2" d="m540.1 382.3c0-0.3 0-0.6-0.3-0.8-0.2-0.1-0.4-0.1-0.7-0.1-5.8 0.3-8.4 0.5-14.3 0.9-0.5 0-0.8 0.4-0.8 0.9 0.1 5.1-0.1 6.5 0.1 11.7 0 0.3 0.1 0.7 0.3 0.9s0.5 0.2 0.8 0.2c2-0.1 2 0 4-0.1 0.8 1 1.7 1.9 2.5 2.9 0.3 0.3 0.8 0.3 1-0.1 0.7-1 1.3-2.1 1.8-3.2 1.8-0.1 2.4-0.3 4.3-0.5 0.7-0.1 1.2-0.6 1.2-1.3 0.1-5 0.3-6.3 0.1-11.4z"/>
				<path class="st3" d="m541 382.3c-0.4-2.7-3.2-1.8-5.3-1.7-1.9 0.1-3.7 0.2-5.6 0.4-1.6 0.1-4-0.1-5.6 0.4-2.6 0.9-1.5 4.8-1.5 6.9 0 2-0.9 7 0.8 8.4 0.9 0.7 2.4 0.2 3.4 0.4 1.1 0.1 1.6 0.3 2.5 1.1 0.6 0.6 0.9 1.4 1.7 1.7 2.4 0.9 2.8-2.6 4.4-3.4 2-0.9 4.5 0.4 5.1-2.5 0.8-3.6 0.3-8.1 0.1-11.7-0.1-1.3-2-1.3-2 0 0.1 2.5 0.1 4.9 0.1 7.4 0 0.8 0.2 2.2-0.1 2.9-0.6 2.1-2 1.7-3.6 1.9-2.4 0.3-1 0.6-2.7 2.2-0.2 0.9-0.6 1-1.3 0.4-0.6-0.6-1.1-1.3-1.7-1.9-0.5-0.2-0.6-0.2-1.2-0.3-0.8-0.1-1.7 0.3-2.5 0-1.1 0.3-1.5-0.2-1.2-1.3 0-0.7 0-1.4-0.1-2.1 0-2-0.3-4.2 0-6.1 0.3-2.3 1.1-2.3 3.2-2.5 1-0.1 1.9-0.1 2.9-0.2 0.7-0.1 8-0.5 8-0.6 0.4 1.4 2.4 1.5 2.2 0.2z"/>
			<path class="st2" d="m333.3 302.6c0-0.2 0-0.4-0.2-0.5-0.1-0.1-0.3-0.1-0.5-0.1-4 0.2-5.7 0.3-9.6 0.6-0.3 0-0.6 0.3-0.6 0.6 0.1 3.5-0.1 4.4 0.1 7.9 0 0.2 0 0.5 0.2 0.6 0.1 0.1 0.4 0.1 0.5 0.1h2.7c0.6 0.7 1.1 1.3 1.7 2 0.2 0.2 0.5 0.2 0.7 0 0.5-0.7 0.9-1.4 1.2-2.2 1.2-0.1 1.7-0.2 2.9-0.3 0.5 0 0.8-0.4 0.8-0.9 0.2-3.4 0.3-4.3 0.1-7.8z"/>
				<path class="st3" d="m334.3 302.6c-0.1-1-0.5-1.4-1.5-1.6-1.9-0.3-4.3 0.2-6.3 0.4-1.3 0.1-3.6-0.3-4.6 0.7-0.9 1-0.4 3.3-0.4 4.5 0 1.5-0.3 3.5 0.1 5 0.4 1.2 1.2 1.2 2.3 1.2 1 0 1.4-0.1 2.2 0.7 0.5 0.5 0.8 1.3 1.6 1.4 1.5 0.2 2.2-1.8 2.7-2.8-0.3 0.2-0.6 0.3-0.8 0.5 1.7-0.1 4.2 0.1 4.7-1.9 0.5-2.4 0.1-5.6 0-8.1-0.1-1.3-2-1.3-2 0 0.1 1.2 0.1 2.4 0.1 3.6 0 1.1 0.3 3-0.4 3.8-0.8 0.9-1.9 0.2-2.8 0.7s-0.8 1.9-1.7 2.4h1c-0.9-0.4-1.2-1.8-2.1-2.2-0.5-0.2-1.2-0.1-1.7-0.1 0 0-1.2 0.2-1.1 0.2-0.1-0.1 0-1.3-0.1-1.6v-2.7c0-0.8-0.2-1.7 0-2.5 0.3-1.3 1.6-1 2.7-1.1 0.7-0.1 6.2-0.2 6.2-0.8 0.1 1.6 2.1 1.6 1.9 0.3z"/>
			<path class="st2" d="m306.2 347.9c0-0.2 0-0.4-0.2-0.5-0.1-0.1-0.3-0.1-0.5-0.1-4 0.2-5.7 0.3-9.6 0.6-0.3 0-0.6 0.3-0.6 0.6 0.1 3.5-0.1 4.4 0.1 7.9 0 0.2 0 0.5 0.2 0.6 0.1 0.1 0.4 0.1 0.5 0.1h2.7c0.6 0.7 1.1 1.3 1.7 2 0.2 0.2 0.5 0.2 0.7 0 0.5-0.7 0.9-1.4 1.2-2.2 1.2-0.1 1.7-0.2 2.9-0.3 0.5 0 0.8-0.4 0.8-0.9 0.1-3.5 0.2-4.4 0.1-7.8z"/>
				<path class="st3" d="m307.2 347.9c-0.1-1-0.5-1.4-1.5-1.6-1.9-0.3-4.3 0.2-6.3 0.4-1.3 0.1-3.6-0.3-4.6 0.7-0.9 1-0.4 3.3-0.4 4.5 0 1.5-0.3 3.5 0.1 5 0.4 1.2 1.2 1.2 2.3 1.2 1 0 1.4-0.1 2.2 0.7 0.5 0.5 0.8 1.3 1.6 1.4 1.5 0.2 2.2-1.8 2.7-2.8-0.3 0.2-0.6 0.3-0.8 0.5 1.7-0.1 4.2 0.1 4.7-1.9 0.5-2.4 0.1-5.7 0-8.1-0.1-1.3-2-1.3-2 0 0.1 1.2 0.1 2.4 0.1 3.6 0 1.1 0.3 3-0.4 3.8-0.8 0.9-1.9 0.2-2.8 0.7s-0.8 1.9-1.7 2.4h1c-0.9-0.4-1.2-1.8-2.1-2.2-0.5-0.2-1.2-0.1-1.7-0.1 0 0-1.2 0.2-1.1 0.2-0.1-0.1 0-1.3-0.1-1.6v-2.7c0-0.8-0.2-1.7 0-2.5 0.3-1.3 1.6-1 2.7-1.1 0.7-0.1 6.2-0.2 6.2-0.8 0.1 1.5 2 1.5 1.9 0.3z"/>
			<path class="st2" d="m260.9 397.9c0-0.2 0-0.4-0.2-0.5-0.1-0.1-0.3-0.1-0.5-0.1-4 0.2-5.7 0.3-9.6 0.6-0.3 0-0.6 0.3-0.6 0.6 0.1 3.5-0.1 4.4 0.1 7.9 0 0.2 0 0.5 0.2 0.6 0.1 0.1 0.4 0.1 0.5 0.1h2.7c0.6 0.7 1.1 1.3 1.7 2 0.2 0.2 0.5 0.2 0.7 0 0.5-0.7 0.9-1.4 1.2-2.2 1.2-0.1 1.7-0.2 2.9-0.3 0.5 0 0.8-0.4 0.8-0.9 0.1-3.4 0.3-4.3 0.1-7.8z"/>
				<path class="st3" d="m261.9 397.9c-0.1-1-0.5-1.4-1.5-1.6-1.9-0.3-4.3 0.2-6.3 0.4-1.3 0.1-3.6-0.3-4.6 0.7-0.9 1-0.4 3.3-0.4 4.5 0 1.5-0.3 3.5 0.1 5 0.4 1.2 1.2 1.2 2.3 1.2 1 0 1.4-0.1 2.2 0.7 0.5 0.5 0.8 1.3 1.6 1.4 1.5 0.2 2.2-1.8 2.7-2.8-0.3 0.2-0.6 0.3-0.8 0.5 1.7-0.1 4.2 0.1 4.7-1.9 0.5-2.4 0.1-5.6 0-8.1-0.1-1.3-2-1.3-2 0 0.1 1.2 0.1 2.4 0.1 3.6 0 1.1 0.3 3-0.4 3.8-0.8 0.9-1.9 0.2-2.8 0.7s-0.8 1.9-1.7 2.4h1c-0.9-0.4-1.2-1.8-2.1-2.2-0.5-0.2-1.2-0.1-1.7-0.1 0 0-1.2 0.2-1.1 0.2-0.1-0.1 0-1.3-0.1-1.6v-2.7c0-0.8-0.2-1.7 0-2.5 0.3-1.3 1.6-1 2.7-1.1 0.7-0.1 6.2-0.2 6.2-0.8 0.1 1.6 2 1.6 1.9 0.3z"/>
			<path class="st2" d="m232.5 366.3c0-0.2 0-0.4-0.2-0.5-0.1-0.1-0.3-0.1-0.5-0.1-4 0.2-5.7 0.3-9.6 0.6-0.3 0-0.6 0.3-0.6 0.6 0.1 3.5-0.1 4.4 0.1 7.9 0 0.2 0 0.5 0.2 0.6 0.1 0.1 0.4 0.1 0.5 0.1h2.7c0.6 0.7 1.1 1.3 1.7 2 0.2 0.2 0.5 0.2 0.7 0 0.5-0.7 0.9-1.4 1.2-2.2 1.2-0.1 1.7-0.2 2.9-0.3 0.5 0 0.8-0.4 0.8-0.9 0.1-3.4 0.2-4.3 0.1-7.8z"/>
				<path class="st3" d="m233.5 366.3c-0.1-1-0.5-1.4-1.5-1.6-1.9-0.3-4.3 0.2-6.3 0.4-1.3 0.1-3.6-0.3-4.6 0.7-0.9 1-0.4 3.3-0.4 4.5 0 1.5-0.3 3.5 0.1 5 0.4 1.2 1.2 1.2 2.3 1.2 1 0 1.4-0.1 2.2 0.7 0.5 0.5 0.8 1.3 1.6 1.4 1.5 0.2 2.2-1.8 2.7-2.8-0.3 0.2-0.6 0.3-0.8 0.5 1.7-0.1 4.2 0.1 4.7-1.9 0.5-2.4 0.1-5.7 0-8.1-0.1-1.3-2-1.3-2 0 0.1 1.2 0.1 2.4 0.1 3.6 0 1.1 0.3 3-0.4 3.8-0.8 0.9-1.9 0.2-2.8 0.7s-0.8 1.9-1.7 2.4h1c-0.9-0.4-1.2-1.8-2.1-2.2-0.5-0.2-1.2-0.1-1.7-0.1 0 0-1.2 0.2-1.1 0.2-0.1-0.1 0-1.3-0.1-1.6v-2.7c0-0.8-0.2-1.7 0-2.5 0.3-1.3 1.6-1 2.7-1.1 0.7-0.1 6.2-0.2 6.2-0.8 0.1 1.6 2 1.6 1.9 0.3z"/>
			<path class="st2" d="m254.2 279.3c0-0.2 0-0.4-0.2-0.5-0.1-0.1-0.3-0.1-0.5-0.1-4 0.2-5.7 0.3-9.6 0.6-0.3 0-0.6 0.3-0.6 0.6 0.1 3.5-0.1 4.4 0.1 7.9 0 0.2 0 0.5 0.2 0.6 0.1 0.1 0.4 0.1 0.5 0.1h2.7c0.6 0.7 1.1 1.3 1.7 2 0.2 0.2 0.5 0.2 0.7 0 0.5-0.7 0.9-1.4 1.2-2.2 1.2-0.1 1.7-0.2 2.9-0.3 0.5 0 0.8-0.4 0.8-0.9 0.1-3.5 0.2-4.4 0.1-7.8z"/>
				<path class="st3" d="m255.1 279.3c-0.1-1-0.5-1.4-1.5-1.6-1.9-0.3-4.3 0.2-6.3 0.4-1.3 0.1-3.6-0.3-4.6 0.7-0.9 1-0.4 3.3-0.4 4.5 0 1.5-0.3 3.5 0.1 5 0.4 1.2 1.2 1.2 2.3 1.2 1 0 1.4-0.1 2.2 0.7 0.5 0.5 0.8 1.3 1.6 1.4 1.5 0.2 2.2-1.8 2.7-2.8-0.3 0.2-0.6 0.3-0.8 0.5 1.7-0.1 4.2 0.1 4.7-1.9 0.6-2.4 0.1-5.7 0-8.1-0.1-1.3-2-1.3-2 0 0.1 1.2 0.1 2.4 0.1 3.6 0 1.1 0.3 3-0.4 3.8-0.8 0.9-1.9 0.2-2.8 0.7s-0.8 1.9-1.7 2.4h1c-0.9-0.4-1.2-1.8-2.1-2.2-0.5-0.2-1.2-0.1-1.7-0.1 0 0-1.2 0.2-1.1 0.2-0.1-0.1 0-1.3-0.1-1.6v-2.7c0-0.8-0.2-1.7 0-2.5 0.3-1.3 1.6-1 2.7-1.1 0.7-0.1 6.2-0.2 6.2-0.8 0.1 1.5 2.1 1.5 1.9 0.3z"/>
			<path class="st2" d="m196.8 238c0-0.2 0-0.4-0.2-0.5-0.1-0.1-0.3-0.1-0.5-0.1-4 0.2-5.7 0.3-9.6 0.6-0.3 0-0.6 0.3-0.6 0.6 0.1 3.5-0.1 4.4 0.1 7.9 0 0.2 0 0.5 0.2 0.6 0.1 0.1 0.4 0.1 0.5 0.1h2.7c0.6 0.7 1.1 1.3 1.7 2 0.2 0.2 0.5 0.2 0.7 0 0.5-0.7 0.9-1.4 1.2-2.2 1.2-0.1 1.7-0.2 2.9-0.3 0.5 0 0.8-0.4 0.8-0.9 0.2-3.4 0.3-4.3 0.1-7.8z"/>
				<path class="st3" d="m197.8 238c-0.1-1-0.5-1.4-1.5-1.6-1.9-0.3-4.3 0.2-6.3 0.4-1.3 0.1-3.6-0.3-4.6 0.7-0.9 1-0.4 3.3-0.4 4.5 0 1.5-0.3 3.5 0.1 5 0.4 1.2 1.2 1.2 2.3 1.2 1 0 1.4-0.1 2.2 0.7 0.5 0.5 0.8 1.3 1.6 1.4 1.5 0.2 2.2-1.8 2.7-2.8-0.3 0.2-0.6 0.3-0.8 0.5 1.7-0.1 4.2 0.1 4.7-1.9 0.5-2.4 0.1-5.6 0-8.1-0.1-1.3-2-1.3-2 0 0.1 1.2 0.1 2.4 0.1 3.6 0 1.1 0.3 3-0.4 3.8-0.8 0.9-1.9 0.2-2.8 0.7s-0.8 1.9-1.7 2.4h1c-0.9-0.4-1.2-1.8-2.1-2.2-0.5-0.2-1.2-0.1-1.7-0.1 0 0-1.2 0.2-1.1 0.2-0.1-0.1 0-1.3-0.1-1.6v-2.7c0-0.8-0.2-1.7 0-2.5 0.3-1.3 1.6-1 2.7-1.1 0.7-0.1 6.2-0.2 6.2-0.8 0.1 1.6 2.1 1.6 1.9 0.3z"/>
			<path class="st2" d="m552.8 410.2c0-0.2 0-0.5-0.2-0.6-0.1-0.1-0.4-0.1-0.5-0.1l-14.1 0.9c-0.4 0-0.7 0.4-0.7 0.7 0.1 4.1-0.1 5.2 0.1 9.4 0 0.3 0 0.6 0.3 0.8 0.2 0.1 0.4 0.1 0.6 0.1 1.6-0.1 3.2-0.1 4.8-0.2 0.7 0.8 1.3 1.6 2 2.3 0.2 0.3 0.6 0.2 0.8 0 0.5-0.8 1-1.6 1.5-2.6 1.5-0.1 3-0.2 4.4-0.4 0.5-0.1 1-0.5 1-1.1 0-4.1 0.1-5.2 0-9.2z"/>
				<path class="st3" d="m553.7 409.9c-0.1-0.2-0.1-0.4-0.2-0.6-0.1-0.3-0.3-0.6-0.7-0.7-3.2-0.6-7 0.2-10.2 0.4-1.7 0.1-5.1-0.4-6.1 1.3-0.9 1.6-0.2 5.5-0.2 7.3 0 1.7-0.5 3.9 1.4 4.6 1.5 0.6 3.3-0.5 4.8 0.2 1.1 0.4 1.5 1.9 2.6 2.2 1.9 0.3 2.2-2.4 3.9-2.8 1.9-0.5 4.2 0.3 4.7-2.1 0.6-2.9 0.1-6.5 0-9.4-0.1-1.3-2-1.3-2 0 0.1 1.9 0.1 3.9 0.1 5.8 0 1.4 0.3 2.8-1.2 3.6-0.9 0.5-2.4-0.2-3.3 0.3-0.7 0.4-1.4 2.1-1.8 2.2-0.9 0.2-1.2-1.3-1.8-1.7-0.6-0.3-0.6-0.2-1.3-0.3-1-0.1-2.7 0.6-3.6 0.2-0.7 0.3-0.9 0-0.6-1v-1.8c0-1.4-0.2-3.1 0-4.5 0.4-2.7 3.2-2 5.5-2.2 0.8-0.1 7.9-0.8 8-0.5 0.5 1.2 2.4 0.7 2-0.5z"/>
			<path class="st2" d="m492.1 392.9c0-0.2 0-0.4-0.2-0.5-0.1-0.1-0.3-0.1-0.5-0.1-4 0.2-8 0.5-12 0.8-0.3 0-0.6 0.3-0.6 0.6 0.1 3.5 0.2 7 0.3 10.6 0 0.2 0 0.5 0.2 0.6 0.1 0.1 0.4 0.1 0.5 0.1 1.4 0 2.7-0.1 4.1-0.2 0.6 0.7 1.1 1.3 1.7 2 0.2 0.2 0.5 0.2 0.7 0 0.5-0.7 0.9-1.4 1.2-2.2 1.3-0.1 2.5-0.2 3.8-0.3 0.5 0 0.8-0.4 0.8-0.9 0.2-3.5 0.1-7 0-10.5z"/>
				<path class="st3" d="m493 392.7c-0.1-0.2-0.1-0.4-0.2-0.5-0.1-0.3-0.3-0.6-0.7-0.7-2.9-0.5-6.5 0.2-9.4 0.4-1.6 0.1-4.2-0.3-4.8 1.6-0.3 1.2 0 2.7 0 4 0 1.8 0.1 3.5 0.2 5.3 0.1 1.7-0.1 2.9 1.7 3.3 1.3 0.3 2.9-0.6 4.1 0.2 0.7 0.5 0.9 1.6 1.9 1.7 0.5 0.1 0.9-0.1 1.3-0.4 1.4-1.1 0.6-1.7 2.4-2 1.7-0.3 3.3 0 3.7-2 0.6-3.2-0.1-7.2-0.2-10.5-0.1-1.3-2-1.3-2 0 0.1 2.1 0.2 4.2 0.2 6.3 0 0.8 0.3 2.3 0 3.1-0.5 1.4-1.5 1.1-2.7 1.2-1.8 0.2-1 0.3-2.2 1.3-1 1-0.1 0.6-1.1-0.1-0.6-0.4-0.5-0.7-1.1-0.9s-2.1 0-2.7 0.1c-1.5 0.2-1.3 0.3-1.4-1.3-0.1-2.1-0.1-4.2-0.2-6.3-0.1-3 1.9-2.5 4.4-2.6 0.5 0 6.8-0.6 6.8-0.5 0.5 1 2.4 0.4 2-0.7z"/>
			<path class="st2" d="m582.9 272.1c0-0.2 0-0.4-0.2-0.5-0.1-0.1-0.3-0.1-0.5-0.1-4 0.2-8 0.5-12 0.8-0.3 0-0.6 0.3-0.6 0.6 0.1 3.5 0.2 7 0.3 10.6 0 0.2 0 0.5 0.2 0.6 0.1 0.1 0.4 0.1 0.5 0.1 1.4 0 2.7-0.1 4.1-0.2 0.6 0.7 1.1 1.3 1.7 2 0.2 0.2 0.5 0.2 0.7 0 0.5-0.7 0.9-1.4 1.2-2.2 1.3-0.1 2.5-0.2 3.8-0.3 0.5 0 0.8-0.4 0.8-0.9 0.3-3.6 0.2-7.1 0-10.5z"/>
				<path class="st3" d="m583.9 271.8c-0.1-0.2-0.1-0.4-0.2-0.5-0.1-0.3-0.3-0.6-0.7-0.7-2.9-0.5-6.5 0.2-9.4 0.4-1.6 0.1-4.2-0.3-4.8 1.6-0.3 1.2 0 2.7 0 4 0 1.8 0.1 3.5 0.2 5.3 0.1 1.7-0.1 2.9 1.7 3.3 1.3 0.3 2.9-0.6 4.1 0.2 0.7 0.5 0.9 1.6 1.9 1.7 0.5 0.1 0.9-0.1 1.3-0.4 1.4-1.1 0.6-1.7 2.4-2 1.7-0.3 3.3 0 3.7-2 0.6-3.2-0.1-7.2-0.2-10.5-0.1-1.3-2-1.3-2 0 0.1 2.1 0.2 4.2 0.2 6.3 0 0.8 0.3 2.3 0 3.1-0.5 1.4-1.5 1.1-2.7 1.2-1.8 0.2-1 0.3-2.2 1.3-1 1-0.1 0.6-1.1-0.1-0.6-0.4-0.5-0.7-1.1-0.9s-2.1 0-2.7 0.1c-1.5 0.2-1.3 0.3-1.4-1.3-0.1-2.1-0.1-4.2-0.2-6.3-0.1-3 1.9-2.5 4.4-2.6 0.5 0 6.8-0.6 6.8-0.5 0.5 1 2.4 0.5 2-0.7z"/>
			<path class="st2" d="m377.5 360c0-0.2 0-0.4-0.2-0.5-0.1-0.1-0.3-0.1-0.5-0.1-4 0.2-8 0.5-12 0.8-0.3 0-0.6 0.3-0.6 0.6 0.1 3.5 0.2 7 0.3 10.6 0 0.2 0 0.5 0.2 0.6 0.1 0.1 0.4 0.1 0.5 0.1 1.4 0 2.7-0.1 4.1-0.2 0.6 0.7 1.1 1.3 1.7 2 0.2 0.2 0.5 0.2 0.7 0 0.5-0.7 0.9-1.4 1.2-2.2 1.3-0.1 2.5-0.2 3.8-0.3 0.5 0 0.8-0.4 0.8-0.9 0.3-3.5 0.2-7 0-10.5z"/>
				<path class="st3" d="m378.5 359.8c-0.1-0.2-0.1-0.4-0.2-0.5-0.1-0.3-0.3-0.6-0.7-0.7-2.9-0.5-6.5 0.2-9.4 0.4-1.6 0.1-4.2-0.3-4.8 1.6-0.3 1.2 0 2.7 0 4 0 1.8 0.1 3.5 0.2 5.3 0.1 1.7-0.1 2.9 1.7 3.3 1.3 0.3 2.9-0.6 4.1 0.2 0.7 0.5 0.9 1.6 1.9 1.7 0.5 0.1 0.9-0.1 1.3-0.4 1.4-1.1 0.6-1.7 2.4-2 1.7-0.3 3.3 0 3.7-2 0.6-3.2-0.1-7.2-0.2-10.5-0.1-1.3-2-1.3-2 0 0.1 2.1 0.2 4.2 0.2 6.3 0 0.8 0.3 2.3 0 3.1-0.5 1.4-1.5 1.1-2.7 1.2-1.8 0.2-1 0.3-2.2 1.3-1 1-0.1 0.6-1.1-0.1-0.6-0.4-0.5-0.7-1.1-0.9s-2.1 0-2.7 0.1c-1.5 0.2-1.3 0.3-1.4-1.3-0.1-2.1-0.1-4.2-0.2-6.3-0.1-3 1.9-2.5 4.4-2.6 0.5 0 6.8-0.6 6.8-0.5 0.5 1 2.4 0.5 2-0.7z"/>
			<path class="st2" d="m507.5 296.3c0-0.3-0.1-0.7-0.3-0.9s-0.5-0.2-0.8-0.1c-6.8 0.4-13.6 0.8-20.3 1.3-0.6 0-1 0.5-1 1.1 0.1 6 0.3 11.9 0.5 17.9 0 0.4 0.1 0.8 0.4 1.1 0.3 0.2 0.6 0.2 0.9 0.2 2.3-0.1 4.7-0.2 7-0.3 1 1.2 1.9 2.2 2.9 3.4 0.3 0.4 0.9 0.3 1.2-0.1 0.8-1.2 1.5-2.4 2.1-3.7 2.1-0.2 4.3-0.3 6.4-0.5 0.8-0.1 1.4-0.7 1.4-1.5 0-6-0.1-11.9-0.4-17.9z"/>
				<path class="st3" d="m508.5 296.3c-0.4-3.4-5.4-1.8-7.8-1.7-2.8 0.2-5.5 0.3-8.3 0.5-1.9 0.1-5.1-0.2-6.8 0.6-1 0.4-1.2 0.9-1.5 1.9-0.6 2.6 0.1 6.3 0.2 9 0.1 2.6 0.1 5.1 0.3 7.7 0.1 1.1-0.1 2.5 0.9 3.2 1.1 0.8 3.1 0.3 4.3 0.2 1.4-0.1 2.9-0.5 4.1 0.4 0.9 0.6 1.3 1.9 2.2 2.5 2.8 2 3.4-2.7 5.2-3.6 2.7-1.3 6.7 1.1 7.5-2.9 0.5-2.7 0-6.1-0.1-8.9 0-2.9-0.1-5.9-0.2-8.9-0.1-1.3-2-1.3-2 0 0.2 3.6 0.3 7.2 0.3 10.8 0 1.5 0.4 3.6 0 5.1-0.7 2.9-3.1 2.7-5.6 2.9-0.7 0.1-1.4-0.1-2 0.4-0.9 0.7-0.8 2.9-2.1 3-1.2 0-1.7-2.1-2.7-2.7-0.8-0.4-2-0.1-2.9-0.1s-4 0.7-4.7 0.2c-0.8-0.6-0.4-3.2-0.5-4.1-0.1-3.6-0.2-7.3-0.3-10.9 0-1.3-0.4-2.6 1.2-3.4 0.6-0.3 1.9-0.1 2.5-0.2 1.7-0.1 3.4-0.2 5.1-0.4 0.9-0.1 11.5-0.9 11.6-0.6 0.3 1.3 2.2 1.3 2.1 0z"/>
			<path class="st2" d="m361.3 312.1c0-0.4-0.1-0.8-0.4-1.1-0.3-0.2-0.6-0.2-0.9-0.2-8.1 0.4-16.1 1-24.2 1.6-0.7 0.1-1.2 0.6-1.2 1.3 0.1 7.1 0.3 14.2 0.6 21.3 0 0.5 0.1 1 0.4 1.3 0.3 0.2 0.7 0.2 1.1 0.2 2.8-0.1 5.5-0.2 8.3-0.4 1.1 1.4 2.3 2.7 3.4 4 0.4 0.4 1.1 0.4 1.4-0.1 0.9-1.4 1.8-2.8 2.5-4.4 2.5-0.2 5.1-0.4 7.6-0.6 0.9-0.1 1.7-0.9 1.7-1.8 0.2-7 0-14-0.3-21.1z"/>
				<path class="st3" d="m362.3 312.1c-0.1-1.1-0.4-1.8-1.5-2.2-0.9-0.3-2.4 0-3.3 0.1l-5.1 0.3c-3 0.2-5.9 0.4-8.9 0.6-1.7 0.1-3.4 0.2-5.1 0.4-1 0.1-2.4-0.1-3.4 0.4-0.9 0.5-1.1 1-1.3 2-0.6 3 0.1 6.9 0.2 10 0.1 2.9 0.2 5.8 0.3 8.8 0.1 1.4-0.3 3.7 1 4.6 1.5 1.1 4.7 0.2 6.3 0.2 1.2-0.1 2.4-0.3 3.6 0.4 1.1 0.7 1.6 2.4 2.7 3.2 1 0.7 1.8 0.8 2.8-0.1 0.5-0.4 0.9-1.3 1.2-1.9 1-1.7 1.1-2 3.1-2.4 3.9-0.8 7.7 0.5 7.7-4.5 0.2-6.6 0-13.2-0.3-19.9-0.1-1.3-2-1.3-2 0 0.2 4.1 0.3 8.3 0.4 12.4 0 2.1 0.5 4.8 0 6.8-0.8 3.2-3.7 3-6.4 3.2-0.9 0.1-1.9-0.1-2.7 0.5-1 0.9-1 3.6-2.6 3.6-1.5 0-2.2-2.7-3.5-3.4-1-0.5-3 0-4.1 0-1.3 0.1-4.4 0.8-5.3-0.3-0.7-0.9-0.2-5.1-0.2-6.3-0.1-4-0.9-8.6-0.3-12.5 0.3-2 0.6-2.5 2.7-3 0.8-0.2 1.7-0.1 2.5-0.2 2.3-0.2 4.7-0.3 7-0.5 1.1-0.1 12.3-1.1 12.4-0.4 0.3 1.4 2.2 1.4 2.1 0.1z"/>
			<path class="st2" d="m294.5 286.6c0-0.3 0-0.5-0.2-0.7-0.2-0.1-0.4-0.1-0.6-0.1-5.3 0.3-10.6 0.6-15.9 1-0.4 0-0.8 0.4-0.8 0.8 0.1 4.7 0.2 9.3 0.4 14 0 0.3 0 0.7 0.3 0.8 0.2 0.2 0.5 0.2 0.7 0.1 1.8-0.1 3.6-0.1 5.5-0.2 0.7 0.9 1.5 1.8 2.2 2.6 0.2 0.3 0.7 0.3 0.9-0.1 0.6-0.9 1.2-1.9 1.6-2.9 1.7-0.1 3.3-0.3 5-0.4 0.6-0.1 1.1-0.6 1.1-1.2 0.1-4.4 0-9-0.2-13.7z"/>
				<path class="st3" d="m295.5 286.6c-0.3-2.5-2.9-1.7-4.9-1.6-2.2 0.1-4.5 0.3-6.7 0.4-1.9 0.1-4.6-0.1-6.4 0.5-2.6 0.9-1.4 5.5-1.4 7.5 0.1 2.3 0.1 4.7 0.2 7 0 0.8-0.1 2.2 0.6 2.8 0.7 0.7 2.2 0.4 3.1 0.4 1.1 0 2.3-0.3 3.3 0.1s1.2 1.5 2.1 2c2.5 1.5 2.7-1.9 4.5-2.7 2.1-1 5 0.7 5.8-2.2 0.5-2 0-4.5 0-6.6 0-2.5-0.1-5-0.2-7.6-0.1-1.3-2-1.3-2 0 0.1 2.9 0.2 5.9 0.3 8.8 0 1 0.4 2.8 0 3.8-1.2 2.9-3.2 0.9-5.1 1.9-0.8 0.4-1.3 2.3-1.9 2.4-1.3 0.3-1.5-1.6-2.4-2-0.5-0.3-1-0.1-1.6-0.1-0.9 0-2.4 0.3-3.3 0.1-1.2 0.4-1.6 0-1.2-1.2 0-0.6 0-1.3-0.1-1.9-0.1-2.7-0.5-5.6-0.2-8.3 0.2-2.2 0.6-2.5 2.8-2.6 1.4-0.1 2.8-0.2 4.3-0.3 1-0.1 8.5-0.5 8.4-0.7 0.2 1.4 2.2 1.4 2 0.1z"/>
			<path class="st2" d="m245.6 320.8c0-0.3-0.1-0.7-0.3-0.9s-0.5-0.2-0.8-0.1c-6.6 0.4-13.2 0.8-19.8 1.3-0.5 0-1 0.5-0.9 1 0.1 5.8 0.3 11.6 0.5 17.4 0 0.4 0.1 0.8 0.4 1.1 0.2 0.2 0.6 0.2 0.9 0.2 2.3-0.1 4.5-0.2 6.8-0.3 0.9 1.1 1.9 2.2 2.8 3.3 0.3 0.4 0.9 0.3 1.1-0.1 0.8-1.2 1.5-2.3 2.1-3.6 2.1-0.2 4.2-0.3 6.2-0.5 0.8-0.1 1.4-0.7 1.4-1.5 0-5.8-0.1-11.6-0.4-17.3z"/>
				<path class="st3" d="m246.6 320.8c-0.4-3.4-5.3-1.8-7.6-1.7-2.7 0.2-5.4 0.3-8 0.5-1.9 0.1-5-0.2-6.7 0.6-0.9 0.4-1.2 0.9-1.4 1.9-0.6 2.5 0.1 6.1 0.2 8.7 0.1 2.5 0.1 5 0.3 7.5 0.1 1-0.1 2.5 0.9 3.1 1.1 0.8 3 0.3 4.2 0.2 1.3-0.1 2.8-0.4 4 0.4 0.9 0.6 1.3 1.9 2.1 2.5 2.7 1.9 3.3-2.6 5.1-3.5 2.6-1.3 6.5 1 7.3-2.9 0.5-2.6 0-6-0.1-8.6-0.1-3-0.2-5.8-0.3-8.7-0.1-1.3-2-1.3-2 0 0.2 3.5 0.3 7 0.3 10.5 0 1.5 0.4 3.5 0 4.9-0.7 2.8-3 2.6-5.4 2.8-0.7 0.1-1.3 0-1.9 0.4-1 0.6-0.8 2.9-2.1 2.9-1.2 0-1.7-2.1-2.6-2.6-0.8-0.4-2-0.1-2.9-0.1-0.8 0-3.9 0.7-4.5 0.2-0.7-0.6-0.4-3.1-0.4-4-0.1-3.5-0.2-7.1-0.3-10.6-0.1-2.8 1.1-3.3 3.6-3.4 1.6-0.1 3.3-0.2 4.9-0.3 0.9-0.1 11.2-0.9 11.2-0.6 0.3 1.1 2.3 1.1 2.1-0.1z"/>
			<path class="st2" d="m182.6 267.8c0-0.3-0.1-0.7-0.3-0.9s-0.5-0.2-0.8-0.1c-6.6 0.4-13.2 0.8-19.8 1.3-0.5 0-1 0.5-0.9 1 0.1 5.8 0.3 11.6 0.5 17.4 0 0.4 0.1 0.8 0.4 1.1 0.2 0.2 0.6 0.2 0.9 0.2 2.3-0.1 4.5-0.2 6.8-0.3 0.9 1.1 1.9 2.2 2.8 3.3 0.3 0.4 0.9 0.3 1.1-0.1 0.8-1.2 1.5-2.3 2.1-3.6 2.1-0.2 4.2-0.3 6.2-0.5 0.8-0.1 1.4-0.7 1.4-1.5 0-5.8-0.1-11.5-0.4-17.3z"/>
				<path class="st3" d="m183.6 267.8c-0.4-3.4-5.3-1.8-7.6-1.7-2.7 0.2-5.4 0.3-8 0.5-1.9 0.1-5-0.2-6.7 0.6-0.9 0.4-1.2 0.9-1.4 1.9-0.6 2.5 0.1 6.1 0.2 8.7 0.1 2.5 0.1 5 0.3 7.5 0.1 1-0.1 2.5 0.9 3.1 1.1 0.8 3 0.3 4.2 0.2 1.3-0.1 2.8-0.4 4 0.4 0.9 0.6 1.3 1.9 2.1 2.5 2.7 1.9 3.3-2.6 5.1-3.5 2.6-1.3 6.5 1 7.3-2.9 0.5-2.6 0-6-0.1-8.6l-0.3-8.7c-0.1-1.3-2-1.3-2 0 0.2 3.5 0.3 7 0.3 10.5 0 1.5 0.4 3.5 0 4.9-0.7 2.8-3 2.6-5.4 2.8-0.7 0.1-1.3 0-1.9 0.4-1 0.6-0.8 2.9-2.1 2.9-1.2 0-1.7-2.1-2.6-2.6-0.8-0.4-2-0.1-2.9-0.1-0.8 0-3.9 0.7-4.5 0.2-0.7-0.6-0.4-3.1-0.4-4-0.1-3.5-0.2-7.1-0.3-10.6-0.1-2.8 1.1-3.3 3.6-3.4 1.6-0.1 3.3-0.2 4.9-0.3 0.9-0.1 11.2-0.9 11.2-0.6 0.3 1.2 2.3 1.2 2.1-0.1z"/>
			<path class="st2" d="m551.3 182.9c0-0.3-0.1-0.7-0.3-0.9s-0.5-0.2-0.8-0.1c-6.6 0.4-13.2 0.8-19.8 1.3-0.5 0-1 0.5-0.9 1 0.1 5.8 0.3 11.6 0.5 17.4 0 0.4 0.1 0.8 0.4 1.1 0.2 0.2 0.6 0.2 0.9 0.2 2.3-0.1 4.5-0.2 6.8-0.3 0.9 1.1 1.9 2.2 2.8 3.3 0.3 0.4 0.9 0.3 1.1-0.1 0.8-1.2 1.5-2.3 2.1-3.6 2.1-0.2 4.2-0.3 6.2-0.5 0.8-0.1 1.4-0.7 1.4-1.5 0-5.8-0.1-11.5-0.4-17.3z"/>
				<path class="st3" d="m552.3 182.9c-0.4-3.4-5.3-1.8-7.6-1.7-2.7 0.2-5.4 0.3-8 0.5-1.9 0.1-5-0.2-6.7 0.6-0.9 0.4-1.2 0.9-1.4 1.9-0.6 2.5 0.1 6.1 0.2 8.7 0.1 2.5 0.1 5 0.3 7.5 0.1 1-0.1 2.5 0.9 3.1 1.1 0.8 3 0.3 4.2 0.2 1.3-0.1 2.8-0.4 4 0.4 0.9 0.6 1.3 1.9 2.1 2.5 2.7 1.9 3.3-2.6 5.1-3.5 2.6-1.3 6.5 1 7.3-2.9 0.5-2.6 0-6-0.1-8.6l-0.3-8.7c-0.1-1.3-2-1.3-2 0 0.2 3.5 0.3 7 0.3 10.5 0 1.5 0.4 3.5 0 4.9-0.7 2.8-3 2.6-5.4 2.8-0.7 0.1-1.3 0-1.9 0.4-1 0.6-0.8 2.9-2.1 2.9-1.2 0-1.7-2.1-2.6-2.6-0.8-0.4-2-0.1-2.9-0.1-0.8 0-3.9 0.7-4.5 0.2-0.7-0.6-0.4-3.1-0.4-4-0.1-3.5-0.2-7.1-0.3-10.6-0.1-2.8 1.1-3.3 3.6-3.4 1.6-0.1 3.3-0.2 4.9-0.3 0.9-0.1 11.2-0.9 11.2-0.6 0.3 1.1 2.2 1.1 2.1-0.1z"/>
			<path class="st2" d="m505.6 337.3c0-0.2 0-0.3-0.2-0.4-0.1-0.1-0.3-0.1-0.4-0.1-3.3 0.2-6.7 0.4-10 0.7-0.3 0-0.5 0.3-0.5 0.5 0 2.9 0 3.7 0.1 6.7 0 0.2 0 0.4 0.2 0.5 0.1 0.1 0.3 0.1 0.5 0.1 1.2 0 2.3-0.1 3.4-0.2 0.5 0.6 0.9 1.1 1.4 1.7 0.2 0.2 0.4 0.2 0.6 0 0.4-0.6 0.7-1.2 1-1.8 1.1-0.1 2.1-0.2 3.2-0.3 0.4 0 0.7-0.4 0.7-0.8 0-2.9 0.1-3.7 0-6.6z"/>
				<path class="st3" d="m506.5 337.1c-0.1-0.1-0.1-0.3-0.2-0.4-0.1-0.3-0.3-0.6-0.7-0.7-1.8-0.3-3.9 0.1-5.7 0.2-1.6 0.1-3.8-0.1-5.3 0.4-2 0.7-1.2 4.5-1.2 6.1 0 0.9-0.2 2.3 0.4 3 1 1.2 2.7 0.1 3.9 0.5 1 0.3 1.4 1.8 2.6 1.8s1.7-1.6 2.2-2.5c-0.3 0.2-0.6 0.3-0.8 0.5 1.6-0.1 4.3 0.3 4.8-1.7s0.1-4.8 0-6.9c-0.1-1.3-2-1.3-2 0 0.1 1.3 0.7 5.7-0.5 6.5-0.7 0.5-2-0.2-2.7 0.3-0.8 0.4-0.7 1.6-1.4 2h1c-0.8-0.3-1-1.4-1.7-1.8-0.6-0.3-1.6-0.2-2.2 0-0.6-0.1-1 0-1.4 0.4v-1.4-2.2c0-0.5-0.2-2 0-2.3 0.5-0.7 2.1-0.5 2.8-0.5 2.1-0.1 4.8-0.8 6.8-0.4l-0.7-0.7c0.1 0.1 0.1 0.3 0.2 0.4 0.4 1.1 2.3 0.6 1.8-0.6z"/>
			<path class="st2" d="m352.6 395.3c0-0.2 0-0.5-0.2-0.7-0.2-0.1-0.4-0.1-0.6-0.1-4.9 0.3-9.8 0.6-14.7 1-0.4 0-0.7 0.4-0.7 0.8 0.1 4.3-0.1 5.5 0.1 9.8 0 0.3 0 0.6 0.3 0.8 0.2 0.1 0.4 0.1 0.7 0.1 1.7-0.1 3.4-0.1 5.1-0.2 0.7 0.8 1.4 1.6 2.1 2.4 0.2 0.3 0.6 0.2 0.8 0 0.6-0.9 1.1-1.7 1.5-2.7 1.5-0.1 3.1-0.2 4.6-0.4 0.6-0.1 1-0.5 1-1.1 0.1-4.3 0.2-5.4 0-9.7z"/>
				<path class="st3" d="m353.6 395.1c-0.1-0.2-0.2-0.4-0.2-0.7-0.1-0.3-0.3-0.6-0.7-0.7-3.3-0.6-7.3 0.2-10.6 0.5-1.8 0.1-5.2-0.5-6.3 1.3-1 1.6-0.2 5.7-0.2 7.6 0 1.7-0.5 4 1.4 4.8 1.6 0.6 3.4-0.5 5 0.2 1.1 0.5 1.6 2 2.8 2.2 2 0.3 2.3-2.5 4-3 1.9-0.5 4.4 0.3 4.9-2.2 0.6-3 0.2-6.8 0-9.8-0.1-1.3-2-1.3-2 0 0.1 2 0.1 4.1 0.1 6.1 0 1.5 0.4 2.9-1.3 3.8-0.9 0.5-2.5-0.2-3.5 0.3-0.8 0.4-1.3 2.2-1.8 2.3-1 0.3-1.2-1.4-1.9-1.7-0.6-0.3-0.6-0.2-1.3-0.3-1-0.1-2.8 0.6-3.8 0.2-0.8 0.3-1-0.1-0.7-1.1v-1.9c0-1.5-0.2-3.3 0-4.8 0.4-2.8 3.4-2.1 5.8-2.3 0.9-0.1 8.3-0.9 8.4-0.5 0.4 1.4 2.3 0.9 1.9-0.3z"/>
			<path class="st2" d="m486.3 327.2c0-0.2 0-0.4-0.2-0.5-0.1-0.1-0.3-0.1-0.4-0.1-3.8 0.2-5.4 0.3-9.2 0.6-0.3 0-0.5 0.3-0.5 0.6 0.1 3.3-0.1 4.2 0.1 7.5 0 0.2 0 0.5 0.2 0.6 0.1 0.1 0.3 0.1 0.5 0.1h2.6c0.5 0.6 1.1 1.2 1.6 1.9 0.2 0.2 0.5 0.2 0.6 0 0.4-0.7 0.8-1.3 1.2-2.1 1.2-0.1 1.6-0.2 2.8-0.3 0.4 0 0.8-0.4 0.8-0.9-0.1-3.2 0.1-4.1-0.1-7.4z"/>
				<path class="st3" d="m487.3 327.2c-0.1-1-0.5-1.4-1.5-1.5-1.9-0.2-4.1 0.2-6 0.3-1.2 0.1-3.5-0.3-4.4 0.7-0.9 0.9-0.4 3.1-0.4 4.3 0 1.5-0.3 3.4 0.1 4.7 0.4 1.1 1.2 1.2 2.3 1.2 0.9 0 1.3-0.1 2 0.6 0.5 0.5 0.8 1.2 1.6 1.3 1.4 0.2 2.1-1.7 2.6-2.7-0.3 0.2-0.6 0.3-0.8 0.5 1.6-0.1 4 0.1 4.5-1.9s0.1-5.2 0-7.5c-0.1-1.3-2-1.3-2 0 0 1.1 0.1 2.3 0.1 3.4 0 1 0.3 2.8-0.4 3.6s-1.8 0.2-2.7 0.7c-0.8 0.5-0.8 1.8-1.6 2.3h1c-0.9-0.4-1.2-1.7-2-2.1-0.5-0.2-1.2-0.1-1.7-0.1 0 0-1.2 0.2-1 0.3-0.1-0.1 0-1.3-0.1-1.5v-2.5c0-0.7-0.2-1.7 0-2.4 0.3-1.2 1.5-0.9 2.5-1 0.7-0.1 5.9-0.1 5.8-0.8 0.3 1.4 2.3 1.4 2.1 0.1z"/>
			<path class="st2" d="m517 359.6c0-0.3 0-0.6-0.3-0.8-0.2-0.1-0.5-0.1-0.7-0.1-6 0.3-12 0.7-18.1 1.2-0.5 0-0.9 0.5-0.9 0.9 0.1 5.3 0.2 10.6 0.5 15.9 0 0.4 0.1 0.7 0.3 1 0.2 0.2 0.5 0.2 0.8 0.2 2.1-0.1 4.1-0.2 6.2-0.3 0.9 1 1.7 2 2.6 3 0.3 0.3 0.8 0.3 1-0.1 0.7-1.1 1.3-2.1 1.9-3.3 1.9-0.1 3.8-0.3 5.7-0.5 0.7-0.1 1.2-0.7 1.3-1.4 0.1-5.2-0.1-10.5-0.3-15.7z"/>
				<path class="st3" d="m518 359.6c-0.4-3.2-4.9-1.8-7.1-1.6-2.6 0.2-5.2 0.3-7.7 0.5-1.7 0.1-4.2-0.2-5.6 0.5-0.9 0.4-1.1 0.8-1.3 1.8-0.5 2.3 0.1 5.6 0.2 7.9 0.1 2.5-0.2 5.5 0.3 7.9 0.1 0.7 0.2 1.4 0.8 1.8 1.2 0.9 3.6 0.1 5 0.2 1.5 0 2 0.1 3.1 1.1 0.5 0.5 0.9 1.3 1.5 1.6 0.8 0.4 1.4 0.5 2.1-0.1 1.7-1.3 1-2.8 3.6-3.3 2.4-0.5 5 0.3 5.6-2.6 0.5-2.2 0-5 0-7.3-0.3-2.8-0.4-5.6-0.5-8.4-0.1-1.3-2-1.3-2 0 0.1 3.2 0.3 6.5 0.3 9.7 0 1.3 0.5 3.6 0 4.9-0.9 2.3-2.9 1.8-4.8 2-2.5 0.2-1.3 0.6-2.9 2.3-1.2 1.3-1.2 0.4-2.4-0.8-0.8-0.8-0.5-0.8-1.3-1.1-1.2-0.5-3.6 0.3-5 0.2-1.3 0.4-1.8-0.1-1.5-1.3 0-0.8-0.1-1.6-0.1-2.4-0.1-2.9-0.2-5.7-0.2-8.6v-2.4c0.5-1.1 1.3-1.6 2.4-1.4 1.6-0.4 3.5-0.3 5.2-0.4 0.9-0.1 10.3-0.7 10.3-0.7 0.2 1.2 2.1 1.2 2 0z"/>
			<path class="st2" d="m469.9 254.7c0-0.4-0.1-0.9-0.4-1.1s-0.6-0.2-1-0.2c-8.4 0.5-16.9 1-25.3 1.7-0.7 0.1-1.2 0.6-1.2 1.3 0.1 7.4-0.1 9.4 0.2 16.8 0 0.5 0.1 1 0.5 1.4 0.3 0.3 0.8 0.2 1.2 0.2 2.9-0.1 5.8-0.2 8.7-0.4 1.2 1.4 2.4 2.8 3.6 4.2 0.4 0.5 1.1 0.4 1.4-0.1 1-1.5 1.9-3 2.6-4.6 2.7-0.2 5.3-0.4 8-0.7 1-0.1 1.8-0.9 1.8-1.9-0.1-7.3 0.2-9.3-0.1-16.6z"/>
				<path class="st3" d="m470.8 254.7c-0.2-1.2-0.4-1.8-1.6-2.2-0.9-0.3-2.4 0-3.3 0.1l-5.1 0.3c-3.4 0.2-6.8 0.4-10.1 0.7-2.3 0.2-6.4-0.3-8.5 0.8-2.5 1.4-1.3 7.3-1.3 9.7 0 2.3 0 4.6 0.1 6.9 0 1.4-0.3 3.5 1 4.5 1.5 1.1 4.9 0.3 6.6 0.2 2.1-0.1 2.9-0.2 4.5 1.2 0.8 0.8 1.4 2 2.3 2.7 0.8 0.5 1.4 0.5 2.2 0.1 0.8-0.5 1.3-1.6 1.7-2.3 1-1.7 1-2.1 2.9-2.5 4.1-0.9 8.3 0.7 8.4-4.6 0.4-5.4 0.5-10.5 0.2-15.6-0.1-1.3-2-1.3-2 0 0.2 3.5 0.2 6.9 0.1 10.4 0 1.3 0.4 3.8-0.1 5-1.1 2.8-4 2.5-6.5 2.7-1 0.1-2.2-0.1-3 0.6-1.3 1-1 4.5-3.3 3.8-1.2-0.4-1.9-2.9-3.1-3.5-1.1-0.6-3.6 0-4.8 0.1-1.8 0.1-4.4 0.9-5-1-0.4-1.6-0.1-3.8-0.1-5.4 0-2.8-0.5-6.3 0-9.1 0.6-3 4.1-2.4 6.5-2.6 2.1-0.2 4.2-0.3 6.3-0.4 1.3-0.1 13-1.2 13.1-0.4 0.1 1 2.1 1 1.9-0.2z"/>
			<path class="st2" d="m329.3 377.2c0-0.3-0.1-0.7-0.3-0.9s-0.5-0.2-0.8-0.1c-6.9 0.4-13.7 0.8-20.6 1.3-0.6 0-1 0.5-1 1.1 0.1 6-0.1 7.7 0.2 13.7 0 0.4 0.1 0.9 0.4 1.1s0.6 0.2 0.9 0.2c2.4-0.1 4.7-0.2 7.1-0.3 1 1.2 1.9 2.3 2.9 3.4 0.3 0.4 0.9 0.3 1.2-0.1 0.8-1.2 1.5-2.4 2.1-3.8 2.2-0.2 4.3-0.3 6.5-0.5 0.8-0.1 1.4-0.7 1.4-1.6 0-6 0.3-7.6 0-13.5z"/>
				<path class="st3" d="m330.3 377.2c-0.5-3.5-5.5-1.9-7.9-1.7-2.8 0.2-5.6 0.3-8.4 0.5-1.9 0.1-5.2-0.2-6.9 0.6-2.7 1.2-1.4 6.3-1.5 8.8 0 2-0.9 7.4 1 8.8 1.1 0.8 3.2 0.3 4.4 0.2 1.4-0.1 2.9-0.5 4.2 0.4 0.9 0.6 1.3 1.9 2.2 2.6 2.8 2 3.4-2.7 5.3-3.6 2.7-1.3 6.8 1.1 7.6-3 0.4-2.1 0.1-4.6 0.1-6.8 0-2.3 0-4.6-0.1-6.8-0.1-1.3-2-1.3-2 0 0.1 2.7 0.2 5.3 0.1 8 0 1.2 0.2 2.7-0.1 3.8-0.7 2.8-3.3 2.6-5.7 2.8-0.7 0.1-1.4-0.1-2 0.4-0.9 0.8-0.8 3-2.2 3-1.3 0-1.7-2.2-2.8-2.7-0.9-0.4-2-0.1-3-0.1-0.9 0-4.1 0.7-4.7 0.2-0.8-0.6-0.4-2.8-0.4-3.7-0.1-2.5 0-5 0-7.5 0-2.7 1.4-3.1 3.8-3.2 1.7-0.1 3.4-0.2 5.1-0.4 0.9-0.1 11.7-0.9 11.7-0.6 0.4 1.2 2.3 1.2 2.2 0z"/>
			<path class="st2" d="m391.8 254.7c0-0.4-0.1-0.9-0.4-1.1s-0.6-0.2-1-0.2c-8.4 0.5-16.9 1-25.3 1.7-0.7 0.1-1.2 0.6-1.2 1.3 0.1 7.4-0.1 9.4 0.2 16.8 0 0.5 0.1 1 0.5 1.4 0.3 0.3 0.8 0.2 1.2 0.2 2.9-0.1 5.8-0.2 8.7-0.4 1.2 1.4 2.4 2.8 3.6 4.2 0.4 0.5 1.1 0.4 1.4-0.1 1-1.5 1.9-3 2.6-4.6 2.7-0.2 5.3-0.4 8-0.7 1-0.1 1.8-0.9 1.8-1.9-0.1-7.3 0.2-9.3-0.1-16.6z"/>
				<path class="st3" d="m392.8 254.7c-0.2-1.2-0.4-1.8-1.6-2.2-0.9-0.3-2.4 0-3.3 0.1l-5.1 0.3c-3.4 0.2-6.8 0.4-10.1 0.7-2.3 0.2-6.4-0.3-8.5 0.8-2.5 1.4-1.3 7.3-1.3 9.7 0 2.3 0 4.6 0.1 6.9 0 1.4-0.3 3.5 1 4.5 1.5 1.1 4.9 0.3 6.6 0.2 2.1-0.1 2.9-0.2 4.5 1.2 0.8 0.8 1.4 2 2.3 2.7 0.8 0.5 1.4 0.5 2.2 0.1 0.8-0.5 1.3-1.6 1.7-2.3 1-1.7 1-2.1 2.9-2.5 4.1-0.9 8.3 0.7 8.4-4.6 0.3-5.4 0.4-10.5 0.2-15.6-0.1-1.3-2-1.3-2 0 0.2 3.5 0.2 6.9 0.1 10.4 0 1.3 0.4 3.8-0.1 5-1.1 2.8-4 2.5-6.5 2.7-1 0.1-2.2-0.1-3 0.6-1.3 1-1 4.5-3.3 3.8-1.2-0.4-1.9-2.9-3.1-3.5-1.1-0.6-3.6 0-4.8 0.1-1.8 0.1-4.4 0.9-5-1-0.4-1.6-0.1-3.8-0.1-5.4 0-2.8-0.5-6.3 0-9.1 0.6-3 4.1-2.4 6.5-2.6 2.1-0.2 4.2-0.3 6.3-0.4 1.3-0.1 13-1.2 13.1-0.4 0.1 1 2 1 1.9-0.2z"/>
			<path class="st2" d="m434.7 125.8c0-0.4-0.1-0.9-0.4-1.1s-0.6-0.2-1-0.2c-8.4 0.5-16.9 1-25.3 1.7-0.7 0.1-1.2 0.6-1.2 1.3 0.1 7.4-0.1 9.4 0.2 16.8 0 0.5 0.1 1 0.5 1.4 0.3 0.3 0.8 0.2 1.2 0.2 2.9-0.1 5.8-0.2 8.7-0.4 1.2 1.4 2.4 2.8 3.6 4.2 0.4 0.5 1.1 0.4 1.4-0.1 1-1.5 1.9-3 2.6-4.6 2.7-0.2 5.3-0.4 8-0.7 1-0.1 1.8-0.9 1.8-1.9 0-7.3 0.3-9.3-0.1-16.6z"/>
				<path class="st3" d="m435.7 125.8c-0.2-1.2-0.4-1.8-1.6-2.2-0.9-0.3-2.4 0-3.3 0.1l-5.1 0.3c-3.4 0.2-6.8 0.4-10.1 0.7-2.3 0.2-6.4-0.3-8.5 0.8-2.5 1.4-1.3 7.3-1.3 9.7 0 2.3 0 4.6 0.1 6.9 0 1.4-0.3 3.5 1 4.5 1.5 1.1 4.9 0.3 6.6 0.2 2.1-0.1 2.9-0.2 4.5 1.2 0.8 0.8 1.4 2 2.3 2.7 0.8 0.5 1.4 0.5 2.2 0.1 0.8-0.5 1.3-1.6 1.7-2.3 1-1.7 1-2.1 2.9-2.5 4.1-0.9 8.3 0.7 8.4-4.6 0.4-5.4 0.5-10.5 0.2-15.6-0.1-1.3-2-1.3-2 0 0.2 3.5 0.2 6.9 0.1 10.4 0 1.3 0.4 3.8-0.1 5-1.1 2.8-4 2.5-6.5 2.7-1 0.1-2.2-0.1-3 0.6-1.3 1-1 4.5-3.3 3.8-1.2-0.4-1.9-2.9-3.1-3.5-1.1-0.6-3.6 0-4.8 0.1-1.8 0.1-4.4 0.9-5-1-0.4-1.6-0.1-3.8-0.1-5.4 0-2.8-0.5-6.3 0-9.1 0.6-3 4.1-2.4 6.5-2.6 2.1-0.2 4.2-0.3 6.3-0.4 1.3-0.1 13-1.2 13.1-0.4 0.1 1 2.1 1 1.9-0.2z"/>
			<path class="st2" d="m153 327.4c0-0.4-0.1-0.9-0.4-1.1s-0.6-0.2-1-0.2c-8.4 0.5-16.9 1-25.3 1.7-0.7 0.1-1.2 0.6-1.2 1.3 0.1 7.4-0.1 9.4 0.2 16.8 0 0.5 0.1 1 0.5 1.4 0.3 0.3 0.8 0.2 1.2 0.2 2.9-0.1 5.8-0.2 8.7-0.4 1.2 1.4 2.4 2.8 3.6 4.2 0.4 0.5 1.1 0.4 1.4-0.1 1-1.5 1.9-3 2.6-4.6 2.7-0.2 5.3-0.4 8-0.7 1-0.1 1.8-0.9 1.8-1.9 0-7.3 0.3-9.3-0.1-16.6z"/>
				<path class="st3" d="m154 327.4c-0.2-1.2-0.4-1.8-1.6-2.2-0.9-0.3-2.4 0-3.3 0.1l-5.1 0.3c-3.4 0.2-6.8 0.4-10.1 0.7-2.3 0.2-6.4-0.3-8.5 0.8-2.5 1.4-1.3 7.3-1.3 9.7 0 2.3 0 4.6 0.1 6.9 0 1.4-0.3 3.5 1 4.5 1.5 1.1 4.9 0.3 6.6 0.2 2.1-0.1 2.9-0.2 4.5 1.2 0.8 0.8 1.4 2 2.3 2.7 0.8 0.5 1.4 0.5 2.2 0.1 0.8-0.5 1.3-1.6 1.7-2.3 1-1.7 1-2.1 2.9-2.5 4.1-0.9 8.3 0.7 8.4-4.6 0.4-5.3 0.5-10.5 0.2-15.6-0.1-1.3-2-1.3-2 0 0.2 3.5 0.2 6.9 0.1 10.4 0 1.3 0.4 3.8-0.1 5-1.1 2.8-4 2.5-6.5 2.7-1 0.1-2.2-0.1-3 0.6-1.3 1-1 4.5-3.3 3.8-1.2-0.4-1.9-2.9-3.1-3.5-1.1-0.6-3.6 0-4.8 0.1-1.8 0.1-4.4 0.9-5-1-0.4-1.6-0.1-3.8-0.1-5.4 0-2.8-0.5-6.3 0-9.1 0.6-3 4.1-2.4 6.5-2.6 2.1-0.2 4.2-0.3 6.3-0.4 1.3-0.1 13-1.2 13.1-0.4 0.1 1 2.1 1 1.9-0.2z"/>
			<path class="st2" d="m477.1 201.6c0-0.4-0.1-0.9-0.4-1.1s-0.6-0.2-1-0.2c-8.4 0.5-16.9 1-25.3 1.7-0.7 0.1-1.2 0.6-1.2 1.3 0.1 7.4-0.1 9.4 0.2 16.8 0 0.5 0.1 1 0.5 1.4 0.3 0.3 0.8 0.2 1.2 0.2 2.9-0.1 5.8-0.2 8.7-0.4 1.2 1.4 2.4 2.8 3.6 4.2 0.4 0.5 1.1 0.4 1.4-0.1 1-1.5 1.9-3 2.6-4.6 2.7-0.2 5.3-0.4 8-0.7 1-0.1 1.8-0.9 1.8-1.9 0-7.3 0.3-9.2-0.1-16.6z"/>
				<path class="st3" d="m478.1 201.6c-0.2-1.2-0.4-1.8-1.6-2.2-0.9-0.3-2.4 0-3.3 0.1l-5.1 0.3c-3.4 0.2-6.8 0.4-10.1 0.7-2.3 0.2-6.4-0.3-8.5 0.8-2.5 1.4-1.3 7.3-1.3 9.7 0 2.3 0 4.6 0.1 6.9 0 1.4-0.3 3.5 1 4.5 1.5 1.1 4.9 0.3 6.6 0.2 2.1-0.1 2.9-0.2 4.5 1.2 0.8 0.8 1.4 2 2.3 2.7 0.8 0.5 1.4 0.5 2.2 0.1 0.8-0.5 1.3-1.6 1.7-2.3 1-1.7 1-2.1 2.9-2.5 4.1-0.9 8.3 0.7 8.4-4.6 0.3-5.3 0.4-10.4 0.2-15.6-0.1-1.3-2-1.3-2 0 0.2 3.5 0.2 6.9 0.1 10.4 0 1.3 0.4 3.8-0.1 5-1.1 2.8-4 2.5-6.5 2.7-1 0.1-2.2-0.1-3 0.6-1.3 1-1 4.5-3.3 3.8-1.2-0.4-1.9-2.9-3.1-3.5-1.1-0.6-3.6 0-4.8 0.1-1.8 0.1-4.4 0.9-5-1-0.4-1.6-0.1-3.8-0.1-5.4 0-2.8-0.5-6.3 0-9.1 0.6-3 4.1-2.4 6.5-2.6 2.1-0.2 4.2-0.3 6.3-0.4 1.3-0.1 13-1.2 13.1-0.4 0.1 1.1 2.1 1.1 1.9-0.2z"/>
			<path class="st2" d="m356.3 244.2c0-0.2 0-0.5-0.2-0.7-0.2-0.1-0.4-0.1-0.6-0.1-4.9 0.3-9.8 0.6-14.8 1-0.4 0-0.7 0.4-0.7 0.8 0.1 4.3-0.1 5.5 0.1 9.8 0 0.3 0 0.6 0.3 0.8 0.2 0.1 0.4 0.1 0.7 0.1 1.7-0.1 3.4-0.1 5.1-0.2 0.7 0.8 1.4 1.6 2.1 2.5 0.2 0.3 0.6 0.2 0.8 0 0.6-0.9 1.1-1.7 1.5-2.7 1.5-0.1 3.1-0.2 4.6-0.4 0.6-0.1 1-0.5 1-1.1 0.1-4.4 0.3-5.5 0.1-9.8z"/>
				<path class="st3" d="m357.2 243.9c-0.1-0.2-0.2-0.4-0.2-0.7-0.1-0.3-0.3-0.6-0.7-0.7-3.3-0.6-7.3 0.2-10.7 0.5-1.8 0.1-5.3-0.5-6.4 1.3-1 1.6-0.2 5.7-0.2 7.6 0 1.7-0.5 4 1.4 4.8 1.6 0.6 3.4-0.5 5 0.2 1.1 0.5 1.6 2.1 2.8 2.3 2 0.3 2.3-2.5 4.1-3 1.9-0.5 4.4 0.3 4.9-2.2 0.6-3 0.2-6.8 0-9.8-0.1-1.3-2-1.3-2 0 0.1 2 0.1 4.1 0.1 6.1 0 1.5 0.4 3-1.3 3.8-0.9 0.5-2.5-0.2-3.5 0.3-0.8 0.4-1.3 2.2-1.8 2.3-1 0.3-1.3-1.4-1.9-1.7s-0.6-0.2-1.3-0.3c-1.1-0.1-2.8 0.6-3.8 0.2-0.8 0.3-1-0.1-0.7-1.1v-1.9c0-1.5-0.2-3.3 0-4.8 0.4-2.8 3.4-2.2 5.8-2.3 0.9-0.1 8.3-0.9 8.5-0.5 0.4 1.3 2.3 0.8 1.9-0.4z"/>
			<path class="st2" d="m508.4 251.7c0-0.2 0-0.4-0.2-0.5-0.1-0.1-0.3-0.1-0.4-0.1-3.8 0.2-5.4 0.3-9.2 0.6-0.3 0-0.5 0.3-0.5 0.6 0.1 3.3-0.1 4.2 0.1 7.5 0 0.2 0 0.5 0.2 0.6 0.1 0.1 0.3 0.1 0.5 0.1h2.6c0.5 0.6 1.1 1.2 1.6 1.9 0.2 0.2 0.5 0.2 0.6 0 0.4-0.7 0.8-1.3 1.2-2.1 1.2-0.1 1.6-0.2 2.8-0.3 0.4 0 0.8-0.4 0.8-0.9-0.1-3.3 0.1-4.1-0.1-7.4z"/>
				<path class="st3" d="m509.4 251.7c-0.1-1-0.5-1.4-1.5-1.5-1.9-0.2-4.1 0.2-6 0.3-1.2 0.1-3.5-0.3-4.4 0.7-0.9 0.9-0.4 3.1-0.4 4.3 0 1.5-0.3 3.4 0.1 4.7 0.4 1.1 1.2 1.2 2.3 1.2 0.9 0 1.3-0.1 2 0.6 0.5 0.5 0.8 1.2 1.6 1.3 1.4 0.2 2.1-1.7 2.6-2.7-0.3 0.2-0.6 0.3-0.8 0.5 1.6-0.1 4 0.1 4.5-1.9 0.5-2.1 0.1-5.2 0-7.5-0.1-1.3-2-1.3-2 0 0 1.1 0.1 2.3 0.1 3.4 0 1 0.3 2.8-0.4 3.6s-1.8 0.2-2.7 0.7c-0.8 0.5-0.8 1.8-1.6 2.3h1c-0.9-0.4-1.2-1.7-2-2.1-0.5-0.2-1.2-0.1-1.7-0.1 0 0-1.2 0.2-1 0.3-0.1-0.1 0-1.3-0.1-1.5v-2.5c0-0.7-0.2-1.7 0-2.4 0.3-1.2 1.5-0.9 2.5-1 0.7-0.1 5.9-0.1 5.8-0.8 0.3 1.3 2.2 1.3 2.1 0.1z"/>
			<path class="st2" d="m461.5 236.6c0-0.2 0-0.3-0.2-0.4-0.1-0.1-0.3-0.1-0.4-0.1-3.3 0.2-6.7 0.4-10 0.7-0.3 0-0.5 0.3-0.5 0.5 0 2.9 0 3.7 0.1 6.7 0 0.2 0 0.4 0.2 0.5 0.1 0.1 0.3 0.1 0.5 0.1 1.2 0 2.3-0.1 3.4-0.2 0.5 0.6 0.9 1.1 1.4 1.7 0.2 0.2 0.4 0.2 0.6 0 0.4-0.6 0.7-1.2 1-1.8 1.1-0.1 2.1-0.2 3.2-0.3 0.4 0 0.7-0.4 0.7-0.8 0-2.9 0.1-3.7 0-6.6z"/>
				<path class="st3" d="m462.4 236.3c-0.1-0.1-0.1-0.3-0.2-0.4-0.1-0.3-0.3-0.6-0.7-0.7-1.8-0.3-3.9 0.1-5.7 0.2-1.6 0.1-3.8-0.1-5.3 0.4-2 0.7-1.2 4.5-1.2 6.1 0 0.9-0.2 2.3 0.4 3 1 1.2 2.7 0.1 3.9 0.5 1 0.3 1.4 1.8 2.6 1.8s1.7-1.6 2.2-2.5c-0.3 0.2-0.6 0.3-0.8 0.5 1.6-0.1 4.3 0.3 4.8-1.7s0.1-4.8 0-6.9c-0.1-1.3-2-1.3-2 0 0.1 1.3 0.7 5.7-0.5 6.5-0.7 0.5-2-0.2-2.7 0.3-0.8 0.4-0.7 1.6-1.4 2h1c-0.8-0.3-1-1.4-1.7-1.8-0.6-0.3-1.6-0.2-2.2 0-0.6-0.1-1 0-1.4 0.4v-1.4-2.2c0-0.5-0.2-2 0-2.3 0.5-0.7 2.1-0.5 2.8-0.5 2.1-0.1 4.8-0.8 6.8-0.4l-0.7-0.7c0.1 0.1 0.1 0.3 0.2 0.4 0.4 1.1 2.2 0.6 1.8-0.6z"/>
			<path class="st2" d="m477.4 240.1c0-0.2 0-0.4-0.2-0.5-0.1-0.1-0.3-0.1-0.4-0.1-3.8 0.2-5.4 0.3-9.2 0.6-0.3 0-0.5 0.3-0.5 0.6 0.1 3.3-0.1 4.2 0.1 7.5 0 0.2 0 0.5 0.2 0.6 0.1 0.1 0.3 0.1 0.5 0.1h2.6c0.5 0.6 1.1 1.2 1.6 1.9 0.2 0.2 0.5 0.2 0.6 0 0.4-0.7 0.8-1.3 1.2-2.1 1.2-0.1 1.6-0.2 2.8-0.3 0.4 0 0.8-0.4 0.8-0.9-0.1-3.3 0.1-4.2-0.1-7.4z"/>
				<path class="st3" d="m478.4 240.1c-0.1-1-0.5-1.4-1.5-1.5-1.9-0.2-4.1 0.2-6 0.3-1.2 0.1-3.5-0.3-4.4 0.7-0.9 0.9-0.4 3.1-0.4 4.3 0 1.5-0.3 3.4 0.1 4.7 0.4 1.1 1.2 1.2 2.3 1.2 0.9 0 1.3-0.1 2 0.6 0.5 0.5 0.8 1.2 1.6 1.3 1.4 0.2 2.1-1.7 2.6-2.7-0.3 0.2-0.6 0.3-0.8 0.5 1.6-0.1 4 0.1 4.5-1.9 0.5-2.1 0.1-5.2 0-7.5-0.1-1.3-2-1.3-2 0 0 1.1 0.1 2.3 0.1 3.4 0 1 0.3 2.8-0.4 3.6s-1.8 0.2-2.7 0.7c-0.8 0.5-0.8 1.8-1.6 2.3h1c-0.9-0.4-1.2-1.7-2-2.1-0.5-0.2-1.2-0.1-1.7-0.1 0 0-1.2 0.2-1 0.3-0.1-0.1 0-1.3-0.1-1.5v-2.5c0-0.7-0.2-1.7 0-2.4 0.3-1.2 1.5-0.9 2.5-1 0.7-0.1 5.9-0.1 5.8-0.8 0.3 1.3 2.3 1.3 2.1 0.1z"/>
			<path class="st2" d="m376.2 290.4c0-0.2 0-0.4-0.2-0.5-0.1-0.1-0.3-0.1-0.4-0.1-3.8 0.2-5.4 0.3-9.2 0.6-0.3 0-0.5 0.3-0.5 0.6 0.1 3.3-0.1 4.2 0.1 7.5 0 0.2 0 0.5 0.2 0.6 0.1 0.1 0.3 0.1 0.5 0.1h2.6c0.5 0.6 1.1 1.2 1.6 1.9 0.2 0.2 0.5 0.2 0.6 0 0.4-0.7 0.8-1.3 1.2-2.1 1.2-0.1 1.6-0.2 2.8-0.3 0.4 0 0.8-0.4 0.8-0.9-0.1-3.2 0-4.1-0.1-7.4z"/>
				<path class="st3" d="m377.1 290.4c-0.1-1-0.5-1.4-1.5-1.5-1.9-0.2-4.1 0.2-6 0.3-1.2 0.1-3.5-0.3-4.4 0.7-0.9 0.9-0.4 3.1-0.4 4.3 0 1.5-0.3 3.4 0.1 4.7 0.4 1.1 1.2 1.2 2.3 1.2 0.9 0 1.3-0.1 2 0.6 0.5 0.5 0.8 1.2 1.6 1.3 1.4 0.2 2.1-1.7 2.6-2.7-0.3 0.2-0.6 0.3-0.8 0.5 1.6-0.1 4 0.1 4.5-1.9s0.1-5.2 0-7.5c-0.1-1.3-2-1.3-2 0 0 1.1 0.1 2.3 0.1 3.4 0 1 0.3 2.8-0.4 3.6s-1.8 0.2-2.7 0.7c-0.8 0.5-0.8 1.8-1.6 2.3h1c-0.9-0.4-1.2-1.7-2-2.1-0.5-0.2-1.2-0.1-1.7-0.1 0 0-1.2 0.2-1 0.3-0.1-0.1 0-1.3-0.1-1.5v-2.5c0-0.7-0.2-1.7 0-2.4 0.3-1.2 1.5-0.9 2.5-1 0.7-0.1 5.9-0.1 5.8-0.8 0.3 1.4 2.3 1.4 2.1 0.1z"/>
			<path class="st2" d="m399.7 304.7c0-0.2 0-0.4-0.2-0.5-0.1-0.1-0.3-0.1-0.4-0.1-3.8 0.2-5.4 0.3-9.2 0.6-0.3 0-0.5 0.3-0.5 0.6 0.1 3.3-0.1 4.2 0.1 7.5 0 0.2 0 0.5 0.2 0.6 0.1 0.1 0.3 0.1 0.5 0.1h2.6c0.5 0.6 1.1 1.2 1.6 1.9 0.2 0.2 0.5 0.2 0.6 0 0.4-0.7 0.8-1.3 1.2-2.1 1.2-0.1 1.6-0.2 2.8-0.3 0.4 0 0.8-0.4 0.8-0.9-0.1-3.3 0-4.2-0.1-7.4z"/>
				<path class="st3" d="m400.6 304.7c-0.1-1-0.5-1.4-1.5-1.5-1.9-0.2-4.1 0.2-6 0.3-1.2 0.1-3.5-0.3-4.4 0.7-0.9 0.9-0.4 3.1-0.4 4.3 0 1.5-0.3 3.4 0.1 4.7 0.4 1.1 1.2 1.2 2.3 1.2 0.9 0 1.3-0.1 2 0.6 0.5 0.5 0.8 1.2 1.6 1.3 1.4 0.2 2.1-1.7 2.6-2.7-0.3 0.2-0.6 0.3-0.8 0.5 1.6-0.1 4 0.1 4.5-1.9 0.5-2.1 0.1-5.2 0-7.5-0.1-1.3-2-1.3-2 0 0 1.1 0.1 2.3 0.1 3.4 0 1 0.3 2.8-0.4 3.6s-1.8 0.2-2.7 0.7c-0.8 0.5-0.8 1.8-1.6 2.3h1c-0.9-0.4-1.2-1.7-2-2.1-0.5-0.2-1.2-0.1-1.7-0.1 0 0-1.2 0.2-1 0.3-0.1-0.1 0-1.3-0.1-1.5v-2.5c0-0.7-0.2-1.7 0-2.4 0.3-1.2 1.5-0.9 2.5-1 0.7-0.1 5.9-0.1 5.8-0.8 0.3 1.3 2.3 1.3 2.1 0.1z"/>
			<path class="st2" d="m492.6 195.1c0-0.2 0-0.4-0.2-0.5-0.1-0.1-0.3-0.1-0.4-0.1-3.6 0.2-5.2 0.3-8.8 0.6-0.3 0-0.5 0.3-0.5 0.6 0 3.2-0.1 4 0.1 7.2 0 0.2 0 0.4 0.2 0.6 0.1 0.1 0.3 0.1 0.5 0.1h2.4l1.5 1.8c0.2 0.2 0.5 0.2 0.6 0 0.4-0.6 0.8-1.3 1.1-2 1.1-0.1 1.5-0.2 2.6-0.3 0.4 0 0.7-0.4 0.7-0.8 0.2-3.3 0.4-4.1 0.2-7.2z"/>
				<path class="st3" d="m493.6 195.1c-0.1-0.9-0.5-1.4-1.4-1.5-1.8-0.2-3.9 0.2-5.7 0.3-1.2 0.1-3.3-0.2-4.2 0.7s-0.4 3-0.4 4.2c0 1.4-0.3 3.2 0.1 4.5 0.3 1.1 1.2 1.2 2.2 1.2 0.9 0 1.3-0.1 1.9 0.6 0.5 0.5 0.8 1.2 1.5 1.3 1.4 0.2 2-1.6 2.5-2.6-0.3 0.2-0.6 0.3-0.8 0.5 1.6-0.1 3.9 0.1 4.3-1.8 0.5-2.2 0.1-5.2 0-7.4-0.1-1.3-2-1.3-2 0 0 1.1 0.1 2.2 0.1 3.3 0 0.9 0.3 2.7-0.3 3.4-0.7 0.8-1.7 0.2-2.5 0.6-0.8 0.5-0.7 1.7-1.5 2.2h1c-0.9-0.4-1.1-1.6-2-2-0.4-0.2-1.1-0.1-1.6-0.1 0 0-1.1 0.2-0.9 0.3-0.1-0.1 0-1.2 0-1.4v-2.4c0-0.7-0.2-1.6 0-2.3 0.3-1.1 1.4-0.8 2.4-0.9 0.7-0.1 5.6-0.1 5.5-0.8 0 1.3 2 1.3 1.8 0.1z"/>
			<path class="st2" d="m444 152.3c0-0.2 0-0.4-0.2-0.5-0.1-0.1-0.3-0.1-0.4-0.1-3.6 0.2-5.2 0.3-8.8 0.6-0.3 0-0.5 0.3-0.5 0.6 0 3.2-0.1 4 0.1 7.2 0 0.2 0 0.4 0.2 0.6 0.1 0.1 0.3 0.1 0.5 0.1h2.4l1.5 1.8c0.2 0.2 0.5 0.2 0.6 0 0.4-0.6 0.8-1.3 1.1-2 1.1-0.1 1.5-0.2 2.6-0.3 0.4 0 0.7-0.4 0.7-0.8 0.3-3.3 0.4-4.1 0.2-7.2z"/>
				<path class="st3" d="m445 152.3c-0.1-0.9-0.5-1.4-1.4-1.5-1.8-0.2-3.9 0.2-5.7 0.3-1.2 0.1-3.3-0.2-4.2 0.7s-0.4 3-0.4 4.2c0 1.4-0.3 3.2 0.1 4.5 0.3 1.1 1.2 1.2 2.2 1.2 0.9 0 1.3-0.1 1.9 0.6 0.5 0.5 0.8 1.2 1.5 1.3 1.4 0.2 2-1.6 2.5-2.6-0.3 0.2-0.6 0.3-0.8 0.5 1.6-0.1 3.9 0.1 4.3-1.8 0.5-2.2 0.1-5.2 0-7.4-0.1-1.3-2-1.3-2 0 0 1.1 0.1 2.2 0.1 3.3 0 0.9 0.3 2.7-0.3 3.4-0.7 0.8-1.7 0.2-2.5 0.6-0.8 0.5-0.7 1.7-1.5 2.2h1c-0.9-0.4-1.1-1.6-2-2-0.4-0.2-1.1-0.1-1.6-0.1 0 0-1.1 0.2-0.9 0.3-0.1-0.1 0-1.2 0-1.4v-2.4c0-0.7-0.2-1.6 0-2.3 0.3-1.1 1.4-0.8 2.4-0.9 0.7-0.1 5.6-0.1 5.5-0.8 0 1.3 2 1.3 1.8 0.1z"/>
			<path class="st2" d="m410.7 183c0-0.3 0-0.6-0.3-0.8-0.2-0.1-0.4-0.1-0.7-0.1-5.6 0.3-11.3 0.7-16.9 1.1-0.5 0-0.8 0.4-0.8 0.9 0.1 5-0.1 6.3 0.1 11.2 0 0.3 0 0.7 0.3 0.9 0.2 0.2 0.5 0.2 0.8 0.2 1.9-0.1 3.9-0.2 5.8-0.3 0.8 1 1.6 1.9 2.4 2.8 0.3 0.3 0.7 0.3 1-0.1 0.7-1 1.2-2 1.8-3.1 1.8-0.1 3.5-0.3 5.3-0.4 0.7-0.1 1.2-0.6 1.2-1.3 0-4.8 0.2-6.1 0-11z"/>
				<path class="st3" d="m411.6 183c-0.4-2.8-3.7-1.8-5.8-1.6-2.6 0.2-5.2 0.3-7.8 0.5-1.6 0.1-4.2-0.2-5.7 0.5-2.2 1.1-1.3 4.9-1.3 7 0 1.9-0.9 6.3 0.8 7.7 0.9 0.7 2.7 0.3 3.7 0.3 1.3-0.1 2.5-0.3 3.6 0.5 0.7 0.5 1 1.6 1.8 2 0.7 0.4 1.3 0.4 2-0.1 1.7-1.1 1.2-2.7 3.4-3.1 2.3-0.4 4.8 0.3 5.3-2.5 0.7-3.4 0.2-7.8 0-11.2-0.1-1.3-2-1.3-2 0 0.1 2.1 0.1 4.2 0.1 6.3 0 1 0.3 2.7-0.1 3.6-0.7 1.9-1.9 1.6-3.4 1.7-2.5 0.2-2.2 0-3.5 1.7-1.8 2.2-1.3-0.1-3-0.9-0.6-0.3-0.6-0.2-1.3-0.3-1.3-0.1-2.8 0.5-4.1 0.2-1.2 0.4-1.6 0-1.3-1.2v-1.5-5.9c0-3.7 4.1-2.9 6.9-3.1 0.8-0.1 9.7-0.6 9.7-0.7 0.2 1.4 2.2 1.4 2 0.1z"/>
			<path class="st2" d="m359.5 187.4c0-0.3 0-0.6-0.3-0.8-0.2-0.2-0.5-0.1-0.7-0.1-6.2 0.3-12.4 0.7-18.6 1.2-0.5 0-0.9 0.5-0.9 1 0.1 5.5-0.1 6.9 0.1 12.4 0 0.4 0.1 0.8 0.3 1s0.6 0.2 0.9 0.2c2.1-0.1 4.3-0.2 6.4-0.3 0.9 1.1 1.8 2.1 2.6 3.1 0.3 0.3 0.8 0.3 1.1-0.1 0.7-1.1 1.4-2.2 1.9-3.4 1.9-0.1 3.9-0.3 5.8-0.5 0.7-0.1 1.3-0.7 1.3-1.4 0.2-5.5 0.4-6.9 0.1-12.3z"/>
				<path class="st3" d="m360.5 187.4c-0.4-3.2-4.7-1.8-6.9-1.7-2.5 0.1-5 0.3-7.4 0.5-1.9 0.1-4.6-0.1-6.4 0.5-2.8 0.9-1.6 5.5-1.6 7.7 0 2-0.9 6.9 0.8 8.3 1.3 1 3.9 0.2 5.3 0.2 1.5 0.1 2 0.1 3.2 1.1 0.5 0.5 0.9 1.3 1.5 1.7 0.8 0.4 1.3 0.4 2.1-0.1 1.5-1 1.2-2.9 3.2-3.4 2.5-0.6 5.8 0.6 6.4-2.7 0.5-3.6 0-8.3-0.2-12.1-0.1-1.3-2-1.3-2 0 0.1 2.4 0.1 4.9 0.1 7.3 0 1 0.3 2.8-0.1 3.7-0.8 2.3-3.1 1.8-5 2-0.8 0.1-1.3 0-1.9 0.4s-0.8 2.6-1.5 2.8c-1.3 0.3-1.7-1.9-2.7-2.4-0.6-0.3-0.6-0.2-1.3-0.3-1.5-0.1-3 0.3-4.5 0.2-2.3-0.1-1.5-1.5-1.6-3.4 0-2.2-0.3-4.7 0-6.9 0.4-2.4 1.4-2.4 3.6-2.5 1.6-0.1 3.3-0.2 5-0.3 0.8-0.1 9.9-0.7 9.9-0.6 0.2 1.2 2.2 1.2 2 0z"/>
			<path class="st2" d="m367.1 158.7c0-0.1 0-0.3-0.1-0.4s-0.2-0.1-0.3-0.1c-2.9 0.2-5.8 0.3-8.7 0.6-0.2 0-0.4 0.2-0.4 0.5 0 2.6 0.1 5.1 0.2 7.7 0 0.2 0 0.4 0.2 0.5 0.1 0.1 0.3 0.1 0.4 0.1 1 0 2-0.1 3-0.1 0.4 0.5 0.8 1 1.2 1.4 0.1 0.2 0.4 0.1 0.5 0 0.3-0.5 0.6-1 0.9-1.6 0.9-0.1 1.8-0.1 2.7-0.2 0.3 0 0.6-0.3 0.6-0.7 0-2.6-0.1-5.2-0.2-7.7z"/>
				<path class="st3" d="m368 158.4c0-0.1-0.1-0.3-0.1-0.4-0.1-0.3-0.3-0.6-0.7-0.7-1.6-0.3-3.4 0.1-5 0.2-1.4 0.1-3.6-0.2-4.8 0.4-0.9 0.5-0.9 1.1-0.9 2.1 0 1.8 0.1 3.6 0.1 5.4 0 0.8-0.2 2.1 0.5 2.7 0.9 0.9 2.3-0.1 3.3 0.3 0.9 0.3 1.2 1.5 2.2 1.5 1.1 0 1.6-1.4 2-2.2-0.3 0.2-0.6 0.3-0.8 0.5 1.5-0.1 3.8 0.2 4.3-1.6 0.2-1 0-2.3 0-3.3 0-1.5-0.1-3-0.1-4.6-0.1-1.3-2-1.3-2 0 0.1 1.3 0.1 2.5 0.1 3.8 0 0.8 0.4 3-0.3 3.5-0.5 0.4-1.8-0.1-2.4 0.2-0.7 0.4-0.6 1.4-1.3 1.8h1c-0.7-0.3-0.9-1.2-1.5-1.6-0.5-0.3-1.4-0.2-2-0.1-0.4-0.2-0.8-0.1-0.9 0.3-0.3 0.5-0.3 0.3-0.2-0.5-0.2-1-0.1-2.1-0.1-3.1 0-0.5-0.4-2.7-0.1-3.1 0.4-0.5 1.1-0.4 1.8-0.4 2-0.1 4.5-0.7 6.4-0.4l-0.7-0.7c0 0.1 0.1 0.3 0.1 0.4 0.7 1.4 2.6 0.8 2.1-0.4z"/>
			<path class="st2" d="m319.8 208.8c0-0.2 0-0.3-0.2-0.5-0.1-0.1-0.3-0.1-0.4-0.1-3.4 0.2-6.7 0.4-10.1 0.7-0.3 0-0.5 0.3-0.5 0.5 0 3 0.1 5.9 0.3 8.9 0 0.2 0 0.4 0.2 0.5 0.1 0.1 0.3 0.1 0.5 0.1 1.2 0 2.3-0.1 3.5-0.2 0.5 0.6 1 1.1 1.4 1.7 0.2 0.2 0.4 0.2 0.6 0 0.4-0.6 0.7-1.2 1-1.8 1.1-0.1 2.1-0.2 3.2-0.3 0.4 0 0.7-0.4 0.7-0.8 0-2.8-0.1-5.7-0.2-8.7z"/>
				<path class="st3" d="m320.7 208.6c-0.1-0.2-0.1-0.3-0.2-0.5-0.1-0.3-0.3-0.6-0.7-0.7-2.5-0.5-5.5 0.2-8 0.3-1.4 0.1-3.7-0.3-4.2 1.5-0.3 1 0 2.3 0 3.4 0 1.5 0.1 3 0.1 4.5 0.1 1.4-0.1 2.7 1.5 2.9 1.1 0.2 2.4-0.4 3.4 0.1 0.7 0.4 0.8 1.4 1.7 1.5 0.5 0.1 0.9-0.1 1.2-0.4 1.1-0.9 0.4-1.4 1.9-1.7s2.9 0 3.3-1.9c0.5-2.7-0.1-6.1-0.2-8.8-0.1-1.3-2-1.3-2 0 0.1 1.5 0.1 2.9 0.1 4.4 0 1 0.5 3.6-0.5 4.3-0.7 0.5-2-0.2-2.8 0.3-0.8 0.4-0.7 1.6-1.4 2.1h1c-0.8-0.3-1-1.4-1.7-1.8-0.6-0.3-1.6-0.1-2.2 0-0.5-0.1-0.8-0.1-1.1 0.2-0.4 0.4-0.5 0.2-0.3-0.7-0.2-1.1-0.1-2.4-0.1-3.6 0-0.7-0.5-3-0.1-3.6 0.5-0.8 1.4-0.6 2.2-0.6 0.6 0 7-0.6 7-0.7 0.6 1.2 2.5 0.6 2.1-0.5z"/>
			<path class="st2" d="m215.3 298.4c0-0.2 0-0.3-0.2-0.5-0.1-0.1-0.3-0.1-0.4-0.1-3.4 0.2-6.7 0.4-10.1 0.7-0.3 0-0.5 0.3-0.5 0.5 0 3 0.1 5.9 0.3 8.9 0 0.2 0 0.4 0.2 0.5 0.1 0.1 0.3 0.1 0.5 0.1 1.2 0 2.3-0.1 3.5-0.2 0.5 0.6 1 1.1 1.4 1.7 0.2 0.2 0.4 0.2 0.6 0 0.4-0.6 0.7-1.2 1-1.8 1.1-0.1 2.1-0.2 3.2-0.3 0.4 0 0.7-0.4 0.7-0.8 0-2.9 0-5.8-0.2-8.7z"/>
				<path class="st3" d="m216.3 298.1c-0.1-0.2-0.1-0.3-0.2-0.5-0.1-0.3-0.3-0.6-0.7-0.7-2.5-0.5-5.5 0.2-8 0.3-1.4 0.1-3.7-0.3-4.2 1.5-0.3 1 0 2.3 0 3.4 0 1.5 0.1 3 0.1 4.5 0.1 1.4-0.1 2.7 1.5 2.9 1.1 0.2 2.4-0.4 3.4 0.1 0.7 0.4 0.8 1.4 1.7 1.5 0.5 0.1 0.9-0.1 1.2-0.4 1.1-0.9 0.4-1.4 1.9-1.7s2.9 0 3.3-1.9c0.5-2.7-0.1-6.1-0.2-8.8-0.1-1.3-2-1.3-2 0 0.1 1.5 0.1 2.9 0.1 4.4 0 1 0.5 3.6-0.5 4.3-0.7 0.5-2-0.2-2.8 0.3-0.8 0.4-0.7 1.6-1.4 2.1h1c-0.8-0.3-1-1.4-1.7-1.8-0.6-0.3-1.6-0.1-2.2 0-0.5-0.1-0.8-0.1-1.1 0.2-0.4 0.4-0.5 0.2-0.3-0.7-0.2-1.1-0.1-2.4-0.1-3.6 0-0.7-0.5-3-0.1-3.6 0.5-0.8 1.4-0.6 2.2-0.6 0.6 0 7-0.6 7-0.7 0.6 1.2 2.5 0.7 2.1-0.5z"/>
			<path class="st2" d="m282.8 244.9c0-0.2 0-0.3-0.2-0.5-0.1-0.1-0.3-0.1-0.4-0.1-3.4 0.2-6.7 0.4-10.1 0.7-0.3 0-0.5 0.3-0.5 0.5 0 3 0.1 5.9 0.3 8.9 0 0.2 0 0.4 0.2 0.5 0.1 0.1 0.3 0.1 0.5 0.1 1.2 0 2.3-0.1 3.5-0.2 0.5 0.6 1 1.1 1.4 1.7 0.2 0.2 0.4 0.2 0.6 0 0.4-0.6 0.7-1.2 1-1.8 1.1-0.1 2.1-0.2 3.2-0.3 0.4 0 0.7-0.4 0.7-0.8 0-2.8 0-5.8-0.2-8.7z"/>
				<path class="st3" d="m283.8 244.6c-0.1-0.2-0.1-0.3-0.2-0.5-0.1-0.3-0.3-0.6-0.7-0.7-2.5-0.5-5.5 0.2-8 0.3-1.4 0.1-3.7-0.3-4.2 1.5-0.3 1 0 2.3 0 3.4 0 1.5 0.1 3 0.1 4.5 0.1 1.4-0.1 2.7 1.5 2.9 1.1 0.2 2.4-0.4 3.4 0.1 0.7 0.4 0.8 1.4 1.7 1.5 0.5 0.1 0.9-0.1 1.2-0.4 1.1-0.9 0.4-1.4 1.9-1.7s2.9 0 3.3-1.9c0.5-2.7-0.1-6.1-0.2-8.8-0.1-1.3-2-1.3-2 0 0.1 1.5 0.1 2.9 0.1 4.4 0 1 0.5 3.6-0.5 4.3-0.7 0.5-2-0.2-2.8 0.3-0.8 0.4-0.7 1.6-1.4 2.1h1c-0.8-0.3-1-1.4-1.7-1.8-0.6-0.3-1.6-0.1-2.2 0-0.5-0.1-0.8-0.1-1.1 0.2-0.4 0.4-0.5 0.2-0.3-0.7-0.2-1.1-0.1-2.4-0.1-3.6 0-0.7-0.5-3-0.1-3.6 0.5-0.8 1.4-0.6 2.2-0.6 0.6 0 7-0.6 7-0.7 0.6 1.2 2.5 0.7 2.1-0.5z"/>
			<path class="st2" d="m298.7 166.7c0-0.2 0-0.3-0.2-0.5-0.1-0.1-0.3-0.1-0.4-0.1-3.4 0.2-6.7 0.4-10.1 0.7-0.3 0-0.5 0.3-0.5 0.5 0 3 0.1 5.9 0.3 8.9 0 0.2 0 0.4 0.2 0.5 0.1 0.1 0.3 0.1 0.5 0.1 1.2 0 2.3-0.1 3.5-0.2 0.5 0.6 1 1.1 1.4 1.7 0.2 0.2 0.4 0.2 0.6 0 0.4-0.6 0.7-1.2 1-1.8 1.1-0.1 2.1-0.2 3.2-0.3 0.4 0 0.7-0.4 0.7-0.8 0-2.8-0.1-5.7-0.2-8.7z"/>
				<path class="st3" d="m299.6 166.4c-0.1-0.2-0.1-0.3-0.2-0.5-0.1-0.3-0.3-0.6-0.7-0.7-2.5-0.5-5.5 0.2-8 0.3-1.4 0.1-3.7-0.3-4.2 1.5-0.3 1 0 2.3 0 3.4 0 1.5 0.1 3 0.1 4.5 0.1 1.4-0.1 2.7 1.5 2.9 1.1 0.2 2.4-0.4 3.4 0.1 0.7 0.4 0.8 1.4 1.7 1.5 0.5 0.1 0.9-0.1 1.2-0.4 1.1-0.9 0.4-1.4 1.9-1.7s2.9 0 3.3-1.9c0.5-2.7-0.1-6.1-0.2-8.8-0.1-1.3-2-1.3-2 0 0.1 1.5 0.1 2.9 0.1 4.4 0 1 0.5 3.6-0.5 4.3-0.7 0.5-2-0.2-2.8 0.3-0.8 0.4-0.7 1.6-1.4 2.1h1c-0.8-0.3-1-1.4-1.7-1.8-0.6-0.3-1.6-0.1-2.2 0-0.5-0.1-0.8-0.1-1.1 0.2-0.4 0.4-0.5 0.2-0.3-0.7-0.2-1.1-0.1-2.4-0.1-3.6 0-0.7-0.5-3-0.1-3.6 0.5-0.8 1.4-0.6 2.2-0.6 0.6 0 7-0.6 7-0.7 0.6 1.3 2.5 0.7 2.1-0.5z"/>
			<path class="st2" d="m233.5 157c0-0.3 0-0.6-0.2-0.7s-0.4-0.1-0.6-0.1c-5.4 0.3-10.8 0.6-16.2 1.1-0.4 0-0.8 0.4-0.8 0.8 0.1 4.7 0.2 9.5 0.4 14.2 0 0.3 0 0.7 0.3 0.9 0.2 0.2 0.5 0.2 0.7 0.2 1.9-0.1 3.7-0.1 5.6-0.2 0.8 0.9 1.5 1.8 2.3 2.7 0.2 0.3 0.7 0.3 0.9-0.1 0.6-0.9 1.2-1.9 1.7-2.9 1.7-0.1 3.4-0.3 5.1-0.4 0.6-0.1 1.1-0.6 1.1-1.2 0.1-4.9 0-9.6-0.3-14.3z"/>
				<path class="st3" d="m234.5 157c-0.3-2.6-3-1.8-5-1.6-2.3 0.1-4.6 0.3-6.8 0.4-1.9 0.1-4.7-0.1-6.5 0.5-2.7 0.9-1.4 5.6-1.4 7.6 0.1 2.4 0.1 4.7 0.2 7.1 0 0.8-0.1 2.2 0.6 2.8 0.8 0.7 2.2 0.4 3.1 0.4 1.1 0 2.3-0.3 3.4 0.2 1 0.4 1.3 1.5 2.1 2.1 2.5 1.6 2.8-1.9 4.6-2.8 2.1-1 5.1 0.8 5.9-2.3 0.5-2 0-4.6 0-6.7 0-2.6-0.1-5.2-0.2-7.7-0.1-1.3-2-1.3-2 0l0.3 9c0 1 0.4 2.9 0 3.8-1.2 3-3.2 0.9-5.2 1.9-0.8 0.4-1.3 2.3-1.9 2.5-1.3 0.3-1.6-1.6-2.5-2-0.5-0.3-1.1-0.1-1.6-0.1-1 0-2.4 0.3-3.3 0.1-1.2 0.4-1.6 0-1.2-1.3 0-0.6 0-1.3-0.1-1.9-0.1-2.7-0.5-5.7-0.2-8.4 0.2-2.2 0.7-2.5 2.8-2.7 1.4-0.1 2.9-0.2 4.3-0.3 1-0.1 8.6-0.5 8.6-0.7 0.2 1.3 2.2 1.3 2 0.1z"/>
			<path class="st2" d="m315.1 231.4c0-0.3-0.1-0.7-0.3-0.9s-0.5-0.2-0.8-0.1c-6.9 0.4-13.7 0.8-20.6 1.3-0.6 0-1 0.5-1 1.1 0.1 6.1-0.1 7.7 0.2 13.7 0 0.4 0.1 0.9 0.4 1.1s0.6 0.2 0.9 0.2c2.4-0.1 4.7-0.2 7.1-0.3 1 1.2 1.9 2.3 2.9 3.4 0.3 0.4 0.9 0.3 1.2-0.1 0.8-1.2 1.5-2.4 2.1-3.8 2.2-0.2 4.3-0.3 6.5-0.5 0.8-0.1 1.4-0.7 1.4-1.6 0.1-6 0.3-7.5 0-13.5z"/>
				<path class="st3" d="m316.1 231.4c-0.5-3.5-5.5-1.9-7.9-1.7-2.8 0.2-5.6 0.3-8.4 0.5-1.9 0.1-5.2-0.2-6.9 0.6-2.7 1.2-1.4 6.3-1.5 8.8 0 2-0.9 7.4 1 8.8 1.1 0.8 3.2 0.3 4.4 0.2 1.4-0.1 2.9-0.5 4.2 0.4 0.9 0.6 1.3 1.9 2.2 2.6 2.8 2 3.4-2.7 5.3-3.6 2.7-1.3 6.8 1.1 7.6-3 0.4-2.1 0.1-4.6 0.1-6.8 0.1-2.3 0-4.6-0.1-6.8-0.1-1.3-2-1.3-2 0 0.1 2.7 0.2 5.3 0.1 8 0 1.2 0.2 2.7-0.1 3.8-0.7 2.8-3.3 2.6-5.7 2.8-0.7 0.1-1.4-0.1-2 0.4-0.9 0.8-0.8 3-2.2 3-1.3 0-1.7-2.2-2.8-2.7-0.9-0.4-2-0.1-3-0.1-0.9 0-4.1 0.7-4.7 0.2-0.8-0.6-0.4-2.8-0.4-3.7-0.1-2.5 0-5 0-7.5 0-2.7 1.4-3.1 3.8-3.2 1.7-0.1 3.4-0.2 5.2-0.4 0.9-0.1 11.7-0.9 11.7-0.6 0.3 1.2 2.3 1.2 2.1 0z"/>
			<path class="st2" d="m291.5 266.7c0-0.2 0-0.4-0.2-0.5-0.1-0.1-0.3-0.1-0.4-0.1-3.4 0.2-6.8 0.4-10.3 0.7-0.3 0-0.5 0.3-0.5 0.5 0 3-0.1 3.8 0.1 6.8 0 0.2 0 0.4 0.2 0.5 0.1 0.1 0.3 0.1 0.5 0.1 1.2 0 2.4-0.1 3.5-0.2 0.5 0.6 1 1.1 1.5 1.7 0.2 0.2 0.5 0.2 0.6 0 0.4-0.6 0.8-1.2 1.1-1.9 1.1-0.1 2.2-0.2 3.2-0.3 0.4 0 0.7-0.4 0.7-0.8 0.1-2.7 0.2-3.5 0-6.5z"/>
				<path class="st3" d="m292.5 266.5c-0.1-0.2-0.1-0.3-0.2-0.5-0.1-0.3-0.3-0.6-0.7-0.7-1.8-0.3-3.9 0.1-5.8 0.2-1.6 0.1-3.9-0.1-5.4 0.4-2 0.7-1.2 4.6-1.2 6.2 0 0.9-0.2 2.3 0.4 3.1 1 1.2 2.7 0.1 4 0.5 1 0.3 1.5 1.8 2.6 1.8 1.2 0 1.8-1.7 2.2-2.5-0.3 0.2-0.6 0.3-0.8 0.5 1.6-0.1 4.4 0.3 4.9-1.8s0.1-4.9 0-7c-0.1-1.3-2-1.3-2 0 0.1 1.4 0.7 5.8-0.5 6.6-0.7 0.5-2-0.2-2.8 0.3-0.8 0.4-0.7 1.7-1.5 2.1h1c-0.8-0.3-1-1.4-1.8-1.8-0.6-0.3-1.7-0.2-2.3 0-0.6-0.1-1 0-1.4 0.4v-1.5-2.2c0-0.5-0.2-2 0-2.4 0.5-0.8 2.1-0.5 2.9-0.6 2.1-0.1 4.9-0.8 7-0.4l-0.7-0.7c0.1 0.2 0.1 0.3 0.2 0.5 0.4 1.2 2.3 0.7 1.9-0.5z"/>
			<path class="st2" d="m213.4 202.2c0-0.2 0-0.4-0.2-0.5-0.1-0.1-0.3-0.1-0.4-0.1-3.4 0.2-6.8 0.4-10.3 0.7-0.3 0-0.5 0.3-0.5 0.5 0 3-0.1 3.8 0.1 6.8 0 0.2 0 0.4 0.2 0.5 0.1 0.1 0.3 0.1 0.5 0.1 1.2 0 2.4-0.1 3.5-0.2 0.5 0.6 1 1.1 1.5 1.7 0.2 0.2 0.5 0.2 0.6 0 0.4-0.6 0.8-1.2 1.1-1.9 1.1-0.1 2.2-0.2 3.2-0.3 0.4 0 0.7-0.4 0.7-0.8 0-2.7 0.1-3.5 0-6.5z"/>
				<path class="st3" d="m214.3 202c-0.1-0.2-0.1-0.3-0.2-0.5-0.1-0.3-0.3-0.6-0.7-0.7-1.8-0.3-3.9 0.1-5.8 0.2-1.6 0.1-3.9-0.1-5.4 0.4-2 0.7-1.2 4.6-1.2 6.2 0 0.9-0.2 2.3 0.4 3.1 1 1.2 2.7 0.1 4 0.5 1 0.3 1.5 1.8 2.6 1.8 1.2 0 1.8-1.7 2.2-2.5-0.3 0.2-0.6 0.3-0.8 0.5 1.6-0.1 4.4 0.3 4.9-1.8s0.1-4.9 0-7c-0.1-1.3-2-1.3-2 0 0.1 1.4 0.7 5.8-0.5 6.6-0.7 0.5-2-0.2-2.8 0.3-0.8 0.4-0.7 1.7-1.5 2.1h1c-0.8-0.3-1-1.4-1.8-1.8-0.6-0.3-1.7-0.2-2.3 0-0.6-0.1-1 0-1.4 0.4v-1.5-2.2c0-0.5-0.2-2 0-2.4 0.5-0.8 2.1-0.5 2.9-0.6 2.1-0.1 4.9-0.8 7-0.4l-0.7-0.7c0.1 0.2 0.1 0.3 0.2 0.5 0.4 1.2 2.3 0.7 1.9-0.5z"/>
			<path class="st2" d="m262.2 362.8c0-0.2 0-0.5-0.2-0.7-0.2-0.1-0.4-0.1-0.6-0.1-4.9 0.3-9.8 0.6-14.8 1-0.4 0-0.7 0.4-0.7 0.8 0.1 4.3-0.1 5.5 0.1 9.8 0 0.3 0 0.6 0.3 0.8 0.2 0.1 0.4 0.1 0.7 0.1 1.7-0.1 3.4-0.1 5.1-0.2 0.7 0.8 1.4 1.6 2.1 2.5 0.2 0.3 0.6 0.2 0.8 0 0.6-0.9 1.1-1.7 1.5-2.7 1.5-0.1 3.1-0.2 4.6-0.4 0.6-0.1 1-0.5 1-1.1 0.2-4.4 0.3-5.5 0.1-9.8z"/>
				<path class="st3" d="m263.2 362.5c-0.1-0.2-0.2-0.4-0.2-0.7-0.1-0.3-0.3-0.6-0.7-0.7-3.3-0.6-7.3 0.2-10.7 0.5-1.8 0.1-5.3-0.5-6.4 1.3-1 1.6-0.2 5.7-0.2 7.6 0 1.7-0.5 4 1.4 4.8 1.6 0.6 3.4-0.5 5 0.2 1.1 0.5 1.6 2.1 2.8 2.3 2 0.3 2.3-2.5 4.1-3 1.9-0.5 4.4 0.3 4.9-2.2 0.6-3 0.2-6.8 0-9.8-0.1-1.3-2-1.3-2 0 0.1 2 0.1 4.1 0.1 6.1 0 1.5 0.4 3-1.3 3.8-0.9 0.5-2.5-0.2-3.5 0.3-0.8 0.4-1.3 2.2-1.8 2.3-1 0.3-1.3-1.4-1.9-1.7s-0.6-0.2-1.3-0.3c-1.1-0.1-2.8 0.6-3.8 0.2-0.8 0.3-1-0.1-0.7-1.1v-1.9c0-1.5-0.2-3.3 0-4.8 0.4-2.8 3.4-2.2 5.8-2.3 0.9-0.1 8.3-0.9 8.5-0.5 0.4 1.3 2.3 0.8 1.9-0.4z"/>
			<path class="st2" d="m213.9 261.1c0-0.2 0-0.5-0.2-0.6-0.1-0.1-0.3-0.1-0.5-0.1-4.4 0.2-8.7 0.5-13.1 0.9-0.4 0-0.6 0.3-0.6 0.7 0.1 3.8-0.1 4.9 0.1 8.7 0 0.3 0 0.5 0.2 0.7 0.2 0.1 0.4 0.1 0.6 0.1 1.5-0.1 3-0.1 4.5-0.2 0.6 0.7 1.2 1.4 1.8 2.2 0.2 0.2 0.6 0.2 0.7 0 0.5-0.8 1-1.5 1.4-2.4 1.4-0.1 2.7-0.2 4.1-0.3 0.5 0 0.9-0.5 0.9-1 0.1-3.9 0.3-4.9 0.1-8.7z"/>
				<path class="st3" d="m214.8 260.8c-0.1-0.2-0.1-0.4-0.2-0.6-0.1-0.3-0.3-0.6-0.7-0.7-3-0.5-6.5 0.2-9.5 0.4-1.6 0.1-4.8-0.4-5.7 1.3-0.9 1.5-0.2 5.1-0.2 6.8 0 1.6-0.4 3.7 1.3 4.3 1.4 0.5 3.1-0.4 4.5 0.1 1 0.4 1.4 1.8 2.5 2 1.9 0.3 2.1-2.2 3.6-2.6 1.8-0.5 4 0.3 4.4-2.1 0.5-2.7 0.1-6 0-8.7-0.1-1.3-2-1.3-2 0 0.1 1.8 0.1 3.6 0.1 5.4 0 1.2 0.3 2.5-1 3.3-0.8 0.5-2.2-0.2-3.1 0.2-0.6 0.3-1.5 2.1-1.7 2.1-0.7 0.1-1-1.3-1.6-1.6-0.5-0.3-0.6-0.2-1.3-0.3-0.9-0.1-2.5 0.5-3.3 0.2-0.6 0.3-0.8 0-0.5-0.9v-1.6c0-1.3-0.2-2.9 0-4.2 0.3-2.4 3-1.8 5.1-1.9 0.8-0.1 7.3-0.7 7.4-0.5 0.5 1.3 2.3 0.8 1.9-0.4z"/>
			<path class="st2" d="m179.5 346.7c0-0.2 0-0.4-0.2-0.5-0.1-0.1-0.3-0.1-0.4-0.1-3.8 0.2-7.5 0.4-11.3 0.7-0.3 0-0.5 0.3-0.5 0.6 0.1 3.3-0.1 4.2 0.1 7.5 0 0.2 0 0.5 0.2 0.6 0.1 0.1 0.3 0.1 0.5 0.1 1.3 0 2.6-0.1 3.9-0.2 0.5 0.6 1.1 1.2 1.6 1.9 0.2 0.2 0.5 0.2 0.6 0 0.4-0.7 0.8-1.3 1.2-2.1 1.2-0.1 2.4-0.2 3.5-0.3 0.4 0 0.8-0.4 0.8-0.9 0.1-3.2 0.2-4 0-7.3z"/>
				<path class="st3" d="m180.5 346.5c-0.1-0.2-0.1-0.3-0.2-0.5-0.1-0.3-0.3-0.6-0.7-0.7-2.6-0.5-5.6 0.2-8.2 0.3-1.5 0.1-4.2-0.3-5.1 1.2-0.8 1.3-0.2 4.4-0.2 5.9 0 1.4-0.3 3.3 1.2 3.9 1.2 0.4 2.6-0.4 3.8 0.1 0.9 0.4 1.1 1.5 2.1 1.7 1.7 0.3 1.9-1.8 3.2-2.2 1.6-0.5 3.5 0.3 4-1.9 0.4-2.3 0.1-5.2 0-7.5-0.1-1.3-2-1.3-2 0 0.1 1.5 0.8 6.5-0.7 7.4-0.8 0.5-2.2-0.2-3 0.3s-0.8 1.8-1.6 2.3h1c-0.9-0.4-1.1-1.6-1.9-2-0.6-0.3-1.8-0.1-2.4 0-0.6-0.1-1.2 0-1.7 0.3 0-0.5 0-1.1-0.1-1.6v-2.4c0-0.6-0.3-2.1 0-2.6 0.5-1 2.3-0.7 3.3-0.7 0.6 0 7.2-0.6 7.2-0.6 0.5 1 2.4 0.4 2-0.7z"/>
			<path class="st2" d="m161 249.6c0-0.2 0-0.4-0.2-0.5-0.1-0.1-0.3-0.1-0.4-0.1-3.8 0.2-7.5 0.4-11.3 0.7-0.3 0-0.5 0.3-0.5 0.6 0.1 3.3-0.1 4.2 0.1 7.5 0 0.2 0 0.5 0.2 0.6 0.1 0.1 0.3 0.1 0.5 0.1 1.3 0 2.6-0.1 3.9-0.2 0.5 0.6 1.1 1.2 1.6 1.9 0.2 0.2 0.5 0.2 0.6 0 0.4-0.7 0.8-1.3 1.2-2.1 1.2-0.1 2.4-0.2 3.5-0.3 0.4 0 0.8-0.4 0.8-0.9 0-3.2 0.2-4 0-7.3z"/>
				<path class="st3" d="m162 249.3c-0.1-0.2-0.1-0.3-0.2-0.5-0.1-0.3-0.3-0.6-0.7-0.7-2.6-0.5-5.6 0.2-8.2 0.3-1.5 0.1-4.2-0.3-5.1 1.2-0.8 1.3-0.2 4.4-0.2 5.9 0 1.4-0.3 3.3 1.2 3.9 1.2 0.4 2.6-0.4 3.8 0.1 0.9 0.4 1.1 1.5 2.1 1.7 1.7 0.3 1.9-1.8 3.2-2.2 1.6-0.5 3.5 0.3 4-1.9 0.4-2.3 0.1-5.2 0-7.5-0.1-1.3-2-1.3-2 0 0.1 1.5 0.8 6.5-0.7 7.4-0.8 0.5-2.2-0.2-3 0.3s-0.8 1.8-1.6 2.3h1c-0.9-0.4-1.1-1.6-1.9-2-0.6-0.3-1.8-0.1-2.4 0-0.6-0.1-1.2 0-1.7 0.3 0-0.5 0-1.1-0.1-1.6v-2.4c0-0.6-0.3-2.1 0-2.6 0.5-1 2.3-0.7 3.3-0.7 0.6 0 7.2-0.6 7.2-0.6 0.5 1 2.4 0.5 2-0.7z"/>
			<path class="st2" d="m172.6 294.3c0-0.2 0-0.4-0.2-0.5-0.1-0.1-0.3-0.1-0.5-0.1-4 0.2-5.7 0.3-9.6 0.6-0.3 0-0.6 0.3-0.6 0.6 0.1 3.5-0.1 4.4 0.1 7.9 0 0.2 0 0.5 0.2 0.6 0.1 0.1 0.4 0.1 0.5 0.1h2.7c0.6 0.7 1.1 1.3 1.7 2 0.2 0.2 0.5 0.2 0.7 0 0.5-0.7 0.9-1.4 1.2-2.2 1.2-0.1 1.7-0.2 2.9-0.3 0.5 0 0.8-0.4 0.8-0.9 0.1-3.5 0.2-4.4 0.1-7.8z"/>
				<path class="st3" d="m173.5 294.3c-0.1-1-0.5-1.4-1.5-1.6-1.9-0.3-4.3 0.2-6.3 0.4-1.3 0.1-3.6-0.3-4.6 0.7-0.9 1-0.4 3.3-0.4 4.5 0 1.5-0.3 3.5 0.1 5 0.4 1.2 1.2 1.2 2.3 1.2 1 0 1.4-0.1 2.2 0.7 0.5 0.5 0.8 1.3 1.6 1.4 1.5 0.2 2.2-1.8 2.7-2.8-0.3 0.2-0.6 0.3-0.8 0.5 1.7-0.1 4.2 0.1 4.7-1.9 0.6-2.4 0.1-5.7 0-8.1-0.1-1.3-2-1.3-2 0 0.1 1.2 0.1 2.4 0.1 3.6 0 1.1 0.3 3-0.4 3.8-0.8 0.9-1.9 0.2-2.8 0.7s-0.8 1.9-1.7 2.4h1c-0.9-0.4-1.2-1.8-2.1-2.2-0.5-0.2-1.2-0.1-1.7-0.1 0 0-1.2 0.2-1.1 0.2-0.1-0.1 0-1.3-0.1-1.6v-2.7c0-0.8-0.2-1.7 0-2.5 0.3-1.3 1.6-1 2.7-1.1 0.7-0.1 6.2-0.2 6.2-0.8 0.1 1.5 2.1 1.5 1.9 0.3z"/>
</svg>
