<?xml version="1.0" encoding="UTF-8" standalone="no"?>
<!-- Generator: Adobe Illustrator 21.0.0, SVG Export Plug-In . SVG Version: 6.00 Build 0)  -->
<svg id="Layer_1" style="enable-background:new 0 0 559 520" xmlns="http://www.w3.org/2000/svg" xml:space="preserve" viewBox="0 0 559 520" version="1.1" y="0px" x="0px" xmlns:xlink="http://www.w3.org/1999/xlink">
<style type="text/css">
	.st0{fill:#CFEBF6;}
	.st1{fill:#ACD5E5;}
	.st2{fill:#432918;}
	.st3{fill:#191919;}
	.st4{fill:#2C9356;}
	.st5{fill:#F5F7F7;}
	.st6{fill:#4E7F92;}
</style>
<path class="st0" d="m141.8 252.2m83.3-115.4c-0.7 0.4-1.4 0.7-2.1 1.1-31.8 16.7-59.7 42.7-78.4 81.8-3.2 6.7-6.1 13.9-6.9 23.1-0.6 7.6 0.4 16.9 3.6 25.8 0.2 24.8 5.1 53.2 18.7 78.1 16.7 30.7 42.2 47.5 61.9 48.2 10.8 0.4 20.4-3.2 29.8-6.9 31.3-12.2 62.1-25.8 92.3-40.5 2.9-1.4 5.9-2.9 8.8-4.4 20-10.2 39.3-21.9 54.3-41.5 6.5-8.4 12.1-18.4 20-24.4 6.4-4.9 14.1-7.3 19.5-13.9 4.6-5.7 7.3-14.2 9.1-23.6 2.1-11.4 2.8-24.4 0.3-38.8s-8.6-30.3-17.3-41.9c-8.4-11.2-18.3-17.1-27.1-27.3-5.6-6.4-10.7-14.6-16.6-19.4-6.2-5.1-12.2-5.8-17.8-6.2-17.2-1-33.8 0.6-50.1 2.6-35.8 4.9-70.8 12.2-102 28.1"/>
<path class="st1" d="m241.6 266c-1.2-1.4-3.1-2.3-5.3-2-13.5 1.4-26.9 4.3-40.4 5.5-6.2 0.6-21.3 0.9-24.1 8.7-0.2-0.2-0.6-0.4-1.3-0.4-5.3-2.8-13.4 2.9-9.3 8.8 1.6 2.4 3.1 4.7 4.5 7.2-0.4 7.8 1.7 15.6 1.2 23.8-1.2 1.8-1.4 4.2 0 7.7 0.8 2 2.2 3.1 3.8 3.6 0.9 0.9 2.1 1.4 3.6 1.6 11.1 1 21.1-3.9 31.9-5.1 11.5-1.3 22.9-1.9 34.3-3.9 4-0.7 7.4-1.8 9.9-3.6 4.3 4 13.2 1.4 11.4-5.6-1.4-5.2-2-10.1-4.6-14.9-1.1-2-1.8-3.5-2.5-5.1-0.5-7.7-1.5-15.3-3.7-22.9-1.1-3.9-6.1-5.2-9.4-3.4m-29.9 35.2c0.1-0.2 0.2-0.4 0.4-0.7s0.4-0.6 0.7-0.9c0.2 0.7 0.5 1.4 0.8 2.1h-0.1c-0.7-0.2-1.2-0.3-1.8-0.5m-26.2 6c1.2 0.1 2.5 0.2 3.7 0.2l-0.5 0.5c-0.6 0.8-1.5 1.4-2.5 1.9-0.2-0.9-0.4-1.8-0.7-2.6"/>
<path class="st2" d="m161.6 298.4c0.7 4.9 0.9 9.9 1.7 14.9 0.4 2.7 1.1 5.4 1.1 8.1 0 2-0.1 4 0 6 0.1 2.2 0.7 4.8 2.8 5.9-0.1 0.8 0.4 1.6 1.4 1.5 20.5-3.1 40.4-9.1 60.9-12 6.2-0.9 12.3-1.4 18.5-2.5 2.8-0.5 5.6-0.9 8.5-1.3 1.4-0.2 3.9-0.8 5.2-0.5 0.8 0.2 1.5-0.9 1.1-1.6-0.1-0.2-0.3-0.4-0.5-0.5l0.2-0.2c0.3-0.3 0.5-0.7 0.4-1.3-1.6-8.5-3.4-17.1-4.4-25.7-0.9-8.4-1.2-16.8-2.7-25.2 0-0.2-0.1-0.4-0.2-0.5 0.1-0.9-0.4-1.9-1.5-1.7-15.7 2.8-31.6 2.8-47.3 5.4-16 2.7-31.9 6.5-47.7 10.2-0.7 0.2-1.1 1.1-0.8 1.7 0.1 0.2 0.2 0.4 0.4 0.6v0.2c0.7 5.3 1.7 10.5 2.6 15.7 0.1 0.3 0.1 0.6 0.1 0.9-0.1-0.1-0.2-0.3-0.3-0.4m6.2 25.2c0.1-3.9-1.2-7.8-1.6-11.6-0.3-2.1 0.1-4.7-0.3-6.8-0.5-2.6-1-5.2-1.4-7.8-0.9-4.8-1.7-9.5-2.8-14.3 7 4.6 16.4 5 24 8.3 4.3 1.9 9.2 3.2 13.4 5.4-6.5 6.7-13.1 13.2-19.2 20.2-3.9 4.4-10.3 9.8-11.1 15.9-1.8-2.6-1.1-6.5-1-9.3m81.2-4.1c-6 1-11.8 1.7-17.8 2.4-20.7 2.6-41.1 7.9-61.4 12.4 0.3-0.1 0.6-0.3 0.7-0.6 2.3-6.4 8.7-12 13.3-17 5.3-5.9 11.1-11.3 16.5-17.1 0.4 0.1 0.8-0.1 1-0.4l0.1-0.1c0.2-0.3 0.2-0.5 0.3-0.9 2.4 1.6 5.9 4.1 8.9 4.1 1.9 2.2 4.7 1.1 7.2 0.3 0.3-0.1 0.5-0.3 0.6-0.5 0.4-0.1 0.9-0.4 0.9-0.9 0.3-2.8 3.4-4.7 6.1-6.4 0.3 0 0.8-0.2 0.9-0.5v-0.1c2.7 0.9 18.5 11.2 19.7 12 2.8 1.9 5.2 4.9 7.7 7.1 1.8 1.6 3.8 3.1 5.9 4.3-3.7 0.1-8.7 1.6-10.6 1.9m7-27.7c0.8 7.6 2.3 15.1 3.7 22.5-5.7-3.8-10.2-9.2-15.9-13.1-3.1-2.1-6.2-4.1-9.4-5.9-1.6-0.9-3.5-2.2-5.5-3 3.3-2.4 6.7-4.7 9.9-7.2 2.9-2.2 5.2-5 7.7-7.6 2.4-2.5 5.2-4.5 7.7-6.8 0.8 7.1 1.1 14.1 1.8 21.1m-2.4-23.8c-2.3 0.4-4.2 2.5-5.9 4-2.8 2.6-5.3 5.5-7.9 8.3-3.2 3.6-7.8 6.2-11.7 9-1.1 0.8-2.2 1.6-3.2 2.3h-0.1c-0.7 0-1.2 0.5-1.4 1.1-2.2 1.7-4.4 3.3-6.5 5.2-0.4 0.3-0.6 0.8-0.5 1.3 0.1 0.4 0.1 0.7 0.2 0.9-1.4 0.3-3.4 1.5-4.4 0.4-0.3-0.4-0.7-0.5-1.1-0.4-2.8-1.9-6.3-3-9.1-4.8-3.4-2.3-7.8-3.2-11.6-4.7-3.8-1.6-7.6-3.8-11.7-4.6-5.2-1-10.6-2.1-15.5-4.3 14.8-2.5 29.3-6.6 44.1-9.3 15.2-2.7 30.8-2.6 46.1-5.1 0.2 0.1 0.2 0.4 0.2 0.7"/>
<path class="st2" d="m242.1 249.3c-3-7.9-5.3-16-8.8-23.7-0.1-0.2-0.2-0.3-0.3-0.4-0.1-0.9-0.9-1.7-1.9-1.2-14.5 6.6-30 10.5-44.5 16.8-14.8 6.5-29.3 14.2-43.7 21.6-0.6 0.3-0.8 1.3-0.4 1.9 0.2 0.2 0.3 0.4 0.5 0.5v0.2c1.9 4.9 4.2 9.7 6.4 14.5 0.1 0.3 0.2 0.6 0.4 0.9-0.1-0.1-0.2-0.2-0.4-0.3l1.1 2.2c1.9 4.6 3.4 9.4 5.3 14 1 2.5 2.4 4.9 3.1 7.6 0.5 2 0.9 3.9 1.4 5.9 0.6 2.1 1.9 4.5 4.2 5 0 0.3 0.2 0.6 0.4 0.9-0.3-1.2-0.4-2.5-0.5-3.8v-0.3c-1.9-2.1-2.2-5.8-2.8-8.4-0.9-3.8-3-7.3-4.5-10.9-0.8-1.9-1.1-4.6-2-6.5l-3.3-7.2c-2-4.4-4-8.8-6.2-13.1 8 2.8 17.1 0.8 25.3 2.1 4.6 0.7 9.7 0.8 14.3 1.9-0.9 1.6-1.8 3.2-2.8 4.8 1-0.6 2.1-1 3.3-1.1 0.3 0 0.4-0.1 0.5-0.1h0.3c0.2-0.4 0.4-0.7 0.6-1.1 0.4 0 0.7-0.3 0.9-0.6l0.1-0.1c0.1-0.3 0.1-0.6 0-0.9 1.3 0.4 2.8 1 4.3 1.4 0.5-0.3 1-0.5 1.5-0.7 0.5-0.1 1-0.1 1.6-0.2 0.6 0 1.2 0.1 1.8 0.3 2.6-0.4 5.3-0.8 7.9-1 0 0 0-0.1 0.1-0.1 0.4-0.2 0.7-0.6 0.7-1.1-0.4-2.8 2.2-5.4 4.3-7.7 0.3 0 0.7-0.3 0.7-0.7v-0.1c2.4 0.1 15.3 4.5 20.2 6.1 1.1-0.3 2.2-0.7 3.3-1 0.4-0.1 0.7-0.1 1.1-0.2-1.9-1-3.8-1.9-5.8-2.6-3.5-1.3-7-2.4-10.6-3.4-1.8-0.5-4-1.2-6.1-1.5 2.6-3.1 5.3-6.2 7.8-9.4 2.3-2.9 3.8-6.1 5.5-9.3 1.7-3 3.9-5.6 5.8-8.5 2.6 6.5 4.6 13.3 7 19.9 1.7 4.7 3.8 9.4 5.9 14 1-0.1 2.1-0.2 3.2-0.3-2.1-5.1-4.3-10-6.2-15zm-15.6-16.1c-2.1 3.2-3.8 6.6-5.6 10-2.2 4.2-6 7.9-9.1 11.6-0.9 1-1.7 2-2.6 3.1h-0.1c-0.7 0.2-1.1 0.8-1.1 1.4-1.8 2.2-3.5 4.3-5.1 6.6-0.3 0.4-0.4 0.9-0.2 1.4 0.2 0.4 0.3 0.6 0.4 0.9-1.3 0.6-2.9 2.3-4.2 1.5-0.4-0.3-0.8-0.3-1.1-0.1-3.1-1.1-6.8-1.3-10-2.5-3.9-1.3-8.3-1.1-12.4-1.7s-8.3-1.8-12.5-1.5c-5.3 0.3-10.8 0.6-16-0.4 13.7-6.1 26.8-13.6 40.5-19.8 14.1-6.4 29.2-10.1 43.4-16.3 0.1 0.3 0.2 0.5 0.3 0.8-2 0.7-3.3 3.1-4.6 5z"/>
<path class="st2" d="m154.8 285.8c-0.3-0.8-0.7-1.5-1-2.2-1.7-3.5-4.5-6.4-6.7-9.6-1.2-1.7-2-4.3-3.3-6l-4.8-6.3c-2.9-3.9-5.8-7.7-8.9-11.5 8.4 1 16.9-2.9 25.2-3.4 4.7-0.3 9.6-1.3 14.4-1.2-0.6 2.1-1.3 4.1-2 6.2 1.2-1.1 2.6-2.1 4-3l0.3-1.2c0.4-0.1 0.7-0.4 0.7-0.8v-0.2c0.1-0.3 0-0.6-0.2-0.9 1.2 0.1 2.5 0.3 3.9 0.4 1.5-0.7 3.1-1.3 4.6-1.9 2.8-1.1 5.6-2.1 8.5-2.9 0.1-0.3 0.2-0.6 0.1-0.9-0.9-2.6 0.9-5.8 2.5-8.4 0.3-0.1 0.6-0.5 0.6-0.8v-0.1c2.2-0.4 14.2 0.9 20 1.5 1.5-0.9 3.1-1.6 4.7-2-1.9-0.5-3.9-0.9-5.8-1.1-3.7-0.5-7.4-0.8-11.1-1-1.9-0.1-4.1-0.3-6.3-0.2 1.9-3.6 3.8-7.2 5.6-10.9 1.6-3.3 2.4-6.8 3.4-10.3 1-3.3 2.6-6.3 3.8-9.5 4 5.8 7.4 12 11.2 17.9 2.7 4.2 5.7 8.3 8.8 12.3 0.7-0.7 1.7-1.3 2.6-1.6-3.1-4.1-6.2-8.2-9-12.5-4.6-7.1-8.6-14.5-13.7-21.3-0.1-0.2-0.3-0.3-0.4-0.4-0.3-0.9-1.2-1.5-2.1-0.8-12.7 9.6-27 16.7-39.8 26.1-13.1 9.6-25.6 20.2-38 30.5-0.5 0.4-0.5 1.5 0 1.9 0.2 0.2 0.4 0.3 0.6 0.4l0.1 0.2c3 4.4 6.2 8.6 9.4 12.8 0.2 0.3 0.4 0.5 0.5 0.8-0.1-0.1-0.3-0.1-0.4-0.2l1.6 1.9c2.8 4.1 5.3 8.4 8.2 12.5 1.6 2.2 3.4 4.3 4.7 6.7 0.9 1.8 1.7 3.7 2.7 5.4 0.4 0.7 0.9 1.4 1.5 2.1-0.9-2.1-1-4.3-0.7-6.5zm11.3-65.9c12.4-9.3 26.4-16.2 38.8-25.3 0.2 0.2 0.3 0.4 0.5 0.7-1.9 1.4-2.6 4.1-3.4 6.2-1.4 3.6-2.3 7.3-3.3 11-1.3 4.6-4.1 9.1-6.4 13.3-0.6 1.2-1.2 2.4-1.8 3.5h-0.1c-0.6 0.4-0.9 1-0.8 1.6-1.3 2.5-2.5 5-3.5 7.6-0.2 0.4-0.2 1 0.1 1.4 0.3 0.3 0.4 0.5 0.6 0.7-1.1 0.9-2.3 2.9-3.8 2.3-0.5-0.2-0.9-0.1-1.1 0.1-3.3-0.4-6.9 0.2-10.3-0.2-4.1-0.5-8.4 0.7-12.5 1s-8.5 0.1-12.5 1.2c-5.1 1.4-10.5 2.9-15.8 3.1 12.2-9 23.3-19.2 35.3-28.2z"/>
	<path class="st1" d="m329.6 214.7c-0.3-0.4-0.7-0.6-1.2-0.6-3.2 0.1-6.5 0.6-9.7 0.6-1.5 0-5.1-0.1-5.9 1.7 0-0.1-0.1-0.1-0.3-0.1-1.2-0.8-3.2 0.5-2.3 1.9 0.4 0.6 0.7 1.2 1 1.8-0.2 1.8 0.1 3.7-0.1 5.6-0.3 0.4-0.4 1-0.1 1.8 0.2 0.5 0.5 0.8 0.9 0.9 0.2 0.2 0.5 0.4 0.8 0.4 2.6 0.4 5.1-0.6 7.7-0.7 2.8-0.1 5.5-0.1 8.2-0.4 1-0.1 1.8-0.3 2.4-0.7 1 1 3.1 0.5 2.8-1.1-0.2-1.2-0.3-2.4-0.9-3.6-0.2-0.5-0.4-0.8-0.5-1.2 0-1.8-0.1-3.7-0.5-5.5-0.3-0.8-1.5-1.2-2.3-0.8m-7.7 7.8s0.1-0.1 0.1-0.2l0.2-0.2c0 0.2 0.1 0.3 0.2 0.5-0.2 0-0.3 0-0.5-0.1m-6.3 1c0.3 0 0.6 0.1 0.9 0.1l-0.1 0.1c-0.2 0.2-0.4 0.3-0.6 0.4-0.1-0.2-0.1-0.4-0.2-0.6"/>
	<path class="st2" d="m310.1 221c0.1 1.2 0.1 2.4 0.2 3.5 0 0.6 0.2 1.3 0.1 1.9 0 0.5-0.1 1-0.1 1.4 0 0.5 0.1 1.2 0.6 1.4 0 0.2 0.1 0.4 0.3 0.4 4.9-0.4 9.7-1.5 14.7-1.9 1.5-0.1 3-0.1 4.4-0.3 0.7-0.1 1.4-0.1 2-0.2 0.3 0 0.9-0.1 1.2 0 0.2 0.1 0.4-0.2 0.3-0.4 0-0.1-0.1-0.1-0.1-0.1 0.1-0.1 0.1-0.2 0.1-0.3-0.2-2-0.5-4.1-0.6-6.2-0.1-2 0-4-0.2-6v-0.1c0-0.2-0.1-0.5-0.3-0.4-3.8 0.4-7.6 0.1-11.3 0.5-3.8 0.4-7.7 1-11.5 1.6-0.2 0-0.3 0.2-0.2 0.4 0 0.1 0 0.1 0.1 0.2v0.1c0.1 1.3 0.2 2.5 0.4 3.8v0.2s0-0.1-0.1-0.1m0.9 6.2c0.1-0.9-0.1-1.9-0.2-2.8 0-0.5 0.1-1.1 0-1.6-0.1-0.6-0.1-1.2-0.2-1.9-0.1-1.1-0.3-2.3-0.4-3.4 1.6 1.2 3.8 1.5 5.6 2.4 1 0.5 2.1 0.9 3.1 1.5-1.6 1.5-3.3 2.9-4.9 4.5-1 1-2.6 2.1-2.9 3.6-0.3-0.8-0.1-1.7-0.1-2.3m19.4 0.3c-1.4 0.1-2.8 0.2-4.3 0.3-4.9 0.3-9.9 1.2-14.8 1.9 0.1 0 0.1 0 0.2-0.1 0.7-1.5 2.3-2.7 3.4-3.8 1.4-1.3 2.8-2.5 4.2-3.8 0.1 0 0.2 0 0.2-0.1s0.1-0.1 0.1-0.2c0.5 0.4 1.3 1.1 2.1 1.1 0.4 0.6 1.1 0.3 1.7 0.2 0.1 0 0.1-0.1 0.2-0.1s0.2-0.1 0.2-0.2c0.1-0.6 0.9-1.1 1.5-1.4 0.1 0 0.2 0 0.2-0.1 0.6 0.2 4.2 3 4.5 3.2 0.6 0.5 1.1 1.2 1.7 1.8 0.4 0.4 0.9 0.8 1.3 1.1-0.7-0.1-1.9 0.2-2.4 0.2m2.1-6.4c0.1 1.8 0.3 3.6 0.5 5.4-1.3-1-2.3-2.4-3.6-3.4-0.7-0.5-1.4-1.1-2.1-1.6-0.4-0.2-0.8-0.6-1.3-0.8 0.8-0.5 1.7-1 2.5-1.5 0.7-0.5 1.3-1.1 1.9-1.7s1.3-1 1.9-1.5c0.2 1.7 0.2 3.4 0.2 5.1m-0.1-5.7c-0.6 0.1-1 0.5-1.5 0.8-0.7 0.6-1.4 1.2-2 1.8-0.8 0.8-1.9 1.3-2.9 1.9-0.3 0.2-0.5 0.3-0.8 0.5-0.2 0-0.3 0.1-0.3 0.2-0.6 0.4-1.1 0.7-1.6 1.1-0.1 0.1-0.2 0.2-0.1 0.3v0.2c-0.3 0-0.8 0.3-1.1 0-0.1-0.1-0.2-0.1-0.3-0.1-0.6-0.5-1.4-0.8-2.1-1.3-0.8-0.6-1.8-0.9-2.7-1.3s-1.8-1-2.7-1.3c-1.2-0.3-2.5-0.7-3.6-1.3 3.6-0.4 7.1-1.1 10.6-1.5 3.7-0.4 7.4-0.1 11-0.5 0 0.4 0 0.4 0.1 0.5"/>
	<path class="st1" d="m331 189.1v-0.2l0.5-0.5-0.5 0.3v-0.2h0.1l-0.1-0.2c-0.1-0.9-0.5-1.7-1.2-2.3h-0.1c0.1-0.1 0.1-0.1 0.1-0.2l0.1-0.2-0.2 0.1c-0.1 0-0.2 0.1-0.3 0.1l0.3-0.2h-0.4-0.2c-0.1 0-0.1-0.1-0.2-0.1l0.2-0.2-0.3 0.1c-0.1 0-0.2-0.1-0.2-0.1l0.1-0.1h-0.1l-1-0.5c0.9-0.6 1.4-1.3 1.7-2.1l0.3-0.2h-0.2c0.2-0.7 0.3-1.4 0.2-2.1l0.2-0.1h-0.2c0-0.3 0-0.5-0.1-0.8l0.7-0.4-0.8 0.2v-0.3l0.8-0.5-0.8 0.3c0-0.2-0.1-0.3-0.1-0.5l0.2-0.1-0.5-0.1v-0.1c-0.1-0.3-0.1-0.6-0.2-0.8l0.6-0.2-0.6 0.1c-0.3-0.8-0.7-1.5-1.6-1.9-0.5-0.2-0.9-0.3-1.3-0.3-0.8-0.1-1.4 0.2-2.2 0.7-0.6 0.4-1 1-1.2 1.7l-0.1 0.1-0.3 0.2h0.3c0 0.2-0.1 0.3-0.1 0.5-0.1 0.1-0.2 0.1-0.3 0.2l-0.7 0.5 0.8-0.2h0.1c0 0.1 0 0.2-0.1 0.3l-0.3 0.3 0.3-0.1v0.4c-0.1 0-0.1 0-0.2 0.1l0.1 0.2h0.1v0.4h-0.2v0.2h0.2v0.3c-0.1 0-0.1 0.1-0.2 0.1l-0.5 0.4 0.6-0.2h0.1c0 0.2 0 0.3 0.1 0.5-0.1 0-0.1 0.1-0.2 0.1l-0.5 0.3 0.6-0.1h0.2c0 0.1 0.1 0.2 0.1 0.3-0.1 0-0.1 0.1-0.2 0.1l-0.5 0.3h0.5 0.3c0.1 0.3 0.3 0.5 0.5 0.7-0.1 0-0.2 0.1-0.3 0.1l-0.5 0.2h0.6 0.5c0 0.1 0.1 0.1 0.1 0.2-0.1 0.1-0.2 0.1-0.3 0.2l0.1 0.2c0.1-0.1 0.3-0.1 0.4-0.1l0.1 0.1c-0.1 0-0.2 0-0.2 0.1l-0.7 0.2h0.8 0.4v0.1c-0.1 0-0.2 0-0.3 0.1v0.2c-0.1 0-0.3-0.1-0.4-0.1-0.9-0.1-1.8 0.3-2.5 1.1 0 0-0.1 0.2-0.3 0.4l-0.5 0.3 0.4-0.1c-0.1 0.1-0.1 0.2-0.2 0.3-0.3 0.1-0.5 0.2-0.8 0.4l-0.5 0.4 0.6-0.2c0.1 0 0.2-0.1 0.3-0.1-0.1 0.2-0.3 0.5-0.4 0.7 0 0-0.1 0-0.1 0.1l-0.6 0.3 0.6-0.1c-0.2 0.3-0.3 0.6-0.3 0.8v0.4s0 0.1 0.1 0.1l-0.3 0.2 0.4-0.1h0.1l0.7 0.1c0.2 0 0.3 0 0.5 0.1l-0.6 0.5 0.8-0.3c0.1 0 0.2-0.1 0.3-0.1 0.3 0 0.6 0.1 0.9 0.1l0.1 0.1 0.1-0.1h0.4l-0.5 0.3 0.8-0.2c0.1 0 0.2 0 0.2-0.1h0.6 0.5 0.1 1.3 0.5v0.1h0.1c0.3 0 0.5 0.1 0.8 0.1h0.1c0.4 0.1 0.8 0.2 1.2 0.2h0.1l-0.3 0.3 0.5-0.3h0.2 0.3l-0.4 0.5 0.6-0.5h0.5 0.1 0.7 0.1 0.1c0.6-0.1 0.7-0.3 0.7-0.7l0.2-0.3-0.6-0.2v0m-0.6 0.3c0.1-0.1 0.3-0.2 0.4-0.3v0.1c-0.2 0.1-0.3 0.2-0.4 0.2m0.3-0.6c-0.2 0.2-0.5 0.3-0.7 0.4s-0.3 0.2-0.5 0.2c0.4-0.3 0.8-0.6 1.2-0.8v0.2m-0.8 0.7s-0.1 0 0 0c-0.3 0.2-0.5 0.3-0.6 0.5h-0.2c0.2-0.2 0.5-0.4 0.8-0.5m0.8-1.2c-0.5 0.2-0.9 0.4-1.3 0.7 0.1 0 0.1-0.1 0.2-0.1 0.4-0.3 0.7-0.5 1.1-0.8l-0.1-0.2c-0.6 0.4-1.2 0.7-1.8 1l0.1-0.1c0.5-0.4 1-0.8 1.6-1.1l-0.1-0.2c-0.9 0.4-1.6 0.8-2.3 1.2l0.9-0.6c0.4-0.2 0.8-0.5 1.2-0.8l-0.1-0.2c-0.4 0.3-0.8 0.5-1.2 0.8-0.4 0.2-0.9 0.5-1.4 0.7h-0.1c0.1-0.1 0.3-0.2 0.4-0.3 0.7-0.5 1.5-1 2.2-1.5l-0.1-0.2c-0.3 0.1-0.5 0.2-0.8 0.4 0.2-0.1 0.3-0.3 0.4-0.5l0.3-0.3c0.5 0.5 0.8 1.2 0.9 2.1m-6.1 0.8c0.5-0.4 1-0.7 1.5-1 0.3-0.2 0.6-0.3 0.9-0.5 0.5-0.3 1-0.5 1.5-0.9 0.1-0.1 0.3-0.2 0.4-0.2 0.3-0.1 0.5-0.3 0.7-0.5 0 0 0.1 0 0.1 0.1h0.1l-0.4 0.2c-0.6 0.3-1.3 0.7-1.9 1.1-1 0.7-1.9 1.3-2.9 1.7m2.1-0.7c-0.2 0.1-0.4 0.3-0.7 0.4 0.2-0.2 0.4-0.3 0.7-0.4m-1.5 0.7l-0.1 0.1-0.2 0.3h-0.5c0.2-0.2 0.5-0.3 0.8-0.4m3.5-2.1c-0.3 0.2-0.6 0.4-0.9 0.5 0.3-0.2 0.6-0.3 0.9-0.5m-3.7 0.8c0.1 0 0.2-0.1 0.3-0.1 0.2-0.1 0.4-0.2 0.7-0.2-0.2 0.1-0.3 0.2-0.5 0.3-0.7 0.5-1.4 0.9-2.1 1.3l1.5-0.9 0.8-0.5-1.2 0.4c-0.5 0.2-1.1 0.4-1.6 0.6 0.3-0.2 0.5-0.3 0.8-0.5 0.1-0.1 0.2-0.1 0.4-0.2l-0.1-0.2c-0.1 0-0.2 0.1-0.4 0.2-0.3 0.1-0.5 0.2-0.8 0.3 0.2-0.1 0.4-0.3 0.6-0.4l0.4-0.2v0.1c0.3-0.1 0.7-0.3 1-0.5 0.6-0.3 1.3-0.5 1.9-0.8 0 0-0.1 0-0.1 0.1-0.5 0.3-1 0.7-1.4 0.9-0.1 0-0.2 0.1-0.3 0.1l0.1 0.2zm2.1-2l-0.5 0.5c-0.1 0-0.3 0.1-0.4 0.1 0.1-0.1 0.3-0.2 0.4-0.3l0.7-0.5-0.8 0.3c-0.1 0-0.3 0.1-0.4 0.1l0.1-0.1c0.4-0.1 0.7-0.3 1.1-0.4 0 0.2-0.1 0.3-0.2 0.3m1.2-0.2l-0.2 0.2-0.1 0.1-0.5 0.1c-0.1 0-0.3 0.1-0.4 0.1l0.2-0.1c0.3-0.2 0.6-0.3 1-0.4m-2.2 0.3l-0.5 0.4c-0.1 0.1-0.3 0.1-0.4 0.2-0.6 0.3-1.2 0.5-1.9 0.7 1-0.5 2-1 3-1.4-0.1 0-0.1 0-0.2 0.1m-0.8 0.8c0.1 0 0.1-0.1 0.2-0.1-0.2 0.1-0.5 0.3-0.8 0.4s-0.6 0.3-0.9 0.4l-0.5 0.2c-0.9 0.3-1.9 0.6-2.8 0.8-0.1 0-0.1 0-0.2 0.1 0.2-0.1 0.4-0.2 0.7-0.3 0.4-0.2 0.9-0.4 1.3-0.6l0.2-0.1h0.3c0.8-0.1 1.6-0.5 2.5-0.8m1.5 0c0.2-0.1 0.3-0.2 0.5-0.3l-0.4 0.3 1-0.5c0.2-0.1 0.5-0.3 0.8-0.4-0.1 0.1-0.2 0.1-0.3 0.2l-0.2 0.2-0.2 0.1-1.2 0.6c-0.2 0.1-0.4 0.1-0.6 0.2 0.3-0.1 0.4-0.3 0.6-0.4m1.8-1.1s0.1-0.1 0 0c0.1-0.1 0.1 0 0.1 0 0-0.1 0 0-0.1 0m-0.3-0.3c-0.1 0-0.2 0.1-0.3 0.1l0.2-0.1h0.1m-1.3-0.6c0.2 0 0.6 0.2 1 0.4h-0.1c-0.2 0.1-0.5 0.2-0.7 0.2-0.1 0-0.3 0.1-0.4 0.1 0.1-0.1 0.3-0.2 0.4-0.3h0.1l-0.1-0.2c-0.3 0.1-0.6 0.3-1 0.4-1.2 0.5-2.5 1.1-3.6 1.8l-0.2 0.1h-0.3c-0.3 0-0.6 0.1-1 0.2 0.6-0.3 1.2-0.5 1.8-0.8 1-0.4 2.1-0.9 3.1-1.4l-0.1-0.2c-0.9 0.2-1.8 0.6-2.7 0.9-1.1 0.4-2.3 0.9-3.4 1.1 0.8-0.3 1.7-0.6 2.5-0.9 1.2-0.4 2.5-0.8 3.6-1.5l0.6-0.3-0.7 0.1c-0.2 0-0.4 0.1-0.5 0.1 0.4-0.1 0.8-0.3 1.2-0.5l0.9-0.4c-0.2 0.2-0.5 0.4-0.7 0.5l0.3 0.6zm0.7-0.7l-1 0.2c-0.6 0.1-1.1 0.3-1.7 0.5-0.3 0.1-0.5 0.2-0.8 0.3v-0.2-0.2c0.6-0.1 1.1-0.2 1.7-0.3s1.1-0.2 1.7-0.3v-0.2c-0.4 0-0.8 0.1-1.3 0.1 0.6-0.2 1.2-0.3 1.8-0.5l-0.1-0.2c-0.2 0-0.4 0.1-0.5 0.1 0.5-0.2 1-0.3 1.4-0.6-0.4 0.4-0.7 0.9-1.2 1.3m-3.7 0.9l0.1 0.1c-0.1 0-0.1 0-0.2 0.1-0.5 0.1-1 0.2-1.5 0.2-0.3 0-0.5 0.1-0.8 0.1 0.6-0.3 1.3-0.5 2-0.6 0.1-0.1 0.3 0 0.4 0.1m4.7-2.5c-0.5 0.1-1 0.2-1.6 0.2h-0.1c0.4-0.2 0.9-0.3 1.3-0.5l0.5-0.2h-0.5c-0.4 0-0.8 0.1-1.2 0.2 0.6-0.2 1.1-0.4 1.6-0.8l0.4-0.2c0 0.5-0.1 0.9-0.3 1.3h-0.1zm0.4-1.5l-0.5 0.1c-0.8 0.2-1.7 0.4-2.6 0.7-0.5 0.1-1 0.3-1.5 0.4h0.1l-0.1-0.2c-0.1 0-0.2 0-0.3 0.1-0.4 0.1-0.8 0.1-1.2 0.1h-0.3c0.7-0.3 1.9-0.8 2.9-0.9-0.1 0.1-0.2 0.1-0.3 0.2l0.1 0.2c0.2-0.1 0.5-0.1 0.8-0.2 1-0.2 2.2-0.5 3-1l0.1-0.1c-0.2 0.2-0.2 0.4-0.2 0.6m-0.1-1.5v0.4h-0.4c-1.1 0.1-2.2 0.5-3.3 0.8-0.9 0.3-1.8 0.5-2.7 0.7 0.9-0.4 1.9-0.6 2.9-0.8 1.3-0.3 2.5-0.6 3.5-1.1m-0.7-0.1c0.2-0.1 0.5-0.2 0.7-0.4v0.2c-0.2 0.1-0.5 0.2-0.7 0.2m-2.8 1.5c0.8-0.2 1.6-0.5 2.4-0.6-0.3 0.1-0.6 0.2-1 0.3-0.1 0-0.2 0.1-0.4 0.1l0.1 0.2c0.1 0 0.2-0.1 0.4-0.1 0.4-0.1 0.9-0.2 1.4-0.3-0.7 0.3-1.6 0.5-2.4 0.7h-0.2l0.1-0.1 0.2-0.2h-0.3c-0.3 0-0.6 0-0.9 0.1 0.2 0.1 0.4 0 0.6-0.1m3.4-0.6c-0.2 0-0.3 0.1-0.5 0.1h-0.1c0.1-0.1 0.3-0.1 0.4-0.2l0.4-0.2v0.3h-0.2zm0-1.5c-1.4 0.5-2.9 0.9-4.3 1.2-0.7 0.2-1.3 0.3-2 0.5 0.8-0.4 1.7-0.6 2.7-0.9 1.1-0.3 2.3-0.6 3.3-1.2l0.2-0.1c0.1 0.2 0.1 0.3 0.1 0.5m-4 0.7c0.3-0.1 0.7-0.2 1-0.3 0.5-0.1 1-0.2 1.5-0.4-0.7 0.3-1.4 0.4-2.1 0.6-0.1 0.1-0.3 0.1-0.4 0.1m3.9-1.4v0l-0.3 0.1c-0.3 0.1-0.5 0.2-0.8 0.2-0.6 0.2-1.2 0.4-1.8 0.5-0.5 0.1-1 0.3-1.6 0.5-0.5 0.2-0.9 0.4-1.4 0.5 0.2-0.1 0.3-0.2 0.5-0.2 0.2-0.1 0.4-0.2 0.7-0.3 0.7-0.3 1.4-0.5 2.1-0.7 0.8-0.2 1.6-0.5 2.4-0.8l-0.1-0.2c-1.2 0.5-2.5 0.8-3.9 1.2 1.5-0.5 3-1.1 4-1.6h0.1c0 0.3 0.1 0.5 0.1 0.8m-0.3-1c-1.4 0.2-2.8 0.6-4.1 1-0.6 0.2-1.2 0.4-1.7 0.5 0.3-0.2 0.7-0.3 1-0.4 0.2-0.1 0.3-0.1 0.5-0.2 0.8-0.3 1.6-0.6 2.5-0.9 0.3-0.1 0.6-0.2 0.9-0.2l0.8-0.2-0.1-0.2c-0.6 0.1-1.1 0.3-1.6 0.4-1.2 0.3-2.5 0.7-3.7 1 1.4-0.8 3.2-1.5 4.9-1.9v-0.2c-0.9 0.1-1.8 0.4-2.6 0.8-0.7 0.3-1.5 0.6-2.3 0.7 0.5-0.3 1.1-0.5 1.6-0.7l0.2-0.1c0.2-0.1 0.5-0.1 0.8-0.2 0.6-0.1 1.4-0.3 1.7-0.7l0.1-0.2c0.5 0.4 0.9 1 1.1 1.7m-1.4-1.7s0.1 0 0 0c-0.7 0-1.3 0.2-1.8 0.3-0.4 0.1-0.9 0.2-1.3 0.3 0.4-0.4 1-0.8 1.2-0.6l0.1-0.2h-0.1 0.6c0.4-0.1 0.8 0 1.3 0.2m-3.3 0.4c0.1-0.1 0.2-0.1 0.3-0.2-0.3 0.2-0.5 0.5-0.5 0.5l-0.2 0.2h0.3c0.5 0 1.1-0.2 1.6-0.3 0.4-0.1 0.9-0.2 1.3-0.3-0.3 0.2-0.9 0.3-1.3 0.4-0.3 0.1-0.6 0.1-0.8 0.2l-0.2 0.1c-0.5 0.2-1.1 0.4-1.5 0.7 0.3-0.5 0.6-1 1-1.3m-1.2 1.9v-0.1c0.3 0 0.7-0.1 1-0.2-0.4 0.2-0.8 0.4-1.1 0.6 0.1-0.1 0.1-0.2 0.1-0.3m0.9 0.3c-0.4 0.2-0.8 0.3-1.1 0.5v-0.2c0.4 0 0.8-0.1 1.1-0.3m-1.2 1c0.7-0.2 1.5-0.4 2.2-0.6 1-0.3 1.9-0.6 2.9-0.8-1.5 0.6-3.3 1.3-5.1 1.9v-0.5m0 0.7c0.3-0.1 0.6-0.1 0.9-0.2s0.5-0.1 0.8-0.2l-0.6 0.3c-0.3 0.2-0.7 0.4-1 0.5-0.2-0.2-0.1-0.3-0.1-0.4m-0.1 0.7c0.1 0 0.2 0 0.4-0.1-0.1 0.1-0.2 0.1-0.4 0.2v-0.1m0.1 0.5c0.8-0.2 1.6-0.4 2.4-0.7l2.4-0.6c-0.1 0-0.2 0.1-0.3 0.1-0.3 0.1-0.7 0.2-1 0.3l0.1 0.2c0.2-0.1 0.4-0.1 0.5-0.2 0.1 0 0.3-0.1 0.4-0.1 0.3-0.1 0.7-0.2 1.1-0.2-0.8 0.3-1.6 0.5-2.4 0.7-1.1 0.3-2.2 0.5-3.2 1v-0.5m0.1 0.8c0.4-0.1 0.9-0.1 1.3-0.2-0.5 0.2-0.9 0.4-1.2 0.5-0.1-0.1-0.1-0.2-0.1-0.3m0.2 0.7h0.3 0.6c-0.1 0.1-0.3 0.1-0.4 0.2l0.1 0.2c1-0.2 2-0.5 2.9-0.7 0.6-0.2 1.2-0.3 1.7-0.5-0.8 0.4-1.8 0.6-2.8 0.9-0.7 0.2-1.4 0.3-2 0.6-0.1-0.3-0.2-0.5-0.4-0.7m2.7 0.2c-0.6 0.2-1.1 0.4-1.7 0.5 0.5-0.2 1-0.3 1.6-0.4l0.1-0.1m-1.9 0.8c0.7-0.1 1.4-0.3 2.1-0.6 0.7-0.2 1.4-0.4 2.1-0.6-0.6 0.3-1.3 0.5-1.9 0.7-0.8 0.1-1.5 0.3-2.2 0.6 0-0.1-0.1-0.1-0.1-0.1m0.3 0.3c0.4-0.1 0.8-0.2 1.2-0.4 0.3-0.1 0.6-0.2 0.8-0.2 0.5-0.1 1-0.1 1.4-0.2 0.3 0 0.6-0.1 0.8-0.1-0.8 0.4-1.8 0.6-2.8 0.7l-1.5 0.3c0.1 0 0.1 0 0.1-0.1m0.3 0.5h0.3-0.3m-0.1 0.3c-0.1 0-0.2 0-0.3 0.1h-0.1c0.1-0.1 0.2-0.1 0.4-0.1m-0.9 0.2c0.1 0 0.1 0 0 0-0.8 0.2-1.5 0.5-2.2 0.9 0.7-0.6 1.5-1 2.2-0.9m-2.5 1.2l0.3-0.1c0.5-0.2 1.1-0.2 1.7-0.3h0.4c-0.3 0.1-0.5 0.1-0.8 0.2-0.2 0.1-0.4 0.1-0.6 0.2-0.4 0.1-0.8 0.2-1.1 0.3 0-0.1 0-0.2 0.1-0.3m-0.5 0.8c1.7-0.5 3.5-1.1 5.3-1.5-0.9 0.4-1.9 0.7-2.8 1s-1.9 0.6-2.8 1.1c0-0.2 0.1-0.4 0.3-0.6m-0.7 1.1c1.4-0.2 2.8-0.7 4.1-1.2 0.1 0 0.1 0 0.2-0.1-0.2 0.1-0.5 0.2-0.7 0.3-1.3 0.6-2.7 1.1-3.9 1.8 0.1-0.3 0.2-0.6 0.3-0.8m-0.4 1.2v-0.2c0.1 0 0.2-0.1 0.3-0.1 0.7-0.3 1.4-0.6 2.1-0.7-0.1 0.1-0.3 0.1-0.4 0.2-0.6 0.2-1.2 0.5-1.7 0.8h-0.3v0m0.5 0.1c0.4-0.1 0.8-0.2 1.2-0.4 0.6-0.2 1.3-0.4 2-0.6-0.3 0.2-0.5 0.3-0.7 0.4-0.5 0.2-1 0.4-1.4 0.6-0.3 0-0.5-0.1-0.8-0.1l-0.3 0.1zm2.5-0.3c0.2-0.1 0.4-0.1 0.6-0.2 0.1 0 0.1 0 0.2-0.1-0.4 0.3-0.8 0.6-1.1 0.8-0.2 0-0.4 0-0.7-0.1 0.4 0 0.7-0.2 1-0.4m2.1-0.3l-1.5 0.9h-0.4c0.5-0.4 1.2-0.6 1.9-0.9m-0.8 1c0.8-0.4 1.6-0.9 2.5-1.5 0.4-0.3 0.9-0.6 1.3-0.8s0.8-0.3 1.2-0.6l0.4-0.3c0.2-0.1 0.4-0.1 0.7-0.2h0.1c-0.2 0.1-0.4 0.3-0.7 0.4-0.2 0.1-0.3 0.2-0.4 0.2l-1.5 0.9c-0.3 0.2-0.6 0.3-0.9 0.5-0.7 0.4-1.4 0.9-2 1.4l-0.1 0.1c-0.1-0.1-0.4-0.1-0.6-0.1m1.8 0.1l0.2-0.1c0.7-0.4 1.5-0.8 2.2-1.2 0.3-0.2 0.5-0.3 0.8-0.5-0.2 0.1-0.4 0.3-0.7 0.4-0.7 0.5-1.4 0.9-2 1.4h-0.3-0.2m2.5-0.7l-1.2 0.9c-0.1 0-0.3-0.1-0.4-0.1 0.5-0.3 1-0.6 1.6-0.8m0.2 1.1c-0.4 0-0.8-0.1-1.1-0.2 0.7-0.4 1.4-0.8 2.3-1.3-0.1 0.1-0.2 0.1-0.2 0.2-0.4 0.3-0.9 0.7-1.4 1l0.1 0.2c0.2-0.1 0.4-0.2 0.7-0.3 0.3-0.2 0.6-0.3 0.9-0.5-0.4 0.3-0.7 0.6-1.1 0.9h-0.2m0.6 0c0.3-0.2 0.6-0.4 0.8-0.5 0 0 0.1 0 0.1-0.1-0.2 0.2-0.4 0.4-0.6 0.5l-0.1 0.1c0 0.1-0.1 0-0.2 0m2.2-0.3c-0.1 0.1-0.3 0.2-0.5 0.4h-0.3c0.3-0.2 0.6-0.3 0.8-0.4"/>
	<path d="m362.4 202.1l-17.2-3-17.3 0.1-18.3-1.6 2.6-29.3 17.7 1.2 17.2 2.2 17.3 0.8 17.3 0.1 17.3 1.5 17.2 2.2 37.5 2.9-0.6 29-38.9-3.6-17.3-0.5-17.2-2.6-17.3 0.6zm-17-4.1l17.1 3 17.4-0.6h0.1l17.2 2.6 17.2 0.5 37.7 3.5 0.5-26.7-36.4-2.8-17.2-2.2-17.2-1.5-17.3-0.1-17.3-0.8-17.2-2.2-16.6-1.1-2.4 27 17 1.4h17.4z"/>
	<path d="m359.2 241.2l-17.2-3-17.3 0.1-18.3-1.6 2.6-29.3 17.7 1.2 17.2 2.2 17.3 0.8 17.3 0.1 17.3 1.5 17.2 2.2 37.5 2.9-0.6 29-38.9-3.6-17.3-0.5-17.2-2.6-17.3 0.6zm-17-4.2l17.1 3 17.4-0.6h0.1l17.2 2.6 17.2 0.5 37.7 3.5 0.5-26.7-36.4-2.8-17.2-2.2-17.2-1.5-17.3-0.1-17.3-0.8-17.2-2.2-16.6-1.1-2.4 27 17.1 1.5 17.3-0.1z"/>
	<path class="st3" d="m336 198c-0.9-2.5-0.7-6.6-0.4-10.1 0.1-1.2 0.1-2.4 0.2-3.3v-2c0-3.9 0-8.8 1.4-12.1l0.7 0.3c-1.3 3.2-1.3 8-1.3 11.8v2c0 1-0.1 2.1-0.2 3.4-0.2 3.5-0.4 7.4 0.4 9.8l-0.8 0.2z"/>
	<path class="st3" d="m335 237.8c-0.2 0-0.4-0.2-0.6-0.5l-0.1-0.1v-0.1c0-2.1 0.3-4.2 0.6-6.2s0.6-4 0.6-6.1c0-1.9-0.1-3.8-0.2-5.6-0.1-2.7-0.3-5.6 0-8.5l0.8 0.1c-0.2 2.9-0.1 5.7 0.1 8.4 0.1 1.8 0.2 3.7 0.2 5.7 0 2.2-0.3 4.2-0.6 6.2s-0.5 3.9-0.6 5.9l0.2 0.2c0.1 0 0.1-0.1 0.1-0.1v0.2c0 0.1 0.1 0.5-0.3 0.6-0.1-0.1-0.2-0.1-0.2-0.1"/>
	<path class="st4" d="m446.6 283.2h-0.5c-2.2-0.2-4.6-0.6-6.8-1-2.7-0.5-5.5-1-8-1.1-1.3 0-2.6 0-3.8-0.1-2.1 0-4.4 0-6.5-0.2-2.5-0.2-4.8-0.5-6.8-1l-0.3-0.1c-3.2-0.8-3.4-1-4.1-3.8-0.1-0.3-0.1-0.6-0.2-0.9-0.7-3-0.9-5.1-0.7-8 0.1-1.7 0-3.5-0.1-5.2-0.2-2.8-0.4-5.6 0.4-8.3l0.1-0.5 0.5 0.1c3.2 0.3 6.5 0.3 9.8 0.3 2.7 0 5.5 0 8.2 0.2 0.9 0.1 1.8 0.1 2.6 0.2 1.5 0.2 3 0.4 4.5 0.6 4.4 0.6 8.9 1.1 13.2 1.5l0.6 0.1-0.1 0.6c-0.3 2.5 0.1 5 0.5 7.5 0.3 2 0.7 4.2 0.6 6.3-0.1 3.3-0.9 5.8-1.8 8.4-0.4 1.3-0.9 2.6-1.2 4l-0.1 0.4z"/>
	<path class="st5" d="m440.1 268.7c-0.1-0.2-0.3-0.4-0.4-0.6l0.2-0.1-0.2 0.1c-1.2-1.7-3-3.5-4.7-5.2v-0.1h-0.1c-0.5-0.4-0.9-0.9-1.3-1.3l0.4-0.6-0.6 0.4-0.3-0.3c-0.2-0.1-0.3-0.3-0.5-0.4l0.2-0.3-0.4 0.1c-0.4-0.4-0.8-0.7-1.1-1.1l-0.4-0.4-0.1 0.5c0 0.1 0 0.2-0.1 0.4-0.1 0.4-0.2 1-0.4 1.6-0.7 0.5-1.3 1-1.9 1.6h-0.4c-0.6 0-1.3-0.1-2-0.2l0.3-0.7-0.7 0.6c-0.1 0-0.2 0-0.3-0.1-0.3 0-0.5-0.1-0.7-0.1l1-1.5-1.5 1.5c-0.2 0-0.4-0.1-0.6-0.1l0.3-0.5-0.9 0.4h-0.1l1.1-1.1-1.7 1c-0.1 0-0.2-0.1-0.4-0.1-0.9-0.2-1.9-0.4-2.8-0.5-0.2 0-0.4 0-0.5-0.1h-1.4-0.2v0.2c-0.1 0.4-0.1 0.8-0.2 1.2-0.1 0.1-0.2 0.2-0.3 0.2l0.3 0.4v0.5c-0.2 0.3-0.4 0.6-0.6 1l-0.7 1.4 1.1-0.9c-0.1 0.2-0.3 0.3-0.4 0.5l-1.3 1.6 1.7-1.2c0.1-0.1 0.2-0.2 0.4-0.3v0.7l-0.2 0.6 0.2-0.1v0.1 0.2l0.2 0.1h0.2l-0.2 0.4 0.4-0.3c0.2 0 0.4 0.1 0.6 0.1l-0.2 0.3 0.6-0.2c0.3 0 0.6 0.1 0.9 0.1l-0.3 0.5 0.9-0.4h0.1 0.3c0.2 0 0.4 0 0.6 0.1l-0.4 0.6 0.8-0.6c0.3 0 0.6 0.1 0.9 0.1l-1 1.2 1.6-1s0.1 0 0.1-0.1c0.2 0 0.3 0 0.5 0.1l-0.3 0.3 0.4 0.4c0.2-0.2 0.5-0.4 0.7-0.7h0.3 0.9c0.6 0 1.1 0.1 1.5 0.3v0.7 0.3l-0.5 0.6 0.5-0.4v0.6l-0.7 0.8 0.7-0.5v0.9l-0.2 0.3 0.2-0.1c0 0.3 0 0.7 0.1 1l-0.5 0.5 0.6-0.3c0 0.2 0.1 0.4 0.1 0.6l-0.5 0.3 0.6-0.1c0.1 0.3 0.1 0.6 0.2 0.8l0.1 0.3 0.3-0.1c1.2-0.2 2.8-1 4.3-1.8l-0.7 0.8 2.2-1.5c0.1 0 0.1-0.1 0.2-0.1 0.4-0.2 0.7-0.4 1-0.5 1.2-0.6 2.3-1.4 3.5-2.1 0.5-0.4 1.1-0.7 1.6-1.1l0.3-0.2-0.3 0.1zm-1-0.4l-1 0.4c-1.2 0.5-2.5 1.5-3.7 2.4-1.4 1.1-2.9 2.3-4.4 2.7 0.2-0.2 0.3-0.4 0.5-0.5 0.5-0.3 1-0.7 1.4-1.1 0.8-0.5 1.7-1 2.5-1.5 1.3-0.7 2.5-1.4 3.4-2.2l0.6-0.5h-0.8c-1 0-1.9 0.4-2.8 0.9 0.5-0.6 1-1.1 1.5-1.7l0.8-1-1.2 0.5c-0.3 0.1-0.6 0.3-0.9 0.5 0.4-0.4 0.7-0.8 1-1.3l0.4-0.6c1.1 1 2 2 2.7 3m-4.9 1.8c0.7-0.6 1.5-1.1 2.3-1.4-0.7 0.5-1.5 1-2.3 1.4m1.7-5.5l0.5 0.5-0.7 0.3c-0.1 0.1-0.2 0.1-0.3 0.2 0.2-0.3 0.3-0.5 0.4-0.8l0.1-0.2zm-0.2-0.2l-0.2 0.1c-0.4 0.1-0.8 0.3-1.2 0.5 0.1-0.2 0.2-0.4 0.2-0.6l0.3-0.7-0.7 0.4c-0.1 0-0.1 0.1-0.2 0.1l0.4-0.4 0.3-0.4c0.3 0.3 0.7 0.6 1.1 1m-1.8-1.2l-0.6 0.3c0.1-0.1 0.2-0.3 0.3-0.4l0.3-0.4 0.4 0.4-0.4 0.1zm-0.5 2c-0.2 0.2-0.3 0.4-0.5 0.7l-2.1 1.8c-0.1 0.1-0.2 0.1-0.3 0.2s-0.2 0.2-0.3 0.2l0.9-0.9c0.7-0.7 1.5-1.4 2.3-2m0.3-2.7l-0.4 0.1c-0.3 0.1-0.5 0.2-0.8 0.3 0.2-0.2 0.3-0.4 0.5-0.5l0.3-0.3 0.4 0.4m-1-0.9l0.2 0.2-0.3 0.2c-0.8 0.5-1.8 1.2-2.8 2 0.9-0.8 1.7-1.7 2.4-2.6l0.1-0.1c0.1 0 0.3 0.1 0.4 0.3m-4.9 6.4l-0.6 0.6c-0.5-0.1-1-0.2-1.4-0.2 1.5-1.7 3.2-3.2 4.8-4.4l-0.4 0.4c-1.4 1.1-2.7 2.5-3.5 3.7l0.5 0.3c0.8-1.1 1.9-2.2 3-3.1l0.4-0.4c0.6-0.4 1.1-0.8 1.7-1.1-0.2 0.3-0.5 0.6-0.8 0.8-1.3 0.9-2.5 2.2-3.7 3.4m-5 0.1c-0.2 0-0.4-0.1-0.6-0.1 0.8-0.6 1.5-1.3 2.2-1.9l1.2-1.2c-0.5 0.8-1.2 1.5-1.9 2.2-0.2 0.4-0.6 0.7-0.9 1m2.7-3.8c0.1-0.2 0.3-0.5 0.4-0.7 0.1 0 0.3 0 0.4 0.1l-0.1 0.1c-0.2 0.1-0.4 0.3-0.7 0.5m1.2-0.3l0.1-0.3c0.3 0 0.7 0.1 1 0.1-0.4 0.1-0.8 0.2-1.1 0.5v-0.3m1.3 0.7c0.3-0.3 0.5-0.6 0.8-0.9h0.3l-0.1 0.1-1.2 1.2c0-0.1 0.1-0.3 0.2-0.4m3.4-4.4c0.2 0.2 0.4 0.3 0.5 0.5h-0.1c-0.2 0.1-0.4 0.2-0.7 0.3 0.1-0.2 0.2-0.5 0.3-0.8m-1.3 2.3c-0.1 0.2-0.2 0.4-0.4 0.5 0 0-0.1 0.1-0.3 0.1 0.2-0.2 0.5-0.4 0.7-0.6m-5.7 0.7c0.2 0 0.4 0.1 0.7 0.1l-1.3 1.3c-0.8 0.9-1.8 1.8-2.7 2.5 0.3-0.4 0.7-0.8 1.1-1.2 0.8-0.9 1.5-1.7 2.2-2.7m-3.1-0.6c0.1 0 0.3 0.1 0.4 0.1-1.1 0.7-2 1.6-2.9 2.4-0.1 0.1-0.2 0.2-0.3 0.2 0.4-0.5 0.8-0.9 1.3-1.3 0.4-0.4 0.8-0.7 1.2-1.1 0-0.1 0.2-0.2 0.3-0.3m-1 4.5c-0.1 0.2-0.3 0.4-0.4 0.6h-0.3c0.2-0.3 0.5-0.4 0.7-0.6m0-0.7c0.3-0.3 0.6-0.7 1-1 0.7-0.7 1.4-1.5 2-2.3 0.1 0 0.3 0 0.4 0.1l-0.7 0.7c-0.9 0.8-1.8 1.7-2.7 2.5m0.3-3.9c-0.1 0-0.1 0 0 0-0.1 0.1-0.3 0.2-0.4 0.4-0.3 0.2-0.6 0.5-0.8 0.8-0.3 0.3-0.7 0.6-1 0.9 0.5-0.6 1-1.2 1.6-1.7l-0.4-0.5c-0.4 0.3-0.8 0.5-1.2 0.9 0.2-0.2 0.3-0.5 0.5-0.7l0.1-0.2c0.5-0.1 1-0.1 1.6 0.1m-3-0.3h0.6c-0.2 0.1-0.5 0.3-0.7 0.4 0-0.2 0.1-0.3 0.1-0.4m-0.1 1.2c0-0.1 0.1-0.1 0.1-0.2-0.1 0.1-0.1 0.2-0.1 0.2m0.1 3.9v-0.4c0.2-0.2 0.4-0.3 0.6-0.5l-0.3 0.6-0.1 0.3h-0.2m0.6 0.1c0.7-0.6 1.3-1.2 1.8-1.8 0.6-0.7 1.2-1.4 1.9-1.9-0.4 0.4-0.8 0.8-1.2 1.3-0.8 0.8-1.5 1.6-2.1 2.5-0.1 0-0.2-0.1-0.4-0.1m3.5-0.1c-0.1 0.2-0.2 0.3-0.3 0.5h-0.3c0.2-0.2 0.4-0.3 0.6-0.5m2.2 0.8h-0.1c0.4-0.4 0.8-0.9 1.3-1.4 0.8-0.9 1.5-1.9 2.4-2.3-0.4 0.4-0.7 0.8-1 1.3-0.7 0.8-1.3 1.7-2 2.4 0 0-0.1 0-0.1 0.1-0.3 0-0.4 0-0.5-0.1m1.1 0.1l0.4-0.4-0.1 0.1 0.4 0.3h-0.1-0.6m2.8 0.7l1.4-1.4c0.9-0.8 1.9-1.7 2.7-2.6 0.2-0.2 0.5-0.3 0.7-0.5l-1.5 1.5c-1.1 1-2.1 2-3.1 3.1l-0.3 0.4c0.1-0.2 0.1-0.3 0.1-0.5m0 1.1l0.7-0.5c0.1 0 0.1-0.1 0.2-0.1l-0.5 0.5-0.4 0.5v-0.4m-0.1 0.8l0.8-0.6c0.8-0.6 1.7-1.4 2.5-2.1l0.1-0.1c0.7-0.6 1.5-1.2 2.1-1.8 0.6-0.4 1.1-0.8 1.7-1-0.8 1.3-2.3 2.4-3.8 3.5-1.2 0.9-2.5 1.8-3.4 2.8v-0.7m0.1 1.3l0.3-0.2c1.6-0.7 2.9-1.9 4.1-3.1 0.8-0.8 1.6-1.5 2.5-2.1-1.5 1.7-3.4 3.3-5.2 4.8-0.3 0.3-0.6 0.5-0.9 0.8l-0.7 0.6c-0.1-0.3-0.1-0.5-0.1-0.8m0.1 1.2l1-0.5c1.4-0.7 2.6-1.8 3.7-2.8 0.7-0.7 1.4-1.3 2.2-1.9-2 2.2-4.2 4.1-6.3 5.4l-0.5 0.3c-0.1-0.2-0.1-0.4-0.1-0.5m0.1 0.8l0.7-0.2c0.2 0 0.3-0.1 0.5-0.1v0.1l-0.3 0.5h0.2c-0.3 0.1-0.6 0.2-0.8 0.3-0.2-0.2-0.3-0.4-0.3-0.6m10.1-4.5c-0.4 0.3-0.8 0.6-1.2 0.8l0.2-0.2c0.5-0.4 0.9-0.8 1.3-1.1l0.9-0.7c0.1 0.1 0.1 0.2 0.2 0.3-0.5 0.2-0.9 0.6-1.4 0.9"/>
	<path class="st2" d="m324.1 184.4c-0.1-1.1-0.6-2-0.9-3-0.2-0.6-0.5-1.3-0.5-1.9 0-1.1 1.4-4.6 3-4.4 0.9 0.1 2.1 1.3 2.5 2 0.3 0.5 0.4 1.3 0.5 1.9 0.3 1.9 0.1 3.9-1.6 5.1-0.1 0.1-0.1 0.2 0 0.3 1.1 0.6 2.7 1.6 3 2.9 0.9 3.6-3 2.5-4.6 2.3-1.3-0.2-3-0.1-4.2-0.5-0.3 0-0.6-0.1-0.9-0.1-0.3-0.7-0.7-1.3-1-2 0-1.6 3.4-2.3 4.4-2.2 0.2 0 0.3-0.4 0-0.4-2.1-0.1-4.7 1.1-5.3 3.3-0.5 2 2.3 1.7 3.7 1.9 1.9 0.2 3.7 0.5 5.6 0.7 0.8 0.1 2.1 0.5 2.8-0.2 1.1-1.2-0.3-3.4-1.1-4.3-0.5-0.6-0.5-0.4-1-0.9-0.8-0.9-0.6-0.2-0.1-1.3 0.5-0.9 0.7-1.4 0.7-2.5 0.1-1.9-0.3-4.6-1.9-5.8-1.3-1-3.5-0.2-4.6 0.9-2 2.2 0.6 6 0.9 8.4 0.3 0.1 0.7 0.1 0.6-0.2"/>
			<path class="st6" d="m302 178.7c-0.6 0-1.1-0.5-1.1-1.1v-17.4c0-0.7 0-1.8 0.7-2.7 1-1.2 2.6-1.2 3.5-1.2h17.8c0.6 0 1.1 0.5 1.1 1.1s-0.5 1.1-1.1 1.1h-17.8c-0.5 0-1.4 0-1.7 0.4-0.2 0.3-0.2 0.9-0.2 1.3v17.4c-0.1 0.6-0.6 1.1-1.2 1.1z"/>
			<path class="st6" d="m441.8 293.7c-0.6 0-1.1-0.5-1.1-1.1s0.5-1.1 1.1-1.1l15.6-0.1c0-5.5 0.3-11 0.9-16.4 0.1-0.6 0.6-1.1 1.2-1s1.1 0.6 1 1.2c-0.6 5.7-0.9 11.5-0.9 17.3 0 0.6-0.5 1.1-1.1 1.1l-16.7 0.1z"/>
			<path class="st6" d="m118.9 242.2c-0.3 0-0.6-0.1-0.8-0.3-0.4-0.4-0.5-1.1 0-1.6 20.3-21.1 42-41.3 64.4-60.1 0.5-0.4 1.2-0.3 1.6 0.1 0.4 0.5 0.3 1.2-0.1 1.6-22.4 18.8-44 38.9-64.2 60-0.3 0.2-0.6 0.3-0.9 0.3z"/>
			<path class="st6" d="m115.3 224c-0.2 0-0.5-0.1-0.7-0.2-0.5-0.4-0.6-1.1-0.2-1.6 9.3-12.2 17.8-25.1 25.4-38.5 0.3-0.5 1-0.7 1.5-0.4s0.7 1 0.4 1.5c-7.6 13.4-16.2 26.4-25.6 38.7-0.2 0.3-0.5 0.5-0.8 0.5z"/>
			<path class="st6" d="m114 193.8c-0.1 0-0.2 0-0.3-0.1-0.6-0.2-0.9-0.8-0.7-1.4 2-6 4.2-12.1 6.7-18 0.2-0.6 0.9-0.8 1.5-0.6s0.8 0.9 0.6 1.5c-2.6 5.8-4.8 11.8-6.8 17.8-0.1 0.5-0.6 0.8-1 0.8z"/>
			<path class="st6" d="m224 339.9c-0.6 0-1-0.4-1.1-1s0.4-1.2 1-1.2c17.6-2 35.4-3.3 53.1-3.7 0.6 0 1.1 0.5 1.1 1.1s-0.5 1.1-1.1 1.1c-17.6 0.4-35.4 1.7-52.9 3.7h-0.1z"/>
			<path class="st6" d="m218.3 383c-2.2 0-4.5-0.1-6.7-0.2-0.6 0-1.1-0.6-1.1-1.2s0.6-1.1 1.2-1.1c2.2 0.1 4.4 0.2 6.6 0.2 0.6 0 1.1 0.5 1.1 1.1 0 0.7-0.5 1.2-1.1 1.2zm10-0.2c-0.6 0-1.1-0.5-1.1-1.1s0.4-1.1 1.1-1.2c2.2-0.1 4.4-0.3 6.6-0.5 0.6-0.1 1.2 0.4 1.2 1 0.1 0.6-0.4 1.2-1 1.2-2.2 0.3-4.5 0.5-6.8 0.6 0.1 0 0.1 0 0 0zm-26.7-0.8h-0.1c-2.2-0.2-4.5-0.5-6.7-0.8-0.6-0.1-1-0.7-0.9-1.3s0.7-1 1.3-0.9c2.2 0.3 4.4 0.6 6.6 0.8 0.6 0.1 1.1 0.6 1 1.2s-0.6 1-1.2 1zm43.4-0.9c-0.5 0-1-0.4-1.1-0.9-0.1-0.6 0.3-1.2 0.9-1.3 2.3-0.3 4.5-0.7 6.5-1.2 0.6-0.1 1.2 0.3 1.3 0.9s-0.3 1.2-0.9 1.3c-2.1 0.4-4.3 0.8-6.7 1.2 0.1 0 0 0 0 0zm-59.9-1.7h-0.2c-2-0.4-4-0.9-6-1.3l-0.6-0.2c-0.6-0.1-1-0.8-0.8-1.3 0.1-0.6 0.7-1 1.3-0.8l0.6 0.2c1.9 0.5 3.9 0.9 5.9 1.3 0.6 0.1 1 0.7 0.9 1.3-0.1 0.5-0.6 0.8-1.1 0.8zm76.2-2c-0.5 0-0.9-0.3-1.1-0.8-0.2-0.6 0.1-1.2 0.7-1.4 2.1-0.7 4.2-1.5 6.1-2.4 0.6-0.3 1.2 0 1.5 0.6s0 1.2-0.6 1.5c-2 0.9-4.1 1.7-6.3 2.4-0.1 0.1-0.2 0.1-0.3 0.1zm-92.3-2.5c-0.1 0-0.3 0-0.4-0.1-2.3-1-4.3-2.1-6.1-3.3-0.5-0.4-0.6-1-0.3-1.6s1-0.6 1.6-0.3c1.7 1.2 3.5 2.2 5.7 3.1 0.6 0.2 0.8 0.9 0.6 1.5-0.3 0.4-0.7 0.7-1.1 0.7zm107.3-4.7c-0.4 0-0.7-0.2-0.9-0.5-0.3-0.5-0.2-1.2 0.3-1.5 1.8-1.2 3.6-2.5 5.3-3.9 0.5-0.4 1.2-0.3 1.6 0.1 0.4 0.5 0.3 1.2-0.1 1.6-1.8 1.5-3.6 2.8-5.5 4.1-0.3 0-0.5 0.1-0.7 0.1zm-120.1-5.7c-0.4 0-0.7-0.2-0.9-0.5-1.2-1.7-2.3-3.6-3.5-5.9-0.3-0.5-0.1-1.2 0.5-1.5 0.5-0.3 1.2-0.1 1.5 0.5 1.1 2.2 2.2 4 3.3 5.6 0.4 0.5 0.2 1.2-0.3 1.6-0.2 0.2-0.4 0.2-0.6 0.2zm132.7-5.2c-0.3 0-0.5-0.1-0.8-0.3-0.5-0.4-0.5-1.1-0.1-1.6 1.4-1.6 2.9-3.2 4.3-5 0.4-0.5 1.1-0.6 1.6-0.2s0.6 1.1 0.2 1.6c-1.5 1.8-2.9 3.5-4.4 5.1-0.2 0.2-0.5 0.4-0.8 0.4zm-140.3-9.6c-0.4 0-0.8-0.3-1-0.7-1.1-2.5-1.9-4.4-2.6-6.2-0.2-0.6 0-1.2 0.6-1.5 0.6-0.2 1.2 0 1.5 0.6 0.7 1.8 1.5 3.7 2.6 6.1 0.2 0.6 0 1.2-0.6 1.5-0.2 0.1-0.4 0.2-0.5 0.2zm150.7-3.6c-0.2 0-0.4-0.1-0.6-0.2-0.5-0.3-0.6-1-0.3-1.6 1.2-1.7 2.4-3.6 3.6-5.6 0.3-0.5 1-0.7 1.5-0.4s0.7 1 0.4 1.5c-1.2 2-2.5 3.9-3.7 5.6-0.2 0.6-0.5 0.7-0.9 0.7zm-156.7-12c-0.5 0-0.9-0.3-1.1-0.8-0.7-2.3-1.2-4.5-1.7-6.6-0.1-0.6 0.3-1.2 0.9-1.3s1.2 0.3 1.3 0.9c0.4 2 0.9 4.1 1.6 6.4 0.2 0.6-0.2 1.2-0.7 1.4-0.1-0.1-0.2 0-0.3 0zm165.5-2.2c-0.2 0-0.4 0-0.6-0.1-0.5-0.3-0.7-1-0.4-1.5 1.1-1.9 2.2-3.9 3.3-5.8 0.3-0.5 1-0.7 1.5-0.4s0.7 1 0.4 1.5c-1.1 2-2.2 3.9-3.3 5.8-0.2 0.3-0.5 0.5-0.9 0.5zm-168.1-14.3c-0.6 0-1.1-0.5-1.1-1.1 0-2.3 0.3-4.6 0.7-6.8 0.1-0.6 0.7-1 1.3-0.9s1 0.7 0.9 1.3c-0.4 2.1-0.6 4.2-0.7 6.4 0 0.6-0.5 1.1-1.1 1.1zm176.3-0.3c-0.2 0-0.4 0-0.5-0.1-0.5-0.3-0.7-1-0.4-1.5 1.1-2 2.2-3.9 3.4-5.8 0.3-0.5 1-0.7 1.5-0.4s0.7 1 0.4 1.5c-1.1 1.9-2.2 3.8-3.3 5.8-0.4 0.3-0.8 0.5-1.1 0.5zm8.6-14.3c-0.2 0-0.4-0.1-0.6-0.2-0.5-0.3-0.7-1-0.3-1.5 1.3-1.9 2.6-3.8 3.9-5.5 0.4-0.5 1.1-0.6 1.6-0.2s0.6 1.1 0.2 1.6c-1.3 1.7-2.5 3.5-3.8 5.4-0.2 0.2-0.6 0.4-1 0.4zm10.2-13.3c-0.3 0-0.5-0.1-0.8-0.3-0.5-0.4-0.5-1.1-0.1-1.6 1.5-1.7 3.1-3.3 4.8-4.8 0.5-0.4 1.2-0.4 1.6 0.1s0.4 1.2-0.1 1.6c-1.6 1.5-3.2 3.1-4.7 4.7 0 0.2-0.3 0.3-0.7 0.3zm12.6-11c-0.4 0-0.7-0.2-0.9-0.5-0.3-0.5-0.2-1.2 0.3-1.6 1.9-1.3 3.9-2.5 5.8-3.6 0.5-0.3 1.2-0.1 1.5 0.4s0.1 1.2-0.4 1.5c-1.9 1-3.8 2.2-5.6 3.4-0.3 0.4-0.5 0.4-0.7 0.4zm14.9-7.5c-0.5 0-0.9-0.3-1.1-0.8-0.2-0.6 0.1-1.2 0.7-1.4 2.2-0.7 4.4-1.3 6.6-1.6 0.6-0.1 1.2 0.3 1.3 0.9s-0.3 1.2-0.9 1.3c-2.1 0.4-4.2 0.9-6.3 1.6h-0.3z"/>
			<path class="st6" d="m234 176h-0.1c-0.6-0.1-1.1-0.6-1-1.2 0.9-7.9 4.2-15.7 9.2-21.8 0.4-0.5 1.1-0.6 1.6-0.2s0.6 1.1 0.2 1.6c-4.7 5.9-7.8 13.2-8.7 20.7-0.2 0.5-0.7 0.9-1.2 0.9z"/>
			<path class="st6" d="m104.6 278.1c-0.1 0-0.2 0-0.3-0.1-6.1-1.9-12.7-2.7-19.1-2.2-0.6 0.1-1.1-0.4-1.2-1 0-0.6 0.4-1.1 1-1.2 6.7-0.5 13.6 0.3 19.9 2.3 0.6 0.2 0.9 0.8 0.7 1.4-0.1 0.5-0.5 0.8-1 0.8z"/>
			<path class="st6" d="m300.3 279.2h-0.2c-0.6-0.1-1-0.7-0.9-1.3 1.2-7.9 4-15.8 8-22.7 0.3-0.5 1-0.7 1.5-0.4s0.7 1 0.4 1.5c-3.9 6.7-6.6 14.3-7.8 21.9 0 0.6-0.5 1-1 1z"/>
			<path class="st6" d="m479.1 209.6s-0.1 0 0 0c-0.7-0.1-1.2-0.6-1.1-1.2 0.6-7.5 1.9-14.9 3.8-22.2 0.2-0.6 0.8-0.9 1.4-0.8 0.6 0.2 1 0.8 0.8 1.4-1.9 7.1-3.1 14.5-3.8 21.8 0 0.6-0.5 1-1.1 1z"/>
</svg>
