<?xml version="1.0" encoding="utf-8"?>
<!-- Generator: Adobe Illustrator 21.0.0, SVG Export Plug-In . SVG Version: 6.00 Build 0)  -->
<svg version="1.1" id="Layer_1" xmlns="http://www.w3.org/2000/svg" xmlns:xlink="http://www.w3.org/1999/xlink" x="0px" y="0px"
	 viewBox="0 0 90 43.9" style="enable-background:new 0 0 90 43.9;" xml:space="preserve">
<style type="text/css">
	.st0{fill:#A6A8AB;}
</style>
<g>
	<g>
		<path class="st0" d="M18.6,14.1h-3.7v-0.8c0-0.8-0.2-1.6-0.6-2.2c-0.4-0.6-1.1-0.9-2-0.9c-0.5,0-0.9,0.1-1.3,0.3
			c-0.3,0.2-0.6,0.4-0.8,0.7c-0.2,0.3-0.3,0.7-0.4,1.1c-0.1,0.4-0.1,0.8-0.1,1.3c0,0.5,0,0.9,0.1,1.3c0,0.4,0.1,0.7,0.3,0.9
			c0.1,0.3,0.4,0.5,0.6,0.7c0.3,0.2,0.7,0.4,1.1,0.6l2.8,1.1c0.8,0.3,1.5,0.7,2,1.1s0.9,0.9,1.2,1.5c0.3,0.6,0.5,1.2,0.6,2
			c0.1,0.7,0.1,1.6,0.1,2.5c0,1.1-0.1,2.1-0.3,3c-0.2,0.9-0.6,1.7-1.1,2.4c-0.5,0.7-1.2,1.2-2,1.6c-0.8,0.4-1.8,0.6-3,0.6
			c-0.9,0-1.7-0.2-2.5-0.5c-0.8-0.3-1.4-0.7-2-1.3c-0.6-0.5-1-1.2-1.3-1.9c-0.3-0.7-0.5-1.6-0.5-2.4v-1.4h3.7v1.2
			c0,0.7,0.2,1.3,0.6,1.8c0.4,0.5,1.1,0.8,2,0.8c0.6,0,1.1-0.1,1.5-0.3c0.4-0.2,0.6-0.4,0.8-0.8c0.2-0.3,0.3-0.7,0.3-1.2
			c0-0.5,0.1-1,0.1-1.6c0-0.7,0-1.2-0.1-1.7c0-0.4-0.2-0.8-0.3-1.1c-0.2-0.3-0.4-0.5-0.7-0.7c-0.3-0.2-0.6-0.4-1.1-0.5l-2.6-1.1
			c-1.6-0.7-2.7-1.5-3.2-2.6c-0.5-1.1-0.8-2.4-0.8-4c0-1,0.1-1.9,0.4-2.8c0.3-0.9,0.7-1.6,1.2-2.3c0.5-0.6,1.2-1.1,2-1.5
			c0.8-0.4,1.7-0.6,2.8-0.6c0.9,0,1.8,0.2,2.5,0.5c0.8,0.3,1.4,0.8,2,1.3c0.5,0.6,1,1.2,1.3,1.9c0.3,0.7,0.4,1.4,0.4,2.1V14.1z"/>
		<path class="st0" d="M20.7,12.8c0-1,0.2-2,0.5-2.8c0.4-0.8,0.8-1.5,1.4-2c0.6-0.5,1.3-0.9,2-1.2c0.7-0.3,1.5-0.4,2.2-0.4
			c0.7,0,1.5,0.1,2.2,0.4c0.7,0.3,1.4,0.7,2,1.2c0.6,0.5,1.1,1.2,1.4,2c0.4,0.8,0.5,1.7,0.5,2.8v13.6c0,1.1-0.2,2-0.5,2.8
			c-0.4,0.8-0.8,1.4-1.4,2c-0.6,0.5-1.3,0.9-2,1.2c-0.7,0.3-1.5,0.4-2.2,0.4c-0.8,0-1.5-0.1-2.2-0.4c-0.7-0.3-1.4-0.7-2-1.2
			c-0.6-0.5-1.1-1.2-1.4-2c-0.4-0.8-0.5-1.7-0.5-2.8V12.8z M24.4,26.4c0,0.9,0.2,1.6,0.7,2c0.5,0.4,1.1,0.6,1.8,0.6
			c0.7,0,1.3-0.2,1.8-0.6c0.5-0.4,0.7-1.1,0.7-2V12.8c0-0.9-0.2-1.6-0.7-2c-0.5-0.4-1.1-0.6-1.8-0.6c-0.7,0-1.3,0.2-1.8,0.6
			c-0.5,0.4-0.7,1.1-0.7,2V26.4z"/>
		<path class="st0" d="M35.7,6.7h6c4.4,0,6.5,2.5,6.5,7.6c0,1.5-0.2,2.8-0.7,3.9C47,19.2,46.2,20,45,20.7l4,11.8H45l-3.4-11h-2.2v11
			h-3.7V6.7z M39.4,18.2h2.1c0.7,0,1.2-0.1,1.6-0.3c0.4-0.2,0.7-0.4,0.9-0.8c0.2-0.3,0.3-0.8,0.4-1.3c0.1-0.5,0.1-1.1,0.1-1.7
			c0-0.7,0-1.2-0.1-1.7c-0.1-0.5-0.2-0.9-0.5-1.3c-0.2-0.4-0.6-0.6-1-0.8c-0.4-0.2-1-0.3-1.6-0.3h-1.9V18.2z"/>
		<path class="st0" d="M50.4,6.7h3.7v3.7L50.4,13V6.7z"/>
		<path class="st0" d="M68.6,26.7c0,0.8-0.2,1.6-0.5,2.4c-0.3,0.7-0.7,1.4-1.3,1.9c-0.5,0.5-1.2,1-1.9,1.3c-0.7,0.3-1.5,0.5-2.3,0.5
			c-0.8,0-1.6-0.2-2.3-0.5c-0.7-0.3-1.4-0.7-1.9-1.3c-0.5-0.5-1-1.2-1.3-1.9c-0.3-0.7-0.5-1.5-0.5-2.4v-20h3.7v19.7
			c0,0.9,0.2,1.6,0.7,2c0.4,0.4,1,0.7,1.6,0.7c0.7,0,1.2-0.2,1.6-0.7c0.4-0.4,0.7-1.1,0.7-2V6.7h3.7V26.7z"/>
		<path class="st0" d="M71.2,6.7h3.6l5.6,15.6h0.1V6.7h3.7v25.8h-3.5L75,17h-0.1v15.5h-3.7V6.7z"/>
	</g>
	<g>
		<path class="st0" d="M45,43.9c-0.5,0-1-0.2-1.4-0.6L38.3,38c-0.1-0.1-0.3-0.2-0.5-0.2H2c-1.1,0-2-0.9-2-2V2c0-1.1,0.9-2,2-2h86
			c1.1,0,2,0.9,2,2v33.9c0,1.1-0.9,2-2,2H52.2c-0.2,0-0.3,0.1-0.5,0.2l-5.3,5.3C46,43.7,45.5,43.9,45,43.9z M2,1.3
			C1.6,1.3,1.3,1.6,1.3,2v33.9c0,0.4,0.3,0.7,0.7,0.7h35.8c0.5,0,1,0.2,1.4,0.6l5.3,5.3c0.3,0.3,0.7,0.3,0.9,0l5.3-5.3
			c0.4-0.4,0.9-0.6,1.4-0.6H88c0.4,0,0.7-0.3,0.7-0.7V2c0-0.4-0.3-0.7-0.7-0.7H2z"/>
	</g>
</g>
</svg>
