<?xml version="1.0" encoding="UTF-8" standalone="no"?>
<!-- Generator: Adobe Illustrator 21.0.0, SVG Export Plug-In . SVG Version: 6.00 Build 0)  -->
<svg id="Layer_1" style="enable-background:new 0 0 188 175" xmlns="http://www.w3.org/2000/svg" xml:space="preserve" viewBox="0 0 188 175" version="1.1" y="0px" x="0px" xmlns:xlink="http://www.w3.org/1999/xlink">
<style type="text/css">
	.st0{fill:#CFEBF6;}
	.st1{clip-path:url(#SVGID_2_);}
	.st2{fill:#1DA1F2;}
	.st3{fill:#373737;}
	.st4{fill:#626C72;}
</style>
<path class="st0" d="m70.6 110.6m-26.7-40.6v0.7c0.3 11.4 4.6 23.1 15.4 34.2 1.8 1.9 3.9 3.8 7.1 5.4 2.6 1.3 6.2 2.4 10 2.9 9 3.7 20.1 6.5 31.6 6.4 14.1-0.1 24.7-4.8 28.6-10.2 2.1-3 2.5-6.2 2.9-9.4 1.2-10.6 1.9-21.3 2-32v-3.1c-0.1-7.1-0.8-14.3-5.2-21.4-1.9-3.1-4.4-6.1-5.2-9.2-0.6-2.5-0.1-5-1.5-7.5-1.2-2.1-3.8-4.2-6.9-6.1-3.7-2.3-8.3-4.4-13.9-5.9-5.6-1.4-12.5-2.1-18.2-1.4-5.6 0.8-9.6 2.7-14.8 3.6-3.3 0.6-7.2 0.8-10 1.8-3 1-4.3 2.5-5.4 4.1-3.5 4.7-5.9 9.6-8.1 14.4-4.8 10.7-8.5 21.6-8.4 32.7"/>
		<defs>
			<rect id="SVGID_1_" y="30.3" x="41.1" height="73.9" width="93"/>
		</defs>
		<clipPath id="SVGID_2_">
			<use xlink:href="#SVGID_1_"/>
		</clipPath>
		<g class="st1">
			<path class="st2" d="m69.1 103.8c-0.1 0-0.2-0.1-0.2-0.2-0.1-0.2-0.2-0.3 0.3-0.6 0.7-0.5 2.5-1.7 7.3-4.6 3.3-2 7.4-4.5 11.7-7.1-4.9 2.8-9.5 5.5-13.2 7.6-5 2.9-7 4-7.8 4.3-0.5 0.2-0.6 0.1-0.7-0.1s-0.2-0.3 0.3-0.6c0.7-0.6 2.7-1.7 7.9-4.9 2.5-1.5 5.4-3.2 8.5-5.1-3.5 2-6.7 3.9-9.5 5.4-5.4 3.1-7.4 4.2-8.2 4.6-0.5 0.2-0.6 0.1-0.7-0.1s-0.2-0.3 0.3-0.6c0.7-0.6 2.8-1.9 8.4-5.3 5.2-3.1 12.1-7.3 18.9-11.5 1.9-1.1 3.8-2.3 5.7-3.4-2.4 1.4-4.7 2.7-7.1 4.1-7.2 4.1-14.6 8.4-20.1 11.6-6 3.5-8.2 4.7-9.1 5.1-0.5 0.2-0.6 0.1-0.7-0.1s-0.2-0.3 0.3-0.6c0.7-0.6 2.9-1.9 9-5.6 5.5-3.3 13-7.8 20.2-12.2 2.1-1.3 4.3-2.6 6.5-3.9-2.6 1.5-5.3 3-7.9 4.6-7.6 4.4-15.5 8.9-21.3 12.3-10 5.8-10 5.8-10.3 5.3s-0.3-0.5 10-6.7c5.9-3.6 14-8.4 21.8-13.1 2.6-1.6 5.3-3.2 7.9-4.8-2.9 1.7-5.8 3.4-8.7 5-8.1 4.7-16.4 9.5-22.6 13-10.7 6.1-10.7 6.1-10.9 5.6-0.3-0.5-0.3-0.5 10.6-7 6.3-3.8 14.9-8.9 23.1-13.8 1.2-0.7 2.5-1.5 3.7-2.2-1.5 0.8-2.9 1.7-4.4 2.5-8.5 4.9-17.2 10-23.7 13.7-11.2 6.6-11.2 6.6-11.4 6.2-0.3-0.5-0.3-0.5 10.8-7.1 6.1-3.7 14.4-8.5 22.5-13.3-8.6 5-17.5 10.1-24.1 13.9-11.4 6.5-11.4 6.5-11.7 6.1-0.2-0.3-0.2-0.3 3.3-3.4l0.2-0.2c-0.2 0.1-0.4 0.3-0.7 0.4-1 0.6-2.1 1.2-2.9 1.7-1.7 1-1.7 1-1.9 0.6-0.2-0.3-0.2-0.3 1.6-1.9-2.4 1.4-2.4 1.4-2.6 1-0.1-0.2-0.1-0.2 0.7-1.8 0-0.1 0.1-0.1 0.1-0.2-0.2 0.1-0.5 0.3-0.7 0.4-2 1.2-2 1.2-2.2 1.1-0.1 0-0.2-0.1-0.2-0.2-0.1-0.2-0.1-0.2 0.5-1.7-0.4 0.2-0.5 0.2-0.6 0.2s-0.5-0.1-0.9-0.3c-0.4-0.1-0.6-0.2-0.8-0.2-0.8 0.4-0.8 0.4-1 0.3l0.2-0.4-0.2-0.4 0.7-0.4c0.1-0.1 0.2-0.1 0.4 0 0.1 0 0.5 0.1 0.9 0.3 0.4 0.1 0.6 0.2 0.8 0.2 0.1-0.1 0.3-0.2 0.5-0.3 0.9-0.5 1-0.6 1.2-0.3v0.1c0.1 0.2 0.1 0.2-0.5 1.6 0 0 0 0.1-0.1 0.1 0.3-0.1 0.5-0.3 0.8-0.4 2-1.1 2-1.2 2.2-1.1 0.1 0 0.2 0.1 0.2 0.2 0.1 0.2 0.1 0.2-0.7 1.8 0 0.1-0.1 0.1-0.1 0.2 0.5-0.3 1-0.6 1.6-0.9 1.4-0.8 2.2-1.3 2.6-1.5 0.5-0.2 0.6-0.1 0.7 0.1s0.1 0.2-0.2 0.6c-0.2 0.2-0.7 0.6-1.4 1.3 0.3-0.2 0.5-0.3 0.8-0.5 1-0.6 2.1-1.2 2.9-1.6 1.7-0.9 1.7-1 1.9-0.6 0.1 0.2 0.1 0.2-0.2 0.6-0.4 0.4-1.3 1.2-3.1 2.8-0.2 0.2-0.4 0.3-0.6 0.5 6-3.4 19.8-11.3 32.3-18.5 8.7-5 17.7-10.2 24.3-14 11.4-6.5 11.4-6.5 11.7-6.1 0.3 0.5 0.3 0.5-10.7 7-6 3.6-14.1 8.4-22.1 13.1 8.1-4.7 16.2-9.4 22.4-12.9 11.2-6.4 11.2-6.4 11.4-5.9 0.3 0.5 0.3 0.5-10.6 7-6.3 3.8-14.9 8.9-23.1 13.8-1 0.6-2.1 1.3-3.2 1.9l2.1-1.2c8.1-4.6 16.4-9.5 22.5-13 10.6-6.1 10.6-6.1 10.9-5.6s0.3 0.5-10 6.7c-5.9 3.6-14 8.4-21.8 13.1l-7.5 4.5c2.1-1.2 4.3-2.5 6.4-3.7 7.6-4.4 15.5-8.9 21.3-12.3 6.4-3.7 8.8-5 9.7-5.4 0.5-0.2 0.6-0.1 0.7 0.1 0.3 0.5 0.3 0.5-9.2 6.2-5.5 3.3-12.9 7.8-20.2 12.2-2 1.2-4.1 2.4-6.1 3.7l5.7-3.3c7.2-4.1 14.6-8.4 20.1-11.6 6-3.4 8.2-4.7 9.1-5.1 0.5-0.2 0.6-0.1 0.7 0.1s0.2 0.3-0.3 0.6c-0.7 0.6-2.8 1.9-8.4 5.3-5.2 3.1-12 7.3-18.9 11.5-1.7 1-3.4 2-5.1 3.1l3.6-2.1c6.6-3.8 13.2-7.6 18.2-10.5 5.4-3.1 7.4-4.2 8.2-4.6 0.5-0.2 0.6-0.1 0.7 0.1s0.2 0.3-0.3 0.6c-0.7 0.6-2.7 1.7-7.9 4.9-2.4 1.4-5.2 3.1-8.2 4.9 2.4-1.4 4.7-2.7 6.7-3.9 5-2.9 7-4 7.8-4.3 0.5-0.2 0.6-0.1 0.7 0.1s0.2 0.3-0.3 0.6c-0.7 0.5-2.5 1.7-7.3 4.6-3.2 1.9-7.1 4.3-11.3 6.8 3.7-2.1 7.1-4.1 10-5.7 4.6-2.7 6.5-3.7 7.3-4 0.5-0.2 0.6-0.1 0.7 0.1s0.2 0.3-0.3 0.6c-0.6 0.5-2.3 1.6-6.6 4.2-4 2.5-9.5 5.8-14.9 9.1l-0.9 0.6c5-2.9 9.9-5.7 13.6-7.8 4-2.3 5.6-3.2 6.4-3.5 0.5-0.2 0.6-0.1 0.7 0.1s0.2 0.3-0.2 0.6c-0.6 0.5-2 1.4-5.4 3.5s-7.8 4.9-12.3 7.7c-1 0.6-2.1 1.3-3.1 2 0.6-0.4 1.2-0.7 1.8-1.1 17.1-9.8 17.1-9.8 17.3-9.8 0.1 0 0.2 0.1 0.3 0.2 0.1 0.2 0.2 0.3-0.2 0.6-0.5 0.4-1.8 1.2-4.6 3-1.4 0.8-2.9 1.8-4.6 2.8 0.6-0.3 1.2-0.7 1.7-1 2.5-1.4 3.7-2.1 4.3-2.4 0.5-0.2 0.5-0.1 0.6 0.1s0.2 0.3-0.2 0.6c-0.4 0.4-1.4 1-3.4 2.3-1.3 0.8-2.8 1.8-4.4 2.8 0.7-0.4 1.3-0.7 1.8-1.1 3.5-2 3.5-2 3.7-1.6 0.1 0.2 0.1 0.5-0.1 0.6h-0.1c-0.5 0.2-5.6 3.2-10 5.7-2.5 1.5-5 2.9-6.9 4-1.7 1-2.6 1.5-3.1 1.7s-0.5 0.1-0.6-0.1-0.2-0.3 0.2-0.6c0.4-0.4 1.4-1 3.4-2.3 1.4-0.9 3-1.9 4.8-3.1-3.2 1.8-6.2 3.6-8.6 5-2.5 1.4-3.7 2.1-4.3 2.4-0.5 0.2-0.5 0.1-0.6-0.1s-0.2-0.3 0.2-0.6c0.5-0.4 1.8-1.2 4.6-3 1.5-0.9 3.2-2 5-3.1-2.7 1.6-5.3 3.1-7.4 4.3-3.2 1.8-4.6 2.6-5.2 2.9-0.5 0.2-0.6 0.1-0.7-0.1s-0.2-0.3 0.2-0.6c0.6-0.5 2-1.4 5.4-3.5 3.3-2.1 7.8-4.9 12.3-7.7 1.2-0.7 2.4-1.5 3.6-2.2-1.9 1.1-3.9 2.3-5.9 3.4-5.1 3-10.3 5.9-14.1 8.1-4 2.3-5.6 3.2-6.4 3.5-0.5 0.2-0.6 0.1-0.7-0.1s-0.2-0.3 0.2-0.6c0.6-0.5 2.3-1.6 6.6-4.2 4-2.5 9.5-5.8 14.9-9.1 0.5-0.3 1-0.6 1.4-0.9-1 0.6-1.9 1.1-2.9 1.7-5.8 3.4-11.7 6.7-16.1 9.3-4.6 2.7-6.5 3.7-7.3 4 0-0.3-0.1-0.3-0.2-0.3z"/>
		</g>
		<g class="st1">
			<path class="st2" d="m67.9 89.3c-0.1 0-0.2-0.1-0.2-0.2-0.1-0.2-0.2-0.3 0.3-0.6 0.7-0.6 2.8-1.8 8.3-5.1 1.6-1 3.4-2 5.3-3.2-1.6 0.9-3.1 1.8-4.5 2.6-5.5 3.1-7.5 4.3-8.4 4.7-0.5 0.2-0.6 0.1-0.7-0.1s-0.2-0.3 0.3-0.6c0.7-0.6 2.8-1.8 8.3-5.1 3-1.8 6.6-3.9 10.4-6.2-4.5 2.6-8.7 5-12.2 7-5.8 3.3-8 4.6-8.8 4.9-0.5 0.2-0.6 0.1-0.7-0.1s-0.2-0.3 0.3-0.6c0.7-0.6 2.9-1.9 8.8-5.5 5.4-3.3 12.5-7.6 19.7-11.9 2.2-1.3 4.4-2.6 6.5-3.9-2.4 1.4-4.8 2.8-7.1 4.1-7.5 4.2-15 8.5-20.6 11.7-6.1 3.5-8.4 4.8-9.2 5.1-0.5 0.2-0.6 0.1-0.7-0.1s-0.2-0.3 0.3-0.6c0.7-0.6 3-1.9 9.1-5.6 4.5-2.7 10.2-6.1 16.1-9.6-6.4 3.7-12.7 7.3-17.6 10.1-10 5.7-10 5.7-10.3 5.3-0.3-0.5-0.3-0.5 10.4-6.9 6.2-3.7 14.6-8.7 22.7-13.6 1.4-0.9 2.9-1.7 4.3-2.6-1.6 0.9-3.1 1.8-4.7 2.7-8.3 5-16.9 9.9-23.2 13.6-10.9 6.3-10.9 6.3-11.2 5.8s-0.3-0.5 11.1-7.3c5.7-3.4 13.1-7.7 20.5-12.1-7.6 4.4-15.1 8.7-20.9 12-11.5 6.6-11.5 6.6-11.8 6.1s-0.3-0.5 11.2-7.3c4.6-2.7 10.3-6.1 16.3-9.6-6.3 3.7-12.4 7.2-17.3 10-11.7 6.7-11.7 6.7-12 6.2s-0.3-0.5 10.7-6.9c1.6-1 3.4-2 5.3-3.1-1.9 1.1-3.6 2.1-5.3 3-11 6.3-11 6.3-11.3 5.8s-0.3-0.5 10.8-7.1c4.5-2.7 10.2-6 16.1-9.5-5.9 3.4-11.6 6.7-16.2 9.3-11.1 6.4-11.1 6.4-11.3 5.9-0.3-0.5-0.3-0.5 11.3-7.4 5.5-3.3 12.7-7.5 20-11.8-7.2 4.2-14.3 8.3-19.8 11.4-11.7 6.7-11.7 6.7-12 6.2-0.1-0.2-0.1-0.2 0.8-1.8h-0.1c-1.8 1-1.8 1-2 0.7-0.1-0.1-0.1-0.1-0.2-1.3 0-0.2 0-0.4-0.1-0.6v-0.1-0.4h0.1l-0.1-0.3 0.1-0.1c0.2-0.1 0.4-0.2 0.6 0l0.1 0.1c0 0.1 0 0.1 0.2 1.3 0 0.2 0 0.3 0.1 0.5 0.3-0.2 0.6-0.3 0.9-0.5 1.6-0.9 1.6-0.9 1.8-0.9 0.1 0 0.2 0.1 0.3 0.2 0.1 0.2 0.1 0.2-0.9 1.9v0.1c4.5-2.5 20.6-11.7 35-20.1 8.9-5.1 18.1-10.4 24.9-14.3 11.7-6.7 11.7-6.7 12-6.2s0.3 0.5-11.3 7.4c-5.3 3.2-12.1 7.2-19.1 11.3 6-3.4 11.7-6.7 16.3-9.4 11.2-6.4 11.2-6.4 11.5-5.9s0.3 0.5-10.8 7.1c-4.5 2.7-10 5.9-15.9 9.4 5.5-3.2 10.7-6.2 15-8.6 11-6.3 11-6.3 11.3-5.8s0.3 0.5-10.7 6.9c-1.9 1.1-3.9 2.3-6.2 3.6 3.6-2.1 7-4 10-5.7 11.7-6.7 11.7-6.7 12-6.2s0.3 0.5-11.2 7.3c-4.5 2.7-10.1 5.9-15.9 9.4 5.9-3.4 11.4-6.6 16-9.2 11.6-6.6 11.6-6.6 11.8-6.1 0.3 0.5 0.3 0.5-11.1 7.3-5.4 3.2-12.4 7.3-19.5 11.5 6-3.5 11.8-6.8 16.4-9.4 10.9-6.3 10.9-6.3 11.2-5.8s0.3 0.5-10.4 6.9c-6.2 3.7-14.6 8.7-22.8 13.6-1.1 0.6-2.1 1.3-3.2 1.9 0.3-0.1 0.5-0.3 0.8-0.4 7.6-4.4 15.4-8.9 21.2-12.2 6.4-3.7 8.7-5 9.6-5.3 0.5-0.2 0.6-0.1 0.7 0.1s0.2 0.3-0.3 0.6c-0.7 0.6-3 1.9-9.1 5.6-4.3 2.6-9.9 5.9-15.6 9.3 5.5-3.2 10.9-6.3 15.1-8.7 6.1-3.5 8.3-4.8 9.2-5.1 0.5-0.2 0.6-0.1 0.7 0.1s0.2 0.3-0.3 0.6c-0.7 0.6-2.9 1.9-8.8 5.5-5.4 3.3-12.5 7.6-19.7 11.9-2.1 1.2-4.2 2.5-6.2 3.8l5.7-3.3c7.1-4.1 14.2-8.2 19.5-11.2 5.8-3.3 8-4.6 8.8-4.9 0.5-0.2 0.6-0.1 0.7 0.1s0.2 0.3-0.3 0.6c-0.7 0.6-2.8 1.8-8.3 5.1-2.9 1.7-6.3 3.7-9.9 5.9 3.4-2 6.6-3.8 9.3-5.3 5.5-3.1 7.5-4.3 8.4-4.7 0.5-0.2 0.6-0.1 0.7 0.1s0.2 0.3-0.3 0.6c-0.7 0.6-2.8 1.8-8.3 5.1-1.7 1-3.6 2.1-5.6 3.3 2.1-1.2 4-2.3 5.7-3.3 9-5.1 9-5.1 9.2-4.7 0.1 0.2 0 0.5-0.2 0.6h-0.1c-1 0.4-15 8.5-27.4 15.7-6.9 4-13.7 7.9-18.9 10.9-5.6 3.2-7.7 4.4-8.5 4.7-0.6-0.1-0.8-0.1-0.8-0.1z"/>
		</g>
		<g class="st1">
			<path class="st2" d="m86.1 54.2c-0.1 0-0.2-0.1-0.2-0.2-0.1-0.2-0.2-0.3 0.2-0.6 0.5-0.4 1.7-1.2 4.5-2.8 1.3-0.8 2.8-1.7 4.4-2.7-1.5 0.9-2.9 1.7-4.2 2.4-2.7 1.6-4 2.3-4.6 2.5-0.5 0.2-0.5 0.1-0.6-0.1s-0.2-0.3 0.2-0.6c0.5-0.4 1.7-1.1 4.3-2.8 1.7-1.1 3.8-2.4 6.1-3.8-2 1.1-3.9 2.2-5.4 3.1-2.6 1.5-3.8 2.2-4.3 2.4s-0.5 0.1-0.6-0.1-0.2-0.3 0.2-0.6c0.5-0.4 1.6-1.1 4.2-2.7 1.6-1 3.4-2.1 5.4-3.4-1.5 0.9-3 1.7-4.2 2.4-2.4 1.4-3.5 2-4.1 2.3-0.5 0.2-0.5 0.1-0.7-0.1-0.1-0.2-0.2-0.3 0.2-0.6 0.4-0.4 1.5-1 3.6-2.4 2.2-1.5 5.2-3.4 8.2-5.3 0.2-0.1 0.4-0.2 0.5-0.4-0.2 0.1-0.3 0.2-0.5 0.3-3.1 1.8-6.1 3.5-8.4 4.8-2.2 1.2-3.2 1.8-3.8 2.1-0.5 0.2-0.5 0.1-0.7-0.1-0.1-0.2-0.2-0.3 0.2-0.6 0.4-0.4 1.4-1 3.3-2.3l7.5-5c0.2-0.1 0.5-0.3 0.7-0.5-2.6 1.5-5.1 3-7.1 4.1-1.8 1.1-2.8 1.6-3.3 1.8s-0.5 0.1-0.7-0.1c-0.1-0.2-0.2-0.3 0.2-0.6s1.3-0.9 3-2c1.3-0.9 2.9-1.9 4.7-3-1.4 0.8-2.7 1.6-3.8 2.2-1.7 1-2.5 1.5-3 1.7s-0.5 0.1-0.7-0.1c-0.2-0.4-0.2-0.4 2.6-2.3 1.2-0.8 2.7-1.8 4.3-2.9-0.8 0.5-1.6 0.9-2.3 1.3-2.5 1.5-2.5 1.5-2.8 1.1-0.2-0.3-0.2-0.3 1.4-1.6 0.8-0.6 1.8-1.5 2.9-2.4 0.2-0.1 0.3-0.3 0.5-0.4-1.3 0.7-1.4 0.7-1.5 0.4-0.1-0.2-0.1-0.5 0.1-0.6h0.1c0.2-0.1 1.5-0.8 2.5-1.4 1.3-0.8 2-1.2 2.5-1.4s0.5-0.1 0.7 0.1c0.2 0.3 0.2 0.3-1.4 1.6-0.8 0.7-1.8 1.5-2.9 2.4-0.2 0.2-0.4 0.3-0.6 0.5 0.9-0.5 1.9-1.1 2.9-1.7 1.7-1 3.5-2 4.8-2.8 2.5-1.5 2.5-1.5 2.8-1.1 0.2 0.4 0.2 0.4-2.6 2.3-1.2 0.8-2.8 1.9-4.5 3l0.6-0.3c2.5-1.4 4.9-2.8 6.8-3.9 1.7-1 2.5-1.5 3-1.7s0.5-0.1 0.6 0.1 0.2 0.3-0.2 0.6-1.3 0.9-3 2c-1.3 0.9-3 1.9-4.7 3.1 1.9-1.1 3.6-2.1 5.1-2.9 1.8-1.1 2.8-1.6 3.2-1.8 0.5-0.2 0.5-0.1 0.7 0.1 0.1 0.2 0.2 0.3-0.2 0.6-0.4 0.4-1.4 1-3.3 2.3-2.1 1.4-4.8 3.2-7.6 5-0.2 0.2-0.5 0.3-0.7 0.5 0.5-0.3 1.1-0.6 1.6-0.9 3-1.8 6.1-3.5 8.4-4.8 2.2-1.2 3.2-1.8 3.7-2.1 0.5-0.2 0.5-0.1 0.7 0.1 0.1 0.2 0.2 0.3-0.2 0.6-0.4 0.4-1.5 1-3.6 2.4-2.2 1.5-5.2 3.4-8.2 5.3-0.2 0.1-0.5 0.3-0.7 0.4 0.6-0.3 1.1-0.6 1.7-1 3.3-1.9 6.6-3.8 9.1-5.2 2.4-1.4 3.5-2 4.1-2.3 0.5-0.2 0.5-0.1 0.6 0.1s0.2 0.3-0.2 0.6c-0.5 0.4-1.6 1.1-4.1 2.7-1.6 1-3.5 2.2-5.6 3.5 2.2-1.2 4.2-2.4 5.9-3.4 2.6-1.5 3.8-2.2 4.4-2.4 0.5-0.2 0.5-0.1 0.6 0.1s0.2 0.3-0.2 0.6c-0.5 0.4-1.7 1.2-4.3 2.8-1.7 1.1-3.9 2.4-6.1 3.8 2.5-1.4 4.8-2.8 6.8-3.9 2.7-1.6 4-2.3 4.6-2.5 0.5-0.2 0.5-0.1 0.6 0.1s0.2 0.3-0.2 0.6c-0.5 0.4-1.8 1.2-4.5 2.9-1.3 0.8-2.8 1.7-4.5 2.7 1.9-1.1 3.7-2.1 5.3-3 5.2-3 5.2-3 5.4-2.6 0.1 0.2 0 0.5-0.2 0.6h-0.1c-0.7 0.3-8.5 4.8-15.4 8.8-3.9 2.2-7.7 4.5-10.7 6.1-2.9 1.6-4.1 2.4-4.8 2.6-0.2 0.3-0.3 0.3-0.4 0.3z"/>
		</g>
		<g class="st1">
			<path class="st2" d="m60 75.4c-0.1 0-0.2-0.1-0.3-0.2-0.3-0.5-0.3-0.5 10.8-7.1 6.4-3.8 15.2-9 23.6-14 0.4-0.2 0.8-0.4 1.1-0.7-0.5 0.3-0.9 0.5-1.4 0.8-8.5 4.9-17.4 10-23.9 13.8-11.2 6.4-11.3 6.4-11.5 6-0.3-0.5-0.3-0.5 9.9-6.5 1.5-0.9 3.2-1.9 5-3-2.3 1.3-4.4 2.5-6.3 3.6-6.8 3.9-9.2 5.3-10.1 5.6-0.5 0.2-0.6 0.1-0.7-0.1-0.3-0.5-0.3-0.5 9.6-6.3 4-2.4 8.9-5.3 14.1-8.4-5.6 3.2-10.9 6.3-15.2 8.7-6.4 3.7-8.8 5-9.7 5.4-0.5 0.2-0.6 0.1-0.7-0.1-0.2-0.4-0.2-0.4 4.8-3.6 2.8-1.8 6.5-4.2 10.2-6.6l3.3-2.1c-1.1 0.6-2.3 1.3-3.4 1.9-3.8 2.2-7.7 4.4-10.6 6.1-2.8 1.6-4.1 2.4-4.8 2.6-0.5 0.2-0.5 0.1-0.6-0.1s-0.2-0.3 0.2-0.6c0.5-0.4 1.6-1.1 4.2-2.7 2.3-1.4 5.2-3.3 8.2-5.2-3.5 2-6.9 4-9.5 5.5-2.7 1.5-3.9 2.2-4.5 2.5-0.5 0.2-0.5 0.1-0.6-0.1s-0.2-0.3 0.2-0.6c0.5-0.4 1.7-1.1 4.2-2.7 1.9-1.2 4.3-2.7 6.8-4.3-2.7 1.6-5.4 3.1-7.5 4.3-2.6 1.5-3.9 2.2-4.5 2.5-0.5 0.2-0.5 0.1-0.7-0.1-0.1-0.2-0.2-0.3 0.2-0.6 0.5-0.4 1.6-1.1 4-2.7 2.5-1.6 5.8-3.8 9.1-5.9l2.7-1.8c-0.9 0.5-1.9 1.1-2.8 1.6-3.4 2-6.8 3.9-9.4 5.4-2.5 1.4-3.6 2.1-4.2 2.3-0.5 0.2-0.5 0.1-0.7-0.1-0.1-0.2-0.2-0.3 0.2-0.6 0.4-0.4 1.5-1.1 3.7-2.5 2.3-1.5 5.3-3.5 8.4-5.5l2.7-1.8c-0.8 0.5-1.6 0.9-2.4 1.4-3.1 1.8-6.1 3.5-8.4 4.8-2.2 1.2-3.2 1.8-3.8 2.1-0.5 0.2-0.5 0.1-0.6-0.1s-0.2-0.3 0.2-0.6c0.4-0.4 1.4-1 3.5-2.3 1.2-0.7 2.6-1.6 4.1-2.6-1.7 1-3.3 1.9-4.7 2.7-4.2 2.4-4.2 2.4-4.4 2-0.2-0.3-0.2-0.3 2.5-3.1l0.5-0.5c-0.1 0.1-0.2 0.1-0.3 0.2-3.1 1.8-3.1 1.8-3.3 1.4-0.1-0.3-0.1-0.3 1.7-2.6 0.1-0.1 0.2-0.3 0.4-0.5-1.6 0.9-1.6 0.9-1.8 0.9-0.1 0-0.2-0.1-0.2-0.2-0.1-0.2-0.1-0.2 0.4-1.4-0.1 0-0.1 0.1-0.2 0.1-1.6 0.9-1.6 0.9-1.8 0.6-0.1-0.2-0.1-0.2 0.3-1.5 0.1-0.2 0.2-0.5 0.2-0.7-0.1-0.2-0.1-0.5 0.1-0.6l0.1-0.1c0.4-0.2 0.5-0.1 0.6 0.1s0.1 0.2-0.3 1.6v0.1c0.1-0.1 0.2-0.1 0.3-0.2 1.3-0.8 1.3-0.8 1.5-0.7 0.1 0 0.2 0.1 0.2 0.2 0.1 0.2 0.1 0.2-0.4 1.4l0.6-0.3c1.8-1 1.8-1 2-1 0.1 0 0.2 0.1 0.2 0.2 0.2 0.3 0.2 0.3-1.6 2.6-0.1 0.2-0.3 0.3-0.4 0.5 0.3-0.2 0.6-0.4 0.9-0.5 3.1-1.8 3.1-1.8 3.4-1.4 0.2 0.3 0.2 0.3-2.5 3.1l-0.6 0.6c2.4-1.4 6.2-3.6 9.8-5.6 3-1.7 6.1-3.5 8.3-4.8 2.1-1.2 3.2-1.8 3.7-2.1 0.5-0.2 0.5-0.1 0.6 0.1s0.2 0.3-0.2 0.6c0.2 0.1-0.8 0.7-2.8 2-1.2 0.7-2.6 1.6-4.1 2.6 1.8-1 3.4-2 4.8-2.8 2.2-1.2 3.2-1.8 3.8-2.1 0.5-0.2 0.5-0.1 0.7 0.1 0.1 0.2 0.2 0.3-0.2 0.6-0.4 0.4-1.5 1.1-3.7 2.5-2.3 1.5-5.3 3.5-8.4 5.6-0.9 0.6-1.9 1.2-2.8 1.8 1.3-0.7 2.6-1.5 3.9-2.2 3.4-2 6.8-3.9 9.3-5.4 2.5-1.4 3.6-2.1 4.2-2.3 0.5-0.2 0.5-0.1 0.7 0.1 0.1 0.2 0.2 0.3-0.2 0.6-0.5 0.4-1.6 1.1-4 2.7-2.5 1.6-5.8 3.8-9.1 5.9-0.9 0.6-1.9 1.2-2.8 1.9 1.2-0.7 2.5-1.5 3.7-2.2 3.6-2.1 7.2-4.2 9.9-5.7 2.6-1.5 3.8-2.2 4.4-2.5 0.5-0.2 0.5-0.1 0.6 0.1s0.2 0.3-0.2 0.6c-0.5 0.4-1.7 1.1-4.2 2.7-1.9 1.2-4.3 2.7-6.8 4.3 2.9-1.6 5.6-3.2 7.8-4.5 2.7-1.5 3.9-2.2 4.5-2.5 0.5-0.2 0.5-0.1 0.6 0.1s0.2 0.3-0.2 0.6c-0.5 0.4-1.6 1.1-4.1 2.7-2.3 1.5-5.3 3.3-8.4 5.3 0.1 0 0.2-0.1 0.3-0.1 3.8-2.2 7.7-4.4 10.6-6.1 2.8-1.6 4.1-2.4 4.7-2.6 0.5-0.2 0.5-0.1 0.7 0.1 0.1 0.2 0.2 0.3-0.2 0.6-0.5 0.4-1.7 1.2-4.5 3s-6.5 4.2-10.3 6.6c-1.5 1-3 1.9-4.5 2.9 5.9-3.4 13.3-7.7 20.4-11.7 7.6-4.4 15.6-9 21.4-12.3 6.5-3.7 8.8-5 9.7-5.4 0.5-0.2 0.6-0.1 0.7 0.1s0.2 0.3-0.3 0.6c-0.7 0.6-3 2-9.3 5.7-4.1 2.4-9.3 5.5-14.6 8.7 6.5-3.7 12.8-7.4 17.7-10.2 6.8-3.9 9.2-5.3 10.1-5.6 0.5-0.2 0.6-0.1 0.7 0.1s0.2 0.3-0.3 0.6c-0.8 0.6-3.1 2-9.6 5.9-1.8 1-3.7 2.2-5.8 3.4 4.1-2.4 7.9-4.6 11.2-6.4 11.2-6.4 11.2-6.4 11.5-6 0.3 0.5 0.3 0.5-10.8 7.1-6.4 3.8-15.1 9-23.6 14-0.3 0.2-0.6 0.4-1 0.6 0.1-0.1 0.3-0.1 0.4-0.2 8.4-4.8 17-9.8 23.4-13.5 11-6.3 11-6.3 11.3-5.8 0.1 0.2 0 0.5-0.2 0.6 0 0-0.1 0-0.1 0.1-1.2 0.5-18.6 10.6-34 19.4-8.4 4.8-17 9.8-23.4 13.5-8.6 4.7-10.4 5.8-11 5.8z"/>
		</g>
		<g class="st1">
			<path class="st2" d="m53.1 59.2c-0.1 0-0.2-0.1-0.3-0.2-0.2-0.4-0.2-0.4 2.3-2.2 1.3-1 3-2.2 4.8-3.5l1.2-0.9c-0.3 0.2-0.7 0.4-1 0.6-7.4 4.2-7.4 4.2-7.6 4.2-0.1 0-0.2-0.1-0.3-0.2-0.2-0.3-0.2-0.3 2-2 1.2-0.9 2.7-2 4.3-3.1 0.2-0.1 0.4-0.3 0.6-0.4-0.3 0.1-0.5 0.3-0.7 0.4-1.7 1-3.4 2-4.7 2.7-2.5 1.4-2.5 1.4-2.7 1s-0.2-0.4 1.9-1.9c0.9-0.7 2.2-1.6 3.4-2.5-1.4 0.8-2.8 1.6-3.9 2.2-2.3 1.3-2.3 1.3-2.6 1-0.2-0.3-0.2-0.3 1.8-1.9 1-0.8 2.4-1.9 3.8-3 0.4-0.3 0.8-0.6 1.1-0.9-0.4 0.2-0.8 0.4-1.1 0.7-1.5 0.8-2.9 1.7-4 2.3-2.2 1.3-2.2 1.3-2.4 0.9-0.2-0.3-0.2-0.3 1.7-1.8 0.9-0.8 2.2-1.8 3.5-2.8 0.3-0.2 0.6-0.5 0.9-0.7-0.4 0.2-0.8 0.5-1.2 0.7-1.5 0.8-2.9 1.7-4 2.3-2.2 1.3-2.2 1.3-2.4 0.9s-0.2-0.4 1.7-1.7c0.5-0.4 1.2-0.8 1.8-1.3-0.8 0.4-1.5 0.9-2.1 1.2-2.2 1.2-2.2 1.2-2.4 0.9s-0.2-0.3 1.5-1.7c0.9-0.7 2-1.6 3.1-2.5 0.2-0.1 0.3-0.3 0.5-0.4-1.1 0.7-2.3 1.3-3.1 1.8-1.8 1-1.8 1-2 0.7s-0.2-0.3 1.3-1.6c0.8-0.6 1.8-1.5 2.8-2.3 0.2-0.2 0.4-0.4 0.7-0.6-3.8 2.2-3.8 2.2-4 2.2-0.1 0-0.2-0.1-0.3-0.2-0.1-0.2-0.1-0.2 0.2-0.6 0.4-0.4 1.2-1.2 3-2.7l0.1-0.1c-1.8 1-2.7 1.5-3.2 1.8-0.5 0.2-0.5 0.1-0.7-0.1-0.1-0.2-0.1-0.2 0.2-0.6 0.4-0.4 1.1-1 2.5-2.2-2.3 1.3-2.3 1.3-2.5 1s-0.2-0.3 2.1-2.8l0.3-0.3c-1.8 1.1-1.8 1-2.1 0.7-0.2-0.3-0.2-0.3 1.2-1.8-0.7 0.4-0.8 0.4-1 0.1-0.1-0.2-0.1-0.2 0.9-1.8 0 0 0-0.1 0.1-0.1h-0.1l0.2-0.4-0.2-0.4s0.3-0.2 0.5-0.3c0.7-0.4 0.7-0.4 0.9-0.3 0.1 0 0.2 0.1 0.2 0.2 0.1 0.2 0.1 0.2-0.8 1.8 1.3-0.7 1.3-0.7 1.5-0.7 0.1 0 0.2 0.1 0.2 0.2 0.1 0.3 0.2 0.3-1.2 1.8 1.9-1.1 1.9-1.1 2.1-0.7 0.2 0.3 0.2 0.3-2 2.7-0.1 0.1-0.2 0.2-0.3 0.4 0.3-0.2 0.6-0.3 0.8-0.5 3.2-1.9 3.2-1.9 3.4-1.8 0.1 0 0.2 0.1 0.3 0.2 0.1 0.2 0.1 0.2-0.2 0.6-0.4 0.4-1.1 1-2.5 2.2 2.7-1.6 2.7-1.6 2.9-1.5 0.1 0 0.2 0.1 0.3 0.2 0.1 0.2 0.1 0.2-0.2 0.6-0.4 0.4-1.2 1.2-3 2.7l-0.1 0.1c0.1-0.1 0.2-0.1 0.4-0.2 4-2.3 4-2.3 4.2-2.2 0.1 0 0.2 0.1 0.3 0.2 0.2 0.3 0.2 0.3-1.4 1.6-0.8 0.7-1.8 1.5-2.9 2.4-0.2 0.2-0.4 0.3-0.6 0.5 0.2-0.1 0.4-0.2 0.6-0.4 1.1-0.7 2.3-1.3 3.1-1.8 1.8-1 1.8-1 2-0.6 0.2 0.3 0.2 0.3-1.5 1.7-0.9 0.7-2 1.6-3.2 2.5-0.2 0.1-0.3 0.3-0.5 0.4 0.4-0.2 0.8-0.5 1.2-0.7 1.4-0.8 2.9-1.6 3.9-2.3 2.1-1.2 2.1-1.2 2.4-0.9 0.2 0.4 0.2 0.4-1.8 1.8-0.5 0.4-1.1 0.8-1.8 1.3 0.8-0.5 1.6-0.9 2.3-1.3 2.2-1.3 2.2-1.3 2.4-0.9 0.2 0.3 0.2 0.3-1.7 1.8-0.9 0.8-2.2 1.8-3.5 2.8-0.3 0.2-0.6 0.5-0.9 0.7 0.4-0.2 0.8-0.5 1.2-0.7 1.5-0.8 2.9-1.7 4-2.3 2.2-1.3 2.2-1.3 2.4-0.9 0.2 0.3 0.2 0.3-1.8 1.9-1 0.8-2.4 1.9-3.7 2.9-0.4 0.3-0.8 0.6-1.2 1 0.6-0.3 1.1-0.6 1.7-1 1.6-0.9 3.2-1.8 4.4-2.5 2.4-1.4 2.4-1.4 2.6-1s0.2 0.4-1.9 1.9c-1 0.7-2.2 1.6-3.4 2.5 1.7-1 3.3-1.9 4.6-2.7 2.5-1.4 2.5-1.4 2.7-1 0.2 0.3 0.2 0.3-2 2-1.2 0.9-2.7 2-4.3 3.1-0.2 0.1-0.4 0.3-0.6 0.4 0.4-0.2 0.8-0.5 1.2-0.7 1.8-1 3.6-2.1 5-2.9 2.6-1.5 2.6-1.5 2.9-1.1 0.2 0.4 0.2 0.4-2.3 2.2-1.3 1-3.1 2.2-4.8 3.5-0.4 0.3-0.8 0.6-1.2 0.8 0.6-0.4 1.3-0.7 1.9-1.1 2-1.2 4-2.3 5.5-3.2 2.9-1.6 2.9-1.6 3.1-1.3 0.1 0.2 0.1 0.5-0.1 0.6h-0.1c-0.4 0.2-4.4 2.5-8 4.6-2 1.2-4 2.3-5.6 3.2-2 1-2.7 1.4-2.9 1.4z"/>
		</g>
		<g class="st1">
			<path class="st3" d="m70.8 103.8c0.2-0.1 0.1-0.2-0.5-0.2l-0.4 0.3 0.9-0.1z"/>
		</g>
		<g class="st1">
			<path class="st3" d="m67.1 103.2c-0.6 0.1-1.4 0.2-1 0.5 0.7-0.2 0.8-0.1 1.5-0.4 0.6 0 1 0.1 0.9 0.2 0.2-0.1 0.9 0.1 1.2-0.1-0.7-0.2-1.6-0.3-2.6-0.2-0.3 0.1-0.1 0.1 0 0"/>
		</g>
		<g class="st1">
			<path class="st3" d="m69.4 88.5l-0.4 0.2c0.1-0.1 0.3-0.1 0.4-0.2"/>
		</g>
		<g class="st1">
			<path class="st3" d="m62.2 74.8c0.1 0.1 0.2 0.1 0.3 0.1-0.1 0-0.2-0.1-0.3-0.1"/>
		</g>
		<g class="st1">
			<path class="st3" d="m55.6 71.8c0.1 0.1 0.2 0.1 0.3 0.2-0.2-0.1-0.3-0.2-0.3-0.2"/>
		</g>
		<g class="st1">
			<path class="st3" d="m69.4 88.5l1.1-0.7c-0.1-0.1-0.6 0.3-1.1 0.7"/>
		</g>
		<g class="st1">
			<path class="st3" d="m59.6 102.8h0.5-0.5c0.1 0 0.1 0 0 0"/>
		</g>
		<g class="st1">
			<path class="st3" d="m55.7 95l-0.3 0.1c-0.1 0-0.1 0.1-0.2 0.2l0.5-0.3z"/>
		</g>
		<g class="st1">
			<path class="st3" d="m46.3 96c0.1 0-0.4-0.2-0.6-0.3l0.1 0.1c0.1 0.1 0.2 0.1 0.5 0.2"/>
		</g>
		<g class="st1">
			<path class="st3" d="m57.4 101.3l0.3 0.1s-0.2-0.1-0.3-0.1"/>
		</g>
		<g class="st1">
			<path class="st3" d="m63.4 92.4h0.1-0.1"/>
		</g>
		<g class="st1">
			<path class="st3" d="m83.9 102.9c-0.1 0-0.1 0 0 0"/>
		</g>
		<g class="st1">
			<path class="st3" d="m70.8 103.2h0.2v-0.1l-0.2 0.1z"/>
		</g>
		<g class="st1">
			<path class="st3" d="m49.3 64.6c0.1 0.2 0 0.1 0 0"/>
		</g>
		<g class="st1">
			<path class="st3" d="m87.3 47.6c-0.4 1 0-1.7-0.5-0.2 0.1-0.1 0.1 0.3 0.2 0.5s0.1 0.3 0.3-0.3"/>
		</g>
		<g class="st1">
			<path class="st3" d="m59.4 102.7c-0.1 0-0.3-0.1-0.5-0.1 0.2 0.1 0.4 0.1 0.5 0.1"/>
		</g>
		<g class="st1">
			<path class="st3" d="m86.8 47.4v0.2-0.2"/>
		</g>
		<g class="st1">
			<path class="st3" d="m50.8 54.1c0 0.1 0 0.1 0.1 0.2-0.1 0-0.1-0.1-0.1-0.2"/>
		</g>
		<g class="st1">
			<path class="st3" d="m47.1 59.3v-0.3 0.1 0.2"/>
		</g>
		<g class="st1">
			<path class="st3" d="m47.3 46.2v-0.6 0.1c-0.1 0.1 0 0.2 0 0.5"/>
		</g>
		<g class="st1">
			<path class="st3" d="m48.5 37.2l-0.1 0.1c0 0.1-0.1 0.2-0.1 0.3l0.2-0.4z"/>
		</g>
		<g class="st1">
			<path class="st3" d="m109.2 88.2c-0.2 0.1-0.3 0.2-0.5 0.2 0.3 0-0.6 1.1 0.5-0.2"/>
		</g>
		<g class="st1">
			<path class="st3" d="m59.7 102.7c-0.1 0-0.2 0.1-0.3 0 0.1 0.1 0.2 0.1 0.3 0v0"/>
		</g>
		<g class="st1">
			<path class="st3" d="m45.4 46c-0.1-0.5-0.1-1.1-0.1-1.6 0 0.4 0 1 0.1 1.6"/>
		</g>
		<g class="st1">
			<path class="st3" d="m125.6 40.8c0.1 0.1 0.1 0 0 0"/>
		</g>
		<g class="st1">
			<path class="st3" d="m45.7 39.7c0.1-0.3 0.3-0.5 0.4-0.8v-0.2c-0.1 0.3-0.2 0.6-0.4 1"/>
		</g>
		<g class="st1">
			<path class="st3" d="m108.8 88.4z"/>
		</g>
		<g class="st1">
			<path class="st3" d="m101.4 95.4c1.2-0.9 0.4-0.6 0.5-1 1.4-1.1 0.8-0.3 1.4-0.5 0.8-0.8 1.3-1.5 1.9-2 0.1 0 0.2-0.1 0.1 0.1 0.7-0.9 2.6-2.3 3.3-3.5 0.1-0.1 0.1-0.1 0.2-0.1-0.3 0.1-0.4 0-0.5-0.1 0.4-0.5 0.7-1 1-1.1-0.3 0.3-0.2 0.4-0.3 0.5l0.4-0.6c0.6-0.3-0.6 0.7-0.4 0.9 0.9-1 1.7-2.4 2.4-3.1 0.4 0-1.5 1.9-0.4 1-0.4 0.4-0.7 0.8-1.1 1.1 1.2-0.6-0.7 0.7 0.4 0.2 1.4-1.6 1.4-1.9 2.8-3.5 0.2-0.5-0.3 0-0.1-0.5 1.5-2.6 2-1.5 2.8-3.6 0.1-0.6-0.1-0.9 0.9-2.2v0.6c1-1.8 0.2-1.2 1.3-3-0.1 0.4-0.6 1.5-0.5 1.2 0.9-1.1 0.3-0.9 0.8-1.9l0.4-0.1c0.9-2 1.6-4.3 2.3-6.5 0 0.1 0 0.6 0.3 0.1 0.8-2.9 1.8-6.2 2.3-9.1 0-0.4-0.1-0.8-0.1-1.1s0.2-0.5 0.2-0.2c0.2-1.1-0.2-0.1-0.2-0.6 0.1-0.6 0.2-0.8 0.3-0.4 0-1 0-2.4-0.1-3.9v-2.1-0.5-0.2-0.1l0.1-0.1c0.1 0 0.1-0.1 0.2-0.1l-0.1 0.2c0.1 0 0.1-0.1 0.2-0.1l0.3-0.3c0.2-0.2 0.3-0.4 0.5-0.6 0.3-0.4 0.6-0.7 1.2-1.1l-0.2 0.2c0.7-0.6 1.4-1.2 2-1.8 0.3-0.3 0.6-0.7 1-1 0.3-0.4 0.6-0.6 1-1.1l1.2-1.5c0.4-0.5 0.7-1 1.1-1.4 0.4-0.5 0.7-1 1.1-1.4 0.2-0.3 0.4-0.5 0.6-0.8 0.1-0.1 0.2-0.3 0.3-0.4s0.1-0.2 0.2-0.3h-0.2c-1 0.5-2.2 1-3.4 1.4-0.6 0.2-1.1 0.5-1.6 0.6-0.4 0.2-0.7 0.3-0.8 0.5-0.7 0.2-1.2 0.3-1.4 0.3h-0.3-0.1c-0.1 0-0.3-0.1-0.4-0.1 0 0-0.2 0.1-0.5 0.3-0.3 0.1-0.7 0.3-1 0.4l0.8-0.4-0.7 0.3c-0.1 0-0.2 0.1-0.3 0.1l1.2-0.5v-0.1c-0.1 0.1-0.5 0.3-0.7 0.3 0.1-0.1 0.5-0.4 0.8-0.6s0.5-0.2 0.5-0.2v-0.1l0.3-0.3 0.5-0.7c0.3-0.5 0.6-0.9 0.9-1.4 0 0.1-0.2 0.6-0.5 1 0.8-1.6 0.5-0.1 1.2-1.6-0.2 0.2-0.1-0.2-0.1-0.3 0.2-0.3 0.4-0.6 0.7-1.1 0.2-0.4 0.5-1 0.7-1.5 0.4-1 0.8-2.1 1.1-3.1 0.1 0 0.1 0.1 0.2 0.1 0.1-0.2 0.2-0.4 0.2-0.6s0.1-0.3 0.1-0.5c-1 0.6-2 1.1-3 1.7s-2 1.1-3 1.6c-0.3 0.1-0.6 0.3-0.8 0.4l-0.8 0.3c-0.5 0.2-1.1 0.4-1.6 0.6 0.9-0.2 0.8 0.1 0.1 0.4l-0.4-0.2c-0.4 0.3 0.8-0.2-0.1 0.4-1 0.3-0.7-0.1-0.2-0.3l-1.1 0.4c-0.1-0.1 0.2-0.2 0.2-0.3-0.2 0.2-0.7 0.2-1.3 0.3-0.3 0-0.5 0.1-0.8 0.1-0.1 0-0.2 0.1-0.3 0.1 0 0-0.1 0-0.1 0.1v0.1-0.1h-0.1l-0.1-0.1c-0.1-0.1-0.2-0.2-0.4-0.3-0.4-0.4-0.8-0.7-1.2-1-0.8-0.6-1.6-1.1-2.6-1.6-0.2 0.2-0.9-0.3-1.6-0.4-1.5-0.8-3.3-1.5-5.3-1.8-1.4-0.1-0.4 0.1-1.1 0.2-0.1-0.3-2.1-0.3-1.1-0.4-0.6 0-1.1 0.1-1.6 0.1s-0.9 0.1-1.3 0.1c-0.4 0.1-0.9 0.2-1.4 0.3-0.5 0.2-1.1 0.3-1.9 0.6 0.3 0 0.7-0.1 0.6 0.1-0.5 0.1-1.2 0.3-1.2 0.2l0.1-0.1c-1.6 0.7-3.4 1.5-5.1 2.5s-3.1 2.3-3.8 3.5l0.1-0.1c-0.5 0.8-1 1.6-1.4 2.5-0.7 1.1 0.3-0.8-0.4 0-0.6 1.4-1.1 2.5-1.5 3.6s-0.7 2.1-0.7 3.4c-0.1 0.2-0.2 0.4-0.2 0.6-0.1 0.2-0.1 0.5-0.1 0.7-0.1 0.5-0.1 1.1-0.1 1.7s0.1 1.3 0.2 1.9v0.2 0.1 0.2c-0.2 0-0.1 0-1.1-0.2l0.1 0.2c-0.7 0.1-0.8-0.2-1.2-0.3 0.1 0.1 0.7 0.2 0.3 0.3-5.5-0.4-11.1-2.4-16-4.9-1.8-0.9-1.4 0.2-3.5-1.3l0.8 0.1c-1.9-0.8-3.7-2-5.4-3.2-1.7-1.3-3.3-2.6-4.9-3.8 0.2 0.1 0.3 0.1 0.6 0.3-0.5-0.7-2.3-2.2-2.4-2.1-0.4-0.5 0-0.2-0.2-0.5-0.1-0.2-0.3-0.3-0.5-0.5l-0.3-0.2-0.1-0.1-0.2-0.2c-0.6-0.5-1-1-1.2-1.4-0.1-0.1 0.3 0.2 0.5 0.4-0.3-0.3-1-1.1-1.6-1.7l-0.2-0.2v0 0.1s0 0.1-0.1 0.1c-0.1 0.2-0.2 0.3-0.2 0.4-0.1 0.2-0.1 0.3 0 0.2-0.3 0.5-0.6 1.1-0.9 1.6-0.1 0.3-0.3 0.6-0.4 0.9-0.1 0.2-0.1 0.4-0.2 0.5-0.3 0.7-0.5 1.3-0.7 2 0 0.9-0.7 2.7-0.3 3-0.2-0.1-0.4 0.6-0.4 1.5s0.1 1.8 0.2 2.3c-0.1-0.3 0 0.9-0.2 0.5 0.1 0.6 0.2 1.1 0.3 1.5s0.2 0.6 0.3 0.4c0 1.1 0.4 2.1 0.9 3 0.4 0.9 0.9 1.6 0.9 2.3 0.8 1.2 1.6 2.2 2.5 3.2 0.1 0.2 0.1 0.1 0.2 0.2l0.1 0.1c0.1 0.1 0.2 0.2 0.3 0.2 0.2 0.2 0.5 0.3 0.7 0.5 0.2 0.1 0.3 0.2 0.5 0.3l0.1 0.1h-0.1-0.2c-0.3-0.2-0.3-0.2-0.3-0.3-0.1-0.1-0.3-0.2-0.4-0.3-0.2-0.2-0.4-0.3-0.7-0.4 0.1 0.1 0.3 0.2 0.4 0.2 0.1 0.1 0.2 0.1 0.3 0.2l0.2 0.1v0.1c0 0.1-0.1 0.1-0.2 0.1-0.2 0-0.7 0-1.2-0.2-0.1 0-0.1-0.1-0.1-0.1h0.1c0.1 0 0.2 0 0.2-0.1h-0.2-0.1l-0.2-0.1c-0.3-0.1-0.7-0.2-1-0.3-1-0.4-2.2-1.1-3.3-1.6-0.1 0.1-0.1 0.4-0.1 0.6v0.7 1.4 0.7l0.1 0.6c0.1 0.3 0.1 0.6 0.2 0.9 0 0-0.1-0.3-0.2-0.5 0.1 0.5 0.2 1.2 0.3 1.1l-0.2-0.5c0.1-0.8 0.9 1.9 1.2 1.9-0.4-0.3-0.2 0.3-0.1 0.8 0.1 0.6 0.3 1-0.3 0.5 0.2 0.3 0.4 0.7 0.5 0.5 0.2 0.5 0.2 0.7-0.2 0.2 0.4 0.8 0.6 1.1 0.8 1.3s0.3 0.4 0.8 1.1c-0.1 0-0.3-0.2-0.5-0.3 0.3 0.3 0.6 0.6 0.9 1s0.7 0.8 1.1 1.4c-0.1 0 0 0.1-0.3-0.2 0.8 0.9 1.6 1.6 2.4 2.2 0.4 0.3 0.9 0.6 1.3 0.9 0.5 0.3 1 0.6 1.5 1-0.4-0.1-0.3 0.1 0 0.3 0.1 0 0.2 0.1 0.2 0.1 0.1 0.1 0.2 0.1 0.2 0.1 0.1 0.1 0.1 0.1 0 0.2 0.2 0.1 0.4 0.1 0.6 0.2v-0.2c0.2 0.1 0.4 0.2 0.7 0.3s0.6 0.1 0.9 0.2c0.2 0.1 0.4 0.1 0.5 0.1-0.3-0.1-0.6-0.1-0.9-0.2 0.2 0.1 0.4 0.1 0.7 0.2l0.4 0.1h0.2-0.1 0.2 0.1-0.1l-0.2-0.1c0.7 0.1 1.1 0.2 1.4 0.2 0.1 0 0.3 0 0.4 0.1 0.1 0 0.1 0 0.3 0.1-0.1 0-0.3 0.1-0.5 0.1 0.2-0.1-1.1 0.3-2.1 0.1-0.1 0.1-0.5 0.3-1.4 0.3-0.3-0.1-0.3-0.4-0.5-0.4 0 0.1-0.4 0.2-0.9 0.1-1 0-2-0.2-2.3-0.1 0.2 0 0.1-0.2-0.1-0.3-0.1 0-0.2 0.1-0.3 0.1s0 0.1 0 0.1v0.1 0.2c0 0.1-0.1 0-0.2-0.1 0.4 1.1 0.4 0.9 0.5 0.9 0.1-0.1 0.1-0.1 0.5 1-0.1-0.2-0.1-0.1-0.3-0.5 0.1 0.3 0.2 0.6 0.4 0.9 0.1 0.3 0.2 0.5 0.3 0.7 0.3 0.4 0.5 0.9 0.8 1.2 0.5 0.8 1.1 1.5 1.7 2.3 0.1 0.6-1.1-1.2-0.9-0.6 1.7 2.2 4.2 3.8 6.5 5-0.1-0.1-0.3-0.2-0.4-0.3 0.5-0.2 1.6 1.1 3 1.3-0.3-0.1-0.5 0.1-0.4 0.1 0.8 0.3 1.6 0.5 2.5 0.7 0.5 0.1 1.2 0.1 2.2 0.1h0.2l-0.1 0.1-0.1-0.1c-0.8 0.5-1.4 1-2.2 1.4-0.2 0.3-0.8 0.6-0.3 0.5-1.6 0.6-3 1.4-4.4 2.1s-2.8 1.3-4.4 1.5c0.3-0.1 0.8-0.3 0.5-0.3-0.8 0.3-1.6 0.5-2.5 0.8 0.2 0.1 0.4 0 0.9 0.1-0.3 0.2-1 0.5-1.6 0.6 1.1-0.4-0.1-0.3-0.6-0.3 0.1 0-0.1 0.1 0 0.2-1.4-0.1-0.2 0.4-2 0.5l0.1-0.1c-0.7 0.1-1.3 0.3-2.1 0.4-0.3-0.2 0.7-0.2 0.8-0.4-1.1 0.1-2 0.6-3.1 0.4 0.4-0.1 1.2-0.1 1.6-0.2-0.1 0.4-0.2 0.4-0.4 0.4s-0.4 0-0.6-0.1h-1.1 0.1c-0.8 0-1.8-0.1-2.9-0.3l0.9 0.1c-0.3 0.1-0.6 0.2-1 0.2s-1-0.1-1.6-0.1h-0.2-0.1-0.1s0.1 0 0.1 0.1c0.4 0.2 0.9 0.5 1.4 0.7-1.3-0.6-1.7-0.7-1.6-0.7 0 0 0.3 0.2-0.2 0.1 0.3 0.3 0.9 0.7 0.5 0.6 0.8 0.4 1.1 0.6 1.5 0.9 0.2 0.1 0.4 0.3 0.7 0.5s0.7 0.3 1.2 0.5c0 0.1 1.1 0.6 0.7 0.6 0.8 0.4 0.7 0.3 0.5 0.1s-0.6-0.4-0.5-0.4c0.3 0.1 0.6 0.2 0.9 0.4 0.3 0.1 0.5 0.2 0.7 0.3 0.4 0.2 0.9 0.5 1.4 0.7 1 0.5 2.1 1 3.3 1.3 1 0.3 1.6 0.4 2.3 0.5 0.6 0.1 1.2 0.2 2.2 0.3 0.6 0.3-0.6 0.1-0.6 0.1 1 0.4 1.8 0.6 2.8 0.7-0.2 0 0 0.1 0.3 0.3 0.8 0.1 0.6-0.2 1.6 0.1-0.2 0.1-0.5 0.2-0.9 0.2 0.9 0.1 1.9 0.1 2.9 0.2 0.2 0.2-0.6 0.1-1 0.2 1.1 0.1 2.9 0.3 3.2 0.1-0.2 0-0.5-0.1-0.7-0.2 0.4 0 0.2 0.2-0.1 0.2-1 0.1-1.3-0.2-1.4-0.3h0.7c-0.6-0.5-2.8-0.3-4.2-0.7l0.6-0.2h-1.5c-0.3-0.2-0.4-0.4 0.2-0.3-0.9-0.4-0.9-0.1-1.7-0.5-0.1-0.1 0-0.1 0.1 0l-1-0.2c0.2 0-0.1-0.3 0.5-0.1-1.6-0.7-2.8-0.6-3.3-1h0.1c-2.3-0.7-0.3 0.2-2.1-0.2-0.3-0.3-0.6-0.7-0.9-1l-0.3 0.3c-0.2-0.1-0.7-0.3-0.5-0.4-0.9-0.2 0.1 0.2-0.5 0.1-0.5-0.3-1.3-0.7-1.9-1s-1.1-0.6-0.8-0.7c-0.3-0.1-0.2 0.1-0.1 0.2s0.2 0.1-0.5-0.1c0.2-0.1 0-0.3-0.5-0.5-0.4-0.2-1.2-0.5-1.3-0.7 1 0.3 1.2 0.6 1.2 0.3-1.1-0.3-1.8-0.8-0.3-0.5 0.3 0 0.4 0.1 0.5 0.1-0.5-0.2-0.1-0.2 0.4-0.1h1.9s0.5 0.1 1.5 0.1c0.9 0 2.1-0.1 2.8-0.1v0.1c0.1-0.2 0.6-0.3 1.1-0.4s1.2-0.3 1.7-0.4c0 0.2-0.2 0.3-0.8 0.5 0.3-0.1 0.7-0.1 1-0.2 0.2-0.2 0.5-0.3 1.2-0.5l-0.2 0.3c1.3-0.4 2.6-1 4.3-1.5 0-0.2-1.5-0.1 0.2-0.9 0.1 0.1 0.2 0.2-0.2 0.5 0.1-0.1 0.5-0.3 0.8-0.4l-0.6 0.5c0.8-0.2 0.3-0.3 0.9-0.5 0.1 0.2 0.5-0.1 0.5 0.1-0.1 0.1-0.5 0.2-0.8 0.3 0.7-0.2 1.5-0.5 1.9-0.5-0.1-0.1-0.1-0.2 0.4-0.4 1.2-0.6 0.5 0 1.3-0.3 0.2-0.3 1.1-0.6 1-0.8 0.4-0.2 0.5-0.1 0.6-0.2s0.2-0.1 0.3-0.2 0.3-0.2 0.4-0.3c0.4-0.3 0.8-0.6 1.1-0.8 0.7-0.5 1.1-0.8 0.4-0.6l-0.2 0.1 0.1-0.1c0.3-0.2 0.6-0.5 0.9-0.7l0.5-0.4 0.2-0.2-0.1-0.1c-0.5 0-1-0.1-1.5-0.1-0.5-0.1-1-0.2-1.5-0.2-0.3 0-0.5-0.1-0.8-0.2l-0.6-0.1-1.2-0.3v-0.1c-1.3-0.3-2.8-1-3.7-1.4-0.4-0.2-0.7-0.6-0.5-0.6-0.9-0.5-1.1-0.5-2.1-1.5 0.9 0.5-0.2-0.3 0.9 0.6-1-0.9-1.1-1.2-2.3-2 0.5 0.2-0.5-0.9-0.9-1.4 0.1 0.3 0.3 0.5 0.4 0.8-0.5-0.5-0.8-1-1.2-1.6l0.4 0.1c-0.5-0.9-1-1.7-1.4-2.4-0.1-0.1-0.1-0.1-0.1-0.2l-0.1-0.1c-0.1-0.1-0.1-0.2-0.2-0.3s-0.1-0.2-0.2-0.3l0.2-0.4v-0.1h0.1c0.3 0.1 0.6 0.1 0.9 0.3 0.1-0.1 0-0.1-0.3-0.2-0.2-0.1-0.5-0.1-0.4-0.2 0.2 0 0.4 0.1 0.6 0.2 0.1 0 0.2 0.1 0.3 0.1 0.2 0 0.4 0.1 0.6 0.1 0.9 0.1 1.7 0.2 2 0.2 1.4 0 1.8-0.3 2.2-0.4 0.3-0.2 0.6-0.3 1.8-0.6-0.5 0-1.3 0-0.1-0.4 0.1 0 0 0 0 0h-0.1-0.1c-0.1 0-0.1 0-0.1-0.1h0.3c0.4 0 0.9 0.1 1.1 0.2 0.1 0.1 0 0.1-0.1 0.1 0 0 0.1 0 0.1 0.1-0.1 0-0.2 0.1-0.2 0.1-0.1 0 0 0.1 0.5 0 0 0 0-0.1-0.1-0.1 0.1 0 0.1-0.1 0.2-0.2l0.1-0.1 0.1-0.1c0.2-0.1 0.4-0.1 0.6-0.1h0.4c-2.7-0.6-2.1-0.4-1-0.1-0.1 0-0.2 0.1-0.3 0.1 0.1 0 0.2-0.1 0.3-0.1-0.8-0.2-1.5-0.4-2.3-0.6-0.4-0.1-0.7-0.2-1-0.3s-0.6-0.2-0.9-0.3-0.6-0.2-0.9-0.3-0.7-0.2-0.9-0.3-0.5-0.2-0.7-0.4c-0.1-0.1-0.2-0.1-0.4-0.2-0.1 0-0.2-0.1-0.2-0.1l0.2 0.2c0.1 0.1 0 0.1-0.1 0-1-0.6-1.2-0.8-1.4-0.8s-0.3 0-1-0.5c-0.6-0.7 0.5 0-0.9-1-0.7-0.8 0-0.3 0.4-0.1-0.3-0.2-0.6-0.4-0.8-0.7-0.2-0.2-0.4-0.5-0.6-0.7-0.4-0.5-0.6-1-0.8-1.3l0.5 0.6c-0.3-0.3-0.5-0.6-0.8-0.9l0.1 0.5c-0.3-0.4-0.5-0.7-0.4-0.7-0.4-0.3-0.1 0.5-0.7-0.2-0.1-0.1-0.2-0.3-0.3-0.5l-0.3-0.6c-0.2-0.4-0.4-0.7-0.3-0.8 0.8 1.7 0.1-0.3 0.9 1.1-0.2-0.3-0.3-0.6-0.5-1 0-0.1 0.1 0 0.1 0.1-0.3-0.8-0.4-1-0.6-1.2s-0.4-0.3-0.7-1.2c0.2 0.2 0.1-0.5 0-0.8 0.2 0.7-0.2 0.4-0.4-0.2-0.2-1.2-0.4-1.3-0.4-1.9v0.7c-0.2-0.2-0.3-0.9-0.4-1.4 0.1 0 0.1 0.5 0.2 0.3-0.1-0.2-0.1-0.4-0.1-0.6 0-0.1 0-0.2 0.1-0.3v-0.1l0.1 0.1c0.3 0.2 0.4 0.3 0.6 0.3 0.2 0.1 0.1 0.2 0.1 0.3v0.2c0.3 0.1 0.7 0.2 0.9 0.3 0.1 0.1 0.2 0.1 0.3 0.1l0.2 0.1 0.3 0.1c0.7 0.3 1.5 0.5 2.8 0.6-0.4-0.2-0.7-0.3-0.6-0.3h1.1c-0.6 0-1.2-0.1-1.8-0.2-0.3-0.1-0.7-0.1-1-0.2s-0.7-0.2-0.9-0.2l1.2 0.2c0.4 0 0.8 0.1 1.1 0.1-0.5-0.1-1.1-0.2-1.6-0.3-0.1 0-0.3-0.1-0.4-0.1s-0.2 0-0.3-0.1c-0.2 0-0.3-0.1-0.4-0.1 0.9 0.1 0.8 0.1 0.4-0.1 0.1 0.1 0.2 0.1 0.4 0.2s0.4 0.1 0.5 0.2c0.4 0.1 0.7 0.2 1 0.2 0.7 0.1 1.2 0.1 2.1 0.3l0.7 0.6c0.8 0.1 1.6 0.2 2.3 0.2h0.5c0.1 0 0.1-0.1 0.1-0.1l0.2-0.2c-0.8-0.6-1.7-1.1-2.5-1.7-0.4-0.3-0.7-0.6-1.1-0.8-0.2-0.1-0.4-0.3-0.5-0.4l-0.4-0.4 0.4 0.5 0.2 0.2 0.3 0.2c-0.5-0.2-0.8-0.6-1.3-1l-0.4-0.4-0.2-0.2-0.1-0.1c-0.1-0.2-0.3-0.3-0.4-0.5 0.2 0-0.1-0.5-0.2-0.8-0.1 0.1-1-1.4-1.4-1.4-0.1-0.3-0.2-0.7-0.3-1l-0.5-1c-0.2-0.3-0.3-0.5-0.5-0.7-0.3-0.5-0.6-0.9-0.8-1.9 0.3 0.5 0.2-0.3 0.7 0.8-0.2-0.6-0.3-1.1-0.4-1.1 0-0.4-0.6-1.6-0.4-2.2-0.1-0.3-0.3-0.3-0.3-1 0-0.1 0.1 0 0.1 0-0.1 0-0.1-1.1-0.3-0.5 0.2-1 0.3-2.3 0.6-3.6 0.2-1.3 0.6-2.5 1.2-3.2 0.1-0.4 0.2-0.5 0.3-0.7l0.3-0.6s0-0.1 0.1-0.1l0.1 0.1 0.3 0.3c0.2 0.2 0.3 0.4 0.5 0.5-0.1 0 0 0.1-0.1-0.1 0.2 0.3 0.3 0.4 0.4 0.5s0.3 0.2 0.4 0.2c0.3 0.1 0.6 0.3 1.2 1.1 0.5 0.9-0.8-0.7-0.5-0.1-0.1 0.3 0.3 0.7 0.9 1.2s1.3 1 1.7 1.6l-0.3-0.2c0.3 0.4 0.9 0.8 1.4 1.2 0.3 0.2 0.6 0.4 0.9 0.7 0.3 0.2 0.7 0.5 1 0.7 0 0-0.1 0-0.1 0.1 1.1 0.5 2.9 1.7 4.4 2.5-0.5-0.1-0.7-0.3-0.5 0.1 0.6 0.4 0-0.4 1.3 0.3 0.3 0.4 1.2 1 1.2 1.2-0.4-0.2-0.8-0.4-1.2-0.7 0.4 0.6 1.6 0.9 2.2 1.3l-0.1 0.1c0.9 0.5 1.5 0.6 2 0.8s1.1 0.4 2.1 0.8l-0.2-0.2c1.3 0.2 0.9 0.6 2.1 0.8l0.2 0.4c0.4 0.1 1.1 0.3 1.9 0.5s1.7 0.3 2.4 0.5c-0.4 0-1.1-0.1-1.7-0.2-0.7-0.1-1.3-0.3-1.9-0.4 0.4 0.1 1 0.4 1.7 0.6 0.6 0.2 1.2 0.3 1.4 0.3-0.3-0.1-0.7-0.1-1-0.2 1 0 2.3 0.3 3.9 0.7-0.4 0.6 4.1 1.1 5.2 1.6 0.7 0 1.4 0.1 2.2 0.2l3.3 0.3c-0.1-0.6-0.2-1.2-0.4-1.8-0.1-0.3-0.1-0.6-0.1-0.9v-0.5c0-0.7-0.1-1.5 0-2.2-0.6 1.1 0-0.9-0.5-0.7 0-0.7 0.1-1 0.1-1.1l0.3-1.1c0.1-0.4 0.3-0.7 0.4-1 0.3-0.5-0.1 0.7 0.1 0.7 0.5-1.5 0.3-0.6 0.8-1.5-0.2 0.1-0.1-0.6 0.3-1.4-0.2 0.4-0.4 0.7-0.7 1.1 0.1-0.5 0.2-0.9 0.4-1.2s0.3-0.5 0.5-0.7 0.3-0.4 0.5-0.7 0.4-0.6 0.6-1.1l-0.2 0.7c0.1-0.2 0.3-0.6 0.6-1s0.6-0.8 0.9-1.2 0.7-0.8 0.9-1.2c0.3-0.4 0.6-0.7 0.7-0.9 0.2-0.1 0.5-0.2 0.1 0.2 0.5-0.5 1.1-0.9 1.7-1.4l0.9-0.6 0.9-0.6c0.6-0.4 1.3-0.7 1.9-0.9 0.3-0.1 0.6-0.2 0.9-0.3s0.6-0.1 0.9-0.2l-0.2 0.2c0.5-0.1 0.8-0.5 1.5-0.4 0 0.1-0.2 0.2 0.1 0.1s1.3-0.4 2-0.4l-0.6 0.2c1.3 0 2.4-0.1 3.4-0.1s1.9 0 3.1 0.3c-0.1 0.3 1.9 1.1 2.8 1.7h-0.1c1.4 0.7 2.5 1.4 3.5 2.1 0.3 0.2 0.5 0.4 0.8 0.6 0 0 0.2 0.1 0.3 0.2l0.3 0.3c0.2 0.2 0.4 0.4 0.6 0.5 0.3-0.1 0.6-0.1 0.8-0.2l0.4-0.1 0.3-0.1c0.4-0.1 0.7-0.2 1.1-0.3 1 0 2.6-0.5 4.3-1.1 0.4-0.2 0.8-0.3 1.3-0.5l0.6-0.3 0.2-0.1c0.2-0.1 0.3-0.1 0.3-0.1 0-0.1 0.3-0.4 0.6-0.6 0 0 0.1-0.1 0.2-0.1-0.1 0.2 0.2 0.4-0.3 0.7v-0.1c-0.3 0.3-0.5 0.4-0.5 0.5l-0.1 0.1-0.1 0.1c-0.1 0.1-0.2 0.2-0.2 0.3l0.3 0.4c-0.4 0.3-0.7 0.7-1.1 1.1l-0.6 0.6c-0.2 0.3-0.5 0.5-0.7 0.8-0.4 0.4-0.8 0.7-1.2 1.1l-0.7 0.6-0.4 0.3-0.2 0.1-0.2 0.2c-1.3 0.8-2.5 1.6-3.6 2.4h0.4 0.2 0.1l0.1 0.1h0.1 1.2c1.4-0.3 2.6-0.5 3.8-0.8l-0.3 0.3c0.8-0.1 1.5-0.3 2.3-0.4 0.4-0.1 0.7-0.2 1.1-0.3 0.2-0.1 0.4-0.1 0.7-0.2 0.1 0 0.2 0 0.3-0.1h0.1c0.1 0 0.2-0.1 0.3-0.1l-0.3 0.3s0.1-0.1 0.4-0.3c0.2-0.2 0.6-0.4 0.9-0.7 0.2-0.1 0.4-0.3 0.7-0.4 0.1 0 0.1 0 0 0.1-0.4 0.3-0.7 0.5-1 0.7-0.1 0.2-0.3 0.3-0.4 0.5l-0.4 0.4-0.2 0.2-0.3 0.3-0.6 0.7c-0.4 0.4-0.8 0.9-1.2 1.3 0-0.1 0-0.2 0.2-0.5-0.8 0.8-3.4 2.6-2.8 2.7-0.1-0.1-0.2 0-0.4 0.1-0.1 0.1-0.4 0.2-0.6 0.4l-0.3 0.3-0.2 0.1c-0.1 0.1 0 0.2 0 0.2 0 0.3 0 0.7 0.1 1 0 0.2 0 0.4 0.1 0.6 0 0.4 0.1 0.8 0.1 1.1l-0.2-0.2c0.3 1.1 0.4 1.1 0.4 2.7-0.1 0.4-0.2 0.3-0.1-0.2-0.2 1.2 0.2 1-0.1 2.4 0-0.2-0.1-0.4-0.1-0.6-0.1 1.2-0.1 1.1 0 1.8 0 0.8-0.4 2.3-0.7 2.5 0.1 0.2 0.1 0.9-0.1 1.6-0.1 0.1-0.1-0.2-0.1-0.3-0.1 0.5-0.2 0.9-0.3 1.3s-0.1 0.8-0.2 1.1c-0.1 0.7-0.2 1.3-0.5 1.9-0.1 0-0.1 0.1-0.2 0.2 0.5-1.6 0.8-2.9 0.8-2.7-0.2 0-0.6 1.2-0.6 0.1-0.1 1.1-0.3 2.9-0.8 4.1 0 0.1-0.1 0.1-0.1 0.1v-0.1c-0.1 0.3-0.2 0.5-0.2 0.8-0.2 0.4-0.3 0.6-0.4 1-0.2 0.1-0.7 1.4-0.9 2 0.2 0-0.1 0.8 0.4 0.2-0.1 0.1 0-0.1 0.2-0.5 0-0.1 0.1-0.2 0.1-0.3v0.1c0.2-0.4 0.4-0.9 0.6-1.5-0.1 0.5-0.2 1.1-0.6 1.7v1c-0.7 0.7-1.6 2.2-1.9 2.3-0.8 1.9-2.2 4.2-2.5 5.5-0.3 0.5-0.5 0.5-0.6 0.6 0.2-0.3 0.4-0.6 0.4-0.8-0.5 1-1.9 2.8-1.8 3.2-1 1.1 0.3-0.8-0.9 0.8l0.1-0.3c-1.4 1.4-2.3 2.7-3.3 4s-2.2 2.6-4 3.8c0.3-0.2 0.4-0.3 0.5-0.3-2 1.5-4 3.1-6.2 4.4s-4.5 2.6-6.9 3.3c-1.3 0.5-1.4 0.6-2.2 1.1l-0.4-0.1c-0.4 0.3-0.9 0.5-1.3 0.7-1 0.4-1.9 0.5-2.9 0.6s-2 0.3-3.3 0.7l0.4 0.1c-0.5 0.1-1.2 0.2-1.8 0.3s-1.1 0.1-1 0c-0.1 0-0.3 0.2-0.7 0.2v-0.1c-0.8 0.2-1.5 0.3-2.3 0.5-1.8 0 0.2-0.5-2.4-0.4-1 0.1-2.8 0.5-2.4 0.5s1 0.1 1 0.2l-0.9 0.1c-0.2 0.4-0.9 0.8 1.4 1l1.6-0.3 0.5 0.2c-0.4 0-0.9 0.1-1.3 0.1 0.8 0.2 1.2 0 1.8-0.2 0.1 0.1 0.4 0.1 0.7 0.2l1.5-0.5c0.2 0.1-0.7 0.4 0.4 0.3 0.7-0.3-0.7-0.3 0.4-0.5 0.8 0.1 0.6 0.3 1.4 0 0.1 0.1 0 0.2-0.4 0.3 0.8-0.2 2.1-0.4 2.4-0.7 0.4 0 1.1-0.1 1.6-0.2s1-0.2 1 0c0.2-0.1 1.3-0.6 2-0.8-1.1 0.8 2.6-0.8 2.4-0.2 0.8-0.7 3.3-1.3 4.8-2.3-0.1 0.1-0.2 0.2-0.4 0.2l1.8-0.6c0-0.4 1.3-1.1 1.9-1.7 1.2-0.3-0.4 0.7 0 0.8-0.2-0.2 1.7-1.2 1.2-1.2 0.9-0.3 0.7-0.3 1.3-0.3-0.1-0.4 0.7-0.5 1.2-1.1 1.2-0.6 0.5 0.1 1.6-0.8 0.1-1.2-0.8-0.4-0.8-0.4m19.5-27.5c-0.1 0.3-0.2 0.5-0.2 0.7 0-0.2 0-0.4 0.2-0.7m0.8-2.8c-0.1 0.3-0.2 0.7-0.3 1.2-0.1 0.1-0.2-0.1-0.1-0.3-0.1 0.2 0.2-0.5 0.4-0.9m-3.5 5.2c0.1-0.4 0.2-0.5 0.3-0.6-0.1 0.2-0.2 0.4-0.3 0.7v0.1-0.2"/>
		</g>
		<g class="st1">
			<path class="st3" d="m118.2 71.1c0 0.1 0 0.1-0.1 0.2 0.1-0.1 0.2-0.2 0.1-0.2 0.1-0.1 0.1-0.2 0.1-0.2 0 0.1-0.1 0.1-0.1 0.2"/>
		</g>
		<g class="st1">
			<path class="st3" d="m68.9 88.7h-0.1c0.1 0.1 0.1 0.1 0.1 0"/>
		</g>
		<g class="st1">
			<polygon points="125.6 41 125.4 41.1 125.6 41.1" class="st3"/>
		</g>
		<g class="st1">
			<path class="st3" d="m53.9 94.3h-0.2 0.2"/>
		</g>
		<g class="st1">
			<path class="st3" d="m46.9 94.9c-0.4 0-1-0.1-1.5-0.1 0.7 0 1.2 0.1 1.5 0.1"/>
		</g>
		<g class="st1">
			<path class="st3" d="m41.2 95c0.2 0.1 0.3 0.1 0.4 0.2l-0.4-0.2z"/>
		</g>
		<g class="st1">
			<path class="st3" d="m45.6 59.9v-0.2c-0.1-0.5-0.1-0.2 0 0.2"/>
		</g>
		<g class="st1">
			<path class="st3" d="m57.8 74.9l0.2-0.2c-0.4 0.1-0.6 0.1-0.2 0.2"/>
		</g>
		<g class="st1">
			<path class="st3" d="m45.4 46.2v-0.2 0.2z"/>
		</g>
		<g class="st1">
			<path class="st3" d="m58.7 74.6c-0.5 0-0.6 0.1-0.8 0.2 0.4-0.1 0.7-0.1 0.8-0.2"/>
		</g>
		<g class="st1">
			<path class="st3" d="m64.3 103.6h0.3-0.3z"/>
		</g>
		<g class="st1">
			<path class="st3" d="m64.6 103.6h0.3-0.3"/>
		</g>
		<g class="st1">
			<path class="st3" d="m65.5 103.6h-0.6c0.2 0.1 0.4 0.1 0.6 0"/>
		</g>
		<g class="st1">
			<path class="st3" d="m57.4 102.2v0"/>
		</g>
		<g class="st1">
			<path class="st3" d="m55.4 101.7c0.5 0.2 1.2 0.5 1.9 0.7h0.1c-0.4-0.1-1.5-0.7-2-0.7"/>
		</g>
		<g class="st1">
			<path class="st3" d="m47.7 97.5l1.5 0.8c-0.2-0.2-0.5-0.5 0.2-0.2-0.9-0.6-0.8-0.5-0.8-0.4s0.1 0.1-0.1 0.1c-0.1 0-0.1 0-0.3-0.1-0.1 0-0.3-0.1-0.5-0.2"/>
		</g>
		<g class="st1">
			<path class="st3" d="m44.9 95.8c0.6 0.3 0.5 0.1 0.8 0.2h-0.1-0.1c0-0.1-0.2-0.2-0.6-0.2"/>
		</g>
		<g class="st1">
			<path class="st3" d="m60.2 84.1l0.2-0.1c-0.6-0.4 0 0.1-0.2 0.1"/>
		</g>
		<g class="st1">
			<path class="st3" d="m54.2 79.6l0.3 0.7c0.1 0.1 0.2 0.1 0.4 0.2-0.3-0.4-0.5-0.6-0.7-0.9"/>
		</g>
		<g class="st1">
			<path class="st3" d="m54.2 76.3l0.1 0.1-0.1-0.1v0l0.1-0.1-0.1 0.1v0"/>
		</g>
		<g class="st1">
			<path class="st3" d="m48.1 38.8l-0.3 0.1c-0.1 0.5 0.2 0.7 0.3-0.1"/>
		</g>
		<g class="st1">
			<path class="st3" d="m68 50.1c0.2 0.2 1 0.6 1.5 0.7-0.6-0.3-1.2-0.6-1.5-0.7"/>
		</g>
		<g class="st1">
			<path class="st3" d="m125.7 37.8c0.1-0.2 0.2-0.3 0.3-0.5-0.2 0.3-0.4 0.6-0.6 0.8l0.3-0.3"/>
		</g>
	<path class="st4" d="m14.3 151.7h-1.3v-10.2h-3.6v-1.2h8.6v1.2h-3.6v10.2z"/>
	<path class="st4" d="m26.4 151.7l-1.6-5c-0.1-0.3-0.3-1-0.6-2.1h-0.1c-0.2 0.9-0.4 1.6-0.5 2.1l-1.6 5h-1.5l-2.3-8.6h1.4c0.6 2.2 1 3.8 1.3 4.9s0.5 1.9 0.5 2.3h0.1c0.1-0.3 0.1-0.7 0.3-1.2 0.1-0.5 0.2-0.8 0.3-1.1l1.6-4.9h1.3l1.5 4.9c0.3 0.9 0.5 1.6 0.6 2.3h0.1c0-0.2 0.1-0.5 0.2-0.9s0.6-2.5 1.6-6.3h1.3l-2.4 8.6h-1.5z"/>
	<path class="st4" d="m31.8 140.8c0-0.3 0.1-0.5 0.2-0.7 0.1-0.1 0.3-0.2 0.5-0.2s0.4 0.1 0.5 0.2 0.2 0.4 0.2 0.6c0 0.3-0.1 0.5-0.2 0.7-0.2 0.1-0.3 0.2-0.5 0.2s-0.4-0.1-0.5-0.2c-0.2-0.1-0.2-0.3-0.2-0.6zm1.4 10.9h-1.3v-8.6h1.3v8.6z"/>
	<path class="st4" d="m38.7 150.8c0.2 0 0.5 0 0.7-0.1 0.2 0 0.4-0.1 0.5-0.1v1c-0.1 0.1-0.3 0.1-0.6 0.2-0.3 0-0.5 0.1-0.7 0.1-1.7 0-2.5-0.9-2.5-2.6v-5.1h-1.2v-0.6l1.1-0.6 0.5-1.8h0.8v2h2.5v1h-2.5v5c0 0.5 0.1 0.9 0.4 1.2 0.2 0.2 0.6 0.4 1 0.4z"/>
	<path class="st4" d="m44.3 150.8c0.2 0 0.5 0 0.7-0.1 0.2 0 0.4-0.1 0.5-0.1v1c-0.1 0.1-0.3 0.1-0.6 0.2-0.3 0-0.5 0.1-0.7 0.1-1.7 0-2.5-0.9-2.5-2.6v-5.1h-1.2v-0.6l1.2-0.5 0.5-1.8h0.8v2h2.5v1h-2.5v5c0 0.5 0.1 0.9 0.4 1.2 0.2 0.1 0.5 0.3 0.9 0.3z"/>
	<path class="st4" d="m50.8 151.8c-1.3 0-2.3-0.4-3-1.2s-1.1-1.8-1.1-3.2 0.3-2.5 1-3.3 1.6-1.2 2.7-1.2c1.1 0 1.9 0.4 2.5 1.1s0.9 1.6 0.9 2.8v0.8h-5.9c0 1 0.3 1.8 0.8 2.3s1.2 0.8 2 0.8c0.9 0 1.8-0.2 2.7-0.6v1.2c-0.5 0.2-0.9 0.3-1.3 0.4s-0.7 0.1-1.3 0.1zm-0.3-7.7c-0.7 0-1.2 0.2-1.6 0.7-0.4 0.4-0.6 1.1-0.7 1.9h4.5c0-0.8-0.2-1.4-0.5-1.9-0.5-0.5-1-0.7-1.7-0.7z"/>
	<path class="st4" d="m60.1 143c0.4 0 0.7 0 1 0.1l-0.2 1.2c-0.4-0.1-0.7-0.1-0.9-0.1-0.7 0-1.3 0.3-1.8 0.8s-0.7 1.3-0.7 2.1v4.6h-1.3v-8.6h1.1l0.1 1.6h0.1c0.3-0.6 0.7-1 1.1-1.3 0.5-0.3 1-0.4 1.5-0.4z"/>
	<path class="st4" d="m76.2 145.9c0 1.9-0.5 3.3-1.5 4.3s-2.5 1.5-4.4 1.5h-3.2v-11.4h3.5c1.8 0 3.2 0.5 4.1 1.5s1.5 2.3 1.5 4.1zm-1.4 0c0-1.5-0.4-2.6-1.1-3.4s-1.9-1.1-3.3-1.1h-1.9v9.1h1.5c1.6 0 2.8-0.4 3.6-1.2 0.8-0.7 1.2-1.9 1.2-3.4z"/>
	<path class="st4" d="m78.4 140.8c0-0.3 0.1-0.5 0.2-0.7 0.1-0.1 0.3-0.2 0.5-0.2s0.4 0.1 0.5 0.2 0.2 0.4 0.2 0.6c0 0.3-0.1 0.5-0.2 0.7-0.2 0.1-0.3 0.2-0.5 0.2s-0.4-0.1-0.5-0.2-0.2-0.3-0.2-0.6zm1.5 10.9h-1.3v-8.6h1.3v8.6z"/>
	<path class="st4" d="m86.5 143c0.4 0 0.7 0 1 0.1l-0.2 1.2c-0.4-0.1-0.7-0.1-0.9-0.1-0.7 0-1.3 0.3-1.8 0.8s-0.7 1.3-0.7 2.1v4.6h-1.3v-8.6h1.1l0.1 1.6h0.1c0.3-0.6 0.7-1 1.1-1.3 0.5-0.3 1-0.4 1.5-0.4z"/>
	<path class="st4" d="m92.8 151.8c-1.3 0-2.3-0.4-3-1.2s-1.1-1.8-1.1-3.2 0.3-2.5 1-3.3 1.6-1.2 2.7-1.2c1.1 0 1.9 0.4 2.5 1.1s0.9 1.6 0.9 2.8v0.8h-5.8c0 1 0.3 1.8 0.8 2.3s1.2 0.8 2 0.8c0.9 0 1.8-0.2 2.7-0.6v1.2c-0.5 0.2-0.9 0.3-1.3 0.4s-0.9 0.1-1.4 0.1zm-0.4-7.7c-0.7 0-1.2 0.2-1.6 0.7-0.4 0.4-0.6 1.1-0.7 1.9h4.5c0-0.8-0.2-1.4-0.5-1.9-0.5-0.5-1-0.7-1.7-0.7z"/>
	<path class="st4" d="m101.5 151.8c-1.2 0-2.2-0.4-2.9-1.1-0.7-0.8-1-1.8-1-3.2s0.3-2.5 1-3.3 1.7-1.2 2.9-1.2c0.4 0 0.8 0 1.2 0.1s0.7 0.2 1 0.3l-0.4 1.1c-0.3-0.1-0.6-0.2-0.9-0.3s-0.6-0.1-0.9-0.1c-1.7 0-2.6 1.1-2.6 3.3 0 1.1 0.2 1.9 0.6 2.4s1.1 0.8 1.9 0.8c0.7 0 1.4-0.2 2.2-0.5v1.1c-0.5 0.5-1.2 0.6-2.1 0.6z"/>
	<path class="st4" d="m108.5 150.8c0.2 0 0.5 0 0.7-0.1 0.2 0 0.4-0.1 0.5-0.1v1c-0.1 0.1-0.3 0.1-0.6 0.2-0.3 0-0.5 0.1-0.7 0.1-1.7 0-2.5-0.9-2.5-2.6v-5.1h-1.2v-0.6l1.2-0.5 0.5-1.8h0.8v2h2.5v1h-2.5v5c0 0.5 0.1 0.9 0.4 1.2 0.1 0.1 0.5 0.3 0.9 0.3z"/>
	<path class="st4" d="m120.8 151.7l-3.9-10.1h-0.1c0.1 0.8 0.1 1.8 0.1 2.9v7.3h-1.2v-11.4h2l3.6 9.4h0.1l3.6-9.4h2v11.4h-1.3v-7.4c0-0.8 0-1.8 0.1-2.8h-0.1l-3.9 10.1h-1z"/>
	<path class="st4" d="m133.6 151.8c-1.3 0-2.3-0.4-3-1.2s-1.1-1.8-1.1-3.2 0.3-2.5 1-3.3 1.6-1.2 2.7-1.2c1.1 0 1.9 0.4 2.5 1.1s0.9 1.6 0.9 2.8v0.8h-5.9c0 1 0.3 1.8 0.8 2.3s1.2 0.8 2 0.8c0.9 0 1.8-0.2 2.7-0.6v1.2c-0.5 0.2-0.9 0.3-1.3 0.4s-0.7 0.1-1.3 0.1zm-0.4-7.7c-0.7 0-1.2 0.2-1.6 0.7-0.4 0.4-0.6 1.1-0.7 1.9h4.5c0-0.8-0.2-1.4-0.5-1.9-0.5-0.5-1-0.7-1.7-0.7z"/>
	<path class="st4" d="m144.5 149.4c0 0.8-0.3 1.4-0.9 1.8s-1.4 0.6-2.5 0.6-2-0.2-2.7-0.5v-1.2c0.4 0.2 0.9 0.4 1.3 0.5 0.5 0.1 0.9 0.2 1.4 0.2 0.7 0 1.2-0.1 1.6-0.3s0.5-0.5 0.5-1c0-0.3-0.1-0.6-0.4-0.9-0.3-0.2-0.9-0.5-1.7-0.8s-1.4-0.6-1.7-0.8-0.6-0.5-0.8-0.8-0.2-0.6-0.2-1c0-0.7 0.3-1.2 0.9-1.7 0.6-0.4 1.3-0.6 2.3-0.6 0.9 0 1.8 0.2 2.7 0.6l-0.5 1.1c-0.9-0.4-1.6-0.5-2.3-0.5-0.6 0-1.1 0.1-1.4 0.3s-0.5 0.5-0.5 0.8c0 0.2 0.1 0.4 0.2 0.6s0.3 0.3 0.6 0.5c0.3 0.1 0.8 0.4 1.5 0.6 1 0.4 1.7 0.7 2.1 1.1s0.5 0.8 0.5 1.4z"/>
	<path class="st4" d="m152.1 149.4c0 0.8-0.3 1.4-0.9 1.8s-1.4 0.6-2.5 0.6-2-0.2-2.7-0.5v-1.2c0.4 0.2 0.9 0.4 1.3 0.5 0.5 0.1 0.9 0.2 1.4 0.2 0.7 0 1.2-0.1 1.6-0.3s0.5-0.5 0.5-1c0-0.3-0.1-0.6-0.4-0.9-0.3-0.2-0.9-0.5-1.7-0.8s-1.4-0.6-1.7-0.8-0.6-0.5-0.8-0.8-0.2-0.6-0.2-1c0-0.7 0.3-1.2 0.9-1.7 0.6-0.4 1.3-0.6 2.3-0.6 0.9 0 1.8 0.2 2.7 0.6l-0.5 1.1c-0.9-0.4-1.6-0.5-2.3-0.5-0.6 0-1.1 0.1-1.4 0.3s-0.5 0.5-0.5 0.8c0 0.2 0.1 0.4 0.2 0.6s0.3 0.3 0.6 0.5c0.3 0.1 0.8 0.4 1.5 0.6 1 0.4 1.7 0.7 2.1 1.1s0.5 0.8 0.5 1.4z"/>
	<path class="st4" d="m159.5 151.7l-0.3-1.2h-0.1c-0.4 0.5-0.9 0.9-1.3 1.1s-1 0.3-1.6 0.3c-0.8 0-1.5-0.2-2-0.7s-0.7-1.1-0.7-1.9c0-1.7 1.4-2.6 4.1-2.7h1.5v-0.6c0-0.7-0.1-1.2-0.4-1.5s-0.8-0.5-1.4-0.5c-0.7 0-1.5 0.2-2.4 0.7l-0.4-1c0.4-0.2 0.9-0.4 1.4-0.5s1-0.2 1.5-0.2c1 0 1.8 0.2 2.3 0.7s0.7 1.2 0.7 2.2v5.8h-0.9zm-2.9-0.9c0.8 0 1.4-0.2 1.9-0.7 0.5-0.4 0.7-1.1 0.7-1.9v-0.8l-1.3 0.1c-1 0-1.8 0.2-2.2 0.5-0.5 0.3-0.7 0.7-0.7 1.3 0 0.5 0.1 0.8 0.4 1.1 0.2 0.3 0.6 0.4 1.2 0.4z"/>
	<path class="st4" d="m170.1 143.1v0.8l-1.6 0.2c0.1 0.2 0.3 0.4 0.4 0.7s0.2 0.6 0.2 1c0 0.8-0.3 1.5-0.9 2s-1.4 0.8-2.4 0.8c-0.3 0-0.5 0-0.7-0.1-0.6 0.3-0.8 0.7-0.8 1.1 0 0.2 0.1 0.4 0.3 0.5s0.5 0.2 1 0.2h1.5c0.9 0 1.6 0.2 2.1 0.6s0.7 1 0.7 1.7c0 0.9-0.4 1.7-1.1 2.2-0.8 0.5-1.9 0.7-3.3 0.7-1.1 0-2-0.2-2.6-0.6s-0.9-1-0.9-1.8c0-0.5 0.2-1 0.5-1.4s0.8-0.6 1.4-0.8c-0.2-0.1-0.4-0.3-0.6-0.5-0.1-0.2-0.2-0.5-0.2-0.7 0-0.3 0.1-0.6 0.2-0.8s0.4-0.5 0.8-0.7c-0.4-0.2-0.8-0.5-1.1-0.9s-0.4-0.9-0.4-1.5c0-0.9 0.3-1.7 0.8-2.2s1.4-0.8 2.4-0.8c0.4 0 0.9 0.1 1.2 0.2h3.1zm-6.8 10c0 0.5 0.2 0.8 0.6 1.1 0.4 0.2 1 0.4 1.7 0.4 1.1 0 1.9-0.2 2.4-0.5s0.8-0.8 0.8-1.3-0.1-0.8-0.4-1-0.8-0.3-1.6-0.3h-1.6c-0.6 0-1 0.1-1.4 0.4s-0.5 0.7-0.5 1.2zm0.7-7.2c0 0.6 0.2 1.1 0.5 1.4s0.8 0.5 1.4 0.5c1.3 0 1.9-0.6 1.9-1.8 0-1.3-0.6-1.9-1.9-1.9-0.6 0-1.1 0.2-1.4 0.5s-0.5 0.6-0.5 1.3z"/>
	<path class="st4" d="m175.5 151.8c-1.3 0-2.3-0.4-3-1.2s-1.1-1.8-1.1-3.2 0.3-2.5 1-3.3 1.6-1.2 2.7-1.2c1.1 0 1.9 0.4 2.5 1.1s0.9 1.6 0.9 2.8v0.8h-5.9c0 1 0.3 1.8 0.8 2.3s1.2 0.8 2 0.8c0.9 0 1.8-0.2 2.7-0.6v1.2c-0.5 0.2-0.9 0.3-1.3 0.4s-0.7 0.1-1.3 0.1zm-0.4-7.7c-0.7 0-1.2 0.2-1.6 0.7-0.4 0.4-0.6 1.1-0.7 1.9h4.5c0-0.8-0.2-1.4-0.5-1.9-0.5-0.5-1-0.7-1.7-0.7z"/>
</svg>
