<?xml version="1.0" encoding="UTF-8" standalone="no"?>
<!-- Generator: Adobe Illustrator 21.0.0, SVG Export Plug-In . SVG Version: 6.00 Build 0)  -->
<svg id="Layer_1" style="enable-background:new 0 0 156 175" xmlns="http://www.w3.org/2000/svg" xml:space="preserve" viewBox="0 0 156 175" version="1.1" y="0px" x="0px" xmlns:xlink="http://www.w3.org/1999/xlink">
<style type="text/css">
	.st0{fill:#CFEBF6;}
	.st1{clip-path:url(#SVGID_2_);fill:#00960A;}
	.st2{clip-path:url(#SVGID_4_);}
	.st3{clip-path:url(#SVGID_6_);fill:#F9F9F9;}
	.st4{clip-path:url(#SVGID_6_);fill:#FAFAFA;}
	.st5{clip-path:url(#SVGID_6_);fill:#FBFBFB;}
	.st6{clip-path:url(#SVGID_6_);fill:#FDFDFD;}
	.st7{clip-path:url(#SVGID_6_);fill:#FEFEFE;}
	.st8{clip-path:url(#SVGID_6_);fill:#FFFFFF;}
	.st9{clip-path:url(#SVGID_8_);fill:#373737;}
	.st10{clip-path:url(#SVGID_10_);}
	.st11{clip-path:url(#SVGID_12_);fill-rule:evenodd;clip-rule:evenodd;fill:#F9F9F9;}
	.st12{clip-path:url(#SVGID_12_);fill-rule:evenodd;clip-rule:evenodd;fill:#FAFAFA;}
	.st13{clip-path:url(#SVGID_12_);fill-rule:evenodd;clip-rule:evenodd;fill:#FBFBFB;}
	.st14{clip-path:url(#SVGID_12_);fill-rule:evenodd;clip-rule:evenodd;fill:#FDFDFD;}
	.st15{clip-path:url(#SVGID_12_);fill-rule:evenodd;clip-rule:evenodd;fill:#FEFEFE;}
	.st16{clip-path:url(#SVGID_12_);fill-rule:evenodd;clip-rule:evenodd;fill:#FFFFFF;}
	.st17{clip-path:url(#SVGID_14_);fill:#373737;}
	.st18{fill:#626C72;}
</style>
<path class="st0" d="m139.5 83.1m-42.6 34.9c0.3-0.1 0.6-0.1 0.9-0.2 13.5-2.9 26.5-9.8 37.4-22.7 1.9-2.2 3.7-4.6 4.9-8 1-2.8 1.6-6.4 1.3-10.1 2.5-9.4 3.5-20.6 1-31.5-3-13.4-10.8-22.4-18-24.8-4-1.3-7.9-0.9-11.7-0.5-12.8 1.3-25.6 3.2-38.3 5.6-1.2 0.2-2.5 0.5-3.7 0.7-8.4 1.7-16.8 4.1-24.3 9.9-3.3 2.5-6.4 5.7-9.9 7.1-2.9 1.2-6 1.3-8.6 3.2-2.3 1.7-4.2 4.6-5.8 8-1.9 4.1-3.5 8.9-4.1 14.6s0.1 12.4 2.1 17.7c2 5.1 5 8.4 7.3 13.2 1.4 3 2.5 6.6 4.2 9.1 1.8 2.6 3.9 3.5 6 4.2 6.3 2.2 12.6 3.4 18.8 4.3 13.6 2 27.3 2.9 40.5 0.2"/>
	<defs>
		<rect id="SVGID_1_" y="27.3" x="40.2" height="80.9" width="81.2"/>
	</defs>
	<clipPath id="SVGID_2_">
		<use xlink:href="#SVGID_1_"/>
	</clipPath>
	<path class="st1" d="m42.2 107.6h-0.1c-0.2-0.1-0.4-0.2-0.5-0.3-0.1-0.2-0.1-0.4-0.1-0.5 0.1-0.2 0.5-0.6 1.3-1.2h-0.5c-0.2-0.1-0.4-0.2-0.5-0.4-0.4-0.7 0.1-1.3 3.5-3.6 2.1-1.4 5.2-3.4 9.4-6 7.8-4.8 18.3-11 28.5-17 6.8-4 13.9-8.2 20-11.9-3 1.7-6.4 3.6-10.3 5.8-3.6 2.2-7.3 4.4-10.9 6.6-27.9 16.9-37.4 22.4-39.1 22.4h-0.1c-0.2 0-0.4-0.2-0.5-0.3-0.1-0.2-0.1-0.4-0.1-0.6 0.1-0.3 0.6-0.8 1.4-1.4-0.2-0.8 1.1-2.1 11.6-8.5-7.1 4.1-10.2 5.6-11 5.4-0.2-0.1-0.4-0.2-0.5-0.3-0.6-1.1 0.5-2.1 33.6-22 13.6-8.2 29.9-18 35.9-22.2-5.8 3.1-19.4 11.3-31.6 18.8-25.5 15.4-34.2 20.6-35.6 20.2-0.2-0.1-0.4-0.2-0.5-0.3-0.1-0.2-0.1-0.4-0.1-0.6 0.1-0.5 1.3-1.4 3.6-3-0.1-0.1-0.2-0.1-0.2-0.2-0.2-0.4-0.1-0.8 0.5-1.4-1 0.4-1.6 0.6-1.9 0.5-0.2-0.1-0.4-0.2-0.5-0.4-0.1-0.1-0.1-0.3-0.1-0.5-0.6 0.2-1 0.3-1.2 0.3s-0.4-0.2-0.4-0.3c-0.4-0.6 0-1.2 2.8-3.1-0.8 0.3-1.3 0.4-1.5 0.4-0.2-0.1-0.4-0.2-0.5-0.3-0.6-1-0.7-1.2 31-20.4 10.6-6.4 23.2-14 29.2-18-6.4 3.5-19.2 11.3-30 17.9-23.8 14.6-31.5 19.1-32.7 18.8-0.2-0.1-0.4-0.2-0.5-0.3-0.6-1.1 0.5-2.1 32.9-21.6 9.2-5.6 19.2-11.6 25.5-15.5-5.8 3.4-14.4 8.6-22.4 13.4-24.5 14.8-32.9 19.7-34.1 19.4-0.2-0.1-0.4-0.2-0.5-0.3-0.6-1 0.3-1.9 28.9-19.3 10.1-6.2 22.2-13.5 27.6-17.1-6.2 3.3-19.8 11.5-31.1 18.4-22.3 13.5-26.7 16-27.6 15.8-0.2 0-0.3-0.2-0.4-0.3-0.3-0.6-0.2-1.2 4.9-4.4-2.3 1.2-3.3 1.6-3.7 1.5-0.2 0-0.3-0.2-0.4-0.3-0.1-0.2-0.1-0.4-0.1-0.6 0.1-0.3 0.5-0.7 1.4-1.4-0.2-0.3-0.3-0.5 0.4-1.1-1 0.5-1.6 0.7-1.9 0.6-0.2 0-0.4-0.2-0.4-0.3-0.1-0.2-0.1-0.4-0.1-0.6 0-0.1 0.1-0.1 0.1-0.2-0.6 0.3-1 0.3-1.2 0.3s-0.3-0.2-0.4-0.3c-0.4-0.6 0.1-1.2 2.6-2.8 0.9-0.6 2.2-1.4 3.7-2.4-1.1 0.5-1.7 0.7-1.9 0.6-0.2 0-0.3-0.2-0.4-0.3-0.6-1 0.2-1.8 25.4-17.1 2.7-1.7 5.6-3.4 8.3-5-0.3 0.2-0.7 0.4-1 0.6-2.2 1.4-4.5 2.7-6.7 4.1-19.9 11.8-24.3 14.3-25.3 14-0.1 0-0.2-0.1-0.3-0.2h-0.4c-0.2 0-0.4-0.2-0.5-0.3-0.4-0.6 0.2-1.1 1.7-2.2 1-0.7 2.5-1.7 4.5-3 3.8-2.4 8.8-5.5 14.1-8.7 2.6-1.6 5.4-3.3 8-4.9-1.3 0.8-2.7 1.6-4 2.4-16.8 10.4-20.7 12.6-21.6 12.4-0.2 0-0.3-0.2-0.4-0.3-0.4-0.6 0.2-1.1 1.3-1.9-1 0.5-1.4 0.6-1.7 0.5-0.2 0-0.3-0.2-0.4-0.3-0.4-0.7 0.4-1.2 1.4-1.9 0.8-0.6 2-1.4 3.6-2.4 1.1-0.7 2.3-1.5 3.6-2.3-4.3 2.5-5.3 2.9-5.7 2.8-0.2 0-0.3-0.2-0.4-0.3-0.4-0.7-0.5-0.8 10-8.7 0.6-0.4 1.2-0.9 1.8-1.3-2.2 1.3-2.3 1.3-2.6 1.2-0.2 0-0.3-0.2-0.4-0.3-0.2-0.3-0.1-0.7 0.2-0.9 0.1 0 0.1-0.1 0.2-0.1 0.5-0.2 2.6-1.5 4.3-2.5 5.1-3.1 5.1-3.1 5.5-3 0.2 0 0.3 0.2 0.4 0.3 0.4 0.7 0.4 0.7-8.6 7.5-1.8 1.4-4 3-5.8 4.4 3.3-1.9 7.9-4.7 11.8-7.1 12.5-7.6 13.8-8.3 14.4-8.1 0.2 0 0.3 0.2 0.4 0.3 0.4 0.6-0.3 1.2-1.5 2.1-0.9 0.6-2.1 1.5-3.9 2.6-1 0.6-2.1 1.4-3.3 2.1 9.6-5.9 12-7.1 12.7-6.9 0.2 0 0.3 0.2 0.4 0.3 0.3 0.5-0.1 1-0.8 1.6 2.7-1.5 3.7-1.9 4-1.8 0.2 0 0.3 0.2 0.4 0.3 0.4 0.7-0.3 1.2-1.9 2.4-1.1 0.8-2.8 1.9-5.1 3.4-4.2 2.7-9.9 6.2-15.4 9.5-1.2 0.7-2.4 1.5-3.6 2.2 0.6-0.3 1.2-0.7 1.8-1 1.3-0.8 2.6-1.6 3.9-2.4 17.1-10.6 20.8-12.7 21.7-12.4 2.6-1.4 3.6-1.8 4-1.7 0.2 0 0.3 0.2 0.4 0.3 0.5 0.9 0.7 1.1-23.2 15.6-6.4 3.9-13.7 8.3-18.8 11.6 5.2-3 12.4-7.4 18.8-11.2 19.8-12 24-14.4 24.9-14.2 0.2 0 0.3 0.2 0.4 0.3 0.3 0.5 0.4 0.8-3.4 3.3 4.3-2.4 6.4-3.4 7-3.2 0.2 0.1 0.4 0.2 0.5 0.3 0 0.1 0.1 0.1 0.1 0.2 0.3-0.1 0.6-0.1 0.7-0.1 0.2 0 0.3 0.2 0.4 0.3 0.1 0.2 0.1 0.4 0.1 0.5-0.1 0.3-0.7 0.9-2.5 2 0 0.1-0.1 0.2-0.1 0.2 2.2-1.2 3.3-1.6 3.7-1.5 0.2 0 0.4 0.2 0.5 0.3 0.1 0.2 0.1 0.4 0.1 0.6-0.1 0.2-0.3 0.5-0.8 0.9 0 0 0 0.1 0.1 0.1 0.3 0.5 0.2 0.9-2.2 2.7 3-1.6 4.4-2.2 5-2.1 0.2 0.1 0.4 0.2 0.5 0.3 0.6 1.1-0.5 2.1-30.9 20.6-9.3 5.6-19.4 11.8-24.7 15.3 6.4-3.5 18.6-10.9 29-17.3 23.6-14.3 28.9-17.4 29.9-17.1 0.2 0 0.3 0.2 0.4 0.3 0.4 0.6-0.1 1.2-2.7 2.9-1.6 1.1-4 2.6-7.2 4.6-6 3.7-14.2 8.7-22.2 13.5-10.2 6.1-22.1 13.3-28.3 17.3 6.1-3.4 17.3-10.2 27.5-16.5 25-15.3 33.6-20.3 34.9-20 0.2 0.1 0.4 0.2 0.5 0.3 0.6 1 0.8 1.3-33.3 21.9-9.8 5.9-20.5 12.4-26.3 16.2 6.4-3.6 18.1-10.7 28.1-16.8 23.7-14.5 31.2-19 32.5-18.6 0.2 0.1 0.4 0.2 0.5 0.3 0.3 0.5 0.5 0.8-3.6 3.4 1.6-0.8 2.5-1.1 2.9-1 0.2 0.1 0.4 0.2 0.5 0.3 0 0.1 0.1 0.2 0.1 0.3 1.4-0.7 2.2-0.9 2.5-0.8 0.2 0.1 0.4 0.2 0.5 0.3 0.4 0.6 0 1.1-2.1 2.5 0.3-0.1 0.5-0.1 0.6 0 0.2 0.1 0.4 0.2 0.5 0.4s0.1 0.4 0.1 0.5-0.1 0.1-0.1 0.2c1-0.4 1.6-0.6 1.9-0.5 0.2 0.1 0.4 0.2 0.5 0.3 0.4 0.7 0 1.3-3.3 3.5-2 1.4-4.9 3.3-8.8 5.7-7.6 5-17.4 10.9-26.9 16.6-11.4 6.9-23.9 14.4-29.8 18.3 7.1-3.8 22.5-13.1 35.5-21 25.7-15.6 33.4-20.1 34.5-19.8 0.2 0 0.3 0.2 0.4 0.3 0.4 0.7 0 1.3-3.1 3.4-1.9 1.3-4.6 3.1-8.4 5.4-1 0.6-2 1.2-3.1 1.9 9.8-5.8 13.6-7.8 14.4-7.6 0.2 0.1 0.4 0.2 0.5 0.3 0.5-0.2 0.8-0.3 1-0.2 0.2 0 0.4 0.2 0.4 0.3 0.6 1.1-0.6 2.2-36.6 23.5-11.4 6.9-24.8 14.8-33 20 4.7-2.8 11.6-6.7 21.6-12.3 3.3-2 6.5-4 9.6-5.9 27.8-16.9 36.7-22.2 38.1-21.8 0.2 0.1 0.4 0.2 0.5 0.3s0.1 0.3 0.1 0.5c0.2 0.1 0.3 0.2 0.4 0.3 0.1 0.2 0.1 0.4 0.1 0.6-0.1 0.2-0.3 0.5-0.8 0.9 0.1 0.6-0.5 1.3-3.2 3.2-1.9 1.3-4.6 3.1-8.4 5.5-6.9 4.4-16.1 10-25 15.4-8.3 5-17.2 10.5-22.7 14 6.4-3.6 17.1-10.1 26.2-15.7 22.9-14 29.8-18 31-17.7 0.2 0 0.4 0.2 0.5 0.3 0.2 0.4 0.2 0.8-1.6 2.2 2.2-1.2 3.1-1.6 3.5-1.5 0.2 0 0.3 0.2 0.4 0.3 0.5 0.9 0.7 1.2-27.1 18.8-7.8 4.9-16.8 10.6-22 14.2 5.3-3 14.1-8.4 21.6-13 20-12.2 26-15.7 27-15.4 0.2 0 0.4 0.2 0.4 0.3 0.5 0.9 0.6 1-23.6 16.7-6.7 4.3-14.4 9.3-19.4 12.7 4.4-2.6 10.5-6.3 15.8-9.5 18-11 22-13.3 23-13.1 0.2 0 0.3 0.2 0.4 0.3 0.5 0.8 0.5 0.9-17.8 13-3.5 2.3-7.4 4.9-10.6 7 3.2-1.9 6.8-4.1 10.2-6.2 14-8.5 15.5-9.4 16.2-9.2 0.2 0 0.3 0.2 0.4 0.3 0.5 0.8 0.5 0.9-15.2 11.8l-4.8 3.3c0.9-0.5 1.8-1.1 2.6-1.6 11.6-7 12.9-7.7 13.5-7.5 0.2 0 0.3 0.2 0.4 0.3 0.4 0.7 0.4 0.7-8.3 6.5-0.3 0.2-0.5 0.4-0.8 0.5 0.1 0.1 0.2 0.1 0.2 0.2 0.2 0.3 0.1 0.7-0.2 0.9-0.1 0-0.1 0.1-0.2 0.1-0.4 0.2-2.4 1.4-3.8 2.2-4.3 2.6-4.3 2.6-4.7 2.5-0.2 0-0.3-0.2-0.4-0.3-0.3-0.6-0.1-0.8 2.9-3 0.6-0.4 1.4-0.9 2.1-1.5l-0.1 0.1c-11.2 6.8-11.8 7-12.3 6.9-0.2 0-0.3-0.2-0.4-0.3-0.4-0.8-0.5-0.8 13.5-10.4 3-2 6.2-4.3 9-6.2-2.7 1.6-5.9 3.6-9 5.4-14.7 9.4-17.8 11.1-18.6 10.9-0.2 0-0.3-0.2-0.4-0.3-0.5-0.8-0.5-0.9 18.1-13.2 3.7-2.5 7.9-5.2 11.3-7.5-4.4 2.6-10.3 6.2-15.5 9.4-17.8 10.8-21.5 13-22.4 12.8-0.2 0-0.3-0.2-0.4-0.3-0.5-0.9-0.6-1.1 25.1-17.7 6.5-4.2 13.5-8.7 18.1-11.8-5.3 3.1-13.5 8.1-20.6 12.4-20.3 12.1-26.3 15.7-27.4 15.4-0.2 0-0.4-0.2-0.4-0.3-0.5-0.9-0.7-1.2 26.8-18.6 7.5-4.7 16.2-10.2 21.5-13.8-5.2 3-13.2 7.9-20.5 12.3-23.4 14.2-31.4 18.9-32.6 18.6-0.2-0.1-0.4-0.2-0.5-0.3-0.2-0.4-0.1-0.8 0.5-1.3-4.1 2.3-5.9 3.1-6.5 3-0.2-0.1-0.4-0.2-0.5-0.3-0.6-1-0.7-1.2 28.3-18.8 7.1-4.3 15.5-9.5 22.4-13.8-6.5 3.7-15 8.5-25.8 14.4-0.4 0.3-0.8 0.5-1.2 0.8-25.7 15.6-34.5 20.7-36.2 20.7m59.8-8zm-19-9.7c-5.4 3.2-10.7 6.3-14.6 8.6 4-2.2 9.2-5.3 14.6-8.6m16.1-23.7c-5.5 3.3-11.7 6.9-17.8 10.5-7.3 4.3-15.5 9.1-22.2 13.1 4.1-2.3 9.1-5.1 14.9-8.3 2.7-1.6 5.4-3.3 8-4.9 6.8-4.2 12.4-7.6 17.1-10.4m-25 7.2c-10 5.7-19.8 11.4-24.6 14.5 5.1-2.7 14.9-8.6 24.6-14.5m-2.5-0.4c-7.1 4.1-13.8 8.1-17.8 10.6 4.1-2.3 10.7-6.3 17.8-10.6m-5.3 1c-5.7 3.2-10.8 6.2-14.1 8.2 3.5-1.8 8.5-4.8 14.1-8.2m9.7-7.7c-9.6 5.6-19.6 11.5-25.1 15 5.8-3.3 15.8-9.3 25.1-15m35.9 5.1c-4.2 2.4-10.1 5.9-16.2 9.7 6-3.6 12-7.1 16.2-9.7m2.4-16.1c-6.2 3.4-18.6 10.9-29.8 17.7-4.2 2.6-8 4.9-11.5 6.9 2.4-1.4 4.9-2.9 7.6-4.5 12.4-7.1 27.1-15.7 33.7-20.1m-6-3.1c-2.8 1.6-6.4 3.7-10.3 6 4-2.2 7.6-4.3 10.3-6m1-2.6c-3.4 1.9-8.1 4.7-13.2 7.8 5.1-3 9.8-5.8 13.2-7.8m-3.3 0.3c-3 1.7-6.9 4-11.2 6.6 4.3-2.5 8.2-4.8 11.2-6.6m-2.4-1.2c-2.3 1.3-4.9 2.9-7.6 4.5 2.8-1.6 5.4-3.2 7.6-4.5m-20.5-2.4c-3.4 2-6.9 4.2-10.3 6.2 5.9-3.4 12.2-7.1 17.3-10.2-2 1.2-4.3 2.5-7 4m-25.5-9.2z"/>
	<defs>
		<path id="SVGID_3_" d="m81.2 107.4m-27.4-21l-0.8-1.3c-3.3-5.3-5.1-11.4-5.1-17.6 0-18.2 14.9-33.1 33.2-33.1 8.9 0 17.2 3.5 23.5 9.7 6.3 6.3 9.7 14.6 9.7 23.4 0 18.2-14.9 33.1-33.2 33.1-6 0-11.8-1.6-16.9-4.6l-1.2-0.7-12.6 3.3 3.4-12.2zm-12.6-18.9c0 7 1.8 13.9 5.3 19.9l-5.7 20.6 21.2-5.5c5.8 3.2 12.4 4.8 19.1 4.8 22 0 40-17.9 40-39.8 0-10.6-4.2-20.6-11.7-28.2-7.5-7.5-17.6-11.7-28.3-11.7-22 0.1-39.9 18-39.9 39.9"/>
	</defs>
	<clipPath id="SVGID_4_">
		<use xlink:href="#SVGID_3_"/>
	</clipPath>
	<g class="st2">
		<defs>
			<rect id="SVGID_5_" y="27.3" x="40.2" height="80.9" width="81.2"/>
		</defs>
		<clipPath id="SVGID_6_">
			<use xlink:href="#SVGID_5_"/>
		</clipPath>
		<rect y="94.7" x="47.9" height="6" class="st3" width="66.4"/>
		<rect y="81.3" x="47.9" height="13.4" class="st4" width="66.4"/>
		<rect y="67.9" x="47.9" height="13.4" class="st5" width="66.4"/>
		<rect y="54.5" x="47.9" height="13.4" class="st6" width="66.4"/>
		<rect y="41.1" x="47.9" height="13.4" class="st7" width="66.4"/>
		<rect y="34.5" x="47.9" height="6.7" class="st8" width="66.4"/>
		<path class="st3" d="m40.9 108.1h80.3-80.3z"/>
		<rect y="94.7" x="40.9" height="13.4" class="st3" width="80.3"/>
		<rect y="81.3" x="40.9" height="13.4" class="st4" width="80.3"/>
		<rect y="67.9" x="40.9" height="13.4" class="st5" width="80.3"/>
		<rect y="54.5" x="40.9" height="13.4" class="st6" width="80.3"/>
		<rect y="41.1" x="40.9" height="13.4" class="st7" width="80.3"/>
		<rect y="27.7" x="40.9" height="13.4" class="st8" width="80.3"/>
		<path class="st8" d="m121.1 27.7h-80.2 80.2z"/>
	</g>
	<defs>
		<rect id="SVGID_7_" y="27.3" x="40.2" height="80.9" width="81.2"/>
	</defs>
	<clipPath id="SVGID_8_">
		<use xlink:href="#SVGID_7_"/>
	</clipPath>
	<path class="st9" d="m63.1 95.6c0.1-0.1 0-0.1-0.3 0l-0.2 0.2 0.5-0.2z"/>
	<path class="st9" d="m60.9 95.9c-0.3 0.2-0.7 0.4-0.5 0.5 0.3-0.2 0.4-0.2 0.8-0.5 0.3-0.1 0.6-0.1 0.5 0 0.1-0.1 0.5-0.1 0.6-0.2-0.3-0.1-0.8 0.1-1.4 0.2-0.1 0.1 0 0 0 0"/>
	<path class="st9" d="m50.3 79.4l0.1 0.2c0-0.1 0-0.1-0.1-0.2"/>
	<path class="st9" d="m49 60.5v0.2-0.2"/>
	<path class="st9" d="m50 57.3c0 0.1 0 0.1-0.1 0.2 0.1 0 0.1-0.1 0.1-0.2"/>
	<path class="st9" d="m50.3 79.4l-0.1-0.5c-0.1 0 0.1 0.3 0.1 0.5"/>
	<path class="st9" d="m56.8 97.3c0.1 0 0.2-0.1 0.3-0.1-0.1 0-0.2 0.1-0.3 0.1"/>
	<path class="st9" d="m53.9 87.2v0.2 0.1-0.3z"/>
	<path class="st9" d="m52.2 93.5c0-0.1-0.1-0.2-0.1-0.3 0 0.1 0 0.2 0.1 0.3-0.1 0 0 0 0 0"/>
	<path class="st9" d="m55.3 97.2l0.2-0.1c-0.1 0.1-0.2 0.1-0.2 0.1"/>
	<path class="st9" d="m52.1 82.8"/>
	<path class="st9" d="m69.7 99.2c-0.1 0-0.1 0 0 0"/>
	<path class="st9" d="m63 95.3h0.1-0.1z"/>
	<path class="st9" d="m52.5 51.9v0 0"/>
	<path class="st9" d="m99.9 40.8c-0.4-0.4 0.9 0.5 0.2-0.2 0.1 0.2-0.8-0.3-0.2 0.2"/>
	<path class="st9" d="m56.7 97.3c-0.1 0-0.2 0-0.3 0.1 0.1 0 0.2 0 0.3-0.1"/>
	<path class="st9" d="m100.1 40.7v0"/>
	<path class="st9" d="m61.4 41.6h-0.1 0.1"/>
	<path class="st9" d="m54.2 48.8l0.2-0.2-0.2 0.2"/>
	<path class="st9" d="m65.8 38.6c0.1-0.1 0.2-0.1 0.3-0.2h-0.1c0.1 0.1 0 0.1-0.2 0.2"/>
	<path class="st9" d="m71 36.4h-0.1c-0.1 0-0.1 0-0.2 0.1l0.3-0.1z"/>
	<path class="st9" d="m86.8 100.7c-0.1 0-0.2 0-0.3-0.1 0.2 0.1-0.7 0.3 0.3 0.1"/>
	<path class="st9" d="m56.8 97.3l-0.1 0.1c0-0.1 0.1-0.1 0.1-0.1 0.1 0 0.1 0 0 0"/>
	<path class="st9" d="m65.6 37.6l0.8-0.4c-0.2 0.1-0.5 0.3-0.8 0.4"/>
	<path class="st9" d="m114.3 73.7v0.2-0.2"/>
	<path class="st9" d="m68.9 36.2c0.2 0 0.3-0.1 0.5-0.1 0 0 0.1 0 0.1-0.1l-0.6 0.2z"/>
	<path class="st9" d="m86.6 100.6z"/>
	<path class="st9" d="m80.6 101.3c0.9 0 0.4-0.1 0.6-0.2 1-0.1 0.5 0.1 0.8 0.2 0.3 0 0.6-0.1 0.9-0.1 0.3-0.1 0.5-0.1 0.7-0.1 0 0 0.1 0 0 0.1 0.7-0.2 2-0.2 2.8-0.5h0.1c-0.1-0.1-0.2-0.1-0.2-0.2 0.4-0.1 0.7-0.2 0.8-0.1-0.2 0-0.2 0.1-0.3 0.1l0.4-0.1c0.4 0.1-0.5 0.1-0.5 0.3l1.2-0.3c0.4-0.1 0.8-0.2 1.1-0.3 0.2 0.1-1.4 0.4-0.6 0.3-0.3 0.1-0.6 0.1-0.9 0.1 0.8 0.1-0.6 0.1 0.1 0.2 0.6-0.1 0.9-0.2 1.3-0.3 0.3-0.1 0.7-0.2 1.3-0.3 0.2-0.2-0.1-0.1 0.1-0.2 0.8-0.3 1.2-0.3 1.5-0.3s0.5 0 1.1-0.3c0.3-0.2 0.3-0.4 1.2-0.7l-0.2 0.3c1.1-0.4 0.5-0.5 1.7-0.9-0.2 0.1-0.8 0.4-0.7 0.4 0.8-0.2 0.5-0.3 1-0.6l0.2 0.1c0.6-0.3 1.1-0.6 1.7-1s1.2-0.8 1.7-1.2c0 0.1-0.2 0.2 0.1 0.1 1.4-1 3.1-2.2 4.4-3.3l0.4-0.5c0.1-0.1 0.2-0.2 0.1 0 0.5-0.4 0-0.1 0.2-0.3 0.3-0.3 0.4-0.3 0.3-0.1 0.8-0.9 2.1-2.6 2.9-3.5l-0.1 0.2c0.6-0.7 0.4-1 1.1-1.7 0 0.1-0.1 0.1-0.1 0.2 1.2-1.7 2.2-3.8 3-5.2 0-0.3 0.9-1.9 0.7-2.1 0.3-0.5 0.4-0.7 0.5-1 0.1-0.2 0.3-0.6 0.5-1.4 0.1-0.4 0-0.7 0.1-1.2h0.1v-0.8l0.2-0.4c0-0.2 0-0.3 0.1-0.5 0 0.2-0.1 0.4-0.2 0.4 0.1-0.8 0.4-1.9 0.5-2 0-0.6 0.1-1.3 0.1-1.9 0 0 0 0.4 0.1 0.6-0.1-1 0.2-0.2 0.1-1.1 0 0.1-0.1-0.1-0.1-0.1 0.1-0.5 0.1-1.5 0.1-2.3l0.1 0.2c0-1.4-0.1-3-0.4-4.6 0 0.6-0.1 0.5-0.2 0l0.1-0.2c-0.1-0.3 0 0.5-0.2-0.1-0.1-0.6 0.1-0.4 0.2-0.1l-0.2-0.7s0.1 0.1 0.1 0.2c-0.1-0.3-0.1-1.3-0.3-1.7-0.1-0.4-0.2-0.7-0.2-1-0.1-0.3-0.2-0.6-0.2-0.8-0.1-0.5-0.3-1-0.5-1.6-0.1 0-0.2-0.5-0.5-0.8-0.2-0.5-0.3-0.9-0.5-1.4l-0.6-1.5c-0.4-0.7-0.2-0.2-0.4-0.5 0.1-0.1-0.5-1.1-0.1-0.6-0.7-1.2-0.9-1.6-1.9-3 0.1 0.2 0.2 0.4 0.1 0.3-0.2-0.3-0.4-0.6-0.3-0.6l0.1 0.1c-0.6-0.8-1.2-1.7-1.9-2.6-0.3-0.4-0.6-0.9-1-1.2-0.3-0.4-0.7-0.7-1-0.9l0.1 0.1c-0.4-0.4-0.8-0.7-1.3-1-0.5-0.5 0.4 0.2 0-0.2-1.4-1-2.1-1.8-3.4-2.6-0.2-0.2-0.5-0.5-0.8-0.7-0.4-0.3-0.8-0.5-1.3-0.8s-0.9-0.5-1.4-0.8c-0.4-0.2-0.9-0.5-1.2-0.7v0.1c-0.4-0.1-0.4-0.3-0.7-0.4 0 0.1 0.4 0.2 0.1 0.2-3-1.3-6.4-2.5-9.8-3-1.2-0.2-0.7 0.3-2.3 0l0.5-0.1c-2.5 0-5.2-0.1-7.6 0.4 0.1-0.1 0.1-0.1 0.4-0.1-0.5-0.1-1.9 0.3-1.9 0.4-0.4 0.1-0.1-0.1-0.3-0.1-0.5 0.1-1.3 0.4-1.5 0.4-0.1 0 0.1-0.1 0.2-0.1-0.3 0.1-1.5 0.4-1.2 0.4-0.2 0-0.4 0.1-0.7 0.2-0.2 0.1-0.4 0.1-0.6 0.2-0.4 0.1-0.8 0.3-1.1 0.4-0.4 0.3-1.5 0.5-1.6 0.8 0-0.2-1.6 0.5-2 0.9 0.1-0.1-0.5 0.2-0.3 0-0.6 0.3-1.1 0.7-1 0.7-0.3 0.1-0.6 0.2-0.8 0.4-0.3 0.2-0.5 0.3-0.7 0.5-0.4 0.3-0.8 0.6-1.2 0.7-1.6 1.2-2.9 2.4-4.2 3.7 0-0.1 0.3-0.4 0.6-0.8 0.3-0.3 0.7-0.6 0.6-0.7-0.2 0.1-0.3 0.3-0.4 0.4l-0.4 0.4c-0.2 0.3-0.5 0.5-0.7 0.8-0.4 0.5-0.9 1-1.4 1.6-0.3 0.3 0.1-0.2 0.2-0.4-1.1 1.3-2.1 2.5-2.9 3.8 0 0 0.1-0.2 0.1-0.3-0.2 0.2-0.4 0.6-0.3 0.6l0.1-0.3c0.4-0.3-0.4 1.1-0.4 1.2 0-0.3-0.2 0-0.4 0.3s-0.4 0.5-0.3 0.1c-0.1 0.2-0.2 0.4-0.1 0.4-0.2 0.2-0.2 0.3-0.1 0-0.5 0.9-0.2 0.7-0.7 1.5v-0.3c-0.1 0.5-0.3 0.9-0.7 1.7 0-0.1-0.1 0 0-0.2-0.1 0.3-0.3 0.6-0.4 0.9l-0.3 0.9-0.3 0.9c-0.1 0.3-0.2 0.6-0.4 1 0-0.5-0.2 0.5-0.4 0.5l-0.2 0.8 0.2-0.3c-0.1 0.3-0.2 0.7-0.2 1-0.1 0.3-0.1 0.6-0.2 0.9l0.1-0.5-0.3 1.3 0.2-0.7c-0.1 0.7 0.2 0 0 0.9 0-0.2-0.1 0.7-0.3 1 0 0.4 0 0.7-0.1 1.2-0.1 0.1-0.2-0.1-0.2 0v1 1.1c0-0.1-0.1-0.2-0.1-0.1l0.1 0.3c-0.1 0.3-0.1 0.4-0.1 0.3 0 1 0.2-0.3 0.1 0.9v-0.2c-0.1 1.2 0.1 2.3 0.1 3.4-0.1 0.3-0.1-0.9-0.2-0.6 0.1 1.6 0.5 3.2 0.7 4.7v-0.3c0.1 0.1 0.2 0.4 0.2 0.7 0 0.4 0.1 0.8 0.2 1.1-0.1-0.2-0.2-0.2-0.1-0.2 0.2 1 0.6 2.1 1.2 3.5l-0.1-0.2c0.2 0.6 0.5 1.5 0.8 2.1 0.1 0.2 0.3 0.5 0.3 0.3 0.3 1 0.8 1.9 1.3 2.7s1 1.5 1.4 2.4c-0.1-0.2-0.3-0.4-0.2-0.3l0.2 0.3 0.1 0.2-0.1 0.3-0.1 0.4c0.1-0.1 0.1-0.2 0.3-0.5 0 0.2-0.1 0.6-0.2 1 0.1-0.7-0.2 0-0.3 0.2 0 0 0 0.1 0.1 0.1-0.4 0.7 0.2 0.2-0.2 1.2v-0.1c-0.1 0.4-0.1 0.8-0.2 1.2-0.2 0.1 0.1-0.4 0-0.5-0.2 0.6-0.1 1.2-0.4 1.7 0-0.3 0.1-0.6 0.2-0.9-0.3 0.6-0.3 0.6-0.4 1.1l-0.3 1 0.1-0.2c0.1 0.8-0.4 1.5-0.5 2.6 0.1-1-0.1-0.2-0.2-0.3 0.1-0.6 0-0.3 0-0.4 0 0.5-0.3 0.8-0.3 1.5 0 0-0.1 0.5-0.2 0.4-0.1 0.6 0.1-0.1 0.1-0.1 0 0.1 0 0.2-0.1 0.4 0 0.1-0.1 0.3-0.1 0.5-0.1 0.3-0.2 0.7-0.4 1.2 0.4-0.1 0.9-0.2 1.5-0.3 0.1 0 0.2-0.1 0.3-0.1l0.3-0.1c0.2-0.1 0.4-0.1 0.5-0.2 1.2-0.4 1.4-0.6 2.4-0.9 0.4 0-0.3 0.2-0.3 0.2 0.6-0.1 1.1-0.2 1.6-0.4-0.1 0.1 0 0.1 0.2 0.1 0.5-0.1 0.3-0.2 0.9-0.3-0.1 0.1-0.2 0.2-0.4 0.3 0.5-0.2 1-0.4 1.6-0.6 0.2 0-0.3 0.2-0.5 0.3 0.6-0.2 1.6-0.5 1.8-0.6l-0.4 0.1c0.2-0.1 0.1 0.1 0 0.1-0.5 0.2-0.8 0.2-0.8 0.1l0.4-0.1c-0.5-0.1-1.6 0.5-2.4 0.6l0.3-0.3-0.8 0.4c-0.2 0-0.3-0.1 0.1-0.2-0.6 0.1-0.5 0.2-1 0.2-0.1 0 0 0 0 0l-0.5 0.2c0.1-0.1-0.1-0.1 0.2-0.2-1 0.2-1.6 0.5-2 0.5h0.1c-1.4 0.4-0.1 0.2-1.1 0.6l-0.4-0.1c-0.1 0-0.2-0.1-0.3-0.1 0 0.1-0.1 0.1-0.2 0.2-0.1 0-0.4 0.1-0.3 0-0.3 0.1-0.3 0.1-0.2 0.1 0 0 0.1 0-0.1 0.1 0.2-0.4 0.3-0.8 0.4-1.2s0.2-0.7 0.3-0.8c0-0.3-0.3 0.6-0.1-0.1 0.3-0.1 0.2-0.9 0.5-1.5 0.1 0.2-0.2 0.8 0.1 0.2-0.1-0.4 0.4-1.2 0.5-1.7-0.1-0.1 0.3-1.2 0.4-2.1 0 0.1 0.5-1.6 0.8-2.5-0.1-0.2 0.2-1 0.3-1.7 0.1 0 0.1 0.2 0 0.5l0.2-0.6v-0.3c0-0.1 0-0.2 0.1-0.5 0 0.1 0 0.1 0.1 0.2l0.1-0.4c-0.1-0.1-0.1-0.2-0.2-0.3s-0.1-0.2-0.2-0.2c-0.1-0.1-0.2-0.3-0.3-0.5-0.2-0.3-0.4-0.7-0.6-1.1-0.1 0 0.2 0.9-0.5 0 0-0.1 0.1-0.1 0.3 0.1-0.1-0.1-0.2-0.3-0.3-0.4l0.3 0.3c-0.2-0.4-0.2-0.2-0.4-0.5 0.1 0-0.1-0.3 0-0.3 0.1 0.1 0.1 0.3 0.2 0.4-0.2-0.4-0.4-0.8-0.4-1 0 0.1-0.1 0.1-0.3-0.2-0.4-0.7 0-0.3-0.2-0.7-0.1-0.1-0.3-0.6-0.4-0.6-0.1-0.2-0.1-0.3-0.1-0.4l-0.5-1c-0.2-0.3-0.3-0.6-0.2-0.3v0.1-0.1c-0.6-1.2-0.9-2.7-1.3-4l-0.3-1.2c-0.1-0.4-0.2-0.8-0.3-1.1v-0.5c-0.1-0.6-0.2-0.7-0.2-1.5 0.1 0.6 0-0.2 0.1 0.6-0.1-0.8 0-1-0.2-1.8 0.1 0.3 0.1-0.6 0-1v0.6c0-0.4-0.1-0.8-0.1-1.2l0.1 0.2v-1.2c0-0.4 0-0.7-0.1-1.1-0.1-0.7 0-1.3 0.2-1.9-0.1-0.4-0.1 0.9-0.2 0.5 0-0.4 0.1-0.7 0.2-1.1 0.1-0.3 0.2-0.6 0.2-0.7 0.2-1-0.1-1 0.2-2-0.1 0.1-0.2 0.2-0.1-0.6 0.2-0.7 0.4-0.9 0.3-0.4 0 0.2-0.1 0.3-0.1 0.2 0 0.2-0.1 0.6 0 0.3v-0.1c0.1-0.4 0.4-1.4 0.4-1.1 0.1-0.6 0-0.3-0.1 0.1 0.1-0.5 0.2-0.8 0.3-1.2s0.2-0.7 0.4-1.2c-0.1 0.1-0.2 0.3-0.1 0.1 0.5-1.3 0.1-0.6 0.4-1.6 0.3-0.5 0.1 0.3 0.4-0.7 0.3-0.5 0.2-0.1 0.1 0.2 0.2-0.9 0.7-1.5 0.9-2v0.9c0.1-0.3 0.2-0.5 0.3-0.7l-0.2 0.2c0.1-0.2 0.2-0.4 0.3-0.4 0.1-0.3-0.3 0.1-0.1-0.4 0.2-0.3 0.5-1 0.7-1.1-0.6 1 0.2-0.1-0.3 0.8l0.3-0.6v0.1c0.7-0.9 0.1-0.5 0.7-1.5 0 0.2 0.3-0.1 0.4-0.3-0.3 0.4-0.2 0.1 0-0.3 0.4-0.6 0.4-0.7 0.6-1l-0.3 0.3c0-0.2 0.2-0.5 0.5-0.9 0.1 0-0.2 0.4-0.1 0.3 0.2-0.6 0.9-1 1.3-1.6 0.3-0.3 0.1 0.1 0.4-0.2 0.5-0.7 0.7-0.7 1.3-1.4-0.3 0.2-0.3 0.2 0.1-0.3l-0.5 0.6-0.5 0.6c0.2-0.3 0.4-0.6 0.6-0.8-0.3 0.3-0.6 0.8-0.8 1 0.2-0.4 0.2-0.4 0-0.2 0.3-0.2 0.5-0.5 0.7-0.7 0.2-0.3 0.4-0.5 0.7-0.8l0.2 0.2c0.9-0.7 1.3-1.5 2.5-2.4l-0.4 0.3c0-0.1 0.2-0.3 0.4-0.4 0.2-0.2 0.4-0.3 0.6-0.5 0 0.1 0.3-0.1 0.5-0.1-0.1 0 0.8-0.6 0.9-0.8l0.6-0.3c0.5-0.3 0.7-0.5 1-0.8 0.2-0.2 0.5-0.5 1-0.7-0.2 0.2 0.2 0-0.4 0.5 0.3-0.2 0.6-0.3 0.6-0.4 0.1 0 0.3-0.2 0.5-0.3 0.2-0.2 0.5-0.3 0.7-0.3 0.1-0.1 0.1-0.2 0.5-0.4 0 0 0.6-0.3 0.2-0.3 1.2-0.3 3-1.3 4-1.4 0.4-0.2 0.8-0.3 1.2-0.4s0.8-0.3 1.2-0.3l-0.1 0.1c1-0.1 0.6-0.4 1.7-0.5 0.6 0-0.6 0.2-0.2 0.2 0.1 0.1 0.5 0.1 0.9 0 0.2 0 0.4-0.1 0.7-0.1h0.7-0.2c0.3 0 0.7-0.1 1.1-0.2s0.9-0.1 1.4-0.2c0.3-0.1 0.8-0.2 1.3-0.2 0.3 0 0.5 0 0.8-0.1h0.8c-0.3 0.1-0.4 0-0.3 0.2 0.4 0-0.1-0.2 0.7-0.2 0.3 0.1 0.9 0.2 1 0.3h-0.8c0.4 0.2 1 0.1 1.4 0.1l-0.3-0.3h1.2c0.3 0 0.7 0 1.3 0.1l-0.1-0.1c0.7 0 0.6 0.2 1.3 0.2l0.2 0.2c0.2 0 0.6 0.1 1.1 0.1 0.5 0.1 1 0.2 1.4 0.3-0.3 0-0.6-0.1-1-0.1-0.4-0.1-0.8-0.1-1.1-0.1 0.2 0 0.6 0.1 1 0.2s0.7 0.2 0.8 0.1c-0.2 0-0.4-0.1-0.6-0.1 0.6 0 1.3 0.2 2.2 0.5-0.3 0.2 2.3 0.9 2.8 1.4 1.6 0.6 2.9 1.5 4.5 2.5-0.4-0.6 0.5 0.3 0.5 0 0.4 0.2 0.5 0.3 0.5 0.4 0.3 0.3 0.7 0.6 1 0.9 0.2 0.3-0.4-0.2-0.4-0.1 0.8 0.6 0.3 0.3 0.7 0.8 0-0.2 0.4 0.1 0.8 0.5-0.2-0.2-0.3-0.4-0.5-0.6 0.6 0.4 0.8 0.6 0.9 0.9 0.2 0.2 0.4 0.5 0.9 0.9l-0.4-0.2c0.3 0.2 0.8 0.7 1.2 1.1 0.5 0.5 0.9 0.9 1.2 1.1 0.1 0.1 0.1 0.3-0.1 0.1 1.1 1.3 2.5 2.8 3.1 4l-0.1-0.1c0.2 0.3 0.4 0.4 0.6 0.8 0 0-0.1-0.1 0 0.1 0.1 0.1 0.5 0.7 0.7 1l-0.2-0.3c0.2 0.4 0.4 0.7 0.5 1 0.2 0.3 0.3 0.6 0.5 0.8 0.3 0.5 0.6 1 0.9 1.6-0.2 0.1 0.2 1.3 0.4 1.9 0.6 1.8 1.1 3.1 1.5 4.8 0 0.3 0 0.7 0.1 1.1 0 0.4 0.1 0.9 0.2 1.4 0.1 1 0.2 2.1 0.1 3 0-0.3 0.1 0 0.2 0.4 0 0.4 0.1 1.2-0.1 1.1v-0.1c-0.2 0.3-0.1 1.2-0.2 1.8l0.2 0.1c-0.1 0.2-0.1 0.4-0.1 0.7 0 0.2-0.1 0.5-0.1 0.8-0.1 0.5-0.1 1.1-0.2 1.6-0.1 1-0.3 2-0.6 2.4 0 0.4-0.2 0.9-0.3 1.3l-0.1-0.1c-0.2 0.6-0.3 1-0.5 1.4-0.1 0.4-0.3 0.9-0.6 1.6v-0.3c-0.3 0.7-0.1 1.1-0.4 1.8l-0.3 0.1c-0.6 1.3-1.4 2.5-2.1 3.7 0 0 0-0.1 0.1-0.3-0.3 0.6-1.6 2.1-1.2 2-0.1-0.1-0.9 1.2-1.3 1.8v-0.2c-0.3 0.6-0.3 0.6-0.9 1.3-0.2 0.1-0.2 0.1 0-0.1-0.5 0.5-0.3 0.5-1 1.1l0.2-0.3c-0.5 0.5-0.5 0.5-0.7 0.8-0.2 0.2-0.4 0.4-0.7 0.6-0.2 0.2-0.5 0.3-0.6 0.3 0 0.1-0.3 0.4-0.6 0.7-0.1 0 0-0.1 0.1-0.2-1 0.7-1.4 1.2-2.1 1.6h-0.2c0.4-0.3 0.8-0.5 1-0.7s0.4-0.3 0.4-0.3c-0.1-0.1-0.7 0.4-0.3-0.1-0.2 0.2-0.5 0.5-0.9 0.8-0.3 0.3-0.7 0.6-1 0.8h-0.1l0.1-0.1c-0.2 0.1-0.3 0.2-0.4 0.3l-0.6 0.3c-0.1 0-0.8 0.4-1.2 0.6 0.1 0.1-0.4 0.3 0.1 0.2-0.1 0 0.1-0.1 0.3-0.2l0.1-0.1c0.2-0.1 0.5-0.3 0.8-0.5-0.2 0.2-0.5 0.4-0.9 0.6-0.1 0.2-0.3 0.3-0.4 0.4-0.6 0.1-1.5 0.5-1.7 0.5-1.1 0.6-2.6 1.2-3.2 1.6-0.3 0.1-0.4 0.1-0.5 0.1 0.2-0.1 0.4-0.2 0.5-0.2-0.3 0.1-0.8 0.3-1.2 0.5 0 0-0.4 0.2-0.4 0.3-0.9 0.2 0.4-0.3-0.7 0.1l0.1-0.1c-0.6 0.1-1.1 0.2-1.6 0.3s-1 0.2-1.4 0.4c-1 0.2-2 0.4-3.3 0.4h0.3c-2.9 0.1-6.1 0.1-9-0.7-0.8-0.2-0.9-0.1-1.4-0.2l-0.1-0.2c-0.3 0-0.6 0-0.9-0.1-1.2-0.2-1.9-0.9-3.4-1.3l0.2 0.2c-0.5-0.2-1.6-0.7-1.5-0.7-0.1 0-0.2 0-0.4-0.1v-0.1c-0.4-0.2-0.9-0.3-1.3-0.5-0.9-0.5 0.3-0.1-1.1-0.9-0.5-0.4-1.5-0.8-1.4-0.6 0.2 0.1 0.5 0.3 0.5 0.4l-0.5-0.2c-0.2 0.1-0.6 0.1 0.4 0.9l0.9 0.4 0.2 0.2-0.7-0.4c0.3 0.3 0.6 0.4 0.9 0.5 0 0.1 0.1 0.2 0.3 0.3l0.9 0.3c0.1 0.1-0.4 0 0.1 0.3 0.4 0.1-0.3-0.3 0.4-0.1 0.4 0.3 0.2 0.3 0.7 0.4 0 0.1-0.1 0.1-0.3 0 0.4 0.1 1.1 0.5 1.4 0.5 0.4 0.3 1.5 0.5 1.4 0.7 0.2 0 0.8 0.1 1.2 0.3-0.4 0 0 0.1 0.4 0.3 0.4 0.1 1 0.3 0.8 0.4 0.6 0 2 0.4 3.1 0.5h-0.3c0.6 0.1 0.7 0.2 1.1 0.3 0-0.1 0.3-0.1 0.6-0.1h0.9c0.7 0.2-0.4 0.1-0.2 0.3 0-0.1 0.3-0.1 0.6-0.1s0.5 0 0.4-0.1c0.5 0.1 0.5 0.1 0.7 0.2 0.1-0.2 0.5 0 0.9-0.1 0.8 0.1 0.2 0.2 1 0.2 0.5-0.2-0.3-0.2-0.3-0.2m19-5.9c-0.1 0.1-0.3 0.2-0.3 0.2 0.1 0 0.2-0.1 0.3-0.2m1.4-0.9c-0.2 0.1-0.4 0.3-0.6 0.4-0.1 0 0-0.1 0.1-0.2 0 0.1 0.3-0.1 0.5-0.2m-3.4 1.2c0.2-0.1 0.3-0.2 0.3-0.2 0 0.1-0.2 0.2-0.3 0.2 0 0.1-0.1 0.1-0.1 0.1 0.1 0 0.1-0.1 0.1-0.1"/>
	<path class="st9" d="m97.3 96.1s-0.1 0 0 0c-0.1 0 0 0 0 0 0.1 0 0.1 0 0.1-0.1 0 0-0.1 0-0.1 0.1"/>
	<path class="st9" d="m50.4 79.6"/>
	<polygon points="114 75.5 113.9 75.5 113.9 75.7" class="st9"/>
	<path class="st9" d="m53.2 87.9l-0.1 0.1s0-0.1 0.1-0.1"/>
	<path class="st9" d="m52.1 91.7l-0.2 0.5c0.1-0.2 0.1-0.4 0.2-0.5"/>
	<path class="st9" d="m51.2 94.6v0c0 0.1 0.1 0.1 0 0z"/>
	<path class="st9" d="m53.4 48.6s0-0.1 0.1-0.1c0.1-0.3 0-0.1-0.1 0.1"/>
	<path class="st9" d="m48.2 62.1v-0.5 0.5"/>
	<path class="st9" d="m65.5 37.7c0.1 0 0.1 0 0 0z"/>
	<path class="st9" d="m48.4 60.9c-0.1 0.3-0.1 0.5-0.1 0.7 0-0.2 0-0.4 0.1-0.7"/>
	<path class="st9" d="m59.5 96.6h0.1-0.1z"/>
	<path class="st9" d="m59.6 96.6l0.2-0.1c-0.1 0-0.1 0.1-0.2 0.1"/>
	<path class="st9" d="m60.1 96.4l-0.3 0.1c0.1 0 0.3 0 0.3-0.1"/>
	<path class="st9" d="m55.5 97.6"/>
	<path class="st9" d="m54.4 97.9c0.3-0.1 0.7-0.1 1.1-0.2-0.2 0.1-0.9 0.1-1.1 0.2"/>
	<path class="st9" d="m51 97.5l-0.2 0.7c0.1-0.2 0.2-0.4 0.2-0.1 0.1-0.2 0.1-0.3 0.1-0.3-0.2 0.1-0.3 0.2-0.1-0.3"/>
	<path class="st9" d="m51.9 94.4c-0.1 0.6 0 0.1 0 0 0.1-0.3 0.1-0.3 0 0"/>
	<path class="st9" d="m48.6 72.7h0.1c0-0.4 0 0-0.1 0"/>
	<path class="st9" d="m47.7 68.4l-0.1 0.4 0.1 0.2v-0.6"/>
	<path class="st9" d="m48.5 65.8v0.2-0.7 0.5z"/>
	<path class="st9" d="m70.1 36.8l-0.2-0.1c-0.3 0.2-0.3 0.3 0.2 0.1"/>
	<path class="st9" d="m86.4 35.2c0.2 0.1 0.6 0.2 0.9 0.2-0.3-0.1-0.7-0.2-0.9-0.2"/>
	<path class="st9" d="m113.7 71v-0.3 0.6-0.3z"/>
	<path class="st9" d="m40.8 107.8c-0.1 0.1 0 0.1 0.3 0l0.2-0.2-0.5 0.2z"/>
	<path class="st9" d="m43.4 107.4c0.4-0.2 0.9-0.4 0.6-0.5-0.4 0.2-0.5 0.2-1 0.5-0.4 0.1-0.7 0.1-0.6 0.1-0.1 0.1-0.6 0.1-0.8 0.3 0.6-0.1 1.2-0.3 1.8-0.4 0.2-0.1 0-0.1 0 0"/>
	<path class="st9" d="m80.6 107.6h-0.2 0.2"/>
	<path class="st9" d="m103.4 100.9c-0.2 0.1-0.2 0.2-0.2 0.2l0.2-0.2"/>
	<path class="st9" d="m106.8 98.6c-0.1 0.1-0.1 0.1-0.2 0.1 0.1 0 0.2 0 0.2-0.1"/>
	<path class="st9" d="m80.6 107.6h0.6-0.6"/>
	<path class="st9" d="m48.5 105.7c-0.1 0-0.2 0.1-0.3 0.1 0.1 0 0.2 0 0.3-0.1"/>
	<path class="st9" d="m70.1 106.2l-0.2-0.1h-0.2c0.2 0 0.3 0 0.4 0.1"/>
	<path class="st9" d="m62.6 103.2c0.2 0.1 0.3 0 0.4 0-0.1 0-0.2 0-0.4-0.1-0.1 0-0.1 0 0 0.1"/>
	<path class="st9" d="m50.4 105.7l-0.2 0.1s0.1-0.1 0.2-0.1"/>
	<path class="st9" d="m75.8 107.4c0.1 0 0.1 0 0 0 0.1 0 0.1 0 0 0"/>
	<path class="st9" d="m43.9 99.2v0"/>
	<path class="st9" d="m40.8 108.1v-0.1h-0.1l0.1 0.1z"/>
	<path class="st9" d="m112.3 93.4c-0.2 0.2-0.1 0.1 0 0"/>
	<path class="st9" d="m102.2 33.1c0.3 0.3 0 0.1-0.2 0s-0.5-0.2 0 0.2c-0.1-0.1 1 0.4 0.2-0.2"/>
	<path class="st9" d="m48.7 105.7c0.1 0 0.2-0.1 0.3-0.1-0.1 0-0.2 0-0.3 0.1"/>
	<path class="st9" d="m102 33.3c0.1 0 0 0 0 0"/>
	<path class="st9" d="m120.2 78.1s-0.1 0.1-0.1 0.2c0.1-0.1 0.1-0.1 0.1-0.2"/>
	<path class="st9" d="m114.7 89.7l0.2-0.3c0 0.2-0.1 0.2-0.2 0.3"/>
	<path class="st9" d="m121.3 71.4v-0.5 0.1 0.4"/>
	<path class="st9" d="m121.3 64.5v0.1 0.2-0.3z"/>
	<path class="st9" d="m43.4 79.1v0.3c0.1-0.1 0.4 0.8 0-0.3"/>
	<path class="st9" d="m48.5 105.8s0.1-0.1 0.2-0.1c-0.1 0-0.2 0-0.2 0.1"/>
	<path class="st9" d="m120.4 71.1l0.1-1.1c-0.1 0.3-0.1 0.7-0.1 1.1"/>
	<path class="st9" d="m58.2 35.6l-0.2 0.2c0.1-0.1 0.1-0.2 0.2-0.2"/>
	<path class="st9" d="m120.5 66.8c0-0.2 0.1-0.4 0.1-0.6v-0.1l-0.1 0.7z"/>
	<polyline points="43.4 79.4 43.4 79.4 43.4 79.4" class="st9"/>
	<path class="st9" d="m46.4 85.9c-0.5-0.9-0.4-0.4-0.5-0.5-0.6-1.1-0.1-0.6-0.3-1-0.4-0.7-0.7-1.2-1-1.7 0 0 0-0.2 0.1 0-0.4-0.7-0.9-2.2-1.3-3.1v-0.1c0 0.2-0.1 0.2-0.2 0.2-0.2-0.4-0.4-0.8-0.3-1 0.1 0.3 0.1 0.3 0.2 0.4l-0.1-0.5c0-0.5 0.2 0.6 0.3 0.6-0.2-0.4-0.3-0.9-0.5-1.4-0.1-0.5-0.3-0.9-0.3-1.3 0.1-0.2 0.5 1.6 0.3 0.7 0.1 0.4 0.1 0.7 0.2 1.1 0-0.9 0.2 0.7 0.2-0.2-0.3-1.4-0.5-1.6-0.8-3-0.1-0.3-0.1 0.1-0.2-0.2-0.3-1-0.2-1.4-0.2-1.8s0.1-0.6-0.1-1.4c-0.1-0.4-0.3-0.5-0.3-1.6l0.2 0.4c0-0.7-0.1-0.9-0.2-1.1s-0.1-0.4-0.1-1.2c0.1 0.3 0.1 1.1 0.1 0.9 0.1-1-0.1-0.7-0.1-1.4l0.1-0.2c0-1.5 0-3.2 0.2-4.9 0 0.1 0 0.4 0.1 0 0.2-2.1 0.8-4.5 1.5-6.4 0-0.3 0.1-0.5 0.1-0.8 0.1-0.2 0.2-0.3 0.1-0.1 0.3-0.7-0.1-0.1 0-0.4 0.1-0.4 0.3-0.5 0.2-0.3 0.1-0.3 0.2-0.8 0.4-1.2s0.3-0.9 0.5-1.4 0.4-0.9 0.6-1.4c0.2-0.4 0.4-0.8 0.6-1.1l0.1 0.2c0.6-1 0.4-1.3 1-2.2l-0.1 0.2c1.3-2.2 2.9-4.5 4.3-5.8 0.1-0.2 0.5-0.7 0.9-1.1s0.8-0.8 0.8-1c0.5-0.5 0.8-0.6 1-0.8 0.3-0.2 0.6-0.5 1.4-1.1 0.4-0.3 0.5-0.7 1-1.1l0.1 0.1 0.6-0.7 0.5-0.2c0.2-0.1 0.3-0.3 0.5-0.4-0.2 0.1-0.5 0.3-0.5 0.2 0.4-0.3 0.9-0.6 1.3-0.9s0.8-0.4 0.8-0.4c0.6-0.4 1.3-0.9 1.9-1.3 0 0.1-0.3 0.3-0.6 0.5 1-0.7 0.3 0 1.2-0.7-0.1 0 0-0.1 0-0.1 0.3-0.1 0.7-0.3 1.1-0.5 0.5-0.2 1-0.5 1.4-0.7l-0.1 0.3c1.6-0.7 3.3-1.4 5.2-2-0.3 0.1-0.5 0.1-0.5 0s0.2-0.2 0.4-0.2l0.3 0.1c0.3-0.2-0.6 0.1 0.1-0.2 0.7-0.2 0.5 0 0.1 0.2l0.8-0.3c0.1 0-0.1 0.1-0.2 0.2 0.3-0.2 1.5-0.2 2-0.5h0.1c0.9-0.2 1.6-0.3 2.3-0.5 0.6-0.1 1.3-0.2 2-0.3 0-0.1 0.6-0.1 1.1-0.3h0.9 0.9 1 1c1 0 0.3-0.1 0.7-0.2 0.1 0.1 1.5 0.2 0.7 0.2 1.7 0.1 2.1 0.1 4.2 0.4-0.2-0.1-0.5-0.1-0.3-0.2 0.4 0 0.9 0.2 0.8 0.2h-0.1c0.3 0 0.6 0.1 0.9 0.1 0.3 0.1 0.6 0.1 0.9 0.2s0.6 0.2 1 0.3c0.3 0.1 0.6 0.2 0.9 0.3l1.8 0.6c0.3 0.1 0.6 0.2 0.8 0.3 0.3 0.1 0.5 0.2 0.7 0.2h-0.1c0.6 0.2 1.3 0.4 1.9 0.6 0.8 0.4-0.5-0.1 0.1 0.2 2 0.7 3 1.5 4.6 2.2 0.5 0.5 1.5 1.1 2.5 1.8 0.5 0.3 1 0.7 1.5 1.1s0.9 0.7 1.2 1.1v-0.1c0.4 0.2 0.4 0.4 0.7 0.6 0-0.1-0.3-0.4-0.1-0.2 1.5 1.3 2.9 2.8 4.2 4.4s2.4 3.4 3.4 5.1c0.4 0.6 0.5 0.8 0.7 1 0.1 0.1 0.2 0.2 0.3 0.4s0.2 0.5 0.4 0.9l-0.4-0.4c1.5 2.6 2.5 5.6 3.4 8.4l-0.2-0.4c0.1 0.6 0.5 2.2 0.6 2.2 0.1 0.5-0.1 0.1 0 0.4 0 0.6 0.4 1.5 0.3 1.9 0 0.1-0.1-0.2-0.1-0.3 0.1 0.4 0.2 1.9 0.3 1.5 0 0.6 0.1 1.1 0.1 1.6 0.1 0.5 0.1 1 0.1 1.4 0.1 0.3 0.1 0.8 0.1 1.2s0 0.8 0.1 0.9c-0.1 0-0.1 0.4-0.2 1 0 0.6-0.1 1.3 0 1.6 0-0.2-0.1 0.6-0.2 0.3-0.1 0.8-0.1 1.5 0 1.4-0.1 0.4-0.2 0.7-0.2 1.1-0.1 0.4-0.1 0.7-0.1 1s-0.1 0.6-0.1 0.9c-0.1 0.3-0.2 0.5-0.3 0.7-0.4 2.3-1 4.4-1.8 6.4-0.1-0.1 0.9-2.2 0.6-2.2-0.1 0.5-0.3 0.9-0.4 1.3s-0.2 0.8-0.4 1.2c-0.3 0.7-0.6 1.5-1.1 2.4-0.3 0.5 0.1-0.3 0.1-0.5-0.8 1.9-1.9 3.4-2.8 5 0 0 0.1-0.2 0.2-0.3-0.2 0.3-0.5 0.7-0.4 0.7l0.2-0.3c0.4-0.4-0.6 1.3-0.6 1.4 0.2-0.6-1.2 1.4-0.8 0.4-0.1 0.2-0.3 0.4-0.2 0.4-0.2 0.3-0.3 0.3-0.2 0-0.4 0.5-0.5 0.7-0.6 0.9s-0.2 0.3-0.6 0.7c0 0 0.1-0.2 0.2-0.3-0.2 0.2-0.3 0.5-0.5 0.8s-0.5 0.6-0.8 0.9c0-0.1-0.1 0 0.1-0.2-1.1 1.2-1.9 2.2-3.4 3.3 0.3-0.5-0.5 0.3-0.7 0.3l-0.7 0.6 0.4-0.2c-0.7 0.5-1.3 1-1.9 1.4l0.5-0.4c-0.4 0.3-0.9 0.6-1.3 0.9l0.8-0.4c-0.7 0.5 0.2 0.1-0.8 0.7 0.2-0.1-0.7 0.5-1.2 0.6-0.3 0.3-0.7 0.5-1.3 0.8-0.2 0 0-0.2-0.1-0.2-0.3 0.3-1.8 1-2.2 1.3 0.1-0.1 0.1-0.2 0.1-0.2l-0.3 0.2-0.4 0.1c-1.1 0.5 0.4 0-0.9 0.5 0.1 0 0 0 0.3-0.1-0.7 0.2-1.3 0.5-2 0.8-0.6 0.2-1.3 0.5-1.9 0.6-0.2 0 0.1-0.1 0.3-0.2 0.3-0.1 0.5-0.2 0.3-0.2-1.8 0.6-3.8 1.3-5.6 1.5h0.3c-0.1 0.1-0.5 0.2-0.9 0.2s-1 0-1.4 0.1c0.2 0 0.3-0.2 0.2-0.1-0.6 0.1-1.3 0.1-2 0.2s-1.5 0.1-2.5 0.2l0.2-0.1c-0.7 0-2 0-2.8-0.1-0.2 0.1-0.7 0-0.4 0.1-1.2-0.2-2.4-0.4-3.6-0.5-1.1-0.1-2.3-0.3-3.3-0.7 0.3 0.1 0.6 0.1 0.4 0-0.6-0.1-1.2-0.3-1.8-0.4 0.1 0.1 0.2 0.1 0.6 0.3-0.2 0-0.8-0.1-1.2-0.2 0.8 0.2 0-0.2-0.3-0.3 0 0-0.1 0-0.1 0.1-0.9-0.5-0.2 0.1-1.5-0.4h0.1c-0.5-0.2-0.9-0.2-1.4-0.5-0.2-0.2 0.5 0.2 0.6 0.1-0.7-0.3-1.5-0.4-2.1-0.7 0.3 0.1 0.7 0.3 1 0.4-0.6-0.4-0.7-0.4-1.2-0.7-0.4-0.2-0.8-0.4-1.1-0.6l0.3 0.2c-0.3 0-0.6-0.1-0.9-0.3-0.1-0.1-0.3-0.1-0.4-0.2-0.2-0.1-0.3-0.2-0.5-0.3-0.1 0-0.2 0.1-0.3 0.1s-0.2 0.1-0.3 0.1c-0.2 0.1-0.4 0.1-0.6 0.2 1.2-0.5 0.2-0.2 0.2-0.3-0.3 0-0.8 0.1-0.7 0.1-0.6 0.3-1 0.2-1.8 0.5 0 0-0.6 0.2-0.5 0-0.8 0.2 0.2 0 0.1 0.1-1.1 0.4-2.8 0.6-4.5 1.2-1.4 0.5-1.7 0.7-3 1.1-0.5 0.1 0.3-0.2 0.3-0.2-0.8 0.1-1.3 0.3-2 0.5 0.1-0.1 0-0.1-0.2-0.1-0.6 0.2-0.3 0.2-1.1 0.4 0.1-0.1 0.3-0.2 0.5-0.3-0.7 0.2-1.3 0.5-2 0.7-0.2 0 0.4-0.2 0.6-0.3-0.8 0.2-2 0.6-2.2 0.8l0.5-0.1c-0.3 0.1-0.2-0.1 0-0.1 0.6-0.3 1-0.2 1-0.2l-0.5 0.2c0.6 0.1 1.9-0.5 2.9-0.8l-0.4 0.3 1-0.4c0.2 0 0.4 0-0.1 0.2 0.7-0.1 0.6-0.2 1.2-0.3 0.1 0 0 0 0 0l0.7-0.2c-0.1 0.1 0.1 0.1-0.3 0.2 1.3-0.2 2-0.6 2.4-0.6h-0.1c1.7-0.5 0.1-0.2 1.4-0.7l0.9 0.1 0.1-0.2c0.2 0 0.5-0.1 0.5-0.1 0.6-0.3-0.1 0 0.2-0.2 0.9-0.1 2.3-0.7 2.6-0.5 0.3-0.2-0.8 0.1 0.1-0.2 0.3 0.1 1-0.3 1.8-0.4-0.2 0.2-1 0.3-0.2 0.2 0.1-0.1 0.4-0.2 0.7-0.2 0.1 0 0.3-0.1 0.4-0.1h0.2 0.1l0.1 0.1h0.1c0.1 0.1 0.2 0.1 0.3 0.1 0.1-0.1 1.3 0.6 2.4 1-0.1 0 1.9 0.9 2.9 1.3 0.2-0.1 1.3 0.3 2 0.5-0.1 0.1-0.2 0.1-0.6 0l0.7 0.2c0.2 0 0.4 0 0.9 0.1l-0.2 0.1c1 0.3 2 0.4 3.2 0.7 0.1-0.1-0.9-0.5 0.4-0.3 0 0.1 0.1 0.2-0.3 0.1 0.1 0 0.4 0 0.6 0.1h-0.5c0.6 0.1 0.3 0 0.8 0.1 0 0.1 0.3 0.1 0.3 0.2-0.1 0-0.4-0.1-0.6-0.1 0.5 0.1 1.1 0.2 1.3 0.3 0-0.1 0-0.1 0.4-0.1 1 0.1 0.3 0.1 0.9 0.2 0.2 0 0.9 0.1 0.9 0 0.3 0 0.3 0.1 0.5 0.1h1.3c0.5 0 0.8 0 0.5-0.1h-0.1 0.1c0.8 0 1.7-0.1 2.6 0h1.3c0.4 0 0.9 0 1.3-0.1 0.5-0.1 1-0.2 1.6-0.2 0.5-0.1 1-0.2 1.3-0.3s0.7 0 0.6 0c0.7-0.2 0.8-0.3 1.9-0.4-0.7 0.2 0.3 0-0.8 0.2 0.5-0.1 0.8-0.1 1.1-0.2s0.6-0.2 1.1-0.4c-0.3 0.2 0.8-0.1 1.2-0.3-0.2 0.1-0.5 0.1-0.7 0.1 0.5-0.2 0.9-0.3 1.4-0.5l-0.2 0.2c1-0.2 1.8-0.7 2.6-1 0.8-0.4 1.5-0.8 2.2-1 0.2-0.2 0-0.1-0.3 0.1-0.3 0.1-0.5 0.2-0.3 0 0.9-0.4 1.8-0.7 2.1-0.8 0.6-0.3 0.8-0.5 1.1-0.7 0.2-0.2 0.5-0.4 1.1-0.7-0.2 0.1-0.4 0 0.4-0.6 0.8-0.5 1.1-0.5 0.6-0.1-0.2 0.1-0.3 0.2-0.3 0.2-0.2 0.2-0.6 0.4-0.2 0.3l0.1-0.1c0.4-0.2 1.5-0.9 1.3-0.7 0.6-0.5 0.2-0.2-0.2 0 0.5-0.3 0.9-0.6 1.3-0.9s0.7-0.6 1.3-1c-0.2 0.1-0.4 0.2-0.2 0 1.4-1.1 0.6-0.6 1.5-1.4 0.6-0.4 0 0.3 0.8-0.6 0.6-0.5 0.2 0 0 0.2l1.1-1.1c0.3-0.3 0.7-0.6 0.9-0.8l-0.4 0.5c0.2-0.3 0.4-0.5 0.6-0.7l-0.3 0.2c0.3-0.2 0.5-0.5 0.5-0.4 0.2-0.3-0.3 0.1 0.1-0.5 0.3-0.3 0.9-1.1 1.1-1.1-1 1.1 0.2 0-0.6 0.9 0.1-0.2 0.3-0.4 0.6-0.7 0 0 0 0.1-0.1 0.1 1-1 0.3-0.6 1.2-1.7 0 0.2 0.3-0.2 0.4-0.4-0.3 0.5-0.3 0.2 0-0.3 0.6-0.7 0.6-0.8 0.8-1.2-0.1 0.2-0.2 0.3-0.3 0.4 0.1-0.2 0.3-0.6 0.6-1.1 0.1 0-0.3 0.5-0.1 0.3 0.1-0.3 0.4-0.7 0.7-1 0.3-0.4 0.5-0.8 0.7-1.2 0.3-0.4 0.1 0 0.4-0.3 0.4-1 0.7-1 1.1-2.1-0.2 0.3-0.2 0.3 0-0.5-0.2 0.6-0.5 1.2-0.8 1.8 0.1-0.4 0.3-0.8 0.4-1.2-0.3 0.5-0.5 1.1-0.7 1.4 0.2-0.6 0.2-0.5 0-0.3 0.3-0.3 0.4-0.7 0.6-1.1 0.1-0.4 0.3-0.8 0.5-1.2l0.2 0.1c0.4-0.6 0.5-1.2 0.8-1.8 0.2-0.6 0.4-1.3 0.7-2.2l-0.2 0.5c0-0.3 0.4-1.1 0.5-1.6 0.1 0.1 0.2-0.3 0.3-0.5 0 0 0.1-0.3 0.1-0.7 0.1-0.3 0.1-0.7 0.1-0.8l0.3-0.8c0.2-0.7 0.2-1.1 0.2-1.5s0-0.8 0.1-1.5c0 0.4 0.2-0.2 0.1 0.7 0.1-0.5 0.1-0.9 0.1-0.9 0.1-0.3 0.1-1.3 0.2-1.7 0-0.2-0.1-0.3-0.1-0.8v0s0-0.8-0.1-0.4c0.1-0.4 0.1-0.8 0.2-1.2 0-0.5 0.1-1 0-1.5v-1.4-1.2c-0.1-1-0.3-2.2-0.4-3.2 0 0.1 0 0 0.1 0.2-0.1-1.3-0.4-0.7-0.5-2.2 0-0.8 0.2 0.7 0.2 0.3 0.1-0.1 0-0.6-0.1-1.1-0.1-0.3-0.1-0.5-0.2-0.8s-0.1-0.6-0.2-0.8l0.1 0.2c-0.1-0.4-0.2-0.8-0.4-1.3s-0.4-1-0.6-1.6c-0.4-0.7-1-2.2-1.6-3.3 0.2 0.3 0.3 0.5 0.3 0.2-0.2-0.5-0.1 0.2-0.6-0.7-0.1-0.3-0.4-1-0.3-1.2l0.5 0.9c-0.1-0.5-0.6-1.1-0.8-1.6h0.1c-0.8-1.3-0.9-1.3-1.8-2.7v0.2c-0.6-0.7-0.3-0.7-0.9-1.3v-0.3c-0.2-0.2-0.5-0.6-0.9-1.1-0.4-0.4-0.8-0.9-1.1-1.3 0.2 0.2 0.6 0.5 0.9 0.9s0.7 0.7 0.9 1c-0.3-0.5-1.2-1.6-1.5-1.8 0.2 0.2 0.4 0.4 0.5 0.6l-2-2c0.2 0-0.3-0.6-0.9-1.3-0.3-0.3-0.6-0.7-0.9-1s-0.5-0.6-0.6-0.8c-1.6-1.3-3.1-2.7-5.1-4 0.6 0.7-0.6-0.4-0.6-0.1-0.5-0.3-0.7-0.4-0.7-0.4-0.5-0.3-0.9-0.7-1.4-1-0.3-0.3 0.5 0.2 0.5 0.1-1.1-0.6-0.4-0.4-1.1-0.8 0.1 0.2-0.4-0.1-1.1-0.4l0.8 0.6c-1.6-0.7-1.2-0.9-2.9-1.4l0.5 0.1c-0.8-0.4-3.1-1.2-4-1.3-0.1-0.1-0.3-0.2 0.1-0.1-2-0.7-4.6-1-6.3-1.4h0.2c-0.4-0.1-0.7 0-1.2-0.1 0 0 0.2 0 0-0.1-0.2 0-1.1 0-1.6-0.1h0.5c-1-0.1-1.8-0.2-2.6-0.1-0.4 0-0.7 0-1.1 0.1-0.4 0-0.8 0.1-1.2 0.1 0-0.1-0.4-0.1-0.9-0.2h-1.5c-0.6 0-1.2 0.1-1.7 0.2l-1.5 0.3-1.5 0.3c-0.5 0.1-1 0.3-1.5 0.4-0.4 0-0.8 0.1-1.3 0.3-0.5 0.1-1.1 0.3-1.7 0.5s-1.2 0.4-1.9 0.6c-0.6 0.2-1.2 0.4-1.7 0.7 0.3-0.1 0 0.2-0.3 0.3l-0.8 0.4c-0.2 0.1-0.4 0.2-0.4 0.1l0.2-0.1c-0.2 0-0.6 0.2-0.9 0.3l-0.6 0.3-0.6 0.3v0.3c-0.5 0.2-1.1 0.5-1.7 0.8s-1.1 0.7-1.7 1.1c-1.1 0.8-2 1.6-2.5 1.8-0.4 0.4-0.9 0.8-1.2 1.2l-0.1-0.1c-1.1 1-1.7 1.5-2.9 2.8l0.2-0.3c-0.7 0.7-0.6 1.2-1.2 1.9-0.2 0.8-0.3 0.8-0.4 0.8-1.1 1.4-2.3 2.8-3.1 4.4 0 0 0-0.1 0.1-0.4-0.1 0.2-0.3 0.4-0.5 0.7s-0.4 0.6-0.5 0.9c-0.3 0.6-0.6 1.1-0.4 1-0.1-0.1-0.9 1.6-1.2 2.5v-0.2c-0.2 0.8-0.2 0.8-0.6 1.9-0.1 0.2-0.2 0.2 0-0.1-0.4 0.8-0.2 0.7-0.6 1.7l0.1-0.4c-0.3 0.9-0.2 0.8-0.3 1.3-0.1 0.6-0.5 1.7-0.7 1.8 0 0.1 0 0.6-0.2 1.2-0.1 0.1 0-0.1 0-0.2-0.4 1.5-0.3 2.3-0.6 3.3 0 0-0.1 0.1-0.1 0.2 0.2-1.2 0.4-2.2 0.4-2.1-0.1 0-0.3 1-0.3 0.1 0 0.4-0.1 0.9-0.1 1.5-0.1 0.6-0.1 1.1-0.2 1.6 0 0 0 0.1-0.1 0.1v-0.1c0 0.2-0.1 0.4-0.1 0.6-0.1 0.3-0.1 0.5-0.1 0.8-0.1 0.1-0.2 1.1-0.2 1.6 0.1 0 0.1 0.6 0.2 0v-0.4-0.2c0-0.3 0.1-0.7 0.1-1.2 0 0.4 0.1 0.8-0.1 1.3 0.1 0.3 0.1 0.5 0.2 0.7-0.2 0.7-0.3 2-0.4 2.2 0.1 1.5 0.2 3.6 0.6 4.5 0.1 0.4 0 0.5 0 0.7-0.1-0.2-0.1-0.5-0.1-0.7 0.1 0.4 0.2 1 0.3 1.6 0.1 0.5 0.2 1 0.3 1.1 0.2 1.1-0.3-0.6 0.1 0.9l-0.1-0.2c0.2 1.5 0.6 2.6 1.1 3.7s1 2.3 1.5 3.8c-0.1-0.2-0.1-0.3-0.1-0.4 0.3 0.8 0.6 1.5 1 2.2 0.2 0.4 0.4 0.7 0.6 1.1l0.6 1c-0.1 0.5-0.3 1-0.4 1.4-0.1 0.5-0.3 1-0.4 1.5-0.3 1-0.6 2-0.9 3s-0.2 1.1-0.3 1.7l-0.4 0.3-0.1 1.1c-0.3 1.5-1 2.5-1.3 4.4l0.1-0.2c-0.2 0.7-0.5 2.1-0.6 2 0 0.1 0 0.2-0.1 0.5h-0.1l-0.3 1.7c-0.4 1.3-0.2-0.3-0.7 1.6-0.2 0.7-0.3 2-0.2 1.8 0.1-0.3 0.2-0.7 0.3-0.7l-0.1 0.6c0.2 0.2 0.2 0.7 0.8-0.8l0.2-1.1 0.2-0.3-0.2 0.9c0.2-0.5 0.2-0.8 0.3-1.2 0.1-0.1 0.1-0.2 0.2-0.4l0.1-1.1c0.1-0.1 0 0.5 0.3-0.2 0.1-0.5-0.3 0.4-0.1-0.4 0.2-0.5 0.3-0.3 0.3-0.9 0.1-0.1 0.1 0.1 0 0.3 0.1-0.6 0.4-1.4 0.3-1.7 0.3-0.5 0.5-1.8 0.6-1.7 0-0.2 0.1-1 0.2-1.5 0 1 0.5-1.8 0.7-1.5 0-0.7 0.6-2.4 0.8-3.6v0.3c0.2-0.7 0.3-0.8 0.5-1.3-0.1-0.1 0.1-1.2 0.2-1.8 0.4-0.8 0.1 0.5 0.3 0.3-0.1 0 0.3-1.5 0.1-1.2 0.3-0.6 0.2-0.5 0.4-0.8-0.1-0.1-0.1-0.1 0-0.2v-0.1-0.1c0-0.1 0.1-0.2 0.1-0.3-0.1-0.1-0.1-0.3-0.2-0.4s-0.1-0.2-0.2-0.2c-0.4-0.9 0-0.3-0.5-1.2-0.3-0.8 0.1 0 0.1 0m-4.6-23.4c0 0.2 0 0.4-0.1 0.5 0.1-0.1 0.1-0.2 0.1-0.5m0.3-2c0 0.2-0.1 0.5-0.2 0.9-0.1 0.1-0.1 0 0-0.2 0 0.1 0.2-0.4 0.2-0.7m-1.3 4.3c0-0.3 0-0.4 0.1-0.5-0.1 0.1-0.1 0.3-0.1 0.5v0.1-0.1"/>
	<path class="st9" d="m40.9 65.4v0.1-0.1-0.2 0.2"/>
	<path class="st9" d="m80.3 107.5"/>
	<polygon points="56.4 37 56.4 37 56.3 37.1" class="st9"/>
	<path class="st9" d="m69.2 105.3s-0.1 0-0.1-0.1c0 0.1 0.1 0.1 0.1 0.1"/>
	<path class="st9" d="m64.7 103.6l-0.6-0.3 0.6 0.3"/>
	<path class="st9" d="m61.1 102.5c-0.1 0-0.1 0 0 0z"/>
	<path class="st9" d="m113.9 89.5l0.1-0.1c0.2-0.3 0.1-0.1-0.1 0.1"/>
	<path class="st9" d="m101.3 101.7c0.2-0.1 0.3-0.2 0.5-0.3-0.3 0.1-0.5 0.2-0.5 0.3"/>
	<path class="st9" d="m120.3 71.2s0.1 0 0 0v-0.1 0.1z"/>
	<path class="st9" d="m102.5 100.9c-0.3 0.2-0.5 0.3-0.7 0.4 0.2-0.1 0.5-0.2 0.7-0.4"/>
	<path class="st9" d="m45.2 106.5h-0.2 0.2z"/>
	<path class="st9" d="m45 106.6l-0.2 0.1c0.1-0.1 0.2-0.1 0.2-0.1"/>
	<path class="st9" d="m44.4 106.8l0.4-0.1c-0.1 0-0.3 0-0.4 0.1"/>
	<path class="st9" d="m50.1 105.3"/>
	<path class="st9" d="m51.5 104.9c-0.4 0.1-0.9 0.1-1.4 0.3 0.2 0 1.1-0.1 1.4-0.3"/>
	<path class="st9" d="m57.8 103.9l-1.2 0.3c0.2 0 0.5 0 0 0.1 1.5-0.3-0.4 0 1.2-0.4"/>
	<path class="st9" d="m61.6 102.9c-0.6 0.2 0.1 0.1 0 0 0.1 0.1 0.2 0 0.2 0h0.1-0.3"/>
	<path class="st9" d="m89.2 106.8v0.1c0.5-0.1 0 0 0-0.1"/>
	<polygon points="94.3 104.8 93.8 104.9 93.6 105.1" class="st9"/>
	<polygon points="97.6 104.4 97.4 104.5 98.2 104.1" class="st9"/>
	<path class="st9" d="m121.5 65.7l-0.1 0.2c0 0.3 0.2 0.4 0.1-0.2"/>
	<path class="st9" d="m115.2 46.1c-0.1-0.2-0.3-0.7-0.6-1 0.3 0.4 0.5 0.8 0.6 1"/>
	<path class="st9" d="m60.3 33l0.3-0.2c-0.2 0.1-0.4 0.3-0.7 0.4 0.2-0.1 0.3-0.1 0.4-0.2"/>
	<defs>
		<path id="SVGID_9_" d="m67 49.2c-0.7 0-1.7 0.2-2.7 1.2-0.9 1-3.5 3.4-3.5 8.3s3.6 9.6 4.1 10.3 6.9 11 17.1 15c8.4 3.3 10.2 2.7 12 2.5s5.9-2.4 6.7-4.7 0.8-4.3 0.6-4.7-0.9-0.7-1.9-1.2-5.9-2.9-6.8-3.2-1.6-0.5-2.2 0.5c-0.7 1-2.6 3.2-3.2 3.9s-1.2 0.7-2.2 0.3c-1-0.5-4.2-1.5-8-4.9-3-2.6-5-5.9-5.6-6.9s-0.1-1.5 0.4-2c0.4-0.4 1-1.2 1.5-1.7 0.5-0.6 0.7-1 1-1.7s0.2-1.2-0.1-1.7c-0.2-0.5-2.2-5.4-3.1-7.4-0.7-1.7-1.5-1.7-2.2-1.7h-1.6c-0.1-0.2-0.2-0.2-0.3-0.2"/>
	</defs>
	<clipPath id="SVGID_10_">
		<use xlink:href="#SVGID_9_"/>
	</clipPath>
	<g class="st10">
		<defs>
			<rect id="SVGID_11_" y="27.3" x="40.2" height="80.9" width="81.2"/>
		</defs>
		<clipPath id="SVGID_12_">
			<use xlink:href="#SVGID_11_"/>
		</clipPath>
		<path class="st11" d="m60.9 49.1v38.2-38.2z"/>
		<rect y="49.1" x="60.9" height="38.2" class="st11" width="6.8"/>
		<rect y="49.1" x="67.6" height="38.2" class="st12" width="6.8"/>
		<rect y="49.1" x="74.4" height="38.2" class="st13" width="6.8"/>
		<rect y="49.1" x="81.1" height="38.2" class="st14" width="6.8"/>
		<rect y="49.1" x="87.9" height="38.2" class="st15" width="6.8"/>
		<rect y="49.1" x="94.7" height="38.2" class="st16" width="6.8"/>
		<rect y="49.1" x="101.4" height="38.2" class="st16" width=".1"/>
	</g>
	<defs>
		<rect id="SVGID_13_" y="27.3" x="40.2" height="80.9" width="81.2"/>
	</defs>
	<clipPath id="SVGID_14_">
		<use xlink:href="#SVGID_13_"/>
	</clipPath>
	<path class="st17" d="m71.4 50.8c-0.1 0-0.1 0 0 0.2l0.2 0.1-0.2-0.3z"/>
	<path class="st17" d="m71.7 52.1c0.2 0.2 0.4 0.4 0.4 0.2l-0.4-0.4c-0.1-0.2-0.1-0.3 0-0.3-0.1 0-0.1-0.3-0.2-0.3 0 0.2 0.1 0.5 0.2 0.8 0.1 0 0 0 0 0"/>
	<path class="st17" d="m73.2 68.6l-0.1-0.1c0.1 0 0.1 0 0.1 0.1"/>
	<path class="st17" d="m82 76.2h-0.1 0.1"/>
	<path class="st17" d="m83.7 77.2s-0.1 0-0.1-0.1c0 0.1 0.1 0.1 0.1 0.1"/>
	<path class="st17" d="m73.2 68.6l0.2 0.3c0-0.1-0.1-0.2-0.2-0.3"/>
	<path class="st17" d="m73 54.3c0-0.1-0.1-0.1-0.1-0.1l0.1 0.1"/>
	<path class="st17" d="m71.1 63.9c0.1-0.1 0.1-0.2 0.1-0.2-0.1 0-0.1 0.1-0.1 0.2"/>
	<path class="st17" d="m73.5 60.8c0 0.1 0 0.2 0.1 0.2 0 0 0-0.1-0.1-0.2 0.1 0 0.1 0 0 0"/>
	<path class="st17" d="m72.9 55.3c-0.1-0.1 0 0 0 0"/>
	<path class="st17" d="m71.8 66.7v0 0"/>
	<path class="st17" d="m67.4 48.6s0.1 0 0 0"/>
	<path class="st17" d="m71.1 50.9z"/>
	<path class="st17" d="m87.6 77.4c-0.1 0.1 0 0.1 0 0"/>
	<path class="st17" d="m91.5 86.2c0.4 0.1-0.6 0.1-0.1 0.3 0-0.1 0.6-0.3 0.1-0.3"/>
	<path class="st17" d="m73 54.4l0.1 0.1-0.1-0.1"/>
	<path class="st17" d="m91.4 86.4c0.1 0 0.1 0 0 0"/>
	<path class="st17" d="m93.1 73.4s-0.1-0.1 0 0c-0.1-0.1-0.1 0 0 0"/>
	<path class="st17" d="m88.8 75.6l0.1-0.1-0.1 0.1"/>
	<path class="st17" d="m96 74.6c0.1 0 0.1 0.1 0.2 0.1 0 0-0.1 0-0.2-0.1"/>
	<path class="st17" d="m99.1 76.1c-0.1 0-0.1 0 0 0-0.1-0.1-0.2-0.1-0.2-0.1l0.2 0.1z"/>
	<path class="st17" d="m60.6 56.1c0-0.1 0.1-0.1 0.1-0.1-0.1 0 0-0.5-0.1 0.1"/>
	<path class="st17" d="m72.9 54.3c0.1 0 0.1 0.1 0 0 0.1 0.1 0.1 0 0 0 0.1 0 0 0 0 0"/>
	<path class="st17" d="m96.6 73.8l0.5 0.2c-0.2 0-0.4-0.1-0.5-0.2"/>
	<path class="st17" d="m71.2 77.3c-0.1-0.1-0.1 0 0 0"/>
	<path class="st17" d="m98.5 74.8l0.2 0.2h0.1l-0.3-0.2z"/>
	<path class="st17" d="m60.7 56z"/>
	<path class="st17" d="m61.8 52.5c-0.3 0.5 0 0.3 0 0.4-0.3 0.6-0.2 0.2-0.4 0.4-0.1 0.4-0.1 0.7-0.2 1 0 0-0.1 0.1-0.1 0 0 0.4-0.4 1.2-0.3 1.7l-0.1 0.1c0.1-0.1 0.2-0.1 0.2 0-0.1 0.2 0 0.4-0.1 0.5v-0.2 0.2c-0.2 0.2 0-0.3-0.1-0.4v0.7 0.7c-0.2 0.1 0-0.9-0.1-0.4 0-0.2 0.1-0.4 0.1-0.6-0.3 0.4 0.1-0.3-0.2 0-0.1 0.4-0.1 0.6-0.1 0.8v0.8c0.1 0.2 0.1-0.1 0.2 0.1 0 0.5 0 0.7-0.1 0.9s-0.2 0.3 0 0.7c0.1 0.2 0.3 0.2 0.3 0.8l-0.2-0.2c0.1 0.7 0.3 0.4 0.4 1.1-0.1-0.1-0.2-0.5-0.2-0.4 0 0.5 0.2 0.3 0.3 0.7l-0.1 0.1c0.2 0.7 0.6 1.5 1 2.3-0.1 0-0.2-0.1-0.1 0.1 0.5 1 1 2.1 1.4 3l0.3 0.3v0.1c0.2 0.4 0.1 0 0.2 0.1 0.1 0.2 0.1 0.3 0 0.2 0.2 0.3 0.6 0.7 0.9 1 0.3 0.4 0.6 0.8 0.7 1.1l-0.1-0.1c0.3 0.5 0.6 0.4 0.8 0.9h-0.2c0.7 1 1.6 2.1 2.1 2.9 0.1 0 0.3 0.3 0.5 0.5s0.4 0.4 0.5 0.4c0.4 0.6 0.2 0.5 0.8 1.3 0.2 0.2 0.4 0.2 0.6 0.4l-0.1 0.1 0.4 0.2 0.1 0.3 0.2 0.2c0-0.2-0.1-0.3-0.1-0.3 0.4 0.3 0.8 0.9 0.8 0.9 0.3 0.2 0.6 0.5 0.9 0.7-0.1 0-0.2-0.1-0.3-0.2 0.6 0.3 0 0.2 0.5 0.5 0-0.1 0.1 0 0.1 0 0.1 0.1 0.2 0.3 0.4 0.5s0.4 0.3 0.6 0.5h-0.1c0.3 0.3 0.7 0.6 1.1 0.8 0.4 0.3 0.8 0.5 1.2 0.8-0.3-0.2-0.1-0.3 0.1-0.2v0.2c0.2 0-0.2-0.2 0.2-0.1 0.3 0.2 0.1 0.3-0.1 0.2 0.1 0.1 0.3 0.1 0.4 0.2h-0.2c0.2 0 0.6 0.5 0.9 0.5 0.8 0.5 1.2 0.7 1.9 1 0.1-0.1 0.3 0.1 0.6 0.1 0.5 0.3 1.1 0.6 1.7 0.9 0.5 0.1 0.2 0 0.4 0 0 0.1 0.6 0.3 0.3 0.3 0.8 0.3 1 0.4 2 0.6-0.1-0.1-0.2-0.1-0.1-0.2 0.2 0 0.4 0.2 0.3 0.2h-0.1c1.2 0.2 2.5 1.2 3.5 1.2h-0.1c0.3 0.1 0.7 0.1 1 0.1 0.4 0.1-0.3 0 0 0.2 1.1 0 1.7 0.3 2.6 0.3 0.3 0.2 1 0.2 1.6 0.1 0.3 0 0.6-0.1 0.9-0.1h0.5 0.4l-0.1-0.1c0.2-0.1 0.3 0 0.5-0.1 0 0-0.3 0-0.1-0.1 1-0.4 1.9-0.8 2.8-1.3s1.8-1.1 2.6-2c0.3-0.3 0.3-0.5 0.3-0.6s0-0.2 0.1-0.3 0.1-0.2 0.3-0.5v0.3c0.1-0.2 0.2-0.4 0.2-0.6l0.2-0.6c0.1-0.4 0.2-0.8 0.3-1.1 0.2-0.8 0.3-1.5 0.2-2.3 0 0.1 0.1 0.1 0.1 0.2 0.1-0.2 0.1-0.5 0-0.8 0-0.1-0.1-0.3-0.2-0.4l-0.2-0.2c-0.2-0.3 0-0.1-0.1-0.3-0.3-0.4-0.8-0.4-0.9-0.6h0.2c-0.2-0.1-0.8-0.4-0.7-0.2-0.5-0.3-1-0.4-1.3-0.7-0.3 0-0.8-0.5-1-0.3 0.1-0.2-0.8-0.6-1.1-0.6 0.1 0-0.2-0.2-0.1-0.2-0.4-0.2-0.7-0.3-0.7-0.2-0.6-0.5-1.4-0.5-1.6-0.9-0.6-0.2-1.1-0.4-1.6-0.6-0.6 0.2-0.9 0.1-1.2 0.1s-0.7 0.1-1 0.3c0-0.1 0.3-0.3 0.7-0.3s0.7 0.1 0.7 0c-0.3-0.1-0.6-0.1-0.9 0s-0.5 0.2-0.7 0.4-0.3 0.4-0.4 0.6-0.2 0.3-0.4 0.5 0-0.2 0-0.2c-0.5 0.8-1.2 1.5-1.7 2.2 0 0 0-0.1 0.1-0.2-0.1 0.1-0.3 0.3-0.2 0.3l0.1-0.1c0.3-0.1-0.2 0.7-0.2 0.8 0-0.4-0.6 0.6-0.5 0.1-0.1 0.1-0.1 0.2-0.1 0.3-0.1 0.1-0.2 0.1-0.1 0-0.2 0.2-0.2 0.4-0.3 0.4 0 0.1-0.1 0.2-0.3 0.3v-0.2c-0.1 0.2-0.3 0.4-0.7 0.3 0 0 0-0.1 0.1 0-0.3 0-0.6-0.1-1-0.2s-0.7-0.2-1.1-0.4c0.3-0.1-0.3-0.2-0.2-0.3l-0.5-0.2 0.1 0.2c-0.4-0.2-0.8-0.2-1.1-0.5l0.3 0.1c-0.2-0.1-0.5-0.2-0.7-0.3 0.1 0.1 0.2 0.2 0.4 0.3-0.4-0.1-0.1 0.2-0.5-0.1 0.1 0-0.4-0.2-0.5-0.4-0.2-0.1-0.4-0.1-0.7-0.3 0-0.1 0.1-0.1 0.1-0.2-0.2 0-0.8-0.5-1.1-0.5 0.1 0 0.1 0 0.1-0.1h-0.2l0.1-0.6c-0.5-0.4 0 0.3-0.5-0.2l0.1 0.1c-0.5-0.5-1.1-0.8-1.6-1.2 0-0.2 0.5 0.3 0.4 0.1-0.7-0.6-1.6-1.1-2.2-1.8l0.1 0.1c-0.3 0.1-0.4-0.6-0.8-0.8 0.1 0.1 0.2 0 0.2 0-0.4-0.5-0.9-0.9-1.5-1.6l0.1 0.1c-0.2-0.3-0.6-0.8-0.8-1.1-0.1-0.1-0.2-0.2-0.2-0.1-0.2-0.6-0.6-1-0.9-1.5-0.3-0.4-0.7-0.9-0.6-1.4 0 0.1 0.1 0.2 0.1 0.2-0.1-0.2 0-0.4 0.1-0.7-0.1 0-0.1 0.1-0.2 0.2 0-0.1 0.1-0.4 0.2-0.5-0.2 0.4 0.1 0.1 0.3 0 0 0 0-0.1-0.1-0.1 0.5-0.2-0.1-0.2 0.4-0.6v0.1c0.1-0.2 0.2-0.4 0.4-0.6 0.2 0-0.1 0.2-0.1 0.3 0.2-0.3 0.3-0.7 0.6-0.9-0.1 0.1-0.2 0.3-0.3 0.5 0.3-0.2 0.3-0.3 0.5-0.4l0.5-0.5-0.1 0.1c0.1-0.5 0.5-0.9 0.6-1.5-0.1 0.6 0.1 0.1 0.1 0.2l0.2-0.2c0-0.1 0.1-0.1 0.1-0.1 0-0.2 0.1-0.3 0.1-0.5s0.1-0.4 0-0.6c0 0-0.1-0.4 0.1-0.3-0.2-0.4 0 0.1-0.1 0.1-0.1-0.3-0.3-0.7-0.4-1-0.1-0.4-0.2-0.8-0.5-1.1-0.4-0.6-0.5-0.7-0.9-1.3 0-0.2 0.2 0.1 0.2 0.1-0.1-0.4-0.2-0.6-0.4-0.9 0.1 0.1 0.1 0 0.1-0.1-0.1-0.3-0.2-0.1-0.3-0.5 0.1 0 0.2 0.1 0.3 0.2-0.2-0.3-0.4-0.6-0.5-0.9 0-0.1 0.2 0.1 0.3 0.2-0.2-0.3-0.4-0.9-0.6-1l0.1 0.2c-0.1-0.1 0.1-0.1 0.1 0 0.2 0.3 0.1 0.5 0.1 0.5l-0.1-0.2c-0.1 0.3 0.4 0.9 0.6 1.3l-0.2-0.1 0.3 0.4c0 0.1-0.1 0.2-0.2 0 0.1 0.4 0.2 0.3 0.2 0.6l0.2 0.3c-0.1 0-0.1 0.1-0.2-0.1 0.1 0.6 0.5 0.9 0.5 1.1 0.4 0.8 0.2 0 0.5 0.6l-0.1 0.5h0.2c0 0.1 0.1 0.2 0 0.2 0.2 0.3 0-0.1 0.2 0.1 0 0.2 0.2 0.5 0.3 0.7s0.1 0.4 0 0.5c0.1 0.1 0-0.4 0.1 0-0.1 0.1-0.1 0.2-0.1 0.3 0 0.2 0 0.3-0.2 0.5 0-0.2 0.1-0.4-0.1-0.2 0.1 0.3-0.4 0.7-0.5 0.9 0.1 0 0 0.2-0.1 0.4s-0.3 0.4-0.5 0.6c0-0.1-0.7 0.8-1.1 1.1 0 0.1-0.1 0.2-0.2 0.4-0.1 0.1-0.3 0.3-0.4 0.5-0.1-0.1-0.1-0.2 0.1-0.4l-0.3 0.3c0 0.1-0.1 0.2-0.1 0.5l-0.1-0.1c-0.1 0.3-0.1 0.6 0 0.9s0.3 0.5 0.4 0.8c0.1 0 0-0.6 0.4-0.1 0 0.1-0.1 0.1-0.2 0 0 0 0.1 0.1 0.2 0.3l-0.2-0.2c0.1 0.3 0.1 0.1 0.3 0.3-0.1 0 0 0.2 0 0.2l-0.1-0.2c0.1 0.2 0.2 0.5 0.2 0.6 0 0 0.1-0.1 0.2 0.1 0.3 0.4 0 0.2 0.1 0.5 0.1 0.1 0.2 0.4 0.3 0.3 0.1 0.1 0 0.2 0.1 0.2 0.2 0.2 0.7 0.9 0.6 0.6v-0.1c0.6 0.6 1 1.4 1.6 2 0.4 0.3 0.8 0.8 1.1 1 0.1 0.1 0.2 0.3 0.1 0.3 0.3 0.2 0.3 0.2 0.7 0.6-0.3-0.2 0.1 0.1-0.3-0.2 0.3 0.4 0.4 0.5 0.8 0.7-0.2 0 0.2 0.3 0.4 0.5l-0.3-0.1c0.2 0.2 0.4 0.3 0.5 0.5h-0.2c0.7 0.8 1.6 0.9 2.1 1.5 0.3 0.1-0.4-0.4-0.1-0.3 0.4 0.3 0.7 0.7 0.8 0.8 0.5 0.4 0.6 0.1 1.1 0.5 0-0.1-0.1-0.2 0.4 0 0.4 0.2 0.4 0.4 0.1 0.3-0.1 0-0.1-0.1-0.1-0.1-0.1-0.1-0.3-0.1-0.2 0h0.1c0.2 0.2 0.7 0.4 0.6 0.4 0.3 0.1 0.2 0 0-0.1 0.5 0.3 0.8 0.4 1.4 0.7-0.1-0.1-0.1-0.2 0-0.1 0.8 0.4 0.4 0.1 0.9 0.3 0.3 0.2-0.2 0.1 0.4 0.3 0.3 0.2 0 0.2-0.1 0.1 0.3 0.1 0.5 0.2 0.8 0.3s0.5 0.2 0.8 0.1h-0.4c0.2 0 0.5 0 0.7-0.1h-0.3c0.2 0 0.4-0.1 0.4-0.1 0.1-0.1 0-0.1 0-0.1s0-0.1 0.1-0.2 0.3-0.2 0.4-0.3 0.2-0.2 0.3-0.2l-0.2 0.3s0.1 0-0.1 0.3l0.4-0.4v0.1c0.5-0.4 0.1-0.3 0.5-0.9 0 0.1 0.2 0 0.3-0.1-0.2 0.2-0.2 0-0.1-0.2 0.3-0.3 0.3-0.4 0.4-0.6l-0.2 0.2c0-0.1 0.2-0.3 0.3-0.5 0.1 0-0.1 0.2-0.1 0.2 0.1-0.4 0.6-0.5 0.8-1 0.2-0.1 0.1 0.1 0.3-0.1 0.3-0.5 0.4-0.4 0.7-0.9-0.1 0-0.1 0.1-0.1 0 0 0 0-0.1 0.1-0.3l-0.2 0.4-0.4 0.3c0.1-0.2 0.2-0.4 0.2-0.6-0.2 0.2-0.3 0.5-0.4 0.7 0.1-0.3 0.1-0.2 0-0.2 0.2-0.1 0.3-0.3 0.4-0.5s0.2-0.4 0.3-0.5l0.2 0.2c0.2-0.2 0.3-0.3 0.5-0.3 0.2-0.1 0.5 0 0.9 0.1l-0.2-0.1c0.1-0.1 0.5 0.1 0.8 0.2-0.1 0.1 0.1 0.2 0.2 0.3 0-0.1 0.6 0.3 0.7 0.1l0.3 0.3c0.6 0.3 0.8 0.1 1.4 0.4-0.2 0 0 0.2-0.4 0 0.2 0.1 0.4 0.2 0.4 0.1 0.1 0.1 0.6 0.2 0.8 0.3 0.1 0 0.2-0.1 0.4 0.1 0 0 0.4 0.1 0.2-0.1 0.5 0.5 1.8 0.8 2.2 1.3 0.5 0.2 1 0.4 1.4 0.6h-0.1c0.2 0.2 0.3 0.2 0.5 0.2h0.2c0.1 0 0.2 0.1 0.2 0.2 0 0.2-0.1 0.1-0.1 0s-0.1-0.1-0.1 0c-0.1 0.1 0 0.1 0 0.4 0.1 0.2 0.1 0.5 0 0.7v-0.1c-0.1 0.3 0.1 0.8-0.1 1.4 0.1 0.4 0 1.2-0.2 1.7-0.1-0.2 0-0.3-0.1-0.2-0.1 0.2 0.2 0 0.1 0.5-0.1 0.1-0.3 0.5-0.4 0.4 0.1-0.1 0.1-0.3 0.2-0.4-0.1 0.1-0.2 0.2-0.2 0.4 0 0.1 0 0.1-0.1 0.2 0 0.1-0.1 0.1-0.1 0.2v-0.1c-0.3 0.6-0.2 0.7-0.8 1.2h0.1c-0.2 0.4-0.3 0.2-0.6 0.5h-0.2c-0.2 0.2-0.7 0.7-1.1 1 0.2-0.3 0.6-0.6 0.9-0.9-0.1 0.1-0.3 0.2-0.5 0.4-0.2 0.1-0.3 0.3-0.4 0.3 0.1-0.1 0.2-0.2 0.3-0.2-0.2 0.3-0.5 0.6-1 0.9 0-0.2-0.4 0-0.7 0.2-0.4 0.2-0.8 0.3-1.1 0.3-0.2 0.1-0.4 0.2-0.7 0.2-0.2 0.1-0.4 0.1-0.7 0.1-0.5 0-1 0.1-1.6 0.1 0.4 0.2-0.3 0-0.3 0.3h-0.4c-0.3-0.1-0.5-0.1-0.8-0.2-0.2-0.1 0.3 0 0.2-0.1-0.6-0.1-0.2-0.1-0.6-0.3 0.1 0.1-0.2 0.1-0.5 0 0.1 0.1 0.3 0.1 0.4 0.2-0.4 0-0.6-0.1-0.7-0.2-0.2-0.1-0.3-0.2-0.7-0.2h0.3c-0.4 0-1.5-0.4-1.9-0.3-0.1-0.1-0.1-0.1 0-0.1-1-0.3-2.2-0.5-2.9-0.9h0.1c-0.2 0-0.4 0-0.6-0.1 0 0 0.1 0 0-0.1-0.1 0-0.5-0.1-0.7-0.2h0.2c-0.4-0.2-0.8-0.3-1.2-0.4-0.3-0.1-0.7-0.2-1.1-0.3 0-0.1-0.1-0.2-0.3-0.4-0.1-0.1-0.2-0.1-0.3-0.2s-0.2-0.1-0.3-0.2c-0.5-0.3-0.9-0.5-1.4-0.6-0.4-0.2-0.9-0.4-1.3-0.6-0.1-0.1-0.3-0.3-0.5-0.4-0.2-0.2-0.4-0.3-0.7-0.5-0.2-0.2-0.5-0.4-0.7-0.5-0.2-0.2-0.5-0.4-0.6-0.6 0.1 0.1-0.1 0.1-0.3 0-0.2-0.2-0.6-0.3-0.5-0.4l0.1 0.1c0-0.2-0.5-0.5-0.7-0.8l-0.2 0.1c-0.1-0.2-0.3-0.5-0.6-0.7-0.2-0.2-0.5-0.4-0.7-0.6s-0.5-0.4-0.6-0.6c-0.2-0.2-0.3-0.4-0.3-0.6-0.2-0.1-0.4-0.4-0.6-0.5l0.1-0.1c-0.5-0.5-0.7-0.8-1.3-1.4l0.2 0.1c-0.3-0.4-0.7-0.2-1-0.6l0.1-0.2c-0.5-0.7-0.9-1.4-1.6-2 0 0 0.1 0 0.2 0.1-0.2-0.3-0.8-1.3-0.9-1.1 0.1-0.1-0.5-0.7-0.8-1.1h0.1c-0.4-0.3-0.4-0.2-0.7-0.6-0.1-0.1 0-0.1 0.1 0-0.2-0.4-0.3-0.2-0.5-0.7l0.2 0.1c-0.2-0.4-0.2-0.3-0.5-0.5-0.2-0.2-0.4-0.7-0.3-0.8-0.1 0-0.3-0.2-0.4-0.4 0-0.1 0.1 0 0.1 0.1-0.3-0.7-0.6-0.9-0.7-1.4v-0.1c0.2 0.5 0.4 0.9 0.4 0.9 0.1 0-0.1-0.5 0.2-0.2-0.2-0.3-0.7-0.8-0.8-1.2v-0.1c0-0.1-0.1-0.2-0.1-0.3s-0.1-0.2-0.1-0.4c0.1-0.1-0.1-0.5-0.2-0.7-0.1 0.1-0.2-0.2-0.2 0.1l0.1 0.2v0.1c0 0.1 0.1 0.3 0.2 0.5-0.1-0.2-0.2-0.3-0.3-0.6-0.1-0.1-0.2-0.2-0.3-0.2 0-0.4 0-1 0.1-1.1-0.1-0.3-0.2-0.7-0.3-1.1s-0.2-0.7-0.3-0.9c0-0.2 0.1-0.2 0.1-0.3 0 0.1 0 0.3 0.1 0.3 0-0.2-0.1-0.5-0.1-0.7 0-0.3 0-0.5-0.1-0.5 0.1-0.5 0.1 0.3 0.1-0.4v0.1c0.1-0.3 0.1-0.6 0.1-0.9v-0.9c0-0.6 0.1-1.2 0.6-1.8l-0.1 0.1c0.4-0.8 0.8-1.6 1.3-2.3 0.3-0.4 0.5-0.7 0.8-1l0.5-0.5c0.2-0.1 0.3-0.3 0.5-0.4 0.4-0.2 0.4-0.3 0.6-0.5l0.1 0.1c0.1-0.1 0.3-0.2 0.4-0.3 0.3-0.1 0.6-0.1 1 0 0.3 0.1 0.7 0.1 1.2 0l-0.1-0.1c0.3 0 1.1 0 1 0.1 0 0 0.1-0.1 0.2 0v0.1c0.2 0 0.5 0.1 0.7 0.2 0.2 0.2 0.1 0.2 0.1 0.3s0 0.1 0.2 0.4c0.2 0.2 0.6 0.7 0.6 0.6-0.1-0.1-0.1-0.3-0.1-0.4 0.1 0.1 0.1 0.2 0.2 0.3 0.2 0 0.5 0.1 0.3-0.7-0.1-0.2-0.3-0.3-0.4-0.4 0-0.1 0-0.1-0.1-0.2 0.1 0.1 0.2 0.3 0.3 0.4-0.1-0.3-0.3-0.4-0.5-0.5 0-0.1 0-0.2-0.1-0.3-0.2-0.1-0.4-0.2-0.7-0.2-0.1-0.1 0.3 0-0.1-0.2-0.3 0 0.2 0.2-0.3 0.2-0.3-0.1-0.2-0.2-0.5-0.1 0-0.1 0-0.1 0.2-0.1-0.3 0-0.7 0-0.9 0.1-0.3-0.1-0.9 0-0.9-0.2-0.1 0-0.5 0.1-0.8 0.2 0.2-0.1 0-0.1-0.3-0.1-0.3 0.1-0.7 0.2-0.6 0-0.2 0.2-0.5 0.3-0.8 0.5s-0.6 0.5-0.8 0.8c0 0 0-0.1 0.1-0.1-0.3 0.3-0.4 0.3-0.5 0.4 0.1 0.1-0.2 0.6-0.3 0.8-0.4 0.2 0-0.3-0.2-0.3 0.1 0.1-0.4 0.7-0.2 0.6-0.3 0.2-0.2 0.2-0.4 0.2 0.1 0.2-0.2 0.3-0.2 0.6-0.3 0.3-0.2 0-0.5 0.5-0.2-0.1-0.1-0.5-0.1-0.5m0 11.8c0-0.1-0.1-0.2-0.1-0.2 0.1 0.1 0.1 0.1 0.1 0.2m0.5 1c0-0.1-0.1-0.3-0.2-0.4 0 0 0.1 0 0.1 0.1-0.1-0.1 0 0.1 0.1 0.3m-0.1-2.3c0.1 0.1 0.1 0.2 0.1 0.2-0.1 0-0.1-0.1-0.1-0.2-0.1 0-0.1 0 0 0-0.1 0 0 0 0 0"/>
	<path class="st17" d="m62 62.8s-0.1 0 0 0c-0.1 0-0.1 0 0 0v0"/>
	<path class="st17" d="m73.2 68.4"/>
	<polygon points="70.3 76.5 70.3 76.5" class="st17"/>
	<path class="st17" d="m71.8 63.8s0.1 0 0 0c0.1-0.1 0.1 0 0 0"/>
	<path class="st17" d="m73.4 62l0.3-0.2c-0.2 0.1-0.2 0.1-0.3 0.2"/>
	<path class="st17" d="m74.5 60.4z"/>
	<path class="st17" d="m88.1 75.2c0.1-0.2 0.1-0.1 0 0"/>
	<path class="st17" d="m81.3 75.3c0.1 0 0.2 0.1 0.3 0.1-0.2-0.1-0.3-0.2-0.3-0.1"/>
	<path class="st17" d="m96.5 73.8s0.1 0 0 0z"/>
	<path class="st17" d="m81.9 75.6c-0.1-0.1-0.2-0.1-0.3-0.2 0.1 0 0.2 0.1 0.3 0.2"/>
	<path class="st17" d="m72.4 52.8v0z"/>
	<path class="st17" d="m72.3 52.7"/>
	<path class="st17" d="m72.2 52.5l0.1 0.2c0-0.1-0.1-0.2-0.1-0.2"/>
	<path class="st17" d="m73.3 55.1"/>
	<path class="st17" d="m73.5 55.7c-0.1-0.2-0.1-0.4-0.2-0.7 0.1 0.2 0.1 0.6 0.2 0.7"/>
	<path class="st17" d="m74.2 58.7c0-0.2-0.1-0.3-0.2-0.6 0 0.1 0 0.3-0.1 0 0 0.1 0 0.2 0.1 0.2v0.1c0 0.1 0.1 0 0.2 0.3"/>
	<path class="st17" d="m73.9 60.4c0.1-0.3-0.1-0.1 0 0-0.2 0.1-0.2 0.2 0 0"/>
	<path class="st17" d="m75.9 71.8l-0.1 0.1c0.2 0.1 0.1-0.1 0.1-0.1"/>
	<polygon points="78.3 73.1 78.1 72.9 78 72.9" class="st17"/>
	<polygon points="79.1 74.6 79 74.6 79.3 74.8" class="st17"/>
	<path class="st17" d="m98.5 75.9v-0.2c-0.2 0-0.3 0.1 0 0.2"/>
	<path class="st17" d="m99.3 83.3c-0.1 0-0.3 0.2-0.4 0.3 0.2-0.1 0.3-0.2 0.4-0.3"/>
	<polygon points="73 77.6 73.1 77.7 72.8 77.5" class="st17"/>
	<path class="st18" d="m51.9 151.7h-1.3l-2.3-7.6c-0.1-0.3-0.2-0.8-0.4-1.3s-0.2-0.8-0.2-0.9c-0.1 0.7-0.3 1.4-0.5 2.3l-2.2 7.6h-1.3l-3-11.4h1.4l1.8 7.1c0.2 1 0.4 1.9 0.5 2.7 0.1-1 0.3-1.9 0.6-2.8l2-6.9h1.4l2.1 7c0.2 0.8 0.5 1.7 0.6 2.7 0.1-0.7 0.3-1.6 0.6-2.7l1.8-7h1.4l-3 11.2z"/>
	<path class="st18" d="m62.4 151.7v-5.5c0-0.7-0.2-1.2-0.5-1.6s-0.8-0.5-1.5-0.5c-0.9 0-1.6 0.2-2 0.7s-0.6 1.3-0.6 2.4v4.5h-1.3v-12.2h1.3v3.7c0 0.4 0 0.8-0.1 1.1h0.1c0.3-0.4 0.6-0.7 1.1-1 0.5-0.2 1-0.4 1.6-0.4 1 0 1.8 0.2 2.4 0.7 0.5 0.5 0.8 1.3 0.8 2.4v5.6h-1.3z"/>
	<path class="st18" d="m71.6 151.7l-0.3-1.2h-0.1c-0.4 0.5-0.9 0.9-1.3 1.1s-1 0.3-1.6 0.3c-0.8 0-1.5-0.2-2-0.7s-0.7-1.1-0.7-1.9c0-1.7 1.4-2.6 4.1-2.7h1.5v-0.6c0-0.7-0.1-1.2-0.4-1.5s-0.8-0.5-1.4-0.5c-0.7 0-1.5 0.2-2.4 0.7l-0.4-1c0.4-0.2 0.9-0.4 1.4-0.5s1-0.2 1.5-0.2c1 0 1.8 0.2 2.3 0.7s0.7 1.2 0.7 2.2v5.8h-0.9zm-2.9-0.9c0.8 0 1.4-0.2 1.9-0.7 0.5-0.4 0.7-1.1 0.7-1.9v-0.8l-1.3 0.1c-1 0-1.8 0.2-2.2 0.5-0.5 0.3-0.7 0.7-0.7 1.3 0 0.5 0.1 0.8 0.4 1.1s0.7 0.4 1.2 0.4z"/>
	<path class="st18" d="m78 150.8c0.2 0 0.5 0 0.7-0.1 0.2 0 0.4-0.1 0.5-0.1v1c-0.1 0.1-0.3 0.1-0.6 0.2-0.3 0-0.5 0.1-0.7 0.1-1.7 0-2.5-0.9-2.5-2.6v-5.1h-1.2v-0.6l1.2-0.5 0.5-1.8h0.8v2h2.5v1h-2.5v5c0 0.5 0.1 0.9 0.4 1.2 0.1 0.1 0.5 0.3 0.9 0.3z"/>
	<path class="st18" d="m86.4 149.4c0 0.8-0.3 1.4-0.9 1.8s-1.4 0.6-2.5 0.6-2-0.2-2.7-0.5v-1.2c0.4 0.2 0.9 0.4 1.3 0.5 0.5 0.1 0.9 0.2 1.4 0.2 0.7 0 1.2-0.1 1.6-0.3s0.5-0.5 0.5-1c0-0.3-0.1-0.6-0.4-0.9-0.3-0.2-0.9-0.5-1.7-0.8s-1.4-0.6-1.7-0.8-0.6-0.5-0.8-0.8-0.2-0.6-0.2-1c0-0.7 0.3-1.2 0.9-1.7 0.6-0.4 1.3-0.6 2.3-0.6 0.9 0 1.8 0.2 2.7 0.6l-0.5 1.1c-0.9-0.4-1.6-0.5-2.3-0.5-0.6 0-1.1 0.1-1.4 0.3s-0.5 0.5-0.5 0.8c0 0.2 0.1 0.4 0.2 0.6s0.3 0.3 0.6 0.5c0.3 0.1 0.8 0.4 1.5 0.6 1 0.4 1.7 0.7 2.1 1.1s0.5 0.8 0.5 1.4z"/>
	<path class="st18" d="m95.9 151.7l-1.4-3.6h-4.6l-1.4 3.6h-1.3l4.5-11.5h1.1l4.5 11.5h-1.4zm-1.8-4.8l-1.3-3.5c-0.2-0.4-0.3-1-0.5-1.6-0.1 0.5-0.3 1-0.5 1.6l-1.3 3.5h3.6z"/>
	<path class="st18" d="m102.6 151.8c-0.6 0-1.1-0.1-1.5-0.3s-0.8-0.5-1.2-0.9h-0.1c0.1 0.5 0.1 1 0.1 1.4v3.5h-1.3v-12.4h1.1l0.2 1.2h0.1c0.3-0.5 0.7-0.8 1.2-1 0.4-0.2 1-0.3 1.5-0.3 1.1 0 2 0.4 2.6 1.2s0.9 1.9 0.9 3.3-0.3 2.5-0.9 3.3c-0.7 0.7-1.6 1-2.7 1zm-0.2-7.7c-0.9 0-1.5 0.2-1.9 0.7s-0.6 1.3-0.6 2.3v0.3c0 1.2 0.2 2.1 0.6 2.6s1 0.8 1.9 0.8c0.7 0 1.3-0.3 1.7-0.9s0.6-1.4 0.6-2.5-0.2-1.9-0.6-2.5-0.9-0.8-1.7-0.8z"/>
	<path class="st18" d="m112.4 151.8c-0.6 0-1.1-0.1-1.5-0.3s-0.8-0.5-1.2-0.9h-0.1c0.1 0.5 0.1 1 0.1 1.4v3.5h-1.3v-12.4h1.1l0.2 1.2h0.1c0.3-0.5 0.7-0.8 1.2-1 0.4-0.2 1-0.3 1.5-0.3 1.1 0 2 0.4 2.6 1.2s0.9 1.9 0.9 3.3-0.3 2.5-0.9 3.3c-0.7 0.7-1.6 1-2.7 1zm-0.2-7.7c-0.9 0-1.5 0.2-1.9 0.7s-0.6 1.3-0.6 2.3v0.3c0 1.2 0.2 2.1 0.6 2.6s1 0.8 1.9 0.8c0.7 0 1.3-0.3 1.7-0.9s0.6-1.4 0.6-2.5-0.2-1.9-0.6-2.5-0.9-0.8-1.7-0.8z"/>
</svg>
